<?xml version="1.0" encoding="UTF-8" standalone="no"?>
<!DOCTYPE svg PUBLIC "-//W3C//DTD SVG 1.1//EN"
 "http://www.w3.org/Graphics/SVG/1.1/DTD/svg11.dtd">
<!-- Generated by graphviz version 2.36.0 (20140111.2315)
 -->
<!-- Title: src/analysis/utils/A2GeoAcceptance.h Pages: 1 -->
<svg width="968pt" height="264pt"
 viewBox="0.00 0.00 968.17 264.00" xmlns="http://www.w3.org/2000/svg" xmlns:xlink="http://www.w3.org/1999/xlink">
<g id="graph0" class="graph" transform="scale(1 1) rotate(0) translate(4 260)">
<title>src/analysis/utils/A2GeoAcceptance.h</title>
<polygon fill="white" stroke="none" points="-4,4 -4,-260 964.175,-260 964.175,4 -4,4"/>
<!-- Node0 -->
<g id="node1" class="node"><title>Node0</title>
<polygon fill="#bfbfbf" stroke="black" points="404.175,-225 404.175,-255 514.175,-255 514.175,-225 404.175,-225"/>
<text text-anchor="start" x="412.175" y="-243" font-family="Helvetica,sans-Serif" font-size="10.00">src/analysis/utils</text>
<text text-anchor="middle" x="459.175" y="-232" font-family="Helvetica,sans-Serif" font-size="10.00">/A2GeoAcceptance.h</text>
</g>
<!-- Node1 -->
<g id="node2" class="node"><title>Node1</title>
<g id="a_node2"><a xlink:href="interval_8h.html" target="_top" xlink:title="base/interval.h">
<polygon fill="white" stroke="black" points="180.175,-168.5 180.175,-187.5 260.175,-187.5 260.175,-168.5 180.175,-168.5"/>
<text text-anchor="middle" x="220.175" y="-175.5" font-family="Helvetica,sans-Serif" font-size="10.00">base/interval.h</text>
</a>
</g>
</g>
<!-- Node0&#45;&gt;Node1 -->
<g id="edge1" class="edge"><title>Node0&#45;&gt;Node1</title>
<path fill="none" stroke="midnightblue" d="M404.043,-225.159C361.559,-214.494 303.605,-199.945 264.194,-190.051"/>
<polygon fill="midnightblue" stroke="midnightblue" points="264.898,-186.619 254.346,-187.579 263.193,-193.408 264.898,-186.619"/>
</g>
<!-- Node9 -->
<g id="node10" class="node"><title>Node9</title>
<g id="a_node10"><a xlink:href="_detector__t_8h.html" target="_top" xlink:title="base/Detector_t.h">
<polygon fill="white" stroke="black" points="617.675,-168.5 617.675,-187.5 712.675,-187.5 712.675,-168.5 617.675,-168.5"/>
<text text-anchor="middle" x="665.175" y="-175.5" font-family="Helvetica,sans-Serif" font-size="10.00">base/Detector_t.h</text>
</a>
</g>
</g>
<!-- Node0&#45;&gt;Node9 -->
<g id="edge9" class="edge"><title>Node0&#45;&gt;Node9</title>
<path fill="none" stroke="midnightblue" d="M507.472,-224.933C543.576,-214.417 592.312,-200.222 626.005,-190.409"/>
<polygon fill="midnightblue" stroke="midnightblue" points="627.325,-193.67 635.948,-187.513 625.368,-186.949 627.325,-193.67"/>
</g>
<!-- Node2 -->
<g id="node3" class="node"><title>Node2</title>
<g id="a_node3"><a xlink:href="types_8h.html" target="_top" xlink:title="types.h">
<polygon fill="white" stroke="black" points="162.675,-112.5 162.675,-131.5 211.675,-131.5 211.675,-112.5 162.675,-112.5"/>
<text text-anchor="middle" x="187.175" y="-119.5" font-family="Helvetica,sans-Serif" font-size="10.00">types.h</text>
</a>
</g>
</g>
<!-- Node1&#45;&gt;Node2 -->
<g id="edge2" class="edge"><title>Node1&#45;&gt;Node2</title>
<path fill="none" stroke="midnightblue" d="M214.725,-168.083C210.16,-160.613 203.506,-149.724 197.881,-140.52"/>
<polygon fill="midnightblue" stroke="midnightblue" points="200.723,-138.459 192.522,-131.751 194.751,-142.109 200.723,-138.459"/>
</g>
<!-- Node3 -->
<g id="node4" class="node"><title>Node3</title>
<polygon fill="white" stroke="#bfbfbf" points="88.1746,-112.5 88.1746,-131.5 144.175,-131.5 144.175,-112.5 88.1746,-112.5"/>
<text text-anchor="middle" x="116.175" y="-119.5" font-family="Helvetica,sans-Serif" font-size="10.00">algorithm</text>
</g>
<!-- Node1&#45;&gt;Node3 -->
<g id="edge3" class="edge"><title>Node1&#45;&gt;Node3</title>
<path fill="none" stroke="midnightblue" d="M203.465,-168.324C186.863,-159.703 161.172,-146.364 141.954,-136.386"/>
<polygon fill="midnightblue" stroke="midnightblue" points="143.33,-133.156 132.843,-131.655 140.105,-139.369 143.33,-133.156"/>
</g>
<!-- Node4 -->
<g id="node5" class="node"><title>Node4</title>
<polygon fill="white" stroke="#bfbfbf" points="296.675,-112.5 296.675,-131.5 355.675,-131.5 355.675,-112.5 296.675,-112.5"/>
<text text-anchor="middle" x="326.175" y="-119.5" font-family="Helvetica,sans-Serif" font-size="10.00">stdexcept</text>
</g>
<!-- Node1&#45;&gt;Node4 -->
<g id="edge4" class="edge"><title>Node1&#45;&gt;Node4</title>
<path fill="none" stroke="midnightblue" d="M237.205,-168.324C254.204,-159.664 280.551,-146.242 300.167,-136.249"/>
<polygon fill="midnightblue" stroke="midnightblue" points="301.864,-139.312 309.186,-131.655 298.687,-133.075 301.864,-139.312"/>
</g>
<!-- Node5 -->
<g id="node6" class="node"><title>Node5</title>
<polygon fill="white" stroke="#bfbfbf" points="605.175,-56.5 605.175,-75.5 645.175,-75.5 645.175,-56.5 605.175,-56.5"/>
<text text-anchor="middle" x="625.175" y="-63.5" font-family="Helvetica,sans-Serif" font-size="10.00">limits</text>
</g>
<!-- Node1&#45;&gt;Node5 -->
<g id="edge5" class="edge"><title>Node1&#45;&gt;Node5</title>
<path fill="none" stroke="midnightblue" d="M260.256,-175.131C339.233,-170.905 511.846,-158.819 564.175,-132 585.616,-121.011 603.539,-99.3476 614.293,-84.0575"/>
<polygon fill="midnightblue" stroke="midnightblue" points="617.361,-85.7666 620.03,-75.5133 611.55,-81.8646 617.361,-85.7666"/>
</g>
<!-- Node6 -->
<g id="node7" class="node"><title>Node6</title>
<polygon fill="white" stroke="#bfbfbf" points="229.675,-112.5 229.675,-131.5 278.675,-131.5 278.675,-112.5 229.675,-112.5"/>
<text text-anchor="middle" x="254.175" y="-119.5" font-family="Helvetica,sans-Serif" font-size="10.00">istream</text>
</g>
<!-- Node1&#45;&gt;Node6 -->
<g id="edge6" class="edge"><title>Node1&#45;&gt;Node6</title>
<path fill="none" stroke="midnightblue" d="M225.789,-168.083C230.542,-160.534 237.493,-149.495 243.326,-140.23"/>
<polygon fill="midnightblue" stroke="midnightblue" points="246.298,-142.078 248.665,-131.751 240.375,-138.349 246.298,-142.078"/>
</g>
<!-- Node7 -->
<g id="node8" class="node"><title>Node7</title>
<polygon fill="white" stroke="#bfbfbf" points="18.1746,-112.5 18.1746,-131.5 70.1746,-131.5 70.1746,-112.5 18.1746,-112.5"/>
<text text-anchor="middle" x="44.1746" y="-119.5" font-family="Helvetica,sans-Serif" font-size="10.00">sstream</text>
</g>
<!-- Node1&#45;&gt;Node7 -->
<g id="edge7" class="edge"><title>Node1&#45;&gt;Node7</title>
<path fill="none" stroke="midnightblue" d="M192.287,-168.444C161.894,-159.118 113.176,-144.171 79.9777,-133.985"/>
<polygon fill="midnightblue" stroke="midnightblue" points="80.7973,-130.576 70.2106,-130.988 78.744,-137.268 80.7973,-130.576"/>
</g>
<!-- Node8 -->
<g id="node9" class="node"><title>Node8</title>
<polygon fill="white" stroke="#bfbfbf" points="446.175,-0.5 446.175,-19.5 490.175,-19.5 490.175,-0.5 446.175,-0.5"/>
<text text-anchor="middle" x="468.175" y="-7.5" font-family="Helvetica,sans-Serif" font-size="10.00">cmath</text>
</g>
<!-- Node1&#45;&gt;Node8 -->
<g id="edge8" class="edge"><title>Node1&#45;&gt;Node8</title>
<path fill="none" stroke="midnightblue" d="M179.992,-177.605C106.661,-177.343 -37.2356,-169.733 9.17458,-112 63.137,-44.8726 340.25,-19.7732 435.767,-13.0352"/>
<polygon fill="midnightblue" stroke="midnightblue" points="436.24,-16.5111 445.978,-12.3366 435.762,-9.52739 436.24,-16.5111"/>
</g>
<!-- Node9&#45;&gt;Node4 -->
<g id="edge22" class="edge"><title>Node9&#45;&gt;Node4</title>
<path fill="none" stroke="midnightblue" d="M617.524,-171.136C560.036,-163.782 460.267,-150.131 365.981,-132.229"/>
<polygon fill="midnightblue" stroke="midnightblue" points="366.475,-128.76 355.994,-130.313 365.155,-135.635 366.475,-128.76"/>
</g>
<!-- Node10 -->
<g id="node11" class="node"><title>Node10</title>
<g id="a_node11"><a xlink:href="bitflag_8h.html" target="_top" xlink:title="base/bitflag.h">
<polygon fill="white" stroke="black" points="373.675,-112.5 373.675,-131.5 448.675,-131.5 448.675,-112.5 373.675,-112.5"/>
<text text-anchor="middle" x="411.175" y="-119.5" font-family="Helvetica,sans-Serif" font-size="10.00">base/bitflag.h</text>
</a>
</g>
</g>
<!-- Node9&#45;&gt;Node10 -->
<g id="edge10" class="edge"><title>Node9&#45;&gt;Node10</title>
<path fill="none" stroke="midnightblue" d="M624.928,-168.444C579.741,-158.837 506.489,-143.264 458.571,-133.076"/>
<polygon fill="midnightblue" stroke="midnightblue" points="459.258,-129.644 448.749,-130.988 457.803,-136.491 459.258,-129.644"/>
</g>
<!-- Node12 -->
<g id="node13" class="node"><title>Node12</title>
<g id="a_node13"><a xlink:href="vec3_8h.html" target="_top" xlink:title="base/vec/vec3.h">
<polygon fill="white" stroke="black" points="466.675,-112.5 466.675,-131.5 555.675,-131.5 555.675,-112.5 466.675,-112.5"/>
<text text-anchor="middle" x="511.175" y="-119.5" font-family="Helvetica,sans-Serif" font-size="10.00">base/vec/vec3.h</text>
</a>
</g>
</g>
<!-- Node9&#45;&gt;Node12 -->
<g id="edge12" class="edge"><title>Node9&#45;&gt;Node12</title>
<path fill="none" stroke="midnightblue" d="M640.773,-168.444C614.978,-159.399 574.098,-145.064 545.157,-134.916"/>
<polygon fill="midnightblue" stroke="midnightblue" points="546.057,-131.523 535.462,-131.516 543.741,-138.128 546.057,-131.523"/>
</g>
<!-- Node15 -->
<g id="node16" class="node"><title>Node15</title>
<g id="a_node16"><a xlink:href="base_2std__ext_2math_8h.html" target="_top" xlink:title="base/std_ext/math.h">
<polygon fill="white" stroke="black" points="612.175,-112.5 612.175,-131.5 718.175,-131.5 718.175,-112.5 612.175,-112.5"/>
<text text-anchor="middle" x="665.175" y="-119.5" font-family="Helvetica,sans-Serif" font-size="10.00">base/std_ext/math.h</text>
</a>
</g>
</g>
<!-- Node9&#45;&gt;Node15 -->
<g id="edge17" class="edge"><title>Node9&#45;&gt;Node15</title>
<path fill="none" stroke="midnightblue" d="M665.175,-168.083C665.175,-161.006 665.175,-150.861 665.175,-141.986"/>
<polygon fill="midnightblue" stroke="midnightblue" points="668.675,-141.751 665.175,-131.751 661.675,-141.751 668.675,-141.751"/>
</g>
<!-- Node16 -->
<g id="node17" class="node"><title>Node16</title>
<polygon fill="white" stroke="#bfbfbf" points="716.175,-56.5 716.175,-75.5 760.175,-75.5 760.175,-56.5 716.175,-56.5"/>
<text text-anchor="middle" x="738.175" y="-63.5" font-family="Helvetica,sans-Serif" font-size="10.00">vector</text>
</g>
<!-- Node9&#45;&gt;Node16 -->
<g id="edge25" class="edge"><title>Node9&#45;&gt;Node16</title>
<path fill="none" stroke="midnightblue" d="M683.355,-168.393C697.326,-160.805 715.917,-148.402 726.175,-132 734.826,-118.166 737.569,-99.6474 738.298,-85.9158"/>
<polygon fill="midnightblue" stroke="midnightblue" points="741.802,-85.7894 738.522,-75.715 734.803,-85.6357 741.802,-85.7894"/>
</g>
<!-- Node17 -->
<g id="node18" class="node"><title>Node17</title>
<polygon fill="white" stroke="#bfbfbf" points="774.175,-112.5 774.175,-131.5 820.175,-131.5 820.175,-112.5 774.175,-112.5"/>
<text text-anchor="middle" x="797.175" y="-119.5" font-family="Helvetica,sans-Serif" font-size="10.00">cstdint</text>
</g>
<!-- Node9&#45;&gt;Node17 -->
<g id="edge21" class="edge"><title>Node9&#45;&gt;Node17</title>
<path fill="none" stroke="midnightblue" d="M686.09,-168.444C707.911,-159.517 742.324,-145.439 767.067,-135.317"/>
<polygon fill="midnightblue" stroke="midnightblue" points="768.426,-138.542 776.357,-131.516 765.776,-132.063 768.426,-138.542"/>
</g>
<!-- Node18 -->
<g id="node19" class="node"><title>Node18</title>
<polygon fill="white" stroke="#bfbfbf" points="838.675,-112.5 838.675,-131.5 879.675,-131.5 879.675,-112.5 838.675,-112.5"/>
<text text-anchor="middle" x="859.175" y="-119.5" font-family="Helvetica,sans-Serif" font-size="10.00">string</text>
</g>
<!-- Node9&#45;&gt;Node18 -->
<g id="edge23" class="edge"><title>Node9&#45;&gt;Node18</title>
<path fill="none" stroke="midnightblue" d="M697.291,-168.428C728.46,-160.057 777.334,-146.79 828.884,-132.033"/>
<polygon fill="midnightblue" stroke="midnightblue" points="829.891,-135.385 838.537,-129.261 827.959,-128.657 829.891,-135.385"/>
</g>
<!-- Node19 -->
<g id="node20" class="node"><title>Node19</title>
<polygon fill="white" stroke="#bfbfbf" points="898.175,-112.5 898.175,-131.5 960.175,-131.5 960.175,-112.5 898.175,-112.5"/>
<text text-anchor="middle" x="929.175" y="-119.5" font-family="Helvetica,sans-Serif" font-size="10.00">type_traits</text>
</g>
<!-- Node9&#45;&gt;Node19 -->
<g id="edge24" class="edge"><title>Node9&#45;&gt;Node19</title>
<path fill="none" stroke="midnightblue" d="M708.805,-168.423C751.683,-159.943 819.247,-146.446 887.738,-132.062"/>
<polygon fill="midnightblue" stroke="midnightblue" points="888.783,-135.419 897.847,-129.934 887.341,-128.569 888.783,-135.419"/>
</g>
<!-- Node11 -->
<g id="node12" class="node"><title>Node11</title>
<polygon fill="white" stroke="#bfbfbf" points="373.675,-56.5 373.675,-75.5 414.675,-75.5 414.675,-56.5 373.675,-56.5"/>
<text text-anchor="middle" x="394.175" y="-63.5" font-family="Helvetica,sans-Serif" font-size="10.00">bitset</text>
</g>
<!-- Node10&#45;&gt;Node11 -->
<g id="edge11" class="edge"><title>Node10&#45;&gt;Node11</title>
<path fill="none" stroke="midnightblue" d="M408.367,-112.083C406.09,-104.849 402.803,-94.4087 399.966,-85.3968"/>
<polygon fill="midnightblue" stroke="midnightblue" points="403.271,-84.2385 396.93,-75.7511 396.594,-86.3406 403.271,-84.2385"/>
</g>
<!-- Node12&#45;&gt;Node8 -->
<g id="edge16" class="edge"><title>Node12&#45;&gt;Node8</title>
<path fill="none" stroke="midnightblue" d="M496.513,-112.402C484.768,-104.585 469.143,-91.8617 462.175,-76 455.7,-61.2636 458.257,-42.8711 461.816,-29.4154"/>
<polygon fill="midnightblue" stroke="midnightblue" points="465.165,-30.4329 464.733,-19.8469 458.469,-28.392 465.165,-30.4329"/>
</g>
<!-- Node13 -->
<g id="node14" class="node"><title>Node13</title>
<g id="a_node14"><a xlink:href="vec2_8h.html" target="_top" xlink:title="vec2.h">
<polygon fill="white" stroke="black" points="471.175,-56.5 471.175,-75.5 517.175,-75.5 517.175,-56.5 471.175,-56.5"/>
<text text-anchor="middle" x="494.175" y="-63.5" font-family="Helvetica,sans-Serif" font-size="10.00">vec2.h</text>
</a>
</g>
</g>
<!-- Node12&#45;&gt;Node13 -->
<g id="edge13" class="edge"><title>Node12&#45;&gt;Node13</title>
<path fill="none" stroke="midnightblue" d="M508.367,-112.083C506.09,-104.849 502.803,-94.4087 499.966,-85.3968"/>
<polygon fill="midnightblue" stroke="midnightblue" points="503.271,-84.2385 496.93,-75.7511 496.594,-86.3406 503.271,-84.2385"/>
</g>
<!-- Node14 -->
<g id="node15" class="node"><title>Node14</title>
<polygon fill="white" stroke="#bfbfbf" points="535.175,-56.5 535.175,-75.5 587.175,-75.5 587.175,-56.5 535.175,-56.5"/>
<text text-anchor="middle" x="561.175" y="-63.5" font-family="Helvetica,sans-Serif" font-size="10.00">ostream</text>
</g>
<!-- Node12&#45;&gt;Node14 -->
<g id="edge15" class="edge"><title>Node12&#45;&gt;Node14</title>
<path fill="none" stroke="midnightblue" d="M519.431,-112.083C526.639,-104.298 537.284,-92.8015 546.02,-83.3665"/>
<polygon fill="midnightblue" stroke="midnightblue" points="548.846,-85.4666 553.072,-75.7511 543.709,-80.7108 548.846,-85.4666"/>
</g>
<!-- Node13&#45;&gt;Node8 -->
<g id="edge14" class="edge"><title>Node13&#45;&gt;Node8</title>
<path fill="none" stroke="midnightblue" d="M489.881,-56.083C486.322,-48.6913 481.152,-37.9533 476.75,-28.8111"/>
<polygon fill="midnightblue" stroke="midnightblue" points="479.88,-27.2427 472.388,-19.7511 473.573,-30.2795 479.88,-27.2427"/>
</g>
<!-- Node15&#45;&gt;Node5 -->
<g id="edge19" class="edge"><title>Node15&#45;&gt;Node5</title>
<path fill="none" stroke="midnightblue" d="M658.569,-112.083C652.919,-104.455 644.63,-93.2645 637.723,-83.9408"/>
<polygon fill="midnightblue" stroke="midnightblue" points="640.422,-81.7034 631.657,-75.7511 634.797,-85.87 640.422,-81.7034"/>
</g>
<!-- Node15&#45;&gt;Node8 -->
<g id="edge18" class="edge"><title>Node15&#45;&gt;Node8</title>
<path fill="none" stroke="midnightblue" d="M666.462,-112.122C667.936,-98.2422 668.537,-71.4011 654.175,-56 633.53,-33.8631 548.038,-20.4408 500.474,-14.5427"/>
<polygon fill="midnightblue" stroke="midnightblue" points="500.723,-11.0476 490.378,-13.3331 499.89,-17.9979 500.723,-11.0476"/>
</g>
<!-- Node15&#45;&gt;Node16 -->
<g id="edge20" class="edge"><title>Node15&#45;&gt;Node16</title>
<path fill="none" stroke="midnightblue" d="M676.903,-112.324C688.012,-104.107 704.917,-91.6017 718.158,-81.8069"/>
<polygon fill="midnightblue" stroke="midnightblue" points="720.274,-84.5948 726.232,-75.8339 716.111,-78.9671 720.274,-84.5948"/>
</g>
</g>
</svg>
