<?xml version="1.0" encoding="UTF-8" standalone="no"?>
<!DOCTYPE svg PUBLIC "-//W3C//DTD SVG 1.1//EN"
 "http://www.w3.org/Graphics/SVG/1.1/DTD/svg11.dtd">
<!-- Generated by graphviz version 2.36.0 (20140111.2315)
 -->
<!-- Title: src/analysis/utils/A2GeoAcceptance.cc Pages: 1 -->
<svg width="989pt" height="320pt"
 viewBox="0.00 0.00 989.00 320.00" xmlns="http://www.w3.org/2000/svg" xmlns:xlink="http://www.w3.org/1999/xlink">
<g id="graph0" class="graph" transform="scale(1 1) rotate(0) translate(4 316)">
<title>src/analysis/utils/A2GeoAcceptance.cc</title>
<polygon fill="white" stroke="none" points="-4,4 -4,-316 985,-316 985,4 -4,4"/>
<!-- Node0 -->
<g id="node1" class="node"><title>Node0</title>
<polygon fill="#bfbfbf" stroke="black" points="583.5,-281 583.5,-311 698.5,-311 698.5,-281 583.5,-281"/>
<text text-anchor="start" x="591.5" y="-299" font-family="Helvetica,sans-Serif" font-size="10.00">src/analysis/utils</text>
<text text-anchor="middle" x="641" y="-288" font-family="Helvetica,sans-Serif" font-size="10.00">/A2GeoAcceptance.cc</text>
</g>
<!-- Node1 -->
<g id="node2" class="node"><title>Node1</title>
<g id="a_node2"><a xlink:href="_a2_geo_acceptance_8h.html" target="_top" xlink:title="A2GeoAcceptance.h">
<polygon fill="white" stroke="black" points="524.5,-224.5 524.5,-243.5 631.5,-243.5 631.5,-224.5 524.5,-224.5"/>
<text text-anchor="middle" x="578" y="-231.5" font-family="Helvetica,sans-Serif" font-size="10.00">A2GeoAcceptance.h</text>
</a>
</g>
</g>
<!-- Node0&#45;&gt;Node1 -->
<g id="edge1" class="edge"><title>Node0&#45;&gt;Node1</title>
<path fill="none" stroke="midnightblue" d="M626.07,-280.781C616.632,-271.792 604.42,-260.162 594.667,-250.873"/>
<polygon fill="midnightblue" stroke="midnightblue" points="596.822,-248.093 587.167,-243.731 591.995,-253.162 596.822,-248.093"/>
</g>
<!-- Node16 -->
<g id="node17" class="node"><title>Node16</title>
<g id="a_node17"><a xlink:href="base_2std__ext_2math_8h.html" target="_top" xlink:title="base/std_ext/math.h">
<polygon fill="white" stroke="black" points="675,-112.5 675,-131.5 781,-131.5 781,-112.5 675,-112.5"/>
<text text-anchor="middle" x="728" y="-119.5" font-family="Helvetica,sans-Serif" font-size="10.00">base/std_ext/math.h</text>
</a>
</g>
</g>
<!-- Node0&#45;&gt;Node16 -->
<g id="edge27" class="edge"><title>Node0&#45;&gt;Node16</title>
<path fill="none" stroke="midnightblue" d="M648.12,-280.925C663.86,-249.805 701.596,-175.201 718.967,-140.858"/>
<polygon fill="midnightblue" stroke="midnightblue" points="722.267,-142.088 723.658,-131.585 716.021,-138.928 722.267,-142.088"/>
</g>
<!-- Node2 -->
<g id="node3" class="node"><title>Node2</title>
<g id="a_node3"><a xlink:href="interval_8h.html" target="_top" xlink:title="base/interval.h">
<polygon fill="white" stroke="black" points="199,-168.5 199,-187.5 279,-187.5 279,-168.5 199,-168.5"/>
<text text-anchor="middle" x="239" y="-175.5" font-family="Helvetica,sans-Serif" font-size="10.00">base/interval.h</text>
</a>
</g>
</g>
<!-- Node1&#45;&gt;Node2 -->
<g id="edge2" class="edge"><title>Node1&#45;&gt;Node2</title>
<path fill="none" stroke="midnightblue" d="M524.284,-224.444C459.734,-214.161 352.268,-197.043 289.284,-187.01"/>
<polygon fill="midnightblue" stroke="midnightblue" points="289.62,-183.519 279.194,-185.403 288.519,-190.432 289.62,-183.519"/>
</g>
<!-- Node10 -->
<g id="node11" class="node"><title>Node10</title>
<g id="a_node11"><a xlink:href="_detector__t_8h.html" target="_top" xlink:title="base/Detector_t.h">
<polygon fill="white" stroke="black" points="530.5,-168.5 530.5,-187.5 625.5,-187.5 625.5,-168.5 530.5,-168.5"/>
<text text-anchor="middle" x="578" y="-175.5" font-family="Helvetica,sans-Serif" font-size="10.00">base/Detector_t.h</text>
</a>
</g>
</g>
<!-- Node1&#45;&gt;Node10 -->
<g id="edge10" class="edge"><title>Node1&#45;&gt;Node10</title>
<path fill="none" stroke="midnightblue" d="M578,-224.083C578,-217.006 578,-206.861 578,-197.986"/>
<polygon fill="midnightblue" stroke="midnightblue" points="581.5,-197.751 578,-187.751 574.5,-197.751 581.5,-197.751"/>
</g>
<!-- Node3 -->
<g id="node4" class="node"><title>Node3</title>
<g id="a_node4"><a xlink:href="types_8h.html" target="_top" xlink:title="types.h">
<polygon fill="white" stroke="black" points="112.5,-112.5 112.5,-131.5 161.5,-131.5 161.5,-112.5 112.5,-112.5"/>
<text text-anchor="middle" x="137" y="-119.5" font-family="Helvetica,sans-Serif" font-size="10.00">types.h</text>
</a>
</g>
</g>
<!-- Node2&#45;&gt;Node3 -->
<g id="edge3" class="edge"><title>Node2&#45;&gt;Node3</title>
<path fill="none" stroke="midnightblue" d="M222.612,-168.324C206.329,-159.703 181.133,-146.364 162.284,-136.386"/>
<polygon fill="midnightblue" stroke="midnightblue" points="163.823,-133.24 153.347,-131.655 160.548,-139.427 163.823,-133.24"/>
</g>
<!-- Node4 -->
<g id="node5" class="node"><title>Node4</title>
<polygon fill="white" stroke="#bfbfbf" points="0,-112.5 0,-131.5 56,-131.5 56,-112.5 0,-112.5"/>
<text text-anchor="middle" x="28" y="-119.5" font-family="Helvetica,sans-Serif" font-size="10.00">algorithm</text>
</g>
<!-- Node2&#45;&gt;Node4 -->
<g id="edge4" class="edge"><title>Node2&#45;&gt;Node4</title>
<path fill="none" stroke="midnightblue" d="M205.566,-168.444C167.618,-158.731 105.839,-142.921 66.0681,-132.743"/>
<polygon fill="midnightblue" stroke="midnightblue" points="66.7683,-129.309 56.2127,-130.22 65.0327,-136.09 66.7683,-129.309"/>
</g>
<!-- Node5 -->
<g id="node6" class="node"><title>Node5</title>
<polygon fill="white" stroke="#bfbfbf" points="355.5,-112.5 355.5,-131.5 414.5,-131.5 414.5,-112.5 355.5,-112.5"/>
<text text-anchor="middle" x="385" y="-119.5" font-family="Helvetica,sans-Serif" font-size="10.00">stdexcept</text>
</g>
<!-- Node2&#45;&gt;Node5 -->
<g id="edge5" class="edge"><title>Node2&#45;&gt;Node5</title>
<path fill="none" stroke="midnightblue" d="M262.134,-168.444C286.482,-159.438 325.007,-145.189 352.423,-135.049"/>
<polygon fill="midnightblue" stroke="midnightblue" points="353.809,-138.268 361.974,-131.516 351.381,-131.703 353.809,-138.268"/>
</g>
<!-- Node6 -->
<g id="node7" class="node"><title>Node6</title>
<polygon fill="white" stroke="#bfbfbf" points="392,-56.5 392,-75.5 432,-75.5 432,-56.5 392,-56.5"/>
<text text-anchor="middle" x="412" y="-63.5" font-family="Helvetica,sans-Serif" font-size="10.00">limits</text>
</g>
<!-- Node2&#45;&gt;Node6 -->
<g id="edge6" class="edge"><title>Node2&#45;&gt;Node6</title>
<path fill="none" stroke="midnightblue" d="M252.575,-168.368C282.262,-149.492 353.204,-104.385 389.61,-81.2367"/>
<polygon fill="midnightblue" stroke="midnightblue" points="391.927,-83.9106 398.488,-75.5914 388.171,-78.0035 391.927,-83.9106"/>
</g>
<!-- Node7 -->
<g id="node8" class="node"><title>Node7</title>
<polygon fill="white" stroke="#bfbfbf" points="179.5,-112.5 179.5,-131.5 228.5,-131.5 228.5,-112.5 179.5,-112.5"/>
<text text-anchor="middle" x="204" y="-119.5" font-family="Helvetica,sans-Serif" font-size="10.00">istream</text>
</g>
<!-- Node2&#45;&gt;Node7 -->
<g id="edge7" class="edge"><title>Node2&#45;&gt;Node7</title>
<path fill="none" stroke="midnightblue" d="M233.22,-168.083C228.328,-160.534 221.173,-149.495 215.167,-140.23"/>
<polygon fill="midnightblue" stroke="midnightblue" points="218.048,-138.239 209.672,-131.751 212.174,-142.046 218.048,-138.239"/>
</g>
<!-- Node8 -->
<g id="node9" class="node"><title>Node8</title>
<polygon fill="white" stroke="#bfbfbf" points="247,-112.5 247,-131.5 299,-131.5 299,-112.5 247,-112.5"/>
<text text-anchor="middle" x="273" y="-119.5" font-family="Helvetica,sans-Serif" font-size="10.00">sstream</text>
</g>
<!-- Node2&#45;&gt;Node8 -->
<g id="edge8" class="edge"><title>Node2&#45;&gt;Node8</title>
<path fill="none" stroke="midnightblue" d="M244.614,-168.083C249.367,-160.534 256.318,-149.495 262.152,-140.23"/>
<polygon fill="midnightblue" stroke="midnightblue" points="265.124,-142.078 267.49,-131.751 259.2,-138.349 265.124,-142.078"/>
</g>
<!-- Node9 -->
<g id="node10" class="node"><title>Node9</title>
<polygon fill="white" stroke="#bfbfbf" points="727,-0.5 727,-19.5 771,-19.5 771,-0.5 727,-0.5"/>
<text text-anchor="middle" x="749" y="-7.5" font-family="Helvetica,sans-Serif" font-size="10.00">cmath</text>
</g>
<!-- Node2&#45;&gt;Node9 -->
<g id="edge9" class="edge"><title>Node2&#45;&gt;Node9</title>
<path fill="none" stroke="midnightblue" d="M198.902,-172.359C149.031,-164.984 73.7998,-147.618 103,-112 181.679,-16.0274 597.212,-10.3171 716.785,-10.6937"/>
<polygon fill="midnightblue" stroke="midnightblue" points="716.769,-14.1936 726.786,-10.7422 716.803,-7.19368 716.769,-14.1936"/>
</g>
<!-- Node10&#45;&gt;Node5 -->
<g id="edge23" class="edge"><title>Node10&#45;&gt;Node5</title>
<path fill="none" stroke="midnightblue" d="M547.419,-168.444C514.191,-159.147 460.991,-144.262 424.594,-134.078"/>
<polygon fill="midnightblue" stroke="midnightblue" points="425.377,-130.663 414.804,-131.339 423.491,-137.404 425.377,-130.663"/>
</g>
<!-- Node11 -->
<g id="node12" class="node"><title>Node11</title>
<g id="a_node12"><a xlink:href="bitflag_8h.html" target="_top" xlink:title="base/bitflag.h">
<polygon fill="white" stroke="black" points="906.5,-112.5 906.5,-131.5 981.5,-131.5 981.5,-112.5 906.5,-112.5"/>
<text text-anchor="middle" x="944" y="-119.5" font-family="Helvetica,sans-Serif" font-size="10.00">base/bitflag.h</text>
</a>
</g>
</g>
<!-- Node10&#45;&gt;Node11 -->
<g id="edge11" class="edge"><title>Node10&#45;&gt;Node11</title>
<path fill="none" stroke="midnightblue" d="M625.512,-170.952C687.762,-162.873 800.266,-147.741 896,-132 896.105,-131.983 896.209,-131.966 896.314,-131.948"/>
<polygon fill="midnightblue" stroke="midnightblue" points="897.033,-135.376 906.297,-130.234 895.849,-128.477 897.033,-135.376"/>
</g>
<!-- Node13 -->
<g id="node14" class="node"><title>Node13</title>
<g id="a_node14"><a xlink:href="vec3_8h.html" target="_top" xlink:title="base/vec/vec3.h">
<polygon fill="white" stroke="black" points="798.5,-112.5 798.5,-131.5 887.5,-131.5 887.5,-112.5 798.5,-112.5"/>
<text text-anchor="middle" x="843" y="-119.5" font-family="Helvetica,sans-Serif" font-size="10.00">base/vec/vec3.h</text>
</a>
</g>
</g>
<!-- Node10&#45;&gt;Node13 -->
<g id="edge13" class="edge"><title>Node10&#45;&gt;Node13</title>
<path fill="none" stroke="midnightblue" d="M619.99,-168.444C666.412,-158.984 741.228,-143.738 791.24,-133.547"/>
<polygon fill="midnightblue" stroke="midnightblue" points="792.107,-136.943 801.206,-131.516 790.709,-130.084 792.107,-136.943"/>
</g>
<!-- Node10&#45;&gt;Node16 -->
<g id="edge18" class="edge"><title>Node10&#45;&gt;Node16</title>
<path fill="none" stroke="midnightblue" d="M601.768,-168.444C626.893,-159.399 666.711,-145.064 694.9,-134.916"/>
<polygon fill="midnightblue" stroke="midnightblue" points="696.12,-138.197 704.343,-131.516 693.749,-131.611 696.12,-138.197"/>
</g>
<!-- Node17 -->
<g id="node18" class="node"><title>Node17</title>
<polygon fill="white" stroke="#bfbfbf" points="536,-56.5 536,-75.5 580,-75.5 580,-56.5 536,-56.5"/>
<text text-anchor="middle" x="558" y="-63.5" font-family="Helvetica,sans-Serif" font-size="10.00">vector</text>
</g>
<!-- Node10&#45;&gt;Node17 -->
<g id="edge26" class="edge"><title>Node10&#45;&gt;Node17</title>
<path fill="none" stroke="midnightblue" d="M530.241,-171.279C505.493,-165.62 477.315,-154.369 462,-132 442.698,-103.809 491.2,-84.4255 526.075,-74.5638"/>
<polygon fill="midnightblue" stroke="midnightblue" points="527.174,-77.8928 535.926,-71.9224 525.361,-71.1317 527.174,-77.8928"/>
</g>
<!-- Node18 -->
<g id="node19" class="node"><title>Node18</title>
<polygon fill="white" stroke="#bfbfbf" points="471,-112.5 471,-131.5 517,-131.5 517,-112.5 471,-112.5"/>
<text text-anchor="middle" x="494" y="-119.5" font-family="Helvetica,sans-Serif" font-size="10.00">cstdint</text>
</g>
<!-- Node10&#45;&gt;Node18 -->
<g id="edge22" class="edge"><title>Node10&#45;&gt;Node18</title>
<path fill="none" stroke="midnightblue" d="M564.504,-168.324C551.4,-159.9 531.288,-146.971 515.893,-137.074"/>
<polygon fill="midnightblue" stroke="midnightblue" points="517.767,-134.118 507.463,-131.655 513.982,-140.006 517.767,-134.118"/>
</g>
<!-- Node19 -->
<g id="node20" class="node"><title>Node19</title>
<polygon fill="white" stroke="#bfbfbf" points="535.5,-112.5 535.5,-131.5 576.5,-131.5 576.5,-112.5 535.5,-112.5"/>
<text text-anchor="middle" x="556" y="-119.5" font-family="Helvetica,sans-Serif" font-size="10.00">string</text>
</g>
<!-- Node10&#45;&gt;Node19 -->
<g id="edge24" class="edge"><title>Node10&#45;&gt;Node19</title>
<path fill="none" stroke="midnightblue" d="M574.367,-168.083C571.388,-160.77 567.074,-150.181 563.375,-141.103"/>
<polygon fill="midnightblue" stroke="midnightblue" points="566.58,-139.691 559.565,-131.751 560.097,-142.333 566.58,-139.691"/>
</g>
<!-- Node20 -->
<g id="node21" class="node"><title>Node20</title>
<polygon fill="white" stroke="#bfbfbf" points="595,-112.5 595,-131.5 657,-131.5 657,-112.5 595,-112.5"/>
<text text-anchor="middle" x="626" y="-119.5" font-family="Helvetica,sans-Serif" font-size="10.00">type_traits</text>
</g>
<!-- Node10&#45;&gt;Node20 -->
<g id="edge25" class="edge"><title>Node10&#45;&gt;Node20</title>
<path fill="none" stroke="midnightblue" d="M585.926,-168.083C592.846,-160.298 603.065,-148.801 611.452,-139.367"/>
<polygon fill="midnightblue" stroke="midnightblue" points="614.194,-141.55 618.221,-131.751 608.962,-136.9 614.194,-141.55"/>
</g>
<!-- Node12 -->
<g id="node13" class="node"><title>Node12</title>
<polygon fill="white" stroke="#bfbfbf" points="924.5,-56.5 924.5,-75.5 965.5,-75.5 965.5,-56.5 924.5,-56.5"/>
<text text-anchor="middle" x="945" y="-63.5" font-family="Helvetica,sans-Serif" font-size="10.00">bitset</text>
</g>
<!-- Node11&#45;&gt;Node12 -->
<g id="edge12" class="edge"><title>Node11&#45;&gt;Node12</title>
<path fill="none" stroke="midnightblue" d="M944.165,-112.083C944.296,-105.006 944.484,-94.8611 944.648,-85.9865"/>
<polygon fill="midnightblue" stroke="midnightblue" points="948.152,-85.8142 944.838,-75.7511 941.153,-85.6845 948.152,-85.8142"/>
</g>
<!-- Node13&#45;&gt;Node9 -->
<g id="edge17" class="edge"><title>Node13&#45;&gt;Node9</title>
<path fill="none" stroke="midnightblue" d="M853.714,-112.161C868.059,-99.2413 890.251,-74.7053 877,-56 855.44,-25.5671 811.586,-15.5652 781.262,-12.3631"/>
<polygon fill="midnightblue" stroke="midnightblue" points="781.423,-8.86406 771.16,-11.4917 780.822,-15.8382 781.423,-8.86406"/>
</g>
<!-- Node14 -->
<g id="node15" class="node"><title>Node14</title>
<g id="a_node15"><a xlink:href="vec2_8h.html" target="_top" xlink:title="vec2.h">
<polygon fill="white" stroke="black" points="752,-56.5 752,-75.5 798,-75.5 798,-56.5 752,-56.5"/>
<text text-anchor="middle" x="775" y="-63.5" font-family="Helvetica,sans-Serif" font-size="10.00">vec2.h</text>
</a>
</g>
</g>
<!-- Node13&#45;&gt;Node14 -->
<g id="edge14" class="edge"><title>Node13&#45;&gt;Node14</title>
<path fill="none" stroke="midnightblue" d="M832.075,-112.324C821.825,-104.185 806.279,-91.8395 793.999,-82.0874"/>
<polygon fill="midnightblue" stroke="midnightblue" points="796.132,-79.3119 786.124,-75.8339 791.779,-84.7937 796.132,-79.3119"/>
</g>
<!-- Node15 -->
<g id="node16" class="node"><title>Node15</title>
<polygon fill="white" stroke="#bfbfbf" points="816,-56.5 816,-75.5 868,-75.5 868,-56.5 816,-56.5"/>
<text text-anchor="middle" x="842" y="-63.5" font-family="Helvetica,sans-Serif" font-size="10.00">ostream</text>
</g>
<!-- Node13&#45;&gt;Node15 -->
<g id="edge16" class="edge"><title>Node13&#45;&gt;Node15</title>
<path fill="none" stroke="midnightblue" d="M842.835,-112.083C842.704,-105.006 842.516,-94.8611 842.352,-85.9865"/>
<polygon fill="midnightblue" stroke="midnightblue" points="845.847,-85.6845 842.162,-75.7511 838.848,-85.8142 845.847,-85.6845"/>
</g>
<!-- Node14&#45;&gt;Node9 -->
<g id="edge15" class="edge"><title>Node14&#45;&gt;Node9</title>
<path fill="none" stroke="midnightblue" d="M770.707,-56.083C767.148,-48.6913 761.978,-37.9533 757.576,-28.8111"/>
<polygon fill="midnightblue" stroke="midnightblue" points="760.705,-27.2427 753.213,-19.7511 754.398,-30.2795 760.705,-27.2427"/>
</g>
<!-- Node16&#45;&gt;Node6 -->
<g id="edge20" class="edge"><title>Node16&#45;&gt;Node6</title>
<path fill="none" stroke="midnightblue" d="M677.929,-112.444C611.525,-101.096 496.403,-81.4233 442.055,-72.136"/>
<polygon fill="midnightblue" stroke="midnightblue" points="442.475,-68.6571 432.029,-70.4226 441.296,-75.5571 442.475,-68.6571"/>
</g>
<!-- Node16&#45;&gt;Node9 -->
<g id="edge19" class="edge"><title>Node16&#45;&gt;Node9</title>
<path fill="none" stroke="midnightblue" d="M729.648,-112.368C733.037,-94.617 740.855,-53.6664 745.45,-29.5974"/>
<polygon fill="midnightblue" stroke="midnightblue" points="748.922,-30.0704 747.36,-19.5914 742.047,-28.7577 748.922,-30.0704"/>
</g>
<!-- Node16&#45;&gt;Node17 -->
<g id="edge21" class="edge"><title>Node16&#45;&gt;Node17</title>
<path fill="none" stroke="midnightblue" d="M701.063,-112.444C670.903,-102.863 622.062,-87.3492 589.986,-77.1604"/>
<polygon fill="midnightblue" stroke="midnightblue" points="590.796,-73.7454 580.206,-74.0537 588.677,-80.4169 590.796,-73.7454"/>
</g>
</g>
</svg>
