<?xml version="1.0" encoding="UTF-8" standalone="no"?>
<!DOCTYPE svg PUBLIC "-//W3C//DTD SVG 1.1//EN"
 "http://www.w3.org/Graphics/SVG/1.1/DTD/svg11.dtd">
<!-- Generated by graphviz version 2.36.0 (20140111.2315)
 -->
<!-- Title: progs/Ant&#45;calib&#45;regedit.cc Pages: 1 -->
<svg width="1723pt" height="308pt"
 viewBox="0.00 0.00 1723.00 308.00" xmlns="http://www.w3.org/2000/svg" xmlns:xlink="http://www.w3.org/1999/xlink">
<g id="graph0" class="graph" transform="scale(1 1) rotate(0) translate(4 304)">
<title>progs/Ant&#45;calib&#45;regedit.cc</title>
<polygon fill="white" stroke="none" points="-4,4 -4,-304 1719,-304 1719,4 -4,4"/>
<!-- Node0 -->
<g id="node1" class="node"><title>Node0</title>
<polygon fill="#bfbfbf" stroke="black" points="795,-280.5 795,-299.5 923,-299.5 923,-280.5 795,-280.5"/>
<text text-anchor="middle" x="859" y="-287.5" font-family="Helvetica,sans-Serif" font-size="10.00">progs/Ant&#45;calib&#45;regedit.cc</text>
</g>
<!-- Node1 -->
<g id="node2" class="node"><title>Node1</title>
<g id="a_node2"><a xlink:href="_logger_8h.html" target="_top" xlink:title="base/Logger.h">
<polygon fill="white" stroke="black" points="74,-224.5 74,-243.5 152,-243.5 152,-224.5 74,-224.5"/>
<text text-anchor="middle" x="113" y="-231.5" font-family="Helvetica,sans-Serif" font-size="10.00">base/Logger.h</text>
</a>
</g>
</g>
<!-- Node0&#45;&gt;Node1 -->
<g id="edge1" class="edge"><title>Node0&#45;&gt;Node1</title>
<path fill="none" stroke="midnightblue" d="M794.751,-284.349C648.507,-273.763 293.348,-248.055 162.483,-238.582"/>
<polygon fill="midnightblue" stroke="midnightblue" points="162.58,-235.08 152.353,-237.849 162.074,-242.062 162.58,-235.08"/>
</g>
<!-- Node3 -->
<g id="node4" class="node"><title>Node3</title>
<polygon fill="white" stroke="#bfbfbf" points="253,-224.5 253,-243.5 341,-243.5 341,-224.5 253,-224.5"/>
<text text-anchor="middle" x="297" y="-231.5" font-family="Helvetica,sans-Serif" font-size="10.00">tclap/CmdLine.h</text>
</g>
<!-- Node0&#45;&gt;Node3 -->
<g id="edge3" class="edge"><title>Node0&#45;&gt;Node3</title>
<path fill="none" stroke="midnightblue" d="M794.942,-284.988C700.261,-278.694 517.178,-265.127 351.584,-244.109"/>
<polygon fill="midnightblue" stroke="midnightblue" points="351.571,-240.579 341.207,-242.779 350.681,-247.522 351.571,-240.579"/>
</g>
<!-- Node4 -->
<g id="node5" class="node"><title>Node4</title>
<g id="a_node5"><a xlink:href="system_8h.html" target="_top" xlink:title="base/std_ext/system.h">
<polygon fill="white" stroke="black" points="801,-168.5 801,-187.5 917,-187.5 917,-168.5 801,-168.5"/>
<text text-anchor="middle" x="859" y="-175.5" font-family="Helvetica,sans-Serif" font-size="10.00">base/std_ext/system.h</text>
</a>
</g>
</g>
<!-- Node0&#45;&gt;Node4 -->
<g id="edge4" class="edge"><title>Node0&#45;&gt;Node4</title>
<path fill="none" stroke="midnightblue" d="M859,-280.368C859,-262.617 859,-221.666 859,-197.597"/>
<polygon fill="midnightblue" stroke="midnightblue" points="862.5,-197.591 859,-187.591 855.5,-197.591 862.5,-197.591"/>
</g>
<!-- Node7 -->
<g id="node8" class="node"><title>Node7</title>
<g id="a_node8"><a xlink:href="string_8h.html" target="_top" xlink:title="base/std_ext/string.h">
<polygon fill="white" stroke="black" points="932,-56.5 932,-75.5 1040,-75.5 1040,-56.5 932,-56.5"/>
<text text-anchor="middle" x="986" y="-63.5" font-family="Helvetica,sans-Serif" font-size="10.00">base/std_ext/string.h</text>
</a>
</g>
</g>
<!-- Node0&#45;&gt;Node7 -->
<g id="edge7" class="edge"><title>Node0&#45;&gt;Node7</title>
<path fill="none" stroke="midnightblue" d="M865.168,-280.292C877.268,-263.056 904.707,-223.207 925,-188 945.57,-152.313 966.537,-108.84 977.736,-84.9258"/>
<polygon fill="midnightblue" stroke="midnightblue" points="980.991,-86.226 982.033,-75.6825 974.643,-83.2751 980.991,-86.226"/>
</g>
<!-- Node11 -->
<g id="node12" class="node"><title>Node11</title>
<g id="a_node12"><a xlink:href="_wrap_t_file_8h.html" target="_top" xlink:title="base/WrapTFile.h">
<polygon fill="white" stroke="black" points="1145,-168.5 1145,-187.5 1239,-187.5 1239,-168.5 1145,-168.5"/>
<text text-anchor="middle" x="1192" y="-175.5" font-family="Helvetica,sans-Serif" font-size="10.00">base/WrapTFile.h</text>
</a>
</g>
</g>
<!-- Node0&#45;&gt;Node11 -->
<g id="edge12" class="edge"><title>Node0&#45;&gt;Node11</title>
<path fill="none" stroke="midnightblue" d="M878.203,-280.444C898.359,-271.444 930.955,-256.832 959,-244 978.166,-235.231 982.087,-230.909 1002,-224 1045.66,-208.853 1096.69,-197.078 1134.87,-189.378"/>
<polygon fill="midnightblue" stroke="midnightblue" points="1135.66,-192.791 1144.79,-187.412 1134.3,-185.925 1135.66,-192.791"/>
</g>
<!-- Node26 -->
<g id="node27" class="node"><title>Node26</title>
<g id="a_node27"><a xlink:href="_t_calibration_data_8h.html" target="_top" xlink:title="tree/TCalibrationData.h">
<polygon fill="white" stroke="black" points="359,-224.5 359,-243.5 477,-243.5 477,-224.5 359,-224.5"/>
<text text-anchor="middle" x="418" y="-231.5" font-family="Helvetica,sans-Serif" font-size="10.00">tree/TCalibrationData.h</text>
</a>
</g>
</g>
<!-- Node0&#45;&gt;Node26 -->
<g id="edge33" class="edge"><title>Node0&#45;&gt;Node26</title>
<path fill="none" stroke="midnightblue" d="M794.875,-281.148C712.923,-271.113 571.598,-253.808 487.254,-243.48"/>
<polygon fill="midnightblue" stroke="midnightblue" points="487.61,-239.998 477.259,-242.256 486.759,-246.946 487.61,-239.998"/>
</g>
<!-- Node36 -->
<g id="node37" class="node"><title>Node36</title>
<g id="a_node37"><a xlink:href="_t_ant_header_8h.html" target="_top" xlink:title="tree/TAntHeader.h">
<polygon fill="white" stroke="black" points="673.5,-224.5 673.5,-243.5 770.5,-243.5 770.5,-224.5 673.5,-224.5"/>
<text text-anchor="middle" x="722" y="-231.5" font-family="Helvetica,sans-Serif" font-size="10.00">tree/TAntHeader.h</text>
</a>
</g>
</g>
<!-- Node0&#45;&gt;Node36 -->
<g id="edge51" class="edge"><title>Node0&#45;&gt;Node36</title>
<path fill="none" stroke="midnightblue" d="M837.292,-280.444C814.645,-271.517 778.928,-257.439 753.248,-247.317"/>
<polygon fill="midnightblue" stroke="midnightblue" points="754.193,-243.927 743.606,-243.516 751.626,-250.44 754.193,-243.927"/>
</g>
<!-- Node38 -->
<g id="node39" class="node"><title>Node38</title>
<polygon fill="white" stroke="#bfbfbf" points="1011,-224.5 1011,-243.5 1061,-243.5 1061,-224.5 1011,-224.5"/>
<text text-anchor="middle" x="1036" y="-231.5" font-family="Helvetica,sans-Serif" font-size="10.00">TTree.h</text>
</g>
<!-- Node0&#45;&gt;Node38 -->
<g id="edge55" class="edge"><title>Node0&#45;&gt;Node38</title>
<path fill="none" stroke="midnightblue" d="M887.046,-280.444C917.965,-271.011 967.742,-255.824 1001.15,-245.634"/>
<polygon fill="midnightblue" stroke="midnightblue" points="1002.4,-248.909 1010.95,-242.643 1000.36,-242.214 1002.4,-248.909"/>
</g>
<!-- Node39 -->
<g id="node40" class="node"><title>Node39</title>
<polygon fill="white" stroke="#bfbfbf" points="1079,-224.5 1079,-243.5 1133,-243.5 1133,-224.5 1079,-224.5"/>
<text text-anchor="middle" x="1106" y="-231.5" font-family="Helvetica,sans-Serif" font-size="10.00">iostream</text>
</g>
<!-- Node0&#45;&gt;Node39 -->
<g id="edge56" class="edge"><title>Node0&#45;&gt;Node39</title>
<path fill="none" stroke="midnightblue" d="M901.131,-280.465C941.707,-272.145 1005.05,-258.893 1069.04,-244.163"/>
<polygon fill="midnightblue" stroke="midnightblue" points="1069.94,-247.547 1078.9,-241.883 1068.37,-240.727 1069.94,-247.547"/>
</g>
<!-- Node2 -->
<g id="node3" class="node"><title>Node2</title>
<polygon fill="white" stroke="#bfbfbf" points="-0.5,-168.5 -0.5,-187.5 88.5,-187.5 88.5,-168.5 -0.5,-168.5"/>
<text text-anchor="middle" x="44" y="-175.5" font-family="Helvetica,sans-Serif" font-size="10.00">easylogging++.h</text>
</g>
<!-- Node1&#45;&gt;Node2 -->
<g id="edge2" class="edge"><title>Node1&#45;&gt;Node2</title>
<path fill="none" stroke="midnightblue" d="M101.914,-224.324C91.514,-216.185 75.7394,-203.839 63.2784,-194.087"/>
<polygon fill="midnightblue" stroke="midnightblue" points="65.3199,-191.241 55.2878,-187.834 61.0057,-196.753 65.3199,-191.241"/>
</g>
<!-- Node5 -->
<g id="node6" class="node"><title>Node5</title>
<polygon fill="white" stroke="#bfbfbf" points="733.5,-112.5 733.5,-131.5 762.5,-131.5 762.5,-112.5 733.5,-112.5"/>
<text text-anchor="middle" x="748" y="-119.5" font-family="Helvetica,sans-Serif" font-size="10.00">list</text>
</g>
<!-- Node4&#45;&gt;Node5 -->
<g id="edge5" class="edge"><title>Node4&#45;&gt;Node5</title>
<path fill="none" stroke="midnightblue" d="M841.166,-168.324C822.332,-159.161 792.54,-144.668 771.732,-134.545"/>
<polygon fill="midnightblue" stroke="midnightblue" points="773.124,-131.33 762.6,-130.103 770.062,-137.625 773.124,-131.33"/>
</g>
<!-- Node6 -->
<g id="node7" class="node"><title>Node6</title>
<polygon fill="white" stroke="#bfbfbf" points="727.5,-0.5 727.5,-19.5 768.5,-19.5 768.5,-0.5 727.5,-0.5"/>
<text text-anchor="middle" x="748" y="-7.5" font-family="Helvetica,sans-Serif" font-size="10.00">string</text>
</g>
<!-- Node4&#45;&gt;Node6 -->
<g id="edge6" class="edge"><title>Node4&#45;&gt;Node6</title>
<path fill="none" stroke="midnightblue" d="M847.407,-168.328C836.723,-159.91 820.915,-146.336 810,-132 784.716,-98.79 764.779,-53.7262 754.867,-29.0303"/>
<polygon fill="midnightblue" stroke="midnightblue" points="758.044,-27.5453 751.14,-19.5092 751.526,-30.097 758.044,-27.5453"/>
</g>
<!-- Node7&#45;&gt;Node6 -->
<g id="edge8" class="edge"><title>Node7&#45;&gt;Node6</title>
<path fill="none" stroke="midnightblue" d="M948.288,-56.4435C901.306,-45.7836 821.941,-27.7765 778.562,-17.9343"/>
<polygon fill="midnightblue" stroke="midnightblue" points="779.131,-14.4744 768.604,-15.6749 777.582,-21.3009 779.131,-14.4744"/>
</g>
<!-- Node8 -->
<g id="node9" class="node"><title>Node8</title>
<polygon fill="white" stroke="#bfbfbf" points="927,-0.5 927,-19.5 979,-19.5 979,-0.5 927,-0.5"/>
<text text-anchor="middle" x="953" y="-7.5" font-family="Helvetica,sans-Serif" font-size="10.00">sstream</text>
</g>
<!-- Node7&#45;&gt;Node8 -->
<g id="edge9" class="edge"><title>Node7&#45;&gt;Node8</title>
<path fill="none" stroke="midnightblue" d="M980.551,-56.083C975.986,-48.6127 969.332,-37.7244 963.707,-28.5199"/>
<polygon fill="midnightblue" stroke="midnightblue" points="966.549,-26.4588 958.348,-19.7511 960.576,-30.109 966.549,-26.4588"/>
</g>
<!-- Node9 -->
<g id="node10" class="node"><title>Node9</title>
<polygon fill="white" stroke="#bfbfbf" points="1311,-0.5 1311,-19.5 1367,-19.5 1367,-0.5 1311,-0.5"/>
<text text-anchor="middle" x="1339" y="-7.5" font-family="Helvetica,sans-Serif" font-size="10.00">algorithm</text>
</g>
<!-- Node7&#45;&gt;Node9 -->
<g id="edge10" class="edge"><title>Node7&#45;&gt;Node9</title>
<path fill="none" stroke="midnightblue" d="M1040.38,-56.6808C1112.41,-45.6619 1237.67,-26.501 1300.6,-16.8748"/>
<polygon fill="midnightblue" stroke="midnightblue" points="1301.51,-20.2753 1310.87,-15.3033 1300.45,-13.3558 1301.51,-20.2753"/>
</g>
<!-- Node10 -->
<g id="node11" class="node"><title>Node10</title>
<polygon fill="white" stroke="#bfbfbf" points="997,-0.5 997,-19.5 1041,-19.5 1041,-0.5 997,-0.5"/>
<text text-anchor="middle" x="1019" y="-7.5" font-family="Helvetica,sans-Serif" font-size="10.00">vector</text>
</g>
<!-- Node7&#45;&gt;Node10 -->
<g id="edge11" class="edge"><title>Node7&#45;&gt;Node10</title>
<path fill="none" stroke="midnightblue" d="M991.449,-56.083C996.014,-48.6127 1002.67,-37.7244 1008.29,-28.5199"/>
<polygon fill="midnightblue" stroke="midnightblue" points="1011.42,-30.109 1013.65,-19.7511 1005.45,-26.4588 1011.42,-30.109"/>
</g>
<!-- Node11&#45;&gt;Node5 -->
<g id="edge29" class="edge"><title>Node11&#45;&gt;Node5</title>
<path fill="none" stroke="midnightblue" d="M1144.9,-171.864C1072.74,-163.902 930.499,-147.84 810,-132 797.66,-130.378 783.964,-128.408 772.59,-126.725"/>
<polygon fill="midnightblue" stroke="midnightblue" points="772.924,-123.236 762.516,-125.22 771.889,-130.159 772.924,-123.236"/>
</g>
<!-- Node11&#45;&gt;Node6 -->
<g id="edge28" class="edge"><title>Node11&#45;&gt;Node6</title>
<path fill="none" stroke="midnightblue" d="M1144.65,-170.097C1102.48,-163.134 1039.51,-150.716 987,-132 903.479,-102.233 811.806,-49.694 770.444,-24.81"/>
<polygon fill="midnightblue" stroke="midnightblue" points="772.088,-21.7136 761.722,-19.5223 768.459,-27.6995 772.088,-21.7136"/>
</g>
<!-- Node11&#45;&gt;Node7 -->
<g id="edge13" class="edge"><title>Node11&#45;&gt;Node7</title>
<path fill="none" stroke="midnightblue" d="M1144.87,-171.36C1095.66,-164.528 1022.89,-151.458 1003,-132 990.762,-120.029 986.969,-100.42 985.96,-85.8656"/>
<polygon fill="midnightblue" stroke="midnightblue" points="989.447,-85.4059 985.639,-75.5191 982.451,-85.6227 989.447,-85.4059"/>
</g>
<!-- Node12 -->
<g id="node13" class="node"><title>Node12</title>
<g id="a_node13"><a xlink:href="misc_8h.html" target="_top" xlink:title="base/std_ext/misc.h">
<polygon fill="white" stroke="black" points="1508.5,-112.5 1508.5,-131.5 1613.5,-131.5 1613.5,-112.5 1508.5,-112.5"/>
<text text-anchor="middle" x="1561" y="-119.5" font-family="Helvetica,sans-Serif" font-size="10.00">base/std_ext/misc.h</text>
</a>
</g>
</g>
<!-- Node11&#45;&gt;Node12 -->
<g id="edge14" class="edge"><title>Node11&#45;&gt;Node12</title>
<path fill="none" stroke="midnightblue" d="M1239.11,-170.106C1304.98,-160.466 1424.77,-142.936 1498.18,-132.193"/>
<polygon fill="midnightblue" stroke="midnightblue" points="1498.83,-135.635 1508.22,-130.724 1497.82,-128.709 1498.83,-135.635"/>
</g>
<!-- Node13 -->
<g id="node14" class="node"><title>Node13</title>
<polygon fill="white" stroke="#bfbfbf" points="1656.5,-56.5 1656.5,-75.5 1715.5,-75.5 1715.5,-56.5 1656.5,-56.5"/>
<text text-anchor="middle" x="1686" y="-63.5" font-family="Helvetica,sans-Serif" font-size="10.00">functional</text>
</g>
<!-- Node11&#45;&gt;Node13 -->
<g id="edge32" class="edge"><title>Node11&#45;&gt;Node13</title>
<path fill="none" stroke="midnightblue" d="M1239.37,-177.056C1340.12,-176.411 1571.92,-170.635 1639,-132 1657.43,-121.384 1670.6,-100.295 1678.23,-85.0104"/>
<polygon fill="midnightblue" stroke="midnightblue" points="1681.58,-86.1005 1682.62,-75.5564 1675.23,-83.1528 1681.58,-86.1005"/>
</g>
<!-- Node17 -->
<g id="node18" class="node"><title>Node17</title>
<polygon fill="white" stroke="#bfbfbf" points="1586,-56.5 1586,-75.5 1638,-75.5 1638,-56.5 1586,-56.5"/>
<text text-anchor="middle" x="1612" y="-63.5" font-family="Helvetica,sans-Serif" font-size="10.00">memory</text>
</g>
<!-- Node11&#45;&gt;Node17 -->
<g id="edge27" class="edge"><title>Node11&#45;&gt;Node17</title>
<path fill="none" stroke="midnightblue" d="M1239.12,-175.556C1345.45,-171.812 1596.72,-160.059 1622,-132 1633.42,-119.318 1628.1,-99.2805 1621.68,-84.8038"/>
<polygon fill="midnightblue" stroke="midnightblue" points="1624.82,-83.2542 1617.26,-75.8286 1618.54,-86.3462 1624.82,-83.2542"/>
</g>
<!-- Node18 -->
<g id="node19" class="node"><title>Node18</title>
<polygon fill="white" stroke="#bfbfbf" points="1011.5,-112.5 1011.5,-131.5 1058.5,-131.5 1058.5,-112.5 1011.5,-112.5"/>
<text text-anchor="middle" x="1035" y="-119.5" font-family="Helvetica,sans-Serif" font-size="10.00">TFile.h</text>
</g>
<!-- Node11&#45;&gt;Node18 -->
<g id="edge21" class="edge"><title>Node11&#45;&gt;Node18</title>
<path fill="none" stroke="midnightblue" d="M1167.12,-168.444C1140.4,-159.252 1097.8,-144.599 1068.22,-134.426"/>
<polygon fill="midnightblue" stroke="midnightblue" points="1069.33,-131.106 1058.73,-131.163 1067.05,-137.725 1069.33,-131.106"/>
</g>
<!-- Node19 -->
<g id="node20" class="node"><title>Node19</title>
<polygon fill="white" stroke="#bfbfbf" points="1076.5,-112.5 1076.5,-131.5 1147.5,-131.5 1147.5,-112.5 1076.5,-112.5"/>
<text text-anchor="middle" x="1112" y="-119.5" font-family="Helvetica,sans-Serif" font-size="10.00">TDirectory.h</text>
</g>
<!-- Node11&#45;&gt;Node19 -->
<g id="edge22" class="edge"><title>Node11&#45;&gt;Node19</title>
<path fill="none" stroke="midnightblue" d="M1179.15,-168.324C1166.78,-159.979 1147.87,-147.212 1133.26,-137.352"/>
<polygon fill="midnightblue" stroke="midnightblue" points="1135.07,-134.348 1124.82,-131.655 1131.15,-140.15 1135.07,-134.348"/>
</g>
<!-- Node20 -->
<g id="node21" class="node"><title>Node20</title>
<polygon fill="white" stroke="#bfbfbf" points="1166,-112.5 1166,-131.5 1218,-131.5 1218,-112.5 1166,-112.5"/>
<text text-anchor="middle" x="1192" y="-119.5" font-family="Helvetica,sans-Serif" font-size="10.00">TError.h</text>
</g>
<!-- Node11&#45;&gt;Node20 -->
<g id="edge23" class="edge"><title>Node11&#45;&gt;Node20</title>
<path fill="none" stroke="midnightblue" d="M1192,-168.083C1192,-161.006 1192,-150.861 1192,-141.986"/>
<polygon fill="midnightblue" stroke="midnightblue" points="1195.5,-141.751 1192,-131.751 1188.5,-141.751 1195.5,-141.751"/>
</g>
<!-- Node21 -->
<g id="node22" class="node"><title>Node21</title>
<polygon fill="white" stroke="#bfbfbf" points="1236.5,-112.5 1236.5,-131.5 1283.5,-131.5 1283.5,-112.5 1236.5,-112.5"/>
<text text-anchor="middle" x="1260" y="-119.5" font-family="Helvetica,sans-Serif" font-size="10.00">TList.h</text>
</g>
<!-- Node11&#45;&gt;Node21 -->
<g id="edge24" class="edge"><title>Node11&#45;&gt;Node21</title>
<path fill="none" stroke="midnightblue" d="M1202.93,-168.324C1213.17,-160.185 1228.72,-147.839 1241,-138.087"/>
<polygon fill="midnightblue" stroke="midnightblue" points="1243.22,-140.794 1248.88,-131.834 1238.87,-135.312 1243.22,-140.794"/>
</g>
<!-- Node22 -->
<g id="node23" class="node"><title>Node22</title>
<polygon fill="white" stroke="#bfbfbf" points="1302,-112.5 1302,-131.5 1376,-131.5 1376,-112.5 1302,-112.5"/>
<text text-anchor="middle" x="1339" y="-119.5" font-family="Helvetica,sans-Serif" font-size="10.00">TCollection.h</text>
</g>
<!-- Node11&#45;&gt;Node22 -->
<g id="edge25" class="edge"><title>Node11&#45;&gt;Node22</title>
<path fill="none" stroke="midnightblue" d="M1215.29,-168.444C1239.81,-159.438 1278.6,-145.189 1306.2,-135.049"/>
<polygon fill="midnightblue" stroke="midnightblue" points="1307.64,-138.25 1315.82,-131.516 1305.22,-131.679 1307.64,-138.25"/>
</g>
<!-- Node23 -->
<g id="node24" class="node"><title>Node23</title>
<polygon fill="white" stroke="#bfbfbf" points="1394,-112.5 1394,-131.5 1442,-131.5 1442,-112.5 1394,-112.5"/>
<text text-anchor="middle" x="1418" y="-119.5" font-family="Helvetica,sans-Serif" font-size="10.00">TKey.h</text>
</g>
<!-- Node11&#45;&gt;Node23 -->
<g id="edge26" class="edge"><title>Node11&#45;&gt;Node23</title>
<path fill="none" stroke="midnightblue" d="M1230.55,-168.455C1267.52,-160.161 1325.15,-146.977 1384.03,-132.177"/>
<polygon fill="midnightblue" stroke="midnightblue" points="1385.04,-135.533 1393.88,-129.69 1383.32,-128.746 1385.04,-135.533"/>
</g>
<!-- Node24 -->
<g id="node25" class="node"><title>Node24</title>
<polygon fill="white" stroke="#bfbfbf" points="1460,-112.5 1460,-131.5 1490,-131.5 1490,-112.5 1460,-112.5"/>
<text text-anchor="middle" x="1475" y="-119.5" font-family="Helvetica,sans-Serif" font-size="10.00">set</text>
</g>
<!-- Node11&#45;&gt;Node24 -->
<g id="edge30" class="edge"><title>Node11&#45;&gt;Node24</title>
<path fill="none" stroke="midnightblue" d="M1239.37,-171.472C1289.6,-165.013 1371.29,-152.807 1449.85,-131.881"/>
<polygon fill="midnightblue" stroke="midnightblue" points="1451.17,-135.148 1459.9,-129.148 1449.34,-128.392 1451.17,-135.148"/>
</g>
<!-- Node25 -->
<g id="node26" class="node"><title>Node25</title>
<polygon fill="white" stroke="#bfbfbf" points="819.5,-112.5 819.5,-131.5 878.5,-131.5 878.5,-112.5 819.5,-112.5"/>
<text text-anchor="middle" x="849" y="-119.5" font-family="Helvetica,sans-Serif" font-size="10.00">stdexcept</text>
</g>
<!-- Node11&#45;&gt;Node25 -->
<g id="edge31" class="edge"><title>Node11&#45;&gt;Node25</title>
<path fill="none" stroke="midnightblue" d="M1144.75,-170.668C1085.71,-162.577 981.644,-147.725 893,-132 891.561,-131.745 890.096,-131.478 888.617,-131.204"/>
<polygon fill="midnightblue" stroke="midnightblue" points="889.263,-127.764 878.782,-129.312 887.94,-134.638 889.263,-127.764"/>
</g>
<!-- Node12&#45;&gt;Node9 -->
<g id="edge15" class="edge"><title>Node12&#45;&gt;Node9</title>
<path fill="none" stroke="midnightblue" d="M1560.51,-112.396C1559.24,-98.4015 1554.64,-70.7903 1538,-56 1514.53,-35.1425 1428.13,-21.5921 1377.22,-15.2312"/>
<polygon fill="midnightblue" stroke="midnightblue" points="1377.58,-11.7497 1367.23,-14.0188 1376.74,-18.6987 1377.58,-11.7497"/>
</g>
<!-- Node12&#45;&gt;Node13 -->
<g id="edge16" class="edge"><title>Node12&#45;&gt;Node13</title>
<path fill="none" stroke="midnightblue" d="M1580.81,-112.444C1601.29,-103.596 1633.48,-89.6875 1656.86,-79.5865"/>
<polygon fill="midnightblue" stroke="midnightblue" points="1658.49,-82.6953 1666.29,-75.5164 1655.72,-76.2692 1658.49,-82.6953"/>
</g>
<!-- Node14 -->
<g id="node15" class="node"><title>Node14</title>
<polygon fill="white" stroke="#bfbfbf" points="1414,-56.5 1414,-75.5 1458,-75.5 1458,-56.5 1414,-56.5"/>
<text text-anchor="middle" x="1436" y="-63.5" font-family="Helvetica,sans-Serif" font-size="10.00">cmath</text>
</g>
<!-- Node12&#45;&gt;Node14 -->
<g id="edge17" class="edge"><title>Node12&#45;&gt;Node14</title>
<path fill="none" stroke="midnightblue" d="M1541.19,-112.444C1520.71,-103.596 1488.52,-89.6875 1465.14,-79.5865"/>
<polygon fill="midnightblue" stroke="midnightblue" points="1466.28,-76.2692 1455.71,-75.5164 1463.51,-82.6953 1466.28,-76.2692"/>
</g>
<!-- Node15 -->
<g id="node16" class="node"><title>Node15</title>
<polygon fill="white" stroke="#bfbfbf" points="1476.5,-56.5 1476.5,-75.5 1529.5,-75.5 1529.5,-56.5 1476.5,-56.5"/>
<text text-anchor="middle" x="1503" y="-63.5" font-family="Helvetica,sans-Serif" font-size="10.00">cxxabi.h</text>
</g>
<!-- Node12&#45;&gt;Node15 -->
<g id="edge18" class="edge"><title>Node12&#45;&gt;Node15</title>
<path fill="none" stroke="midnightblue" d="M1551.68,-112.324C1543.11,-104.341 1530.19,-92.3128 1519.81,-82.6529"/>
<polygon fill="midnightblue" stroke="midnightblue" points="1522.19,-80.0865 1512.49,-75.8339 1517.42,-85.2098 1522.19,-80.0865"/>
</g>
<!-- Node16 -->
<g id="node17" class="node"><title>Node16</title>
<polygon fill="white" stroke="#bfbfbf" points="1196,-56.5 1196,-75.5 1258,-75.5 1258,-56.5 1196,-56.5"/>
<text text-anchor="middle" x="1227" y="-63.5" font-family="Helvetica,sans-Serif" font-size="10.00">type_traits</text>
</g>
<!-- Node12&#45;&gt;Node16 -->
<g id="edge19" class="edge"><title>Node12&#45;&gt;Node16</title>
<path fill="none" stroke="midnightblue" d="M1508.45,-112.503C1441.93,-101.75 1328.75,-83.4509 1268.16,-73.6553"/>
<polygon fill="midnightblue" stroke="midnightblue" points="1268.63,-70.1847 1258.2,-72.0437 1267.51,-77.095 1268.63,-70.1847"/>
</g>
<!-- Node12&#45;&gt;Node17 -->
<g id="edge20" class="edge"><title>Node12&#45;&gt;Node17</title>
<path fill="none" stroke="midnightblue" d="M1569.42,-112.083C1576.85,-104.22 1587.85,-92.5688 1596.81,-83.0813"/>
<polygon fill="midnightblue" stroke="midnightblue" points="1599.41,-85.4244 1603.74,-75.7511 1594.32,-80.618 1599.41,-85.4244"/>
</g>
<!-- Node26&#45;&gt;Node6 -->
<g id="edge49" class="edge"><title>Node26&#45;&gt;Node6</title>
<path fill="none" stroke="midnightblue" d="M358.812,-224.529C277.183,-212.71 139.615,-192.237 136,-188 99.2945,-144.973 47.009,-153.649 196,-56 239.729,-27.34 607.63,-14.8964 717.279,-11.8023"/>
<polygon fill="midnightblue" stroke="midnightblue" points="717.452,-15.299 727.352,-11.5241 717.259,-8.30163 717.452,-15.299"/>
</g>
<!-- Node27 -->
<g id="node28" class="node"><title>Node27</title>
<g id="a_node28"><a xlink:href="_t_i_d_8h.html" target="_top" xlink:title="TID.h">
<polygon fill="white" stroke="black" points="534.5,-168.5 534.5,-187.5 575.5,-187.5 575.5,-168.5 534.5,-168.5"/>
<text text-anchor="middle" x="555" y="-175.5" font-family="Helvetica,sans-Serif" font-size="10.00">TID.h</text>
</a>
</g>
</g>
<!-- Node26&#45;&gt;Node27 -->
<g id="edge34" class="edge"><title>Node26&#45;&gt;Node27</title>
<path fill="none" stroke="midnightblue" d="M439.708,-224.444C462.621,-215.412 498.914,-201.107 524.654,-190.961"/>
<polygon fill="midnightblue" stroke="midnightblue" points="526.27,-194.086 534.29,-187.163 523.703,-187.574 526.27,-194.086"/>
</g>
<!-- Node31 -->
<g id="node32" class="node"><title>Node31</title>
<polygon fill="white" stroke="#bfbfbf" points="224.5,-56.5 224.5,-75.5 265.5,-75.5 265.5,-56.5 224.5,-56.5"/>
<text text-anchor="middle" x="245" y="-63.5" font-family="Helvetica,sans-Serif" font-size="10.00">ctime</text>
</g>
<!-- Node26&#45;&gt;Node31 -->
<g id="edge50" class="edge"><title>Node26&#45;&gt;Node31</title>
<path fill="none" stroke="midnightblue" d="M386.652,-224.427C346.612,-211.635 278.821,-183.369 248,-132 239.736,-118.226 239.726,-99.7012 241.351,-85.9516"/>
<polygon fill="midnightblue" stroke="midnightblue" points="244.862,-86.1562 242.955,-75.7344 237.947,-85.0705 244.862,-86.1562"/>
</g>
<!-- Node35 -->
<g id="node36" class="node"><title>Node35</title>
<g id="a_node36"><a xlink:href="_git_info_8h.html" target="_top" xlink:title="base/GitInfo.h">
<polygon fill="white" stroke="black" points="145,-168.5 145,-187.5 223,-187.5 223,-168.5 145,-168.5"/>
<text text-anchor="middle" x="184" y="-175.5" font-family="Helvetica,sans-Serif" font-size="10.00">base/GitInfo.h</text>
</a>
</g>
</g>
<!-- Node26&#45;&gt;Node35 -->
<g id="edge47" class="edge"><title>Node26&#45;&gt;Node35</title>
<path fill="none" stroke="midnightblue" d="M380.922,-224.444C340.272,-215.063 274.968,-199.993 230.816,-189.804"/>
<polygon fill="midnightblue" stroke="midnightblue" points="231.435,-186.355 220.905,-187.516 229.861,-193.175 231.435,-186.355"/>
</g>
<!-- Node27&#45;&gt;Node5 -->
<g id="edge44" class="edge"><title>Node27&#45;&gt;Node5</title>
<path fill="none" stroke="midnightblue" d="M575.654,-171.221C611.565,-161.174 685.329,-140.535 723.662,-129.809"/>
<polygon fill="midnightblue" stroke="midnightblue" points="724.787,-133.129 733.474,-127.064 722.901,-126.388 724.787,-133.129"/>
</g>
<!-- Node27&#45;&gt;Node16 -->
<g id="edge40" class="edge"><title>Node27&#45;&gt;Node16</title>
<path fill="none" stroke="midnightblue" d="M561.734,-168.314C573.666,-153.672 600.097,-124.455 630,-112 655.632,-101.324 1054.53,-77.1117 1185.61,-69.4041"/>
<polygon fill="midnightblue" stroke="midnightblue" points="1185.88,-72.8943 1195.66,-68.8148 1185.47,-65.9064 1185.88,-72.8943"/>
</g>
<!-- Node27&#45;&gt;Node25 -->
<g id="edge43" class="edge"><title>Node27&#45;&gt;Node25</title>
<path fill="none" stroke="midnightblue" d="M575.674,-173.203C624.208,-164.288 746.109,-141.898 809.431,-130.268"/>
<polygon fill="midnightblue" stroke="midnightblue" points="810.235,-133.679 819.439,-128.43 808.971,-126.794 810.235,-133.679"/>
</g>
<!-- Node28 -->
<g id="node29" class="node"><title>Node28</title>
<polygon fill="white" stroke="#bfbfbf" points="527,-112.5 527,-131.5 583,-131.5 583,-112.5 527,-112.5"/>
<text text-anchor="middle" x="555" y="-119.5" font-family="Helvetica,sans-Serif" font-size="10.00">Rtypes.h</text>
</g>
<!-- Node27&#45;&gt;Node28 -->
<g id="edge35" class="edge"><title>Node27&#45;&gt;Node28</title>
<path fill="none" stroke="midnightblue" d="M555,-168.083C555,-161.006 555,-150.861 555,-141.986"/>
<polygon fill="midnightblue" stroke="midnightblue" points="558.5,-141.751 555,-131.751 551.5,-141.751 558.5,-141.751"/>
</g>
<!-- Node29 -->
<g id="node30" class="node"><title>Node29</title>
<g id="a_node30"><a xlink:href="base_2std__ext_2_time_8h.html" target="_top" xlink:title="base/std_ext/time.h">
<polygon fill="white" stroke="black" points="405.5,-112.5 405.5,-131.5 508.5,-131.5 508.5,-112.5 405.5,-112.5"/>
<text text-anchor="middle" x="457" y="-119.5" font-family="Helvetica,sans-Serif" font-size="10.00">base/std_ext/time.h</text>
</a>
</g>
</g>
<!-- Node27&#45;&gt;Node29 -->
<g id="edge36" class="edge"><title>Node27&#45;&gt;Node29</title>
<path fill="none" stroke="midnightblue" d="M539.255,-168.324C523.681,-159.743 499.623,-146.486 481.541,-136.522"/>
<polygon fill="midnightblue" stroke="midnightblue" points="483.154,-133.415 472.706,-131.655 479.776,-139.546 483.154,-133.415"/>
</g>
<!-- Node27&#45;&gt;Node31 -->
<g id="edge46" class="edge"><title>Node27&#45;&gt;Node31</title>
<path fill="none" stroke="midnightblue" d="M534.099,-176.591C474.321,-175 304.358,-167.391 264,-132 250.898,-120.511 246.599,-100.536 245.301,-85.7538"/>
<polygon fill="midnightblue" stroke="midnightblue" points="248.792,-85.5006 244.797,-75.688 241.801,-85.8504 248.792,-85.5006"/>
</g>
<!-- Node32 -->
<g id="node33" class="node"><title>Node32</title>
<polygon fill="white" stroke="#bfbfbf" points="639,-112.5 639,-131.5 677,-131.5 677,-112.5 639,-112.5"/>
<text text-anchor="middle" x="658" y="-119.5" font-family="Helvetica,sans-Serif" font-size="10.00">tuple</text>
</g>
<!-- Node27&#45;&gt;Node32 -->
<g id="edge41" class="edge"><title>Node27&#45;&gt;Node32</title>
<path fill="none" stroke="midnightblue" d="M571.549,-168.324C587.992,-159.703 613.435,-146.364 632.468,-136.386"/>
<polygon fill="midnightblue" stroke="midnightblue" points="634.261,-139.398 641.492,-131.655 631.011,-133.198 634.261,-139.398"/>
</g>
<!-- Node33 -->
<g id="node34" class="node"><title>Node33</title>
<polygon fill="white" stroke="#bfbfbf" points="273,-112.5 273,-131.5 319,-131.5 319,-112.5 273,-112.5"/>
<text text-anchor="middle" x="296" y="-119.5" font-family="Helvetica,sans-Serif" font-size="10.00">cstdint</text>
</g>
<!-- Node27&#45;&gt;Node33 -->
<g id="edge42" class="edge"><title>Node27&#45;&gt;Node33</title>
<path fill="none" stroke="midnightblue" d="M534.225,-173.445C495.703,-166.734 410.422,-151.318 328.931,-132.072"/>
<polygon fill="midnightblue" stroke="midnightblue" points="329.555,-128.622 319.016,-129.706 327.93,-135.431 329.555,-128.622"/>
</g>
<!-- Node34 -->
<g id="node35" class="node"><title>Node34</title>
<polygon fill="white" stroke="#bfbfbf" points="337,-112.5 337,-131.5 387,-131.5 387,-112.5 337,-112.5"/>
<text text-anchor="middle" x="362" y="-119.5" font-family="Helvetica,sans-Serif" font-size="10.00">iomanip</text>
</g>
<!-- Node27&#45;&gt;Node34 -->
<g id="edge45" class="edge"><title>Node27&#45;&gt;Node34</title>
<path fill="none" stroke="midnightblue" d="M534.346,-171.221C501.515,-162.035 437.045,-143.997 396.936,-132.775"/>
<polygon fill="midnightblue" stroke="midnightblue" points="397.625,-129.333 387.052,-130.009 395.739,-136.074 397.625,-129.333"/>
</g>
<!-- Node29&#45;&gt;Node7 -->
<g id="edge37" class="edge"><title>Node29&#45;&gt;Node7</title>
<path fill="none" stroke="midnightblue" d="M508.56,-113.205C511.752,-112.781 514.918,-112.375 518,-112 661.946,-94.472 831.485,-79.6004 921.776,-72.1394"/>
<polygon fill="midnightblue" stroke="midnightblue" points="922.176,-75.6184 931.856,-71.3101 921.602,-68.6419 922.176,-75.6184"/>
</g>
<!-- Node30 -->
<g id="node31" class="node"><title>Node30</title>
<polygon fill="white" stroke="#bfbfbf" points="434,-56.5 434,-75.5 480,-75.5 480,-56.5 434,-56.5"/>
<text text-anchor="middle" x="457" y="-63.5" font-family="Helvetica,sans-Serif" font-size="10.00">cstring</text>
</g>
<!-- Node29&#45;&gt;Node30 -->
<g id="edge38" class="edge"><title>Node29&#45;&gt;Node30</title>
<path fill="none" stroke="midnightblue" d="M457,-112.083C457,-105.006 457,-94.8611 457,-85.9865"/>
<polygon fill="midnightblue" stroke="midnightblue" points="460.5,-85.751 457,-75.7511 453.5,-85.7511 460.5,-85.751"/>
</g>
<!-- Node29&#45;&gt;Node31 -->
<g id="edge39" class="edge"><title>Node29&#45;&gt;Node31</title>
<path fill="none" stroke="midnightblue" d="M423.408,-112.444C382.681,-102.07 314.636,-84.7375 275.402,-74.7438"/>
<polygon fill="midnightblue" stroke="midnightblue" points="276.168,-71.3274 265.614,-72.2506 274.44,-78.1108 276.168,-71.3274"/>
</g>
<!-- Node35&#45;&gt;Node6 -->
<g id="edge48" class="edge"><title>Node35&#45;&gt;Node6</title>
<path fill="none" stroke="midnightblue" d="M183.183,-168.257C181.604,-145.62 180.894,-84.8505 215,-56 253.428,-23.4933 609.048,-13.7708 717.044,-11.5556"/>
<polygon fill="midnightblue" stroke="midnightblue" points="717.343,-15.0505 727.272,-11.3533 717.205,-8.05182 717.343,-15.0505"/>
</g>
<!-- Node36&#45;&gt;Node6 -->
<g id="edge54" class="edge"><title>Node36&#45;&gt;Node6</title>
<path fill="none" stroke="midnightblue" d="M719.518,-224.467C717.043,-215.485 713.415,-200.888 712,-188 711.03,-179.164 711.064,-176.839 712,-168 717.408,-116.957 733.568,-58.3982 742.281,-29.3416"/>
<polygon fill="midnightblue" stroke="midnightblue" points="745.644,-30.3133 745.218,-19.727 738.95,-28.2682 745.644,-30.3133"/>
</g>
<!-- Node36&#45;&gt;Node27 -->
<g id="edge52" class="edge"><title>Node36&#45;&gt;Node27</title>
<path fill="none" stroke="midnightblue" d="M695.538,-224.444C665.496,-214.729 616.584,-198.913 585.108,-188.735"/>
<polygon fill="midnightblue" stroke="midnightblue" points="586.139,-185.39 575.547,-185.644 583.985,-192.051 586.139,-185.39"/>
</g>
<!-- Node37 -->
<g id="node38" class="node"><title>Node37</title>
<polygon fill="white" stroke="#bfbfbf" points="721,-168.5 721,-187.5 783,-187.5 783,-168.5 721,-168.5"/>
<text text-anchor="middle" x="752" y="-175.5" font-family="Helvetica,sans-Serif" font-size="10.00">TNamed.h</text>
</g>
<!-- Node36&#45;&gt;Node37 -->
<g id="edge53" class="edge"><title>Node36&#45;&gt;Node37</title>
<path fill="none" stroke="midnightblue" d="M726.954,-224.083C731.104,-216.613 737.153,-205.724 742.267,-196.52"/>
<polygon fill="midnightblue" stroke="midnightblue" points="745.341,-198.192 747.138,-187.751 739.222,-194.793 745.341,-198.192"/>
</g>
</g>
</svg>
