<?xml version="1.0" encoding="UTF-8" standalone="no"?>
<!DOCTYPE svg PUBLIC "-//W3C//DTD SVG 1.1//EN"
 "http://www.w3.org/Graphics/SVG/1.1/DTD/svg11.dtd">
<!-- Generated by graphviz version 2.36.0 (20140111.2315)
 -->
<!-- Title: progs/Ant&#45;compareHists.cc Pages: 1 -->
<svg width="1469pt" height="196pt"
 viewBox="0.00 0.00 1469.00 196.00" xmlns="http://www.w3.org/2000/svg" xmlns:xlink="http://www.w3.org/1999/xlink">
<g id="graph0" class="graph" transform="scale(1 1) rotate(0) translate(4 192)">
<title>progs/Ant&#45;compareHists.cc</title>
<polygon fill="white" stroke="none" points="-4,4 -4,-192 1465,-192 1465,4 -4,4"/>
<!-- Node0 -->
<g id="node1" class="node"><title>Node0</title>
<polygon fill="#bfbfbf" stroke="black" points="325,-168.5 325,-187.5 461,-187.5 461,-168.5 325,-168.5"/>
<text text-anchor="middle" x="393" y="-175.5" font-family="Helvetica,sans-Serif" font-size="10.00">progs/Ant&#45;compareHists.cc</text>
</g>
<!-- Node1 -->
<g id="node2" class="node"><title>Node1</title>
<g id="a_node2"><a xlink:href="_logger_8h.html" target="_top" xlink:title="base/Logger.h">
<polygon fill="white" stroke="black" points="5,-112.5 5,-131.5 83,-131.5 83,-112.5 5,-112.5"/>
<text text-anchor="middle" x="44" y="-119.5" font-family="Helvetica,sans-Serif" font-size="10.00">base/Logger.h</text>
</a>
</g>
</g>
<!-- Node0&#45;&gt;Node1 -->
<g id="edge1" class="edge"><title>Node0&#45;&gt;Node1</title>
<path fill="none" stroke="midnightblue" d="M331.499,-168.484C272.793,-160.201 181.598,-146.934 92.9662,-132.113"/>
<polygon fill="midnightblue" stroke="midnightblue" points="93.4531,-128.645 83.0112,-130.439 92.2927,-135.549 93.4531,-128.645"/>
</g>
<!-- Node3 -->
<g id="node4" class="node"><title>Node3</title>
<polygon fill="white" stroke="#bfbfbf" points="101,-112.5 101,-131.5 189,-131.5 189,-112.5 101,-112.5"/>
<text text-anchor="middle" x="145" y="-119.5" font-family="Helvetica,sans-Serif" font-size="10.00">tclap/CmdLine.h</text>
</g>
<!-- Node0&#45;&gt;Node3 -->
<g id="edge3" class="edge"><title>Node0&#45;&gt;Node3</title>
<path fill="none" stroke="midnightblue" d="M353.704,-168.444C310.441,-159.023 240.827,-143.866 194.027,-133.675"/>
<polygon fill="midnightblue" stroke="midnightblue" points="194.628,-130.224 184.112,-131.516 193.139,-137.064 194.628,-130.224"/>
</g>
<!-- Node4 -->
<g id="node5" class="node"><title>Node4</title>
<g id="a_node5"><a xlink:href="_wrap_t_file_8h.html" target="_top" xlink:title="base/WrapTFile.h">
<polygon fill="white" stroke="black" points="732,-112.5 732,-131.5 826,-131.5 826,-112.5 732,-112.5"/>
<text text-anchor="middle" x="779" y="-119.5" font-family="Helvetica,sans-Serif" font-size="10.00">base/WrapTFile.h</text>
</a>
</g>
</g>
<!-- Node0&#45;&gt;Node4 -->
<g id="edge4" class="edge"><title>Node0&#45;&gt;Node4</title>
<path fill="none" stroke="midnightblue" d="M454.163,-168.444C527.611,-158.168 649.856,-141.067 721.592,-131.031"/>
<polygon fill="midnightblue" stroke="midnightblue" points="722.379,-134.455 731.798,-129.603 721.409,-127.523 722.379,-134.455"/>
</g>
<!-- Node7 -->
<g id="node8" class="node"><title>Node7</title>
<polygon fill="white" stroke="#bfbfbf" points="804,-0.5 804,-19.5 856,-19.5 856,-0.5 804,-0.5"/>
<text text-anchor="middle" x="830" y="-7.5" font-family="Helvetica,sans-Serif" font-size="10.00">sstream</text>
</g>
<!-- Node0&#45;&gt;Node7 -->
<g id="edge34" class="edge"><title>Node0&#45;&gt;Node7</title>
<path fill="none" stroke="midnightblue" d="M392.29,-168.075C390.804,-154.605 386.311,-128.869 373,-112 350.202,-83.1089 287.128,-83.1265 312,-56 320.162,-47.0982 676.875,-21.6184 793.515,-13.5101"/>
<polygon fill="midnightblue" stroke="midnightblue" points="793.986,-16.9859 803.72,-12.8025 793.501,-10.0027 793.986,-16.9859"/>
</g>
<!-- Node9 -->
<g id="node10" class="node"><title>Node9</title>
<polygon fill="white" stroke="#bfbfbf" points="1280,-0.5 1280,-19.5 1324,-19.5 1324,-0.5 1280,-0.5"/>
<text text-anchor="middle" x="1302" y="-7.5" font-family="Helvetica,sans-Serif" font-size="10.00">vector</text>
</g>
<!-- Node0&#45;&gt;Node9 -->
<g id="edge35" class="edge"><title>Node0&#45;&gt;Node9</title>
<path fill="none" stroke="midnightblue" d="M461.135,-173.295C657.228,-162.072 1213.06,-126.12 1277,-76 1291.1,-64.9444 1297.26,-44.9016 1299.94,-29.9845"/>
<polygon fill="midnightblue" stroke="midnightblue" points="1303.44,-30.2034 1301.38,-19.8101 1296.51,-29.2174 1303.44,-30.2034"/>
</g>
<!-- Node15 -->
<g id="node16" class="node"><title>Node15</title>
<polygon fill="white" stroke="#bfbfbf" points="258,-0.5 258,-19.5 310,-19.5 310,-0.5 258,-0.5"/>
<text text-anchor="middle" x="284" y="-7.5" font-family="Helvetica,sans-Serif" font-size="10.00">memory</text>
</g>
<!-- Node0&#45;&gt;Node15 -->
<g id="edge36" class="edge"><title>Node0&#45;&gt;Node15</title>
<path fill="none" stroke="midnightblue" d="M338.261,-168.448C298.109,-160.926 248.5,-148.587 236,-132 211.193,-99.0836 246.095,-51.6538 268.221,-27.0973"/>
<polygon fill="midnightblue" stroke="midnightblue" points="270.861,-29.3976 275.129,-19.7004 265.746,-24.6195 270.861,-29.3976"/>
</g>
<!-- Node25 -->
<g id="node26" class="node"><title>Node25</title>
<g id="a_node26"><a xlink:href="memory_8h.html" target="_top" xlink:title="base/std_ext/memory.h">
<polygon fill="white" stroke="black" points="245.5,-112.5 245.5,-131.5 364.5,-131.5 364.5,-112.5 245.5,-112.5"/>
<text text-anchor="middle" x="305" y="-119.5" font-family="Helvetica,sans-Serif" font-size="10.00">base/std_ext/memory.h</text>
</a>
</g>
</g>
<!-- Node0&#45;&gt;Node25 -->
<g id="edge29" class="edge"><title>Node0&#45;&gt;Node25</title>
<path fill="none" stroke="midnightblue" d="M378.861,-168.324C365.134,-159.9 344.064,-146.971 327.936,-137.074"/>
<polygon fill="midnightblue" stroke="midnightblue" points="329.457,-133.902 319.104,-131.655 325.796,-139.868 329.457,-133.902"/>
</g>
<!-- Node26 -->
<g id="node27" class="node"><title>Node26</title>
<polygon fill="white" stroke="#bfbfbf" points="1345,-112.5 1345,-131.5 1389,-131.5 1389,-112.5 1345,-112.5"/>
<text text-anchor="middle" x="1367" y="-119.5" font-family="Helvetica,sans-Serif" font-size="10.00">TH1.h</text>
</g>
<!-- Node0&#45;&gt;Node26 -->
<g id="edge32" class="edge"><title>Node0&#45;&gt;Node26</title>
<path fill="none" stroke="midnightblue" d="M461.199,-175.473C647.634,-171.02 1163.06,-156.774 1331,-132 1332.25,-131.815 1333.53,-131.605 1334.81,-131.375"/>
<polygon fill="midnightblue" stroke="midnightblue" points="1335.6,-134.787 1344.67,-129.307 1334.16,-127.936 1335.6,-134.787"/>
</g>
<!-- Node27 -->
<g id="node28" class="node"><title>Node27</title>
<polygon fill="white" stroke="#bfbfbf" points="1407,-112.5 1407,-131.5 1461,-131.5 1461,-112.5 1407,-112.5"/>
<text text-anchor="middle" x="1434" y="-119.5" font-family="Helvetica,sans-Serif" font-size="10.00">iostream</text>
</g>
<!-- Node0&#45;&gt;Node27 -->
<g id="edge33" class="edge"><title>Node0&#45;&gt;Node27</title>
<path fill="none" stroke="midnightblue" d="M461.033,-175.669C652.881,-171.649 1196.62,-158.339 1396.52,-131.684"/>
<polygon fill="midnightblue" stroke="midnightblue" points="1397.21,-135.123 1406.64,-130.282 1396.25,-128.189 1397.21,-135.123"/>
</g>
<!-- Node2 -->
<g id="node3" class="node"><title>Node2</title>
<polygon fill="white" stroke="#bfbfbf" points="-0.5,-56.5 -0.5,-75.5 88.5,-75.5 88.5,-56.5 -0.5,-56.5"/>
<text text-anchor="middle" x="44" y="-63.5" font-family="Helvetica,sans-Serif" font-size="10.00">easylogging++.h</text>
</g>
<!-- Node1&#45;&gt;Node2 -->
<g id="edge2" class="edge"><title>Node1&#45;&gt;Node2</title>
<path fill="none" stroke="midnightblue" d="M44,-112.083C44,-105.006 44,-94.8611 44,-85.9865"/>
<polygon fill="midnightblue" stroke="midnightblue" points="47.5001,-85.751 44,-75.7511 40.5001,-85.7511 47.5001,-85.751"/>
</g>
<!-- Node5 -->
<g id="node6" class="node"><title>Node5</title>
<g id="a_node6"><a xlink:href="string_8h.html" target="_top" xlink:title="base/std_ext/string.h">
<polygon fill="white" stroke="black" points="1143,-56.5 1143,-75.5 1251,-75.5 1251,-56.5 1143,-56.5"/>
<text text-anchor="middle" x="1197" y="-63.5" font-family="Helvetica,sans-Serif" font-size="10.00">base/std_ext/string.h</text>
</a>
</g>
</g>
<!-- Node4&#45;&gt;Node5 -->
<g id="edge5" class="edge"><title>Node4&#45;&gt;Node5</title>
<path fill="none" stroke="midnightblue" d="M826.277,-114.978C893.539,-106.398 1020.71,-90.1271 1129,-76 1130.26,-75.8354 1131.54,-75.6688 1132.82,-75.5007"/>
<polygon fill="midnightblue" stroke="midnightblue" points="1133.35,-78.9613 1142.81,-74.1904 1132.44,-72.0207 1133.35,-78.9613"/>
</g>
<!-- Node6 -->
<g id="node7" class="node"><title>Node6</title>
<polygon fill="white" stroke="#bfbfbf" points="1191.5,-0.5 1191.5,-19.5 1232.5,-19.5 1232.5,-0.5 1191.5,-0.5"/>
<text text-anchor="middle" x="1212" y="-7.5" font-family="Helvetica,sans-Serif" font-size="10.00">string</text>
</g>
<!-- Node4&#45;&gt;Node6 -->
<g id="edge24" class="edge"><title>Node4&#45;&gt;Node6</title>
<path fill="none" stroke="midnightblue" d="M826.061,-120.118C941.444,-117.47 1231.13,-107.701 1260,-76 1274.83,-59.7214 1253.43,-38.9693 1234.65,-25.3489"/>
<polygon fill="midnightblue" stroke="midnightblue" points="1236.57,-22.4208 1226.35,-19.6345 1232.6,-28.1871 1236.57,-22.4208"/>
</g>
<!-- Node10 -->
<g id="node11" class="node"><title>Node10</title>
<g id="a_node11"><a xlink:href="misc_8h.html" target="_top" xlink:title="base/std_ext/misc.h">
<polygon fill="white" stroke="black" points="407.5,-56.5 407.5,-75.5 512.5,-75.5 512.5,-56.5 407.5,-56.5"/>
<text text-anchor="middle" x="460" y="-63.5" font-family="Helvetica,sans-Serif" font-size="10.00">base/std_ext/misc.h</text>
</a>
</g>
</g>
<!-- Node4&#45;&gt;Node10 -->
<g id="edge10" class="edge"><title>Node4&#45;&gt;Node10</title>
<path fill="none" stroke="midnightblue" d="M731.93,-113.032C675.784,-103.528 581.819,-87.6213 520.373,-77.2199"/>
<polygon fill="midnightblue" stroke="midnightblue" points="520.869,-73.7542 510.425,-75.536 519.701,-80.656 520.869,-73.7542"/>
</g>
<!-- Node11 -->
<g id="node12" class="node"><title>Node11</title>
<polygon fill="white" stroke="#bfbfbf" points="623.5,-0.5 623.5,-19.5 682.5,-19.5 682.5,-0.5 623.5,-0.5"/>
<text text-anchor="middle" x="653" y="-7.5" font-family="Helvetica,sans-Serif" font-size="10.00">functional</text>
</g>
<!-- Node4&#45;&gt;Node11 -->
<g id="edge28" class="edge"><title>Node4&#45;&gt;Node11</title>
<path fill="none" stroke="midnightblue" d="M826.183,-121.492C905.621,-121.201 1060.77,-115.448 1095,-76 1100.83,-69.2861 1100.96,-62.596 1095,-56 1081.57,-41.1307 798.635,-20.7459 692.633,-13.6009"/>
<polygon fill="midnightblue" stroke="midnightblue" points="692.86,-10.1083 682.649,-12.9318 692.392,-17.0927 692.86,-10.1083"/>
</g>
<!-- Node4&#45;&gt;Node15 -->
<g id="edge23" class="edge"><title>Node4&#45;&gt;Node15</title>
<path fill="none" stroke="midnightblue" d="M731.971,-121.403C658.723,-120.722 513.782,-114.097 398,-76 388.439,-72.854 337.754,-43.0773 307.278,-24.9358"/>
<polygon fill="midnightblue" stroke="midnightblue" points="308.918,-21.8386 298.536,-19.7216 305.332,-27.8503 308.918,-21.8386"/>
</g>
<!-- Node16 -->
<g id="node17" class="node"><title>Node16</title>
<polygon fill="white" stroke="#bfbfbf" points="530.5,-56.5 530.5,-75.5 577.5,-75.5 577.5,-56.5 530.5,-56.5"/>
<text text-anchor="middle" x="554" y="-63.5" font-family="Helvetica,sans-Serif" font-size="10.00">TFile.h</text>
</g>
<!-- Node4&#45;&gt;Node16 -->
<g id="edge17" class="edge"><title>Node4&#45;&gt;Node16</title>
<path fill="none" stroke="midnightblue" d="M740.059,-112.462C703.05,-104.227 645.608,-91.1355 587.45,-76.2974"/>
<polygon fill="midnightblue" stroke="midnightblue" points="588.29,-72.8996 577.733,-73.8035 586.549,-79.6798 588.29,-72.8996"/>
</g>
<!-- Node17 -->
<g id="node18" class="node"><title>Node17</title>
<polygon fill="white" stroke="#bfbfbf" points="595.5,-56.5 595.5,-75.5 666.5,-75.5 666.5,-56.5 595.5,-56.5"/>
<text text-anchor="middle" x="631" y="-63.5" font-family="Helvetica,sans-Serif" font-size="10.00">TDirectory.h</text>
</g>
<!-- Node4&#45;&gt;Node17 -->
<g id="edge18" class="edge"><title>Node4&#45;&gt;Node17</title>
<path fill="none" stroke="midnightblue" d="M755.549,-112.444C730.867,-103.438 691.815,-89.1891 664.023,-79.049"/>
<polygon fill="midnightblue" stroke="midnightblue" points="664.935,-75.6561 654.341,-75.5164 662.536,-82.2321 664.935,-75.6561"/>
</g>
<!-- Node18 -->
<g id="node19" class="node"><title>Node18</title>
<polygon fill="white" stroke="#bfbfbf" points="685,-56.5 685,-75.5 737,-75.5 737,-56.5 685,-56.5"/>
<text text-anchor="middle" x="711" y="-63.5" font-family="Helvetica,sans-Serif" font-size="10.00">TError.h</text>
</g>
<!-- Node4&#45;&gt;Node18 -->
<g id="edge19" class="edge"><title>Node4&#45;&gt;Node18</title>
<path fill="none" stroke="midnightblue" d="M768.075,-112.324C757.825,-104.185 742.279,-91.8395 729.999,-82.0874"/>
<polygon fill="midnightblue" stroke="midnightblue" points="732.132,-79.3119 722.124,-75.8339 727.779,-84.7937 732.132,-79.3119"/>
</g>
<!-- Node19 -->
<g id="node20" class="node"><title>Node19</title>
<polygon fill="white" stroke="#bfbfbf" points="755.5,-56.5 755.5,-75.5 802.5,-75.5 802.5,-56.5 755.5,-56.5"/>
<text text-anchor="middle" x="779" y="-63.5" font-family="Helvetica,sans-Serif" font-size="10.00">TList.h</text>
</g>
<!-- Node4&#45;&gt;Node19 -->
<g id="edge20" class="edge"><title>Node4&#45;&gt;Node19</title>
<path fill="none" stroke="midnightblue" d="M779,-112.083C779,-105.006 779,-94.8611 779,-85.9865"/>
<polygon fill="midnightblue" stroke="midnightblue" points="782.5,-85.751 779,-75.7511 775.5,-85.7511 782.5,-85.751"/>
</g>
<!-- Node20 -->
<g id="node21" class="node"><title>Node20</title>
<polygon fill="white" stroke="#bfbfbf" points="821,-56.5 821,-75.5 895,-75.5 895,-56.5 821,-56.5"/>
<text text-anchor="middle" x="858" y="-63.5" font-family="Helvetica,sans-Serif" font-size="10.00">TCollection.h</text>
</g>
<!-- Node4&#45;&gt;Node20 -->
<g id="edge21" class="edge"><title>Node4&#45;&gt;Node20</title>
<path fill="none" stroke="midnightblue" d="M791.693,-112.324C803.901,-103.979 822.578,-91.2122 837.003,-81.3524"/>
<polygon fill="midnightblue" stroke="midnightblue" points="839.058,-84.1871 845.339,-75.6545 835.108,-78.4082 839.058,-84.1871"/>
</g>
<!-- Node21 -->
<g id="node22" class="node"><title>Node21</title>
<polygon fill="white" stroke="#bfbfbf" points="913,-56.5 913,-75.5 961,-75.5 961,-56.5 913,-56.5"/>
<text text-anchor="middle" x="937" y="-63.5" font-family="Helvetica,sans-Serif" font-size="10.00">TKey.h</text>
</g>
<!-- Node4&#45;&gt;Node21 -->
<g id="edge22" class="edge"><title>Node4&#45;&gt;Node21</title>
<path fill="none" stroke="midnightblue" d="M804.036,-112.444C830.85,-103.279 873.555,-88.6839 903.307,-78.5153"/>
<polygon fill="midnightblue" stroke="midnightblue" points="904.528,-81.7968 912.859,-75.2508 902.264,-75.173 904.528,-81.7968"/>
</g>
<!-- Node22 -->
<g id="node23" class="node"><title>Node22</title>
<polygon fill="white" stroke="#bfbfbf" points="321.5,-56.5 321.5,-75.5 350.5,-75.5 350.5,-56.5 321.5,-56.5"/>
<text text-anchor="middle" x="336" y="-63.5" font-family="Helvetica,sans-Serif" font-size="10.00">list</text>
</g>
<!-- Node4&#45;&gt;Node22 -->
<g id="edge25" class="edge"><title>Node4&#45;&gt;Node22</title>
<path fill="none" stroke="midnightblue" d="M731.977,-118.841C654.701,-114.635 496.316,-103.248 365,-76 363.516,-75.6921 362,-75.3398 360.477,-74.957"/>
<polygon fill="midnightblue" stroke="midnightblue" points="361.186,-71.5197 350.609,-72.1352 359.262,-78.2499 361.186,-71.5197"/>
</g>
<!-- Node23 -->
<g id="node24" class="node"><title>Node23</title>
<polygon fill="white" stroke="#bfbfbf" points="979,-56.5 979,-75.5 1009,-75.5 1009,-56.5 979,-56.5"/>
<text text-anchor="middle" x="994" y="-63.5" font-family="Helvetica,sans-Serif" font-size="10.00">set</text>
</g>
<!-- Node4&#45;&gt;Node23 -->
<g id="edge26" class="edge"><title>Node4&#45;&gt;Node23</title>
<path fill="none" stroke="midnightblue" d="M822.276,-112.449C859.131,-104.799 913.605,-92.6308 969.207,-75.949"/>
<polygon fill="midnightblue" stroke="midnightblue" points="970.318,-79.2695 978.865,-73.0085 968.279,-72.573 970.318,-79.2695"/>
</g>
<!-- Node24 -->
<g id="node25" class="node"><title>Node24</title>
<polygon fill="white" stroke="#bfbfbf" points="1027.5,-56.5 1027.5,-75.5 1086.5,-75.5 1086.5,-56.5 1027.5,-56.5"/>
<text text-anchor="middle" x="1057" y="-63.5" font-family="Helvetica,sans-Serif" font-size="10.00">stdexcept</text>
</g>
<!-- Node4&#45;&gt;Node24 -->
<g id="edge27" class="edge"><title>Node4&#45;&gt;Node24</title>
<path fill="none" stroke="midnightblue" d="M826.059,-112.596C874.139,-103.894 950.908,-89.6793 1017,-76 1017.1,-75.9784 1017.21,-75.9567 1017.31,-75.9349"/>
<polygon fill="midnightblue" stroke="midnightblue" points="1018.27,-79.3099 1027.32,-73.798 1016.81,-72.4643 1018.27,-79.3099"/>
</g>
<!-- Node5&#45;&gt;Node6 -->
<g id="edge6" class="edge"><title>Node5&#45;&gt;Node6</title>
<path fill="none" stroke="midnightblue" d="M1199.48,-56.083C1201.49,-48.8486 1204.39,-38.4087 1206.89,-29.3968"/>
<polygon fill="midnightblue" stroke="midnightblue" points="1210.26,-30.323 1209.57,-19.7511 1203.52,-28.4495 1210.26,-30.323"/>
</g>
<!-- Node5&#45;&gt;Node7 -->
<g id="edge7" class="edge"><title>Node5&#45;&gt;Node7</title>
<path fill="none" stroke="midnightblue" d="M1142.85,-57.0321C1066.92,-45.8602 930.878,-25.8431 866.143,-16.318"/>
<polygon fill="midnightblue" stroke="midnightblue" points="866.42,-12.8212 856.017,-14.8281 865.401,-19.7466 866.42,-12.8212"/>
</g>
<!-- Node8 -->
<g id="node9" class="node"><title>Node8</title>
<polygon fill="white" stroke="#bfbfbf" points="926,-0.5 926,-19.5 982,-19.5 982,-0.5 926,-0.5"/>
<text text-anchor="middle" x="954" y="-7.5" font-family="Helvetica,sans-Serif" font-size="10.00">algorithm</text>
</g>
<!-- Node5&#45;&gt;Node8 -->
<g id="edge8" class="edge"><title>Node5&#45;&gt;Node8</title>
<path fill="none" stroke="midnightblue" d="M1158.5,-56.4435C1112.93,-46.3179 1037.53,-29.5632 992.132,-19.4738"/>
<polygon fill="midnightblue" stroke="midnightblue" points="992.618,-15.9965 982.097,-17.2437 991.099,-22.8298 992.618,-15.9965"/>
</g>
<!-- Node5&#45;&gt;Node9 -->
<g id="edge9" class="edge"><title>Node5&#45;&gt;Node9</title>
<path fill="none" stroke="midnightblue" d="M1213.87,-56.324C1230.71,-47.6641 1256.81,-34.2424 1276.24,-24.249"/>
<polygon fill="midnightblue" stroke="midnightblue" points="1277.88,-27.3405 1285.17,-19.6545 1274.68,-21.1155 1277.88,-27.3405"/>
</g>
<!-- Node10&#45;&gt;Node8 -->
<g id="edge11" class="edge"><title>Node10&#45;&gt;Node8</title>
<path fill="none" stroke="midnightblue" d="M512.553,-57.1001C515.409,-56.7165 518.238,-56.3471 521,-56 559.663,-51.141 817.05,-24.9058 915.657,-14.8895"/>
<polygon fill="midnightblue" stroke="midnightblue" points="916.19,-18.3535 925.785,-13.861 915.483,-11.3893 916.19,-18.3535"/>
</g>
<!-- Node10&#45;&gt;Node11 -->
<g id="edge12" class="edge"><title>Node10&#45;&gt;Node11</title>
<path fill="none" stroke="midnightblue" d="M490.581,-56.4435C523.809,-47.1467 577.009,-32.2617 613.406,-22.0781"/>
<polygon fill="midnightblue" stroke="midnightblue" points="614.509,-25.4041 623.196,-19.339 612.623,-18.663 614.509,-25.4041"/>
</g>
<!-- Node12 -->
<g id="node13" class="node"><title>Node12</title>
<polygon fill="white" stroke="#bfbfbf" points="509,-0.5 509,-19.5 553,-19.5 553,-0.5 509,-0.5"/>
<text text-anchor="middle" x="531" y="-7.5" font-family="Helvetica,sans-Serif" font-size="10.00">cmath</text>
</g>
<!-- Node10&#45;&gt;Node12 -->
<g id="edge13" class="edge"><title>Node10&#45;&gt;Node12</title>
<path fill="none" stroke="midnightblue" d="M471.407,-56.324C482.109,-48.1849 498.341,-35.8395 511.163,-26.0874"/>
<polygon fill="midnightblue" stroke="midnightblue" points="513.544,-28.6734 519.385,-19.8339 509.307,-23.1018 513.544,-28.6734"/>
</g>
<!-- Node13 -->
<g id="node14" class="node"><title>Node13</title>
<polygon fill="white" stroke="#bfbfbf" points="357.5,-0.5 357.5,-19.5 410.5,-19.5 410.5,-0.5 357.5,-0.5"/>
<text text-anchor="middle" x="384" y="-7.5" font-family="Helvetica,sans-Serif" font-size="10.00">cxxabi.h</text>
</g>
<!-- Node10&#45;&gt;Node13 -->
<g id="edge14" class="edge"><title>Node10&#45;&gt;Node13</title>
<path fill="none" stroke="midnightblue" d="M447.789,-56.324C436.224,-48.1066 418.625,-35.6017 404.839,-25.8069"/>
<polygon fill="midnightblue" stroke="midnightblue" points="406.612,-22.7729 396.433,-19.8339 402.557,-28.4791 406.612,-22.7729"/>
</g>
<!-- Node14 -->
<g id="node15" class="node"><title>Node14</title>
<polygon fill="white" stroke="#bfbfbf" points="429,-0.5 429,-19.5 491,-19.5 491,-0.5 429,-0.5"/>
<text text-anchor="middle" x="460" y="-7.5" font-family="Helvetica,sans-Serif" font-size="10.00">type_traits</text>
</g>
<!-- Node10&#45;&gt;Node14 -->
<g id="edge15" class="edge"><title>Node10&#45;&gt;Node14</title>
<path fill="none" stroke="midnightblue" d="M460,-56.083C460,-49.0059 460,-38.8611 460,-29.9865"/>
<polygon fill="midnightblue" stroke="midnightblue" points="463.5,-29.751 460,-19.7511 456.5,-29.7511 463.5,-29.751"/>
</g>
<!-- Node10&#45;&gt;Node15 -->
<g id="edge16" class="edge"><title>Node10&#45;&gt;Node15</title>
<path fill="none" stroke="midnightblue" d="M432.112,-56.4435C401.719,-47.1184 353.001,-32.1708 319.803,-21.985"/>
<polygon fill="midnightblue" stroke="midnightblue" points="320.623,-18.5756 310.036,-18.9883 318.569,-25.2677 320.623,-18.5756"/>
</g>
<!-- Node25&#45;&gt;Node15 -->
<g id="edge30" class="edge"><title>Node25&#45;&gt;Node15</title>
<path fill="none" stroke="midnightblue" d="M298.11,-112.319C291.731,-103.684 282.692,-89.7696 279,-76 274.919,-60.7807 276.756,-42.8913 279.28,-29.7369"/>
<polygon fill="midnightblue" stroke="midnightblue" points="282.784,-30.1041 281.545,-19.582 275.952,-28.5806 282.784,-30.1041"/>
</g>
<!-- Node25&#45;&gt;Node22 -->
<g id="edge31" class="edge"><title>Node25&#45;&gt;Node22</title>
<path fill="none" stroke="midnightblue" d="M310.119,-112.083C314.408,-104.613 320.658,-93.7244 325.942,-84.5199"/>
<polygon fill="midnightblue" stroke="midnightblue" points="329.033,-86.1662 330.976,-75.7511 322.962,-82.6811 329.033,-86.1662"/>
</g>
</g>
</svg>
