<?xml version="1.0" encoding="UTF-8" standalone="no"?>
<!DOCTYPE svg PUBLIC "-//W3C//DTD SVG 1.1//EN"
 "http://www.w3.org/Graphics/SVG/1.1/DTD/svg11.dtd">
<!-- Generated by graphviz version 2.36.0 (20140111.2315)
 -->
<!-- Title: src/analysis/input/ant/AntReader.h Pages: 1 -->
<svg width="814pt" height="108pt"
 viewBox="0.00 0.00 814.00 108.00" xmlns="http://www.w3.org/2000/svg" xmlns:xlink="http://www.w3.org/1999/xlink">
<g id="graph0" class="graph" transform="scale(1 1) rotate(0) translate(4 104)">
<title>src/analysis/input/ant/AntReader.h</title>
<polygon fill="white" stroke="none" points="-4,4 -4,-104 810,-104 810,4 -4,4"/>
<!-- Node42 -->
<g id="node1" class="node"><title>Node42</title>
<polygon fill="#bfbfbf" stroke="black" points="295.5,-69 295.5,-99 388.5,-99 388.5,-69 295.5,-69"/>
<text text-anchor="start" x="303.5" y="-87" font-family="Helvetica,sans-Serif" font-size="10.00">src/analysis/input</text>
<text text-anchor="middle" x="342" y="-76" font-family="Helvetica,sans-Serif" font-size="10.00">/ant/AntReader.h</text>
</g>
<!-- Node43 -->
<g id="node2" class="node"><title>Node43</title>
<g id="a_node2"><a xlink:href="_ant-fake_raw_8cc.html" target="_top" xlink:title="progs/Ant&#45;fakeRaw.cc">
<polygon fill="white" stroke="black" points="0,-6.5 0,-25.5 114,-25.5 114,-6.5 0,-6.5"/>
<text text-anchor="middle" x="57" y="-13.5" font-family="Helvetica,sans-Serif" font-size="10.00">progs/Ant&#45;fakeRaw.cc</text>
</a>
</g>
</g>
<!-- Node42&#45;&gt;Node43 -->
<g id="edge1" class="edge"><title>Node42&#45;&gt;Node43</title>
<path fill="none" stroke="midnightblue" d="M285.334,-69.8773C228.413,-56.6957 142.37,-36.7699 93.7861,-25.5189"/>
<polygon fill="midnightblue" stroke="midnightblue" points="284.725,-73.329 295.257,-72.1753 286.305,-66.5094 284.725,-73.329"/>
</g>
<!-- Node44 -->
<g id="node3" class="node"><title>Node44</title>
<g id="a_node3"><a xlink:href="_ant_8cc.html" target="_top" xlink:title="Main Ant executable. ">
<polygon fill="white" stroke="black" points="132,-6.5 132,-25.5 204,-25.5 204,-6.5 132,-6.5"/>
<text text-anchor="middle" x="168" y="-13.5" font-family="Helvetica,sans-Serif" font-size="10.00">progs/Ant.cc</text>
</a>
</g>
</g>
<!-- Node42&#45;&gt;Node44 -->
<g id="edge2" class="edge"><title>Node42&#45;&gt;Node44</title>
<path fill="none" stroke="midnightblue" d="M294.977,-65.1639C261.129,-52.3248 216.964,-35.5724 190.638,-25.5868"/>
<polygon fill="midnightblue" stroke="midnightblue" points="294.081,-68.5672 304.673,-68.8413 296.564,-62.0222 294.081,-68.5672"/>
</g>
<!-- Node45 -->
<g id="node4" class="node"><title>Node45</title>
<g id="a_node4"><a xlink:href="_ant_reader_8cc.html" target="_top" xlink:title="src/analysis/input\l/ant/AntReader.cc">
<polygon fill="white" stroke="black" points="222,-1 222,-31 318,-31 318,-1 222,-1"/>
<text text-anchor="start" x="230" y="-19" font-family="Helvetica,sans-Serif" font-size="10.00">src/analysis/input</text>
<text text-anchor="middle" x="270" y="-8" font-family="Helvetica,sans-Serif" font-size="10.00">/ant/AntReader.cc</text>
</a>
</g>
</g>
<!-- Node42&#45;&gt;Node45 -->
<g id="edge3" class="edge"><title>Node42&#45;&gt;Node45</title>
<path fill="none" stroke="midnightblue" d="M318.847,-61.7762C307.975,-51.8105 295.304,-40.1956 285.592,-31.2931"/>
<polygon fill="midnightblue" stroke="midnightblue" points="316.64,-64.5018 326.377,-68.679 321.371,-59.3417 316.64,-64.5018"/>
</g>
<!-- Node46 -->
<g id="node5" class="node"><title>Node46</title>
<g id="a_node5"><a xlink:href="_test_ant_reader_8cc.html" target="_top" xlink:title="test/analysis/TestAntReader.cc">
<polygon fill="white" stroke="black" points="336.5,-6.5 336.5,-25.5 491.5,-25.5 491.5,-6.5 336.5,-6.5"/>
<text text-anchor="middle" x="414" y="-13.5" font-family="Helvetica,sans-Serif" font-size="10.00">test/analysis/TestAntReader.cc</text>
</a>
</g>
</g>
<!-- Node42&#45;&gt;Node46 -->
<g id="edge4" class="edge"><title>Node42&#45;&gt;Node46</title>
<path fill="none" stroke="midnightblue" d="M365.071,-61.8517C378.365,-49.6656 394.371,-34.9929 404.369,-25.8283"/>
<polygon fill="midnightblue" stroke="midnightblue" points="362.629,-59.3417 357.623,-68.679 367.36,-64.5018 362.629,-59.3417"/>
</g>
<!-- Node47 -->
<g id="node6" class="node"><title>Node47</title>
<g id="a_node6"><a xlink:href="_test_physics_manager_8cc.html" target="_top" xlink:title="test/analysis/TestPhysics\lManager.cc">
<polygon fill="white" stroke="black" points="510,-1 510,-31 640,-31 640,-1 510,-1"/>
<text text-anchor="start" x="518" y="-19" font-family="Helvetica,sans-Serif" font-size="10.00">test/analysis/TestPhysics</text>
<text text-anchor="middle" x="575" y="-8" font-family="Helvetica,sans-Serif" font-size="10.00">Manager.cc</text>
</a>
</g>
</g>
<!-- Node42&#45;&gt;Node47 -->
<g id="edge5" class="edge"><title>Node42&#45;&gt;Node47</title>
<path fill="none" stroke="midnightblue" d="M398.657,-66.9513C437.352,-55.9903 488.139,-41.6043 525.268,-31.0872"/>
<polygon fill="midnightblue" stroke="midnightblue" points="397.259,-63.7096 388.591,-69.8025 399.166,-70.4446 397.259,-63.7096"/>
</g>
<!-- Node48 -->
<g id="node7" class="node"><title>Node48</title>
<g id="a_node7"><a xlink:href="_test_slow_control_manager_8cc.html" target="_top" xlink:title="test/analysis/TestSlowControl\lManager.cc">
<polygon fill="white" stroke="black" points="658,-1 658,-31 806,-31 806,-1 658,-1"/>
<text text-anchor="start" x="666" y="-19" font-family="Helvetica,sans-Serif" font-size="10.00">test/analysis/TestSlowControl</text>
<text text-anchor="middle" x="732" y="-8" font-family="Helvetica,sans-Serif" font-size="10.00">Manager.cc</text>
</a>
</g>
</g>
<!-- Node42&#45;&gt;Node48 -->
<g id="edge6" class="edge"><title>Node42&#45;&gt;Node48</title>
<path fill="none" stroke="midnightblue" d="M398.495,-73.861C460.116,-63.8353 561.635,-47.1504 649,-32 651.886,-31.4996 654.827,-30.9858 657.798,-30.4639"/>
<polygon fill="midnightblue" stroke="midnightblue" points="397.893,-70.4128 388.584,-75.472 399.016,-77.3222 397.893,-70.4128"/>
</g>
</g>
</svg>
