<?xml version="1.0" encoding="UTF-8" standalone="no"?>
<!DOCTYPE svg PUBLIC "-//W3C//DTD SVG 1.1//EN"
 "http://www.w3.org/Graphics/SVG/1.1/DTD/svg11.dtd">
<!-- Generated by graphviz version 2.36.0 (20140111.2315)
 -->
<!-- Title: progs/Ant&#45;calib&#45;editor.cc Pages: 1 -->
<svg width="1033pt" height="432pt"
 viewBox="0.00 0.00 1032.75 432.00" xmlns="http://www.w3.org/2000/svg" xmlns:xlink="http://www.w3.org/1999/xlink">
<g id="graph0" class="graph" transform="scale(1 1) rotate(0) translate(4 428)">
<title>progs/Ant&#45;calib&#45;editor.cc</title>
<polygon fill="white" stroke="none" points="-4,4 -4,-428 1028.75,-428 1028.75,4 -4,4"/>
<!-- Node0 -->
<g id="node1" class="node"><title>Node0</title>
<polygon fill="#bfbfbf" stroke="black" points="703.754,-404.5 703.754,-423.5 825.754,-423.5 825.754,-404.5 703.754,-404.5"/>
<text text-anchor="middle" x="764.754" y="-411.5" font-family="Helvetica,sans-Serif" font-size="10.00">progs/Ant&#45;calib&#45;editor.cc</text>
</g>
<!-- Node1 -->
<g id="node2" class="node"><title>Node1</title>
<g id="a_node2"><a xlink:href="_editor_window_8h.html" target="_top" xlink:title="calibration/gui/EditorWindow.h">
<polygon fill="white" stroke="black" points="457.254,-348.5 457.254,-367.5 606.254,-367.5 606.254,-348.5 457.254,-348.5"/>
<text text-anchor="middle" x="531.754" y="-355.5" font-family="Helvetica,sans-Serif" font-size="10.00">calibration/gui/EditorWindow.h</text>
</a>
</g>
</g>
<!-- Node0&#45;&gt;Node1 -->
<g id="edge1" class="edge"><title>Node0&#45;&gt;Node1</title>
<path fill="none" stroke="midnightblue" d="M727.835,-404.444C687.359,-395.063 622.334,-379.993 578.37,-369.804"/>
<polygon fill="midnightblue" stroke="midnightblue" points="579.033,-366.365 568.501,-367.516 577.453,-373.184 579.033,-366.365"/>
</g>
<!-- Node12 -->
<g id="node13" class="node"><title>Node12</title>
<polygon fill="white" stroke="#bfbfbf" points="203.754,-56.5 203.754,-75.5 249.754,-75.5 249.754,-56.5 203.754,-56.5"/>
<text text-anchor="middle" x="226.754" y="-63.5" font-family="Helvetica,sans-Serif" font-size="10.00">cstring</text>
</g>
<!-- Node0&#45;&gt;Node12 -->
<g id="edge39" class="edge"><title>Node0&#45;&gt;Node12</title>
<path fill="none" stroke="midnightblue" d="M703.524,-410.607C522.23,-402.715 0.754342,-373.856 0.754342,-303 0.754342,-303 0.754342,-303 0.754342,-177 0.754342,-146.902 -2.26303,-132.521 19.7543,-112 44.609,-88.8345 141.419,-75.6667 193.368,-70.1325"/>
<polygon fill="midnightblue" stroke="midnightblue" points="193.839,-73.6026 203.428,-69.0966 193.122,-66.6394 193.839,-73.6026"/>
</g>
<!-- Node27 -->
<g id="node28" class="node"><title>Node27</title>
<g id="a_node28"><a xlink:href="_logger_8h.html" target="_top" xlink:title="base/Logger.h">
<polygon fill="white" stroke="black" points="624.754,-348.5 624.754,-367.5 702.754,-367.5 702.754,-348.5 624.754,-348.5"/>
<text text-anchor="middle" x="663.754" y="-355.5" font-family="Helvetica,sans-Serif" font-size="10.00">base/Logger.h</text>
</a>
</g>
</g>
<!-- Node0&#45;&gt;Node27 -->
<g id="edge33" class="edge"><title>Node0&#45;&gt;Node27</title>
<path fill="none" stroke="midnightblue" d="M748.527,-404.324C732.403,-395.703 707.454,-382.364 688.79,-372.386"/>
<polygon fill="midnightblue" stroke="midnightblue" points="690.41,-369.283 679.941,-367.655 687.11,-375.456 690.41,-369.283"/>
</g>
<!-- Node29 -->
<g id="node30" class="node"><title>Node29</title>
<polygon fill="white" stroke="#bfbfbf" points="720.754,-348.5 720.754,-367.5 808.754,-367.5 808.754,-348.5 720.754,-348.5"/>
<text text-anchor="middle" x="764.754" y="-355.5" font-family="Helvetica,sans-Serif" font-size="10.00">tclap/CmdLine.h</text>
</g>
<!-- Node0&#45;&gt;Node29 -->
<g id="edge35" class="edge"><title>Node0&#45;&gt;Node29</title>
<path fill="none" stroke="midnightblue" d="M764.754,-404.083C764.754,-397.006 764.754,-386.861 764.754,-377.986"/>
<polygon fill="midnightblue" stroke="midnightblue" points="768.254,-377.751 764.754,-367.751 761.254,-377.751 768.254,-377.751"/>
</g>
<!-- Node30 -->
<g id="node31" class="node"><title>Node30</title>
<polygon fill="white" stroke="#bfbfbf" points="826.254,-348.5 826.254,-367.5 875.254,-367.5 875.254,-348.5 826.254,-348.5"/>
<text text-anchor="middle" x="850.754" y="-355.5" font-family="Helvetica,sans-Serif" font-size="10.00">TRint.h</text>
</g>
<!-- Node0&#45;&gt;Node30 -->
<g id="edge36" class="edge"><title>Node0&#45;&gt;Node30</title>
<path fill="none" stroke="midnightblue" d="M778.572,-404.324C791.987,-395.9 812.578,-382.971 828.34,-373.074"/>
<polygon fill="midnightblue" stroke="midnightblue" points="830.364,-375.936 836.971,-367.655 826.641,-370.008 830.364,-375.936"/>
</g>
<!-- Node31 -->
<g id="node32" class="node"><title>Node31</title>
<polygon fill="white" stroke="#bfbfbf" points="893.254,-348.5 893.254,-367.5 952.254,-367.5 952.254,-348.5 893.254,-348.5"/>
<text text-anchor="middle" x="922.754" y="-355.5" font-family="Helvetica,sans-Serif" font-size="10.00">TROOT.h</text>
</g>
<!-- Node0&#45;&gt;Node31 -->
<g id="edge37" class="edge"><title>Node0&#45;&gt;Node31</title>
<path fill="none" stroke="midnightblue" d="M789.79,-404.444C816.37,-395.359 858.563,-380.939 888.278,-370.783"/>
<polygon fill="midnightblue" stroke="midnightblue" points="889.505,-374.062 897.836,-367.516 887.241,-367.439 889.505,-374.062"/>
</g>
<!-- Node32 -->
<g id="node33" class="node"><title>Node32</title>
<polygon fill="white" stroke="#bfbfbf" points="970.754,-348.5 970.754,-367.5 1024.75,-367.5 1024.75,-348.5 970.754,-348.5"/>
<text text-anchor="middle" x="997.754" y="-355.5" font-family="Helvetica,sans-Serif" font-size="10.00">iostream</text>
</g>
<!-- Node0&#45;&gt;Node32 -->
<g id="edge38" class="edge"><title>Node0&#45;&gt;Node32</title>
<path fill="none" stroke="midnightblue" d="M802.729,-404.434C842.238,-395.486 905.882,-380.972 960.754,-368 960.855,-367.976 960.956,-367.952 961.056,-367.929"/>
<polygon fill="midnightblue" stroke="midnightblue" points="961.774,-371.356 970.686,-365.627 960.146,-364.548 961.774,-371.356"/>
</g>
<!-- Node2 -->
<g id="node3" class="node"><title>Node2</title>
<g id="a_node3"><a xlink:href="_editor_8h.html" target="_top" xlink:title="calibration/Editor.h">
<polygon fill="white" stroke="black" points="613.754,-292.5 613.754,-311.5 711.754,-311.5 711.754,-292.5 613.754,-292.5"/>
<text text-anchor="middle" x="662.754" y="-299.5" font-family="Helvetica,sans-Serif" font-size="10.00">calibration/Editor.h</text>
</a>
</g>
</g>
<!-- Node1&#45;&gt;Node2 -->
<g id="edge2" class="edge"><title>Node1&#45;&gt;Node2</title>
<path fill="none" stroke="midnightblue" d="M552.512,-348.444C574.071,-339.557 608.018,-325.563 632.548,-315.451"/>
<polygon fill="midnightblue" stroke="midnightblue" points="634.183,-318.563 642.094,-311.516 631.515,-312.092 634.183,-318.563"/>
</g>
<!-- Node8 -->
<g id="node9" class="node"><title>Node8</title>
<polygon fill="white" stroke="#bfbfbf" points="702.254,-0.5 702.254,-19.5 743.254,-19.5 743.254,-0.5 702.254,-0.5"/>
<text text-anchor="middle" x="722.754" y="-7.5" font-family="Helvetica,sans-Serif" font-size="10.00">string</text>
</g>
<!-- Node1&#45;&gt;Node8 -->
<g id="edge31" class="edge"><title>Node1&#45;&gt;Node8</title>
<path fill="none" stroke="midnightblue" d="M598.011,-348.458C680.196,-337.592 810.574,-319.356 818.754,-312 843.043,-290.157 837.754,-273.666 837.754,-241 837.754,-241 837.754,-241 837.754,-121 837.754,-73.7752 786.486,-40.5742 752.412,-23.7233"/>
<polygon fill="midnightblue" stroke="midnightblue" points="753.849,-20.5312 743.314,-19.4059 750.848,-26.8553 753.849,-20.5312"/>
</g>
<!-- Node21 -->
<g id="node22" class="node"><title>Node21</title>
<g id="a_node22"><a xlink:href="_indicator__traits_8h.html" target="_top" xlink:title="calibration/gui/Indicator\l_traits.h">
<polygon fill="white" stroke="black" points="236.254,-225 236.254,-255 353.254,-255 353.254,-225 236.254,-225"/>
<text text-anchor="start" x="244.254" y="-243" font-family="Helvetica,sans-Serif" font-size="10.00">calibration/gui/Indicator</text>
<text text-anchor="middle" x="294.754" y="-232" font-family="Helvetica,sans-Serif" font-size="10.00">_traits.h</text>
</a>
</g>
</g>
<!-- Node1&#45;&gt;Node21 -->
<g id="edge25" class="edge"><title>Node1&#45;&gt;Node21</title>
<path fill="none" stroke="midnightblue" d="M527.65,-348.382C520.527,-334.369 504.525,-306.73 482.754,-292 447.401,-268.079 401.207,-255.348 363.457,-248.588"/>
<polygon fill="midnightblue" stroke="midnightblue" points="363.996,-245.13 353.553,-246.916 362.83,-252.032 363.996,-245.13"/>
</g>
<!-- Node22 -->
<g id="node23" class="node"><title>Node22</title>
<polygon fill="white" stroke="#bfbfbf" points="529.754,-292.5 529.754,-311.5 595.754,-311.5 595.754,-292.5 529.754,-292.5"/>
<text text-anchor="middle" x="562.754" y="-299.5" font-family="Helvetica,sans-Serif" font-size="10.00">TGFrame.h</text>
</g>
<!-- Node1&#45;&gt;Node22 -->
<g id="edge27" class="edge"><title>Node1&#45;&gt;Node22</title>
<path fill="none" stroke="midnightblue" d="M536.873,-348.083C541.162,-340.613 547.413,-329.724 552.697,-320.52"/>
<polygon fill="midnightblue" stroke="midnightblue" points="555.787,-322.166 557.731,-311.751 549.716,-318.681 555.787,-322.166"/>
</g>
<!-- Node23 -->
<g id="node24" class="node"><title>Node23</title>
<polygon fill="white" stroke="#bfbfbf" points="729.754,-292.5 729.754,-311.5 809.754,-311.5 809.754,-292.5 729.754,-292.5"/>
<text text-anchor="middle" x="769.754" y="-299.5" font-family="Helvetica,sans-Serif" font-size="10.00">KeySymbols.h</text>
</g>
<!-- Node1&#45;&gt;Node23 -->
<g id="edge28" class="edge"><title>Node1&#45;&gt;Node23</title>
<path fill="none" stroke="midnightblue" d="M569.466,-348.444C610.898,-339.043 677.511,-323.929 722.422,-313.739"/>
<polygon fill="midnightblue" stroke="midnightblue" points="723.241,-317.142 732.219,-311.516 721.692,-310.316 723.241,-317.142"/>
</g>
<!-- Node24 -->
<g id="node25" class="node"><title>Node24</title>
<polygon fill="white" stroke="#bfbfbf" points="285.254,-292.5 285.254,-311.5 350.254,-311.5 350.254,-292.5 285.254,-292.5"/>
<text text-anchor="middle" x="317.754" y="-299.5" font-family="Helvetica,sans-Serif" font-size="10.00">TCanvas.h</text>
</g>
<!-- Node1&#45;&gt;Node24 -->
<g id="edge29" class="edge"><title>Node1&#45;&gt;Node24</title>
<path fill="none" stroke="midnightblue" d="M497.845,-348.444C460.579,-339.04 400.654,-323.919 360.272,-313.729"/>
<polygon fill="midnightblue" stroke="midnightblue" points="361.004,-310.304 350.452,-311.251 359.292,-317.091 361.004,-310.304"/>
</g>
<!-- Node25 -->
<g id="node26" class="node"><title>Node25</title>
<polygon fill="white" stroke="#bfbfbf" points="368.254,-292.5 368.254,-311.5 403.254,-311.5 403.254,-292.5 368.254,-292.5"/>
<text text-anchor="middle" x="385.754" y="-299.5" font-family="Helvetica,sans-Serif" font-size="10.00">map</text>
</g>
<!-- Node1&#45;&gt;Node25 -->
<g id="edge30" class="edge"><title>Node1&#45;&gt;Node25</title>
<path fill="none" stroke="midnightblue" d="M508.62,-348.444C482.553,-338.802 440.238,-323.151 412.701,-312.966"/>
<polygon fill="midnightblue" stroke="midnightblue" points="413.875,-309.669 403.281,-309.483 411.446,-316.234 413.875,-309.669"/>
</g>
<!-- Node26 -->
<g id="node27" class="node"><title>Node26</title>
<polygon fill="white" stroke="#bfbfbf" points="421.754,-292.5 421.754,-311.5 473.754,-311.5 473.754,-292.5 421.754,-292.5"/>
<text text-anchor="middle" x="447.754" y="-299.5" font-family="Helvetica,sans-Serif" font-size="10.00">memory</text>
</g>
<!-- Node1&#45;&gt;Node26 -->
<g id="edge32" class="edge"><title>Node1&#45;&gt;Node26</title>
<path fill="none" stroke="midnightblue" d="M518.258,-348.324C505.155,-339.9 485.042,-326.971 469.647,-317.074"/>
<polygon fill="midnightblue" stroke="midnightblue" points="471.521,-314.118 461.217,-311.655 467.736,-320.006 471.521,-314.118"/>
</g>
<!-- Node3 -->
<g id="node4" class="node"><title>Node3</title>
<g id="a_node4"><a xlink:href="_t_calibration_data_8h.html" target="_top" xlink:title="tree/TCalibrationData.h">
<polygon fill="white" stroke="black" points="606.754,-230.5 606.754,-249.5 724.754,-249.5 724.754,-230.5 606.754,-230.5"/>
<text text-anchor="middle" x="665.754" y="-237.5" font-family="Helvetica,sans-Serif" font-size="10.00">tree/TCalibrationData.h</text>
</a>
</g>
</g>
<!-- Node2&#45;&gt;Node3 -->
<g id="edge3" class="edge"><title>Node2&#45;&gt;Node3</title>
<path fill="none" stroke="midnightblue" d="M663.184,-292.403C663.607,-283.938 664.268,-270.728 664.813,-259.82"/>
<polygon fill="midnightblue" stroke="midnightblue" points="668.321,-259.743 665.325,-249.581 661.33,-259.393 668.321,-259.743"/>
</g>
<!-- Node4 -->
<g id="node5" class="node"><title>Node4</title>
<g id="a_node5"><a xlink:href="_t_i_d_8h.html" target="_top" xlink:title="TID.h">
<polygon fill="white" stroke="black" points="323.254,-168.5 323.254,-187.5 364.254,-187.5 364.254,-168.5 323.254,-168.5"/>
<text text-anchor="middle" x="343.754" y="-175.5" font-family="Helvetica,sans-Serif" font-size="10.00">TID.h</text>
</a>
</g>
</g>
<!-- Node3&#45;&gt;Node4 -->
<g id="edge4" class="edge"><title>Node3&#45;&gt;Node4</title>
<path fill="none" stroke="midnightblue" d="M619.962,-230.467C553.41,-218.066 431.705,-195.388 374.723,-184.771"/>
<polygon fill="midnightblue" stroke="midnightblue" points="375.017,-181.265 364.545,-182.874 373.734,-188.147 375.017,-181.265"/>
</g>
<!-- Node3&#45;&gt;Node8 -->
<g id="edge23" class="edge"><title>Node3&#45;&gt;Node8</title>
<path fill="none" stroke="midnightblue" d="M667.919,-230.341C676.26,-196.976 706.431,-76.2946 718.101,-29.615"/>
<polygon fill="midnightblue" stroke="midnightblue" points="721.557,-30.2184 720.587,-19.6681 714.766,-28.5206 721.557,-30.2184"/>
</g>
<!-- Node13 -->
<g id="node14" class="node"><title>Node13</title>
<polygon fill="white" stroke="#bfbfbf" points="620.254,-56.5 620.254,-75.5 661.254,-75.5 661.254,-56.5 620.254,-56.5"/>
<text text-anchor="middle" x="640.754" y="-63.5" font-family="Helvetica,sans-Serif" font-size="10.00">ctime</text>
</g>
<!-- Node3&#45;&gt;Node13 -->
<g id="edge24" class="edge"><title>Node3&#45;&gt;Node13</title>
<path fill="none" stroke="midnightblue" d="M664.48,-230.234C660.601,-203.548 648.876,-122.877 643.5,-85.8931"/>
<polygon fill="midnightblue" stroke="midnightblue" points="646.898,-84.9368 641.996,-75.5442 639.971,-85.9437 646.898,-84.9368"/>
</g>
<!-- Node20 -->
<g id="node21" class="node"><title>Node20</title>
<g id="a_node21"><a xlink:href="_git_info_8h.html" target="_top" xlink:title="base/GitInfo.h">
<polygon fill="white" stroke="black" points="731.754,-168.5 731.754,-187.5 809.754,-187.5 809.754,-168.5 731.754,-168.5"/>
<text text-anchor="middle" x="770.754" y="-175.5" font-family="Helvetica,sans-Serif" font-size="10.00">base/GitInfo.h</text>
</a>
</g>
</g>
<!-- Node3&#45;&gt;Node20 -->
<g id="edge21" class="edge"><title>Node3&#45;&gt;Node20</title>
<path fill="none" stroke="midnightblue" d="M680.798,-230.403C698.03,-220.557 726.494,-204.291 746.788,-192.695"/>
<polygon fill="midnightblue" stroke="midnightblue" points="748.792,-195.581 755.738,-187.581 745.319,-189.503 748.792,-195.581"/>
</g>
<!-- Node5 -->
<g id="node6" class="node"><title>Node5</title>
<polygon fill="white" stroke="#bfbfbf" points="28.7543,-112.5 28.7543,-131.5 84.7543,-131.5 84.7543,-112.5 28.7543,-112.5"/>
<text text-anchor="middle" x="56.7543" y="-119.5" font-family="Helvetica,sans-Serif" font-size="10.00">Rtypes.h</text>
</g>
<!-- Node4&#45;&gt;Node5 -->
<g id="edge5" class="edge"><title>Node4&#45;&gt;Node5</title>
<path fill="none" stroke="midnightblue" d="M322.929,-173.689C281.452,-167.003 185.394,-151.054 94.8667,-132.135"/>
<polygon fill="midnightblue" stroke="midnightblue" points="95.5027,-128.693 84.9959,-130.056 94.0596,-135.542 95.5027,-128.693"/>
</g>
<!-- Node6 -->
<g id="node7" class="node"><title>Node6</title>
<g id="a_node7"><a xlink:href="base_2std__ext_2_time_8h.html" target="_top" xlink:title="base/std_ext/time.h">
<polygon fill="white" stroke="black" points="496.254,-112.5 496.254,-131.5 599.254,-131.5 599.254,-112.5 496.254,-112.5"/>
<text text-anchor="middle" x="547.754" y="-119.5" font-family="Helvetica,sans-Serif" font-size="10.00">base/std_ext/time.h</text>
</a>
</g>
</g>
<!-- Node4&#45;&gt;Node6 -->
<g id="edge6" class="edge"><title>Node4&#45;&gt;Node6</title>
<path fill="none" stroke="midnightblue" d="M364.438,-171.525C397.353,-162.812 462.328,-145.613 505.41,-134.209"/>
<polygon fill="midnightblue" stroke="midnightblue" points="506.55,-137.528 515.322,-131.585 504.759,-130.761 506.55,-137.528"/>
</g>
<!-- Node4&#45;&gt;Node13 -->
<g id="edge20" class="edge"><title>Node4&#45;&gt;Node13</title>
<path fill="none" stroke="midnightblue" d="M364.409,-175.847C419.594,-172.405 568.917,-160.611 607.754,-132 623.005,-120.765 631.703,-100.449 636.297,-85.5105"/>
<polygon fill="midnightblue" stroke="midnightblue" points="639.694,-86.3592 638.953,-75.7903 632.941,-84.5146 639.694,-86.3592"/>
</g>
<!-- Node14 -->
<g id="node15" class="node"><title>Node14</title>
<polygon fill="white" stroke="#bfbfbf" points="415.754,-112.5 415.754,-131.5 477.754,-131.5 477.754,-112.5 415.754,-112.5"/>
<text text-anchor="middle" x="446.754" y="-119.5" font-family="Helvetica,sans-Serif" font-size="10.00">type_traits</text>
</g>
<!-- Node4&#45;&gt;Node14 -->
<g id="edge14" class="edge"><title>Node4&#45;&gt;Node14</title>
<path fill="none" stroke="midnightblue" d="M360.303,-168.324C376.746,-159.703 402.189,-146.364 421.223,-136.386"/>
<polygon fill="midnightblue" stroke="midnightblue" points="423.015,-139.398 430.247,-131.655 419.765,-133.198 423.015,-139.398"/>
</g>
<!-- Node15 -->
<g id="node16" class="node"><title>Node15</title>
<polygon fill="white" stroke="#bfbfbf" points="102.754,-112.5 102.754,-131.5 140.754,-131.5 140.754,-112.5 102.754,-112.5"/>
<text text-anchor="middle" x="121.754" y="-119.5" font-family="Helvetica,sans-Serif" font-size="10.00">tuple</text>
</g>
<!-- Node4&#45;&gt;Node15 -->
<g id="edge15" class="edge"><title>Node4&#45;&gt;Node15</title>
<path fill="none" stroke="midnightblue" d="M323.224,-172.824C289.263,-165.792 219.09,-150.738 150.617,-132.067"/>
<polygon fill="midnightblue" stroke="midnightblue" points="151.541,-128.691 140.971,-129.409 149.682,-135.439 151.541,-128.691"/>
</g>
<!-- Node16 -->
<g id="node17" class="node"><title>Node16</title>
<polygon fill="white" stroke="#bfbfbf" points="158.754,-112.5 158.754,-131.5 204.754,-131.5 204.754,-112.5 158.754,-112.5"/>
<text text-anchor="middle" x="181.754" y="-119.5" font-family="Helvetica,sans-Serif" font-size="10.00">cstdint</text>
</g>
<!-- Node4&#45;&gt;Node16 -->
<g id="edge16" class="edge"><title>Node4&#45;&gt;Node16</title>
<path fill="none" stroke="midnightblue" d="M323.237,-170.161C295.846,-161.03 247.015,-144.754 214.504,-133.917"/>
<polygon fill="midnightblue" stroke="midnightblue" points="215.573,-130.584 204.98,-130.742 213.36,-137.225 215.573,-130.584"/>
</g>
<!-- Node17 -->
<g id="node18" class="node"><title>Node17</title>
<polygon fill="white" stroke="#bfbfbf" points="223.254,-112.5 223.254,-131.5 282.254,-131.5 282.254,-112.5 223.254,-112.5"/>
<text text-anchor="middle" x="252.754" y="-119.5" font-family="Helvetica,sans-Serif" font-size="10.00">stdexcept</text>
</g>
<!-- Node4&#45;&gt;Node17 -->
<g id="edge17" class="edge"><title>Node4&#45;&gt;Node17</title>
<path fill="none" stroke="midnightblue" d="M329.134,-168.324C314.805,-159.822 292.742,-146.729 276.006,-136.797"/>
<polygon fill="midnightblue" stroke="midnightblue" points="277.725,-133.748 267.339,-131.655 274.153,-139.768 277.725,-133.748"/>
</g>
<!-- Node18 -->
<g id="node19" class="node"><title>Node18</title>
<polygon fill="white" stroke="#bfbfbf" points="300.254,-112.5 300.254,-131.5 329.254,-131.5 329.254,-112.5 300.254,-112.5"/>
<text text-anchor="middle" x="314.754" y="-119.5" font-family="Helvetica,sans-Serif" font-size="10.00">list</text>
</g>
<!-- Node4&#45;&gt;Node18 -->
<g id="edge18" class="edge"><title>Node4&#45;&gt;Node18</title>
<path fill="none" stroke="midnightblue" d="M338.966,-168.083C334.996,-160.691 329.229,-149.953 324.32,-140.811"/>
<polygon fill="midnightblue" stroke="midnightblue" points="327.269,-138.905 319.454,-131.751 321.102,-142.217 327.269,-138.905"/>
</g>
<!-- Node19 -->
<g id="node20" class="node"><title>Node19</title>
<polygon fill="white" stroke="#bfbfbf" points="347.754,-112.5 347.754,-131.5 397.754,-131.5 397.754,-112.5 347.754,-112.5"/>
<text text-anchor="middle" x="372.754" y="-119.5" font-family="Helvetica,sans-Serif" font-size="10.00">iomanip</text>
</g>
<!-- Node4&#45;&gt;Node19 -->
<g id="edge19" class="edge"><title>Node4&#45;&gt;Node19</title>
<path fill="none" stroke="midnightblue" d="M348.543,-168.083C352.513,-160.691 358.279,-149.953 363.189,-140.811"/>
<polygon fill="midnightblue" stroke="midnightblue" points="366.407,-142.217 368.055,-131.751 360.24,-138.905 366.407,-142.217"/>
</g>
<!-- Node7 -->
<g id="node8" class="node"><title>Node7</title>
<g id="a_node8"><a xlink:href="string_8h.html" target="_top" xlink:title="base/std_ext/string.h">
<polygon fill="white" stroke="black" points="493.754,-56.5 493.754,-75.5 601.754,-75.5 601.754,-56.5 493.754,-56.5"/>
<text text-anchor="middle" x="547.754" y="-63.5" font-family="Helvetica,sans-Serif" font-size="10.00">base/std_ext/string.h</text>
</a>
</g>
</g>
<!-- Node6&#45;&gt;Node7 -->
<g id="edge7" class="edge"><title>Node6&#45;&gt;Node7</title>
<path fill="none" stroke="midnightblue" d="M547.754,-112.083C547.754,-105.006 547.754,-94.8611 547.754,-85.9865"/>
<polygon fill="midnightblue" stroke="midnightblue" points="551.254,-85.751 547.754,-75.7511 544.254,-85.7511 551.254,-85.751"/>
</g>
<!-- Node6&#45;&gt;Node12 -->
<g id="edge12" class="edge"><title>Node6&#45;&gt;Node12</title>
<path fill="none" stroke="midnightblue" d="M496.891,-112.444C430.625,-101.296 316.597,-82.1137 260.259,-72.6363"/>
<polygon fill="midnightblue" stroke="midnightblue" points="260.556,-69.1371 250.114,-70.9296 259.394,-76.0401 260.556,-69.1371"/>
</g>
<!-- Node6&#45;&gt;Node13 -->
<g id="edge13" class="edge"><title>Node6&#45;&gt;Node13</title>
<path fill="none" stroke="midnightblue" d="M562.696,-112.324C577.34,-103.822 599.888,-90.7288 616.992,-80.7975"/>
<polygon fill="midnightblue" stroke="midnightblue" points="618.959,-83.7027 625.849,-75.6545 615.444,-77.6491 618.959,-83.7027"/>
</g>
<!-- Node7&#45;&gt;Node8 -->
<g id="edge8" class="edge"><title>Node7&#45;&gt;Node8</title>
<path fill="none" stroke="midnightblue" d="M575.484,-56.4435C607.363,-46.6063 659.52,-30.5122 692.447,-20.3518"/>
<polygon fill="midnightblue" stroke="midnightblue" points="693.482,-23.6956 702.005,-17.4026 691.418,-17.0068 693.482,-23.6956"/>
</g>
<!-- Node9 -->
<g id="node10" class="node"><title>Node9</title>
<polygon fill="white" stroke="#bfbfbf" points="587.754,-0.5 587.754,-19.5 639.754,-19.5 639.754,-0.5 587.754,-0.5"/>
<text text-anchor="middle" x="613.754" y="-7.5" font-family="Helvetica,sans-Serif" font-size="10.00">sstream</text>
</g>
<!-- Node7&#45;&gt;Node9 -->
<g id="edge9" class="edge"><title>Node7&#45;&gt;Node9</title>
<path fill="none" stroke="midnightblue" d="M558.358,-56.324C568.211,-48.2631 583.105,-36.0765 594.969,-26.3695"/>
<polygon fill="midnightblue" stroke="midnightblue" points="597.434,-28.8752 602.957,-19.8339 593.001,-23.4575 597.434,-28.8752"/>
</g>
<!-- Node10 -->
<g id="node11" class="node"><title>Node10</title>
<polygon fill="white" stroke="#bfbfbf" points="451.754,-0.5 451.754,-19.5 507.754,-19.5 507.754,-0.5 451.754,-0.5"/>
<text text-anchor="middle" x="479.754" y="-7.5" font-family="Helvetica,sans-Serif" font-size="10.00">algorithm</text>
</g>
<!-- Node7&#45;&gt;Node10 -->
<g id="edge10" class="edge"><title>Node7&#45;&gt;Node10</title>
<path fill="none" stroke="midnightblue" d="M536.829,-56.324C526.58,-48.1849 511.034,-35.8395 498.753,-26.0874"/>
<polygon fill="midnightblue" stroke="midnightblue" points="500.886,-23.3119 490.879,-19.8339 496.533,-28.7937 500.886,-23.3119"/>
</g>
<!-- Node11 -->
<g id="node12" class="node"><title>Node11</title>
<polygon fill="white" stroke="#bfbfbf" points="525.754,-0.5 525.754,-19.5 569.754,-19.5 569.754,-0.5 525.754,-0.5"/>
<text text-anchor="middle" x="547.754" y="-7.5" font-family="Helvetica,sans-Serif" font-size="10.00">vector</text>
</g>
<!-- Node7&#45;&gt;Node11 -->
<g id="edge11" class="edge"><title>Node7&#45;&gt;Node11</title>
<path fill="none" stroke="midnightblue" d="M547.754,-56.083C547.754,-49.0059 547.754,-38.8611 547.754,-29.9865"/>
<polygon fill="midnightblue" stroke="midnightblue" points="551.254,-29.751 547.754,-19.7511 544.254,-29.7511 551.254,-29.751"/>
</g>
<!-- Node20&#45;&gt;Node8 -->
<g id="edge22" class="edge"><title>Node20&#45;&gt;Node8</title>
<path fill="none" stroke="midnightblue" d="M768.174,-168.075C760.618,-141.945 738.43,-65.2106 728.126,-29.577"/>
<polygon fill="midnightblue" stroke="midnightblue" points="731.372,-28.2023 725.232,-19.5681 724.647,-30.1468 731.372,-28.2023"/>
</g>
<!-- Node21&#45;&gt;Node5 -->
<g id="edge26" class="edge"><title>Node21&#45;&gt;Node5</title>
<path fill="none" stroke="midnightblue" d="M265.571,-224.776C218.967,-202.062 128.425,-157.932 83.4454,-136.009"/>
<polygon fill="midnightblue" stroke="midnightblue" points="84.838,-132.794 74.3154,-131.559 81.7711,-139.087 84.838,-132.794"/>
</g>
<!-- Node28 -->
<g id="node29" class="node"><title>Node28</title>
<polygon fill="white" stroke="#bfbfbf" points="866.254,-292.5 866.254,-311.5 955.254,-311.5 955.254,-292.5 866.254,-292.5"/>
<text text-anchor="middle" x="910.754" y="-299.5" font-family="Helvetica,sans-Serif" font-size="10.00">easylogging++.h</text>
</g>
<!-- Node27&#45;&gt;Node28 -->
<g id="edge34" class="edge"><title>Node27&#45;&gt;Node28</title>
<path fill="none" stroke="midnightblue" d="M702.892,-348.444C745.981,-339.023 815.313,-323.866 861.925,-313.675"/>
<polygon fill="midnightblue" stroke="midnightblue" points="862.778,-317.072 871.8,-311.516 861.283,-310.233 862.778,-317.072"/>
</g>
</g>
</svg>
