<?xml version="1.0" encoding="UTF-8" standalone="no"?>
<!DOCTYPE svg PUBLIC "-//W3C//DTD SVG 1.1//EN"
 "http://www.w3.org/Graphics/SVG/1.1/DTD/svg11.dtd">
<!-- Generated by graphviz version 2.36.0 (20140111.2315)
 -->
<!-- Title: src/base/Array2D.h Pages: 1 -->
<svg width="467pt" height="140pt"
 viewBox="0.00 0.00 467.00 140.00" xmlns="http://www.w3.org/2000/svg" xmlns:xlink="http://www.w3.org/1999/xlink">
<g id="graph0" class="graph" transform="scale(1 1) rotate(0) translate(4 136)">
<title>src/base/Array2D.h</title>
<polygon fill="white" stroke="none" points="-4,4 -4,-136 463,-136 463,4 -4,4"/>
<!-- Node0 -->
<g id="node1" class="node"><title>Node0</title>
<polygon fill="#bfbfbf" stroke="black" points="148.5,-112.5 148.5,-131.5 249.5,-131.5 249.5,-112.5 148.5,-112.5"/>
<text text-anchor="middle" x="199" y="-119.5" font-family="Helvetica,sans-Serif" font-size="10.00">src/base/Array2D.h</text>
</g>
<!-- Node1 -->
<g id="node2" class="node"><title>Node1</title>
<polygon fill="white" stroke="#bfbfbf" points="137,-56.5 137,-75.5 181,-75.5 181,-56.5 137,-56.5"/>
<text text-anchor="middle" x="159" y="-63.5" font-family="Helvetica,sans-Serif" font-size="10.00">vector</text>
</g>
<!-- Node0&#45;&gt;Node1 -->
<g id="edge1" class="edge"><title>Node0&#45;&gt;Node1</title>
<path fill="none" stroke="midnightblue" d="M192.395,-112.083C186.745,-104.455 178.455,-93.2645 171.549,-83.9408"/>
<polygon fill="midnightblue" stroke="midnightblue" points="174.247,-81.7034 165.482,-75.7511 168.622,-85.87 174.247,-81.7034"/>
</g>
<!-- Node2 -->
<g id="node3" class="node"><title>Node2</title>
<g id="a_node3"><a xlink:href="interval_8h.html" target="_top" xlink:title="base/interval.h">
<polygon fill="white" stroke="black" points="199,-56.5 199,-75.5 279,-75.5 279,-56.5 199,-56.5"/>
<text text-anchor="middle" x="239" y="-63.5" font-family="Helvetica,sans-Serif" font-size="10.00">base/interval.h</text>
</a>
</g>
</g>
<!-- Node0&#45;&gt;Node2 -->
<g id="edge2" class="edge"><title>Node0&#45;&gt;Node2</title>
<path fill="none" stroke="midnightblue" d="M205.605,-112.083C211.255,-104.455 219.545,-93.2645 226.451,-83.9408"/>
<polygon fill="midnightblue" stroke="midnightblue" points="229.378,-85.87 232.518,-75.7511 223.753,-81.7034 229.378,-85.87"/>
</g>
<!-- Node3 -->
<g id="node4" class="node"><title>Node3</title>
<g id="a_node4"><a xlink:href="types_8h.html" target="_top" xlink:title="types.h">
<polygon fill="white" stroke="black" points="-0.5,-0.5 -0.5,-19.5 48.5,-19.5 48.5,-0.5 -0.5,-0.5"/>
<text text-anchor="middle" x="24" y="-7.5" font-family="Helvetica,sans-Serif" font-size="10.00">types.h</text>
</a>
</g>
</g>
<!-- Node2&#45;&gt;Node3 -->
<g id="edge3" class="edge"><title>Node2&#45;&gt;Node3</title>
<path fill="none" stroke="midnightblue" d="M203.924,-56.4456C169.426,-47.9956 115.015,-34.5698 58.3551,-20.0613"/>
<polygon fill="midnightblue" stroke="midnightblue" points="59.0586,-16.6285 48.5025,-17.5332 57.3188,-23.4089 59.0586,-16.6285"/>
</g>
<!-- Node4 -->
<g id="node5" class="node"><title>Node4</title>
<polygon fill="white" stroke="#bfbfbf" points="67,-0.5 67,-19.5 123,-19.5 123,-0.5 67,-0.5"/>
<text text-anchor="middle" x="95" y="-7.5" font-family="Helvetica,sans-Serif" font-size="10.00">algorithm</text>
</g>
<!-- Node2&#45;&gt;Node4 -->
<g id="edge4" class="edge"><title>Node2&#45;&gt;Node4</title>
<path fill="none" stroke="midnightblue" d="M216.183,-56.4435C192.168,-47.4381 154.171,-33.1891 127.131,-23.049"/>
<polygon fill="midnightblue" stroke="midnightblue" points="128.303,-19.7506 117.71,-19.5164 125.845,-26.3049 128.303,-19.7506"/>
</g>
<!-- Node5 -->
<g id="node6" class="node"><title>Node5</title>
<polygon fill="white" stroke="#bfbfbf" points="141.5,-0.5 141.5,-19.5 200.5,-19.5 200.5,-0.5 141.5,-0.5"/>
<text text-anchor="middle" x="171" y="-7.5" font-family="Helvetica,sans-Serif" font-size="10.00">stdexcept</text>
</g>
<!-- Node2&#45;&gt;Node5 -->
<g id="edge5" class="edge"><title>Node2&#45;&gt;Node5</title>
<path fill="none" stroke="midnightblue" d="M228.075,-56.324C217.825,-48.1849 202.279,-35.8395 189.999,-26.0874"/>
<polygon fill="midnightblue" stroke="midnightblue" points="192.132,-23.3119 182.124,-19.8339 187.779,-28.7937 192.132,-23.3119"/>
</g>
<!-- Node6 -->
<g id="node7" class="node"><title>Node6</title>
<polygon fill="white" stroke="#bfbfbf" points="219,-0.5 219,-19.5 259,-19.5 259,-0.5 219,-0.5"/>
<text text-anchor="middle" x="239" y="-7.5" font-family="Helvetica,sans-Serif" font-size="10.00">limits</text>
</g>
<!-- Node2&#45;&gt;Node6 -->
<g id="edge6" class="edge"><title>Node2&#45;&gt;Node6</title>
<path fill="none" stroke="midnightblue" d="M239,-56.083C239,-49.0059 239,-38.8611 239,-29.9865"/>
<polygon fill="midnightblue" stroke="midnightblue" points="242.5,-29.751 239,-19.7511 235.5,-29.7511 242.5,-29.751"/>
</g>
<!-- Node7 -->
<g id="node8" class="node"><title>Node7</title>
<polygon fill="white" stroke="#bfbfbf" points="277.5,-0.5 277.5,-19.5 326.5,-19.5 326.5,-0.5 277.5,-0.5"/>
<text text-anchor="middle" x="302" y="-7.5" font-family="Helvetica,sans-Serif" font-size="10.00">istream</text>
</g>
<!-- Node2&#45;&gt;Node7 -->
<g id="edge7" class="edge"><title>Node2&#45;&gt;Node7</title>
<path fill="none" stroke="midnightblue" d="M249.122,-56.324C258.526,-48.2631 272.744,-36.0765 284.069,-26.3695"/>
<polygon fill="midnightblue" stroke="midnightblue" points="286.379,-28.9993 291.694,-19.8339 281.823,-23.6844 286.379,-28.9993"/>
</g>
<!-- Node8 -->
<g id="node9" class="node"><title>Node8</title>
<polygon fill="white" stroke="#bfbfbf" points="345,-0.5 345,-19.5 397,-19.5 397,-0.5 345,-0.5"/>
<text text-anchor="middle" x="371" y="-7.5" font-family="Helvetica,sans-Serif" font-size="10.00">sstream</text>
</g>
<!-- Node2&#45;&gt;Node8 -->
<g id="edge8" class="edge"><title>Node2&#45;&gt;Node8</title>
<path fill="none" stroke="midnightblue" d="M259.916,-56.4435C281.736,-47.5171 316.15,-33.4387 340.892,-23.3168"/>
<polygon fill="midnightblue" stroke="midnightblue" points="342.252,-26.5422 350.182,-19.5164 339.601,-20.0634 342.252,-26.5422"/>
</g>
<!-- Node9 -->
<g id="node10" class="node"><title>Node9</title>
<polygon fill="white" stroke="#bfbfbf" points="415,-0.5 415,-19.5 459,-19.5 459,-0.5 415,-0.5"/>
<text text-anchor="middle" x="437" y="-7.5" font-family="Helvetica,sans-Serif" font-size="10.00">cmath</text>
</g>
<!-- Node2&#45;&gt;Node9 -->
<g id="edge9" class="edge"><title>Node2&#45;&gt;Node9</title>
<path fill="none" stroke="midnightblue" d="M271.378,-56.4741C303.086,-48.0806 353.015,-34.7483 405.228,-20.1782"/>
<polygon fill="midnightblue" stroke="midnightblue" points="406.312,-23.5092 415,-17.4442 404.426,-16.768 406.312,-23.5092"/>
</g>
</g>
</svg>
