<?xml version="1.0" encoding="UTF-8" standalone="no"?>
<!DOCTYPE svg PUBLIC "-//W3C//DTD SVG 1.1//EN"
 "http://www.w3.org/Graphics/SVG/1.1/DTD/svg11.dtd">
<!-- Generated by graphviz version 2.36.0 (20140111.2315)
 -->
<!-- Title: src/base/math_functions/AsymGaus.h Pages: 1 -->
<svg width="555pt" height="108pt"
 viewBox="0.00 0.00 555.00 108.00" xmlns="http://www.w3.org/2000/svg" xmlns:xlink="http://www.w3.org/1999/xlink">
<g id="graph0" class="graph" transform="scale(1 1) rotate(0) translate(4 104)">
<title>src/base/math_functions/AsymGaus.h</title>
<polygon fill="white" stroke="none" points="-4,4 -4,-104 551,-104 551,4 -4,4"/>
<!-- Node1 -->
<g id="node1" class="node"><title>Node1</title>
<polygon fill="#bfbfbf" stroke="black" points="212,-69 212,-99 336,-99 336,-69 212,-69"/>
<text text-anchor="start" x="220" y="-87" font-family="Helvetica,sans-Serif" font-size="10.00">src/base/math_functions</text>
<text text-anchor="middle" x="274" y="-76" font-family="Helvetica,sans-Serif" font-size="10.00">/AsymGaus.h</text>
</g>
<!-- Node2 -->
<g id="node2" class="node"><title>Node2</title>
<g id="a_node2"><a xlink:href="_asym_gaus_8cc.html" target="_top" xlink:title="src/base/math_functions\l/AsymGaus.cc">
<polygon fill="white" stroke="black" points="0,-1 0,-31 124,-31 124,-1 0,-1"/>
<text text-anchor="start" x="8" y="-19" font-family="Helvetica,sans-Serif" font-size="10.00">src/base/math_functions</text>
<text text-anchor="middle" x="62" y="-8" font-family="Helvetica,sans-Serif" font-size="10.00">/AsymGaus.cc</text>
</a>
</g>
</g>
<!-- Node1&#45;&gt;Node2 -->
<g id="edge1" class="edge"><title>Node1&#45;&gt;Node2</title>
<path fill="none" stroke="midnightblue" d="M218.792,-65.8127C184.054,-54.9979 139.784,-41.2157 107.15,-31.0561"/>
<polygon fill="midnightblue" stroke="midnightblue" points="218.192,-69.2915 228.781,-68.9223 220.273,-62.6079 218.192,-69.2915"/>
</g>
<!-- Node3 -->
<g id="node3" class="node"><title>Node3</title>
<g id="a_node3"><a xlink:href="root-addons_2analysis__codes_2math_8cc.html" target="_top" xlink:title="src/root&#45;addons/analysis\l_codes/Math.cc">
<polygon fill="white" stroke="black" points="142.5,-1 142.5,-31 265.5,-31 265.5,-1 142.5,-1"/>
<text text-anchor="start" x="150.5" y="-19" font-family="Helvetica,sans-Serif" font-size="10.00">src/root&#45;addons/analysis</text>
<text text-anchor="middle" x="204" y="-8" font-family="Helvetica,sans-Serif" font-size="10.00">_codes/Math.cc</text>
</a>
</g>
</g>
<!-- Node1&#45;&gt;Node3 -->
<g id="edge2" class="edge"><title>Node1&#45;&gt;Node3</title>
<path fill="none" stroke="midnightblue" d="M251.49,-61.7762C240.92,-51.8105 228.601,-40.1956 219.159,-31.2931"/>
<polygon fill="midnightblue" stroke="midnightblue" points="249.134,-64.3654 258.811,-68.679 253.936,-59.2723 249.134,-64.3654"/>
</g>
<!-- Node4 -->
<g id="node4" class="node"><title>Node4</title>
<g id="a_node4"><a xlink:href="_omega_8cc.html" target="_top" xlink:title="src/root&#45;addons/analysis\l_codes/Omega.cc">
<polygon fill="white" stroke="black" points="283.5,-1 283.5,-31 406.5,-31 406.5,-1 283.5,-1"/>
<text text-anchor="start" x="291.5" y="-19" font-family="Helvetica,sans-Serif" font-size="10.00">src/root&#45;addons/analysis</text>
<text text-anchor="middle" x="345" y="-8" font-family="Helvetica,sans-Serif" font-size="10.00">_codes/Omega.cc</text>
</a>
</g>
</g>
<!-- Node1&#45;&gt;Node4 -->
<g id="edge3" class="edge"><title>Node1&#45;&gt;Node4</title>
<path fill="none" stroke="midnightblue" d="M296.832,-61.7762C307.552,-51.8105 320.047,-40.1956 329.624,-31.2931"/>
<polygon fill="midnightblue" stroke="midnightblue" points="294.347,-59.307 289.406,-68.679 299.113,-64.434 294.347,-59.307"/>
</g>
<!-- Node5 -->
<g id="node5" class="node"><title>Node5</title>
<g id="a_node5"><a xlink:href="pi0_8cc.html" target="_top" xlink:title="src/root&#45;addons/analysis\l_codes/pi0.cc">
<polygon fill="white" stroke="black" points="424.5,-1 424.5,-31 547.5,-31 547.5,-1 424.5,-1"/>
<text text-anchor="start" x="432.5" y="-19" font-family="Helvetica,sans-Serif" font-size="10.00">src/root&#45;addons/analysis</text>
<text text-anchor="middle" x="486" y="-8" font-family="Helvetica,sans-Serif" font-size="10.00">_codes/pi0.cc</text>
</a>
</g>
</g>
<!-- Node1&#45;&gt;Node5 -->
<g id="edge4" class="edge"><title>Node1&#45;&gt;Node5</title>
<path fill="none" stroke="midnightblue" d="M329.208,-65.8127C363.946,-54.9979 408.216,-41.2157 440.85,-31.0561"/>
<polygon fill="midnightblue" stroke="midnightblue" points="327.727,-62.6079 319.219,-68.9223 329.808,-69.2915 327.727,-62.6079"/>
</g>
</g>
</svg>
