<?xml version="1.0" encoding="UTF-8" standalone="no"?>
<!DOCTYPE svg PUBLIC "-//W3C//DTD SVG 1.1//EN"
 "http://www.w3.org/Graphics/SVG/1.1/DTD/svg11.dtd">
<!-- Generated by graphviz version 2.36.0 (20140111.2315)
 -->
<!-- Title: src/calibration/gui/AvgBuffer_traits.h Pages: 1 -->
<svg width="950pt" height="264pt"
 viewBox="0.00 0.00 950.00 264.00" xmlns="http://www.w3.org/2000/svg" xmlns:xlink="http://www.w3.org/1999/xlink">
<g id="graph0" class="graph" transform="scale(1 1) rotate(0) translate(4 260)">
<title>src/calibration/gui/AvgBuffer_traits.h</title>
<polygon fill="white" stroke="none" points="-4,4 -4,-260 946,-260 946,4 -4,4"/>
<!-- Node0 -->
<g id="node1" class="node"><title>Node0</title>
<polygon fill="#bfbfbf" stroke="black" points="545,-225 545,-255 643,-255 643,-225 545,-225"/>
<text text-anchor="start" x="553" y="-243" font-family="Helvetica,sans-Serif" font-size="10.00">src/calibration/gui</text>
<text text-anchor="middle" x="594" y="-232" font-family="Helvetica,sans-Serif" font-size="10.00">/AvgBuffer_traits.h</text>
</g>
<!-- Node1 -->
<g id="node2" class="node"><title>Node1</title>
<g id="a_node2"><a xlink:href="interval_8h.html" target="_top" xlink:title="base/interval.h">
<polygon fill="white" stroke="black" points="200,-168.5 200,-187.5 280,-187.5 280,-168.5 200,-168.5"/>
<text text-anchor="middle" x="240" y="-175.5" font-family="Helvetica,sans-Serif" font-size="10.00">base/interval.h</text>
</a>
</g>
</g>
<!-- Node0&#45;&gt;Node1 -->
<g id="edge1" class="edge"><title>Node0&#45;&gt;Node1</title>
<path fill="none" stroke="midnightblue" d="M544.778,-230.657C477.556,-219.264 357.685,-198.947 290.039,-187.481"/>
<polygon fill="midnightblue" stroke="midnightblue" points="290.493,-184.008 280.049,-185.788 289.323,-190.91 290.493,-184.008"/>
</g>
<!-- Node9 -->
<g id="node10" class="node"><title>Node9</title>
<g id="a_node10"><a xlink:href="_t_i_d_8h.html" target="_top" xlink:title="tree/TID.h">
<polygon fill="white" stroke="black" points="563.5,-168.5 563.5,-187.5 624.5,-187.5 624.5,-168.5 563.5,-168.5"/>
<text text-anchor="middle" x="594" y="-175.5" font-family="Helvetica,sans-Serif" font-size="10.00">tree/TID.h</text>
</a>
</g>
</g>
<!-- Node0&#45;&gt;Node9 -->
<g id="edge9" class="edge"><title>Node0&#45;&gt;Node9</title>
<path fill="none" stroke="midnightblue" d="M594,-224.781C594,-216.781 594,-206.689 594,-198.017"/>
<polygon fill="midnightblue" stroke="midnightblue" points="597.5,-197.73 594,-187.731 590.5,-197.731 597.5,-197.73"/>
</g>
<!-- Node22 -->
<g id="node23" class="node"><title>Node22</title>
<polygon fill="white" stroke="#bfbfbf" points="643,-168.5 643,-187.5 695,-187.5 695,-168.5 643,-168.5"/>
<text text-anchor="middle" x="669" y="-175.5" font-family="Helvetica,sans-Serif" font-size="10.00">memory</text>
</g>
<!-- Node0&#45;&gt;Node22 -->
<g id="edge26" class="edge"><title>Node0&#45;&gt;Node22</title>
<path fill="none" stroke="midnightblue" d="M611.774,-224.781C623.346,-215.523 638.423,-203.462 650.196,-194.044"/>
<polygon fill="midnightblue" stroke="midnightblue" points="652.465,-196.711 658.087,-187.731 648.092,-191.244 652.465,-196.711"/>
</g>
<!-- Node2 -->
<g id="node3" class="node"><title>Node2</title>
<g id="a_node3"><a xlink:href="types_8h.html" target="_top" xlink:title="types.h">
<polygon fill="white" stroke="black" points="188.5,-112.5 188.5,-131.5 237.5,-131.5 237.5,-112.5 188.5,-112.5"/>
<text text-anchor="middle" x="213" y="-119.5" font-family="Helvetica,sans-Serif" font-size="10.00">types.h</text>
</a>
</g>
</g>
<!-- Node1&#45;&gt;Node2 -->
<g id="edge2" class="edge"><title>Node1&#45;&gt;Node2</title>
<path fill="none" stroke="midnightblue" d="M235.541,-168.083C231.846,-160.691 226.477,-149.953 221.906,-140.811"/>
<polygon fill="midnightblue" stroke="midnightblue" points="224.978,-139.13 217.376,-131.751 218.717,-142.261 224.978,-139.13"/>
</g>
<!-- Node3 -->
<g id="node4" class="node"><title>Node3</title>
<polygon fill="white" stroke="#bfbfbf" points="304,-0.5 304,-19.5 360,-19.5 360,-0.5 304,-0.5"/>
<text text-anchor="middle" x="332" y="-7.5" font-family="Helvetica,sans-Serif" font-size="10.00">algorithm</text>
</g>
<!-- Node1&#45;&gt;Node3 -->
<g id="edge3" class="edge"><title>Node1&#45;&gt;Node3</title>
<path fill="none" stroke="midnightblue" d="M242.421,-168.275C248.394,-147.63 265.169,-94.6207 290,-56 296.832,-45.3733 306.311,-34.9649 314.535,-26.8394"/>
<polygon fill="midnightblue" stroke="midnightblue" points="317.081,-29.2474 321.908,-19.8158 312.253,-24.179 317.081,-29.2474"/>
</g>
<!-- Node4 -->
<g id="node5" class="node"><title>Node4</title>
<polygon fill="white" stroke="#bfbfbf" points="332.5,-112.5 332.5,-131.5 391.5,-131.5 391.5,-112.5 332.5,-112.5"/>
<text text-anchor="middle" x="362" y="-119.5" font-family="Helvetica,sans-Serif" font-size="10.00">stdexcept</text>
</g>
<!-- Node1&#45;&gt;Node4 -->
<g id="edge4" class="edge"><title>Node1&#45;&gt;Node4</title>
<path fill="none" stroke="midnightblue" d="M259.331,-168.444C279.32,-159.596 310.743,-145.687 333.564,-135.586"/>
<polygon fill="midnightblue" stroke="midnightblue" points="335.032,-138.764 342.759,-131.516 332.198,-132.363 335.032,-138.764"/>
</g>
<!-- Node5 -->
<g id="node6" class="node"><title>Node5</title>
<polygon fill="white" stroke="#bfbfbf" points="0,-112.5 0,-131.5 40,-131.5 40,-112.5 0,-112.5"/>
<text text-anchor="middle" x="20" y="-119.5" font-family="Helvetica,sans-Serif" font-size="10.00">limits</text>
</g>
<!-- Node1&#45;&gt;Node5 -->
<g id="edge5" class="edge"><title>Node1&#45;&gt;Node5</title>
<path fill="none" stroke="midnightblue" d="M200.29,-168.489C163.636,-160.446 107.493,-147.654 50.1833,-132.186"/>
<polygon fill="midnightblue" stroke="midnightblue" points="50.7972,-128.725 40.2289,-129.475 48.9578,-135.479 50.7972,-128.725"/>
</g>
<!-- Node6 -->
<g id="node7" class="node"><title>Node6</title>
<polygon fill="white" stroke="#bfbfbf" points="58.5,-112.5 58.5,-131.5 107.5,-131.5 107.5,-112.5 58.5,-112.5"/>
<text text-anchor="middle" x="83" y="-119.5" font-family="Helvetica,sans-Serif" font-size="10.00">istream</text>
</g>
<!-- Node1&#45;&gt;Node6 -->
<g id="edge6" class="edge"><title>Node1&#45;&gt;Node6</title>
<path fill="none" stroke="midnightblue" d="M215.123,-168.444C188.633,-159.332 146.538,-144.854 116.998,-134.694"/>
<polygon fill="midnightblue" stroke="midnightblue" points="118.097,-131.37 107.502,-131.428 115.82,-137.99 118.097,-131.37"/>
</g>
<!-- Node7 -->
<g id="node8" class="node"><title>Node7</title>
<polygon fill="white" stroke="#bfbfbf" points="411,-0.5 411,-19.5 463,-19.5 463,-0.5 411,-0.5"/>
<text text-anchor="middle" x="437" y="-7.5" font-family="Helvetica,sans-Serif" font-size="10.00">sstream</text>
</g>
<!-- Node1&#45;&gt;Node7 -->
<g id="edge7" class="edge"><title>Node1&#45;&gt;Node7</title>
<path fill="none" stroke="midnightblue" d="M250.314,-168.309C282.096,-141.528 378.808,-60.0347 419.092,-26.09"/>
<polygon fill="midnightblue" stroke="midnightblue" points="421.396,-28.7254 426.788,-19.6051 416.885,-23.3724 421.396,-28.7254"/>
</g>
<!-- Node8 -->
<g id="node9" class="node"><title>Node8</title>
<polygon fill="white" stroke="#bfbfbf" points="126,-112.5 126,-131.5 170,-131.5 170,-112.5 126,-112.5"/>
<text text-anchor="middle" x="148" y="-119.5" font-family="Helvetica,sans-Serif" font-size="10.00">cmath</text>
</g>
<!-- Node1&#45;&gt;Node8 -->
<g id="edge8" class="edge"><title>Node1&#45;&gt;Node8</title>
<path fill="none" stroke="midnightblue" d="M225.219,-168.324C210.733,-159.822 188.427,-146.729 171.507,-136.797"/>
<polygon fill="midnightblue" stroke="midnightblue" points="173.141,-133.698 162.745,-131.655 169.597,-139.735 173.141,-133.698"/>
</g>
<!-- Node9&#45;&gt;Node4 -->
<g id="edge22" class="edge"><title>Node9&#45;&gt;Node4</title>
<path fill="none" stroke="midnightblue" d="M563.192,-169.829C521.595,-160.147 447.425,-142.883 401.693,-132.239"/>
<polygon fill="midnightblue" stroke="midnightblue" points="402.365,-128.802 391.832,-129.944 400.778,-135.62 402.365,-128.802"/>
</g>
<!-- Node10 -->
<g id="node11" class="node"><title>Node10</title>
<polygon fill="white" stroke="#bfbfbf" points="750,-112.5 750,-131.5 806,-131.5 806,-112.5 750,-112.5"/>
<text text-anchor="middle" x="778" y="-119.5" font-family="Helvetica,sans-Serif" font-size="10.00">Rtypes.h</text>
</g>
<!-- Node9&#45;&gt;Node10 -->
<g id="edge10" class="edge"><title>Node9&#45;&gt;Node10</title>
<path fill="none" stroke="midnightblue" d="M623.155,-168.444C654.79,-159.159 705.415,-144.302 740.111,-134.12"/>
<polygon fill="midnightblue" stroke="midnightblue" points="741.276,-137.425 749.886,-131.251 739.305,-130.709 741.276,-137.425"/>
</g>
<!-- Node11 -->
<g id="node12" class="node"><title>Node11</title>
<g id="a_node12"><a xlink:href="base_2std__ext_2_time_8h.html" target="_top" xlink:title="base/std_ext/time.h">
<polygon fill="white" stroke="black" points="590.5,-112.5 590.5,-131.5 693.5,-131.5 693.5,-112.5 590.5,-112.5"/>
<text text-anchor="middle" x="642" y="-119.5" font-family="Helvetica,sans-Serif" font-size="10.00">base/std_ext/time.h</text>
</a>
</g>
</g>
<!-- Node9&#45;&gt;Node11 -->
<g id="edge11" class="edge"><title>Node9&#45;&gt;Node11</title>
<path fill="none" stroke="midnightblue" d="M601.926,-168.083C608.846,-160.298 619.065,-148.801 627.452,-139.367"/>
<polygon fill="midnightblue" stroke="midnightblue" points="630.194,-141.55 634.221,-131.751 624.962,-136.9 630.194,-141.55"/>
</g>
<!-- Node16 -->
<g id="node17" class="node"><title>Node16</title>
<polygon fill="white" stroke="#bfbfbf" points="661.5,-56.5 661.5,-75.5 702.5,-75.5 702.5,-56.5 661.5,-56.5"/>
<text text-anchor="middle" x="682" y="-63.5" font-family="Helvetica,sans-Serif" font-size="10.00">ctime</text>
</g>
<!-- Node9&#45;&gt;Node16 -->
<g id="edge25" class="edge"><title>Node9&#45;&gt;Node16</title>
<path fill="none" stroke="midnightblue" d="M624.369,-168.466C653.052,-159.719 692.986,-145.521 702,-132 711.685,-117.473 703.508,-98.0404 694.873,-84.2168"/>
<polygon fill="midnightblue" stroke="midnightblue" points="697.566,-81.9547 689.035,-75.6719 691.786,-85.9034 697.566,-81.9547"/>
</g>
<!-- Node17 -->
<g id="node18" class="node"><title>Node17</title>
<polygon fill="white" stroke="#bfbfbf" points="824,-112.5 824,-131.5 886,-131.5 886,-112.5 824,-112.5"/>
<text text-anchor="middle" x="855" y="-119.5" font-family="Helvetica,sans-Serif" font-size="10.00">type_traits</text>
</g>
<!-- Node9&#45;&gt;Node17 -->
<g id="edge19" class="edge"><title>Node9&#45;&gt;Node17</title>
<path fill="none" stroke="midnightblue" d="M624.558,-170.045C627.744,-169.344 630.936,-168.651 634,-168 710.686,-151.707 732.472,-148.949 813.492,-132.07"/>
<polygon fill="midnightblue" stroke="midnightblue" points="814.602,-135.413 823.674,-129.94 813.169,-128.562 814.602,-135.413"/>
</g>
<!-- Node18 -->
<g id="node19" class="node"><title>Node18</title>
<polygon fill="white" stroke="#bfbfbf" points="904,-112.5 904,-131.5 942,-131.5 942,-112.5 904,-112.5"/>
<text text-anchor="middle" x="923" y="-119.5" font-family="Helvetica,sans-Serif" font-size="10.00">tuple</text>
</g>
<!-- Node9&#45;&gt;Node18 -->
<g id="edge20" class="edge"><title>Node9&#45;&gt;Node18</title>
<path fill="none" stroke="midnightblue" d="M624.521,-169.856C627.714,-169.192 630.918,-168.559 634,-168 748.785,-147.178 780.135,-157.373 894,-132 894.1,-131.978 894.2,-131.955 894.3,-131.933"/>
<polygon fill="midnightblue" stroke="midnightblue" points="894.99,-135.37 903.775,-129.447 893.214,-128.599 894.99,-135.37"/>
</g>
<!-- Node19 -->
<g id="node20" class="node"><title>Node19</title>
<polygon fill="white" stroke="#bfbfbf" points="410,-112.5 410,-131.5 456,-131.5 456,-112.5 410,-112.5"/>
<text text-anchor="middle" x="433" y="-119.5" font-family="Helvetica,sans-Serif" font-size="10.00">cstdint</text>
</g>
<!-- Node9&#45;&gt;Node19 -->
<g id="edge21" class="edge"><title>Node9&#45;&gt;Node19</title>
<path fill="none" stroke="midnightblue" d="M568.489,-168.444C540.687,-159.119 496.123,-144.172 465.754,-133.986"/>
<polygon fill="midnightblue" stroke="midnightblue" points="466.638,-130.591 456.044,-130.729 464.412,-137.227 466.638,-130.591"/>
</g>
<!-- Node20 -->
<g id="node21" class="node"><title>Node20</title>
<polygon fill="white" stroke="#bfbfbf" points="474.5,-112.5 474.5,-131.5 503.5,-131.5 503.5,-112.5 474.5,-112.5"/>
<text text-anchor="middle" x="489" y="-119.5" font-family="Helvetica,sans-Serif" font-size="10.00">list</text>
</g>
<!-- Node9&#45;&gt;Node20 -->
<g id="edge23" class="edge"><title>Node9&#45;&gt;Node20</title>
<path fill="none" stroke="midnightblue" d="M577.13,-168.324C559.693,-159.357 532.329,-145.283 512.718,-135.198"/>
<polygon fill="midnightblue" stroke="midnightblue" points="514.285,-132.068 503.792,-130.607 511.084,-138.293 514.285,-132.068"/>
</g>
<!-- Node21 -->
<g id="node22" class="node"><title>Node21</title>
<polygon fill="white" stroke="#bfbfbf" points="522,-112.5 522,-131.5 572,-131.5 572,-112.5 522,-112.5"/>
<text text-anchor="middle" x="547" y="-119.5" font-family="Helvetica,sans-Serif" font-size="10.00">iomanip</text>
</g>
<!-- Node9&#45;&gt;Node21 -->
<g id="edge24" class="edge"><title>Node9&#45;&gt;Node21</title>
<path fill="none" stroke="midnightblue" d="M586.239,-168.083C579.463,-160.298 569.457,-148.801 561.245,-139.367"/>
<polygon fill="midnightblue" stroke="midnightblue" points="563.822,-136.996 554.617,-131.751 558.542,-141.592 563.822,-136.996"/>
</g>
<!-- Node12 -->
<g id="node13" class="node"><title>Node12</title>
<g id="a_node13"><a xlink:href="string_8h.html" target="_top" xlink:title="base/std_ext/string.h">
<polygon fill="white" stroke="black" points="518,-56.5 518,-75.5 626,-75.5 626,-56.5 518,-56.5"/>
<text text-anchor="middle" x="572" y="-63.5" font-family="Helvetica,sans-Serif" font-size="10.00">base/std_ext/string.h</text>
</a>
</g>
</g>
<!-- Node11&#45;&gt;Node12 -->
<g id="edge12" class="edge"><title>Node11&#45;&gt;Node12</title>
<path fill="none" stroke="midnightblue" d="M630.753,-112.324C620.203,-104.185 604.199,-91.8395 591.558,-82.0874"/>
<polygon fill="midnightblue" stroke="midnightblue" points="593.507,-79.1707 583.451,-75.8339 589.231,-84.7132 593.507,-79.1707"/>
</g>
<!-- Node15 -->
<g id="node16" class="node"><title>Node15</title>
<polygon fill="white" stroke="#bfbfbf" points="454,-56.5 454,-75.5 500,-75.5 500,-56.5 454,-56.5"/>
<text text-anchor="middle" x="477" y="-63.5" font-family="Helvetica,sans-Serif" font-size="10.00">cstring</text>
</g>
<!-- Node11&#45;&gt;Node15 -->
<g id="edge17" class="edge"><title>Node11&#45;&gt;Node15</title>
<path fill="none" stroke="midnightblue" d="M615.855,-112.444C587.075,-103.024 540.766,-87.869 509.629,-77.6785"/>
<polygon fill="midnightblue" stroke="midnightblue" points="510.686,-74.3421 500.094,-74.558 508.509,-80.9948 510.686,-74.3421"/>
</g>
<!-- Node11&#45;&gt;Node16 -->
<g id="edge18" class="edge"><title>Node11&#45;&gt;Node16</title>
<path fill="none" stroke="midnightblue" d="M648.605,-112.083C654.255,-104.455 662.545,-93.2645 669.451,-83.9408"/>
<polygon fill="midnightblue" stroke="midnightblue" points="672.378,-85.87 675.518,-75.7511 666.753,-81.7034 672.378,-85.87"/>
</g>
<!-- Node12&#45;&gt;Node3 -->
<g id="edge15" class="edge"><title>Node12&#45;&gt;Node3</title>
<path fill="none" stroke="midnightblue" d="M533.971,-56.4435C489.091,-46.3455 414.909,-29.6545 370.029,-19.5565"/>
<polygon fill="midnightblue" stroke="midnightblue" points="370.627,-16.1035 360.102,-17.323 369.09,-22.9328 370.627,-16.1035"/>
</g>
<!-- Node12&#45;&gt;Node7 -->
<g id="edge14" class="edge"><title>Node12&#45;&gt;Node7</title>
<path fill="none" stroke="midnightblue" d="M550.609,-56.4435C528.293,-47.5171 493.097,-33.4387 467.792,-23.3168"/>
<polygon fill="midnightblue" stroke="midnightblue" points="468.876,-19.9807 458.291,-19.5164 466.276,-26.4801 468.876,-19.9807"/>
</g>
<!-- Node13 -->
<g id="node14" class="node"><title>Node13</title>
<polygon fill="white" stroke="#bfbfbf" points="497.5,-0.5 497.5,-19.5 538.5,-19.5 538.5,-0.5 497.5,-0.5"/>
<text text-anchor="middle" x="518" y="-7.5" font-family="Helvetica,sans-Serif" font-size="10.00">string</text>
</g>
<!-- Node12&#45;&gt;Node13 -->
<g id="edge13" class="edge"><title>Node12&#45;&gt;Node13</title>
<path fill="none" stroke="midnightblue" d="M563.083,-56.083C555.22,-48.2195 543.569,-36.5688 534.081,-27.0813"/>
<polygon fill="midnightblue" stroke="midnightblue" points="536.297,-24.3473 526.751,-19.7511 531.347,-29.2971 536.297,-24.3473"/>
</g>
<!-- Node14 -->
<g id="node15" class="node"><title>Node14</title>
<polygon fill="white" stroke="#bfbfbf" points="557,-0.5 557,-19.5 601,-19.5 601,-0.5 557,-0.5"/>
<text text-anchor="middle" x="579" y="-7.5" font-family="Helvetica,sans-Serif" font-size="10.00">vector</text>
</g>
<!-- Node12&#45;&gt;Node14 -->
<g id="edge16" class="edge"><title>Node12&#45;&gt;Node14</title>
<path fill="none" stroke="midnightblue" d="M573.156,-56.083C574.084,-48.9272 575.418,-38.6353 576.577,-29.6911"/>
<polygon fill="midnightblue" stroke="midnightblue" points="580.051,-30.1181 577.866,-19.7511 573.109,-29.2181 580.051,-30.1181"/>
</g>
</g>
</svg>
