<?xml version="1.0" encoding="UTF-8" standalone="no"?>
<!DOCTYPE svg PUBLIC "-//W3C//DTD SVG 1.1//EN"
 "http://www.w3.org/Graphics/SVG/1.1/DTD/svg11.dtd">
<!-- Generated by graphviz version 2.36.0 (20140111.2315)
 -->
<!-- Title: src/calibration/gui/AvgBuffer.h Pages: 1 -->
<svg width="851pt" height="108pt"
 viewBox="0.00 0.00 851.00 108.00" xmlns="http://www.w3.org/2000/svg" xmlns:xlink="http://www.w3.org/1999/xlink">
<g id="graph0" class="graph" transform="scale(1 1) rotate(0) translate(4 104)">
<title>src/calibration/gui/AvgBuffer.h</title>
<polygon fill="white" stroke="none" points="-4,4 -4,-104 847,-104 847,4 -4,4"/>
<!-- Node30 -->
<g id="node1" class="node"><title>Node30</title>
<polygon fill="#bfbfbf" stroke="black" points="354.5,-69 354.5,-99 447.5,-99 447.5,-69 354.5,-69"/>
<text text-anchor="start" x="362.5" y="-87" font-family="Helvetica,sans-Serif" font-size="10.00">src/calibration/gui</text>
<text text-anchor="middle" x="401" y="-76" font-family="Helvetica,sans-Serif" font-size="10.00">/AvgBuffer.h</text>
</g>
<!-- Node31 -->
<g id="node2" class="node"><title>Node31</title>
<g id="a_node2"><a xlink:href="_ant-calib-smooth_8cc.html" target="_top" xlink:title="progs/Ant&#45;calib&#45;smooth.cc">
<polygon fill="white" stroke="black" points="-0.5,-6.5 -0.5,-25.5 130.5,-25.5 130.5,-6.5 -0.5,-6.5"/>
<text text-anchor="middle" x="65" y="-13.5" font-family="Helvetica,sans-Serif" font-size="10.00">progs/Ant&#45;calib&#45;smooth.cc</text>
</a>
</g>
</g>
<!-- Node30&#45;&gt;Node31 -->
<g id="edge1" class="edge"><title>Node30&#45;&gt;Node31</title>
<path fill="none" stroke="midnightblue" d="M344.224,-72.0796C291.139,-61.8379 209.668,-46.04 139,-32 128.586,-29.9309 117.353,-27.6695 106.863,-25.5446"/>
<polygon fill="midnightblue" stroke="midnightblue" points="343.642,-75.5317 354.124,-73.9886 344.967,-68.6583 343.642,-75.5317"/>
</g>
<!-- Node32 -->
<g id="node3" class="node"><title>Node32</title>
<g id="a_node3"><a xlink:href="_ant-calib_8cc.html" target="_top" xlink:title="progs/Ant&#45;calib.cc">
<polygon fill="white" stroke="black" points="148.5,-6.5 148.5,-25.5 243.5,-25.5 243.5,-6.5 148.5,-6.5"/>
<text text-anchor="middle" x="196" y="-13.5" font-family="Helvetica,sans-Serif" font-size="10.00">progs/Ant&#45;calib.cc</text>
</a>
</g>
</g>
<!-- Node30&#45;&gt;Node32 -->
<g id="edge2" class="edge"><title>Node30&#45;&gt;Node32</title>
<path fill="none" stroke="midnightblue" d="M347.614,-65.8122C307.392,-52.8626 253.956,-35.6589 222.444,-25.5138"/>
<polygon fill="midnightblue" stroke="midnightblue" points="346.682,-69.1892 357.274,-68.9223 348.828,-62.526 346.682,-69.1892"/>
</g>
<!-- Node33 -->
<g id="node4" class="node"><title>Node33</title>
<g id="a_node4"><a xlink:href="_ant-smooth_tagg_eff_8cc.html" target="_top" xlink:title="progs/Ant&#45;smoothTaggEff.cc">
<polygon fill="white" stroke="black" points="262,-6.5 262,-25.5 404,-25.5 404,-6.5 262,-6.5"/>
<text text-anchor="middle" x="333" y="-13.5" font-family="Helvetica,sans-Serif" font-size="10.00">progs/Ant&#45;smoothTaggEff.cc</text>
</a>
</g>
</g>
<!-- Node30&#45;&gt;Node33 -->
<g id="edge3" class="edge"><title>Node30&#45;&gt;Node33</title>
<path fill="none" stroke="midnightblue" d="M378.858,-61.5094C366.373,-49.3918 351.45,-34.9072 342.096,-25.8283"/>
<polygon fill="midnightblue" stroke="midnightblue" points="376.632,-64.2257 386.245,-68.679 381.507,-59.2027 376.632,-64.2257"/>
</g>
<!-- Node34 -->
<g id="node5" class="node"><title>Node34</title>
<g id="a_node5"><a xlink:href="_manager_8cc.html" target="_top" xlink:title="src/calibration/gui\l/Manager.cc">
<polygon fill="white" stroke="black" points="422.5,-1 422.5,-31 515.5,-31 515.5,-1 422.5,-1"/>
<text text-anchor="start" x="430.5" y="-19" font-family="Helvetica,sans-Serif" font-size="10.00">src/calibration/gui</text>
<text text-anchor="middle" x="469" y="-8" font-family="Helvetica,sans-Serif" font-size="10.00">/Manager.cc</text>
</a>
</g>
</g>
<!-- Node30&#45;&gt;Node34 -->
<g id="edge4" class="edge"><title>Node30&#45;&gt;Node34</title>
<path fill="none" stroke="midnightblue" d="M423.166,-61.4855C433.367,-51.5852 445.191,-40.1092 454.274,-31.2931"/>
<polygon fill="midnightblue" stroke="midnightblue" points="420.493,-59.2027 415.755,-68.679 425.368,-64.2257 420.493,-59.2027"/>
</g>
<!-- Node35 -->
<g id="node6" class="node"><title>Node35</title>
<g id="a_node6"><a xlink:href="_test_avg_buffer_8cc.html" target="_top" xlink:title="test/calibration/TestAvg\lBuffer.cc">
<polygon fill="white" stroke="black" points="533,-1 533,-31 653,-31 653,-1 533,-1"/>
<text text-anchor="start" x="541" y="-19" font-family="Helvetica,sans-Serif" font-size="10.00">test/calibration/TestAvg</text>
<text text-anchor="middle" x="593" y="-8" font-family="Helvetica,sans-Serif" font-size="10.00">Buffer.cc</text>
</a>
</g>
</g>
<!-- Node30&#45;&gt;Node35 -->
<g id="edge5" class="edge"><title>Node30&#45;&gt;Node35</title>
<path fill="none" stroke="midnightblue" d="M452.049,-65.4519C483.384,-54.6805 522.972,-41.0722 552.209,-31.0218"/>
<polygon fill="midnightblue" stroke="midnightblue" points="450.508,-62.2806 442.189,-68.8413 452.783,-68.9004 450.508,-62.2806"/>
</g>
<!-- Node36 -->
<g id="node7" class="node"><title>Node36</title>
<g id="a_node7"><a xlink:href="_test_g_u_i_manager_8cc.html" target="_top" xlink:title="test/calibration/TestGUIManager.cc">
<polygon fill="white" stroke="black" points="671,-6.5 671,-25.5 843,-25.5 843,-6.5 671,-6.5"/>
<text text-anchor="middle" x="757" y="-13.5" font-family="Helvetica,sans-Serif" font-size="10.00">test/calibration/TestGUIManager.cc</text>
</a>
</g>
</g>
<!-- Node30&#45;&gt;Node36 -->
<g id="edge6" class="edge"><title>Node30&#45;&gt;Node36</title>
<path fill="none" stroke="midnightblue" d="M457.536,-72.5187C527.729,-59.5052 646.105,-37.5591 711.012,-25.5259"/>
<polygon fill="midnightblue" stroke="midnightblue" points="456.735,-69.1073 447.541,-74.3717 458.011,-75.9901 456.735,-69.1073"/>
</g>
</g>
</svg>
