<?xml version="1.0" encoding="UTF-8" standalone="no"?>
<!DOCTYPE svg PUBLIC "-//W3C//DTD SVG 1.1//EN"
 "http://www.w3.org/Graphics/SVG/1.1/DTD/svg11.dtd">
<!-- Generated by graphviz version 2.36.0 (20140111.2315)
 -->
<!-- Title: src/calibration/gui/CalCanvas.h Pages: 1 -->
<svg width="896pt" height="288pt"
 viewBox="0.00 0.00 895.57 288.00" xmlns="http://www.w3.org/2000/svg" xmlns:xlink="http://www.w3.org/1999/xlink">
<g id="graph0" class="graph" transform="scale(1 1) rotate(0) translate(4 284)">
<title>src/calibration/gui/CalCanvas.h</title>
<polygon fill="white" stroke="none" points="-4,4 -4,-284 891.568,-284 891.568,4 -4,4"/>
<!-- Node0 -->
<g id="node1" class="node"><title>Node0</title>
<polygon fill="#bfbfbf" stroke="black" points="410.068,-249 410.068,-279 503.068,-279 503.068,-249 410.068,-249"/>
<text text-anchor="start" x="418.068" y="-267" font-family="Helvetica,sans-Serif" font-size="10.00">src/calibration/gui</text>
<text text-anchor="middle" x="456.568" y="-256" font-family="Helvetica,sans-Serif" font-size="10.00">/CalCanvas.h</text>
</g>
<!-- Node1 -->
<g id="node2" class="node"><title>Node1</title>
<g id="a_node2"><a xlink:href="_indicator__traits_8h.html" target="_top" xlink:title="calibration/gui/Indicator\l_traits.h">
<polygon fill="white" stroke="black" points="234.068,-57 234.068,-87 351.068,-87 351.068,-57 234.068,-57"/>
<text text-anchor="start" x="242.068" y="-75" font-family="Helvetica,sans-Serif" font-size="10.00">calibration/gui/Indicator</text>
<text text-anchor="middle" x="292.568" y="-64" font-family="Helvetica,sans-Serif" font-size="10.00">_traits.h</text>
</a>
</g>
</g>
<!-- Node0&#45;&gt;Node1 -->
<g id="edge1" class="edge"><title>Node0&#45;&gt;Node1</title>
<path fill="none" stroke="midnightblue" d="M449.531,-248.85C444.572,-238.691 437.894,-224.622 432.568,-212 416.328,-173.515 427.807,-154.779 399.568,-124 386.362,-109.607 368.239,-98.8753 350.66,-91.0693"/>
<polygon fill="midnightblue" stroke="midnightblue" points="351.561,-87.6528 340.985,-87.0289 348.863,-94.1122 351.561,-87.6528"/>
</g>
<!-- Node3 -->
<g id="node4" class="node"><title>Node3</title>
<g id="a_node4"><a xlink:href="_fit_function_8h.html" target="_top" xlink:title="calibration/fitfunctions\l/FitFunction.h">
<polygon fill="white" stroke="black" points="236.568,-181 236.568,-211 348.568,-211 348.568,-181 236.568,-181"/>
<text text-anchor="start" x="244.568" y="-199" font-family="Helvetica,sans-Serif" font-size="10.00">calibration/fitfunctions</text>
<text text-anchor="middle" x="292.568" y="-188" font-family="Helvetica,sans-Serif" font-size="10.00">/FitFunction.h</text>
</a>
</g>
</g>
<!-- Node0&#45;&gt;Node3 -->
<g id="edge3" class="edge"><title>Node0&#45;&gt;Node3</title>
<path fill="none" stroke="midnightblue" d="M421.386,-248.841C396.657,-238.89 363.387,-225.5 336.853,-214.822"/>
<polygon fill="midnightblue" stroke="midnightblue" points="337.993,-211.508 327.41,-211.022 335.38,-218.002 337.993,-211.508"/>
</g>
<!-- Node5 -->
<g id="node6" class="node"><title>Node5</title>
<polygon fill="white" stroke="#bfbfbf" points="369.068,-62.5 369.068,-81.5 410.068,-81.5 410.068,-62.5 369.068,-62.5"/>
<text text-anchor="middle" x="389.568" y="-69.5" font-family="Helvetica,sans-Serif" font-size="10.00">string</text>
</g>
<!-- Node0&#45;&gt;Node5 -->
<g id="edge26" class="edge"><title>Node0&#45;&gt;Node5</title>
<path fill="none" stroke="midnightblue" d="M453.523,-248.869C447.808,-223.381 434.422,-168.245 416.568,-124 411.949,-112.554 405.522,-100.313 400.098,-90.6926"/>
<polygon fill="midnightblue" stroke="midnightblue" points="402.965,-88.6598 394.925,-81.7597 396.907,-92.1675 402.965,-88.6598"/>
</g>
<!-- Node11 -->
<g id="node12" class="node"><title>Node11</title>
<polygon fill="white" stroke="#bfbfbf" points="847.568,-62.5 847.568,-81.5 887.568,-81.5 887.568,-62.5 847.568,-62.5"/>
<text text-anchor="middle" x="867.568" y="-69.5" font-family="Helvetica,sans-Serif" font-size="10.00">limits</text>
</g>
<!-- Node0&#45;&gt;Node11 -->
<g id="edge28" class="edge"><title>Node0&#45;&gt;Node11</title>
<path fill="none" stroke="midnightblue" d="M488.344,-248.832C553.931,-219.496 708.924,-149.684 837.568,-88 838.913,-87.3548 840.29,-86.6885 841.678,-86.0118"/>
<polygon fill="midnightblue" stroke="midnightblue" points="843.381,-89.0744 850.797,-81.5077 840.281,-82.7982 843.381,-89.0744"/>
</g>
<!-- Node16 -->
<g id="node17" class="node"><title>Node16</title>
<polygon fill="white" stroke="#bfbfbf" points="14.5677,-62.5 14.5677,-81.5 66.5677,-81.5 66.5677,-62.5 14.5677,-62.5"/>
<text text-anchor="middle" x="40.5677" y="-69.5" font-family="Helvetica,sans-Serif" font-size="10.00">memory</text>
</g>
<!-- Node0&#45;&gt;Node16 -->
<g id="edge25" class="edge"><title>Node0&#45;&gt;Node16</title>
<path fill="none" stroke="midnightblue" d="M410.041,-263.884C346.34,-263.273 229.932,-255.548 142.568,-212 103.463,-192.508 96.5742,-179.83 71.5677,-144 60.1704,-127.669 51.5869,-106.479 46.375,-91.5126"/>
<polygon fill="midnightblue" stroke="midnightblue" points="49.6494,-90.2667 43.1837,-81.8736 43.0041,-92.4669 49.6494,-90.2667"/>
</g>
<!-- Node17 -->
<g id="node18" class="node"><title>Node17</title>
<polygon fill="white" stroke="#bfbfbf" points="110.068,-62.5 110.068,-81.5 139.068,-81.5 139.068,-62.5 110.068,-62.5"/>
<text text-anchor="middle" x="124.568" y="-69.5" font-family="Helvetica,sans-Serif" font-size="10.00">list</text>
</g>
<!-- Node0&#45;&gt;Node17 -->
<g id="edge24" class="edge"><title>Node0&#45;&gt;Node17</title>
<path fill="none" stroke="midnightblue" d="M409.747,-255.091C320.2,-238.833 130.598,-198.553 97.5677,-144 87.062,-126.648 98.9275,-104.517 110.074,-89.613"/>
<polygon fill="midnightblue" stroke="midnightblue" points="112.845,-91.7518 116.379,-81.7638 107.388,-87.3679 112.845,-91.7518"/>
</g>
<!-- Node18 -->
<g id="node19" class="node"><title>Node18</title>
<polygon fill="white" stroke="#bfbfbf" points="680.068,-186.5 680.068,-205.5 721.068,-205.5 721.068,-186.5 680.068,-186.5"/>
<text text-anchor="middle" x="700.568" y="-193.5" font-family="Helvetica,sans-Serif" font-size="10.00">stack</text>
</g>
<!-- Node0&#45;&gt;Node18 -->
<g id="edge27" class="edge"><title>Node0&#45;&gt;Node18</title>
<path fill="none" stroke="midnightblue" d="M503.265,-253.921C546.039,-245.062 610.831,-230.268 665.568,-212 667.982,-211.194 670.462,-210.292 672.933,-209.339"/>
<polygon fill="midnightblue" stroke="midnightblue" points="674.332,-212.549 682.261,-205.522 671.681,-206.07 674.332,-212.549"/>
</g>
<!-- Node19 -->
<g id="node20" class="node"><title>Node19</title>
<polygon fill="white" stroke="#bfbfbf" points="739.068,-186.5 739.068,-205.5 804.068,-205.5 804.068,-186.5 739.068,-186.5"/>
<text text-anchor="middle" x="771.568" y="-193.5" font-family="Helvetica,sans-Serif" font-size="10.00">TCanvas.h</text>
</g>
<!-- Node0&#45;&gt;Node19 -->
<g id="edge29" class="edge"><title>Node0&#45;&gt;Node19</title>
<path fill="none" stroke="midnightblue" d="M503.445,-256.553C558.235,-248.488 651.369,-233.126 729.568,-212 732.959,-211.084 736.468,-210.021 739.946,-208.893"/>
<polygon fill="midnightblue" stroke="midnightblue" points="741.217,-212.157 749.543,-205.605 738.948,-205.535 741.217,-212.157"/>
</g>
<!-- Node2 -->
<g id="node3" class="node"><title>Node2</title>
<polygon fill="white" stroke="#bfbfbf" points="100.568,-0.5 100.568,-19.5 156.568,-19.5 156.568,-0.5 100.568,-0.5"/>
<text text-anchor="middle" x="128.568" y="-7.5" font-family="Helvetica,sans-Serif" font-size="10.00">Rtypes.h</text>
</g>
<!-- Node1&#45;&gt;Node2 -->
<g id="edge2" class="edge"><title>Node1&#45;&gt;Node2</title>
<path fill="none" stroke="midnightblue" d="M254.117,-56.9327C226.078,-46.6744 188.468,-32.9148 161.742,-23.1369"/>
<polygon fill="midnightblue" stroke="midnightblue" points="162.668,-19.749 152.074,-19.6 160.263,-26.3228 162.668,-19.749"/>
</g>
<!-- Node3&#45;&gt;Node1 -->
<g id="edge8" class="edge"><title>Node3&#45;&gt;Node1</title>
<path fill="none" stroke="midnightblue" d="M292.568,-180.526C292.568,-159.963 292.568,-122.033 292.568,-97.1629"/>
<polygon fill="midnightblue" stroke="midnightblue" points="296.068,-97.0787 292.568,-87.0787 289.068,-97.0787 296.068,-97.0787"/>
</g>
<!-- Node3&#45;&gt;Node2 -->
<g id="edge20" class="edge"><title>Node3&#45;&gt;Node2</title>
<path fill="none" stroke="midnightblue" d="M236.295,-195.005C164.424,-191.441 44.6649,-172.448 5.56773,-88 -0.407489,-75.0939 -2.58012,-67.6569 5.56773,-56 24.5369,-28.8612 61.7231,-18.0366 90.2645,-13.7474"/>
<polygon fill="midnightblue" stroke="midnightblue" points="90.8703,-17.1983 100.339,-12.4447 89.9726,-10.2561 90.8703,-17.1983"/>
</g>
<!-- Node4 -->
<g id="node5" class="node"><title>Node4</title>
<g id="a_node5"><a xlink:href="_knobs_t_f1_8h.html" target="_top" xlink:title="KnobsTF1.h">
<polygon fill="white" stroke="black" points="320.568,-124.5 320.568,-143.5 390.568,-143.5 390.568,-124.5 320.568,-124.5"/>
<text text-anchor="middle" x="355.568" y="-131.5" font-family="Helvetica,sans-Serif" font-size="10.00">KnobsTF1.h</text>
</a>
</g>
</g>
<!-- Node3&#45;&gt;Node4 -->
<g id="edge4" class="edge"><title>Node3&#45;&gt;Node4</title>
<path fill="none" stroke="midnightblue" d="M307.498,-180.781C316.936,-171.792 329.148,-160.162 338.901,-150.873"/>
<polygon fill="midnightblue" stroke="midnightblue" points="341.573,-153.162 346.401,-143.731 336.745,-148.093 341.573,-153.162"/>
</g>
<!-- Node3&#45;&gt;Node5 -->
<g id="edge23" class="edge"><title>Node3&#45;&gt;Node5</title>
<path fill="none" stroke="midnightblue" d="M348.576,-181.663C368.153,-174.022 388.09,-162.185 399.568,-144 409.608,-128.091 404.309,-106.223 398.283,-90.9746"/>
<polygon fill="midnightblue" stroke="midnightblue" points="401.403,-89.3757 394.174,-81.6307 394.995,-92.1936 401.403,-89.3757"/>
</g>
<!-- Node7 -->
<g id="node8" class="node"><title>Node7</title>
<g id="a_node8"><a xlink:href="interval_8h.html" target="_top" xlink:title="base/interval.h">
<polygon fill="white" stroke="black" points="543.568,-124.5 543.568,-143.5 623.568,-143.5 623.568,-124.5 543.568,-124.5"/>
<text text-anchor="middle" x="583.568" y="-131.5" font-family="Helvetica,sans-Serif" font-size="10.00">base/interval.h</text>
</a>
</g>
</g>
<!-- Node3&#45;&gt;Node7 -->
<g id="edge9" class="edge"><title>Node3&#45;&gt;Node7</title>
<path fill="none" stroke="midnightblue" d="M348.675,-183.431C402.249,-172.385 482.221,-155.896 533.639,-145.295"/>
<polygon fill="midnightblue" stroke="midnightblue" points="534.438,-148.704 543.525,-143.256 533.024,-141.848 534.438,-148.704"/>
</g>
<!-- Node15 -->
<g id="node16" class="node"><title>Node15</title>
<g id="a_node16"><a xlink:href="memory_8h.html" target="_top" xlink:title="base/std_ext/memory.h">
<polygon fill="white" stroke="black" points="107.068,-124.5 107.068,-143.5 226.068,-143.5 226.068,-124.5 107.068,-124.5"/>
<text text-anchor="middle" x="166.568" y="-131.5" font-family="Helvetica,sans-Serif" font-size="10.00">base/std_ext/memory.h</text>
</a>
</g>
</g>
<!-- Node3&#45;&gt;Node15 -->
<g id="edge17" class="edge"><title>Node3&#45;&gt;Node15</title>
<path fill="none" stroke="midnightblue" d="M263.026,-180.933C242.053,-170.946 214.111,-157.64 193.701,-147.92"/>
<polygon fill="midnightblue" stroke="midnightblue" points="195.161,-144.739 184.628,-143.6 192.152,-151.059 195.161,-144.739"/>
</g>
<!-- Node3&#45;&gt;Node16 -->
<g id="edge21" class="edge"><title>Node3&#45;&gt;Node16</title>
<path fill="none" stroke="midnightblue" d="M236.24,-189.808C195.092,-183.851 139.412,-171.121 97.5677,-144 76.9163,-130.615 60.3019,-107.251 50.4521,-90.9956"/>
<polygon fill="midnightblue" stroke="midnightblue" points="53.2544,-88.8499 45.2178,-81.946 47.195,-92.3547 53.2544,-88.8499"/>
</g>
<!-- Node3&#45;&gt;Node17 -->
<g id="edge22" class="edge"><title>Node3&#45;&gt;Node17</title>
<path fill="none" stroke="midnightblue" d="M284.147,-180.971C274.084,-165.238 255.902,-139.854 234.568,-124 200.98,-99.0402 184.586,-107.514 147.568,-88 146.904,-87.6499 146.234,-87.2861 145.562,-86.9115"/>
<polygon fill="midnightblue" stroke="midnightblue" points="147.33,-83.89 136.967,-81.686 143.693,-89.8714 147.33,-83.89"/>
</g>
<!-- Node4&#45;&gt;Node1 -->
<g id="edge5" class="edge"><title>Node4&#45;&gt;Node1</title>
<path fill="none" stroke="midnightblue" d="M346.541,-124.403C338.248,-116.505 325.618,-104.477 314.661,-94.0409"/>
<polygon fill="midnightblue" stroke="midnightblue" points="317.071,-91.5029 307.416,-87.1408 312.243,-96.5719 317.071,-91.5029"/>
</g>
<!-- Node4&#45;&gt;Node5 -->
<g id="edge6" class="edge"><title>Node4&#45;&gt;Node5</title>
<path fill="none" stroke="midnightblue" d="M360.439,-124.403C365.438,-115.582 373.357,-101.608 379.677,-90.4548"/>
<polygon fill="midnightblue" stroke="midnightblue" points="382.82,-92.0064 384.705,-81.5806 376.73,-88.5553 382.82,-92.0064"/>
</g>
<!-- Node6 -->
<g id="node7" class="node"><title>Node6</title>
<polygon fill="white" stroke="#bfbfbf" points="157.068,-62.5 157.068,-81.5 216.068,-81.5 216.068,-62.5 157.068,-62.5"/>
<text text-anchor="middle" x="186.568" y="-69.5" font-family="Helvetica,sans-Serif" font-size="10.00">functional</text>
</g>
<!-- Node4&#45;&gt;Node6 -->
<g id="edge7" class="edge"><title>Node4&#45;&gt;Node6</title>
<path fill="none" stroke="midnightblue" d="M329.347,-124.38C302.813,-115.566 260.666,-101.317 224.568,-88 222.181,-87.1193 219.716,-86.1909 217.243,-85.2454"/>
<polygon fill="midnightblue" stroke="midnightblue" points="218.395,-81.9383 207.807,-81.5791 215.86,-88.4632 218.395,-81.9383"/>
</g>
<!-- Node8 -->
<g id="node9" class="node"><title>Node8</title>
<g id="a_node9"><a xlink:href="types_8h.html" target="_top" xlink:title="types.h">
<polygon fill="white" stroke="black" points="780.068,-62.5 780.068,-81.5 829.068,-81.5 829.068,-62.5 780.068,-62.5"/>
<text text-anchor="middle" x="804.568" y="-69.5" font-family="Helvetica,sans-Serif" font-size="10.00">types.h</text>
</a>
</g>
</g>
<!-- Node7&#45;&gt;Node8 -->
<g id="edge10" class="edge"><title>Node7&#45;&gt;Node8</title>
<path fill="none" stroke="midnightblue" d="M623.661,-125.328C661.704,-117.575 720.231,-104.412 769.568,-88 771.983,-87.1966 774.463,-86.2956 776.934,-85.3446"/>
<polygon fill="midnightblue" stroke="midnightblue" points="778.333,-88.554 786.264,-81.5287 775.683,-82.075 778.333,-88.554"/>
</g>
<!-- Node9 -->
<g id="node10" class="node"><title>Node9</title>
<polygon fill="white" stroke="#bfbfbf" points="428.568,-62.5 428.568,-81.5 484.568,-81.5 484.568,-62.5 428.568,-62.5"/>
<text text-anchor="middle" x="456.568" y="-69.5" font-family="Helvetica,sans-Serif" font-size="10.00">algorithm</text>
</g>
<!-- Node7&#45;&gt;Node9 -->
<g id="edge11" class="edge"><title>Node7&#45;&gt;Node9</title>
<path fill="none" stroke="midnightblue" d="M565.372,-124.403C544.058,-114.334 508.537,-97.5522 483.905,-85.9151"/>
<polygon fill="midnightblue" stroke="midnightblue" points="485.267,-82.6877 474.73,-81.5806 482.277,-89.0169 485.267,-82.6877"/>
</g>
<!-- Node10 -->
<g id="node11" class="node"><title>Node10</title>
<polygon fill="white" stroke="#bfbfbf" points="503.068,-62.5 503.068,-81.5 562.068,-81.5 562.068,-62.5 503.068,-62.5"/>
<text text-anchor="middle" x="532.568" y="-69.5" font-family="Helvetica,sans-Serif" font-size="10.00">stdexcept</text>
</g>
<!-- Node7&#45;&gt;Node10 -->
<g id="edge12" class="edge"><title>Node7&#45;&gt;Node10</title>
<path fill="none" stroke="midnightblue" d="M576.261,-124.403C568.535,-115.314 556.16,-100.756 546.549,-89.4489"/>
<polygon fill="midnightblue" stroke="midnightblue" points="549.005,-86.9332 539.861,-81.5806 543.671,-91.4668 549.005,-86.9332"/>
</g>
<!-- Node7&#45;&gt;Node11 -->
<g id="edge13" class="edge"><title>Node7&#45;&gt;Node11</title>
<path fill="none" stroke="midnightblue" d="M623.77,-126.189C692.802,-114.45 827.483,-91.3363 837.568,-88 839.475,-87.369 841.413,-86.6357 843.339,-85.839"/>
<polygon fill="midnightblue" stroke="midnightblue" points="845.071,-88.8937 852.669,-81.509 842.124,-82.5442 845.071,-88.8937"/>
</g>
<!-- Node12 -->
<g id="node13" class="node"><title>Node12</title>
<polygon fill="white" stroke="#bfbfbf" points="580.068,-62.5 580.068,-81.5 629.068,-81.5 629.068,-62.5 580.068,-62.5"/>
<text text-anchor="middle" x="604.568" y="-69.5" font-family="Helvetica,sans-Serif" font-size="10.00">istream</text>
</g>
<!-- Node7&#45;&gt;Node12 -->
<g id="edge14" class="edge"><title>Node7&#45;&gt;Node12</title>
<path fill="none" stroke="midnightblue" d="M586.577,-124.403C589.602,-115.76 594.358,-102.17 598.221,-91.1341"/>
<polygon fill="midnightblue" stroke="midnightblue" points="601.564,-92.1754 601.565,-81.5806 594.957,-89.8629 601.564,-92.1754"/>
</g>
<!-- Node13 -->
<g id="node14" class="node"><title>Node13</title>
<polygon fill="white" stroke="#bfbfbf" points="647.568,-62.5 647.568,-81.5 699.568,-81.5 699.568,-62.5 647.568,-62.5"/>
<text text-anchor="middle" x="673.568" y="-69.5" font-family="Helvetica,sans-Serif" font-size="10.00">sstream</text>
</g>
<!-- Node7&#45;&gt;Node13 -->
<g id="edge15" class="edge"><title>Node7&#45;&gt;Node13</title>
<path fill="none" stroke="midnightblue" d="M596.463,-124.403C611.032,-114.691 634.97,-98.7319 652.313,-87.1697"/>
<polygon fill="midnightblue" stroke="midnightblue" points="654.318,-90.0398 660.697,-81.5806 650.435,-84.2155 654.318,-90.0398"/>
</g>
<!-- Node14 -->
<g id="node15" class="node"><title>Node14</title>
<polygon fill="white" stroke="#bfbfbf" points="717.568,-62.5 717.568,-81.5 761.568,-81.5 761.568,-62.5 717.568,-62.5"/>
<text text-anchor="middle" x="739.568" y="-69.5" font-family="Helvetica,sans-Serif" font-size="10.00">cmath</text>
</g>
<!-- Node7&#45;&gt;Node14 -->
<g id="edge16" class="edge"><title>Node7&#45;&gt;Node14</title>
<path fill="none" stroke="midnightblue" d="M609.729,-124.476C635.233,-115.958 674.975,-102.128 708.568,-88 710.159,-87.3307 711.786,-86.6216 713.42,-85.8901"/>
<polygon fill="midnightblue" stroke="midnightblue" points="715.078,-88.9787 722.66,-81.5781 712.118,-82.6354 715.078,-88.9787"/>
</g>
<!-- Node15&#45;&gt;Node16 -->
<g id="edge18" class="edge"><title>Node15&#45;&gt;Node16</title>
<path fill="none" stroke="midnightblue" d="M148.515,-124.403C127.369,-114.334 92.1274,-97.5522 67.6895,-85.9151"/>
<polygon fill="midnightblue" stroke="midnightblue" points="69.1204,-82.72 58.587,-81.5806 66.1108,-89.04 69.1204,-82.72"/>
</g>
<!-- Node15&#45;&gt;Node17 -->
<g id="edge19" class="edge"><title>Node15&#45;&gt;Node17</title>
<path fill="none" stroke="midnightblue" d="M160.55,-124.403C154.25,-115.403 144.196,-101.041 136.315,-89.7824"/>
<polygon fill="midnightblue" stroke="midnightblue" points="139.176,-87.7658 130.574,-81.5806 133.441,-91.7801 139.176,-87.7658"/>
</g>
</g>
</svg>
