<?xml version="1.0" encoding="UTF-8" standalone="no"?>
<!DOCTYPE svg PUBLIC "-//W3C//DTD SVG 1.1//EN"
 "http://www.w3.org/Graphics/SVG/1.1/DTD/svg11.dtd">
<!-- Generated by graphviz version 2.36.0 (20140111.2315)
 -->
<!-- Title: src/calibration/modules/ClusterCorrection.h Pages: 1 -->
<svg width="1168pt" height="118pt"
 viewBox="0.00 0.00 1168.00 118.00" xmlns="http://www.w3.org/2000/svg" xmlns:xlink="http://www.w3.org/1999/xlink">
<g id="graph0" class="graph" transform="scale(1 1) rotate(0) translate(4 114)">
<title>src/calibration/modules/ClusterCorrection.h</title>
<polygon fill="white" stroke="none" points="-4,4 -4,-114 1164,-114 1164,4 -4,4"/>
<!-- Node49 -->
<g id="node1" class="node"><title>Node49</title>
<polygon fill="#bfbfbf" stroke="black" points="508.5,-79 508.5,-109 625.5,-109 625.5,-79 508.5,-79"/>
<text text-anchor="start" x="516.5" y="-97" font-family="Helvetica,sans-Serif" font-size="10.00">src/calibration/modules</text>
<text text-anchor="middle" x="567" y="-86" font-family="Helvetica,sans-Serif" font-size="10.00">/ClusterCorrection.h</text>
</g>
<!-- Node50 -->
<g id="node2" class="node"><title>Node50</title>
<g id="a_node2"><a xlink:href="_cluster_correction_8cc.html" target="_top" xlink:title="src/calibration/modules\l/ClusterCorrection.cc">
<polygon fill="white" stroke="black" points="-0.5,-6 -0.5,-36 116.5,-36 116.5,-6 -0.5,-6"/>
<text text-anchor="start" x="7.5" y="-24" font-family="Helvetica,sans-Serif" font-size="10.00">src/calibration/modules</text>
<text text-anchor="middle" x="58" y="-13" font-family="Helvetica,sans-Serif" font-size="10.00">/ClusterCorrection.cc</text>
</a>
</g>
</g>
<!-- Node49&#45;&gt;Node50 -->
<g id="edge1" class="edge"><title>Node49&#45;&gt;Node50</title>
<path fill="none" stroke="midnightblue" d="M498.147,-88.8063C410.697,-82.6243 255.468,-68.7844 125,-42 117.152,-40.3888 108.897,-38.279 100.967,-36.0349"/>
<polygon fill="midnightblue" stroke="midnightblue" points="497.992,-92.3038 508.21,-89.5049 498.477,-85.3206 497.992,-92.3038"/>
</g>
<!-- Node51 -->
<g id="node3" class="node"><title>Node51</title>
<g id="a_node3"><a xlink:href="_setup_8cc.html" target="_top" xlink:title="src/expconfig/setups\l/Setup.cc">
<polygon fill="white" stroke="black" points="134.5,-6 134.5,-36 241.5,-36 241.5,-6 134.5,-6"/>
<text text-anchor="start" x="142.5" y="-24" font-family="Helvetica,sans-Serif" font-size="10.00">src/expconfig/setups</text>
<text text-anchor="middle" x="188" y="-13" font-family="Helvetica,sans-Serif" font-size="10.00">/Setup.cc</text>
</a>
</g>
</g>
<!-- Node49&#45;&gt;Node51 -->
<g id="edge2" class="edge"><title>Node49&#45;&gt;Node51</title>
<path fill="none" stroke="midnightblue" d="M498.215,-84.8714C433.813,-76.5615 335.157,-62.0339 251,-42 243.855,-40.2992 236.346,-38.1988 229.1,-36.0049"/>
<polygon fill="midnightblue" stroke="midnightblue" points="497.887,-88.3578 508.25,-86.1516 498.773,-81.4141 497.887,-88.3578"/>
</g>
<!-- Node52 -->
<g id="node4" class="node"><title>Node52</title>
<g id="a_node4"><a xlink:href="_setup__2014___e_p_t_8cc.html" target="_top" xlink:title="src/expconfig/setups\l/Setup_2014_EPT.cc">
<polygon fill="white" stroke="black" points="260,-6 260,-36 370,-36 370,-6 260,-6"/>
<text text-anchor="start" x="268" y="-24" font-family="Helvetica,sans-Serif" font-size="10.00">src/expconfig/setups</text>
<text text-anchor="middle" x="315" y="-13" font-family="Helvetica,sans-Serif" font-size="10.00">/Setup_2014_EPT.cc</text>
</a>
</g>
</g>
<!-- Node49&#45;&gt;Node52 -->
<g id="edge3" class="edge"><title>Node49&#45;&gt;Node52</title>
<path fill="none" stroke="midnightblue" d="M502.959,-76.273C466.526,-66.5954 420.1,-53.9918 379,-42 372.63,-40.1415 365.924,-38.119 359.347,-36.0979"/>
<polygon fill="midnightblue" stroke="midnightblue" points="502.395,-79.7441 512.958,-78.922 504.188,-72.9776 502.395,-79.7441"/>
</g>
<!-- Node53 -->
<g id="node5" class="node"><title>Node53</title>
<g id="a_node5"><a xlink:href="_setup__2017__03_8cc.html" target="_top" xlink:title="src/expconfig/setups\l/Setup_2017_03.cc">
<polygon fill="white" stroke="black" points="388.5,-6 388.5,-36 495.5,-36 495.5,-6 388.5,-6"/>
<text text-anchor="start" x="396.5" y="-24" font-family="Helvetica,sans-Serif" font-size="10.00">src/expconfig/setups</text>
<text text-anchor="middle" x="442" y="-13" font-family="Helvetica,sans-Serif" font-size="10.00">/Setup_2017_03.cc</text>
</a>
</g>
</g>
<!-- Node49&#45;&gt;Node53 -->
<g id="edge4" class="edge"><title>Node49&#45;&gt;Node53</title>
<path fill="none" stroke="midnightblue" d="M533.437,-73.9365C512.553,-62.0739 486.136,-47.069 467.073,-36.2412"/>
<polygon fill="midnightblue" stroke="midnightblue" points="531.88,-77.0771 542.304,-78.9727 535.337,-70.9904 531.88,-77.0771"/>
</g>
<!-- Node54 -->
<g id="node6" class="node"><title>Node54</title>
<g id="a_node6"><a xlink:href="_setup__2017__05_8cc.html" target="_top" xlink:title="src/expconfig/setups\l/Setup_2017_05.cc">
<polygon fill="white" stroke="black" points="513.5,-6 513.5,-36 620.5,-36 620.5,-6 513.5,-6"/>
<text text-anchor="start" x="521.5" y="-24" font-family="Helvetica,sans-Serif" font-size="10.00">src/expconfig/setups</text>
<text text-anchor="middle" x="567" y="-13" font-family="Helvetica,sans-Serif" font-size="10.00">/Setup_2017_05.cc</text>
</a>
</g>
</g>
<!-- Node49&#45;&gt;Node54 -->
<g id="edge5" class="edge"><title>Node49&#45;&gt;Node54</title>
<path fill="none" stroke="midnightblue" d="M567,-68.8976C567,-58.1314 567,-45.8005 567,-36.4856"/>
<polygon fill="midnightblue" stroke="midnightblue" points="563.5,-68.9727 567,-78.9727 570.5,-68.9727 563.5,-68.9727"/>
</g>
<!-- Node55 -->
<g id="node7" class="node"><title>Node55</title>
<g id="a_node7"><a xlink:href="_setup__2017_plus___new_tagger___base_8cc.html" target="_top" xlink:title="src/expconfig/setups\l/Setup_2017Plus_NewTagger\l_Base.cc">
<polygon fill="white" stroke="black" points="639,-0.5 639,-41.5 785,-41.5 785,-0.5 639,-0.5"/>
<text text-anchor="start" x="647" y="-29.5" font-family="Helvetica,sans-Serif" font-size="10.00">src/expconfig/setups</text>
<text text-anchor="start" x="647" y="-18.5" font-family="Helvetica,sans-Serif" font-size="10.00">/Setup_2017Plus_NewTagger</text>
<text text-anchor="middle" x="712" y="-7.5" font-family="Helvetica,sans-Serif" font-size="10.00">_Base.cc</text>
</a>
</g>
</g>
<!-- Node49&#45;&gt;Node55 -->
<g id="edge6" class="edge"><title>Node49&#45;&gt;Node55</title>
<path fill="none" stroke="midnightblue" d="M604.779,-74.5015C625.485,-64.3623 651.139,-51.801 672.161,-41.5075"/>
<polygon fill="midnightblue" stroke="midnightblue" points="603.089,-71.4316 595.647,-78.9727 606.168,-77.7184 603.089,-71.4316"/>
</g>
<!-- Node56 -->
<g id="node8" class="node"><title>Node56</title>
<g id="a_node8"><a xlink:href="_setup__2018__11_8cc.html" target="_top" xlink:title="src/expconfig/setups\l/Setup_2018_11.cc">
<polygon fill="white" stroke="black" points="803.5,-6 803.5,-36 910.5,-36 910.5,-6 803.5,-6"/>
<text text-anchor="start" x="811.5" y="-24" font-family="Helvetica,sans-Serif" font-size="10.00">src/expconfig/setups</text>
<text text-anchor="middle" x="857" y="-13" font-family="Helvetica,sans-Serif" font-size="10.00">/Setup_2018_11.cc</text>
</a>
</g>
</g>
<!-- Node49&#45;&gt;Node56 -->
<g id="edge7" class="edge"><title>Node49&#45;&gt;Node56</title>
<path fill="none" stroke="midnightblue" d="M635.65,-79.19C680.874,-69.697 741.258,-56.268 794,-42 800.646,-40.202 807.638,-38.1482 814.448,-36.0572"/>
<polygon fill="midnightblue" stroke="midnightblue" points="634.733,-75.8059 625.659,-81.275 636.163,-82.6582 634.733,-75.8059"/>
</g>
<!-- Node57 -->
<g id="node9" class="node"><title>Node57</title>
<g id="a_node9"><a xlink:href="_setup__2019__01_8cc.html" target="_top" xlink:title="src/expconfig/setups\l/Setup_2019_01.cc">
<polygon fill="white" stroke="black" points="928.5,-6 928.5,-36 1035.5,-36 1035.5,-6 928.5,-6"/>
<text text-anchor="start" x="936.5" y="-24" font-family="Helvetica,sans-Serif" font-size="10.00">src/expconfig/setups</text>
<text text-anchor="middle" x="982" y="-13" font-family="Helvetica,sans-Serif" font-size="10.00">/Setup_2019_01.cc</text>
</a>
</g>
</g>
<!-- Node49&#45;&gt;Node57 -->
<g id="edge8" class="edge"><title>Node49&#45;&gt;Node57</title>
<path fill="none" stroke="midnightblue" d="M635.994,-86.377C707.412,-78.7365 821.913,-64.2862 919,-42 926.158,-40.3569 933.675,-38.2853 940.923,-36.1022"/>
<polygon fill="midnightblue" stroke="midnightblue" points="635.354,-82.925 625.777,-87.455 636.089,-89.8863 635.354,-82.925"/>
</g>
<!-- Node58 -->
<g id="node10" class="node"><title>Node58</title>
<g id="a_node10"><a xlink:href="_setup__2019__06_8cc.html" target="_top" xlink:title="src/expconfig/setups\l/Setup_2019_06.cc">
<polygon fill="white" stroke="black" points="1053.5,-6 1053.5,-36 1160.5,-36 1160.5,-6 1053.5,-6"/>
<text text-anchor="start" x="1061.5" y="-24" font-family="Helvetica,sans-Serif" font-size="10.00">src/expconfig/setups</text>
<text text-anchor="middle" x="1107" y="-13" font-family="Helvetica,sans-Serif" font-size="10.00">/Setup_2019_06.cc</text>
</a>
</g>
</g>
<!-- Node49&#45;&gt;Node58 -->
<g id="edge9" class="edge"><title>Node49&#45;&gt;Node58</title>
<path fill="none" stroke="midnightblue" d="M635.755,-89.9873C729.069,-84.9165 900.624,-72.1035 1044,-42 1051.52,-40.4202 1059.43,-38.2973 1066.99,-36.0239"/>
<polygon fill="midnightblue" stroke="midnightblue" points="635.397,-86.5013 625.596,-90.5255 635.767,-93.4915 635.397,-86.5013"/>
</g>
</g>
</svg>
