<?xml version="1.0" encoding="UTF-8" standalone="no"?>
<!DOCTYPE svg PUBLIC "-//W3C//DTD SVG 1.1//EN"
 "http://www.w3.org/Graphics/SVG/1.1/DTD/svg11.dtd">
<!-- Generated by graphviz version 2.36.0 (20140111.2315)
 -->
<!-- Title: src/analysis/utils/ClusterTools.h Pages: 1 -->
<svg width="654pt" height="264pt"
 viewBox="0.00 0.00 654.00 264.00" xmlns="http://www.w3.org/2000/svg" xmlns:xlink="http://www.w3.org/1999/xlink">
<g id="graph0" class="graph" transform="scale(1 1) rotate(0) translate(4 260)">
<title>src/analysis/utils/ClusterTools.h</title>
<polygon fill="white" stroke="none" points="-4,4 -4,-260 650,-260 650,4 -4,4"/>
<!-- Node0 -->
<g id="node1" class="node"><title>Node0</title>
<polygon fill="#bfbfbf" stroke="black" points="427,-225 427,-255 517,-255 517,-225 427,-225"/>
<text text-anchor="start" x="435" y="-243" font-family="Helvetica,sans-Serif" font-size="10.00">src/analysis/utils</text>
<text text-anchor="middle" x="472" y="-232" font-family="Helvetica,sans-Serif" font-size="10.00">/ClusterTools.h</text>
</g>
<!-- Node1 -->
<g id="node2" class="node"><title>Node1</title>
<g id="a_node2"><a xlink:href="_detector__t_8h.html" target="_top" xlink:title="base/Detector_t.h">
<polygon fill="white" stroke="black" points="332.5,-168.5 332.5,-187.5 427.5,-187.5 427.5,-168.5 332.5,-168.5"/>
<text text-anchor="middle" x="380" y="-175.5" font-family="Helvetica,sans-Serif" font-size="10.00">base/Detector_t.h</text>
</a>
</g>
</g>
<!-- Node0&#45;&gt;Node1 -->
<g id="edge1" class="edge"><title>Node0&#45;&gt;Node1</title>
<path fill="none" stroke="midnightblue" d="M450.197,-224.781C435.5,-215.196 416.196,-202.606 401.552,-193.056"/>
<polygon fill="midnightblue" stroke="midnightblue" points="403.407,-190.087 393.119,-187.556 399.583,-195.95 403.407,-190.087"/>
</g>
<!-- Node15 -->
<g id="node16" class="node"><title>Node15</title>
<polygon fill="white" stroke="#bfbfbf" points="446,-168.5 446,-187.5 498,-187.5 498,-168.5 446,-168.5"/>
<text text-anchor="middle" x="472" y="-175.5" font-family="Helvetica,sans-Serif" font-size="10.00">memory</text>
</g>
<!-- Node0&#45;&gt;Node15 -->
<g id="edge18" class="edge"><title>Node0&#45;&gt;Node15</title>
<path fill="none" stroke="midnightblue" d="M472,-224.781C472,-216.781 472,-206.689 472,-198.017"/>
<polygon fill="midnightblue" stroke="midnightblue" points="475.5,-197.73 472,-187.731 468.5,-197.731 475.5,-197.73"/>
</g>
<!-- Node16 -->
<g id="node17" class="node"><title>Node16</title>
<polygon fill="white" stroke="#bfbfbf" points="516.5,-168.5 516.5,-187.5 551.5,-187.5 551.5,-168.5 516.5,-168.5"/>
<text text-anchor="middle" x="534" y="-175.5" font-family="Helvetica,sans-Serif" font-size="10.00">map</text>
</g>
<!-- Node0&#45;&gt;Node16 -->
<g id="edge19" class="edge"><title>Node0&#45;&gt;Node16</title>
<path fill="none" stroke="midnightblue" d="M486.693,-224.781C495.981,-215.792 507.999,-204.162 517.598,-194.873"/>
<polygon fill="midnightblue" stroke="midnightblue" points="520.226,-197.2 524.978,-187.731 515.358,-192.17 520.226,-197.2"/>
</g>
<!-- Node2 -->
<g id="node3" class="node"><title>Node2</title>
<g id="a_node3"><a xlink:href="bitflag_8h.html" target="_top" xlink:title="base/bitflag.h">
<polygon fill="white" stroke="black" points="-0.5,-112.5 -0.5,-131.5 74.5,-131.5 74.5,-112.5 -0.5,-112.5"/>
<text text-anchor="middle" x="37" y="-119.5" font-family="Helvetica,sans-Serif" font-size="10.00">base/bitflag.h</text>
</a>
</g>
</g>
<!-- Node1&#45;&gt;Node2 -->
<g id="edge2" class="edge"><title>Node1&#45;&gt;Node2</title>
<path fill="none" stroke="midnightblue" d="M332.307,-169.492C266.871,-159.19 149.946,-140.782 84.5728,-130.49"/>
<polygon fill="midnightblue" stroke="midnightblue" points="84.962,-127.008 74.5393,-128.91 83.8733,-133.923 84.962,-127.008"/>
</g>
<!-- Node4 -->
<g id="node5" class="node"><title>Node4</title>
<g id="a_node5"><a xlink:href="vec3_8h.html" target="_top" xlink:title="base/vec/vec3.h">
<polygon fill="white" stroke="black" points="104.5,-112.5 104.5,-131.5 193.5,-131.5 193.5,-112.5 104.5,-112.5"/>
<text text-anchor="middle" x="149" y="-119.5" font-family="Helvetica,sans-Serif" font-size="10.00">base/vec/vec3.h</text>
</a>
</g>
</g>
<!-- Node1&#45;&gt;Node4 -->
<g id="edge4" class="edge"><title>Node1&#45;&gt;Node4</title>
<path fill="none" stroke="midnightblue" d="M343.397,-168.444C303.269,-159.063 238.802,-143.993 195.215,-133.804"/>
<polygon fill="midnightblue" stroke="midnightblue" points="195.966,-130.385 185.431,-131.516 194.372,-137.201 195.966,-130.385"/>
</g>
<!-- Node8 -->
<g id="node9" class="node"><title>Node8</title>
<g id="a_node9"><a xlink:href="base_2std__ext_2math_8h.html" target="_top" xlink:title="base/std_ext/math.h">
<polygon fill="white" stroke="black" points="221,-112.5 221,-131.5 327,-131.5 327,-112.5 221,-112.5"/>
<text text-anchor="middle" x="274" y="-119.5" font-family="Helvetica,sans-Serif" font-size="10.00">base/std_ext/math.h</text>
</a>
</g>
</g>
<!-- Node1&#45;&gt;Node8 -->
<g id="edge9" class="edge"><title>Node1&#45;&gt;Node8</title>
<path fill="none" stroke="midnightblue" d="M362.969,-168.324C345.97,-159.664 319.624,-146.242 300.007,-136.249"/>
<polygon fill="midnightblue" stroke="midnightblue" points="301.488,-133.075 290.988,-131.655 298.31,-139.312 301.488,-133.075"/>
</g>
<!-- Node10 -->
<g id="node11" class="node"><title>Node10</title>
<polygon fill="white" stroke="#bfbfbf" points="338,-56.5 338,-75.5 382,-75.5 382,-56.5 338,-56.5"/>
<text text-anchor="middle" x="360" y="-63.5" font-family="Helvetica,sans-Serif" font-size="10.00">vector</text>
</g>
<!-- Node1&#45;&gt;Node10 -->
<g id="edge17" class="edge"><title>Node1&#45;&gt;Node10</title>
<path fill="none" stroke="midnightblue" d="M378.431,-168.368C375.203,-150.617 367.758,-109.666 363.381,-85.5974"/>
<polygon fill="midnightblue" stroke="midnightblue" points="366.795,-84.804 361.562,-75.5914 359.907,-86.0562 366.795,-84.804"/>
</g>
<!-- Node11 -->
<g id="node12" class="node"><title>Node11</title>
<polygon fill="white" stroke="#bfbfbf" points="383,-112.5 383,-131.5 429,-131.5 429,-112.5 383,-112.5"/>
<text text-anchor="middle" x="406" y="-119.5" font-family="Helvetica,sans-Serif" font-size="10.00">cstdint</text>
</g>
<!-- Node1&#45;&gt;Node11 -->
<g id="edge13" class="edge"><title>Node1&#45;&gt;Node11</title>
<path fill="none" stroke="midnightblue" d="M384.293,-168.083C387.852,-160.691 393.022,-149.953 397.424,-140.811"/>
<polygon fill="midnightblue" stroke="midnightblue" points="400.602,-142.279 401.787,-131.751 394.295,-139.243 400.602,-142.279"/>
</g>
<!-- Node12 -->
<g id="node13" class="node"><title>Node12</title>
<polygon fill="white" stroke="#bfbfbf" points="447.5,-112.5 447.5,-131.5 506.5,-131.5 506.5,-112.5 447.5,-112.5"/>
<text text-anchor="middle" x="477" y="-119.5" font-family="Helvetica,sans-Serif" font-size="10.00">stdexcept</text>
</g>
<!-- Node1&#45;&gt;Node12 -->
<g id="edge14" class="edge"><title>Node1&#45;&gt;Node12</title>
<path fill="none" stroke="midnightblue" d="M395.585,-168.324C410.999,-159.743 434.812,-146.486 452.71,-136.522"/>
<polygon fill="midnightblue" stroke="midnightblue" points="454.419,-139.577 461.454,-131.655 451.014,-133.461 454.419,-139.577"/>
</g>
<!-- Node13 -->
<g id="node14" class="node"><title>Node13</title>
<polygon fill="white" stroke="#bfbfbf" points="524.5,-112.5 524.5,-131.5 565.5,-131.5 565.5,-112.5 524.5,-112.5"/>
<text text-anchor="middle" x="545" y="-119.5" font-family="Helvetica,sans-Serif" font-size="10.00">string</text>
</g>
<!-- Node1&#45;&gt;Node13 -->
<g id="edge15" class="edge"><title>Node1&#45;&gt;Node13</title>
<path fill="none" stroke="midnightblue" d="M406.145,-168.444C435.536,-158.825 483.205,-143.224 514.331,-133.037"/>
<polygon fill="midnightblue" stroke="midnightblue" points="515.787,-136.244 524.202,-129.807 513.609,-129.591 515.787,-136.244"/>
</g>
<!-- Node14 -->
<g id="node15" class="node"><title>Node14</title>
<polygon fill="white" stroke="#bfbfbf" points="584,-112.5 584,-131.5 646,-131.5 646,-112.5 584,-112.5"/>
<text text-anchor="middle" x="615" y="-119.5" font-family="Helvetica,sans-Serif" font-size="10.00">type_traits</text>
</g>
<!-- Node1&#45;&gt;Node14 -->
<g id="edge16" class="edge"><title>Node1&#45;&gt;Node14</title>
<path fill="none" stroke="midnightblue" d="M417.236,-168.444C459.981,-158.621 529.871,-142.562 574.098,-132.399"/>
<polygon fill="midnightblue" stroke="midnightblue" points="574.979,-135.788 583.942,-130.137 573.412,-128.965 574.979,-135.788"/>
</g>
<!-- Node3 -->
<g id="node4" class="node"><title>Node3</title>
<polygon fill="white" stroke="#bfbfbf" points="10.5,-56.5 10.5,-75.5 51.5,-75.5 51.5,-56.5 10.5,-56.5"/>
<text text-anchor="middle" x="31" y="-63.5" font-family="Helvetica,sans-Serif" font-size="10.00">bitset</text>
</g>
<!-- Node2&#45;&gt;Node3 -->
<g id="edge3" class="edge"><title>Node2&#45;&gt;Node3</title>
<path fill="none" stroke="midnightblue" d="M36.0092,-112.083C35.2141,-104.927 34.0706,-94.6353 33.0768,-85.6911"/>
<polygon fill="midnightblue" stroke="midnightblue" points="36.5553,-85.3034 31.9723,-75.7511 29.5982,-86.0765 36.5553,-85.3034"/>
</g>
<!-- Node5 -->
<g id="node6" class="node"><title>Node5</title>
<g id="a_node6"><a xlink:href="vec2_8h.html" target="_top" xlink:title="vec2.h">
<polygon fill="white" stroke="black" points="70,-56.5 70,-75.5 116,-75.5 116,-56.5 70,-56.5"/>
<text text-anchor="middle" x="93" y="-63.5" font-family="Helvetica,sans-Serif" font-size="10.00">vec2.h</text>
</a>
</g>
</g>
<!-- Node4&#45;&gt;Node5 -->
<g id="edge5" class="edge"><title>Node4&#45;&gt;Node5</title>
<path fill="none" stroke="midnightblue" d="M140.003,-112.324C131.806,-104.42 119.494,-92.5482 109.528,-82.9377"/>
<polygon fill="midnightblue" stroke="midnightblue" points="111.789,-80.2558 102.161,-75.8339 106.93,-85.2947 111.789,-80.2558"/>
</g>
<!-- Node6 -->
<g id="node7" class="node"><title>Node6</title>
<polygon fill="white" stroke="#bfbfbf" points="122,-0.5 122,-19.5 166,-19.5 166,-0.5 122,-0.5"/>
<text text-anchor="middle" x="144" y="-7.5" font-family="Helvetica,sans-Serif" font-size="10.00">cmath</text>
</g>
<!-- Node4&#45;&gt;Node6 -->
<g id="edge8" class="edge"><title>Node4&#45;&gt;Node6</title>
<path fill="none" stroke="midnightblue" d="M148.608,-112.368C147.801,-94.617 145.939,-53.6664 144.845,-29.5974"/>
<polygon fill="midnightblue" stroke="midnightblue" points="148.341,-29.4221 144.391,-19.5914 141.348,-29.7401 148.341,-29.4221"/>
</g>
<!-- Node7 -->
<g id="node8" class="node"><title>Node7</title>
<polygon fill="white" stroke="#bfbfbf" points="172,-56.5 172,-75.5 224,-75.5 224,-56.5 172,-56.5"/>
<text text-anchor="middle" x="198" y="-63.5" font-family="Helvetica,sans-Serif" font-size="10.00">ostream</text>
</g>
<!-- Node4&#45;&gt;Node7 -->
<g id="edge7" class="edge"><title>Node4&#45;&gt;Node7</title>
<path fill="none" stroke="midnightblue" d="M157.091,-112.083C164.155,-104.298 174.588,-92.8015 183.149,-83.3665"/>
<polygon fill="midnightblue" stroke="midnightblue" points="185.931,-85.5087 190.059,-75.7511 180.747,-80.8047 185.931,-85.5087"/>
</g>
<!-- Node5&#45;&gt;Node6 -->
<g id="edge6" class="edge"><title>Node5&#45;&gt;Node6</title>
<path fill="none" stroke="midnightblue" d="M101.422,-56.083C108.848,-48.2195 119.852,-36.5688 128.812,-27.0813"/>
<polygon fill="midnightblue" stroke="midnightblue" points="131.413,-29.4244 135.735,-19.7511 126.324,-24.618 131.413,-29.4244"/>
</g>
<!-- Node8&#45;&gt;Node6 -->
<g id="edge10" class="edge"><title>Node8&#45;&gt;Node6</title>
<path fill="none" stroke="midnightblue" d="M270.404,-112.387C264.396,-98.871 251.161,-72.5189 233,-56 216.389,-40.8905 193.766,-29.5409 175.487,-22.0194"/>
<polygon fill="midnightblue" stroke="midnightblue" points="176.699,-18.7353 166.112,-18.3354 174.139,-25.2504 176.699,-18.7353"/>
</g>
<!-- Node9 -->
<g id="node10" class="node"><title>Node9</title>
<polygon fill="white" stroke="#bfbfbf" points="280,-56.5 280,-75.5 320,-75.5 320,-56.5 280,-56.5"/>
<text text-anchor="middle" x="300" y="-63.5" font-family="Helvetica,sans-Serif" font-size="10.00">limits</text>
</g>
<!-- Node8&#45;&gt;Node9 -->
<g id="edge11" class="edge"><title>Node8&#45;&gt;Node9</title>
<path fill="none" stroke="midnightblue" d="M278.293,-112.083C281.852,-104.691 287.022,-93.9533 291.424,-84.8111"/>
<polygon fill="midnightblue" stroke="midnightblue" points="294.602,-86.2795 295.787,-75.7511 288.295,-83.2427 294.602,-86.2795"/>
</g>
<!-- Node8&#45;&gt;Node10 -->
<g id="edge12" class="edge"><title>Node8&#45;&gt;Node10</title>
<path fill="none" stroke="midnightblue" d="M287.817,-112.324C301.233,-103.9 321.824,-90.9709 337.586,-81.0741"/>
<polygon fill="midnightblue" stroke="midnightblue" points="339.609,-83.9364 346.217,-75.6545 335.887,-78.0081 339.609,-83.9364"/>
</g>
</g>
</svg>
