<?xml version="1.0" encoding="UTF-8" standalone="no"?>
<!DOCTYPE svg PUBLIC "-//W3C//DTD SVG 1.1//EN"
 "http://www.w3.org/Graphics/SVG/1.1/DTD/svg11.dtd">
<!-- Generated by graphviz version 2.36.0 (20140111.2315)
 -->
<!-- Title: src/analysis/utils/Combinatorics.h Pages: 1 -->
<svg width="393pt" height="152pt"
 viewBox="0.00 0.00 393.00 152.00" xmlns="http://www.w3.org/2000/svg" xmlns:xlink="http://www.w3.org/1999/xlink">
<g id="graph0" class="graph" transform="scale(1 1) rotate(0) translate(4 148)">
<title>src/analysis/utils/Combinatorics.h</title>
<polygon fill="white" stroke="none" points="-4,4 -4,-148 389,-148 389,4 -4,4"/>
<!-- Node0 -->
<g id="node1" class="node"><title>Node0</title>
<polygon fill="#bfbfbf" stroke="black" points="207.5,-113 207.5,-143 298.5,-143 298.5,-113 207.5,-113"/>
<text text-anchor="start" x="215.5" y="-131" font-family="Helvetica,sans-Serif" font-size="10.00">src/analysis/utils</text>
<text text-anchor="middle" x="253" y="-120" font-family="Helvetica,sans-Serif" font-size="10.00">/Combinatorics.h</text>
</g>
<!-- Node1 -->
<g id="node2" class="node"><title>Node1</title>
<g id="a_node2"><a xlink:href="container_8h.html" target="_top" xlink:title="base/std_ext/container.h">
<polygon fill="white" stroke="black" points="61,-56.5 61,-75.5 185,-75.5 185,-56.5 61,-56.5"/>
<text text-anchor="middle" x="123" y="-63.5" font-family="Helvetica,sans-Serif" font-size="10.00">base/std_ext/container.h</text>
</a>
</g>
</g>
<!-- Node0&#45;&gt;Node1 -->
<g id="edge1" class="edge"><title>Node0&#45;&gt;Node1</title>
<path fill="none" stroke="midnightblue" d="M222.521,-112.933C200.882,-102.946 172.053,-89.6397 150.994,-79.9205"/>
<polygon fill="midnightblue" stroke="midnightblue" points="152.18,-76.6128 141.633,-75.6 149.246,-82.9685 152.18,-76.6128"/>
</g>
<!-- Node2 -->
<g id="node3" class="node"><title>Node2</title>
<polygon fill="white" stroke="#bfbfbf" points="202,-0.5 202,-19.5 246,-19.5 246,-0.5 202,-0.5"/>
<text text-anchor="middle" x="224" y="-7.5" font-family="Helvetica,sans-Serif" font-size="10.00">vector</text>
</g>
<!-- Node0&#45;&gt;Node2 -->
<g id="edge10" class="edge"><title>Node0&#45;&gt;Node2</title>
<path fill="none" stroke="midnightblue" d="M245.865,-112.629C241.193,-102.603 235.353,-88.7816 232,-76 227.984,-60.689 225.97,-42.8076 224.968,-29.6796"/>
<polygon fill="midnightblue" stroke="midnightblue" points="228.452,-29.3082 224.324,-19.5507 221.466,-29.7528 228.452,-29.3082"/>
</g>
<!-- Node6 -->
<g id="node7" class="node"><title>Node6</title>
<g id="a_node7"><a xlink:href="base_2std__ext_2math_8h.html" target="_top" xlink:title="base/std_ext/math.h">
<polygon fill="white" stroke="black" points="241,-56.5 241,-75.5 347,-75.5 347,-56.5 241,-56.5"/>
<text text-anchor="middle" x="294" y="-63.5" font-family="Helvetica,sans-Serif" font-size="10.00">base/std_ext/math.h</text>
</a>
</g>
</g>
<!-- Node0&#45;&gt;Node6 -->
<g id="edge6" class="edge"><title>Node0&#45;&gt;Node6</title>
<path fill="none" stroke="midnightblue" d="M262.716,-112.781C268.613,-104.152 276.173,-93.0882 282.384,-83.9987"/>
<polygon fill="midnightblue" stroke="midnightblue" points="285.282,-85.9617 288.034,-75.7305 279.502,-82.0123 285.282,-85.9617"/>
</g>
<!-- Node7 -->
<g id="node8" class="node"><title>Node7</title>
<polygon fill="white" stroke="#bfbfbf" points="342,-0.5 342,-19.5 386,-19.5 386,-0.5 342,-0.5"/>
<text text-anchor="middle" x="364" y="-7.5" font-family="Helvetica,sans-Serif" font-size="10.00">cmath</text>
</g>
<!-- Node0&#45;&gt;Node7 -->
<g id="edge11" class="edge"><title>Node0&#45;&gt;Node7</title>
<path fill="none" stroke="midnightblue" d="M298.615,-114.867C319.03,-107.091 341.496,-94.821 355,-76 364.443,-62.8387 366.173,-44.2455 365.844,-30.3146"/>
<polygon fill="midnightblue" stroke="midnightblue" points="369.313,-29.6982 365.209,-19.9308 362.326,-30.126 369.313,-29.6982"/>
</g>
<!-- Node1&#45;&gt;Node2 -->
<g id="edge2" class="edge"><title>Node1&#45;&gt;Node2</title>
<path fill="none" stroke="midnightblue" d="M139.227,-56.324C155.351,-47.7034 180.3,-34.3643 198.964,-24.3855"/>
<polygon fill="midnightblue" stroke="midnightblue" points="200.644,-27.456 207.813,-19.6545 197.344,-21.283 200.644,-27.456"/>
</g>
<!-- Node3 -->
<g id="node4" class="node"><title>Node3</title>
<polygon fill="white" stroke="#bfbfbf" points="128,-0.5 128,-19.5 184,-19.5 184,-0.5 128,-0.5"/>
<text text-anchor="middle" x="156" y="-7.5" font-family="Helvetica,sans-Serif" font-size="10.00">algorithm</text>
</g>
<!-- Node1&#45;&gt;Node3 -->
<g id="edge3" class="edge"><title>Node1&#45;&gt;Node3</title>
<path fill="none" stroke="midnightblue" d="M128.449,-56.083C133.014,-48.6127 139.668,-37.7244 145.293,-28.5199"/>
<polygon fill="midnightblue" stroke="midnightblue" points="148.424,-30.109 150.652,-19.7511 142.451,-26.4588 148.424,-30.109"/>
</g>
<!-- Node4 -->
<g id="node5" class="node"><title>Node4</title>
<polygon fill="white" stroke="#bfbfbf" points="-0.5,-0.5 -0.5,-19.5 50.5,-19.5 50.5,-0.5 -0.5,-0.5"/>
<text text-anchor="middle" x="25" y="-7.5" font-family="Helvetica,sans-Serif" font-size="10.00">numeric</text>
</g>
<!-- Node1&#45;&gt;Node4 -->
<g id="edge4" class="edge"><title>Node1&#45;&gt;Node4</title>
<path fill="none" stroke="midnightblue" d="M107.255,-56.324C91.6813,-47.7428 67.6227,-34.486 49.5407,-24.5224"/>
<polygon fill="midnightblue" stroke="midnightblue" points="51.1539,-21.4152 40.7063,-19.6545 47.7756,-27.546 51.1539,-21.4152"/>
</g>
<!-- Node5 -->
<g id="node6" class="node"><title>Node5</title>
<polygon fill="white" stroke="#bfbfbf" points="68.5,-0.5 68.5,-19.5 109.5,-19.5 109.5,-0.5 68.5,-0.5"/>
<text text-anchor="middle" x="89" y="-7.5" font-family="Helvetica,sans-Serif" font-size="10.00">string</text>
</g>
<!-- Node1&#45;&gt;Node5 -->
<g id="edge5" class="edge"><title>Node1&#45;&gt;Node5</title>
<path fill="none" stroke="midnightblue" d="M117.386,-56.083C112.633,-48.5341 105.682,-37.4948 99.8484,-28.2298"/>
<polygon fill="midnightblue" stroke="midnightblue" points="102.8,-26.3486 94.5099,-19.7511 96.8763,-30.0783 102.8,-26.3486"/>
</g>
<!-- Node6&#45;&gt;Node2 -->
<g id="edge9" class="edge"><title>Node6&#45;&gt;Node2</title>
<path fill="none" stroke="midnightblue" d="M282.753,-56.324C272.203,-48.1849 256.199,-35.8395 243.558,-26.0874"/>
<polygon fill="midnightblue" stroke="midnightblue" points="245.507,-23.1707 235.451,-19.8339 241.231,-28.7132 245.507,-23.1707"/>
</g>
<!-- Node6&#45;&gt;Node7 -->
<g id="edge7" class="edge"><title>Node6&#45;&gt;Node7</title>
<path fill="none" stroke="midnightblue" d="M305.247,-56.324C315.797,-48.1849 331.801,-35.8395 344.442,-26.0874"/>
<polygon fill="midnightblue" stroke="midnightblue" points="346.769,-28.7132 352.549,-19.8339 342.493,-23.1707 346.769,-28.7132"/>
</g>
<!-- Node8 -->
<g id="node9" class="node"><title>Node8</title>
<polygon fill="white" stroke="#bfbfbf" points="274,-0.5 274,-19.5 314,-19.5 314,-0.5 274,-0.5"/>
<text text-anchor="middle" x="294" y="-7.5" font-family="Helvetica,sans-Serif" font-size="10.00">limits</text>
</g>
<!-- Node6&#45;&gt;Node8 -->
<g id="edge8" class="edge"><title>Node6&#45;&gt;Node8</title>
<path fill="none" stroke="midnightblue" d="M294,-56.083C294,-49.0059 294,-38.8611 294,-29.9865"/>
<polygon fill="midnightblue" stroke="midnightblue" points="297.5,-29.751 294,-19.7511 290.5,-29.7511 297.5,-29.751"/>
</g>
</g>
</svg>
