<?xml version="1.0" encoding="UTF-8" standalone="no"?>
<!DOCTYPE svg PUBLIC "-//W3C//DTD SVG 1.1//EN"
 "http://www.w3.org/Graphics/SVG/1.1/DTD/svg11.dtd">
<!-- Generated by graphviz version 2.36.0 (20140111.2315)
 -->
<!-- Title: src/base/math_functions/CrystalBall.cc Pages: 1 -->
<svg width="203pt" height="96pt"
 viewBox="0.00 0.00 203.00 96.00" xmlns="http://www.w3.org/2000/svg" xmlns:xlink="http://www.w3.org/1999/xlink">
<g id="graph0" class="graph" transform="scale(1 1) rotate(0) translate(4 92)">
<title>src/base/math_functions/CrystalBall.cc</title>
<polygon fill="white" stroke="none" points="-4,4 -4,-92 199,-92 199,4 -4,4"/>
<!-- Node0 -->
<g id="node1" class="node"><title>Node0</title>
<polygon fill="#bfbfbf" stroke="black" points="50,-57 50,-87 174,-87 174,-57 50,-57"/>
<text text-anchor="start" x="58" y="-75" font-family="Helvetica,sans-Serif" font-size="10.00">src/base/math_functions</text>
<text text-anchor="middle" x="112" y="-64" font-family="Helvetica,sans-Serif" font-size="10.00">/CrystalBall.cc</text>
</g>
<!-- Node1 -->
<g id="node2" class="node"><title>Node1</title>
<g id="a_node2"><a xlink:href="_crystal_ball_8h.html" target="_top" xlink:title="CrystalBall.h">
<polygon fill="white" stroke="black" points="-0.5,-0.5 -0.5,-19.5 72.5,-19.5 72.5,-0.5 -0.5,-0.5"/>
<text text-anchor="middle" x="36" y="-7.5" font-family="Helvetica,sans-Serif" font-size="10.00">CrystalBall.h</text>
</a>
</g>
</g>
<!-- Node0&#45;&gt;Node1 -->
<g id="edge1" class="edge"><title>Node0&#45;&gt;Node1</title>
<path fill="none" stroke="midnightblue" d="M93.9891,-56.7808C82.2622,-47.5228 66.9849,-35.4618 55.0551,-26.0435"/>
<polygon fill="midnightblue" stroke="midnightblue" points="57.0763,-23.1799 47.0587,-19.7305 52.7388,-28.6741 57.0763,-23.1799"/>
</g>
<!-- Node2 -->
<g id="node3" class="node"><title>Node2</title>
<polygon fill="white" stroke="#bfbfbf" points="91,-0.5 91,-19.5 133,-19.5 133,-0.5 91,-0.5"/>
<text text-anchor="middle" x="112" y="-7.5" font-family="Helvetica,sans-Serif" font-size="10.00">TF1.h</text>
</g>
<!-- Node0&#45;&gt;Node2 -->
<g id="edge2" class="edge"><title>Node0&#45;&gt;Node2</title>
<path fill="none" stroke="midnightblue" d="M112,-56.7808C112,-48.7812 112,-38.6887 112,-30.0168"/>
<polygon fill="midnightblue" stroke="midnightblue" points="115.5,-29.7305 112,-19.7305 108.5,-29.7306 115.5,-29.7305"/>
</g>
<!-- Node3 -->
<g id="node4" class="node"><title>Node3</title>
<polygon fill="white" stroke="#bfbfbf" points="151,-0.5 151,-19.5 195,-19.5 195,-0.5 151,-0.5"/>
<text text-anchor="middle" x="173" y="-7.5" font-family="Helvetica,sans-Serif" font-size="10.00">cmath</text>
</g>
<!-- Node0&#45;&gt;Node3 -->
<g id="edge3" class="edge"><title>Node0&#45;&gt;Node3</title>
<path fill="none" stroke="midnightblue" d="M126.456,-56.7808C135.594,-47.7925 147.419,-36.162 156.862,-26.8731"/>
<polygon fill="midnightblue" stroke="midnightblue" points="159.449,-29.2382 164.124,-19.7305 154.54,-24.2477 159.449,-29.2382"/>
</g>
</g>
</svg>
