<?xml version="1.0" encoding="UTF-8" standalone="no"?>
<!DOCTYPE svg PUBLIC "-//W3C//DTD SVG 1.1//EN"
 "http://www.w3.org/Graphics/SVG/1.1/DTD/svg11.dtd">
<!-- Generated by graphviz version 2.36.0 (20140111.2315)
 -->
<!-- Title: src/base/math_functions/CrystalBall.h Pages: 1 -->
<svg width="696pt" height="108pt"
 viewBox="0.00 0.00 696.00 108.00" xmlns="http://www.w3.org/2000/svg" xmlns:xlink="http://www.w3.org/1999/xlink">
<g id="graph0" class="graph" transform="scale(1 1) rotate(0) translate(4 104)">
<title>src/base/math_functions/CrystalBall.h</title>
<polygon fill="white" stroke="none" points="-4,4 -4,-104 692,-104 692,4 -4,4"/>
<!-- Node1 -->
<g id="node1" class="node"><title>Node1</title>
<polygon fill="#bfbfbf" stroke="black" points="283,-69 283,-99 407,-99 407,-69 283,-69"/>
<text text-anchor="start" x="291" y="-87" font-family="Helvetica,sans-Serif" font-size="10.00">src/base/math_functions</text>
<text text-anchor="middle" x="345" y="-76" font-family="Helvetica,sans-Serif" font-size="10.00">/CrystalBall.h</text>
</g>
<!-- Node2 -->
<g id="node2" class="node"><title>Node2</title>
<g id="a_node2"><a xlink:href="_crystal_ball_8cc.html" target="_top" xlink:title="src/base/math_functions\l/CrystalBall.cc">
<polygon fill="white" stroke="black" points="0,-1 0,-31 124,-31 124,-1 0,-1"/>
<text text-anchor="start" x="8" y="-19" font-family="Helvetica,sans-Serif" font-size="10.00">src/base/math_functions</text>
<text text-anchor="middle" x="62" y="-8" font-family="Helvetica,sans-Serif" font-size="10.00">/CrystalBall.cc</text>
</a>
</g>
</g>
<!-- Node1&#45;&gt;Node2 -->
<g id="edge1" class="edge"><title>Node1&#45;&gt;Node2</title>
<path fill="none" stroke="midnightblue" d="M274.86,-66.6422C227.984,-55.7101 166.956,-41.4774 122.271,-31.0561"/>
<polygon fill="midnightblue" stroke="midnightblue" points="274.103,-70.0595 284.637,-68.9223 275.693,-63.2425 274.103,-70.0595"/>
</g>
<!-- Node3 -->
<g id="node3" class="node"><title>Node3</title>
<g id="a_node3"><a xlink:href="_fits_8cc.html" target="_top" xlink:title="src/root&#45;addons/analysis\l_codes/Fits.cc">
<polygon fill="white" stroke="black" points="142.5,-1 142.5,-31 265.5,-31 265.5,-1 142.5,-1"/>
<text text-anchor="start" x="150.5" y="-19" font-family="Helvetica,sans-Serif" font-size="10.00">src/root&#45;addons/analysis</text>
<text text-anchor="middle" x="204" y="-8" font-family="Helvetica,sans-Serif" font-size="10.00">_codes/Fits.cc</text>
</a>
</g>
</g>
<!-- Node1&#45;&gt;Node3 -->
<g id="edge2" class="edge"><title>Node1&#45;&gt;Node3</title>
<path fill="none" stroke="midnightblue" d="M305.436,-64.4805C282.859,-53.9128 255.003,-40.8738 234.198,-31.1352"/>
<polygon fill="midnightblue" stroke="midnightblue" points="304.211,-67.7718 314.752,-68.8413 307.179,-61.432 304.211,-67.7718"/>
</g>
<!-- Node4 -->
<g id="node4" class="node"><title>Node4</title>
<g id="a_node4"><a xlink:href="root-addons_2analysis__codes_2math_8cc.html" target="_top" xlink:title="src/root&#45;addons/analysis\l_codes/Math.cc">
<polygon fill="white" stroke="black" points="283.5,-1 283.5,-31 406.5,-31 406.5,-1 283.5,-1"/>
<text text-anchor="start" x="291.5" y="-19" font-family="Helvetica,sans-Serif" font-size="10.00">src/root&#45;addons/analysis</text>
<text text-anchor="middle" x="345" y="-8" font-family="Helvetica,sans-Serif" font-size="10.00">_codes/Math.cc</text>
</a>
</g>
</g>
<!-- Node1&#45;&gt;Node4 -->
<g id="edge3" class="edge"><title>Node1&#45;&gt;Node4</title>
<path fill="none" stroke="midnightblue" d="M345,-58.5322C345,-49.3606 345,-39.2449 345,-31.2931"/>
<polygon fill="midnightblue" stroke="midnightblue" points="341.5,-58.6789 345,-68.679 348.5,-58.679 341.5,-58.6789"/>
</g>
<!-- Node5 -->
<g id="node5" class="node"><title>Node5</title>
<g id="a_node5"><a xlink:href="_omega_8cc.html" target="_top" xlink:title="src/root&#45;addons/analysis\l_codes/Omega.cc">
<polygon fill="white" stroke="black" points="424.5,-1 424.5,-31 547.5,-31 547.5,-1 424.5,-1"/>
<text text-anchor="start" x="432.5" y="-19" font-family="Helvetica,sans-Serif" font-size="10.00">src/root&#45;addons/analysis</text>
<text text-anchor="middle" x="486" y="-8" font-family="Helvetica,sans-Serif" font-size="10.00">_codes/Omega.cc</text>
</a>
</g>
</g>
<!-- Node1&#45;&gt;Node5 -->
<g id="edge4" class="edge"><title>Node1&#45;&gt;Node5</title>
<path fill="none" stroke="midnightblue" d="M384.564,-64.4805C407.141,-53.9128 434.997,-40.8738 455.802,-31.1352"/>
<polygon fill="midnightblue" stroke="midnightblue" points="382.821,-61.432 375.248,-68.8413 385.789,-67.7718 382.821,-61.432"/>
</g>
<!-- Node6 -->
<g id="node6" class="node"><title>Node6</title>
<g id="a_node6"><a xlink:href="pi0_8cc.html" target="_top" xlink:title="src/root&#45;addons/analysis\l_codes/pi0.cc">
<polygon fill="white" stroke="black" points="565.5,-1 565.5,-31 688.5,-31 688.5,-1 565.5,-1"/>
<text text-anchor="start" x="573.5" y="-19" font-family="Helvetica,sans-Serif" font-size="10.00">src/root&#45;addons/analysis</text>
<text text-anchor="middle" x="627" y="-8" font-family="Helvetica,sans-Serif" font-size="10.00">_codes/pi0.cc</text>
</a>
</g>
</g>
<!-- Node1&#45;&gt;Node6 -->
<g id="edge5" class="edge"><title>Node1&#45;&gt;Node6</title>
<path fill="none" stroke="midnightblue" d="M414.893,-66.6422C461.602,-55.7101 522.415,-41.4774 566.942,-31.0561"/>
<polygon fill="midnightblue" stroke="midnightblue" points="414.089,-63.2355 405.15,-68.9223 415.685,-70.0513 414.089,-63.2355"/>
</g>
</g>
</svg>
