<?xml version="1.0" encoding="UTF-8" standalone="no"?>
<!DOCTYPE svg PUBLIC "-//W3C//DTD SVG 1.1//EN"
 "http://www.w3.org/Graphics/SVG/1.1/DTD/svg11.dtd">
<!-- Generated by graphviz version 2.36.0 (20140111.2315)
 -->
<!-- Title: src/analysis/plot/CutTree.h Pages: 1 -->
<svg width="1825pt" height="106pt"
 viewBox="0.00 0.00 1825.00 106.00" xmlns="http://www.w3.org/2000/svg" xmlns:xlink="http://www.w3.org/1999/xlink">
<g id="graph0" class="graph" transform="scale(1 1) rotate(0) translate(4 102)">
<title>src/analysis/plot/CutTree.h</title>
<polygon fill="white" stroke="none" points="-4,4 -4,-102 1821,-102 1821,4 -4,4"/>
<!-- Node32 -->
<g id="node1" class="node"><title>Node32</title>
<polygon fill="#bfbfbf" stroke="black" points="834,-78.5 834,-97.5 968,-97.5 968,-78.5 834,-78.5"/>
<text text-anchor="middle" x="901" y="-85.5" font-family="Helvetica,sans-Serif" font-size="10.00">src/analysis/plot/CutTree.h</text>
</g>
<!-- Node33 -->
<g id="node2" class="node"><title>Node33</title>
<g id="a_node2"><a xlink:href="_p_i_d_efficiency_check_8cc.html" target="_top" xlink:title="src/analysis/physics\l/check/PIDEfficiencyCheck.cc">
<polygon fill="white" stroke="black" points="0,-6 0,-36 152,-36 152,-6 0,-6"/>
<text text-anchor="start" x="8" y="-24" font-family="Helvetica,sans-Serif" font-size="10.00">src/analysis/physics</text>
<text text-anchor="middle" x="76" y="-13" font-family="Helvetica,sans-Serif" font-size="10.00">/check/PIDEfficiencyCheck.cc</text>
</a>
</g>
</g>
<!-- Node32&#45;&gt;Node33 -->
<g id="edge1" class="edge"><title>Node32&#45;&gt;Node33</title>
<path fill="none" stroke="midnightblue" d="M823.517,-86.6176C688.317,-84.9876 400.84,-77.2463 161,-42 150.801,-40.5011 140.023,-38.3874 129.693,-36.0912"/>
<polygon fill="midnightblue" stroke="midnightblue" points="823.731,-90.1201 833.77,-86.7329 823.81,-83.1205 823.731,-90.1201"/>
</g>
<!-- Node34 -->
<g id="node3" class="node"><title>Node34</title>
<g id="a_node3"><a xlink:href="_meson_dalitz_decays__plot_8cc.html" target="_top" xlink:title="src/analysis/physics\l/common/MesonDalitzDecays\l_plot.cc">
<polygon fill="white" stroke="black" points="170.5,-0.5 170.5,-41.5 319.5,-41.5 319.5,-0.5 170.5,-0.5"/>
<text text-anchor="start" x="178.5" y="-29.5" font-family="Helvetica,sans-Serif" font-size="10.00">src/analysis/physics</text>
<text text-anchor="start" x="178.5" y="-18.5" font-family="Helvetica,sans-Serif" font-size="10.00">/common/MesonDalitzDecays</text>
<text text-anchor="middle" x="245" y="-7.5" font-family="Helvetica,sans-Serif" font-size="10.00">_plot.cc</text>
</a>
</g>
</g>
<!-- Node32&#45;&gt;Node34 -->
<g id="edge2" class="edge"><title>Node32&#45;&gt;Node34</title>
<path fill="none" stroke="midnightblue" d="M823.939,-84.8133C713.495,-80.8053 504.084,-69.9495 328,-42 325.219,-41.5585 322.393,-41.0724 319.545,-40.5507"/>
<polygon fill="midnightblue" stroke="midnightblue" points="823.872,-88.313 833.989,-85.169 824.119,-81.3174 823.872,-88.313"/>
</g>
<!-- Node35 -->
<g id="node4" class="node"><title>Node35</title>
<g id="a_node4"><a xlink:href="_etap_dalitz__plot_8cc.html" target="_top" xlink:title="src/analysis/physics\l/etaprime/EtapDalitz\l_plot.cc">
<polygon fill="white" stroke="black" points="337,-0.5 337,-41.5 443,-41.5 443,-0.5 337,-0.5"/>
<text text-anchor="start" x="345" y="-29.5" font-family="Helvetica,sans-Serif" font-size="10.00">src/analysis/physics</text>
<text text-anchor="start" x="345" y="-18.5" font-family="Helvetica,sans-Serif" font-size="10.00">/etaprime/EtapDalitz</text>
<text text-anchor="middle" x="390" y="-7.5" font-family="Helvetica,sans-Serif" font-size="10.00">_plot.cc</text>
</a>
</g>
</g>
<!-- Node32&#45;&gt;Node35 -->
<g id="edge3" class="edge"><title>Node32&#45;&gt;Node35</title>
<path fill="none" stroke="midnightblue" d="M823.631,-84.2285C733.546,-79.8569 580.667,-68.8821 452,-42 449.122,-41.3986 446.188,-40.7131 443.241,-39.9667"/>
<polygon fill="midnightblue" stroke="midnightblue" points="823.608,-87.7312 833.761,-84.705 823.937,-80.7389 823.608,-87.7312"/>
</g>
<!-- Node36 -->
<g id="node5" class="node"><title>Node36</title>
<g id="a_node5"><a xlink:href="_etap_omega_g__plot_8cc.html" target="_top" xlink:title="src/analysis/physics\l/etaprime/EtapOmegaG\l_plot.cc">
<polygon fill="white" stroke="black" points="461.5,-0.5 461.5,-41.5 580.5,-41.5 580.5,-0.5 461.5,-0.5"/>
<text text-anchor="start" x="469.5" y="-29.5" font-family="Helvetica,sans-Serif" font-size="10.00">src/analysis/physics</text>
<text text-anchor="start" x="469.5" y="-18.5" font-family="Helvetica,sans-Serif" font-size="10.00">/etaprime/EtapOmegaG</text>
<text text-anchor="middle" x="521" y="-7.5" font-family="Helvetica,sans-Serif" font-size="10.00">_plot.cc</text>
</a>
</g>
</g>
<!-- Node32&#45;&gt;Node36 -->
<g id="edge4" class="edge"><title>Node32&#45;&gt;Node36</title>
<path fill="none" stroke="midnightblue" d="M823.496,-78.8061C760.252,-71.3978 668.798,-59.0351 590,-42 586.952,-41.3411 583.842,-40.6202 580.71,-39.8557"/>
<polygon fill="midnightblue" stroke="midnightblue" points="823.452,-82.3244 833.788,-79.9972 824.257,-75.3708 823.452,-82.3244"/>
</g>
<!-- Node37 -->
<g id="node6" class="node"><title>Node37</title>
<g id="a_node6"><a xlink:href="_omega___ep_em__plot_8cc.html" target="_top" xlink:title="src/analysis/physics\l/omega/Omega_EpEm_plot.cc">
<polygon fill="white" stroke="black" points="599,-6 599,-36 749,-36 749,-6 599,-6"/>
<text text-anchor="start" x="607" y="-24" font-family="Helvetica,sans-Serif" font-size="10.00">src/analysis/physics</text>
<text text-anchor="middle" x="674" y="-13" font-family="Helvetica,sans-Serif" font-size="10.00">/omega/Omega_EpEm_plot.cc</text>
</a>
</g>
</g>
<!-- Node32&#45;&gt;Node37 -->
<g id="edge5" class="edge"><title>Node32&#45;&gt;Node37</title>
<path fill="none" stroke="midnightblue" d="M861.039,-75.5575C822.553,-64.5371 764.256,-47.8441 722.99,-36.0281"/>
<polygon fill="midnightblue" stroke="midnightblue" points="860.279,-78.9804 870.856,-78.3685 862.206,-72.2509 860.279,-78.9804"/>
</g>
<!-- Node38 -->
<g id="node7" class="node"><title>Node38</title>
<g id="a_node7"><a xlink:href="_omega___eta_g_8cc.html" target="_top" xlink:title="src/analysis/physics\l/omega/Omega_EtaG.cc">
<polygon fill="white" stroke="black" points="766.5,-6 766.5,-36 891.5,-36 891.5,-6 766.5,-6"/>
<text text-anchor="start" x="774.5" y="-24" font-family="Helvetica,sans-Serif" font-size="10.00">src/analysis/physics</text>
<text text-anchor="middle" x="829" y="-13" font-family="Helvetica,sans-Serif" font-size="10.00">/omega/Omega_EtaG.cc</text>
</a>
</g>
</g>
<!-- Node32&#45;&gt;Node38 -->
<g id="edge6" class="edge"><title>Node32&#45;&gt;Node38</title>
<path fill="none" stroke="midnightblue" d="M883.751,-71.428C871.844,-60.6788 856.141,-46.5024 844.606,-36.089"/>
<polygon fill="midnightblue" stroke="midnightblue" points="881.522,-74.1307 891.29,-78.2338 886.212,-68.9348 881.522,-74.1307"/>
</g>
<!-- Node39 -->
<g id="node8" class="node"><title>Node39</title>
<g id="a_node8"><a xlink:href="sigma_plus_8cc.html" target="_top" xlink:title="src/analysis/physics\l/production/sigmaPlus.cc">
<polygon fill="white" stroke="black" points="909.5,-6 909.5,-36 1036.5,-36 1036.5,-6 909.5,-6"/>
<text text-anchor="start" x="917.5" y="-24" font-family="Helvetica,sans-Serif" font-size="10.00">src/analysis/physics</text>
<text text-anchor="middle" x="973" y="-13" font-family="Helvetica,sans-Serif" font-size="10.00">/production/sigmaPlus.cc</text>
</a>
</g>
</g>
<!-- Node32&#45;&gt;Node39 -->
<g id="edge7" class="edge"><title>Node32&#45;&gt;Node39</title>
<path fill="none" stroke="midnightblue" d="M918.249,-71.428C930.156,-60.6788 945.859,-46.5024 957.394,-36.089"/>
<polygon fill="midnightblue" stroke="midnightblue" points="915.788,-68.9348 910.71,-78.2338 920.478,-74.1307 915.788,-68.9348"/>
</g>
<!-- Node40 -->
<g id="node9" class="node"><title>Node40</title>
<g id="a_node9"><a xlink:href="sigma_plus_plots_8cc.html" target="_top" xlink:title="src/analysis/physics\l/production/sigmaPlusPlots.cc">
<polygon fill="white" stroke="black" points="1054.5,-6 1054.5,-36 1203.5,-36 1203.5,-6 1054.5,-6"/>
<text text-anchor="start" x="1062.5" y="-24" font-family="Helvetica,sans-Serif" font-size="10.00">src/analysis/physics</text>
<text text-anchor="middle" x="1129" y="-13" font-family="Helvetica,sans-Serif" font-size="10.00">/production/sigmaPlusPlots.cc</text>
</a>
</g>
</g>
<!-- Node32&#45;&gt;Node40 -->
<g id="edge8" class="edge"><title>Node32&#45;&gt;Node40</title>
<path fill="none" stroke="midnightblue" d="M941.137,-75.5575C979.793,-64.5371 1038.35,-47.8441 1079.79,-36.0281"/>
<polygon fill="midnightblue" stroke="midnightblue" points="939.934,-72.2609 931.277,-78.3685 941.853,-78.9927 939.934,-72.2609"/>
</g>
<!-- Node41 -->
<g id="node10" class="node"><title>Node41</title>
<g id="a_node10"><a xlink:href="single_pi0_plots_8cc.html" target="_top" xlink:title="src/analysis/physics\l/production/singlePi0Plots.cc">
<polygon fill="white" stroke="black" points="1221.5,-6 1221.5,-36 1364.5,-36 1364.5,-6 1221.5,-6"/>
<text text-anchor="start" x="1229.5" y="-24" font-family="Helvetica,sans-Serif" font-size="10.00">src/analysis/physics</text>
<text text-anchor="middle" x="1293" y="-13" font-family="Helvetica,sans-Serif" font-size="10.00">/production/singlePi0Plots.cc</text>
</a>
</g>
</g>
<!-- Node32&#45;&gt;Node41 -->
<g id="edge9" class="edge"><title>Node32&#45;&gt;Node41</title>
<path fill="none" stroke="midnightblue" d="M978.33,-77.9582C1041.47,-70.0607 1132.88,-57.4538 1212,-42 1220.81,-40.2785 1230.11,-38.2178 1239.14,-36.0831"/>
<polygon fill="midnightblue" stroke="midnightblue" points="977.547,-74.5284 968.054,-79.2331 978.409,-81.4751 977.547,-74.5284"/>
</g>
<!-- Node42 -->
<g id="node11" class="node"><title>Node42</title>
<g id="a_node11"><a xlink:href="triple_pi0_8cc.html" target="_top" xlink:title="src/analysis/physics\l/production/triplePi0.cc">
<polygon fill="white" stroke="black" points="1383,-6 1383,-36 1499,-36 1499,-6 1383,-6"/>
<text text-anchor="start" x="1391" y="-24" font-family="Helvetica,sans-Serif" font-size="10.00">src/analysis/physics</text>
<text text-anchor="middle" x="1441" y="-13" font-family="Helvetica,sans-Serif" font-size="10.00">/production/triplePi0.cc</text>
</a>
</g>
</g>
<!-- Node32&#45;&gt;Node42 -->
<g id="edge10" class="edge"><title>Node32&#45;&gt;Node42</title>
<path fill="none" stroke="midnightblue" d="M978.004,-84.1734C1071.97,-79.6902 1235.36,-68.5502 1373,-42 1381.1,-40.4384 1389.61,-38.3243 1397.77,-36.0538"/>
<polygon fill="midnightblue" stroke="midnightblue" points="977.84,-80.6772 968.013,-84.6374 978.164,-87.6697 977.84,-80.6772"/>
</g>
<!-- Node43 -->
<g id="node12" class="node"><title>Node43</title>
<g id="a_node12"><a xlink:href="triple_pi0_plots_8cc.html" target="_top" xlink:title="src/analysis/physics\l/production/triplePi0Plots.cc">
<polygon fill="white" stroke="black" points="1517.5,-6 1517.5,-36 1656.5,-36 1656.5,-6 1517.5,-6"/>
<text text-anchor="start" x="1525.5" y="-24" font-family="Helvetica,sans-Serif" font-size="10.00">src/analysis/physics</text>
<text text-anchor="middle" x="1587" y="-13" font-family="Helvetica,sans-Serif" font-size="10.00">/production/triplePi0Plots.cc</text>
</a>
</g>
</g>
<!-- Node32&#45;&gt;Node43 -->
<g id="edge11" class="edge"><title>Node32&#45;&gt;Node43</title>
<path fill="none" stroke="midnightblue" d="M978.416,-85.4765C1094.11,-82.2482 1318.69,-72.3026 1507,-42 1516.61,-40.4533 1526.76,-38.3172 1536.49,-36.0139"/>
<polygon fill="midnightblue" stroke="midnightblue" points="978.144,-81.9825 968.242,-85.7508 978.332,-88.9799 978.144,-81.9825"/>
</g>
<!-- Node44 -->
<g id="node13" class="node"><title>Node44</title>
<g id="a_node13"><a xlink:href="physics_2tunings_2_trigger_simulation_8cc.html" target="_top" xlink:title="src/analysis/physics\l/tunings/TriggerSimulation.cc">
<polygon fill="white" stroke="black" points="1674.5,-6 1674.5,-36 1817.5,-36 1817.5,-6 1674.5,-6"/>
<text text-anchor="start" x="1682.5" y="-24" font-family="Helvetica,sans-Serif" font-size="10.00">src/analysis/physics</text>
<text text-anchor="middle" x="1746" y="-13" font-family="Helvetica,sans-Serif" font-size="10.00">/tunings/TriggerSimulation.cc</text>
</a>
</g>
</g>
<!-- Node32&#45;&gt;Node44 -->
<g id="edge12" class="edge"><title>Node32&#45;&gt;Node44</title>
<path fill="none" stroke="midnightblue" d="M978.198,-87.1094C1116.63,-86.2731 1415.89,-79.7648 1665,-42 1674.88,-40.502 1685.32,-38.3585 1695.3,-36.0264"/>
<polygon fill="midnightblue" stroke="midnightblue" points="978.093,-83.6098 968.111,-87.1619 978.129,-90.6097 978.093,-83.6098"/>
</g>
</g>
</svg>
