<?xml version="1.0" encoding="UTF-8" standalone="no"?>
<!DOCTYPE svg PUBLIC "-//W3C//DTD SVG 1.1//EN"
 "http://www.w3.org/Graphics/SVG/1.1/DTD/svg11.dtd">
<!-- Generated by graphviz version 2.36.0 (20140111.2315)
 -->
<!-- Title: src/analysis/input/DataReader.h Pages: 1 -->
<svg width="275pt" height="208pt"
 viewBox="0.00 0.00 275.00 208.00" xmlns="http://www.w3.org/2000/svg" xmlns:xlink="http://www.w3.org/1999/xlink">
<g id="graph0" class="graph" transform="scale(1 1) rotate(0) translate(4 204)">
<title>src/analysis/input/DataReader.h</title>
<polygon fill="white" stroke="none" points="-4,4 -4,-204 271,-204 271,4 -4,4"/>
<!-- Node0 -->
<g id="node1" class="node"><title>Node0</title>
<polygon fill="#bfbfbf" stroke="black" points="127.5,-169 127.5,-199 220.5,-199 220.5,-169 127.5,-169"/>
<text text-anchor="start" x="135.5" y="-187" font-family="Helvetica,sans-Serif" font-size="10.00">src/analysis/input</text>
<text text-anchor="middle" x="174" y="-176" font-family="Helvetica,sans-Serif" font-size="10.00">/DataReader.h</text>
</g>
<!-- Node1 -->
<g id="node2" class="node"><title>Node1</title>
<g id="a_node2"><a xlink:href="input_2event__t_8h.html" target="_top" xlink:title="event_t.h">
<polygon fill="white" stroke="black" points="97.5,-112.5 97.5,-131.5 154.5,-131.5 154.5,-112.5 97.5,-112.5"/>
<text text-anchor="middle" x="126" y="-119.5" font-family="Helvetica,sans-Serif" font-size="10.00">event_t.h</text>
</a>
</g>
</g>
<!-- Node0&#45;&gt;Node1 -->
<g id="edge1" class="edge"><title>Node0&#45;&gt;Node1</title>
<path fill="none" stroke="midnightblue" d="M162.625,-168.781C155.65,-160.062 146.686,-148.857 139.372,-139.715"/>
<polygon fill="midnightblue" stroke="midnightblue" points="141.964,-137.353 132.984,-131.731 136.498,-141.726 141.964,-137.353"/>
</g>
<!-- Node6 -->
<g id="node7" class="node"><title>Node6</title>
<g id="a_node7"><a xlink:href="reader__flags__t_8h.html" target="_top" xlink:title="reader_flags_t.h">
<polygon fill="white" stroke="black" points="180,-112.5 180,-131.5 266,-131.5 266,-112.5 180,-112.5"/>
<text text-anchor="middle" x="223" y="-119.5" font-family="Helvetica,sans-Serif" font-size="10.00">reader_flags_t.h</text>
</a>
</g>
</g>
<!-- Node0&#45;&gt;Node6 -->
<g id="edge6" class="edge"><title>Node0&#45;&gt;Node6</title>
<path fill="none" stroke="midnightblue" d="M185.612,-168.781C192.733,-160.062 201.883,-148.857 209.349,-139.715"/>
<polygon fill="midnightblue" stroke="midnightblue" points="212.256,-141.69 215.87,-131.731 206.834,-137.262 212.256,-141.69"/>
</g>
<!-- Node2 -->
<g id="node3" class="node"><title>Node2</title>
<g id="a_node3"><a xlink:href="_t_event_8h.html" target="_top" xlink:title="tree/TEvent.h">
<polygon fill="white" stroke="black" points="74,-56.5 74,-75.5 150,-75.5 150,-56.5 74,-56.5"/>
<text text-anchor="middle" x="112" y="-63.5" font-family="Helvetica,sans-Serif" font-size="10.00">tree/TEvent.h</text>
</a>
</g>
</g>
<!-- Node1&#45;&gt;Node2 -->
<g id="edge2" class="edge"><title>Node1&#45;&gt;Node2</title>
<path fill="none" stroke="midnightblue" d="M123.688,-112.083C121.833,-104.927 119.165,-94.6353 116.846,-85.6911"/>
<polygon fill="midnightblue" stroke="midnightblue" points="120.166,-84.5527 114.269,-75.7511 113.391,-86.3094 120.166,-84.5527"/>
</g>
<!-- Node3 -->
<g id="node4" class="node"><title>Node3</title>
<polygon fill="white" stroke="#bfbfbf" points="0,-0.5 0,-19.5 56,-19.5 56,-0.5 0,-0.5"/>
<text text-anchor="middle" x="28" y="-7.5" font-family="Helvetica,sans-Serif" font-size="10.00">Rtypes.h</text>
</g>
<!-- Node2&#45;&gt;Node3 -->
<g id="edge3" class="edge"><title>Node2&#45;&gt;Node3</title>
<path fill="none" stroke="midnightblue" d="M98.5039,-56.324C85.4004,-47.9002 65.2881,-34.9709 49.8931,-25.0741"/>
<polygon fill="midnightblue" stroke="midnightblue" points="51.767,-22.118 41.4626,-19.6545 47.9817,-28.0063 51.767,-22.118"/>
</g>
<!-- Node4 -->
<g id="node5" class="node"><title>Node4</title>
<polygon fill="white" stroke="#bfbfbf" points="74,-0.5 74,-19.5 126,-19.5 126,-0.5 74,-0.5"/>
<text text-anchor="middle" x="100" y="-7.5" font-family="Helvetica,sans-Serif" font-size="10.00">memory</text>
</g>
<!-- Node2&#45;&gt;Node4 -->
<g id="edge4" class="edge"><title>Node2&#45;&gt;Node4</title>
<path fill="none" stroke="midnightblue" d="M110.018,-56.083C108.428,-48.9272 106.141,-38.6353 104.154,-29.6911"/>
<polygon fill="midnightblue" stroke="midnightblue" points="107.531,-28.7537 101.945,-19.7511 100.697,-30.2722 107.531,-28.7537"/>
</g>
<!-- Node5 -->
<g id="node6" class="node"><title>Node5</title>
<polygon fill="white" stroke="#bfbfbf" points="144.5,-0.5 144.5,-19.5 203.5,-19.5 203.5,-0.5 144.5,-0.5"/>
<text text-anchor="middle" x="174" y="-7.5" font-family="Helvetica,sans-Serif" font-size="10.00">stdexcept</text>
</g>
<!-- Node2&#45;&gt;Node5 -->
<g id="edge5" class="edge"><title>Node2&#45;&gt;Node5</title>
<path fill="none" stroke="midnightblue" d="M121.961,-56.324C131.127,-48.3414 144.937,-36.3128 156.028,-26.6529"/>
<polygon fill="midnightblue" stroke="midnightblue" points="158.615,-29.041 163.857,-19.8339 154.018,-23.7624 158.615,-29.041"/>
</g>
<!-- Node7 -->
<g id="node8" class="node"><title>Node7</title>
<g id="a_node8"><a xlink:href="bitflag_8h.html" target="_top" xlink:title="base/bitflag.h">
<polygon fill="white" stroke="black" points="192.5,-56.5 192.5,-75.5 267.5,-75.5 267.5,-56.5 192.5,-56.5"/>
<text text-anchor="middle" x="230" y="-63.5" font-family="Helvetica,sans-Serif" font-size="10.00">base/bitflag.h</text>
</a>
</g>
</g>
<!-- Node6&#45;&gt;Node7 -->
<g id="edge7" class="edge"><title>Node6&#45;&gt;Node7</title>
<path fill="none" stroke="midnightblue" d="M224.156,-112.083C225.084,-104.927 226.418,-94.6353 227.577,-85.6911"/>
<polygon fill="midnightblue" stroke="midnightblue" points="231.051,-86.1181 228.866,-75.7511 224.109,-85.2181 231.051,-86.1181"/>
</g>
<!-- Node8 -->
<g id="node9" class="node"><title>Node8</title>
<polygon fill="white" stroke="#bfbfbf" points="221.5,-0.5 221.5,-19.5 262.5,-19.5 262.5,-0.5 221.5,-0.5"/>
<text text-anchor="middle" x="242" y="-7.5" font-family="Helvetica,sans-Serif" font-size="10.00">bitset</text>
</g>
<!-- Node7&#45;&gt;Node8 -->
<g id="edge8" class="edge"><title>Node7&#45;&gt;Node8</title>
<path fill="none" stroke="midnightblue" d="M231.982,-56.083C233.572,-48.9272 235.859,-38.6353 237.846,-29.6911"/>
<polygon fill="midnightblue" stroke="midnightblue" points="241.303,-30.2722 240.055,-19.7511 234.469,-28.7537 241.303,-30.2722"/>
</g>
</g>
</svg>
