<?xml version="1.0" encoding="UTF-8" standalone="no"?>
<!DOCTYPE svg PUBLIC "-//W3C//DTD SVG 1.1//EN"
 "http://www.w3.org/Graphics/SVG/1.1/DTD/svg11.dtd">
<!-- Generated by graphviz version 2.36.0 (20140111.2315)
 -->
<!-- Title: src/analysis/physics/pi0/DeltaPlusPhysics.h Pages: 1 -->
<svg width="134pt" height="108pt"
 viewBox="0.00 0.00 134.00 108.00" xmlns="http://www.w3.org/2000/svg" xmlns:xlink="http://www.w3.org/1999/xlink">
<g id="graph0" class="graph" transform="scale(1 1) rotate(0) translate(4 104)">
<title>src/analysis/physics/pi0/DeltaPlusPhysics.h</title>
<polygon fill="white" stroke="none" points="-4,4 -4,-104 130,-104 130,4 -4,4"/>
<!-- Node67 -->
<g id="node1" class="node"><title>Node67</title>
<polygon fill="#bfbfbf" stroke="black" points="2,-69 2,-99 124,-99 124,-69 2,-69"/>
<text text-anchor="start" x="10" y="-87" font-family="Helvetica,sans-Serif" font-size="10.00">src/analysis/physics</text>
<text text-anchor="middle" x="63" y="-76" font-family="Helvetica,sans-Serif" font-size="10.00">/pi0/DeltaPlusPhysics.h</text>
</g>
<!-- Node68 -->
<g id="node2" class="node"><title>Node68</title>
<g id="a_node2"><a xlink:href="_delta_plus_physics_8cc.html" target="_top" xlink:title="src/analysis/physics\l/pi0/DeltaPlusPhysics.cc">
<polygon fill="white" stroke="black" points="-0.5,-1 -0.5,-31 126.5,-31 126.5,-1 -0.5,-1"/>
<text text-anchor="start" x="7.5" y="-19" font-family="Helvetica,sans-Serif" font-size="10.00">src/analysis/physics</text>
<text text-anchor="middle" x="63" y="-8" font-family="Helvetica,sans-Serif" font-size="10.00">/pi0/DeltaPlusPhysics.cc</text>
</a>
</g>
</g>
<!-- Node67&#45;&gt;Node68 -->
<g id="edge1" class="edge"><title>Node67&#45;&gt;Node68</title>
<path fill="none" stroke="midnightblue" d="M63,-58.5322C63,-49.3606 63,-39.2449 63,-31.2931"/>
<polygon fill="midnightblue" stroke="midnightblue" points="59.5001,-58.6789 63,-68.679 66.5001,-58.679 59.5001,-58.6789"/>
</g>
</g>
</svg>
