<?xml version="1.0" encoding="UTF-8" standalone="no"?>
<!DOCTYPE svg PUBLIC "-//W3C//DTD SVG 1.1//EN"
 "http://www.w3.org/Graphics/SVG/1.1/DTD/svg11.dtd">
<!-- Generated by graphviz version 2.36.0 (20140111.2315)
 -->
<!-- Title: src/calibration/gui/Dialogs.h Pages: 1 -->
<svg width="336pt" height="96pt"
 viewBox="0.00 0.00 336.00 96.00" xmlns="http://www.w3.org/2000/svg" xmlns:xlink="http://www.w3.org/1999/xlink">
<g id="graph0" class="graph" transform="scale(1 1) rotate(0) translate(4 92)">
<title>src/calibration/gui/Dialogs.h</title>
<polygon fill="white" stroke="none" points="-4,4 -4,-92 332,-92 332,4 -4,4"/>
<!-- Node0 -->
<g id="node1" class="node"><title>Node0</title>
<polygon fill="#bfbfbf" stroke="black" points="94.5,-57 94.5,-87 187.5,-87 187.5,-57 94.5,-57"/>
<text text-anchor="start" x="102.5" y="-75" font-family="Helvetica,sans-Serif" font-size="10.00">src/calibration/gui</text>
<text text-anchor="middle" x="141" y="-64" font-family="Helvetica,sans-Serif" font-size="10.00">/Dialogs.h</text>
</g>
<!-- Node1 -->
<g id="node2" class="node"><title>Node1</title>
<polygon fill="white" stroke="#bfbfbf" points="-0.5,-0.5 -0.5,-19.5 40.5,-19.5 40.5,-0.5 -0.5,-0.5"/>
<text text-anchor="middle" x="20" y="-7.5" font-family="Helvetica,sans-Serif" font-size="10.00">string</text>
</g>
<!-- Node0&#45;&gt;Node1 -->
<g id="edge1" class="edge"><title>Node0&#45;&gt;Node1</title>
<path fill="none" stroke="midnightblue" d="M112.631,-56.9327C92.5813,-46.9907 65.8995,-33.7601 46.3228,-24.0526"/>
<polygon fill="midnightblue" stroke="midnightblue" points="47.8573,-20.9069 37.3434,-19.6 44.7475,-27.1782 47.8573,-20.9069"/>
</g>
<!-- Node2 -->
<g id="node3" class="node"><title>Node2</title>
<polygon fill="white" stroke="#bfbfbf" points="58.5,-0.5 58.5,-19.5 87.5,-19.5 87.5,-0.5 58.5,-0.5"/>
<text text-anchor="middle" x="73" y="-7.5" font-family="Helvetica,sans-Serif" font-size="10.00">list</text>
</g>
<!-- Node0&#45;&gt;Node2 -->
<g id="edge2" class="edge"><title>Node0&#45;&gt;Node2</title>
<path fill="none" stroke="midnightblue" d="M124.885,-56.7808C114.596,-47.7026 101.253,-35.9291 90.6745,-26.5951"/>
<polygon fill="midnightblue" stroke="midnightblue" points="92.7087,-23.7223 82.8946,-19.7305 88.0773,-28.9712 92.7087,-23.7223"/>
</g>
<!-- Node3 -->
<g id="node4" class="node"><title>Node3</title>
<polygon fill="white" stroke="#bfbfbf" points="105.5,-0.5 105.5,-19.5 176.5,-19.5 176.5,-0.5 105.5,-0.5"/>
<text text-anchor="middle" x="141" y="-7.5" font-family="Helvetica,sans-Serif" font-size="10.00">TGListBox.h</text>
</g>
<!-- Node0&#45;&gt;Node3 -->
<g id="edge3" class="edge"><title>Node0&#45;&gt;Node3</title>
<path fill="none" stroke="midnightblue" d="M141,-56.7808C141,-48.7812 141,-38.6887 141,-30.0168"/>
<polygon fill="midnightblue" stroke="midnightblue" points="144.5,-29.7305 141,-19.7305 137.5,-29.7306 144.5,-29.7305"/>
</g>
<!-- Node4 -->
<g id="node5" class="node"><title>Node4</title>
<polygon fill="white" stroke="#bfbfbf" points="195,-0.5 195,-19.5 257,-19.5 257,-0.5 195,-0.5"/>
<text text-anchor="middle" x="226" y="-7.5" font-family="Helvetica,sans-Serif" font-size="10.00">TGLabel.h</text>
</g>
<!-- Node0&#45;&gt;Node4 -->
<g id="edge4" class="edge"><title>Node0&#45;&gt;Node4</title>
<path fill="none" stroke="midnightblue" d="M161.144,-56.7808C174.595,-47.2862 192.222,-34.8434 205.704,-25.3267"/>
<polygon fill="midnightblue" stroke="midnightblue" points="207.728,-28.182 213.879,-19.5557 203.691,-22.4632 207.728,-28.182"/>
</g>
<!-- Node5 -->
<g id="node6" class="node"><title>Node5</title>
<polygon fill="white" stroke="#bfbfbf" points="275.5,-0.5 275.5,-19.5 328.5,-19.5 328.5,-0.5 275.5,-0.5"/>
<text text-anchor="middle" x="302" y="-7.5" font-family="Helvetica,sans-Serif" font-size="10.00">TExec.h</text>
</g>
<!-- Node0&#45;&gt;Node5 -->
<g id="edge5" class="edge"><title>Node0&#45;&gt;Node5</title>
<path fill="none" stroke="midnightblue" d="M178.747,-56.9327C206.274,-46.6744 243.195,-32.9148 269.433,-23.1369"/>
<polygon fill="midnightblue" stroke="midnightblue" points="270.775,-26.3718 278.923,-19.6 268.331,-19.8125 270.775,-26.3718"/>
</g>
</g>
</svg>
