<?xml version="1.0" encoding="UTF-8" standalone="no"?>
<!DOCTYPE svg PUBLIC "-//W3C//DTD SVG 1.1//EN"
 "http://www.w3.org/Graphics/SVG/1.1/DTD/svg11.dtd">
<!-- Generated by graphviz version 2.36.0 (20140111.2315)
 -->
<!-- Title: src/expconfig/detectors/detail/EPT_2014_elements.h Pages: 1 -->
<svg width="152pt" height="108pt"
 viewBox="0.00 0.00 152.00 108.00" xmlns="http://www.w3.org/2000/svg" xmlns:xlink="http://www.w3.org/1999/xlink">
<g id="graph0" class="graph" transform="scale(1 1) rotate(0) translate(4 104)">
<title>src/expconfig/detectors/detail/EPT_2014_elements.h</title>
<polygon fill="white" stroke="none" points="-4,4 -4,-104 148,-104 148,4 -4,4"/>
<!-- Node57 -->
<g id="node1" class="node"><title>Node57</title>
<polygon fill="#bfbfbf" stroke="black" points="-0.5,-69 -0.5,-99 144.5,-99 144.5,-69 -0.5,-69"/>
<text text-anchor="start" x="7.5" y="-87" font-family="Helvetica,sans-Serif" font-size="10.00">src/expconfig/detectors</text>
<text text-anchor="middle" x="72" y="-76" font-family="Helvetica,sans-Serif" font-size="10.00">/detail/EPT_2014_elements.h</text>
</g>
<!-- Node58 -->
<g id="node2" class="node"><title>Node58</title>
<g id="a_node2"><a xlink:href="_e_p_t_8cc.html" target="_top" xlink:title="src/expconfig/detectors\l/EPT.cc">
<polygon fill="white" stroke="black" points="12.5,-1 12.5,-31 131.5,-31 131.5,-1 12.5,-1"/>
<text text-anchor="start" x="20.5" y="-19" font-family="Helvetica,sans-Serif" font-size="10.00">src/expconfig/detectors</text>
<text text-anchor="middle" x="72" y="-8" font-family="Helvetica,sans-Serif" font-size="10.00">/EPT.cc</text>
</a>
</g>
</g>
<!-- Node57&#45;&gt;Node58 -->
<g id="edge1" class="edge"><title>Node57&#45;&gt;Node58</title>
<path fill="none" stroke="midnightblue" d="M72,-58.5322C72,-49.3606 72,-39.2449 72,-31.2931"/>
<polygon fill="midnightblue" stroke="midnightblue" points="68.5001,-58.6789 72,-68.679 75.5001,-58.679 68.5001,-58.6789"/>
</g>
</g>
</svg>
