<?xml version="1.0" encoding="UTF-8" standalone="no"?>
<!DOCTYPE svg PUBLIC "-//W3C//DTD SVG 1.1//EN"
 "http://www.w3.org/Graphics/SVG/1.1/DTD/svg11.dtd">
<!-- Generated by graphviz version 2.36.0 (20140111.2315)
 -->
<!-- Title: src/calibration/gui/EditorWindow.h Pages: 1 -->
<svg width="354pt" height="108pt"
 viewBox="0.00 0.00 354.00 108.00" xmlns="http://www.w3.org/2000/svg" xmlns:xlink="http://www.w3.org/1999/xlink">
<g id="graph0" class="graph" transform="scale(1 1) rotate(0) translate(4 104)">
<title>src/calibration/gui/EditorWindow.h</title>
<polygon fill="white" stroke="none" points="-4,4 -4,-104 350,-104 350,4 -4,4"/>
<!-- Node26 -->
<g id="node1" class="node"><title>Node26</title>
<polygon fill="#bfbfbf" stroke="black" points="140.5,-69 140.5,-99 233.5,-99 233.5,-69 140.5,-69"/>
<text text-anchor="start" x="148.5" y="-87" font-family="Helvetica,sans-Serif" font-size="10.00">src/calibration/gui</text>
<text text-anchor="middle" x="187" y="-76" font-family="Helvetica,sans-Serif" font-size="10.00">/EditorWindow.h</text>
</g>
<!-- Node27 -->
<g id="node2" class="node"><title>Node27</title>
<g id="a_node2"><a xlink:href="_ant-calib-editor_8cc.html" target="_top" xlink:title="progs/Ant&#45;calib&#45;editor.cc">
<polygon fill="white" stroke="black" points="0,-6.5 0,-25.5 122,-25.5 122,-6.5 0,-6.5"/>
<text text-anchor="middle" x="61" y="-13.5" font-family="Helvetica,sans-Serif" font-size="10.00">progs/Ant&#45;calib&#45;editor.cc</text>
</a>
</g>
</g>
<!-- Node26&#45;&gt;Node27 -->
<g id="edge1" class="edge"><title>Node26&#45;&gt;Node27</title>
<path fill="none" stroke="midnightblue" d="M151.068,-64.1784C126.901,-51.5196 96.1728,-35.4238 77.5745,-25.6819"/>
<polygon fill="midnightblue" stroke="midnightblue" points="149.487,-67.3016 159.97,-68.8413 152.736,-61.1008 149.487,-67.3016"/>
</g>
<!-- Node28 -->
<g id="node3" class="node"><title>Node28</title>
<g id="a_node3"><a xlink:href="_editor_canvas_8cc.html" target="_top" xlink:title="src/calibration/gui\l/EditorCanvas.cc">
<polygon fill="white" stroke="black" points="140.5,-1 140.5,-31 233.5,-31 233.5,-1 140.5,-1"/>
<text text-anchor="start" x="148.5" y="-19" font-family="Helvetica,sans-Serif" font-size="10.00">src/calibration/gui</text>
<text text-anchor="middle" x="187" y="-8" font-family="Helvetica,sans-Serif" font-size="10.00">/EditorCanvas.cc</text>
</a>
</g>
</g>
<!-- Node26&#45;&gt;Node28 -->
<g id="edge2" class="edge"><title>Node26&#45;&gt;Node28</title>
<path fill="none" stroke="midnightblue" d="M187,-58.5322C187,-49.3606 187,-39.2449 187,-31.2931"/>
<polygon fill="midnightblue" stroke="midnightblue" points="183.5,-58.6789 187,-68.679 190.5,-58.679 183.5,-58.6789"/>
</g>
<!-- Node29 -->
<g id="node4" class="node"><title>Node29</title>
<g id="a_node4"><a xlink:href="_editor_window_8cc.html" target="_top" xlink:title="src/calibration/gui\l/EditorWindow.cc">
<polygon fill="white" stroke="black" points="252,-1 252,-31 346,-31 346,-1 252,-1"/>
<text text-anchor="start" x="260" y="-19" font-family="Helvetica,sans-Serif" font-size="10.00">src/calibration/gui</text>
<text text-anchor="middle" x="299" y="-8" font-family="Helvetica,sans-Serif" font-size="10.00">/EditorWindow.cc</text>
</a>
</g>
</g>
<!-- Node26&#45;&gt;Node29 -->
<g id="edge3" class="edge"><title>Node26&#45;&gt;Node29</title>
<path fill="none" stroke="midnightblue" d="M219.877,-63.6261C237.542,-53.2166 258.93,-40.6129 275.013,-31.1352"/>
<polygon fill="midnightblue" stroke="midnightblue" points="217.865,-60.749 211.027,-68.8413 221.419,-66.7798 217.865,-60.749"/>
</g>
</g>
</svg>
