<?xml version="1.0" encoding="UTF-8" standalone="no"?>
<!DOCTYPE svg PUBLIC "-//W3C//DTD SVG 1.1//EN"
 "http://www.w3.org/Graphics/SVG/1.1/DTD/svg11.dtd">
<!-- Generated by graphviz version 2.36.0 (20140111.2315)
 -->
<!-- Title: src/calibration/Editor.cc Pages: 1 -->
<svg width="1485pt" height="364pt"
 viewBox="0.00 0.00 1485.04 364.00" xmlns="http://www.w3.org/2000/svg" xmlns:xlink="http://www.w3.org/1999/xlink">
<g id="graph0" class="graph" transform="scale(1 1) rotate(0) translate(4 360)">
<title>src/calibration/Editor.cc</title>
<polygon fill="white" stroke="none" points="-4,4 -4,-360 1481.04,-360 1481.04,4 -4,4"/>
<!-- Node0 -->
<g id="node1" class="node"><title>Node0</title>
<polygon fill="#bfbfbf" stroke="black" points="396.543,-336.5 396.543,-355.5 515.543,-355.5 515.543,-336.5 396.543,-336.5"/>
<text text-anchor="middle" x="456.043" y="-343.5" font-family="Helvetica,sans-Serif" font-size="10.00">src/calibration/Editor.cc</text>
</g>
<!-- Node1 -->
<g id="node2" class="node"><title>Node1</title>
<g id="a_node2"><a xlink:href="_editor_8h.html" target="_top" xlink:title="Editor.h">
<polygon fill="white" stroke="black" points="301.043,-280.5 301.043,-299.5 351.043,-299.5 351.043,-280.5 301.043,-280.5"/>
<text text-anchor="middle" x="326.043" y="-287.5" font-family="Helvetica,sans-Serif" font-size="10.00">Editor.h</text>
</a>
</g>
</g>
<!-- Node0&#45;&gt;Node1 -->
<g id="edge1" class="edge"><title>Node0&#45;&gt;Node1</title>
<path fill="none" stroke="midnightblue" d="M435.444,-336.444C414.049,-327.557 380.361,-313.563 356.018,-303.451"/>
<polygon fill="midnightblue" stroke="midnightblue" points="357.123,-300.12 346.545,-299.516 354.437,-306.585 357.123,-300.12"/>
</g>
<!-- Node20 -->
<g id="node21" class="node"><title>Node20</title>
<g id="a_node21"><a xlink:href="_wrap_t_file_8h.html" target="_top" xlink:title="base/WrapTFile.h">
<polygon fill="white" stroke="black" points="923.043,-168.5 923.043,-187.5 1017.04,-187.5 1017.04,-168.5 923.043,-168.5"/>
<text text-anchor="middle" x="970.043" y="-175.5" font-family="Helvetica,sans-Serif" font-size="10.00">base/WrapTFile.h</text>
</a>
</g>
</g>
<!-- Node0&#45;&gt;Node20 -->
<g id="edge24" class="edge"><title>Node0&#45;&gt;Node20</title>
<path fill="none" stroke="midnightblue" d="M482.595,-336.425C568.069,-308.82 836.179,-222.232 933.927,-190.664"/>
<polygon fill="midnightblue" stroke="midnightblue" points="935.208,-193.928 943.649,-187.524 933.057,-187.267 935.208,-193.928"/>
</g>
<!-- Node2 -->
<g id="node3" class="node"><title>Node2</title>
<g id="a_node3"><a xlink:href="_t_calibration_data_8h.html" target="_top" xlink:title="tree/TCalibrationData.h">
<polygon fill="white" stroke="black" points="58.0425,-224.5 58.0425,-243.5 176.043,-243.5 176.043,-224.5 58.0425,-224.5"/>
<text text-anchor="middle" x="117.043" y="-231.5" font-family="Helvetica,sans-Serif" font-size="10.00">tree/TCalibrationData.h</text>
</a>
</g>
</g>
<!-- Node1&#45;&gt;Node2 -->
<g id="edge2" class="edge"><title>Node1&#45;&gt;Node2</title>
<path fill="none" stroke="midnightblue" d="M300.832,-282.486C265.955,-273.475 202.491,-257.078 160.043,-246.11"/>
<polygon fill="midnightblue" stroke="midnightblue" points="160.822,-242.697 150.265,-243.584 159.071,-249.474 160.822,-242.697"/>
</g>
<!-- Node3 -->
<g id="node4" class="node"><title>Node3</title>
<g id="a_node4"><a xlink:href="_t_i_d_8h.html" target="_top" xlink:title="TID.h">
<polygon fill="white" stroke="black" points="334.543,-168.5 334.543,-187.5 375.543,-187.5 375.543,-168.5 334.543,-168.5"/>
<text text-anchor="middle" x="355.043" y="-175.5" font-family="Helvetica,sans-Serif" font-size="10.00">TID.h</text>
</a>
</g>
</g>
<!-- Node2&#45;&gt;Node3 -->
<g id="edge3" class="edge"><title>Node2&#45;&gt;Node3</title>
<path fill="none" stroke="midnightblue" d="M154.754,-224.444C201.737,-213.784 281.102,-195.777 324.48,-185.934"/>
<polygon fill="midnightblue" stroke="midnightblue" points="325.461,-189.301 334.438,-183.675 323.912,-182.474 325.461,-189.301"/>
</g>
<!-- Node7 -->
<g id="node8" class="node"><title>Node7</title>
<polygon fill="white" stroke="#bfbfbf" points="264.543,-0.5 264.543,-19.5 305.543,-19.5 305.543,-0.5 264.543,-0.5"/>
<text text-anchor="middle" x="285.043" y="-7.5" font-family="Helvetica,sans-Serif" font-size="10.00">string</text>
</g>
<!-- Node2&#45;&gt;Node7 -->
<g id="edge22" class="edge"><title>Node2&#45;&gt;Node7</title>
<path fill="none" stroke="midnightblue" d="M64.1944,-224.488C28.879,-215.861 -9.21154,-199.17 2.0425,-168 24.015,-107.144 40.0591,-90.1043 95.0425,-56 145.047,-24.9837 214.596,-15.3398 254.194,-12.345"/>
<polygon fill="midnightblue" stroke="midnightblue" points="254.544,-15.8295 264.292,-11.6776 254.082,-8.84477 254.544,-15.8295"/>
</g>
<!-- Node12 -->
<g id="node13" class="node"><title>Node12</title>
<polygon fill="white" stroke="#bfbfbf" points="126.543,-56.5 126.543,-75.5 167.543,-75.5 167.543,-56.5 126.543,-56.5"/>
<text text-anchor="middle" x="147.043" y="-63.5" font-family="Helvetica,sans-Serif" font-size="10.00">ctime</text>
</g>
<!-- Node2&#45;&gt;Node12 -->
<g id="edge23" class="edge"><title>Node2&#45;&gt;Node12</title>
<path fill="none" stroke="midnightblue" d="M118.655,-224.075C123.378,-197.945 137.245,-121.211 143.685,-85.577"/>
<polygon fill="midnightblue" stroke="midnightblue" points="147.16,-86.0312 145.494,-75.5681 140.271,-84.7862 147.16,-86.0312"/>
</g>
<!-- Node19 -->
<g id="node20" class="node"><title>Node19</title>
<g id="a_node20"><a xlink:href="_git_info_8h.html" target="_top" xlink:title="base/GitInfo.h">
<polygon fill="white" stroke="black" points="11.0425,-168.5 11.0425,-187.5 89.0425,-187.5 89.0425,-168.5 11.0425,-168.5"/>
<text text-anchor="middle" x="50.0425" y="-175.5" font-family="Helvetica,sans-Serif" font-size="10.00">base/GitInfo.h</text>
</a>
</g>
</g>
<!-- Node2&#45;&gt;Node19 -->
<g id="edge20" class="edge"><title>Node2&#45;&gt;Node19</title>
<path fill="none" stroke="midnightblue" d="M106.278,-224.324C96.2764,-216.263 81.156,-204.077 69.112,-194.369"/>
<polygon fill="midnightblue" stroke="midnightblue" points="70.9854,-191.384 61.0031,-187.834 66.5927,-196.834 70.9854,-191.384"/>
</g>
<!-- Node4 -->
<g id="node5" class="node"><title>Node4</title>
<polygon fill="white" stroke="#bfbfbf" points="363.043,-112.5 363.043,-131.5 419.043,-131.5 419.043,-112.5 363.043,-112.5"/>
<text text-anchor="middle" x="391.043" y="-119.5" font-family="Helvetica,sans-Serif" font-size="10.00">Rtypes.h</text>
</g>
<!-- Node3&#45;&gt;Node4 -->
<g id="edge4" class="edge"><title>Node3&#45;&gt;Node4</title>
<path fill="none" stroke="midnightblue" d="M360.987,-168.083C366.02,-160.534 373.379,-149.495 379.556,-140.23"/>
<polygon fill="midnightblue" stroke="midnightblue" points="382.574,-142.013 385.208,-131.751 376.749,-138.13 382.574,-142.013"/>
</g>
<!-- Node5 -->
<g id="node6" class="node"><title>Node5</title>
<g id="a_node6"><a xlink:href="base_2std__ext_2_time_8h.html" target="_top" xlink:title="base/std_ext/time.h">
<polygon fill="white" stroke="black" points="437.543,-112.5 437.543,-131.5 540.543,-131.5 540.543,-112.5 437.543,-112.5"/>
<text text-anchor="middle" x="489.043" y="-119.5" font-family="Helvetica,sans-Serif" font-size="10.00">base/std_ext/time.h</text>
</a>
</g>
</g>
<!-- Node3&#45;&gt;Node5 -->
<g id="edge5" class="edge"><title>Node3&#45;&gt;Node5</title>
<path fill="none" stroke="midnightblue" d="M375.686,-168.681C397.722,-159.801 432.88,-145.633 458.2,-135.429"/>
<polygon fill="midnightblue" stroke="midnightblue" points="459.743,-138.581 467.71,-131.597 457.127,-132.088 459.743,-138.581"/>
</g>
<!-- Node3&#45;&gt;Node12 -->
<g id="edge19" class="edge"><title>Node3&#45;&gt;Node12</title>
<path fill="none" stroke="midnightblue" d="M334.393,-174.7C290.575,-169.416 190.306,-155.065 166.043,-132 153.536,-120.112 149.125,-100.491 147.637,-85.9106"/>
<polygon fill="midnightblue" stroke="midnightblue" points="151.105,-85.298 146.972,-75.5425 144.12,-85.7461 151.105,-85.298"/>
</g>
<!-- Node13 -->
<g id="node14" class="node"><title>Node13</title>
<polygon fill="white" stroke="#bfbfbf" points="698.043,-56.5 698.043,-75.5 760.043,-75.5 760.043,-56.5 698.043,-56.5"/>
<text text-anchor="middle" x="729.043" y="-63.5" font-family="Helvetica,sans-Serif" font-size="10.00">type_traits</text>
</g>
<!-- Node3&#45;&gt;Node13 -->
<g id="edge13" class="edge"><title>Node3&#45;&gt;Node13</title>
<path fill="none" stroke="midnightblue" d="M375.627,-173.937C411.585,-168.212 487.84,-154.402 549.043,-132 567.335,-125.304 570.036,-119.431 588.043,-112 621.082,-98.3651 659.846,-86.2618 688.358,-78.0512"/>
<polygon fill="midnightblue" stroke="midnightblue" points="689.328,-81.4143 697.99,-75.3132 687.414,-74.681 689.328,-81.4143"/>
</g>
<!-- Node14 -->
<g id="node15" class="node"><title>Node14</title>
<polygon fill="white" stroke="#bfbfbf" points="175.043,-112.5 175.043,-131.5 213.043,-131.5 213.043,-112.5 175.043,-112.5"/>
<text text-anchor="middle" x="194.043" y="-119.5" font-family="Helvetica,sans-Serif" font-size="10.00">tuple</text>
</g>
<!-- Node3&#45;&gt;Node14 -->
<g id="edge14" class="edge"><title>Node3&#45;&gt;Node14</title>
<path fill="none" stroke="midnightblue" d="M334.324,-170.051C305.969,-160.541 254.944,-143.427 222.872,-132.669"/>
<polygon fill="midnightblue" stroke="midnightblue" points="223.771,-129.28 213.177,-129.418 221.545,-135.916 223.771,-129.28"/>
</g>
<!-- Node15 -->
<g id="node16" class="node"><title>Node15</title>
<polygon fill="white" stroke="#bfbfbf" points="231.043,-112.5 231.043,-131.5 277.043,-131.5 277.043,-112.5 231.043,-112.5"/>
<text text-anchor="middle" x="254.043" y="-119.5" font-family="Helvetica,sans-Serif" font-size="10.00">cstdint</text>
</g>
<!-- Node3&#45;&gt;Node15 -->
<g id="edge15" class="edge"><title>Node3&#45;&gt;Node15</title>
<path fill="none" stroke="midnightblue" d="M338.815,-168.324C322.691,-159.703 297.742,-146.364 279.078,-136.386"/>
<polygon fill="midnightblue" stroke="midnightblue" points="280.699,-133.283 270.23,-131.655 277.398,-139.456 280.699,-133.283"/>
</g>
<!-- Node16 -->
<g id="node17" class="node"><title>Node16</title>
<polygon fill="white" stroke="#bfbfbf" points="597.543,-112.5 597.543,-131.5 656.543,-131.5 656.543,-112.5 597.543,-112.5"/>
<text text-anchor="middle" x="627.043" y="-119.5" font-family="Helvetica,sans-Serif" font-size="10.00">stdexcept</text>
</g>
<!-- Node3&#45;&gt;Node16 -->
<g id="edge16" class="edge"><title>Node3&#45;&gt;Node16</title>
<path fill="none" stroke="midnightblue" d="M375.8,-172.953C415.878,-165.128 506.699,-147.342 583.043,-132 584.476,-131.712 585.935,-131.418 587.409,-131.12"/>
<polygon fill="midnightblue" stroke="midnightblue" points="588.122,-134.547 597.226,-129.128 586.73,-127.687 588.122,-134.547"/>
</g>
<!-- Node17 -->
<g id="node18" class="node"><title>Node17</title>
<polygon fill="white" stroke="#bfbfbf" points="674.543,-112.5 674.543,-131.5 703.543,-131.5 703.543,-112.5 674.543,-112.5"/>
<text text-anchor="middle" x="689.043" y="-119.5" font-family="Helvetica,sans-Serif" font-size="10.00">list</text>
</g>
<!-- Node3&#45;&gt;Node17 -->
<g id="edge17" class="edge"><title>Node3&#45;&gt;Node17</title>
<path fill="none" stroke="midnightblue" d="M375.653,-175.544C424.419,-171.78 550.69,-160.154 664.557,-131.572"/>
<polygon fill="midnightblue" stroke="midnightblue" points="665.661,-134.902 674.479,-129.029 663.924,-128.121 665.661,-134.902"/>
</g>
<!-- Node18 -->
<g id="node19" class="node"><title>Node18</title>
<polygon fill="white" stroke="#bfbfbf" points="295.043,-112.5 295.043,-131.5 345.043,-131.5 345.043,-112.5 295.043,-112.5"/>
<text text-anchor="middle" x="320.043" y="-119.5" font-family="Helvetica,sans-Serif" font-size="10.00">iomanip</text>
</g>
<!-- Node3&#45;&gt;Node18 -->
<g id="edge18" class="edge"><title>Node3&#45;&gt;Node18</title>
<path fill="none" stroke="midnightblue" d="M349.263,-168.083C344.37,-160.534 337.215,-149.495 331.21,-140.23"/>
<polygon fill="midnightblue" stroke="midnightblue" points="334.091,-138.239 325.714,-131.751 328.216,-142.046 334.091,-138.239"/>
</g>
<!-- Node6 -->
<g id="node7" class="node"><title>Node6</title>
<g id="a_node7"><a xlink:href="string_8h.html" target="_top" xlink:title="base/std_ext/string.h">
<polygon fill="white" stroke="black" points="572.043,-56.5 572.043,-75.5 680.043,-75.5 680.043,-56.5 572.043,-56.5"/>
<text text-anchor="middle" x="626.043" y="-63.5" font-family="Helvetica,sans-Serif" font-size="10.00">base/std_ext/string.h</text>
</a>
</g>
</g>
<!-- Node5&#45;&gt;Node6 -->
<g id="edge6" class="edge"><title>Node5&#45;&gt;Node6</title>
<path fill="none" stroke="midnightblue" d="M510.751,-112.444C533.397,-103.517 569.115,-89.4387 594.794,-79.3168"/>
<polygon fill="midnightblue" stroke="midnightblue" points="596.416,-82.4397 604.436,-75.5164 593.849,-75.9273 596.416,-82.4397"/>
</g>
<!-- Node11 -->
<g id="node12" class="node"><title>Node11</title>
<polygon fill="white" stroke="#bfbfbf" points="466.043,-56.5 466.043,-75.5 512.043,-75.5 512.043,-56.5 466.043,-56.5"/>
<text text-anchor="middle" x="489.043" y="-63.5" font-family="Helvetica,sans-Serif" font-size="10.00">cstring</text>
</g>
<!-- Node5&#45;&gt;Node11 -->
<g id="edge11" class="edge"><title>Node5&#45;&gt;Node11</title>
<path fill="none" stroke="midnightblue" d="M489.043,-112.083C489.043,-105.006 489.043,-94.8611 489.043,-85.9865"/>
<polygon fill="midnightblue" stroke="midnightblue" points="492.543,-85.751 489.043,-75.7511 485.543,-85.7511 492.543,-85.751"/>
</g>
<!-- Node5&#45;&gt;Node12 -->
<g id="edge12" class="edge"><title>Node5&#45;&gt;Node12</title>
<path fill="none" stroke="midnightblue" d="M437.471,-112.857C365.447,-101.485 236.963,-81.198 178.076,-71.9001"/>
<polygon fill="midnightblue" stroke="midnightblue" points="178.344,-68.399 167.92,-70.2965 177.252,-75.3134 178.344,-68.399"/>
</g>
<!-- Node6&#45;&gt;Node7 -->
<g id="edge7" class="edge"><title>Node6&#45;&gt;Node7</title>
<path fill="none" stroke="midnightblue" d="M572.01,-56.4435C499.701,-44.9929 373.857,-25.0645 315.891,-15.8851"/>
<polygon fill="midnightblue" stroke="midnightblue" points="316.31,-12.4079 305.885,-14.3006 315.215,-19.3217 316.31,-12.4079"/>
</g>
<!-- Node8 -->
<g id="node9" class="node"><title>Node8</title>
<polygon fill="white" stroke="#bfbfbf" points="567.043,-0.5 567.043,-19.5 619.043,-19.5 619.043,-0.5 567.043,-0.5"/>
<text text-anchor="middle" x="593.043" y="-7.5" font-family="Helvetica,sans-Serif" font-size="10.00">sstream</text>
</g>
<!-- Node6&#45;&gt;Node8 -->
<g id="edge8" class="edge"><title>Node6&#45;&gt;Node8</title>
<path fill="none" stroke="midnightblue" d="M620.593,-56.083C616.028,-48.6127 609.374,-37.7244 603.749,-28.5199"/>
<polygon fill="midnightblue" stroke="midnightblue" points="606.591,-26.4588 598.39,-19.7511 600.618,-30.109 606.591,-26.4588"/>
</g>
<!-- Node9 -->
<g id="node10" class="node"><title>Node9</title>
<polygon fill="white" stroke="#bfbfbf" points="785.043,-0.5 785.043,-19.5 841.043,-19.5 841.043,-0.5 785.043,-0.5"/>
<text text-anchor="middle" x="813.043" y="-7.5" font-family="Helvetica,sans-Serif" font-size="10.00">algorithm</text>
</g>
<!-- Node6&#45;&gt;Node9 -->
<g id="edge9" class="edge"><title>Node6&#45;&gt;Node9</title>
<path fill="none" stroke="midnightblue" d="M655.673,-56.4435C687.918,-47.1323 739.574,-32.2155 774.843,-22.0308"/>
<polygon fill="midnightblue" stroke="midnightblue" points="776.138,-25.3 784.775,-19.1629 774.196,-18.5748 776.138,-25.3"/>
</g>
<!-- Node10 -->
<g id="node11" class="node"><title>Node10</title>
<polygon fill="white" stroke="#bfbfbf" points="637.043,-0.5 637.043,-19.5 681.043,-19.5 681.043,-0.5 637.043,-0.5"/>
<text text-anchor="middle" x="659.043" y="-7.5" font-family="Helvetica,sans-Serif" font-size="10.00">vector</text>
</g>
<!-- Node6&#45;&gt;Node10 -->
<g id="edge10" class="edge"><title>Node6&#45;&gt;Node10</title>
<path fill="none" stroke="midnightblue" d="M631.492,-56.083C636.057,-48.6127 642.711,-37.7244 648.336,-28.5199"/>
<polygon fill="midnightblue" stroke="midnightblue" points="651.467,-30.109 653.695,-19.7511 645.494,-26.4588 651.467,-30.109"/>
</g>
<!-- Node19&#45;&gt;Node7 -->
<g id="edge21" class="edge"><title>Node19&#45;&gt;Node7</title>
<path fill="none" stroke="midnightblue" d="M52.2515,-168.442C58.4344,-146.249 78.0687,-86.4611 117.043,-56 157.425,-24.4375 218.117,-14.9465 254.431,-12.1339"/>
<polygon fill="midnightblue" stroke="midnightblue" points="254.679,-15.6253 264.43,-11.4814 254.223,-8.64017 254.679,-15.6253"/>
</g>
<!-- Node20&#45;&gt;Node6 -->
<g id="edge25" class="edge"><title>Node20&#45;&gt;Node6</title>
<path fill="none" stroke="midnightblue" d="M938.102,-168.495C906.071,-159.827 855.409,-145.74 812.043,-132 757.943,-114.859 695.847,-92.6365 658.839,-79.1171"/>
<polygon fill="midnightblue" stroke="midnightblue" points="659.688,-75.7005 649.094,-75.5462 657.279,-82.2731 659.688,-75.7005"/>
</g>
<!-- Node20&#45;&gt;Node7 -->
<g id="edge40" class="edge"><title>Node20&#45;&gt;Node7</title>
<path fill="none" stroke="midnightblue" d="M922.743,-170.866C877.935,-164.212 809.188,-151.804 752.043,-132 733.262,-125.492 730.711,-118.822 712.043,-112 648.054,-88.6163 627.253,-98.7674 563.043,-76 543.556,-69.0907 540.691,-62.4333 521.043,-56 449.482,-32.5697 361.489,-19.807 315.825,-14.3181"/>
<polygon fill="midnightblue" stroke="midnightblue" points="316.027,-10.818 305.689,-13.1365 315.217,-17.7709 316.027,-10.818"/>
</g>
<!-- Node20&#45;&gt;Node16 -->
<g id="edge43" class="edge"><title>Node20&#45;&gt;Node16</title>
<path fill="none" stroke="midnightblue" d="M922.806,-171.312C864.675,-164.029 762.77,-150.342 666.733,-132.203"/>
<polygon fill="midnightblue" stroke="midnightblue" points="667.34,-128.756 656.861,-130.318 666.027,-135.631 667.34,-128.756"/>
</g>
<!-- Node20&#45;&gt;Node17 -->
<g id="edge41" class="edge"><title>Node20&#45;&gt;Node17</title>
<path fill="none" stroke="midnightblue" d="M922.769,-170.353C871.854,-162.777 788.643,-149.188 718.043,-132 716.57,-131.641 715.062,-131.25 713.546,-130.837"/>
<polygon fill="midnightblue" stroke="midnightblue" points="714.278,-127.404 703.697,-127.936 712.3,-134.119 714.278,-127.404"/>
</g>
<!-- Node21 -->
<g id="node22" class="node"><title>Node21</title>
<g id="a_node22"><a xlink:href="misc_8h.html" target="_top" xlink:title="base/std_ext/misc.h">
<polygon fill="white" stroke="black" points="836.543,-112.5 836.543,-131.5 941.543,-131.5 941.543,-112.5 836.543,-112.5"/>
<text text-anchor="middle" x="889.043" y="-119.5" font-family="Helvetica,sans-Serif" font-size="10.00">base/std_ext/misc.h</text>
</a>
</g>
</g>
<!-- Node20&#45;&gt;Node21 -->
<g id="edge26" class="edge"><title>Node20&#45;&gt;Node21</title>
<path fill="none" stroke="midnightblue" d="M957.028,-168.324C944.511,-159.979 925.361,-147.212 910.571,-137.352"/>
<polygon fill="midnightblue" stroke="midnightblue" points="912.286,-134.289 902.024,-131.655 908.403,-140.114 912.286,-134.289"/>
</g>
<!-- Node22 -->
<g id="node23" class="node"><title>Node22</title>
<polygon fill="white" stroke="#bfbfbf" points="778.543,-56.5 778.543,-75.5 837.543,-75.5 837.543,-56.5 778.543,-56.5"/>
<text text-anchor="middle" x="808.043" y="-63.5" font-family="Helvetica,sans-Serif" font-size="10.00">functional</text>
</g>
<!-- Node20&#45;&gt;Node22 -->
<g id="edge44" class="edge"><title>Node20&#45;&gt;Node22</title>
<path fill="none" stroke="midnightblue" d="M923.027,-173.231C892.188,-168.357 853.081,-157.249 828.043,-132 815.972,-119.828 811.16,-100.555 809.256,-86.1514"/>
<polygon fill="midnightblue" stroke="midnightblue" points="812.708,-85.4917 808.269,-75.872 805.741,-86.1608 812.708,-85.4917"/>
</g>
<!-- Node25 -->
<g id="node26" class="node"><title>Node25</title>
<polygon fill="white" stroke="#bfbfbf" points="1028.04,-56.5 1028.04,-75.5 1080.04,-75.5 1080.04,-56.5 1028.04,-56.5"/>
<text text-anchor="middle" x="1054.04" y="-63.5" font-family="Helvetica,sans-Serif" font-size="10.00">memory</text>
</g>
<!-- Node20&#45;&gt;Node25 -->
<g id="edge39" class="edge"><title>Node20&#45;&gt;Node25</title>
<path fill="none" stroke="midnightblue" d="M970.924,-168.204C972.633,-154.904 977.413,-129.386 990.043,-112 999.55,-98.9124 1014.06,-88.2628 1026.87,-80.6153"/>
<polygon fill="midnightblue" stroke="midnightblue" points="1028.8,-83.5445 1035.79,-75.5854 1025.36,-77.4463 1028.8,-83.5445"/>
</g>
<!-- Node26 -->
<g id="node27" class="node"><title>Node26</title>
<polygon fill="white" stroke="#bfbfbf" points="998.543,-112.5 998.543,-131.5 1045.54,-131.5 1045.54,-112.5 998.543,-112.5"/>
<text text-anchor="middle" x="1022.04" y="-119.5" font-family="Helvetica,sans-Serif" font-size="10.00">TFile.h</text>
</g>
<!-- Node20&#45;&gt;Node26 -->
<g id="edge33" class="edge"><title>Node20&#45;&gt;Node26</title>
<path fill="none" stroke="midnightblue" d="M978.629,-168.083C986.201,-160.22 997.421,-148.569 1006.56,-139.081"/>
<polygon fill="midnightblue" stroke="midnightblue" points="1009.2,-141.382 1013.62,-131.751 1004.16,-136.527 1009.2,-141.382"/>
</g>
<!-- Node27 -->
<g id="node28" class="node"><title>Node27</title>
<polygon fill="white" stroke="#bfbfbf" points="1063.54,-112.5 1063.54,-131.5 1134.54,-131.5 1134.54,-112.5 1063.54,-112.5"/>
<text text-anchor="middle" x="1099.04" y="-119.5" font-family="Helvetica,sans-Serif" font-size="10.00">TDirectory.h</text>
</g>
<!-- Node20&#45;&gt;Node27 -->
<g id="edge34" class="edge"><title>Node20&#45;&gt;Node27</title>
<path fill="none" stroke="midnightblue" d="M990.483,-168.444C1011.71,-159.557 1045.14,-145.563 1069.3,-135.451"/>
<polygon fill="midnightblue" stroke="midnightblue" points="1070.82,-138.606 1078.7,-131.516 1068.12,-132.149 1070.82,-138.606"/>
</g>
<!-- Node28 -->
<g id="node29" class="node"><title>Node28</title>
<polygon fill="white" stroke="#bfbfbf" points="1153.04,-112.5 1153.04,-131.5 1205.04,-131.5 1205.04,-112.5 1153.04,-112.5"/>
<text text-anchor="middle" x="1179.04" y="-119.5" font-family="Helvetica,sans-Serif" font-size="10.00">TError.h</text>
</g>
<!-- Node20&#45;&gt;Node28 -->
<g id="edge35" class="edge"><title>Node20&#45;&gt;Node28</title>
<path fill="none" stroke="midnightblue" d="M1003.16,-168.444C1041.38,-158.567 1104.02,-142.385 1143.31,-132.231"/>
<polygon fill="midnightblue" stroke="midnightblue" points="1144.21,-135.615 1153.01,-129.725 1142.46,-128.838 1144.21,-135.615"/>
</g>
<!-- Node29 -->
<g id="node30" class="node"><title>Node29</title>
<polygon fill="white" stroke="#bfbfbf" points="1223.54,-112.5 1223.54,-131.5 1270.54,-131.5 1270.54,-112.5 1223.54,-112.5"/>
<text text-anchor="middle" x="1247.04" y="-119.5" font-family="Helvetica,sans-Serif" font-size="10.00">TList.h</text>
</g>
<!-- Node20&#45;&gt;Node29 -->
<g id="edge36" class="edge"><title>Node20&#45;&gt;Node29</title>
<path fill="none" stroke="midnightblue" d="M1017.06,-169.532C1064.25,-161.768 1139.22,-148.706 1213.33,-132"/>
<polygon fill="midnightblue" stroke="midnightblue" points="1214.34,-135.362 1223.31,-129.728 1212.78,-128.537 1214.34,-135.362"/>
</g>
<!-- Node30 -->
<g id="node31" class="node"><title>Node30</title>
<polygon fill="white" stroke="#bfbfbf" points="1289.04,-112.5 1289.04,-131.5 1363.04,-131.5 1363.04,-112.5 1289.04,-112.5"/>
<text text-anchor="middle" x="1326.04" y="-119.5" font-family="Helvetica,sans-Serif" font-size="10.00">TCollection.h</text>
</g>
<!-- Node20&#45;&gt;Node30 -->
<g id="edge37" class="edge"><title>Node20&#45;&gt;Node30</title>
<path fill="none" stroke="midnightblue" d="M1017.26,-170.79C1076,-162.916 1179.61,-148.545 1278.96,-131.943"/>
<polygon fill="midnightblue" stroke="midnightblue" points="1279.59,-135.386 1288.87,-130.277 1278.43,-128.483 1279.59,-135.386"/>
</g>
<!-- Node31 -->
<g id="node32" class="node"><title>Node31</title>
<polygon fill="white" stroke="#bfbfbf" points="1381.04,-112.5 1381.04,-131.5 1429.04,-131.5 1429.04,-112.5 1381.04,-112.5"/>
<text text-anchor="middle" x="1405.04" y="-119.5" font-family="Helvetica,sans-Serif" font-size="10.00">TKey.h</text>
</g>
<!-- Node20&#45;&gt;Node31 -->
<g id="edge38" class="edge"><title>Node20&#45;&gt;Node31</title>
<path fill="none" stroke="midnightblue" d="M1017.13,-174.102C1090.72,-169.054 1237.55,-156.905 1371,-131.921"/>
<polygon fill="midnightblue" stroke="midnightblue" points="1371.82,-135.328 1380.99,-130.021 1370.51,-128.451 1371.82,-135.328"/>
</g>
<!-- Node32 -->
<g id="node33" class="node"><title>Node32</title>
<polygon fill="white" stroke="#bfbfbf" points="1447.04,-112.5 1447.04,-131.5 1477.04,-131.5 1477.04,-112.5 1447.04,-112.5"/>
<text text-anchor="middle" x="1462.04" y="-119.5" font-family="Helvetica,sans-Serif" font-size="10.00">set</text>
</g>
<!-- Node20&#45;&gt;Node32 -->
<g id="edge42" class="edge"><title>Node20&#45;&gt;Node32</title>
<path fill="none" stroke="midnightblue" d="M1017.19,-176.538C1100.59,-174.845 1279.42,-167.271 1437.12,-131.606"/>
<polygon fill="midnightblue" stroke="midnightblue" points="1438.03,-134.986 1446.99,-129.329 1436.46,-128.165 1438.03,-134.986"/>
</g>
<!-- Node21&#45;&gt;Node9 -->
<g id="edge27" class="edge"><title>Node21&#45;&gt;Node9</title>
<path fill="none" stroke="midnightblue" d="M883.605,-112.499C875.568,-99.9994 859.967,-75.9821 846.043,-56 839.453,-46.5437 831.861,-36.158 825.622,-27.749"/>
<polygon fill="midnightblue" stroke="midnightblue" points="828.28,-25.4584 819.494,-19.5376 822.67,-29.6452 828.28,-25.4584"/>
</g>
<!-- Node21&#45;&gt;Node13 -->
<g id="edge31" class="edge"><title>Node21&#45;&gt;Node13</title>
<path fill="none" stroke="midnightblue" d="M863.69,-112.444C836.773,-103.359 794.046,-88.9388 763.956,-78.7831"/>
<polygon fill="midnightblue" stroke="midnightblue" points="764.871,-75.3981 754.276,-75.5164 762.632,-82.0305 764.871,-75.3981"/>
</g>
<!-- Node21&#45;&gt;Node22 -->
<g id="edge28" class="edge"><title>Node21&#45;&gt;Node22</title>
<path fill="none" stroke="midnightblue" d="M876.028,-112.324C863.511,-103.979 844.361,-91.2122 829.571,-81.3524"/>
<polygon fill="midnightblue" stroke="midnightblue" points="831.286,-78.2894 821.024,-75.6545 827.403,-84.1137 831.286,-78.2894"/>
</g>
<!-- Node23 -->
<g id="node24" class="node"><title>Node23</title>
<polygon fill="white" stroke="#bfbfbf" points="894.043,-56.5 894.043,-75.5 938.043,-75.5 938.043,-56.5 894.043,-56.5"/>
<text text-anchor="middle" x="916.043" y="-63.5" font-family="Helvetica,sans-Serif" font-size="10.00">cmath</text>
</g>
<!-- Node21&#45;&gt;Node23 -->
<g id="edge29" class="edge"><title>Node21&#45;&gt;Node23</title>
<path fill="none" stroke="midnightblue" d="M893.501,-112.083C897.197,-104.691 902.566,-93.9533 907.137,-84.8111"/>
<polygon fill="midnightblue" stroke="midnightblue" points="910.325,-86.2606 911.667,-75.7511 904.064,-83.1301 910.325,-86.2606"/>
</g>
<!-- Node24 -->
<g id="node25" class="node"><title>Node24</title>
<polygon fill="white" stroke="#bfbfbf" points="956.543,-56.5 956.543,-75.5 1009.54,-75.5 1009.54,-56.5 956.543,-56.5"/>
<text text-anchor="middle" x="983.043" y="-63.5" font-family="Helvetica,sans-Serif" font-size="10.00">cxxabi.h</text>
</g>
<!-- Node21&#45;&gt;Node24 -->
<g id="edge30" class="edge"><title>Node21&#45;&gt;Node24</title>
<path fill="none" stroke="midnightblue" d="M904.145,-112.324C918.946,-103.822 941.737,-90.7288 959.025,-80.7975"/>
<polygon fill="midnightblue" stroke="midnightblue" points="961.05,-83.6707 967.977,-75.6545 957.563,-77.6009 961.05,-83.6707"/>
</g>
<!-- Node21&#45;&gt;Node25 -->
<g id="edge32" class="edge"><title>Node21&#45;&gt;Node25</title>
<path fill="none" stroke="midnightblue" d="M915.187,-112.444C943.066,-103.32 987.391,-88.8133 1018.44,-78.6509"/>
<polygon fill="midnightblue" stroke="midnightblue" points="1019.6,-81.9533 1028.02,-75.5164 1017.43,-75.3005 1019.6,-81.9533"/>
</g>
</g>
</svg>
