<?xml version="1.0" encoding="UTF-8" standalone="no"?>
<!DOCTYPE svg PUBLIC "-//W3C//DTD SVG 1.1//EN"
 "http://www.w3.org/Graphics/SVG/1.1/DTD/svg11.dtd">
<!-- Generated by graphviz version 2.36.0 (20140111.2315)
 -->
<!-- Title: src/calibration/modules/Energy.h Pages: 1 -->
<svg width="2436pt" height="186pt"
 viewBox="0.00 0.00 2436.00 186.00" xmlns="http://www.w3.org/2000/svg" xmlns:xlink="http://www.w3.org/1999/xlink">
<g id="graph0" class="graph" transform="scale(1 1) rotate(0) translate(4 182)">
<title>src/calibration/modules/Energy.h</title>
<polygon fill="white" stroke="none" points="-4,4 -4,-182 2432,-182 2432,4 -4,4"/>
<!-- Node50 -->
<g id="node1" class="node"><title>Node50</title>
<polygon fill="#bfbfbf" stroke="black" points="1206.5,-147 1206.5,-177 1323.5,-177 1323.5,-147 1206.5,-147"/>
<text text-anchor="start" x="1214.5" y="-165" font-family="Helvetica,sans-Serif" font-size="10.00">src/calibration/modules</text>
<text text-anchor="middle" x="1265" y="-154" font-family="Helvetica,sans-Serif" font-size="10.00">/Energy.h</text>
</g>
<!-- Node51 -->
<g id="node2" class="node"><title>Node51</title>
<g id="a_node2"><a xlink:href="calibration_2modules_2_c_b___energy_8h.html" target="_top" xlink:title="src/calibration/modules\l/CB_Energy.h">
<polygon fill="white" stroke="black" points="1341.5,-79 1341.5,-109 1458.5,-109 1458.5,-79 1341.5,-79"/>
<text text-anchor="start" x="1349.5" y="-97" font-family="Helvetica,sans-Serif" font-size="10.00">src/calibration/modules</text>
<text text-anchor="middle" x="1400" y="-86" font-family="Helvetica,sans-Serif" font-size="10.00">/CB_Energy.h</text>
</a>
</g>
</g>
<!-- Node50&#45;&gt;Node51 -->
<g id="edge1" class="edge"><title>Node50&#45;&gt;Node51</title>
<path fill="none" stroke="midnightblue" d="M1303.17,-142.339C1324.73,-131.796 1351.26,-118.83 1371.09,-109.135"/>
<polygon fill="midnightblue" stroke="midnightblue" points="1301.41,-139.305 1293.96,-146.841 1304.48,-145.594 1301.41,-139.305"/>
</g>
<!-- Node65 -->
<g id="node16" class="node"><title>Node65</title>
<g id="a_node16"><a xlink:href="calibration_2modules_2_c_b___source_calib_8h.html" target="_top" xlink:title="src/calibration/modules\l/CB_SourceCalib.h">
<polygon fill="white" stroke="black" points="1822.5,-79 1822.5,-109 1939.5,-109 1939.5,-79 1822.5,-79"/>
<text text-anchor="start" x="1830.5" y="-97" font-family="Helvetica,sans-Serif" font-size="10.00">src/calibration/modules</text>
<text text-anchor="middle" x="1881" y="-86" font-family="Helvetica,sans-Serif" font-size="10.00">/CB_SourceCalib.h</text>
</a>
</g>
</g>
<!-- Node50&#45;&gt;Node65 -->
<g id="edge15" class="edge"><title>Node50&#45;&gt;Node65</title>
<path fill="none" stroke="midnightblue" d="M1333.47,-153.664C1455.4,-140.6 1708.03,-113.533 1822.43,-101.275"/>
<polygon fill="midnightblue" stroke="midnightblue" points="1333.08,-150.186 1323.51,-154.731 1333.82,-157.146 1333.08,-150.186"/>
</g>
<!-- Node67 -->
<g id="node18" class="node"><title>Node67</title>
<g id="a_node18"><a xlink:href="_energy_8cc.html" target="_top" xlink:title="src/calibration/modules\l/Energy.cc">
<polygon fill="white" stroke="black" points="1957.5,-79 1957.5,-109 2074.5,-109 2074.5,-79 1957.5,-79"/>
<text text-anchor="start" x="1965.5" y="-97" font-family="Helvetica,sans-Serif" font-size="10.00">src/calibration/modules</text>
<text text-anchor="middle" x="2016" y="-86" font-family="Helvetica,sans-Serif" font-size="10.00">/Energy.cc</text>
</a>
</g>
</g>
<!-- Node50&#45;&gt;Node67 -->
<g id="edge18" class="edge"><title>Node50&#45;&gt;Node67</title>
<path fill="none" stroke="midnightblue" d="M1333.86,-159.103C1457.46,-154.977 1724.87,-142.77 1948,-110 1951.11,-109.543 1954.29,-109.025 1957.49,-108.461"/>
<polygon fill="midnightblue" stroke="midnightblue" points="1333.66,-155.607 1323.78,-159.432 1333.89,-162.603 1333.66,-155.607"/>
</g>
<!-- Node68 -->
<g id="node19" class="node"><title>Node68</title>
<g id="a_node19"><a xlink:href="calibration_2modules_2_p_i_d___energy_8h.html" target="_top" xlink:title="src/calibration/modules\l/PID_Energy.h">
<polygon fill="white" stroke="black" points="1206.5,-79 1206.5,-109 1323.5,-109 1323.5,-79 1206.5,-79"/>
<text text-anchor="start" x="1214.5" y="-97" font-family="Helvetica,sans-Serif" font-size="10.00">src/calibration/modules</text>
<text text-anchor="middle" x="1265" y="-86" font-family="Helvetica,sans-Serif" font-size="10.00">/PID_Energy.h</text>
</a>
</g>
</g>
<!-- Node50&#45;&gt;Node68 -->
<g id="edge19" class="edge"><title>Node50&#45;&gt;Node68</title>
<path fill="none" stroke="midnightblue" d="M1265,-136.532C1265,-127.361 1265,-117.245 1265,-109.293"/>
<polygon fill="midnightblue" stroke="midnightblue" points="1261.5,-136.679 1265,-146.679 1268.5,-136.679 1261.5,-136.679"/>
</g>
<!-- Node70 -->
<g id="node21" class="node"><title>Node70</title>
<g id="a_node21"><a xlink:href="calibration_2modules_2_t_a_p_s___energy_8h.html" target="_top" xlink:title="src/calibration/modules\l/TAPS_Energy.h">
<polygon fill="white" stroke="black" points="936.5,-79 936.5,-109 1053.5,-109 1053.5,-79 936.5,-79"/>
<text text-anchor="start" x="944.5" y="-97" font-family="Helvetica,sans-Serif" font-size="10.00">src/calibration/modules</text>
<text text-anchor="middle" x="995" y="-86" font-family="Helvetica,sans-Serif" font-size="10.00">/TAPS_Energy.h</text>
</a>
</g>
</g>
<!-- Node50&#45;&gt;Node70 -->
<g id="edge32" class="edge"><title>Node50&#45;&gt;Node70</title>
<path fill="none" stroke="midnightblue" d="M1197.52,-144.505C1152.87,-133.591 1094.96,-119.434 1052.5,-109.056"/>
<polygon fill="midnightblue" stroke="midnightblue" points="1196.86,-147.948 1207.41,-146.922 1198.53,-141.148 1196.86,-147.948"/>
</g>
<!-- Node72 -->
<g id="node23" class="node"><title>Node72</title>
<g id="a_node23"><a xlink:href="calibration_2modules_2_t_a_p_s___short_energy_8h.html" target="_top" xlink:title="src/calibration/modules\l/TAPS_ShortEnergy.h">
<polygon fill="white" stroke="black" points="801.5,-79 801.5,-109 918.5,-109 918.5,-79 801.5,-79"/>
<text text-anchor="start" x="809.5" y="-97" font-family="Helvetica,sans-Serif" font-size="10.00">src/calibration/modules</text>
<text text-anchor="middle" x="860" y="-86" font-family="Helvetica,sans-Serif" font-size="10.00">/TAPS_ShortEnergy.h</text>
</a>
</g>
</g>
<!-- Node50&#45;&gt;Node72 -->
<g id="edge45" class="edge"><title>Node50&#45;&gt;Node72</title>
<path fill="none" stroke="midnightblue" d="M1196.25,-152.073C1127.79,-142.843 1019.8,-127.366 927,-110 924.305,-109.496 921.554,-108.961 918.778,-108.405"/>
<polygon fill="midnightblue" stroke="midnightblue" points="1196.1,-155.584 1206.47,-153.444 1197.03,-148.646 1196.1,-155.584"/>
</g>
<!-- Node74 -->
<g id="node25" class="node"><title>Node74</title>
<g id="a_node25"><a xlink:href="calibration_2modules_2_t_a_p_s_veto___energy_8h.html" target="_top" xlink:title="src/calibration/modules\l/TAPSVeto_Energy.h">
<polygon fill="white" stroke="black" points="1071.5,-79 1071.5,-109 1188.5,-109 1188.5,-79 1071.5,-79"/>
<text text-anchor="start" x="1079.5" y="-97" font-family="Helvetica,sans-Serif" font-size="10.00">src/calibration/modules</text>
<text text-anchor="middle" x="1130" y="-86" font-family="Helvetica,sans-Serif" font-size="10.00">/TAPSVeto_Energy.h</text>
</a>
</g>
</g>
<!-- Node50&#45;&gt;Node74 -->
<g id="edge58" class="edge"><title>Node50&#45;&gt;Node74</title>
<path fill="none" stroke="midnightblue" d="M1226.83,-142.339C1205.27,-131.796 1178.74,-118.83 1158.91,-109.135"/>
<polygon fill="midnightblue" stroke="midnightblue" points="1225.52,-145.594 1236.04,-146.841 1228.59,-139.305 1225.52,-145.594"/>
</g>
<!-- Node52 -->
<g id="node3" class="node"><title>Node52</title>
<g id="a_node3"><a xlink:href="calibration_2modules_2_c_b___energy_8cc.html" target="_top" xlink:title="src/calibration/modules\l/CB_Energy.cc">
<polygon fill="white" stroke="black" points="2027.5,-6 2027.5,-36 2144.5,-36 2144.5,-6 2027.5,-6"/>
<text text-anchor="start" x="2035.5" y="-24" font-family="Helvetica,sans-Serif" font-size="10.00">src/calibration/modules</text>
<text text-anchor="middle" x="2086" y="-13" font-family="Helvetica,sans-Serif" font-size="10.00">/CB_Energy.cc</text>
</a>
</g>
</g>
<!-- Node51&#45;&gt;Node52 -->
<g id="edge2" class="edge"><title>Node51&#45;&gt;Node52</title>
<path fill="none" stroke="midnightblue" d="M1468.95,-91.8784C1583.77,-88.9939 1821.01,-78.7012 2018,-42 2026.23,-40.4674 2034.88,-38.3379 2043.15,-36.0366"/>
<polygon fill="midnightblue" stroke="midnightblue" points="1468.81,-88.3807 1458.89,-92.1198 1468.97,-95.3787 1468.81,-88.3807"/>
</g>
<!-- Node53 -->
<g id="node4" class="node"><title>Node53</title>
<g id="a_node4"><a xlink:href="_setup__2007___base_8cc.html" target="_top" xlink:title="src/expconfig/setups\l/Setup_2007_Base.cc">
<polygon fill="white" stroke="black" points="1343.5,-6 1343.5,-36 1456.5,-36 1456.5,-6 1343.5,-6"/>
<text text-anchor="start" x="1351.5" y="-24" font-family="Helvetica,sans-Serif" font-size="10.00">src/expconfig/setups</text>
<text text-anchor="middle" x="1400" y="-13" font-family="Helvetica,sans-Serif" font-size="10.00">/Setup_2007_Base.cc</text>
</a>
</g>
</g>
<!-- Node51&#45;&gt;Node53 -->
<g id="edge3" class="edge"><title>Node51&#45;&gt;Node53</title>
<path fill="none" stroke="midnightblue" d="M1400,-68.8976C1400,-58.1314 1400,-45.8005 1400,-36.4856"/>
<polygon fill="midnightblue" stroke="midnightblue" points="1396.5,-68.9727 1400,-78.9727 1403.5,-68.9727 1396.5,-68.9727"/>
</g>
<!-- Node54 -->
<g id="node5" class="node"><title>Node54</title>
<g id="a_node5"><a xlink:href="_setup__2010__03___base_8cc.html" target="_top" xlink:title="src/expconfig/setups\l/Setup_2010_03_Base.cc">
<polygon fill="white" stroke="black" points="1475,-6 1475,-36 1603,-36 1603,-6 1475,-6"/>
<text text-anchor="start" x="1483" y="-24" font-family="Helvetica,sans-Serif" font-size="10.00">src/expconfig/setups</text>
<text text-anchor="middle" x="1539" y="-13" font-family="Helvetica,sans-Serif" font-size="10.00">/Setup_2010_03_Base.cc</text>
</a>
</g>
</g>
<!-- Node51&#45;&gt;Node54 -->
<g id="edge4" class="edge"><title>Node51&#45;&gt;Node54</title>
<path fill="none" stroke="midnightblue" d="M1436.39,-74.4135C1459.75,-62.4783 1489.64,-47.2147 1511.12,-36.2412"/>
<polygon fill="midnightblue" stroke="midnightblue" points="1434.78,-71.3068 1427.46,-78.9727 1437.96,-77.5407 1434.78,-71.3068"/>
</g>
<!-- Node55 -->
<g id="node6" class="node"><title>Node55</title>
<g id="a_node6"><a xlink:href="_setup__2014___e_p_t_8cc.html" target="_top" xlink:title="src/expconfig/setups\l/Setup_2014_EPT.cc">
<polygon fill="white" stroke="black" points="1621,-6 1621,-36 1731,-36 1731,-6 1621,-6"/>
<text text-anchor="start" x="1629" y="-24" font-family="Helvetica,sans-Serif" font-size="10.00">src/expconfig/setups</text>
<text text-anchor="middle" x="1676" y="-13" font-family="Helvetica,sans-Serif" font-size="10.00">/Setup_2014_EPT.cc</text>
</a>
</g>
</g>
<!-- Node51&#45;&gt;Node55 -->
<g id="edge5" class="edge"><title>Node51&#45;&gt;Node55</title>
<path fill="none" stroke="midnightblue" d="M1468.53,-77.7374C1510.19,-68.1553 1564.37,-55.1558 1612,-42 1618.62,-40.1715 1625.59,-38.1234 1632.39,-36.0542"/>
<polygon fill="midnightblue" stroke="midnightblue" points="1467.73,-74.3305 1458.76,-79.9744 1469.29,-81.1539 1467.73,-74.3305"/>
</g>
<!-- Node56 -->
<g id="node7" class="node"><title>Node56</title>
<g id="a_node7"><a xlink:href="_setup__2015__01___pion_8cc.html" target="_top" xlink:title="src/expconfig/setups\l/Setup_2015_01_Pion.cc">
<polygon fill="white" stroke="black" points="1749.5,-6 1749.5,-36 1874.5,-36 1874.5,-6 1749.5,-6"/>
<text text-anchor="start" x="1757.5" y="-24" font-family="Helvetica,sans-Serif" font-size="10.00">src/expconfig/setups</text>
<text text-anchor="middle" x="1812" y="-13" font-family="Helvetica,sans-Serif" font-size="10.00">/Setup_2015_01_Pion.cc</text>
</a>
</g>
</g>
<!-- Node51&#45;&gt;Node56 -->
<g id="edge6" class="edge"><title>Node51&#45;&gt;Node56</title>
<path fill="none" stroke="midnightblue" d="M1469.05,-85.1514C1538.06,-76.7204 1646.99,-61.8161 1740,-42 1747.99,-40.2969 1756.41,-38.2208 1764.57,-36.0584"/>
<polygon fill="midnightblue" stroke="midnightblue" points="1468.26,-81.7223 1458.75,-86.3984 1469.1,-88.6716 1468.26,-81.7223"/>
</g>
<!-- Node57 -->
<g id="node8" class="node"><title>Node57</title>
<g id="a_node8"><a xlink:href="_setup__2017__03_8cc.html" target="_top" xlink:title="src/expconfig/setups\l/Setup_2017_03.cc">
<polygon fill="white" stroke="black" points="271.5,-6 271.5,-36 378.5,-36 378.5,-6 271.5,-6"/>
<text text-anchor="start" x="279.5" y="-24" font-family="Helvetica,sans-Serif" font-size="10.00">src/expconfig/setups</text>
<text text-anchor="middle" x="325" y="-13" font-family="Helvetica,sans-Serif" font-size="10.00">/Setup_2017_03.cc</text>
</a>
</g>
</g>
<!-- Node51&#45;&gt;Node57 -->
<g id="edge7" class="edge"><title>Node51&#45;&gt;Node57</title>
<path fill="none" stroke="midnightblue" d="M1331.21,-78.0822C913.309,-25.924 797.647,-114.631 387,-42 379.093,-40.6014 370.802,-38.4402 362.95,-36.047"/>
<polygon fill="midnightblue" stroke="midnightblue" points="1330.78,-81.5553 1341.14,-79.3406 1331.66,-74.6109 1330.78,-81.5553"/>
</g>
<!-- Node58 -->
<g id="node9" class="node"><title>Node58</title>
<g id="a_node9"><a xlink:href="_setup__2017__05_8cc.html" target="_top" xlink:title="src/expconfig/setups\l/Setup_2017_05.cc">
<polygon fill="white" stroke="black" points="396.5,-6 396.5,-36 503.5,-36 503.5,-6 396.5,-6"/>
<text text-anchor="start" x="404.5" y="-24" font-family="Helvetica,sans-Serif" font-size="10.00">src/expconfig/setups</text>
<text text-anchor="middle" x="450" y="-13" font-family="Helvetica,sans-Serif" font-size="10.00">/Setup_2017_05.cc</text>
</a>
</g>
</g>
<!-- Node51&#45;&gt;Node58 -->
<g id="edge8" class="edge"><title>Node51&#45;&gt;Node58</title>
<path fill="none" stroke="midnightblue" d="M1331.17,-78.0702C968.938,-31.9253 868.504,-105.099 513,-42 504.978,-40.5761 496.56,-38.4037 488.582,-36.0074"/>
<polygon fill="midnightblue" stroke="midnightblue" points="1330.77,-81.5481 1341.14,-79.3621 1331.67,-74.6062 1330.77,-81.5481"/>
</g>
<!-- Node59 -->
<g id="node10" class="node"><title>Node59</title>
<g id="a_node10"><a xlink:href="_setup__2017_plus___new_tagger___base_8cc.html" target="_top" xlink:title="src/expconfig/setups\l/Setup_2017Plus_NewTagger\l_Base.cc">
<polygon fill="white" stroke="black" points="522,-0.5 522,-41.5 668,-41.5 668,-0.5 522,-0.5"/>
<text text-anchor="start" x="530" y="-29.5" font-family="Helvetica,sans-Serif" font-size="10.00">src/expconfig/setups</text>
<text text-anchor="start" x="530" y="-18.5" font-family="Helvetica,sans-Serif" font-size="10.00">/Setup_2017Plus_NewTagger</text>
<text text-anchor="middle" x="595" y="-7.5" font-family="Helvetica,sans-Serif" font-size="10.00">_Base.cc</text>
</a>
</g>
</g>
<!-- Node51&#45;&gt;Node59 -->
<g id="edge9" class="edge"><title>Node51&#45;&gt;Node59</title>
<path fill="none" stroke="midnightblue" d="M1331.18,-78.0559C1041.37,-39.4964 962.164,-84.2439 677,-42 674.101,-41.5705 671.154,-41.0861 668.185,-40.5579"/>
<polygon fill="midnightblue" stroke="midnightblue" points="1330.75,-81.5306 1341.13,-79.4022 1331.69,-74.5937 1330.75,-81.5306"/>
</g>
<!-- Node60 -->
<g id="node11" class="node"><title>Node60</title>
<g id="a_node11"><a xlink:href="_setup__2018__11_8cc.html" target="_top" xlink:title="src/expconfig/setups\l/Setup_2018_11.cc">
<polygon fill="white" stroke="black" points="686.5,-6 686.5,-36 793.5,-36 793.5,-6 686.5,-6"/>
<text text-anchor="start" x="694.5" y="-24" font-family="Helvetica,sans-Serif" font-size="10.00">src/expconfig/setups</text>
<text text-anchor="middle" x="740" y="-13" font-family="Helvetica,sans-Serif" font-size="10.00">/Setup_2018_11.cc</text>
</a>
</g>
</g>
<!-- Node51&#45;&gt;Node60 -->
<g id="edge10" class="edge"><title>Node51&#45;&gt;Node60</title>
<path fill="none" stroke="midnightblue" d="M1331.27,-78.0711C1096.44,-45.6525 1030.57,-85.9422 802,-42 794.336,-40.5267 786.3,-38.3946 778.648,-36.066"/>
<polygon fill="midnightblue" stroke="midnightblue" points="1331.11,-81.5822 1341.5,-79.5135 1332.08,-74.6508 1331.11,-81.5822"/>
</g>
<!-- Node61 -->
<g id="node12" class="node"><title>Node61</title>
<g id="a_node12"><a xlink:href="_setup__2019__01_8cc.html" target="_top" xlink:title="src/expconfig/setups\l/Setup_2019_01.cc">
<polygon fill="white" stroke="black" points="946.5,-6 946.5,-36 1053.5,-36 1053.5,-6 946.5,-6"/>
<text text-anchor="start" x="954.5" y="-24" font-family="Helvetica,sans-Serif" font-size="10.00">src/expconfig/setups</text>
<text text-anchor="middle" x="1000" y="-13" font-family="Helvetica,sans-Serif" font-size="10.00">/Setup_2019_01.cc</text>
</a>
</g>
</g>
<!-- Node51&#45;&gt;Node61 -->
<g id="edge11" class="edge"><title>Node51&#45;&gt;Node61</title>
<path fill="none" stroke="midnightblue" d="M1331.48,-78.0228C1211,-57.535 1176.97,-67.9868 1062,-42 1054.83,-40.3792 1047.3,-38.2921 1040.06,-36.08"/>
<polygon fill="midnightblue" stroke="midnightblue" points="1331.01,-81.4935 1341.46,-79.7567 1332.2,-74.5968 1331.01,-81.4935"/>
</g>
<!-- Node62 -->
<g id="node13" class="node"><title>Node62</title>
<g id="a_node13"><a xlink:href="_setup__2019__06_8cc.html" target="_top" xlink:title="src/expconfig/setups\l/Setup_2019_06.cc">
<polygon fill="white" stroke="black" points="1071.5,-6 1071.5,-36 1178.5,-36 1178.5,-6 1071.5,-6"/>
<text text-anchor="start" x="1079.5" y="-24" font-family="Helvetica,sans-Serif" font-size="10.00">src/expconfig/setups</text>
<text text-anchor="middle" x="1125" y="-13" font-family="Helvetica,sans-Serif" font-size="10.00">/Setup_2019_06.cc</text>
</a>
</g>
</g>
<!-- Node51&#45;&gt;Node62 -->
<g id="edge12" class="edge"><title>Node51&#45;&gt;Node62</title>
<path fill="none" stroke="midnightblue" d="M1331.45,-77.8148C1289.78,-68.2606 1235.6,-55.2633 1188,-42 1181.48,-40.1828 1174.62,-38.1408 1167.92,-36.0743"/>
<polygon fill="midnightblue" stroke="midnightblue" points="1330.69,-81.232 1341.22,-80.0446 1332.25,-74.4074 1330.69,-81.232"/>
</g>
<!-- Node63 -->
<g id="node14" class="node"><title>Node63</title>
<g id="a_node14"><a xlink:href="_setup___c_b_source_calib_8cc.html" target="_top" xlink:title="src/expconfig/setups\l/Setup_CBSourceCalib.cc">
<polygon fill="white" stroke="black" points="2162.5,-6 2162.5,-36 2293.5,-36 2293.5,-6 2162.5,-6"/>
<text text-anchor="start" x="2170.5" y="-24" font-family="Helvetica,sans-Serif" font-size="10.00">src/expconfig/setups</text>
<text text-anchor="middle" x="2228" y="-13" font-family="Helvetica,sans-Serif" font-size="10.00">/Setup_CBSourceCalib.cc</text>
</a>
</g>
</g>
<!-- Node51&#45;&gt;Node63 -->
<g id="edge13" class="edge"><title>Node51&#45;&gt;Node63</title>
<path fill="none" stroke="midnightblue" d="M1468.8,-90.0425C1628.84,-82.8872 2022.4,-63.6281 2153,-42 2162.04,-40.5029 2171.57,-38.39 2180.69,-36.094"/>
<polygon fill="midnightblue" stroke="midnightblue" points="1468.44,-86.5551 1458.6,-90.4962 1468.75,-93.5482 1468.44,-86.5551"/>
</g>
<!-- Node64 -->
<g id="node15" class="node"><title>Node64</title>
<g id="a_node15"><a xlink:href="expconfig__helpers_8cc.html" target="_top" xlink:title="test/expconfig_helpers.cc">
<polygon fill="white" stroke="black" points="1197,-11.5 1197,-30.5 1325,-30.5 1325,-11.5 1197,-11.5"/>
<text text-anchor="middle" x="1261" y="-18.5" font-family="Helvetica,sans-Serif" font-size="10.00">test/expconfig_helpers.cc</text>
</a>
</g>
</g>
<!-- Node51&#45;&gt;Node64 -->
<g id="edge14" class="edge"><title>Node51&#45;&gt;Node64</title>
<path fill="none" stroke="midnightblue" d="M1363.54,-74.3742C1335.85,-60.2344 1299.06,-41.4403 1277.91,-30.6372"/>
<polygon fill="midnightblue" stroke="midnightblue" points="1362.04,-77.5407 1372.54,-78.9727 1365.22,-71.3068 1362.04,-77.5407"/>
</g>
<!-- Node65&#45;&gt;Node63 -->
<g id="edge17" class="edge"><title>Node65&#45;&gt;Node63</title>
<path fill="none" stroke="midnightblue" d="M1949.54,-77.9546C2041.01,-60.1775 2066.18,-61.2001 2153,-42 2161.03,-40.2251 2169.49,-38.1604 2177.72,-36.0449"/>
<polygon fill="midnightblue" stroke="midnightblue" points="1948.71,-74.5505 1939.57,-79.9143 1950.06,-81.419 1948.71,-74.5505"/>
</g>
<!-- Node66 -->
<g id="node17" class="node"><title>Node66</title>
<g id="a_node17"><a xlink:href="calibration_2modules_2_c_b___source_calib_8cc.html" target="_top" xlink:title="src/calibration/modules\l/CB_SourceCalib.cc">
<polygon fill="white" stroke="black" points="2311.5,-6 2311.5,-36 2428.5,-36 2428.5,-6 2311.5,-6"/>
<text text-anchor="start" x="2319.5" y="-24" font-family="Helvetica,sans-Serif" font-size="10.00">src/calibration/modules</text>
<text text-anchor="middle" x="2370" y="-13" font-family="Helvetica,sans-Serif" font-size="10.00">/CB_SourceCalib.cc</text>
</a>
</g>
</g>
<!-- Node65&#45;&gt;Node66 -->
<g id="edge16" class="edge"><title>Node65&#45;&gt;Node66</title>
<path fill="none" stroke="midnightblue" d="M1949.53,-78.0573C2106.5,-53.7479 2150.42,-71.7553 2302,-42 2310.09,-40.4118 2318.6,-38.285 2326.76,-36.0103"/>
<polygon fill="midnightblue" stroke="midnightblue" points="1948.85,-74.6212 1939.52,-79.6407 1949.95,-81.5352 1948.85,-74.6212"/>
</g>
<!-- Node68&#45;&gt;Node53 -->
<g id="edge21" class="edge"><title>Node68&#45;&gt;Node53</title>
<path fill="none" stroke="midnightblue" d="M1300.64,-74.2549C1323.29,-62.3433 1352.15,-47.1661 1372.92,-36.2412"/>
<polygon fill="midnightblue" stroke="midnightblue" points="1298.89,-71.2202 1291.67,-78.9727 1302.15,-77.4156 1298.89,-71.2202"/>
</g>
<!-- Node68&#45;&gt;Node54 -->
<g id="edge22" class="edge"><title>Node68&#45;&gt;Node54</title>
<path fill="none" stroke="midnightblue" d="M1331.26,-76.3566C1370.23,-66.5032 1420.46,-53.6974 1465,-42 1472.21,-40.107 1479.8,-38.0851 1487.27,-36.0814"/>
<polygon fill="midnightblue" stroke="midnightblue" points="1329.93,-73.0823 1321.09,-78.9245 1331.64,-79.8691 1329.93,-73.0823"/>
</g>
<!-- Node68&#45;&gt;Node55 -->
<g id="edge23" class="edge"><title>Node68&#45;&gt;Node55</title>
<path fill="none" stroke="midnightblue" d="M1333.99,-77.7555C1457.42,-56.9052 1492.66,-68.1077 1612,-42 1619.39,-40.3829 1627.16,-38.2976 1634.63,-36.0861"/>
<polygon fill="midnightblue" stroke="midnightblue" points="1333.02,-74.3706 1323.76,-79.5214 1334.21,-81.2685 1333.02,-74.3706"/>
</g>
<!-- Node68&#45;&gt;Node56 -->
<g id="edge24" class="edge"><title>Node68&#45;&gt;Node56</title>
<path fill="none" stroke="midnightblue" d="M1333.8,-77.8496C1513.69,-50.9184 1564.12,-73.9094 1740,-42 1748.55,-40.4483 1757.56,-38.3389 1766.2,-36.07"/>
<polygon fill="midnightblue" stroke="midnightblue" points="1333.1,-74.4167 1323.74,-79.3874 1334.16,-81.3364 1333.1,-74.4167"/>
</g>
<!-- Node68&#45;&gt;Node57 -->
<g id="edge25" class="edge"><title>Node68&#45;&gt;Node57</title>
<path fill="none" stroke="midnightblue" d="M1196.01,-78.0497C837.879,-32.3902 738.357,-105.293 387,-42 379.097,-40.5764 370.809,-38.404 362.957,-36.0077"/>
<polygon fill="midnightblue" stroke="midnightblue" points="1195.77,-81.5481 1206.14,-79.3638 1196.67,-74.6063 1195.77,-81.5481"/>
</g>
<!-- Node68&#45;&gt;Node58 -->
<g id="edge26" class="edge"><title>Node68&#45;&gt;Node58</title>
<path fill="none" stroke="midnightblue" d="M1196.2,-78.0649C893.538,-38.3375 809.286,-95.912 513,-42 505.097,-40.562 496.806,-38.415 488.929,-36.0543"/>
<polygon fill="midnightblue" stroke="midnightblue" points="1195.76,-81.5373 1206.13,-79.3937 1196.69,-74.5991 1195.76,-81.5373"/>
</g>
<!-- Node68&#45;&gt;Node59 -->
<g id="edge27" class="edge"><title>Node68&#45;&gt;Node59</title>
<path fill="none" stroke="midnightblue" d="M1196.46,-78.0903C965.921,-45.8683 902.675,-77.072 677,-42 674.104,-41.5499 671.16,-41.0481 668.193,-40.5054"/>
<polygon fill="midnightblue" stroke="midnightblue" points="1196.1,-81.5749 1206.5,-79.5184 1197.09,-74.6447 1196.1,-81.5749"/>
</g>
<!-- Node68&#45;&gt;Node60 -->
<g id="edge28" class="edge"><title>Node68&#45;&gt;Node60</title>
<path fill="none" stroke="midnightblue" d="M1196.4,-78.0621C1020.98,-51.915 971.513,-76.6206 802,-42 794.465,-40.461 786.558,-38.3285 779.009,-36.0263"/>
<polygon fill="midnightblue" stroke="midnightblue" points="1196.07,-81.5525 1206.48,-79.6003 1197.13,-74.6325 1196.07,-81.5525"/>
</g>
<!-- Node68&#45;&gt;Node61 -->
<g id="edge29" class="edge"><title>Node68&#45;&gt;Node61</title>
<path fill="none" stroke="midnightblue" d="M1196.31,-76.9349C1156.84,-67.4078 1106.44,-54.7352 1062,-42 1055.59,-40.1617 1048.83,-38.1085 1042.24,-36.037"/>
<polygon fill="midnightblue" stroke="midnightblue" points="1195.56,-80.3534 1206.1,-79.2874 1197.19,-73.5472 1195.56,-80.3534"/>
</g>
<!-- Node68&#45;&gt;Node62 -->
<g id="edge30" class="edge"><title>Node68&#45;&gt;Node62</title>
<path fill="none" stroke="midnightblue" d="M1228.35,-74.4135C1204.82,-62.4783 1174.72,-47.2147 1153.08,-36.2412"/>
<polygon fill="midnightblue" stroke="midnightblue" points="1226.84,-77.5711 1237.34,-78.9727 1230,-71.3281 1226.84,-77.5711"/>
</g>
<!-- Node68&#45;&gt;Node64 -->
<g id="edge31" class="edge"><title>Node68&#45;&gt;Node64</title>
<path fill="none" stroke="midnightblue" d="M1263.63,-68.6317C1262.89,-55.4675 1262.02,-40.0312 1261.49,-30.6372"/>
<polygon fill="midnightblue" stroke="midnightblue" points="1260.15,-69.1854 1264.21,-78.9727 1267.14,-68.7916 1260.15,-69.1854"/>
</g>
<!-- Node69 -->
<g id="node20" class="node"><title>Node69</title>
<g id="a_node20"><a xlink:href="calibration_2modules_2_p_i_d___energy_8cc.html" target="_top" xlink:title="src/calibration/modules\l/PID_Energy.cc">
<polygon fill="white" stroke="black" points="1892.5,-6 1892.5,-36 2009.5,-36 2009.5,-6 1892.5,-6"/>
<text text-anchor="start" x="1900.5" y="-24" font-family="Helvetica,sans-Serif" font-size="10.00">src/calibration/modules</text>
<text text-anchor="middle" x="1951" y="-13" font-family="Helvetica,sans-Serif" font-size="10.00">/PID_Energy.cc</text>
</a>
</g>
</g>
<!-- Node68&#45;&gt;Node69 -->
<g id="edge20" class="edge"><title>Node68&#45;&gt;Node69</title>
<path fill="none" stroke="midnightblue" d="M1333.93,-77.8684C1576.76,-44.2145 1644.67,-84.2981 1883,-42 1891.36,-40.5163 1900.15,-38.3794 1908.54,-36.0493"/>
<polygon fill="midnightblue" stroke="midnightblue" points="1333.14,-74.4449 1323.73,-79.3107 1334.12,-81.376 1333.14,-74.4449"/>
</g>
<!-- Node70&#45;&gt;Node53 -->
<g id="edge34" class="edge"><title>Node70&#45;&gt;Node53</title>
<path fill="none" stroke="midnightblue" d="M1063.72,-77.794C1183.85,-57.2186 1217.95,-67.0879 1334,-42 1341.61,-40.3555 1349.61,-38.2568 1357.31,-36.0405"/>
<polygon fill="midnightblue" stroke="midnightblue" points="1063.01,-74.364 1053.77,-79.5339 1064.22,-81.2594 1063.01,-74.364"/>
</g>
<!-- Node70&#45;&gt;Node54 -->
<g id="edge35" class="edge"><title>Node70&#45;&gt;Node54</title>
<path fill="none" stroke="midnightblue" d="M1063.69,-77.8649C1241.46,-51.1205 1291.17,-73.009 1465,-42 1473.78,-40.4341 1483.03,-38.318 1491.91,-36.0468"/>
<polygon fill="midnightblue" stroke="midnightblue" points="1063.1,-74.4145 1053.74,-79.3911 1064.16,-81.3335 1063.1,-74.4145"/>
</g>
<!-- Node70&#45;&gt;Node55 -->
<g id="edge36" class="edge"><title>Node70&#45;&gt;Node55</title>
<path fill="none" stroke="midnightblue" d="M1063.91,-77.8718C1306.33,-44.3149 1374.47,-86.2366 1612,-42 1619.9,-40.5294 1628.19,-38.3986 1636.08,-36.0703"/>
<polygon fill="midnightblue" stroke="midnightblue" points="1063.14,-74.4458 1053.73,-79.3111 1064.12,-81.3769 1063.14,-74.4458"/>
</g>
<!-- Node70&#45;&gt;Node56 -->
<g id="edge37" class="edge"><title>Node70&#45;&gt;Node56</title>
<path fill="none" stroke="midnightblue" d="M1063.99,-77.878C1362.8,-38.0885 1445.54,-90.1238 1740,-42 1748.96,-40.5353 1758.41,-38.3762 1767.4,-36.012"/>
<polygon fill="midnightblue" stroke="midnightblue" points="1063.16,-74.4579 1053.73,-79.2696 1064.1,-81.3945 1063.16,-74.4579"/>
</g>
<!-- Node70&#45;&gt;Node57 -->
<g id="edge38" class="edge"><title>Node70&#45;&gt;Node57</title>
<path fill="none" stroke="midnightblue" d="M926.442,-78.096C687.056,-45.1637 620.006,-86.6438 387,-42 379.335,-40.5315 371.298,-38.4016 363.647,-36.0737"/>
<polygon fill="midnightblue" stroke="midnightblue" points="926.107,-81.5832 936.497,-79.5087 927.081,-74.6513 926.107,-81.5832"/>
</g>
<!-- Node70&#45;&gt;Node58 -->
<g id="edge39" class="edge"><title>Node70&#45;&gt;Node58</title>
<path fill="none" stroke="midnightblue" d="M926.488,-78.0799C742.624,-51.0167 690.936,-77.5265 513,-42 505.348,-40.4722 497.316,-38.3448 489.646,-36.0443"/>
<polygon fill="midnightblue" stroke="midnightblue" points="926.076,-81.5573 936.486,-79.5847 927.118,-74.6352 926.076,-81.5573"/>
</g>
<!-- Node70&#45;&gt;Node59 -->
<g id="edge40" class="edge"><title>Node70&#45;&gt;Node59</title>
<path fill="none" stroke="midnightblue" d="M926.478,-77.9998C814.831,-58.1816 784.092,-62.7208 677,-42 674.123,-41.4433 671.194,-40.8515 668.241,-40.2335"/>
<polygon fill="midnightblue" stroke="midnightblue" points="925.988,-81.4678 936.45,-79.7959 927.229,-74.5786 925.988,-81.4678"/>
</g>
<!-- Node70&#45;&gt;Node60 -->
<g id="edge41" class="edge"><title>Node70&#45;&gt;Node60</title>
<path fill="none" stroke="midnightblue" d="M928.852,-76.4571C891.479,-66.8762 843.977,-54.3072 802,-42 795.705,-40.1544 789.08,-38.1185 782.598,-36.0733"/>
<polygon fill="midnightblue" stroke="midnightblue" points="928.063,-79.8677 938.618,-78.9517 929.795,-73.0855 928.063,-79.8677"/>
</g>
<!-- Node70&#45;&gt;Node61 -->
<g id="edge42" class="edge"><title>Node70&#45;&gt;Node61</title>
<path fill="none" stroke="midnightblue" d="M996.697,-68.8976C997.456,-58.1314 998.324,-45.8005 998.98,-36.4856"/>
<polygon fill="midnightblue" stroke="midnightblue" points="993.199,-68.7515 995.988,-78.9727 1000.18,-69.2433 993.199,-68.7515"/>
</g>
<!-- Node70&#45;&gt;Node62 -->
<g id="edge43" class="edge"><title>Node70&#45;&gt;Node62</title>
<path fill="none" stroke="midnightblue" d="M1029.61,-74.0959C1051.38,-62.2085 1079.01,-47.1176 1098.92,-36.2412"/>
<polygon fill="midnightblue" stroke="midnightblue" points="1027.78,-71.1076 1020.68,-78.9727 1031.14,-77.2511 1027.78,-71.1076"/>
</g>
<!-- Node70&#45;&gt;Node64 -->
<g id="edge44" class="edge"><title>Node70&#45;&gt;Node64</title>
<path fill="none" stroke="midnightblue" d="M1057.77,-76.4007C1095.28,-66.4615 1143.88,-53.5537 1187,-42 1200.88,-38.2801 1216.22,-34.1393 1229.32,-30.5948"/>
<polygon fill="midnightblue" stroke="midnightblue" points="1056.76,-73.0472 1047.99,-78.991 1058.55,-79.8139 1056.76,-73.0472"/>
</g>
<!-- Node71 -->
<g id="node22" class="node"><title>Node71</title>
<g id="a_node22"><a xlink:href="calibration_2modules_2_t_a_p_s___energy_8cc.html" target="_top" xlink:title="src/calibration/modules\l/TAPS_Energy.cc">
<polygon fill="white" stroke="black" points="136.5,-6 136.5,-36 253.5,-36 253.5,-6 136.5,-6"/>
<text text-anchor="start" x="144.5" y="-24" font-family="Helvetica,sans-Serif" font-size="10.00">src/calibration/modules</text>
<text text-anchor="middle" x="195" y="-13" font-family="Helvetica,sans-Serif" font-size="10.00">/TAPS_Energy.cc</text>
</a>
</g>
</g>
<!-- Node70&#45;&gt;Node71 -->
<g id="edge33" class="edge"><title>Node70&#45;&gt;Node71</title>
<path fill="none" stroke="midnightblue" d="M926.029,-78.0401C631.903,-39.203 550.342,-92.1148 262,-42 253.628,-40.5449 244.825,-38.3902 236.453,-36.0273"/>
<polygon fill="midnightblue" stroke="midnightblue" points="925.756,-81.5349 936.134,-79.3992 926.689,-74.5973 925.756,-81.5349"/>
</g>
<!-- Node72&#45;&gt;Node53 -->
<g id="edge47" class="edge"><title>Node72&#45;&gt;Node53</title>
<path fill="none" stroke="midnightblue" d="M928.781,-77.8548C1108.26,-51.0369 1158.94,-75.8913 1334,-42 1341.99,-40.4526 1350.4,-38.3161 1358.43,-36.0127"/>
<polygon fill="midnightblue" stroke="midnightblue" points="928.099,-74.4183 918.742,-79.3882 929.156,-81.338 928.099,-74.4183"/>
</g>
<!-- Node72&#45;&gt;Node54 -->
<g id="edge48" class="edge"><title>Node72&#45;&gt;Node54</title>
<path fill="none" stroke="midnightblue" d="M928.698,-77.8968C1165.98,-44.7385 1231.86,-80.915 1465,-42 1474.06,-40.4882 1483.61,-38.3384 1492.73,-36.0044"/>
<polygon fill="midnightblue" stroke="midnightblue" points="928.138,-74.4412 918.732,-79.316 929.125,-81.3713 928.138,-74.4412"/>
</g>
<!-- Node72&#45;&gt;Node55 -->
<g id="edge49" class="edge"><title>Node72&#45;&gt;Node55</title>
<path fill="none" stroke="midnightblue" d="M928.647,-77.9263C1230.84,-37.8138 1315.16,-95.3096 1612,-42 1620.02,-40.5596 1628.44,-38.4116 1636.44,-36.0506"/>
<polygon fill="midnightblue" stroke="midnightblue" points="928.166,-74.4594 918.725,-79.2678 929.104,-81.3963 928.166,-74.4594"/>
</g>
<!-- Node72&#45;&gt;Node56 -->
<g id="edge50" class="edge"><title>Node72&#45;&gt;Node56</title>
<path fill="none" stroke="midnightblue" d="M928.861,-77.9081C1287.36,-31.5656 1386.11,-98.2393 1740,-42 1748.97,-40.5747 1758.42,-38.4335 1767.41,-36.0745"/>
<polygon fill="midnightblue" stroke="midnightblue" points="928.18,-74.4674 918.721,-79.2399 929.092,-81.4078 928.18,-74.4674"/>
</g>
<!-- Node72&#45;&gt;Node57 -->
<g id="edge51" class="edge"><title>Node72&#45;&gt;Node57</title>
<path fill="none" stroke="midnightblue" d="M791.039,-89.9882C698.315,-84.9366 528.715,-72.1647 387,-42 379.588,-40.4224 371.809,-38.3006 364.363,-36.0276"/>
<polygon fill="midnightblue" stroke="midnightblue" points="790.965,-93.4891 801.137,-90.5243 791.337,-86.499 790.965,-93.4891"/>
</g>
<!-- Node72&#45;&gt;Node58 -->
<g id="edge52" class="edge"><title>Node72&#45;&gt;Node58</title>
<path fill="none" stroke="midnightblue" d="M791.364,-86.2214C720.92,-78.4938 608.431,-64.0089 513,-42 505.844,-40.3495 498.328,-38.2743 491.08,-36.0899"/>
<polygon fill="midnightblue" stroke="midnightblue" points="791.126,-89.716 801.445,-87.3126 791.879,-82.7567 791.126,-89.716"/>
</g>
<!-- Node72&#45;&gt;Node59 -->
<g id="edge53" class="edge"><title>Node72&#45;&gt;Node59</title>
<path fill="none" stroke="midnightblue" d="M797.508,-76.2568C758.633,-65.8413 708.479,-52.4037 667.81,-41.5075"/>
<polygon fill="midnightblue" stroke="midnightblue" points="797.079,-79.7654 807.645,-78.9727 798.891,-73.0039 797.079,-79.7654"/>
</g>
<!-- Node72&#45;&gt;Node60 -->
<g id="edge54" class="edge"><title>Node72&#45;&gt;Node60</title>
<path fill="none" stroke="midnightblue" d="M827.51,-73.7767C807.503,-61.9394 782.288,-47.0204 764.07,-36.2412"/>
<polygon fill="midnightblue" stroke="midnightblue" points="825.903,-76.8928 836.292,-78.9727 829.468,-70.8683 825.903,-76.8928"/>
</g>
<!-- Node72&#45;&gt;Node61 -->
<g id="edge55" class="edge"><title>Node72&#45;&gt;Node61</title>
<path fill="none" stroke="midnightblue" d="M896.649,-74.4135C920.184,-62.4783 950.281,-47.2147 971.919,-36.2412"/>
<polygon fill="midnightblue" stroke="midnightblue" points="894.995,-71.3281 887.659,-78.9727 898.161,-77.5711 894.995,-71.3281"/>
</g>
<!-- Node72&#45;&gt;Node62 -->
<g id="edge56" class="edge"><title>Node72&#45;&gt;Node62</title>
<path fill="none" stroke="midnightblue" d="M928.326,-76.8318C967.588,-67.2711 1017.74,-54.5993 1062,-42 1068.51,-40.1462 1075.37,-38.0845 1082.06,-36.0093"/>
<polygon fill="midnightblue" stroke="midnightblue" points="927.482,-73.4348 918.589,-79.1935 929.132,-80.2376 927.482,-73.4348"/>
</g>
<!-- Node72&#45;&gt;Node64 -->
<g id="edge57" class="edge"><title>Node72&#45;&gt;Node64</title>
<path fill="none" stroke="midnightblue" d="M928.659,-77.7903C1043.55,-57.6545 1075.81,-64.6288 1187,-42 1202.26,-38.8948 1219.03,-34.4504 1232.74,-30.5395"/>
<polygon fill="midnightblue" stroke="midnightblue" points="928,-74.3524 918.77,-79.554 929.229,-81.2437 928,-74.3524"/>
</g>
<!-- Node73 -->
<g id="node24" class="node"><title>Node73</title>
<g id="a_node24"><a xlink:href="calibration_2modules_2_t_a_p_s___short_energy_8cc.html" target="_top" xlink:title="src/calibration/modules\l/TAPS_ShortEnergy.cc">
<polygon fill="white" stroke="black" points="-0.5,-6 -0.5,-36 118.5,-36 118.5,-6 -0.5,-6"/>
<text text-anchor="start" x="7.5" y="-24" font-family="Helvetica,sans-Serif" font-size="10.00">src/calibration/modules</text>
<text text-anchor="middle" x="59" y="-13" font-family="Helvetica,sans-Serif" font-size="10.00">/TAPS_ShortEnergy.cc</text>
</a>
</g>
</g>
<!-- Node72&#45;&gt;Node73 -->
<g id="edge46" class="edge"><title>Node72&#45;&gt;Node73</title>
<path fill="none" stroke="midnightblue" d="M790.769,-93.1522C659.994,-92.3453 368.126,-85.3194 127,-42 118.643,-40.4986 109.851,-38.3536 101.465,-36.0211"/>
<polygon fill="midnightblue" stroke="midnightblue" points="791.017,-96.6534 801.035,-93.2047 791.053,-89.6535 791.017,-96.6534"/>
</g>
<!-- Node74&#45;&gt;Node53 -->
<g id="edge60" class="edge"><title>Node74&#45;&gt;Node53</title>
<path fill="none" stroke="midnightblue" d="M1198.52,-76.7623C1238.21,-67.1324 1289.07,-54.4151 1334,-42 1340.69,-40.1504 1347.74,-38.1123 1354.64,-36.066"/>
<polygon fill="midnightblue" stroke="midnightblue" points="1197.57,-73.3896 1188.68,-79.1419 1199.22,-80.1936 1197.57,-73.3896"/>
</g>
<!-- Node74&#45;&gt;Node54 -->
<g id="edge61" class="edge"><title>Node74&#45;&gt;Node54</title>
<path fill="none" stroke="midnightblue" d="M1198.94,-77.7487C1317.11,-57.3131 1350.41,-65.0798 1465,-42 1473.35,-40.3184 1482.15,-38.2275 1490.65,-36.0372"/>
<polygon fill="midnightblue" stroke="midnightblue" points="1198.01,-74.3586 1188.77,-79.5404 1199.22,-81.2525 1198.01,-74.3586"/>
</g>
<!-- Node74&#45;&gt;Node55 -->
<g id="edge62" class="edge"><title>Node74&#45;&gt;Node55</title>
<path fill="none" stroke="midnightblue" d="M1198.7,-77.8708C1381.78,-50.6815 1433.55,-77.1906 1612,-42 1619.77,-40.4684 1627.92,-38.3394 1635.71,-36.0383"/>
<polygon fill="midnightblue" stroke="midnightblue" points="1198.1,-74.4207 1188.74,-79.3825 1199.15,-81.3414 1198.1,-74.4207"/>
</g>
<!-- Node74&#45;&gt;Node56 -->
<g id="edge63" class="edge"><title>Node74&#45;&gt;Node56</title>
<path fill="none" stroke="midnightblue" d="M1198.79,-77.8857C1438.2,-44.5317 1504.83,-82.0243 1740,-42 1748.82,-40.4981 1758.12,-38.3529 1767,-36.0203"/>
<polygon fill="midnightblue" stroke="midnightblue" points="1198.14,-74.4425 1188.73,-79.314 1199.12,-81.373 1198.14,-74.4425"/>
</g>
<!-- Node74&#45;&gt;Node57 -->
<g id="edge64" class="edge"><title>Node74&#45;&gt;Node57</title>
<path fill="none" stroke="midnightblue" d="M1060.88,-78.0229C762.449,-38.8192 679.111,-95.9591 387,-42 379.215,-40.5619 371.051,-38.4149 363.299,-36.0542"/>
<polygon fill="midnightblue" stroke="midnightblue" points="1060.76,-81.5375 1071.13,-79.3963 1061.69,-74.5995 1060.76,-81.5375"/>
</g>
<!-- Node74&#45;&gt;Node58 -->
<g id="edge65" class="edge"><title>Node74&#45;&gt;Node58</title>
<path fill="none" stroke="midnightblue" d="M1061.28,-78.0748C818.059,-44.7446 750.001,-86.7054 513,-42 505.219,-40.5323 497.056,-38.4029 489.282,-36.075"/>
<polygon fill="midnightblue" stroke="midnightblue" points="1061.11,-81.5847 1071.5,-79.5047 1062.08,-74.6523 1061.11,-81.5847"/>
</g>
<!-- Node74&#45;&gt;Node59 -->
<g id="edge66" class="edge"><title>Node74&#45;&gt;Node59</title>
<path fill="none" stroke="midnightblue" d="M1061.38,-78.0505C890.421,-52.1455 843.261,-69.8956 677,-42 674.11,-41.5151 671.171,-40.9838 668.208,-40.4165"/>
<polygon fill="midnightblue" stroke="midnightblue" points="1061.06,-81.5426 1071.48,-79.6091 1062.13,-74.6246 1061.06,-81.5426"/>
</g>
<!-- Node74&#45;&gt;Node60 -->
<g id="edge67" class="edge"><title>Node74&#45;&gt;Node60</title>
<path fill="none" stroke="midnightblue" d="M1061.46,-78.0141C945.39,-57.9707 912.613,-67.2949 802,-42 794.833,-40.3612 787.309,-38.2652 780.071,-36.0498"/>
<polygon fill="midnightblue" stroke="midnightblue" points="1061,-81.486 1071.45,-79.7756 1062.21,-74.5923 1061,-81.486"/>
</g>
<!-- Node74&#45;&gt;Node61 -->
<g id="edge68" class="edge"><title>Node74&#45;&gt;Node61</title>
<path fill="none" stroke="midnightblue" d="M1095.39,-74.0959C1073.62,-62.2085 1045.99,-47.1176 1026.08,-36.2412"/>
<polygon fill="midnightblue" stroke="midnightblue" points="1093.86,-77.2511 1104.32,-78.9727 1097.22,-71.1076 1093.86,-77.2511"/>
</g>
<!-- Node74&#45;&gt;Node62 -->
<g id="edge69" class="edge"><title>Node74&#45;&gt;Node62</title>
<path fill="none" stroke="midnightblue" d="M1128.3,-68.8976C1127.54,-58.1314 1126.68,-45.8005 1126.02,-36.4856"/>
<polygon fill="midnightblue" stroke="midnightblue" points="1124.82,-69.2433 1129.01,-78.9727 1131.8,-68.7515 1124.82,-69.2433"/>
</g>
<!-- Node74&#45;&gt;Node64 -->
<g id="edge70" class="edge"><title>Node74&#45;&gt;Node64</title>
<path fill="none" stroke="midnightblue" d="M1164.71,-74.1895C1190.76,-60.0711 1225.22,-41.3934 1245.06,-30.6372"/>
<polygon fill="midnightblue" stroke="midnightblue" points="1163.01,-71.1305 1155.88,-78.9727 1166.34,-77.2848 1163.01,-71.1305"/>
</g>
<!-- Node75 -->
<g id="node26" class="node"><title>Node75</title>
<g id="a_node26"><a xlink:href="calibration_2modules_2_t_a_p_s_veto___energy_8cc.html" target="_top" xlink:title="src/calibration/modules\l/TAPSVeto_Energy.cc">
<polygon fill="white" stroke="black" points="811.5,-6 811.5,-36 928.5,-36 928.5,-6 811.5,-6"/>
<text text-anchor="start" x="819.5" y="-24" font-family="Helvetica,sans-Serif" font-size="10.00">src/calibration/modules</text>
<text text-anchor="middle" x="870" y="-13" font-family="Helvetica,sans-Serif" font-size="10.00">/TAPSVeto_Energy.cc</text>
</a>
</g>
</g>
<!-- Node74&#45;&gt;Node75 -->
<g id="edge59" class="edge"><title>Node74&#45;&gt;Node75</title>
<path fill="none" stroke="midnightblue" d="M1065.17,-76.4174C1027.65,-66.6824 979.569,-53.9748 937,-42 930.339,-40.1263 923.323,-38.0955 916.44,-36.0704"/>
<polygon fill="midnightblue" stroke="midnightblue" points="1064.41,-79.8352 1074.97,-78.9534 1066.16,-73.0586 1064.41,-79.8352"/>
</g>
</g>
</svg>
