<?xml version="1.0" encoding="UTF-8" standalone="no"?>
<!DOCTYPE svg PUBLIC "-//W3C//DTD SVG 1.1//EN"
 "http://www.w3.org/Graphics/SVG/1.1/DTD/svg11.dtd">
<!-- Generated by graphviz version 2.36.0 (20140111.2315)
 -->
<!-- Title: src/calibration/fitfunctions/FitGausPol1.h Pages: 1 -->
<svg width="136pt" height="108pt"
 viewBox="0.00 0.00 136.00 108.00" xmlns="http://www.w3.org/2000/svg" xmlns:xlink="http://www.w3.org/1999/xlink">
<g id="graph0" class="graph" transform="scale(1 1) rotate(0) translate(4 104)">
<title>src/calibration/fitfunctions/FitGausPol1.h</title>
<polygon fill="white" stroke="none" points="-4,4 -4,-104 132,-104 132,4 -4,4"/>
<!-- Node18 -->
<g id="node1" class="node"><title>Node18</title>
<polygon fill="#bfbfbf" stroke="black" points="0,-69 0,-99 128,-99 128,-69 0,-69"/>
<text text-anchor="start" x="8" y="-87" font-family="Helvetica,sans-Serif" font-size="10.00">src/calibration/fitfunctions</text>
<text text-anchor="middle" x="64" y="-76" font-family="Helvetica,sans-Serif" font-size="10.00">/FitGausPol1.h</text>
</g>
<!-- Node19 -->
<g id="node2" class="node"><title>Node19</title>
<g id="a_node2"><a xlink:href="_fit_gaus_pol1_8cc.html" target="_top" xlink:title="src/calibration/fitfunctions\l/FitGausPol1.cc">
<polygon fill="white" stroke="black" points="0,-1 0,-31 128,-31 128,-1 0,-1"/>
<text text-anchor="start" x="8" y="-19" font-family="Helvetica,sans-Serif" font-size="10.00">src/calibration/fitfunctions</text>
<text text-anchor="middle" x="64" y="-8" font-family="Helvetica,sans-Serif" font-size="10.00">/FitGausPol1.cc</text>
</a>
</g>
</g>
<!-- Node18&#45;&gt;Node19 -->
<g id="edge1" class="edge"><title>Node18&#45;&gt;Node19</title>
<path fill="none" stroke="midnightblue" d="M64,-58.5322C64,-49.3606 64,-39.2449 64,-31.2931"/>
<polygon fill="midnightblue" stroke="midnightblue" points="60.5001,-58.6789 64,-68.679 67.5001,-58.679 60.5001,-58.6789"/>
</g>
</g>
</svg>
