<?xml version="1.0" encoding="UTF-8" standalone="no"?>
<!DOCTYPE svg PUBLIC "-//W3C//DTD SVG 1.1//EN"
 "http://www.w3.org/Graphics/SVG/1.1/DTD/svg11.dtd">
<!-- Generated by graphviz version 2.36.0 (20140111.2315)
 -->
<!-- Title: src/calibration/fitfunctions/FitGausPol0.h Pages: 1 -->
<svg width="1892pt" height="118pt"
 viewBox="0.00 0.00 1892.00 118.00" xmlns="http://www.w3.org/2000/svg" xmlns:xlink="http://www.w3.org/1999/xlink">
<g id="graph0" class="graph" transform="scale(1 1) rotate(0) translate(4 114)">
<title>src/calibration/fitfunctions/FitGausPol0.h</title>
<polygon fill="white" stroke="none" points="-4,4 -4,-114 1888,-114 1888,4 -4,4"/>
<!-- Node18 -->
<g id="node1" class="node"><title>Node18</title>
<polygon fill="#bfbfbf" stroke="black" points="888,-79 888,-109 1016,-109 1016,-79 888,-79"/>
<text text-anchor="start" x="896" y="-97" font-family="Helvetica,sans-Serif" font-size="10.00">src/calibration/fitfunctions</text>
<text text-anchor="middle" x="952" y="-86" font-family="Helvetica,sans-Serif" font-size="10.00">/FitGausPol0.h</text>
</g>
<!-- Node19 -->
<g id="node2" class="node"><title>Node19</title>
<g id="a_node2"><a xlink:href="_fit_gaus_pol0_8cc.html" target="_top" xlink:title="src/calibration/fitfunctions\l/FitGausPol0.cc">
<polygon fill="white" stroke="black" points="0,-6 0,-36 128,-36 128,-6 0,-6"/>
<text text-anchor="start" x="8" y="-24" font-family="Helvetica,sans-Serif" font-size="10.00">src/calibration/fitfunctions</text>
<text text-anchor="middle" x="64" y="-13" font-family="Helvetica,sans-Serif" font-size="10.00">/FitGausPol0.cc</text>
</a>
</g>
</g>
<!-- Node18&#45;&gt;Node19 -->
<g id="edge1" class="edge"><title>Node18&#45;&gt;Node19</title>
<path fill="none" stroke="midnightblue" d="M877.788,-93.4184C733.87,-93.1159 407.234,-86.9846 137,-42 128.056,-40.5111 118.63,-38.3719 109.632,-36.0411"/>
<polygon fill="midnightblue" stroke="midnightblue" points="877.826,-96.9183 887.831,-93.4306 877.835,-89.9183 877.826,-96.9183"/>
</g>
<!-- Node20 -->
<g id="node3" class="node"><title>Node20</title>
<g id="a_node3"><a xlink:href="_t_a_p_s___time_8cc.html" target="_top" xlink:title="src/calibration/modules\l/TAPS_Time.cc">
<polygon fill="white" stroke="black" points="146.5,-6 146.5,-36 263.5,-36 263.5,-6 146.5,-6"/>
<text text-anchor="start" x="154.5" y="-24" font-family="Helvetica,sans-Serif" font-size="10.00">src/calibration/modules</text>
<text text-anchor="middle" x="205" y="-13" font-family="Helvetica,sans-Serif" font-size="10.00">/TAPS_Time.cc</text>
</a>
</g>
</g>
<!-- Node18&#45;&gt;Node20 -->
<g id="edge2" class="edge"><title>Node18&#45;&gt;Node20</title>
<path fill="none" stroke="midnightblue" d="M877.372,-92.6304C751.494,-90.8452 489.417,-82.1192 272,-42 263.882,-40.5021 255.35,-38.3888 247.196,-36.0928"/>
<polygon fill="midnightblue" stroke="midnightblue" points="877.617,-96.1338 887.662,-92.7651 877.708,-89.1344 877.617,-96.1338"/>
</g>
<!-- Node21 -->
<g id="node4" class="node"><title>Node21</title>
<g id="a_node4"><a xlink:href="_t_a_p_s_veto___time_8cc.html" target="_top" xlink:title="src/calibration/modules\l/TAPSVeto_Time.cc">
<polygon fill="white" stroke="black" points="281.5,-6 281.5,-36 398.5,-36 398.5,-6 281.5,-6"/>
<text text-anchor="start" x="289.5" y="-24" font-family="Helvetica,sans-Serif" font-size="10.00">src/calibration/modules</text>
<text text-anchor="middle" x="340" y="-13" font-family="Helvetica,sans-Serif" font-size="10.00">/TAPSVeto_Time.cc</text>
</a>
</g>
</g>
<!-- Node18&#45;&gt;Node21 -->
<g id="edge3" class="edge"><title>Node18&#45;&gt;Node21</title>
<path fill="none" stroke="midnightblue" d="M877.42,-90.6623C771.834,-86.3051 573.123,-74.2411 407,-42 399.016,-40.4504 390.621,-38.342 382.579,-36.0734"/>
<polygon fill="midnightblue" stroke="midnightblue" points="877.521,-94.1691 887.653,-91.0724 877.801,-87.1747 877.521,-94.1691"/>
</g>
<!-- Node22 -->
<g id="node5" class="node"><title>Node22</title>
<g id="a_node5"><a xlink:href="_setup__2007___base_8cc.html" target="_top" xlink:title="src/expconfig/setups\l/Setup_2007_Base.cc">
<polygon fill="white" stroke="black" points="416.5,-6 416.5,-36 529.5,-36 529.5,-6 416.5,-6"/>
<text text-anchor="start" x="424.5" y="-24" font-family="Helvetica,sans-Serif" font-size="10.00">src/expconfig/setups</text>
<text text-anchor="middle" x="473" y="-13" font-family="Helvetica,sans-Serif" font-size="10.00">/Setup_2007_Base.cc</text>
</a>
</g>
</g>
<!-- Node18&#45;&gt;Node22 -->
<g id="edge4" class="edge"><title>Node18&#45;&gt;Node22</title>
<path fill="none" stroke="midnightblue" d="M877.648,-87.6783C794.472,-80.8337 656.042,-66.7693 539,-42 531.386,-40.3887 523.384,-38.3063 515.681,-36.0959"/>
<polygon fill="midnightblue" stroke="midnightblue" points="877.512,-91.1786 887.762,-88.4973 878.077,-84.2015 877.512,-91.1786"/>
</g>
<!-- Node23 -->
<g id="node6" class="node"><title>Node23</title>
<g id="a_node6"><a xlink:href="_setup__2010__03___base_8cc.html" target="_top" xlink:title="src/expconfig/setups\l/Setup_2010_03_Base.cc">
<polygon fill="white" stroke="black" points="548,-6 548,-36 676,-36 676,-6 548,-6"/>
<text text-anchor="start" x="556" y="-24" font-family="Helvetica,sans-Serif" font-size="10.00">src/expconfig/setups</text>
<text text-anchor="middle" x="612" y="-13" font-family="Helvetica,sans-Serif" font-size="10.00">/Setup_2010_03_Base.cc</text>
</a>
</g>
</g>
<!-- Node18&#45;&gt;Node23 -->
<g id="edge5" class="edge"><title>Node18&#45;&gt;Node23</title>
<path fill="none" stroke="midnightblue" d="M877.645,-80.4155C823.897,-70.9257 749.672,-57.0113 685,-42 677.32,-40.2173 669.23,-38.1716 661.344,-36.0842"/>
<polygon fill="midnightblue" stroke="midnightblue" points="877.319,-83.9118 887.774,-82.1943 878.53,-77.0173 877.319,-83.9118"/>
</g>
<!-- Node24 -->
<g id="node7" class="node"><title>Node24</title>
<g id="a_node7"><a xlink:href="_setup__2014___e_p_t_8cc.html" target="_top" xlink:title="src/expconfig/setups\l/Setup_2014_EPT.cc">
<polygon fill="white" stroke="black" points="694,-6 694,-36 804,-36 804,-6 694,-6"/>
<text text-anchor="start" x="702" y="-24" font-family="Helvetica,sans-Serif" font-size="10.00">src/expconfig/setups</text>
<text text-anchor="middle" x="749" y="-13" font-family="Helvetica,sans-Serif" font-size="10.00">/Setup_2014_EPT.cc</text>
</a>
</g>
</g>
<!-- Node18&#45;&gt;Node24 -->
<g id="edge6" class="edge"><title>Node18&#45;&gt;Node24</title>
<path fill="none" stroke="midnightblue" d="M902.414,-75.657C867.687,-63.5112 821.867,-47.4854 789.37,-36.1195"/>
<polygon fill="midnightblue" stroke="midnightblue" points="901.299,-78.9749 911.894,-78.9727 903.61,-72.3674 901.299,-78.9749"/>
</g>
<!-- Node25 -->
<g id="node8" class="node"><title>Node25</title>
<g id="a_node8"><a xlink:href="_setup__2015__01___pion_8cc.html" target="_top" xlink:title="src/expconfig/setups\l/Setup_2015_01_Pion.cc">
<polygon fill="white" stroke="black" points="822.5,-6 822.5,-36 947.5,-36 947.5,-6 822.5,-6"/>
<text text-anchor="start" x="830.5" y="-24" font-family="Helvetica,sans-Serif" font-size="10.00">src/expconfig/setups</text>
<text text-anchor="middle" x="885" y="-13" font-family="Helvetica,sans-Serif" font-size="10.00">/Setup_2015_01_Pion.cc</text>
</a>
</g>
</g>
<!-- Node18&#45;&gt;Node25 -->
<g id="edge7" class="edge"><title>Node18&#45;&gt;Node25</title>
<path fill="none" stroke="midnightblue" d="M931.762,-71.5539C921.055,-60.2075 908.192,-46.5768 898.67,-36.4856"/>
<polygon fill="midnightblue" stroke="midnightblue" points="929.354,-74.1018 938.763,-78.9727 934.445,-69.2975 929.354,-74.1018"/>
</g>
<!-- Node26 -->
<g id="node9" class="node"><title>Node26</title>
<g id="a_node9"><a xlink:href="_setup__2017__03_8cc.html" target="_top" xlink:title="src/expconfig/setups\l/Setup_2017_03.cc">
<polygon fill="white" stroke="black" points="965.5,-6 965.5,-36 1072.5,-36 1072.5,-6 965.5,-6"/>
<text text-anchor="start" x="973.5" y="-24" font-family="Helvetica,sans-Serif" font-size="10.00">src/expconfig/setups</text>
<text text-anchor="middle" x="1019" y="-13" font-family="Helvetica,sans-Serif" font-size="10.00">/Setup_2017_03.cc</text>
</a>
</g>
</g>
<!-- Node18&#45;&gt;Node26 -->
<g id="edge8" class="edge"><title>Node18&#45;&gt;Node26</title>
<path fill="none" stroke="midnightblue" d="M972.238,-71.5539C982.945,-60.2075 995.808,-46.5768 1005.33,-36.4856"/>
<polygon fill="midnightblue" stroke="midnightblue" points="969.555,-69.2975 965.237,-78.9727 974.646,-74.1018 969.555,-69.2975"/>
</g>
<!-- Node27 -->
<g id="node10" class="node"><title>Node27</title>
<g id="a_node10"><a xlink:href="_setup__2017__05_8cc.html" target="_top" xlink:title="src/expconfig/setups\l/Setup_2017_05.cc">
<polygon fill="white" stroke="black" points="1090.5,-6 1090.5,-36 1197.5,-36 1197.5,-6 1090.5,-6"/>
<text text-anchor="start" x="1098.5" y="-24" font-family="Helvetica,sans-Serif" font-size="10.00">src/expconfig/setups</text>
<text text-anchor="middle" x="1144" y="-13" font-family="Helvetica,sans-Serif" font-size="10.00">/Setup_2017_05.cc</text>
</a>
</g>
</g>
<!-- Node18&#45;&gt;Node27 -->
<g id="edge9" class="edge"><title>Node18&#45;&gt;Node27</title>
<path fill="none" stroke="midnightblue" d="M999.321,-75.501C1032.11,-63.3743 1075.21,-47.4369 1105.82,-36.1195"/>
<polygon fill="midnightblue" stroke="midnightblue" points="998.098,-72.2215 989.933,-78.9727 1000.53,-78.787 998.098,-72.2215"/>
</g>
<!-- Node28 -->
<g id="node11" class="node"><title>Node28</title>
<g id="a_node11"><a xlink:href="_setup__2017_plus___new_tagger___base_8cc.html" target="_top" xlink:title="src/expconfig/setups\l/Setup_2017Plus_NewTagger\l_Base.cc">
<polygon fill="white" stroke="black" points="1216,-0.5 1216,-41.5 1362,-41.5 1362,-0.5 1216,-0.5"/>
<text text-anchor="start" x="1224" y="-29.5" font-family="Helvetica,sans-Serif" font-size="10.00">src/expconfig/setups</text>
<text text-anchor="start" x="1224" y="-18.5" font-family="Helvetica,sans-Serif" font-size="10.00">/Setup_2017Plus_NewTagger</text>
<text text-anchor="middle" x="1289" y="-7.5" font-family="Helvetica,sans-Serif" font-size="10.00">_Base.cc</text>
</a>
</g>
</g>
<!-- Node18&#45;&gt;Node28 -->
<g id="edge10" class="edge"><title>Node18&#45;&gt;Node28</title>
<path fill="none" stroke="midnightblue" d="M1025.98,-78.9212C1076.74,-69.0722 1145.58,-55.341 1206,-42 1209.18,-41.297 1212.43,-40.5671 1215.71,-39.8201"/>
<polygon fill="midnightblue" stroke="midnightblue" points="1025.23,-75.5013 1016.08,-80.838 1026.56,-82.3737 1025.23,-75.5013"/>
</g>
<!-- Node29 -->
<g id="node12" class="node"><title>Node29</title>
<g id="a_node12"><a xlink:href="_setup__2018__11_8cc.html" target="_top" xlink:title="src/expconfig/setups\l/Setup_2018_11.cc">
<polygon fill="white" stroke="black" points="1380.5,-6 1380.5,-36 1487.5,-36 1487.5,-6 1380.5,-6"/>
<text text-anchor="start" x="1388.5" y="-24" font-family="Helvetica,sans-Serif" font-size="10.00">src/expconfig/setups</text>
<text text-anchor="middle" x="1434" y="-13" font-family="Helvetica,sans-Serif" font-size="10.00">/Setup_2018_11.cc</text>
</a>
</g>
</g>
<!-- Node18&#45;&gt;Node29 -->
<g id="edge11" class="edge"><title>Node18&#45;&gt;Node29</title>
<path fill="none" stroke="midnightblue" d="M1026.14,-88.1685C1110.43,-81.71 1251.79,-67.9398 1371,-42 1378.4,-40.3896 1386.17,-38.2803 1393.63,-36.0362"/>
<polygon fill="midnightblue" stroke="midnightblue" points="1025.86,-84.6797 1016.15,-88.9202 1026.38,-91.66 1025.86,-84.6797"/>
</g>
<!-- Node30 -->
<g id="node13" class="node"><title>Node30</title>
<g id="a_node13"><a xlink:href="_setup__2019__01_8cc.html" target="_top" xlink:title="src/expconfig/setups\l/Setup_2019_01.cc">
<polygon fill="white" stroke="black" points="1505.5,-6 1505.5,-36 1612.5,-36 1612.5,-6 1505.5,-6"/>
<text text-anchor="start" x="1513.5" y="-24" font-family="Helvetica,sans-Serif" font-size="10.00">src/expconfig/setups</text>
<text text-anchor="middle" x="1559" y="-13" font-family="Helvetica,sans-Serif" font-size="10.00">/Setup_2019_01.cc</text>
</a>
</g>
</g>
<!-- Node18&#45;&gt;Node30 -->
<g id="edge12" class="edge"><title>Node18&#45;&gt;Node30</title>
<path fill="none" stroke="midnightblue" d="M1026.52,-91.0486C1132.01,-87.1511 1330.47,-75.6306 1496,-42 1503.65,-40.4464 1511.68,-38.307 1519.35,-36.0026"/>
<polygon fill="midnightblue" stroke="midnightblue" points="1026.17,-87.5589 1016.3,-91.4131 1026.42,-94.5545 1026.17,-87.5589"/>
</g>
<!-- Node31 -->
<g id="node14" class="node"><title>Node31</title>
<g id="a_node14"><a xlink:href="_setup__2019__06_8cc.html" target="_top" xlink:title="src/expconfig/setups\l/Setup_2019_06.cc">
<polygon fill="white" stroke="black" points="1630.5,-6 1630.5,-36 1737.5,-36 1737.5,-6 1630.5,-6"/>
<text text-anchor="start" x="1638.5" y="-24" font-family="Helvetica,sans-Serif" font-size="10.00">src/expconfig/setups</text>
<text text-anchor="middle" x="1684" y="-13" font-family="Helvetica,sans-Serif" font-size="10.00">/Setup_2019_06.cc</text>
</a>
</g>
</g>
<!-- Node18&#45;&gt;Node31 -->
<g id="edge13" class="edge"><title>Node18&#45;&gt;Node31</title>
<path fill="none" stroke="midnightblue" d="M1026.47,-92.9129C1150.8,-91.5253 1408.01,-83.3468 1621,-42 1628.77,-40.4911 1636.93,-38.3426 1644.71,-36.009"/>
<polygon fill="midnightblue" stroke="midnightblue" points="1026.27,-89.4146 1016.3,-93.0144 1026.34,-96.4143 1026.27,-89.4146"/>
</g>
<!-- Node32 -->
<g id="node15" class="node"><title>Node32</title>
<g id="a_node15"><a xlink:href="expconfig__helpers_8cc.html" target="_top" xlink:title="test/expconfig_helpers.cc">
<polygon fill="white" stroke="black" points="1756,-11.5 1756,-30.5 1884,-30.5 1884,-11.5 1756,-11.5"/>
<text text-anchor="middle" x="1820" y="-18.5" font-family="Helvetica,sans-Serif" font-size="10.00">test/expconfig_helpers.cc</text>
</a>
</g>
</g>
<!-- Node18&#45;&gt;Node32 -->
<g id="edge14" class="edge"><title>Node18&#45;&gt;Node32</title>
<path fill="none" stroke="midnightblue" d="M1026.31,-93.1565C1167.52,-92.3673 1483.92,-85.3846 1746,-42 1762.02,-39.3484 1779.58,-34.6818 1793.57,-30.5231"/>
<polygon fill="midnightblue" stroke="midnightblue" points="1026.03,-89.6577 1016.04,-93.2046 1026.06,-96.6577 1026.03,-89.6577"/>
</g>
</g>
</svg>
