<?xml version="1.0" encoding="UTF-8" standalone="no"?>
<!DOCTYPE svg PUBLIC "-//W3C//DTD SVG 1.1//EN"
 "http://www.w3.org/Graphics/SVG/1.1/DTD/svg11.dtd">
<!-- Generated by graphviz version 2.36.0 (20140111.2315)
 -->
<!-- Title: src/root&#45;addons/analysis_codes/Fits.cc Pages: 1 -->
<svg width="1403pt" height="332pt"
 viewBox="0.00 0.00 1403.00 332.00" xmlns="http://www.w3.org/2000/svg" xmlns:xlink="http://www.w3.org/1999/xlink">
<g id="graph0" class="graph" transform="scale(1 1) rotate(0) translate(4 328)">
<title>src/root&#45;addons/analysis_codes/Fits.cc</title>
<polygon fill="white" stroke="none" points="-4,4 -4,-328 1399,-328 1399,4 -4,4"/>
<!-- Node0 -->
<g id="node1" class="node"><title>Node0</title>
<polygon fill="#bfbfbf" stroke="black" points="655.5,-293 655.5,-323 778.5,-323 778.5,-293 655.5,-293"/>
<text text-anchor="start" x="663.5" y="-311" font-family="Helvetica,sans-Serif" font-size="10.00">src/root&#45;addons/analysis</text>
<text text-anchor="middle" x="717" y="-300" font-family="Helvetica,sans-Serif" font-size="10.00">_codes/Fits.cc</text>
</g>
<!-- Node1 -->
<g id="node2" class="node"><title>Node1</title>
<g id="a_node2"><a xlink:href="_fits_8h.html" target="_top" xlink:title="Fits.h">
<polygon fill="white" stroke="black" points="144.5,-230.5 144.5,-249.5 185.5,-249.5 185.5,-230.5 144.5,-230.5"/>
<text text-anchor="middle" x="165" y="-237.5" font-family="Helvetica,sans-Serif" font-size="10.00">Fits.h</text>
</a>
</g>
</g>
<!-- Node0&#45;&gt;Node1 -->
<g id="edge1" class="edge"><title>Node0&#45;&gt;Node1</title>
<path fill="none" stroke="midnightblue" d="M655.459,-306.971C557.493,-305.587 360.729,-297.317 200,-256 197.179,-255.275 194.292,-254.355 191.445,-253.329"/>
<polygon fill="midnightblue" stroke="midnightblue" points="192.662,-250.045 182.078,-249.559 190.049,-256.539 192.662,-250.045"/>
</g>
<!-- Node2 -->
<g id="node3" class="node"><title>Node2</title>
<polygon fill="white" stroke="#bfbfbf" points="242,-168.5 242,-187.5 284,-187.5 284,-168.5 242,-168.5"/>
<text text-anchor="middle" x="263" y="-175.5" font-family="Helvetica,sans-Serif" font-size="10.00">TF1.h</text>
</g>
<!-- Node0&#45;&gt;Node2 -->
<g id="edge2" class="edge"><title>Node0&#45;&gt;Node2</title>
<path fill="none" stroke="midnightblue" d="M655.491,-307.01C583.663,-305.023 462.517,-295.375 367,-256 331.924,-241.541 297.869,-212.651 278.751,-194.661"/>
<polygon fill="midnightblue" stroke="midnightblue" points="281.144,-192.107 271.512,-187.692 276.289,-197.149 281.144,-192.107"/>
</g>
<!-- Node3 -->
<g id="node4" class="node"><title>Node3</title>
<polygon fill="white" stroke="#bfbfbf" points="602,-230.5 602,-249.5 646,-249.5 646,-230.5 602,-230.5"/>
<text text-anchor="middle" x="624" y="-237.5" font-family="Helvetica,sans-Serif" font-size="10.00">TH1.h</text>
</g>
<!-- Node0&#45;&gt;Node3 -->
<g id="edge3" class="edge"><title>Node0&#45;&gt;Node3</title>
<path fill="none" stroke="midnightblue" d="M696.82,-292.679C681.369,-281.713 660.136,-266.645 644.585,-255.609"/>
<polygon fill="midnightblue" stroke="midnightblue" points="646.352,-252.571 636.172,-249.638 642.301,-258.28 646.352,-252.571"/>
</g>
<!-- Node4 -->
<g id="node5" class="node"><title>Node4</title>
<polygon fill="white" stroke="#bfbfbf" points="664,-230.5 664,-249.5 708,-249.5 708,-230.5 664,-230.5"/>
<text text-anchor="middle" x="686" y="-237.5" font-family="Helvetica,sans-Serif" font-size="10.00">TH2.h</text>
</g>
<!-- Node0&#45;&gt;Node4 -->
<g id="edge4" class="edge"><title>Node0&#45;&gt;Node4</title>
<path fill="none" stroke="midnightblue" d="M710.273,-292.679C705.631,-282.796 699.424,-269.579 694.448,-258.986"/>
<polygon fill="midnightblue" stroke="midnightblue" points="697.566,-257.392 690.147,-249.828 691.23,-260.368 697.566,-257.392"/>
</g>
<!-- Node5 -->
<g id="node6" class="node"><title>Node5</title>
<polygon fill="white" stroke="#bfbfbf" points="726,-230.5 726,-249.5 770,-249.5 770,-230.5 726,-230.5"/>
<text text-anchor="middle" x="748" y="-237.5" font-family="Helvetica,sans-Serif" font-size="10.00">TH3.h</text>
</g>
<!-- Node0&#45;&gt;Node5 -->
<g id="edge5" class="edge"><title>Node0&#45;&gt;Node5</title>
<path fill="none" stroke="midnightblue" d="M723.727,-292.679C728.369,-282.796 734.576,-269.579 739.552,-258.986"/>
<polygon fill="midnightblue" stroke="midnightblue" points="742.77,-260.368 743.853,-249.828 736.434,-257.392 742.77,-260.368"/>
</g>
<!-- Node6 -->
<g id="node7" class="node"><title>Node6</title>
<polygon fill="white" stroke="#bfbfbf" points="788.5,-230.5 788.5,-249.5 853.5,-249.5 853.5,-230.5 788.5,-230.5"/>
<text text-anchor="middle" x="821" y="-237.5" font-family="Helvetica,sans-Serif" font-size="10.00">TCanvas.h</text>
</g>
<!-- Node0&#45;&gt;Node6 -->
<g id="edge6" class="edge"><title>Node0&#45;&gt;Node6</title>
<path fill="none" stroke="midnightblue" d="M739.311,-292.841C756.896,-281.681 781.295,-266.198 798.841,-255.063"/>
<polygon fill="midnightblue" stroke="midnightblue" points="800.752,-257.995 807.319,-249.682 797.001,-252.085 800.752,-257.995"/>
</g>
<!-- Node7 -->
<g id="node8" class="node"><title>Node7</title>
<g id="a_node8"><a xlink:href="root-addons_2analysis__codes_2math_8h.html" target="_top" xlink:title="root&#45;addons/analysis\l_codes/Math.h">
<polygon fill="white" stroke="black" points="375.5,-225 375.5,-255 482.5,-255 482.5,-225 375.5,-225"/>
<text text-anchor="start" x="383.5" y="-243" font-family="Helvetica,sans-Serif" font-size="10.00">root&#45;addons/analysis</text>
<text text-anchor="middle" x="429" y="-232" font-family="Helvetica,sans-Serif" font-size="10.00">_codes/Math.h</text>
</a>
</g>
</g>
<!-- Node0&#45;&gt;Node7 -->
<g id="edge7" class="edge"><title>Node0&#45;&gt;Node7</title>
<path fill="none" stroke="midnightblue" d="M655.57,-292.922C607.504,-281.907 540.9,-266.644 492.35,-255.518"/>
<polygon fill="midnightblue" stroke="midnightblue" points="493.114,-252.102 482.584,-253.28 491.55,-258.925 493.114,-252.102"/>
</g>
<!-- Node25 -->
<g id="node26" class="node"><title>Node25</title>
<g id="a_node26"><a xlink:href="_root_draw_8h.html" target="_top" xlink:title="analysis/plot/RootDraw.h">
<polygon fill="white" stroke="black" points="706.5,-168.5 706.5,-187.5 833.5,-187.5 833.5,-168.5 706.5,-168.5"/>
<text text-anchor="middle" x="770" y="-175.5" font-family="Helvetica,sans-Serif" font-size="10.00">analysis/plot/RootDraw.h</text>
</a>
</g>
</g>
<!-- Node0&#45;&gt;Node25 -->
<g id="edge58" class="edge"><title>Node0&#45;&gt;Node25</title>
<path fill="none" stroke="midnightblue" d="M661.968,-292.97C618.358,-279.132 568.511,-255.494 593,-224 605.973,-207.316 653.434,-195.805 695.946,-188.604"/>
<polygon fill="midnightblue" stroke="midnightblue" points="696.748,-192.019 706.054,-186.955 695.621,-185.111 696.748,-192.019"/>
</g>
<!-- Node30 -->
<g id="node31" class="node"><title>Node30</title>
<g id="a_node31"><a xlink:href="_particle_type_8h.html" target="_top" xlink:title="base/ParticleType.h">
<polygon fill="white" stroke="black" points="584,-112.5 584,-131.5 688,-131.5 688,-112.5 584,-112.5"/>
<text text-anchor="middle" x="636" y="-119.5" font-family="Helvetica,sans-Serif" font-size="10.00">base/ParticleType.h</text>
</a>
</g>
</g>
<!-- Node0&#45;&gt;Node30 -->
<g id="edge42" class="edge"><title>Node0&#45;&gt;Node30</title>
<path fill="none" stroke="midnightblue" d="M655.212,-299.462C628.045,-292.73 598.596,-280.011 582,-256 555.788,-218.078 595.651,-165.517 619.786,-139.273"/>
<polygon fill="midnightblue" stroke="midnightblue" points="622.607,-141.385 626.966,-131.729 617.537,-136.56 622.607,-141.385"/>
</g>
<!-- Node33 -->
<g id="node34" class="node"><title>Node33</title>
<polygon fill="white" stroke="#bfbfbf" points="871.5,-230.5 871.5,-249.5 924.5,-249.5 924.5,-230.5 871.5,-230.5"/>
<text text-anchor="middle" x="898" y="-237.5" font-family="Helvetica,sans-Serif" font-size="10.00">TStyle.h</text>
</g>
<!-- Node0&#45;&gt;Node33 -->
<g id="edge50" class="edge"><title>Node0&#45;&gt;Node33</title>
<path fill="none" stroke="midnightblue" d="M759.108,-292.894C788.171,-282.986 827.62,-269.197 862,-256 864.106,-255.192 866.273,-254.34 868.45,-253.469"/>
<polygon fill="midnightblue" stroke="midnightblue" points="869.963,-256.632 877.898,-249.611 867.317,-250.151 869.963,-256.632"/>
</g>
<!-- Node34 -->
<g id="node35" class="node"><title>Node34</title>
<polygon fill="white" stroke="#bfbfbf" points="942.5,-230.5 942.5,-249.5 997.5,-249.5 997.5,-230.5 942.5,-230.5"/>
<text text-anchor="middle" x="970" y="-237.5" font-family="Helvetica,sans-Serif" font-size="10.00">TLatex.h</text>
</g>
<!-- Node0&#45;&gt;Node34 -->
<g id="edge51" class="edge"><title>Node0&#45;&gt;Node34</title>
<path fill="none" stroke="midnightblue" d="M778.666,-295.067C822.249,-285.999 881.787,-272.321 933,-256 935.633,-255.161 938.344,-254.219 941.044,-253.227"/>
<polygon fill="midnightblue" stroke="midnightblue" points="942.565,-256.391 950.619,-249.508 940.03,-249.866 942.565,-256.391"/>
</g>
<!-- Node35 -->
<g id="node36" class="node"><title>Node35</title>
<g id="a_node36"><a xlink:href="string_8h.html" target="_top" xlink:title="base/std_ext/string.h">
<polygon fill="white" stroke="black" points="310,-56.5 310,-75.5 418,-75.5 418,-56.5 310,-56.5"/>
<text text-anchor="middle" x="364" y="-63.5" font-family="Helvetica,sans-Serif" font-size="10.00">base/std_ext/string.h</text>
</a>
</g>
</g>
<!-- Node0&#45;&gt;Node35 -->
<g id="edge52" class="edge"><title>Node0&#45;&gt;Node35</title>
<path fill="none" stroke="midnightblue" d="M655.439,-303.597C557.735,-297.473 372.071,-282.681 312,-256 263.966,-234.665 217.563,-218.241 233,-168 241.834,-139.248 248.242,-131.666 271,-112 287.566,-97.6852 309.477,-86.7907 327.871,-79.3092"/>
<polygon fill="midnightblue" stroke="midnightblue" points="329.343,-82.4919 337.395,-75.6061 326.807,-75.9677 329.343,-82.4919"/>
</g>
<!-- Node36 -->
<g id="node37" class="node"><title>Node36</title>
<polygon fill="white" stroke="#bfbfbf" points="1015.5,-230.5 1015.5,-249.5 1072.5,-249.5 1072.5,-230.5 1015.5,-230.5"/>
<text text-anchor="middle" x="1044" y="-237.5" font-family="Helvetica,sans-Serif" font-size="10.00">TGraph.h</text>
</g>
<!-- Node0&#45;&gt;Node36 -->
<g id="edge57" class="edge"><title>Node0&#45;&gt;Node36</title>
<path fill="none" stroke="midnightblue" d="M778.697,-299.774C837.766,-292 929.023,-277.745 1006,-256 1008.98,-255.159 1012.04,-254.17 1015.08,-253.107"/>
<polygon fill="midnightblue" stroke="midnightblue" points="1016.41,-256.346 1024.54,-249.553 1013.94,-249.794 1016.41,-256.346"/>
</g>
<!-- Node37 -->
<g id="node38" class="node"><title>Node37</title>
<polygon fill="white" stroke="#bfbfbf" points="1091,-230.5 1091,-249.5 1169,-249.5 1169,-230.5 1091,-230.5"/>
<text text-anchor="middle" x="1130" y="-237.5" font-family="Helvetica,sans-Serif" font-size="10.00">TMultiGraph.h</text>
</g>
<!-- Node0&#45;&gt;Node37 -->
<g id="edge59" class="edge"><title>Node0&#45;&gt;Node37</title>
<path fill="none" stroke="midnightblue" d="M778.713,-301.354C851.544,-294.001 976.025,-279.269 1081,-256 1085.52,-254.998 1090.23,-253.784 1094.86,-252.485"/>
<polygon fill="midnightblue" stroke="midnightblue" points="1096.17,-255.746 1104.77,-249.556 1094.19,-249.033 1096.17,-255.746"/>
</g>
<!-- Node38 -->
<g id="node39" class="node"><title>Node38</title>
<g id="a_node39"><a xlink:href="_crystal_ball_8h.html" target="_top" xlink:title="base/math_functions\l/CrystalBall.h">
<polygon fill="white" stroke="black" points="1187.5,-225 1187.5,-255 1294.5,-255 1294.5,-225 1187.5,-225"/>
<text text-anchor="start" x="1195.5" y="-243" font-family="Helvetica,sans-Serif" font-size="10.00">base/math_functions</text>
<text text-anchor="middle" x="1241" y="-232" font-family="Helvetica,sans-Serif" font-size="10.00">/CrystalBall.h</text>
</a>
</g>
</g>
<!-- Node0&#45;&gt;Node38 -->
<g id="edge60" class="edge"><title>Node0&#45;&gt;Node38</title>
<path fill="none" stroke="midnightblue" d="M778.86,-302.599C865.663,-295.883 1028.66,-281.304 1177.26,-255.982"/>
<polygon fill="midnightblue" stroke="midnightblue" points="1178.22,-259.368 1187.48,-254.219 1177.03,-252.47 1178.22,-259.368"/>
</g>
<!-- Node39 -->
<g id="node40" class="node"><title>Node39</title>
<polygon fill="white" stroke="#bfbfbf" points="1312.5,-230.5 1312.5,-249.5 1395.5,-249.5 1395.5,-230.5 1312.5,-230.5"/>
<text text-anchor="middle" x="1354" y="-237.5" font-family="Helvetica,sans-Serif" font-size="10.00">TGraphErrors.h</text>
</g>
<!-- Node0&#45;&gt;Node39 -->
<g id="edge61" class="edge"><title>Node0&#45;&gt;Node39</title>
<path fill="none" stroke="midnightblue" d="M778.711,-305.662C886.135,-302.438 1114.09,-291.633 1303,-256 1308.14,-255.031 1313.5,-253.755 1318.74,-252.357"/>
<polygon fill="midnightblue" stroke="midnightblue" points="1319.9,-255.666 1328.56,-249.565 1317.98,-248.933 1319.9,-255.666"/>
</g>
<!-- Node7&#45;&gt;Node2 -->
<g id="edge41" class="edge"><title>Node7&#45;&gt;Node2</title>
<path fill="none" stroke="midnightblue" d="M390.08,-224.933C360.849,-214.367 321.343,-200.088 294.179,-190.27"/>
<polygon fill="midnightblue" stroke="midnightblue" points="295.014,-186.85 284.42,-186.742 292.635,-193.433 295.014,-186.85"/>
</g>
<!-- Node8 -->
<g id="node9" class="node"><title>Node8</title>
<polygon fill="white" stroke="#bfbfbf" points="419.5,-112.5 419.5,-131.5 448.5,-131.5 448.5,-112.5 419.5,-112.5"/>
<text text-anchor="middle" x="434" y="-119.5" font-family="Helvetica,sans-Serif" font-size="10.00">list</text>
</g>
<!-- Node7&#45;&gt;Node8 -->
<g id="edge8" class="edge"><title>Node7&#45;&gt;Node8</title>
<path fill="none" stroke="midnightblue" d="M448.594,-224.859C459.497,-215.728 472.039,-202.807 478,-188 485.557,-169.228 469.541,-150.362 454.758,-137.829"/>
<polygon fill="midnightblue" stroke="midnightblue" points="456.843,-135.016 446.829,-131.558 452.501,-140.506 456.843,-135.016"/>
</g>
<!-- Node9 -->
<g id="node10" class="node"><title>Node9</title>
<g id="a_node10"><a xlink:href="interval_8h.html" target="_top" xlink:title="base/interval.h">
<polygon fill="white" stroke="black" points="136,-56.5 136,-75.5 216,-75.5 216,-56.5 136,-56.5"/>
<text text-anchor="middle" x="176" y="-63.5" font-family="Helvetica,sans-Serif" font-size="10.00">base/interval.h</text>
</a>
</g>
</g>
<!-- Node7&#45;&gt;Node9 -->
<g id="edge9" class="edge"><title>Node7&#45;&gt;Node9</title>
<path fill="none" stroke="midnightblue" d="M400.781,-224.993C354.064,-201.547 263.018,-154.7 235,-132 217.321,-117.677 200.196,-97.9527 188.991,-83.9986"/>
<polygon fill="midnightblue" stroke="midnightblue" points="191.465,-81.4815 182.537,-75.7768 185.959,-85.8039 191.465,-81.4815"/>
</g>
<!-- Node17 -->
<g id="node18" class="node"><title>Node17</title>
<g id="a_node18"><a xlink:href="piecewise__interval_8h.html" target="_top" xlink:title="base/piecewise_interval.h">
<polygon fill="white" stroke="black" points="340.5,-168.5 340.5,-187.5 469.5,-187.5 469.5,-168.5 340.5,-168.5"/>
<text text-anchor="middle" x="405" y="-175.5" font-family="Helvetica,sans-Serif" font-size="10.00">base/piecewise_interval.h</text>
</a>
</g>
</g>
<!-- Node7&#45;&gt;Node17 -->
<g id="edge17" class="edge"><title>Node7&#45;&gt;Node17</title>
<path fill="none" stroke="midnightblue" d="M423.312,-224.781C420.005,-216.512 415.802,-206.006 412.258,-197.145"/>
<polygon fill="midnightblue" stroke="midnightblue" points="415.456,-195.715 408.492,-187.731 408.957,-198.315 415.456,-195.715"/>
</g>
<!-- Node7&#45;&gt;Node25 -->
<g id="edge28" class="edge"><title>Node7&#45;&gt;Node25</title>
<path fill="none" stroke="midnightblue" d="M482.656,-229.559C544.969,-218.595 647.399,-200.572 711.648,-189.267"/>
<polygon fill="midnightblue" stroke="midnightblue" points="712.377,-192.693 721.62,-187.513 711.164,-185.799 712.377,-192.693"/>
</g>
<!-- Node10 -->
<g id="node11" class="node"><title>Node10</title>
<g id="a_node11"><a xlink:href="types_8h.html" target="_top" xlink:title="types.h">
<polygon fill="white" stroke="black" points="264.5,-0.5 264.5,-19.5 313.5,-19.5 313.5,-0.5 264.5,-0.5"/>
<text text-anchor="middle" x="289" y="-7.5" font-family="Helvetica,sans-Serif" font-size="10.00">types.h</text>
</a>
</g>
</g>
<!-- Node9&#45;&gt;Node10 -->
<g id="edge10" class="edge"><title>Node9&#45;&gt;Node10</title>
<path fill="none" stroke="midnightblue" d="M193.905,-56.4435C212.254,-47.6751 241.005,-33.9355 262.094,-23.8579"/>
<polygon fill="midnightblue" stroke="midnightblue" points="263.665,-26.9862 271.179,-19.5164 260.647,-20.6703 263.665,-26.9862"/>
</g>
<!-- Node11 -->
<g id="node12" class="node"><title>Node11</title>
<polygon fill="white" stroke="#bfbfbf" points="402,-0.5 402,-19.5 458,-19.5 458,-0.5 402,-0.5"/>
<text text-anchor="middle" x="430" y="-7.5" font-family="Helvetica,sans-Serif" font-size="10.00">algorithm</text>
</g>
<!-- Node9&#45;&gt;Node11 -->
<g id="edge11" class="edge"><title>Node9&#45;&gt;Node11</title>
<path fill="none" stroke="midnightblue" d="M216.083,-57.1139C257.654,-48.8404 324.779,-35.2179 391.849,-20.2036"/>
<polygon fill="midnightblue" stroke="midnightblue" points="392.753,-23.5878 401.742,-17.9788 391.217,-16.7584 392.753,-23.5878"/>
</g>
<!-- Node12 -->
<g id="node13" class="node"><title>Node12</title>
<polygon fill="white" stroke="#bfbfbf" points="187.5,-0.5 187.5,-19.5 246.5,-19.5 246.5,-0.5 187.5,-0.5"/>
<text text-anchor="middle" x="217" y="-7.5" font-family="Helvetica,sans-Serif" font-size="10.00">stdexcept</text>
</g>
<!-- Node9&#45;&gt;Node12 -->
<g id="edge12" class="edge"><title>Node9&#45;&gt;Node12</title>
<path fill="none" stroke="midnightblue" d="M182.77,-56.083C188.562,-48.4554 197.058,-37.2645 204.138,-27.9408"/>
<polygon fill="midnightblue" stroke="midnightblue" points="207.096,-29.8321 210.356,-19.7511 201.521,-25.5991 207.096,-29.8321"/>
</g>
<!-- Node13 -->
<g id="node14" class="node"><title>Node13</title>
<polygon fill="white" stroke="#bfbfbf" points="67,-0.5 67,-19.5 107,-19.5 107,-0.5 67,-0.5"/>
<text text-anchor="middle" x="87" y="-7.5" font-family="Helvetica,sans-Serif" font-size="10.00">limits</text>
</g>
<!-- Node9&#45;&gt;Node13 -->
<g id="edge13" class="edge"><title>Node9&#45;&gt;Node13</title>
<path fill="none" stroke="midnightblue" d="M161.701,-56.324C147.817,-47.9002 126.508,-34.9709 110.196,-25.0741"/>
<polygon fill="midnightblue" stroke="midnightblue" points="111.629,-21.8495 101.264,-19.6545 107.998,-27.8341 111.629,-21.8495"/>
</g>
<!-- Node14 -->
<g id="node15" class="node"><title>Node14</title>
<polygon fill="white" stroke="#bfbfbf" points="-0.5,-0.5 -0.5,-19.5 48.5,-19.5 48.5,-0.5 -0.5,-0.5"/>
<text text-anchor="middle" x="24" y="-7.5" font-family="Helvetica,sans-Serif" font-size="10.00">istream</text>
</g>
<!-- Node9&#45;&gt;Node14 -->
<g id="edge14" class="edge"><title>Node9&#45;&gt;Node14</title>
<path fill="none" stroke="midnightblue" d="M151.915,-56.4435C126.455,-47.3986 86.1062,-33.064 57.5409,-22.9158"/>
<polygon fill="midnightblue" stroke="midnightblue" points="58.5669,-19.5661 47.9722,-19.5164 56.2235,-26.1622 58.5669,-19.5661"/>
</g>
<!-- Node15 -->
<g id="node16" class="node"><title>Node15</title>
<polygon fill="white" stroke="#bfbfbf" points="332,-0.5 332,-19.5 384,-19.5 384,-0.5 332,-0.5"/>
<text text-anchor="middle" x="358" y="-7.5" font-family="Helvetica,sans-Serif" font-size="10.00">sstream</text>
</g>
<!-- Node9&#45;&gt;Node15 -->
<g id="edge15" class="edge"><title>Node9&#45;&gt;Node15</title>
<path fill="none" stroke="midnightblue" d="M204.838,-56.4435C236.677,-46.997 287.961,-31.7807 322.309,-21.5897"/>
<polygon fill="midnightblue" stroke="midnightblue" points="323.359,-24.929 331.95,-18.729 321.368,-18.2182 323.359,-24.929"/>
</g>
<!-- Node16 -->
<g id="node17" class="node"><title>Node16</title>
<polygon fill="white" stroke="#bfbfbf" points="125,-0.5 125,-19.5 169,-19.5 169,-0.5 125,-0.5"/>
<text text-anchor="middle" x="147" y="-7.5" font-family="Helvetica,sans-Serif" font-size="10.00">cmath</text>
</g>
<!-- Node9&#45;&gt;Node16 -->
<g id="edge16" class="edge"><title>Node9&#45;&gt;Node16</title>
<path fill="none" stroke="midnightblue" d="M171.211,-56.083C167.242,-48.6913 161.475,-37.9533 156.565,-28.8111"/>
<polygon fill="midnightblue" stroke="midnightblue" points="159.514,-26.9051 151.7,-19.7511 153.347,-30.217 159.514,-26.9051"/>
</g>
<!-- Node17&#45;&gt;Node9 -->
<g id="edge18" class="edge"><title>Node17&#45;&gt;Node9</title>
<path fill="none" stroke="midnightblue" d="M371.215,-168.453C343.487,-160.785 303.622,-148.245 271,-132 242.585,-117.85 212.857,-96.2348 194.385,-81.8661"/>
<polygon fill="midnightblue" stroke="midnightblue" points="196.523,-79.0945 186.506,-75.643 192.184,-84.5878 196.523,-79.0945"/>
</g>
<!-- Node18 -->
<g id="node19" class="node"><title>Node18</title>
<g id="a_node19"><a xlink:href="printable_8h.html" target="_top" xlink:title="base/std_ext/printable.h">
<polygon fill="white" stroke="black" points="280.5,-112.5 280.5,-131.5 401.5,-131.5 401.5,-112.5 280.5,-112.5"/>
<text text-anchor="middle" x="341" y="-119.5" font-family="Helvetica,sans-Serif" font-size="10.00">base/std_ext/printable.h</text>
</a>
</g>
</g>
<!-- Node17&#45;&gt;Node18 -->
<g id="edge19" class="edge"><title>Node17&#45;&gt;Node18</title>
<path fill="none" stroke="midnightblue" d="M394.717,-168.324C385.164,-160.263 370.72,-148.077 359.216,-138.369"/>
<polygon fill="midnightblue" stroke="midnightblue" points="361.37,-135.608 351.47,-131.834 356.856,-140.958 361.37,-135.608"/>
</g>
<!-- Node20 -->
<g id="node21" class="node"><title>Node20</title>
<polygon fill="white" stroke="#bfbfbf" points="755,-0.5 755,-19.5 799,-19.5 799,-0.5 755,-0.5"/>
<text text-anchor="middle" x="777" y="-7.5" font-family="Helvetica,sans-Serif" font-size="10.00">vector</text>
</g>
<!-- Node17&#45;&gt;Node20 -->
<g id="edge27" class="edge"><title>Node17&#45;&gt;Node20</title>
<path fill="none" stroke="midnightblue" d="M469.787,-175.947C530.626,-172.921 623.092,-162.998 697,-132 716.181,-123.955 761.971,-94.2227 772,-76 779.759,-61.9012 780.442,-43.412 779.515,-29.7587"/>
<polygon fill="midnightblue" stroke="midnightblue" points="782.978,-29.2215 778.478,-19.63 776.015,-29.9345 782.978,-29.2215"/>
</g>
<!-- Node19 -->
<g id="node20" class="node"><title>Node19</title>
<g id="a_node20"><a xlink:href="container_8h.html" target="_top" xlink:title="container.h">
<polygon fill="white" stroke="black" points="436.5,-56.5 436.5,-75.5 501.5,-75.5 501.5,-56.5 436.5,-56.5"/>
<text text-anchor="middle" x="469" y="-63.5" font-family="Helvetica,sans-Serif" font-size="10.00">container.h</text>
</a>
</g>
</g>
<!-- Node18&#45;&gt;Node19 -->
<g id="edge20" class="edge"><title>Node18&#45;&gt;Node19</title>
<path fill="none" stroke="midnightblue" d="M361.282,-112.444C382.347,-103.557 415.517,-89.5632 439.486,-79.4514"/>
<polygon fill="midnightblue" stroke="midnightblue" points="440.96,-82.6283 448.813,-75.5164 438.239,-76.1787 440.96,-82.6283"/>
</g>
<!-- Node23 -->
<g id="node24" class="node"><title>Node23</title>
<polygon fill="white" stroke="#bfbfbf" points="18,-56.5 18,-75.5 80,-75.5 80,-56.5 18,-56.5"/>
<text text-anchor="middle" x="49" y="-63.5" font-family="Helvetica,sans-Serif" font-size="10.00">type_traits</text>
</g>
<!-- Node18&#45;&gt;Node23 -->
<g id="edge25" class="edge"><title>Node18&#45;&gt;Node23</title>
<path fill="none" stroke="midnightblue" d="M292.678,-112.45C242.853,-103.574 162.929,-89.1709 94,-76 92.9044,-75.7907 91.7941,-75.5773 90.6739,-75.361"/>
<polygon fill="midnightblue" stroke="midnightblue" points="90.9436,-71.8475 80.4578,-73.3631 89.6001,-78.7174 90.9436,-71.8475"/>
</g>
<!-- Node24 -->
<g id="node25" class="node"><title>Node24</title>
<polygon fill="white" stroke="#bfbfbf" points="558,-56.5 558,-75.5 610,-75.5 610,-56.5 558,-56.5"/>
<text text-anchor="middle" x="584" y="-63.5" font-family="Helvetica,sans-Serif" font-size="10.00">ostream</text>
</g>
<!-- Node18&#45;&gt;Node24 -->
<g id="edge26" class="edge"><title>Node18&#45;&gt;Node24</title>
<path fill="none" stroke="midnightblue" d="M379.504,-112.444C425.69,-102.18 502.525,-85.1055 547.707,-75.0652"/>
<polygon fill="midnightblue" stroke="midnightblue" points="548.656,-78.4396 557.659,-72.8536 547.138,-71.6063 548.656,-78.4396"/>
</g>
<!-- Node19&#45;&gt;Node11 -->
<g id="edge22" class="edge"><title>Node19&#45;&gt;Node11</title>
<path fill="none" stroke="midnightblue" d="M462.56,-56.083C457.051,-48.4554 448.969,-37.2645 442.235,-27.9408"/>
<polygon fill="midnightblue" stroke="midnightblue" points="445.013,-25.8087 436.32,-19.7511 439.338,-29.9071 445.013,-25.8087"/>
</g>
<!-- Node19&#45;&gt;Node20 -->
<g id="edge21" class="edge"><title>Node19&#45;&gt;Node20</title>
<path fill="none" stroke="midnightblue" d="M501.602,-58.6765C506.427,-57.764 511.341,-56.8476 516,-56 598.395,-41.0094 695.662,-24.571 744.932,-16.3331"/>
<polygon fill="midnightblue" stroke="midnightblue" points="745.69,-19.755 754.977,-14.6559 744.537,-12.8505 745.69,-19.755"/>
</g>
<!-- Node21 -->
<g id="node22" class="node"><title>Node21</title>
<polygon fill="white" stroke="#bfbfbf" points="476.5,-0.5 476.5,-19.5 527.5,-19.5 527.5,-0.5 476.5,-0.5"/>
<text text-anchor="middle" x="502" y="-7.5" font-family="Helvetica,sans-Serif" font-size="10.00">numeric</text>
</g>
<!-- Node19&#45;&gt;Node21 -->
<g id="edge23" class="edge"><title>Node19&#45;&gt;Node21</title>
<path fill="none" stroke="midnightblue" d="M474.449,-56.083C479.014,-48.6127 485.668,-37.7244 491.293,-28.5199"/>
<polygon fill="midnightblue" stroke="midnightblue" points="494.424,-30.109 496.652,-19.7511 488.451,-26.4588 494.424,-30.109"/>
</g>
<!-- Node22 -->
<g id="node23" class="node"><title>Node22</title>
<polygon fill="white" stroke="#bfbfbf" points="640.5,-0.5 640.5,-19.5 681.5,-19.5 681.5,-0.5 640.5,-0.5"/>
<text text-anchor="middle" x="661" y="-7.5" font-family="Helvetica,sans-Serif" font-size="10.00">string</text>
</g>
<!-- Node19&#45;&gt;Node22 -->
<g id="edge24" class="edge"><title>Node19&#45;&gt;Node22</title>
<path fill="none" stroke="midnightblue" d="M499.423,-56.4435C535.32,-46.3474 594.651,-29.6606 630.557,-19.562"/>
<polygon fill="midnightblue" stroke="midnightblue" points="631.782,-22.8536 640.46,-16.7767 629.886,-16.115 631.782,-22.8536"/>
</g>
<!-- Node25&#45;&gt;Node8 -->
<g id="edge30" class="edge"><title>Node25&#45;&gt;Node8</title>
<path fill="none" stroke="midnightblue" d="M706.467,-171.88C645.097,-166.027 549.562,-154.527 458.497,-131.585"/>
<polygon fill="midnightblue" stroke="midnightblue" points="459.119,-128.131 448.563,-129.031 457.376,-134.911 459.119,-128.131"/>
</g>
<!-- Node25&#45;&gt;Node20 -->
<g id="edge31" class="edge"><title>Node25&#45;&gt;Node20</title>
<path fill="none" stroke="midnightblue" d="M833.749,-172.73C891.539,-167.373 970.557,-155.822 990,-132 1044.21,-65.5803 880.97,-28.7359 809.126,-16.0738"/>
<polygon fill="midnightblue" stroke="midnightblue" points="809.673,-12.6166 799.226,-14.3804 808.493,-19.5164 809.673,-12.6166"/>
</g>
<!-- Node25&#45;&gt;Node22 -->
<g id="edge29" class="edge"><title>Node25&#45;&gt;Node22</title>
<path fill="none" stroke="midnightblue" d="M833.558,-175.763C899.673,-172.018 989.263,-158.547 956,-112 924.341,-67.698 760.268,-30.6532 691.441,-16.8176"/>
<polygon fill="midnightblue" stroke="midnightblue" points="692.115,-13.3831 681.625,-14.8725 690.754,-20.2496 692.115,-13.3831"/>
</g>
<!-- Node26 -->
<g id="node27" class="node"><title>Node26</title>
<polygon fill="white" stroke="#bfbfbf" points="744,-112.5 744,-131.5 796,-131.5 796,-112.5 744,-112.5"/>
<text text-anchor="middle" x="770" y="-119.5" font-family="Helvetica,sans-Serif" font-size="10.00">memory</text>
</g>
<!-- Node25&#45;&gt;Node26 -->
<g id="edge32" class="edge"><title>Node25&#45;&gt;Node26</title>
<path fill="none" stroke="midnightblue" d="M770,-168.083C770,-161.006 770,-150.861 770,-141.986"/>
<polygon fill="midnightblue" stroke="midnightblue" points="773.5,-141.751 770,-131.751 766.5,-141.751 773.5,-141.751"/>
</g>
<!-- Node27 -->
<g id="node28" class="node"><title>Node27</title>
<polygon fill="white" stroke="#bfbfbf" points="814.5,-112.5 814.5,-131.5 873.5,-131.5 873.5,-112.5 814.5,-112.5"/>
<text text-anchor="middle" x="844" y="-119.5" font-family="Helvetica,sans-Serif" font-size="10.00">functional</text>
</g>
<!-- Node25&#45;&gt;Node27 -->
<g id="edge33" class="edge"><title>Node25&#45;&gt;Node27</title>
<path fill="none" stroke="midnightblue" d="M781.889,-168.324C793.15,-160.107 810.287,-147.602 823.709,-137.807"/>
<polygon fill="midnightblue" stroke="midnightblue" points="825.88,-140.556 831.894,-131.834 821.753,-134.901 825.88,-140.556"/>
</g>
<!-- Node28 -->
<g id="node29" class="node"><title>Node28</title>
<g id="a_node29"><a xlink:href="_bin_settings_8h.html" target="_top" xlink:title="base/BinSettings.h">
<polygon fill="white" stroke="black" points="466.5,-112.5 466.5,-131.5 565.5,-131.5 565.5,-112.5 466.5,-112.5"/>
<text text-anchor="middle" x="516" y="-119.5" font-family="Helvetica,sans-Serif" font-size="10.00">base/BinSettings.h</text>
</a>
</g>
</g>
<!-- Node25&#45;&gt;Node28 -->
<g id="edge34" class="edge"><title>Node25&#45;&gt;Node28</title>
<path fill="none" stroke="midnightblue" d="M729.753,-168.444C685.35,-159.004 613.847,-143.802 565.912,-133.611"/>
<polygon fill="midnightblue" stroke="midnightblue" points="566.568,-130.173 556.059,-131.516 565.112,-137.02 566.568,-130.173"/>
</g>
<!-- Node29 -->
<g id="node30" class="node"><title>Node29</title>
<polygon fill="white" stroke="#bfbfbf" points="892,-112.5 892,-131.5 948,-131.5 948,-112.5 892,-112.5"/>
<text text-anchor="middle" x="920" y="-119.5" font-family="Helvetica,sans-Serif" font-size="10.00">Rtypes.h</text>
</g>
<!-- Node25&#45;&gt;Node29 -->
<g id="edge40" class="edge"><title>Node25&#45;&gt;Node29</title>
<path fill="none" stroke="midnightblue" d="M793.768,-168.444C818.893,-159.399 858.711,-145.064 886.9,-134.916"/>
<polygon fill="midnightblue" stroke="midnightblue" points="888.12,-138.197 896.343,-131.516 885.749,-131.611 888.12,-138.197"/>
</g>
<!-- Node28&#45;&gt;Node9 -->
<g id="edge35" class="edge"><title>Node28&#45;&gt;Node9</title>
<path fill="none" stroke="midnightblue" d="M466.378,-113.332C409.322,-104.483 312.86,-89.4234 230,-76 228.733,-75.7948 227.45,-75.5862 226.156,-75.3752"/>
<polygon fill="midnightblue" stroke="midnightblue" points="226.533,-71.8903 216.098,-73.7246 225.399,-78.7979 226.533,-71.8903"/>
</g>
<!-- Node28&#45;&gt;Node12 -->
<g id="edge37" class="edge"><title>Node28&#45;&gt;Node12</title>
<path fill="none" stroke="midnightblue" d="M466.217,-112.897C396.277,-101.378 276.455,-81.0973 268,-76 249.257,-64.701 234.739,-43.7809 226.069,-28.7219"/>
<polygon fill="midnightblue" stroke="midnightblue" points="229.085,-26.9418 221.229,-19.8324 222.937,-30.2888 229.085,-26.9418"/>
</g>
<!-- Node28&#45;&gt;Node14 -->
<g id="edge38" class="edge"><title>Node28&#45;&gt;Node14</title>
<path fill="none" stroke="midnightblue" d="M466.447,-113.284C463.252,-112.835 460.082,-112.403 457,-112 310.708,-92.8715 266.296,-124.618 127,-76 109.842,-70.0114 69.2886,-42.7601 44.493,-25.4996"/>
<polygon fill="midnightblue" stroke="midnightblue" points="46.3417,-22.5214 36.1433,-19.6504 42.3254,-28.2546 46.3417,-22.5214"/>
</g>
<!-- Node28&#45;&gt;Node20 -->
<g id="edge36" class="edge"><title>Node28&#45;&gt;Node20</title>
<path fill="none" stroke="midnightblue" d="M517.843,-112.265C521.315,-98.0826 530.231,-70.2073 549,-56 579.449,-32.9516 689.535,-19.3841 744.833,-13.8787"/>
<polygon fill="midnightblue" stroke="midnightblue" points="745.189,-17.3607 754.806,-12.9143 744.516,-10.3932 745.189,-17.3607"/>
</g>
<!-- Node28&#45;&gt;Node24 -->
<g id="edge39" class="edge"><title>Node28&#45;&gt;Node24</title>
<path fill="none" stroke="midnightblue" d="M526.925,-112.324C537.175,-104.185 552.721,-91.8395 565.001,-82.0874"/>
<polygon fill="midnightblue" stroke="midnightblue" points="567.221,-84.7937 572.876,-75.8339 562.868,-79.3119 567.221,-84.7937"/>
</g>
<!-- Node30&#45;&gt;Node9 -->
<g id="edge44" class="edge"><title>Node30&#45;&gt;Node9</title>
<path fill="none" stroke="midnightblue" d="M583.921,-113.318C580.565,-112.861 577.236,-112.418 574,-112 449.182,-95.8884 301.922,-80.0659 226.34,-72.1768"/>
<polygon fill="midnightblue" stroke="midnightblue" points="226.469,-68.6714 216.16,-71.117 225.744,-75.6338 226.469,-68.6714"/>
</g>
<!-- Node30&#45;&gt;Node10 -->
<g id="edge43" class="edge"><title>Node30&#45;&gt;Node10</title>
<path fill="none" stroke="midnightblue" d="M583.912,-113.389C580.558,-112.914 577.232,-112.448 574,-112 513.387,-103.605 345.368,-118.142 301,-76 288.668,-64.2863 286.593,-44.3475 287.032,-29.6345"/>
<polygon fill="midnightblue" stroke="midnightblue" points="290.526,-29.844 287.73,-19.6248 283.543,-29.3573 290.526,-29.844"/>
</g>
<!-- Node30&#45;&gt;Node20 -->
<g id="edge49" class="edge"><title>Node30&#45;&gt;Node20</title>
<path fill="none" stroke="midnightblue" d="M681.919,-112.496C705.504,-106.028 733.163,-94.891 752,-76 764.395,-63.5695 770.772,-44.3316 773.97,-30.0061"/>
<polygon fill="midnightblue" stroke="midnightblue" points="777.482,-30.2715 775.907,-19.7943 770.604,-28.9665 777.482,-30.2715"/>
</g>
<!-- Node30&#45;&gt;Node22 -->
<g id="edge45" class="edge"><title>Node30&#45;&gt;Node22</title>
<path fill="none" stroke="midnightblue" d="M681.653,-112.431C702.243,-106.044 724.665,-94.999 737,-76 752.156,-52.6549 718.526,-33.0583 691.269,-21.6702"/>
<polygon fill="midnightblue" stroke="midnightblue" points="692.204,-18.2762 681.617,-17.8543 689.63,-24.7859 692.204,-18.2762"/>
</g>
<!-- Node30&#45;&gt;Node24 -->
<g id="edge46" class="edge"><title>Node30&#45;&gt;Node24</title>
<path fill="none" stroke="midnightblue" d="M627.413,-112.083C619.841,-104.22 608.622,-92.5688 599.486,-83.0813"/>
<polygon fill="midnightblue" stroke="midnightblue" points="601.885,-80.5266 592.427,-75.7511 596.842,-85.3821 601.885,-80.5266"/>
</g>
<!-- Node31 -->
<g id="node32" class="node"><title>Node31</title>
<polygon fill="white" stroke="#bfbfbf" points="628.5,-56.5 628.5,-75.5 663.5,-75.5 663.5,-56.5 628.5,-56.5"/>
<text text-anchor="middle" x="646" y="-63.5" font-family="Helvetica,sans-Serif" font-size="10.00">map</text>
</g>
<!-- Node30&#45;&gt;Node31 -->
<g id="edge47" class="edge"><title>Node30&#45;&gt;Node31</title>
<path fill="none" stroke="midnightblue" d="M637.651,-112.083C638.976,-104.927 640.882,-94.6353 642.539,-85.6911"/>
<polygon fill="midnightblue" stroke="midnightblue" points="646,-86.2212 644.379,-75.7511 639.117,-84.9466 646,-86.2212"/>
</g>
<!-- Node32 -->
<g id="node33" class="node"><title>Node32</title>
<polygon fill="white" stroke="#bfbfbf" points="681.5,-56.5 681.5,-75.5 728.5,-75.5 728.5,-56.5 681.5,-56.5"/>
<text text-anchor="middle" x="705" y="-63.5" font-family="Helvetica,sans-Serif" font-size="10.00">iterator</text>
</g>
<!-- Node30&#45;&gt;Node32 -->
<g id="edge48" class="edge"><title>Node30&#45;&gt;Node32</title>
<path fill="none" stroke="midnightblue" d="M647.086,-112.324C657.486,-104.185 673.261,-91.8395 685.722,-82.0874"/>
<polygon fill="midnightblue" stroke="midnightblue" points="687.994,-84.7533 693.712,-75.8339 683.68,-79.2407 687.994,-84.7533"/>
</g>
<!-- Node35&#45;&gt;Node11 -->
<g id="edge55" class="edge"><title>Node35&#45;&gt;Node11</title>
<path fill="none" stroke="midnightblue" d="M374.604,-56.324C384.456,-48.2631 399.351,-36.0765 411.215,-26.3695"/>
<polygon fill="midnightblue" stroke="midnightblue" points="413.68,-28.8752 419.203,-19.8339 409.247,-23.4575 413.68,-28.8752"/>
</g>
<!-- Node35&#45;&gt;Node15 -->
<g id="edge54" class="edge"><title>Node35&#45;&gt;Node15</title>
<path fill="none" stroke="midnightblue" d="M363.009,-56.083C362.214,-48.9272 361.071,-38.6353 360.077,-29.6911"/>
<polygon fill="midnightblue" stroke="midnightblue" points="363.555,-29.3034 358.972,-19.7511 356.598,-30.0765 363.555,-29.3034"/>
</g>
<!-- Node35&#45;&gt;Node20 -->
<g id="edge56" class="edge"><title>Node35&#45;&gt;Node20</title>
<path fill="none" stroke="midnightblue" d="M418.116,-57.3455C421.46,-56.8863 424.775,-56.4346 428,-56 544.515,-40.2964 683.076,-22.7728 744.694,-15.0398"/>
<polygon fill="midnightblue" stroke="midnightblue" points="745.452,-18.4722 754.939,-13.7553 744.581,-11.5266 745.452,-18.4722"/>
</g>
<!-- Node35&#45;&gt;Node22 -->
<g id="edge53" class="edge"><title>Node35&#45;&gt;Node22</title>
<path fill="none" stroke="midnightblue" d="M411.061,-56.4435C472.576,-45.2589 578.578,-25.9859 630.519,-16.542"/>
<polygon fill="midnightblue" stroke="midnightblue" points="631.24,-19.9684 640.452,-14.7359 629.987,-13.0813 631.24,-19.9684"/>
</g>
</g>
</svg>
