<?xml version="1.0" encoding="UTF-8" standalone="no"?>
<!DOCTYPE svg PUBLIC "-//W3C//DTD SVG 1.1//EN"
 "http://www.w3.org/Graphics/SVG/1.1/DTD/svg11.dtd">
<!-- Generated by graphviz version 2.36.0 (20140111.2315)
 -->
<!-- Title: src/calibration/fitfunctions/FitLandauExpo.cc Pages: 1 -->
<svg width="1120pt" height="332pt"
 viewBox="0.00 0.00 1120.00 332.00" xmlns="http://www.w3.org/2000/svg" xmlns:xlink="http://www.w3.org/1999/xlink">
<g id="graph0" class="graph" transform="scale(1 1) rotate(0) translate(4 328)">
<title>src/calibration/fitfunctions/FitLandauExpo.cc</title>
<polygon fill="white" stroke="none" points="-4,4 -4,-328 1116,-328 1116,4 -4,4"/>
<!-- Node0 -->
<g id="node1" class="node"><title>Node0</title>
<polygon fill="#bfbfbf" stroke="black" points="759,-293 759,-323 887,-323 887,-293 759,-293"/>
<text text-anchor="start" x="767" y="-311" font-family="Helvetica,sans-Serif" font-size="10.00">src/calibration/fitfunctions</text>
<text text-anchor="middle" x="823" y="-300" font-family="Helvetica,sans-Serif" font-size="10.00">/FitLandauExpo.cc</text>
</g>
<!-- Node1 -->
<g id="node2" class="node"><title>Node1</title>
<g id="a_node2"><a xlink:href="_fit_landau_expo_8h.html" target="_top" xlink:title="FitLandauExpo.h">
<polygon fill="white" stroke="black" points="430,-236.5 430,-255.5 520,-255.5 520,-236.5 430,-236.5"/>
<text text-anchor="middle" x="475" y="-243.5" font-family="Helvetica,sans-Serif" font-size="10.00">FitLandauExpo.h</text>
</a>
</g>
</g>
<!-- Node0&#45;&gt;Node1 -->
<g id="edge1" class="edge"><title>Node0&#45;&gt;Node1</title>
<path fill="none" stroke="midnightblue" d="M758.766,-295.925C693.095,-284.603 592.167,-267.201 530.046,-256.491"/>
<polygon fill="midnightblue" stroke="midnightblue" points="530.494,-253.016 520.044,-254.766 529.304,-259.915 530.494,-253.016"/>
</g>
<!-- Node8 -->
<g id="node9" class="node"><title>Node8</title>
<g id="a_node9"><a xlink:href="interval_8h.html" target="_top" xlink:title="base/interval.h">
<polygon fill="white" stroke="black" points="590,-124.5 590,-143.5 670,-143.5 670,-124.5 590,-124.5"/>
<text text-anchor="middle" x="630" y="-131.5" font-family="Helvetica,sans-Serif" font-size="10.00">base/interval.h</text>
</a>
</g>
</g>
<!-- Node0&#45;&gt;Node8 -->
<g id="edge27" class="edge"><title>Node0&#45;&gt;Node8</title>
<path fill="none" stroke="midnightblue" d="M758.746,-294.887C732.973,-287.322 704.569,-275.214 684,-256 653.846,-227.833 639.437,-179.732 633.513,-153.461"/>
<polygon fill="midnightblue" stroke="midnightblue" points="636.937,-152.737 631.472,-143.661 630.084,-154.164 636.937,-152.737"/>
</g>
<!-- Node10 -->
<g id="node11" class="node"><title>Node10</title>
<polygon fill="white" stroke="#bfbfbf" points="839,-62.5 839,-81.5 895,-81.5 895,-62.5 839,-62.5"/>
<text text-anchor="middle" x="867" y="-69.5" font-family="Helvetica,sans-Serif" font-size="10.00">algorithm</text>
</g>
<!-- Node0&#45;&gt;Node10 -->
<g id="edge32" class="edge"><title>Node0&#45;&gt;Node10</title>
<path fill="none" stroke="midnightblue" d="M766.717,-292.957C735.983,-281.943 706.173,-263.754 717,-236 743.045,-169.236 810.653,-113.301 845.514,-87.8061"/>
<polygon fill="midnightblue" stroke="midnightblue" points="847.929,-90.3818 854.023,-81.7145 843.854,-84.6901 847.929,-90.3818"/>
</g>
<!-- Node19 -->
<g id="node20" class="node"><title>Node19</title>
<g id="a_node20"><a xlink:href="_base_functions_8h.html" target="_top" xlink:title="BaseFunctions.h">
<polygon fill="white" stroke="black" points="726,-236.5 726,-255.5 816,-255.5 816,-236.5 726,-236.5"/>
<text text-anchor="middle" x="771" y="-243.5" font-family="Helvetica,sans-Serif" font-size="10.00">BaseFunctions.h</text>
</a>
</g>
</g>
<!-- Node0&#45;&gt;Node19 -->
<g id="edge24" class="edge"><title>Node0&#45;&gt;Node19</title>
<path fill="none" stroke="midnightblue" d="M810.677,-292.781C803.043,-283.972 793.209,-272.626 785.242,-263.433"/>
<polygon fill="midnightblue" stroke="midnightblue" points="787.761,-260.995 778.566,-255.731 782.471,-265.58 787.761,-260.995"/>
</g>
<!-- Node20 -->
<g id="node21" class="node"><title>Node20</title>
<g id="a_node21"><a xlink:href="_t_f1_ext_8h.html" target="_top" xlink:title="base/TF1Ext.h">
<polygon fill="white" stroke="black" points="834.5,-236.5 834.5,-255.5 915.5,-255.5 915.5,-236.5 834.5,-236.5"/>
<text text-anchor="middle" x="875" y="-243.5" font-family="Helvetica,sans-Serif" font-size="10.00">base/TF1Ext.h</text>
</a>
</g>
</g>
<!-- Node0&#45;&gt;Node20 -->
<g id="edge25" class="edge"><title>Node0&#45;&gt;Node20</title>
<path fill="none" stroke="midnightblue" d="M835.323,-292.781C842.957,-283.972 852.791,-272.626 860.758,-263.433"/>
<polygon fill="midnightblue" stroke="midnightblue" points="863.529,-265.58 867.434,-255.731 858.239,-260.995 863.529,-265.58"/>
</g>
<!-- Node21 -->
<g id="node22" class="node"><title>Node21</title>
<polygon fill="white" stroke="#bfbfbf" points="880,-180.5 880,-199.5 922,-199.5 922,-180.5 880,-180.5"/>
<text text-anchor="middle" x="901" y="-187.5" font-family="Helvetica,sans-Serif" font-size="10.00">TF1.h</text>
</g>
<!-- Node0&#45;&gt;Node21 -->
<g id="edge30" class="edge"><title>Node0&#45;&gt;Node21</title>
<path fill="none" stroke="midnightblue" d="M875.949,-292.925C894.438,-285.191 913.243,-273.483 924,-256 933.365,-240.779 923.985,-221.204 914.538,-207.531"/>
<polygon fill="midnightblue" stroke="midnightblue" points="917.316,-205.402 908.516,-199.503 911.716,-209.603 917.316,-205.402"/>
</g>
<!-- Node22 -->
<g id="node23" class="node"><title>Node22</title>
<g id="a_node23"><a xlink:href="_logger_8h.html" target="_top" xlink:title="base/Logger.h">
<polygon fill="white" stroke="black" points="972,-236.5 972,-255.5 1050,-255.5 1050,-236.5 972,-236.5"/>
<text text-anchor="middle" x="1011" y="-243.5" font-family="Helvetica,sans-Serif" font-size="10.00">base/Logger.h</text>
</a>
</g>
</g>
<!-- Node0&#45;&gt;Node22 -->
<g id="edge28" class="edge"><title>Node0&#45;&gt;Node22</title>
<path fill="none" stroke="midnightblue" d="M867.078,-292.933C899.743,-282.508 943.738,-268.467 974.454,-258.663"/>
<polygon fill="midnightblue" stroke="midnightblue" points="975.864,-261.887 984.327,-255.513 973.736,-255.219 975.864,-261.887"/>
</g>
<!-- Node24 -->
<g id="node25" class="node"><title>Node24</title>
<polygon fill="white" stroke="#bfbfbf" points="1068,-236.5 1068,-255.5 1112,-255.5 1112,-236.5 1068,-236.5"/>
<text text-anchor="middle" x="1090" y="-243.5" font-family="Helvetica,sans-Serif" font-size="10.00">TH1.h</text>
</g>
<!-- Node0&#45;&gt;Node24 -->
<g id="edge31" class="edge"><title>Node0&#45;&gt;Node24</title>
<path fill="none" stroke="midnightblue" d="M887.136,-294.4C932.434,-285.21 994.749,-271.987 1057.96,-256.137"/>
<polygon fill="midnightblue" stroke="midnightblue" points="1058.86,-259.519 1067.7,-253.676 1057.15,-252.733 1058.86,-259.519"/>
</g>
<!-- Node2 -->
<g id="node3" class="node"><title>Node2</title>
<g id="a_node3"><a xlink:href="_fit_function_8h.html" target="_top" xlink:title="FitFunction.h">
<polygon fill="white" stroke="black" points="282,-180.5 282,-199.5 356,-199.5 356,-180.5 282,-180.5"/>
<text text-anchor="middle" x="319" y="-187.5" font-family="Helvetica,sans-Serif" font-size="10.00">FitFunction.h</text>
</a>
</g>
</g>
<!-- Node1&#45;&gt;Node2 -->
<g id="edge2" class="edge"><title>Node1&#45;&gt;Node2</title>
<path fill="none" stroke="midnightblue" d="M450.281,-236.444C424.152,-227.399 382.741,-213.064 353.424,-202.916"/>
<polygon fill="midnightblue" stroke="midnightblue" points="354.198,-199.48 343.603,-199.516 351.908,-206.095 354.198,-199.48"/>
</g>
<!-- Node3 -->
<g id="node4" class="node"><title>Node3</title>
<g id="a_node4"><a xlink:href="_knobs_t_f1_8h.html" target="_top" xlink:title="KnobsTF1.h">
<polygon fill="white" stroke="black" points="134,-124.5 134,-143.5 204,-143.5 204,-124.5 134,-124.5"/>
<text text-anchor="middle" x="169" y="-131.5" font-family="Helvetica,sans-Serif" font-size="10.00">KnobsTF1.h</text>
</a>
</g>
</g>
<!-- Node2&#45;&gt;Node3 -->
<g id="edge3" class="edge"><title>Node2&#45;&gt;Node3</title>
<path fill="none" stroke="midnightblue" d="M295.232,-180.444C270.107,-171.399 230.289,-157.064 202.1,-146.916"/>
<polygon fill="midnightblue" stroke="midnightblue" points="203.251,-143.611 192.657,-143.516 200.88,-150.197 203.251,-143.611"/>
</g>
<!-- Node4 -->
<g id="node5" class="node"><title>Node4</title>
<g id="a_node5"><a xlink:href="_indicator__traits_8h.html" target="_top" xlink:title="calibration/gui/Indicator\l_traits.h">
<polygon fill="white" stroke="black" points="-0.5,-57 -0.5,-87 116.5,-87 116.5,-57 -0.5,-57"/>
<text text-anchor="start" x="7.5" y="-75" font-family="Helvetica,sans-Serif" font-size="10.00">calibration/gui/Indicator</text>
<text text-anchor="middle" x="58" y="-64" font-family="Helvetica,sans-Serif" font-size="10.00">_traits.h</text>
</a>
</g>
</g>
<!-- Node2&#45;&gt;Node4 -->
<g id="edge8" class="edge"><title>Node2&#45;&gt;Node4</title>
<path fill="none" stroke="midnightblue" d="M281.642,-186.751C240.765,-182.887 174.475,-172.403 125,-144 104.041,-131.968 85.6436,-111.311 73.4566,-95.3713"/>
<polygon fill="midnightblue" stroke="midnightblue" points="76.0994,-93.0579 67.3481,-87.0857 70.465,-97.2117 76.0994,-93.0579"/>
</g>
<!-- Node5 -->
<g id="node6" class="node"><title>Node5</title>
<polygon fill="white" stroke="#bfbfbf" points="141,-0.5 141,-19.5 197,-19.5 197,-0.5 141,-0.5"/>
<text text-anchor="middle" x="169" y="-7.5" font-family="Helvetica,sans-Serif" font-size="10.00">Rtypes.h</text>
</g>
<!-- Node2&#45;&gt;Node5 -->
<g id="edge20" class="edge"><title>Node2&#45;&gt;Node5</title>
<path fill="none" stroke="midnightblue" d="M317.402,-180.387C312.725,-157.378 297.057,-93.668 261,-56 246.201,-40.5396 224.979,-29.6694 206.647,-22.4908"/>
<polygon fill="midnightblue" stroke="midnightblue" points="207.69,-19.1452 197.097,-18.9728 205.27,-25.7137 207.69,-19.1452"/>
</g>
<!-- Node6 -->
<g id="node7" class="node"><title>Node6</title>
<polygon fill="white" stroke="#bfbfbf" points="211.5,-62.5 211.5,-81.5 252.5,-81.5 252.5,-62.5 211.5,-62.5"/>
<text text-anchor="middle" x="232" y="-69.5" font-family="Helvetica,sans-Serif" font-size="10.00">string</text>
</g>
<!-- Node2&#45;&gt;Node6 -->
<g id="edge23" class="edge"><title>Node2&#45;&gt;Node6</title>
<path fill="none" stroke="midnightblue" d="M306.166,-180.191C294.774,-171.879 278.239,-158.55 267,-144 254.561,-127.897 244.803,-106.671 238.785,-91.634"/>
<polygon fill="midnightblue" stroke="midnightblue" points="241.92,-90.0318 235.08,-81.9407 235.381,-92.5312 241.92,-90.0318"/>
</g>
<!-- Node2&#45;&gt;Node8 -->
<g id="edge9" class="edge"><title>Node2&#45;&gt;Node8</title>
<path fill="none" stroke="midnightblue" d="M356.205,-182.54C411.95,-172.861 517.264,-154.575 579.778,-143.72"/>
<polygon fill="midnightblue" stroke="midnightblue" points="580.551,-147.138 589.805,-141.979 579.353,-140.242 580.551,-147.138"/>
</g>
<!-- Node16 -->
<g id="node17" class="node"><title>Node16</title>
<g id="a_node17"><a xlink:href="memory_8h.html" target="_top" xlink:title="base/std_ext/memory.h">
<polygon fill="white" stroke="black" points="347.5,-124.5 347.5,-143.5 466.5,-143.5 466.5,-124.5 347.5,-124.5"/>
<text text-anchor="middle" x="407" y="-131.5" font-family="Helvetica,sans-Serif" font-size="10.00">base/std_ext/memory.h</text>
</a>
</g>
</g>
<!-- Node2&#45;&gt;Node16 -->
<g id="edge17" class="edge"><title>Node2&#45;&gt;Node16</title>
<path fill="none" stroke="midnightblue" d="M333.139,-180.324C346.866,-171.9 367.936,-158.971 384.064,-149.074"/>
<polygon fill="midnightblue" stroke="midnightblue" points="386.204,-151.868 392.896,-143.655 382.543,-145.902 386.204,-151.868"/>
</g>
<!-- Node17 -->
<g id="node18" class="node"><title>Node17</title>
<polygon fill="white" stroke="#bfbfbf" points="315,-62.5 315,-81.5 367,-81.5 367,-62.5 315,-62.5"/>
<text text-anchor="middle" x="341" y="-69.5" font-family="Helvetica,sans-Serif" font-size="10.00">memory</text>
</g>
<!-- Node2&#45;&gt;Node17 -->
<g id="edge21" class="edge"><title>Node2&#45;&gt;Node17</title>
<path fill="none" stroke="midnightblue" d="M320.654,-180.281C324.223,-161.463 332.713,-116.697 337.522,-91.3399"/>
<polygon fill="midnightblue" stroke="midnightblue" points="340.962,-91.9818 339.387,-81.5048 334.085,-90.6774 340.962,-91.9818"/>
</g>
<!-- Node18 -->
<g id="node19" class="node"><title>Node18</title>
<polygon fill="white" stroke="#bfbfbf" points="388.5,-62.5 388.5,-81.5 417.5,-81.5 417.5,-62.5 388.5,-62.5"/>
<text text-anchor="middle" x="403" y="-69.5" font-family="Helvetica,sans-Serif" font-size="10.00">list</text>
</g>
<!-- Node2&#45;&gt;Node18 -->
<g id="edge22" class="edge"><title>Node2&#45;&gt;Node18</title>
<path fill="none" stroke="midnightblue" d="M356.212,-183.473C397.656,-176.468 460.723,-162.977 475,-144 480.344,-136.897 479.083,-131.896 475,-124 473.569,-121.232 444.857,-101.371 424.13,-87.269"/>
<polygon fill="midnightblue" stroke="midnightblue" points="426.079,-84.362 415.839,-81.6446 422.15,-90.1549 426.079,-84.362"/>
</g>
<!-- Node3&#45;&gt;Node4 -->
<g id="edge4" class="edge"><title>Node3&#45;&gt;Node4</title>
<path fill="none" stroke="midnightblue" d="M153.096,-124.403C137.501,-115.974 113.202,-102.839 93.0705,-91.957"/>
<polygon fill="midnightblue" stroke="midnightblue" points="94.6219,-88.8171 84.1605,-87.1408 91.2933,-94.975 94.6219,-88.8171"/>
</g>
<!-- Node3&#45;&gt;Node6 -->
<g id="edge6" class="edge"><title>Node3&#45;&gt;Node6</title>
<path fill="none" stroke="midnightblue" d="M178.026,-124.403C187.757,-115.136 203.458,-100.183 215.423,-88.7876"/>
<polygon fill="midnightblue" stroke="midnightblue" points="218.163,-91.0117 222.99,-81.5806 213.335,-85.9427 218.163,-91.0117"/>
</g>
<!-- Node7 -->
<g id="node8" class="node"><title>Node7</title>
<polygon fill="white" stroke="#bfbfbf" points="134.5,-62.5 134.5,-81.5 193.5,-81.5 193.5,-62.5 134.5,-62.5"/>
<text text-anchor="middle" x="164" y="-69.5" font-family="Helvetica,sans-Serif" font-size="10.00">functional</text>
</g>
<!-- Node3&#45;&gt;Node7 -->
<g id="edge7" class="edge"><title>Node3&#45;&gt;Node7</title>
<path fill="none" stroke="midnightblue" d="M168.284,-124.403C167.578,-115.938 166.477,-102.728 165.568,-91.8199"/>
<polygon fill="midnightblue" stroke="midnightblue" points="169.034,-91.2554 164.715,-81.5806 162.058,-91.8367 169.034,-91.2554"/>
</g>
<!-- Node4&#45;&gt;Node5 -->
<g id="edge5" class="edge"><title>Node4&#45;&gt;Node5</title>
<path fill="none" stroke="midnightblue" d="M84.0246,-56.9327C102.083,-47.1715 126.006,-34.2401 143.867,-24.5856"/>
<polygon fill="midnightblue" stroke="midnightblue" points="145.957,-27.4342 153.09,-19.6 142.629,-21.2763 145.957,-27.4342"/>
</g>
<!-- Node9 -->
<g id="node10" class="node"><title>Node9</title>
<g id="a_node10"><a xlink:href="types_8h.html" target="_top" xlink:title="types.h">
<polygon fill="white" stroke="black" points="771.5,-62.5 771.5,-81.5 820.5,-81.5 820.5,-62.5 771.5,-62.5"/>
<text text-anchor="middle" x="796" y="-69.5" font-family="Helvetica,sans-Serif" font-size="10.00">types.h</text>
</a>
</g>
</g>
<!-- Node8&#45;&gt;Node9 -->
<g id="edge10" class="edge"><title>Node8&#45;&gt;Node9</title>
<path fill="none" stroke="midnightblue" d="M656.804,-124.437C683.429,-115.78 725.323,-101.751 761,-88 763.105,-87.1887 765.271,-86.3271 767.444,-85.4431"/>
<polygon fill="midnightblue" stroke="midnightblue" points="768.973,-88.5971 776.849,-81.5102 766.273,-82.139 768.973,-88.5971"/>
</g>
<!-- Node8&#45;&gt;Node10 -->
<g id="edge11" class="edge"><title>Node8&#45;&gt;Node10</title>
<path fill="none" stroke="midnightblue" d="M670.118,-125.809C710.649,-118.106 774.844,-104.704 829,-88 831.796,-87.1377 834.677,-86.1638 837.544,-85.1367"/>
<polygon fill="midnightblue" stroke="midnightblue" points="838.975,-88.3373 847.089,-81.5245 836.498,-81.7904 838.975,-88.3373"/>
</g>
<!-- Node11 -->
<g id="node12" class="node"><title>Node11</title>
<polygon fill="white" stroke="#bfbfbf" points="435.5,-62.5 435.5,-81.5 494.5,-81.5 494.5,-62.5 435.5,-62.5"/>
<text text-anchor="middle" x="465" y="-69.5" font-family="Helvetica,sans-Serif" font-size="10.00">stdexcept</text>
</g>
<!-- Node8&#45;&gt;Node11 -->
<g id="edge12" class="edge"><title>Node8&#45;&gt;Node11</title>
<path fill="none" stroke="midnightblue" d="M605.31,-124.38C579.86,-115.449 539.064,-101.002 504,-88 501.473,-87.0628 498.857,-86.0817 496.233,-85.0892"/>
<polygon fill="midnightblue" stroke="midnightblue" points="497.42,-81.796 486.829,-81.5025 494.925,-88.3364 497.42,-81.796"/>
</g>
<!-- Node12 -->
<g id="node13" class="node"><title>Node12</title>
<polygon fill="white" stroke="#bfbfbf" points="513,-62.5 513,-81.5 553,-81.5 553,-62.5 513,-62.5"/>
<text text-anchor="middle" x="533" y="-69.5" font-family="Helvetica,sans-Serif" font-size="10.00">limits</text>
</g>
<!-- Node8&#45;&gt;Node12 -->
<g id="edge13" class="edge"><title>Node8&#45;&gt;Node12</title>
<path fill="none" stroke="midnightblue" d="M616.102,-124.403C600.256,-114.601 574.126,-98.4385 555.395,-86.8526"/>
<polygon fill="midnightblue" stroke="midnightblue" points="557.218,-83.8646 546.872,-81.5806 553.535,-89.8178 557.218,-83.8646"/>
</g>
<!-- Node13 -->
<g id="node14" class="node"><title>Node13</title>
<polygon fill="white" stroke="#bfbfbf" points="571.5,-62.5 571.5,-81.5 620.5,-81.5 620.5,-62.5 571.5,-62.5"/>
<text text-anchor="middle" x="596" y="-69.5" font-family="Helvetica,sans-Serif" font-size="10.00">istream</text>
</g>
<!-- Node8&#45;&gt;Node13 -->
<g id="edge14" class="edge"><title>Node8&#45;&gt;Node13</title>
<path fill="none" stroke="midnightblue" d="M625.129,-124.403C620.13,-115.582 612.211,-101.608 605.891,-90.4548"/>
<polygon fill="midnightblue" stroke="midnightblue" points="608.838,-88.5553 600.862,-81.5806 602.747,-92.0064 608.838,-88.5553"/>
</g>
<!-- Node14 -->
<g id="node15" class="node"><title>Node14</title>
<polygon fill="white" stroke="#bfbfbf" points="639,-62.5 639,-81.5 691,-81.5 691,-62.5 639,-62.5"/>
<text text-anchor="middle" x="665" y="-69.5" font-family="Helvetica,sans-Serif" font-size="10.00">sstream</text>
</g>
<!-- Node8&#45;&gt;Node14 -->
<g id="edge15" class="edge"><title>Node8&#45;&gt;Node14</title>
<path fill="none" stroke="midnightblue" d="M635.015,-124.403C640.161,-115.582 648.312,-101.608 654.818,-90.4548"/>
<polygon fill="midnightblue" stroke="midnightblue" points="657.979,-91.982 659.995,-81.5806 651.933,-88.4548 657.979,-91.982"/>
</g>
<!-- Node15 -->
<g id="node16" class="node"><title>Node15</title>
<polygon fill="white" stroke="#bfbfbf" points="709,-62.5 709,-81.5 753,-81.5 753,-62.5 709,-62.5"/>
<text text-anchor="middle" x="731" y="-69.5" font-family="Helvetica,sans-Serif" font-size="10.00">cmath</text>
</g>
<!-- Node8&#45;&gt;Node15 -->
<g id="edge16" class="edge"><title>Node8&#45;&gt;Node15</title>
<path fill="none" stroke="midnightblue" d="M644.471,-124.403C661.046,-114.557 688.426,-98.2915 707.947,-86.6949"/>
<polygon fill="midnightblue" stroke="midnightblue" points="709.746,-89.6971 716.556,-81.5806 706.171,-83.6789 709.746,-89.6971"/>
</g>
<!-- Node16&#45;&gt;Node17 -->
<g id="edge18" class="edge"><title>Node16&#45;&gt;Node17</title>
<path fill="none" stroke="midnightblue" d="M397.544,-124.403C387.252,-115.047 370.584,-99.8948 358.006,-88.4599"/>
<polygon fill="midnightblue" stroke="midnightblue" points="360.192,-85.7176 350.439,-81.5806 355.484,-90.8971 360.192,-85.7176"/>
</g>
<!-- Node16&#45;&gt;Node18 -->
<g id="edge19" class="edge"><title>Node16&#45;&gt;Node18</title>
<path fill="none" stroke="midnightblue" d="M406.427,-124.403C405.863,-115.938 404.982,-102.728 404.255,-91.8199"/>
<polygon fill="midnightblue" stroke="midnightblue" points="407.73,-91.3256 403.572,-81.5806 400.745,-91.7913 407.73,-91.3256"/>
</g>
<!-- Node20&#45;&gt;Node21 -->
<g id="edge26" class="edge"><title>Node20&#45;&gt;Node21</title>
<path fill="none" stroke="midnightblue" d="M879.293,-236.083C882.852,-228.691 888.022,-217.953 892.424,-208.811"/>
<polygon fill="midnightblue" stroke="midnightblue" points="895.602,-210.279 896.787,-199.751 889.295,-207.243 895.602,-210.279"/>
</g>
<!-- Node23 -->
<g id="node24" class="node"><title>Node23</title>
<polygon fill="white" stroke="#bfbfbf" points="966.5,-180.5 966.5,-199.5 1055.5,-199.5 1055.5,-180.5 966.5,-180.5"/>
<text text-anchor="middle" x="1011" y="-187.5" font-family="Helvetica,sans-Serif" font-size="10.00">easylogging++.h</text>
</g>
<!-- Node22&#45;&gt;Node23 -->
<g id="edge29" class="edge"><title>Node22&#45;&gt;Node23</title>
<path fill="none" stroke="midnightblue" d="M1011,-236.083C1011,-229.006 1011,-218.861 1011,-209.986"/>
<polygon fill="midnightblue" stroke="midnightblue" points="1014.5,-209.751 1011,-199.751 1007.5,-209.751 1014.5,-209.751"/>
</g>
</g>
</svg>
