<?xml version="1.0" encoding="UTF-8" standalone="no"?>
<!DOCTYPE svg PUBLIC "-//W3C//DTD SVG 1.1//EN"
 "http://www.w3.org/Graphics/SVG/1.1/DTD/svg11.dtd">
<!-- Generated by graphviz version 2.36.0 (20140111.2315)
 -->
<!-- Title: src/calibration/fitfunctions/FitFunction.h Pages: 1 -->
<svg width="894pt" height="220pt"
 viewBox="0.00 0.00 894.00 220.00" xmlns="http://www.w3.org/2000/svg" xmlns:xlink="http://www.w3.org/1999/xlink">
<g id="graph0" class="graph" transform="scale(1 1) rotate(0) translate(4 216)">
<title>src/calibration/fitfunctions/FitFunction.h</title>
<polygon fill="white" stroke="none" points="-4,4 -4,-216 890,-216 890,4 -4,4"/>
<!-- Node0 -->
<g id="node1" class="node"><title>Node0</title>
<polygon fill="#bfbfbf" stroke="black" points="317,-181 317,-211 445,-211 445,-181 317,-181"/>
<text text-anchor="start" x="325" y="-199" font-family="Helvetica,sans-Serif" font-size="10.00">src/calibration/fitfunctions</text>
<text text-anchor="middle" x="381" y="-188" font-family="Helvetica,sans-Serif" font-size="10.00">/FitFunction.h</text>
</g>
<!-- Node1 -->
<g id="node2" class="node"><title>Node1</title>
<g id="a_node2"><a xlink:href="_knobs_t_f1_8h.html" target="_top" xlink:title="KnobsTF1.h">
<polygon fill="white" stroke="black" points="135,-124.5 135,-143.5 205,-143.5 205,-124.5 135,-124.5"/>
<text text-anchor="middle" x="170" y="-131.5" font-family="Helvetica,sans-Serif" font-size="10.00">KnobsTF1.h</text>
</a>
</g>
</g>
<!-- Node0&#45;&gt;Node1 -->
<g id="edge1" class="edge"><title>Node0&#45;&gt;Node1</title>
<path fill="none" stroke="midnightblue" d="M331.53,-180.933C294.391,-170.372 244.201,-156.1 209.675,-146.282"/>
<polygon fill="midnightblue" stroke="midnightblue" points="210.512,-142.881 199.936,-143.513 208.598,-149.614 210.512,-142.881"/>
</g>
<!-- Node2 -->
<g id="node3" class="node"><title>Node2</title>
<g id="a_node3"><a xlink:href="_indicator__traits_8h.html" target="_top" xlink:title="calibration/gui/Indicator\l_traits.h">
<polygon fill="white" stroke="black" points="-0.5,-57 -0.5,-87 116.5,-87 116.5,-57 -0.5,-57"/>
<text text-anchor="start" x="7.5" y="-75" font-family="Helvetica,sans-Serif" font-size="10.00">calibration/gui/Indicator</text>
<text text-anchor="middle" x="58" y="-64" font-family="Helvetica,sans-Serif" font-size="10.00">_traits.h</text>
</a>
</g>
</g>
<!-- Node0&#45;&gt;Node2 -->
<g id="edge6" class="edge"><title>Node0&#45;&gt;Node2</title>
<path fill="none" stroke="midnightblue" d="M316.848,-192.797C262.963,-188.544 185.459,-176.652 126,-144 104.667,-132.285 86.002,-111.593 73.6513,-95.5583"/>
<polygon fill="midnightblue" stroke="midnightblue" points="76.2316,-93.162 67.4626,-87.2161 70.6097,-97.3327 76.2316,-93.162"/>
</g>
<!-- Node3 -->
<g id="node4" class="node"><title>Node3</title>
<polygon fill="white" stroke="#bfbfbf" points="141,-0.5 141,-19.5 197,-19.5 197,-0.5 141,-0.5"/>
<text text-anchor="middle" x="169" y="-7.5" font-family="Helvetica,sans-Serif" font-size="10.00">Rtypes.h</text>
</g>
<!-- Node0&#45;&gt;Node3 -->
<g id="edge18" class="edge"><title>Node0&#45;&gt;Node3</title>
<path fill="none" stroke="midnightblue" d="M371.628,-180.714C353.189,-153.494 309.73,-93.5677 261,-56 243.215,-42.2886 220.585,-31.1533 202.221,-23.3896"/>
<polygon fill="midnightblue" stroke="midnightblue" points="203.366,-20.0768 192.785,-19.535 200.719,-26.5569 203.366,-20.0768"/>
</g>
<!-- Node4 -->
<g id="node5" class="node"><title>Node4</title>
<polygon fill="white" stroke="#bfbfbf" points="211.5,-62.5 211.5,-81.5 252.5,-81.5 252.5,-62.5 211.5,-62.5"/>
<text text-anchor="middle" x="232" y="-69.5" font-family="Helvetica,sans-Serif" font-size="10.00">string</text>
</g>
<!-- Node0&#45;&gt;Node4 -->
<g id="edge21" class="edge"><title>Node0&#45;&gt;Node4</title>
<path fill="none" stroke="midnightblue" d="M330.543,-180.95C308.924,-172.927 284.645,-160.998 267,-144 251.882,-129.436 242.344,-106.974 237.11,-91.2247"/>
<polygon fill="midnightblue" stroke="midnightblue" points="240.43,-90.1122 234.158,-81.5731 233.736,-92.1595 240.43,-90.1122"/>
</g>
<!-- Node6 -->
<g id="node7" class="node"><title>Node6</title>
<g id="a_node7"><a xlink:href="interval_8h.html" target="_top" xlink:title="base/interval.h">
<polygon fill="white" stroke="black" points="475,-124.5 475,-143.5 555,-143.5 555,-124.5 475,-124.5"/>
<text text-anchor="middle" x="515" y="-131.5" font-family="Helvetica,sans-Serif" font-size="10.00">base/interval.h</text>
</a>
</g>
</g>
<!-- Node0&#45;&gt;Node6 -->
<g id="edge7" class="edge"><title>Node0&#45;&gt;Node6</title>
<path fill="none" stroke="midnightblue" d="M412.417,-180.933C434.823,-170.9 464.707,-157.519 486.438,-147.789"/>
<polygon fill="midnightblue" stroke="midnightblue" points="488.097,-150.881 495.793,-143.6 485.236,-144.492 488.097,-150.881"/>
</g>
<!-- Node14 -->
<g id="node15" class="node"><title>Node14</title>
<g id="a_node15"><a xlink:href="memory_8h.html" target="_top" xlink:title="base/std_ext/memory.h">
<polygon fill="white" stroke="black" points="724.5,-124.5 724.5,-143.5 843.5,-143.5 843.5,-124.5 724.5,-124.5"/>
<text text-anchor="middle" x="784" y="-131.5" font-family="Helvetica,sans-Serif" font-size="10.00">base/std_ext/memory.h</text>
</a>
</g>
</g>
<!-- Node0&#45;&gt;Node14 -->
<g id="edge15" class="edge"><title>Node0&#45;&gt;Node14</title>
<path fill="none" stroke="midnightblue" d="M445.302,-185.426C519.48,-174.383 640.898,-156.306 716.431,-145.06"/>
<polygon fill="midnightblue" stroke="midnightblue" points="717.399,-148.454 726.774,-143.52 716.368,-141.531 717.399,-148.454"/>
</g>
<!-- Node15 -->
<g id="node16" class="node"><title>Node15</title>
<polygon fill="white" stroke="#bfbfbf" points="787,-62.5 787,-81.5 839,-81.5 839,-62.5 787,-62.5"/>
<text text-anchor="middle" x="813" y="-69.5" font-family="Helvetica,sans-Serif" font-size="10.00">memory</text>
</g>
<!-- Node0&#45;&gt;Node15 -->
<g id="edge19" class="edge"><title>Node0&#45;&gt;Node15</title>
<path fill="none" stroke="midnightblue" d="M442.805,-180.956C521.367,-162.501 660.756,-127.732 777,-88 779.411,-87.1761 781.89,-86.2703 784.367,-85.3246"/>
<polygon fill="midnightblue" stroke="midnightblue" points="785.766,-88.5345 793.748,-81.5675 783.163,-82.0362 785.766,-88.5345"/>
</g>
<!-- Node16 -->
<g id="node17" class="node"><title>Node16</title>
<polygon fill="white" stroke="#bfbfbf" points="857.5,-62.5 857.5,-81.5 886.5,-81.5 886.5,-62.5 857.5,-62.5"/>
<text text-anchor="middle" x="872" y="-69.5" font-family="Helvetica,sans-Serif" font-size="10.00">list</text>
</g>
<!-- Node0&#45;&gt;Node16 -->
<g id="edge20" class="edge"><title>Node0&#45;&gt;Node16</title>
<path fill="none" stroke="midnightblue" d="M445.138,-192.008C566.761,-185.766 821.542,-169.76 852,-144 867.094,-131.233 871.257,-108.045 872.183,-91.6473"/>
<polygon fill="midnightblue" stroke="midnightblue" points="875.684,-91.6648 872.402,-81.591 868.685,-91.5126 875.684,-91.6648"/>
</g>
<!-- Node1&#45;&gt;Node2 -->
<g id="edge2" class="edge"><title>Node1&#45;&gt;Node2</title>
<path fill="none" stroke="midnightblue" d="M153.953,-124.403C138.217,-115.974 113.699,-102.839 93.3865,-91.957"/>
<polygon fill="midnightblue" stroke="midnightblue" points="94.8638,-88.7779 84.3962,-87.1408 91.5582,-94.9483 94.8638,-88.7779"/>
</g>
<!-- Node1&#45;&gt;Node4 -->
<g id="edge4" class="edge"><title>Node1&#45;&gt;Node4</title>
<path fill="none" stroke="midnightblue" d="M178.883,-124.403C188.459,-115.136 203.911,-100.183 215.686,-88.7876"/>
<polygon fill="midnightblue" stroke="midnightblue" points="218.381,-91.05 223.133,-81.5806 213.513,-86.0197 218.381,-91.05"/>
</g>
<!-- Node5 -->
<g id="node6" class="node"><title>Node5</title>
<polygon fill="white" stroke="#bfbfbf" points="134.5,-62.5 134.5,-81.5 193.5,-81.5 193.5,-62.5 134.5,-62.5"/>
<text text-anchor="middle" x="164" y="-69.5" font-family="Helvetica,sans-Serif" font-size="10.00">functional</text>
</g>
<!-- Node1&#45;&gt;Node5 -->
<g id="edge5" class="edge"><title>Node1&#45;&gt;Node5</title>
<path fill="none" stroke="midnightblue" d="M169.14,-124.403C168.294,-115.938 166.973,-102.728 165.882,-91.8199"/>
<polygon fill="midnightblue" stroke="midnightblue" points="169.336,-91.1827 164.858,-81.5806 162.371,-91.8793 169.336,-91.1827"/>
</g>
<!-- Node2&#45;&gt;Node3 -->
<g id="edge3" class="edge"><title>Node2&#45;&gt;Node3</title>
<path fill="none" stroke="midnightblue" d="M84.0246,-56.9327C102.083,-47.1715 126.006,-34.2401 143.867,-24.5856"/>
<polygon fill="midnightblue" stroke="midnightblue" points="145.957,-27.4342 153.09,-19.6 142.629,-21.2763 145.957,-27.4342"/>
</g>
<!-- Node7 -->
<g id="node8" class="node"><title>Node7</title>
<g id="a_node8"><a xlink:href="types_8h.html" target="_top" xlink:title="types.h">
<polygon fill="white" stroke="black" points="309.5,-62.5 309.5,-81.5 358.5,-81.5 358.5,-62.5 309.5,-62.5"/>
<text text-anchor="middle" x="334" y="-69.5" font-family="Helvetica,sans-Serif" font-size="10.00">types.h</text>
</a>
</g>
</g>
<!-- Node6&#45;&gt;Node7 -->
<g id="edge8" class="edge"><title>Node6&#45;&gt;Node7</title>
<path fill="none" stroke="midnightblue" d="M483.383,-124.493C453.367,-116.142 407.147,-102.569 368,-88 366.095,-87.2912 364.145,-86.5297 362.188,-85.7392"/>
<polygon fill="midnightblue" stroke="midnightblue" points="363.115,-82.331 352.542,-81.655 360.386,-88.777 363.115,-82.331"/>
</g>
<!-- Node8 -->
<g id="node9" class="node"><title>Node8</title>
<polygon fill="white" stroke="#bfbfbf" points="377,-62.5 377,-81.5 433,-81.5 433,-62.5 377,-62.5"/>
<text text-anchor="middle" x="405" y="-69.5" font-family="Helvetica,sans-Serif" font-size="10.00">algorithm</text>
</g>
<!-- Node6&#45;&gt;Node8 -->
<g id="edge9" class="edge"><title>Node6&#45;&gt;Node8</title>
<path fill="none" stroke="midnightblue" d="M499.24,-124.403C481.024,-114.468 450.827,-97.9966 429.532,-86.3812"/>
<polygon fill="midnightblue" stroke="midnightblue" points="431.186,-83.2965 420.731,-81.5806 427.834,-89.4418 431.186,-83.2965"/>
</g>
<!-- Node9 -->
<g id="node10" class="node"><title>Node9</title>
<polygon fill="white" stroke="#bfbfbf" points="451.5,-62.5 451.5,-81.5 510.5,-81.5 510.5,-62.5 451.5,-62.5"/>
<text text-anchor="middle" x="481" y="-69.5" font-family="Helvetica,sans-Serif" font-size="10.00">stdexcept</text>
</g>
<!-- Node6&#45;&gt;Node9 -->
<g id="edge10" class="edge"><title>Node6&#45;&gt;Node9</title>
<path fill="none" stroke="midnightblue" d="M510.129,-124.403C505.13,-115.582 497.211,-101.608 490.891,-90.4548"/>
<polygon fill="midnightblue" stroke="midnightblue" points="493.838,-88.5553 485.862,-81.5806 487.747,-92.0064 493.838,-88.5553"/>
</g>
<!-- Node10 -->
<g id="node11" class="node"><title>Node10</title>
<polygon fill="white" stroke="#bfbfbf" points="529,-62.5 529,-81.5 569,-81.5 569,-62.5 529,-62.5"/>
<text text-anchor="middle" x="549" y="-69.5" font-family="Helvetica,sans-Serif" font-size="10.00">limits</text>
</g>
<!-- Node6&#45;&gt;Node10 -->
<g id="edge11" class="edge"><title>Node6&#45;&gt;Node10</title>
<path fill="none" stroke="midnightblue" d="M519.871,-124.403C524.87,-115.582 532.789,-101.608 539.109,-90.4548"/>
<polygon fill="midnightblue" stroke="midnightblue" points="542.253,-92.0064 544.138,-81.5806 536.162,-88.5553 542.253,-92.0064"/>
</g>
<!-- Node11 -->
<g id="node12" class="node"><title>Node11</title>
<polygon fill="white" stroke="#bfbfbf" points="587.5,-62.5 587.5,-81.5 636.5,-81.5 636.5,-62.5 587.5,-62.5"/>
<text text-anchor="middle" x="612" y="-69.5" font-family="Helvetica,sans-Serif" font-size="10.00">istream</text>
</g>
<!-- Node6&#45;&gt;Node11 -->
<g id="edge12" class="edge"><title>Node6&#45;&gt;Node11</title>
<path fill="none" stroke="midnightblue" d="M528.898,-124.403C544.744,-114.601 570.874,-98.4385 589.605,-86.8526"/>
<polygon fill="midnightblue" stroke="midnightblue" points="591.465,-89.8178 598.128,-81.5806 587.782,-83.8646 591.465,-89.8178"/>
</g>
<!-- Node12 -->
<g id="node13" class="node"><title>Node12</title>
<polygon fill="white" stroke="#bfbfbf" points="655,-62.5 655,-81.5 707,-81.5 707,-62.5 655,-62.5"/>
<text text-anchor="middle" x="681" y="-69.5" font-family="Helvetica,sans-Serif" font-size="10.00">sstream</text>
</g>
<!-- Node6&#45;&gt;Node12 -->
<g id="edge13" class="edge"><title>Node6&#45;&gt;Node12</title>
<path fill="none" stroke="midnightblue" d="M541.564,-124.337C567.96,-115.605 609.514,-101.52 645,-88 647.108,-87.197 649.277,-86.3489 651.455,-85.4812"/>
<polygon fill="midnightblue" stroke="midnightblue" points="652.966,-88.6449 660.905,-81.6293 650.324,-82.1627 652.966,-88.6449"/>
</g>
<!-- Node13 -->
<g id="node14" class="node"><title>Node13</title>
<polygon fill="white" stroke="#bfbfbf" points="725,-62.5 725,-81.5 769,-81.5 769,-62.5 725,-62.5"/>
<text text-anchor="middle" x="747" y="-69.5" font-family="Helvetica,sans-Serif" font-size="10.00">cmath</text>
</g>
<!-- Node6&#45;&gt;Node13 -->
<g id="edge14" class="edge"><title>Node6&#45;&gt;Node13</title>
<path fill="none" stroke="midnightblue" d="M555.036,-126.838C596.152,-119.865 661.636,-106.953 716,-88 717.905,-87.3357 719.847,-86.5859 721.783,-85.7846"/>
<polygon fill="midnightblue" stroke="midnightblue" points="723.549,-88.8264 731.21,-81.5072 720.657,-82.4519 723.549,-88.8264"/>
</g>
<!-- Node14&#45;&gt;Node15 -->
<g id="edge16" class="edge"><title>Node14&#45;&gt;Node15</title>
<path fill="none" stroke="midnightblue" d="M788.155,-124.403C792.376,-115.671 799.037,-101.889 804.4,-90.7936"/>
<polygon fill="midnightblue" stroke="midnightblue" points="807.652,-92.1072 808.853,-81.5806 801.35,-89.061 807.652,-92.1072"/>
</g>
<!-- Node14&#45;&gt;Node16 -->
<g id="edge17" class="edge"><title>Node14&#45;&gt;Node16</title>
<path fill="none" stroke="midnightblue" d="M796.608,-124.403C810.723,-114.78 833.831,-99.0242 850.749,-87.4891"/>
<polygon fill="midnightblue" stroke="midnightblue" points="853.125,-90.1058 859.415,-81.5806 849.181,-84.3222 853.125,-90.1058"/>
</g>
</g>
</svg>
