<?xml version="1.0" encoding="UTF-8" standalone="no"?>
<!DOCTYPE svg PUBLIC "-//W3C//DTD SVG 1.1//EN"
 "http://www.w3.org/Graphics/SVG/1.1/DTD/svg11.dtd">
<!-- Generated by graphviz version 2.36.0 (20140111.2315)
 -->
<!-- Title: src/calibration/fitfunctions/FitLandau.h Pages: 1 -->
<svg width="543pt" height="108pt"
 viewBox="0.00 0.00 543.00 108.00" xmlns="http://www.w3.org/2000/svg" xmlns:xlink="http://www.w3.org/1999/xlink">
<g id="graph0" class="graph" transform="scale(1 1) rotate(0) translate(4 104)">
<title>src/calibration/fitfunctions/FitLandau.h</title>
<polygon fill="white" stroke="none" points="-4,4 -4,-104 539,-104 539,4 -4,4"/>
<!-- Node18 -->
<g id="node1" class="node"><title>Node18</title>
<polygon fill="#bfbfbf" stroke="black" points="209,-69 209,-99 337,-99 337,-69 209,-69"/>
<text text-anchor="start" x="217" y="-87" font-family="Helvetica,sans-Serif" font-size="10.00">src/calibration/fitfunctions</text>
<text text-anchor="middle" x="273" y="-76" font-family="Helvetica,sans-Serif" font-size="10.00">/FitLandau.h</text>
</g>
<!-- Node19 -->
<g id="node2" class="node"><title>Node19</title>
<g id="a_node2"><a xlink:href="_fit_landau_8cc.html" target="_top" xlink:title="src/calibration/fitfunctions\l/FitLandau.cc">
<polygon fill="white" stroke="black" points="0,-1 0,-31 128,-31 128,-1 0,-1"/>
<text text-anchor="start" x="8" y="-19" font-family="Helvetica,sans-Serif" font-size="10.00">src/calibration/fitfunctions</text>
<text text-anchor="middle" x="64" y="-8" font-family="Helvetica,sans-Serif" font-size="10.00">/FitLandau.cc</text>
</a>
</g>
</g>
<!-- Node18&#45;&gt;Node19 -->
<g id="edge1" class="edge"><title>Node18&#45;&gt;Node19</title>
<path fill="none" stroke="midnightblue" d="M218.574,-65.8127C184.327,-54.9979 140.683,-41.2157 108.511,-31.0561"/>
<polygon fill="midnightblue" stroke="midnightblue" points="217.831,-69.2485 228.421,-68.9223 219.939,-62.5734 217.831,-69.2485"/>
</g>
<!-- Node20 -->
<g id="node3" class="node"><title>Node20</title>
<g id="a_node3"><a xlink:href="calibration_2modules_2_t_a_p_s___energy_8cc.html" target="_top" xlink:title="src/calibration/modules\l/TAPS_Energy.cc">
<polygon fill="white" stroke="black" points="146.5,-1 146.5,-31 263.5,-31 263.5,-1 146.5,-1"/>
<text text-anchor="start" x="154.5" y="-19" font-family="Helvetica,sans-Serif" font-size="10.00">src/calibration/modules</text>
<text text-anchor="middle" x="205" y="-8" font-family="Helvetica,sans-Serif" font-size="10.00">/TAPS_Energy.cc</text>
</a>
</g>
</g>
<!-- Node18&#45;&gt;Node20 -->
<g id="edge2" class="edge"><title>Node18&#45;&gt;Node20</title>
<path fill="none" stroke="midnightblue" d="M250.834,-61.4855C240.633,-51.5852 228.809,-40.1092 219.726,-31.2931"/>
<polygon fill="midnightblue" stroke="midnightblue" points="248.632,-64.2257 258.245,-68.679 253.507,-59.2027 248.632,-64.2257"/>
</g>
<!-- Node21 -->
<g id="node4" class="node"><title>Node21</title>
<g id="a_node4"><a xlink:href="calibration_2modules_2_t_a_p_s___short_energy_8cc.html" target="_top" xlink:title="src/calibration/modules\l/TAPS_ShortEnergy.cc">
<polygon fill="white" stroke="black" points="281.5,-1 281.5,-31 400.5,-31 400.5,-1 281.5,-1"/>
<text text-anchor="start" x="289.5" y="-19" font-family="Helvetica,sans-Serif" font-size="10.00">src/calibration/modules</text>
<text text-anchor="middle" x="341" y="-8" font-family="Helvetica,sans-Serif" font-size="10.00">/TAPS_ShortEnergy.cc</text>
</a>
</g>
</g>
<!-- Node18&#45;&gt;Node21 -->
<g id="edge3" class="edge"><title>Node18&#45;&gt;Node21</title>
<path fill="none" stroke="midnightblue" d="M295.166,-61.4855C305.367,-51.5852 317.191,-40.1092 326.274,-31.2931"/>
<polygon fill="midnightblue" stroke="midnightblue" points="292.493,-59.2027 287.755,-68.679 297.368,-64.2257 292.493,-59.2027"/>
</g>
<!-- Node22 -->
<g id="node5" class="node"><title>Node22</title>
<g id="a_node5"><a xlink:href="calibration_2modules_2_t_a_p_s_veto___energy_8cc.html" target="_top" xlink:title="src/calibration/modules\l/TAPSVeto_Energy.cc">
<polygon fill="white" stroke="black" points="418.5,-1 418.5,-31 535.5,-31 535.5,-1 418.5,-1"/>
<text text-anchor="start" x="426.5" y="-19" font-family="Helvetica,sans-Serif" font-size="10.00">src/calibration/modules</text>
<text text-anchor="middle" x="477" y="-8" font-family="Helvetica,sans-Serif" font-size="10.00">/TAPSVeto_Energy.cc</text>
</a>
</g>
</g>
<!-- Node18&#45;&gt;Node22 -->
<g id="edge4" class="edge"><title>Node18&#45;&gt;Node22</title>
<path fill="none" stroke="midnightblue" d="M326.124,-65.8127C359.552,-54.9979 402.151,-41.2157 433.554,-31.0561"/>
<polygon fill="midnightblue" stroke="midnightblue" points="324.95,-62.514 316.513,-68.9223 327.105,-69.1741 324.95,-62.514"/>
</g>
</g>
</svg>
