<?xml version="1.0" encoding="UTF-8" standalone="no"?>
<!DOCTYPE svg PUBLIC "-//W3C//DTD SVG 1.1//EN"
 "http://www.w3.org/Graphics/SVG/1.1/DTD/svg11.dtd">
<!-- Generated by graphviz version 2.36.0 (20140111.2315)
 -->
<!-- Title: src/analysis/utils/uncertainties/FitterSergey.h Pages: 1 -->
<svg width="3467pt" height="196pt"
 viewBox="0.00 0.00 3467.00 196.00" xmlns="http://www.w3.org/2000/svg" xmlns:xlink="http://www.w3.org/1999/xlink">
<g id="graph0" class="graph" transform="scale(1 1) rotate(0) translate(4 192)">
<title>src/analysis/utils/uncertainties/FitterSergey.h</title>
<polygon fill="white" stroke="none" points="-4,4 -4,-192 3463,-192 3463,4 -4,4"/>
<!-- Node42 -->
<g id="node1" class="node"><title>Node42</title>
<polygon fill="#bfbfbf" stroke="black" points="1740,-157 1740,-187 1880,-187 1880,-157 1740,-157"/>
<text text-anchor="start" x="1748" y="-175" font-family="Helvetica,sans-Serif" font-size="10.00">src/analysis/utils</text>
<text text-anchor="middle" x="1810" y="-164" font-family="Helvetica,sans-Serif" font-size="10.00">/uncertainties/FitterSergey.h</text>
</g>
<!-- Node43 -->
<g id="node2" class="node"><title>Node43</title>
<g id="a_node2"><a xlink:href="analysis_2physics_2calibration_2_p_i_d___energy_8h.html" target="_top" xlink:title="src/analysis/physics\l/calibration/PID_Energy.h">
<polygon fill="white" stroke="black" points="3,-84 3,-114 131,-114 131,-84 3,-84"/>
<text text-anchor="start" x="11" y="-102" font-family="Helvetica,sans-Serif" font-size="10.00">src/analysis/physics</text>
<text text-anchor="middle" x="67" y="-91" font-family="Helvetica,sans-Serif" font-size="10.00">/calibration/PID_Energy.h</text>
</a>
</g>
</g>
<!-- Node42&#45;&gt;Node43 -->
<g id="edge1" class="edge"><title>Node42&#45;&gt;Node43</title>
<path fill="none" stroke="midnightblue" d="M1729.46,-171.063C1439.85,-170.898 452.041,-166.832 140,-120 130.773,-118.615 121.05,-116.46 111.814,-114.069"/>
<polygon fill="midnightblue" stroke="midnightblue" points="1729.87,-174.563 1739.87,-171.068 1729.88,-167.563 1729.87,-174.563"/>
</g>
<!-- Node45 -->
<g id="node4" class="node"><title>Node45</title>
<g id="a_node4"><a xlink:href="_p_i_d___t_a_p_s_veto___kinfit_8cc.html" target="_top" xlink:title="src/analysis/physics\l/calibration/PID_TAPSVeto\l_Kinfit.cc">
<polygon fill="white" stroke="black" points="149,-78.5 149,-119.5 285,-119.5 285,-78.5 149,-78.5"/>
<text text-anchor="start" x="157" y="-107.5" font-family="Helvetica,sans-Serif" font-size="10.00">src/analysis/physics</text>
<text text-anchor="start" x="157" y="-96.5" font-family="Helvetica,sans-Serif" font-size="10.00">/calibration/PID_TAPSVeto</text>
<text text-anchor="middle" x="217" y="-85.5" font-family="Helvetica,sans-Serif" font-size="10.00">_Kinfit.cc</text>
</a>
</g>
</g>
<!-- Node42&#45;&gt;Node45 -->
<g id="edge3" class="edge"><title>Node42&#45;&gt;Node45</title>
<path fill="none" stroke="midnightblue" d="M1729.65,-170.632C1457.97,-169.021 574.954,-160.704 294,-120 291.13,-119.584 288.212,-119.102 285.274,-118.567"/>
<polygon fill="midnightblue" stroke="midnightblue" points="1729.81,-174.133 1739.83,-170.691 1729.85,-167.133 1729.81,-174.133"/>
</g>
<!-- Node46 -->
<g id="node5" class="node"><title>Node46</title>
<g id="a_node5"><a xlink:href="_i_m_comb_fit_plots_8cc.html" target="_top" xlink:title="src/analysis/physics\l/common/IMCombFitPlots.cc">
<polygon fill="white" stroke="black" points="303.5,-84 303.5,-114 448.5,-114 448.5,-84 303.5,-84"/>
<text text-anchor="start" x="311.5" y="-102" font-family="Helvetica,sans-Serif" font-size="10.00">src/analysis/physics</text>
<text text-anchor="middle" x="376" y="-91" font-family="Helvetica,sans-Serif" font-size="10.00">/common/IMCombFitPlots.cc</text>
</a>
</g>
</g>
<!-- Node42&#45;&gt;Node46 -->
<g id="edge4" class="edge"><title>Node42&#45;&gt;Node46</title>
<path fill="none" stroke="midnightblue" d="M1729.45,-170.123C1477.27,-167.036 704.951,-154.91 457,-120 446.96,-118.586 436.354,-116.45 426.243,-114.093"/>
<polygon fill="midnightblue" stroke="midnightblue" points="1729.6,-173.625 1739.64,-170.246 1729.68,-166.625 1729.6,-173.625"/>
</g>
<!-- Node47 -->
<g id="node6" class="node"><title>Node47</title>
<g id="a_node6"><a xlink:href="_just_particles_8cc.html" target="_top" xlink:title="src/analysis/physics\l/common/JustParticles.cc">
<polygon fill="white" stroke="black" points="466.5,-84 466.5,-114 597.5,-114 597.5,-84 466.5,-84"/>
<text text-anchor="start" x="474.5" y="-102" font-family="Helvetica,sans-Serif" font-size="10.00">src/analysis/physics</text>
<text text-anchor="middle" x="532" y="-91" font-family="Helvetica,sans-Serif" font-size="10.00">/common/JustParticles.cc</text>
</a>
</g>
</g>
<!-- Node42&#45;&gt;Node47 -->
<g id="edge5" class="edge"><title>Node42&#45;&gt;Node47</title>
<path fill="none" stroke="midnightblue" d="M1729.69,-169.879C1496.87,-166.269 824.365,-153.182 607,-120 597.675,-118.576 587.842,-116.436 578.476,-114.077"/>
<polygon fill="midnightblue" stroke="midnightblue" points="1729.73,-173.38 1739.78,-170.034 1729.84,-166.381 1729.73,-173.38"/>
</g>
<!-- Node48 -->
<g id="node7" class="node"><title>Node48</title>
<g id="a_node7"><a xlink:href="_meson_dalitz_decays_8cc.html" target="_top" xlink:title="Physics class to investigate Dalitz decays for different mesons. ">
<polygon fill="white" stroke="black" points="616,-84 616,-114 778,-114 778,-84 616,-84"/>
<text text-anchor="start" x="624" y="-102" font-family="Helvetica,sans-Serif" font-size="10.00">src/analysis/physics</text>
<text text-anchor="middle" x="697" y="-91" font-family="Helvetica,sans-Serif" font-size="10.00">/common/MesonDalitzDecays.cc</text>
</a>
</g>
</g>
<!-- Node42&#45;&gt;Node48 -->
<g id="edge6" class="edge"><title>Node42&#45;&gt;Node48</title>
<path fill="none" stroke="midnightblue" d="M1729.81,-171.59C1556.78,-171.858 1135.81,-167.107 787,-120 776.055,-118.522 764.472,-116.388 753.39,-114.058"/>
<polygon fill="midnightblue" stroke="midnightblue" points="1729.86,-175.09 1739.86,-171.568 1729.85,-168.09 1729.86,-175.09"/>
</g>
<!-- Node49 -->
<g id="node8" class="node"><title>Node49</title>
<g id="a_node8"><a xlink:href="_etap_omega_g_8cc.html" target="_top" xlink:title="src/analysis/physics\l/etaprime/EtapOmegaG.cc">
<polygon fill="white" stroke="black" points="796.5,-84 796.5,-114 929.5,-114 929.5,-84 796.5,-84"/>
<text text-anchor="start" x="804.5" y="-102" font-family="Helvetica,sans-Serif" font-size="10.00">src/analysis/physics</text>
<text text-anchor="middle" x="863" y="-91" font-family="Helvetica,sans-Serif" font-size="10.00">/etaprime/EtapOmegaG.cc</text>
</a>
</g>
</g>
<!-- Node42&#45;&gt;Node49 -->
<g id="edge7" class="edge"><title>Node42&#45;&gt;Node49</title>
<path fill="none" stroke="midnightblue" d="M1729.63,-171.701C1575.2,-171.858 1226.69,-166.444 938,-120 928.82,-118.523 919.14,-116.389 909.896,-114.06"/>
<polygon fill="midnightblue" stroke="midnightblue" points="1729.97,-175.2 1739.96,-171.682 1729.96,-168.2 1729.97,-175.2"/>
</g>
<!-- Node50 -->
<g id="node9" class="node"><title>Node50</title>
<g id="a_node9"><a xlink:href="_etap_omega_g__simple_8cc.html" target="_top" xlink:title="src/analysis/physics\l/etaprime/EtapOmegaG\l_simple.cc">
<polygon fill="white" stroke="black" points="947.5,-78.5 947.5,-119.5 1066.5,-119.5 1066.5,-78.5 947.5,-78.5"/>
<text text-anchor="start" x="955.5" y="-107.5" font-family="Helvetica,sans-Serif" font-size="10.00">src/analysis/physics</text>
<text text-anchor="start" x="955.5" y="-96.5" font-family="Helvetica,sans-Serif" font-size="10.00">/etaprime/EtapOmegaG</text>
<text text-anchor="middle" x="1007" y="-85.5" font-family="Helvetica,sans-Serif" font-size="10.00">_simple.cc</text>
</a>
</g>
</g>
<!-- Node42&#45;&gt;Node50 -->
<g id="edge8" class="edge"><title>Node42&#45;&gt;Node50</title>
<path fill="none" stroke="midnightblue" d="M1729.65,-171.093C1593.74,-169.991 1310.28,-162.246 1075,-120 1072.21,-119.5 1069.38,-118.928 1066.53,-118.302"/>
<polygon fill="midnightblue" stroke="midnightblue" points="1729.94,-174.595 1739.97,-171.166 1729.99,-167.595 1729.94,-174.595"/>
</g>
<!-- Node51 -->
<g id="node10" class="node"><title>Node51</title>
<g id="a_node10"><a xlink:href="etaprime-3pi0_8h.html" target="_top" xlink:title="src/analysis/physics\l/etaprime/etaprime&#45;3pi0.h">
<polygon fill="white" stroke="black" points="1084.5,-84 1084.5,-114 1211.5,-114 1211.5,-84 1084.5,-84"/>
<text text-anchor="start" x="1092.5" y="-102" font-family="Helvetica,sans-Serif" font-size="10.00">src/analysis/physics</text>
<text text-anchor="middle" x="1148" y="-91" font-family="Helvetica,sans-Serif" font-size="10.00">/etaprime/etaprime&#45;3pi0.h</text>
</a>
</g>
</g>
<!-- Node42&#45;&gt;Node51 -->
<g id="edge9" class="edge"><title>Node42&#45;&gt;Node51</title>
<path fill="none" stroke="midnightblue" d="M1729.61,-168.644C1615.65,-164.264 1400.97,-152.172 1221,-120 1212.33,-118.451 1203.2,-116.342 1194.44,-114.074"/>
<polygon fill="midnightblue" stroke="midnightblue" points="1729.52,-172.144 1739.65,-169.02 1729.79,-165.148 1729.52,-172.144"/>
</g>
<!-- Node53 -->
<g id="node12" class="node"><title>Node53</title>
<g id="a_node12"><a xlink:href="etaprime__dalitz_8cc.html" target="_top" xlink:title="src/analysis/physics\l/etaprime/etaprime_dalitz.cc">
<polygon fill="white" stroke="black" points="1230,-84 1230,-114 1370,-114 1370,-84 1230,-84"/>
<text text-anchor="start" x="1238" y="-102" font-family="Helvetica,sans-Serif" font-size="10.00">src/analysis/physics</text>
<text text-anchor="middle" x="1300" y="-91" font-family="Helvetica,sans-Serif" font-size="10.00">/etaprime/etaprime_dalitz.cc</text>
</a>
</g>
</g>
<!-- Node42&#45;&gt;Node53 -->
<g id="edge11" class="edge"><title>Node42&#45;&gt;Node53</title>
<path fill="none" stroke="midnightblue" d="M1729.72,-164.648C1642.81,-157.04 1500.34,-142.439 1379,-120 1370.1,-118.353 1360.71,-116.28 1351.63,-114.096"/>
<polygon fill="midnightblue" stroke="midnightblue" points="1729.52,-168.143 1739.78,-165.519 1730.12,-161.169 1729.52,-168.143"/>
</g>
<!-- Node54 -->
<g id="node13" class="node"><title>Node54</title>
<g id="a_node13"><a xlink:href="etaprime__proton_8cc.html" target="_top" xlink:title="src/analysis/physics\l/etaprime/etaprime_proton.cc">
<polygon fill="white" stroke="black" points="1388.5,-84 1388.5,-114 1531.5,-114 1531.5,-84 1388.5,-84"/>
<text text-anchor="start" x="1396.5" y="-102" font-family="Helvetica,sans-Serif" font-size="10.00">src/analysis/physics</text>
<text text-anchor="middle" x="1460" y="-91" font-family="Helvetica,sans-Serif" font-size="10.00">/etaprime/etaprime_proton.cc</text>
</a>
</g>
</g>
<!-- Node42&#45;&gt;Node54 -->
<g id="edge12" class="edge"><title>Node42&#45;&gt;Node54</title>
<path fill="none" stroke="midnightblue" d="M1729.68,-157.093C1675.85,-147.463 1603.47,-133.917 1540,-120 1531.75,-118.191 1523.05,-116.154 1514.55,-114.089"/>
<polygon fill="midnightblue" stroke="midnightblue" points="1729.39,-160.597 1739.84,-158.905 1730.61,-153.705 1729.39,-160.597"/>
</g>
<!-- Node55 -->
<g id="node14" class="node"><title>Node55</title>
<g id="a_node14"><a xlink:href="_find_proton_8cc.html" target="_top" xlink:title="src/analysis/physics\l/omega/FindProton.cc">
<polygon fill="white" stroke="black" points="1549.5,-84 1549.5,-114 1662.5,-114 1662.5,-84 1549.5,-84"/>
<text text-anchor="start" x="1557.5" y="-102" font-family="Helvetica,sans-Serif" font-size="10.00">src/analysis/physics</text>
<text text-anchor="middle" x="1606" y="-91" font-family="Helvetica,sans-Serif" font-size="10.00">/omega/FindProton.cc</text>
</a>
</g>
</g>
<!-- Node42&#45;&gt;Node55 -->
<g id="edge13" class="edge"><title>Node42&#45;&gt;Node55</title>
<path fill="none" stroke="midnightblue" d="M1760.17,-153.657C1725.27,-141.511 1679.23,-125.485 1646.57,-114.12"/>
<polygon fill="midnightblue" stroke="midnightblue" points="1759.1,-156.991 1769.7,-156.973 1761.4,-150.38 1759.1,-156.991"/>
</g>
<!-- Node56 -->
<g id="node15" class="node"><title>Node56</title>
<g id="a_node15"><a xlink:href="_omega___eta_g_8cc.html" target="_top" xlink:title="src/analysis/physics\l/omega/Omega_EtaG.cc">
<polygon fill="white" stroke="black" points="1680.5,-84 1680.5,-114 1805.5,-114 1805.5,-84 1680.5,-84"/>
<text text-anchor="start" x="1688.5" y="-102" font-family="Helvetica,sans-Serif" font-size="10.00">src/analysis/physics</text>
<text text-anchor="middle" x="1743" y="-91" font-family="Helvetica,sans-Serif" font-size="10.00">/omega/Omega_EtaG.cc</text>
</a>
</g>
</g>
<!-- Node42&#45;&gt;Node56 -->
<g id="edge14" class="edge"><title>Node42&#45;&gt;Node56</title>
<path fill="none" stroke="midnightblue" d="M1789.76,-149.554C1779.05,-138.207 1766.19,-124.577 1756.67,-114.486"/>
<polygon fill="midnightblue" stroke="midnightblue" points="1787.35,-152.102 1796.76,-156.973 1792.45,-147.298 1787.35,-152.102"/>
</g>
<!-- Node57 -->
<g id="node16" class="node"><title>Node57</title>
<g id="a_node16"><a xlink:href="_just_pi0_8cc.html" target="_top" xlink:title="src/analysis/physics\l/pi0/JustPi0.cc">
<polygon fill="white" stroke="black" points="1824,-84 1824,-114 1930,-114 1930,-84 1824,-84"/>
<text text-anchor="start" x="1832" y="-102" font-family="Helvetica,sans-Serif" font-size="10.00">src/analysis/physics</text>
<text text-anchor="middle" x="1877" y="-91" font-family="Helvetica,sans-Serif" font-size="10.00">/pi0/JustPi0.cc</text>
</a>
</g>
</g>
<!-- Node42&#45;&gt;Node57 -->
<g id="edge15" class="edge"><title>Node42&#45;&gt;Node57</title>
<path fill="none" stroke="midnightblue" d="M1830.24,-149.554C1840.95,-138.207 1853.81,-124.577 1863.33,-114.486"/>
<polygon fill="midnightblue" stroke="midnightblue" points="1827.55,-147.298 1823.24,-156.973 1832.65,-152.102 1827.55,-147.298"/>
</g>
<!-- Node58 -->
<g id="node17" class="node"><title>Node58</title>
<g id="a_node17"><a xlink:href="sigma_plus_8h.html" target="_top" xlink:title="src/analysis/physics\l/production/sigmaPlus.h">
<polygon fill="white" stroke="black" points="1948,-84 1948,-114 2070,-114 2070,-84 1948,-84"/>
<text text-anchor="start" x="1956" y="-102" font-family="Helvetica,sans-Serif" font-size="10.00">src/analysis/physics</text>
<text text-anchor="middle" x="2009" y="-91" font-family="Helvetica,sans-Serif" font-size="10.00">/production/sigmaPlus.h</text>
</a>
</g>
</g>
<!-- Node42&#45;&gt;Node58 -->
<g id="edge16" class="edge"><title>Node42&#45;&gt;Node58</title>
<path fill="none" stroke="midnightblue" d="M1859.05,-153.501C1893.04,-141.374 1937.71,-125.437 1969.43,-114.12"/>
<polygon fill="midnightblue" stroke="midnightblue" points="1857.56,-150.316 1849.32,-156.973 1859.91,-156.909 1857.56,-150.316"/>
</g>
<!-- Node61 -->
<g id="node20" class="node"><title>Node61</title>
<g id="a_node20"><a xlink:href="single_pi0_8h.html" target="_top" xlink:title="src/analysis/physics\l/production/singlePi0.h">
<polygon fill="white" stroke="black" points="2126,-84 2126,-114 2242,-114 2242,-84 2126,-84"/>
<text text-anchor="start" x="2134" y="-102" font-family="Helvetica,sans-Serif" font-size="10.00">src/analysis/physics</text>
<text text-anchor="middle" x="2184" y="-91" font-family="Helvetica,sans-Serif" font-size="10.00">/production/singlePi0.h</text>
</a>
</g>
</g>
<!-- Node42&#45;&gt;Node61 -->
<g id="edge19" class="edge"><title>Node42&#45;&gt;Node61</title>
<path fill="none" stroke="midnightblue" d="M1890.24,-159.766C1951.35,-150.651 2037.39,-136.615 2112,-120 2119.85,-118.252 2128.12,-116.177 2136.15,-114.037"/>
<polygon fill="midnightblue" stroke="midnightblue" points="1889.65,-156.315 1880.27,-161.242 1890.68,-163.239 1889.65,-156.315"/>
</g>
<!-- Node62 -->
<g id="node21" class="node"><title>Node62</title>
<g id="a_node21"><a xlink:href="single_pi0_8cc.html" target="_top" xlink:title="src/analysis/physics\l/production/singlePi0.cc">
<polygon fill="white" stroke="black" points="2005.5,-6 2005.5,-36 2126.5,-36 2126.5,-6 2005.5,-6"/>
<text text-anchor="start" x="2013.5" y="-24" font-family="Helvetica,sans-Serif" font-size="10.00">src/analysis/physics</text>
<text text-anchor="middle" x="2066" y="-13" font-family="Helvetica,sans-Serif" font-size="10.00">/production/singlePi0.cc</text>
</a>
</g>
</g>
<!-- Node42&#45;&gt;Node62 -->
<g id="edge22" class="edge"><title>Node42&#45;&gt;Node62</title>
<path fill="none" stroke="midnightblue" d="M1890.47,-166.787C1960.83,-161.219 2055.38,-148.524 2079,-120 2098.82,-96.0753 2084.11,-56.9921 2073.8,-36.1452"/>
<polygon fill="midnightblue" stroke="midnightblue" points="1889.98,-163.314 1880.27,-167.558 1890.51,-170.294 1889.98,-163.314"/>
</g>
<!-- Node64 -->
<g id="node23" class="node"><title>Node64</title>
<g id="a_node23"><a xlink:href="triple_pi0_8h.html" target="_top" xlink:title="src/analysis/physics\l/production/triplePi0.h">
<polygon fill="white" stroke="black" points="2260.5,-84 2260.5,-114 2371.5,-114 2371.5,-84 2260.5,-84"/>
<text text-anchor="start" x="2268.5" y="-102" font-family="Helvetica,sans-Serif" font-size="10.00">src/analysis/physics</text>
<text text-anchor="middle" x="2316" y="-91" font-family="Helvetica,sans-Serif" font-size="10.00">/production/triplePi0.h</text>
</a>
</g>
</g>
<!-- Node42&#45;&gt;Node64 -->
<g id="edge23" class="edge"><title>Node42&#45;&gt;Node64</title>
<path fill="none" stroke="midnightblue" d="M1890.34,-166.019C1979.08,-159.516 2125.85,-145.79 2250,-120 2257.74,-118.393 2265.87,-116.285 2273.68,-114.042"/>
<polygon fill="midnightblue" stroke="midnightblue" points="1890.07,-162.529 1880.35,-166.739 1890.57,-169.511 1890.07,-162.529"/>
</g>
<!-- Node68 -->
<g id="node27" class="node"><title>Node68</title>
<g id="a_node27"><a xlink:href="gp__pi0[2g]p_8cc.html" target="_top" xlink:title="src/analysis/physics\l/scratch/collicott/gp\l_pi0[2g]p.cc">
<polygon fill="white" stroke="black" points="2389,-78.5 2389,-119.5 2495,-119.5 2495,-78.5 2389,-78.5"/>
<text text-anchor="start" x="2397" y="-107.5" font-family="Helvetica,sans-Serif" font-size="10.00">src/analysis/physics</text>
<text text-anchor="start" x="2397" y="-96.5" font-family="Helvetica,sans-Serif" font-size="10.00">/scratch/collicott/gp</text>
<text text-anchor="middle" x="2442" y="-85.5" font-family="Helvetica,sans-Serif" font-size="10.00">_pi0[2g]p.cc</text>
</a>
</g>
</g>
<!-- Node42&#45;&gt;Node68 -->
<g id="edge27" class="edge"><title>Node42&#45;&gt;Node68</title>
<path fill="none" stroke="midnightblue" d="M1890.16,-169.439C2001.22,-166.008 2207.7,-155.042 2380,-120 2382.88,-119.414 2385.82,-118.741 2388.77,-118.004"/>
<polygon fill="midnightblue" stroke="midnightblue" points="1889.93,-165.944 1880.04,-169.738 1890.14,-172.941 1889.93,-165.944"/>
</g>
<!-- Node69 -->
<g id="node28" class="node"><title>Node69</title>
<g id="a_node28"><a xlink:href="checktagger_8cc.html" target="_top" xlink:title="src/analysis/physics\l/scratch/lheijken/checktagger.cc">
<polygon fill="white" stroke="black" points="2513,-84 2513,-114 2671,-114 2671,-84 2513,-84"/>
<text text-anchor="start" x="2521" y="-102" font-family="Helvetica,sans-Serif" font-size="10.00">src/analysis/physics</text>
<text text-anchor="middle" x="2592" y="-91" font-family="Helvetica,sans-Serif" font-size="10.00">/scratch/lheijken/checktagger.cc</text>
</a>
</g>
</g>
<!-- Node42&#45;&gt;Node69 -->
<g id="edge28" class="edge"><title>Node42&#45;&gt;Node69</title>
<path fill="none" stroke="midnightblue" d="M1890.45,-168.93C2020.05,-164.732 2282.83,-152.658 2503,-120 2513.5,-118.443 2524.59,-116.331 2535.26,-114.062"/>
<polygon fill="midnightblue" stroke="midnightblue" points="1890.1,-165.439 1880.22,-169.254 1890.32,-172.436 1890.1,-165.439"/>
</g>
<!-- Node70 -->
<g id="node29" class="node"><title>Node70</title>
<g id="a_node29"><a xlink:href="gp__pi0p_8cc.html" target="_top" xlink:title="src/analysis/physics\l/scratch/lheijken/gp\l_pi0p.cc">
<polygon fill="white" stroke="black" points="2689,-78.5 2689,-119.5 2795,-119.5 2795,-78.5 2689,-78.5"/>
<text text-anchor="start" x="2697" y="-107.5" font-family="Helvetica,sans-Serif" font-size="10.00">src/analysis/physics</text>
<text text-anchor="start" x="2697" y="-96.5" font-family="Helvetica,sans-Serif" font-size="10.00">/scratch/lheijken/gp</text>
<text text-anchor="middle" x="2742" y="-85.5" font-family="Helvetica,sans-Serif" font-size="10.00">_pi0p.cc</text>
</a>
</g>
</g>
<!-- Node42&#45;&gt;Node70 -->
<g id="edge29" class="edge"><title>Node42&#45;&gt;Node70</title>
<path fill="none" stroke="midnightblue" d="M1890.51,-168.833C2076.03,-163.424 2529.14,-147.736 2679,-120 2682.27,-119.394 2685.61,-118.669 2688.96,-117.86"/>
<polygon fill="midnightblue" stroke="midnightblue" points="1890.18,-165.341 1880.28,-169.128 1890.38,-172.338 1890.18,-165.341"/>
</g>
<!-- Node71 -->
<g id="node30" class="node"><title>Node71</title>
<g id="a_node30"><a xlink:href="_etap_dalitz_m_c_8cc.html" target="_top" xlink:title="src/analysis/physics\l/scratch/wagner/EtapDalitzMC.cc">
<polygon fill="white" stroke="black" points="2813,-84 2813,-114 2977,-114 2977,-84 2813,-84"/>
<text text-anchor="start" x="2821" y="-102" font-family="Helvetica,sans-Serif" font-size="10.00">src/analysis/physics</text>
<text text-anchor="middle" x="2895" y="-91" font-family="Helvetica,sans-Serif" font-size="10.00">/scratch/wagner/EtapDalitzMC.cc</text>
</a>
</g>
</g>
<!-- Node42&#45;&gt;Node71 -->
<g id="edge30" class="edge"><title>Node42&#45;&gt;Node71</title>
<path fill="none" stroke="midnightblue" d="M1890.27,-171.291C2059.69,-170.937 2465.96,-164.985 2803,-120 2814.18,-118.508 2826.02,-116.367 2837.34,-114.036"/>
<polygon fill="midnightblue" stroke="midnightblue" points="1890.18,-167.791 1880.19,-171.306 1890.19,-174.791 1890.18,-167.791"/>
</g>
<!-- Node72 -->
<g id="node31" class="node"><title>Node72</title>
<g id="a_node31"><a xlink:href="analysis_2physics_2tunings_2_interpolated_pulls_8cc.html" target="_top" xlink:title="src/analysis/physics\l/tunings/InterpolatedPulls.cc">
<polygon fill="white" stroke="black" points="2995,-84 2995,-114 3135,-114 3135,-84 2995,-84"/>
<text text-anchor="start" x="3003" y="-102" font-family="Helvetica,sans-Serif" font-size="10.00">src/analysis/physics</text>
<text text-anchor="middle" x="3065" y="-91" font-family="Helvetica,sans-Serif" font-size="10.00">/tunings/InterpolatedPulls.cc</text>
</a>
</g>
</g>
<!-- Node42&#45;&gt;Node72 -->
<g id="edge31" class="edge"><title>Node42&#45;&gt;Node72</title>
<path fill="none" stroke="midnightblue" d="M1890.43,-169.655C2119.76,-165.48 2773.92,-151.109 2986,-120 2995.8,-118.563 3006.15,-116.416 3016.01,-114.055"/>
<polygon fill="midnightblue" stroke="midnightblue" points="1890.1,-166.16 1880.16,-169.84 1890.23,-173.159 1890.1,-166.16"/>
</g>
<!-- Node73 -->
<g id="node32" class="node"><title>Node73</title>
<g id="a_node32"><a xlink:href="physics_2tunings_2_trigger_simulation_8cc.html" target="_top" xlink:title="src/analysis/physics\l/tunings/TriggerSimulation.cc">
<polygon fill="white" stroke="black" points="3153.5,-84 3153.5,-114 3296.5,-114 3296.5,-84 3153.5,-84"/>
<text text-anchor="start" x="3161.5" y="-102" font-family="Helvetica,sans-Serif" font-size="10.00">src/analysis/physics</text>
<text text-anchor="middle" x="3225" y="-91" font-family="Helvetica,sans-Serif" font-size="10.00">/tunings/TriggerSimulation.cc</text>
</a>
</g>
</g>
<!-- Node42&#45;&gt;Node73 -->
<g id="edge32" class="edge"><title>Node42&#45;&gt;Node73</title>
<path fill="none" stroke="midnightblue" d="M1890.28,-170.076C2139.82,-166.865 2899.82,-154.446 3144,-120 3154.04,-118.584 3164.65,-116.447 3174.76,-114.089"/>
<polygon fill="midnightblue" stroke="midnightblue" points="1890.16,-166.577 1880.2,-170.204 1890.24,-173.577 1890.16,-166.577"/>
</g>
<!-- Node74 -->
<g id="node33" class="node"><title>Node74</title>
<g id="a_node33"><a xlink:href="_fitter_sergey_8cc.html" target="_top" xlink:title="src/analysis/utils\l/uncertainties/FitterSergey.cc">
<polygon fill="white" stroke="black" points="3314.5,-84 3314.5,-114 3459.5,-114 3459.5,-84 3314.5,-84"/>
<text text-anchor="start" x="3322.5" y="-102" font-family="Helvetica,sans-Serif" font-size="10.00">src/analysis/utils</text>
<text text-anchor="middle" x="3387" y="-91" font-family="Helvetica,sans-Serif" font-size="10.00">/uncertainties/FitterSergey.cc</text>
</a>
</g>
</g>
<!-- Node42&#45;&gt;Node74 -->
<g id="edge33" class="edge"><title>Node42&#45;&gt;Node74</title>
<path fill="none" stroke="midnightblue" d="M1890.14,-170.433C2159.06,-168.189 3027.97,-158.098 3305,-120 3315.31,-118.583 3326.2,-116.413 3336.57,-114.017"/>
<polygon fill="midnightblue" stroke="midnightblue" points="1890.03,-166.933 1880.06,-170.515 1890.09,-173.933 1890.03,-166.933"/>
</g>
<!-- Node44 -->
<g id="node3" class="node"><title>Node44</title>
<g id="a_node3"><a xlink:href="analysis_2physics_2calibration_2_p_i_d___energy_8cc.html" target="_top" xlink:title="src/analysis/physics\l/calibration/PID_Energy.cc">
<polygon fill="white" stroke="black" points="0,-6 0,-36 134,-36 134,-6 0,-6"/>
<text text-anchor="start" x="8" y="-24" font-family="Helvetica,sans-Serif" font-size="10.00">src/analysis/physics</text>
<text text-anchor="middle" x="67" y="-13" font-family="Helvetica,sans-Serif" font-size="10.00">/calibration/PID_Energy.cc</text>
</a>
</g>
</g>
<!-- Node43&#45;&gt;Node44 -->
<g id="edge2" class="edge"><title>Node43&#45;&gt;Node44</title>
<path fill="none" stroke="midnightblue" d="M67,-73.5898C67,-61.2565 67,-46.7237 67,-36.2309"/>
<polygon fill="midnightblue" stroke="midnightblue" points="63.5001,-73.7049 67,-83.705 70.5001,-73.705 63.5001,-73.7049"/>
</g>
<!-- Node52 -->
<g id="node11" class="node"><title>Node52</title>
<g id="a_node11"><a xlink:href="etaprime-3pi0_8cc.html" target="_top" xlink:title="src/analysis/physics\l/etaprime/etaprime&#45;3pi0.cc">
<polygon fill="white" stroke="black" points="1082,-6 1082,-36 1214,-36 1214,-6 1082,-6"/>
<text text-anchor="start" x="1090" y="-24" font-family="Helvetica,sans-Serif" font-size="10.00">src/analysis/physics</text>
<text text-anchor="middle" x="1148" y="-13" font-family="Helvetica,sans-Serif" font-size="10.00">/etaprime/etaprime&#45;3pi0.cc</text>
</a>
</g>
</g>
<!-- Node51&#45;&gt;Node52 -->
<g id="edge10" class="edge"><title>Node51&#45;&gt;Node52</title>
<path fill="none" stroke="midnightblue" d="M1148,-73.5898C1148,-61.2565 1148,-46.7237 1148,-36.2309"/>
<polygon fill="midnightblue" stroke="midnightblue" points="1144.5,-73.7049 1148,-83.705 1151.5,-73.705 1144.5,-73.7049"/>
</g>
<!-- Node59 -->
<g id="node18" class="node"><title>Node59</title>
<g id="a_node18"><a xlink:href="sigma_plus_8cc.html" target="_top" xlink:title="src/analysis/physics\l/production/sigmaPlus.cc">
<polygon fill="white" stroke="black" points="1693.5,-6 1693.5,-36 1820.5,-36 1820.5,-6 1693.5,-6"/>
<text text-anchor="start" x="1701.5" y="-24" font-family="Helvetica,sans-Serif" font-size="10.00">src/analysis/physics</text>
<text text-anchor="middle" x="1757" y="-13" font-family="Helvetica,sans-Serif" font-size="10.00">/production/sigmaPlus.cc</text>
</a>
</g>
</g>
<!-- Node58&#45;&gt;Node59 -->
<g id="edge17" class="edge"><title>Node58&#45;&gt;Node59</title>
<path fill="none" stroke="midnightblue" d="M1952.9,-81.0816C1908.03,-67.5485 1845.85,-48.7964 1803.67,-36.0749"/>
<polygon fill="midnightblue" stroke="midnightblue" points="1951.9,-84.4353 1962.49,-83.9719 1953.92,-77.7334 1951.9,-84.4353"/>
</g>
<!-- Node60 -->
<g id="node19" class="node"><title>Node60</title>
<g id="a_node19"><a xlink:href="sigma_plus_plots_8cc.html" target="_top" xlink:title="src/analysis/physics\l/production/sigmaPlusPlots.cc">
<polygon fill="white" stroke="black" points="1838.5,-6 1838.5,-36 1987.5,-36 1987.5,-6 1838.5,-6"/>
<text text-anchor="start" x="1846.5" y="-24" font-family="Helvetica,sans-Serif" font-size="10.00">src/analysis/physics</text>
<text text-anchor="middle" x="1913" y="-13" font-family="Helvetica,sans-Serif" font-size="10.00">/production/sigmaPlusPlots.cc</text>
</a>
</g>
</g>
<!-- Node58&#45;&gt;Node60 -->
<g id="edge18" class="edge"><title>Node58&#45;&gt;Node60</title>
<path fill="none" stroke="midnightblue" d="M1982.79,-77.2533C1966.35,-64.2337 1945.57,-47.7835 1930.98,-36.2309"/>
<polygon fill="midnightblue" stroke="midnightblue" points="1980.93,-80.2421 1990.94,-83.705 1985.28,-74.7537 1980.93,-80.2421"/>
</g>
<!-- Node61&#45;&gt;Node62 -->
<g id="edge20" class="edge"><title>Node61&#45;&gt;Node62</title>
<path fill="none" stroke="midnightblue" d="M2153.67,-78.467C2133.07,-65.1993 2106.31,-47.9633 2087.8,-36.0413"/>
<polygon fill="midnightblue" stroke="midnightblue" points="2151.78,-81.4108 2162.08,-83.8831 2155.57,-75.5258 2151.78,-81.4108"/>
</g>
<!-- Node63 -->
<g id="node22" class="node"><title>Node63</title>
<g id="a_node22"><a xlink:href="single_pi0_plots_8cc.html" target="_top" xlink:title="src/analysis/physics\l/production/singlePi0Plots.cc">
<polygon fill="white" stroke="black" points="2144.5,-6 2144.5,-36 2287.5,-36 2287.5,-6 2144.5,-6"/>
<text text-anchor="start" x="2152.5" y="-24" font-family="Helvetica,sans-Serif" font-size="10.00">src/analysis/physics</text>
<text text-anchor="middle" x="2216" y="-13" font-family="Helvetica,sans-Serif" font-size="10.00">/production/singlePi0Plots.cc</text>
</a>
</g>
</g>
<!-- Node61&#45;&gt;Node63 -->
<g id="edge21" class="edge"><title>Node61&#45;&gt;Node63</title>
<path fill="none" stroke="midnightblue" d="M2193.96,-74.3345C2199.22,-61.8454 2205.5,-46.9356 2210.01,-36.2309"/>
<polygon fill="midnightblue" stroke="midnightblue" points="2190.67,-73.1304 2190.02,-83.705 2197.13,-75.8468 2190.67,-73.1304"/>
</g>
<!-- Node65 -->
<g id="node24" class="node"><title>Node65</title>
<g id="a_node24"><a xlink:href="triple_pi0_8cc.html" target="_top" xlink:title="src/analysis/physics\l/production/triplePi0.cc">
<polygon fill="white" stroke="black" points="2306,-6 2306,-36 2422,-36 2422,-6 2306,-6"/>
<text text-anchor="start" x="2314" y="-24" font-family="Helvetica,sans-Serif" font-size="10.00">src/analysis/physics</text>
<text text-anchor="middle" x="2364" y="-13" font-family="Helvetica,sans-Serif" font-size="10.00">/production/triplePi0.cc</text>
</a>
</g>
</g>
<!-- Node64&#45;&gt;Node65 -->
<g id="edge24" class="edge"><title>Node64&#45;&gt;Node65</title>
<path fill="none" stroke="midnightblue" d="M2330.48,-75.0735C2338.46,-62.4375 2348.12,-47.1476 2355.01,-36.2309"/>
<polygon fill="midnightblue" stroke="midnightblue" points="2327.41,-73.3811 2325.03,-83.705 2333.33,-77.1191 2327.41,-73.3811"/>
</g>
<!-- Node66 -->
<g id="node25" class="node"><title>Node66</title>
<g id="a_node25"><a xlink:href="triple_pi0_plots_8cc.html" target="_top" xlink:title="src/analysis/physics\l/production/triplePi0Plots.cc">
<polygon fill="white" stroke="black" points="2440.5,-6 2440.5,-36 2579.5,-36 2579.5,-6 2440.5,-6"/>
<text text-anchor="start" x="2448.5" y="-24" font-family="Helvetica,sans-Serif" font-size="10.00">src/analysis/physics</text>
<text text-anchor="middle" x="2510" y="-13" font-family="Helvetica,sans-Serif" font-size="10.00">/production/triplePi0Plots.cc</text>
</a>
</g>
</g>
<!-- Node64&#45;&gt;Node66 -->
<g id="edge25" class="edge"><title>Node64&#45;&gt;Node66</title>
<path fill="none" stroke="midnightblue" d="M2361.39,-80.2193C2395.77,-66.7488 2442.37,-48.4956 2474.16,-36.0413"/>
<polygon fill="midnightblue" stroke="midnightblue" points="2360.07,-76.9766 2352.04,-83.8831 2362.62,-83.4943 2360.07,-76.9766"/>
</g>
<!-- Node67 -->
<g id="node26" class="node"><title>Node67</title>
<g id="a_node26"><a xlink:href="_proton_vertex_test_8cc.html" target="_top" xlink:title="src/analysis/physics\l/scratch/wolfes/ProtonVertex\lTest.cc">
<polygon fill="white" stroke="black" points="2597.5,-0.5 2597.5,-41.5 2740.5,-41.5 2740.5,-0.5 2597.5,-0.5"/>
<text text-anchor="start" x="2605.5" y="-29.5" font-family="Helvetica,sans-Serif" font-size="10.00">src/analysis/physics</text>
<text text-anchor="start" x="2605.5" y="-18.5" font-family="Helvetica,sans-Serif" font-size="10.00">/scratch/wolfes/ProtonVertex</text>
<text text-anchor="middle" x="2669" y="-7.5" font-family="Helvetica,sans-Serif" font-size="10.00">Test.cc</text>
</a>
</g>
</g>
<!-- Node64&#45;&gt;Node67 -->
<g id="edge26" class="edge"><title>Node64&#45;&gt;Node67</title>
<path fill="none" stroke="midnightblue" d="M2368.08,-81.1062C2372.09,-79.993 2376.1,-78.9422 2380,-78 2471.19,-55.9605 2496.18,-61.2569 2588,-42 2590.98,-41.3756 2594.01,-40.7191 2597.07,-40.04"/>
<polygon fill="midnightblue" stroke="midnightblue" points="2366.76,-77.8417 2358.12,-83.9752 2368.7,-84.5677 2366.76,-77.8417"/>
</g>
</g>
</svg>
