<?xml version="1.0" encoding="UTF-8" standalone="no"?>
<!DOCTYPE svg PUBLIC "-//W3C//DTD SVG 1.1//EN"
 "http://www.w3.org/Graphics/SVG/1.1/DTD/svg11.dtd">
<!-- Generated by graphviz version 2.36.0 (20140111.2315)
 -->
<!-- Title: src/calibration/fitfunctions/FitGausPol3.cc Pages: 1 -->
<svg width="1042pt" height="344pt"
 viewBox="0.00 0.00 1042.33 344.00" xmlns="http://www.w3.org/2000/svg" xmlns:xlink="http://www.w3.org/1999/xlink">
<g id="graph0" class="graph" transform="scale(1 1) rotate(0) translate(4 340)">
<title>src/calibration/fitfunctions/FitGausPol3.cc</title>
<polygon fill="white" stroke="none" points="-4,4 -4,-340 1038.33,-340 1038.33,4 -4,4"/>
<!-- Node0 -->
<g id="node1" class="node"><title>Node0</title>
<polygon fill="#bfbfbf" stroke="black" points="731.335,-305 731.335,-335 859.335,-335 859.335,-305 731.335,-305"/>
<text text-anchor="start" x="739.335" y="-323" font-family="Helvetica,sans-Serif" font-size="10.00">src/calibration/fitfunctions</text>
<text text-anchor="middle" x="795.335" y="-312" font-family="Helvetica,sans-Serif" font-size="10.00">/FitGausPol3.cc</text>
</g>
<!-- Node1 -->
<g id="node2" class="node"><title>Node1</title>
<g id="a_node2"><a xlink:href="_fit_gaus_pol3_8h.html" target="_top" xlink:title="FitGausPol3.h">
<polygon fill="white" stroke="black" points="500.835,-248.5 500.835,-267.5 579.835,-267.5 579.835,-248.5 500.835,-248.5"/>
<text text-anchor="middle" x="540.335" y="-255.5" font-family="Helvetica,sans-Serif" font-size="10.00">FitGausPol3.h</text>
</a>
</g>
</g>
<!-- Node0&#45;&gt;Node1 -->
<g id="edge1" class="edge"><title>Node0&#45;&gt;Node1</title>
<path fill="none" stroke="midnightblue" d="M735.548,-304.933C689.99,-294.213 628.183,-279.67 586.416,-269.843"/>
<polygon fill="midnightblue" stroke="midnightblue" points="587.049,-266.396 576.514,-267.513 585.446,-273.21 587.049,-266.396"/>
</g>
<!-- Node19 -->
<g id="node20" class="node"><title>Node19</title>
<g id="a_node20"><a xlink:href="_base_functions_8h.html" target="_top" xlink:title="BaseFunctions.h">
<polygon fill="white" stroke="black" points="648.335,-248.5 648.335,-267.5 738.335,-267.5 738.335,-248.5 648.335,-248.5"/>
<text text-anchor="middle" x="693.335" y="-255.5" font-family="Helvetica,sans-Serif" font-size="10.00">BaseFunctions.h</text>
</a>
</g>
</g>
<!-- Node0&#45;&gt;Node19 -->
<g id="edge24" class="edge"><title>Node0&#45;&gt;Node19</title>
<path fill="none" stroke="midnightblue" d="M771.42,-304.933C754.98,-295.262 733.249,-282.479 716.887,-272.855"/>
<polygon fill="midnightblue" stroke="midnightblue" points="718.349,-269.654 707.955,-267.6 714.799,-275.687 718.349,-269.654"/>
</g>
<!-- Node20 -->
<g id="node21" class="node"><title>Node20</title>
<g id="a_node21"><a xlink:href="_logger_8h.html" target="_top" xlink:title="base/Logger.h">
<polygon fill="white" stroke="black" points="756.335,-248.5 756.335,-267.5 834.335,-267.5 834.335,-248.5 756.335,-248.5"/>
<text text-anchor="middle" x="795.335" y="-255.5" font-family="Helvetica,sans-Serif" font-size="10.00">base/Logger.h</text>
</a>
</g>
</g>
<!-- Node0&#45;&gt;Node20 -->
<g id="edge25" class="edge"><title>Node0&#45;&gt;Node20</title>
<path fill="none" stroke="midnightblue" d="M795.335,-304.781C795.335,-296.781 795.335,-286.689 795.335,-278.017"/>
<polygon fill="midnightblue" stroke="midnightblue" points="798.835,-277.73 795.335,-267.731 791.835,-277.731 798.835,-277.73"/>
</g>
<!-- Node22 -->
<g id="node23" class="node"><title>Node22</title>
<g id="a_node23"><a xlink:href="_t_f1_ext_8h.html" target="_top" xlink:title="base/TF1Ext.h">
<polygon fill="white" stroke="black" points="852.835,-248.5 852.835,-267.5 933.835,-267.5 933.835,-248.5 852.835,-248.5"/>
<text text-anchor="middle" x="893.335" y="-255.5" font-family="Helvetica,sans-Serif" font-size="10.00">base/TF1Ext.h</text>
</a>
</g>
</g>
<!-- Node0&#45;&gt;Node22 -->
<g id="edge27" class="edge"><title>Node0&#45;&gt;Node22</title>
<path fill="none" stroke="midnightblue" d="M818.559,-304.781C834.362,-295.105 855.166,-282.368 870.817,-272.786"/>
<polygon fill="midnightblue" stroke="midnightblue" points="872.659,-275.762 879.36,-267.556 869.004,-269.792 872.659,-275.762"/>
</g>
<!-- Node23 -->
<g id="node24" class="node"><title>Node23</title>
<polygon fill="white" stroke="#bfbfbf" points="906.335,-186.5 906.335,-205.5 948.335,-205.5 948.335,-186.5 906.335,-186.5"/>
<text text-anchor="middle" x="927.335" y="-193.5" font-family="Helvetica,sans-Serif" font-size="10.00">TF1.h</text>
</g>
<!-- Node0&#45;&gt;Node23 -->
<g id="edge32" class="edge"><title>Node0&#45;&gt;Node23</title>
<path fill="none" stroke="midnightblue" d="M859.426,-313.552C889.788,-307.376 923.463,-294.522 942.335,-268 953.479,-252.338 946.011,-230.124 938.157,-214.732"/>
<polygon fill="midnightblue" stroke="midnightblue" points="941.066,-212.762 933.133,-205.74 934.955,-216.177 941.066,-212.762"/>
</g>
<!-- Node24 -->
<g id="node25" class="node"><title>Node24</title>
<g id="a_node25"><a xlink:href="_linear_8h.html" target="_top" xlink:title="base/math_functions\l/Linear.h">
<polygon fill="white" stroke="black" points="579.835,-181 579.835,-211 686.835,-211 686.835,-181 579.835,-181"/>
<text text-anchor="start" x="587.835" y="-199" font-family="Helvetica,sans-Serif" font-size="10.00">base/math_functions</text>
<text text-anchor="middle" x="633.335" y="-188" font-family="Helvetica,sans-Serif" font-size="10.00">/Linear.h</text>
</a>
</g>
</g>
<!-- Node0&#45;&gt;Node24 -->
<g id="edge29" class="edge"><title>Node0&#45;&gt;Node24</title>
<path fill="none" stroke="midnightblue" d="M731.17,-314.402C698.549,-308.535 661.264,-295.704 639.335,-268 629.079,-255.044 627.892,-236.278 629.103,-221.292"/>
<polygon fill="midnightblue" stroke="midnightblue" points="632.599,-221.531 630.312,-211.186 625.649,-220.699 632.599,-221.531"/>
</g>
<!-- Node26 -->
<g id="node27" class="node"><title>Node26</title>
<polygon fill="white" stroke="#bfbfbf" points="990.335,-248.5 990.335,-267.5 1034.33,-267.5 1034.33,-248.5 990.335,-248.5"/>
<text text-anchor="middle" x="1012.33" y="-255.5" font-family="Helvetica,sans-Serif" font-size="10.00">TH1.h</text>
</g>
<!-- Node0&#45;&gt;Node26 -->
<g id="edge33" class="edge"><title>Node0&#45;&gt;Node26</title>
<path fill="none" stroke="midnightblue" d="M846.211,-304.933C887.713,-293.458 945.061,-277.601 980.371,-267.838"/>
<polygon fill="midnightblue" stroke="midnightblue" points="981.442,-271.173 990.147,-265.135 979.576,-264.426 981.442,-271.173"/>
</g>
<!-- Node2 -->
<g id="node3" class="node"><title>Node2</title>
<g id="a_node3"><a xlink:href="_fit_function_8h.html" target="_top" xlink:title="FitFunction.h">
<polygon fill="white" stroke="black" points="478.335,-186.5 478.335,-205.5 552.335,-205.5 552.335,-186.5 478.335,-186.5"/>
<text text-anchor="middle" x="515.335" y="-193.5" font-family="Helvetica,sans-Serif" font-size="10.00">FitFunction.h</text>
</a>
</g>
</g>
<!-- Node1&#45;&gt;Node2 -->
<g id="edge2" class="edge"><title>Node1&#45;&gt;Node2</title>
<path fill="none" stroke="midnightblue" d="M536.753,-248.403C533.151,-239.76 527.489,-226.17 522.89,-215.134"/>
<polygon fill="midnightblue" stroke="midnightblue" points="525.987,-213.465 518.91,-205.581 519.525,-216.158 525.987,-213.465"/>
</g>
<!-- Node3 -->
<g id="node4" class="node"><title>Node3</title>
<g id="a_node4"><a xlink:href="_knobs_t_f1_8h.html" target="_top" xlink:title="KnobsTF1.h">
<polygon fill="white" stroke="black" points="178.335,-124.5 178.335,-143.5 248.335,-143.5 248.335,-124.5 178.335,-124.5"/>
<text text-anchor="middle" x="213.335" y="-131.5" font-family="Helvetica,sans-Serif" font-size="10.00">KnobsTF1.h</text>
</a>
</g>
</g>
<!-- Node2&#45;&gt;Node3 -->
<g id="edge3" class="edge"><title>Node2&#45;&gt;Node3</title>
<path fill="none" stroke="midnightblue" d="M478.303,-187.643C422.916,-176.639 318.617,-155.917 258.723,-144.017"/>
<polygon fill="midnightblue" stroke="midnightblue" points="259.282,-140.56 248.792,-142.044 257.918,-147.426 259.282,-140.56"/>
</g>
<!-- Node4 -->
<g id="node5" class="node"><title>Node4</title>
<g id="a_node5"><a xlink:href="_indicator__traits_8h.html" target="_top" xlink:title="calibration/gui/Indicator\l_traits.h">
<polygon fill="white" stroke="black" points="14.8346,-57 14.8346,-87 131.835,-87 131.835,-57 14.8346,-57"/>
<text text-anchor="start" x="22.8346" y="-75" font-family="Helvetica,sans-Serif" font-size="10.00">calibration/gui/Indicator</text>
<text text-anchor="middle" x="73.3346" y="-64" font-family="Helvetica,sans-Serif" font-size="10.00">_traits.h</text>
</a>
</g>
</g>
<!-- Node2&#45;&gt;Node4 -->
<g id="edge8" class="edge"><title>Node2&#45;&gt;Node4</title>
<path fill="none" stroke="midnightblue" d="M478.179,-195.346C413.082,-194.704 275.266,-187.739 169.335,-144 141.088,-132.337 113.538,-110.561 95.2497,-94.1881"/>
<polygon fill="midnightblue" stroke="midnightblue" points="97.2631,-91.2852 87.5294,-87.101 92.5293,-96.4419 97.2631,-91.2852"/>
</g>
<!-- Node5 -->
<g id="node6" class="node"><title>Node5</title>
<polygon fill="white" stroke="#bfbfbf" points="1.33457,-0.5 1.33457,-19.5 57.3346,-19.5 57.3346,-0.5 1.33457,-0.5"/>
<text text-anchor="middle" x="29.3346" y="-7.5" font-family="Helvetica,sans-Serif" font-size="10.00">Rtypes.h</text>
</g>
<!-- Node2&#45;&gt;Node5 -->
<g id="edge20" class="edge"><title>Node2&#45;&gt;Node5</title>
<path fill="none" stroke="midnightblue" d="M478.093,-193.582C408.667,-190.169 255.278,-178.988 131.335,-144 72.3576,-127.351 38.7278,-139.384 5.33457,-88 -6.65657,-69.5485 5.11952,-44.733 16.0008,-28.3208"/>
<polygon fill="midnightblue" stroke="midnightblue" points="19.1629,-29.9147 22.1178,-19.7402 13.463,-25.8513 19.1629,-29.9147"/>
</g>
<!-- Node6 -->
<g id="node7" class="node"><title>Node6</title>
<polygon fill="white" stroke="#bfbfbf" points="226.835,-62.5 226.835,-81.5 267.835,-81.5 267.835,-62.5 226.835,-62.5"/>
<text text-anchor="middle" x="247.335" y="-69.5" font-family="Helvetica,sans-Serif" font-size="10.00">string</text>
</g>
<!-- Node2&#45;&gt;Node6 -->
<g id="edge23" class="edge"><title>Node2&#45;&gt;Node6</title>
<path fill="none" stroke="midnightblue" d="M495.462,-186.396C454.449,-168.566 357.555,-126.068 277.335,-88 275.986,-87.3603 274.608,-86.6983 273.218,-86.025"/>
<polygon fill="midnightblue" stroke="midnightblue" points="274.611,-82.8098 264.094,-81.5318 271.519,-89.0897 274.611,-82.8098"/>
</g>
<!-- Node8 -->
<g id="node9" class="node"><title>Node8</title>
<g id="a_node9"><a xlink:href="interval_8h.html" target="_top" xlink:title="base/interval.h">
<polygon fill="white" stroke="black" points="475.335,-124.5 475.335,-143.5 555.335,-143.5 555.335,-124.5 475.335,-124.5"/>
<text text-anchor="middle" x="515.335" y="-131.5" font-family="Helvetica,sans-Serif" font-size="10.00">base/interval.h</text>
</a>
</g>
</g>
<!-- Node2&#45;&gt;Node8 -->
<g id="edge9" class="edge"><title>Node2&#45;&gt;Node8</title>
<path fill="none" stroke="midnightblue" d="M515.335,-186.403C515.335,-177.938 515.335,-164.728 515.335,-153.82"/>
<polygon fill="midnightblue" stroke="midnightblue" points="518.835,-153.581 515.335,-143.581 511.835,-153.581 518.835,-153.581"/>
</g>
<!-- Node16 -->
<g id="node17" class="node"><title>Node16</title>
<g id="a_node17"><a xlink:href="memory_8h.html" target="_top" xlink:title="base/std_ext/memory.h">
<polygon fill="white" stroke="black" points="718.835,-124.5 718.835,-143.5 837.835,-143.5 837.835,-124.5 718.835,-124.5"/>
<text text-anchor="middle" x="778.335" y="-131.5" font-family="Helvetica,sans-Serif" font-size="10.00">base/std_ext/memory.h</text>
</a>
</g>
</g>
<!-- Node2&#45;&gt;Node16 -->
<g id="edge17" class="edge"><title>Node2&#45;&gt;Node16</title>
<path fill="none" stroke="midnightblue" d="M545.519,-186.458C553.561,-184.267 562.258,-181.973 570.335,-180 622.888,-167.158 683.372,-154.285 725.521,-145.617"/>
<polygon fill="midnightblue" stroke="midnightblue" points="726.464,-148.997 735.558,-143.561 725.059,-142.139 726.464,-148.997"/>
</g>
<!-- Node17 -->
<g id="node18" class="node"><title>Node17</title>
<polygon fill="white" stroke="#bfbfbf" points="764.335,-62.5 764.335,-81.5 816.335,-81.5 816.335,-62.5 764.335,-62.5"/>
<text text-anchor="middle" x="790.335" y="-69.5" font-family="Helvetica,sans-Serif" font-size="10.00">memory</text>
</g>
<!-- Node2&#45;&gt;Node17 -->
<g id="edge21" class="edge"><title>Node2&#45;&gt;Node17</title>
<path fill="none" stroke="midnightblue" d="M523.532,-186.067C537.955,-170.909 569.469,-140.223 602.335,-124 664.588,-93.2715 688.298,-109.421 754.335,-88 756.903,-87.1669 759.544,-86.2295 762.174,-85.2403"/>
<polygon fill="midnightblue" stroke="midnightblue" points="763.501,-88.4794 771.494,-81.5259 760.909,-81.9768 763.501,-88.4794"/>
</g>
<!-- Node18 -->
<g id="node19" class="node"><title>Node18</title>
<polygon fill="white" stroke="#bfbfbf" points="840.835,-62.5 840.835,-81.5 869.835,-81.5 869.835,-62.5 840.835,-62.5"/>
<text text-anchor="middle" x="855.335" y="-69.5" font-family="Helvetica,sans-Serif" font-size="10.00">list</text>
</g>
<!-- Node2&#45;&gt;Node18 -->
<g id="edge22" class="edge"><title>Node2&#45;&gt;Node18</title>
<path fill="none" stroke="midnightblue" d="M543.704,-186.468C552.21,-184.126 561.601,-181.752 570.335,-180 630.979,-167.834 802.677,-187.816 846.335,-144 859.731,-130.555 860.345,-107.877 858.661,-91.771"/>
<polygon fill="midnightblue" stroke="midnightblue" points="862.126,-91.2746 857.257,-81.8647 855.195,-92.2569 862.126,-91.2746"/>
</g>
<!-- Node3&#45;&gt;Node4 -->
<g id="edge4" class="edge"><title>Node3&#45;&gt;Node4</title>
<path fill="none" stroke="midnightblue" d="M193.276,-124.403C173.007,-115.717 141.082,-102.035 115.263,-90.9694"/>
<polygon fill="midnightblue" stroke="midnightblue" points="116.631,-87.7476 106.06,-87.0253 113.873,-94.1816 116.631,-87.7476"/>
</g>
<!-- Node3&#45;&gt;Node6 -->
<g id="edge6" class="edge"><title>Node3&#45;&gt;Node6</title>
<path fill="none" stroke="midnightblue" d="M218.206,-124.403C223.205,-115.582 231.124,-101.608 237.444,-90.4548"/>
<polygon fill="midnightblue" stroke="midnightblue" points="240.587,-92.0064 242.472,-81.5806 234.497,-88.5553 240.587,-92.0064"/>
</g>
<!-- Node7 -->
<g id="node8" class="node"><title>Node7</title>
<polygon fill="white" stroke="#bfbfbf" points="149.835,-62.5 149.835,-81.5 208.835,-81.5 208.835,-62.5 149.835,-62.5"/>
<text text-anchor="middle" x="179.335" y="-69.5" font-family="Helvetica,sans-Serif" font-size="10.00">functional</text>
</g>
<!-- Node3&#45;&gt;Node7 -->
<g id="edge7" class="edge"><title>Node3&#45;&gt;Node7</title>
<path fill="none" stroke="midnightblue" d="M208.463,-124.403C203.464,-115.582 195.545,-101.608 189.226,-90.4548"/>
<polygon fill="midnightblue" stroke="midnightblue" points="192.172,-88.5553 184.197,-81.5806 186.082,-92.0064 192.172,-88.5553"/>
</g>
<!-- Node4&#45;&gt;Node5 -->
<g id="edge5" class="edge"><title>Node4&#45;&gt;Node5</title>
<path fill="none" stroke="midnightblue" d="M62.9072,-56.7808C56.5794,-48.152 48.4659,-37.0882 41.8003,-27.9987"/>
<polygon fill="midnightblue" stroke="midnightblue" points="44.4731,-25.7248 35.737,-19.7305 38.8282,-29.8644 44.4731,-25.7248"/>
</g>
<!-- Node9 -->
<g id="node10" class="node"><title>Node9</title>
<g id="a_node10"><a xlink:href="types_8h.html" target="_top" xlink:title="types.h">
<polygon fill="white" stroke="black" points="634.835,-62.5 634.835,-81.5 683.835,-81.5 683.835,-62.5 634.835,-62.5"/>
<text text-anchor="middle" x="659.335" y="-69.5" font-family="Helvetica,sans-Serif" font-size="10.00">types.h</text>
</a>
</g>
</g>
<!-- Node8&#45;&gt;Node9 -->
<g id="edge10" class="edge"><title>Node8&#45;&gt;Node9</title>
<path fill="none" stroke="midnightblue" d="M536.906,-124.377C559.136,-115.443 594.762,-100.995 625.335,-88 627.16,-87.224 629.038,-86.4179 630.929,-85.6003"/>
<polygon fill="midnightblue" stroke="midnightblue" points="632.55,-88.7115 640.313,-81.5008 629.748,-82.2969 632.55,-88.7115"/>
</g>
<!-- Node10 -->
<g id="node11" class="node"><title>Node10</title>
<polygon fill="white" stroke="#bfbfbf" points="286.335,-62.5 286.335,-81.5 342.335,-81.5 342.335,-62.5 286.335,-62.5"/>
<text text-anchor="middle" x="314.335" y="-69.5" font-family="Helvetica,sans-Serif" font-size="10.00">algorithm</text>
</g>
<!-- Node8&#45;&gt;Node10 -->
<g id="edge11" class="edge"><title>Node8&#45;&gt;Node10</title>
<path fill="none" stroke="midnightblue" d="M479.459,-124.447C445.987,-116.164 394.82,-102.724 351.335,-88 348.776,-87.1337 346.139,-86.1836 343.507,-85.1953"/>
<polygon fill="midnightblue" stroke="midnightblue" points="344.732,-81.916 334.144,-81.5298 342.18,-88.4344 344.732,-81.916"/>
</g>
<!-- Node11 -->
<g id="node12" class="node"><title>Node11</title>
<polygon fill="white" stroke="#bfbfbf" points="360.835,-62.5 360.835,-81.5 419.835,-81.5 419.835,-62.5 360.835,-62.5"/>
<text text-anchor="middle" x="390.335" y="-69.5" font-family="Helvetica,sans-Serif" font-size="10.00">stdexcept</text>
</g>
<!-- Node8&#45;&gt;Node11 -->
<g id="edge12" class="edge"><title>Node8&#45;&gt;Node11</title>
<path fill="none" stroke="midnightblue" d="M497.425,-124.403C476.447,-114.334 441.485,-97.5522 417.241,-85.9151"/>
<polygon fill="midnightblue" stroke="midnightblue" points="418.741,-82.7526 408.211,-81.5806 415.711,-89.0633 418.741,-82.7526"/>
</g>
<!-- Node12 -->
<g id="node13" class="node"><title>Node12</title>
<polygon fill="white" stroke="#bfbfbf" points="438.335,-62.5 438.335,-81.5 478.335,-81.5 478.335,-62.5 438.335,-62.5"/>
<text text-anchor="middle" x="458.335" y="-69.5" font-family="Helvetica,sans-Serif" font-size="10.00">limits</text>
</g>
<!-- Node8&#45;&gt;Node12 -->
<g id="edge13" class="edge"><title>Node8&#45;&gt;Node12</title>
<path fill="none" stroke="midnightblue" d="M507.168,-124.403C498.449,-115.225 484.431,-100.47 473.646,-89.1173"/>
<polygon fill="midnightblue" stroke="midnightblue" points="475.911,-86.42 466.486,-81.5806 470.836,-91.2412 475.911,-86.42"/>
</g>
<!-- Node13 -->
<g id="node14" class="node"><title>Node13</title>
<polygon fill="white" stroke="#bfbfbf" points="496.835,-62.5 496.835,-81.5 545.835,-81.5 545.835,-62.5 496.835,-62.5"/>
<text text-anchor="middle" x="521.335" y="-69.5" font-family="Helvetica,sans-Serif" font-size="10.00">istream</text>
</g>
<!-- Node8&#45;&gt;Node13 -->
<g id="edge14" class="edge"><title>Node8&#45;&gt;Node13</title>
<path fill="none" stroke="midnightblue" d="M516.194,-124.403C517.041,-115.938 518.362,-102.728 519.453,-91.8199"/>
<polygon fill="midnightblue" stroke="midnightblue" points="522.964,-91.8793 520.477,-81.5806 515.999,-91.1827 522.964,-91.8793"/>
</g>
<!-- Node14 -->
<g id="node15" class="node"><title>Node14</title>
<polygon fill="white" stroke="#bfbfbf" points="564.335,-62.5 564.335,-81.5 616.335,-81.5 616.335,-62.5 564.335,-62.5"/>
<text text-anchor="middle" x="590.335" y="-69.5" font-family="Helvetica,sans-Serif" font-size="10.00">sstream</text>
</g>
<!-- Node8&#45;&gt;Node14 -->
<g id="edge15" class="edge"><title>Node8&#45;&gt;Node14</title>
<path fill="none" stroke="midnightblue" d="M526.08,-124.403C537.887,-114.958 557.078,-99.6056 571.417,-88.1342"/>
<polygon fill="midnightblue" stroke="midnightblue" points="573.987,-90.5606 579.609,-81.5806 569.614,-85.0945 573.987,-90.5606"/>
</g>
<!-- Node15 -->
<g id="node16" class="node"><title>Node15</title>
<polygon fill="white" stroke="#bfbfbf" points="702.335,-62.5 702.335,-81.5 746.335,-81.5 746.335,-62.5 702.335,-62.5"/>
<text text-anchor="middle" x="724.335" y="-69.5" font-family="Helvetica,sans-Serif" font-size="10.00">cmath</text>
</g>
<!-- Node8&#45;&gt;Node15 -->
<g id="edge16" class="edge"><title>Node8&#45;&gt;Node15</title>
<path fill="none" stroke="midnightblue" d="M555.345,-125.096C591.647,-117.394 646.361,-104.452 692.335,-88 694.241,-87.3178 696.188,-86.5622 698.132,-85.7636"/>
<polygon fill="midnightblue" stroke="midnightblue" points="699.92,-88.7998 707.647,-81.5508 697.086,-82.3992 699.92,-88.7998"/>
</g>
<!-- Node16&#45;&gt;Node17 -->
<g id="edge18" class="edge"><title>Node16&#45;&gt;Node17</title>
<path fill="none" stroke="midnightblue" d="M780.054,-124.403C781.765,-115.849 784.445,-102.45 786.639,-91.4762"/>
<polygon fill="midnightblue" stroke="midnightblue" points="790.089,-92.0728 788.618,-81.5806 783.225,-90.7 790.089,-92.0728"/>
</g>
<!-- Node16&#45;&gt;Node18 -->
<g id="edge19" class="edge"><title>Node16&#45;&gt;Node18</title>
<path fill="none" stroke="midnightblue" d="M789.367,-124.403C801.603,-114.869 821.563,-99.3154 836.328,-87.8106"/>
<polygon fill="midnightblue" stroke="midnightblue" points="838.586,-90.4879 844.323,-81.5806 834.283,-84.9663 838.586,-90.4879"/>
</g>
<!-- Node21 -->
<g id="node22" class="node"><title>Node21</title>
<polygon fill="white" stroke="#bfbfbf" points="750.835,-186.5 750.835,-205.5 839.835,-205.5 839.835,-186.5 750.835,-186.5"/>
<text text-anchor="middle" x="795.335" y="-193.5" font-family="Helvetica,sans-Serif" font-size="10.00">easylogging++.h</text>
</g>
<!-- Node20&#45;&gt;Node21 -->
<g id="edge26" class="edge"><title>Node20&#45;&gt;Node21</title>
<path fill="none" stroke="midnightblue" d="M795.335,-248.403C795.335,-239.938 795.335,-226.728 795.335,-215.82"/>
<polygon fill="midnightblue" stroke="midnightblue" points="798.835,-215.581 795.335,-205.581 791.835,-215.581 798.835,-215.581"/>
</g>
<!-- Node22&#45;&gt;Node23 -->
<g id="edge28" class="edge"><title>Node22&#45;&gt;Node23</title>
<path fill="none" stroke="midnightblue" d="M898.206,-248.403C903.205,-239.582 911.124,-225.608 917.444,-214.455"/>
<polygon fill="midnightblue" stroke="midnightblue" points="920.587,-216.006 922.472,-205.581 914.497,-212.555 920.587,-216.006"/>
</g>
<!-- Node25 -->
<g id="node26" class="node"><title>Node25</title>
<g id="a_node26"><a xlink:href="vec2_8h.html" target="_top" xlink:title="base/vec/vec2.h">
<polygon fill="white" stroke="black" points="611.835,-124.5 611.835,-143.5 700.835,-143.5 700.835,-124.5 611.835,-124.5"/>
<text text-anchor="middle" x="656.335" y="-131.5" font-family="Helvetica,sans-Serif" font-size="10.00">base/vec/vec2.h</text>
</a>
</g>
</g>
<!-- Node24&#45;&gt;Node25 -->
<g id="edge30" class="edge"><title>Node24&#45;&gt;Node25</title>
<path fill="none" stroke="midnightblue" d="M638.785,-180.781C641.955,-172.512 645.982,-162.006 649.379,-153.145"/>
<polygon fill="midnightblue" stroke="midnightblue" points="652.677,-154.321 652.988,-143.731 646.14,-151.815 652.677,-154.321"/>
</g>
<!-- Node25&#45;&gt;Node15 -->
<g id="edge31" class="edge"><title>Node25&#45;&gt;Node15</title>
<path fill="none" stroke="midnightblue" d="M666.077,-124.403C676.681,-115.047 693.854,-99.8948 706.813,-88.4599"/>
<polygon fill="midnightblue" stroke="midnightblue" points="709.427,-90.8213 714.61,-81.5806 704.796,-85.5724 709.427,-90.8213"/>
</g>
</g>
</svg>
