<?xml version="1.0" encoding="UTF-8" standalone="no"?>
<!DOCTYPE svg PUBLIC "-//W3C//DTD SVG 1.1//EN"
 "http://www.w3.org/Graphics/SVG/1.1/DTD/svg11.dtd">
<!-- Generated by graphviz version 2.36.0 (20140111.2315)
 -->
<!-- Title: src/calibration/fitfunctions/FitGausPol1.cc Pages: 1 -->
<svg width="895pt" height="332pt"
 viewBox="0.00 0.00 895.00 332.00" xmlns="http://www.w3.org/2000/svg" xmlns:xlink="http://www.w3.org/1999/xlink">
<g id="graph0" class="graph" transform="scale(1 1) rotate(0) translate(4 328)">
<title>src/calibration/fitfunctions/FitGausPol1.cc</title>
<polygon fill="white" stroke="none" points="-4,4 -4,-328 891,-328 891,4 -4,4"/>
<!-- Node0 -->
<g id="node1" class="node"><title>Node0</title>
<polygon fill="#bfbfbf" stroke="black" points="588,-293 588,-323 716,-323 716,-293 588,-293"/>
<text text-anchor="start" x="596" y="-311" font-family="Helvetica,sans-Serif" font-size="10.00">src/calibration/fitfunctions</text>
<text text-anchor="middle" x="652" y="-300" font-family="Helvetica,sans-Serif" font-size="10.00">/FitGausPol1.cc</text>
</g>
<!-- Node1 -->
<g id="node2" class="node"><title>Node1</title>
<g id="a_node2"><a xlink:href="_fit_gaus_pol1_8h.html" target="_top" xlink:title="FitGausPol1.h">
<polygon fill="white" stroke="black" points="358.5,-236.5 358.5,-255.5 437.5,-255.5 437.5,-236.5 358.5,-236.5"/>
<text text-anchor="middle" x="398" y="-243.5" font-family="Helvetica,sans-Serif" font-size="10.00">FitGausPol1.h</text>
</a>
</g>
</g>
<!-- Node0&#45;&gt;Node1 -->
<g id="edge1" class="edge"><title>Node0&#45;&gt;Node1</title>
<path fill="none" stroke="midnightblue" d="M592.448,-292.933C547.069,-282.213 485.504,-267.67 443.901,-257.843"/>
<polygon fill="midnightblue" stroke="midnightblue" points="444.574,-254.405 434.037,-255.513 442.965,-261.218 444.574,-254.405"/>
</g>
<!-- Node19 -->
<g id="node20" class="node"><title>Node19</title>
<g id="a_node20"><a xlink:href="_base_functions_8h.html" target="_top" xlink:title="BaseFunctions.h">
<polygon fill="white" stroke="black" points="456,-236.5 456,-255.5 546,-255.5 546,-236.5 456,-236.5"/>
<text text-anchor="middle" x="501" y="-243.5" font-family="Helvetica,sans-Serif" font-size="10.00">BaseFunctions.h</text>
</a>
</g>
</g>
<!-- Node0&#45;&gt;Node19 -->
<g id="edge24" class="edge"><title>Node0&#45;&gt;Node19</title>
<path fill="none" stroke="midnightblue" d="M616.597,-292.933C591.008,-282.765 556.762,-269.157 532.197,-259.396"/>
<polygon fill="midnightblue" stroke="midnightblue" points="533.229,-256.04 522.643,-255.6 530.644,-262.545 533.229,-256.04"/>
</g>
<!-- Node20 -->
<g id="node21" class="node"><title>Node20</title>
<g id="a_node21"><a xlink:href="_logger_8h.html" target="_top" xlink:title="base/Logger.h">
<polygon fill="white" stroke="black" points="564,-236.5 564,-255.5 642,-255.5 642,-236.5 564,-236.5"/>
<text text-anchor="middle" x="603" y="-243.5" font-family="Helvetica,sans-Serif" font-size="10.00">base/Logger.h</text>
</a>
</g>
</g>
<!-- Node0&#45;&gt;Node20 -->
<g id="edge25" class="edge"><title>Node0&#45;&gt;Node20</title>
<path fill="none" stroke="midnightblue" d="M640.388,-292.781C633.267,-284.062 624.117,-272.857 616.651,-263.715"/>
<polygon fill="midnightblue" stroke="midnightblue" points="619.166,-261.262 610.13,-255.731 613.744,-265.69 619.166,-261.262"/>
</g>
<!-- Node22 -->
<g id="node23" class="node"><title>Node22</title>
<g id="a_node23"><a xlink:href="_t_f1_ext_8h.html" target="_top" xlink:title="base/TF1Ext.h">
<polygon fill="white" stroke="black" points="660.5,-236.5 660.5,-255.5 741.5,-255.5 741.5,-236.5 660.5,-236.5"/>
<text text-anchor="middle" x="701" y="-243.5" font-family="Helvetica,sans-Serif" font-size="10.00">base/TF1Ext.h</text>
</a>
</g>
</g>
<!-- Node0&#45;&gt;Node22 -->
<g id="edge27" class="edge"><title>Node0&#45;&gt;Node22</title>
<path fill="none" stroke="midnightblue" d="M663.612,-292.781C670.733,-284.062 679.883,-272.857 687.349,-263.715"/>
<polygon fill="midnightblue" stroke="midnightblue" points="690.256,-265.69 693.87,-255.731 684.834,-261.262 690.256,-265.69"/>
</g>
<!-- Node23 -->
<g id="node24" class="node"><title>Node23</title>
<polygon fill="white" stroke="#bfbfbf" points="714,-180.5 714,-199.5 756,-199.5 756,-180.5 714,-180.5"/>
<text text-anchor="middle" x="735" y="-187.5" font-family="Helvetica,sans-Serif" font-size="10.00">TF1.h</text>
</g>
<!-- Node0&#45;&gt;Node23 -->
<g id="edge29" class="edge"><title>Node0&#45;&gt;Node23</title>
<path fill="none" stroke="midnightblue" d="M702.644,-292.892C720.837,-285.111 739.452,-273.38 750,-256 758.8,-241.5 752.622,-222.317 745.724,-208.555"/>
<polygon fill="midnightblue" stroke="midnightblue" points="748.688,-206.684 740.777,-199.637 742.567,-210.079 748.688,-206.684"/>
</g>
<!-- Node24 -->
<g id="node25" class="node"><title>Node24</title>
<polygon fill="white" stroke="#bfbfbf" points="798,-236.5 798,-255.5 842,-255.5 842,-236.5 798,-236.5"/>
<text text-anchor="middle" x="820" y="-243.5" font-family="Helvetica,sans-Serif" font-size="10.00">TH1.h</text>
</g>
<!-- Node0&#45;&gt;Node24 -->
<g id="edge30" class="edge"><title>Node0&#45;&gt;Node24</title>
<path fill="none" stroke="midnightblue" d="M691.389,-292.933C720.929,-282.382 760.84,-268.129 788.327,-258.312"/>
<polygon fill="midnightblue" stroke="midnightblue" points="789.609,-261.57 797.849,-254.911 787.255,-254.978 789.609,-261.57"/>
</g>
<!-- Node2 -->
<g id="node3" class="node"><title>Node2</title>
<g id="a_node3"><a xlink:href="_fit_function_8h.html" target="_top" xlink:title="FitFunction.h">
<polygon fill="white" stroke="black" points="361,-180.5 361,-199.5 435,-199.5 435,-180.5 361,-180.5"/>
<text text-anchor="middle" x="398" y="-187.5" font-family="Helvetica,sans-Serif" font-size="10.00">FitFunction.h</text>
</a>
</g>
</g>
<!-- Node1&#45;&gt;Node2 -->
<g id="edge2" class="edge"><title>Node1&#45;&gt;Node2</title>
<path fill="none" stroke="midnightblue" d="M398,-236.083C398,-229.006 398,-218.861 398,-209.986"/>
<polygon fill="midnightblue" stroke="midnightblue" points="401.5,-209.751 398,-199.751 394.5,-209.751 401.5,-209.751"/>
</g>
<!-- Node3 -->
<g id="node4" class="node"><title>Node3</title>
<g id="a_node4"><a xlink:href="_knobs_t_f1_8h.html" target="_top" xlink:title="KnobsTF1.h">
<polygon fill="white" stroke="black" points="133,-124.5 133,-143.5 203,-143.5 203,-124.5 133,-124.5"/>
<text text-anchor="middle" x="168" y="-131.5" font-family="Helvetica,sans-Serif" font-size="10.00">KnobsTF1.h</text>
</a>
</g>
</g>
<!-- Node2&#45;&gt;Node3 -->
<g id="edge3" class="edge"><title>Node2&#45;&gt;Node3</title>
<path fill="none" stroke="midnightblue" d="M361.556,-180.444C321.333,-171 256.552,-155.79 213.146,-145.599"/>
<polygon fill="midnightblue" stroke="midnightblue" points="213.678,-142.129 203.142,-143.251 212.078,-148.944 213.678,-142.129"/>
</g>
<!-- Node4 -->
<g id="node5" class="node"><title>Node4</title>
<g id="a_node5"><a xlink:href="_indicator__traits_8h.html" target="_top" xlink:title="calibration/gui/Indicator\l_traits.h">
<polygon fill="white" stroke="black" points="-0.5,-57 -0.5,-87 116.5,-87 116.5,-57 -0.5,-57"/>
<text text-anchor="start" x="7.5" y="-75" font-family="Helvetica,sans-Serif" font-size="10.00">calibration/gui/Indicator</text>
<text text-anchor="middle" x="58" y="-64" font-family="Helvetica,sans-Serif" font-size="10.00">_traits.h</text>
</a>
</g>
</g>
<!-- Node2&#45;&gt;Node4 -->
<g id="edge8" class="edge"><title>Node2&#45;&gt;Node4</title>
<path fill="none" stroke="midnightblue" d="M360.802,-185.886C295.74,-179.95 164.357,-165.647 124,-144 102.727,-132.59 84.5728,-111.676 72.7207,-95.4908"/>
<polygon fill="midnightblue" stroke="midnightblue" points="75.4193,-93.2437 66.8048,-87.0759 69.6928,-97.2695 75.4193,-93.2437"/>
</g>
<!-- Node5 -->
<g id="node6" class="node"><title>Node5</title>
<polygon fill="white" stroke="#bfbfbf" points="141,-0.5 141,-19.5 197,-19.5 197,-0.5 141,-0.5"/>
<text text-anchor="middle" x="169" y="-7.5" font-family="Helvetica,sans-Serif" font-size="10.00">Rtypes.h</text>
</g>
<!-- Node2&#45;&gt;Node5 -->
<g id="edge20" class="edge"><title>Node2&#45;&gt;Node5</title>
<path fill="none" stroke="midnightblue" d="M389.797,-180.355C364.835,-154.157 289.746,-76.2087 261,-56 242.259,-42.8246 219.078,-31.5126 200.674,-23.5258"/>
<polygon fill="midnightblue" stroke="midnightblue" points="201.841,-20.2193 191.267,-19.5502 199.116,-26.6671 201.841,-20.2193"/>
</g>
<!-- Node6 -->
<g id="node7" class="node"><title>Node6</title>
<polygon fill="white" stroke="#bfbfbf" points="211.5,-62.5 211.5,-81.5 252.5,-81.5 252.5,-62.5 211.5,-62.5"/>
<text text-anchor="middle" x="232" y="-69.5" font-family="Helvetica,sans-Serif" font-size="10.00">string</text>
</g>
<!-- Node2&#45;&gt;Node6 -->
<g id="edge23" class="edge"><title>Node2&#45;&gt;Node6</title>
<path fill="none" stroke="midnightblue" d="M360.822,-184.065C332.255,-178.573 293.353,-167.199 267,-144 251.244,-130.129 241.829,-107.533 236.798,-91.5629"/>
<polygon fill="midnightblue" stroke="midnightblue" points="240.108,-90.405 233.992,-81.7537 233.378,-92.3307 240.108,-90.405"/>
</g>
<!-- Node8 -->
<g id="node9" class="node"><title>Node8</title>
<g id="a_node9"><a xlink:href="interval_8h.html" target="_top" xlink:title="base/interval.h">
<polygon fill="white" stroke="black" points="475,-124.5 475,-143.5 555,-143.5 555,-124.5 475,-124.5"/>
<text text-anchor="middle" x="515" y="-131.5" font-family="Helvetica,sans-Serif" font-size="10.00">base/interval.h</text>
</a>
</g>
</g>
<!-- Node2&#45;&gt;Node8 -->
<g id="edge9" class="edge"><title>Node2&#45;&gt;Node8</title>
<path fill="none" stroke="midnightblue" d="M416.539,-180.444C435.623,-171.636 465.575,-157.812 487.436,-147.722"/>
<polygon fill="midnightblue" stroke="midnightblue" points="488.935,-150.885 496.548,-143.516 486.001,-144.529 488.935,-150.885"/>
</g>
<!-- Node16 -->
<g id="node17" class="node"><title>Node16</title>
<g id="a_node17"><a xlink:href="memory_8h.html" target="_top" xlink:title="base/std_ext/memory.h">
<polygon fill="white" stroke="black" points="724.5,-124.5 724.5,-143.5 843.5,-143.5 843.5,-124.5 724.5,-124.5"/>
<text text-anchor="middle" x="784" y="-131.5" font-family="Helvetica,sans-Serif" font-size="10.00">base/std_ext/memory.h</text>
</a>
</g>
</g>
<!-- Node2&#45;&gt;Node16 -->
<g id="edge17" class="edge"><title>Node2&#45;&gt;Node16</title>
<path fill="none" stroke="midnightblue" d="M435.011,-183.822C499.226,-174.839 632.253,-156.229 714.25,-144.758"/>
<polygon fill="midnightblue" stroke="midnightblue" points="714.816,-148.213 724.235,-143.361 713.846,-141.28 714.816,-148.213"/>
</g>
<!-- Node17 -->
<g id="node18" class="node"><title>Node17</title>
<polygon fill="white" stroke="#bfbfbf" points="787,-62.5 787,-81.5 839,-81.5 839,-62.5 787,-62.5"/>
<text text-anchor="middle" x="813" y="-69.5" font-family="Helvetica,sans-Serif" font-size="10.00">memory</text>
</g>
<!-- Node2&#45;&gt;Node17 -->
<g id="edge21" class="edge"><title>Node2&#45;&gt;Node17</title>
<path fill="none" stroke="midnightblue" d="M435.076,-180.867C503.493,-165.475 653.856,-129.852 777,-88 779.412,-87.1802 781.893,-86.2774 784.37,-85.3337"/>
<polygon fill="midnightblue" stroke="midnightblue" points="785.768,-88.5442 793.752,-81.5801 783.168,-82.045 785.768,-88.5442"/>
</g>
<!-- Node18 -->
<g id="node19" class="node"><title>Node18</title>
<polygon fill="white" stroke="#bfbfbf" points="857.5,-62.5 857.5,-81.5 886.5,-81.5 886.5,-62.5 857.5,-62.5"/>
<text text-anchor="middle" x="872" y="-69.5" font-family="Helvetica,sans-Serif" font-size="10.00">list</text>
</g>
<!-- Node2&#45;&gt;Node18 -->
<g id="edge22" class="edge"><title>Node2&#45;&gt;Node18</title>
<path fill="none" stroke="midnightblue" d="M435.164,-186.457C540.771,-179.08 836.064,-157.355 852,-144 867.152,-131.302 871.303,-108.1 872.21,-91.6797"/>
<polygon fill="midnightblue" stroke="midnightblue" points="875.711,-91.6772 872.416,-81.6079 868.713,-91.5343 875.711,-91.6772"/>
</g>
<!-- Node3&#45;&gt;Node4 -->
<g id="edge4" class="edge"><title>Node3&#45;&gt;Node4</title>
<path fill="none" stroke="midnightblue" d="M152.24,-124.403C136.785,-115.974 112.705,-102.839 92.7546,-91.957"/>
<polygon fill="midnightblue" stroke="midnightblue" points="94.3798,-88.8567 83.9248,-87.1408 91.0278,-95.002 94.3798,-88.8567"/>
</g>
<!-- Node3&#45;&gt;Node6 -->
<g id="edge6" class="edge"><title>Node3&#45;&gt;Node6</title>
<path fill="none" stroke="midnightblue" d="M177.17,-124.403C187.15,-115.047 203.312,-99.8948 215.509,-88.4599"/>
<polygon fill="midnightblue" stroke="midnightblue" points="217.946,-90.9734 222.847,-81.5806 213.158,-85.8666 217.946,-90.9734"/>
</g>
<!-- Node7 -->
<g id="node8" class="node"><title>Node7</title>
<polygon fill="white" stroke="#bfbfbf" points="134.5,-62.5 134.5,-81.5 193.5,-81.5 193.5,-62.5 134.5,-62.5"/>
<text text-anchor="middle" x="164" y="-69.5" font-family="Helvetica,sans-Serif" font-size="10.00">functional</text>
</g>
<!-- Node3&#45;&gt;Node7 -->
<g id="edge7" class="edge"><title>Node3&#45;&gt;Node7</title>
<path fill="none" stroke="midnightblue" d="M167.427,-124.403C166.863,-115.938 165.982,-102.728 165.255,-91.8199"/>
<polygon fill="midnightblue" stroke="midnightblue" points="168.73,-91.3256 164.572,-81.5806 161.745,-91.7913 168.73,-91.3256"/>
</g>
<!-- Node4&#45;&gt;Node5 -->
<g id="edge5" class="edge"><title>Node4&#45;&gt;Node5</title>
<path fill="none" stroke="midnightblue" d="M84.0246,-56.9327C102.083,-47.1715 126.006,-34.2401 143.867,-24.5856"/>
<polygon fill="midnightblue" stroke="midnightblue" points="145.957,-27.4342 153.09,-19.6 142.629,-21.2763 145.957,-27.4342"/>
</g>
<!-- Node9 -->
<g id="node10" class="node"><title>Node9</title>
<g id="a_node10"><a xlink:href="types_8h.html" target="_top" xlink:title="types.h">
<polygon fill="white" stroke="black" points="309.5,-62.5 309.5,-81.5 358.5,-81.5 358.5,-62.5 309.5,-62.5"/>
<text text-anchor="middle" x="334" y="-69.5" font-family="Helvetica,sans-Serif" font-size="10.00">types.h</text>
</a>
</g>
</g>
<!-- Node8&#45;&gt;Node9 -->
<g id="edge10" class="edge"><title>Node8&#45;&gt;Node9</title>
<path fill="none" stroke="midnightblue" d="M483.383,-124.493C453.367,-116.142 407.147,-102.569 368,-88 366.095,-87.2912 364.145,-86.5297 362.188,-85.7392"/>
<polygon fill="midnightblue" stroke="midnightblue" points="363.115,-82.331 352.542,-81.655 360.386,-88.777 363.115,-82.331"/>
</g>
<!-- Node10 -->
<g id="node11" class="node"><title>Node10</title>
<polygon fill="white" stroke="#bfbfbf" points="377,-62.5 377,-81.5 433,-81.5 433,-62.5 377,-62.5"/>
<text text-anchor="middle" x="405" y="-69.5" font-family="Helvetica,sans-Serif" font-size="10.00">algorithm</text>
</g>
<!-- Node8&#45;&gt;Node10 -->
<g id="edge11" class="edge"><title>Node8&#45;&gt;Node10</title>
<path fill="none" stroke="midnightblue" d="M499.24,-124.403C481.024,-114.468 450.827,-97.9966 429.532,-86.3812"/>
<polygon fill="midnightblue" stroke="midnightblue" points="431.186,-83.2965 420.731,-81.5806 427.834,-89.4418 431.186,-83.2965"/>
</g>
<!-- Node11 -->
<g id="node12" class="node"><title>Node11</title>
<polygon fill="white" stroke="#bfbfbf" points="451.5,-62.5 451.5,-81.5 510.5,-81.5 510.5,-62.5 451.5,-62.5"/>
<text text-anchor="middle" x="481" y="-69.5" font-family="Helvetica,sans-Serif" font-size="10.00">stdexcept</text>
</g>
<!-- Node8&#45;&gt;Node11 -->
<g id="edge12" class="edge"><title>Node8&#45;&gt;Node11</title>
<path fill="none" stroke="midnightblue" d="M510.129,-124.403C505.13,-115.582 497.211,-101.608 490.891,-90.4548"/>
<polygon fill="midnightblue" stroke="midnightblue" points="493.838,-88.5553 485.862,-81.5806 487.747,-92.0064 493.838,-88.5553"/>
</g>
<!-- Node12 -->
<g id="node13" class="node"><title>Node12</title>
<polygon fill="white" stroke="#bfbfbf" points="529,-62.5 529,-81.5 569,-81.5 569,-62.5 529,-62.5"/>
<text text-anchor="middle" x="549" y="-69.5" font-family="Helvetica,sans-Serif" font-size="10.00">limits</text>
</g>
<!-- Node8&#45;&gt;Node12 -->
<g id="edge13" class="edge"><title>Node8&#45;&gt;Node12</title>
<path fill="none" stroke="midnightblue" d="M519.871,-124.403C524.87,-115.582 532.789,-101.608 539.109,-90.4548"/>
<polygon fill="midnightblue" stroke="midnightblue" points="542.253,-92.0064 544.138,-81.5806 536.162,-88.5553 542.253,-92.0064"/>
</g>
<!-- Node13 -->
<g id="node14" class="node"><title>Node13</title>
<polygon fill="white" stroke="#bfbfbf" points="587.5,-62.5 587.5,-81.5 636.5,-81.5 636.5,-62.5 587.5,-62.5"/>
<text text-anchor="middle" x="612" y="-69.5" font-family="Helvetica,sans-Serif" font-size="10.00">istream</text>
</g>
<!-- Node8&#45;&gt;Node13 -->
<g id="edge14" class="edge"><title>Node8&#45;&gt;Node13</title>
<path fill="none" stroke="midnightblue" d="M528.898,-124.403C544.744,-114.601 570.874,-98.4385 589.605,-86.8526"/>
<polygon fill="midnightblue" stroke="midnightblue" points="591.465,-89.8178 598.128,-81.5806 587.782,-83.8646 591.465,-89.8178"/>
</g>
<!-- Node14 -->
<g id="node15" class="node"><title>Node14</title>
<polygon fill="white" stroke="#bfbfbf" points="655,-62.5 655,-81.5 707,-81.5 707,-62.5 655,-62.5"/>
<text text-anchor="middle" x="681" y="-69.5" font-family="Helvetica,sans-Serif" font-size="10.00">sstream</text>
</g>
<!-- Node8&#45;&gt;Node14 -->
<g id="edge15" class="edge"><title>Node8&#45;&gt;Node14</title>
<path fill="none" stroke="midnightblue" d="M541.564,-124.337C567.96,-115.605 609.514,-101.52 645,-88 647.108,-87.197 649.277,-86.3489 651.455,-85.4812"/>
<polygon fill="midnightblue" stroke="midnightblue" points="652.966,-88.6449 660.905,-81.6293 650.324,-82.1627 652.966,-88.6449"/>
</g>
<!-- Node15 -->
<g id="node16" class="node"><title>Node15</title>
<polygon fill="white" stroke="#bfbfbf" points="725,-62.5 725,-81.5 769,-81.5 769,-62.5 725,-62.5"/>
<text text-anchor="middle" x="747" y="-69.5" font-family="Helvetica,sans-Serif" font-size="10.00">cmath</text>
</g>
<!-- Node8&#45;&gt;Node15 -->
<g id="edge16" class="edge"><title>Node8&#45;&gt;Node15</title>
<path fill="none" stroke="midnightblue" d="M555.036,-126.838C596.152,-119.865 661.636,-106.953 716,-88 717.905,-87.3357 719.847,-86.5859 721.783,-85.7846"/>
<polygon fill="midnightblue" stroke="midnightblue" points="723.549,-88.8264 731.21,-81.5072 720.657,-82.4519 723.549,-88.8264"/>
</g>
<!-- Node16&#45;&gt;Node17 -->
<g id="edge18" class="edge"><title>Node16&#45;&gt;Node17</title>
<path fill="none" stroke="midnightblue" d="M788.155,-124.403C792.376,-115.671 799.037,-101.889 804.4,-90.7936"/>
<polygon fill="midnightblue" stroke="midnightblue" points="807.652,-92.1072 808.853,-81.5806 801.35,-89.061 807.652,-92.1072"/>
</g>
<!-- Node16&#45;&gt;Node18 -->
<g id="edge19" class="edge"><title>Node16&#45;&gt;Node18</title>
<path fill="none" stroke="midnightblue" d="M796.608,-124.403C810.723,-114.78 833.831,-99.0242 850.749,-87.4891"/>
<polygon fill="midnightblue" stroke="midnightblue" points="853.125,-90.1058 859.415,-81.5806 849.181,-84.3222 853.125,-90.1058"/>
</g>
<!-- Node21 -->
<g id="node22" class="node"><title>Node21</title>
<polygon fill="white" stroke="#bfbfbf" points="558.5,-180.5 558.5,-199.5 647.5,-199.5 647.5,-180.5 558.5,-180.5"/>
<text text-anchor="middle" x="603" y="-187.5" font-family="Helvetica,sans-Serif" font-size="10.00">easylogging++.h</text>
</g>
<!-- Node20&#45;&gt;Node21 -->
<g id="edge26" class="edge"><title>Node20&#45;&gt;Node21</title>
<path fill="none" stroke="midnightblue" d="M603,-236.083C603,-229.006 603,-218.861 603,-209.986"/>
<polygon fill="midnightblue" stroke="midnightblue" points="606.5,-209.751 603,-199.751 599.5,-209.751 606.5,-209.751"/>
</g>
<!-- Node22&#45;&gt;Node23 -->
<g id="edge28" class="edge"><title>Node22&#45;&gt;Node23</title>
<path fill="none" stroke="midnightblue" d="M706.614,-236.083C711.367,-228.534 718.318,-217.495 724.152,-208.23"/>
<polygon fill="midnightblue" stroke="midnightblue" points="727.124,-210.078 729.49,-199.751 721.2,-206.349 727.124,-210.078"/>
</g>
</g>
</svg>
