<?xml version="1.0" encoding="UTF-8" standalone="no"?>
<!DOCTYPE svg PUBLIC "-//W3C//DTD SVG 1.1//EN"
 "http://www.w3.org/Graphics/SVG/1.1/DTD/svg11.dtd">
<!-- Generated by graphviz version 2.36.0 (20140111.2315)
 -->
<!-- Title: src/base/FloodFillAverages.h Pages: 1 -->
<svg width="287pt" height="140pt"
 viewBox="0.00 0.00 287.00 140.00" xmlns="http://www.w3.org/2000/svg" xmlns:xlink="http://www.w3.org/1999/xlink">
<g id="graph0" class="graph" transform="scale(1 1) rotate(0) translate(4 136)">
<title>src/base/FloodFillAverages.h</title>
<polygon fill="white" stroke="none" points="-4,4 -4,-136 283,-136 283,4 -4,4"/>
<!-- Node0 -->
<g id="node1" class="node"><title>Node0</title>
<polygon fill="#bfbfbf" stroke="black" points="42.5,-112.5 42.5,-131.5 185.5,-131.5 185.5,-112.5 42.5,-112.5"/>
<text text-anchor="middle" x="114" y="-119.5" font-family="Helvetica,sans-Serif" font-size="10.00">src/base/FloodFillAverages.h</text>
</g>
<!-- Node1 -->
<g id="node2" class="node"><title>Node1</title>
<polygon fill="white" stroke="#bfbfbf" points="0,-0.5 0,-19.5 44,-19.5 44,-0.5 0,-0.5"/>
<text text-anchor="middle" x="22" y="-7.5" font-family="Helvetica,sans-Serif" font-size="10.00">vector</text>
</g>
<!-- Node0&#45;&gt;Node1 -->
<g id="edge1" class="edge"><title>Node0&#45;&gt;Node1</title>
<path fill="none" stroke="midnightblue" d="M106.781,-112.368C91.4639,-94.0547 55.4955,-51.0489 35.6849,-27.3624"/>
<polygon fill="midnightblue" stroke="midnightblue" points="38.2859,-25.0168 29.1856,-19.5914 32.9164,-29.5077 38.2859,-25.0168"/>
</g>
<!-- Node2 -->
<g id="node3" class="node"><title>Node2</title>
<polygon fill="white" stroke="#bfbfbf" points="239,-56.5 239,-75.5 279,-75.5 279,-56.5 239,-56.5"/>
<text text-anchor="middle" x="259" y="-63.5" font-family="Helvetica,sans-Serif" font-size="10.00">limits</text>
</g>
<!-- Node0&#45;&gt;Node2 -->
<g id="edge2" class="edge"><title>Node0&#45;&gt;Node2</title>
<path fill="none" stroke="midnightblue" d="M136.976,-112.444C162.01,-103.12 202.136,-88.1768 229.487,-77.9911"/>
<polygon fill="midnightblue" stroke="midnightblue" points="230.784,-81.243 238.934,-74.473 228.341,-74.6831 230.784,-81.243"/>
</g>
<!-- Node3 -->
<g id="node4" class="node"><title>Node3</title>
<polygon fill="white" stroke="#bfbfbf" points="62,-0.5 62,-19.5 118,-19.5 118,-0.5 62,-0.5"/>
<text text-anchor="middle" x="90" y="-7.5" font-family="Helvetica,sans-Serif" font-size="10.00">algorithm</text>
</g>
<!-- Node0&#45;&gt;Node3 -->
<g id="edge3" class="edge"><title>Node0&#45;&gt;Node3</title>
<path fill="none" stroke="midnightblue" d="M107.11,-112.319C100.731,-103.684 91.6919,-89.7696 88,-76 83.9295,-60.8183 84.8777,-42.9256 86.5899,-29.7604"/>
<polygon fill="midnightblue" stroke="midnightblue" points="90.0925,-30.0165 88.1843,-19.5949 83.177,-28.9318 90.0925,-30.0165"/>
</g>
<!-- Node4 -->
<g id="node5" class="node"><title>Node4</title>
<g id="a_node5"><a xlink:href="container_8h.html" target="_top" xlink:title="base/std_ext/container.h">
<polygon fill="white" stroke="black" points="97,-56.5 97,-75.5 221,-75.5 221,-56.5 97,-56.5"/>
<text text-anchor="middle" x="159" y="-63.5" font-family="Helvetica,sans-Serif" font-size="10.00">base/std_ext/container.h</text>
</a>
</g>
</g>
<!-- Node0&#45;&gt;Node4 -->
<g id="edge4" class="edge"><title>Node0&#45;&gt;Node4</title>
<path fill="none" stroke="midnightblue" d="M121.431,-112.083C127.853,-104.377 137.306,-93.0333 145.122,-83.6531"/>
<polygon fill="midnightblue" stroke="midnightblue" points="147.994,-85.674 151.707,-75.7511 142.617,-81.1927 147.994,-85.674"/>
</g>
<!-- Node4&#45;&gt;Node1 -->
<g id="edge5" class="edge"><title>Node4&#45;&gt;Node1</title>
<path fill="none" stroke="midnightblue" d="M137.292,-56.4435C114.645,-47.5171 78.9279,-33.4387 53.2482,-23.3168"/>
<polygon fill="midnightblue" stroke="midnightblue" points="54.1934,-19.9273 43.6065,-19.5164 51.6264,-26.4397 54.1934,-19.9273"/>
</g>
<!-- Node4&#45;&gt;Node3 -->
<g id="edge6" class="edge"><title>Node4&#45;&gt;Node3</title>
<path fill="none" stroke="midnightblue" d="M147.914,-56.324C137.514,-48.1849 121.739,-35.8395 109.278,-26.0874"/>
<polygon fill="midnightblue" stroke="midnightblue" points="111.32,-23.2407 101.288,-19.8339 107.006,-28.7533 111.32,-23.2407"/>
</g>
<!-- Node5 -->
<g id="node6" class="node"><title>Node5</title>
<polygon fill="white" stroke="#bfbfbf" points="136.5,-0.5 136.5,-19.5 187.5,-19.5 187.5,-0.5 136.5,-0.5"/>
<text text-anchor="middle" x="162" y="-7.5" font-family="Helvetica,sans-Serif" font-size="10.00">numeric</text>
</g>
<!-- Node4&#45;&gt;Node5 -->
<g id="edge7" class="edge"><title>Node4&#45;&gt;Node5</title>
<path fill="none" stroke="midnightblue" d="M159.495,-56.083C159.889,-49.0059 160.452,-38.8611 160.945,-29.9865"/>
<polygon fill="midnightblue" stroke="midnightblue" points="164.454,-29.9299 161.514,-19.7511 157.464,-29.5415 164.454,-29.9299"/>
</g>
<!-- Node6 -->
<g id="node7" class="node"><title>Node6</title>
<polygon fill="white" stroke="#bfbfbf" points="205.5,-0.5 205.5,-19.5 246.5,-19.5 246.5,-0.5 205.5,-0.5"/>
<text text-anchor="middle" x="226" y="-7.5" font-family="Helvetica,sans-Serif" font-size="10.00">string</text>
</g>
<!-- Node4&#45;&gt;Node6 -->
<g id="edge8" class="edge"><title>Node4&#45;&gt;Node6</title>
<path fill="none" stroke="midnightblue" d="M169.765,-56.324C179.766,-48.2631 194.887,-36.0765 206.93,-26.3695"/>
<polygon fill="midnightblue" stroke="midnightblue" points="209.45,-28.8343 215.039,-19.8339 205.057,-23.3841 209.45,-28.8343"/>
</g>
</g>
</svg>
