<?xml version="1.0" encoding="UTF-8" standalone="no"?>
<!DOCTYPE svg PUBLIC "-//W3C//DTD SVG 1.1//EN"
 "http://www.w3.org/Graphics/SVG/1.1/DTD/svg11.dtd">
<!-- Generated by graphviz version 2.36.0 (20140111.2315)
 -->
<!-- Title: src/calibration/converters/GeSiCa_SADC.h Pages: 1 -->
<svg width="1950pt" height="186pt"
 viewBox="0.00 0.00 1950.00 186.00" xmlns="http://www.w3.org/2000/svg" xmlns:xlink="http://www.w3.org/1999/xlink">
<g id="graph0" class="graph" transform="scale(1 1) rotate(0) translate(4 182)">
<title>src/calibration/converters/GeSiCa_SADC.h</title>
<polygon fill="white" stroke="none" points="-4,4 -4,-182 1946,-182 1946,4 -4,4"/>
<!-- Node49 -->
<g id="node1" class="node"><title>Node49</title>
<polygon fill="#bfbfbf" stroke="black" points="927,-147 927,-177 1053,-177 1053,-147 927,-147"/>
<text text-anchor="start" x="935" y="-165" font-family="Helvetica,sans-Serif" font-size="10.00">src/calibration/converters</text>
<text text-anchor="middle" x="990" y="-154" font-family="Helvetica,sans-Serif" font-size="10.00">/GeSiCa_SADC.h</text>
</g>
<!-- Node50 -->
<g id="node2" class="node"><title>Node50</title>
<g id="a_node2"><a xlink:href="analysis_2physics_2calibration_2_c_b___source_calib_8h.html" target="_top" xlink:title="src/analysis/physics\l/calibration/CB_SourceCalib.h">
<polygon fill="white" stroke="black" points="3,-74 3,-104 151,-104 151,-74 3,-74"/>
<text text-anchor="start" x="11" y="-92" font-family="Helvetica,sans-Serif" font-size="10.00">src/analysis/physics</text>
<text text-anchor="middle" x="77" y="-81" font-family="Helvetica,sans-Serif" font-size="10.00">/calibration/CB_SourceCalib.h</text>
</a>
</g>
</g>
<!-- Node49&#45;&gt;Node50 -->
<g id="edge1" class="edge"><title>Node49&#45;&gt;Node50</title>
<path fill="none" stroke="midnightblue" d="M916.671,-160.644C771.709,-159.026 438.549,-150.751 162,-110 151.801,-108.497 141.023,-106.382 130.694,-104.085"/>
<polygon fill="midnightblue" stroke="midnightblue" points="916.744,-164.145 926.78,-160.75 916.817,-157.146 916.744,-164.145"/>
</g>
<!-- Node52 -->
<g id="node4" class="node"><title>Node52</title>
<g id="a_node4"><a xlink:href="checkcb_8h.html" target="_top" xlink:title="src/analysis/physics\l/scratch/lheijken/checkcb.h">
<polygon fill="white" stroke="black" points="171,-74 171,-104 307,-104 307,-74 171,-74"/>
<text text-anchor="start" x="179" y="-92" font-family="Helvetica,sans-Serif" font-size="10.00">src/analysis/physics</text>
<text text-anchor="middle" x="239" y="-81" font-family="Helvetica,sans-Serif" font-size="10.00">/scratch/lheijken/checkcb.h</text>
</a>
</g>
</g>
<!-- Node49&#45;&gt;Node52 -->
<g id="edge3" class="edge"><title>Node49&#45;&gt;Node52</title>
<path fill="none" stroke="midnightblue" d="M916.787,-159.647C792.63,-156.417 533.194,-145.626 317,-110 307.62,-108.454 297.72,-106.319 288.238,-104.016"/>
<polygon fill="midnightblue" stroke="midnightblue" points="916.848,-163.149 926.933,-159.901 917.024,-156.151 916.848,-163.149"/>
</g>
<!-- Node54 -->
<g id="node6" class="node"><title>Node54</title>
<g id="a_node6"><a xlink:href="_setup__2007___base_8cc.html" target="_top" xlink:title="src/expconfig/setups\l/Setup_2007_Base.cc">
<polygon fill="white" stroke="black" points="325.5,-74 325.5,-104 438.5,-104 438.5,-74 325.5,-74"/>
<text text-anchor="start" x="333.5" y="-92" font-family="Helvetica,sans-Serif" font-size="10.00">src/expconfig/setups</text>
<text text-anchor="middle" x="382" y="-81" font-family="Helvetica,sans-Serif" font-size="10.00">/Setup_2007_Base.cc</text>
</a>
</g>
</g>
<!-- Node49&#45;&gt;Node54 -->
<g id="edge5" class="edge"><title>Node49&#45;&gt;Node54</title>
<path fill="none" stroke="midnightblue" d="M916.666,-158.755C811.859,-154.497 613.59,-142.538 448,-110 440.129,-108.453 431.857,-106.346 423.933,-104.078"/>
<polygon fill="midnightblue" stroke="midnightblue" points="916.69,-162.259 926.82,-159.155 916.966,-155.264 916.69,-162.259"/>
</g>
<!-- Node55 -->
<g id="node7" class="node"><title>Node55</title>
<g id="a_node7"><a xlink:href="_setup__2010__03___base_8cc.html" target="_top" xlink:title="src/expconfig/setups\l/Setup_2010_03_Base.cc">
<polygon fill="white" stroke="black" points="457,-74 457,-104 585,-104 585,-74 457,-74"/>
<text text-anchor="start" x="465" y="-92" font-family="Helvetica,sans-Serif" font-size="10.00">src/expconfig/setups</text>
<text text-anchor="middle" x="521" y="-81" font-family="Helvetica,sans-Serif" font-size="10.00">/Setup_2010_03_Base.cc</text>
</a>
</g>
</g>
<!-- Node49&#45;&gt;Node55 -->
<g id="edge6" class="edge"><title>Node49&#45;&gt;Node55</title>
<path fill="none" stroke="midnightblue" d="M916.846,-154.659C836.996,-147.023 705.619,-132.365 594,-110 585.754,-108.348 577.068,-106.272 568.678,-104.087"/>
<polygon fill="midnightblue" stroke="midnightblue" points="916.519,-158.144 926.804,-155.6 917.177,-151.175 916.519,-158.144"/>
</g>
<!-- Node56 -->
<g id="node8" class="node"><title>Node56</title>
<g id="a_node8"><a xlink:href="_setup__2014___e_p_t_8cc.html" target="_top" xlink:title="src/expconfig/setups\l/Setup_2014_EPT.cc">
<polygon fill="white" stroke="black" points="603,-74 603,-104 713,-104 713,-74 603,-74"/>
<text text-anchor="start" x="611" y="-92" font-family="Helvetica,sans-Serif" font-size="10.00">src/expconfig/setups</text>
<text text-anchor="middle" x="658" y="-81" font-family="Helvetica,sans-Serif" font-size="10.00">/Setup_2014_EPT.cc</text>
</a>
</g>
</g>
<!-- Node49&#45;&gt;Node56 -->
<g id="edge7" class="edge"><title>Node49&#45;&gt;Node56</title>
<path fill="none" stroke="midnightblue" d="M916.842,-149.256C862.92,-140.06 787.969,-126.148 723,-110 715.896,-108.234 708.42,-106.151 701.17,-104.007"/>
<polygon fill="midnightblue" stroke="midnightblue" points="916.553,-152.757 926.997,-150.974 917.721,-145.855 916.553,-152.757"/>
</g>
<!-- Node57 -->
<g id="node9" class="node"><title>Node57</title>
<g id="a_node9"><a xlink:href="_setup__2015__01___pion_8cc.html" target="_top" xlink:title="src/expconfig/setups\l/Setup_2015_01_Pion.cc">
<polygon fill="white" stroke="black" points="731.5,-74 731.5,-104 856.5,-104 856.5,-74 731.5,-74"/>
<text text-anchor="start" x="739.5" y="-92" font-family="Helvetica,sans-Serif" font-size="10.00">src/expconfig/setups</text>
<text text-anchor="middle" x="794" y="-81" font-family="Helvetica,sans-Serif" font-size="10.00">/Setup_2015_01_Pion.cc</text>
</a>
</g>
</g>
<!-- Node49&#45;&gt;Node57 -->
<g id="edge8" class="edge"><title>Node49&#45;&gt;Node57</title>
<path fill="none" stroke="midnightblue" d="M941.693,-143.501C908.217,-131.374 864.22,-115.437 832.978,-104.12"/>
<polygon fill="midnightblue" stroke="midnightblue" points="940.682,-146.857 951.277,-146.973 943.067,-140.276 940.682,-146.857"/>
</g>
<!-- Node58 -->
<g id="node10" class="node"><title>Node58</title>
<g id="a_node10"><a xlink:href="_setup__2017__03_8cc.html" target="_top" xlink:title="src/expconfig/setups\l/Setup_2017_03.cc">
<polygon fill="white" stroke="black" points="874.5,-74 874.5,-104 981.5,-104 981.5,-74 874.5,-74"/>
<text text-anchor="start" x="882.5" y="-92" font-family="Helvetica,sans-Serif" font-size="10.00">src/expconfig/setups</text>
<text text-anchor="middle" x="928" y="-81" font-family="Helvetica,sans-Serif" font-size="10.00">/Setup_2017_03.cc</text>
</a>
</g>
</g>
<!-- Node49&#45;&gt;Node58 -->
<g id="edge9" class="edge"><title>Node49&#45;&gt;Node58</title>
<path fill="none" stroke="midnightblue" d="M970.986,-139.226C961.136,-127.946 949.377,-114.48 940.649,-104.486"/>
<polygon fill="midnightblue" stroke="midnightblue" points="968.537,-141.742 977.751,-146.973 973.81,-137.138 968.537,-141.742"/>
</g>
<!-- Node59 -->
<g id="node11" class="node"><title>Node59</title>
<g id="a_node11"><a xlink:href="_setup__2017__05_8cc.html" target="_top" xlink:title="src/expconfig/setups\l/Setup_2017_05.cc">
<polygon fill="white" stroke="black" points="999.5,-74 999.5,-104 1106.5,-104 1106.5,-74 999.5,-74"/>
<text text-anchor="start" x="1007.5" y="-92" font-family="Helvetica,sans-Serif" font-size="10.00">src/expconfig/setups</text>
<text text-anchor="middle" x="1053" y="-81" font-family="Helvetica,sans-Serif" font-size="10.00">/Setup_2017_05.cc</text>
</a>
</g>
</g>
<!-- Node49&#45;&gt;Node59 -->
<g id="edge10" class="edge"><title>Node49&#45;&gt;Node59</title>
<path fill="none" stroke="midnightblue" d="M1009.32,-139.226C1019.33,-127.946 1031.28,-114.48 1040.15,-104.486"/>
<polygon fill="midnightblue" stroke="midnightblue" points="1006.47,-137.17 1002.45,-146.973 1011.7,-141.816 1006.47,-137.17"/>
</g>
<!-- Node60 -->
<g id="node12" class="node"><title>Node60</title>
<g id="a_node12"><a xlink:href="_setup__2017_plus___new_tagger___base_8cc.html" target="_top" xlink:title="src/expconfig/setups\l/Setup_2017Plus_NewTagger\l_Base.cc">
<polygon fill="white" stroke="black" points="1125,-68.5 1125,-109.5 1271,-109.5 1271,-68.5 1125,-68.5"/>
<text text-anchor="start" x="1133" y="-97.5" font-family="Helvetica,sans-Serif" font-size="10.00">src/expconfig/setups</text>
<text text-anchor="start" x="1133" y="-86.5" font-family="Helvetica,sans-Serif" font-size="10.00">/Setup_2017Plus_NewTagger</text>
<text text-anchor="middle" x="1198" y="-75.5" font-family="Helvetica,sans-Serif" font-size="10.00">_Base.cc</text>
</a>
</g>
</g>
<!-- Node49&#45;&gt;Node60 -->
<g id="edge11" class="edge"><title>Node49&#45;&gt;Node60</title>
<path fill="none" stroke="midnightblue" d="M1040.62,-143.722C1070.9,-133.385 1109.47,-120.218 1140.85,-109.507"/>
<polygon fill="midnightblue" stroke="midnightblue" points="1039.43,-140.43 1031.09,-146.973 1041.69,-147.055 1039.43,-140.43"/>
</g>
<!-- Node61 -->
<g id="node13" class="node"><title>Node61</title>
<g id="a_node13"><a xlink:href="_setup__2018__11_8cc.html" target="_top" xlink:title="src/expconfig/setups\l/Setup_2018_11.cc">
<polygon fill="white" stroke="black" points="1289.5,-74 1289.5,-104 1396.5,-104 1396.5,-74 1289.5,-74"/>
<text text-anchor="start" x="1297.5" y="-92" font-family="Helvetica,sans-Serif" font-size="10.00">src/expconfig/setups</text>
<text text-anchor="middle" x="1343" y="-81" font-family="Helvetica,sans-Serif" font-size="10.00">/Setup_2018_11.cc</text>
</a>
</g>
</g>
<!-- Node49&#45;&gt;Node61 -->
<g id="edge12" class="edge"><title>Node49&#45;&gt;Node61</title>
<path fill="none" stroke="midnightblue" d="M1062.98,-150.922C1121.96,-142.118 1206.91,-127.945 1280,-110 1287.02,-108.276 1294.4,-106.19 1301.54,-104.023"/>
<polygon fill="midnightblue" stroke="midnightblue" points="1062.39,-147.471 1053.01,-152.396 1063.42,-154.396 1062.39,-147.471"/>
</g>
<!-- Node62 -->
<g id="node14" class="node"><title>Node62</title>
<g id="a_node14"><a xlink:href="_setup__2019__01_8cc.html" target="_top" xlink:title="src/expconfig/setups\l/Setup_2019_01.cc">
<polygon fill="white" stroke="black" points="1414.5,-74 1414.5,-104 1521.5,-104 1521.5,-74 1414.5,-74"/>
<text text-anchor="start" x="1422.5" y="-92" font-family="Helvetica,sans-Serif" font-size="10.00">src/expconfig/setups</text>
<text text-anchor="middle" x="1468" y="-81" font-family="Helvetica,sans-Serif" font-size="10.00">/Setup_2019_01.cc</text>
</a>
</g>
</g>
<!-- Node49&#45;&gt;Node62 -->
<g id="edge13" class="edge"><title>Node49&#45;&gt;Node62</title>
<path fill="none" stroke="midnightblue" d="M1063.33,-156.112C1146.8,-149.599 1286.88,-135.775 1405,-110 1412.4,-108.385 1420.17,-106.274 1427.63,-104.029"/>
<polygon fill="midnightblue" stroke="midnightblue" points="1062.89,-152.636 1053.18,-156.89 1063.42,-159.615 1062.89,-152.636"/>
</g>
<!-- Node63 -->
<g id="node15" class="node"><title>Node63</title>
<g id="a_node15"><a xlink:href="_setup__2019__06_8cc.html" target="_top" xlink:title="src/expconfig/setups\l/Setup_2019_06.cc">
<polygon fill="white" stroke="black" points="1539.5,-74 1539.5,-104 1646.5,-104 1646.5,-74 1539.5,-74"/>
<text text-anchor="start" x="1547.5" y="-92" font-family="Helvetica,sans-Serif" font-size="10.00">src/expconfig/setups</text>
<text text-anchor="middle" x="1593" y="-81" font-family="Helvetica,sans-Serif" font-size="10.00">/Setup_2019_06.cc</text>
</a>
</g>
</g>
<!-- Node49&#45;&gt;Node63 -->
<g id="edge14" class="edge"><title>Node49&#45;&gt;Node63</title>
<path fill="none" stroke="midnightblue" d="M1063.55,-159.012C1168.15,-155.068 1365.46,-143.487 1530,-110 1537.53,-108.467 1545.44,-106.366 1553.01,-104.1"/>
<polygon fill="midnightblue" stroke="midnightblue" points="1063.28,-155.52 1053.41,-159.381 1063.53,-162.515 1063.28,-155.52"/>
</g>
<!-- Node64 -->
<g id="node16" class="node"><title>Node64</title>
<g id="a_node16"><a xlink:href="_setup___c_b_source_calib_8cc.html" target="_top" xlink:title="src/expconfig/setups\l/Setup_CBSourceCalib.cc">
<polygon fill="white" stroke="black" points="1664.5,-74 1664.5,-104 1795.5,-104 1795.5,-74 1664.5,-74"/>
<text text-anchor="start" x="1672.5" y="-92" font-family="Helvetica,sans-Serif" font-size="10.00">src/expconfig/setups</text>
<text text-anchor="middle" x="1730" y="-81" font-family="Helvetica,sans-Serif" font-size="10.00">/Setup_CBSourceCalib.cc</text>
</a>
</g>
</g>
<!-- Node49&#45;&gt;Node64 -->
<g id="edge15" class="edge"><title>Node49&#45;&gt;Node64</title>
<path fill="none" stroke="midnightblue" d="M1063.34,-159.776C1186.45,-156.74 1442.1,-146.232 1655,-110 1664.03,-108.463 1673.56,-106.331 1682.68,-104.029"/>
<polygon fill="midnightblue" stroke="midnightblue" points="1063.19,-156.278 1053.28,-160.014 1063.36,-163.276 1063.19,-156.278"/>
</g>
<!-- Node65 -->
<g id="node17" class="node"><title>Node65</title>
<g id="a_node17"><a xlink:href="expconfig__helpers_8cc.html" target="_top" xlink:title="test/expconfig_helpers.cc">
<polygon fill="white" stroke="black" points="1814,-79.5 1814,-98.5 1942,-98.5 1942,-79.5 1814,-79.5"/>
<text text-anchor="middle" x="1878" y="-86.5" font-family="Helvetica,sans-Serif" font-size="10.00">test/expconfig_helpers.cc</text>
</a>
</g>
</g>
<!-- Node49&#45;&gt;Node65 -->
<g id="edge16" class="edge"><title>Node49&#45;&gt;Node65</title>
<path fill="none" stroke="midnightblue" d="M1063.45,-161.329C1206.83,-160.885 1533.61,-154.542 1804,-110 1820.02,-107.361 1837.58,-102.695 1851.57,-98.5334"/>
<polygon fill="midnightblue" stroke="midnightblue" points="1063.03,-157.829 1053.04,-161.351 1063.04,-164.829 1063.03,-157.829"/>
</g>
<!-- Node51 -->
<g id="node3" class="node"><title>Node51</title>
<g id="a_node3"><a xlink:href="analysis_2physics_2calibration_2_c_b___source_calib_8cc.html" target="_top" xlink:title="src/analysis/physics\l/calibration/CB_SourceCalib.cc">
<polygon fill="white" stroke="black" points="-0.5,-1 -0.5,-31 152.5,-31 152.5,-1 -0.5,-1"/>
<text text-anchor="start" x="7.5" y="-19" font-family="Helvetica,sans-Serif" font-size="10.00">src/analysis/physics</text>
<text text-anchor="middle" x="76" y="-8" font-family="Helvetica,sans-Serif" font-size="10.00">/calibration/CB_SourceCalib.cc</text>
</a>
</g>
</g>
<!-- Node50&#45;&gt;Node51 -->
<g id="edge2" class="edge"><title>Node50&#45;&gt;Node51</title>
<path fill="none" stroke="midnightblue" d="M76.6605,-63.8976C76.5089,-53.1314 76.3352,-40.8005 76.204,-31.4856"/>
<polygon fill="midnightblue" stroke="midnightblue" points="73.1619,-64.023 76.8024,-73.9727 80.1612,-63.9244 73.1619,-64.023"/>
</g>
<!-- Node53 -->
<g id="node5" class="node"><title>Node53</title>
<g id="a_node5"><a xlink:href="checkcb_8cc.html" target="_top" xlink:title="src/analysis/physics\l/scratch/lheijken/checkcb.cc">
<polygon fill="white" stroke="black" points="170.5,-1 170.5,-31 311.5,-31 311.5,-1 170.5,-1"/>
<text text-anchor="start" x="178.5" y="-19" font-family="Helvetica,sans-Serif" font-size="10.00">src/analysis/physics</text>
<text text-anchor="middle" x="241" y="-8" font-family="Helvetica,sans-Serif" font-size="10.00">/scratch/lheijken/checkcb.cc</text>
</a>
</g>
</g>
<!-- Node52&#45;&gt;Node53 -->
<g id="edge4" class="edge"><title>Node52&#45;&gt;Node53</title>
<path fill="none" stroke="midnightblue" d="M239.679,-63.8976C239.982,-53.1314 240.33,-40.8005 240.592,-31.4856"/>
<polygon fill="midnightblue" stroke="midnightblue" points="236.178,-63.8781 239.395,-73.9727 243.175,-64.0752 236.178,-63.8781"/>
</g>
</g>
</svg>
