<?xml version="1.0" encoding="UTF-8" standalone="no"?>
<!DOCTYPE svg PUBLIC "-//W3C//DTD SVG 1.1//EN"
 "http://www.w3.org/Graphics/SVG/1.1/DTD/svg11.dtd">
<!-- Generated by graphviz version 2.36.0 (20140111.2315)
 -->
<!-- Title: src/base/GitInfo.cc Pages: 1 -->
<svg width="465pt" height="140pt"
 viewBox="0.00 0.00 465.00 140.00" xmlns="http://www.w3.org/2000/svg" xmlns:xlink="http://www.w3.org/1999/xlink">
<g id="graph0" class="graph" transform="scale(1 1) rotate(0) translate(4 136)">
<title>src/base/GitInfo.cc</title>
<polygon fill="white" stroke="none" points="-4,4 -4,-136 461,-136 461,4 -4,4"/>
<!-- Node0 -->
<g id="node1" class="node"><title>Node0</title>
<polygon fill="#bfbfbf" stroke="black" points="177,-112.5 177,-131.5 277,-131.5 277,-112.5 177,-112.5"/>
<text text-anchor="middle" x="227" y="-119.5" font-family="Helvetica,sans-Serif" font-size="10.00">src/base/GitInfo.cc</text>
</g>
<!-- Node1 -->
<g id="node2" class="node"><title>Node1</title>
<g id="a_node2"><a xlink:href="_git_info_8h.html" target="_top" xlink:title="GitInfo.h">
<polygon fill="white" stroke="black" points="110,-56.5 110,-75.5 164,-75.5 164,-56.5 110,-56.5"/>
<text text-anchor="middle" x="137" y="-63.5" font-family="Helvetica,sans-Serif" font-size="10.00">GitInfo.h</text>
</a>
</g>
</g>
<!-- Node0&#45;&gt;Node1 -->
<g id="edge1" class="edge"><title>Node0&#45;&gt;Node1</title>
<path fill="none" stroke="midnightblue" d="M212.54,-112.324C198.5,-103.9 176.952,-90.9709 160.457,-81.0741"/>
<polygon fill="midnightblue" stroke="midnightblue" points="161.8,-77.7983 151.424,-75.6545 158.198,-83.8007 161.8,-77.7983"/>
</g>
<!-- Node3 -->
<g id="node4" class="node"><title>Node3</title>
<g id="a_node4"><a xlink:href="system_8h.html" target="_top" xlink:title="std_ext/system.h">
<polygon fill="white" stroke="black" points="0,-56.5 0,-75.5 92,-75.5 92,-56.5 0,-56.5"/>
<text text-anchor="middle" x="46" y="-63.5" font-family="Helvetica,sans-Serif" font-size="10.00">std_ext/system.h</text>
</a>
</g>
</g>
<!-- Node0&#45;&gt;Node3 -->
<g id="edge3" class="edge"><title>Node0&#45;&gt;Node3</title>
<path fill="none" stroke="midnightblue" d="M198.32,-112.444C167.473,-103.241 118.272,-88.5617 84.1707,-78.3879"/>
<polygon fill="midnightblue" stroke="midnightblue" points="85.1291,-75.0215 74.5458,-75.5164 83.1278,-81.7293 85.1291,-75.0215"/>
</g>
<!-- Node5 -->
<g id="node6" class="node"><title>Node5</title>
<g id="a_node6"><a xlink:href="string_8h.html" target="_top" xlink:title="std_ext/string.h">
<polygon fill="white" stroke="black" points="220,-56.5 220,-75.5 304,-75.5 304,-56.5 220,-56.5"/>
<text text-anchor="middle" x="262" y="-63.5" font-family="Helvetica,sans-Serif" font-size="10.00">std_ext/string.h</text>
</a>
</g>
</g>
<!-- Node0&#45;&gt;Node5 -->
<g id="edge6" class="edge"><title>Node0&#45;&gt;Node5</title>
<path fill="none" stroke="midnightblue" d="M232.78,-112.083C237.672,-104.534 244.827,-93.4948 250.833,-84.2298"/>
<polygon fill="midnightblue" stroke="midnightblue" points="253.826,-86.0463 256.328,-75.7511 247.952,-82.239 253.826,-86.0463"/>
</g>
<!-- Node6 -->
<g id="node7" class="node"><title>Node6</title>
<polygon fill="white" stroke="#bfbfbf" points="170,-0.5 170,-19.5 222,-19.5 222,-0.5 170,-0.5"/>
<text text-anchor="middle" x="196" y="-7.5" font-family="Helvetica,sans-Serif" font-size="10.00">sstream</text>
</g>
<!-- Node0&#45;&gt;Node6 -->
<g id="edge13" class="edge"><title>Node0&#45;&gt;Node6</title>
<path fill="none" stroke="midnightblue" d="M223.636,-112.469C220.173,-103.489 214.766,-88.8936 211,-76 206.529,-60.6954 202.529,-43.0533 199.786,-30.0141"/>
<polygon fill="midnightblue" stroke="midnightblue" points="203.153,-29.0098 197.719,-19.9147 196.295,-30.4134 203.153,-29.0098"/>
</g>
<!-- Node9 -->
<g id="node10" class="node"><title>Node9</title>
<polygon fill="white" stroke="#bfbfbf" points="322,-56.5 322,-75.5 396,-75.5 396,-56.5 322,-56.5"/>
<text text-anchor="middle" x="359" y="-63.5" font-family="Helvetica,sans-Serif" font-size="10.00">base/Paths.h</text>
</g>
<!-- Node0&#45;&gt;Node9 -->
<g id="edge11" class="edge"><title>Node0&#45;&gt;Node9</title>
<path fill="none" stroke="midnightblue" d="M247.916,-112.444C269.736,-103.517 304.15,-89.4387 328.892,-79.3168"/>
<polygon fill="midnightblue" stroke="midnightblue" points="330.252,-82.5422 338.182,-75.5164 327.601,-76.0634 330.252,-82.5422"/>
</g>
<!-- Node10 -->
<g id="node11" class="node"><title>Node10</title>
<polygon fill="white" stroke="#bfbfbf" points="414.5,-56.5 414.5,-75.5 457.5,-75.5 457.5,-56.5 414.5,-56.5"/>
<text text-anchor="middle" x="436" y="-63.5" font-family="Helvetica,sans-Serif" font-size="10.00">cstdio</text>
</g>
<!-- Node0&#45;&gt;Node10 -->
<g id="edge12" class="edge"><title>Node0&#45;&gt;Node10</title>
<path fill="none" stroke="midnightblue" d="M262.219,-112.481C296.159,-104.186 349.191,-91.0041 404.385,-76.0945"/>
<polygon fill="midnightblue" stroke="midnightblue" points="405.613,-79.388 414.347,-73.3909 403.779,-72.6324 405.613,-79.388"/>
</g>
<!-- Node2 -->
<g id="node3" class="node"><title>Node2</title>
<polygon fill="white" stroke="#bfbfbf" points="110.5,-0.5 110.5,-19.5 151.5,-19.5 151.5,-0.5 110.5,-0.5"/>
<text text-anchor="middle" x="131" y="-7.5" font-family="Helvetica,sans-Serif" font-size="10.00">string</text>
</g>
<!-- Node1&#45;&gt;Node2 -->
<g id="edge2" class="edge"><title>Node1&#45;&gt;Node2</title>
<path fill="none" stroke="midnightblue" d="M136.009,-56.083C135.214,-48.9272 134.071,-38.6353 133.077,-29.6911"/>
<polygon fill="midnightblue" stroke="midnightblue" points="136.555,-29.3034 131.972,-19.7511 129.598,-30.0765 136.555,-29.3034"/>
</g>
<!-- Node3&#45;&gt;Node2 -->
<g id="edge5" class="edge"><title>Node3&#45;&gt;Node2</title>
<path fill="none" stroke="midnightblue" d="M59.6567,-56.324C72.9163,-47.9002 93.268,-34.9709 108.846,-25.0741"/>
<polygon fill="midnightblue" stroke="midnightblue" points="110.813,-27.9711 117.377,-19.6545 107.06,-22.0626 110.813,-27.9711"/>
</g>
<!-- Node4 -->
<g id="node5" class="node"><title>Node4</title>
<polygon fill="white" stroke="#bfbfbf" points="31.5,-0.5 31.5,-19.5 60.5,-19.5 60.5,-0.5 31.5,-0.5"/>
<text text-anchor="middle" x="46" y="-7.5" font-family="Helvetica,sans-Serif" font-size="10.00">list</text>
</g>
<!-- Node3&#45;&gt;Node4 -->
<g id="edge4" class="edge"><title>Node3&#45;&gt;Node4</title>
<path fill="none" stroke="midnightblue" d="M46,-56.083C46,-49.0059 46,-38.8611 46,-29.9865"/>
<polygon fill="midnightblue" stroke="midnightblue" points="49.5001,-29.751 46,-19.7511 42.5001,-29.7511 49.5001,-29.751"/>
</g>
<!-- Node5&#45;&gt;Node2 -->
<g id="edge7" class="edge"><title>Node5&#45;&gt;Node2</title>
<path fill="none" stroke="midnightblue" d="M241.243,-56.4435C219.684,-47.5566 185.737,-33.5632 161.206,-23.4514"/>
<polygon fill="midnightblue" stroke="midnightblue" points="162.239,-20.0917 151.66,-19.5164 159.572,-26.5634 162.239,-20.0917"/>
</g>
<!-- Node5&#45;&gt;Node6 -->
<g id="edge8" class="edge"><title>Node5&#45;&gt;Node6</title>
<path fill="none" stroke="midnightblue" d="M251.396,-56.324C241.544,-48.2631 226.649,-36.0765 214.785,-26.3695"/>
<polygon fill="midnightblue" stroke="midnightblue" points="216.753,-23.4575 206.797,-19.8339 212.32,-28.8752 216.753,-23.4575"/>
</g>
<!-- Node7 -->
<g id="node8" class="node"><title>Node7</title>
<polygon fill="white" stroke="#bfbfbf" points="302,-0.5 302,-19.5 358,-19.5 358,-0.5 302,-0.5"/>
<text text-anchor="middle" x="330" y="-7.5" font-family="Helvetica,sans-Serif" font-size="10.00">algorithm</text>
</g>
<!-- Node5&#45;&gt;Node7 -->
<g id="edge9" class="edge"><title>Node5&#45;&gt;Node7</title>
<path fill="none" stroke="midnightblue" d="M272.925,-56.324C283.175,-48.1849 298.721,-35.8395 311.001,-26.0874"/>
<polygon fill="midnightblue" stroke="midnightblue" points="313.221,-28.7937 318.876,-19.8339 308.868,-23.3119 313.221,-28.7937"/>
</g>
<!-- Node8 -->
<g id="node9" class="node"><title>Node8</title>
<polygon fill="white" stroke="#bfbfbf" points="240,-0.5 240,-19.5 284,-19.5 284,-0.5 240,-0.5"/>
<text text-anchor="middle" x="262" y="-7.5" font-family="Helvetica,sans-Serif" font-size="10.00">vector</text>
</g>
<!-- Node5&#45;&gt;Node8 -->
<g id="edge10" class="edge"><title>Node5&#45;&gt;Node8</title>
<path fill="none" stroke="midnightblue" d="M262,-56.083C262,-49.0059 262,-38.8611 262,-29.9865"/>
<polygon fill="midnightblue" stroke="midnightblue" points="265.5,-29.751 262,-19.7511 258.5,-29.7511 265.5,-29.751"/>
</g>
</g>
</svg>
