<?xml version="1.0" encoding="UTF-8" standalone="no"?>
<!DOCTYPE svg PUBLIC "-//W3C//DTD SVG 1.1//EN"
 "http://www.w3.org/Graphics/SVG/1.1/DTD/svg11.dtd">
<!-- Generated by graphviz version 2.36.0 (20140111.2315)
 -->
<!-- Title: src/analysis/input/goat/GoatReader.h Pages: 1 -->
<svg width="533pt" height="108pt"
 viewBox="0.00 0.00 533.00 108.00" xmlns="http://www.w3.org/2000/svg" xmlns:xlink="http://www.w3.org/1999/xlink">
<g id="graph0" class="graph" transform="scale(1 1) rotate(0) translate(4 104)">
<title>src/analysis/input/goat/GoatReader.h</title>
<polygon fill="white" stroke="none" points="-4,4 -4,-104 529,-104 529,4 -4,4"/>
<!-- Node17 -->
<g id="node1" class="node"><title>Node17</title>
<polygon fill="#bfbfbf" stroke="black" points="169,-69 169,-99 271,-99 271,-69 169,-69"/>
<text text-anchor="start" x="177" y="-87" font-family="Helvetica,sans-Serif" font-size="10.00">src/analysis/input</text>
<text text-anchor="middle" x="220" y="-76" font-family="Helvetica,sans-Serif" font-size="10.00">/goat/GoatReader.h</text>
</g>
<!-- Node18 -->
<g id="node2" class="node"><title>Node18</title>
<g id="a_node2"><a xlink:href="_ant_8cc.html" target="_top" xlink:title="Main Ant executable. ">
<polygon fill="white" stroke="black" points="0,-6.5 0,-25.5 72,-25.5 72,-6.5 0,-6.5"/>
<text text-anchor="middle" x="36" y="-13.5" font-family="Helvetica,sans-Serif" font-size="10.00">progs/Ant.cc</text>
</a>
</g>
</g>
<!-- Node17&#45;&gt;Node18 -->
<g id="edge1" class="edge"><title>Node17&#45;&gt;Node18</title>
<path fill="none" stroke="midnightblue" d="M170.735,-65.329C134.882,-52.4687 87.8971,-35.6153 59.939,-25.5868"/>
<polygon fill="midnightblue" stroke="midnightblue" points="169.933,-68.7594 180.527,-68.8413 172.296,-62.1705 169.933,-68.7594"/>
</g>
<!-- Node19 -->
<g id="node3" class="node"><title>Node19</title>
<g id="a_node3"><a xlink:href="_goat_reader_8cc.html" target="_top" xlink:title="src/analysis/input\l/goat/GoatReader.cc">
<polygon fill="white" stroke="black" points="90.5,-1 90.5,-31 197.5,-31 197.5,-1 90.5,-1"/>
<text text-anchor="start" x="98.5" y="-19" font-family="Helvetica,sans-Serif" font-size="10.00">src/analysis/input</text>
<text text-anchor="middle" x="144" y="-8" font-family="Helvetica,sans-Serif" font-size="10.00">/goat/GoatReader.cc</text>
</a>
</g>
</g>
<!-- Node17&#45;&gt;Node19 -->
<g id="edge2" class="edge"><title>Node17&#45;&gt;Node19</title>
<path fill="none" stroke="midnightblue" d="M195.839,-62.0184C184.205,-51.9145 170.565,-40.0696 160.198,-31.0663"/>
<polygon fill="midnightblue" stroke="midnightblue" points="193.664,-64.7647 203.509,-68.679 198.254,-59.4795 193.664,-64.7647"/>
</g>
<!-- Node20 -->
<g id="node4" class="node"><title>Node20</title>
<g id="a_node4"><a xlink:href="_test_goat_reader_8cc.html" target="_top" xlink:title="test/analysis/TestGoatReader.cc">
<polygon fill="white" stroke="black" points="215.5,-6.5 215.5,-25.5 376.5,-25.5 376.5,-6.5 215.5,-6.5"/>
<text text-anchor="middle" x="296" y="-13.5" font-family="Helvetica,sans-Serif" font-size="10.00">test/analysis/TestGoatReader.cc</text>
</a>
</g>
</g>
<!-- Node17&#45;&gt;Node20 -->
<g id="edge3" class="edge"><title>Node17&#45;&gt;Node20</title>
<path fill="none" stroke="midnightblue" d="M244.353,-61.8517C258.385,-49.6656 275.281,-34.9929 285.834,-25.8283"/>
<polygon fill="midnightblue" stroke="midnightblue" points="241.746,-59.4795 236.491,-68.679 246.336,-64.7647 241.746,-59.4795"/>
</g>
<!-- Node21 -->
<g id="node5" class="node"><title>Node21</title>
<g id="a_node5"><a xlink:href="_test_physics_manager_8cc.html" target="_top" xlink:title="test/analysis/TestPhysics\lManager.cc">
<polygon fill="white" stroke="black" points="395,-1 395,-31 525,-31 525,-1 395,-1"/>
<text text-anchor="start" x="403" y="-19" font-family="Helvetica,sans-Serif" font-size="10.00">test/analysis/TestPhysics</text>
<text text-anchor="middle" x="460" y="-8" font-family="Helvetica,sans-Serif" font-size="10.00">Manager.cc</text>
</a>
</g>
</g>
<!-- Node17&#45;&gt;Node21 -->
<g id="edge4" class="edge"><title>Node17&#45;&gt;Node21</title>
<path fill="none" stroke="midnightblue" d="M280.986,-66.2289C320.533,-55.3534 371.467,-41.3466 408.887,-31.0561"/>
<polygon fill="midnightblue" stroke="midnightblue" points="279.906,-62.8959 271.192,-68.9223 281.762,-69.6454 279.906,-62.8959"/>
</g>
</g>
</svg>
