<?xml version="1.0" encoding="UTF-8" standalone="no"?>
<!DOCTYPE svg PUBLIC "-//W3C//DTD SVG 1.1//EN"
 "http://www.w3.org/Graphics/SVG/1.1/DTD/svg11.dtd">
<!-- Generated by graphviz version 2.36.0 (20140111.2315)
 -->
<!-- Title: src/analysis/plot/HistogramFactory.cc Pages: 1 -->
<svg width="1237pt" height="264pt"
 viewBox="0.00 0.00 1237.00 264.00" xmlns="http://www.w3.org/2000/svg" xmlns:xlink="http://www.w3.org/1999/xlink">
<g id="graph0" class="graph" transform="scale(1 1) rotate(0) translate(4 260)">
<title>src/analysis/plot/HistogramFactory.cc</title>
<polygon fill="white" stroke="none" points="-4,4 -4,-260 1233,-260 1233,4 -4,4"/>
<!-- Node0 -->
<g id="node1" class="node"><title>Node0</title>
<polygon fill="#bfbfbf" stroke="black" points="678,-225 678,-255 814,-255 814,-225 678,-225"/>
<text text-anchor="start" x="686" y="-243" font-family="Helvetica,sans-Serif" font-size="10.00">src/analysis/plot/Histogram</text>
<text text-anchor="middle" x="746" y="-232" font-family="Helvetica,sans-Serif" font-size="10.00">Factory.cc</text>
</g>
<!-- Node1 -->
<g id="node2" class="node"><title>Node1</title>
<g id="a_node2"><a xlink:href="_histogram_factory_8h.html" target="_top" xlink:title="HistogramFactory.h">
<polygon fill="white" stroke="black" points="199.5,-168.5 199.5,-187.5 302.5,-187.5 302.5,-168.5 199.5,-168.5"/>
<text text-anchor="middle" x="251" y="-175.5" font-family="Helvetica,sans-Serif" font-size="10.00">HistogramFactory.h</text>
</a>
</g>
</g>
<!-- Node0&#45;&gt;Node1 -->
<g id="edge1" class="edge"><title>Node0&#45;&gt;Node1</title>
<path fill="none" stroke="midnightblue" d="M677.951,-230.752C581.401,-219.049 406.062,-197.795 312.958,-186.51"/>
<polygon fill="midnightblue" stroke="midnightblue" points="313.191,-183.013 302.843,-185.284 312.349,-189.962 313.191,-183.013"/>
</g>
<!-- Node4 -->
<g id="node5" class="node"><title>Node4</title>
<polygon fill="white" stroke="#bfbfbf" points="0,-0.5 0,-19.5 56,-19.5 56,-0.5 0,-0.5"/>
<text text-anchor="middle" x="28" y="-7.5" font-family="Helvetica,sans-Serif" font-size="10.00">algorithm</text>
</g>
<!-- Node0&#45;&gt;Node4 -->
<g id="edge31" class="edge"><title>Node0&#45;&gt;Node4</title>
<path fill="none" stroke="midnightblue" d="M677.943,-236.289C542.863,-230.404 245.442,-214.786 147,-188 91.3731,-172.864 61.1317,-180.521 30,-132 9.93723,-100.731 16.6369,-54.9266 22.6994,-29.5871"/>
<polygon fill="midnightblue" stroke="midnightblue" points="26.116,-30.3559 25.2601,-19.7957 19.3437,-28.5847 26.116,-30.3559"/>
</g>
<!-- Node9 -->
<g id="node10" class="node"><title>Node9</title>
<polygon fill="white" stroke="#bfbfbf" points="446,-0.5 446,-19.5 490,-19.5 490,-0.5 446,-0.5"/>
<text text-anchor="middle" x="468" y="-7.5" font-family="Helvetica,sans-Serif" font-size="10.00">cmath</text>
</g>
<!-- Node0&#45;&gt;Node9 -->
<g id="edge32" class="edge"><title>Node0&#45;&gt;Node9</title>
<path fill="none" stroke="midnightblue" d="M677.927,-234.389C610.588,-228.327 514.059,-215.089 489,-188 448.422,-144.136 457.112,-65.7371 463.832,-29.8605"/>
<polygon fill="midnightblue" stroke="midnightblue" points="467.314,-30.3013 465.879,-19.804 460.454,-28.9047 467.314,-30.3013"/>
</g>
<!-- Node14 -->
<g id="node15" class="node"><title>Node14</title>
<g id="a_node15"><a xlink:href="string_8h.html" target="_top" xlink:title="base/std_ext/string.h">
<polygon fill="white" stroke="black" points="39,-112.5 39,-131.5 147,-131.5 147,-112.5 39,-112.5"/>
<text text-anchor="middle" x="93" y="-119.5" font-family="Helvetica,sans-Serif" font-size="10.00">base/std_ext/string.h</text>
</a>
</g>
</g>
<!-- Node0&#45;&gt;Node14 -->
<g id="edge18" class="edge"><title>Node0&#45;&gt;Node14</title>
<path fill="none" stroke="midnightblue" d="M677.572,-236.937C549.406,-232.381 278.157,-219.276 190,-188 159.134,-177.049 128.593,-154.032 110.26,-138.54"/>
<polygon fill="midnightblue" stroke="midnightblue" points="112.14,-135.537 102.294,-131.625 107.551,-140.823 112.14,-135.537"/>
</g>
<!-- Node15 -->
<g id="node16" class="node"><title>Node15</title>
<polygon fill="white" stroke="#bfbfbf" points="498.5,-168.5 498.5,-187.5 569.5,-187.5 569.5,-168.5 498.5,-168.5"/>
<text text-anchor="middle" x="534" y="-175.5" font-family="Helvetica,sans-Serif" font-size="10.00">TDirectory.h</text>
</g>
<!-- Node0&#45;&gt;Node15 -->
<g id="edge23" class="edge"><title>Node0&#45;&gt;Node15</title>
<path fill="none" stroke="midnightblue" d="M696.295,-224.933C658.98,-214.372 608.553,-200.1 573.863,-190.282"/>
<polygon fill="midnightblue" stroke="midnightblue" points="574.653,-186.868 564.078,-187.513 572.747,-193.604 574.653,-186.868"/>
</g>
<!-- Node16 -->
<g id="node17" class="node"><title>Node16</title>
<polygon fill="white" stroke="#bfbfbf" points="587.5,-168.5 587.5,-187.5 644.5,-187.5 644.5,-168.5 587.5,-168.5"/>
<text text-anchor="middle" x="616" y="-175.5" font-family="Helvetica,sans-Serif" font-size="10.00">TGraph.h</text>
</g>
<!-- Node0&#45;&gt;Node16 -->
<g id="edge24" class="edge"><title>Node0&#45;&gt;Node16</title>
<path fill="none" stroke="midnightblue" d="M715.521,-224.933C693.882,-214.946 665.053,-201.64 643.994,-191.92"/>
<polygon fill="midnightblue" stroke="midnightblue" points="645.18,-188.613 634.633,-187.6 642.246,-194.969 645.18,-188.613"/>
</g>
<!-- Node17 -->
<g id="node18" class="node"><title>Node17</title>
<polygon fill="white" stroke="#bfbfbf" points="662.5,-168.5 662.5,-187.5 745.5,-187.5 745.5,-168.5 662.5,-168.5"/>
<text text-anchor="middle" x="704" y="-175.5" font-family="Helvetica,sans-Serif" font-size="10.00">TGraphErrors.h</text>
</g>
<!-- Node0&#45;&gt;Node17 -->
<g id="edge25" class="edge"><title>Node0&#45;&gt;Node17</title>
<path fill="none" stroke="midnightblue" d="M736.047,-224.781C730.006,-216.152 722.262,-205.088 715.899,-195.999"/>
<polygon fill="midnightblue" stroke="midnightblue" points="718.713,-193.916 710.111,-187.731 712.979,-197.93 718.713,-193.916"/>
</g>
<!-- Node18 -->
<g id="node19" class="node"><title>Node18</title>
<polygon fill="white" stroke="#bfbfbf" points="763.5,-168.5 763.5,-187.5 814.5,-187.5 814.5,-168.5 763.5,-168.5"/>
<text text-anchor="middle" x="789" y="-175.5" font-family="Helvetica,sans-Serif" font-size="10.00">TH1D.h</text>
</g>
<!-- Node0&#45;&gt;Node18 -->
<g id="edge26" class="edge"><title>Node0&#45;&gt;Node18</title>
<path fill="none" stroke="midnightblue" d="M756.19,-224.781C762.374,-216.152 770.303,-205.088 776.818,-195.999"/>
<polygon fill="midnightblue" stroke="midnightblue" points="779.763,-197.898 782.743,-187.731 774.073,-193.82 779.763,-197.898"/>
</g>
<!-- Node19 -->
<g id="node20" class="node"><title>Node19</title>
<polygon fill="white" stroke="#bfbfbf" points="832.5,-168.5 832.5,-187.5 883.5,-187.5 883.5,-168.5 832.5,-168.5"/>
<text text-anchor="middle" x="858" y="-175.5" font-family="Helvetica,sans-Serif" font-size="10.00">TH2D.h</text>
</g>
<!-- Node0&#45;&gt;Node19 -->
<g id="edge27" class="edge"><title>Node0&#45;&gt;Node19</title>
<path fill="none" stroke="midnightblue" d="M772.259,-224.933C790.48,-215.171 814.618,-202.24 832.64,-192.586"/>
<polygon fill="midnightblue" stroke="midnightblue" points="834.785,-195.407 841.947,-187.6 831.479,-189.237 834.785,-195.407"/>
</g>
<!-- Node20 -->
<g id="node21" class="node"><title>Node20</title>
<polygon fill="white" stroke="#bfbfbf" points="901.5,-168.5 901.5,-187.5 952.5,-187.5 952.5,-168.5 901.5,-168.5"/>
<text text-anchor="middle" x="927" y="-175.5" font-family="Helvetica,sans-Serif" font-size="10.00">TH3D.h</text>
</g>
<!-- Node0&#45;&gt;Node20 -->
<g id="edge28" class="edge"><title>Node0&#45;&gt;Node20</title>
<path fill="none" stroke="midnightblue" d="M788.436,-224.933C819.885,-214.508 862.242,-200.467 891.815,-190.663"/>
<polygon fill="midnightblue" stroke="midnightblue" points="892.929,-193.982 901.32,-187.513 890.727,-187.337 892.929,-193.982"/>
</g>
<!-- Node21 -->
<g id="node22" class="node"><title>Node21</title>
<polygon fill="white" stroke="#bfbfbf" points="970.5,-168.5 970.5,-187.5 1023.5,-187.5 1023.5,-168.5 970.5,-168.5"/>
<text text-anchor="middle" x="997" y="-175.5" font-family="Helvetica,sans-Serif" font-size="10.00">TMath.h</text>
</g>
<!-- Node0&#45;&gt;Node21 -->
<g id="edge29" class="edge"><title>Node0&#45;&gt;Node21</title>
<path fill="none" stroke="midnightblue" d="M806.285,-224.905C847.052,-215.326 902.37,-202.237 960.211,-188.171"/>
<polygon fill="midnightblue" stroke="midnightblue" points="961.385,-191.487 970.273,-185.72 959.728,-184.686 961.385,-191.487"/>
</g>
<!-- Node22 -->
<g id="node23" class="node"><title>Node22</title>
<polygon fill="white" stroke="#bfbfbf" points="1042,-168.5 1042,-187.5 1092,-187.5 1092,-168.5 1042,-168.5"/>
<text text-anchor="middle" x="1067" y="-175.5" font-family="Helvetica,sans-Serif" font-size="10.00">TTree.h</text>
</g>
<!-- Node0&#45;&gt;Node22 -->
<g id="edge30" class="edge"><title>Node0&#45;&gt;Node22</title>
<path fill="none" stroke="midnightblue" d="M814.182,-228.323C872.304,-218.869 957.95,-204.099 1032,-188 1032.1,-187.978 1032.2,-187.957 1032.3,-187.935"/>
<polygon fill="midnightblue" stroke="midnightblue" points="1032.87,-191.395 1041.82,-185.716 1031.29,-184.577 1032.87,-191.395"/>
</g>
<!-- Node23 -->
<g id="node24" class="node"><title>Node23</title>
<polygon fill="white" stroke="#bfbfbf" points="1110,-168.5 1110,-187.5 1160,-187.5 1160,-168.5 1110,-168.5"/>
<text text-anchor="middle" x="1135" y="-175.5" font-family="Helvetica,sans-Serif" font-size="10.00">iomanip</text>
</g>
<!-- Node0&#45;&gt;Node23 -->
<g id="edge33" class="edge"><title>Node0&#45;&gt;Node23</title>
<path fill="none" stroke="midnightblue" d="M814.128,-231.595C883.721,-223.492 995.014,-209.05 1100.01,-188.003"/>
<polygon fill="midnightblue" stroke="midnightblue" points="1100.72,-191.43 1109.83,-186.012 1099.33,-184.57 1100.72,-191.43"/>
</g>
<!-- Node24 -->
<g id="node25" class="node"><title>Node24</title>
<polygon fill="white" stroke="#bfbfbf" points="1178.5,-168.5 1178.5,-187.5 1229.5,-187.5 1229.5,-168.5 1178.5,-168.5"/>
<text text-anchor="middle" x="1204" y="-175.5" font-family="Helvetica,sans-Serif" font-size="10.00">numeric</text>
</g>
<!-- Node0&#45;&gt;Node24 -->
<g id="edge34" class="edge"><title>Node0&#45;&gt;Node24</title>
<path fill="none" stroke="midnightblue" d="M814.188,-233.564C896.014,-226.418 1037.46,-212.089 1168.27,-187.89"/>
<polygon fill="midnightblue" stroke="midnightblue" points="1169.29,-191.26 1178.47,-185.978 1168,-184.38 1169.29,-191.26"/>
</g>
<!-- Node2 -->
<g id="node3" class="node"><title>Node2</title>
<g id="a_node3"><a xlink:href="interval_8h.html" target="_top" xlink:title="base/interval.h">
<polygon fill="white" stroke="black" points="216,-56.5 216,-75.5 296,-75.5 296,-56.5 216,-56.5"/>
<text text-anchor="middle" x="256" y="-63.5" font-family="Helvetica,sans-Serif" font-size="10.00">base/interval.h</text>
</a>
</g>
</g>
<!-- Node1&#45;&gt;Node2 -->
<g id="edge2" class="edge"><title>Node1&#45;&gt;Node2</title>
<path fill="none" stroke="midnightblue" d="M251.392,-168.368C252.199,-150.617 254.061,-109.666 255.155,-85.5974"/>
<polygon fill="midnightblue" stroke="midnightblue" points="258.652,-85.7401 255.609,-75.5914 251.659,-85.4221 258.652,-85.7401"/>
</g>
<!-- Node10 -->
<g id="node11" class="node"><title>Node10</title>
<g id="a_node11"><a xlink:href="_bin_settings_8h.html" target="_top" xlink:title="base/BinSettings.h">
<polygon fill="white" stroke="black" points="279.5,-112.5 279.5,-131.5 378.5,-131.5 378.5,-112.5 279.5,-112.5"/>
<text text-anchor="middle" x="329" y="-119.5" font-family="Helvetica,sans-Serif" font-size="10.00">base/BinSettings.h</text>
</a>
</g>
</g>
<!-- Node1&#45;&gt;Node10 -->
<g id="edge10" class="edge"><title>Node1&#45;&gt;Node10</title>
<path fill="none" stroke="midnightblue" d="M263.532,-168.324C275.586,-159.979 294.027,-147.212 308.269,-137.352"/>
<polygon fill="midnightblue" stroke="midnightblue" points="310.269,-140.224 316.499,-131.655 306.285,-134.469 310.269,-140.224"/>
</g>
<!-- Node11 -->
<g id="node12" class="node"><title>Node11</title>
<polygon fill="white" stroke="#bfbfbf" points="154,-56.5 154,-75.5 198,-75.5 198,-56.5 154,-56.5"/>
<text text-anchor="middle" x="176" y="-63.5" font-family="Helvetica,sans-Serif" font-size="10.00">vector</text>
</g>
<!-- Node1&#45;&gt;Node11 -->
<g id="edge17" class="edge"><title>Node1&#45;&gt;Node11</title>
<path fill="none" stroke="midnightblue" d="M245.115,-168.368C232.738,-150.215 203.819,-107.802 187.584,-83.9902"/>
<polygon fill="midnightblue" stroke="midnightblue" points="190.383,-81.882 181.858,-75.5914 184.599,-85.8254 190.383,-81.882"/>
</g>
<!-- Node13 -->
<g id="node14" class="node"><title>Node13</title>
<polygon fill="white" stroke="#bfbfbf" points="94.5,-56.5 94.5,-75.5 135.5,-75.5 135.5,-56.5 94.5,-56.5"/>
<text text-anchor="middle" x="115" y="-63.5" font-family="Helvetica,sans-Serif" font-size="10.00">string</text>
</g>
<!-- Node1&#45;&gt;Node13 -->
<g id="edge16" class="edge"><title>Node1&#45;&gt;Node13</title>
<path fill="none" stroke="midnightblue" d="M240.328,-168.368C217.289,-149.733 162.64,-105.532 133.711,-82.1338"/>
<polygon fill="midnightblue" stroke="midnightblue" points="135.598,-79.1589 125.622,-75.5914 131.196,-84.6014 135.598,-79.1589"/>
</g>
<!-- Node3 -->
<g id="node4" class="node"><title>Node3</title>
<g id="a_node4"><a xlink:href="types_8h.html" target="_top" xlink:title="types.h">
<polygon fill="white" stroke="black" points="231.5,-0.5 231.5,-19.5 280.5,-19.5 280.5,-0.5 231.5,-0.5"/>
<text text-anchor="middle" x="256" y="-7.5" font-family="Helvetica,sans-Serif" font-size="10.00">types.h</text>
</a>
</g>
</g>
<!-- Node2&#45;&gt;Node3 -->
<g id="edge3" class="edge"><title>Node2&#45;&gt;Node3</title>
<path fill="none" stroke="midnightblue" d="M256,-56.083C256,-49.0059 256,-38.8611 256,-29.9865"/>
<polygon fill="midnightblue" stroke="midnightblue" points="259.5,-29.751 256,-19.7511 252.5,-29.7511 259.5,-29.751"/>
</g>
<!-- Node2&#45;&gt;Node4 -->
<g id="edge4" class="edge"><title>Node2&#45;&gt;Node4</title>
<path fill="none" stroke="midnightblue" d="M219.873,-56.4435C177.791,-46.4769 108.593,-30.0877 65.8056,-19.954"/>
<polygon fill="midnightblue" stroke="midnightblue" points="66.5893,-16.5428 56.0519,-17.6439 64.976,-23.3544 66.5893,-16.5428"/>
</g>
<!-- Node5 -->
<g id="node6" class="node"><title>Node5</title>
<polygon fill="white" stroke="#bfbfbf" points="367.5,-0.5 367.5,-19.5 426.5,-19.5 426.5,-0.5 367.5,-0.5"/>
<text text-anchor="middle" x="397" y="-7.5" font-family="Helvetica,sans-Serif" font-size="10.00">stdexcept</text>
</g>
<!-- Node2&#45;&gt;Node5 -->
<g id="edge5" class="edge"><title>Node2&#45;&gt;Node5</title>
<path fill="none" stroke="midnightblue" d="M278.342,-56.4435C301.753,-47.4776 338.736,-33.314 365.19,-23.1827"/>
<polygon fill="midnightblue" stroke="midnightblue" points="366.676,-26.3615 374.763,-19.5164 364.172,-19.8245 366.676,-26.3615"/>
</g>
<!-- Node6 -->
<g id="node7" class="node"><title>Node6</title>
<polygon fill="white" stroke="#bfbfbf" points="173,-0.5 173,-19.5 213,-19.5 213,-0.5 173,-0.5"/>
<text text-anchor="middle" x="193" y="-7.5" font-family="Helvetica,sans-Serif" font-size="10.00">limits</text>
</g>
<!-- Node2&#45;&gt;Node6 -->
<g id="edge6" class="edge"><title>Node2&#45;&gt;Node6</title>
<path fill="none" stroke="midnightblue" d="M245.878,-56.324C236.474,-48.2631 222.256,-36.0765 210.931,-26.3695"/>
<polygon fill="midnightblue" stroke="midnightblue" points="213.177,-23.6844 203.306,-19.8339 208.621,-28.9993 213.177,-23.6844"/>
</g>
<!-- Node7 -->
<g id="node8" class="node"><title>Node7</title>
<polygon fill="white" stroke="#bfbfbf" points="298.5,-0.5 298.5,-19.5 347.5,-19.5 347.5,-0.5 298.5,-0.5"/>
<text text-anchor="middle" x="323" y="-7.5" font-family="Helvetica,sans-Serif" font-size="10.00">istream</text>
</g>
<!-- Node2&#45;&gt;Node7 -->
<g id="edge7" class="edge"><title>Node2&#45;&gt;Node7</title>
<path fill="none" stroke="midnightblue" d="M266.765,-56.324C276.766,-48.2631 291.887,-36.0765 303.93,-26.3695"/>
<polygon fill="midnightblue" stroke="midnightblue" points="306.45,-28.8343 312.039,-19.8339 302.057,-23.3841 306.45,-28.8343"/>
</g>
<!-- Node8 -->
<g id="node9" class="node"><title>Node8</title>
<polygon fill="white" stroke="#bfbfbf" points="88,-0.5 88,-19.5 140,-19.5 140,-0.5 88,-0.5"/>
<text text-anchor="middle" x="114" y="-7.5" font-family="Helvetica,sans-Serif" font-size="10.00">sstream</text>
</g>
<!-- Node2&#45;&gt;Node8 -->
<g id="edge8" class="edge"><title>Node2&#45;&gt;Node8</title>
<path fill="none" stroke="midnightblue" d="M233.5,-56.4435C209.923,-47.4776 172.678,-33.314 146.036,-23.1827"/>
<polygon fill="midnightblue" stroke="midnightblue" points="146.986,-19.7995 136.395,-19.5164 144.498,-26.3424 146.986,-19.7995"/>
</g>
<!-- Node2&#45;&gt;Node9 -->
<g id="edge9" class="edge"><title>Node2&#45;&gt;Node9</title>
<path fill="none" stroke="midnightblue" d="M290.702,-56.4937C326.803,-47.5936 384.94,-33.1174 435,-20 435.323,-19.9153 435.648,-19.83 435.974,-19.7442"/>
<polygon fill="midnightblue" stroke="midnightblue" points="436.891,-23.122 445.65,-17.1604 435.085,-16.3591 436.891,-23.122"/>
</g>
<!-- Node10&#45;&gt;Node2 -->
<g id="edge11" class="edge"><title>Node10&#45;&gt;Node2</title>
<path fill="none" stroke="midnightblue" d="M317.271,-112.324C306.163,-104.107 289.258,-91.6017 276.017,-81.8069"/>
<polygon fill="midnightblue" stroke="midnightblue" points="278.063,-78.9671 267.942,-75.8339 273.9,-84.5948 278.063,-78.9671"/>
</g>
<!-- Node10&#45;&gt;Node5 -->
<g id="edge13" class="edge"><title>Node10&#45;&gt;Node5</title>
<path fill="none" stroke="midnightblue" d="M361.986,-112.438C380.463,-105.769 401.952,-94.4527 413,-76 421.743,-61.3972 415.246,-42.2293 408.085,-28.4988"/>
<polygon fill="midnightblue" stroke="midnightblue" points="410.986,-26.5227 402.961,-19.6048 404.92,-30.0169 410.986,-26.5227"/>
</g>
<!-- Node10&#45;&gt;Node7 -->
<g id="edge14" class="edge"><title>Node10&#45;&gt;Node7</title>
<path fill="none" stroke="midnightblue" d="M328.529,-112.368C327.561,-94.617 325.327,-53.6664 324.014,-29.5974"/>
<polygon fill="midnightblue" stroke="midnightblue" points="327.508,-29.3859 323.469,-19.5914 320.519,-29.7672 327.508,-29.3859"/>
</g>
<!-- Node10&#45;&gt;Node11 -->
<g id="edge12" class="edge"><title>Node10&#45;&gt;Node11</title>
<path fill="none" stroke="midnightblue" d="M304.757,-112.444C278.526,-103.186 236.595,-88.3866 207.752,-78.2066"/>
<polygon fill="midnightblue" stroke="midnightblue" points="208.738,-74.8429 198.143,-74.8151 206.408,-81.4438 208.738,-74.8429"/>
</g>
<!-- Node12 -->
<g id="node13" class="node"><title>Node12</title>
<polygon fill="white" stroke="#bfbfbf" points="352,-56.5 352,-75.5 404,-75.5 404,-56.5 352,-56.5"/>
<text text-anchor="middle" x="378" y="-63.5" font-family="Helvetica,sans-Serif" font-size="10.00">ostream</text>
</g>
<!-- Node10&#45;&gt;Node12 -->
<g id="edge15" class="edge"><title>Node10&#45;&gt;Node12</title>
<path fill="none" stroke="midnightblue" d="M337.091,-112.083C344.155,-104.298 354.588,-92.8015 363.149,-83.3665"/>
<polygon fill="midnightblue" stroke="midnightblue" points="365.931,-85.5087 370.059,-75.7511 360.747,-80.8047 365.931,-85.5087"/>
</g>
<!-- Node14&#45;&gt;Node4 -->
<g id="edge21" class="edge"><title>Node14&#45;&gt;Node4</title>
<path fill="none" stroke="midnightblue" d="M87.8996,-112.368C77.2202,-94.2957 52.3315,-52.1764 38.2271,-28.3074"/>
<polygon fill="midnightblue" stroke="midnightblue" points="41.1773,-26.4201 33.0767,-19.5914 35.1508,-29.9813 41.1773,-26.4201"/>
</g>
<!-- Node14&#45;&gt;Node8 -->
<g id="edge20" class="edge"><title>Node14&#45;&gt;Node8</title>
<path fill="none" stroke="midnightblue" d="M89.7756,-112.406C85.5242,-99.7922 79.2217,-75.6331 85,-56 88.0124,-45.7645 94.1546,-35.6599 100.014,-27.627"/>
<polygon fill="midnightblue" stroke="midnightblue" points="102.932,-29.5773 106.327,-19.5413 97.4142,-25.2694 102.932,-29.5773"/>
</g>
<!-- Node14&#45;&gt;Node11 -->
<g id="edge22" class="edge"><title>Node14&#45;&gt;Node11</title>
<path fill="none" stroke="midnightblue" d="M106.335,-112.324C119.162,-103.979 138.785,-91.2122 153.94,-81.3524"/>
<polygon fill="midnightblue" stroke="midnightblue" points="156.224,-84.0417 162.698,-75.6545 152.407,-78.1742 156.224,-84.0417"/>
</g>
<!-- Node14&#45;&gt;Node13 -->
<g id="edge19" class="edge"><title>Node14&#45;&gt;Node13</title>
<path fill="none" stroke="midnightblue" d="M96.6329,-112.083C99.6122,-104.77 103.926,-94.1814 107.625,-85.1034"/>
<polygon fill="midnightblue" stroke="midnightblue" points="110.903,-86.3326 111.435,-75.7511 104.42,-83.6914 110.903,-86.3326"/>
</g>
</g>
</svg>
