<?xml version="1.0" encoding="UTF-8" standalone="no"?>
<!DOCTYPE svg PUBLIC "-//W3C//DTD SVG 1.1//EN"
 "http://www.w3.org/Graphics/SVG/1.1/DTD/svg11.dtd">
<!-- Generated by graphviz version 2.36.0 (20140111.2315)
 -->
<!-- Title: src/analysis/plot/HistogramFactory.h Pages: 1 -->
<svg width="553pt" height="208pt"
 viewBox="0.00 0.00 553.00 208.00" xmlns="http://www.w3.org/2000/svg" xmlns:xlink="http://www.w3.org/1999/xlink">
<g id="graph0" class="graph" transform="scale(1 1) rotate(0) translate(4 204)">
<title>src/analysis/plot/HistogramFactory.h</title>
<polygon fill="white" stroke="none" points="-4,4 -4,-204 549,-204 549,4 -4,4"/>
<!-- Node0 -->
<g id="node1" class="node"><title>Node0</title>
<polygon fill="#bfbfbf" stroke="black" points="369,-169 369,-199 505,-199 505,-169 369,-169"/>
<text text-anchor="start" x="377" y="-187" font-family="Helvetica,sans-Serif" font-size="10.00">src/analysis/plot/Histogram</text>
<text text-anchor="middle" x="437" y="-176" font-family="Helvetica,sans-Serif" font-size="10.00">Factory.h</text>
</g>
<!-- Node1 -->
<g id="node2" class="node"><title>Node1</title>
<g id="a_node2"><a xlink:href="interval_8h.html" target="_top" xlink:title="base/interval.h">
<polygon fill="white" stroke="black" points="251,-56.5 251,-75.5 331,-75.5 331,-56.5 251,-56.5"/>
<text text-anchor="middle" x="291" y="-63.5" font-family="Helvetica,sans-Serif" font-size="10.00">base/interval.h</text>
</a>
</g>
</g>
<!-- Node0&#45;&gt;Node1 -->
<g id="edge1" class="edge"><title>Node0&#45;&gt;Node1</title>
<path fill="none" stroke="midnightblue" d="M400.594,-168.841C381.016,-160.103 357.224,-147.578 339,-132 323.058,-118.373 309.366,-98.4944 300.733,-84.3133"/>
<polygon fill="midnightblue" stroke="midnightblue" points="303.675,-82.4106 295.599,-75.5526 297.635,-85.9499 303.675,-82.4106"/>
</g>
<!-- Node9 -->
<g id="node10" class="node"><title>Node9</title>
<g id="a_node10"><a xlink:href="_bin_settings_8h.html" target="_top" xlink:title="base/BinSettings.h">
<polygon fill="white" stroke="black" points="348.5,-112.5 348.5,-131.5 447.5,-131.5 447.5,-112.5 348.5,-112.5"/>
<text text-anchor="middle" x="398" y="-119.5" font-family="Helvetica,sans-Serif" font-size="10.00">base/BinSettings.h</text>
</a>
</g>
</g>
<!-- Node0&#45;&gt;Node9 -->
<g id="edge9" class="edge"><title>Node0&#45;&gt;Node9</title>
<path fill="none" stroke="midnightblue" d="M427.758,-168.781C422.207,-160.242 415.107,-149.318 409.234,-140.283"/>
<polygon fill="midnightblue" stroke="midnightblue" points="412.059,-138.208 403.675,-131.731 406.19,-142.022 412.059,-138.208"/>
</g>
<!-- Node10 -->
<g id="node11" class="node"><title>Node10</title>
<polygon fill="white" stroke="#bfbfbf" points="496,-56.5 496,-75.5 540,-75.5 540,-56.5 496,-56.5"/>
<text text-anchor="middle" x="518" y="-63.5" font-family="Helvetica,sans-Serif" font-size="10.00">vector</text>
</g>
<!-- Node0&#45;&gt;Node10 -->
<g id="edge16" class="edge"><title>Node0&#45;&gt;Node10</title>
<path fill="none" stroke="midnightblue" d="M446.932,-168.776C461.858,-147.401 490.027,-107.06 506.054,-84.1083"/>
<polygon fill="midnightblue" stroke="midnightblue" points="509.065,-85.9098 511.92,-75.707 503.325,-81.9021 509.065,-85.9098"/>
</g>
<!-- Node12 -->
<g id="node13" class="node"><title>Node12</title>
<polygon fill="white" stroke="#bfbfbf" points="504.5,-112.5 504.5,-131.5 545.5,-131.5 545.5,-112.5 504.5,-112.5"/>
<text text-anchor="middle" x="525" y="-119.5" font-family="Helvetica,sans-Serif" font-size="10.00">string</text>
</g>
<!-- Node0&#45;&gt;Node12 -->
<g id="edge15" class="edge"><title>Node0&#45;&gt;Node12</title>
<path fill="none" stroke="midnightblue" d="M457.855,-168.781C471.78,-159.286 490.03,-146.843 503.988,-137.327"/>
<polygon fill="midnightblue" stroke="midnightblue" points="506.161,-140.081 512.452,-131.556 502.218,-134.297 506.161,-140.081"/>
</g>
<!-- Node2 -->
<g id="node3" class="node"><title>Node2</title>
<g id="a_node3"><a xlink:href="types_8h.html" target="_top" xlink:title="types.h">
<polygon fill="white" stroke="black" points="-0.5,-0.5 -0.5,-19.5 48.5,-19.5 48.5,-0.5 -0.5,-0.5"/>
<text text-anchor="middle" x="24" y="-7.5" font-family="Helvetica,sans-Serif" font-size="10.00">types.h</text>
</a>
</g>
</g>
<!-- Node1&#45;&gt;Node2 -->
<g id="edge2" class="edge"><title>Node1&#45;&gt;Node2</title>
<path fill="none" stroke="midnightblue" d="M250.834,-58.0991C206.262,-50.2517 132,-36.6172 58.6988,-20.0335"/>
<polygon fill="midnightblue" stroke="midnightblue" points="59.3622,-16.595 48.8341,-17.7822 57.8047,-23.4196 59.3622,-16.595"/>
</g>
<!-- Node3 -->
<g id="node4" class="node"><title>Node3</title>
<polygon fill="white" stroke="#bfbfbf" points="67,-0.5 67,-19.5 123,-19.5 123,-0.5 67,-0.5"/>
<text text-anchor="middle" x="95" y="-7.5" font-family="Helvetica,sans-Serif" font-size="10.00">algorithm</text>
</g>
<!-- Node1&#45;&gt;Node3 -->
<g id="edge3" class="edge"><title>Node1&#45;&gt;Node3</title>
<path fill="none" stroke="midnightblue" d="M259.943,-56.4435C225.509,-46.9565 169.952,-31.65 132.961,-21.4588"/>
<polygon fill="midnightblue" stroke="midnightblue" points="133.624,-18.011 123.054,-18.729 131.765,-24.7595 133.624,-18.011"/>
</g>
<!-- Node4 -->
<g id="node5" class="node"><title>Node4</title>
<polygon fill="white" stroke="#bfbfbf" points="331.5,-0.5 331.5,-19.5 390.5,-19.5 390.5,-0.5 331.5,-0.5"/>
<text text-anchor="middle" x="361" y="-7.5" font-family="Helvetica,sans-Serif" font-size="10.00">stdexcept</text>
</g>
<!-- Node1&#45;&gt;Node4 -->
<g id="edge4" class="edge"><title>Node1&#45;&gt;Node4</title>
<path fill="none" stroke="midnightblue" d="M302.247,-56.324C312.797,-48.1849 328.801,-35.8395 341.442,-26.0874"/>
<polygon fill="midnightblue" stroke="midnightblue" points="343.769,-28.7132 349.549,-19.8339 339.493,-23.1707 343.769,-28.7132"/>
</g>
<!-- Node5 -->
<g id="node6" class="node"><title>Node5</title>
<polygon fill="white" stroke="#bfbfbf" points="141,-0.5 141,-19.5 181,-19.5 181,-0.5 141,-0.5"/>
<text text-anchor="middle" x="161" y="-7.5" font-family="Helvetica,sans-Serif" font-size="10.00">limits</text>
</g>
<!-- Node1&#45;&gt;Node5 -->
<g id="edge5" class="edge"><title>Node1&#45;&gt;Node5</title>
<path fill="none" stroke="midnightblue" d="M270.401,-56.4435C248.881,-47.5043 214.922,-33.3984 190.547,-23.2734"/>
<polygon fill="midnightblue" stroke="midnightblue" points="191.653,-19.9429 181.075,-19.339 188.968,-26.4074 191.653,-19.9429"/>
</g>
<!-- Node6 -->
<g id="node7" class="node"><title>Node6</title>
<polygon fill="white" stroke="#bfbfbf" points="408.5,-0.5 408.5,-19.5 457.5,-19.5 457.5,-0.5 408.5,-0.5"/>
<text text-anchor="middle" x="433" y="-7.5" font-family="Helvetica,sans-Serif" font-size="10.00">istream</text>
</g>
<!-- Node1&#45;&gt;Node6 -->
<g id="edge6" class="edge"><title>Node1&#45;&gt;Node6</title>
<path fill="none" stroke="midnightblue" d="M313.5,-56.4435C337.077,-47.4776 374.322,-33.314 400.964,-23.1827"/>
<polygon fill="midnightblue" stroke="midnightblue" points="402.502,-26.3424 410.605,-19.5164 400.014,-19.7995 402.502,-26.3424"/>
</g>
<!-- Node7 -->
<g id="node8" class="node"><title>Node7</title>
<polygon fill="white" stroke="#bfbfbf" points="199,-0.5 199,-19.5 251,-19.5 251,-0.5 199,-0.5"/>
<text text-anchor="middle" x="225" y="-7.5" font-family="Helvetica,sans-Serif" font-size="10.00">sstream</text>
</g>
<!-- Node1&#45;&gt;Node7 -->
<g id="edge7" class="edge"><title>Node1&#45;&gt;Node7</title>
<path fill="none" stroke="midnightblue" d="M280.396,-56.324C270.544,-48.2631 255.649,-36.0765 243.785,-26.3695"/>
<polygon fill="midnightblue" stroke="midnightblue" points="245.753,-23.4575 235.797,-19.8339 241.32,-28.8752 245.753,-23.4575"/>
</g>
<!-- Node8 -->
<g id="node9" class="node"><title>Node8</title>
<polygon fill="white" stroke="#bfbfbf" points="269,-0.5 269,-19.5 313,-19.5 313,-0.5 269,-0.5"/>
<text text-anchor="middle" x="291" y="-7.5" font-family="Helvetica,sans-Serif" font-size="10.00">cmath</text>
</g>
<!-- Node1&#45;&gt;Node8 -->
<g id="edge8" class="edge"><title>Node1&#45;&gt;Node8</title>
<path fill="none" stroke="midnightblue" d="M291,-56.083C291,-49.0059 291,-38.8611 291,-29.9865"/>
<polygon fill="midnightblue" stroke="midnightblue" points="294.5,-29.751 291,-19.7511 287.5,-29.7511 294.5,-29.751"/>
</g>
<!-- Node9&#45;&gt;Node1 -->
<g id="edge10" class="edge"><title>Node9&#45;&gt;Node1</title>
<path fill="none" stroke="midnightblue" d="M380.809,-112.324C363.649,-103.664 337.054,-90.2424 317.253,-80.249"/>
<polygon fill="midnightblue" stroke="midnightblue" points="318.653,-77.0354 308.149,-75.6545 315.499,-83.2847 318.653,-77.0354"/>
</g>
<!-- Node9&#45;&gt;Node4 -->
<g id="edge12" class="edge"><title>Node9&#45;&gt;Node4</title>
<path fill="none" stroke="midnightblue" d="M395.097,-112.368C389.099,-94.5366 375.227,-53.2953 367.146,-29.2717"/>
<polygon fill="midnightblue" stroke="midnightblue" points="370.395,-27.9537 363.89,-19.5914 363.761,-30.1855 370.395,-27.9537"/>
</g>
<!-- Node9&#45;&gt;Node6 -->
<g id="edge13" class="edge"><title>Node9&#45;&gt;Node6</title>
<path fill="none" stroke="midnightblue" d="M400.422,-112.12C403.888,-99.5579 410.556,-75.9106 417,-56 419.876,-47.114 423.319,-37.3357 426.273,-29.1706"/>
<polygon fill="midnightblue" stroke="midnightblue" points="429.634,-30.1706 429.785,-19.5768 423.06,-27.7636 429.634,-30.1706"/>
</g>
<!-- Node9&#45;&gt;Node10 -->
<g id="edge11" class="edge"><title>Node9&#45;&gt;Node10</title>
<path fill="none" stroke="midnightblue" d="M417.014,-112.444C436.588,-103.636 467.308,-89.8116 489.729,-79.722"/>
<polygon fill="midnightblue" stroke="midnightblue" points="491.392,-82.8119 499.075,-75.5164 488.519,-76.4284 491.392,-82.8119"/>
</g>
<!-- Node11 -->
<g id="node12" class="node"><title>Node11</title>
<polygon fill="white" stroke="#bfbfbf" points="426,-56.5 426,-75.5 478,-75.5 478,-56.5 426,-56.5"/>
<text text-anchor="middle" x="452" y="-63.5" font-family="Helvetica,sans-Serif" font-size="10.00">ostream</text>
</g>
<!-- Node9&#45;&gt;Node11 -->
<g id="edge14" class="edge"><title>Node9&#45;&gt;Node11</title>
<path fill="none" stroke="midnightblue" d="M406.917,-112.083C414.78,-104.22 426.431,-92.5688 435.919,-83.0813"/>
<polygon fill="midnightblue" stroke="midnightblue" points="438.653,-85.2971 443.249,-75.7511 433.703,-80.3473 438.653,-85.2971"/>
</g>
</g>
</svg>
