<?xml version="1.0" encoding="UTF-8" standalone="no"?>
<!DOCTYPE svg PUBLIC "-//W3C//DTD SVG 1.1//EN"
 "http://www.w3.org/Graphics/SVG/1.1/DTD/svg11.dtd">
<!-- Generated by graphviz version 2.36.0 (20140111.2315)
 -->
<!-- Title: src/calibration/gui/Indicator.cc Pages: 1 -->
<svg width="273pt" height="220pt"
 viewBox="0.00 0.00 273.00 220.00" xmlns="http://www.w3.org/2000/svg" xmlns:xlink="http://www.w3.org/1999/xlink">
<g id="graph0" class="graph" transform="scale(1 1) rotate(0) translate(4 216)">
<title>src/calibration/gui/Indicator.cc</title>
<polygon fill="white" stroke="none" points="-4,4 -4,-216 269,-216 269,4 -4,4"/>
<!-- Node0 -->
<g id="node1" class="node"><title>Node0</title>
<polygon fill="#bfbfbf" stroke="black" points="152.5,-181 152.5,-211 245.5,-211 245.5,-181 152.5,-181"/>
<text text-anchor="start" x="160.5" y="-199" font-family="Helvetica,sans-Serif" font-size="10.00">src/calibration/gui</text>
<text text-anchor="middle" x="199" y="-188" font-family="Helvetica,sans-Serif" font-size="10.00">/Indicator.cc</text>
</g>
<!-- Node1 -->
<g id="node2" class="node"><title>Node1</title>
<g id="a_node2"><a xlink:href="_indicator_8h.html" target="_top" xlink:title="Indicator.h">
<polygon fill="white" stroke="black" points="130,-124.5 130,-143.5 192,-143.5 192,-124.5 130,-124.5"/>
<text text-anchor="middle" x="161" y="-131.5" font-family="Helvetica,sans-Serif" font-size="10.00">Indicator.h</text>
</a>
</g>
</g>
<!-- Node0&#45;&gt;Node1 -->
<g id="edge1" class="edge"><title>Node0&#45;&gt;Node1</title>
<path fill="none" stroke="midnightblue" d="M189.995,-180.781C184.587,-172.242 177.668,-161.318 171.946,-152.283"/>
<polygon fill="midnightblue" stroke="midnightblue" points="174.837,-150.306 166.529,-143.731 168.923,-154.051 174.837,-150.306"/>
</g>
<!-- Node6 -->
<g id="node7" class="node"><title>Node6</title>
<polygon fill="white" stroke="#bfbfbf" points="210.5,-124.5 210.5,-143.5 265.5,-143.5 265.5,-124.5 210.5,-124.5"/>
<text text-anchor="middle" x="238" y="-131.5" font-family="Helvetica,sans-Serif" font-size="10.00">TLatex.h</text>
</g>
<!-- Node0&#45;&gt;Node6 -->
<g id="edge6" class="edge"><title>Node0&#45;&gt;Node6</title>
<path fill="none" stroke="midnightblue" d="M208.242,-180.781C213.793,-172.242 220.893,-161.318 226.766,-152.283"/>
<polygon fill="midnightblue" stroke="midnightblue" points="229.81,-154.022 232.325,-143.731 223.941,-150.208 229.81,-154.022"/>
</g>
<!-- Node2 -->
<g id="node3" class="node"><title>Node2</title>
<g id="a_node3"><a xlink:href="_indicator__traits_8h.html" target="_top" xlink:title="calibration/gui/Indicator\l_traits.h">
<polygon fill="white" stroke="black" points="-0.5,-57 -0.5,-87 116.5,-87 116.5,-57 -0.5,-57"/>
<text text-anchor="start" x="7.5" y="-75" font-family="Helvetica,sans-Serif" font-size="10.00">calibration/gui/Indicator</text>
<text text-anchor="middle" x="58" y="-64" font-family="Helvetica,sans-Serif" font-size="10.00">_traits.h</text>
</a>
</g>
</g>
<!-- Node1&#45;&gt;Node2 -->
<g id="edge2" class="edge"><title>Node1&#45;&gt;Node2</title>
<path fill="none" stroke="midnightblue" d="M146.243,-124.403C131.902,-116.049 109.629,-103.075 91.0487,-92.2517"/>
<polygon fill="midnightblue" stroke="midnightblue" points="92.6776,-89.1501 82.2751,-87.1408 89.1542,-95.1987 92.6776,-89.1501"/>
</g>
<!-- Node4 -->
<g id="node5" class="node"><title>Node4</title>
<polygon fill="white" stroke="#bfbfbf" points="135,-62.5 135,-81.5 187,-81.5 187,-62.5 135,-62.5"/>
<text text-anchor="middle" x="161" y="-69.5" font-family="Helvetica,sans-Serif" font-size="10.00">memory</text>
</g>
<!-- Node1&#45;&gt;Node4 -->
<g id="edge4" class="edge"><title>Node1&#45;&gt;Node4</title>
<path fill="none" stroke="midnightblue" d="M161,-124.403C161,-115.938 161,-102.728 161,-91.8199"/>
<polygon fill="midnightblue" stroke="midnightblue" points="164.5,-91.5806 161,-81.5806 157.5,-91.5806 164.5,-91.5806"/>
</g>
<!-- Node5 -->
<g id="node6" class="node"><title>Node5</title>
<polygon fill="white" stroke="#bfbfbf" points="205.5,-62.5 205.5,-81.5 254.5,-81.5 254.5,-62.5 205.5,-62.5"/>
<text text-anchor="middle" x="230" y="-69.5" font-family="Helvetica,sans-Serif" font-size="10.00">TLine.h</text>
</g>
<!-- Node1&#45;&gt;Node5 -->
<g id="edge5" class="edge"><title>Node1&#45;&gt;Node5</title>
<path fill="none" stroke="midnightblue" d="M170.886,-124.403C181.646,-115.047 199.071,-99.8948 212.221,-88.4599"/>
<polygon fill="midnightblue" stroke="midnightblue" points="214.883,-90.7835 220.132,-81.5806 210.29,-85.5013 214.883,-90.7835"/>
</g>
<!-- Node3 -->
<g id="node4" class="node"><title>Node3</title>
<polygon fill="white" stroke="#bfbfbf" points="30,-0.5 30,-19.5 86,-19.5 86,-0.5 30,-0.5"/>
<text text-anchor="middle" x="58" y="-7.5" font-family="Helvetica,sans-Serif" font-size="10.00">Rtypes.h</text>
</g>
<!-- Node2&#45;&gt;Node3 -->
<g id="edge3" class="edge"><title>Node2&#45;&gt;Node3</title>
<path fill="none" stroke="midnightblue" d="M58,-56.7808C58,-48.7812 58,-38.6887 58,-30.0168"/>
<polygon fill="midnightblue" stroke="midnightblue" points="61.5001,-29.7305 58,-19.7305 54.5001,-29.7306 61.5001,-29.7305"/>
</g>
</g>
</svg>
