<?xml version="1.0" encoding="UTF-8" standalone="no"?>
<!DOCTYPE svg PUBLIC "-//W3C//DTD SVG 1.1//EN"
 "http://www.w3.org/Graphics/SVG/1.1/DTD/svg11.dtd">
<!-- Generated by graphviz version 2.36.0 (20140111.2315)
 -->
<!-- Title: src/analysis/utils/uncertainties/Interpolated.h Pages: 1 -->
<svg width="2892pt" height="186pt"
 viewBox="0.00 0.00 2892.00 186.00" xmlns="http://www.w3.org/2000/svg" xmlns:xlink="http://www.w3.org/1999/xlink">
<g id="graph0" class="graph" transform="scale(1 1) rotate(0) translate(4 182)">
<title>src/analysis/utils/uncertainties/Interpolated.h</title>
<polygon fill="white" stroke="none" points="-4,4 -4,-182 2888,-182 2888,4 -4,4"/>
<!-- Node44 -->
<g id="node1" class="node"><title>Node44</title>
<polygon fill="#bfbfbf" stroke="black" points="1344.5,-147 1344.5,-177 1481.5,-177 1481.5,-147 1344.5,-147"/>
<text text-anchor="start" x="1352.5" y="-165" font-family="Helvetica,sans-Serif" font-size="10.00">src/analysis/utils</text>
<text text-anchor="middle" x="1413" y="-154" font-family="Helvetica,sans-Serif" font-size="10.00">/uncertainties/Interpolated.h</text>
</g>
<!-- Node45 -->
<g id="node2" class="node"><title>Node45</title>
<g id="a_node2"><a xlink:href="_p_i_d___t_a_p_s_veto___kinfit_8cc.html" target="_top" xlink:title="src/analysis/physics\l/calibration/PID_TAPSVeto\l_Kinfit.cc">
<polygon fill="white" stroke="black" points="0,-68.5 0,-109.5 136,-109.5 136,-68.5 0,-68.5"/>
<text text-anchor="start" x="8" y="-97.5" font-family="Helvetica,sans-Serif" font-size="10.00">src/analysis/physics</text>
<text text-anchor="start" x="8" y="-86.5" font-family="Helvetica,sans-Serif" font-size="10.00">/calibration/PID_TAPSVeto</text>
<text text-anchor="middle" x="68" y="-75.5" font-family="Helvetica,sans-Serif" font-size="10.00">_Kinfit.cc</text>
</a>
</g>
</g>
<!-- Node44&#45;&gt;Node45 -->
<g id="edge1" class="edge"><title>Node44&#45;&gt;Node45</title>
<path fill="none" stroke="midnightblue" d="M1334.24,-160.037C1094.53,-156.756 376.098,-144.256 145,-110 142.131,-109.575 139.214,-109.085 136.278,-108.543"/>
<polygon fill="midnightblue" stroke="midnightblue" points="1334.23,-163.537 1344.27,-160.172 1334.32,-156.537 1334.23,-163.537"/>
</g>
<!-- Node46 -->
<g id="node3" class="node"><title>Node46</title>
<g id="a_node3"><a xlink:href="_kin_fit_i_m_check_8cc.html" target="_top" xlink:title="src/analysis/physics\l/check/KinFitIMCheck.cc">
<polygon fill="white" stroke="black" points="154,-74 154,-104 282,-104 282,-74 154,-74"/>
<text text-anchor="start" x="162" y="-92" font-family="Helvetica,sans-Serif" font-size="10.00">src/analysis/physics</text>
<text text-anchor="middle" x="218" y="-81" font-family="Helvetica,sans-Serif" font-size="10.00">/check/KinFitIMCheck.cc</text>
</a>
</g>
</g>
<!-- Node44&#45;&gt;Node46 -->
<g id="edge2" class="edge"><title>Node44&#45;&gt;Node46</title>
<path fill="none" stroke="midnightblue" d="M1333.96,-159.687C1113.08,-155.656 492.334,-141.751 291,-110 281.914,-108.567 272.339,-106.422 263.221,-104.062"/>
<polygon fill="midnightblue" stroke="midnightblue" points="1334.11,-163.19 1344.18,-159.872 1334.24,-156.192 1334.11,-163.19"/>
</g>
<!-- Node47 -->
<g id="node4" class="node"><title>Node47</title>
<g id="a_node4"><a xlink:href="_p_i_d_efficiency_check_8cc.html" target="_top" xlink:title="src/analysis/physics\l/check/PIDEfficiencyCheck.cc">
<polygon fill="white" stroke="black" points="300,-74 300,-104 452,-104 452,-74 300,-74"/>
<text text-anchor="start" x="308" y="-92" font-family="Helvetica,sans-Serif" font-size="10.00">src/analysis/physics</text>
<text text-anchor="middle" x="376" y="-81" font-family="Helvetica,sans-Serif" font-size="10.00">/check/PIDEfficiencyCheck.cc</text>
</a>
</g>
</g>
<!-- Node44&#45;&gt;Node47 -->
<g id="edge3" class="edge"><title>Node44&#45;&gt;Node47</title>
<path fill="none" stroke="midnightblue" d="M1334.03,-161.491C1170.34,-161.473 782.445,-156.055 461,-110 450.645,-108.516 439.698,-106.38 429.229,-104.05"/>
<polygon fill="midnightblue" stroke="midnightblue" points="1334.49,-164.991 1344.49,-161.485 1334.48,-157.991 1334.49,-164.991"/>
</g>
<!-- Node48 -->
<g id="node5" class="node"><title>Node48</title>
<g id="a_node5"><a xlink:href="_three_photon_check_8cc.html" target="_top" xlink:title="src/analysis/physics\l/check/ThreePhotonCheck.cc">
<polygon fill="white" stroke="black" points="470,-74 470,-104 616,-104 616,-74 470,-74"/>
<text text-anchor="start" x="478" y="-92" font-family="Helvetica,sans-Serif" font-size="10.00">src/analysis/physics</text>
<text text-anchor="middle" x="543" y="-81" font-family="Helvetica,sans-Serif" font-size="10.00">/check/ThreePhotonCheck.cc</text>
</a>
</g>
</g>
<!-- Node44&#45;&gt;Node48 -->
<g id="edge4" class="edge"><title>Node44&#45;&gt;Node48</title>
<path fill="none" stroke="midnightblue" d="M1334.04,-160.356C1191.72,-158.203 883.03,-149 626,-110 616.035,-108.488 605.508,-106.368 595.42,-104.07"/>
<polygon fill="midnightblue" stroke="midnightblue" points="1334.36,-163.861 1344.41,-160.505 1334.47,-156.862 1334.36,-163.861"/>
</g>
<!-- Node49 -->
<g id="node6" class="node"><title>Node49</title>
<g id="a_node6"><a xlink:href="_etap_omega_g_8cc.html" target="_top" xlink:title="src/analysis/physics\l/etaprime/EtapOmegaG.cc">
<polygon fill="white" stroke="black" points="634.5,-74 634.5,-104 767.5,-104 767.5,-74 634.5,-74"/>
<text text-anchor="start" x="642.5" y="-92" font-family="Helvetica,sans-Serif" font-size="10.00">src/analysis/physics</text>
<text text-anchor="middle" x="701" y="-81" font-family="Helvetica,sans-Serif" font-size="10.00">/etaprime/EtapOmegaG.cc</text>
</a>
</g>
</g>
<!-- Node44&#45;&gt;Node49 -->
<g id="edge5" class="edge"><title>Node44&#45;&gt;Node49</title>
<path fill="none" stroke="midnightblue" d="M1334.01,-159.16C1213.21,-155.336 975.685,-143.834 777,-110 767.988,-108.465 758.488,-106.364 749.372,-104.098"/>
<polygon fill="midnightblue" stroke="midnightblue" points="1334.17,-162.666 1344.27,-159.475 1334.38,-155.669 1334.17,-162.666"/>
</g>
<!-- Node50 -->
<g id="node7" class="node"><title>Node50</title>
<g id="a_node7"><a xlink:href="_etap_omega_g__simple_8cc.html" target="_top" xlink:title="src/analysis/physics\l/etaprime/EtapOmegaG\l_simple.cc">
<polygon fill="white" stroke="black" points="785.5,-68.5 785.5,-109.5 904.5,-109.5 904.5,-68.5 785.5,-68.5"/>
<text text-anchor="start" x="793.5" y="-97.5" font-family="Helvetica,sans-Serif" font-size="10.00">src/analysis/physics</text>
<text text-anchor="start" x="793.5" y="-86.5" font-family="Helvetica,sans-Serif" font-size="10.00">/etaprime/EtapOmegaG</text>
<text text-anchor="middle" x="845" y="-75.5" font-family="Helvetica,sans-Serif" font-size="10.00">_simple.cc</text>
</a>
</g>
</g>
<!-- Node44&#45;&gt;Node50 -->
<g id="edge6" class="edge"><title>Node44&#45;&gt;Node50</title>
<path fill="none" stroke="midnightblue" d="M1334.01,-157.33C1235.08,-151.728 1060.75,-138.526 914,-110 910.939,-109.405 907.818,-108.736 904.678,-108.012"/>
<polygon fill="midnightblue" stroke="midnightblue" points="1334.05,-160.837 1344.23,-157.897 1334.43,-153.848 1334.05,-160.837"/>
</g>
<!-- Node51 -->
<g id="node8" class="node"><title>Node51</title>
<g id="a_node8"><a xlink:href="etaprime__dalitz_8cc.html" target="_top" xlink:title="src/analysis/physics\l/etaprime/etaprime_dalitz.cc">
<polygon fill="white" stroke="black" points="923,-74 923,-104 1063,-104 1063,-74 923,-74"/>
<text text-anchor="start" x="931" y="-92" font-family="Helvetica,sans-Serif" font-size="10.00">src/analysis/physics</text>
<text text-anchor="middle" x="993" y="-81" font-family="Helvetica,sans-Serif" font-size="10.00">/etaprime/etaprime_dalitz.cc</text>
</a>
</g>
</g>
<!-- Node44&#45;&gt;Node51 -->
<g id="edge7" class="edge"><title>Node44&#45;&gt;Node51</title>
<path fill="none" stroke="midnightblue" d="M1334.34,-151.381C1265.19,-142.407 1161.99,-127.755 1073,-110 1064.3,-108.263 1055.11,-106.195 1046.2,-104.057"/>
<polygon fill="midnightblue" stroke="midnightblue" points="1333.92,-154.856 1344.29,-152.664 1334.82,-147.914 1333.92,-154.856"/>
</g>
<!-- Node52 -->
<g id="node9" class="node"><title>Node52</title>
<g id="a_node9"><a xlink:href="_omega___eta_g_8cc.html" target="_top" xlink:title="src/analysis/physics\l/omega/Omega_EtaG.cc">
<polygon fill="white" stroke="black" points="1081.5,-74 1081.5,-104 1206.5,-104 1206.5,-74 1081.5,-74"/>
<text text-anchor="start" x="1089.5" y="-92" font-family="Helvetica,sans-Serif" font-size="10.00">src/analysis/physics</text>
<text text-anchor="middle" x="1144" y="-81" font-family="Helvetica,sans-Serif" font-size="10.00">/omega/Omega_EtaG.cc</text>
</a>
</g>
</g>
<!-- Node44&#45;&gt;Node52 -->
<g id="edge8" class="edge"><title>Node44&#45;&gt;Node52</title>
<path fill="none" stroke="midnightblue" d="M1347.72,-144.408C1309.32,-134.571 1259.85,-121.766 1216,-110 1208.98,-108.117 1201.59,-106.101 1194.32,-104.1"/>
<polygon fill="midnightblue" stroke="midnightblue" points="1347.18,-147.882 1357.74,-146.97 1348.92,-141.101 1347.18,-147.882"/>
</g>
<!-- Node53 -->
<g id="node10" class="node"><title>Node53</title>
<g id="a_node10"><a xlink:href="_just_pi0_8cc.html" target="_top" xlink:title="src/analysis/physics\l/pi0/JustPi0.cc">
<polygon fill="white" stroke="black" points="1225,-74 1225,-104 1331,-104 1331,-74 1225,-74"/>
<text text-anchor="start" x="1233" y="-92" font-family="Helvetica,sans-Serif" font-size="10.00">src/analysis/physics</text>
<text text-anchor="middle" x="1278" y="-81" font-family="Helvetica,sans-Serif" font-size="10.00">/pi0/JustPi0.cc</text>
</a>
</g>
</g>
<!-- Node44&#45;&gt;Node53 -->
<g id="edge9" class="edge"><title>Node44&#45;&gt;Node53</title>
<path fill="none" stroke="midnightblue" d="M1377.36,-142.255C1354.71,-130.343 1325.85,-115.166 1305.08,-104.241"/>
<polygon fill="midnightblue" stroke="midnightblue" points="1375.85,-145.416 1386.33,-146.973 1379.11,-139.22 1375.85,-145.416"/>
</g>
<!-- Node54 -->
<g id="node11" class="node"><title>Node54</title>
<g id="a_node11"><a xlink:href="sigma_plus_8cc.html" target="_top" xlink:title="src/analysis/physics\l/production/sigmaPlus.cc">
<polygon fill="white" stroke="black" points="1349.5,-74 1349.5,-104 1476.5,-104 1476.5,-74 1349.5,-74"/>
<text text-anchor="start" x="1357.5" y="-92" font-family="Helvetica,sans-Serif" font-size="10.00">src/analysis/physics</text>
<text text-anchor="middle" x="1413" y="-81" font-family="Helvetica,sans-Serif" font-size="10.00">/production/sigmaPlus.cc</text>
</a>
</g>
</g>
<!-- Node44&#45;&gt;Node54 -->
<g id="edge10" class="edge"><title>Node44&#45;&gt;Node54</title>
<path fill="none" stroke="midnightblue" d="M1413,-136.898C1413,-126.131 1413,-113.801 1413,-104.486"/>
<polygon fill="midnightblue" stroke="midnightblue" points="1409.5,-136.973 1413,-146.973 1416.5,-136.973 1409.5,-136.973"/>
</g>
<!-- Node55 -->
<g id="node12" class="node"><title>Node55</title>
<g id="a_node12"><a xlink:href="single_pi0_8cc.html" target="_top" xlink:title="src/analysis/physics\l/production/singlePi0.cc">
<polygon fill="white" stroke="black" points="1494.5,-74 1494.5,-104 1615.5,-104 1615.5,-74 1494.5,-74"/>
<text text-anchor="start" x="1502.5" y="-92" font-family="Helvetica,sans-Serif" font-size="10.00">src/analysis/physics</text>
<text text-anchor="middle" x="1555" y="-81" font-family="Helvetica,sans-Serif" font-size="10.00">/production/singlePi0.cc</text>
</a>
</g>
</g>
<!-- Node44&#45;&gt;Node55 -->
<g id="edge11" class="edge"><title>Node44&#45;&gt;Node55</title>
<path fill="none" stroke="midnightblue" d="M1450.17,-142.414C1474.04,-130.478 1504.57,-115.215 1526.52,-104.241"/>
<polygon fill="midnightblue" stroke="midnightblue" points="1448.43,-139.37 1441.05,-146.973 1451.56,-145.631 1448.43,-139.37"/>
</g>
<!-- Node56 -->
<g id="node13" class="node"><title>Node56</title>
<g id="a_node13"><a xlink:href="triple_pi0_8cc.html" target="_top" xlink:title="src/analysis/physics\l/production/triplePi0.cc">
<polygon fill="white" stroke="black" points="1634,-74 1634,-104 1750,-104 1750,-74 1634,-74"/>
<text text-anchor="start" x="1642" y="-92" font-family="Helvetica,sans-Serif" font-size="10.00">src/analysis/physics</text>
<text text-anchor="middle" x="1692" y="-81" font-family="Helvetica,sans-Serif" font-size="10.00">/production/triplePi0.cc</text>
</a>
</g>
</g>
<!-- Node44&#45;&gt;Node56 -->
<g id="edge12" class="edge"><title>Node44&#45;&gt;Node56</title>
<path fill="none" stroke="midnightblue" d="M1484.49,-144.637C1525.45,-135.032 1577.76,-122.381 1624,-110 1630.89,-108.154 1638.16,-106.118 1645.26,-104.073"/>
<polygon fill="midnightblue" stroke="midnightblue" points="1483.54,-141.264 1474.6,-146.949 1485.13,-148.081 1483.54,-141.264"/>
</g>
<!-- Node57 -->
<g id="node14" class="node"><title>Node57</title>
<g id="a_node14"><a xlink:href="_etap_dalitz_m_c_8cc.html" target="_top" xlink:title="src/analysis/physics\l/scratch/wagner/EtapDalitzMC.cc">
<polygon fill="white" stroke="black" points="1768,-74 1768,-104 1932,-104 1932,-74 1768,-74"/>
<text text-anchor="start" x="1776" y="-92" font-family="Helvetica,sans-Serif" font-size="10.00">src/analysis/physics</text>
<text text-anchor="middle" x="1850" y="-81" font-family="Helvetica,sans-Serif" font-size="10.00">/scratch/wagner/EtapDalitzMC.cc</text>
</a>
</g>
</g>
<!-- Node44&#45;&gt;Node57 -->
<g id="edge13" class="edge"><title>Node44&#45;&gt;Node57</title>
<path fill="none" stroke="midnightblue" d="M1491.71,-150.9C1561.8,-141.541 1667.02,-126.594 1758,-110 1767.81,-108.211 1778.17,-106.139 1788.26,-104.02"/>
<polygon fill="midnightblue" stroke="midnightblue" points="1491.08,-147.453 1481.63,-152.24 1492,-154.392 1491.08,-147.453"/>
</g>
<!-- Node58 -->
<g id="node15" class="node"><title>Node58</title>
<g id="a_node15"><a xlink:href="_proton_vertex_test_8cc.html" target="_top" xlink:title="src/analysis/physics\l/scratch/wolfes/ProtonVertex\lTest.cc">
<polygon fill="white" stroke="black" points="1950.5,-68.5 1950.5,-109.5 2093.5,-109.5 2093.5,-68.5 1950.5,-68.5"/>
<text text-anchor="start" x="1958.5" y="-97.5" font-family="Helvetica,sans-Serif" font-size="10.00">src/analysis/physics</text>
<text text-anchor="start" x="1958.5" y="-86.5" font-family="Helvetica,sans-Serif" font-size="10.00">/scratch/wolfes/ProtonVertex</text>
<text text-anchor="middle" x="2022" y="-75.5" font-family="Helvetica,sans-Serif" font-size="10.00">Test.cc</text>
</a>
</g>
</g>
<!-- Node44&#45;&gt;Node58 -->
<g id="edge14" class="edge"><title>Node44&#45;&gt;Node58</title>
<path fill="none" stroke="midnightblue" d="M1491.84,-156.98C1595.46,-150.877 1782.86,-137.012 1941,-110 1944,-109.488 1947.05,-108.925 1950.13,-108.324"/>
<polygon fill="midnightblue" stroke="midnightblue" points="1491.55,-153.491 1481.77,-157.564 1491.96,-160.479 1491.55,-153.491"/>
</g>
<!-- Node59 -->
<g id="node16" class="node"><title>Node59</title>
<g id="a_node16"><a xlink:href="_test_sigma_plus_fitter_8cc.html" target="_top" xlink:title="src/analysis/physics\l/test/TestSigmaPlusFitter.cc">
<polygon fill="white" stroke="black" points="2112,-74 2112,-104 2254,-104 2254,-74 2112,-74"/>
<text text-anchor="start" x="2120" y="-92" font-family="Helvetica,sans-Serif" font-size="10.00">src/analysis/physics</text>
<text text-anchor="middle" x="2183" y="-81" font-family="Helvetica,sans-Serif" font-size="10.00">/test/TestSigmaPlusFitter.cc</text>
</a>
</g>
</g>
<!-- Node44&#45;&gt;Node59 -->
<g id="edge15" class="edge"><title>Node44&#45;&gt;Node59</title>
<path fill="none" stroke="midnightblue" d="M1492.05,-159.462C1620.66,-155.997 1882.88,-144.908 2102,-110 2111.73,-108.45 2122,-106.313 2131.85,-104.009"/>
<polygon fill="midnightblue" stroke="midnightblue" points="1491.8,-155.968 1481.9,-159.728 1491.99,-162.965 1491.8,-155.968"/>
</g>
<!-- Node60 -->
<g id="node17" class="node"><title>Node60</title>
<g id="a_node17"><a xlink:href="analysis_2physics_2tunings_2_interpolated_pulls_8h.html" target="_top" xlink:title="src/analysis/physics\l/tunings/InterpolatedPulls.h">
<polygon fill="white" stroke="black" points="2272.5,-74 2272.5,-104 2407.5,-104 2407.5,-74 2272.5,-74"/>
<text text-anchor="start" x="2280.5" y="-92" font-family="Helvetica,sans-Serif" font-size="10.00">src/analysis/physics</text>
<text text-anchor="middle" x="2340" y="-81" font-family="Helvetica,sans-Serif" font-size="10.00">/tunings/InterpolatedPulls.h</text>
</a>
</g>
</g>
<!-- Node44&#45;&gt;Node60 -->
<g id="edge16" class="edge"><title>Node44&#45;&gt;Node60</title>
<path fill="none" stroke="midnightblue" d="M1491.6,-161.359C1642.24,-160.928 1981.63,-154.549 2263,-110 2272.41,-108.51 2282.35,-106.37 2291.83,-104.039"/>
<polygon fill="midnightblue" stroke="midnightblue" points="1491.51,-157.859 1481.52,-161.38 1491.53,-164.859 1491.51,-157.859"/>
</g>
<!-- Node62 -->
<g id="node19" class="node"><title>Node62</title>
<g id="a_node19"><a xlink:href="physics_2tunings_2_trigger_simulation_8cc.html" target="_top" xlink:title="src/analysis/physics\l/tunings/TriggerSimulation.cc">
<polygon fill="white" stroke="black" points="2425.5,-74 2425.5,-104 2568.5,-104 2568.5,-74 2425.5,-74"/>
<text text-anchor="start" x="2433.5" y="-92" font-family="Helvetica,sans-Serif" font-size="10.00">src/analysis/physics</text>
<text text-anchor="middle" x="2497" y="-81" font-family="Helvetica,sans-Serif" font-size="10.00">/tunings/TriggerSimulation.cc</text>
</a>
</g>
</g>
<!-- Node44&#45;&gt;Node62 -->
<g id="edge18" class="edge"><title>Node44&#45;&gt;Node62</title>
<path fill="none" stroke="midnightblue" d="M1491.71,-158.944C1695.73,-153.304 2238.1,-136.239 2416,-110 2425.89,-108.542 2436.33,-106.416 2446.31,-104.09"/>
<polygon fill="midnightblue" stroke="midnightblue" points="1491.57,-155.447 1481.67,-159.22 1491.76,-162.444 1491.57,-155.447"/>
</g>
<!-- Node63 -->
<g id="node20" class="node"><title>Node63</title>
<g id="a_node20"><a xlink:href="_interpolated_8cc.html" target="_top" xlink:title="src/analysis/utils\l/uncertainties/Interpolated.cc">
<polygon fill="white" stroke="black" points="2586.5,-74 2586.5,-104 2729.5,-104 2729.5,-74 2586.5,-74"/>
<text text-anchor="start" x="2594.5" y="-92" font-family="Helvetica,sans-Serif" font-size="10.00">src/analysis/utils</text>
<text text-anchor="middle" x="2658" y="-81" font-family="Helvetica,sans-Serif" font-size="10.00">/uncertainties/Interpolated.cc</text>
</a>
</g>
</g>
<!-- Node44&#45;&gt;Node63 -->
<g id="edge19" class="edge"><title>Node44&#45;&gt;Node63</title>
<path fill="none" stroke="midnightblue" d="M1491.81,-159.584C1718.04,-155.194 2366.75,-140.257 2577,-110 2587.04,-108.556 2597.64,-106.406 2607.75,-104.044"/>
<polygon fill="midnightblue" stroke="midnightblue" points="1491.61,-156.087 1481.68,-159.779 1491.74,-163.085 1491.61,-156.087"/>
</g>
<!-- Node64 -->
<g id="node21" class="node"><title>Node64</title>
<g id="a_node21"><a xlink:href="root-addons_2analysis__codes_2_interpolated_pulls_8cc.html" target="_top" xlink:title="src/root&#45;addons/analysis\l_codes/InterpolatedPulls.cc">
<polygon fill="white" stroke="black" points="2747.5,-74 2747.5,-104 2884.5,-104 2884.5,-74 2747.5,-74"/>
<text text-anchor="start" x="2755.5" y="-92" font-family="Helvetica,sans-Serif" font-size="10.00">src/root&#45;addons/analysis</text>
<text text-anchor="middle" x="2816" y="-81" font-family="Helvetica,sans-Serif" font-size="10.00">_codes/InterpolatedPulls.cc</text>
</a>
</g>
</g>
<!-- Node44&#45;&gt;Node64 -->
<g id="edge20" class="edge"><title>Node44&#45;&gt;Node64</title>
<path fill="none" stroke="midnightblue" d="M1491.83,-160.162C1738.78,-157.192 2495.32,-145.372 2738,-110 2747.68,-108.589 2757.9,-106.454 2767.64,-104.096"/>
<polygon fill="midnightblue" stroke="midnightblue" points="1491.47,-156.666 1481.51,-160.285 1491.55,-163.666 1491.47,-156.666"/>
</g>
<!-- Node61 -->
<g id="node18" class="node"><title>Node61</title>
<g id="a_node18"><a xlink:href="analysis_2physics_2tunings_2_interpolated_pulls_8cc.html" target="_top" xlink:title="src/analysis/physics\l/tunings/InterpolatedPulls.cc">
<polygon fill="white" stroke="black" points="2270,-1 2270,-31 2410,-31 2410,-1 2270,-1"/>
<text text-anchor="start" x="2278" y="-19" font-family="Helvetica,sans-Serif" font-size="10.00">src/analysis/physics</text>
<text text-anchor="middle" x="2340" y="-8" font-family="Helvetica,sans-Serif" font-size="10.00">/tunings/InterpolatedPulls.cc</text>
</a>
</g>
</g>
<!-- Node60&#45;&gt;Node61 -->
<g id="edge17" class="edge"><title>Node60&#45;&gt;Node61</title>
<path fill="none" stroke="midnightblue" d="M2340,-63.8976C2340,-53.1314 2340,-40.8005 2340,-31.4856"/>
<polygon fill="midnightblue" stroke="midnightblue" points="2336.5,-63.9727 2340,-73.9727 2343.5,-63.9727 2336.5,-63.9727"/>
</g>
</g>
</svg>
