<?xml version="1.0" encoding="UTF-8" standalone="no"?>
<!DOCTYPE svg PUBLIC "-//W3C//DTD SVG 1.1//EN"
 "http://www.w3.org/Graphics/SVG/1.1/DTD/svg11.dtd">
<!-- Generated by graphviz version 2.36.0 (20140111.2315)
 -->
<!-- Title: src/base/Interpolator.h Pages: 1 -->
<svg width="2892pt" height="310pt"
 viewBox="0.00 0.00 2892.00 310.00" xmlns="http://www.w3.org/2000/svg" xmlns:xlink="http://www.w3.org/1999/xlink">
<g id="graph0" class="graph" transform="scale(1 1) rotate(0) translate(4 306)">
<title>src/base/Interpolator.h</title>
<polygon fill="white" stroke="none" points="-4,4 -4,-306 2888,-306 2888,4 -4,4"/>
<!-- Node12 -->
<g id="node1" class="node"><title>Node12</title>
<polygon fill="#bfbfbf" stroke="black" points="1321,-282.5 1321,-301.5 1435,-301.5 1435,-282.5 1321,-282.5"/>
<text text-anchor="middle" x="1378" y="-289.5" font-family="Helvetica,sans-Serif" font-size="10.00">src/base/Interpolator.h</text>
</g>
<!-- Node13 -->
<g id="node2" class="node"><title>Node13</title>
<g id="a_node2"><a xlink:href="_interpolated_8cc.html" target="_top" xlink:title="src/analysis/utils\l/uncertainties/Interpolated.cc">
<polygon fill="white" stroke="black" points="-0.5,-74 -0.5,-104 142.5,-104 142.5,-74 -0.5,-74"/>
<text text-anchor="start" x="7.5" y="-92" font-family="Helvetica,sans-Serif" font-size="10.00">src/analysis/utils</text>
<text text-anchor="middle" x="71" y="-81" font-family="Helvetica,sans-Serif" font-size="10.00">/uncertainties/Interpolated.cc</text>
</a>
</g>
</g>
<!-- Node12&#45;&gt;Node13 -->
<g id="edge1" class="edge"><title>Node12&#45;&gt;Node13</title>
<path fill="none" stroke="midnightblue" d="M1310.8,-286.697C1151.28,-275.735 737.708,-242.925 398,-178 295.213,-158.355 177.273,-123.485 114.945,-104.059"/>
<polygon fill="midnightblue" stroke="midnightblue" points="1310.72,-290.2 1320.94,-287.387 1311.2,-283.216 1310.72,-290.2"/>
</g>
<!-- Node14 -->
<g id="node3" class="node"><title>Node14</title>
<g id="a_node3"><a xlink:href="_clipped_interpolator_wrapper_8h.html" target="_top" xlink:title="src/base/ClippedInterpolator\lWrapper.h">
<polygon fill="white" stroke="black" points="1235.5,-215 1235.5,-245 1374.5,-245 1374.5,-215 1235.5,-215"/>
<text text-anchor="start" x="1243.5" y="-233" font-family="Helvetica,sans-Serif" font-size="10.00">src/base/ClippedInterpolator</text>
<text text-anchor="middle" x="1305" y="-222" font-family="Helvetica,sans-Serif" font-size="10.00">Wrapper.h</text>
</a>
</g>
</g>
<!-- Node12&#45;&gt;Node14 -->
<g id="edge2" class="edge"><title>Node12&#45;&gt;Node14</title>
<path fill="none" stroke="midnightblue" d="M1359.5,-275.795C1348.04,-266.374 1333.42,-254.356 1322.2,-245.141"/>
<polygon fill="midnightblue" stroke="midnightblue" points="1357.59,-278.758 1367.54,-282.403 1362.04,-273.35 1357.59,-278.758"/>
</g>
<!-- Node37 -->
<g id="node26" class="node"><title>Node37</title>
<g id="a_node26"><a xlink:href="_interpolator_8cc.html" target="_top" xlink:title="src/base/Interpolator.cc">
<polygon fill="white" stroke="black" points="1392.5,-220.5 1392.5,-239.5 1511.5,-239.5 1511.5,-220.5 1392.5,-220.5"/>
<text text-anchor="middle" x="1452" y="-227.5" font-family="Helvetica,sans-Serif" font-size="10.00">src/base/Interpolator.cc</text>
</a>
</g>
</g>
<!-- Node12&#45;&gt;Node37 -->
<g id="edge27" class="edge"><title>Node12&#45;&gt;Node37</title>
<path fill="none" stroke="midnightblue" d="M1396.69,-275.846C1410.84,-264.371 1429.78,-249.02 1441.42,-239.581"/>
<polygon fill="midnightblue" stroke="midnightblue" points="1394.17,-273.387 1388.6,-282.403 1398.57,-278.824 1394.17,-273.387"/>
</g>
<!-- Node38 -->
<g id="node27" class="node"><title>Node38</title>
<g id="a_node27"><a xlink:href="_test_interpolator_8cc.html" target="_top" xlink:title="test/base/TestInterpolator.cc">
<polygon fill="white" stroke="black" points="1530,-220.5 1530,-239.5 1672,-239.5 1672,-220.5 1530,-220.5"/>
<text text-anchor="middle" x="1601" y="-227.5" font-family="Helvetica,sans-Serif" font-size="10.00">test/base/TestInterpolator.cc</text>
</a>
</g>
</g>
<!-- Node12&#45;&gt;Node38 -->
<g id="edge28" class="edge"><title>Node12&#45;&gt;Node38</title>
<path fill="none" stroke="midnightblue" d="M1419.62,-279.802C1462.93,-268.149 1529.81,-250.155 1569.11,-239.581"/>
<polygon fill="midnightblue" stroke="midnightblue" points="1418.7,-276.425 1409.95,-282.403 1420.52,-283.185 1418.7,-276.425"/>
</g>
<!-- Node14&#45;&gt;Node13 -->
<g id="edge24" class="edge"><title>Node14&#45;&gt;Node13</title>
<path fill="none" stroke="midnightblue" d="M1225.26,-224.605C1037.21,-213.408 551.804,-179.641 152,-110 142.725,-108.384 132.937,-106.3 123.496,-104.089"/>
<polygon fill="midnightblue" stroke="midnightblue" points="1225.14,-228.104 1235.33,-225.2 1225.56,-221.116 1225.14,-228.104"/>
</g>
<!-- Node15 -->
<g id="node4" class="node"><title>Node15</title>
<g id="a_node4"><a xlink:href="_interpolated_8h.html" target="_top" xlink:title="src/analysis/utils\l/uncertainties/Interpolated.h">
<polygon fill="white" stroke="black" points="1236.5,-147 1236.5,-177 1373.5,-177 1373.5,-147 1236.5,-147"/>
<text text-anchor="start" x="1244.5" y="-165" font-family="Helvetica,sans-Serif" font-size="10.00">src/analysis/utils</text>
<text text-anchor="middle" x="1305" y="-154" font-family="Helvetica,sans-Serif" font-size="10.00">/uncertainties/Interpolated.h</text>
</a>
</g>
</g>
<!-- Node14&#45;&gt;Node15 -->
<g id="edge3" class="edge"><title>Node14&#45;&gt;Node15</title>
<path fill="none" stroke="midnightblue" d="M1305,-204.532C1305,-195.361 1305,-185.245 1305,-177.293"/>
<polygon fill="midnightblue" stroke="midnightblue" points="1301.5,-204.679 1305,-214.679 1308.5,-204.679 1301.5,-204.679"/>
</g>
<!-- Node35 -->
<g id="node24" class="node"><title>Node35</title>
<g id="a_node24"><a xlink:href="_clipped_interpolator_wrapper_8cc.html" target="_top" xlink:title="src/base/ClippedInterpolator\lWrapper.cc">
<polygon fill="white" stroke="black" points="1391.5,-147 1391.5,-177 1530.5,-177 1530.5,-147 1391.5,-147"/>
<text text-anchor="start" x="1399.5" y="-165" font-family="Helvetica,sans-Serif" font-size="10.00">src/base/ClippedInterpolator</text>
<text text-anchor="middle" x="1461" y="-154" font-family="Helvetica,sans-Serif" font-size="10.00">Wrapper.cc</text>
</a>
</g>
</g>
<!-- Node14&#45;&gt;Node35 -->
<g id="edge25" class="edge"><title>Node14&#45;&gt;Node35</title>
<path fill="none" stroke="midnightblue" d="M1347.81,-210.89C1373.05,-200.21 1404.51,-186.898 1427.86,-177.022"/>
<polygon fill="midnightblue" stroke="midnightblue" points="1346.31,-207.721 1338.47,-214.841 1349.04,-214.168 1346.31,-207.721"/>
</g>
<!-- Node36 -->
<g id="node25" class="node"><title>Node36</title>
<g id="a_node25"><a xlink:href="_cluster_correction_8cc.html" target="_top" xlink:title="src/calibration/modules\l/ClusterCorrection.cc">
<polygon fill="white" stroke="black" points="1548.5,-147 1548.5,-177 1665.5,-177 1665.5,-147 1548.5,-147"/>
<text text-anchor="start" x="1556.5" y="-165" font-family="Helvetica,sans-Serif" font-size="10.00">src/calibration/modules</text>
<text text-anchor="middle" x="1607" y="-154" font-family="Helvetica,sans-Serif" font-size="10.00">/ClusterCorrection.cc</text>
</a>
</g>
</g>
<!-- Node14&#45;&gt;Node36 -->
<g id="edge26" class="edge"><title>Node14&#45;&gt;Node36</title>
<path fill="none" stroke="midnightblue" d="M1379.45,-212.823C1425.44,-202.819 1485.65,-189.698 1539,-178 1542.07,-177.327 1545.22,-176.636 1548.4,-175.937"/>
<polygon fill="midnightblue" stroke="midnightblue" points="1378.6,-209.427 1369.57,-214.973 1380.08,-216.268 1378.6,-209.427"/>
</g>
<!-- Node15&#45;&gt;Node13 -->
<g id="edge22" class="edge"><title>Node15&#45;&gt;Node13</title>
<path fill="none" stroke="midnightblue" d="M1226.34,-157.624C968.619,-146.548 165.317,-111.919 152,-110 141.964,-108.554 131.361,-106.403 121.25,-104.041"/>
<polygon fill="midnightblue" stroke="midnightblue" points="1226.23,-161.122 1236.38,-158.055 1226.53,-154.129 1226.23,-161.122"/>
</g>
<!-- Node16 -->
<g id="node5" class="node"><title>Node16</title>
<g id="a_node5"><a xlink:href="_p_i_d___t_a_p_s_veto___kinfit_8cc.html" target="_top" xlink:title="src/analysis/physics\l/calibration/PID_TAPSVeto\l_Kinfit.cc">
<polygon fill="white" stroke="black" points="161,-68.5 161,-109.5 297,-109.5 297,-68.5 161,-68.5"/>
<text text-anchor="start" x="169" y="-97.5" font-family="Helvetica,sans-Serif" font-size="10.00">src/analysis/physics</text>
<text text-anchor="start" x="169" y="-86.5" font-family="Helvetica,sans-Serif" font-size="10.00">/calibration/PID_TAPSVeto</text>
<text text-anchor="middle" x="229" y="-75.5" font-family="Helvetica,sans-Serif" font-size="10.00">_Kinfit.cc</text>
</a>
</g>
</g>
<!-- Node15&#45;&gt;Node16 -->
<g id="edge4" class="edge"><title>Node15&#45;&gt;Node16</title>
<path fill="none" stroke="midnightblue" d="M1226.27,-157.418C998.345,-146.99 351.194,-116.949 306,-110 303.133,-109.559 300.219,-109.056 297.283,-108.504"/>
<polygon fill="midnightblue" stroke="midnightblue" points="1226.33,-160.924 1236.48,-157.885 1226.65,-153.932 1226.33,-160.924"/>
</g>
<!-- Node17 -->
<g id="node6" class="node"><title>Node17</title>
<g id="a_node6"><a xlink:href="_kin_fit_i_m_check_8cc.html" target="_top" xlink:title="src/analysis/physics\l/check/KinFitIMCheck.cc">
<polygon fill="white" stroke="black" points="315,-74 315,-104 443,-104 443,-74 315,-74"/>
<text text-anchor="start" x="323" y="-92" font-family="Helvetica,sans-Serif" font-size="10.00">src/analysis/physics</text>
<text text-anchor="middle" x="379" y="-81" font-family="Helvetica,sans-Serif" font-size="10.00">/check/KinFitIMCheck.cc</text>
</a>
</g>
</g>
<!-- Node15&#45;&gt;Node17 -->
<g id="edge5" class="edge"><title>Node15&#45;&gt;Node17</title>
<path fill="none" stroke="midnightblue" d="M1226.09,-157.22C1029.27,-147.657 527.046,-122.386 452,-110 443.054,-108.524 433.627,-106.39 424.629,-104.061"/>
<polygon fill="midnightblue" stroke="midnightblue" points="1226.2,-160.729 1236.36,-157.718 1226.54,-153.737 1226.2,-160.729"/>
</g>
<!-- Node18 -->
<g id="node7" class="node"><title>Node18</title>
<g id="a_node7"><a xlink:href="_p_i_d_efficiency_check_8cc.html" target="_top" xlink:title="src/analysis/physics\l/check/PIDEfficiencyCheck.cc">
<polygon fill="white" stroke="black" points="461,-74 461,-104 613,-104 613,-74 461,-74"/>
<text text-anchor="start" x="469" y="-92" font-family="Helvetica,sans-Serif" font-size="10.00">src/analysis/physics</text>
<text text-anchor="middle" x="537" y="-81" font-family="Helvetica,sans-Serif" font-size="10.00">/check/PIDEfficiencyCheck.cc</text>
</a>
</g>
</g>
<!-- Node15&#45;&gt;Node18 -->
<g id="edge6" class="edge"><title>Node15&#45;&gt;Node18</title>
<path fill="none" stroke="midnightblue" d="M1226.18,-159.118C1098.57,-155.175 839.116,-143.439 622,-110 611.961,-108.454 601.355,-106.347 591.166,-104.079"/>
<polygon fill="midnightblue" stroke="midnightblue" points="1226.15,-162.619 1236.25,-159.421 1226.36,-155.622 1226.15,-162.619"/>
</g>
<!-- Node19 -->
<g id="node8" class="node"><title>Node19</title>
<g id="a_node8"><a xlink:href="_three_photon_check_8cc.html" target="_top" xlink:title="src/analysis/physics\l/check/ThreePhotonCheck.cc">
<polygon fill="white" stroke="black" points="631,-74 631,-104 777,-104 777,-74 631,-74"/>
<text text-anchor="start" x="639" y="-92" font-family="Helvetica,sans-Serif" font-size="10.00">src/analysis/physics</text>
<text text-anchor="middle" x="704" y="-81" font-family="Helvetica,sans-Serif" font-size="10.00">/check/ThreePhotonCheck.cc</text>
</a>
</g>
</g>
<!-- Node15&#45;&gt;Node19 -->
<g id="edge7" class="edge"><title>Node15&#45;&gt;Node19</title>
<path fill="none" stroke="midnightblue" d="M1226.09,-156.636C1124.15,-150.22 941.415,-136.077 787,-110 777.354,-108.371 767.165,-106.253 757.354,-104.005"/>
<polygon fill="midnightblue" stroke="midnightblue" points="1226.11,-160.143 1236.31,-157.27 1226.54,-153.157 1226.11,-160.143"/>
</g>
<!-- Node20 -->
<g id="node9" class="node"><title>Node20</title>
<g id="a_node9"><a xlink:href="_etap_omega_g_8cc.html" target="_top" xlink:title="src/analysis/physics\l/etaprime/EtapOmegaG.cc">
<polygon fill="white" stroke="black" points="795.5,-74 795.5,-104 928.5,-104 928.5,-74 795.5,-74"/>
<text text-anchor="start" x="803.5" y="-92" font-family="Helvetica,sans-Serif" font-size="10.00">src/analysis/physics</text>
<text text-anchor="middle" x="862" y="-81" font-family="Helvetica,sans-Serif" font-size="10.00">/etaprime/EtapOmegaG.cc</text>
</a>
</g>
</g>
<!-- Node15&#45;&gt;Node20 -->
<g id="edge8" class="edge"><title>Node15&#45;&gt;Node20</title>
<path fill="none" stroke="midnightblue" d="M1226.02,-152.782C1151.38,-144.366 1036.49,-129.73 938,-110 929.572,-108.312 920.689,-106.243 912.086,-104.084"/>
<polygon fill="midnightblue" stroke="midnightblue" points="1225.95,-156.296 1236.27,-153.928 1226.72,-149.339 1225.95,-156.296"/>
</g>
<!-- Node21 -->
<g id="node10" class="node"><title>Node21</title>
<g id="a_node10"><a xlink:href="_etap_omega_g__simple_8cc.html" target="_top" xlink:title="src/analysis/physics\l/etaprime/EtapOmegaG\l_simple.cc">
<polygon fill="white" stroke="black" points="946.5,-68.5 946.5,-109.5 1065.5,-109.5 1065.5,-68.5 946.5,-68.5"/>
<text text-anchor="start" x="954.5" y="-97.5" font-family="Helvetica,sans-Serif" font-size="10.00">src/analysis/physics</text>
<text text-anchor="start" x="954.5" y="-86.5" font-family="Helvetica,sans-Serif" font-size="10.00">/etaprime/EtapOmegaG</text>
<text text-anchor="middle" x="1006" y="-75.5" font-family="Helvetica,sans-Serif" font-size="10.00">_simple.cc</text>
</a>
</g>
</g>
<!-- Node15&#45;&gt;Node21 -->
<g id="edge9" class="edge"><title>Node15&#45;&gt;Node21</title>
<path fill="none" stroke="midnightblue" d="M1226.4,-144.871C1181.82,-135.399 1125.1,-122.802 1075,-110 1071.98,-109.228 1068.89,-108.416 1065.78,-107.579"/>
<polygon fill="midnightblue" stroke="midnightblue" points="1225.78,-148.319 1236.29,-146.965 1227.23,-141.471 1225.78,-148.319"/>
</g>
<!-- Node22 -->
<g id="node11" class="node"><title>Node22</title>
<g id="a_node11"><a xlink:href="etaprime__dalitz_8cc.html" target="_top" xlink:title="src/analysis/physics\l/etaprime/etaprime_dalitz.cc">
<polygon fill="white" stroke="black" points="1084,-74 1084,-104 1224,-104 1224,-74 1084,-74"/>
<text text-anchor="start" x="1092" y="-92" font-family="Helvetica,sans-Serif" font-size="10.00">src/analysis/physics</text>
<text text-anchor="middle" x="1154" y="-81" font-family="Helvetica,sans-Serif" font-size="10.00">/etaprime/etaprime_dalitz.cc</text>
</a>
</g>
</g>
<!-- Node15&#45;&gt;Node22 -->
<g id="edge10" class="edge"><title>Node15&#45;&gt;Node22</title>
<path fill="none" stroke="midnightblue" d="M1266.11,-142.715C1240.54,-130.692 1207.58,-115.194 1184.03,-104.12"/>
<polygon fill="midnightblue" stroke="midnightblue" points="1264.63,-145.885 1275.17,-146.973 1267.61,-139.55 1264.63,-145.885"/>
</g>
<!-- Node23 -->
<g id="node12" class="node"><title>Node23</title>
<g id="a_node12"><a xlink:href="_omega___eta_g_8cc.html" target="_top" xlink:title="src/analysis/physics\l/omega/Omega_EtaG.cc">
<polygon fill="white" stroke="black" points="1242.5,-74 1242.5,-104 1367.5,-104 1367.5,-74 1242.5,-74"/>
<text text-anchor="start" x="1250.5" y="-92" font-family="Helvetica,sans-Serif" font-size="10.00">src/analysis/physics</text>
<text text-anchor="middle" x="1305" y="-81" font-family="Helvetica,sans-Serif" font-size="10.00">/omega/Omega_EtaG.cc</text>
</a>
</g>
</g>
<!-- Node15&#45;&gt;Node23 -->
<g id="edge11" class="edge"><title>Node15&#45;&gt;Node23</title>
<path fill="none" stroke="midnightblue" d="M1305,-136.898C1305,-126.131 1305,-113.801 1305,-104.486"/>
<polygon fill="midnightblue" stroke="midnightblue" points="1301.5,-136.973 1305,-146.973 1308.5,-136.973 1301.5,-136.973"/>
</g>
<!-- Node24 -->
<g id="node13" class="node"><title>Node24</title>
<g id="a_node13"><a xlink:href="_just_pi0_8cc.html" target="_top" xlink:title="src/analysis/physics\l/pi0/JustPi0.cc">
<polygon fill="white" stroke="black" points="1386,-74 1386,-104 1492,-104 1492,-74 1386,-74"/>
<text text-anchor="start" x="1394" y="-92" font-family="Helvetica,sans-Serif" font-size="10.00">src/analysis/physics</text>
<text text-anchor="middle" x="1439" y="-81" font-family="Helvetica,sans-Serif" font-size="10.00">/pi0/JustPi0.cc</text>
</a>
</g>
</g>
<!-- Node15&#45;&gt;Node24 -->
<g id="edge12" class="edge"><title>Node15&#45;&gt;Node24</title>
<path fill="none" stroke="midnightblue" d="M1340.38,-142.255C1362.86,-130.343 1391.5,-115.166 1412.12,-104.241"/>
<polygon fill="midnightblue" stroke="midnightblue" points="1338.67,-139.198 1331.47,-146.973 1341.95,-145.383 1338.67,-139.198"/>
</g>
<!-- Node25 -->
<g id="node14" class="node"><title>Node25</title>
<g id="a_node14"><a xlink:href="sigma_plus_8cc.html" target="_top" xlink:title="src/analysis/physics\l/production/sigmaPlus.cc">
<polygon fill="white" stroke="black" points="1510.5,-74 1510.5,-104 1637.5,-104 1637.5,-74 1510.5,-74"/>
<text text-anchor="start" x="1518.5" y="-92" font-family="Helvetica,sans-Serif" font-size="10.00">src/analysis/physics</text>
<text text-anchor="middle" x="1574" y="-81" font-family="Helvetica,sans-Serif" font-size="10.00">/production/sigmaPlus.cc</text>
</a>
</g>
</g>
<!-- Node15&#45;&gt;Node25 -->
<g id="edge13" class="edge"><title>Node15&#45;&gt;Node25</title>
<path fill="none" stroke="midnightblue" d="M1369.17,-144.357C1407.22,-134.454 1456.38,-121.598 1500,-110 1507.2,-108.085 1514.79,-106.051 1522.26,-104.041"/>
<polygon fill="midnightblue" stroke="midnightblue" points="1368.04,-141.034 1359.25,-146.939 1369.81,-147.808 1368.04,-141.034"/>
</g>
<!-- Node26 -->
<g id="node15" class="node"><title>Node26</title>
<g id="a_node15"><a xlink:href="single_pi0_8cc.html" target="_top" xlink:title="src/analysis/physics\l/production/singlePi0.cc">
<polygon fill="white" stroke="black" points="1655.5,-74 1655.5,-104 1776.5,-104 1776.5,-74 1655.5,-74"/>
<text text-anchor="start" x="1663.5" y="-92" font-family="Helvetica,sans-Serif" font-size="10.00">src/analysis/physics</text>
<text text-anchor="middle" x="1716" y="-81" font-family="Helvetica,sans-Serif" font-size="10.00">/production/singlePi0.cc</text>
</a>
</g>
</g>
<!-- Node15&#45;&gt;Node26 -->
<g id="edge14" class="edge"><title>Node15&#45;&gt;Node26</title>
<path fill="none" stroke="midnightblue" d="M1383.96,-145.912C1501.18,-127.235 1533.7,-133.603 1646,-110 1653.92,-108.336 1662.25,-106.254 1670.3,-104.067"/>
<polygon fill="midnightblue" stroke="midnightblue" points="1383.18,-142.492 1373.87,-147.547 1384.3,-149.402 1383.18,-142.492"/>
</g>
<!-- Node27 -->
<g id="node16" class="node"><title>Node27</title>
<g id="a_node16"><a xlink:href="triple_pi0_8cc.html" target="_top" xlink:title="src/analysis/physics\l/production/triplePi0.cc">
<polygon fill="white" stroke="black" points="1795,-74 1795,-104 1911,-104 1911,-74 1795,-74"/>
<text text-anchor="start" x="1803" y="-92" font-family="Helvetica,sans-Serif" font-size="10.00">src/analysis/physics</text>
<text text-anchor="middle" x="1853" y="-81" font-family="Helvetica,sans-Serif" font-size="10.00">/production/triplePi0.cc</text>
</a>
</g>
</g>
<!-- Node15&#45;&gt;Node27 -->
<g id="edge15" class="edge"><title>Node15&#45;&gt;Node27</title>
<path fill="none" stroke="midnightblue" d="M1383.83,-145.991C1562.42,-121.823 1611.95,-142.865 1785,-110 1793.1,-108.462 1801.62,-106.359 1809.78,-104.092"/>
<polygon fill="midnightblue" stroke="midnightblue" points="1383.27,-142.536 1373.84,-147.372 1384.23,-149.47 1383.27,-142.536"/>
</g>
<!-- Node28 -->
<g id="node17" class="node"><title>Node28</title>
<g id="a_node17"><a xlink:href="_etap_dalitz_m_c_8cc.html" target="_top" xlink:title="src/analysis/physics\l/scratch/wagner/EtapDalitzMC.cc">
<polygon fill="white" stroke="black" points="1929,-74 1929,-104 2093,-104 2093,-74 1929,-74"/>
<text text-anchor="start" x="1937" y="-92" font-family="Helvetica,sans-Serif" font-size="10.00">src/analysis/physics</text>
<text text-anchor="middle" x="2011" y="-81" font-family="Helvetica,sans-Serif" font-size="10.00">/scratch/wagner/EtapDalitzMC.cc</text>
</a>
</g>
</g>
<!-- Node15&#45;&gt;Node28 -->
<g id="edge16" class="edge"><title>Node15&#45;&gt;Node28</title>
<path fill="none" stroke="midnightblue" d="M1383.82,-146.013C1621.54,-116.153 1685.83,-142.993 1919,-110 1929.84,-108.466 1941.31,-106.365 1952.34,-104.098"/>
<polygon fill="midnightblue" stroke="midnightblue" points="1383.31,-142.55 1373.83,-147.288 1384.19,-149.494 1383.31,-142.55"/>
</g>
<!-- Node29 -->
<g id="node18" class="node"><title>Node29</title>
<g id="a_node18"><a xlink:href="_proton_vertex_test_8cc.html" target="_top" xlink:title="src/analysis/physics\l/scratch/wolfes/ProtonVertex\lTest.cc">
<polygon fill="white" stroke="black" points="2111.5,-68.5 2111.5,-109.5 2254.5,-109.5 2254.5,-68.5 2111.5,-68.5"/>
<text text-anchor="start" x="2119.5" y="-97.5" font-family="Helvetica,sans-Serif" font-size="10.00">src/analysis/physics</text>
<text text-anchor="start" x="2119.5" y="-86.5" font-family="Helvetica,sans-Serif" font-size="10.00">/scratch/wolfes/ProtonVertex</text>
<text text-anchor="middle" x="2183" y="-75.5" font-family="Helvetica,sans-Serif" font-size="10.00">Test.cc</text>
</a>
</g>
</g>
<!-- Node15&#45;&gt;Node29 -->
<g id="edge17" class="edge"><title>Node15&#45;&gt;Node29</title>
<path fill="none" stroke="midnightblue" d="M1383.8,-146.035C1702.42,-108.687 1788.7,-156.086 2102,-110 2105.01,-109.557 2108.07,-109.053 2111.15,-108.499"/>
<polygon fill="midnightblue" stroke="midnightblue" points="1383.34,-142.566 1373.82,-147.224 1384.17,-149.516 1383.34,-142.566"/>
</g>
<!-- Node30 -->
<g id="node19" class="node"><title>Node30</title>
<g id="a_node19"><a xlink:href="_test_sigma_plus_fitter_8cc.html" target="_top" xlink:title="src/analysis/physics\l/test/TestSigmaPlusFitter.cc">
<polygon fill="white" stroke="black" points="2273,-74 2273,-104 2415,-104 2415,-74 2273,-74"/>
<text text-anchor="start" x="2281" y="-92" font-family="Helvetica,sans-Serif" font-size="10.00">src/analysis/physics</text>
<text text-anchor="middle" x="2344" y="-81" font-family="Helvetica,sans-Serif" font-size="10.00">/test/TestSigmaPlusFitter.cc</text>
</a>
</g>
</g>
<!-- Node15&#45;&gt;Node30 -->
<g id="edge18" class="edge"><title>Node15&#45;&gt;Node30</title>
<path fill="none" stroke="midnightblue" d="M1383.96,-146.027C1773.62,-102.004 1878.78,-164.724 2263,-110 2273.04,-108.57 2283.64,-106.427 2293.75,-104.067"/>
<polygon fill="midnightblue" stroke="midnightblue" points="1383.35,-142.573 1373.82,-147.189 1384.15,-149.527 1383.35,-142.573"/>
</g>
<!-- Node31 -->
<g id="node20" class="node"><title>Node31</title>
<g id="a_node20"><a xlink:href="analysis_2physics_2tunings_2_interpolated_pulls_8h.html" target="_top" xlink:title="src/analysis/physics\l/tunings/InterpolatedPulls.h">
<polygon fill="white" stroke="black" points="2433.5,-74 2433.5,-104 2568.5,-104 2568.5,-74 2433.5,-74"/>
<text text-anchor="start" x="2441.5" y="-92" font-family="Helvetica,sans-Serif" font-size="10.00">src/analysis/physics</text>
<text text-anchor="middle" x="2501" y="-81" font-family="Helvetica,sans-Serif" font-size="10.00">/tunings/InterpolatedPulls.h</text>
</a>
</g>
</g>
<!-- Node15&#45;&gt;Node31 -->
<g id="edge19" class="edge"><title>Node15&#45;&gt;Node31</title>
<path fill="none" stroke="midnightblue" d="M1384.07,-146.022C1844.85,-95.3306 1969.23,-176.105 2424,-110 2433.7,-108.589 2443.95,-106.423 2453.69,-104.028"/>
<polygon fill="midnightblue" stroke="midnightblue" points="1383.36,-142.578 1373.81,-147.165 1384.14,-149.535 1383.36,-142.578"/>
</g>
<!-- Node33 -->
<g id="node22" class="node"><title>Node33</title>
<g id="a_node22"><a xlink:href="physics_2tunings_2_trigger_simulation_8cc.html" target="_top" xlink:title="src/analysis/physics\l/tunings/TriggerSimulation.cc">
<polygon fill="white" stroke="black" points="2586.5,-74 2586.5,-104 2729.5,-104 2729.5,-74 2586.5,-74"/>
<text text-anchor="start" x="2594.5" y="-92" font-family="Helvetica,sans-Serif" font-size="10.00">src/analysis/physics</text>
<text text-anchor="middle" x="2658" y="-81" font-family="Helvetica,sans-Serif" font-size="10.00">/tunings/TriggerSimulation.cc</text>
</a>
</g>
</g>
<!-- Node15&#45;&gt;Node33 -->
<g id="edge21" class="edge"><title>Node15&#45;&gt;Node33</title>
<path fill="none" stroke="midnightblue" d="M1383.99,-146.035C1912.49,-88.8747 2054.34,-181.58 2577,-110 2587.19,-108.605 2597.96,-106.445 2608.2,-104.052"/>
<polygon fill="midnightblue" stroke="midnightblue" points="1383.37,-142.581 1373.81,-147.149 1384.13,-149.54 1383.37,-142.581"/>
</g>
<!-- Node34 -->
<g id="node23" class="node"><title>Node34</title>
<g id="a_node23"><a xlink:href="root-addons_2analysis__codes_2_interpolated_pulls_8cc.html" target="_top" xlink:title="src/root&#45;addons/analysis\l_codes/InterpolatedPulls.cc">
<polygon fill="white" stroke="black" points="2747.5,-74 2747.5,-104 2884.5,-104 2884.5,-74 2747.5,-74"/>
<text text-anchor="start" x="2755.5" y="-92" font-family="Helvetica,sans-Serif" font-size="10.00">src/root&#45;addons/analysis</text>
<text text-anchor="middle" x="2816" y="-81" font-family="Helvetica,sans-Serif" font-size="10.00">_codes/InterpolatedPulls.cc</text>
</a>
</g>
</g>
<!-- Node15&#45;&gt;Node34 -->
<g id="edge23" class="edge"><title>Node15&#45;&gt;Node34</title>
<path fill="none" stroke="midnightblue" d="M1384.01,-146.036C1983.71,-82.1553 2144.71,-192.871 2738,-110 2747.83,-108.627 2758.21,-106.477 2768.07,-104.087"/>
<polygon fill="midnightblue" stroke="midnightblue" points="1383.38,-142.584 1373.81,-147.135 1384.13,-149.544 1383.38,-142.584"/>
</g>
<!-- Node32 -->
<g id="node21" class="node"><title>Node32</title>
<g id="a_node21"><a xlink:href="analysis_2physics_2tunings_2_interpolated_pulls_8cc.html" target="_top" xlink:title="src/analysis/physics\l/tunings/InterpolatedPulls.cc">
<polygon fill="white" stroke="black" points="2431,-1 2431,-31 2571,-31 2571,-1 2431,-1"/>
<text text-anchor="start" x="2439" y="-19" font-family="Helvetica,sans-Serif" font-size="10.00">src/analysis/physics</text>
<text text-anchor="middle" x="2501" y="-8" font-family="Helvetica,sans-Serif" font-size="10.00">/tunings/InterpolatedPulls.cc</text>
</a>
</g>
</g>
<!-- Node31&#45;&gt;Node32 -->
<g id="edge20" class="edge"><title>Node31&#45;&gt;Node32</title>
<path fill="none" stroke="midnightblue" d="M2501,-63.8976C2501,-53.1314 2501,-40.8005 2501,-31.4856"/>
<polygon fill="midnightblue" stroke="midnightblue" points="2497.5,-63.9727 2501,-73.9727 2504.5,-63.9727 2497.5,-63.9727"/>
</g>
</g>
</svg>
