<?xml version="1.0" encoding="UTF-8" standalone="no"?>
<!DOCTYPE svg PUBLIC "-//W3C//DTD SVG 1.1//EN"
 "http://www.w3.org/Graphics/SVG/1.1/DTD/svg11.dtd">
<!-- Generated by graphviz version 2.36.0 (20140111.2315)
 -->
<!-- Title: src/base/Interpolator.cc Pages: 1 -->
<svg width="514pt" height="196pt"
 viewBox="0.00 0.00 514.00 196.00" xmlns="http://www.w3.org/2000/svg" xmlns:xlink="http://www.w3.org/1999/xlink">
<g id="graph0" class="graph" transform="scale(1 1) rotate(0) translate(4 192)">
<title>src/base/Interpolator.cc</title>
<polygon fill="white" stroke="none" points="-4,4 -4,-192 510,-192 510,4 -4,4"/>
<!-- Node0 -->
<g id="node1" class="node"><title>Node0</title>
<polygon fill="#bfbfbf" stroke="black" points="125.5,-168.5 125.5,-187.5 244.5,-187.5 244.5,-168.5 125.5,-168.5"/>
<text text-anchor="middle" x="185" y="-175.5" font-family="Helvetica,sans-Serif" font-size="10.00">src/base/Interpolator.cc</text>
</g>
<!-- Node1 -->
<g id="node2" class="node"><title>Node1</title>
<g id="a_node2"><a xlink:href="_interpolator_8h.html" target="_top" xlink:title="Interpolator.h">
<polygon fill="white" stroke="black" points="89,-112.5 89,-131.5 163,-131.5 163,-112.5 89,-112.5"/>
<text text-anchor="middle" x="126" y="-119.5" font-family="Helvetica,sans-Serif" font-size="10.00">Interpolator.h</text>
</a>
</g>
</g>
<!-- Node0&#45;&gt;Node1 -->
<g id="edge1" class="edge"><title>Node0&#45;&gt;Node1</title>
<path fill="none" stroke="midnightblue" d="M175.521,-168.324C166.799,-160.341 153.657,-148.313 143.102,-138.653"/>
<polygon fill="midnightblue" stroke="midnightblue" points="145.392,-136.004 135.652,-131.834 140.666,-141.167 145.392,-136.004"/>
</g>
<!-- Node13 -->
<g id="node14" class="node"><title>Node13</title>
<polygon fill="white" stroke="#bfbfbf" points="181,-112.5 181,-131.5 309,-131.5 309,-112.5 181,-112.5"/>
<text text-anchor="middle" x="245" y="-119.5" font-family="Helvetica,sans-Serif" font-size="10.00">interp2d/interp2d_spline.h</text>
</g>
<!-- Node0&#45;&gt;Node13 -->
<g id="edge14" class="edge"><title>Node0&#45;&gt;Node13</title>
<path fill="none" stroke="midnightblue" d="M194.64,-168.324C203.51,-160.341 216.875,-148.313 227.608,-138.653"/>
<polygon fill="midnightblue" stroke="midnightblue" points="230.093,-141.125 235.185,-131.834 225.41,-135.922 230.093,-141.125"/>
</g>
<!-- Node2 -->
<g id="node3" class="node"><title>Node2</title>
<polygon fill="white" stroke="#bfbfbf" points="0,-56.5 0,-75.5 44,-75.5 44,-56.5 0,-56.5"/>
<text text-anchor="middle" x="22" y="-63.5" font-family="Helvetica,sans-Serif" font-size="10.00">vector</text>
</g>
<!-- Node1&#45;&gt;Node2 -->
<g id="edge2" class="edge"><title>Node1&#45;&gt;Node2</title>
<path fill="none" stroke="midnightblue" d="M109.291,-112.324C92.6881,-103.703 66.9979,-90.3643 47.7795,-80.3855"/>
<polygon fill="midnightblue" stroke="midnightblue" points="49.1558,-77.1565 38.6679,-75.6545 45.93,-83.3689 49.1558,-77.1565"/>
</g>
<!-- Node3 -->
<g id="node4" class="node"><title>Node3</title>
<polygon fill="white" stroke="#bfbfbf" points="45.5,-0.5 45.5,-19.5 104.5,-19.5 104.5,-0.5 45.5,-0.5"/>
<text text-anchor="middle" x="75" y="-7.5" font-family="Helvetica,sans-Serif" font-size="10.00">stdexcept</text>
</g>
<!-- Node1&#45;&gt;Node3 -->
<g id="edge3" class="edge"><title>Node1&#45;&gt;Node3</title>
<path fill="none" stroke="midnightblue" d="M117.537,-112.452C109.553,-103.916 97.8188,-90.0729 91,-76 83.8738,-61.2927 79.7487,-43.1296 77.4779,-29.7454"/>
<polygon fill="midnightblue" stroke="midnightblue" points="80.9315,-29.1746 75.9814,-19.8073 74.0095,-30.217 80.9315,-29.1746"/>
</g>
<!-- Node4 -->
<g id="node5" class="node"><title>Node4</title>
<polygon fill="white" stroke="#bfbfbf" points="100,-56.5 100,-75.5 152,-75.5 152,-56.5 100,-56.5"/>
<text text-anchor="middle" x="126" y="-63.5" font-family="Helvetica,sans-Serif" font-size="10.00">memory</text>
</g>
<!-- Node1&#45;&gt;Node4 -->
<g id="edge4" class="edge"><title>Node1&#45;&gt;Node4</title>
<path fill="none" stroke="midnightblue" d="M126,-112.083C126,-105.006 126,-94.8611 126,-85.9865"/>
<polygon fill="midnightblue" stroke="midnightblue" points="129.5,-85.751 126,-75.7511 122.5,-85.7511 129.5,-85.751"/>
</g>
<!-- Node5 -->
<g id="node6" class="node"><title>Node5</title>
<polygon fill="white" stroke="#bfbfbf" points="170.5,-56.5 170.5,-75.5 229.5,-75.5 229.5,-56.5 170.5,-56.5"/>
<text text-anchor="middle" x="200" y="-63.5" font-family="Helvetica,sans-Serif" font-size="10.00">functional</text>
</g>
<!-- Node1&#45;&gt;Node5 -->
<g id="edge5" class="edge"><title>Node1&#45;&gt;Node5</title>
<path fill="none" stroke="midnightblue" d="M137.889,-112.324C149.15,-104.107 166.287,-91.6017 179.709,-81.8069"/>
<polygon fill="midnightblue" stroke="midnightblue" points="181.88,-84.5559 187.894,-75.8339 177.753,-78.9014 181.88,-84.5559"/>
</g>
<!-- Node6 -->
<g id="node7" class="node"><title>Node6</title>
<g id="a_node7"><a xlink:href="interval_8h.html" target="_top" xlink:title="base/interval.h">
<polygon fill="white" stroke="black" points="248,-56.5 248,-75.5 328,-75.5 328,-56.5 248,-56.5"/>
<text text-anchor="middle" x="288" y="-63.5" font-family="Helvetica,sans-Serif" font-size="10.00">base/interval.h</text>
</a>
</g>
</g>
<!-- Node1&#45;&gt;Node6 -->
<g id="edge6" class="edge"><title>Node1&#45;&gt;Node6</title>
<path fill="none" stroke="midnightblue" d="M151.669,-112.444C178.923,-103.359 222.184,-88.9388 252.651,-78.7831"/>
<polygon fill="midnightblue" stroke="midnightblue" points="254.071,-81.9992 262.451,-75.5164 251.857,-75.3584 254.071,-81.9992"/>
</g>
<!-- Node6&#45;&gt;Node3 -->
<g id="edge9" class="edge"><title>Node6&#45;&gt;Node3</title>
<path fill="none" stroke="midnightblue" d="M254.25,-56.4435C216.292,-46.8205 154.718,-31.2102 114.539,-21.0239"/>
<polygon fill="midnightblue" stroke="midnightblue" points="115.366,-17.6229 104.812,-18.558 113.645,-24.4082 115.366,-17.6229"/>
</g>
<!-- Node7 -->
<g id="node8" class="node"><title>Node7</title>
<g id="a_node8"><a xlink:href="types_8h.html" target="_top" xlink:title="types.h">
<polygon fill="white" stroke="black" points="124.5,-0.5 124.5,-19.5 173.5,-19.5 173.5,-0.5 124.5,-0.5"/>
<text text-anchor="middle" x="149" y="-7.5" font-family="Helvetica,sans-Serif" font-size="10.00">types.h</text>
</a>
</g>
</g>
<!-- Node6&#45;&gt;Node7 -->
<g id="edge7" class="edge"><title>Node6&#45;&gt;Node7</title>
<path fill="none" stroke="midnightblue" d="M265.975,-56.4435C242.896,-47.4776 206.438,-33.314 180.359,-23.1827"/>
<polygon fill="midnightblue" stroke="midnightblue" points="181.511,-19.8753 170.922,-19.5164 178.976,-26.4002 181.511,-19.8753"/>
</g>
<!-- Node8 -->
<g id="node9" class="node"><title>Node8</title>
<polygon fill="white" stroke="#bfbfbf" points="192,-0.5 192,-19.5 248,-19.5 248,-0.5 192,-0.5"/>
<text text-anchor="middle" x="220" y="-7.5" font-family="Helvetica,sans-Serif" font-size="10.00">algorithm</text>
</g>
<!-- Node6&#45;&gt;Node8 -->
<g id="edge8" class="edge"><title>Node6&#45;&gt;Node8</title>
<path fill="none" stroke="midnightblue" d="M277.075,-56.324C266.825,-48.1849 251.279,-35.8395 238.999,-26.0874"/>
<polygon fill="midnightblue" stroke="midnightblue" points="241.132,-23.3119 231.124,-19.8339 236.779,-28.7937 241.132,-23.3119"/>
</g>
<!-- Node9 -->
<g id="node10" class="node"><title>Node9</title>
<polygon fill="white" stroke="#bfbfbf" points="266,-0.5 266,-19.5 306,-19.5 306,-0.5 266,-0.5"/>
<text text-anchor="middle" x="286" y="-7.5" font-family="Helvetica,sans-Serif" font-size="10.00">limits</text>
</g>
<!-- Node6&#45;&gt;Node9 -->
<g id="edge10" class="edge"><title>Node6&#45;&gt;Node9</title>
<path fill="none" stroke="midnightblue" d="M287.67,-56.083C287.408,-49.0059 287.032,-38.8611 286.703,-29.9865"/>
<polygon fill="midnightblue" stroke="midnightblue" points="290.192,-29.6147 286.324,-19.7511 283.197,-29.8738 290.192,-29.6147"/>
</g>
<!-- Node10 -->
<g id="node11" class="node"><title>Node10</title>
<polygon fill="white" stroke="#bfbfbf" points="324.5,-0.5 324.5,-19.5 373.5,-19.5 373.5,-0.5 324.5,-0.5"/>
<text text-anchor="middle" x="349" y="-7.5" font-family="Helvetica,sans-Serif" font-size="10.00">istream</text>
</g>
<!-- Node6&#45;&gt;Node10 -->
<g id="edge11" class="edge"><title>Node6&#45;&gt;Node10</title>
<path fill="none" stroke="midnightblue" d="M297.801,-56.324C306.818,-48.3414 320.406,-36.3128 331.318,-26.6529"/>
<polygon fill="midnightblue" stroke="midnightblue" points="333.853,-29.083 339.021,-19.8339 329.213,-23.8416 333.853,-29.083"/>
</g>
<!-- Node11 -->
<g id="node12" class="node"><title>Node11</title>
<polygon fill="white" stroke="#bfbfbf" points="392,-0.5 392,-19.5 444,-19.5 444,-0.5 392,-0.5"/>
<text text-anchor="middle" x="418" y="-7.5" font-family="Helvetica,sans-Serif" font-size="10.00">sstream</text>
</g>
<!-- Node6&#45;&gt;Node11 -->
<g id="edge12" class="edge"><title>Node6&#45;&gt;Node11</title>
<path fill="none" stroke="midnightblue" d="M308.599,-56.4435C329.993,-47.5566 363.681,-33.5632 388.024,-23.4514"/>
<polygon fill="midnightblue" stroke="midnightblue" points="389.605,-26.5848 397.497,-19.5164 386.92,-20.1203 389.605,-26.5848"/>
</g>
<!-- Node12 -->
<g id="node13" class="node"><title>Node12</title>
<polygon fill="white" stroke="#bfbfbf" points="462,-0.5 462,-19.5 506,-19.5 506,-0.5 462,-0.5"/>
<text text-anchor="middle" x="484" y="-7.5" font-family="Helvetica,sans-Serif" font-size="10.00">cmath</text>
</g>
<!-- Node6&#45;&gt;Node12 -->
<g id="edge13" class="edge"><title>Node6&#45;&gt;Node12</title>
<path fill="none" stroke="midnightblue" d="M319.982,-56.4432C351.305,-48.0263 400.631,-34.675 452.322,-20.159"/>
<polygon fill="midnightblue" stroke="midnightblue" points="453.319,-23.5142 461.997,-17.4359 451.423,-16.776 453.319,-23.5142"/>
</g>
</g>
</svg>
