<?xml version="1.0" encoding="UTF-8" standalone="no"?>
<!DOCTYPE svg PUBLIC "-//W3C//DTD SVG 1.1//EN"
 "http://www.w3.org/Graphics/SVG/1.1/DTD/svg11.dtd">
<!-- Generated by graphviz version 2.36.0 (20140111.2315)
 -->
<!-- Title: src/calibration/fitfunctions/KnobsTF1.cc Pages: 1 -->
<svg width="264pt" height="220pt"
 viewBox="0.00 0.00 264.00 220.00" xmlns="http://www.w3.org/2000/svg" xmlns:xlink="http://www.w3.org/1999/xlink">
<g id="graph0" class="graph" transform="scale(1 1) rotate(0) translate(4 216)">
<title>src/calibration/fitfunctions/KnobsTF1.cc</title>
<polygon fill="white" stroke="none" points="-4,4 -4,-216 260,-216 260,4 -4,4"/>
<!-- Node0 -->
<g id="node1" class="node"><title>Node0</title>
<polygon fill="#bfbfbf" stroke="black" points="128,-181 128,-211 256,-211 256,-181 128,-181"/>
<text text-anchor="start" x="136" y="-199" font-family="Helvetica,sans-Serif" font-size="10.00">src/calibration/fitfunctions</text>
<text text-anchor="middle" x="192" y="-188" font-family="Helvetica,sans-Serif" font-size="10.00">/KnobsTF1.cc</text>
</g>
<!-- Node1 -->
<g id="node2" class="node"><title>Node1</title>
<g id="a_node2"><a xlink:href="_knobs_t_f1_8h.html" target="_top" xlink:title="KnobsTF1.h">
<polygon fill="white" stroke="black" points="120,-124.5 120,-143.5 190,-143.5 190,-124.5 120,-124.5"/>
<text text-anchor="middle" x="155" y="-131.5" font-family="Helvetica,sans-Serif" font-size="10.00">KnobsTF1.h</text>
</a>
</g>
</g>
<!-- Node0&#45;&gt;Node1 -->
<g id="edge1" class="edge"><title>Node0&#45;&gt;Node1</title>
<path fill="none" stroke="midnightblue" d="M183.232,-180.781C177.966,-172.242 171.23,-161.318 165.658,-152.283"/>
<polygon fill="midnightblue" stroke="midnightblue" points="168.612,-150.405 160.384,-143.731 162.654,-154.079 168.612,-150.405"/>
</g>
<!-- Node6 -->
<g id="node7" class="node"><title>Node6</title>
<polygon fill="white" stroke="#bfbfbf" points="208,-124.5 208,-143.5 250,-143.5 250,-124.5 208,-124.5"/>
<text text-anchor="middle" x="229" y="-131.5" font-family="Helvetica,sans-Serif" font-size="10.00">TF1.h</text>
</g>
<!-- Node0&#45;&gt;Node6 -->
<g id="edge6" class="edge"><title>Node0&#45;&gt;Node6</title>
<path fill="none" stroke="midnightblue" d="M200.768,-180.781C206.034,-172.242 212.77,-161.318 218.342,-152.283"/>
<polygon fill="midnightblue" stroke="midnightblue" points="221.346,-154.079 223.616,-143.731 215.388,-150.405 221.346,-154.079"/>
</g>
<!-- Node2 -->
<g id="node3" class="node"><title>Node2</title>
<g id="a_node3"><a xlink:href="_indicator__traits_8h.html" target="_top" xlink:title="calibration/gui/Indicator\l_traits.h">
<polygon fill="white" stroke="black" points="-0.5,-57 -0.5,-87 116.5,-87 116.5,-57 -0.5,-57"/>
<text text-anchor="start" x="7.5" y="-75" font-family="Helvetica,sans-Serif" font-size="10.00">calibration/gui/Indicator</text>
<text text-anchor="middle" x="58" y="-64" font-family="Helvetica,sans-Serif" font-size="10.00">_traits.h</text>
</a>
</g>
</g>
<!-- Node1&#45;&gt;Node2 -->
<g id="edge2" class="edge"><title>Node1&#45;&gt;Node2</title>
<path fill="none" stroke="midnightblue" d="M141.102,-124.403C127.719,-116.125 107.002,-103.311 89.6016,-92.5474"/>
<polygon fill="midnightblue" stroke="midnightblue" points="91.2067,-89.4248 80.861,-87.1408 87.5243,-95.378 91.2067,-89.4248"/>
</g>
<!-- Node4 -->
<g id="node5" class="node"><title>Node4</title>
<polygon fill="white" stroke="#bfbfbf" points="134.5,-62.5 134.5,-81.5 175.5,-81.5 175.5,-62.5 134.5,-62.5"/>
<text text-anchor="middle" x="155" y="-69.5" font-family="Helvetica,sans-Serif" font-size="10.00">string</text>
</g>
<!-- Node1&#45;&gt;Node4 -->
<g id="edge4" class="edge"><title>Node1&#45;&gt;Node4</title>
<path fill="none" stroke="midnightblue" d="M155,-124.403C155,-115.938 155,-102.728 155,-91.8199"/>
<polygon fill="midnightblue" stroke="midnightblue" points="158.5,-91.5806 155,-81.5806 151.5,-91.5806 158.5,-91.5806"/>
</g>
<!-- Node5 -->
<g id="node6" class="node"><title>Node5</title>
<polygon fill="white" stroke="#bfbfbf" points="193.5,-62.5 193.5,-81.5 252.5,-81.5 252.5,-62.5 193.5,-62.5"/>
<text text-anchor="middle" x="223" y="-69.5" font-family="Helvetica,sans-Serif" font-size="10.00">functional</text>
</g>
<!-- Node1&#45;&gt;Node5 -->
<g id="edge5" class="edge"><title>Node1&#45;&gt;Node5</title>
<path fill="none" stroke="midnightblue" d="M164.743,-124.403C175.347,-115.047 192.519,-99.8948 205.479,-88.4599"/>
<polygon fill="midnightblue" stroke="midnightblue" points="208.093,-90.8213 213.275,-81.5806 203.461,-85.5724 208.093,-90.8213"/>
</g>
<!-- Node3 -->
<g id="node4" class="node"><title>Node3</title>
<polygon fill="white" stroke="#bfbfbf" points="30,-0.5 30,-19.5 86,-19.5 86,-0.5 30,-0.5"/>
<text text-anchor="middle" x="58" y="-7.5" font-family="Helvetica,sans-Serif" font-size="10.00">Rtypes.h</text>
</g>
<!-- Node2&#45;&gt;Node3 -->
<g id="edge3" class="edge"><title>Node2&#45;&gt;Node3</title>
<path fill="none" stroke="midnightblue" d="M58,-56.7808C58,-48.7812 58,-38.6887 58,-30.0168"/>
<polygon fill="midnightblue" stroke="midnightblue" points="61.5001,-29.7305 58,-19.7305 54.5001,-29.7306 61.5001,-29.7305"/>
</g>
</g>
</svg>
