<?xml version="1.0" encoding="UTF-8" standalone="no"?>
<!DOCTYPE svg PUBLIC "-//W3C//DTD SVG 1.1//EN"
 "http://www.w3.org/Graphics/SVG/1.1/DTD/svg11.dtd">
<!-- Generated by graphviz version 2.36.0 (20140111.2315)
 -->
<!-- Title: src/calibration/fitfunctions/KnobsTF1.h Pages: 1 -->
<svg width="260pt" height="164pt"
 viewBox="0.00 0.00 260.00 164.00" xmlns="http://www.w3.org/2000/svg" xmlns:xlink="http://www.w3.org/1999/xlink">
<g id="graph0" class="graph" transform="scale(1 1) rotate(0) translate(4 160)">
<title>src/calibration/fitfunctions/KnobsTF1.h</title>
<polygon fill="white" stroke="none" points="-4,4 -4,-160 256,-160 256,4 -4,4"/>
<!-- Node0 -->
<g id="node1" class="node"><title>Node0</title>
<polygon fill="#bfbfbf" stroke="black" points="91,-125 91,-155 219,-155 219,-125 91,-125"/>
<text text-anchor="start" x="99" y="-143" font-family="Helvetica,sans-Serif" font-size="10.00">src/calibration/fitfunctions</text>
<text text-anchor="middle" x="155" y="-132" font-family="Helvetica,sans-Serif" font-size="10.00">/KnobsTF1.h</text>
</g>
<!-- Node1 -->
<g id="node2" class="node"><title>Node1</title>
<g id="a_node2"><a xlink:href="_indicator__traits_8h.html" target="_top" xlink:title="calibration/gui/Indicator\l_traits.h">
<polygon fill="white" stroke="black" points="-0.5,-57 -0.5,-87 116.5,-87 116.5,-57 -0.5,-57"/>
<text text-anchor="start" x="7.5" y="-75" font-family="Helvetica,sans-Serif" font-size="10.00">calibration/gui/Indicator</text>
<text text-anchor="middle" x="58" y="-64" font-family="Helvetica,sans-Serif" font-size="10.00">_traits.h</text>
</a>
</g>
</g>
<!-- Node0&#45;&gt;Node1 -->
<g id="edge1" class="edge"><title>Node0&#45;&gt;Node1</title>
<path fill="none" stroke="midnightblue" d="M133.952,-124.679C120.258,-115.361 102.211,-103.082 87.1442,-92.8301"/>
<polygon fill="midnightblue" stroke="midnightblue" points="88.9099,-89.7981 78.6732,-87.0663 84.972,-95.5855 88.9099,-89.7981"/>
</g>
<!-- Node3 -->
<g id="node4" class="node"><title>Node3</title>
<polygon fill="white" stroke="#bfbfbf" points="134.5,-62.5 134.5,-81.5 175.5,-81.5 175.5,-62.5 134.5,-62.5"/>
<text text-anchor="middle" x="155" y="-69.5" font-family="Helvetica,sans-Serif" font-size="10.00">string</text>
</g>
<!-- Node0&#45;&gt;Node3 -->
<g id="edge3" class="edge"><title>Node0&#45;&gt;Node3</title>
<path fill="none" stroke="midnightblue" d="M155,-124.679C155,-115.101 155,-102.394 155,-91.9766"/>
<polygon fill="midnightblue" stroke="midnightblue" points="158.5,-91.8283 155,-81.8283 151.5,-91.8283 158.5,-91.8283"/>
</g>
<!-- Node4 -->
<g id="node5" class="node"><title>Node4</title>
<polygon fill="white" stroke="#bfbfbf" points="193.5,-62.5 193.5,-81.5 252.5,-81.5 252.5,-62.5 193.5,-62.5"/>
<text text-anchor="middle" x="223" y="-69.5" font-family="Helvetica,sans-Serif" font-size="10.00">functional</text>
</g>
<!-- Node0&#45;&gt;Node4 -->
<g id="edge4" class="edge"><title>Node0&#45;&gt;Node4</title>
<path fill="none" stroke="midnightblue" d="M169.755,-124.679C180.568,-114.184 195.252,-99.9317 206.461,-89.0522"/>
<polygon fill="midnightblue" stroke="midnightblue" points="209.166,-91.3046 213.904,-81.8283 204.291,-86.2815 209.166,-91.3046"/>
</g>
<!-- Node2 -->
<g id="node3" class="node"><title>Node2</title>
<polygon fill="white" stroke="#bfbfbf" points="30,-0.5 30,-19.5 86,-19.5 86,-0.5 30,-0.5"/>
<text text-anchor="middle" x="58" y="-7.5" font-family="Helvetica,sans-Serif" font-size="10.00">Rtypes.h</text>
</g>
<!-- Node1&#45;&gt;Node2 -->
<g id="edge2" class="edge"><title>Node1&#45;&gt;Node2</title>
<path fill="none" stroke="midnightblue" d="M58,-56.7808C58,-48.7812 58,-38.6887 58,-30.0168"/>
<polygon fill="midnightblue" stroke="midnightblue" points="61.5001,-29.7305 58,-19.7305 54.5001,-29.7306 61.5001,-29.7305"/>
</g>
</g>
</svg>
