<?xml version="1.0" encoding="UTF-8" standalone="no"?>
<!DOCTYPE svg PUBLIC "-//W3C//DTD SVG 1.1//EN"
 "http://www.w3.org/Graphics/SVG/1.1/DTD/svg11.dtd">
<!-- Generated by graphviz version 2.36.0 (20140111.2315)
 -->
<!-- Title: src/base/math_functions/Linear.h Pages: 1 -->
<svg width="733pt" height="176pt"
 viewBox="0.00 0.00 733.00 176.00" xmlns="http://www.w3.org/2000/svg" xmlns:xlink="http://www.w3.org/1999/xlink">
<g id="graph0" class="graph" transform="scale(1 1) rotate(0) translate(4 172)">
<title>src/base/math_functions/Linear.h</title>
<polygon fill="white" stroke="none" points="-4,4 -4,-172 729,-172 729,4 -4,4"/>
<!-- Node3 -->
<g id="node1" class="node"><title>Node3</title>
<polygon fill="#bfbfbf" stroke="black" points="329,-137 329,-167 453,-167 453,-137 329,-137"/>
<text text-anchor="start" x="337" y="-155" font-family="Helvetica,sans-Serif" font-size="10.00">src/base/math_functions</text>
<text text-anchor="middle" x="391" y="-144" font-family="Helvetica,sans-Serif" font-size="10.00">/Linear.h</text>
</g>
<!-- Node4 -->
<g id="node2" class="node"><title>Node4</title>
<g id="a_node2"><a xlink:href="_t_p_c_sim__tools_8h.html" target="_top" xlink:title="progs/detail/TPCSim\l_tools.h">
<polygon fill="white" stroke="black" points="58.5,-69 58.5,-99 165.5,-99 165.5,-69 58.5,-69"/>
<text text-anchor="start" x="66.5" y="-87" font-family="Helvetica,sans-Serif" font-size="10.00">progs/detail/TPCSim</text>
<text text-anchor="middle" x="112" y="-76" font-family="Helvetica,sans-Serif" font-size="10.00">_tools.h</text>
</a>
</g>
</g>
<!-- Node3&#45;&gt;Node4 -->
<g id="edge1" class="edge"><title>Node3&#45;&gt;Node4</title>
<path fill="none" stroke="midnightblue" d="M321.473,-134.619C279.131,-124.634 223.94,-111.604 175,-100 171.937,-99.2737 168.79,-98.5269 165.615,-97.7726"/>
<polygon fill="midnightblue" stroke="midnightblue" points="320.863,-138.071 331.4,-136.959 322.47,-131.258 320.863,-138.071"/>
</g>
<!-- Node7 -->
<g id="node5" class="node"><title>Node7</title>
<g id="a_node5"><a xlink:href="_omega_eta_g__fit_8cc.html" target="_top" xlink:title="progs/OmegaEtaG_fit.cc">
<polygon fill="white" stroke="black" points="183.5,-74.5 183.5,-93.5 308.5,-93.5 308.5,-74.5 183.5,-74.5"/>
<text text-anchor="middle" x="246" y="-81.5" font-family="Helvetica,sans-Serif" font-size="10.00">progs/OmegaEtaG_fit.cc</text>
</a>
</g>
</g>
<!-- Node3&#45;&gt;Node7 -->
<g id="edge4" class="edge"><title>Node3&#45;&gt;Node7</title>
<path fill="none" stroke="midnightblue" d="M350.748,-132.679C322.776,-119.946 286.759,-103.553 265.074,-93.6819"/>
<polygon fill="midnightblue" stroke="midnightblue" points="349.342,-135.884 359.894,-136.841 352.242,-129.513 349.342,-135.884"/>
</g>
<!-- Node8 -->
<g id="node6" class="node"><title>Node8</title>
<g id="a_node6"><a xlink:href="_fit_gaus_pol3_8cc.html" target="_top" xlink:title="src/calibration/fitfunctions\l/FitGausPol3.cc">
<polygon fill="white" stroke="black" points="327,-69 327,-99 455,-99 455,-69 327,-69"/>
<text text-anchor="start" x="335" y="-87" font-family="Helvetica,sans-Serif" font-size="10.00">src/calibration/fitfunctions</text>
<text text-anchor="middle" x="391" y="-76" font-family="Helvetica,sans-Serif" font-size="10.00">/FitGausPol3.cc</text>
</a>
</g>
</g>
<!-- Node3&#45;&gt;Node8 -->
<g id="edge5" class="edge"><title>Node3&#45;&gt;Node8</title>
<path fill="none" stroke="midnightblue" d="M391,-126.532C391,-117.361 391,-107.245 391,-99.2931"/>
<polygon fill="midnightblue" stroke="midnightblue" points="387.5,-126.679 391,-136.679 394.5,-126.679 387.5,-126.679"/>
</g>
<!-- Node9 -->
<g id="node7" class="node"><title>Node9</title>
<g id="a_node7"><a xlink:href="_energy_8cc.html" target="_top" xlink:title="src/calibration/modules\l/Energy.cc">
<polygon fill="white" stroke="black" points="473.5,-69 473.5,-99 590.5,-99 590.5,-69 473.5,-69"/>
<text text-anchor="start" x="481.5" y="-87" font-family="Helvetica,sans-Serif" font-size="10.00">src/calibration/modules</text>
<text text-anchor="middle" x="532" y="-76" font-family="Helvetica,sans-Serif" font-size="10.00">/Energy.cc</text>
</a>
</g>
</g>
<!-- Node3&#45;&gt;Node9 -->
<g id="edge6" class="edge"><title>Node3&#45;&gt;Node9</title>
<path fill="none" stroke="midnightblue" d="M430.564,-132.48C453.141,-121.913 480.997,-108.874 501.802,-99.1352"/>
<polygon fill="midnightblue" stroke="midnightblue" points="428.821,-129.432 421.248,-136.841 431.789,-135.772 428.821,-129.432"/>
</g>
<!-- Node10 -->
<g id="node8" class="node"><title>Node10</title>
<g id="a_node8"><a xlink:href="_energy___g_u_i_8cc.html" target="_top" xlink:title="src/calibration/modules\l/Energy_GUI.cc">
<polygon fill="white" stroke="black" points="608.5,-69 608.5,-99 725.5,-99 725.5,-69 608.5,-69"/>
<text text-anchor="start" x="616.5" y="-87" font-family="Helvetica,sans-Serif" font-size="10.00">src/calibration/modules</text>
<text text-anchor="middle" x="667" y="-76" font-family="Helvetica,sans-Serif" font-size="10.00">/Energy_GUI.cc</text>
</a>
</g>
</g>
<!-- Node3&#45;&gt;Node10 -->
<g id="edge7" class="edge"><title>Node3&#45;&gt;Node10</title>
<path fill="none" stroke="midnightblue" d="M459.693,-134.574C505.371,-123.651 564.731,-109.456 608.22,-99.0561"/>
<polygon fill="midnightblue" stroke="midnightblue" points="458.782,-131.192 449.87,-136.922 460.41,-138.001 458.782,-131.192"/>
</g>
<!-- Node5 -->
<g id="node3" class="node"><title>Node5</title>
<g id="a_node3"><a xlink:href="_t_p_c_sim__tools_8cc.html" target="_top" xlink:title="progs/detail/TPCSim\l_tools.cc">
<polygon fill="white" stroke="black" points="-0.5,-1 -0.5,-31 106.5,-31 106.5,-1 -0.5,-1"/>
<text text-anchor="start" x="7.5" y="-19" font-family="Helvetica,sans-Serif" font-size="10.00">progs/detail/TPCSim</text>
<text text-anchor="middle" x="53" y="-8" font-family="Helvetica,sans-Serif" font-size="10.00">_tools.cc</text>
</a>
</g>
</g>
<!-- Node4&#45;&gt;Node5 -->
<g id="edge2" class="edge"><title>Node4&#45;&gt;Node5</title>
<path fill="none" stroke="midnightblue" d="M92.5066,-61.1939C83.7162,-51.3605 73.5809,-40.0228 65.7771,-31.2931"/>
<polygon fill="midnightblue" stroke="midnightblue" points="89.9238,-63.5562 99.1979,-68.679 95.1426,-58.891 89.9238,-63.5562"/>
</g>
<!-- Node6 -->
<g id="node4" class="node"><title>Node6</title>
<g id="a_node4"><a xlink:href="_t_p_c_sim_8cc.html" target="_top" xlink:title="progs/TPCSim.cc">
<polygon fill="white" stroke="black" points="124.5,-6.5 124.5,-25.5 219.5,-25.5 219.5,-6.5 124.5,-6.5"/>
<text text-anchor="middle" x="172" y="-13.5" font-family="Helvetica,sans-Serif" font-size="10.00">progs/TPCSim.cc</text>
</a>
</g>
</g>
<!-- Node4&#45;&gt;Node6 -->
<g id="edge3" class="edge"><title>Node4&#45;&gt;Node6</title>
<path fill="none" stroke="midnightblue" d="M131.849,-61.1658C142.801,-49.119 155.799,-34.8216 163.974,-25.8283"/>
<polygon fill="midnightblue" stroke="midnightblue" points="129.156,-58.9252 125.019,-68.679 134.336,-63.6339 129.156,-58.9252"/>
</g>
</g>
</svg>
