<?xml version="1.0" encoding="UTF-8" standalone="no"?>
<!DOCTYPE svg PUBLIC "-//W3C//DTD SVG 1.1//EN"
 "http://www.w3.org/Graphics/SVG/1.1/DTD/svg11.dtd">
<!-- Generated by graphviz version 2.36.0 (20140111.2315)
 -->
<!-- Title: src/analysis/utils/uncertainties/MCSmearingAdlarson.h Pages: 1 -->
<svg width="194pt" height="108pt"
 viewBox="0.00 0.00 194.00 108.00" xmlns="http://www.w3.org/2000/svg" xmlns:xlink="http://www.w3.org/1999/xlink">
<g id="graph0" class="graph" transform="scale(1 1) rotate(0) translate(4 104)">
<title>src/analysis/utils/uncertainties/MCSmearingAdlarson.h</title>
<polygon fill="white" stroke="none" points="-4,4 -4,-104 190,-104 190,4 -4,4"/>
<!-- Node42 -->
<g id="node1" class="node"><title>Node42</title>
<polygon fill="#bfbfbf" stroke="black" points="2,-69 2,-99 184,-99 184,-69 2,-69"/>
<text text-anchor="start" x="10" y="-87" font-family="Helvetica,sans-Serif" font-size="10.00">src/analysis/utils</text>
<text text-anchor="middle" x="93" y="-76" font-family="Helvetica,sans-Serif" font-size="10.00">/uncertainties/MCSmearingAdlarson.h</text>
</g>
<!-- Node43 -->
<g id="node2" class="node"><title>Node43</title>
<g id="a_node2"><a xlink:href="_m_c_smearing_adlarson_8cc.html" target="_top" xlink:title="src/analysis/utils\l/uncertainties/MCSmearingAdlarson.cc">
<polygon fill="white" stroke="black" points="-0.5,-1 -0.5,-31 186.5,-31 186.5,-1 -0.5,-1"/>
<text text-anchor="start" x="7.5" y="-19" font-family="Helvetica,sans-Serif" font-size="10.00">src/analysis/utils</text>
<text text-anchor="middle" x="93" y="-8" font-family="Helvetica,sans-Serif" font-size="10.00">/uncertainties/MCSmearingAdlarson.cc</text>
</a>
</g>
</g>
<!-- Node42&#45;&gt;Node43 -->
<g id="edge1" class="edge"><title>Node42&#45;&gt;Node43</title>
<path fill="none" stroke="midnightblue" d="M93,-58.5322C93,-49.3606 93,-39.2449 93,-31.2931"/>
<polygon fill="midnightblue" stroke="midnightblue" points="89.5001,-58.6789 93,-68.679 96.5001,-58.679 89.5001,-58.6789"/>
</g>
</g>
</svg>
