<?xml version="1.0" encoding="UTF-8" standalone="no"?>
<!DOCTYPE svg PUBLIC "-//W3C//DTD SVG 1.1//EN"
 "http://www.w3.org/Graphics/SVG/1.1/DTD/svg11.dtd">
<!-- Generated by graphviz version 2.36.0 (20140111.2315)
 -->
<!-- Title: src/analysis/utils/MCFakeReconstructed.h Pages: 1 -->
<svg width="460pt" height="108pt"
 viewBox="0.00 0.00 460.00 108.00" xmlns="http://www.w3.org/2000/svg" xmlns:xlink="http://www.w3.org/1999/xlink">
<g id="graph0" class="graph" transform="scale(1 1) rotate(0) translate(4 104)">
<title>src/analysis/utils/MCFakeReconstructed.h</title>
<polygon fill="white" stroke="none" points="-4,4 -4,-104 456,-104 456,4 -4,4"/>
<!-- Node80 -->
<g id="node1" class="node"><title>Node80</title>
<polygon fill="#bfbfbf" stroke="black" points="153.5,-69 153.5,-99 282.5,-99 282.5,-69 153.5,-69"/>
<text text-anchor="start" x="161.5" y="-87" font-family="Helvetica,sans-Serif" font-size="10.00">src/analysis/utils</text>
<text text-anchor="middle" x="218" y="-76" font-family="Helvetica,sans-Serif" font-size="10.00">/MCFakeReconstructed.h</text>
</g>
<!-- Node81 -->
<g id="node2" class="node"><title>Node81</title>
<g id="a_node2"><a xlink:href="_m_c_fake_reconstructed_8cc.html" target="_top" xlink:title="src/analysis/utils\l/MCFakeReconstructed.cc">
<polygon fill="white" stroke="black" points="0,-1 0,-31 134,-31 134,-1 0,-1"/>
<text text-anchor="start" x="8" y="-19" font-family="Helvetica,sans-Serif" font-size="10.00">src/analysis/utils</text>
<text text-anchor="middle" x="67" y="-8" font-family="Helvetica,sans-Serif" font-size="10.00">/MCFakeReconstructed.cc</text>
</a>
</g>
</g>
<!-- Node80&#45;&gt;Node81 -->
<g id="edge1" class="edge"><title>Node80&#45;&gt;Node81</title>
<path fill="none" stroke="midnightblue" d="M176.243,-64.7485C151.864,-54.093 121.577,-40.8547 99.0802,-31.0218"/>
<polygon fill="midnightblue" stroke="midnightblue" points="175.042,-68.0433 185.607,-68.8413 177.846,-61.6292 175.042,-68.0433"/>
</g>
<!-- Node82 -->
<g id="node3" class="node"><title>Node82</title>
<g id="a_node3"><a xlink:href="_test_fitter_8cc.html" target="_top" xlink:title="test/analysis/TestFitter.cc">
<polygon fill="white" stroke="black" points="152.5,-6.5 152.5,-25.5 283.5,-25.5 283.5,-6.5 152.5,-6.5"/>
<text text-anchor="middle" x="218" y="-13.5" font-family="Helvetica,sans-Serif" font-size="10.00">test/analysis/TestFitter.cc</text>
</a>
</g>
</g>
<!-- Node80&#45;&gt;Node82 -->
<g id="edge2" class="edge"><title>Node80&#45;&gt;Node82</title>
<path fill="none" stroke="midnightblue" d="M218,-58.3764C218,-46.9711 218,-34.1364 218,-25.8283"/>
<polygon fill="midnightblue" stroke="midnightblue" points="214.5,-58.6789 218,-68.679 221.5,-58.679 214.5,-58.6789"/>
</g>
<!-- Node83 -->
<g id="node4" class="node"><title>Node83</title>
<g id="a_node4"><a xlink:href="_test_tree_fitter_8cc.html" target="_top" xlink:title="test/analysis/TestTreeFitter.cc">
<polygon fill="white" stroke="black" points="302,-6.5 302,-25.5 452,-25.5 452,-6.5 302,-6.5"/>
<text text-anchor="middle" x="377" y="-13.5" font-family="Helvetica,sans-Serif" font-size="10.00">test/analysis/TestTreeFitter.cc</text>
</a>
</g>
</g>
<!-- Node80&#45;&gt;Node83 -->
<g id="edge3" class="edge"><title>Node80&#45;&gt;Node83</title>
<path fill="none" stroke="midnightblue" d="M261.739,-64.8444C292.468,-52.0889 332.202,-35.5955 356.085,-25.6819"/>
<polygon fill="midnightblue" stroke="midnightblue" points="260.004,-61.7749 252.109,-68.8413 262.687,-68.2401 260.004,-61.7749"/>
</g>
</g>
</svg>
