<?xml version="1.0" encoding="UTF-8" standalone="no"?>
<!DOCTYPE svg PUBLIC "-//W3C//DTD SVG 1.1//EN"
 "http://www.w3.org/Graphics/SVG/1.1/DTD/svg11.dtd">
<!-- Generated by graphviz version 2.36.0 (20140111.2315)
 -->
<!-- Title: src/analysis/utils/MCSmear.h Pages: 1 -->
<svg width="416pt" height="108pt"
 viewBox="0.00 0.00 416.00 108.00" xmlns="http://www.w3.org/2000/svg" xmlns:xlink="http://www.w3.org/1999/xlink">
<g id="graph0" class="graph" transform="scale(1 1) rotate(0) translate(4 104)">
<title>src/analysis/utils/MCSmear.h</title>
<polygon fill="white" stroke="none" points="-4,4 -4,-104 412,-104 412,4 -4,4"/>
<!-- Node42 -->
<g id="node1" class="node"><title>Node42</title>
<polygon fill="#bfbfbf" stroke="black" points="129,-69 129,-99 219,-99 219,-69 129,-69"/>
<text text-anchor="start" x="137" y="-87" font-family="Helvetica,sans-Serif" font-size="10.00">src/analysis/utils</text>
<text text-anchor="middle" x="174" y="-76" font-family="Helvetica,sans-Serif" font-size="10.00">/MCSmear.h</text>
</g>
<!-- Node43 -->
<g id="node2" class="node"><title>Node43</title>
<g id="a_node2"><a xlink:href="_m_c_smear_8cc.html" target="_top" xlink:title="src/analysis/utils\l/MCSmear.cc">
<polygon fill="white" stroke="black" points="0,-1 0,-31 90,-31 90,-1 0,-1"/>
<text text-anchor="start" x="8" y="-19" font-family="Helvetica,sans-Serif" font-size="10.00">src/analysis/utils</text>
<text text-anchor="middle" x="45" y="-8" font-family="Helvetica,sans-Serif" font-size="10.00">/MCSmear.cc</text>
</a>
</g>
</g>
<!-- Node42&#45;&gt;Node43 -->
<g id="edge1" class="edge"><title>Node42&#45;&gt;Node43</title>
<path fill="none" stroke="midnightblue" d="M137.248,-64.1968C116.693,-53.6802 91.4925,-40.7868 72.628,-31.1352"/>
<polygon fill="midnightblue" stroke="midnightblue" points="135.83,-67.4024 146.326,-68.8413 139.018,-61.1707 135.83,-67.4024"/>
</g>
<!-- Node44 -->
<g id="node3" class="node"><title>Node44</title>
<g id="a_node3"><a xlink:href="_test_fitter_8cc.html" target="_top" xlink:title="test/analysis/TestFitter.cc">
<polygon fill="white" stroke="black" points="108.5,-6.5 108.5,-25.5 239.5,-25.5 239.5,-6.5 108.5,-6.5"/>
<text text-anchor="middle" x="174" y="-13.5" font-family="Helvetica,sans-Serif" font-size="10.00">test/analysis/TestFitter.cc</text>
</a>
</g>
</g>
<!-- Node42&#45;&gt;Node44 -->
<g id="edge2" class="edge"><title>Node42&#45;&gt;Node44</title>
<path fill="none" stroke="midnightblue" d="M174,-58.3764C174,-46.9711 174,-34.1364 174,-25.8283"/>
<polygon fill="midnightblue" stroke="midnightblue" points="170.5,-58.6789 174,-68.679 177.5,-58.679 170.5,-58.6789"/>
</g>
<!-- Node45 -->
<g id="node4" class="node"><title>Node45</title>
<g id="a_node4"><a xlink:href="_test_tree_fitter_8cc.html" target="_top" xlink:title="test/analysis/TestTreeFitter.cc">
<polygon fill="white" stroke="black" points="258,-6.5 258,-25.5 408,-25.5 408,-6.5 258,-6.5"/>
<text text-anchor="middle" x="333" y="-13.5" font-family="Helvetica,sans-Serif" font-size="10.00">test/analysis/TestTreeFitter.cc</text>
</a>
</g>
</g>
<!-- Node42&#45;&gt;Node45 -->
<g id="edge3" class="edge"><title>Node42&#45;&gt;Node45</title>
<path fill="none" stroke="midnightblue" d="M217.739,-64.8444C248.468,-52.0889 288.202,-35.5955 312.085,-25.6819"/>
<polygon fill="midnightblue" stroke="midnightblue" points="216.004,-61.7749 208.109,-68.8413 218.687,-68.2401 216.004,-61.7749"/>
</g>
</g>
</svg>
