<?xml version="1.0" encoding="UTF-8" standalone="no"?>
<!DOCTYPE svg PUBLIC "-//W3C//DTD SVG 1.1//EN"
 "http://www.w3.org/Graphics/SVG/1.1/DTD/svg11.dtd">
<!-- Generated by graphviz version 2.36.0 (20140111.2315)
 -->
<!-- Title: src/analysis/physics/tunings/MCEnergyThresholds.h Pages: 1 -->
<svg width="170pt" height="108pt"
 viewBox="0.00 0.00 170.00 108.00" xmlns="http://www.w3.org/2000/svg" xmlns:xlink="http://www.w3.org/1999/xlink">
<g id="graph0" class="graph" transform="scale(1 1) rotate(0) translate(4 104)">
<title>src/analysis/physics/tunings/MCEnergyThresholds.h</title>
<polygon fill="white" stroke="none" points="-4,4 -4,-104 166,-104 166,4 -4,4"/>
<!-- Node87 -->
<g id="node1" class="node"><title>Node87</title>
<polygon fill="#bfbfbf" stroke="black" points="2.5,-69 2.5,-99 159.5,-99 159.5,-69 2.5,-69"/>
<text text-anchor="start" x="10.5" y="-87" font-family="Helvetica,sans-Serif" font-size="10.00">src/analysis/physics</text>
<text text-anchor="middle" x="81" y="-76" font-family="Helvetica,sans-Serif" font-size="10.00">/tunings/MCEnergyThresholds.h</text>
</g>
<!-- Node88 -->
<g id="node2" class="node"><title>Node88</title>
<g id="a_node2"><a xlink:href="_m_c_energy_thresholds_8cc.html" target="_top" xlink:title="src/analysis/physics\l/tunings/MCEnergyThresholds.cc">
<polygon fill="white" stroke="black" points="0,-1 0,-31 162,-31 162,-1 0,-1"/>
<text text-anchor="start" x="8" y="-19" font-family="Helvetica,sans-Serif" font-size="10.00">src/analysis/physics</text>
<text text-anchor="middle" x="81" y="-8" font-family="Helvetica,sans-Serif" font-size="10.00">/tunings/MCEnergyThresholds.cc</text>
</a>
</g>
</g>
<!-- Node87&#45;&gt;Node88 -->
<g id="edge1" class="edge"><title>Node87&#45;&gt;Node88</title>
<path fill="none" stroke="midnightblue" d="M81,-58.5322C81,-49.3606 81,-39.2449 81,-31.2931"/>
<polygon fill="midnightblue" stroke="midnightblue" points="77.5001,-58.6789 81,-68.679 84.5001,-58.679 77.5001,-58.6789"/>
</g>
</g>
</svg>
