<?xml version="1.0" encoding="UTF-8" standalone="no"?>
<!DOCTYPE svg PUBLIC "-//W3C//DTD SVG 1.1//EN"
 "http://www.w3.org/Graphics/SVG/1.1/DTD/svg11.dtd">
<!-- Generated by graphviz version 2.36.0 (20140111.2315)
 -->
<!-- Title: src/analysis/utils/MCSmear.h Pages: 1 -->
<svg width="1732pt" height="556pt"
 viewBox="0.00 0.00 1732.00 556.00" xmlns="http://www.w3.org/2000/svg" xmlns:xlink="http://www.w3.org/1999/xlink">
<g id="graph0" class="graph" transform="scale(1 1) rotate(0) translate(4 552)">
<title>src/analysis/utils/MCSmear.h</title>
<polygon fill="white" stroke="none" points="-4,4 -4,-552 1728,-552 1728,4 -4,4"/>
<!-- Node0 -->
<g id="node1" class="node"><title>Node0</title>
<polygon fill="#bfbfbf" stroke="black" points="831,-517 831,-547 921,-547 921,-517 831,-517"/>
<text text-anchor="start" x="839" y="-535" font-family="Helvetica,sans-Serif" font-size="10.00">src/analysis/utils</text>
<text text-anchor="middle" x="876" y="-524" font-family="Helvetica,sans-Serif" font-size="10.00">/MCSmear.h</text>
</g>
<!-- Node1 -->
<g id="node2" class="node"><title>Node1</title>
<polygon fill="white" stroke="#bfbfbf" points="1094,-168.5 1094,-187.5 1146,-187.5 1146,-168.5 1094,-168.5"/>
<text text-anchor="middle" x="1120" y="-175.5" font-family="Helvetica,sans-Serif" font-size="10.00">memory</text>
</g>
<!-- Node0&#45;&gt;Node1 -->
<g id="edge1" class="edge"><title>Node0&#45;&gt;Node1</title>
<path fill="none" stroke="midnightblue" d="M886.604,-516.837C901.281,-495.786 926,-454.474 926,-415 926,-415 926,-415 926,-357 926,-333.392 1052.35,-231.961 1101.11,-193.691"/>
<polygon fill="midnightblue" stroke="midnightblue" points="1103.29,-196.43 1109.01,-187.512 1098.98,-190.916 1103.29,-196.43"/>
</g>
<!-- Node2 -->
<g id="node3" class="node"><title>Node2</title>
<g id="a_node3"><a xlink:href="_uncertainties_8h.html" target="_top" xlink:title="analysis/utils/Uncertainties.h">
<polygon fill="white" stroke="black" points="754.5,-460.5 754.5,-479.5 897.5,-479.5 897.5,-460.5 754.5,-460.5"/>
<text text-anchor="middle" x="826" y="-467.5" font-family="Helvetica,sans-Serif" font-size="10.00">analysis/utils/Uncertainties.h</text>
</a>
</g>
</g>
<!-- Node0&#45;&gt;Node2 -->
<g id="edge2" class="edge"><title>Node0&#45;&gt;Node2</title>
<path fill="none" stroke="midnightblue" d="M864.151,-516.781C856.81,-507.972 847.355,-496.626 839.694,-487.433"/>
<polygon fill="midnightblue" stroke="midnightblue" points="842.366,-485.172 833.275,-479.731 836.989,-489.653 842.366,-485.172"/>
</g>
<!-- Node3 -->
<g id="node4" class="node"><title>Node3</title>
<g id="a_node4"><a xlink:href="_t_particle_8h.html" target="_top" xlink:title="tree/TParticle.h">
<polygon fill="white" stroke="black" points="696.5,-404.5 696.5,-423.5 779.5,-423.5 779.5,-404.5 696.5,-404.5"/>
<text text-anchor="middle" x="738" y="-411.5" font-family="Helvetica,sans-Serif" font-size="10.00">tree/TParticle.h</text>
</a>
</g>
</g>
<!-- Node0&#45;&gt;Node3 -->
<g id="edge80" class="edge"><title>Node0&#45;&gt;Node3</title>
<path fill="none" stroke="midnightblue" d="M830.892,-525.462C801.677,-519.381 765.4,-506.646 745,-480 734.983,-466.916 734.076,-447.766 735.168,-433.638"/>
<polygon fill="midnightblue" stroke="midnightblue" points="738.657,-433.935 736.337,-423.598 731.704,-433.126 738.657,-433.935"/>
</g>
<!-- Node4 -->
<g id="node5" class="node"><title>Node4</title>
<g id="a_node5"><a xlink:href="_t_candidate_8h.html" target="_top" xlink:title="tree/TCandidate.h">
<polygon fill="white" stroke="black" points="1268.5,-348.5 1268.5,-367.5 1363.5,-367.5 1363.5,-348.5 1268.5,-348.5"/>
<text text-anchor="middle" x="1316" y="-355.5" font-family="Helvetica,sans-Serif" font-size="10.00">tree/TCandidate.h</text>
</a>
</g>
</g>
<!-- Node0&#45;&gt;Node4 -->
<g id="edge81" class="edge"><title>Node0&#45;&gt;Node4</title>
<path fill="none" stroke="midnightblue" d="M912.007,-516.925C996.248,-483.994 1205.05,-402.372 1284.57,-371.288"/>
<polygon fill="midnightblue" stroke="midnightblue" points="1286,-374.485 1294.04,-367.585 1283.45,-367.966 1286,-374.485"/>
</g>
<!-- Node2&#45;&gt;Node3 -->
<g id="edge3" class="edge"><title>Node2&#45;&gt;Node3</title>
<path fill="none" stroke="midnightblue" d="M811.861,-460.324C798.134,-451.9 777.064,-438.971 760.936,-429.074"/>
<polygon fill="midnightblue" stroke="midnightblue" points="762.457,-425.902 752.104,-423.655 758.796,-431.868 762.457,-425.902"/>
</g>
<!-- Node7 -->
<g id="node8" class="node"><title>Node7</title>
<g id="a_node8"><a xlink:href="_detector__t_8h.html" target="_top" xlink:title="base/Detector_t.h">
<polygon fill="white" stroke="black" points="1280.5,-168.5 1280.5,-187.5 1375.5,-187.5 1375.5,-168.5 1280.5,-168.5"/>
<text text-anchor="middle" x="1328" y="-175.5" font-family="Helvetica,sans-Serif" font-size="10.00">base/Detector_t.h</text>
</a>
</g>
</g>
<!-- Node2&#45;&gt;Node7 -->
<g id="edge79" class="edge"><title>Node2&#45;&gt;Node7</title>
<path fill="none" stroke="midnightblue" d="M851.214,-460.38C920.713,-435.854 1119.07,-360.641 1258,-256 1281.13,-238.575 1302.75,-212.778 1315.67,-195.928"/>
<polygon fill="midnightblue" stroke="midnightblue" points="1318.71,-197.699 1321.91,-187.597 1313.11,-193.503 1318.71,-197.699"/>
</g>
<!-- Node3&#45;&gt;Node1 -->
<g id="edge78" class="edge"><title>Node3&#45;&gt;Node1</title>
<path fill="none" stroke="midnightblue" d="M759.533,-404.406C778.59,-396.332 806.749,-383.233 829,-368 870.272,-339.745 871.87,-321.855 912,-292 959.334,-256.786 974.006,-251.877 1026,-224 1047.59,-212.424 1072.64,-200.505 1091.45,-191.844"/>
<polygon fill="midnightblue" stroke="midnightblue" points="1093.02,-194.972 1100.66,-187.631 1090.11,-188.606 1093.02,-194.972"/>
</g>
<!-- Node3&#45;&gt;Node4 -->
<g id="edge4" class="edge"><title>Node3&#45;&gt;Node4</title>
<path fill="none" stroke="midnightblue" d="M779.568,-409.116C881.079,-399.633 1141.8,-375.275 1258.28,-364.393"/>
<polygon fill="midnightblue" stroke="midnightblue" points="1258.79,-367.86 1268.42,-363.445 1258.14,-360.89 1258.79,-367.86"/>
</g>
<!-- Node16 -->
<g id="node17" class="node"><title>Node16</title>
<polygon fill="white" stroke="#bfbfbf" points="1082,-56.5 1082,-75.5 1126,-75.5 1126,-56.5 1082,-56.5"/>
<text text-anchor="middle" x="1104" y="-63.5" font-family="Helvetica,sans-Serif" font-size="10.00">vector</text>
</g>
<!-- Node3&#45;&gt;Node16 -->
<g id="edge75" class="edge"><title>Node3&#45;&gt;Node16</title>
<path fill="none" stroke="midnightblue" d="M779.502,-405.247C804.194,-398.825 834.748,-387.484 856,-368 949.186,-282.566 886.125,-196.676 980,-112 1005.79,-88.7413 1044.53,-77.248 1071.83,-71.7424"/>
<polygon fill="midnightblue" stroke="midnightblue" points="1072.49,-75.1797 1081.68,-69.9134 1071.21,-68.2973 1072.49,-75.1797"/>
</g>
<!-- Node26 -->
<g id="node27" class="node"><title>Node26</title>
<g id="a_node27"><a xlink:href="types_8h.html" target="_top" xlink:title="base/types.h">
<polygon fill="white" stroke="black" points="108.5,-168.5 108.5,-187.5 181.5,-187.5 181.5,-168.5 108.5,-168.5"/>
<text text-anchor="middle" x="145" y="-175.5" font-family="Helvetica,sans-Serif" font-size="10.00">base/types.h</text>
</a>
</g>
</g>
<!-- Node3&#45;&gt;Node26 -->
<g id="edge45" class="edge"><title>Node3&#45;&gt;Node26</title>
<path fill="none" stroke="midnightblue" d="M696.297,-407.036C615.983,-394.806 434.967,-363.607 290,-312 233.794,-291.991 207.132,-301.036 168,-256 153.873,-239.742 148.42,-215.092 146.317,-198.083"/>
<polygon fill="midnightblue" stroke="midnightblue" points="149.763,-197.348 145.331,-187.725 142.795,-198.012 149.763,-197.348"/>
</g>
<!-- Node27 -->
<g id="node28" class="node"><title>Node27</title>
<g id="a_node28"><a xlink:href="_particle_type_8h.html" target="_top" xlink:title="base/ParticleType.h">
<polygon fill="white" stroke="black" points="299,-292.5 299,-311.5 403,-311.5 403,-292.5 299,-292.5"/>
<text text-anchor="middle" x="351" y="-299.5" font-family="Helvetica,sans-Serif" font-size="10.00">base/ParticleType.h</text>
</a>
</g>
</g>
<!-- Node3&#45;&gt;Node27 -->
<g id="edge46" class="edge"><title>Node3&#45;&gt;Node27</title>
<path fill="none" stroke="midnightblue" d="M707.955,-404.46C638.865,-384.822 468.683,-336.45 390.923,-314.348"/>
<polygon fill="midnightblue" stroke="midnightblue" points="391.602,-310.902 381.026,-311.535 389.688,-317.635 391.602,-310.902"/>
</g>
<!-- Node32 -->
<g id="node33" class="node"><title>Node32</title>
<g id="a_node33"><a xlink:href="_tree_8h.html" target="_top" xlink:title="base/Tree.h">
<polygon fill="white" stroke="black" points="743,-230.5 743,-249.5 811,-249.5 811,-230.5 743,-230.5"/>
<text text-anchor="middle" x="777" y="-237.5" font-family="Helvetica,sans-Serif" font-size="10.00">base/Tree.h</text>
</a>
</g>
</g>
<!-- Node3&#45;&gt;Node32 -->
<g id="edge61" class="edge"><title>Node3&#45;&gt;Node32</title>
<path fill="none" stroke="midnightblue" d="M739.988,-404.234C746.065,-377.433 764.489,-296.178 772.824,-259.415"/>
<polygon fill="midnightblue" stroke="midnightblue" points="776.265,-260.071 775.063,-249.544 769.438,-258.523 776.265,-260.071"/>
</g>
<!-- Node37 -->
<g id="node38" class="node"><title>Node37</title>
<polygon fill="white" stroke="#bfbfbf" points="608.5,-168.5 608.5,-187.5 637.5,-187.5 637.5,-168.5 608.5,-168.5"/>
<text text-anchor="middle" x="623" y="-175.5" font-family="Helvetica,sans-Serif" font-size="10.00">list</text>
</g>
<!-- Node3&#45;&gt;Node37 -->
<g id="edge76" class="edge"><title>Node3&#45;&gt;Node37</title>
<path fill="none" stroke="midnightblue" d="M733.771,-404.394C717.009,-370.287 655.029,-244.173 631.836,-196.98"/>
<polygon fill="midnightblue" stroke="midnightblue" points="634.942,-195.365 627.391,-187.934 628.66,-198.452 634.942,-195.365"/>
</g>
<!-- Node40 -->
<g id="node41" class="node"><title>Node40</title>
<g id="a_node41"><a xlink:href="_lorentz_vec_8h.html" target="_top" xlink:title="base/vec/LorentzVec.h">
<polygon fill="white" stroke="black" points="-0.5,-292.5 -0.5,-311.5 116.5,-311.5 116.5,-292.5 -0.5,-292.5"/>
<text text-anchor="middle" x="58" y="-299.5" font-family="Helvetica,sans-Serif" font-size="10.00">base/vec/LorentzVec.h</text>
</a>
</g>
</g>
<!-- Node3&#45;&gt;Node40 -->
<g id="edge73" class="edge"><title>Node3&#45;&gt;Node40</title>
<path fill="none" stroke="midnightblue" d="M696.143,-413.356C576.173,-413.836 233.164,-411.284 131,-368 106.215,-357.499 84.1172,-335.055 70.8926,-319.501"/>
<polygon fill="midnightblue" stroke="midnightblue" points="73.5401,-317.209 64.4978,-311.688 68.1231,-321.643 73.5401,-317.209"/>
</g>
<!-- Node41 -->
<g id="node42" class="node"><title>Node41</title>
<polygon fill="white" stroke="#bfbfbf" points="766,-348.5 766,-367.5 820,-367.5 820,-348.5 766,-348.5"/>
<text text-anchor="middle" x="793" y="-355.5" font-family="Helvetica,sans-Serif" font-size="10.00">iostream</text>
</g>
<!-- Node3&#45;&gt;Node41 -->
<g id="edge77" class="edge"><title>Node3&#45;&gt;Node41</title>
<path fill="none" stroke="midnightblue" d="M747.082,-404.083C755.171,-396.141 767.195,-384.335 776.91,-374.797"/>
<polygon fill="midnightblue" stroke="midnightblue" points="779.403,-377.254 784.087,-367.751 774.499,-372.26 779.403,-377.254"/>
</g>
<!-- Node4&#45;&gt;Node1 -->
<g id="edge43" class="edge"><title>Node4&#45;&gt;Node1</title>
<path fill="none" stroke="midnightblue" d="M1270.47,-348.402C1222.55,-336.662 1149.53,-310.499 1116,-256 1105.18,-238.418 1108.85,-214.075 1113.48,-197.498"/>
<polygon fill="midnightblue" stroke="midnightblue" points="1116.84,-198.465 1116.51,-187.876 1110.17,-196.359 1116.84,-198.465"/>
</g>
<!-- Node5 -->
<g id="node6" class="node"><title>Node5</title>
<g id="a_node6"><a xlink:href="_t_cluster_8h.html" target="_top" xlink:title="TCluster.h">
<polygon fill="white" stroke="black" points="1361,-292.5 1361,-311.5 1423,-311.5 1423,-292.5 1361,-292.5"/>
<text text-anchor="middle" x="1392" y="-299.5" font-family="Helvetica,sans-Serif" font-size="10.00">TCluster.h</text>
</a>
</g>
</g>
<!-- Node4&#45;&gt;Node5 -->
<g id="edge5" class="edge"><title>Node4&#45;&gt;Node5</title>
<path fill="none" stroke="midnightblue" d="M1328.21,-348.324C1339.78,-340.107 1357.38,-327.602 1371.16,-317.807"/>
<polygon fill="midnightblue" stroke="midnightblue" points="1373.44,-320.479 1379.57,-311.834 1369.39,-314.773 1373.44,-320.479"/>
</g>
<!-- Node4&#45;&gt;Node7 -->
<g id="edge39" class="edge"><title>Node4&#45;&gt;Node7</title>
<path fill="none" stroke="midnightblue" d="M1316.58,-348.415C1318.41,-321.227 1324.12,-236.563 1326.7,-198.217"/>
<polygon fill="midnightblue" stroke="midnightblue" points="1330.22,-198.131 1327.4,-187.918 1323.23,-197.66 1330.22,-198.131"/>
</g>
<!-- Node4&#45;&gt;Node16 -->
<g id="edge40" class="edge"><title>Node4&#45;&gt;Node16</title>
<path fill="none" stroke="midnightblue" d="M1363.52,-354.324C1438.04,-349.413 1578.31,-337.081 1621,-312 1680.93,-276.789 1725.2,-222.446 1682,-168 1613.52,-81.701 1248.14,-69.1306 1136.45,-67.3073"/>
<polygon fill="midnightblue" stroke="midnightblue" points="1136.21,-63.8035 1126.16,-67.1585 1136.11,-70.8028 1136.21,-63.8035"/>
</g>
<!-- Node21 -->
<g id="node22" class="node"><title>Node21</title>
<polygon fill="white" stroke="#bfbfbf" points="1623,-168.5 1623,-187.5 1673,-187.5 1673,-168.5 1623,-168.5"/>
<text text-anchor="middle" x="1648" y="-175.5" font-family="Helvetica,sans-Serif" font-size="10.00">iomanip</text>
</g>
<!-- Node4&#45;&gt;Node21 -->
<g id="edge41" class="edge"><title>Node4&#45;&gt;Node21</title>
<path fill="none" stroke="midnightblue" d="M1363.56,-357.84C1420.47,-356.959 1517.19,-349.358 1590,-312 1621.32,-295.931 1632.11,-288.341 1646,-256 1653.98,-237.412 1653.23,-213.903 1651.28,-197.781"/>
<polygon fill="midnightblue" stroke="midnightblue" points="1654.68,-196.899 1649.75,-187.523 1647.76,-197.929 1654.68,-196.899"/>
</g>
<!-- Node22 -->
<g id="node23" class="node"><title>Node22</title>
<polygon fill="white" stroke="#bfbfbf" points="1501,-168.5 1501,-187.5 1553,-187.5 1553,-168.5 1501,-168.5"/>
<text text-anchor="middle" x="1527" y="-175.5" font-family="Helvetica,sans-Serif" font-size="10.00">sstream</text>
</g>
<!-- Node4&#45;&gt;Node22 -->
<g id="edge42" class="edge"><title>Node4&#45;&gt;Node22</title>
<path fill="none" stroke="midnightblue" d="M1363.57,-357.575C1434.7,-355.537 1566.96,-339.912 1628,-256 1636.37,-244.499 1635.74,-235.929 1628,-224 1613.77,-202.079 1586.11,-190.747 1563.33,-184.94"/>
<polygon fill="midnightblue" stroke="midnightblue" points="1563.8,-181.458 1553.27,-182.643 1562.24,-188.282 1563.8,-181.458"/>
</g>
<!-- Node25 -->
<g id="node26" class="node"><title>Node25</title>
<polygon fill="white" stroke="#bfbfbf" points="1020,-168.5 1020,-187.5 1076,-187.5 1076,-168.5 1020,-168.5"/>
<text text-anchor="middle" x="1048" y="-175.5" font-family="Helvetica,sans-Serif" font-size="10.00">algorithm</text>
</g>
<!-- Node4&#45;&gt;Node25 -->
<g id="edge44" class="edge"><title>Node4&#45;&gt;Node25</title>
<path fill="none" stroke="midnightblue" d="M1268.44,-352.796C1232.52,-347.72 1183.36,-336.547 1147,-312 1102.8,-282.166 1070.73,-225.865 1056.38,-197.024"/>
<polygon fill="midnightblue" stroke="midnightblue" points="1059.4,-195.229 1051.9,-187.741 1053.09,-198.269 1059.4,-195.229"/>
</g>
<!-- Node5&#45;&gt;Node1 -->
<g id="edge38" class="edge"><title>Node5&#45;&gt;Node1</title>
<path fill="none" stroke="midnightblue" d="M1360.55,-299.821C1299.14,-296.85 1166.53,-286.93 1135,-256 1119.69,-240.977 1117.54,-215.294 1118.15,-197.754"/>
<polygon fill="midnightblue" stroke="midnightblue" points="1121.66,-197.812 1118.84,-187.598 1114.67,-197.337 1121.66,-197.812"/>
</g>
<!-- Node6 -->
<g id="node7" class="node"><title>Node6</title>
<g id="a_node7"><a xlink:href="_t_detector_read_hit_8h.html" target="_top" xlink:title="tree/TDetectorReadHit.h">
<polygon fill="white" stroke="black" points="1496,-230.5 1496,-249.5 1620,-249.5 1620,-230.5 1496,-230.5"/>
<text text-anchor="middle" x="1558" y="-237.5" font-family="Helvetica,sans-Serif" font-size="10.00">tree/TDetectorReadHit.h</text>
</a>
</g>
</g>
<!-- Node5&#45;&gt;Node6 -->
<g id="edge6" class="edge"><title>Node5&#45;&gt;Node6</title>
<path fill="none" stroke="midnightblue" d="M1415.78,-292.403C1444.38,-282.067 1492.55,-264.656 1524.8,-252.999"/>
<polygon fill="midnightblue" stroke="midnightblue" points="1526.05,-256.271 1534.26,-249.581 1523.67,-249.688 1526.05,-256.271"/>
</g>
<!-- Node5&#45;&gt;Node7 -->
<g id="edge26" class="edge"><title>Node5&#45;&gt;Node7</title>
<path fill="none" stroke="midnightblue" d="M1387.4,-292.226C1376.93,-272.266 1351.16,-223.144 1337.25,-196.638"/>
<polygon fill="midnightblue" stroke="midnightblue" points="1340.31,-194.924 1332.56,-187.694 1334.11,-198.176 1340.31,-194.924"/>
</g>
<!-- Node10 -->
<g id="node11" class="node"><title>Node10</title>
<g id="a_node11"><a xlink:href="vec3_8h.html" target="_top" xlink:title="base/vec/vec3.h">
<polygon fill="white" stroke="black" points="122.5,-112.5 122.5,-131.5 211.5,-131.5 211.5,-112.5 122.5,-112.5"/>
<text text-anchor="middle" x="167" y="-119.5" font-family="Helvetica,sans-Serif" font-size="10.00">base/vec/vec3.h</text>
</a>
</g>
</g>
<!-- Node5&#45;&gt;Node10 -->
<g id="edge33" class="edge"><title>Node5&#45;&gt;Node10</title>
<path fill="none" stroke="midnightblue" d="M1360.79,-300.813C1198.48,-299.683 454.516,-292.535 359,-256 338.058,-247.99 339.21,-235.562 320,-224 284.498,-202.633 268.583,-210.824 234,-188 213.195,-174.269 193.204,-153.574 180.559,-139.239"/>
<polygon fill="midnightblue" stroke="midnightblue" points="183.189,-136.93 174.012,-131.635 177.884,-141.497 183.189,-136.93"/>
</g>
<!-- Node12 -->
<g id="node13" class="node"><title>Node12</title>
<polygon fill="white" stroke="#bfbfbf" points="226,-0.5 226,-19.5 270,-19.5 270,-0.5 226,-0.5"/>
<text text-anchor="middle" x="248" y="-7.5" font-family="Helvetica,sans-Serif" font-size="10.00">cmath</text>
</g>
<!-- Node5&#45;&gt;Node12 -->
<g id="edge35" class="edge"><title>Node5&#45;&gt;Node12</title>
<path fill="none" stroke="midnightblue" d="M1423.13,-301.741C1473.91,-301.657 1576.38,-295.996 1651,-256 1692.56,-233.722 1724,-226.157 1724,-179 1724,-179 1724,-179 1724,-121 1724,23.6911 1548.65,-73.313 1405,-56 1178.45,-28.6959 443.748,-14.4285 280.386,-11.5493"/>
<polygon fill="midnightblue" stroke="midnightblue" points="280.102,-8.04392 270.043,-11.3689 279.98,-15.0429 280.102,-8.04392"/>
</g>
<!-- Node14 -->
<g id="node15" class="node"><title>Node14</title>
<g id="a_node15"><a xlink:href="base_2std__ext_2math_8h.html" target="_top" xlink:title="base/std_ext/math.h">
<polygon fill="white" stroke="black" points="1215,-112.5 1215,-131.5 1321,-131.5 1321,-112.5 1215,-112.5"/>
<text text-anchor="middle" x="1268" y="-119.5" font-family="Helvetica,sans-Serif" font-size="10.00">base/std_ext/math.h</text>
</a>
</g>
</g>
<!-- Node5&#45;&gt;Node14 -->
<g id="edge27" class="edge"><title>Node5&#45;&gt;Node14</title>
<path fill="none" stroke="midnightblue" d="M1394.34,-292.499C1400.04,-269.766 1412.23,-206.679 1384,-168 1371.36,-150.68 1351.08,-140.026 1330.99,-133.473"/>
<polygon fill="midnightblue" stroke="midnightblue" points="1331.76,-130.05 1321.18,-130.574 1329.78,-136.763 1331.76,-130.05"/>
</g>
<!-- Node5&#45;&gt;Node16 -->
<g id="edge34" class="edge"><title>Node5&#45;&gt;Node16</title>
<path fill="none" stroke="midnightblue" d="M1397.67,-292.159C1415.84,-262.584 1468.84,-165.931 1422,-112 1385.24,-69.6677 1209.98,-66.0752 1136.52,-66.4808"/>
<polygon fill="midnightblue" stroke="midnightblue" points="1136.42,-62.9814 1126.45,-66.5655 1136.48,-69.9811 1136.42,-62.9814"/>
</g>
<!-- Node5&#45;&gt;Node21 -->
<g id="edge36" class="edge"><title>Node5&#45;&gt;Node21</title>
<path fill="none" stroke="midnightblue" d="M1423.39,-299.1C1480.64,-294.997 1598.77,-283.369 1628,-256 1643.88,-241.132 1647.79,-215.413 1648.45,-197.823"/>
<polygon fill="midnightblue" stroke="midnightblue" points="1651.95,-197.652 1648.5,-187.633 1644.95,-197.613 1651.95,-197.652"/>
</g>
<!-- Node5&#45;&gt;Node22 -->
<g id="edge37" class="edge"><title>Node5&#45;&gt;Node22</title>
<path fill="none" stroke="midnightblue" d="M1402.06,-292.475C1412.6,-283.499 1429.6,-268.907 1444,-256 1467.4,-235.033 1493.94,-210.23 1510.57,-194.555"/>
<polygon fill="midnightblue" stroke="midnightblue" points="1513.02,-197.06 1517.88,-187.65 1508.21,-191.971 1513.02,-197.06"/>
</g>
<!-- Node23 -->
<g id="node24" class="node"><title>Node23</title>
<g id="a_node24"><a xlink:href="shared__ptr__container_8h.html" target="_top" xlink:title="base/std_ext/shared\l_ptr_container.h">
<polygon fill="white" stroke="black" points="1144.5,-225 1144.5,-255 1249.5,-255 1249.5,-225 1144.5,-225"/>
<text text-anchor="start" x="1152.5" y="-243" font-family="Helvetica,sans-Serif" font-size="10.00">base/std_ext/shared</text>
<text text-anchor="middle" x="1197" y="-232" font-family="Helvetica,sans-Serif" font-size="10.00">_ptr_container.h</text>
</a>
</g>
</g>
<!-- Node5&#45;&gt;Node23 -->
<g id="edge28" class="edge"><title>Node5&#45;&gt;Node23</title>
<path fill="none" stroke="midnightblue" d="M1364.06,-292.403C1335.09,-283.488 1289.01,-269.311 1252.58,-258.101"/>
<polygon fill="midnightblue" stroke="midnightblue" points="1253.17,-254.621 1242.58,-255.025 1251.11,-261.311 1253.17,-254.621"/>
</g>
<!-- Node6&#45;&gt;Node7 -->
<g id="edge7" class="edge"><title>Node6&#45;&gt;Node7</title>
<path fill="none" stroke="midnightblue" d="M1525.05,-230.403C1484.4,-219.799 1415.21,-201.751 1370.58,-190.107"/>
<polygon fill="midnightblue" stroke="midnightblue" points="1371.45,-186.718 1360.89,-187.581 1369.68,-193.492 1371.45,-186.718"/>
</g>
<!-- Node6&#45;&gt;Node21 -->
<g id="edge24" class="edge"><title>Node6&#45;&gt;Node21</title>
<path fill="none" stroke="midnightblue" d="M1570.89,-230.403C1585.46,-220.691 1609.4,-204.732 1626.75,-193.17"/>
<polygon fill="midnightblue" stroke="midnightblue" points="1628.75,-196.04 1635.13,-187.581 1624.87,-190.215 1628.75,-196.04"/>
</g>
<!-- Node6&#45;&gt;Node22 -->
<g id="edge25" class="edge"><title>Node6&#45;&gt;Node22</title>
<path fill="none" stroke="midnightblue" d="M1553.56,-230.403C1549.05,-221.671 1541.93,-207.889 1536.19,-196.794"/>
<polygon fill="midnightblue" stroke="midnightblue" points="1539.13,-194.858 1531.43,-187.581 1532.91,-198.071 1539.13,-194.858"/>
</g>
<!-- Node8 -->
<g id="node9" class="node"><title>Node8</title>
<g id="a_node9"><a xlink:href="bitflag_8h.html" target="_top" xlink:title="base/bitflag.h">
<polygon fill="white" stroke="black" points="1338.5,-112.5 1338.5,-131.5 1413.5,-131.5 1413.5,-112.5 1338.5,-112.5"/>
<text text-anchor="middle" x="1376" y="-119.5" font-family="Helvetica,sans-Serif" font-size="10.00">base/bitflag.h</text>
</a>
</g>
</g>
<!-- Node7&#45;&gt;Node8 -->
<g id="edge8" class="edge"><title>Node7&#45;&gt;Node8</title>
<path fill="none" stroke="midnightblue" d="M1335.93,-168.083C1342.85,-160.298 1353.07,-148.801 1361.45,-139.367"/>
<polygon fill="midnightblue" stroke="midnightblue" points="1364.19,-141.55 1368.22,-131.751 1358.96,-136.9 1364.19,-141.55"/>
</g>
<!-- Node7&#45;&gt;Node10 -->
<g id="edge10" class="edge"><title>Node7&#45;&gt;Node10</title>
<path fill="none" stroke="midnightblue" d="M1280.19,-172.028C1264.81,-170.56 1247.7,-169.064 1232,-168 850.762,-142.158 754.763,-148.339 373,-132 321.73,-129.806 263.285,-127.247 221.777,-125.42"/>
<polygon fill="midnightblue" stroke="midnightblue" points="221.748,-121.915 211.604,-124.972 221.44,-128.908 221.748,-121.915"/>
</g>
<!-- Node7&#45;&gt;Node14 -->
<g id="edge15" class="edge"><title>Node7&#45;&gt;Node14</title>
<path fill="none" stroke="midnightblue" d="M1318.36,-168.324C1309.49,-160.341 1296.13,-148.313 1285.39,-138.653"/>
<polygon fill="midnightblue" stroke="midnightblue" points="1287.59,-135.922 1277.82,-131.834 1282.91,-141.125 1287.59,-135.922"/>
</g>
<!-- Node7&#45;&gt;Node16 -->
<g id="edge23" class="edge"><title>Node7&#45;&gt;Node16</title>
<path fill="none" stroke="midnightblue" d="M1280.36,-169.824C1232.77,-161.901 1163.66,-148.111 1142,-132 1126.3,-120.323 1115.97,-100.081 1110.1,-85.2816"/>
<polygon fill="midnightblue" stroke="midnightblue" points="1113.31,-83.8649 1106.59,-75.667 1106.73,-86.261 1113.31,-83.8649"/>
</g>
<!-- Node17 -->
<g id="node18" class="node"><title>Node17</title>
<polygon fill="white" stroke="#bfbfbf" points="1151,-112.5 1151,-131.5 1197,-131.5 1197,-112.5 1151,-112.5"/>
<text text-anchor="middle" x="1174" y="-119.5" font-family="Helvetica,sans-Serif" font-size="10.00">cstdint</text>
</g>
<!-- Node7&#45;&gt;Node17 -->
<g id="edge19" class="edge"><title>Node7&#45;&gt;Node17</title>
<path fill="none" stroke="midnightblue" d="M1303.6,-168.444C1277.5,-159.292 1235.96,-144.726 1206.97,-134.559"/>
<polygon fill="midnightblue" stroke="midnightblue" points="1207.87,-131.169 1197.28,-131.163 1205.56,-137.775 1207.87,-131.169"/>
</g>
<!-- Node18 -->
<g id="node19" class="node"><title>Node18</title>
<polygon fill="white" stroke="#bfbfbf" points="505.5,-112.5 505.5,-131.5 564.5,-131.5 564.5,-112.5 505.5,-112.5"/>
<text text-anchor="middle" x="535" y="-119.5" font-family="Helvetica,sans-Serif" font-size="10.00">stdexcept</text>
</g>
<!-- Node7&#45;&gt;Node18 -->
<g id="edge20" class="edge"><title>Node7&#45;&gt;Node18</title>
<path fill="none" stroke="midnightblue" d="M1280.17,-172.241C1264.8,-170.785 1247.69,-169.241 1232,-168 982.196,-148.231 681.507,-131.055 574.865,-125.168"/>
<polygon fill="midnightblue" stroke="midnightblue" points="574.752,-121.656 564.575,-124.602 574.367,-128.646 574.752,-121.656"/>
</g>
<!-- Node19 -->
<g id="node20" class="node"><title>Node19</title>
<polygon fill="white" stroke="#bfbfbf" points="734.5,-112.5 734.5,-131.5 775.5,-131.5 775.5,-112.5 734.5,-112.5"/>
<text text-anchor="middle" x="755" y="-119.5" font-family="Helvetica,sans-Serif" font-size="10.00">string</text>
</g>
<!-- Node7&#45;&gt;Node19 -->
<g id="edge21" class="edge"><title>Node7&#45;&gt;Node19</title>
<path fill="none" stroke="midnightblue" d="M1280.13,-172.489C1165.92,-161.725 879.944,-134.775 785.675,-125.891"/>
<polygon fill="midnightblue" stroke="midnightblue" points="785.935,-122.4 775.651,-124.946 785.278,-129.369 785.935,-122.4"/>
</g>
<!-- Node20 -->
<g id="node21" class="node"><title>Node20</title>
<polygon fill="white" stroke="#bfbfbf" points="989,-112.5 989,-131.5 1051,-131.5 1051,-112.5 989,-112.5"/>
<text text-anchor="middle" x="1020" y="-119.5" font-family="Helvetica,sans-Serif" font-size="10.00">type_traits</text>
</g>
<!-- Node7&#45;&gt;Node20 -->
<g id="edge22" class="edge"><title>Node7&#45;&gt;Node20</title>
<path fill="none" stroke="midnightblue" d="M1280.21,-168.622C1220.09,-158.08 1117.84,-140.154 1061.07,-130.2"/>
<polygon fill="midnightblue" stroke="midnightblue" points="1061.47,-126.718 1051.02,-128.438 1060.26,-133.612 1061.47,-126.718"/>
</g>
<!-- Node9 -->
<g id="node10" class="node"><title>Node9</title>
<polygon fill="white" stroke="#bfbfbf" points="1355.5,-56.5 1355.5,-75.5 1396.5,-75.5 1396.5,-56.5 1355.5,-56.5"/>
<text text-anchor="middle" x="1376" y="-63.5" font-family="Helvetica,sans-Serif" font-size="10.00">bitset</text>
</g>
<!-- Node8&#45;&gt;Node9 -->
<g id="edge9" class="edge"><title>Node8&#45;&gt;Node9</title>
<path fill="none" stroke="midnightblue" d="M1376,-112.083C1376,-105.006 1376,-94.8611 1376,-85.9865"/>
<polygon fill="midnightblue" stroke="midnightblue" points="1379.5,-85.751 1376,-75.7511 1372.5,-85.7511 1379.5,-85.751"/>
</g>
<!-- Node11 -->
<g id="node12" class="node"><title>Node11</title>
<g id="a_node12"><a xlink:href="vec2_8h.html" target="_top" xlink:title="vec2.h">
<polygon fill="white" stroke="black" points="136,-56.5 136,-75.5 182,-75.5 182,-56.5 136,-56.5"/>
<text text-anchor="middle" x="159" y="-63.5" font-family="Helvetica,sans-Serif" font-size="10.00">vec2.h</text>
</a>
</g>
</g>
<!-- Node10&#45;&gt;Node11 -->
<g id="edge11" class="edge"><title>Node10&#45;&gt;Node11</title>
<path fill="none" stroke="midnightblue" d="M165.679,-112.083C164.619,-104.927 163.094,-94.6353 161.769,-85.6911"/>
<polygon fill="midnightblue" stroke="midnightblue" points="165.224,-85.1302 160.296,-75.7511 158.3,-86.1561 165.224,-85.1302"/>
</g>
<!-- Node10&#45;&gt;Node12 -->
<g id="edge14" class="edge"><title>Node10&#45;&gt;Node12</title>
<path fill="none" stroke="midnightblue" d="M173.356,-112.368C186.782,-94.135 218.232,-51.4257 235.721,-27.6752"/>
<polygon fill="midnightblue" stroke="midnightblue" points="238.562,-29.7192 241.674,-19.5914 232.926,-25.5685 238.562,-29.7192"/>
</g>
<!-- Node13 -->
<g id="node14" class="node"><title>Node13</title>
<polygon fill="white" stroke="#bfbfbf" points="41,-56.5 41,-75.5 93,-75.5 93,-56.5 41,-56.5"/>
<text text-anchor="middle" x="67" y="-63.5" font-family="Helvetica,sans-Serif" font-size="10.00">ostream</text>
</g>
<!-- Node10&#45;&gt;Node13 -->
<g id="edge13" class="edge"><title>Node10&#45;&gt;Node13</title>
<path fill="none" stroke="midnightblue" d="M150.933,-112.324C135.042,-103.743 110.493,-90.486 92.0415,-80.5224"/>
<polygon fill="midnightblue" stroke="midnightblue" points="93.489,-77.3264 83.0269,-75.6545 90.1629,-83.4857 93.489,-77.3264"/>
</g>
<!-- Node11&#45;&gt;Node12 -->
<g id="edge12" class="edge"><title>Node11&#45;&gt;Node12</title>
<path fill="none" stroke="midnightblue" d="M173.299,-56.324C187.183,-47.9002 208.492,-34.9709 224.804,-25.0741"/>
<polygon fill="midnightblue" stroke="midnightblue" points="227.002,-27.8341 233.736,-19.6545 223.371,-21.8495 227.002,-27.8341"/>
</g>
<!-- Node14&#45;&gt;Node12 -->
<g id="edge16" class="edge"><title>Node14&#45;&gt;Node12</title>
<path fill="none" stroke="midnightblue" d="M1255,-112.47C1231.81,-97.7869 1181.33,-68.1467 1134,-56 967.703,-13.3263 419.101,-10.8504 280.188,-10.9226"/>
<polygon fill="midnightblue" stroke="midnightblue" points="280.176,-7.42249 270.18,-10.9327 280.183,-14.4225 280.176,-7.42249"/>
</g>
<!-- Node15 -->
<g id="node16" class="node"><title>Node15</title>
<polygon fill="white" stroke="#bfbfbf" points="689,-56.5 689,-75.5 729,-75.5 729,-56.5 689,-56.5"/>
<text text-anchor="middle" x="709" y="-63.5" font-family="Helvetica,sans-Serif" font-size="10.00">limits</text>
</g>
<!-- Node14&#45;&gt;Node15 -->
<g id="edge17" class="edge"><title>Node14&#45;&gt;Node15</title>
<path fill="none" stroke="midnightblue" d="M1214.92,-113.104C1211.91,-112.715 1208.92,-112.343 1206,-112 1029.73,-91.2413 817.3,-74.8889 739.469,-69.1844"/>
<polygon fill="midnightblue" stroke="midnightblue" points="739.625,-65.6866 729.397,-68.4508 739.117,-72.6681 739.625,-65.6866"/>
</g>
<!-- Node14&#45;&gt;Node16 -->
<g id="edge18" class="edge"><title>Node14&#45;&gt;Node16</title>
<path fill="none" stroke="midnightblue" d="M1242.01,-112.444C1213.29,-102.985 1166.99,-87.7421 1136.04,-77.551"/>
<polygon fill="midnightblue" stroke="midnightblue" points="1136.78,-74.1073 1126.18,-74.3042 1134.59,-80.7562 1136.78,-74.1073"/>
</g>
<!-- Node23&#45;&gt;Node1 -->
<g id="edge30" class="edge"><title>Node23&#45;&gt;Node1</title>
<path fill="none" stroke="midnightblue" d="M1178.75,-224.781C1166.87,-215.523 1151.39,-203.462 1139.31,-194.044"/>
<polygon fill="midnightblue" stroke="midnightblue" points="1141.24,-191.116 1131.2,-187.731 1136.94,-196.638 1141.24,-191.116"/>
</g>
<!-- Node23&#45;&gt;Node16 -->
<g id="edge29" class="edge"><title>Node23&#45;&gt;Node16</title>
<path fill="none" stroke="midnightblue" d="M1212.72,-224.871C1227.38,-209.949 1245.17,-186.119 1232,-168 1201.5,-126.05 1156.6,-169.717 1121,-132 1109.38,-119.684 1105.47,-100.431 1104.26,-86.0704"/>
<polygon fill="midnightblue" stroke="midnightblue" points="1107.75,-85.6529 1103.78,-75.8287 1100.76,-85.9823 1107.75,-85.6529"/>
</g>
<!-- Node24 -->
<g id="node25" class="node"><title>Node24</title>
<polygon fill="white" stroke="#bfbfbf" points="1164.5,-168.5 1164.5,-187.5 1223.5,-187.5 1223.5,-168.5 1164.5,-168.5"/>
<text text-anchor="middle" x="1194" y="-175.5" font-family="Helvetica,sans-Serif" font-size="10.00">functional</text>
</g>
<!-- Node23&#45;&gt;Node24 -->
<g id="edge31" class="edge"><title>Node23&#45;&gt;Node24</title>
<path fill="none" stroke="midnightblue" d="M1196.29,-224.781C1195.88,-216.691 1195.37,-206.462 1194.94,-197.725"/>
<polygon fill="midnightblue" stroke="midnightblue" points="1198.43,-197.543 1194.44,-187.731 1191.44,-197.893 1198.43,-197.543"/>
</g>
<!-- Node23&#45;&gt;Node25 -->
<g id="edge32" class="edge"><title>Node23&#45;&gt;Node25</title>
<path fill="none" stroke="midnightblue" d="M1162.07,-224.933C1136.82,-214.765 1103.02,-201.157 1078.78,-191.396"/>
<polygon fill="midnightblue" stroke="midnightblue" points="1079.94,-188.089 1069.36,-187.6 1077.33,-194.582 1079.94,-188.089"/>
</g>
<!-- Node27&#45;&gt;Node13 -->
<g id="edge57" class="edge"><title>Node27&#45;&gt;Node13</title>
<path fill="none" stroke="midnightblue" d="M298.981,-295.719C260.79,-290.111 208.698,-278.744 168,-256 130.415,-234.996 120.603,-225.244 99,-188 79.8936,-155.061 71.9503,-110.516 68.8401,-85.6916"/>
<polygon fill="midnightblue" stroke="midnightblue" points="72.2907,-85.0542 67.7009,-75.5051 65.3341,-85.8322 72.2907,-85.0542"/>
</g>
<!-- Node27&#45;&gt;Node16 -->
<g id="edge60" class="edge"><title>Node27&#45;&gt;Node16</title>
<path fill="none" stroke="midnightblue" d="M375.285,-292.435C397.244,-284.288 430.148,-271.064 457,-256 515.622,-223.113 520.844,-199.918 580,-168 748.502,-77.0838 986.434,-67.1353 1071.89,-66.6776"/>
<polygon fill="midnightblue" stroke="midnightblue" points="1072,-70.1775 1082,-66.6653 1071.99,-63.1775 1072,-70.1775"/>
</g>
<!-- Node27&#45;&gt;Node19 -->
<g id="edge56" class="edge"><title>Node27&#45;&gt;Node19</title>
<path fill="none" stroke="midnightblue" d="M403.263,-294.765C455.928,-287.578 532.653,-274.352 556,-256 590.223,-229.099 565.666,-195.995 599,-168 634.838,-137.902 689.808,-127.916 724.019,-124.615"/>
<polygon fill="midnightblue" stroke="midnightblue" points="724.669,-128.073 734.347,-123.761 724.092,-121.097 724.669,-128.073"/>
</g>
<!-- Node27&#45;&gt;Node26 -->
<g id="edge47" class="edge"><title>Node27&#45;&gt;Node26</title>
<path fill="none" stroke="midnightblue" d="M298.77,-293.652C268.406,-287.424 230.613,-276.145 202,-256 180.172,-240.632 163.309,-214.268 153.766,-196.736"/>
<polygon fill="midnightblue" stroke="midnightblue" points="156.727,-194.844 149.01,-187.584 150.516,-198.072 156.727,-194.844"/>
</g>
<!-- Node28 -->
<g id="node29" class="node"><title>Node28</title>
<g id="a_node29"><a xlink:href="interval_8h.html" target="_top" xlink:title="base/interval.h">
<polygon fill="white" stroke="black" points="368,-230.5 368,-249.5 448,-249.5 448,-230.5 368,-230.5"/>
<text text-anchor="middle" x="408" y="-237.5" font-family="Helvetica,sans-Serif" font-size="10.00">base/interval.h</text>
</a>
</g>
</g>
<!-- Node27&#45;&gt;Node28 -->
<g id="edge48" class="edge"><title>Node27&#45;&gt;Node28</title>
<path fill="none" stroke="midnightblue" d="M359.167,-292.403C367.886,-283.225 381.904,-268.47 392.689,-257.117"/>
<polygon fill="midnightblue" stroke="midnightblue" points="395.498,-259.241 399.848,-249.581 390.423,-254.42 395.498,-259.241"/>
</g>
<!-- Node30 -->
<g id="node31" class="node"><title>Node30</title>
<polygon fill="white" stroke="#bfbfbf" points="276.5,-230.5 276.5,-249.5 311.5,-249.5 311.5,-230.5 276.5,-230.5"/>
<text text-anchor="middle" x="294" y="-237.5" font-family="Helvetica,sans-Serif" font-size="10.00">map</text>
</g>
<!-- Node27&#45;&gt;Node30 -->
<g id="edge58" class="edge"><title>Node27&#45;&gt;Node30</title>
<path fill="none" stroke="midnightblue" d="M342.833,-292.403C334.114,-283.225 320.096,-268.47 309.311,-257.117"/>
<polygon fill="midnightblue" stroke="midnightblue" points="311.577,-254.42 302.152,-249.581 306.502,-259.241 311.577,-254.42"/>
</g>
<!-- Node31 -->
<g id="node32" class="node"><title>Node31</title>
<polygon fill="white" stroke="#bfbfbf" points="211.5,-230.5 211.5,-249.5 258.5,-249.5 258.5,-230.5 211.5,-230.5"/>
<text text-anchor="middle" x="235" y="-237.5" font-family="Helvetica,sans-Serif" font-size="10.00">iterator</text>
</g>
<!-- Node27&#45;&gt;Node31 -->
<g id="edge59" class="edge"><title>Node27&#45;&gt;Node31</title>
<path fill="none" stroke="midnightblue" d="M334.38,-292.403C315.085,-282.423 283.041,-265.849 260.569,-254.225"/>
<polygon fill="midnightblue" stroke="midnightblue" points="262.079,-251.066 251.589,-249.581 258.863,-257.284 262.079,-251.066"/>
</g>
<!-- Node28&#45;&gt;Node12 -->
<g id="edge55" class="edge"><title>Node28&#45;&gt;Node12</title>
<path fill="none" stroke="midnightblue" d="M379.357,-230.421C340.262,-218.447 274.191,-197.164 267,-188 230.318,-141.253 238.018,-64.8853 244.126,-29.7574"/>
<polygon fill="midnightblue" stroke="midnightblue" points="247.641,-30.0055 246.07,-19.5279 240.764,-28.6987 247.641,-30.0055"/>
</g>
<!-- Node28&#45;&gt;Node15 -->
<g id="edge52" class="edge"><title>Node28&#45;&gt;Node15</title>
<path fill="none" stroke="midnightblue" d="M399.709,-230.491C391.114,-221.021 378.217,-204.821 373,-188 362.995,-155.738 350.757,-137.42 373,-112 412.617,-66.7233 603.252,-65.0635 678.428,-66.2313"/>
<polygon fill="midnightblue" stroke="midnightblue" points="678.587,-69.7347 688.65,-66.4192 678.716,-62.7359 678.587,-69.7347"/>
</g>
<!-- Node28&#45;&gt;Node18 -->
<g id="edge51" class="edge"><title>Node28&#45;&gt;Node18</title>
<path fill="none" stroke="midnightblue" d="M424.138,-230.413C440.526,-221.232 466.112,-205.598 485,-188 500.404,-173.649 514.695,-154.189 524.02,-140.311"/>
<polygon fill="midnightblue" stroke="midnightblue" points="527.09,-142.011 529.634,-131.726 521.231,-138.179 527.09,-142.011"/>
</g>
<!-- Node28&#45;&gt;Node22 -->
<g id="edge54" class="edge"><title>Node28&#45;&gt;Node22</title>
<path fill="none" stroke="midnightblue" d="M448.451,-237.041C582.008,-230.539 1021.07,-208.902 1384,-188 1420.38,-185.904 1461.96,-183.26 1490.87,-181.381"/>
<polygon fill="midnightblue" stroke="midnightblue" points="1491.16,-184.869 1500.91,-180.726 1490.7,-177.884 1491.16,-184.869"/>
</g>
<!-- Node28&#45;&gt;Node25 -->
<g id="edge50" class="edge"><title>Node28&#45;&gt;Node25</title>
<path fill="none" stroke="midnightblue" d="M448.035,-235.247C563.488,-224.423 896.04,-193.246 1009.52,-182.608"/>
<polygon fill="midnightblue" stroke="midnightblue" points="1010.17,-186.062 1019.8,-181.644 1009.52,-179.092 1010.17,-186.062"/>
</g>
<!-- Node28&#45;&gt;Node26 -->
<g id="edge49" class="edge"><title>Node28&#45;&gt;Node26</title>
<path fill="none" stroke="midnightblue" d="M370.598,-230.467C323.533,-219.73 242.696,-201.288 191.644,-189.641"/>
<polygon fill="midnightblue" stroke="midnightblue" points="192.377,-186.219 181.849,-187.407 190.82,-193.043 192.377,-186.219"/>
</g>
<!-- Node29 -->
<g id="node30" class="node"><title>Node29</title>
<polygon fill="white" stroke="#bfbfbf" points="276.5,-168.5 276.5,-187.5 325.5,-187.5 325.5,-168.5 276.5,-168.5"/>
<text text-anchor="middle" x="301" y="-175.5" font-family="Helvetica,sans-Serif" font-size="10.00">istream</text>
</g>
<!-- Node28&#45;&gt;Node29 -->
<g id="edge53" class="edge"><title>Node28&#45;&gt;Node29</title>
<path fill="none" stroke="midnightblue" d="M392.67,-230.403C375.03,-220.512 345.84,-204.144 325.142,-192.538"/>
<polygon fill="midnightblue" stroke="midnightblue" points="326.736,-189.419 316.302,-187.581 323.312,-195.524 326.736,-189.419"/>
</g>
<!-- Node32&#45;&gt;Node1 -->
<g id="edge66" class="edge"><title>Node32&#45;&gt;Node1</title>
<path fill="none" stroke="midnightblue" d="M811.064,-232.082C824.431,-229.441 839.915,-226.473 854,-224 952.822,-206.647 980.913,-208.437 1083.85,-187.855"/>
<polygon fill="midnightblue" stroke="midnightblue" points="1084.61,-191.273 1093.72,-185.86 1083.22,-184.412 1084.61,-191.273"/>
</g>
<!-- Node32&#45;&gt;Node16 -->
<g id="edge68" class="edge"><title>Node32&#45;&gt;Node16</title>
<path fill="none" stroke="midnightblue" d="M811.04,-230.958C837.027,-223.413 872.432,-209.937 897,-188 925.948,-162.151 909.385,-135.852 940,-112 978.626,-81.9072 1036.03,-71.9187 1071.68,-68.6156"/>
<polygon fill="midnightblue" stroke="midnightblue" points="1072.31,-72.0765 1082,-67.7902 1071.75,-65.0988 1072.31,-72.0765"/>
</g>
<!-- Node32&#45;&gt;Node20 -->
<g id="edge72" class="edge"><title>Node32&#45;&gt;Node20</title>
<path fill="none" stroke="midnightblue" d="M811.005,-230.853C842.817,-222.503 891.129,-207.922 930,-188 957.122,-174.099 985.076,-152.572 1002.49,-138.143"/>
<polygon fill="midnightblue" stroke="midnightblue" points="1004.75,-140.815 1010.14,-131.694 1000.23,-135.463 1004.75,-140.815"/>
</g>
<!-- Node32&#45;&gt;Node25 -->
<g id="edge69" class="edge"><title>Node32&#45;&gt;Node25</title>
<path fill="none" stroke="midnightblue" d="M811.048,-231.462C861.692,-220.249 956.577,-199.241 1009.62,-187.498"/>
<polygon fill="midnightblue" stroke="midnightblue" points="1010.64,-190.857 1019.64,-185.278 1009.12,-184.023 1010.64,-190.857"/>
</g>
<!-- Node33 -->
<g id="node34" class="node"><title>Node33</title>
<polygon fill="white" stroke="#bfbfbf" points="792,-168.5 792,-187.5 888,-187.5 888,-168.5 792,-168.5"/>
<text text-anchor="middle" x="840" y="-175.5" font-family="Helvetica,sans-Serif" font-size="10.00">cereal/access.hpp</text>
</g>
<!-- Node32&#45;&gt;Node33 -->
<g id="edge62" class="edge"><title>Node32&#45;&gt;Node33</title>
<path fill="none" stroke="midnightblue" d="M786.026,-230.403C795.757,-221.136 811.458,-206.183 823.423,-194.788"/>
<polygon fill="midnightblue" stroke="midnightblue" points="826.163,-197.012 830.99,-187.581 821.335,-191.943 826.163,-197.012"/>
</g>
<!-- Node34 -->
<g id="node35" class="node"><title>Node34</title>
<g id="a_node35"><a xlink:href="variadic_8h.html" target="_top" xlink:title="std_ext/variadic.h">
<polygon fill="white" stroke="black" points="382,-168.5 382,-187.5 476,-187.5 476,-168.5 382,-168.5"/>
<text text-anchor="middle" x="429" y="-175.5" font-family="Helvetica,sans-Serif" font-size="10.00">std_ext/variadic.h</text>
</a>
</g>
</g>
<!-- Node32&#45;&gt;Node34 -->
<g id="edge63" class="edge"><title>Node32&#45;&gt;Node34</title>
<path fill="none" stroke="midnightblue" d="M742.999,-233.138C683.296,-222.844 559.042,-201.421 486.011,-188.829"/>
<polygon fill="midnightblue" stroke="midnightblue" points="486.507,-185.363 476.058,-187.113 485.318,-192.262 486.507,-185.363"/>
</g>
<!-- Node32&#45;&gt;Node37 -->
<g id="edge67" class="edge"><title>Node32&#45;&gt;Node37</title>
<path fill="none" stroke="midnightblue" d="M754.744,-230.349C730.458,-220.906 690.191,-205.24 647.12,-188.433"/>
<polygon fill="midnightblue" stroke="midnightblue" points="648.187,-185.093 637.599,-184.717 645.642,-191.614 648.187,-185.093"/>
</g>
<!-- Node38 -->
<g id="node39" class="node"><title>Node38</title>
<polygon fill="white" stroke="#bfbfbf" points="655.5,-168.5 655.5,-187.5 704.5,-187.5 704.5,-168.5 655.5,-168.5"/>
<text text-anchor="middle" x="680" y="-175.5" font-family="Helvetica,sans-Serif" font-size="10.00">cassert</text>
</g>
<!-- Node32&#45;&gt;Node38 -->
<g id="edge70" class="edge"><title>Node32&#45;&gt;Node38</title>
<path fill="none" stroke="midnightblue" d="M763.102,-230.403C747.256,-220.601 721.126,-204.439 702.395,-192.853"/>
<polygon fill="midnightblue" stroke="midnightblue" points="704.218,-189.865 693.872,-187.581 700.535,-195.818 704.218,-189.865"/>
</g>
<!-- Node39 -->
<g id="node40" class="node"><title>Node39</title>
<polygon fill="white" stroke="#bfbfbf" points="722.5,-168.5 722.5,-187.5 773.5,-187.5 773.5,-168.5 722.5,-168.5"/>
<text text-anchor="middle" x="748" y="-175.5" font-family="Helvetica,sans-Serif" font-size="10.00">numeric</text>
</g>
<!-- Node32&#45;&gt;Node39 -->
<g id="edge71" class="edge"><title>Node32&#45;&gt;Node39</title>
<path fill="none" stroke="midnightblue" d="M772.845,-230.403C768.624,-221.671 761.963,-207.889 756.6,-196.794"/>
<polygon fill="midnightblue" stroke="midnightblue" points="759.65,-195.061 752.147,-187.581 753.348,-198.107 759.65,-195.061"/>
</g>
<!-- Node35 -->
<g id="node36" class="node"><title>Node35</title>
<polygon fill="white" stroke="#bfbfbf" points="438.5,-112.5 438.5,-131.5 487.5,-131.5 487.5,-112.5 438.5,-112.5"/>
<text text-anchor="middle" x="463" y="-119.5" font-family="Helvetica,sans-Serif" font-size="10.00">cstddef</text>
</g>
<!-- Node34&#45;&gt;Node35 -->
<g id="edge64" class="edge"><title>Node34&#45;&gt;Node35</title>
<path fill="none" stroke="midnightblue" d="M434.614,-168.083C439.367,-160.534 446.318,-149.495 452.152,-140.23"/>
<polygon fill="midnightblue" stroke="midnightblue" points="455.124,-142.078 457.49,-131.751 449.2,-138.349 455.124,-142.078"/>
</g>
<!-- Node36 -->
<g id="node37" class="node"><title>Node36</title>
<polygon fill="white" stroke="#bfbfbf" points="382,-112.5 382,-131.5 420,-131.5 420,-112.5 382,-112.5"/>
<text text-anchor="middle" x="401" y="-119.5" font-family="Helvetica,sans-Serif" font-size="10.00">tuple</text>
</g>
<!-- Node34&#45;&gt;Node36 -->
<g id="edge65" class="edge"><title>Node34&#45;&gt;Node36</title>
<path fill="none" stroke="midnightblue" d="M424.376,-168.083C420.544,-160.691 414.976,-149.953 410.235,-140.811"/>
<polygon fill="midnightblue" stroke="midnightblue" points="413.248,-139.018 405.538,-131.751 407.034,-142.24 413.248,-139.018"/>
</g>
<!-- Node40&#45;&gt;Node10 -->
<g id="edge74" class="edge"><title>Node40&#45;&gt;Node10</title>
<path fill="none" stroke="midnightblue" d="M58.6674,-292.321C60.7995,-269.685 69.1706,-207.846 99,-168 109.064,-154.557 124.402,-143.909 137.965,-136.354"/>
<polygon fill="midnightblue" stroke="midnightblue" points="139.757,-139.366 146.985,-131.621 136.504,-133.168 139.757,-139.366"/>
</g>
</g>
</svg>
