<?xml version="1.0" encoding="UTF-8" standalone="no"?>
<!DOCTYPE svg PUBLIC "-//W3C//DTD SVG 1.1//EN"
 "http://www.w3.org/Graphics/SVG/1.1/DTD/svg11.dtd">
<!-- Generated by graphviz version 2.36.0 (20140111.2315)
 -->
<!-- Title: src/analysis/utils/uncertainties/MCExtracted.h Pages: 1 -->
<svg width="323pt" height="108pt"
 viewBox="0.00 0.00 323.00 108.00" xmlns="http://www.w3.org/2000/svg" xmlns:xlink="http://www.w3.org/1999/xlink">
<g id="graph0" class="graph" transform="scale(1 1) rotate(0) translate(4 104)">
<title>src/analysis/utils/uncertainties/MCExtracted.h</title>
<polygon fill="white" stroke="none" points="-4,4 -4,-104 319,-104 319,4 -4,4"/>
<!-- Node42 -->
<g id="node1" class="node"><title>Node42</title>
<polygon fill="#bfbfbf" stroke="black" points="85,-69 85,-99 229,-99 229,-69 85,-69"/>
<text text-anchor="start" x="93" y="-87" font-family="Helvetica,sans-Serif" font-size="10.00">src/analysis/utils</text>
<text text-anchor="middle" x="157" y="-76" font-family="Helvetica,sans-Serif" font-size="10.00">/uncertainties/MCExtracted.h</text>
</g>
<!-- Node43 -->
<g id="node2" class="node"><title>Node43</title>
<g id="a_node2"><a xlink:href="_m_c_extracted_8cc.html" target="_top" xlink:title="src/analysis/utils\l/uncertainties/MCExtracted.cc">
<polygon fill="white" stroke="black" points="-0.5,-1 -0.5,-31 148.5,-31 148.5,-1 -0.5,-1"/>
<text text-anchor="start" x="7.5" y="-19" font-family="Helvetica,sans-Serif" font-size="10.00">src/analysis/utils</text>
<text text-anchor="middle" x="74" y="-8" font-family="Helvetica,sans-Serif" font-size="10.00">/uncertainties/MCExtracted.cc</text>
</a>
</g>
</g>
<!-- Node42&#45;&gt;Node43 -->
<g id="edge1" class="edge"><title>Node42&#45;&gt;Node43</title>
<path fill="none" stroke="midnightblue" d="M130.98,-62.3094C118.194,-52.1426 103.121,-40.1562 91.6895,-31.0663"/>
<polygon fill="midnightblue" stroke="midnightblue" points="128.985,-65.1945 138.99,-68.679 133.342,-59.7155 128.985,-65.1945"/>
</g>
<!-- Node44 -->
<g id="node3" class="node"><title>Node44</title>
<g id="a_node3"><a xlink:href="root-addons_2analysis__codes_2_extract_resolutions_8cc.html" target="_top" xlink:title="src/root&#45;addons/analysis\l_codes/ExtractResolutions.cc">
<polygon fill="white" stroke="black" points="167,-1 167,-31 315,-31 315,-1 167,-1"/>
<text text-anchor="start" x="175" y="-19" font-family="Helvetica,sans-Serif" font-size="10.00">src/root&#45;addons/analysis</text>
<text text-anchor="middle" x="241" y="-8" font-family="Helvetica,sans-Serif" font-size="10.00">_codes/ExtractResolutions.cc</text>
</a>
</g>
</g>
<!-- Node42&#45;&gt;Node44 -->
<g id="edge2" class="edge"><title>Node42&#45;&gt;Node44</title>
<path fill="none" stroke="midnightblue" d="M183.333,-62.3094C196.273,-52.1426 211.528,-40.1562 223.097,-31.0663"/>
<polygon fill="midnightblue" stroke="midnightblue" points="180.928,-59.7486 175.227,-68.679 185.252,-65.2529 180.928,-59.7486"/>
</g>
</g>
</svg>
