<?xml version="1.0" encoding="UTF-8" standalone="no"?>
<!DOCTYPE svg PUBLIC "-//W3C//DTD SVG 1.1//EN"
 "http://www.w3.org/Graphics/SVG/1.1/DTD/svg11.dtd">
<!-- Generated by graphviz version 2.36.0 (20140111.2315)
 -->
<!-- Title: src/analysis/utils/MCSmear.cc Pages: 1 -->
<svg width="1871pt" height="612pt"
 viewBox="0.00 0.00 1871.00 612.00" xmlns="http://www.w3.org/2000/svg" xmlns:xlink="http://www.w3.org/1999/xlink">
<g id="graph0" class="graph" transform="scale(1 1) rotate(0) translate(4 608)">
<title>src/analysis/utils/MCSmear.cc</title>
<polygon fill="white" stroke="none" points="-4,4 -4,-608 1867,-608 1867,4 -4,4"/>
<!-- Node0 -->
<g id="node1" class="node"><title>Node0</title>
<polygon fill="#bfbfbf" stroke="black" points="1198,-573 1198,-603 1288,-603 1288,-573 1198,-573"/>
<text text-anchor="start" x="1206" y="-591" font-family="Helvetica,sans-Serif" font-size="10.00">src/analysis/utils</text>
<text text-anchor="middle" x="1243" y="-580" font-family="Helvetica,sans-Serif" font-size="10.00">/MCSmear.cc</text>
</g>
<!-- Node1 -->
<g id="node2" class="node"><title>Node1</title>
<g id="a_node2"><a xlink:href="_m_c_smear_8h.html" target="_top" xlink:title="MCSmear.h">
<polygon fill="white" stroke="black" points="801.5,-516.5 801.5,-535.5 870.5,-535.5 870.5,-516.5 801.5,-516.5"/>
<text text-anchor="middle" x="836" y="-523.5" font-family="Helvetica,sans-Serif" font-size="10.00">MCSmear.h</text>
</a>
</g>
</g>
<!-- Node0&#45;&gt;Node1 -->
<g id="edge1" class="edge"><title>Node0&#45;&gt;Node1</title>
<path fill="none" stroke="midnightblue" d="M1197.89,-580.35C1119.45,-568.786 958.854,-545.111 880.703,-533.59"/>
<polygon fill="midnightblue" stroke="midnightblue" points="881.093,-530.11 870.69,-532.114 880.072,-537.035 881.093,-530.11"/>
</g>
<!-- Node2 -->
<g id="node3" class="node"><title>Node2</title>
<polygon fill="white" stroke="#bfbfbf" points="740,-168.5 740,-187.5 792,-187.5 792,-168.5 740,-168.5"/>
<text text-anchor="middle" x="766" y="-175.5" font-family="Helvetica,sans-Serif" font-size="10.00">memory</text>
</g>
<!-- Node0&#45;&gt;Node2 -->
<g id="edge83" class="edge"><title>Node0&#45;&gt;Node2</title>
<path fill="none" stroke="midnightblue" d="M1197.66,-586.948C1065.47,-585.691 685.5,-573.842 617,-480 577.269,-425.57 417.465,-848.134 727,-256 737.592,-235.738 749.412,-212.276 757.234,-196.626"/>
<polygon fill="midnightblue" stroke="midnightblue" points="760.413,-198.094 761.743,-187.583 754.149,-194.97 760.413,-198.094"/>
</g>
<!-- Node4 -->
<g id="node5" class="node"><title>Node4</title>
<g id="a_node5"><a xlink:href="_t_particle_8h.html" target="_top" xlink:title="tree/TParticle.h">
<polygon fill="white" stroke="black" points="1201.5,-404.5 1201.5,-423.5 1284.5,-423.5 1284.5,-404.5 1201.5,-404.5"/>
<text text-anchor="middle" x="1243" y="-411.5" font-family="Helvetica,sans-Serif" font-size="10.00">tree/TParticle.h</text>
</a>
</g>
</g>
<!-- Node0&#45;&gt;Node4 -->
<g id="edge84" class="edge"><title>Node0&#45;&gt;Node4</title>
<path fill="none" stroke="midnightblue" d="M1243,-572.925C1243,-542.073 1243,-468.484 1243,-433.755"/>
<polygon fill="midnightblue" stroke="midnightblue" points="1246.5,-433.585 1243,-423.585 1239.5,-433.585 1246.5,-433.585"/>
</g>
<!-- Node43 -->
<g id="node44" class="node"><title>Node43</title>
<g id="a_node44"><a xlink:href="memory_8h.html" target="_top" xlink:title="base/std_ext/memory.h">
<polygon fill="white" stroke="black" points="1347.5,-230.5 1347.5,-249.5 1466.5,-249.5 1466.5,-230.5 1347.5,-230.5"/>
<text text-anchor="middle" x="1407" y="-237.5" font-family="Helvetica,sans-Serif" font-size="10.00">base/std_ext/memory.h</text>
</a>
</g>
</g>
<!-- Node0&#45;&gt;Node43 -->
<g id="edge85" class="edge"><title>Node0&#45;&gt;Node43</title>
<path fill="none" stroke="midnightblue" d="M1288.25,-575.939C1336.79,-561.049 1407,-529.415 1407,-471 1407,-471 1407,-471 1407,-357 1407,-322.716 1407,-282.732 1407,-259.79"/>
<polygon fill="midnightblue" stroke="midnightblue" points="1410.5,-259.731 1407,-249.731 1403.5,-259.731 1410.5,-259.731"/>
</g>
<!-- Node44 -->
<g id="node45" class="node"><title>Node44</title>
<polygon fill="white" stroke="#bfbfbf" points="1435.5,-516.5 1435.5,-535.5 1508.5,-535.5 1508.5,-516.5 1435.5,-516.5"/>
<text text-anchor="middle" x="1472" y="-523.5" font-family="Helvetica,sans-Serif" font-size="10.00">TRandom2.h</text>
</g>
<!-- Node0&#45;&gt;Node44 -->
<g id="edge88" class="edge"><title>Node0&#45;&gt;Node44</title>
<path fill="none" stroke="midnightblue" d="M1288.24,-575.146C1329.34,-564.378 1389.5,-548.615 1429.67,-538.092"/>
<polygon fill="midnightblue" stroke="midnightblue" points="1430.64,-541.456 1439.42,-535.536 1428.86,-534.685 1430.64,-541.456"/>
</g>
<!-- Node1&#45;&gt;Node2 -->
<g id="edge2" class="edge"><title>Node1&#45;&gt;Node2</title>
<path fill="none" stroke="midnightblue" d="M836,-516.442C836,-497.936 836,-452.812 836,-415 836,-415 836,-415 836,-301 836,-265.154 830.714,-254.573 812,-224 805.123,-212.765 794.823,-202.333 785.712,-194.348"/>
<polygon fill="midnightblue" stroke="midnightblue" points="787.73,-191.474 777.811,-187.75 783.243,-196.847 787.73,-191.474"/>
</g>
<!-- Node3 -->
<g id="node4" class="node"><title>Node3</title>
<g id="a_node4"><a xlink:href="_uncertainties_8h.html" target="_top" xlink:title="analysis/utils/Uncertainties.h">
<polygon fill="white" stroke="black" points="626.5,-460.5 626.5,-479.5 769.5,-479.5 769.5,-460.5 626.5,-460.5"/>
<text text-anchor="middle" x="698" y="-467.5" font-family="Helvetica,sans-Serif" font-size="10.00">analysis/utils/Uncertainties.h</text>
</a>
</g>
</g>
<!-- Node1&#45;&gt;Node3 -->
<g id="edge3" class="edge"><title>Node1&#45;&gt;Node3</title>
<path fill="none" stroke="midnightblue" d="M814.133,-516.444C791.221,-507.478 755.025,-493.314 729.134,-483.183"/>
<polygon fill="midnightblue" stroke="midnightblue" points="730.352,-479.901 719.764,-479.516 727.801,-486.42 730.352,-479.901"/>
</g>
<!-- Node1&#45;&gt;Node4 -->
<g id="edge81" class="edge"><title>Node1&#45;&gt;Node4</title>
<path fill="none" stroke="midnightblue" d="M867.598,-516.46C940.406,-496.782 1119.97,-448.252 1201.51,-426.213"/>
<polygon fill="midnightblue" stroke="midnightblue" points="1202.68,-429.522 1211.42,-423.535 1200.86,-422.765 1202.68,-429.522"/>
</g>
<!-- Node5 -->
<g id="node6" class="node"><title>Node5</title>
<g id="a_node6"><a xlink:href="_t_candidate_8h.html" target="_top" xlink:title="tree/TCandidate.h">
<polygon fill="white" stroke="black" points="436.5,-348.5 436.5,-367.5 531.5,-367.5 531.5,-348.5 436.5,-348.5"/>
<text text-anchor="middle" x="484" y="-355.5" font-family="Helvetica,sans-Serif" font-size="10.00">tree/TCandidate.h</text>
</a>
</g>
</g>
<!-- Node1&#45;&gt;Node5 -->
<g id="edge82" class="edge"><title>Node1&#45;&gt;Node5</title>
<path fill="none" stroke="midnightblue" d="M830.163,-516.344C820.636,-502.767 800.53,-476.335 778,-460 705.879,-407.71 604.537,-380.861 541.638,-368.385"/>
<polygon fill="midnightblue" stroke="midnightblue" points="541.984,-364.887 531.502,-366.433 540.66,-371.761 541.984,-364.887"/>
</g>
<!-- Node3&#45;&gt;Node4 -->
<g id="edge4" class="edge"><title>Node3&#45;&gt;Node4</title>
<path fill="none" stroke="midnightblue" d="M769.529,-461.913C880.957,-450.872 1093.33,-429.829 1191.23,-420.13"/>
<polygon fill="midnightblue" stroke="midnightblue" points="1191.57,-423.613 1201.18,-419.144 1190.88,-416.647 1191.57,-423.613"/>
</g>
<!-- Node8 -->
<g id="node9" class="node"><title>Node8</title>
<g id="a_node9"><a xlink:href="_detector__t_8h.html" target="_top" xlink:title="base/Detector_t.h">
<polygon fill="white" stroke="black" points="328.5,-168.5 328.5,-187.5 423.5,-187.5 423.5,-168.5 328.5,-168.5"/>
<text text-anchor="middle" x="376" y="-175.5" font-family="Helvetica,sans-Serif" font-size="10.00">base/Detector_t.h</text>
</a>
</g>
</g>
<!-- Node3&#45;&gt;Node8 -->
<g id="edge80" class="edge"><title>Node3&#45;&gt;Node8</title>
<path fill="none" stroke="midnightblue" d="M649.075,-460.458C565.707,-443.919 393.904,-401.034 278,-312 243.93,-285.828 212.766,-258.77 238,-224 256.338,-198.732 289.248,-187.382 318.33,-182.396"/>
<polygon fill="midnightblue" stroke="midnightblue" points="319.055,-185.827 328.427,-180.886 318.019,-178.904 319.055,-185.827"/>
</g>
<!-- Node4&#45;&gt;Node2 -->
<g id="edge79" class="edge"><title>Node4&#45;&gt;Node2</title>
<path fill="none" stroke="midnightblue" d="M1245.39,-404.277C1253.04,-374.243 1273.58,-274.212 1223,-224 1208.09,-209.202 907.976,-188.269 802.372,-181.333"/>
<polygon fill="midnightblue" stroke="midnightblue" points="802.407,-177.828 792.2,-180.668 801.95,-184.813 802.407,-177.828"/>
</g>
<!-- Node4&#45;&gt;Node5 -->
<g id="edge5" class="edge"><title>Node4&#45;&gt;Node5</title>
<path fill="none" stroke="midnightblue" d="M1201.38,-410.039C1073.91,-400.97 688.588,-373.556 541.715,-363.106"/>
<polygon fill="midnightblue" stroke="midnightblue" points="541.782,-359.602 531.559,-362.384 541.285,-366.585 541.782,-359.602"/>
</g>
<!-- Node17 -->
<g id="node18" class="node"><title>Node17</title>
<polygon fill="white" stroke="#bfbfbf" points="546,-56.5 546,-75.5 590,-75.5 590,-56.5 546,-56.5"/>
<text text-anchor="middle" x="568" y="-63.5" font-family="Helvetica,sans-Serif" font-size="10.00">vector</text>
</g>
<!-- Node4&#45;&gt;Node17 -->
<g id="edge76" class="edge"><title>Node4&#45;&gt;Node17</title>
<path fill="none" stroke="midnightblue" d="M1249.58,-404.261C1255.67,-395.582 1264.34,-381.637 1268,-368 1284.77,-305.599 1284.18,-277.536 1248,-224 1236.94,-207.638 1128.32,-119.367 1110,-112 1086.24,-102.445 713.321,-76.7554 600.25,-69.1497"/>
<polygon fill="midnightblue" stroke="midnightblue" points="600.351,-65.6487 590.139,-68.4713 599.882,-72.633 600.351,-65.6487"/>
</g>
<!-- Node27 -->
<g id="node28" class="node"><title>Node27</title>
<g id="a_node28"><a xlink:href="types_8h.html" target="_top" xlink:title="base/types.h">
<polygon fill="white" stroke="black" points="1030.5,-168.5 1030.5,-187.5 1103.5,-187.5 1103.5,-168.5 1030.5,-168.5"/>
<text text-anchor="middle" x="1067" y="-175.5" font-family="Helvetica,sans-Serif" font-size="10.00">base/types.h</text>
</a>
</g>
</g>
<!-- Node4&#45;&gt;Node27 -->
<g id="edge46" class="edge"><title>Node4&#45;&gt;Node27</title>
<path fill="none" stroke="midnightblue" d="M1201.1,-404.456C1154.87,-392.547 1082.71,-366.028 1050,-312 1028.08,-275.785 1045.88,-223.905 1058.03,-196.892"/>
<polygon fill="midnightblue" stroke="midnightblue" points="1061.34,-198.079 1062.47,-187.544 1055.02,-195.079 1061.34,-198.079"/>
</g>
<!-- Node28 -->
<g id="node29" class="node"><title>Node28</title>
<g id="a_node29"><a xlink:href="_particle_type_8h.html" target="_top" xlink:title="base/ParticleType.h">
<polygon fill="white" stroke="black" points="1059,-292.5 1059,-311.5 1163,-311.5 1163,-292.5 1059,-292.5"/>
<text text-anchor="middle" x="1111" y="-299.5" font-family="Helvetica,sans-Serif" font-size="10.00">base/ParticleType.h</text>
</a>
</g>
</g>
<!-- Node4&#45;&gt;Node28 -->
<g id="edge47" class="edge"><title>Node4&#45;&gt;Node28</title>
<path fill="none" stroke="midnightblue" d="M1232.64,-404.368C1210.28,-385.733 1157.24,-341.532 1129.16,-318.134"/>
<polygon fill="midnightblue" stroke="midnightblue" points="1131.23,-315.305 1121.31,-311.591 1126.75,-320.682 1131.23,-315.305"/>
</g>
<!-- Node33 -->
<g id="node34" class="node"><title>Node33</title>
<g id="a_node34"><a xlink:href="_tree_8h.html" target="_top" xlink:title="base/Tree.h">
<polygon fill="white" stroke="black" points="1523,-230.5 1523,-249.5 1591,-249.5 1591,-230.5 1523,-230.5"/>
<text text-anchor="middle" x="1557" y="-237.5" font-family="Helvetica,sans-Serif" font-size="10.00">base/Tree.h</text>
</a>
</g>
</g>
<!-- Node4&#45;&gt;Node33 -->
<g id="edge62" class="edge"><title>Node4&#45;&gt;Node33</title>
<path fill="none" stroke="midnightblue" d="M1284.51,-410.938C1350.52,-406.861 1475.41,-395.639 1509,-368 1542.11,-340.752 1552.4,-288.09 1555.59,-259.899"/>
<polygon fill="midnightblue" stroke="midnightblue" points="1559.09,-260.054 1556.54,-249.77 1552.12,-259.399 1559.09,-260.054"/>
</g>
<!-- Node38 -->
<g id="node39" class="node"><title>Node38</title>
<polygon fill="white" stroke="#bfbfbf" points="1347.5,-168.5 1347.5,-187.5 1376.5,-187.5 1376.5,-168.5 1347.5,-168.5"/>
<text text-anchor="middle" x="1362" y="-175.5" font-family="Helvetica,sans-Serif" font-size="10.00">list</text>
</g>
<!-- Node4&#45;&gt;Node38 -->
<g id="edge77" class="edge"><title>Node4&#45;&gt;Node38</title>
<path fill="none" stroke="midnightblue" d="M1284.7,-406.979C1315.4,-400.984 1357.01,-389.458 1388,-368 1439.82,-332.117 1454.56,-315.626 1475,-256 1479.61,-242.546 1483.06,-235.718 1475,-224 1451.48,-189.805 1426.1,-203.211 1386.42,-189.833"/>
<polygon fill="midnightblue" stroke="midnightblue" points="1387.48,-186.488 1376.89,-186.184 1384.98,-193.026 1387.48,-186.488"/>
</g>
<!-- Node41 -->
<g id="node42" class="node"><title>Node41</title>
<g id="a_node42"><a xlink:href="_lorentz_vec_8h.html" target="_top" xlink:title="base/vec/LorentzVec.h">
<polygon fill="white" stroke="black" points="1623.5,-292.5 1623.5,-311.5 1740.5,-311.5 1740.5,-292.5 1623.5,-292.5"/>
<text text-anchor="middle" x="1682" y="-299.5" font-family="Helvetica,sans-Serif" font-size="10.00">base/vec/LorentzVec.h</text>
</a>
</g>
</g>
<!-- Node4&#45;&gt;Node41 -->
<g id="edge74" class="edge"><title>Node4&#45;&gt;Node41</title>
<path fill="none" stroke="midnightblue" d="M1284.67,-411.61C1346.12,-408.556 1463.99,-398.832 1559,-368 1596.93,-355.692 1637.09,-332.228 1660.83,-317.114"/>
<polygon fill="midnightblue" stroke="midnightblue" points="1662.88,-319.955 1669.37,-311.582 1659.08,-314.079 1662.88,-319.955"/>
</g>
<!-- Node42 -->
<g id="node43" class="node"><title>Node42</title>
<polygon fill="white" stroke="#bfbfbf" points="1325,-348.5 1325,-367.5 1379,-367.5 1379,-348.5 1325,-348.5"/>
<text text-anchor="middle" x="1352" y="-355.5" font-family="Helvetica,sans-Serif" font-size="10.00">iostream</text>
</g>
<!-- Node4&#45;&gt;Node42 -->
<g id="edge78" class="edge"><title>Node4&#45;&gt;Node42</title>
<path fill="none" stroke="midnightblue" d="M1260.51,-404.324C1278.07,-395.625 1305.33,-382.12 1325.53,-372.113"/>
<polygon fill="midnightblue" stroke="midnightblue" points="1327.12,-375.23 1334.53,-367.655 1324.02,-368.958 1327.12,-375.23"/>
</g>
<!-- Node5&#45;&gt;Node2 -->
<g id="edge44" class="edge"><title>Node5&#45;&gt;Node2</title>
<path fill="none" stroke="midnightblue" d="M524.381,-348.45C553.099,-341.313 591.934,-329.464 623,-312 678.47,-280.817 729.469,-223.869 752.736,-195.696"/>
<polygon fill="midnightblue" stroke="midnightblue" points="755.7,-197.598 759.287,-187.629 750.266,-193.186 755.7,-197.598"/>
</g>
<!-- Node6 -->
<g id="node7" class="node"><title>Node6</title>
<g id="a_node7"><a xlink:href="_t_cluster_8h.html" target="_top" xlink:title="TCluster.h">
<polygon fill="white" stroke="black" points="287,-292.5 287,-311.5 349,-311.5 349,-292.5 287,-292.5"/>
<text text-anchor="middle" x="318" y="-299.5" font-family="Helvetica,sans-Serif" font-size="10.00">TCluster.h</text>
</a>
</g>
</g>
<!-- Node5&#45;&gt;Node6 -->
<g id="edge6" class="edge"><title>Node5&#45;&gt;Node6</title>
<path fill="none" stroke="midnightblue" d="M457.697,-348.444C429.649,-339.32 385.056,-324.813 353.816,-314.651"/>
<polygon fill="midnightblue" stroke="midnightblue" points="354.772,-311.282 344.18,-311.516 352.607,-317.938 354.772,-311.282"/>
</g>
<!-- Node5&#45;&gt;Node8 -->
<g id="edge40" class="edge"><title>Node5&#45;&gt;Node8</title>
<path fill="none" stroke="midnightblue" d="M478.791,-348.415C462.082,-320.875 409.591,-234.363 386.771,-196.753"/>
<polygon fill="midnightblue" stroke="midnightblue" points="389.591,-194.652 381.411,-187.918 383.606,-198.283 389.591,-194.652"/>
</g>
<!-- Node5&#45;&gt;Node17 -->
<g id="edge41" class="edge"><title>Node5&#45;&gt;Node17</title>
<path fill="none" stroke="midnightblue" d="M436.271,-356.928C373.82,-355.32 261.989,-347.185 174,-312 99.4704,-282.197 14.9918,-230.786 65,-168 124.163,-93.7205 433.737,-73.1092 535.526,-68.2955"/>
<polygon fill="midnightblue" stroke="midnightblue" points="535.972,-71.779 545.803,-67.8304 535.655,-64.7862 535.972,-71.779"/>
</g>
<!-- Node22 -->
<g id="node23" class="node"><title>Node22</title>
<polygon fill="white" stroke="#bfbfbf" points="74,-168.5 74,-187.5 124,-187.5 124,-168.5 74,-168.5"/>
<text text-anchor="middle" x="99" y="-175.5" font-family="Helvetica,sans-Serif" font-size="10.00">iomanip</text>
</g>
<!-- Node5&#45;&gt;Node22 -->
<g id="edge42" class="edge"><title>Node5&#45;&gt;Node22</title>
<path fill="none" stroke="midnightblue" d="M436.348,-350.849C345.535,-338.092 152.969,-305.734 111,-256 97.4592,-239.954 95.9255,-215.066 96.8175,-197.953"/>
<polygon fill="midnightblue" stroke="midnightblue" points="100.342,-197.813 97.7048,-187.552 93.3674,-197.218 100.342,-197.813"/>
</g>
<!-- Node23 -->
<g id="node24" class="node"><title>Node23</title>
<polygon fill="white" stroke="#bfbfbf" points="442,-168.5 442,-187.5 494,-187.5 494,-168.5 442,-168.5"/>
<text text-anchor="middle" x="468" y="-175.5" font-family="Helvetica,sans-Serif" font-size="10.00">sstream</text>
</g>
<!-- Node5&#45;&gt;Node23 -->
<g id="edge43" class="edge"><title>Node5&#45;&gt;Node23</title>
<path fill="none" stroke="midnightblue" d="M483.228,-348.415C480.784,-321.227 473.174,-236.563 469.727,-198.217"/>
<polygon fill="midnightblue" stroke="midnightblue" points="473.183,-197.565 468.802,-187.918 466.211,-198.192 473.183,-197.565"/>
</g>
<!-- Node26 -->
<g id="node27" class="node"><title>Node26</title>
<polygon fill="white" stroke="#bfbfbf" points="666,-168.5 666,-187.5 722,-187.5 722,-168.5 666,-168.5"/>
<text text-anchor="middle" x="694" y="-175.5" font-family="Helvetica,sans-Serif" font-size="10.00">algorithm</text>
</g>
<!-- Node5&#45;&gt;Node26 -->
<g id="edge45" class="edge"><title>Node5&#45;&gt;Node26</title>
<path fill="none" stroke="midnightblue" d="M510.986,-348.452C549.888,-334.838 621.689,-304.683 664,-256 678.529,-239.283 686.444,-214.727 690.439,-197.866"/>
<polygon fill="midnightblue" stroke="midnightblue" points="693.963,-198.121 692.612,-187.612 687.115,-196.67 693.963,-198.121"/>
</g>
<!-- Node6&#45;&gt;Node2 -->
<g id="edge39" class="edge"><title>Node6&#45;&gt;Node2</title>
<path fill="none" stroke="midnightblue" d="M349.032,-299.003C422.869,-293.927 607.086,-279.261 664,-256 698.53,-241.888 731.697,-213.102 750.4,-195.002"/>
<polygon fill="midnightblue" stroke="midnightblue" points="753.075,-197.279 757.71,-187.751 748.146,-192.309 753.075,-197.279"/>
</g>
<!-- Node7 -->
<g id="node8" class="node"><title>Node7</title>
<g id="a_node8"><a xlink:href="_t_detector_read_hit_8h.html" target="_top" xlink:title="tree/TDetectorReadHit.h">
<polygon fill="white" stroke="black" points="256,-230.5 256,-249.5 380,-249.5 380,-230.5 256,-230.5"/>
<text text-anchor="middle" x="318" y="-237.5" font-family="Helvetica,sans-Serif" font-size="10.00">tree/TDetectorReadHit.h</text>
</a>
</g>
</g>
<!-- Node6&#45;&gt;Node7 -->
<g id="edge7" class="edge"><title>Node6&#45;&gt;Node7</title>
<path fill="none" stroke="midnightblue" d="M318,-292.403C318,-283.938 318,-270.728 318,-259.82"/>
<polygon fill="midnightblue" stroke="midnightblue" points="321.5,-259.581 318,-249.581 314.5,-259.581 321.5,-259.581"/>
</g>
<!-- Node6&#45;&gt;Node8 -->
<g id="edge27" class="edge"><title>Node6&#45;&gt;Node8</title>
<path fill="none" stroke="midnightblue" d="M292.839,-292.378C276.581,-285.343 256.707,-273.645 247,-256 240.145,-243.539 238.764,-235.595 247,-224 263.259,-201.108 292.065,-189.765 318.337,-184.185"/>
<polygon fill="midnightblue" stroke="midnightblue" points="319.072,-187.608 328.25,-182.317 317.775,-180.73 319.072,-187.608"/>
</g>
<!-- Node11 -->
<g id="node12" class="node"><title>Node11</title>
<g id="a_node12"><a xlink:href="vec3_8h.html" target="_top" xlink:title="base/vec/vec3.h">
<polygon fill="white" stroke="black" points="1196.5,-112.5 1196.5,-131.5 1285.5,-131.5 1285.5,-112.5 1196.5,-112.5"/>
<text text-anchor="middle" x="1241" y="-119.5" font-family="Helvetica,sans-Serif" font-size="10.00">base/vec/vec3.h</text>
</a>
</g>
</g>
<!-- Node6&#45;&gt;Node11 -->
<g id="edge34" class="edge"><title>Node6&#45;&gt;Node11</title>
<path fill="none" stroke="midnightblue" d="M341.37,-292.341C362.501,-284.131 394.165,-270.866 420,-256 448.818,-239.418 509.722,-179.275 541,-168 660.189,-125.033 983.578,-140.342 1110,-132 1135.07,-130.346 1162.82,-128.448 1186.31,-126.823"/>
<polygon fill="midnightblue" stroke="midnightblue" points="1186.7,-130.305 1196.44,-126.121 1186.22,-123.321 1186.7,-130.305"/>
</g>
<!-- Node13 -->
<g id="node14" class="node"><title>Node13</title>
<polygon fill="white" stroke="#bfbfbf" points="1168,-0.5 1168,-19.5 1212,-19.5 1212,-0.5 1168,-0.5"/>
<text text-anchor="middle" x="1190" y="-7.5" font-family="Helvetica,sans-Serif" font-size="10.00">cmath</text>
</g>
<!-- Node6&#45;&gt;Node13 -->
<g id="edge36" class="edge"><title>Node6&#45;&gt;Node13</title>
<path fill="none" stroke="midnightblue" d="M286.669,-298.045C245.079,-293.273 170.019,-281.67 111,-256 55.9415,-232.052 0,-239.041 0,-179 0,-179 0,-179 0,-121 0,-61.1503 967,-19.8166 1157.6,-12.2507"/>
<polygon fill="midnightblue" stroke="midnightblue" points="1157.96,-15.7395 1167.81,-11.8484 1157.68,-8.74496 1157.96,-15.7395"/>
</g>
<!-- Node15 -->
<g id="node16" class="node"><title>Node15</title>
<g id="a_node16"><a xlink:href="base_2std__ext_2math_8h.html" target="_top" xlink:title="base/std_ext/math.h">
<polygon fill="white" stroke="black" points="363,-112.5 363,-131.5 469,-131.5 469,-112.5 363,-112.5"/>
<text text-anchor="middle" x="416" y="-119.5" font-family="Helvetica,sans-Serif" font-size="10.00">base/std_ext/math.h</text>
</a>
</g>
</g>
<!-- Node6&#45;&gt;Node15 -->
<g id="edge28" class="edge"><title>Node6&#45;&gt;Node15</title>
<path fill="none" stroke="midnightblue" d="M287.753,-292.488C269.875,-285.726 248.7,-274.295 238,-256 230.82,-243.723 231.395,-236.596 238,-224 263.947,-174.517 325.18,-147.716 368.559,-134.403"/>
<polygon fill="midnightblue" stroke="midnightblue" points="369.735,-137.705 378.346,-131.532 367.765,-130.988 369.735,-137.705"/>
</g>
<!-- Node6&#45;&gt;Node17 -->
<g id="edge35" class="edge"><title>Node6&#45;&gt;Node17</title>
<path fill="none" stroke="midnightblue" d="M286.682,-294.104C266.401,-287.84 241.516,-276.353 229,-256 207.037,-220.284 233.441,-197.737 263,-168 338.861,-91.6821 473.592,-73.0313 535.386,-68.4737"/>
<polygon fill="midnightblue" stroke="midnightblue" points="535.951,-71.9443 545.699,-67.7958 535.491,-64.9593 535.951,-71.9443"/>
</g>
<!-- Node6&#45;&gt;Node22 -->
<g id="edge37" class="edge"><title>Node6&#45;&gt;Node22</title>
<path fill="none" stroke="midnightblue" d="M286.905,-300.822C248.061,-299.04 181.433,-290.656 138,-256 119.376,-241.14 108.842,-215.035 103.533,-197.387"/>
<polygon fill="midnightblue" stroke="midnightblue" points="106.889,-196.39 100.877,-187.667 100.137,-198.236 106.889,-196.39"/>
</g>
<!-- Node6&#45;&gt;Node23 -->
<g id="edge38" class="edge"><title>Node6&#45;&gt;Node23</title>
<path fill="none" stroke="midnightblue" d="M333.047,-292.488C347.624,-283.978 370.091,-270.154 388,-256 412.213,-236.864 437.428,-211.549 452.923,-195.266"/>
<polygon fill="midnightblue" stroke="midnightblue" points="455.78,-197.338 460.083,-187.656 450.682,-192.541 455.78,-197.338"/>
</g>
<!-- Node24 -->
<g id="node25" class="node"><title>Node24</title>
<g id="a_node25"><a xlink:href="shared__ptr__container_8h.html" target="_top" xlink:title="base/std_ext/shared\l_ptr_container.h">
<polygon fill="white" stroke="black" points="550.5,-225 550.5,-255 655.5,-255 655.5,-225 550.5,-225"/>
<text text-anchor="start" x="558.5" y="-243" font-family="Helvetica,sans-Serif" font-size="10.00">base/std_ext/shared</text>
<text text-anchor="middle" x="603" y="-232" font-family="Helvetica,sans-Serif" font-size="10.00">_ptr_container.h</text>
</a>
</g>
</g>
<!-- Node6&#45;&gt;Node24 -->
<g id="edge29" class="edge"><title>Node6&#45;&gt;Node24</title>
<path fill="none" stroke="midnightblue" d="M349.081,-294.754C391.402,-286.21 469.506,-270.305 536,-256 537.457,-255.687 538.931,-255.368 540.417,-255.046"/>
<polygon fill="midnightblue" stroke="midnightblue" points="541.33,-258.429 550.351,-252.874 539.835,-251.59 541.33,-258.429"/>
</g>
<!-- Node7&#45;&gt;Node8 -->
<g id="edge8" class="edge"><title>Node7&#45;&gt;Node8</title>
<path fill="none" stroke="midnightblue" d="M326.31,-230.403C335.268,-221.136 349.723,-206.183 360.739,-194.788"/>
<polygon fill="midnightblue" stroke="midnightblue" points="363.272,-197.203 367.705,-187.581 358.239,-192.338 363.272,-197.203"/>
</g>
<!-- Node7&#45;&gt;Node22 -->
<g id="edge25" class="edge"><title>Node7&#45;&gt;Node22</title>
<path fill="none" stroke="midnightblue" d="M286.623,-230.403C246.195,-219.327 176.123,-200.13 134.007,-188.591"/>
<polygon fill="midnightblue" stroke="midnightblue" points="134.762,-185.169 124.192,-185.902 132.912,-191.92 134.762,-185.169"/>
</g>
<!-- Node7&#45;&gt;Node23 -->
<g id="edge26" class="edge"><title>Node7&#45;&gt;Node23</title>
<path fill="none" stroke="midnightblue" d="M339.491,-230.403C365.11,-220.156 408.11,-202.956 437.245,-191.302"/>
<polygon fill="midnightblue" stroke="midnightblue" points="438.564,-194.544 446.549,-187.581 435.964,-188.045 438.564,-194.544"/>
</g>
<!-- Node9 -->
<g id="node10" class="node"><title>Node9</title>
<g id="a_node10"><a xlink:href="bitflag_8h.html" target="_top" xlink:title="base/bitflag.h">
<polygon fill="white" stroke="black" points="810.5,-112.5 810.5,-131.5 885.5,-131.5 885.5,-112.5 810.5,-112.5"/>
<text text-anchor="middle" x="848" y="-119.5" font-family="Helvetica,sans-Serif" font-size="10.00">base/bitflag.h</text>
</a>
</g>
</g>
<!-- Node8&#45;&gt;Node9 -->
<g id="edge9" class="edge"><title>Node8&#45;&gt;Node9</title>
<path fill="none" stroke="midnightblue" d="M423.561,-169.313C426.753,-168.852 429.921,-168.41 433,-168 565.59,-150.354 722.71,-134.762 800.069,-127.434"/>
<polygon fill="midnightblue" stroke="midnightblue" points="800.817,-130.879 810.444,-126.456 800.16,-123.91 800.817,-130.879"/>
</g>
<!-- Node8&#45;&gt;Node11 -->
<g id="edge11" class="edge"><title>Node8&#45;&gt;Node11</title>
<path fill="none" stroke="midnightblue" d="M423.537,-169.117C426.735,-168.703 429.911,-168.325 433,-168 732.659,-136.461 809.244,-150.327 1110,-132 1135.07,-130.472 1162.83,-128.592 1186.32,-126.946"/>
<polygon fill="midnightblue" stroke="midnightblue" points="1186.72,-130.427 1196.45,-126.233 1186.22,-123.444 1186.72,-130.427"/>
</g>
<!-- Node8&#45;&gt;Node15 -->
<g id="edge16" class="edge"><title>Node8&#45;&gt;Node15</title>
<path fill="none" stroke="midnightblue" d="M382.605,-168.083C388.255,-160.455 396.545,-149.264 403.451,-139.941"/>
<polygon fill="midnightblue" stroke="midnightblue" points="406.378,-141.87 409.518,-131.751 400.753,-137.703 406.378,-141.87"/>
</g>
<!-- Node8&#45;&gt;Node17 -->
<g id="edge24" class="edge"><title>Node8&#45;&gt;Node17</title>
<path fill="none" stroke="midnightblue" d="M398.699,-168.414C419.596,-160.156 451.174,-146.777 477,-132 503.502,-116.837 531.785,-95.7735 549.659,-81.7815"/>
<polygon fill="midnightblue" stroke="midnightblue" points="551.877,-84.4896 557.544,-75.5377 547.532,-79.0017 551.877,-84.4896"/>
</g>
<!-- Node18 -->
<g id="node19" class="node"><title>Node18</title>
<polygon fill="white" stroke="#bfbfbf" points="525,-112.5 525,-131.5 571,-131.5 571,-112.5 525,-112.5"/>
<text text-anchor="middle" x="548" y="-119.5" font-family="Helvetica,sans-Serif" font-size="10.00">cstdint</text>
</g>
<!-- Node8&#45;&gt;Node18 -->
<g id="edge20" class="edge"><title>Node8&#45;&gt;Node18</title>
<path fill="none" stroke="midnightblue" d="M403.254,-168.444C433.512,-158.944 482.355,-143.609 514.816,-133.418"/>
<polygon fill="midnightblue" stroke="midnightblue" points="516.242,-136.639 524.735,-130.304 514.146,-129.96 516.242,-136.639"/>
</g>
<!-- Node19 -->
<g id="node20" class="node"><title>Node19</title>
<polygon fill="white" stroke="#bfbfbf" points="903.5,-112.5 903.5,-131.5 962.5,-131.5 962.5,-112.5 903.5,-112.5"/>
<text text-anchor="middle" x="933" y="-119.5" font-family="Helvetica,sans-Serif" font-size="10.00">stdexcept</text>
</g>
<!-- Node8&#45;&gt;Node19 -->
<g id="edge21" class="edge"><title>Node8&#45;&gt;Node19</title>
<path fill="none" stroke="midnightblue" d="M423.547,-169.206C426.742,-168.771 429.916,-168.363 433,-168 633.812,-144.343 689.096,-162.583 893.132,-131.887"/>
<polygon fill="midnightblue" stroke="midnightblue" points="893.92,-135.307 903.278,-130.339 892.864,-128.387 893.92,-135.307"/>
</g>
<!-- Node20 -->
<g id="node21" class="node"><title>Node20</title>
<polygon fill="white" stroke="#bfbfbf" points="980.5,-112.5 980.5,-131.5 1021.5,-131.5 1021.5,-112.5 980.5,-112.5"/>
<text text-anchor="middle" x="1001" y="-119.5" font-family="Helvetica,sans-Serif" font-size="10.00">string</text>
</g>
<!-- Node8&#45;&gt;Node20 -->
<g id="edge22" class="edge"><title>Node8&#45;&gt;Node20</title>
<path fill="none" stroke="midnightblue" d="M423.543,-169.166C426.739,-168.741 429.914,-168.346 433,-168 667.896,-141.65 733.405,-173.797 970.531,-131.612"/>
<polygon fill="midnightblue" stroke="midnightblue" points="971.272,-135.035 980.491,-129.815 970.029,-128.147 971.272,-135.035"/>
</g>
<!-- Node21 -->
<g id="node22" class="node"><title>Node21</title>
<polygon fill="white" stroke="#bfbfbf" points="1040,-112.5 1040,-131.5 1102,-131.5 1102,-112.5 1040,-112.5"/>
<text text-anchor="middle" x="1071" y="-119.5" font-family="Helvetica,sans-Serif" font-size="10.00">type_traits</text>
</g>
<!-- Node8&#45;&gt;Node21 -->
<g id="edge23" class="edge"><title>Node8&#45;&gt;Node21</title>
<path fill="none" stroke="midnightblue" d="M423.54,-169.143C426.737,-168.723 429.913,-168.336 433,-168 694.029,-139.589 764.993,-167.899 1029.84,-131.755"/>
<polygon fill="midnightblue" stroke="midnightblue" points="1030.32,-135.222 1039.75,-130.385 1029.37,-128.288 1030.32,-135.222"/>
</g>
<!-- Node10 -->
<g id="node11" class="node"><title>Node10</title>
<polygon fill="white" stroke="#bfbfbf" points="827.5,-56.5 827.5,-75.5 868.5,-75.5 868.5,-56.5 827.5,-56.5"/>
<text text-anchor="middle" x="848" y="-63.5" font-family="Helvetica,sans-Serif" font-size="10.00">bitset</text>
</g>
<!-- Node9&#45;&gt;Node10 -->
<g id="edge10" class="edge"><title>Node9&#45;&gt;Node10</title>
<path fill="none" stroke="midnightblue" d="M848,-112.083C848,-105.006 848,-94.8611 848,-85.9865"/>
<polygon fill="midnightblue" stroke="midnightblue" points="851.5,-85.751 848,-75.7511 844.5,-85.7511 851.5,-85.751"/>
</g>
<!-- Node12 -->
<g id="node13" class="node"><title>Node12</title>
<g id="a_node13"><a xlink:href="vec2_8h.html" target="_top" xlink:title="vec2.h">
<polygon fill="white" stroke="black" points="1218,-56.5 1218,-75.5 1264,-75.5 1264,-56.5 1218,-56.5"/>
<text text-anchor="middle" x="1241" y="-63.5" font-family="Helvetica,sans-Serif" font-size="10.00">vec2.h</text>
</a>
</g>
</g>
<!-- Node11&#45;&gt;Node12 -->
<g id="edge12" class="edge"><title>Node11&#45;&gt;Node12</title>
<path fill="none" stroke="midnightblue" d="M1241,-112.083C1241,-105.006 1241,-94.8611 1241,-85.9865"/>
<polygon fill="midnightblue" stroke="midnightblue" points="1244.5,-85.751 1241,-75.7511 1237.5,-85.7511 1244.5,-85.751"/>
</g>
<!-- Node11&#45;&gt;Node13 -->
<g id="edge15" class="edge"><title>Node11&#45;&gt;Node13</title>
<path fill="none" stroke="midnightblue" d="M1233.43,-112.258C1226.25,-103.577 1215.61,-89.6303 1209,-76 1201.79,-61.1218 1196.77,-42.9757 1193.71,-29.6413"/>
<polygon fill="midnightblue" stroke="midnightblue" points="1197.1,-28.7959 1191.59,-19.7495 1190.26,-30.2605 1197.1,-28.7959"/>
</g>
<!-- Node14 -->
<g id="node15" class="node"><title>Node14</title>
<polygon fill="white" stroke="#bfbfbf" points="1342,-56.5 1342,-75.5 1394,-75.5 1394,-56.5 1342,-56.5"/>
<text text-anchor="middle" x="1368" y="-63.5" font-family="Helvetica,sans-Serif" font-size="10.00">ostream</text>
</g>
<!-- Node11&#45;&gt;Node14 -->
<g id="edge14" class="edge"><title>Node11&#45;&gt;Node14</title>
<path fill="none" stroke="midnightblue" d="M1261.12,-112.444C1282.02,-103.557 1314.93,-89.5632 1338.72,-79.4514"/>
<polygon fill="midnightblue" stroke="midnightblue" points="1340.14,-82.6504 1347.97,-75.5164 1337.4,-76.2085 1340.14,-82.6504"/>
</g>
<!-- Node12&#45;&gt;Node13 -->
<g id="edge13" class="edge"><title>Node12&#45;&gt;Node13</title>
<path fill="none" stroke="midnightblue" d="M1232.58,-56.083C1225.15,-48.2195 1214.15,-36.5688 1205.19,-27.0813"/>
<polygon fill="midnightblue" stroke="midnightblue" points="1207.68,-24.618 1198.26,-19.7511 1202.59,-29.4244 1207.68,-24.618"/>
</g>
<!-- Node15&#45;&gt;Node13 -->
<g id="edge17" class="edge"><title>Node15&#45;&gt;Node13</title>
<path fill="none" stroke="midnightblue" d="M427.959,-112.308C448.861,-97.6568 493.926,-68.4271 537,-56 655.464,-21.8222 1042.29,-13.253 1157.4,-11.4353"/>
<polygon fill="midnightblue" stroke="midnightblue" points="1157.73,-14.9308 1167.67,-11.2798 1157.62,-7.93164 1157.73,-14.9308"/>
</g>
<!-- Node16 -->
<g id="node17" class="node"><title>Node16</title>
<polygon fill="white" stroke="#bfbfbf" points="720,-56.5 720,-75.5 760,-75.5 760,-56.5 720,-56.5"/>
<text text-anchor="middle" x="740" y="-63.5" font-family="Helvetica,sans-Serif" font-size="10.00">limits</text>
</g>
<!-- Node15&#45;&gt;Node16 -->
<g id="edge18" class="edge"><title>Node15&#45;&gt;Node16</title>
<path fill="none" stroke="midnightblue" d="M467.339,-112.444C535.733,-101.045 654.534,-81.2443 709.94,-72.01"/>
<polygon fill="midnightblue" stroke="midnightblue" points="710.543,-75.4578 719.832,-70.3614 709.392,-68.5531 710.543,-75.4578"/>
</g>
<!-- Node15&#45;&gt;Node17 -->
<g id="edge19" class="edge"><title>Node15&#45;&gt;Node17</title>
<path fill="none" stroke="midnightblue" d="M440.085,-112.444C465.994,-103.239 507.323,-88.5565 535.96,-78.3826"/>
<polygon fill="midnightblue" stroke="midnightblue" points="537.263,-81.6341 545.514,-74.9883 534.92,-75.038 537.263,-81.6341"/>
</g>
<!-- Node24&#45;&gt;Node2 -->
<g id="edge31" class="edge"><title>Node24&#45;&gt;Node2</title>
<path fill="none" stroke="midnightblue" d="M641.216,-224.933C669.085,-214.674 706.465,-200.915 733.028,-191.137"/>
<polygon fill="midnightblue" stroke="midnightblue" points="734.461,-194.339 742.637,-187.6 732.043,-187.77 734.461,-194.339"/>
</g>
<!-- Node24&#45;&gt;Node17 -->
<g id="edge30" class="edge"><title>Node24&#45;&gt;Node17</title>
<path fill="none" stroke="midnightblue" d="M609.683,-224.815C615.585,-210.455 622.592,-187.627 618,-168 610.64,-136.545 591.976,-103.653 579.65,-84.2602"/>
<polygon fill="midnightblue" stroke="midnightblue" points="582.431,-82.1165 574.031,-75.6593 576.571,-85.9453 582.431,-82.1165"/>
</g>
<!-- Node25 -->
<g id="node26" class="node"><title>Node25</title>
<polygon fill="white" stroke="#bfbfbf" points="550.5,-168.5 550.5,-187.5 609.5,-187.5 609.5,-168.5 550.5,-168.5"/>
<text text-anchor="middle" x="580" y="-175.5" font-family="Helvetica,sans-Serif" font-size="10.00">functional</text>
</g>
<!-- Node24&#45;&gt;Node25 -->
<g id="edge32" class="edge"><title>Node24&#45;&gt;Node25</title>
<path fill="none" stroke="midnightblue" d="M597.549,-224.781C594.379,-216.512 590.352,-206.006 586.956,-197.145"/>
<polygon fill="midnightblue" stroke="midnightblue" points="590.194,-195.815 583.347,-187.731 583.658,-198.321 590.194,-195.815"/>
</g>
<!-- Node24&#45;&gt;Node26 -->
<g id="edge33" class="edge"><title>Node24&#45;&gt;Node26</title>
<path fill="none" stroke="midnightblue" d="M624.566,-224.781C638.966,-215.286 657.837,-202.843 672.271,-193.327"/>
<polygon fill="midnightblue" stroke="midnightblue" points="674.602,-195.982 681.024,-187.556 670.749,-190.138 674.602,-195.982"/>
</g>
<!-- Node28&#45;&gt;Node14 -->
<g id="edge58" class="edge"><title>Node28&#45;&gt;Node14</title>
<path fill="none" stroke="midnightblue" d="M1145.26,-292.428C1168.77,-285.363 1199.8,-273.609 1223,-256 1287.74,-206.864 1338.53,-121.788 1358.64,-84.9082"/>
<polygon fill="midnightblue" stroke="midnightblue" points="1361.85,-86.3228 1363.48,-75.8542 1355.68,-83.0208 1361.85,-86.3228"/>
</g>
<!-- Node28&#45;&gt;Node17 -->
<g id="edge61" class="edge"><title>Node28&#45;&gt;Node17</title>
<path fill="none" stroke="midnightblue" d="M1058.95,-298.354C1013,-294.187 945.353,-283.48 893,-256 842.9,-229.702 848.139,-199.297 801,-168 734.786,-124.039 646.286,-91.9073 599.721,-76.7446"/>
<polygon fill="midnightblue" stroke="midnightblue" points="600.765,-73.4038 590.174,-73.683 598.627,-80.0695 600.765,-73.4038"/>
</g>
<!-- Node28&#45;&gt;Node20 -->
<g id="edge57" class="edge"><title>Node28&#45;&gt;Node20</title>
<path fill="none" stroke="midnightblue" d="M1109.51,-292.407C1108.02,-283.376 1105.85,-268.74 1105,-256 1104.06,-241.809 1103.64,-238.157 1105,-224 1106.56,-207.775 1110.44,-204.225 1112,-188 1112.85,-179.152 1116.97,-175.372 1112,-168 1107.2,-160.88 1062.41,-144.222 1031.22,-133.294"/>
<polygon fill="midnightblue" stroke="midnightblue" points="1032.23,-129.94 1021.63,-129.966 1029.93,-136.553 1032.23,-129.94"/>
</g>
<!-- Node28&#45;&gt;Node27 -->
<g id="edge48" class="edge"><title>Node28&#45;&gt;Node27</title>
<path fill="none" stroke="midnightblue" d="M1100.24,-292.276C1090.93,-284.021 1078.05,-270.729 1072,-256 1064.39,-237.451 1063.97,-214.271 1064.93,-198.216"/>
<polygon fill="midnightblue" stroke="midnightblue" points="1068.44,-198.211 1065.79,-187.953 1061.47,-197.624 1068.44,-198.211"/>
</g>
<!-- Node29 -->
<g id="node30" class="node"><title>Node29</title>
<g id="a_node30"><a xlink:href="interval_8h.html" target="_top" xlink:title="base/interval.h">
<polygon fill="white" stroke="black" points="902,-230.5 902,-249.5 982,-249.5 982,-230.5 902,-230.5"/>
<text text-anchor="middle" x="942" y="-237.5" font-family="Helvetica,sans-Serif" font-size="10.00">base/interval.h</text>
</a>
</g>
</g>
<!-- Node28&#45;&gt;Node29 -->
<g id="edge49" class="edge"><title>Node28&#45;&gt;Node29</title>
<path fill="none" stroke="midnightblue" d="M1086.79,-292.403C1057.67,-282.067 1008.63,-264.656 975.798,-252.999"/>
<polygon fill="midnightblue" stroke="midnightblue" points="976.763,-249.628 966.169,-249.581 974.421,-256.225 976.763,-249.628"/>
</g>
<!-- Node31 -->
<g id="node32" class="node"><title>Node31</title>
<polygon fill="white" stroke="#bfbfbf" points="1114.5,-230.5 1114.5,-249.5 1149.5,-249.5 1149.5,-230.5 1114.5,-230.5"/>
<text text-anchor="middle" x="1132" y="-237.5" font-family="Helvetica,sans-Serif" font-size="10.00">map</text>
</g>
<!-- Node28&#45;&gt;Node31 -->
<g id="edge59" class="edge"><title>Node28&#45;&gt;Node31</title>
<path fill="none" stroke="midnightblue" d="M1114.01,-292.403C1117.03,-283.76 1121.79,-270.17 1125.65,-259.134"/>
<polygon fill="midnightblue" stroke="midnightblue" points="1129,-260.175 1129,-249.581 1122.39,-257.863 1129,-260.175"/>
</g>
<!-- Node32 -->
<g id="node33" class="node"><title>Node32</title>
<polygon fill="white" stroke="#bfbfbf" points="1167.5,-230.5 1167.5,-249.5 1214.5,-249.5 1214.5,-230.5 1167.5,-230.5"/>
<text text-anchor="middle" x="1191" y="-237.5" font-family="Helvetica,sans-Serif" font-size="10.00">iterator</text>
</g>
<!-- Node28&#45;&gt;Node32 -->
<g id="edge60" class="edge"><title>Node28&#45;&gt;Node32</title>
<path fill="none" stroke="midnightblue" d="M1122.46,-292.403C1135.17,-282.869 1155.91,-267.315 1171.25,-255.811"/>
<polygon fill="midnightblue" stroke="midnightblue" points="1173.66,-258.381 1179.56,-249.581 1169.46,-252.781 1173.66,-258.381"/>
</g>
<!-- Node29&#45;&gt;Node13 -->
<g id="edge56" class="edge"><title>Node29&#45;&gt;Node13</title>
<path fill="none" stroke="midnightblue" d="M933.346,-230.048C920.227,-215.404 898.496,-186.146 915,-168 971.924,-105.413 1237.08,-194.587 1294,-132 1310.66,-113.684 1291.69,-77.4714 1273,-56 1259.41,-40.3957 1239.05,-29.2391 1221.89,-21.9378"/>
<polygon fill="midnightblue" stroke="midnightblue" points="1222.82,-18.5399 1212.23,-18.0799 1220.22,-25.0403 1222.82,-18.5399"/>
</g>
<!-- Node29&#45;&gt;Node16 -->
<g id="edge53" class="edge"><title>Node29&#45;&gt;Node16</title>
<path fill="none" stroke="midnightblue" d="M928.99,-230.232C903.431,-212.772 845.299,-171.895 801,-132 783.858,-116.562 765.997,-97.0647 754.066,-83.4692"/>
<polygon fill="midnightblue" stroke="midnightblue" points="756.66,-81.1173 747.464,-75.8559 751.371,-85.7037 756.66,-81.1173"/>
</g>
<!-- Node29&#45;&gt;Node19 -->
<g id="edge52" class="edge"><title>Node29&#45;&gt;Node19</title>
<path fill="none" stroke="midnightblue" d="M952.94,-230.326C968.04,-217.23 992.301,-191.445 982,-168 976.61,-155.732 966.042,-145.341 956.096,-137.646"/>
<polygon fill="midnightblue" stroke="midnightblue" points="957.828,-134.581 947.661,-131.598 953.748,-140.27 957.828,-134.581"/>
</g>
<!-- Node29&#45;&gt;Node23 -->
<g id="edge55" class="edge"><title>Node29&#45;&gt;Node23</title>
<path fill="none" stroke="midnightblue" d="M901.996,-233.936C811.273,-222.452 591.062,-194.578 504.145,-183.575"/>
<polygon fill="midnightblue" stroke="midnightblue" points="504.584,-180.103 494.224,-182.319 503.705,-187.048 504.584,-180.103"/>
</g>
<!-- Node29&#45;&gt;Node26 -->
<g id="edge51" class="edge"><title>Node29&#45;&gt;Node26</title>
<path fill="none" stroke="midnightblue" d="M906.53,-230.443C866.565,-220.798 799.387,-204.576 732.192,-188.287"/>
<polygon fill="midnightblue" stroke="midnightblue" points="732.824,-184.839 722.281,-185.884 731.174,-191.641 732.824,-184.839"/>
</g>
<!-- Node29&#45;&gt;Node27 -->
<g id="edge50" class="edge"><title>Node29&#45;&gt;Node27</title>
<path fill="none" stroke="midnightblue" d="M959.909,-230.403C980.887,-220.334 1015.85,-203.552 1040.09,-191.915"/>
<polygon fill="midnightblue" stroke="midnightblue" points="1041.62,-195.063 1049.12,-187.581 1038.59,-188.753 1041.62,-195.063"/>
</g>
<!-- Node30 -->
<g id="node31" class="node"><title>Node30</title>
<polygon fill="white" stroke="#bfbfbf" points="924.5,-168.5 924.5,-187.5 973.5,-187.5 973.5,-168.5 924.5,-168.5"/>
<text text-anchor="middle" x="949" y="-175.5" font-family="Helvetica,sans-Serif" font-size="10.00">istream</text>
</g>
<!-- Node29&#45;&gt;Node30 -->
<g id="edge54" class="edge"><title>Node29&#45;&gt;Node30</title>
<path fill="none" stroke="midnightblue" d="M943.003,-230.403C943.991,-221.938 945.532,-208.728 946.804,-197.82"/>
<polygon fill="midnightblue" stroke="midnightblue" points="950.316,-197.919 947.999,-187.581 943.364,-197.108 950.316,-197.919"/>
</g>
<!-- Node33&#45;&gt;Node2 -->
<g id="edge67" class="edge"><title>Node33&#45;&gt;Node2</title>
<path fill="none" stroke="midnightblue" d="M1522.83,-231.821C1508.16,-228.982 1490.8,-225.94 1475,-224 1441.37,-219.871 942.941,-189.666 802.553,-181.2"/>
<polygon fill="midnightblue" stroke="midnightblue" points="802.517,-177.692 792.324,-180.584 802.095,-184.679 802.517,-177.692"/>
</g>
<!-- Node33&#45;&gt;Node17 -->
<g id="edge69" class="edge"><title>Node33&#45;&gt;Node17</title>
<path fill="none" stroke="midnightblue" d="M1541.15,-230.351C1508.03,-212.334 1433.53,-172.108 1421,-168 1321.02,-135.211 1287.71,-162.492 1187,-132 1166.83,-125.892 1164.39,-117.35 1144,-112 1117.54,-105.055 717.77,-77.26 600.254,-69.2006"/>
<polygon fill="midnightblue" stroke="midnightblue" points="600.309,-65.6963 590.093,-68.5048 599.83,-72.6799 600.309,-65.6963"/>
</g>
<!-- Node33&#45;&gt;Node21 -->
<g id="edge73" class="edge"><title>Node33&#45;&gt;Node21</title>
<path fill="none" stroke="midnightblue" d="M1534.67,-230.473C1509.02,-220.594 1465.75,-203.663 1429,-188 1409.24,-179.578 1405.62,-174.029 1385,-168 1334.68,-153.287 1185.54,-135.569 1112.39,-127.453"/>
<polygon fill="midnightblue" stroke="midnightblue" points="1112.49,-123.944 1102.17,-126.327 1111.73,-130.901 1112.49,-123.944"/>
</g>
<!-- Node33&#45;&gt;Node26 -->
<g id="edge70" class="edge"><title>Node33&#45;&gt;Node26</title>
<path fill="none" stroke="midnightblue" d="M1522.84,-231.705C1508.18,-228.847 1490.82,-225.821 1475,-224 1149.49,-186.52 1060.47,-234.337 732.446,-187.912"/>
<polygon fill="midnightblue" stroke="midnightblue" points="732.569,-184.393 722.174,-186.438 731.575,-191.323 732.569,-184.393"/>
</g>
<!-- Node34 -->
<g id="node35" class="node"><title>Node34</title>
<polygon fill="white" stroke="#bfbfbf" points="1471,-168.5 1471,-187.5 1567,-187.5 1567,-168.5 1471,-168.5"/>
<text text-anchor="middle" x="1519" y="-175.5" font-family="Helvetica,sans-Serif" font-size="10.00">cereal/access.hpp</text>
</g>
<!-- Node33&#45;&gt;Node34 -->
<g id="edge63" class="edge"><title>Node33&#45;&gt;Node34</title>
<path fill="none" stroke="midnightblue" d="M1551.56,-230.403C1545.91,-221.493 1536.94,-207.325 1529.84,-196.118"/>
<polygon fill="midnightblue" stroke="midnightblue" points="1532.74,-194.156 1524.43,-187.581 1526.83,-197.901 1532.74,-194.156"/>
</g>
<!-- Node35 -->
<g id="node36" class="node"><title>Node35</title>
<g id="a_node36"><a xlink:href="variadic_8h.html" target="_top" xlink:title="std_ext/variadic.h">
<polygon fill="white" stroke="black" points="1760,-168.5 1760,-187.5 1854,-187.5 1854,-168.5 1760,-168.5"/>
<text text-anchor="middle" x="1807" y="-175.5" font-family="Helvetica,sans-Serif" font-size="10.00">std_ext/variadic.h</text>
</a>
</g>
</g>
<!-- Node33&#45;&gt;Node35 -->
<g id="edge64" class="edge"><title>Node33&#45;&gt;Node35</title>
<path fill="none" stroke="midnightblue" d="M1591.24,-230.783C1635.43,-220.176 1712.47,-201.687 1761.54,-189.91"/>
<polygon fill="midnightblue" stroke="midnightblue" points="1762.66,-193.242 1771.56,-187.505 1761.02,-186.435 1762.66,-193.242"/>
</g>
<!-- Node33&#45;&gt;Node38 -->
<g id="edge68" class="edge"><title>Node33&#45;&gt;Node38</title>
<path fill="none" stroke="midnightblue" d="M1529.85,-230.48C1523.04,-228.354 1515.76,-226.087 1509,-224 1456.61,-207.823 1443.41,-204.126 1391,-188 1389.55,-187.554 1388.06,-187.095 1386.56,-186.631"/>
<polygon fill="midnightblue" stroke="midnightblue" points="1387.34,-183.208 1376.75,-183.592 1385.27,-189.894 1387.34,-183.208"/>
</g>
<!-- Node39 -->
<g id="node40" class="node"><title>Node39</title>
<polygon fill="white" stroke="#bfbfbf" points="1585.5,-168.5 1585.5,-187.5 1634.5,-187.5 1634.5,-168.5 1585.5,-168.5"/>
<text text-anchor="middle" x="1610" y="-175.5" font-family="Helvetica,sans-Serif" font-size="10.00">cassert</text>
</g>
<!-- Node33&#45;&gt;Node39 -->
<g id="edge71" class="edge"><title>Node33&#45;&gt;Node39</title>
<path fill="none" stroke="midnightblue" d="M1564.59,-230.403C1572.7,-221.225 1585.73,-206.47 1595.76,-195.117"/>
<polygon fill="midnightblue" stroke="midnightblue" points="1598.42,-197.392 1602.42,-187.581 1593.18,-192.758 1598.42,-197.392"/>
</g>
<!-- Node40 -->
<g id="node41" class="node"><title>Node40</title>
<polygon fill="white" stroke="#bfbfbf" points="1652.5,-168.5 1652.5,-187.5 1703.5,-187.5 1703.5,-168.5 1652.5,-168.5"/>
<text text-anchor="middle" x="1678" y="-175.5" font-family="Helvetica,sans-Serif" font-size="10.00">numeric</text>
</g>
<!-- Node33&#45;&gt;Node40 -->
<g id="edge72" class="edge"><title>Node33&#45;&gt;Node40</title>
<path fill="none" stroke="midnightblue" d="M1574.34,-230.403C1594.55,-220.379 1628.19,-203.701 1651.64,-192.07"/>
<polygon fill="midnightblue" stroke="midnightblue" points="1653.29,-195.159 1660.7,-187.581 1650.18,-188.887 1653.29,-195.159"/>
</g>
<!-- Node36 -->
<g id="node37" class="node"><title>Node36</title>
<polygon fill="white" stroke="#bfbfbf" points="1813.5,-112.5 1813.5,-131.5 1862.5,-131.5 1862.5,-112.5 1813.5,-112.5"/>
<text text-anchor="middle" x="1838" y="-119.5" font-family="Helvetica,sans-Serif" font-size="10.00">cstddef</text>
</g>
<!-- Node35&#45;&gt;Node36 -->
<g id="edge65" class="edge"><title>Node35&#45;&gt;Node36</title>
<path fill="none" stroke="midnightblue" d="M1812.12,-168.083C1816.41,-160.613 1822.66,-149.724 1827.94,-140.52"/>
<polygon fill="midnightblue" stroke="midnightblue" points="1831.03,-142.166 1832.98,-131.751 1824.96,-138.681 1831.03,-142.166"/>
</g>
<!-- Node37 -->
<g id="node38" class="node"><title>Node37</title>
<polygon fill="white" stroke="#bfbfbf" points="1757,-112.5 1757,-131.5 1795,-131.5 1795,-112.5 1757,-112.5"/>
<text text-anchor="middle" x="1776" y="-119.5" font-family="Helvetica,sans-Serif" font-size="10.00">tuple</text>
</g>
<!-- Node35&#45;&gt;Node37 -->
<g id="edge66" class="edge"><title>Node35&#45;&gt;Node37</title>
<path fill="none" stroke="midnightblue" d="M1801.88,-168.083C1797.59,-160.613 1791.34,-149.724 1786.06,-140.52"/>
<polygon fill="midnightblue" stroke="midnightblue" points="1789.04,-138.681 1781.02,-131.751 1782.97,-142.166 1789.04,-138.681"/>
</g>
<!-- Node41&#45;&gt;Node11 -->
<g id="edge75" class="edge"><title>Node41&#45;&gt;Node11</title>
<path fill="none" stroke="midnightblue" d="M1688.5,-292.232C1705,-268.838 1744.96,-204.257 1712,-168 1684.48,-137.724 1414.51,-127.317 1296.14,-124.191"/>
<polygon fill="midnightblue" stroke="midnightblue" points="1295.94,-120.684 1285.85,-123.927 1295.76,-127.682 1295.94,-120.684"/>
</g>
<!-- Node43&#45;&gt;Node2 -->
<g id="edge86" class="edge"><title>Node43&#45;&gt;Node2</title>
<path fill="none" stroke="midnightblue" d="M1347.16,-232.901C1319.69,-230.132 1286.7,-226.846 1257,-224 1086.97,-207.707 883.694,-189.474 802.301,-182.223"/>
<polygon fill="midnightblue" stroke="midnightblue" points="802.36,-178.715 792.089,-181.315 801.74,-185.687 802.36,-178.715"/>
</g>
<!-- Node43&#45;&gt;Node38 -->
<g id="edge87" class="edge"><title>Node43&#45;&gt;Node38</title>
<path fill="none" stroke="midnightblue" d="M1400.55,-230.403C1393.8,-221.403 1383.03,-207.041 1374.59,-195.782"/>
<polygon fill="midnightblue" stroke="midnightblue" points="1377.24,-193.481 1368.44,-187.581 1371.64,-197.681 1377.24,-193.481"/>
</g>
</g>
</svg>
