<?xml version="1.0" encoding="UTF-8" standalone="no"?>
<!DOCTYPE svg PUBLIC "-//W3C//DTD SVG 1.1//EN"
 "http://www.w3.org/Graphics/SVG/1.1/DTD/svg11.dtd">
<!-- Generated by graphviz version 2.36.0 (20140111.2315)
 -->
<!-- Title: src/calibration/gui/ManagerWindow.h Pages: 1 -->
<svg width="2044pt" height="376pt"
 viewBox="0.00 0.00 2044.00 376.00" xmlns="http://www.w3.org/2000/svg" xmlns:xlink="http://www.w3.org/1999/xlink">
<g id="graph0" class="graph" transform="scale(1 1) rotate(0) translate(4 372)">
<title>src/calibration/gui/ManagerWindow.h</title>
<polygon fill="white" stroke="none" points="-4,4 -4,-372 2040,-372 2040,4 -4,4"/>
<!-- Node0 -->
<g id="node1" class="node"><title>Node0</title>
<polygon fill="#bfbfbf" stroke="black" points="1770.5,-337 1770.5,-367 1871.5,-367 1871.5,-337 1770.5,-337"/>
<text text-anchor="start" x="1778.5" y="-355" font-family="Helvetica,sans-Serif" font-size="10.00">src/calibration/gui</text>
<text text-anchor="middle" x="1821" y="-344" font-family="Helvetica,sans-Serif" font-size="10.00">/ManagerWindow.h</text>
</g>
<!-- Node1 -->
<g id="node2" class="node"><title>Node1</title>
<g id="a_node2"><a xlink:href="_manager_window__traits_8h.html" target="_top" xlink:title="ManagerWindow_traits.h">
<polygon fill="white" stroke="black" points="1287.5,-280.5 1287.5,-299.5 1412.5,-299.5 1412.5,-280.5 1287.5,-280.5"/>
<text text-anchor="middle" x="1350" y="-287.5" font-family="Helvetica,sans-Serif" font-size="10.00">ManagerWindow_traits.h</text>
</a>
</g>
</g>
<!-- Node0&#45;&gt;Node1 -->
<g id="edge1" class="edge"><title>Node0&#45;&gt;Node1</title>
<path fill="none" stroke="midnightblue" d="M1770.15,-344.522C1686.29,-333.84 1518.73,-312.495 1422.49,-300.234"/>
<polygon fill="midnightblue" stroke="midnightblue" points="1422.9,-296.759 1412.54,-298.967 1422.02,-303.703 1422.9,-296.759"/>
</g>
<!-- Node16 -->
<g id="node17" class="node"><title>Node16</title>
<polygon fill="white" stroke="#bfbfbf" points="1625.5,-56.5 1625.5,-75.5 1684.5,-75.5 1684.5,-56.5 1625.5,-56.5"/>
<text text-anchor="middle" x="1655" y="-63.5" font-family="Helvetica,sans-Serif" font-size="10.00">functional</text>
</g>
<!-- Node0&#45;&gt;Node16 -->
<g id="edge55" class="edge"><title>Node0&#45;&gt;Node16</title>
<path fill="none" stroke="midnightblue" d="M1814.78,-336.659C1806,-315.049 1791,-272.651 1791,-235 1791,-235 1791,-235 1791,-177 1791,-126.081 1732.66,-94.6742 1692.4,-79.0633"/>
<polygon fill="midnightblue" stroke="midnightblue" points="1693.44,-75.7184 1682.85,-75.522 1691.01,-82.2814 1693.44,-75.7184"/>
</g>
<!-- Node26 -->
<g id="node27" class="node"><title>Node26</title>
<polygon fill="white" stroke="#bfbfbf" points="461.5,-112.5 461.5,-131.5 490.5,-131.5 490.5,-112.5 461.5,-112.5"/>
<text text-anchor="middle" x="476" y="-119.5" font-family="Helvetica,sans-Serif" font-size="10.00">list</text>
</g>
<!-- Node0&#45;&gt;Node26 -->
<g id="edge56" class="edge"><title>Node0&#45;&gt;Node26</title>
<path fill="none" stroke="midnightblue" d="M1770.48,-347.035C1674.55,-339.332 1459.46,-321.222 1279,-300 925.494,-258.427 739.238,-438.131 486,-188 473.96,-176.108 472.51,-156.197 473.423,-141.54"/>
<polygon fill="midnightblue" stroke="midnightblue" points="476.906,-141.88 474.445,-131.575 469.943,-141.165 476.906,-141.88"/>
</g>
<!-- Node36 -->
<g id="node37" class="node"><title>Node36</title>
<polygon fill="white" stroke="#bfbfbf" points="1819,-280.5 1819,-299.5 1885,-299.5 1885,-280.5 1819,-280.5"/>
<text text-anchor="middle" x="1852" y="-287.5" font-family="Helvetica,sans-Serif" font-size="10.00">TGFrame.h</text>
</g>
<!-- Node0&#45;&gt;Node36 -->
<g id="edge53" class="edge"><title>Node0&#45;&gt;Node36</title>
<path fill="none" stroke="midnightblue" d="M1828.35,-336.781C1832.67,-328.422 1838.17,-317.777 1842.77,-308.856"/>
<polygon fill="midnightblue" stroke="midnightblue" points="1846.01,-310.221 1847.49,-299.731 1839.79,-307.008 1846.01,-310.221"/>
</g>
<!-- Node37 -->
<g id="node38" class="node"><title>Node37</title>
<polygon fill="white" stroke="#bfbfbf" points="1903,-280.5 1903,-299.5 1983,-299.5 1983,-280.5 1903,-280.5"/>
<text text-anchor="middle" x="1943" y="-287.5" font-family="Helvetica,sans-Serif" font-size="10.00">KeySymbols.h</text>
</g>
<!-- Node0&#45;&gt;Node37 -->
<g id="edge54" class="edge"><title>Node0&#45;&gt;Node37</title>
<path fill="none" stroke="midnightblue" d="M1849.6,-336.933C1869.82,-326.991 1896.72,-313.76 1916.46,-304.053"/>
<polygon fill="midnightblue" stroke="midnightblue" points="1918.08,-307.154 1925.51,-299.6 1915,-300.873 1918.08,-307.154"/>
</g>
<!-- Node38 -->
<g id="node39" class="node"><title>Node38</title>
<polygon fill="white" stroke="#bfbfbf" points="2001.5,-280.5 2001.5,-299.5 2036.5,-299.5 2036.5,-280.5 2001.5,-280.5"/>
<text text-anchor="middle" x="2019" y="-287.5" font-family="Helvetica,sans-Serif" font-size="10.00">map</text>
</g>
<!-- Node0&#45;&gt;Node38 -->
<g id="edge57" class="edge"><title>Node0&#45;&gt;Node38</title>
<path fill="none" stroke="midnightblue" d="M1869.77,-336.903C1901.84,-327.531 1944.94,-314.742 1991.61,-300.05"/>
<polygon fill="midnightblue" stroke="midnightblue" points="1992.83,-303.338 2001.31,-296.987 1990.72,-296.663 1992.83,-303.338"/>
</g>
<!-- Node2 -->
<g id="node3" class="node"><title>Node2</title>
<g id="a_node3"><a xlink:href="_manager__traits_8h.html" target="_top" xlink:title="Manager_traits.h">
<polygon fill="white" stroke="black" points="954.5,-224.5 954.5,-243.5 1043.5,-243.5 1043.5,-224.5 954.5,-224.5"/>
<text text-anchor="middle" x="999" y="-231.5" font-family="Helvetica,sans-Serif" font-size="10.00">Manager_traits.h</text>
</a>
</g>
</g>
<!-- Node1&#45;&gt;Node2 -->
<g id="edge2" class="edge"><title>Node1&#45;&gt;Node2</title>
<path fill="none" stroke="midnightblue" d="M1294.38,-280.444C1228.42,-270.295 1119.17,-253.488 1053.64,-243.406"/>
<polygon fill="midnightblue" stroke="midnightblue" points="1053.93,-239.909 1043.51,-241.848 1052.86,-246.828 1053.93,-239.909"/>
</g>
<!-- Node3 -->
<g id="node4" class="node"><title>Node3</title>
<g id="a_node4"><a xlink:href="interval_8h.html" target="_top" xlink:title="base/interval.h">
<polygon fill="white" stroke="black" points="732,-168.5 732,-187.5 812,-187.5 812,-168.5 732,-168.5"/>
<text text-anchor="middle" x="772" y="-175.5" font-family="Helvetica,sans-Serif" font-size="10.00">base/interval.h</text>
</a>
</g>
</g>
<!-- Node2&#45;&gt;Node3 -->
<g id="edge3" class="edge"><title>Node2&#45;&gt;Node3</title>
<path fill="none" stroke="midnightblue" d="M963.031,-224.444C923.681,-215.083 860.513,-200.056 817.686,-189.868"/>
<polygon fill="midnightblue" stroke="midnightblue" points="818.339,-186.426 807.801,-187.516 816.719,-193.236 818.339,-186.426"/>
</g>
<!-- Node11 -->
<g id="node12" class="node"><title>Node11</title>
<g id="a_node12"><a xlink:href="_wrap_t_file_8h.html" target="_top" xlink:title="base/WrapTFile.h">
<polygon fill="white" stroke="black" points="1179,-168.5 1179,-187.5 1273,-187.5 1273,-168.5 1179,-168.5"/>
<text text-anchor="middle" x="1226" y="-175.5" font-family="Helvetica,sans-Serif" font-size="10.00">base/WrapTFile.h</text>
</a>
</g>
</g>
<!-- Node2&#45;&gt;Node11 -->
<g id="edge11" class="edge"><title>Node2&#45;&gt;Node11</title>
<path fill="none" stroke="midnightblue" d="M1034.97,-224.444C1074.32,-215.083 1137.49,-200.056 1180.31,-189.868"/>
<polygon fill="midnightblue" stroke="midnightblue" points="1181.28,-193.236 1190.2,-187.516 1179.66,-186.426 1181.28,-193.236"/>
</g>
<!-- Node13 -->
<g id="node14" class="node"><title>Node13</title>
<polygon fill="white" stroke="#bfbfbf" points="585.5,-0.5 585.5,-19.5 626.5,-19.5 626.5,-0.5 585.5,-0.5"/>
<text text-anchor="middle" x="606" y="-7.5" font-family="Helvetica,sans-Serif" font-size="10.00">string</text>
</g>
<!-- Node2&#45;&gt;Node13 -->
<g id="edge49" class="edge"><title>Node2&#45;&gt;Node13</title>
<path fill="none" stroke="midnightblue" d="M954.491,-228.254C855.3,-216.822 620.322,-184.74 563,-132 536.832,-107.924 521.168,-87.3223 538,-56 546.136,-40.8606 561.848,-29.9599 576.122,-22.6825"/>
<polygon fill="midnightblue" stroke="midnightblue" points="577.638,-25.8371 585.199,-18.4153 574.66,-19.5021 577.638,-25.8371"/>
</g>
<!-- Node2&#45;&gt;Node16 -->
<g id="edge52" class="edge"><title>Node2&#45;&gt;Node16</title>
<path fill="none" stroke="midnightblue" d="M1043.84,-232.571C1168.05,-230.94 1514.45,-223.267 1622,-188 1666.41,-173.438 1688.41,-172.91 1711,-132 1721.93,-112.213 1700.22,-93.0431 1680.73,-80.7127"/>
<polygon fill="midnightblue" stroke="midnightblue" points="1682.44,-77.6572 1672.06,-75.551 1678.86,-83.6726 1682.44,-77.6572"/>
</g>
<!-- Node19 -->
<g id="node20" class="node"><title>Node19</title>
<polygon fill="white" stroke="#bfbfbf" points="1458,-56.5 1458,-75.5 1510,-75.5 1510,-56.5 1458,-56.5"/>
<text text-anchor="middle" x="1484" y="-63.5" font-family="Helvetica,sans-Serif" font-size="10.00">memory</text>
</g>
<!-- Node2&#45;&gt;Node19 -->
<g id="edge51" class="edge"><title>Node2&#45;&gt;Node19</title>
<path fill="none" stroke="midnightblue" d="M1043.62,-233.727C1183.59,-234.963 1609.81,-230.445 1695,-132 1700.82,-125.278 1700.59,-118.91 1695,-112 1673.46,-85.3856 1575.09,-73.8345 1520.6,-69.4051"/>
<polygon fill="midnightblue" stroke="midnightblue" points="1520.56,-65.8919 1510.32,-68.6118 1520.02,-72.8711 1520.56,-65.8919"/>
</g>
<!-- Node2&#45;&gt;Node26 -->
<g id="edge50" class="edge"><title>Node2&#45;&gt;Node26</title>
<path fill="none" stroke="midnightblue" d="M954.373,-231.489C839.689,-227.251 541.115,-213.837 505,-188 489.958,-177.239 482.592,-156.842 479.068,-141.756"/>
<polygon fill="midnightblue" stroke="midnightblue" points="482.497,-141.055 477.126,-131.922 475.63,-142.411 482.497,-141.055"/>
</g>
<!-- Node28 -->
<g id="node29" class="node"><title>Node28</title>
<g id="a_node29"><a xlink:href="_t_i_d_8h.html" target="_top" xlink:title="tree/TID.h">
<polygon fill="white" stroke="black" points="310.5,-168.5 310.5,-187.5 371.5,-187.5 371.5,-168.5 310.5,-168.5"/>
<text text-anchor="middle" x="341" y="-175.5" font-family="Helvetica,sans-Serif" font-size="10.00">tree/TID.h</text>
</a>
</g>
</g>
<!-- Node2&#45;&gt;Node28 -->
<g id="edge36" class="edge"><title>Node2&#45;&gt;Node28</title>
<path fill="none" stroke="midnightblue" d="M954.29,-229.331C832.975,-219.375 498.886,-191.957 382.016,-182.366"/>
<polygon fill="midnightblue" stroke="midnightblue" points="381.971,-178.851 371.719,-181.521 381.399,-185.827 381.971,-178.851"/>
</g>
<!-- Node4 -->
<g id="node5" class="node"><title>Node4</title>
<g id="a_node5"><a xlink:href="types_8h.html" target="_top" xlink:title="types.h">
<polygon fill="white" stroke="black" points="826.5,-112.5 826.5,-131.5 875.5,-131.5 875.5,-112.5 826.5,-112.5"/>
<text text-anchor="middle" x="851" y="-119.5" font-family="Helvetica,sans-Serif" font-size="10.00">types.h</text>
</a>
</g>
</g>
<!-- Node3&#45;&gt;Node4 -->
<g id="edge4" class="edge"><title>Node3&#45;&gt;Node4</title>
<path fill="none" stroke="midnightblue" d="M784.693,-168.324C796.901,-159.979 815.578,-147.212 830.003,-137.352"/>
<polygon fill="midnightblue" stroke="midnightblue" points="832.058,-140.187 838.339,-131.655 828.108,-134.408 832.058,-140.187"/>
</g>
<!-- Node5 -->
<g id="node6" class="node"><title>Node5</title>
<polygon fill="white" stroke="#bfbfbf" points="876,-0.5 876,-19.5 932,-19.5 932,-0.5 876,-0.5"/>
<text text-anchor="middle" x="904" y="-7.5" font-family="Helvetica,sans-Serif" font-size="10.00">algorithm</text>
</g>
<!-- Node3&#45;&gt;Node5 -->
<g id="edge5" class="edge"><title>Node3&#45;&gt;Node5</title>
<path fill="none" stroke="midnightblue" d="M812.091,-171.002C836.562,-165.203 866.425,-153.9 884,-132 907.682,-102.491 908.123,-55.6459 906.178,-29.7514"/>
<polygon fill="midnightblue" stroke="midnightblue" points="909.658,-29.3787 905.225,-19.756 902.69,-30.0431 909.658,-29.3787"/>
</g>
<!-- Node6 -->
<g id="node7" class="node"><title>Node6</title>
<polygon fill="white" stroke="#bfbfbf" points="643.5,-112.5 643.5,-131.5 702.5,-131.5 702.5,-112.5 643.5,-112.5"/>
<text text-anchor="middle" x="673" y="-119.5" font-family="Helvetica,sans-Serif" font-size="10.00">stdexcept</text>
</g>
<!-- Node3&#45;&gt;Node6 -->
<g id="edge6" class="edge"><title>Node3&#45;&gt;Node6</title>
<path fill="none" stroke="midnightblue" d="M756.094,-168.324C740.362,-159.743 716.058,-146.486 697.791,-136.522"/>
<polygon fill="midnightblue" stroke="midnightblue" points="699.322,-133.37 688.867,-131.655 695.97,-139.516 699.322,-133.37"/>
</g>
<!-- Node7 -->
<g id="node8" class="node"><title>Node7</title>
<polygon fill="white" stroke="#bfbfbf" points="585,-112.5 585,-131.5 625,-131.5 625,-112.5 585,-112.5"/>
<text text-anchor="middle" x="605" y="-119.5" font-family="Helvetica,sans-Serif" font-size="10.00">limits</text>
</g>
<!-- Node3&#45;&gt;Node7 -->
<g id="edge7" class="edge"><title>Node3&#45;&gt;Node7</title>
<path fill="none" stroke="midnightblue" d="M745.538,-168.444C715.33,-158.676 666.043,-142.738 634.588,-132.567"/>
<polygon fill="midnightblue" stroke="midnightblue" points="635.64,-129.229 625.048,-129.483 633.486,-135.89 635.64,-129.229"/>
</g>
<!-- Node8 -->
<g id="node9" class="node"><title>Node8</title>
<polygon fill="white" stroke="#bfbfbf" points="720.5,-112.5 720.5,-131.5 769.5,-131.5 769.5,-112.5 720.5,-112.5"/>
<text text-anchor="middle" x="745" y="-119.5" font-family="Helvetica,sans-Serif" font-size="10.00">istream</text>
</g>
<!-- Node3&#45;&gt;Node8 -->
<g id="edge8" class="edge"><title>Node3&#45;&gt;Node8</title>
<path fill="none" stroke="midnightblue" d="M767.541,-168.083C763.846,-160.691 758.477,-149.953 753.906,-140.811"/>
<polygon fill="midnightblue" stroke="midnightblue" points="756.978,-139.13 749.376,-131.751 750.717,-142.261 756.978,-139.13"/>
</g>
<!-- Node9 -->
<g id="node10" class="node"><title>Node9</title>
<polygon fill="white" stroke="#bfbfbf" points="649,-0.5 649,-19.5 701,-19.5 701,-0.5 649,-0.5"/>
<text text-anchor="middle" x="675" y="-7.5" font-family="Helvetica,sans-Serif" font-size="10.00">sstream</text>
</g>
<!-- Node3&#45;&gt;Node9 -->
<g id="edge9" class="edge"><title>Node3&#45;&gt;Node9</title>
<path fill="none" stroke="midnightblue" d="M731.708,-173.558C680.118,-168.22 595.086,-155.965 576,-132 539.625,-86.3269 616.635,-135.168 664,-76 674.385,-63.0276 676.528,-43.8625 676.438,-29.7015"/>
<polygon fill="midnightblue" stroke="midnightblue" points="679.932,-29.4704 676.002,-19.6313 672.938,-29.7735 679.932,-29.4704"/>
</g>
<!-- Node10 -->
<g id="node11" class="node"><title>Node10</title>
<polygon fill="white" stroke="#bfbfbf" points="1050,-56.5 1050,-75.5 1094,-75.5 1094,-56.5 1050,-56.5"/>
<text text-anchor="middle" x="1072" y="-63.5" font-family="Helvetica,sans-Serif" font-size="10.00">cmath</text>
</g>
<!-- Node3&#45;&gt;Node10 -->
<g id="edge10" class="edge"><title>Node3&#45;&gt;Node10</title>
<path fill="none" stroke="midnightblue" d="M775.41,-168.133C781.436,-153.76 795.407,-125.618 817,-112 899.264,-60.12 939.416,-95.2677 1039.8,-75.6917"/>
<polygon fill="midnightblue" stroke="midnightblue" points="1040.63,-79.0933 1049.7,-73.6217 1039.2,-72.2413 1040.63,-79.0933"/>
</g>
<!-- Node11&#45;&gt;Node6 -->
<g id="edge34" class="edge"><title>Node11&#45;&gt;Node6</title>
<path fill="none" stroke="midnightblue" d="M1178.85,-175.175C1089.57,-171.222 889.61,-159.999 712.791,-132.089"/>
<polygon fill="midnightblue" stroke="midnightblue" points="713.216,-128.612 702.789,-130.488 712.11,-135.524 713.216,-128.612"/>
</g>
<!-- Node12 -->
<g id="node13" class="node"><title>Node12</title>
<g id="a_node13"><a xlink:href="string_8h.html" target="_top" xlink:title="base/std_ext/string.h">
<polygon fill="white" stroke="black" points="547,-56.5 547,-75.5 655,-75.5 655,-56.5 547,-56.5"/>
<text text-anchor="middle" x="601" y="-63.5" font-family="Helvetica,sans-Serif" font-size="10.00">base/std_ext/string.h</text>
</a>
</g>
</g>
<!-- Node11&#45;&gt;Node12 -->
<g id="edge12" class="edge"><title>Node11&#45;&gt;Node12</title>
<path fill="none" stroke="midnightblue" d="M1178.85,-169.825C1126.62,-161.649 1040,-147.41 966,-132 929.275,-124.352 920.776,-119.396 884,-112 809.349,-96.987 722.799,-83.8399 665.265,-75.6943"/>
<polygon fill="midnightblue" stroke="midnightblue" points="665.614,-72.2091 655.224,-74.2819 664.639,-79.1409 665.614,-72.2091"/>
</g>
<!-- Node11&#45;&gt;Node13 -->
<g id="edge31" class="edge"><title>Node11&#45;&gt;Node13</title>
<path fill="none" stroke="midnightblue" d="M1178.65,-169.405C1132.45,-161.576 1060.37,-148.241 999,-132 971.826,-124.808 965.785,-120.525 939,-112 827.941,-76.6552 695.16,-37.2244 636.465,-19.9376"/>
<polygon fill="midnightblue" stroke="midnightblue" points="637.296,-16.5338 626.714,-17.069 635.32,-23.2492 637.296,-16.5338"/>
</g>
<!-- Node15 -->
<g id="node16" class="node"><title>Node15</title>
<g id="a_node16"><a xlink:href="misc_8h.html" target="_top" xlink:title="base/std_ext/misc.h">
<polygon fill="white" stroke="black" points="1008.5,-112.5 1008.5,-131.5 1113.5,-131.5 1113.5,-112.5 1008.5,-112.5"/>
<text text-anchor="middle" x="1061" y="-119.5" font-family="Helvetica,sans-Serif" font-size="10.00">base/std_ext/misc.h</text>
</a>
</g>
</g>
<!-- Node11&#45;&gt;Node15 -->
<g id="edge17" class="edge"><title>Node11&#45;&gt;Node15</title>
<path fill="none" stroke="midnightblue" d="M1199.86,-168.444C1171.98,-159.32 1127.65,-144.813 1096.6,-134.651"/>
<polygon fill="midnightblue" stroke="midnightblue" points="1097.62,-131.3 1087.02,-131.516 1095.44,-137.953 1097.62,-131.3"/>
</g>
<!-- Node11&#45;&gt;Node16 -->
<g id="edge35" class="edge"><title>Node11&#45;&gt;Node16</title>
<path fill="none" stroke="midnightblue" d="M1273.2,-171.514C1325.39,-164.816 1411.66,-151.864 1484,-132 1511.29,-124.507 1583.45,-95.9463 1624.79,-79.2815"/>
<polygon fill="midnightblue" stroke="midnightblue" points="1626.14,-82.5118 1634.1,-75.5198 1623.51,-76.0218 1626.14,-82.5118"/>
</g>
<!-- Node11&#45;&gt;Node19 -->
<g id="edge30" class="edge"><title>Node11&#45;&gt;Node19</title>
<path fill="none" stroke="midnightblue" d="M1273.12,-173.789C1334.27,-168.686 1436.41,-156.666 1464,-132 1477.05,-120.335 1481.69,-100.389 1483.29,-85.6605"/>
<polygon fill="midnightblue" stroke="midnightblue" points="1486.78,-85.8629 1484,-75.6386 1479.8,-85.3634 1486.78,-85.8629"/>
</g>
<!-- Node20 -->
<g id="node21" class="node"><title>Node20</title>
<polygon fill="white" stroke="#bfbfbf" points="1550.5,-112.5 1550.5,-131.5 1597.5,-131.5 1597.5,-112.5 1550.5,-112.5"/>
<text text-anchor="middle" x="1574" y="-119.5" font-family="Helvetica,sans-Serif" font-size="10.00">TFile.h</text>
</g>
<!-- Node11&#45;&gt;Node20 -->
<g id="edge24" class="edge"><title>Node11&#45;&gt;Node20</title>
<path fill="none" stroke="midnightblue" d="M1273.22,-171.464C1334.19,-164.015 1443.45,-149.642 1536,-132 1537.46,-131.722 1538.94,-131.426 1540.44,-131.117"/>
<polygon fill="midnightblue" stroke="midnightblue" points="1541.34,-134.504 1550.35,-128.942 1539.83,-127.667 1541.34,-134.504"/>
</g>
<!-- Node21 -->
<g id="node22" class="node"><title>Node21</title>
<polygon fill="white" stroke="#bfbfbf" points="1615.5,-112.5 1615.5,-131.5 1686.5,-131.5 1686.5,-112.5 1615.5,-112.5"/>
<text text-anchor="middle" x="1651" y="-119.5" font-family="Helvetica,sans-Serif" font-size="10.00">TDirectory.h</text>
</g>
<!-- Node11&#45;&gt;Node21 -->
<g id="edge25" class="edge"><title>Node11&#45;&gt;Node21</title>
<path fill="none" stroke="midnightblue" d="M1273.26,-172.623C1343.39,-165.86 1479.34,-151.725 1605,-132.041"/>
<polygon fill="midnightblue" stroke="midnightblue" points="1605.85,-135.45 1615.18,-130.43 1604.76,-128.536 1605.85,-135.45"/>
</g>
<!-- Node22 -->
<g id="node23" class="node"><title>Node22</title>
<polygon fill="white" stroke="#bfbfbf" points="1132,-112.5 1132,-131.5 1184,-131.5 1184,-112.5 1132,-112.5"/>
<text text-anchor="middle" x="1158" y="-119.5" font-family="Helvetica,sans-Serif" font-size="10.00">TError.h</text>
</g>
<!-- Node11&#45;&gt;Node22 -->
<g id="edge26" class="edge"><title>Node11&#45;&gt;Node22</title>
<path fill="none" stroke="midnightblue" d="M1215.07,-168.324C1204.83,-160.185 1189.28,-147.839 1177,-138.087"/>
<polygon fill="midnightblue" stroke="midnightblue" points="1179.13,-135.312 1169.12,-131.834 1174.78,-140.794 1179.13,-135.312"/>
</g>
<!-- Node23 -->
<g id="node24" class="node"><title>Node23</title>
<polygon fill="white" stroke="#bfbfbf" points="1202.5,-112.5 1202.5,-131.5 1249.5,-131.5 1249.5,-112.5 1202.5,-112.5"/>
<text text-anchor="middle" x="1226" y="-119.5" font-family="Helvetica,sans-Serif" font-size="10.00">TList.h</text>
</g>
<!-- Node11&#45;&gt;Node23 -->
<g id="edge27" class="edge"><title>Node11&#45;&gt;Node23</title>
<path fill="none" stroke="midnightblue" d="M1226,-168.083C1226,-161.006 1226,-150.861 1226,-141.986"/>
<polygon fill="midnightblue" stroke="midnightblue" points="1229.5,-141.751 1226,-131.751 1222.5,-141.751 1229.5,-141.751"/>
</g>
<!-- Node24 -->
<g id="node25" class="node"><title>Node24</title>
<polygon fill="white" stroke="#bfbfbf" points="1268,-112.5 1268,-131.5 1342,-131.5 1342,-112.5 1268,-112.5"/>
<text text-anchor="middle" x="1305" y="-119.5" font-family="Helvetica,sans-Serif" font-size="10.00">TCollection.h</text>
</g>
<!-- Node11&#45;&gt;Node24 -->
<g id="edge28" class="edge"><title>Node11&#45;&gt;Node24</title>
<path fill="none" stroke="midnightblue" d="M1238.69,-168.324C1250.9,-159.979 1269.58,-147.212 1284,-137.352"/>
<polygon fill="midnightblue" stroke="midnightblue" points="1286.06,-140.187 1292.34,-131.655 1282.11,-134.408 1286.06,-140.187"/>
</g>
<!-- Node25 -->
<g id="node26" class="node"><title>Node25</title>
<polygon fill="white" stroke="#bfbfbf" points="1360,-112.5 1360,-131.5 1408,-131.5 1408,-112.5 1360,-112.5"/>
<text text-anchor="middle" x="1384" y="-119.5" font-family="Helvetica,sans-Serif" font-size="10.00">TKey.h</text>
</g>
<!-- Node11&#45;&gt;Node25 -->
<g id="edge29" class="edge"><title>Node11&#45;&gt;Node25</title>
<path fill="none" stroke="midnightblue" d="M1251.04,-168.444C1277.85,-159.279 1320.55,-144.684 1350.31,-134.515"/>
<polygon fill="midnightblue" stroke="midnightblue" points="1351.53,-137.797 1359.86,-131.251 1349.26,-131.173 1351.53,-137.797"/>
</g>
<!-- Node11&#45;&gt;Node26 -->
<g id="edge32" class="edge"><title>Node11&#45;&gt;Node26</title>
<path fill="none" stroke="midnightblue" d="M1178.67,-174.059C1071.39,-167.32 801.521,-149.953 576,-132 550.343,-129.958 521.015,-127.277 500.787,-125.374"/>
<polygon fill="midnightblue" stroke="midnightblue" points="500.851,-121.865 490.566,-124.406 500.191,-128.833 500.851,-121.865"/>
</g>
<!-- Node27 -->
<g id="node28" class="node"><title>Node27</title>
<polygon fill="white" stroke="#bfbfbf" points="1426,-112.5 1426,-131.5 1456,-131.5 1456,-112.5 1426,-112.5"/>
<text text-anchor="middle" x="1441" y="-119.5" font-family="Helvetica,sans-Serif" font-size="10.00">set</text>
</g>
<!-- Node11&#45;&gt;Node27 -->
<g id="edge33" class="edge"><title>Node11&#45;&gt;Node27</title>
<path fill="none" stroke="midnightblue" d="M1269.28,-168.449C1306.13,-160.799 1360.6,-148.631 1416.21,-131.949"/>
<polygon fill="midnightblue" stroke="midnightblue" points="1417.32,-135.269 1425.86,-129.009 1415.28,-128.573 1417.32,-135.269"/>
</g>
<!-- Node12&#45;&gt;Node5 -->
<g id="edge15" class="edge"><title>Node12&#45;&gt;Node5</title>
<path fill="none" stroke="midnightblue" d="M649.011,-56.4435C709.053,-45.743 810.635,-27.6392 865.72,-17.8222"/>
<polygon fill="midnightblue" stroke="midnightblue" points="866.537,-21.2318 875.768,-16.0315 865.309,-14.3404 866.537,-21.2318"/>
</g>
<!-- Node12&#45;&gt;Node9 -->
<g id="edge14" class="edge"><title>Node12&#45;&gt;Node9</title>
<path fill="none" stroke="midnightblue" d="M612.889,-56.324C624.15,-48.1066 641.287,-35.6017 654.709,-25.8069"/>
<polygon fill="midnightblue" stroke="midnightblue" points="656.88,-28.5559 662.894,-19.8339 652.753,-22.9014 656.88,-28.5559"/>
</g>
<!-- Node12&#45;&gt;Node13 -->
<g id="edge13" class="edge"><title>Node12&#45;&gt;Node13</title>
<path fill="none" stroke="midnightblue" d="M601.826,-56.083C602.481,-49.0059 603.42,-38.8611 604.242,-29.9865"/>
<polygon fill="midnightblue" stroke="midnightblue" points="607.753,-30.0312 605.19,-19.7511 600.783,-29.3858 607.753,-30.0312"/>
</g>
<!-- Node14 -->
<g id="node15" class="node"><title>Node14</title>
<polygon fill="white" stroke="#bfbfbf" points="523,-0.5 523,-19.5 567,-19.5 567,-0.5 523,-0.5"/>
<text text-anchor="middle" x="545" y="-7.5" font-family="Helvetica,sans-Serif" font-size="10.00">vector</text>
</g>
<!-- Node12&#45;&gt;Node14 -->
<g id="edge16" class="edge"><title>Node12&#45;&gt;Node14</title>
<path fill="none" stroke="midnightblue" d="M592.003,-56.324C583.806,-48.4196 571.494,-36.5482 561.528,-26.9377"/>
<polygon fill="midnightblue" stroke="midnightblue" points="563.789,-24.2558 554.161,-19.8339 558.93,-29.2947 563.789,-24.2558"/>
</g>
<!-- Node15&#45;&gt;Node5 -->
<g id="edge18" class="edge"><title>Node15&#45;&gt;Node5</title>
<path fill="none" stroke="midnightblue" d="M1073.37,-112.392C1090.33,-99.5518 1117.07,-74.8737 1102,-56 1082.4,-31.4494 994.128,-19.2721 942.298,-14.1388"/>
<polygon fill="midnightblue" stroke="midnightblue" points="942.424,-10.6352 932.139,-13.1765 941.764,-17.604 942.424,-10.6352"/>
</g>
<!-- Node15&#45;&gt;Node10 -->
<g id="edge20" class="edge"><title>Node15&#45;&gt;Node10</title>
<path fill="none" stroke="midnightblue" d="M1062.82,-112.083C1064.27,-104.927 1066.37,-94.6353 1068.19,-85.6911"/>
<polygon fill="midnightblue" stroke="midnightblue" points="1071.65,-86.2485 1070.22,-75.7511 1064.79,-84.8512 1071.65,-86.2485"/>
</g>
<!-- Node15&#45;&gt;Node16 -->
<g id="edge19" class="edge"><title>Node15&#45;&gt;Node16</title>
<path fill="none" stroke="midnightblue" d="M1113.74,-113.126C1116.87,-112.726 1119.97,-112.347 1123,-112 1306.39,-90.9519 1526.41,-75.4183 1615.08,-69.5576"/>
<polygon fill="midnightblue" stroke="midnightblue" points="1615.48,-73.0389 1625.23,-68.8911 1615.03,-66.0539 1615.48,-73.0389"/>
</g>
<!-- Node17 -->
<g id="node18" class="node"><title>Node17</title>
<polygon fill="white" stroke="#bfbfbf" points="1150.5,-56.5 1150.5,-75.5 1203.5,-75.5 1203.5,-56.5 1150.5,-56.5"/>
<text text-anchor="middle" x="1177" y="-63.5" font-family="Helvetica,sans-Serif" font-size="10.00">cxxabi.h</text>
</g>
<!-- Node15&#45;&gt;Node17 -->
<g id="edge21" class="edge"><title>Node15&#45;&gt;Node17</title>
<path fill="none" stroke="midnightblue" d="M1079.38,-112.444C1098.22,-103.675 1127.73,-89.9355 1149.38,-79.8579"/>
<polygon fill="midnightblue" stroke="midnightblue" points="1151.12,-82.9098 1158.71,-75.5164 1148.16,-76.5637 1151.12,-82.9098"/>
</g>
<!-- Node18 -->
<g id="node19" class="node"><title>Node18</title>
<polygon fill="white" stroke="#bfbfbf" points="970,-56.5 970,-75.5 1032,-75.5 1032,-56.5 970,-56.5"/>
<text text-anchor="middle" x="1001" y="-63.5" font-family="Helvetica,sans-Serif" font-size="10.00">type_traits</text>
</g>
<!-- Node15&#45;&gt;Node18 -->
<g id="edge22" class="edge"><title>Node15&#45;&gt;Node18</title>
<path fill="none" stroke="midnightblue" d="M1051.36,-112.324C1042.49,-104.341 1029.13,-92.3128 1018.39,-82.6529"/>
<polygon fill="midnightblue" stroke="midnightblue" points="1020.59,-79.922 1010.82,-75.8339 1015.91,-85.1251 1020.59,-79.922"/>
</g>
<!-- Node15&#45;&gt;Node19 -->
<g id="edge23" class="edge"><title>Node15&#45;&gt;Node19</title>
<path fill="none" stroke="midnightblue" d="M1113.76,-113.268C1116.88,-112.833 1119.98,-112.407 1123,-112 1241.58,-96.004 1382.36,-79.0383 1447.54,-71.2988"/>
<polygon fill="midnightblue" stroke="midnightblue" points="1448.19,-74.7467 1457.7,-70.0938 1447.36,-67.7953 1448.19,-74.7467"/>
</g>
<!-- Node28&#45;&gt;Node6 -->
<g id="edge45" class="edge"><title>Node28&#45;&gt;Node6</title>
<path fill="none" stroke="midnightblue" d="M371.924,-173.021C423.777,-166.183 531.729,-151.239 633.132,-132.04"/>
<polygon fill="midnightblue" stroke="midnightblue" points="634.073,-135.424 643.238,-130.108 632.759,-128.548 634.073,-135.424"/>
</g>
<!-- Node28&#45;&gt;Node18 -->
<g id="edge42" class="edge"><title>Node28&#45;&gt;Node18</title>
<path fill="none" stroke="midnightblue" d="M355.135,-168.245C382.649,-151.276 441.618,-115.277 452,-112 546.641,-82.1248 848.695,-71.1129 959.627,-68.015"/>
<polygon fill="midnightblue" stroke="midnightblue" points="959.851,-71.5103 969.753,-67.7395 959.661,-64.5129 959.851,-71.5103"/>
</g>
<!-- Node28&#45;&gt;Node26 -->
<g id="edge46" class="edge"><title>Node28&#45;&gt;Node26</title>
<path fill="none" stroke="midnightblue" d="M362.391,-168.444C386.808,-158.677 426.642,-142.743 452.071,-132.572"/>
<polygon fill="midnightblue" stroke="midnightblue" points="453.381,-135.817 461.366,-128.854 450.781,-129.318 453.381,-135.817"/>
</g>
<!-- Node29 -->
<g id="node30" class="node"><title>Node29</title>
<polygon fill="white" stroke="#bfbfbf" points="349,-112.5 349,-131.5 405,-131.5 405,-112.5 349,-112.5"/>
<text text-anchor="middle" x="377" y="-119.5" font-family="Helvetica,sans-Serif" font-size="10.00">Rtypes.h</text>
</g>
<!-- Node28&#45;&gt;Node29 -->
<g id="edge37" class="edge"><title>Node28&#45;&gt;Node29</title>
<path fill="none" stroke="midnightblue" d="M346.945,-168.083C351.977,-160.534 359.337,-149.495 365.513,-140.23"/>
<polygon fill="midnightblue" stroke="midnightblue" points="368.531,-142.013 371.166,-131.751 362.707,-138.13 368.531,-142.013"/>
</g>
<!-- Node30 -->
<g id="node31" class="node"><title>Node30</title>
<g id="a_node31"><a xlink:href="base_2std__ext_2_time_8h.html" target="_top" xlink:title="base/std_ext/time.h">
<polygon fill="white" stroke="black" points="39.5,-112.5 39.5,-131.5 142.5,-131.5 142.5,-112.5 39.5,-112.5"/>
<text text-anchor="middle" x="91" y="-119.5" font-family="Helvetica,sans-Serif" font-size="10.00">base/std_ext/time.h</text>
</a>
</g>
</g>
<!-- Node28&#45;&gt;Node30 -->
<g id="edge38" class="edge"><title>Node28&#45;&gt;Node30</title>
<path fill="none" stroke="midnightblue" d="M310.345,-170.379C268.018,-161.236 191.184,-144.64 140.619,-133.718"/>
<polygon fill="midnightblue" stroke="midnightblue" points="141.075,-130.236 130.561,-131.545 139.597,-137.078 141.075,-130.236"/>
</g>
<!-- Node32 -->
<g id="node33" class="node"><title>Node32</title>
<polygon fill="white" stroke="#bfbfbf" points="-0.5,-56.5 -0.5,-75.5 40.5,-75.5 40.5,-56.5 -0.5,-56.5"/>
<text text-anchor="middle" x="20" y="-63.5" font-family="Helvetica,sans-Serif" font-size="10.00">ctime</text>
</g>
<!-- Node28&#45;&gt;Node32 -->
<g id="edge48" class="edge"><title>Node28&#45;&gt;Node32</title>
<path fill="none" stroke="midnightblue" d="M310.287,-177.013C239.722,-176.367 69.0878,-170.739 30,-132 17.9803,-120.087 16.5267,-100.18 17.4334,-85.5287"/>
<polygon fill="midnightblue" stroke="midnightblue" points="20.9164,-85.8728 18.4508,-75.5688 13.9526,-85.1613 20.9164,-85.8728"/>
</g>
<!-- Node33 -->
<g id="node34" class="node"><title>Node33</title>
<polygon fill="white" stroke="#bfbfbf" points="161,-112.5 161,-131.5 199,-131.5 199,-112.5 161,-112.5"/>
<text text-anchor="middle" x="180" y="-119.5" font-family="Helvetica,sans-Serif" font-size="10.00">tuple</text>
</g>
<!-- Node28&#45;&gt;Node33 -->
<g id="edge43" class="edge"><title>Node28&#45;&gt;Node33</title>
<path fill="none" stroke="midnightblue" d="M315.489,-168.444C286.492,-158.718 239.261,-142.876 208.919,-132.7"/>
<polygon fill="midnightblue" stroke="midnightblue" points="209.922,-129.344 199.328,-129.483 207.696,-135.981 209.922,-129.344"/>
</g>
<!-- Node34 -->
<g id="node35" class="node"><title>Node34</title>
<polygon fill="white" stroke="#bfbfbf" points="217,-112.5 217,-131.5 263,-131.5 263,-112.5 217,-112.5"/>
<text text-anchor="middle" x="240" y="-119.5" font-family="Helvetica,sans-Serif" font-size="10.00">cstdint</text>
</g>
<!-- Node28&#45;&gt;Node34 -->
<g id="edge44" class="edge"><title>Node28&#45;&gt;Node34</title>
<path fill="none" stroke="midnightblue" d="M324.773,-168.324C308.649,-159.703 283.7,-146.364 265.036,-136.386"/>
<polygon fill="midnightblue" stroke="midnightblue" points="266.656,-133.283 256.187,-131.655 263.356,-139.456 266.656,-133.283"/>
</g>
<!-- Node35 -->
<g id="node36" class="node"><title>Node35</title>
<polygon fill="white" stroke="#bfbfbf" points="281,-112.5 281,-131.5 331,-131.5 331,-112.5 281,-112.5"/>
<text text-anchor="middle" x="306" y="-119.5" font-family="Helvetica,sans-Serif" font-size="10.00">iomanip</text>
</g>
<!-- Node28&#45;&gt;Node35 -->
<g id="edge47" class="edge"><title>Node28&#45;&gt;Node35</title>
<path fill="none" stroke="midnightblue" d="M335.22,-168.083C330.328,-160.534 323.173,-149.495 317.167,-140.23"/>
<polygon fill="midnightblue" stroke="midnightblue" points="320.048,-138.239 311.672,-131.751 314.174,-142.046 320.048,-138.239"/>
</g>
<!-- Node30&#45;&gt;Node12 -->
<g id="edge39" class="edge"><title>Node30&#45;&gt;Node12</title>
<path fill="none" stroke="midnightblue" d="M142.562,-113.22C145.753,-112.792 148.919,-112.381 152,-112 288.86,-95.0548 449.801,-80.1364 536.996,-72.4695"/>
<polygon fill="midnightblue" stroke="midnightblue" points="537.344,-75.9525 547,-71.5932 536.733,-68.9792 537.344,-75.9525"/>
</g>
<!-- Node31 -->
<g id="node32" class="node"><title>Node31</title>
<polygon fill="white" stroke="#bfbfbf" points="68,-56.5 68,-75.5 114,-75.5 114,-56.5 68,-56.5"/>
<text text-anchor="middle" x="91" y="-63.5" font-family="Helvetica,sans-Serif" font-size="10.00">cstring</text>
</g>
<!-- Node30&#45;&gt;Node31 -->
<g id="edge40" class="edge"><title>Node30&#45;&gt;Node31</title>
<path fill="none" stroke="midnightblue" d="M91,-112.083C91,-105.006 91,-94.8611 91,-85.9865"/>
<polygon fill="midnightblue" stroke="midnightblue" points="94.5001,-85.751 91,-75.7511 87.5001,-85.7511 94.5001,-85.751"/>
</g>
<!-- Node30&#45;&gt;Node32 -->
<g id="edge41" class="edge"><title>Node30&#45;&gt;Node32</title>
<path fill="none" stroke="midnightblue" d="M79.5926,-112.324C68.8912,-104.185 52.6593,-91.8395 39.8372,-82.0874"/>
<polygon fill="midnightblue" stroke="midnightblue" points="41.6932,-79.1018 31.6149,-75.8339 37.4556,-84.6734 41.6932,-79.1018"/>
</g>
</g>
</svg>
