<?xml version="1.0" encoding="UTF-8" standalone="no"?>
<!DOCTYPE svg PUBLIC "-//W3C//DTD SVG 1.1//EN"
 "http://www.w3.org/Graphics/SVG/1.1/DTD/svg11.dtd">
<!-- Generated by graphviz version 2.36.0 (20140111.2315)
 -->
<!-- Title: src/calibration/gui/Manager.h Pages: 1 -->
<svg width="1014pt" height="320pt"
 viewBox="0.00 0.00 1014.00 320.00" xmlns="http://www.w3.org/2000/svg" xmlns:xlink="http://www.w3.org/1999/xlink">
<g id="graph0" class="graph" transform="scale(1 1) rotate(0) translate(4 316)">
<title>src/calibration/gui/Manager.h</title>
<polygon fill="white" stroke="none" points="-4,4 -4,-316 1010,-316 1010,4 -4,4"/>
<!-- Node0 -->
<g id="node1" class="node"><title>Node0</title>
<polygon fill="#bfbfbf" stroke="black" points="878.5,-281 878.5,-311 971.5,-311 971.5,-281 878.5,-281"/>
<text text-anchor="start" x="886.5" y="-299" font-family="Helvetica,sans-Serif" font-size="10.00">src/calibration/gui</text>
<text text-anchor="middle" x="925" y="-288" font-family="Helvetica,sans-Serif" font-size="10.00">/Manager.h</text>
</g>
<!-- Node1 -->
<g id="node2" class="node"><title>Node1</title>
<g id="a_node2"><a xlink:href="_avg_buffer__traits_8h.html" target="_top" xlink:title="AvgBuffer_traits.h">
<polygon fill="white" stroke="black" points="657.5,-224.5 657.5,-243.5 752.5,-243.5 752.5,-224.5 657.5,-224.5"/>
<text text-anchor="middle" x="705" y="-231.5" font-family="Helvetica,sans-Serif" font-size="10.00">AvgBuffer_traits.h</text>
</a>
</g>
</g>
<!-- Node0&#45;&gt;Node1 -->
<g id="edge1" class="edge"><title>Node0&#45;&gt;Node1</title>
<path fill="none" stroke="midnightblue" d="M878.344,-282.276C839.26,-271.616 783.992,-256.543 746.445,-246.303"/>
<polygon fill="midnightblue" stroke="midnightblue" points="746.921,-242.805 736.353,-243.551 745.079,-249.559 746.921,-242.805"/>
</g>
<!-- Node14 -->
<g id="node15" class="node"><title>Node14</title>
<polygon fill="white" stroke="#bfbfbf" points="862.5,-0.5 862.5,-19.5 903.5,-19.5 903.5,-0.5 862.5,-0.5"/>
<text text-anchor="middle" x="883" y="-7.5" font-family="Helvetica,sans-Serif" font-size="10.00">string</text>
</g>
<!-- Node0&#45;&gt;Node14 -->
<g id="edge31" class="edge"><title>Node0&#45;&gt;Node14</title>
<path fill="none" stroke="midnightblue" d="M933.91,-280.975C946.505,-259.766 968,-217.875 968,-179 968,-179 968,-179 968,-121 968,-79.765 930.139,-44.5737 904.953,-25.7262"/>
<polygon fill="midnightblue" stroke="midnightblue" points="906.818,-22.7563 896.657,-19.758 902.731,-28.4388 906.818,-22.7563"/>
</g>
<!-- Node15 -->
<g id="node16" class="node"><title>Node15</title>
<polygon fill="white" stroke="#bfbfbf" points="963,-0.5 963,-19.5 1007,-19.5 1007,-0.5 963,-0.5"/>
<text text-anchor="middle" x="985" y="-7.5" font-family="Helvetica,sans-Serif" font-size="10.00">vector</text>
</g>
<!-- Node0&#45;&gt;Node15 -->
<g id="edge30" class="edge"><title>Node0&#45;&gt;Node15</title>
<path fill="none" stroke="midnightblue" d="M943.787,-280.761C967.715,-260.847 1006,-222.23 1006,-179 1006,-179 1006,-179 1006,-121 1006,-88.3843 996.982,-51.2785 990.765,-29.5732"/>
<polygon fill="midnightblue" stroke="midnightblue" points="994.043,-28.3156 987.832,-19.7319 987.334,-30.3151 994.043,-28.3156"/>
</g>
<!-- Node21 -->
<g id="node22" class="node"><title>Node21</title>
<polygon fill="white" stroke="#bfbfbf" points="910.5,-112.5 910.5,-131.5 939.5,-131.5 939.5,-112.5 910.5,-112.5"/>
<text text-anchor="middle" x="925" y="-119.5" font-family="Helvetica,sans-Serif" font-size="10.00">list</text>
</g>
<!-- Node0&#45;&gt;Node21 -->
<g id="edge29" class="edge"><title>Node0&#45;&gt;Node21</title>
<path fill="none" stroke="midnightblue" d="M925,-280.925C925,-250.073 925,-176.484 925,-141.755"/>
<polygon fill="midnightblue" stroke="midnightblue" points="928.5,-141.585 925,-131.585 921.5,-141.585 928.5,-141.585"/>
</g>
<!-- Node23 -->
<g id="node24" class="node"><title>Node23</title>
<polygon fill="white" stroke="#bfbfbf" points="762,-168.5 762,-187.5 814,-187.5 814,-168.5 762,-168.5"/>
<text text-anchor="middle" x="788" y="-175.5" font-family="Helvetica,sans-Serif" font-size="10.00">memory</text>
</g>
<!-- Node0&#45;&gt;Node23 -->
<g id="edge28" class="edge"><title>Node0&#45;&gt;Node23</title>
<path fill="none" stroke="midnightblue" d="M908.201,-280.776C882.283,-258.831 832.755,-216.895 806.082,-194.31"/>
<polygon fill="midnightblue" stroke="midnightblue" points="808.177,-191.498 798.283,-187.707 803.653,-196.84 808.177,-191.498"/>
</g>
<!-- Node2 -->
<g id="node3" class="node"><title>Node2</title>
<g id="a_node3"><a xlink:href="interval_8h.html" target="_top" xlink:title="base/interval.h">
<polygon fill="white" stroke="black" points="179,-168.5 179,-187.5 259,-187.5 259,-168.5 179,-168.5"/>
<text text-anchor="middle" x="219" y="-175.5" font-family="Helvetica,sans-Serif" font-size="10.00">base/interval.h</text>
</a>
</g>
</g>
<!-- Node1&#45;&gt;Node2 -->
<g id="edge2" class="edge"><title>Node1&#45;&gt;Node2</title>
<path fill="none" stroke="midnightblue" d="M657.07,-227.674C564.858,-217.429 363.564,-195.063 269.423,-184.603"/>
<polygon fill="midnightblue" stroke="midnightblue" points="269.624,-181.103 259.299,-183.478 268.851,-188.061 269.624,-181.103"/>
</g>
<!-- Node10 -->
<g id="node11" class="node"><title>Node10</title>
<g id="a_node11"><a xlink:href="_t_i_d_8h.html" target="_top" xlink:title="tree/TID.h">
<polygon fill="white" stroke="black" points="608.5,-168.5 608.5,-187.5 669.5,-187.5 669.5,-168.5 608.5,-168.5"/>
<text text-anchor="middle" x="639" y="-175.5" font-family="Helvetica,sans-Serif" font-size="10.00">tree/TID.h</text>
</a>
</g>
</g>
<!-- Node1&#45;&gt;Node10 -->
<g id="edge10" class="edge"><title>Node1&#45;&gt;Node10</title>
<path fill="none" stroke="midnightblue" d="M694.396,-224.324C684.544,-216.263 669.649,-204.077 657.785,-194.369"/>
<polygon fill="midnightblue" stroke="midnightblue" points="659.753,-191.457 649.797,-187.834 655.32,-196.875 659.753,-191.457"/>
</g>
<!-- Node1&#45;&gt;Node23 -->
<g id="edge27" class="edge"><title>Node1&#45;&gt;Node23</title>
<path fill="none" stroke="midnightblue" d="M718.335,-224.324C731.162,-215.979 750.785,-203.212 765.94,-193.352"/>
<polygon fill="midnightblue" stroke="midnightblue" points="768.224,-196.042 774.698,-187.655 764.407,-190.174 768.224,-196.042"/>
</g>
<!-- Node3 -->
<g id="node4" class="node"><title>Node3</title>
<g id="a_node4"><a xlink:href="types_8h.html" target="_top" xlink:title="types.h">
<polygon fill="white" stroke="black" points="167.5,-112.5 167.5,-131.5 216.5,-131.5 216.5,-112.5 167.5,-112.5"/>
<text text-anchor="middle" x="192" y="-119.5" font-family="Helvetica,sans-Serif" font-size="10.00">types.h</text>
</a>
</g>
</g>
<!-- Node2&#45;&gt;Node3 -->
<g id="edge3" class="edge"><title>Node2&#45;&gt;Node3</title>
<path fill="none" stroke="midnightblue" d="M214.541,-168.083C210.846,-160.691 205.477,-149.953 200.906,-140.811"/>
<polygon fill="midnightblue" stroke="midnightblue" points="203.978,-139.13 196.376,-131.751 197.717,-142.261 203.978,-139.13"/>
</g>
<!-- Node4 -->
<g id="node5" class="node"><title>Node4</title>
<polygon fill="white" stroke="#bfbfbf" points="626,-0.5 626,-19.5 682,-19.5 682,-0.5 626,-0.5"/>
<text text-anchor="middle" x="654" y="-7.5" font-family="Helvetica,sans-Serif" font-size="10.00">algorithm</text>
</g>
<!-- Node2&#45;&gt;Node4 -->
<g id="edge4" class="edge"><title>Node2&#45;&gt;Node4</title>
<path fill="none" stroke="midnightblue" d="M222.558,-168.355C228.796,-154.303 243.066,-126.611 264,-112 375.109,-34.4547 541.388,-16.4344 615.715,-12.256"/>
<polygon fill="midnightblue" stroke="midnightblue" points="616.186,-15.7367 625.996,-11.7345 615.832,-8.74567 616.186,-15.7367"/>
</g>
<!-- Node5 -->
<g id="node6" class="node"><title>Node5</title>
<polygon fill="white" stroke="#bfbfbf" points="331.5,-112.5 331.5,-131.5 390.5,-131.5 390.5,-112.5 331.5,-112.5"/>
<text text-anchor="middle" x="361" y="-119.5" font-family="Helvetica,sans-Serif" font-size="10.00">stdexcept</text>
</g>
<!-- Node2&#45;&gt;Node5 -->
<g id="edge5" class="edge"><title>Node2&#45;&gt;Node5</title>
<path fill="none" stroke="midnightblue" d="M241.5,-168.444C265.077,-159.478 302.322,-145.314 328.964,-135.183"/>
<polygon fill="midnightblue" stroke="midnightblue" points="330.502,-138.342 338.605,-131.516 328.014,-131.8 330.502,-138.342"/>
</g>
<!-- Node6 -->
<g id="node7" class="node"><title>Node6</title>
<polygon fill="white" stroke="#bfbfbf" points="273,-112.5 273,-131.5 313,-131.5 313,-112.5 273,-112.5"/>
<text text-anchor="middle" x="293" y="-119.5" font-family="Helvetica,sans-Serif" font-size="10.00">limits</text>
</g>
<!-- Node2&#45;&gt;Node6 -->
<g id="edge6" class="edge"><title>Node2&#45;&gt;Node6</title>
<path fill="none" stroke="midnightblue" d="M230.889,-168.324C242.15,-160.107 259.287,-147.602 272.709,-137.807"/>
<polygon fill="midnightblue" stroke="midnightblue" points="274.88,-140.556 280.894,-131.834 270.753,-134.901 274.88,-140.556"/>
</g>
<!-- Node7 -->
<g id="node8" class="node"><title>Node7</title>
<polygon fill="white" stroke="#bfbfbf" points="-0.5,-112.5 -0.5,-131.5 48.5,-131.5 48.5,-112.5 -0.5,-112.5"/>
<text text-anchor="middle" x="24" y="-119.5" font-family="Helvetica,sans-Serif" font-size="10.00">istream</text>
</g>
<!-- Node2&#45;&gt;Node7 -->
<g id="edge7" class="edge"><title>Node2&#45;&gt;Node7</title>
<path fill="none" stroke="midnightblue" d="M188.102,-168.444C152.763,-158.657 95.0642,-142.679 58.3442,-132.511"/>
<polygon fill="midnightblue" stroke="midnightblue" points="59.151,-129.102 48.5796,-129.807 57.2828,-135.849 59.151,-129.102"/>
</g>
<!-- Node8 -->
<g id="node9" class="node"><title>Node8</title>
<polygon fill="white" stroke="#bfbfbf" points="233,-0.5 233,-19.5 285,-19.5 285,-0.5 233,-0.5"/>
<text text-anchor="middle" x="259" y="-7.5" font-family="Helvetica,sans-Serif" font-size="10.00">sstream</text>
</g>
<!-- Node2&#45;&gt;Node8 -->
<g id="edge8" class="edge"><title>Node2&#45;&gt;Node8</title>
<path fill="none" stroke="midnightblue" d="M178.776,-171.872C135.754,-164.467 76.2025,-147.557 96,-112 122.965,-63.5696 183.808,-35.412 223.053,-21.6436"/>
<polygon fill="midnightblue" stroke="midnightblue" points="224.413,-24.8788 232.774,-18.3713 222.18,-18.2446 224.413,-24.8788"/>
</g>
<!-- Node9 -->
<g id="node10" class="node"><title>Node9</title>
<polygon fill="white" stroke="#bfbfbf" points="105,-112.5 105,-131.5 149,-131.5 149,-112.5 105,-112.5"/>
<text text-anchor="middle" x="127" y="-119.5" font-family="Helvetica,sans-Serif" font-size="10.00">cmath</text>
</g>
<!-- Node2&#45;&gt;Node9 -->
<g id="edge9" class="edge"><title>Node2&#45;&gt;Node9</title>
<path fill="none" stroke="midnightblue" d="M204.219,-168.324C189.733,-159.822 167.427,-146.729 150.507,-136.797"/>
<polygon fill="midnightblue" stroke="midnightblue" points="152.141,-133.698 141.745,-131.655 148.597,-139.735 152.141,-133.698"/>
</g>
<!-- Node10&#45;&gt;Node5 -->
<g id="edge23" class="edge"><title>Node10&#45;&gt;Node5</title>
<path fill="none" stroke="midnightblue" d="M608.314,-171.218C563.576,-162.762 477.838,-146.452 405,-132 403.566,-131.715 402.106,-131.424 400.632,-131.129"/>
<polygon fill="midnightblue" stroke="midnightblue" points="401.307,-127.695 390.812,-129.147 399.922,-134.557 401.307,-127.695"/>
</g>
<!-- Node11 -->
<g id="node12" class="node"><title>Node11</title>
<polygon fill="white" stroke="#bfbfbf" points="715,-112.5 715,-131.5 771,-131.5 771,-112.5 715,-112.5"/>
<text text-anchor="middle" x="743" y="-119.5" font-family="Helvetica,sans-Serif" font-size="10.00">Rtypes.h</text>
</g>
<!-- Node10&#45;&gt;Node11 -->
<g id="edge11" class="edge"><title>Node10&#45;&gt;Node11</title>
<path fill="none" stroke="midnightblue" d="M655.709,-168.324C672.312,-159.703 698.002,-146.364 717.22,-136.386"/>
<polygon fill="midnightblue" stroke="midnightblue" points="719.07,-139.369 726.332,-131.655 715.844,-133.156 719.07,-139.369"/>
</g>
<!-- Node12 -->
<g id="node13" class="node"><title>Node12</title>
<g id="a_node13"><a xlink:href="base_2std__ext_2_time_8h.html" target="_top" xlink:title="base/std_ext/time.h">
<polygon fill="white" stroke="black" points="789.5,-112.5 789.5,-131.5 892.5,-131.5 892.5,-112.5 789.5,-112.5"/>
<text text-anchor="middle" x="841" y="-119.5" font-family="Helvetica,sans-Serif" font-size="10.00">base/std_ext/time.h</text>
</a>
</g>
</g>
<!-- Node10&#45;&gt;Node12 -->
<g id="edge12" class="edge"><title>Node10&#45;&gt;Node12</title>
<path fill="none" stroke="midnightblue" d="M669.679,-168.799C704.228,-159.563 760.569,-144.501 799.142,-134.19"/>
<polygon fill="midnightblue" stroke="midnightblue" points="800.272,-137.511 809.029,-131.547 798.464,-130.748 800.272,-137.511"/>
</g>
<!-- Node17 -->
<g id="node18" class="node"><title>Node17</title>
<polygon fill="white" stroke="#bfbfbf" points="541.5,-56.5 541.5,-75.5 582.5,-75.5 582.5,-56.5 541.5,-56.5"/>
<text text-anchor="middle" x="562" y="-63.5" font-family="Helvetica,sans-Serif" font-size="10.00">ctime</text>
</g>
<!-- Node10&#45;&gt;Node17 -->
<g id="edge26" class="edge"><title>Node10&#45;&gt;Node17</title>
<path fill="none" stroke="midnightblue" d="M608.436,-174.715C557.564,-170.207 459.013,-158.237 438,-132 410.019,-97.0624 486.462,-78.7542 531.571,-71.2297"/>
<polygon fill="midnightblue" stroke="midnightblue" points="532.147,-74.6823 541.478,-69.6649 531.055,-67.768 532.147,-74.6823"/>
</g>
<!-- Node18 -->
<g id="node19" class="node"><title>Node18</title>
<polygon fill="white" stroke="#bfbfbf" points="447,-112.5 447,-131.5 509,-131.5 509,-112.5 447,-112.5"/>
<text text-anchor="middle" x="478" y="-119.5" font-family="Helvetica,sans-Serif" font-size="10.00">type_traits</text>
</g>
<!-- Node10&#45;&gt;Node18 -->
<g id="edge20" class="edge"><title>Node10&#45;&gt;Node18</title>
<path fill="none" stroke="midnightblue" d="M613.489,-168.444C586.404,-159.359 543.41,-144.939 513.131,-134.783"/>
<polygon fill="midnightblue" stroke="midnightblue" points="513.986,-131.378 503.392,-131.516 511.76,-138.015 513.986,-131.378"/>
</g>
<!-- Node19 -->
<g id="node20" class="node"><title>Node19</title>
<polygon fill="white" stroke="#bfbfbf" points="527,-112.5 527,-131.5 565,-131.5 565,-112.5 527,-112.5"/>
<text text-anchor="middle" x="546" y="-119.5" font-family="Helvetica,sans-Serif" font-size="10.00">tuple</text>
</g>
<!-- Node10&#45;&gt;Node19 -->
<g id="edge21" class="edge"><title>Node10&#45;&gt;Node19</title>
<path fill="none" stroke="midnightblue" d="M624.058,-168.324C609.415,-159.822 586.866,-146.729 569.762,-136.797"/>
<polygon fill="midnightblue" stroke="midnightblue" points="571.31,-133.649 560.905,-131.655 567.795,-139.703 571.31,-133.649"/>
</g>
<!-- Node20 -->
<g id="node21" class="node"><title>Node20</title>
<polygon fill="white" stroke="#bfbfbf" points="583,-112.5 583,-131.5 629,-131.5 629,-112.5 583,-112.5"/>
<text text-anchor="middle" x="606" y="-119.5" font-family="Helvetica,sans-Serif" font-size="10.00">cstdint</text>
</g>
<!-- Node10&#45;&gt;Node20 -->
<g id="edge22" class="edge"><title>Node10&#45;&gt;Node20</title>
<path fill="none" stroke="midnightblue" d="M633.551,-168.083C628.986,-160.613 622.332,-149.724 616.707,-140.52"/>
<polygon fill="midnightblue" stroke="midnightblue" points="619.549,-138.459 611.348,-131.751 613.576,-142.109 619.549,-138.459"/>
</g>
<!-- Node10&#45;&gt;Node21 -->
<g id="edge24" class="edge"><title>Node10&#45;&gt;Node21</title>
<path fill="none" stroke="midnightblue" d="M669.663,-173.638C717.268,-168.01 811.854,-155.198 900.73,-131.591"/>
<polygon fill="midnightblue" stroke="midnightblue" points="901.683,-134.959 910.42,-128.967 899.853,-128.202 901.683,-134.959"/>
</g>
<!-- Node22 -->
<g id="node23" class="node"><title>Node22</title>
<polygon fill="white" stroke="#bfbfbf" points="647,-112.5 647,-131.5 697,-131.5 697,-112.5 647,-112.5"/>
<text text-anchor="middle" x="672" y="-119.5" font-family="Helvetica,sans-Serif" font-size="10.00">iomanip</text>
</g>
<!-- Node10&#45;&gt;Node22 -->
<g id="edge25" class="edge"><title>Node10&#45;&gt;Node22</title>
<path fill="none" stroke="midnightblue" d="M644.449,-168.083C649.014,-160.613 655.668,-149.724 661.293,-140.52"/>
<polygon fill="midnightblue" stroke="midnightblue" points="664.424,-142.109 666.652,-131.751 658.451,-138.459 664.424,-142.109"/>
</g>
<!-- Node13 -->
<g id="node14" class="node"><title>Node13</title>
<g id="a_node14"><a xlink:href="string_8h.html" target="_top" xlink:title="base/std_ext/string.h">
<polygon fill="white" stroke="black" points="809,-56.5 809,-75.5 917,-75.5 917,-56.5 809,-56.5"/>
<text text-anchor="middle" x="863" y="-63.5" font-family="Helvetica,sans-Serif" font-size="10.00">base/std_ext/string.h</text>
</a>
</g>
</g>
<!-- Node12&#45;&gt;Node13 -->
<g id="edge13" class="edge"><title>Node12&#45;&gt;Node13</title>
<path fill="none" stroke="midnightblue" d="M844.633,-112.083C847.612,-104.77 851.926,-94.1814 855.625,-85.1034"/>
<polygon fill="midnightblue" stroke="midnightblue" points="858.903,-86.3326 859.435,-75.7511 852.42,-83.6914 858.903,-86.3326"/>
</g>
<!-- Node16 -->
<g id="node17" class="node"><title>Node16</title>
<polygon fill="white" stroke="#bfbfbf" points="745,-56.5 745,-75.5 791,-75.5 791,-56.5 745,-56.5"/>
<text text-anchor="middle" x="768" y="-63.5" font-family="Helvetica,sans-Serif" font-size="10.00">cstring</text>
</g>
<!-- Node12&#45;&gt;Node16 -->
<g id="edge18" class="edge"><title>Node12&#45;&gt;Node16</title>
<path fill="none" stroke="midnightblue" d="M829.271,-112.324C818.163,-104.107 801.258,-91.6017 788.017,-81.8069"/>
<polygon fill="midnightblue" stroke="midnightblue" points="790.063,-78.9671 779.942,-75.8339 785.9,-84.5948 790.063,-78.9671"/>
</g>
<!-- Node12&#45;&gt;Node17 -->
<g id="edge19" class="edge"><title>Node12&#45;&gt;Node17</title>
<path fill="none" stroke="midnightblue" d="M796.792,-112.444C739.818,-101.416 642.224,-82.5272 592.725,-72.9468"/>
<polygon fill="midnightblue" stroke="midnightblue" points="593.124,-69.4591 582.641,-70.9951 591.794,-76.3316 593.124,-69.4591"/>
</g>
<!-- Node13&#45;&gt;Node4 -->
<g id="edge16" class="edge"><title>Node13&#45;&gt;Node4</title>
<path fill="none" stroke="midnightblue" d="M829.883,-56.4435C792.4,-46.7589 731.445,-31.0098 692.041,-20.8287"/>
<polygon fill="midnightblue" stroke="midnightblue" points="692.827,-17.4171 682.27,-18.3042 691.076,-24.1945 692.827,-17.4171"/>
</g>
<!-- Node13&#45;&gt;Node8 -->
<g id="edge15" class="edge"><title>Node13&#45;&gt;Node8</title>
<path fill="none" stroke="midnightblue" d="M808.73,-57.0402C805.779,-56.672 802.854,-56.3223 800,-56 610.529,-34.6052 382.651,-18.9217 295.403,-13.2845"/>
<polygon fill="midnightblue" stroke="midnightblue" points="295.436,-9.77952 285.233,-12.6318 294.988,-16.7651 295.436,-9.77952"/>
</g>
<!-- Node13&#45;&gt;Node14 -->
<g id="edge14" class="edge"><title>Node13&#45;&gt;Node14</title>
<path fill="none" stroke="midnightblue" d="M866.303,-56.083C868.982,-48.8486 872.849,-38.4087 876.186,-29.3968"/>
<polygon fill="midnightblue" stroke="midnightblue" points="879.568,-30.3442 879.759,-19.7511 873.004,-27.9129 879.568,-30.3442"/>
</g>
<!-- Node13&#45;&gt;Node15 -->
<g id="edge17" class="edge"><title>Node13&#45;&gt;Node15</title>
<path fill="none" stroke="midnightblue" d="M882.331,-56.4435C902.32,-47.5961 933.743,-33.6875 956.564,-23.5865"/>
<polygon fill="midnightblue" stroke="midnightblue" points="958.032,-26.7645 965.759,-19.5164 955.198,-20.3635 958.032,-26.7645"/>
</g>
</g>
</svg>
