<?xml version="1.0" encoding="UTF-8" standalone="no"?>
<!DOCTYPE svg PUBLIC "-//W3C//DTD SVG 1.1//EN"
 "http://www.w3.org/Graphics/SVG/1.1/DTD/svg11.dtd">
<!-- Generated by graphviz version 2.36.0 (20140111.2315)
 -->
<!-- Title: src/analysis/utils/Matcher.h Pages: 1 -->
<svg width="529pt" height="152pt"
 viewBox="0.00 0.00 529.00 152.00" xmlns="http://www.w3.org/2000/svg" xmlns:xlink="http://www.w3.org/1999/xlink">
<g id="graph0" class="graph" transform="scale(1 1) rotate(0) translate(4 148)">
<title>src/analysis/utils/Matcher.h</title>
<polygon fill="white" stroke="none" points="-4,4 -4,-148 525,-148 525,4 -4,4"/>
<!-- Node0 -->
<g id="node1" class="node"><title>Node0</title>
<polygon fill="#bfbfbf" stroke="black" points="278,-113 278,-143 368,-143 368,-113 278,-113"/>
<text text-anchor="start" x="286" y="-131" font-family="Helvetica,sans-Serif" font-size="10.00">src/analysis/utils</text>
<text text-anchor="middle" x="323" y="-120" font-family="Helvetica,sans-Serif" font-size="10.00">/Matcher.h</text>
</g>
<!-- Node1 -->
<g id="node2" class="node"><title>Node1</title>
<polygon fill="white" stroke="#bfbfbf" points="142.5,-56.5 142.5,-75.5 171.5,-75.5 171.5,-56.5 142.5,-56.5"/>
<text text-anchor="middle" x="157" y="-63.5" font-family="Helvetica,sans-Serif" font-size="10.00">list</text>
</g>
<!-- Node0&#45;&gt;Node1 -->
<g id="edge1" class="edge"><title>Node0&#45;&gt;Node1</title>
<path fill="none" stroke="midnightblue" d="M284.08,-112.933C252.13,-101.384 207.904,-85.3989 180.937,-75.652"/>
<polygon fill="midnightblue" stroke="midnightblue" points="182.103,-72.3519 171.509,-72.2442 179.724,-78.935 182.103,-72.3519"/>
</g>
<!-- Node2 -->
<g id="node3" class="node"><title>Node2</title>
<polygon fill="white" stroke="#bfbfbf" points="477,-0.5 477,-19.5 521,-19.5 521,-0.5 477,-0.5"/>
<text text-anchor="middle" x="499" y="-7.5" font-family="Helvetica,sans-Serif" font-size="10.00">vector</text>
</g>
<!-- Node0&#45;&gt;Node2 -->
<g id="edge2" class="edge"><title>Node0&#45;&gt;Node2</title>
<path fill="none" stroke="midnightblue" d="M368.254,-117.417C396.103,-109.779 431.266,-96.8272 457,-76 472.463,-63.4853 484.089,-43.7036 491.144,-29.2472"/>
<polygon fill="midnightblue" stroke="midnightblue" points="494.47,-30.3903 495.462,-19.842 488.109,-27.4694 494.47,-30.3903"/>
</g>
<!-- Node3 -->
<g id="node4" class="node"><title>Node3</title>
<polygon fill="white" stroke="#bfbfbf" points="0,-0.5 0,-19.5 56,-19.5 56,-0.5 0,-0.5"/>
<text text-anchor="middle" x="28" y="-7.5" font-family="Helvetica,sans-Serif" font-size="10.00">algorithm</text>
</g>
<!-- Node0&#45;&gt;Node3 -->
<g id="edge3" class="edge"><title>Node0&#45;&gt;Node3</title>
<path fill="none" stroke="midnightblue" d="M293.792,-112.85C272.91,-102.691 244.166,-88.6219 219,-76 201.588,-67.2668 198.084,-63.2406 180,-56 159.244,-47.6894 103.605,-31.8007 65.7237,-21.3012"/>
<polygon fill="midnightblue" stroke="midnightblue" points="66.6023,-17.9129 56.0314,-18.6248 64.739,-24.6603 66.6023,-17.9129"/>
</g>
<!-- Node4 -->
<g id="node5" class="node"><title>Node4</title>
<g id="a_node5"><a xlink:href="interval_8h.html" target="_top" xlink:title="base/interval.h">
<polygon fill="white" stroke="black" points="228,-56.5 228,-75.5 308,-75.5 308,-56.5 228,-56.5"/>
<text text-anchor="middle" x="268" y="-63.5" font-family="Helvetica,sans-Serif" font-size="10.00">base/interval.h</text>
</a>
</g>
</g>
<!-- Node0&#45;&gt;Node4 -->
<g id="edge4" class="edge"><title>Node0&#45;&gt;Node4</title>
<path fill="none" stroke="midnightblue" d="M309.966,-112.781C301.809,-103.882 291.278,-92.3943 282.806,-83.1524"/>
<polygon fill="midnightblue" stroke="midnightblue" points="285.34,-80.7371 276.003,-75.7305 280.18,-85.4671 285.34,-80.7371"/>
</g>
<!-- Node7 -->
<g id="node8" class="node"><title>Node7</title>
<polygon fill="white" stroke="#bfbfbf" points="419,-0.5 419,-19.5 459,-19.5 459,-0.5 419,-0.5"/>
<text text-anchor="middle" x="439" y="-7.5" font-family="Helvetica,sans-Serif" font-size="10.00">limits</text>
</g>
<!-- Node0&#45;&gt;Node7 -->
<g id="edge16" class="edge"><title>Node0&#45;&gt;Node7</title>
<path fill="none" stroke="midnightblue" d="M368.068,-119.765C393.831,-113.068 424.096,-100.283 440,-76 448.88,-62.4416 447.483,-43.64 444.544,-29.7446"/>
<polygon fill="midnightblue" stroke="midnightblue" points="447.883,-28.6735 442.024,-19.8464 441.099,-30.4009 447.883,-28.6735"/>
</g>
<!-- Node11 -->
<g id="node12" class="node"><title>Node11</title>
<g id="a_node12"><a xlink:href="base_2std__ext_2math_8h.html" target="_top" xlink:title="base/std_ext/math.h">
<polygon fill="white" stroke="black" points="326,-56.5 326,-75.5 432,-75.5 432,-56.5 326,-56.5"/>
<text text-anchor="middle" x="379" y="-63.5" font-family="Helvetica,sans-Serif" font-size="10.00">base/std_ext/math.h</text>
</a>
</g>
</g>
<!-- Node0&#45;&gt;Node11 -->
<g id="edge12" class="edge"><title>Node0&#45;&gt;Node11</title>
<path fill="none" stroke="midnightblue" d="M336.271,-112.781C344.576,-103.882 355.299,-92.3943 363.924,-83.1524"/>
<polygon fill="midnightblue" stroke="midnightblue" points="366.587,-85.4292 370.852,-75.7305 361.47,-80.653 366.587,-85.4292"/>
</g>
<!-- Node4&#45;&gt;Node3 -->
<g id="edge6" class="edge"><title>Node4&#45;&gt;Node3</title>
<path fill="none" stroke="midnightblue" d="M228.27,-56.4444C189.386,-48.0152 128.218,-34.6069 66.2215,-20.2505"/>
<polygon fill="midnightblue" stroke="midnightblue" points="66.8001,-16.7918 56.2676,-17.9389 65.2166,-23.6104 66.8001,-16.7918"/>
</g>
<!-- Node5 -->
<g id="node6" class="node"><title>Node5</title>
<g id="a_node6"><a xlink:href="types_8h.html" target="_top" xlink:title="types.h">
<polygon fill="white" stroke="black" points="212.5,-0.5 212.5,-19.5 261.5,-19.5 261.5,-0.5 212.5,-0.5"/>
<text text-anchor="middle" x="237" y="-7.5" font-family="Helvetica,sans-Serif" font-size="10.00">types.h</text>
</a>
</g>
</g>
<!-- Node4&#45;&gt;Node5 -->
<g id="edge5" class="edge"><title>Node4&#45;&gt;Node5</title>
<path fill="none" stroke="midnightblue" d="M262.881,-56.083C258.592,-48.6127 252.342,-37.7244 247.058,-28.5199"/>
<polygon fill="midnightblue" stroke="midnightblue" points="250.038,-26.6811 242.024,-19.7511 243.967,-30.1662 250.038,-26.6811"/>
</g>
<!-- Node6 -->
<g id="node7" class="node"><title>Node6</title>
<polygon fill="white" stroke="#bfbfbf" points="279.5,-0.5 279.5,-19.5 338.5,-19.5 338.5,-0.5 279.5,-0.5"/>
<text text-anchor="middle" x="309" y="-7.5" font-family="Helvetica,sans-Serif" font-size="10.00">stdexcept</text>
</g>
<!-- Node4&#45;&gt;Node6 -->
<g id="edge7" class="edge"><title>Node4&#45;&gt;Node6</title>
<path fill="none" stroke="midnightblue" d="M274.77,-56.083C280.562,-48.4554 289.058,-37.2645 296.138,-27.9408"/>
<polygon fill="midnightblue" stroke="midnightblue" points="299.096,-29.8321 302.356,-19.7511 293.521,-25.5991 299.096,-29.8321"/>
</g>
<!-- Node4&#45;&gt;Node7 -->
<g id="edge8" class="edge"><title>Node4&#45;&gt;Node7</title>
<path fill="none" stroke="midnightblue" d="M295.095,-56.4435C326.197,-46.6219 377.05,-30.5632 409.233,-20.4001"/>
<polygon fill="midnightblue" stroke="midnightblue" points="410.495,-23.6719 418.977,-17.323 408.387,-16.9968 410.495,-23.6719"/>
</g>
<!-- Node8 -->
<g id="node9" class="node"><title>Node8</title>
<polygon fill="white" stroke="#bfbfbf" points="74.5,-0.5 74.5,-19.5 123.5,-19.5 123.5,-0.5 74.5,-0.5"/>
<text text-anchor="middle" x="99" y="-7.5" font-family="Helvetica,sans-Serif" font-size="10.00">istream</text>
</g>
<!-- Node4&#45;&gt;Node8 -->
<g id="edge9" class="edge"><title>Node4&#45;&gt;Node8</title>
<path fill="none" stroke="midnightblue" d="M241.221,-56.4435C212.079,-47.1318 165.391,-32.2137 133.516,-22.0289"/>
<polygon fill="midnightblue" stroke="midnightblue" points="134.32,-18.6113 123.729,-18.9015 132.189,-25.2792 134.32,-18.6113"/>
</g>
<!-- Node9 -->
<g id="node10" class="node"><title>Node9</title>
<polygon fill="white" stroke="#bfbfbf" points="142,-0.5 142,-19.5 194,-19.5 194,-0.5 142,-0.5"/>
<text text-anchor="middle" x="168" y="-7.5" font-family="Helvetica,sans-Serif" font-size="10.00">sstream</text>
</g>
<!-- Node4&#45;&gt;Node9 -->
<g id="edge10" class="edge"><title>Node4&#45;&gt;Node9</title>
<path fill="none" stroke="midnightblue" d="M251.933,-56.324C236.042,-47.7428 211.493,-34.486 193.042,-24.5224"/>
<polygon fill="midnightblue" stroke="midnightblue" points="194.489,-21.3264 184.027,-19.6545 191.163,-27.4857 194.489,-21.3264"/>
</g>
<!-- Node10 -->
<g id="node11" class="node"><title>Node10</title>
<polygon fill="white" stroke="#bfbfbf" points="357,-0.5 357,-19.5 401,-19.5 401,-0.5 357,-0.5"/>
<text text-anchor="middle" x="379" y="-7.5" font-family="Helvetica,sans-Serif" font-size="10.00">cmath</text>
</g>
<!-- Node4&#45;&gt;Node10 -->
<g id="edge11" class="edge"><title>Node4&#45;&gt;Node10</title>
<path fill="none" stroke="midnightblue" d="M285.834,-56.324C303.716,-47.6247 331.475,-34.1202 352.046,-24.113"/>
<polygon fill="midnightblue" stroke="midnightblue" points="353.749,-27.1765 361.21,-19.6545 350.687,-20.8819 353.749,-27.1765"/>
</g>
<!-- Node11&#45;&gt;Node2 -->
<g id="edge15" class="edge"><title>Node11&#45;&gt;Node2</title>
<path fill="none" stroke="midnightblue" d="M398.014,-56.4435C417.588,-47.6356 448.308,-33.8116 470.729,-23.722"/>
<polygon fill="midnightblue" stroke="midnightblue" points="472.392,-26.8119 480.075,-19.5164 469.519,-20.4284 472.392,-26.8119"/>
</g>
<!-- Node11&#45;&gt;Node7 -->
<g id="edge14" class="edge"><title>Node11&#45;&gt;Node7</title>
<path fill="none" stroke="midnightblue" d="M388.64,-56.324C397.51,-48.3414 410.875,-36.3128 421.608,-26.6529"/>
<polygon fill="midnightblue" stroke="midnightblue" points="424.093,-29.1251 429.185,-19.8339 419.41,-23.922 424.093,-29.1251"/>
</g>
<!-- Node11&#45;&gt;Node10 -->
<g id="edge13" class="edge"><title>Node11&#45;&gt;Node10</title>
<path fill="none" stroke="midnightblue" d="M379,-56.083C379,-49.0059 379,-38.8611 379,-29.9865"/>
<polygon fill="midnightblue" stroke="midnightblue" points="382.5,-29.751 379,-19.7511 375.5,-29.7511 382.5,-29.751"/>
</g>
</g>
</svg>
