<?xml version="1.0" encoding="UTF-8" standalone="no"?>
<!DOCTYPE svg PUBLIC "-//W3C//DTD SVG 1.1//EN"
 "http://www.w3.org/Graphics/SVG/1.1/DTD/svg11.dtd">
<!-- Generated by graphviz version 2.36.0 (20140111.2315)
 -->
<!-- Title: src/analysis/utils/Matcher.h Pages: 1 -->
<svg width="1740pt" height="118pt"
 viewBox="0.00 0.00 1740.00 118.00" xmlns="http://www.w3.org/2000/svg" xmlns:xlink="http://www.w3.org/1999/xlink">
<g id="graph0" class="graph" transform="scale(1 1) rotate(0) translate(4 114)">
<title>src/analysis/utils/Matcher.h</title>
<polygon fill="white" stroke="none" points="-4,4 -4,-114 1736,-114 1736,4 -4,4"/>
<!-- Node12 -->
<g id="node1" class="node"><title>Node12</title>
<polygon fill="#bfbfbf" stroke="black" points="818,-79 818,-109 908,-109 908,-79 818,-79"/>
<text text-anchor="start" x="826" y="-97" font-family="Helvetica,sans-Serif" font-size="10.00">src/analysis/utils</text>
<text text-anchor="middle" x="863" y="-86" font-family="Helvetica,sans-Serif" font-size="10.00">/Matcher.h</text>
</g>
<!-- Node13 -->
<g id="node2" class="node"><title>Node13</title>
<g id="a_node2"><a xlink:href="_p_i_d___t_a_p_s_veto___kinfit_8cc.html" target="_top" xlink:title="src/analysis/physics\l/calibration/PID_TAPSVeto\l_Kinfit.cc">
<polygon fill="white" stroke="black" points="0,-0.5 0,-41.5 136,-41.5 136,-0.5 0,-0.5"/>
<text text-anchor="start" x="8" y="-29.5" font-family="Helvetica,sans-Serif" font-size="10.00">src/analysis/physics</text>
<text text-anchor="start" x="8" y="-18.5" font-family="Helvetica,sans-Serif" font-size="10.00">/calibration/PID_TAPSVeto</text>
<text text-anchor="middle" x="68" y="-7.5" font-family="Helvetica,sans-Serif" font-size="10.00">_Kinfit.cc</text>
</a>
</g>
</g>
<!-- Node12&#45;&gt;Node13 -->
<g id="edge1" class="edge"><title>Node12&#45;&gt;Node13</title>
<path fill="none" stroke="midnightblue" d="M807.59,-92.5107C686.545,-90.69 389.748,-82.1299 145,-42 142.138,-41.5307 139.227,-41.0038 136.295,-40.4319"/>
<polygon fill="midnightblue" stroke="midnightblue" points="807.671,-96.0121 817.72,-92.6534 807.77,-89.0128 807.671,-96.0121"/>
</g>
<!-- Node14 -->
<g id="node3" class="node"><title>Node14</title>
<g id="a_node3"><a xlink:href="_etap_omega_g_8cc.html" target="_top" xlink:title="src/analysis/physics\l/etaprime/EtapOmegaG.cc">
<polygon fill="white" stroke="black" points="154.5,-6 154.5,-36 287.5,-36 287.5,-6 154.5,-6"/>
<text text-anchor="start" x="162.5" y="-24" font-family="Helvetica,sans-Serif" font-size="10.00">src/analysis/physics</text>
<text text-anchor="middle" x="221" y="-13" font-family="Helvetica,sans-Serif" font-size="10.00">/etaprime/EtapOmegaG.cc</text>
</a>
</g>
</g>
<!-- Node12&#45;&gt;Node14 -->
<g id="edge2" class="edge"><title>Node12&#45;&gt;Node14</title>
<path fill="none" stroke="midnightblue" d="M807.761,-91.1645C705.884,-87.087 481.83,-74.8859 296,-42 287.109,-40.4266 277.735,-38.3069 268.739,-36.0345"/>
<polygon fill="midnightblue" stroke="midnightblue" points="807.69,-94.6643 817.818,-91.5564 807.962,-87.6696 807.69,-94.6643"/>
</g>
<!-- Node15 -->
<g id="node4" class="node"><title>Node15</title>
<g id="a_node4"><a xlink:href="_etap_omega_g__simple_8cc.html" target="_top" xlink:title="src/analysis/physics\l/etaprime/EtapOmegaG\l_simple.cc">
<polygon fill="white" stroke="black" points="305.5,-0.5 305.5,-41.5 424.5,-41.5 424.5,-0.5 305.5,-0.5"/>
<text text-anchor="start" x="313.5" y="-29.5" font-family="Helvetica,sans-Serif" font-size="10.00">src/analysis/physics</text>
<text text-anchor="start" x="313.5" y="-18.5" font-family="Helvetica,sans-Serif" font-size="10.00">/etaprime/EtapOmegaG</text>
<text text-anchor="middle" x="365" y="-7.5" font-family="Helvetica,sans-Serif" font-size="10.00">_simple.cc</text>
</a>
</g>
</g>
<!-- Node12&#45;&gt;Node15 -->
<g id="edge3" class="edge"><title>Node12&#45;&gt;Node15</title>
<path fill="none" stroke="midnightblue" d="M807.584,-89.4171C725.228,-83.4204 565.954,-69.2352 433,-42 430.227,-41.432 427.404,-40.8047 424.561,-40.1332"/>
<polygon fill="midnightblue" stroke="midnightblue" points="807.497,-92.9197 817.721,-90.142 807.996,-85.9376 807.497,-92.9197"/>
</g>
<!-- Node16 -->
<g id="node5" class="node"><title>Node16</title>
<g id="a_node5"><a xlink:href="_find_proton_8cc.html" target="_top" xlink:title="src/analysis/physics\l/omega/FindProton.cc">
<polygon fill="white" stroke="black" points="442.5,-6 442.5,-36 555.5,-36 555.5,-6 442.5,-6"/>
<text text-anchor="start" x="450.5" y="-24" font-family="Helvetica,sans-Serif" font-size="10.00">src/analysis/physics</text>
<text text-anchor="middle" x="499" y="-13" font-family="Helvetica,sans-Serif" font-size="10.00">/omega/FindProton.cc</text>
</a>
</g>
</g>
<!-- Node12&#45;&gt;Node16 -->
<g id="edge4" class="edge"><title>Node12&#45;&gt;Node16</title>
<path fill="none" stroke="midnightblue" d="M807.732,-85.7618C747.394,-77.3526 648.14,-62.0315 564,-42 556.764,-40.2773 549.153,-38.1912 541.79,-36.025"/>
<polygon fill="midnightblue" stroke="midnightblue" points="807.418,-89.2516 817.803,-87.1514 808.375,-82.3173 807.418,-89.2516"/>
</g>
<!-- Node17 -->
<g id="node6" class="node"><title>Node17</title>
<g id="a_node6"><a xlink:href="_geo_acceptance_8cc.html" target="_top" xlink:title="src/analysis/physics\l/omega/GeoAcceptance.cc">
<polygon fill="white" stroke="black" points="573.5,-6 573.5,-36 708.5,-36 708.5,-6 573.5,-6"/>
<text text-anchor="start" x="581.5" y="-24" font-family="Helvetica,sans-Serif" font-size="10.00">src/analysis/physics</text>
<text text-anchor="middle" x="641" y="-13" font-family="Helvetica,sans-Serif" font-size="10.00">/omega/GeoAcceptance.cc</text>
</a>
</g>
</g>
<!-- Node12&#45;&gt;Node17 -->
<g id="edge5" class="edge"><title>Node12&#45;&gt;Node17</title>
<path fill="none" stroke="midnightblue" d="M809.259,-75.8125C771.224,-63.6483 720.839,-47.534 685.148,-36.1195"/>
<polygon fill="midnightblue" stroke="midnightblue" points="808.549,-79.2601 819.14,-78.9727 810.681,-72.5928 808.549,-79.2601"/>
</g>
<!-- Node18 -->
<g id="node7" class="node"><title>Node18</title>
<g id="a_node7"><a xlink:href="_omega___ep_em_8cc.html" target="_top" xlink:title="src/analysis/physics\l/omega/Omega_EpEm.cc">
<polygon fill="white" stroke="black" points="726.5,-6 726.5,-36 855.5,-36 855.5,-6 726.5,-6"/>
<text text-anchor="start" x="734.5" y="-24" font-family="Helvetica,sans-Serif" font-size="10.00">src/analysis/physics</text>
<text text-anchor="middle" x="791" y="-13" font-family="Helvetica,sans-Serif" font-size="10.00">/omega/Omega_EpEm.cc</text>
</a>
</g>
</g>
<!-- Node12&#45;&gt;Node18 -->
<g id="edge6" class="edge"><title>Node12&#45;&gt;Node18</title>
<path fill="none" stroke="midnightblue" d="M841.583,-71.8806C830.012,-60.4699 816.021,-46.6738 805.69,-36.4856"/>
<polygon fill="midnightblue" stroke="midnightblue" points="839.197,-74.4433 848.775,-78.9727 844.112,-69.4591 839.197,-74.4433"/>
</g>
<!-- Node19 -->
<g id="node8" class="node"><title>Node19</title>
<g id="a_node8"><a xlink:href="_omega___eta_g_8cc.html" target="_top" xlink:title="src/analysis/physics\l/omega/Omega_EtaG.cc">
<polygon fill="white" stroke="black" points="873.5,-6 873.5,-36 998.5,-36 998.5,-6 873.5,-6"/>
<text text-anchor="start" x="881.5" y="-24" font-family="Helvetica,sans-Serif" font-size="10.00">src/analysis/physics</text>
<text text-anchor="middle" x="936" y="-13" font-family="Helvetica,sans-Serif" font-size="10.00">/omega/Omega_EtaG.cc</text>
</a>
</g>
</g>
<!-- Node12&#45;&gt;Node19 -->
<g id="edge7" class="edge"><title>Node12&#45;&gt;Node19</title>
<path fill="none" stroke="midnightblue" d="M884.714,-71.8806C896.446,-60.4699 910.631,-46.6738 921.106,-36.4856"/>
<polygon fill="midnightblue" stroke="midnightblue" points="882.151,-69.4915 877.422,-78.9727 887.031,-74.5095 882.151,-69.4915"/>
</g>
<!-- Node20 -->
<g id="node9" class="node"><title>Node20</title>
<g id="a_node9"><a xlink:href="pi0eta_8cc.html" target="_top" xlink:title="src/analysis/physics\l/omega/pi0eta.cc">
<polygon fill="white" stroke="black" points="1017,-6 1017,-36 1123,-36 1123,-6 1017,-6"/>
<text text-anchor="start" x="1025" y="-24" font-family="Helvetica,sans-Serif" font-size="10.00">src/analysis/physics</text>
<text text-anchor="middle" x="1070" y="-13" font-family="Helvetica,sans-Serif" font-size="10.00">/omega/pi0eta.cc</text>
</a>
</g>
</g>
<!-- Node12&#45;&gt;Node20 -->
<g id="edge8" class="edge"><title>Node12&#45;&gt;Node20</title>
<path fill="none" stroke="midnightblue" d="M913.564,-75.657C948.974,-63.5112 995.697,-47.4854 1028.83,-36.1195"/>
<polygon fill="midnightblue" stroke="midnightblue" points="912.22,-72.4175 903.897,-78.9727 914.491,-79.0389 912.22,-72.4175"/>
</g>
<!-- Node21 -->
<g id="node10" class="node"><title>Node21</title>
<g id="a_node10"><a xlink:href="pi0eta__lost__g_8cc.html" target="_top" xlink:title="src/analysis/physics\l/omega/pi0eta_lost_g.cc">
<polygon fill="white" stroke="black" points="1141.5,-6 1141.5,-36 1264.5,-36 1264.5,-6 1141.5,-6"/>
<text text-anchor="start" x="1149.5" y="-24" font-family="Helvetica,sans-Serif" font-size="10.00">src/analysis/physics</text>
<text text-anchor="middle" x="1203" y="-13" font-family="Helvetica,sans-Serif" font-size="10.00">/omega/pi0eta_lost_g.cc</text>
</a>
</g>
</g>
<!-- Node12&#45;&gt;Node21 -->
<g id="edge9" class="edge"><title>Node12&#45;&gt;Node21</title>
<path fill="none" stroke="midnightblue" d="M918.409,-83.8376C972.801,-74.5189 1057.99,-59.0558 1131,-42 1138.71,-40.1997 1146.83,-38.1218 1154.73,-36.0008"/>
<polygon fill="midnightblue" stroke="midnightblue" points="917.558,-80.432 908.288,-85.5616 918.734,-87.3327 917.558,-80.432"/>
</g>
<!-- Node22 -->
<g id="node11" class="node"><title>Node22</title>
<g id="a_node11"><a xlink:href="_just_pi0_8cc.html" target="_top" xlink:title="src/analysis/physics\l/pi0/JustPi0.cc">
<polygon fill="white" stroke="black" points="1283,-6 1283,-36 1389,-36 1389,-6 1283,-6"/>
<text text-anchor="start" x="1291" y="-24" font-family="Helvetica,sans-Serif" font-size="10.00">src/analysis/physics</text>
<text text-anchor="middle" x="1336" y="-13" font-family="Helvetica,sans-Serif" font-size="10.00">/pi0/JustPi0.cc</text>
</a>
</g>
</g>
<!-- Node12&#45;&gt;Node22 -->
<g id="edge10" class="edge"><title>Node12&#45;&gt;Node22</title>
<path fill="none" stroke="midnightblue" d="M918.288,-89.3607C997.56,-83.4132 1147.77,-69.4229 1273,-42 1280.4,-40.3799 1288.17,-38.2658 1295.63,-36.0201"/>
<polygon fill="midnightblue" stroke="midnightblue" points="917.764,-85.8896 908.048,-90.1136 918.278,-92.8707 917.764,-85.8896"/>
</g>
<!-- Node23 -->
<g id="node12" class="node"><title>Node23</title>
<g id="a_node12"><a xlink:href="_etap_dalitz_m_c_8cc.html" target="_top" xlink:title="src/analysis/physics\l/scratch/wagner/EtapDalitzMC.cc">
<polygon fill="white" stroke="black" points="1407,-6 1407,-36 1571,-36 1571,-6 1407,-6"/>
<text text-anchor="start" x="1415" y="-24" font-family="Helvetica,sans-Serif" font-size="10.00">src/analysis/physics</text>
<text text-anchor="middle" x="1489" y="-13" font-family="Helvetica,sans-Serif" font-size="10.00">/scratch/wagner/EtapDalitzMC.cc</text>
</a>
</g>
</g>
<!-- Node12&#45;&gt;Node23 -->
<g id="edge11" class="edge"><title>Node12&#45;&gt;Node23</title>
<path fill="none" stroke="midnightblue" d="M918.424,-89.8843C1015.73,-83.9299 1223.43,-69.057 1397,-42 1407.5,-40.3636 1418.6,-38.2688 1429.31,-36.0539"/>
<polygon fill="midnightblue" stroke="midnightblue" points="918.005,-86.4031 908.234,-90.4998 918.427,-93.3904 918.005,-86.4031"/>
</g>
<!-- Node24 -->
<g id="node13" class="node"><title>Node24</title>
<g id="a_node13"><a xlink:href="_test_matcher_8cc.html" target="_top" xlink:title="test/analysis/TestMatcher.cc">
<polygon fill="white" stroke="black" points="1589.5,-11.5 1589.5,-30.5 1732.5,-30.5 1732.5,-11.5 1589.5,-11.5"/>
<text text-anchor="middle" x="1661" y="-18.5" font-family="Helvetica,sans-Serif" font-size="10.00">test/analysis/TestMatcher.cc</text>
</a>
</g>
</g>
<!-- Node12&#45;&gt;Node24 -->
<g id="edge12" class="edge"><title>Node12&#45;&gt;Node24</title>
<path fill="none" stroke="midnightblue" d="M918.297,-92.2808C1039.1,-90.0081 1335.36,-80.6127 1580,-42 1597.31,-39.2676 1616.35,-34.65 1631.62,-30.5399"/>
<polygon fill="midnightblue" stroke="midnightblue" points="918.123,-88.7833 908.187,-92.462 918.248,-95.7822 918.123,-88.7833"/>
</g>
</g>
</svg>
