<?xml version="1.0" encoding="UTF-8" standalone="no"?>
<!DOCTYPE svg PUBLIC "-//W3C//DTD SVG 1.1//EN"
 "http://www.w3.org/Graphics/SVG/1.1/DTD/svg11.dtd">
<!-- Generated by graphviz version 2.36.0 (20140111.2315)
 -->
<!-- Title: src/analysis/utils/uncertainties/MeasuredProton.h Pages: 1 -->
<svg width="472pt" height="108pt"
 viewBox="0.00 0.00 472.00 108.00" xmlns="http://www.w3.org/2000/svg" xmlns:xlink="http://www.w3.org/1999/xlink">
<g id="graph0" class="graph" transform="scale(1 1) rotate(0) translate(4 104)">
<title>src/analysis/utils/uncertainties/MeasuredProton.h</title>
<polygon fill="white" stroke="none" points="-4,4 -4,-104 468,-104 468,4 -4,4"/>
<!-- Node42 -->
<g id="node1" class="node"><title>Node42</title>
<polygon fill="#bfbfbf" stroke="black" points="142,-69 142,-99 300,-99 300,-69 142,-69"/>
<text text-anchor="start" x="150" y="-87" font-family="Helvetica,sans-Serif" font-size="10.00">src/analysis/utils</text>
<text text-anchor="middle" x="221" y="-76" font-family="Helvetica,sans-Serif" font-size="10.00">/uncertainties/MeasuredProton.h</text>
</g>
<!-- Node43 -->
<g id="node2" class="node"><title>Node43</title>
<g id="a_node2"><a xlink:href="etaprime__dalitz_8cc.html" target="_top" xlink:title="src/analysis/physics\l/etaprime/etaprime_dalitz.cc">
<polygon fill="white" stroke="black" points="0,-1 0,-31 140,-31 140,-1 0,-1"/>
<text text-anchor="start" x="8" y="-19" font-family="Helvetica,sans-Serif" font-size="10.00">src/analysis/physics</text>
<text text-anchor="middle" x="70" y="-8" font-family="Helvetica,sans-Serif" font-size="10.00">/etaprime/etaprime_dalitz.cc</text>
</a>
</g>
</g>
<!-- Node42&#45;&gt;Node43 -->
<g id="edge1" class="edge"><title>Node42&#45;&gt;Node43</title>
<path fill="none" stroke="midnightblue" d="M179.243,-64.7485C154.864,-54.093 124.577,-40.8547 102.08,-31.0218"/>
<polygon fill="midnightblue" stroke="midnightblue" points="178.042,-68.0433 188.607,-68.8413 180.846,-61.6292 178.042,-68.0433"/>
</g>
<!-- Node44 -->
<g id="node3" class="node"><title>Node44</title>
<g id="a_node3"><a xlink:href="_omega___eta_g_8cc.html" target="_top" xlink:title="src/analysis/physics\l/omega/Omega_EtaG.cc">
<polygon fill="white" stroke="black" points="158.5,-1 158.5,-31 283.5,-31 283.5,-1 158.5,-1"/>
<text text-anchor="start" x="166.5" y="-19" font-family="Helvetica,sans-Serif" font-size="10.00">src/analysis/physics</text>
<text text-anchor="middle" x="221" y="-8" font-family="Helvetica,sans-Serif" font-size="10.00">/omega/Omega_EtaG.cc</text>
</a>
</g>
</g>
<!-- Node42&#45;&gt;Node44 -->
<g id="edge2" class="edge"><title>Node42&#45;&gt;Node44</title>
<path fill="none" stroke="midnightblue" d="M221,-58.5322C221,-49.3606 221,-39.2449 221,-31.2931"/>
<polygon fill="midnightblue" stroke="midnightblue" points="217.5,-58.6789 221,-68.679 224.5,-58.679 217.5,-58.6789"/>
</g>
<!-- Node45 -->
<g id="node4" class="node"><title>Node45</title>
<g id="a_node4"><a xlink:href="_measured_proton_8cc.html" target="_top" xlink:title="src/analysis/utils\l/uncertainties/MeasuredProton.cc">
<polygon fill="white" stroke="black" points="301.5,-1 301.5,-31 464.5,-31 464.5,-1 301.5,-1"/>
<text text-anchor="start" x="309.5" y="-19" font-family="Helvetica,sans-Serif" font-size="10.00">src/analysis/utils</text>
<text text-anchor="middle" x="383" y="-8" font-family="Helvetica,sans-Serif" font-size="10.00">/uncertainties/MeasuredProton.cc</text>
</a>
</g>
</g>
<!-- Node42&#45;&gt;Node45 -->
<g id="edge3" class="edge"><title>Node42&#45;&gt;Node45</title>
<path fill="none" stroke="midnightblue" d="M265.106,-65.0308C291.378,-54.3276 324.234,-40.9417 348.583,-31.0218"/>
<polygon fill="midnightblue" stroke="midnightblue" points="263.693,-61.827 255.753,-68.8413 266.335,-68.3096 263.693,-61.827"/>
</g>
</g>
</svg>
