<?xml version="1.0" encoding="UTF-8" standalone="no"?>
<!DOCTYPE svg PUBLIC "-//W3C//DTD SVG 1.1//EN"
 "http://www.w3.org/Graphics/SVG/1.1/DTD/svg11.dtd">
<!-- Generated by graphviz version 2.36.0 (20140111.2315)
 -->
<!-- Title: src/calibration/modules/NewTagger_Time.h Pages: 1 -->
<svg width="999pt" height="108pt"
 viewBox="0.00 0.00 999.00 108.00" xmlns="http://www.w3.org/2000/svg" xmlns:xlink="http://www.w3.org/1999/xlink">
<g id="graph0" class="graph" transform="scale(1 1) rotate(0) translate(4 104)">
<title>src/calibration/modules/NewTagger_Time.h</title>
<polygon fill="white" stroke="none" points="-4,4 -4,-104 995,-104 995,4 -4,4"/>
<!-- Node63 -->
<g id="node1" class="node"><title>Node63</title>
<polygon fill="#bfbfbf" stroke="black" points="441.5,-69 441.5,-99 558.5,-99 558.5,-69 441.5,-69"/>
<text text-anchor="start" x="449.5" y="-87" font-family="Helvetica,sans-Serif" font-size="10.00">src/calibration/modules</text>
<text text-anchor="middle" x="500" y="-76" font-family="Helvetica,sans-Serif" font-size="10.00">/NewTagger_Time.h</text>
</g>
<!-- Node64 -->
<g id="node2" class="node"><title>Node64</title>
<g id="a_node2"><a xlink:href="_new_tagger___time_8cc.html" target="_top" xlink:title="src/calibration/modules\l/NewTagger_Time.cc">
<polygon fill="white" stroke="black" points="-0.5,-1 -0.5,-31 116.5,-31 116.5,-1 -0.5,-1"/>
<text text-anchor="start" x="7.5" y="-19" font-family="Helvetica,sans-Serif" font-size="10.00">src/calibration/modules</text>
<text text-anchor="middle" x="58" y="-8" font-family="Helvetica,sans-Serif" font-size="10.00">/NewTagger_Time.cc</text>
</a>
</g>
</g>
<!-- Node63&#45;&gt;Node64 -->
<g id="edge1" class="edge"><title>Node63&#45;&gt;Node64</title>
<path fill="none" stroke="midnightblue" d="M430.985,-75.3981C355.542,-66.6733 231.234,-51.08 125,-32 122.302,-31.5154 119.547,-30.9967 116.769,-30.4541"/>
<polygon fill="midnightblue" stroke="midnightblue" points="430.965,-78.9187 441.299,-76.5832 431.764,-71.9644 430.965,-78.9187"/>
</g>
<!-- Node65 -->
<g id="node3" class="node"><title>Node65</title>
<g id="a_node3"><a xlink:href="_setup__2017__12_8cc.html" target="_top" xlink:title="src/expconfig/setups\l/Setup_2017_12.cc">
<polygon fill="white" stroke="black" points="134.5,-1 134.5,-31 241.5,-31 241.5,-1 134.5,-1"/>
<text text-anchor="start" x="142.5" y="-19" font-family="Helvetica,sans-Serif" font-size="10.00">src/expconfig/setups</text>
<text text-anchor="middle" x="188" y="-8" font-family="Helvetica,sans-Serif" font-size="10.00">/Setup_2017_12.cc</text>
</a>
</g>
</g>
<!-- Node63&#45;&gt;Node65 -->
<g id="edge2" class="edge"><title>Node63&#45;&gt;Node65</title>
<path fill="none" stroke="midnightblue" d="M431.17,-69.6539C380.875,-59.7328 311.078,-45.6138 250,-32 247.298,-31.3977 244.532,-30.77 241.741,-30.1275"/>
<polygon fill="midnightblue" stroke="midnightblue" points="430.79,-73.1462 441.278,-71.6431 432.142,-66.278 430.79,-73.1462"/>
</g>
<!-- Node66 -->
<g id="node4" class="node"><title>Node66</title>
<g id="a_node4"><a xlink:href="_setup__2018__03_8cc.html" target="_top" xlink:title="src/expconfig/setups\l/Setup_2018_03.cc">
<polygon fill="white" stroke="black" points="259.5,-1 259.5,-31 366.5,-31 366.5,-1 259.5,-1"/>
<text text-anchor="start" x="267.5" y="-19" font-family="Helvetica,sans-Serif" font-size="10.00">src/expconfig/setups</text>
<text text-anchor="middle" x="313" y="-8" font-family="Helvetica,sans-Serif" font-size="10.00">/Setup_2018_03.cc</text>
</a>
</g>
</g>
<!-- Node63&#45;&gt;Node66 -->
<g id="edge3" class="edge"><title>Node63&#45;&gt;Node66</title>
<path fill="none" stroke="midnightblue" d="M450.28,-65.4519C419.761,-54.6805 381.205,-41.0722 352.728,-31.0218"/>
<polygon fill="midnightblue" stroke="midnightblue" points="449.289,-68.8135 459.884,-68.8413 451.619,-62.2126 449.289,-68.8135"/>
</g>
<!-- Node67 -->
<g id="node5" class="node"><title>Node67</title>
<g id="a_node5"><a xlink:href="_setup__2018__05_8cc.html" target="_top" xlink:title="src/expconfig/setups\l/Setup_2018_05.cc">
<polygon fill="white" stroke="black" points="384.5,-1 384.5,-31 491.5,-31 491.5,-1 384.5,-1"/>
<text text-anchor="start" x="392.5" y="-19" font-family="Helvetica,sans-Serif" font-size="10.00">src/expconfig/setups</text>
<text text-anchor="middle" x="438" y="-8" font-family="Helvetica,sans-Serif" font-size="10.00">/Setup_2018_05.cc</text>
</a>
</g>
</g>
<!-- Node63&#45;&gt;Node67 -->
<g id="edge4" class="edge"><title>Node63&#45;&gt;Node67</title>
<path fill="none" stroke="midnightblue" d="M479.515,-61.1939C470.278,-51.3605 459.627,-40.0228 451.427,-31.2931"/>
<polygon fill="midnightblue" stroke="midnightblue" points="477.149,-63.7869 486.547,-68.679 482.251,-58.9941 477.149,-63.7869"/>
</g>
<!-- Node68 -->
<g id="node6" class="node"><title>Node68</title>
<g id="a_node6"><a xlink:href="_setup__2018__09_8cc.html" target="_top" xlink:title="src/expconfig/setups\l/Setup_2018_09.cc">
<polygon fill="white" stroke="black" points="509.5,-1 509.5,-31 616.5,-31 616.5,-1 509.5,-1"/>
<text text-anchor="start" x="517.5" y="-19" font-family="Helvetica,sans-Serif" font-size="10.00">src/expconfig/setups</text>
<text text-anchor="middle" x="563" y="-8" font-family="Helvetica,sans-Serif" font-size="10.00">/Setup_2018_09.cc</text>
</a>
</g>
</g>
<!-- Node63&#45;&gt;Node68 -->
<g id="edge5" class="edge"><title>Node63&#45;&gt;Node68</title>
<path fill="none" stroke="midnightblue" d="M520.815,-61.1939C530.201,-51.3605 541.024,-40.0228 549.357,-31.2931"/>
<polygon fill="midnightblue" stroke="midnightblue" points="518.043,-59.0287 513.67,-68.679 523.107,-63.8621 518.043,-59.0287"/>
</g>
<!-- Node69 -->
<g id="node7" class="node"><title>Node69</title>
<g id="a_node7"><a xlink:href="_setup__2018__11_8cc.html" target="_top" xlink:title="src/expconfig/setups\l/Setup_2018_11.cc">
<polygon fill="white" stroke="black" points="634.5,-1 634.5,-31 741.5,-31 741.5,-1 634.5,-1"/>
<text text-anchor="start" x="642.5" y="-19" font-family="Helvetica,sans-Serif" font-size="10.00">src/expconfig/setups</text>
<text text-anchor="middle" x="688" y="-8" font-family="Helvetica,sans-Serif" font-size="10.00">/Setup_2018_11.cc</text>
</a>
</g>
</g>
<!-- Node63&#45;&gt;Node69 -->
<g id="edge6" class="edge"><title>Node63&#45;&gt;Node69</title>
<path fill="none" stroke="midnightblue" d="M549.985,-65.4519C580.668,-54.6805 619.431,-41.0722 648.059,-31.0218"/>
<polygon fill="midnightblue" stroke="midnightblue" points="548.607,-62.2264 540.331,-68.8413 550.926,-68.8312 548.607,-62.2264"/>
</g>
<!-- Node70 -->
<g id="node8" class="node"><title>Node70</title>
<g id="a_node8"><a xlink:href="_setup__2019__01_8cc.html" target="_top" xlink:title="src/expconfig/setups\l/Setup_2019_01.cc">
<polygon fill="white" stroke="black" points="759.5,-1 759.5,-31 866.5,-31 866.5,-1 759.5,-1"/>
<text text-anchor="start" x="767.5" y="-19" font-family="Helvetica,sans-Serif" font-size="10.00">src/expconfig/setups</text>
<text text-anchor="middle" x="813" y="-8" font-family="Helvetica,sans-Serif" font-size="10.00">/Setup_2019_01.cc</text>
</a>
</g>
</g>
<!-- Node63&#45;&gt;Node70 -->
<g id="edge7" class="edge"><title>Node63&#45;&gt;Node70</title>
<path fill="none" stroke="midnightblue" d="M568.816,-69.5871C619.103,-59.6334 688.897,-45.5029 750,-32 753.074,-31.3207 756.229,-30.6106 759.411,-29.8844"/>
<polygon fill="midnightblue" stroke="midnightblue" points="567.841,-66.2118 558.709,-71.5832 569.198,-73.0791 567.841,-66.2118"/>
</g>
<!-- Node71 -->
<g id="node9" class="node"><title>Node71</title>
<g id="a_node9"><a xlink:href="_setup__2019__06_8cc.html" target="_top" xlink:title="src/expconfig/setups\l/Setup_2019_06.cc">
<polygon fill="white" stroke="black" points="884.5,-1 884.5,-31 991.5,-31 991.5,-1 884.5,-1"/>
<text text-anchor="start" x="892.5" y="-19" font-family="Helvetica,sans-Serif" font-size="10.00">src/expconfig/setups</text>
<text text-anchor="middle" x="938" y="-8" font-family="Helvetica,sans-Serif" font-size="10.00">/Setup_2019_06.cc</text>
</a>
</g>
</g>
<!-- Node63&#45;&gt;Node71 -->
<g id="edge8" class="edge"><title>Node63&#45;&gt;Node71</title>
<path fill="none" stroke="midnightblue" d="M569.066,-75.674C644.552,-67.1866 768.898,-51.7964 875,-32 878.095,-31.4226 881.266,-30.7921 884.46,-30.1269"/>
<polygon fill="midnightblue" stroke="midnightblue" points="568.296,-72.2381 558.746,-76.8255 569.072,-79.1949 568.296,-72.2381"/>
</g>
</g>
</svg>
