<?xml version="1.0" encoding="UTF-8" standalone="no"?>
<!DOCTYPE svg PUBLIC "-//W3C//DTD SVG 1.1//EN"
 "http://www.w3.org/Graphics/SVG/1.1/DTD/svg11.dtd">
<!-- Generated by graphviz version 2.36.0 (20140111.2315)
 -->
<!-- Title: src/analysis/physics/omega/Omega_EpEm.h Pages: 1 -->
<svg width="305pt" height="108pt"
 viewBox="0.00 0.00 305.00 108.00" xmlns="http://www.w3.org/2000/svg" xmlns:xlink="http://www.w3.org/1999/xlink">
<g id="graph0" class="graph" transform="scale(1 1) rotate(0) translate(4 104)">
<title>src/analysis/physics/omega/Omega_EpEm.h</title>
<polygon fill="white" stroke="none" points="-4,4 -4,-104 301,-104 301,4 -4,4"/>
<!-- Node92 -->
<g id="node1" class="node"><title>Node92</title>
<polygon fill="#bfbfbf" stroke="black" points="81,-69 81,-99 205,-99 205,-69 81,-69"/>
<text text-anchor="start" x="89" y="-87" font-family="Helvetica,sans-Serif" font-size="10.00">src/analysis/physics</text>
<text text-anchor="middle" x="143" y="-76" font-family="Helvetica,sans-Serif" font-size="10.00">/omega/Omega_EpEm.h</text>
</g>
<!-- Node93 -->
<g id="node2" class="node"><title>Node93</title>
<g id="a_node2"><a xlink:href="_omega___ep_em_8cc.html" target="_top" xlink:title="src/analysis/physics\l/omega/Omega_EpEm.cc">
<polygon fill="white" stroke="black" points="-0.5,-1 -0.5,-31 128.5,-31 128.5,-1 -0.5,-1"/>
<text text-anchor="start" x="7.5" y="-19" font-family="Helvetica,sans-Serif" font-size="10.00">src/analysis/physics</text>
<text text-anchor="middle" x="64" y="-8" font-family="Helvetica,sans-Serif" font-size="10.00">/omega/Omega_EpEm.cc</text>
</a>
</g>
</g>
<!-- Node92&#45;&gt;Node93 -->
<g id="edge1" class="edge"><title>Node92&#45;&gt;Node93</title>
<path fill="none" stroke="midnightblue" d="M117.886,-62.0184C105.792,-51.9145 91.6136,-40.0696 80.837,-31.0663"/>
<polygon fill="midnightblue" stroke="midnightblue" points="115.94,-64.9535 125.858,-68.679 120.428,-59.5816 115.94,-64.9535"/>
</g>
<!-- Node94 -->
<g id="node3" class="node"><title>Node94</title>
<g id="a_node3"><a xlink:href="_omega___ep_em__plot_8cc.html" target="_top" xlink:title="src/analysis/physics\l/omega/Omega_EpEm_plot.cc">
<polygon fill="white" stroke="black" points="147,-1 147,-31 297,-31 297,-1 147,-1"/>
<text text-anchor="start" x="155" y="-19" font-family="Helvetica,sans-Serif" font-size="10.00">src/analysis/physics</text>
<text text-anchor="middle" x="222" y="-8" font-family="Helvetica,sans-Serif" font-size="10.00">/omega/Omega_EpEm_plot.cc</text>
</a>
</g>
</g>
<!-- Node92&#45;&gt;Node94 -->
<g id="edge2" class="edge"><title>Node92&#45;&gt;Node94</title>
<path fill="none" stroke="midnightblue" d="M168.114,-62.0184C180.208,-51.9145 194.386,-40.0696 205.163,-31.0663"/>
<polygon fill="midnightblue" stroke="midnightblue" points="165.572,-59.5816 160.142,-68.679 170.06,-64.9535 165.572,-59.5816"/>
</g>
</g>
</svg>
