<?xml version="1.0" encoding="UTF-8" standalone="no"?>
<!DOCTYPE svg PUBLIC "-//W3C//DTD SVG 1.1//EN"
 "http://www.w3.org/Graphics/SVG/1.1/DTD/svg11.dtd">
<!-- Generated by graphviz version 2.36.0 (20140111.2315)
 -->
<!-- Title: src/analysis/physics/omega/OmegaMCAngles.h Pages: 1 -->
<svg width="3160pt" height="612pt"
 viewBox="0.00 0.00 3160.06 612.00" xmlns="http://www.w3.org/2000/svg" xmlns:xlink="http://www.w3.org/1999/xlink">
<g id="graph0" class="graph" transform="scale(1 1) rotate(0) translate(4 608)">
<title>src/analysis/physics/omega/OmegaMCAngles.h</title>
<polygon fill="white" stroke="none" points="-4,4 -4,-608 3156.06,-608 3156.06,4 -4,4"/>
<!-- Node0 -->
<g id="node1" class="node"><title>Node0</title>
<polygon fill="#bfbfbf" stroke="black" points="2449.75,-573 2449.75,-603 2586.75,-603 2586.75,-573 2449.75,-573"/>
<text text-anchor="start" x="2457.75" y="-591" font-family="Helvetica,sans-Serif" font-size="10.00">src/analysis/physics</text>
<text text-anchor="middle" x="2518.25" y="-580" font-family="Helvetica,sans-Serif" font-size="10.00">/omega/OmegaMCAngles.h</text>
</g>
<!-- Node1 -->
<g id="node2" class="node"><title>Node1</title>
<g id="a_node2"><a xlink:href="_physics_8h.html" target="_top" xlink:title="analysis/physics/Physics.h">
<polygon fill="white" stroke="black" points="2057.25,-516.5 2057.25,-535.5 2193.25,-535.5 2193.25,-516.5 2057.25,-516.5"/>
<text text-anchor="middle" x="2125.25" y="-523.5" font-family="Helvetica,sans-Serif" font-size="10.00">analysis/physics/Physics.h</text>
</a>
</g>
</g>
<!-- Node0&#45;&gt;Node1 -->
<g id="edge1" class="edge"><title>Node0&#45;&gt;Node1</title>
<path fill="none" stroke="midnightblue" d="M2449.34,-576.48C2376.64,-565.381 2262.88,-548.013 2191.28,-537.082"/>
<polygon fill="midnightblue" stroke="midnightblue" points="2191.45,-533.567 2181.03,-535.517 2190.39,-540.486 2191.45,-533.567"/>
</g>
<!-- Node67 -->
<g id="node68" class="node"><title>Node67</title>
<g id="a_node68"><a xlink:href="_particle_type_tree_8h.html" target="_top" xlink:title="base/ParticleTypeTree.h">
<polygon fill="white" stroke="black" points="2523.75,-292.5 2523.75,-311.5 2646.75,-311.5 2646.75,-292.5 2523.75,-292.5"/>
<text text-anchor="middle" x="2585.25" y="-299.5" font-family="Helvetica,sans-Serif" font-size="10.00">base/ParticleTypeTree.h</text>
</a>
</g>
</g>
<!-- Node0&#45;&gt;Node67 -->
<g id="edge166" class="edge"><title>Node0&#45;&gt;Node67</title>
<path fill="none" stroke="midnightblue" d="M2586.84,-579.905C2694.81,-566.811 2892.25,-534.223 2892.25,-471 2892.25,-471 2892.25,-471 2892.25,-413 2892.25,-362.454 2742.9,-328.905 2652.53,-313.232"/>
<polygon fill="midnightblue" stroke="midnightblue" points="2653.08,-309.774 2642.63,-311.545 2651.9,-316.675 2653.08,-309.774"/>
</g>
<!-- Node2 -->
<g id="node3" class="node"><title>Node2</title>
<g id="a_node3"><a xlink:href="manager__t_8h.html" target="_top" xlink:title="analysis/physics/manager_t.h">
<polygon fill="white" stroke="black" points="2210.25,-460.5 2210.25,-479.5 2356.25,-479.5 2356.25,-460.5 2210.25,-460.5"/>
<text text-anchor="middle" x="2283.25" y="-467.5" font-family="Helvetica,sans-Serif" font-size="10.00">analysis/physics/manager_t.h</text>
</a>
</g>
</g>
<!-- Node1&#45;&gt;Node2 -->
<g id="edge2" class="edge"><title>Node1&#45;&gt;Node2</title>
<path fill="none" stroke="midnightblue" d="M2150.28,-516.444C2176.86,-507.359 2219.06,-492.939 2248.77,-482.783"/>
<polygon fill="midnightblue" stroke="midnightblue" points="2250,-486.062 2258.33,-479.516 2247.73,-479.439 2250,-486.062"/>
</g>
<!-- Node3 -->
<g id="node4" class="node"><title>Node3</title>
<g id="a_node4"><a xlink:href="_histogram_factory_8h.html" target="_top" xlink:title="analysis/plot/HistogramFactory.h">
<polygon fill="white" stroke="black" points="2664.75,-292.5 2664.75,-311.5 2825.75,-311.5 2825.75,-292.5 2664.75,-292.5"/>
<text text-anchor="middle" x="2745.25" y="-299.5" font-family="Helvetica,sans-Serif" font-size="10.00">analysis/plot/HistogramFactory.h</text>
</a>
</g>
</g>
<!-- Node1&#45;&gt;Node3 -->
<g id="edge3" class="edge"><title>Node1&#45;&gt;Node3</title>
<path fill="none" stroke="midnightblue" d="M2193.53,-523.814C2261.64,-520.771 2368.35,-510.909 2455.25,-480 2567.29,-440.145 2682.72,-353.286 2726.71,-318.177"/>
<polygon fill="midnightblue" stroke="midnightblue" points="2729.17,-320.69 2734.76,-311.69 2724.78,-315.239 2729.17,-320.69"/>
</g>
<!-- Node15 -->
<g id="node16" class="node"><title>Node15</title>
<polygon fill="white" stroke="#bfbfbf" points="2344.75,-112.5 2344.75,-131.5 2385.75,-131.5 2385.75,-112.5 2344.75,-112.5"/>
<text text-anchor="middle" x="2365.25" y="-119.5" font-family="Helvetica,sans-Serif" font-size="10.00">string</text>
</g>
<!-- Node1&#45;&gt;Node15 -->
<g id="edge162" class="edge"><title>Node1&#45;&gt;Node15</title>
<path fill="none" stroke="midnightblue" d="M2193.51,-520.093C2255.36,-514.277 2340.5,-502.409 2365.25,-480 2387.56,-459.797 2384.25,-445.098 2384.25,-415 2384.25,-415 2384.25,-415 2384.25,-239 2384.25,-204.259 2375.84,-164.426 2370.21,-141.636"/>
<polygon fill="midnightblue" stroke="midnightblue" points="2373.53,-140.468 2367.65,-131.652 2366.75,-142.208 2373.53,-140.468"/>
</g>
<!-- Node16 -->
<g id="node17" class="node"><title>Node16</title>
<g id="a_node17"><a xlink:href="_root_draw_8h.html" target="_top" xlink:title="analysis/plot/RootDraw.h">
<polygon fill="white" stroke="black" points="1976.75,-292.5 1976.75,-311.5 2103.75,-311.5 2103.75,-292.5 1976.75,-292.5"/>
<text text-anchor="middle" x="2040.25" y="-299.5" font-family="Helvetica,sans-Serif" font-size="10.00">analysis/plot/RootDraw.h</text>
</a>
</g>
</g>
<!-- Node1&#45;&gt;Node16 -->
<g id="edge20" class="edge"><title>Node1&#45;&gt;Node16</title>
<path fill="none" stroke="midnightblue" d="M2127.74,-516.44C2135.08,-489.362 2154.1,-404.05 2120.25,-348 2111.17,-332.976 2095.1,-322.55 2079.73,-315.547"/>
<polygon fill="midnightblue" stroke="midnightblue" points="2080.89,-312.241 2070.32,-311.618 2078.2,-318.7 2080.89,-312.241"/>
</g>
<!-- Node17 -->
<g id="node18" class="node"><title>Node17</title>
<polygon fill="white" stroke="#bfbfbf" points="1659.75,-168.5 1659.75,-187.5 1688.75,-187.5 1688.75,-168.5 1659.75,-168.5"/>
<text text-anchor="middle" x="1674.25" y="-175.5" font-family="Helvetica,sans-Serif" font-size="10.00">list</text>
</g>
<!-- Node1&#45;&gt;Node17 -->
<g id="edge161" class="edge"><title>Node1&#45;&gt;Node17</title>
<path fill="none" stroke="midnightblue" d="M2132.03,-516.289C2138.33,-507.632 2147.31,-493.702 2151.25,-480 2183.03,-369.386 2199.28,-299.301 2112.25,-224 2044.66,-165.527 1804.5,-205.621 1698.87,-187.208"/>
<polygon fill="midnightblue" stroke="midnightblue" points="1699.27,-183.718 1688.78,-185.168 1697.88,-190.579 1699.27,-183.718"/>
</g>
<!-- Node18 -->
<g id="node19" class="node"><title>Node18</title>
<polygon fill="white" stroke="#bfbfbf" points="1397.25,-168.5 1397.25,-187.5 1449.25,-187.5 1449.25,-168.5 1397.25,-168.5"/>
<text text-anchor="middle" x="1423.25" y="-175.5" font-family="Helvetica,sans-Serif" font-size="10.00">memory</text>
</g>
<!-- Node1&#45;&gt;Node18 -->
<g id="edge164" class="edge"><title>Node1&#45;&gt;Node18</title>
<path fill="none" stroke="midnightblue" d="M2057.07,-519.022C1998.88,-512.782 1913.41,-500.903 1841.25,-480 1780.82,-462.497 1761.16,-462.296 1711.25,-424 1621.37,-355.042 1645.59,-289.609 1553.25,-224 1525.02,-203.946 1487.07,-192.173 1459.46,-185.734"/>
<polygon fill="midnightblue" stroke="midnightblue" points="1459.95,-182.258 1449.43,-183.521 1458.44,-189.093 1459.95,-182.258"/>
</g>
<!-- Node19 -->
<g id="node20" class="node"><title>Node19</title>
<polygon fill="white" stroke="#bfbfbf" points="1543.75,-168.5 1543.75,-187.5 1602.75,-187.5 1602.75,-168.5 1543.75,-168.5"/>
<text text-anchor="middle" x="1573.25" y="-175.5" font-family="Helvetica,sans-Serif" font-size="10.00">functional</text>
</g>
<!-- Node1&#45;&gt;Node19 -->
<g id="edge165" class="edge"><title>Node1&#45;&gt;Node19</title>
<path fill="none" stroke="midnightblue" d="M2119.09,-516.105C2110.34,-503.525 2093.78,-479.857 2079.25,-460 2030.53,-393.436 1996.58,-389.097 1967.25,-312 1953.29,-275.33 1987.66,-252.07 1960.25,-224 1907.94,-170.442 1704.82,-198.483 1613.08,-187.689"/>
<polygon fill="midnightblue" stroke="midnightblue" points="1613.37,-184.196 1602.98,-186.261 1612.39,-191.127 1613.37,-184.196"/>
</g>
<!-- Node21 -->
<g id="node22" class="node"><title>Node21</title>
<polygon fill="white" stroke="#bfbfbf" points="1850.75,-460.5 1850.75,-479.5 1901.75,-479.5 1901.75,-460.5 1850.75,-460.5"/>
<text text-anchor="middle" x="1876.25" y="-467.5" font-family="Helvetica,sans-Serif" font-size="10.00">TH1D.h</text>
</g>
<!-- Node1&#45;&gt;Node21 -->
<g id="edge28" class="edge"><title>Node1&#45;&gt;Node21</title>
<path fill="none" stroke="midnightblue" d="M2081.04,-516.452C2039.59,-508.28 1975.68,-495.278 1911.68,-480.255"/>
<polygon fill="midnightblue" stroke="midnightblue" points="1912.37,-476.82 1901.83,-477.926 1910.76,-483.632 1912.37,-476.82"/>
</g>
<!-- Node22 -->
<g id="node23" class="node"><title>Node22</title>
<polygon fill="white" stroke="#bfbfbf" points="1919.75,-460.5 1919.75,-479.5 1970.75,-479.5 1970.75,-460.5 1919.75,-460.5"/>
<text text-anchor="middle" x="1945.25" y="-467.5" font-family="Helvetica,sans-Serif" font-size="10.00">TH2D.h</text>
</g>
<!-- Node1&#45;&gt;Node22 -->
<g id="edge29" class="edge"><title>Node1&#45;&gt;Node22</title>
<path fill="none" stroke="midnightblue" d="M2096.72,-516.444C2065.37,-507.038 2014.95,-491.911 1980.98,-481.721"/>
<polygon fill="midnightblue" stroke="midnightblue" points="1981.59,-478.25 1971.01,-478.729 1979.58,-484.955 1981.59,-478.25"/>
</g>
<!-- Node23 -->
<g id="node24" class="node"><title>Node23</title>
<polygon fill="white" stroke="#bfbfbf" points="1988.75,-460.5 1988.75,-479.5 2039.75,-479.5 2039.75,-460.5 1988.75,-460.5"/>
<text text-anchor="middle" x="2014.25" y="-467.5" font-family="Helvetica,sans-Serif" font-size="10.00">TH3D.h</text>
</g>
<!-- Node1&#45;&gt;Node23 -->
<g id="edge30" class="edge"><title>Node1&#45;&gt;Node23</title>
<path fill="none" stroke="midnightblue" d="M2107.41,-516.324C2089.53,-507.625 2061.77,-494.12 2041.2,-484.113"/>
<polygon fill="midnightblue" stroke="midnightblue" points="2042.56,-480.882 2032.04,-479.655 2039.5,-487.177 2042.56,-480.882"/>
</g>
<!-- Node24 -->
<g id="node25" class="node"><title>Node24</title>
<g id="a_node25"><a xlink:href="_t_event_8h.html" target="_top" xlink:title="tree/TEvent.h">
<polygon fill="white" stroke="black" points="1330.25,-292.5 1330.25,-311.5 1406.25,-311.5 1406.25,-292.5 1330.25,-292.5"/>
<text text-anchor="middle" x="1368.25" y="-299.5" font-family="Helvetica,sans-Serif" font-size="10.00">tree/TEvent.h</text>
</a>
</g>
</g>
<!-- Node1&#45;&gt;Node24 -->
<g id="edge31" class="edge"><title>Node1&#45;&gt;Node24</title>
<path fill="none" stroke="midnightblue" d="M2056.85,-522.841C1940.96,-518.497 1711.19,-506.736 1635.25,-480 1529.46,-442.759 1424.66,-354.36 1384.93,-318.507"/>
<polygon fill="midnightblue" stroke="midnightblue" points="1387.21,-315.849 1377.47,-311.692 1382.49,-321.019 1387.21,-315.849"/>
</g>
<!-- Node25 -->
<g id="node26" class="node"><title>Node25</title>
<g id="a_node26"><a xlink:href="_t_event_data_8h.html" target="_top" xlink:title="tree/TEventData.h">
<polygon fill="white" stroke="black" points="1001.75,-460.5 1001.75,-479.5 1098.75,-479.5 1098.75,-460.5 1001.75,-460.5"/>
<text text-anchor="middle" x="1050.25" y="-467.5" font-family="Helvetica,sans-Serif" font-size="10.00">tree/TEventData.h</text>
</a>
</g>
</g>
<!-- Node1&#45;&gt;Node25 -->
<g id="edge35" class="edge"><title>Node1&#45;&gt;Node25</title>
<path fill="none" stroke="midnightblue" d="M2057.18,-521.581C1860.48,-511.7 1293.54,-483.221 1109.04,-473.953"/>
<polygon fill="midnightblue" stroke="midnightblue" points="1109.15,-470.455 1098.99,-473.448 1108.8,-477.446 1109.15,-470.455"/>
</g>
<!-- Node55 -->
<g id="node56" class="node"><title>Node55</title>
<polygon fill="white" stroke="#bfbfbf" points="2852.75,-168.5 2852.75,-187.5 2887.75,-187.5 2887.75,-168.5 2852.75,-168.5"/>
<text text-anchor="middle" x="2870.25" y="-175.5" font-family="Helvetica,sans-Serif" font-size="10.00">map</text>
</g>
<!-- Node1&#45;&gt;Node55 -->
<g id="edge163" class="edge"><title>Node1&#45;&gt;Node55</title>
<path fill="none" stroke="midnightblue" d="M2193.5,-521.818C2374.73,-512.464 2854.25,-481.438 2854.25,-415 2854.25,-415 2854.25,-415 2854.25,-301 2854.25,-264.101 2861.53,-221.452 2866.27,-197.613"/>
<polygon fill="midnightblue" stroke="midnightblue" points="2869.76,-198.029 2868.35,-187.528 2862.9,-196.616 2869.76,-198.029"/>
</g>
<!-- Node64 -->
<g id="node65" class="node"><title>Node64</title>
<g id="a_node65"><a xlink:href="_options_list_8h.html" target="_top" xlink:title="base/OptionsList.h">
<polygon fill="white" stroke="black" points="2412.25,-230.5 2412.25,-249.5 2510.25,-249.5 2510.25,-230.5 2412.25,-230.5"/>
<text text-anchor="middle" x="2461.25" y="-237.5" font-family="Helvetica,sans-Serif" font-size="10.00">base/OptionsList.h</text>
</a>
</g>
</g>
<!-- Node1&#45;&gt;Node64 -->
<g id="edge152" class="edge"><title>Node1&#45;&gt;Node64</title>
<path fill="none" stroke="midnightblue" d="M2193.51,-519.983C2263.07,-513.785 2365.29,-501.351 2398.25,-480 2427.32,-461.167 2441.25,-449.638 2441.25,-415 2441.25,-415 2441.25,-415 2441.25,-357 2441.25,-322.051 2450.17,-282.029 2456.1,-259.309"/>
<polygon fill="midnightblue" stroke="midnightblue" points="2459.48,-260.21 2458.71,-249.643 2452.72,-258.382 2459.48,-260.21"/>
</g>
<!-- Node66 -->
<g id="node67" class="node"><title>Node66</title>
<g id="a_node67"><a xlink:href="memory_8h.html" target="_top" xlink:title="base/std_ext/memory.h">
<polygon fill="white" stroke="black" points="1753.75,-230.5 1753.75,-249.5 1872.75,-249.5 1872.75,-230.5 1753.75,-230.5"/>
<text text-anchor="middle" x="1813.25" y="-237.5" font-family="Helvetica,sans-Serif" font-size="10.00">base/std_ext/memory.h</text>
</a>
</g>
</g>
<!-- Node1&#45;&gt;Node66 -->
<g id="edge158" class="edge"><title>Node1&#45;&gt;Node66</title>
<path fill="none" stroke="midnightblue" d="M2115.57,-516.189C2071.26,-475.854 1887.47,-308.562 1830.3,-256.521"/>
<polygon fill="midnightblue" stroke="midnightblue" points="1832.56,-253.851 1822.81,-249.708 1827.85,-259.028 1832.56,-253.851"/>
</g>
<!-- Node4 -->
<g id="node5" class="node"><title>Node4</title>
<g id="a_node5"><a xlink:href="interval_8h.html" target="_top" xlink:title="base/interval.h">
<polygon fill="white" stroke="black" points="2498.25,-168.5 2498.25,-187.5 2578.25,-187.5 2578.25,-168.5 2498.25,-168.5"/>
<text text-anchor="middle" x="2538.25" y="-175.5" font-family="Helvetica,sans-Serif" font-size="10.00">base/interval.h</text>
</a>
</g>
</g>
<!-- Node3&#45;&gt;Node4 -->
<g id="edge4" class="edge"><title>Node3&#45;&gt;Node4</title>
<path fill="none" stroke="midnightblue" d="M2678.63,-292.474C2631.73,-285.137 2574.39,-273.027 2557.25,-256 2541.86,-240.719 2538.21,-215.095 2537.69,-197.639"/>
<polygon fill="midnightblue" stroke="midnightblue" points="2541.19,-197.543 2537.7,-187.538 2534.19,-197.534 2541.19,-197.543"/>
</g>
<!-- Node12 -->
<g id="node13" class="node"><title>Node12</title>
<g id="a_node13"><a xlink:href="_bin_settings_8h.html" target="_top" xlink:title="base/BinSettings.h">
<polygon fill="white" stroke="black" points="2566.75,-230.5 2566.75,-249.5 2665.75,-249.5 2665.75,-230.5 2566.75,-230.5"/>
<text text-anchor="middle" x="2616.25" y="-237.5" font-family="Helvetica,sans-Serif" font-size="10.00">base/BinSettings.h</text>
</a>
</g>
</g>
<!-- Node3&#45;&gt;Node12 -->
<g id="edge12" class="edge"><title>Node3&#45;&gt;Node12</title>
<path fill="none" stroke="midnightblue" d="M2726.76,-292.403C2705.11,-282.334 2669.03,-265.552 2644.01,-253.915"/>
<polygon fill="midnightblue" stroke="midnightblue" points="2645.24,-250.624 2634.69,-249.581 2642.29,-256.971 2645.24,-250.624"/>
</g>
<!-- Node13 -->
<g id="node14" class="node"><title>Node13</title>
<polygon fill="white" stroke="#bfbfbf" points="1455.25,-56.5 1455.25,-75.5 1499.25,-75.5 1499.25,-56.5 1455.25,-56.5"/>
<text text-anchor="middle" x="1477.25" y="-63.5" font-family="Helvetica,sans-Serif" font-size="10.00">vector</text>
</g>
<!-- Node3&#45;&gt;Node13 -->
<g id="edge19" class="edge"><title>Node3&#45;&gt;Node13</title>
<path fill="none" stroke="midnightblue" d="M2807.67,-292.428C2834.15,-286.092 2863.79,-275.09 2885.25,-256 2916.23,-228.439 2944.25,-198.586 2916.25,-168 2854.94,-101.028 2596.84,-155.896 2509.25,-132 2489.3,-126.559 2487.3,-117.013 2467.25,-112 2279.77,-65.1433 1659.07,-65.8692 1509.76,-66.7507"/>
<polygon fill="midnightblue" stroke="midnightblue" points="1509.43,-63.2527 1499.45,-66.8165 1509.47,-70.2525 1509.43,-63.2527"/>
</g>
<!-- Node3&#45;&gt;Node15 -->
<g id="edge18" class="edge"><title>Node3&#45;&gt;Node15</title>
<path fill="none" stroke="midnightblue" d="M2769.74,-292.381C2823.57,-272.208 2943.76,-219.705 2896.25,-168 2895.18,-166.837 2509.27,-134.891 2396.09,-125.545"/>
<polygon fill="midnightblue" stroke="midnightblue" points="2396.27,-122.048 2386.02,-124.713 2395.69,-129.024 2396.27,-122.048"/>
</g>
<!-- Node5 -->
<g id="node6" class="node"><title>Node5</title>
<g id="a_node6"><a xlink:href="types_8h.html" target="_top" xlink:title="types.h">
<polygon fill="white" stroke="black" points="2245.75,-112.5 2245.75,-131.5 2294.75,-131.5 2294.75,-112.5 2245.75,-112.5"/>
<text text-anchor="middle" x="2270.25" y="-119.5" font-family="Helvetica,sans-Serif" font-size="10.00">types.h</text>
</a>
</g>
</g>
<!-- Node4&#45;&gt;Node5 -->
<g id="edge5" class="edge"><title>Node4&#45;&gt;Node5</title>
<path fill="none" stroke="midnightblue" d="M2498.12,-168.916C2445.64,-158.34 2354.54,-139.985 2304.91,-129.984"/>
<polygon fill="midnightblue" stroke="midnightblue" points="2305.47,-126.527 2294.98,-127.983 2304.09,-133.389 2305.47,-126.527"/>
</g>
<!-- Node6 -->
<g id="node7" class="node"><title>Node6</title>
<polygon fill="white" stroke="#bfbfbf" points="1361.25,-112.5 1361.25,-131.5 1417.25,-131.5 1417.25,-112.5 1361.25,-112.5"/>
<text text-anchor="middle" x="1389.25" y="-119.5" font-family="Helvetica,sans-Serif" font-size="10.00">algorithm</text>
</g>
<!-- Node4&#45;&gt;Node6 -->
<g id="edge6" class="edge"><title>Node4&#45;&gt;Node6</title>
<path fill="none" stroke="midnightblue" d="M2498.2,-169.293C2494.84,-168.798 2491.49,-168.357 2488.25,-168 2381.18,-156.228 1609.13,-130.25 1427.46,-124.253"/>
<polygon fill="midnightblue" stroke="midnightblue" points="1427.42,-120.75 1417.31,-123.918 1427.19,-127.746 1427.42,-120.75"/>
</g>
<!-- Node7 -->
<g id="node8" class="node"><title>Node7</title>
<polygon fill="white" stroke="#bfbfbf" points="1245.75,-112.5 1245.75,-131.5 1304.75,-131.5 1304.75,-112.5 1245.75,-112.5"/>
<text text-anchor="middle" x="1275.25" y="-119.5" font-family="Helvetica,sans-Serif" font-size="10.00">stdexcept</text>
</g>
<!-- Node4&#45;&gt;Node7 -->
<g id="edge7" class="edge"><title>Node4&#45;&gt;Node7</title>
<path fill="none" stroke="midnightblue" d="M2498.2,-169.26C2494.84,-168.773 2491.49,-168.342 2488.25,-168 1985.88,-115.115 1856.01,-169.355 1352.25,-132 1340.1,-131.099 1326.92,-129.711 1314.95,-128.292"/>
<polygon fill="midnightblue" stroke="midnightblue" points="1315.16,-124.791 1304.81,-127.049 1314.31,-131.739 1315.16,-124.791"/>
</g>
<!-- Node8 -->
<g id="node9" class="node"><title>Node8</title>
<polygon fill="white" stroke="#bfbfbf" points="2609.25,-56.5 2609.25,-75.5 2649.25,-75.5 2649.25,-56.5 2609.25,-56.5"/>
<text text-anchor="middle" x="2629.25" y="-63.5" font-family="Helvetica,sans-Serif" font-size="10.00">limits</text>
</g>
<!-- Node4&#45;&gt;Node8 -->
<g id="edge8" class="edge"><title>Node4&#45;&gt;Node8</title>
<path fill="none" stroke="midnightblue" d="M2578.32,-170.277C2600.62,-164.267 2626.56,-152.998 2640.25,-132 2649.31,-118.094 2644.57,-99.0824 2638.76,-85.2131"/>
<polygon fill="midnightblue" stroke="midnightblue" points="2641.75,-83.3364 2634.32,-75.7794 2635.42,-86.3178 2641.75,-83.3364"/>
</g>
<!-- Node9 -->
<g id="node10" class="node"><title>Node9</title>
<polygon fill="white" stroke="#bfbfbf" points="2730.75,-112.5 2730.75,-131.5 2779.75,-131.5 2779.75,-112.5 2730.75,-112.5"/>
<text text-anchor="middle" x="2755.25" y="-119.5" font-family="Helvetica,sans-Serif" font-size="10.00">istream</text>
</g>
<!-- Node4&#45;&gt;Node9 -->
<g id="edge9" class="edge"><title>Node4&#45;&gt;Node9</title>
<path fill="none" stroke="midnightblue" d="M2572.63,-168.444C2613.17,-158.354 2680.16,-141.684 2720.75,-131.583"/>
<polygon fill="midnightblue" stroke="midnightblue" points="2721.61,-134.976 2730.47,-129.165 2719.92,-128.183 2721.61,-134.976"/>
</g>
<!-- Node10 -->
<g id="node11" class="node"><title>Node10</title>
<polygon fill="white" stroke="#bfbfbf" points="571.246,-112.5 571.246,-131.5 623.246,-131.5 623.246,-112.5 571.246,-112.5"/>
<text text-anchor="middle" x="597.246" y="-119.5" font-family="Helvetica,sans-Serif" font-size="10.00">sstream</text>
</g>
<!-- Node4&#45;&gt;Node10 -->
<g id="edge10" class="edge"><title>Node4&#45;&gt;Node10</title>
<path fill="none" stroke="midnightblue" d="M2498.21,-169.216C2494.85,-168.738 2491.49,-168.322 2488.25,-168 2081.04,-127.66 1057.65,-186.776 633.7,-131.807"/>
<polygon fill="midnightblue" stroke="midnightblue" points="633.865,-128.298 623.49,-130.445 632.939,-135.237 633.865,-128.298"/>
</g>
<!-- Node11 -->
<g id="node12" class="node"><title>Node11</title>
<polygon fill="white" stroke="#bfbfbf" points="708.246,-0.5 708.246,-19.5 752.246,-19.5 752.246,-0.5 708.246,-0.5"/>
<text text-anchor="middle" x="730.246" y="-7.5" font-family="Helvetica,sans-Serif" font-size="10.00">cmath</text>
</g>
<!-- Node4&#45;&gt;Node11 -->
<g id="edge11" class="edge"><title>Node4&#45;&gt;Node11</title>
<path fill="none" stroke="midnightblue" d="M2578.44,-173.228C2605.52,-168.37 2639.44,-157.282 2657.25,-132 2676.7,-104.381 2681.85,-80.1636 2658.25,-56 2623.72,-20.6573 1012.77,-12.2288 762.713,-11.1326"/>
<polygon fill="midnightblue" stroke="midnightblue" points="762.487,-7.63172 752.472,-11.0885 762.457,-14.6317 762.487,-7.63172"/>
</g>
<!-- Node12&#45;&gt;Node4 -->
<g id="edge13" class="edge"><title>Node12&#45;&gt;Node4</title>
<path fill="none" stroke="midnightblue" d="M2605.07,-230.403C2592.68,-220.869 2572.46,-205.315 2557.5,-193.811"/>
<polygon fill="midnightblue" stroke="midnightblue" points="2559.46,-190.904 2549.4,-187.581 2555.19,-196.452 2559.46,-190.904"/>
</g>
<!-- Node12&#45;&gt;Node7 -->
<g id="edge15" class="edge"><title>Node12&#45;&gt;Node7</title>
<path fill="none" stroke="midnightblue" d="M2577.87,-230.484C2506.5,-215.041 2348.32,-182.657 2213.25,-168 1832.48,-126.683 1734.05,-162.253 1352.25,-132 1340.11,-131.038 1326.93,-129.631 1314.96,-128.215"/>
<polygon fill="midnightblue" stroke="midnightblue" points="1315.16,-124.714 1304.81,-126.979 1314.32,-131.663 1315.16,-124.714"/>
</g>
<!-- Node12&#45;&gt;Node9 -->
<g id="edge16" class="edge"><title>Node12&#45;&gt;Node9</title>
<path fill="none" stroke="midnightblue" d="M2626.69,-230.281C2650.25,-210.619 2707.76,-162.63 2737.21,-138.05"/>
<polygon fill="midnightblue" stroke="midnightblue" points="2739.62,-140.599 2745.06,-131.505 2735.14,-135.225 2739.62,-140.599"/>
</g>
<!-- Node12&#45;&gt;Node13 -->
<g id="edge14" class="edge"><title>Node12&#45;&gt;Node13</title>
<path fill="none" stroke="midnightblue" d="M2615.21,-230.087C2612.97,-214.96 2606.23,-184.318 2587.25,-168 2535.58,-123.59 2502.66,-154.195 2438.25,-132 2417.94,-125.002 2415.12,-117.061 2394.25,-112 2221.19,-70.0488 1651.71,-67.0474 1509.6,-66.9627"/>
<polygon fill="midnightblue" stroke="midnightblue" points="1509.38,-63.4628 1499.37,-66.9614 1509.37,-70.4628 1509.38,-63.4628"/>
</g>
<!-- Node14 -->
<g id="node15" class="node"><title>Node14</title>
<polygon fill="white" stroke="#bfbfbf" points="3067.25,-56.5 3067.25,-75.5 3119.25,-75.5 3119.25,-56.5 3067.25,-56.5"/>
<text text-anchor="middle" x="3093.25" y="-63.5" font-family="Helvetica,sans-Serif" font-size="10.00">ostream</text>
</g>
<!-- Node12&#45;&gt;Node14 -->
<g id="edge17" class="edge"><title>Node12&#45;&gt;Node14</title>
<path fill="none" stroke="midnightblue" d="M2645.76,-230.48C2655.12,-228.052 2665.55,-225.627 2675.25,-224 2722.42,-216.08 3071.87,-223.21 3104.25,-188 3130.09,-159.901 3113.89,-111.059 3102.18,-84.8452"/>
<polygon fill="midnightblue" stroke="midnightblue" points="3105.3,-83.2512 3097.87,-75.7036 3098.97,-86.2406 3105.3,-83.2512"/>
</g>
<!-- Node16&#45;&gt;Node12 -->
<g id="edge26" class="edge"><title>Node16&#45;&gt;Node12</title>
<path fill="none" stroke="midnightblue" d="M2103.78,-296.199C2195.47,-289.002 2370.17,-274.287 2518.25,-256 2530.71,-254.46 2544.04,-252.579 2556.72,-250.677"/>
<polygon fill="midnightblue" stroke="midnightblue" points="2557.36,-254.119 2566.72,-249.152 2556.31,-247.199 2557.36,-254.119"/>
</g>
<!-- Node16&#45;&gt;Node13 -->
<g id="edge23" class="edge"><title>Node16&#45;&gt;Node13</title>
<path fill="none" stroke="midnightblue" d="M2041.15,-292.223C2042.29,-275.991 2042.08,-241.357 2022.25,-224 1959.74,-169.31 1728.17,-216.744 1650.25,-188 1616.66,-175.61 1533.6,-111.678 1496.13,-82.0748"/>
<polygon fill="midnightblue" stroke="midnightblue" points="1498.05,-79.1338 1488.04,-75.6614 1493.7,-84.618 1498.05,-79.1338"/>
</g>
<!-- Node16&#45;&gt;Node15 -->
<g id="edge21" class="edge"><title>Node16&#45;&gt;Node15</title>
<path fill="none" stroke="midnightblue" d="M2104.02,-294.339C2163.69,-287.127 2247.67,-274.168 2275.25,-256 2318.58,-227.449 2346.48,-170.102 2358.48,-140.929"/>
<polygon fill="midnightblue" stroke="midnightblue" points="2361.76,-142.148 2362.18,-131.561 2355.25,-139.576 2361.76,-142.148"/>
</g>
<!-- Node16&#45;&gt;Node17 -->
<g id="edge22" class="edge"><title>Node16&#45;&gt;Node17</title>
<path fill="none" stroke="midnightblue" d="M2048.85,-292.309C2063.17,-276.821 2088.57,-244.182 2070.25,-224 2016.38,-164.671 1795.48,-203.762 1698.84,-187.185"/>
<polygon fill="midnightblue" stroke="midnightblue" points="1699.28,-183.704 1688.78,-185.144 1697.89,-190.564 1699.28,-183.704"/>
</g>
<!-- Node16&#45;&gt;Node18 -->
<g id="edge24" class="edge"><title>Node16&#45;&gt;Node18</title>
<path fill="none" stroke="midnightblue" d="M1976.74,-295.524C1916.22,-289.33 1822.91,-277.226 1744.25,-256 1706.88,-245.916 1700.44,-234.727 1663.25,-224 1592.43,-203.576 1507.11,-190.139 1459.65,-183.618"/>
<polygon fill="midnightblue" stroke="midnightblue" points="1459.93,-180.124 1449.55,-182.257 1459,-187.062 1459.93,-180.124"/>
</g>
<!-- Node16&#45;&gt;Node19 -->
<g id="edge25" class="edge"><title>Node16&#45;&gt;Node19</title>
<path fill="none" stroke="midnightblue" d="M2037.95,-292.479C2033.03,-276.039 2019.78,-240.143 1994.25,-224 1923.11,-179.029 1700.48,-200.45 1617.25,-188 1615.8,-187.784 1614.33,-187.551 1612.85,-187.305"/>
<polygon fill="midnightblue" stroke="midnightblue" points="1613.45,-183.858 1602.99,-185.532 1612.21,-190.747 1613.45,-183.858"/>
</g>
<!-- Node20 -->
<g id="node21" class="node"><title>Node20</title>
<polygon fill="white" stroke="#bfbfbf" points="1373.25,-230.5 1373.25,-249.5 1429.25,-249.5 1429.25,-230.5 1373.25,-230.5"/>
<text text-anchor="middle" x="1401.25" y="-237.5" font-family="Helvetica,sans-Serif" font-size="10.00">Rtypes.h</text>
</g>
<!-- Node16&#45;&gt;Node20 -->
<g id="edge27" class="edge"><title>Node16&#45;&gt;Node20</title>
<path fill="none" stroke="midnightblue" d="M1976.54,-298.365C1871.78,-293.484 1656.71,-281.157 1476.25,-256 1464.14,-254.313 1451.05,-251.9 1439.24,-249.501"/>
<polygon fill="midnightblue" stroke="midnightblue" points="1439.75,-246.033 1429.25,-247.415 1438.32,-252.885 1439.75,-246.033"/>
</g>
<!-- Node24&#45;&gt;Node7 -->
<g id="edge34" class="edge"><title>Node24&#45;&gt;Node7</title>
<path fill="none" stroke="midnightblue" d="M1330.05,-299.627C1268.51,-296.523 1151.72,-286.646 1126.25,-256 1070.01,-188.344 1189.64,-219.831 1231.25,-188 1247.43,-175.622 1259.72,-155.534 1267.14,-140.962"/>
<polygon fill="midnightblue" stroke="midnightblue" points="1270.31,-142.446 1271.49,-131.917 1264,-139.412 1270.31,-142.446"/>
</g>
<!-- Node24&#45;&gt;Node18 -->
<g id="edge33" class="edge"><title>Node24&#45;&gt;Node18</title>
<path fill="none" stroke="midnightblue" d="M1365.19,-292.362C1360.47,-277.509 1353.08,-246.554 1364.25,-224 1370.85,-210.659 1383.51,-200.194 1395.42,-192.726"/>
<polygon fill="midnightblue" stroke="midnightblue" points="1397.36,-195.643 1404.26,-187.602 1393.85,-189.587 1397.36,-195.643"/>
</g>
<!-- Node24&#45;&gt;Node20 -->
<g id="edge32" class="edge"><title>Node24&#45;&gt;Node20</title>
<path fill="none" stroke="midnightblue" d="M1372.97,-292.403C1377.83,-283.582 1385.51,-269.608 1391.65,-258.455"/>
<polygon fill="midnightblue" stroke="midnightblue" points="1394.77,-260.029 1396.53,-249.581 1388.64,-256.656 1394.77,-260.029"/>
</g>
<!-- Node26 -->
<g id="node27" class="node"><title>Node26</title>
<g id="a_node27"><a xlink:href="_t_i_d_8h.html" target="_top" xlink:title="TID.h">
<polygon fill="white" stroke="black" points="394.746,-292.5 394.746,-311.5 435.746,-311.5 435.746,-292.5 394.746,-292.5"/>
<text text-anchor="middle" x="415.246" y="-299.5" font-family="Helvetica,sans-Serif" font-size="10.00">TID.h</text>
</a>
</g>
</g>
<!-- Node25&#45;&gt;Node26 -->
<g id="edge36" class="edge"><title>Node25&#45;&gt;Node26</title>
<path fill="none" stroke="midnightblue" d="M1001.37,-468.552C885.069,-466.915 594.91,-459.305 505.246,-424 467.851,-409.276 456.729,-401.313 434.246,-368 424.895,-354.144 420.07,-335.627 417.628,-321.902"/>
<polygon fill="midnightblue" stroke="midnightblue" points="421.043,-321.074 416.091,-311.708 414.121,-322.118 421.043,-321.074"/>
</g>
<!-- Node35 -->
<g id="node36" class="node"><title>Node35</title>
<g id="a_node36"><a xlink:href="_t_detector_read_hit_8h.html" target="_top" xlink:title="TDetectorReadHit.h">
<polygon fill="white" stroke="black" points="595.246,-230.5 595.246,-249.5 699.246,-249.5 699.246,-230.5 595.246,-230.5"/>
<text text-anchor="middle" x="647.246" y="-237.5" font-family="Helvetica,sans-Serif" font-size="10.00">TDetectorReadHit.h</text>
</a>
</g>
</g>
<!-- Node25&#45;&gt;Node35 -->
<g id="edge53" class="edge"><title>Node25&#45;&gt;Node35</title>
<path fill="none" stroke="midnightblue" d="M1001.59,-460.931C887.829,-440.974 610.04,-385.541 556.246,-312 537.511,-286.387 576.781,-265.292 609.459,-252.927"/>
<polygon fill="midnightblue" stroke="midnightblue" points="610.665,-256.213 618.882,-249.525 608.287,-249.629 610.665,-256.213"/>
</g>
<!-- Node42 -->
<g id="node43" class="node"><title>Node42</title>
<g id="a_node43"><a xlink:href="_t_slow_control_8h.html" target="_top" xlink:title="TSlowControl.h">
<polygon fill="white" stroke="black" points="23.2464,-348.5 23.2464,-367.5 107.246,-367.5 107.246,-348.5 23.2464,-348.5"/>
<text text-anchor="middle" x="65.2464" y="-355.5" font-family="Helvetica,sans-Serif" font-size="10.00">TSlowControl.h</text>
</a>
</g>
</g>
<!-- Node25&#45;&gt;Node42 -->
<g id="edge73" class="edge"><title>Node25&#45;&gt;Node42</title>
<path fill="none" stroke="midnightblue" d="M1001.6,-467.652C893.329,-464.21 624.384,-453.209 401.246,-424 296.954,-410.348 176.227,-384.494 111.668,-369.843"/>
<polygon fill="midnightblue" stroke="midnightblue" points="112.328,-366.403 101.8,-367.591 110.77,-373.228 112.328,-366.403"/>
</g>
<!-- Node43 -->
<g id="node44" class="node"><title>Node43</title>
<g id="a_node44"><a xlink:href="_t_unpacker_message_8h.html" target="_top" xlink:title="TUnpackerMessage.h">
<polygon fill="white" stroke="black" points="2982.75,-168.5 2982.75,-187.5 3095.75,-187.5 3095.75,-168.5 2982.75,-168.5"/>
<text text-anchor="middle" x="3039.25" y="-175.5" font-family="Helvetica,sans-Serif" font-size="10.00">TUnpackerMessage.h</text>
</a>
</g>
</g>
<!-- Node25&#45;&gt;Node43 -->
<g id="edge78" class="edge"><title>Node25&#45;&gt;Node43</title>
<path fill="none" stroke="midnightblue" d="M1098.85,-468.007C1349.89,-462.385 2500.8,-430.459 2834.25,-312 2911.27,-284.637 2988.47,-223.125 3021.96,-194.367"/>
<polygon fill="midnightblue" stroke="midnightblue" points="3024.26,-197.006 3029.5,-187.801 3019.66,-191.726 3024.26,-197.006"/>
</g>
<!-- Node46 -->
<g id="node47" class="node"><title>Node46</title>
<g id="a_node47"><a xlink:href="_t_tagger_hit_8h.html" target="_top" xlink:title="TTaggerHit.h">
<polygon fill="white" stroke="black" points="443.246,-348.5 443.246,-367.5 517.246,-367.5 517.246,-348.5 443.246,-348.5"/>
<text text-anchor="middle" x="480.246" y="-355.5" font-family="Helvetica,sans-Serif" font-size="10.00">TTaggerHit.h</text>
</a>
</g>
</g>
<!-- Node25&#45;&gt;Node46 -->
<g id="edge83" class="edge"><title>Node25&#45;&gt;Node46</title>
<path fill="none" stroke="midnightblue" d="M1001.43,-469.641C888.279,-470.358 611.585,-467.473 531.246,-424 511.791,-413.473 497.268,-392.04 488.795,-376.662"/>
<polygon fill="midnightblue" stroke="midnightblue" points="491.814,-374.879 484.11,-367.606 485.596,-378.096 491.814,-374.879"/>
</g>
<!-- Node48 -->
<g id="node49" class="node"><title>Node48</title>
<g id="a_node49"><a xlink:href="_t_trigger_8h.html" target="_top" xlink:title="TTrigger.h">
<polygon fill="white" stroke="black" points="1890.75,-230.5 1890.75,-249.5 1951.75,-249.5 1951.75,-230.5 1890.75,-230.5"/>
<text text-anchor="middle" x="1921.25" y="-237.5" font-family="Helvetica,sans-Serif" font-size="10.00">TTrigger.h</text>
</a>
</g>
</g>
<!-- Node25&#45;&gt;Node48 -->
<g id="edge90" class="edge"><title>Node25&#45;&gt;Node48</title>
<path fill="none" stroke="midnightblue" d="M1087.64,-460.484C1126.2,-451.635 1188.02,-437.253 1241.25,-424 1526.61,-352.941 1600.98,-345.079 1881.25,-256 1884.19,-255.064 1887.24,-254.036 1890.27,-252.97"/>
<polygon fill="midnightblue" stroke="midnightblue" points="1891.6,-256.212 1899.8,-249.503 1889.2,-249.634 1891.6,-256.212"/>
</g>
<!-- Node49 -->
<g id="node50" class="node"><title>Node49</title>
<g id="a_node50"><a xlink:href="_t_target_8h.html" target="_top" xlink:title="TTarget.h">
<polygon fill="white" stroke="black" points="1485.75,-230.5 1485.75,-249.5 1544.75,-249.5 1544.75,-230.5 1485.75,-230.5"/>
<text text-anchor="middle" x="1515.25" y="-237.5" font-family="Helvetica,sans-Serif" font-size="10.00">TTarget.h</text>
</a>
</g>
</g>
<!-- Node25&#45;&gt;Node49 -->
<g id="edge95" class="edge"><title>Node25&#45;&gt;Node49</title>
<path fill="none" stroke="midnightblue" d="M1082.12,-460.484C1151.03,-441.17 1317.5,-389.609 1439.25,-312 1463.4,-296.604 1486.8,-273.028 1501.11,-257.32"/>
<polygon fill="midnightblue" stroke="midnightblue" points="1504.03,-259.3 1508.07,-249.505 1498.8,-254.645 1504.03,-259.3"/>
</g>
<!-- Node50 -->
<g id="node51" class="node"><title>Node50</title>
<g id="a_node51"><a xlink:href="_t_cluster_8h.html" target="_top" xlink:title="TCluster.h">
<polygon fill="white" stroke="black" points="867.246,-292.5 867.246,-311.5 929.246,-311.5 929.246,-292.5 867.246,-292.5"/>
<text text-anchor="middle" x="898.246" y="-299.5" font-family="Helvetica,sans-Serif" font-size="10.00">TCluster.h</text>
</a>
</g>
</g>
<!-- Node25&#45;&gt;Node50 -->
<g id="edge101" class="edge"><title>Node25&#45;&gt;Node50</title>
<path fill="none" stroke="midnightblue" d="M1042.07,-460.075C1017.63,-433.38 944.822,-353.865 913.192,-319.322"/>
<polygon fill="midnightblue" stroke="midnightblue" points="915.426,-316.58 906.092,-311.568 910.264,-321.307 915.426,-316.58"/>
</g>
<!-- Node52 -->
<g id="node53" class="node"><title>Node52</title>
<g id="a_node53"><a xlink:href="_t_candidate_8h.html" target="_top" xlink:title="TCandidate.h">
<polygon fill="white" stroke="black" points="1012.75,-348.5 1012.75,-367.5 1087.75,-367.5 1087.75,-348.5 1012.75,-348.5"/>
<text text-anchor="middle" x="1050.25" y="-355.5" font-family="Helvetica,sans-Serif" font-size="10.00">TCandidate.h</text>
</a>
</g>
</g>
<!-- Node25&#45;&gt;Node52 -->
<g id="edge116" class="edge"><title>Node25&#45;&gt;Node52</title>
<path fill="none" stroke="midnightblue" d="M1050.25,-460.368C1050.25,-442.617 1050.25,-401.666 1050.25,-377.597"/>
<polygon fill="midnightblue" stroke="midnightblue" points="1053.75,-377.591 1050.25,-367.591 1046.75,-377.591 1053.75,-377.591"/>
</g>
<!-- Node53 -->
<g id="node54" class="node"><title>Node53</title>
<g id="a_node54"><a xlink:href="_t_particle_8h.html" target="_top" xlink:title="TParticle.h">
<polygon fill="white" stroke="black" points="1720.25,-404.5 1720.25,-423.5 1784.25,-423.5 1784.25,-404.5 1720.25,-404.5"/>
<text text-anchor="middle" x="1752.25" y="-411.5" font-family="Helvetica,sans-Serif" font-size="10.00">TParticle.h</text>
</a>
</g>
</g>
<!-- Node25&#45;&gt;Node53 -->
<g id="edge124" class="edge"><title>Node25&#45;&gt;Node53</title>
<path fill="none" stroke="midnightblue" d="M1098.77,-465.267C1229.35,-455.223 1586.6,-427.742 1709.81,-418.265"/>
<polygon fill="midnightblue" stroke="midnightblue" points="1710.27,-421.739 1719.97,-417.483 1709.73,-414.76 1710.27,-421.739"/>
</g>
<!-- Node26&#45;&gt;Node7 -->
<g id="edge49" class="edge"><title>Node26&#45;&gt;Node7</title>
<path fill="none" stroke="midnightblue" d="M435.935,-298.333C483.952,-292.033 606.619,-275.297 708.246,-256 842.562,-230.496 875.158,-219.281 1008.25,-188 1089.23,-168.965 1183.77,-145.704 1235.82,-132.805"/>
<polygon fill="midnightblue" stroke="midnightblue" points="1236.79,-136.172 1245.65,-130.368 1235.1,-129.378 1236.79,-136.172"/>
</g>
<!-- Node26&#45;&gt;Node17 -->
<g id="edge50" class="edge"><title>Node26&#45;&gt;Node17</title>
<path fill="none" stroke="midnightblue" d="M435.785,-299.51C463.227,-297.561 513.374,-294.142 556.246,-292 666.958,-286.469 1447.39,-288.908 1553.25,-256 1594.18,-243.275 1634.78,-212.845 1656.98,-194.276"/>
<polygon fill="midnightblue" stroke="midnightblue" points="1659.49,-196.738 1664.81,-187.577 1654.93,-191.42 1659.49,-196.738"/>
</g>
<!-- Node26&#45;&gt;Node20 -->
<g id="edge37" class="edge"><title>Node26&#45;&gt;Node20</title>
<path fill="none" stroke="midnightblue" d="M435.791,-299.612C463.239,-297.776 513.392,-294.481 556.246,-292 864.146,-274.177 941.701,-279.151 1249.25,-256 1287.92,-253.089 1332.02,-248.608 1362.72,-245.301"/>
<polygon fill="midnightblue" stroke="midnightblue" points="1363.42,-248.745 1372.99,-244.185 1362.67,-241.786 1363.42,-248.745"/>
</g>
<!-- Node27 -->
<g id="node28" class="node"><title>Node27</title>
<g id="a_node28"><a xlink:href="base_2std__ext_2_time_8h.html" target="_top" xlink:title="base/std_ext/time.h">
<polygon fill="white" stroke="black" points="207.746,-230.5 207.746,-249.5 310.746,-249.5 310.746,-230.5 207.746,-230.5"/>
<text text-anchor="middle" x="259.246" y="-237.5" font-family="Helvetica,sans-Serif" font-size="10.00">base/std_ext/time.h</text>
</a>
</g>
</g>
<!-- Node26&#45;&gt;Node27 -->
<g id="edge38" class="edge"><title>Node26&#45;&gt;Node27</title>
<path fill="none" stroke="midnightblue" d="M394.531,-293.032C368.056,-282.85 321.959,-265.12 291.028,-253.224"/>
<polygon fill="midnightblue" stroke="midnightblue" points="292.152,-249.906 281.562,-249.583 289.639,-256.44 292.152,-249.906"/>
</g>
<!-- Node30 -->
<g id="node31" class="node"><title>Node30</title>
<polygon fill="white" stroke="#bfbfbf" points="304.746,-168.5 304.746,-187.5 345.746,-187.5 345.746,-168.5 304.746,-168.5"/>
<text text-anchor="middle" x="325.246" y="-175.5" font-family="Helvetica,sans-Serif" font-size="10.00">ctime</text>
</g>
<!-- Node26&#45;&gt;Node30 -->
<g id="edge52" class="edge"><title>Node26&#45;&gt;Node30</title>
<path fill="none" stroke="midnightblue" d="M402.414,-292.19C391.023,-283.877 374.489,-270.548 363.246,-256 349.188,-237.809 338.278,-213.591 331.824,-197.21"/>
<polygon fill="midnightblue" stroke="midnightblue" points="335.046,-195.836 328.238,-187.718 328.498,-198.31 335.046,-195.836"/>
</g>
<!-- Node31 -->
<g id="node32" class="node"><title>Node31</title>
<polygon fill="white" stroke="#bfbfbf" points="841.246,-112.5 841.246,-131.5 903.246,-131.5 903.246,-112.5 841.246,-112.5"/>
<text text-anchor="middle" x="872.246" y="-119.5" font-family="Helvetica,sans-Serif" font-size="10.00">type_traits</text>
</g>
<!-- Node26&#45;&gt;Node31 -->
<g id="edge46" class="edge"><title>Node26&#45;&gt;Node31</title>
<path fill="none" stroke="midnightblue" d="M413.289,-292.25C408.511,-268.329 399.066,-201.408 434.246,-168 496.505,-108.879 728.389,-143.302 830.797,-131.817"/>
<polygon fill="midnightblue" stroke="midnightblue" points="831.432,-135.264 840.878,-130.466 830.502,-128.326 831.432,-135.264"/>
</g>
<!-- Node32 -->
<g id="node33" class="node"><title>Node32</title>
<polygon fill="white" stroke="#bfbfbf" points="8.2464,-112.5 8.2464,-131.5 46.2464,-131.5 46.2464,-112.5 8.2464,-112.5"/>
<text text-anchor="middle" x="27.2464" y="-119.5" font-family="Helvetica,sans-Serif" font-size="10.00">tuple</text>
</g>
<!-- Node26&#45;&gt;Node32 -->
<g id="edge47" class="edge"><title>Node26&#45;&gt;Node32</title>
<path fill="none" stroke="midnightblue" d="M394.488,-299.458C338.216,-294.989 184.049,-280.753 140.246,-256 90.9299,-228.131 53.3778,-170.034 36.7094,-140.723"/>
<polygon fill="midnightblue" stroke="midnightblue" points="39.5982,-138.714 31.6995,-131.653 33.4708,-142.098 39.5982,-138.714"/>
</g>
<!-- Node33 -->
<g id="node34" class="node"><title>Node33</title>
<polygon fill="white" stroke="#bfbfbf" points="105.246,-112.5 105.246,-131.5 151.246,-131.5 151.246,-112.5 105.246,-112.5"/>
<text text-anchor="middle" x="128.246" y="-119.5" font-family="Helvetica,sans-Serif" font-size="10.00">cstdint</text>
</g>
<!-- Node26&#45;&gt;Node33 -->
<g id="edge48" class="edge"><title>Node26&#45;&gt;Node33</title>
<path fill="none" stroke="midnightblue" d="M394.596,-300.042C340.932,-297.138 198.909,-286.662 165.246,-256 132.71,-226.365 127.813,-170.815 127.645,-141.774"/>
<polygon fill="midnightblue" stroke="midnightblue" points="131.145,-141.778 127.774,-131.733 124.145,-141.687 131.145,-141.778"/>
</g>
<!-- Node34 -->
<g id="node35" class="node"><title>Node34</title>
<polygon fill="white" stroke="#bfbfbf" points="443.246,-168.5 443.246,-187.5 493.246,-187.5 493.246,-168.5 443.246,-168.5"/>
<text text-anchor="middle" x="468.246" y="-175.5" font-family="Helvetica,sans-Serif" font-size="10.00">iomanip</text>
</g>
<!-- Node26&#45;&gt;Node34 -->
<g id="edge51" class="edge"><title>Node26&#45;&gt;Node34</title>
<path fill="none" stroke="midnightblue" d="M419.058,-292.226C427.691,-272.354 448.881,-223.576 460.431,-196.989"/>
<polygon fill="midnightblue" stroke="midnightblue" points="463.695,-198.261 464.469,-187.694 457.275,-195.472 463.695,-198.261"/>
</g>
<!-- Node28 -->
<g id="node29" class="node"><title>Node28</title>
<g id="a_node29"><a xlink:href="string_8h.html" target="_top" xlink:title="base/std_ext/string.h">
<polygon fill="white" stroke="black" points="891.246,-168.5 891.246,-187.5 999.246,-187.5 999.246,-168.5 891.246,-168.5"/>
<text text-anchor="middle" x="945.246" y="-175.5" font-family="Helvetica,sans-Serif" font-size="10.00">base/std_ext/string.h</text>
</a>
</g>
</g>
<!-- Node27&#45;&gt;Node28 -->
<g id="edge39" class="edge"><title>Node27&#45;&gt;Node28</title>
<path fill="none" stroke="midnightblue" d="M310.808,-234.513C412.597,-225.651 646.56,-205.266 843.246,-188 855.352,-186.937 868.266,-185.8 880.693,-184.705"/>
<polygon fill="midnightblue" stroke="midnightblue" points="881.335,-188.162 890.988,-183.797 880.719,-181.189 881.335,-188.162"/>
</g>
<!-- Node29 -->
<g id="node30" class="node"><title>Node29</title>
<polygon fill="white" stroke="#bfbfbf" points="236.246,-168.5 236.246,-187.5 282.246,-187.5 282.246,-168.5 236.246,-168.5"/>
<text text-anchor="middle" x="259.246" y="-175.5" font-family="Helvetica,sans-Serif" font-size="10.00">cstring</text>
</g>
<!-- Node27&#45;&gt;Node29 -->
<g id="edge44" class="edge"><title>Node27&#45;&gt;Node29</title>
<path fill="none" stroke="midnightblue" d="M259.246,-230.403C259.246,-221.938 259.246,-208.728 259.246,-197.82"/>
<polygon fill="midnightblue" stroke="midnightblue" points="262.747,-197.581 259.246,-187.581 255.747,-197.581 262.747,-197.581"/>
</g>
<!-- Node27&#45;&gt;Node30 -->
<g id="edge45" class="edge"><title>Node27&#45;&gt;Node30</title>
<path fill="none" stroke="midnightblue" d="M268.703,-230.403C278.995,-221.047 295.662,-205.895 308.241,-194.46"/>
<polygon fill="midnightblue" stroke="midnightblue" points="310.763,-196.897 315.808,-187.581 306.054,-191.718 310.763,-196.897"/>
</g>
<!-- Node28&#45;&gt;Node6 -->
<g id="edge42" class="edge"><title>Node28&#45;&gt;Node6</title>
<path fill="none" stroke="midnightblue" d="M999.69,-170.379C1090.88,-159.287 1272.26,-137.228 1351.14,-127.635"/>
<polygon fill="midnightblue" stroke="midnightblue" points="1351.62,-131.102 1361.12,-126.42 1350.78,-124.153 1351.62,-131.102"/>
</g>
<!-- Node28&#45;&gt;Node10 -->
<g id="edge41" class="edge"><title>Node28&#45;&gt;Node10</title>
<path fill="none" stroke="midnightblue" d="M891.219,-171.045C830.669,-163.967 729.422,-150.923 633.42,-132.055"/>
<polygon fill="midnightblue" stroke="midnightblue" points="634.04,-128.61 623.549,-130.091 632.673,-135.476 634.04,-128.61"/>
</g>
<!-- Node28&#45;&gt;Node13 -->
<g id="edge43" class="edge"><title>Node28&#45;&gt;Node13</title>
<path fill="none" stroke="midnightblue" d="M949.979,-168.395C958.489,-153.875 977.876,-124.838 1003.25,-112 1080.92,-72.6938 1351.66,-67.6048 1445.18,-67.0355"/>
<polygon fill="midnightblue" stroke="midnightblue" points="1445.2,-70.5356 1455.18,-66.9882 1445.17,-63.5357 1445.2,-70.5356"/>
</g>
<!-- Node28&#45;&gt;Node15 -->
<g id="edge40" class="edge"><title>Node28&#45;&gt;Node15</title>
<path fill="none" stroke="midnightblue" d="M999.524,-176.008C1219.26,-171.865 2043.46,-155.088 2303.25,-132 2313.54,-131.085 2324.73,-129.61 2334.74,-128.116"/>
<polygon fill="midnightblue" stroke="midnightblue" points="2335.3,-131.57 2344.65,-126.576 2334.23,-124.653 2335.3,-131.57"/>
</g>
<!-- Node35&#45;&gt;Node10 -->
<g id="edge72" class="edge"><title>Node35&#45;&gt;Node10</title>
<path fill="none" stroke="midnightblue" d="M608.564,-230.424C585.878,-223.193 559.038,-210.315 545.246,-188 533.637,-169.216 554.412,-149.698 573.049,-137.015"/>
<polygon fill="midnightblue" stroke="midnightblue" points="575.073,-139.875 581.605,-131.533 571.297,-133.981 575.073,-139.875"/>
</g>
<!-- Node35&#45;&gt;Node34 -->
<g id="edge71" class="edge"><title>Node35&#45;&gt;Node34</title>
<path fill="none" stroke="midnightblue" d="M621.6,-230.403C590.453,-219.963 537.779,-202.307 503.005,-190.651"/>
<polygon fill="midnightblue" stroke="midnightblue" points="503.862,-187.247 493.268,-187.387 501.637,-193.884 503.862,-187.247"/>
</g>
<!-- Node36 -->
<g id="node37" class="node"><title>Node36</title>
<g id="a_node37"><a xlink:href="_detector__t_8h.html" target="_top" xlink:title="base/Detector_t.h">
<polygon fill="white" stroke="black" points="739.746,-168.5 739.746,-187.5 834.746,-187.5 834.746,-168.5 739.746,-168.5"/>
<text text-anchor="middle" x="787.246" y="-175.5" font-family="Helvetica,sans-Serif" font-size="10.00">base/Detector_t.h</text>
</a>
</g>
</g>
<!-- Node35&#45;&gt;Node36 -->
<g id="edge54" class="edge"><title>Node35&#45;&gt;Node36</title>
<path fill="none" stroke="midnightblue" d="M667.305,-230.403C691.008,-220.245 730.652,-203.255 757.829,-191.607"/>
<polygon fill="midnightblue" stroke="midnightblue" points="759.412,-194.737 767.225,-187.581 756.655,-188.303 759.412,-194.737"/>
</g>
<!-- Node36&#45;&gt;Node7 -->
<g id="edge67" class="edge"><title>Node36&#45;&gt;Node7</title>
<path fill="none" stroke="midnightblue" d="M834.926,-171.724C931.127,-161.079 1146.85,-137.208 1235.77,-127.368"/>
<polygon fill="midnightblue" stroke="midnightblue" points="1236.17,-130.846 1245.72,-126.267 1235.4,-123.888 1236.17,-130.846"/>
</g>
<!-- Node36&#45;&gt;Node13 -->
<g id="edge70" class="edge"><title>Node36&#45;&gt;Node13</title>
<path fill="none" stroke="midnightblue" d="M811.018,-168.418C857.805,-151.58 958.742,-115.537 975.246,-112 1149.3,-74.6941 1363.73,-68.2624 1444.45,-67.194"/>
<polygon fill="midnightblue" stroke="midnightblue" points="1444.98,-70.6884 1454.94,-67.0762 1444.9,-63.6889 1444.98,-70.6884"/>
</g>
<!-- Node36&#45;&gt;Node15 -->
<g id="edge68" class="edge"><title>Node36&#45;&gt;Node15</title>
<path fill="none" stroke="midnightblue" d="M835.038,-171.822C850.124,-170.362 866.867,-168.922 882.246,-168 1512.87,-130.185 1673.76,-185.472 2303.25,-132 2313.54,-131.125 2324.73,-129.661 2334.74,-128.164"/>
<polygon fill="midnightblue" stroke="midnightblue" points="2335.31,-131.617 2344.65,-126.616 2334.23,-124.701 2335.31,-131.617"/>
</g>
<!-- Node36&#45;&gt;Node31 -->
<g id="edge69" class="edge"><title>Node36&#45;&gt;Node31</title>
<path fill="none" stroke="midnightblue" d="M800.903,-168.324C814.163,-159.9 834.514,-146.971 850.093,-137.074"/>
<polygon fill="midnightblue" stroke="midnightblue" points="852.06,-139.971 858.624,-131.655 848.306,-134.063 852.06,-139.971"/>
</g>
<!-- Node36&#45;&gt;Node33 -->
<g id="edge66" class="edge"><title>Node36&#45;&gt;Node33</title>
<path fill="none" stroke="midnightblue" d="M739.588,-173.095C612.833,-162.708 269.709,-134.592 161.444,-125.72"/>
<polygon fill="midnightblue" stroke="midnightblue" points="161.679,-122.228 151.427,-124.899 161.107,-129.205 161.679,-122.228"/>
</g>
<!-- Node37 -->
<g id="node38" class="node"><title>Node37</title>
<g id="a_node38"><a xlink:href="bitflag_8h.html" target="_top" xlink:title="base/bitflag.h">
<polygon fill="white" stroke="black" points="748.746,-112.5 748.746,-131.5 823.746,-131.5 823.746,-112.5 748.746,-112.5"/>
<text text-anchor="middle" x="786.246" y="-119.5" font-family="Helvetica,sans-Serif" font-size="10.00">base/bitflag.h</text>
</a>
</g>
</g>
<!-- Node36&#45;&gt;Node37 -->
<g id="edge55" class="edge"><title>Node36&#45;&gt;Node37</title>
<path fill="none" stroke="midnightblue" d="M787.081,-168.083C786.95,-161.006 786.762,-150.861 786.598,-141.986"/>
<polygon fill="midnightblue" stroke="midnightblue" points="790.093,-141.685 786.408,-131.751 783.094,-141.814 790.093,-141.685"/>
</g>
<!-- Node39 -->
<g id="node40" class="node"><title>Node39</title>
<g id="a_node40"><a xlink:href="vec3_8h.html" target="_top" xlink:title="base/vec/vec3.h">
<polygon fill="white" stroke="black" points="641.746,-112.5 641.746,-131.5 730.746,-131.5 730.746,-112.5 641.746,-112.5"/>
<text text-anchor="middle" x="686.246" y="-119.5" font-family="Helvetica,sans-Serif" font-size="10.00">base/vec/vec3.h</text>
</a>
</g>
</g>
<!-- Node36&#45;&gt;Node39 -->
<g id="edge57" class="edge"><title>Node36&#45;&gt;Node39</title>
<path fill="none" stroke="midnightblue" d="M771.019,-168.324C754.895,-159.703 729.946,-146.364 711.282,-136.386"/>
<polygon fill="midnightblue" stroke="midnightblue" points="712.902,-133.283 702.434,-131.655 709.602,-139.456 712.902,-133.283"/>
</g>
<!-- Node41 -->
<g id="node42" class="node"><title>Node41</title>
<g id="a_node42"><a xlink:href="base_2std__ext_2math_8h.html" target="_top" xlink:title="base/std_ext/math.h">
<polygon fill="white" stroke="black" points="1045.25,-112.5 1045.25,-131.5 1151.25,-131.5 1151.25,-112.5 1045.25,-112.5"/>
<text text-anchor="middle" x="1098.25" y="-119.5" font-family="Helvetica,sans-Serif" font-size="10.00">base/std_ext/math.h</text>
</a>
</g>
</g>
<!-- Node36&#45;&gt;Node41 -->
<g id="edge62" class="edge"><title>Node36&#45;&gt;Node41</title>
<path fill="none" stroke="midnightblue" d="M834.819,-168.74C889.67,-159.216 979.872,-143.554 1039.17,-133.258"/>
<polygon fill="midnightblue" stroke="midnightblue" points="1039.88,-136.686 1049.14,-131.527 1038.69,-129.789 1039.88,-136.686"/>
</g>
<!-- Node38 -->
<g id="node39" class="node"><title>Node38</title>
<polygon fill="white" stroke="#bfbfbf" points="771.746,-56.5 771.746,-75.5 812.746,-75.5 812.746,-56.5 771.746,-56.5"/>
<text text-anchor="middle" x="792.246" y="-63.5" font-family="Helvetica,sans-Serif" font-size="10.00">bitset</text>
</g>
<!-- Node37&#45;&gt;Node38 -->
<g id="edge56" class="edge"><title>Node37&#45;&gt;Node38</title>
<path fill="none" stroke="midnightblue" d="M787.237,-112.083C788.032,-104.927 789.176,-94.6353 790.17,-85.6911"/>
<polygon fill="midnightblue" stroke="midnightblue" points="793.648,-86.0765 791.274,-75.7511 786.691,-85.3034 793.648,-86.0765"/>
</g>
<!-- Node39&#45;&gt;Node11 -->
<g id="edge61" class="edge"><title>Node39&#45;&gt;Node11</title>
<path fill="none" stroke="midnightblue" d="M686.663,-112.245C687.534,-99.4295 690.196,-75.0224 698.246,-56 702.582,-45.7563 709.561,-35.554 715.897,-27.4599"/>
<polygon fill="midnightblue" stroke="midnightblue" points="718.711,-29.5477 722.364,-19.6023 713.306,-25.0994 718.711,-29.5477"/>
</g>
<!-- Node39&#45;&gt;Node14 -->
<g id="edge60" class="edge"><title>Node39&#45;&gt;Node14</title>
<path fill="none" stroke="midnightblue" d="M731.004,-112.916C733.787,-112.564 736.552,-112.253 739.246,-112 1163.9,-72.1861 2231.81,-84.4113 2658.25,-76 2805.81,-73.0894 2981.53,-69.3789 3056.46,-67.7851"/>
<polygon fill="midnightblue" stroke="midnightblue" points="3056.84,-71.2778 3066.77,-67.5657 3056.69,-64.2794 3056.84,-71.2778"/>
</g>
<!-- Node40 -->
<g id="node41" class="node"><title>Node40</title>
<g id="a_node41"><a xlink:href="vec2_8h.html" target="_top" xlink:title="vec2.h">
<polygon fill="white" stroke="black" points="707.246,-56.5 707.246,-75.5 753.246,-75.5 753.246,-56.5 707.246,-56.5"/>
<text text-anchor="middle" x="730.246" y="-63.5" font-family="Helvetica,sans-Serif" font-size="10.00">vec2.h</text>
</a>
</g>
</g>
<!-- Node39&#45;&gt;Node40 -->
<g id="edge58" class="edge"><title>Node39&#45;&gt;Node40</title>
<path fill="none" stroke="midnightblue" d="M693.512,-112.083C699.791,-104.377 709.034,-93.0333 716.677,-83.6531"/>
<polygon fill="midnightblue" stroke="midnightblue" points="719.512,-85.7143 723.116,-75.7511 714.086,-81.2926 719.512,-85.7143"/>
</g>
<!-- Node40&#45;&gt;Node11 -->
<g id="edge59" class="edge"><title>Node40&#45;&gt;Node11</title>
<path fill="none" stroke="midnightblue" d="M730.246,-56.083C730.246,-49.0059 730.246,-38.8611 730.246,-29.9865"/>
<polygon fill="midnightblue" stroke="midnightblue" points="733.747,-29.751 730.246,-19.7511 726.747,-29.7511 733.747,-29.751"/>
</g>
<!-- Node41&#45;&gt;Node8 -->
<g id="edge64" class="edge"><title>Node41&#45;&gt;Node8</title>
<path fill="none" stroke="midnightblue" d="M1151.3,-117.058C1176.95,-115.275 1208.19,-113.285 1236.25,-112 1535.89,-98.2798 2284.76,-124.82 2599.05,-75.6446"/>
<polygon fill="midnightblue" stroke="midnightblue" points="2599.82,-79.0658 2609.14,-74.0157 2598.71,-72.1553 2599.82,-79.0658"/>
</g>
<!-- Node41&#45;&gt;Node11 -->
<g id="edge63" class="edge"><title>Node41&#45;&gt;Node11</title>
<path fill="none" stroke="midnightblue" d="M1069.68,-112.46C1002.07,-92.2528 832.687,-41.621 762.004,-20.4929"/>
<polygon fill="midnightblue" stroke="midnightblue" points="762.899,-17.1074 752.316,-17.5968 760.895,-23.8142 762.899,-17.1074"/>
</g>
<!-- Node41&#45;&gt;Node13 -->
<g id="edge65" class="edge"><title>Node41&#45;&gt;Node13</title>
<path fill="none" stroke="midnightblue" d="M1151.34,-113.435C1231.04,-102.079 1379.23,-80.9661 1444.7,-71.6371"/>
<polygon fill="midnightblue" stroke="midnightblue" points="1445.43,-75.0679 1454.84,-70.1923 1444.45,-68.1379 1445.43,-75.0679"/>
</g>
<!-- Node42&#45;&gt;Node26 -->
<g id="edge74" class="edge"><title>Node42&#45;&gt;Node26</title>
<path fill="none" stroke="midnightblue" d="M107.465,-350.486C178.791,-339.482 321.511,-317.462 384.342,-307.768"/>
<polygon fill="midnightblue" stroke="midnightblue" points="385.066,-311.198 394.416,-306.214 383.999,-304.28 385.066,-311.198"/>
</g>
<!-- Node42&#45;&gt;Node27 -->
<g id="edge75" class="edge"><title>Node42&#45;&gt;Node27</title>
<path fill="none" stroke="midnightblue" d="M79.5117,-348.47C112.796,-328.569 195.824,-278.922 236.316,-254.711"/>
<polygon fill="midnightblue" stroke="midnightblue" points="238.174,-257.678 244.96,-249.542 234.581,-251.67 238.174,-257.678"/>
</g>
<!-- Node42&#45;&gt;Node32 -->
<g id="edge77" class="edge"><title>Node42&#45;&gt;Node32</title>
<path fill="none" stroke="midnightblue" d="M49.4631,-348.467C37.0437,-340.769 20.6413,-328.179 13.2464,-312 -13.0421,-254.485 8.03442,-176.799 20.1727,-141.649"/>
<polygon fill="midnightblue" stroke="midnightblue" points="23.6209,-142.405 23.7282,-131.811 17.0377,-140.026 23.6209,-142.405"/>
</g>
<!-- Node42&#45;&gt;Node33 -->
<g id="edge76" class="edge"><title>Node42&#45;&gt;Node33</title>
<path fill="none" stroke="midnightblue" d="M64.6177,-348.239C62.9768,-320.449 60.5061,-232.323 89.2464,-168 94.1175,-157.098 102.532,-146.873 110.301,-138.934"/>
<polygon fill="midnightblue" stroke="midnightblue" points="112.92,-141.271 117.699,-131.816 108.066,-136.227 112.92,-141.271"/>
</g>
<!-- Node43&#45;&gt;Node14 -->
<g id="edge82" class="edge"><title>Node43&#45;&gt;Node14</title>
<path fill="none" stroke="midnightblue" d="M3043.48,-168.368C3052.32,-150.376 3072.85,-108.55 3084.59,-84.6267"/>
<polygon fill="midnightblue" stroke="midnightblue" points="3087.76,-86.1105 3089.03,-75.5914 3081.48,-83.0257 3087.76,-86.1105"/>
</g>
<!-- Node44 -->
<g id="node45" class="node"><title>Node44</title>
<g id="a_node45"><a xlink:href="_format_8h.html" target="_top" xlink:title="base/Format.h">
<polygon fill="white" stroke="black" points="2518.25,-112.5 2518.25,-131.5 2598.25,-131.5 2598.25,-112.5 2518.25,-112.5"/>
<text text-anchor="middle" x="2558.25" y="-119.5" font-family="Helvetica,sans-Serif" font-size="10.00">base/Format.h</text>
</a>
</g>
</g>
<!-- Node43&#45;&gt;Node44 -->
<g id="edge79" class="edge"><title>Node43&#45;&gt;Node44</title>
<path fill="none" stroke="midnightblue" d="M2982.68,-169.742C2977.8,-169.143 2972.94,-168.554 2968.25,-168 2838.86,-152.7 2686.29,-136.418 2608.85,-128.278"/>
<polygon fill="midnightblue" stroke="midnightblue" points="2608.74,-124.747 2598.43,-127.184 2608.01,-131.709 2608.74,-124.747"/>
</g>
<!-- Node44&#45;&gt;Node13 -->
<g id="edge81" class="edge"><title>Node44&#45;&gt;Node13</title>
<path fill="none" stroke="midnightblue" d="M2518.22,-113.773C2513.52,-113.089 2508.78,-112.476 2504.25,-112 2114.03,-71.0859 1636.64,-67.2565 1509.57,-66.9909"/>
<polygon fill="midnightblue" stroke="midnightblue" points="1509.37,-63.4907 1499.36,-66.976 1509.36,-70.4907 1509.37,-63.4907"/>
</g>
<!-- Node45 -->
<g id="node46" class="node"><title>Node45</title>
<polygon fill="white" stroke="#bfbfbf" points="2521.25,-56.5 2521.25,-75.5 2591.25,-75.5 2591.25,-56.5 2521.25,-56.5"/>
<text text-anchor="middle" x="2556.25" y="-63.5" font-family="Helvetica,sans-Serif" font-size="10.00">fmt/format.h</text>
</g>
<!-- Node44&#45;&gt;Node45 -->
<g id="edge80" class="edge"><title>Node44&#45;&gt;Node45</title>
<path fill="none" stroke="midnightblue" d="M2557.92,-112.083C2557.65,-105.006 2557.28,-94.8611 2556.95,-85.9865"/>
<polygon fill="midnightblue" stroke="midnightblue" points="2560.44,-85.6147 2556.57,-75.7511 2553.44,-85.8738 2560.44,-85.6147"/>
</g>
<!-- Node46&#45;&gt;Node10 -->
<g id="edge89" class="edge"><title>Node46&#45;&gt;Node10</title>
<path fill="none" stroke="midnightblue" d="M443.225,-355.859C361.028,-351.413 172.499,-329.711 198.246,-224 204.879,-196.768 204.225,-183.987 227.246,-168 280.711,-130.871 478.65,-124.308 560.97,-123.199"/>
<polygon fill="midnightblue" stroke="midnightblue" points="561.147,-126.697 571.106,-123.083 561.067,-119.698 561.147,-126.697"/>
</g>
<!-- Node46&#45;&gt;Node13 -->
<g id="edge87" class="edge"><title>Node46&#45;&gt;Node13</title>
<path fill="none" stroke="midnightblue" d="M517.324,-355.92C612.045,-352.754 860.823,-341.767 937.246,-312 971.703,-298.579 1169.24,-126.527 1203.25,-112 1285.36,-76.9185 1392.1,-69.045 1444.84,-67.3727"/>
<polygon fill="midnightblue" stroke="midnightblue" points="1445.04,-70.8688 1454.94,-67.1085 1444.85,-63.8712 1445.04,-70.8688"/>
</g>
<!-- Node46&#45;&gt;Node26 -->
<g id="edge84" class="edge"><title>Node46&#45;&gt;Node26</title>
<path fill="none" stroke="midnightblue" d="M469.803,-348.324C460.1,-340.263 445.431,-328.077 433.747,-318.369"/>
<polygon fill="midnightblue" stroke="midnightblue" points="435.808,-315.532 425.88,-311.834 431.335,-320.916 435.808,-315.532"/>
</g>
<!-- Node46&#45;&gt;Node34 -->
<g id="edge88" class="edge"><title>Node46&#45;&gt;Node34</title>
<path fill="none" stroke="midnightblue" d="M479.668,-348.415C477.835,-321.227 472.127,-236.563 469.542,-198.217"/>
<polygon fill="midnightblue" stroke="midnightblue" points="473.012,-197.66 468.848,-187.918 466.028,-198.131 473.012,-197.66"/>
</g>
<!-- Node47 -->
<g id="node48" class="node"><title>Node47</title>
<g id="a_node48"><a xlink:href="_lorentz_vec_8h.html" target="_top" xlink:title="base/vec/LorentzVec.h">
<polygon fill="white" stroke="black" points="565.746,-292.5 565.746,-311.5 682.746,-311.5 682.746,-292.5 565.746,-292.5"/>
<text text-anchor="middle" x="624.246" y="-299.5" font-family="Helvetica,sans-Serif" font-size="10.00">base/vec/LorentzVec.h</text>
</a>
</g>
</g>
<!-- Node46&#45;&gt;Node47 -->
<g id="edge85" class="edge"><title>Node46&#45;&gt;Node47</title>
<path fill="none" stroke="midnightblue" d="M503.064,-348.444C527.078,-339.438 565.075,-325.189 592.116,-315.049"/>
<polygon fill="midnightblue" stroke="midnightblue" points="593.402,-318.305 601.536,-311.516 590.944,-311.751 593.402,-318.305"/>
</g>
<!-- Node47&#45;&gt;Node39 -->
<g id="edge86" class="edge"><title>Node47&#45;&gt;Node39</title>
<path fill="none" stroke="midnightblue" d="M657.233,-292.438C675.709,-285.769 697.198,-274.453 708.246,-256 715.552,-243.798 714.669,-236.689 708.246,-224 696.042,-199.889 671.451,-212.111 659.246,-188 651.098,-171.902 661.331,-152.75 671.453,-139.422"/>
<polygon fill="midnightblue" stroke="midnightblue" points="674.242,-141.542 677.894,-131.596 668.837,-137.093 674.242,-141.542"/>
</g>
<!-- Node48&#45;&gt;Node5 -->
<g id="edge91" class="edge"><title>Node48&#45;&gt;Node5</title>
<path fill="none" stroke="midnightblue" d="M1923.55,-230.303C1928.12,-214.939 1939.87,-183.183 1962.25,-168 2006.17,-138.205 2164,-127.64 2235.1,-124.336"/>
<polygon fill="midnightblue" stroke="midnightblue" points="2235.5,-127.822 2245.33,-123.883 2235.19,-120.829 2235.5,-127.822"/>
</g>
<!-- Node48&#45;&gt;Node8 -->
<g id="edge93" class="edge"><title>Node48&#45;&gt;Node8</title>
<path fill="none" stroke="midnightblue" d="M1952.1,-235.092C2082.33,-218.478 2581.6,-153.586 2607.25,-132 2620.76,-120.63 2626,-100.637 2628.02,-85.8172"/>
<polygon fill="midnightblue" stroke="midnightblue" points="2631.51,-86.0175 2629.01,-75.7216 2624.55,-85.3284 2631.51,-86.0175"/>
</g>
<!-- Node48&#45;&gt;Node13 -->
<g id="edge92" class="edge"><title>Node48&#45;&gt;Node13</title>
<path fill="none" stroke="midnightblue" d="M1901.21,-230.343C1894.92,-227.939 1887.89,-225.563 1881.25,-224 1805.78,-206.245 1597.48,-232.853 1534.25,-188 1516.45,-175.376 1494.07,-116.084 1483.42,-85.4417"/>
<polygon fill="midnightblue" stroke="midnightblue" points="1486.6,-83.9226 1480.06,-75.5881 1479.97,-86.1826 1486.6,-83.9226"/>
</g>
<!-- Node48&#45;&gt;Node18 -->
<g id="edge94" class="edge"><title>Node48&#45;&gt;Node18</title>
<path fill="none" stroke="midnightblue" d="M1901.63,-230.464C1895.24,-228.005 1888.04,-225.566 1881.25,-224 1715.94,-185.884 1669.96,-205.724 1501.25,-188 1487.66,-186.573 1472.76,-184.884 1459.65,-183.357"/>
<polygon fill="midnightblue" stroke="midnightblue" points="1459.93,-179.865 1449.59,-182.175 1459.11,-186.817 1459.93,-179.865"/>
</g>
<!-- Node49&#45;&gt;Node5 -->
<g id="edge96" class="edge"><title>Node49&#45;&gt;Node5</title>
<path fill="none" stroke="midnightblue" d="M1544.82,-233.745C1613.93,-221.535 1791.4,-190.577 1940.25,-168 2047.57,-151.722 2174.95,-135.119 2235.25,-127.421"/>
<polygon fill="midnightblue" stroke="midnightblue" points="2235.89,-130.868 2245.37,-126.133 2235.01,-123.924 2235.89,-130.868"/>
</g>
<!-- Node49&#45;&gt;Node17 -->
<g id="edge99" class="edge"><title>Node49&#45;&gt;Node17</title>
<path fill="none" stroke="midnightblue" d="M1538.03,-230.403C1567.81,-219.166 1619.74,-199.568 1650.15,-188.092"/>
<polygon fill="midnightblue" stroke="midnightblue" points="1651.46,-191.34 1659.58,-184.535 1648.99,-184.791 1651.46,-191.34"/>
</g>
<!-- Node49&#45;&gt;Node18 -->
<g id="edge100" class="edge"><title>Node49&#45;&gt;Node18</title>
<path fill="none" stroke="midnightblue" d="M1502.07,-230.403C1487.17,-220.691 1462.7,-204.732 1444.97,-193.17"/>
<polygon fill="midnightblue" stroke="midnightblue" points="1446.69,-190.112 1436.4,-187.581 1442.87,-195.975 1446.69,-190.112"/>
</g>
<!-- Node49&#45;&gt;Node39 -->
<g id="edge98" class="edge"><title>Node49&#45;&gt;Node39</title>
<path fill="none" stroke="midnightblue" d="M1485.4,-232.25C1470.93,-229.238 1453.26,-225.938 1437.25,-224 1359.16,-214.55 798.767,-226.625 730.246,-188 712.114,-177.778 699.955,-156.613 693.096,-141.203"/>
<polygon fill="midnightblue" stroke="midnightblue" points="696.216,-139.586 689.187,-131.659 689.739,-142.24 696.216,-139.586"/>
</g>
<!-- Node49&#45;&gt;Node41 -->
<g id="edge97" class="edge"><title>Node49&#45;&gt;Node41</title>
<path fill="none" stroke="midnightblue" d="M1485.59,-230.751C1412.19,-210.333 1221.97,-157.418 1138.51,-134.2"/>
<polygon fill="midnightblue" stroke="midnightblue" points="1139.45,-130.828 1128.87,-131.52 1137.57,-137.572 1139.45,-130.828"/>
</g>
<!-- Node50&#45;&gt;Node10 -->
<g id="edge114" class="edge"><title>Node50&#45;&gt;Node10</title>
<path fill="none" stroke="midnightblue" d="M870.619,-292.381C846.047,-284.291 809.438,-271.183 779.246,-256 729.242,-230.853 718.176,-221.379 673.246,-188 652.08,-172.275 629.279,-152.331 614.233,-138.708"/>
<polygon fill="midnightblue" stroke="midnightblue" points="616.476,-136.016 606.731,-131.857 611.755,-141.185 616.476,-136.016"/>
</g>
<!-- Node50&#45;&gt;Node11 -->
<g id="edge112" class="edge"><title>Node50&#45;&gt;Node11</title>
<path fill="none" stroke="midnightblue" d="M866.999,-299.492C732.766,-292.954 211.266,-266.889 198.246,-256 171.208,-233.386 179.246,-214.249 179.246,-179 179.246,-179 179.246,-179 179.246,-121 179.246,-14.5815 579.5,-9.65825 697.736,-10.5255"/>
<polygon fill="midnightblue" stroke="midnightblue" points="697.932,-14.0274 707.964,-10.6208 697.997,-7.02769 697.932,-14.0274"/>
</g>
<!-- Node50&#45;&gt;Node13 -->
<g id="edge111" class="edge"><title>Node50&#45;&gt;Node13</title>
<path fill="none" stroke="midnightblue" d="M900.538,-292.289C905.014,-276.769 916.271,-244.08 936.246,-224 961.479,-198.636 984.386,-214.659 1008.25,-188 1032.25,-161.177 1007.8,-134.063 1036.25,-112 1068.45,-87.0222 1349.25,-72.5715 1445.24,-68.3269"/>
<polygon fill="midnightblue" stroke="midnightblue" points="1445.39,-71.8236 1455.23,-67.8925 1445.09,-64.8302 1445.39,-71.8236"/>
</g>
<!-- Node50&#45;&gt;Node18 -->
<g id="edge115" class="edge"><title>Node50&#45;&gt;Node18</title>
<path fill="none" stroke="midnightblue" d="M929.357,-300.016C991.333,-297.404 1134.15,-288.111 1249.25,-256 1305.14,-240.407 1366.25,-209.959 1399.11,-192.384"/>
<polygon fill="midnightblue" stroke="midnightblue" points="1400.85,-195.42 1407.98,-187.582 1397.52,-189.264 1400.85,-195.42"/>
</g>
<!-- Node50&#45;&gt;Node34 -->
<g id="edge113" class="edge"><title>Node50&#45;&gt;Node34</title>
<path fill="none" stroke="midnightblue" d="M866.994,-298.458C798.403,-292.563 636.769,-276.857 586.246,-256 564.227,-246.91 563.04,-237.256 543.246,-224 526.687,-212.91 507.393,-201.363 492.521,-192.743"/>
<polygon fill="midnightblue" stroke="midnightblue" points="493.875,-189.484 483.461,-187.535 490.386,-195.553 493.875,-189.484"/>
</g>
<!-- Node50&#45;&gt;Node35 -->
<g id="edge102" class="edge"><title>Node50&#45;&gt;Node35</title>
<path fill="none" stroke="midnightblue" d="M867.217,-293.583C823.533,-283.14 743.602,-264.033 693.065,-251.953"/>
<polygon fill="midnightblue" stroke="midnightblue" points="693.6,-248.482 683.061,-249.561 691.973,-255.29 693.6,-248.482"/>
</g>
<!-- Node50&#45;&gt;Node36 -->
<g id="edge103" class="edge"><title>Node50&#45;&gt;Node36</title>
<path fill="none" stroke="midnightblue" d="M890.264,-292.226C871.783,-271.914 825.827,-221.404 802.038,-195.258"/>
<polygon fill="midnightblue" stroke="midnightblue" points="804.476,-192.736 795.157,-187.694 799.298,-197.447 804.476,-192.736"/>
</g>
<!-- Node50&#45;&gt;Node39 -->
<g id="edge110" class="edge"><title>Node50&#45;&gt;Node39</title>
<path fill="none" stroke="midnightblue" d="M884.071,-292.367C869.475,-283.425 846.121,-268.97 826.246,-256 805.083,-242.189 801.11,-236.672 779.246,-224 747.603,-205.66 728.842,-215.945 705.246,-188 694.234,-174.958 689.602,-155.802 687.654,-141.662"/>
<polygon fill="midnightblue" stroke="midnightblue" points="691.124,-141.19 686.598,-131.61 684.162,-141.921 691.124,-141.19"/>
</g>
<!-- Node50&#45;&gt;Node41 -->
<g id="edge104" class="edge"><title>Node50&#45;&gt;Node41</title>
<path fill="none" stroke="midnightblue" d="M905.161,-292.392C918.141,-276.744 947.708,-243.459 979.246,-224 1019.45,-199.196 1046.88,-222.407 1079.25,-188 1090.94,-175.566 1095.48,-156.329 1097.22,-142.004"/>
<polygon fill="midnightblue" stroke="midnightblue" points="1100.73,-142.056 1098.1,-131.793 1093.76,-141.457 1100.73,-142.056"/>
</g>
<!-- Node51 -->
<g id="node52" class="node"><title>Node51</title>
<g id="a_node52"><a xlink:href="shared__ptr__container_8h.html" target="_top" xlink:title="base/std_ext/shared\l_ptr_container.h">
<polygon fill="white" stroke="black" points="1135.75,-225 1135.75,-255 1240.75,-255 1240.75,-225 1135.75,-225"/>
<text text-anchor="start" x="1143.75" y="-243" font-family="Helvetica,sans-Serif" font-size="10.00">base/std_ext/shared</text>
<text text-anchor="middle" x="1188.25" y="-232" font-family="Helvetica,sans-Serif" font-size="10.00">_ptr_container.h</text>
</a>
</g>
</g>
<!-- Node50&#45;&gt;Node51 -->
<g id="edge105" class="edge"><title>Node50&#45;&gt;Node51</title>
<path fill="none" stroke="midnightblue" d="M929.281,-294.579C975.996,-284.914 1065.34,-266.429 1125.87,-253.906"/>
<polygon fill="midnightblue" stroke="midnightblue" points="1126.61,-257.327 1135.69,-251.873 1125.19,-250.472 1126.61,-257.327"/>
</g>
<!-- Node51&#45;&gt;Node6 -->
<g id="edge109" class="edge"><title>Node51&#45;&gt;Node6</title>
<path fill="none" stroke="midnightblue" d="M1228.11,-224.971C1251.85,-215.88 1282.15,-202.962 1307.25,-188 1331.43,-173.583 1356.39,-152.799 1372.32,-138.641"/>
<polygon fill="midnightblue" stroke="midnightblue" points="1374.69,-141.209 1379.77,-131.91 1370,-136.013 1374.69,-141.209"/>
</g>
<!-- Node51&#45;&gt;Node13 -->
<g id="edge106" class="edge"><title>Node51&#45;&gt;Node13</title>
<path fill="none" stroke="midnightblue" d="M1206.78,-224.999C1220.26,-214.79 1238.93,-200.599 1255.25,-188 1298.59,-154.524 1304.32,-138.501 1352.25,-112 1382.18,-95.4476 1419.39,-82.9704 1445.39,-75.4023"/>
<polygon fill="midnightblue" stroke="midnightblue" points="1446.44,-78.7421 1455.11,-72.6498 1444.54,-72.0069 1446.44,-78.7421"/>
</g>
<!-- Node51&#45;&gt;Node18 -->
<g id="edge107" class="edge"><title>Node51&#45;&gt;Node18</title>
<path fill="none" stroke="midnightblue" d="M1240.98,-225.535C1285.58,-214.149 1348.28,-198.141 1387.3,-188.178"/>
<polygon fill="midnightblue" stroke="midnightblue" points="1388.34,-191.525 1397.16,-185.66 1386.61,-184.743 1388.34,-191.525"/>
</g>
<!-- Node51&#45;&gt;Node19 -->
<g id="edge108" class="edge"><title>Node51&#45;&gt;Node19</title>
<path fill="none" stroke="midnightblue" d="M1240.97,-230.783C1318.93,-218.633 1463.26,-196.141 1533.19,-185.242"/>
<polygon fill="midnightblue" stroke="midnightblue" points="1534.01,-188.657 1543.35,-183.659 1532.93,-181.74 1534.01,-188.657"/>
</g>
<!-- Node52&#45;&gt;Node6 -->
<g id="edge123" class="edge"><title>Node52&#45;&gt;Node6</title>
<path fill="none" stroke="midnightblue" d="M1071.95,-348.496C1123.07,-327.616 1253.02,-269.525 1336.25,-188 1351.63,-172.933 1366.92,-153.584 1377.1,-139.928"/>
<polygon fill="midnightblue" stroke="midnightblue" points="1380.18,-141.642 1383.27,-131.505 1374.54,-137.507 1380.18,-141.642"/>
</g>
<!-- Node52&#45;&gt;Node10 -->
<g id="edge121" class="edge"><title>Node52&#45;&gt;Node10</title>
<path fill="none" stroke="midnightblue" d="M1012.62,-353.66C938.815,-346.803 777.703,-330.241 725.246,-312 708.687,-306.242 707.66,-298.16 691.246,-292 610.37,-261.649 576.331,-296.906 500.246,-256 457.187,-232.849 404.632,-206.898 434.246,-168 449.525,-147.932 517.73,-134.53 560.928,-127.886"/>
<polygon fill="midnightblue" stroke="midnightblue" points="561.682,-131.313 571.059,-126.381 560.654,-124.389 561.682,-131.313"/>
</g>
<!-- Node52&#45;&gt;Node13 -->
<g id="edge119" class="edge"><title>Node52&#45;&gt;Node13</title>
<path fill="none" stroke="midnightblue" d="M1052.36,-348.437C1058.19,-326.082 1076.26,-264.861 1108.25,-224 1124.47,-203.281 1135.18,-205.023 1155.25,-188 1192.89,-156.062 1192.21,-134.316 1236.25,-112 1304.9,-77.2068 1396.81,-69.1141 1444.87,-67.3615"/>
<polygon fill="midnightblue" stroke="midnightblue" points="1445.1,-70.8563 1454.99,-67.0638 1444.89,-63.8593 1445.1,-70.8563"/>
</g>
<!-- Node52&#45;&gt;Node18 -->
<g id="edge122" class="edge"><title>Node52&#45;&gt;Node18</title>
<path fill="none" stroke="midnightblue" d="M1087.76,-357.099C1170.39,-356.583 1364.79,-351.124 1415.25,-312 1447.11,-287.296 1443.3,-263.857 1437.25,-224 1435.88,-215.001 1433.06,-205.325 1430.3,-197.26"/>
<polygon fill="midnightblue" stroke="midnightblue" points="1433.56,-195.976 1426.85,-187.778 1426.98,-198.372 1433.56,-195.976"/>
</g>
<!-- Node52&#45;&gt;Node34 -->
<g id="edge120" class="edge"><title>Node52&#45;&gt;Node34</title>
<path fill="none" stroke="midnightblue" d="M1012.72,-349.468C952.218,-337.33 829.37,-312.71 725.246,-292 644.374,-275.915 615.73,-295.308 543.246,-256 516.425,-241.455 493.271,-214.08 480.041,-196.197"/>
<polygon fill="midnightblue" stroke="midnightblue" points="482.722,-193.929 474.06,-187.829 477.027,-197.999 482.722,-193.929"/>
</g>
<!-- Node52&#45;&gt;Node36 -->
<g id="edge118" class="edge"><title>Node52&#45;&gt;Node36</title>
<path fill="none" stroke="midnightblue" d="M1038.15,-348.461C1007.88,-327.145 926.347,-270.003 857.246,-224 841.515,-213.527 823.583,-202.007 809.807,-193.245"/>
<polygon fill="midnightblue" stroke="midnightblue" points="811.331,-190.067 801.012,-187.666 807.582,-195.978 811.331,-190.067"/>
</g>
<!-- Node52&#45;&gt;Node50 -->
<g id="edge117" class="edge"><title>Node52&#45;&gt;Node50</title>
<path fill="none" stroke="midnightblue" d="M1026.16,-348.444C1000.7,-339.399 960.353,-325.064 931.787,-314.916"/>
<polygon fill="midnightblue" stroke="midnightblue" points="932.813,-311.566 922.219,-311.516 930.47,-318.162 932.813,-311.566"/>
</g>
<!-- Node53&#45;&gt;Node5 -->
<g id="edge126" class="edge"><title>Node53&#45;&gt;Node5</title>
<path fill="none" stroke="midnightblue" d="M1784.32,-410.513C1833.29,-406.01 1929.14,-394.405 2006.25,-368 2024.3,-361.817 2026.5,-355.014 2044.25,-348 2100.4,-325.809 2119.38,-334.919 2175.25,-312 2222.37,-292.665 2249.49,-299.946 2275.25,-256 2296.4,-219.907 2285.13,-168.341 2276.72,-141.242"/>
<polygon fill="midnightblue" stroke="midnightblue" points="2279.97,-139.927 2273.5,-131.539 2273.33,-142.133 2279.97,-139.927"/>
</g>
<!-- Node53&#45;&gt;Node13 -->
<g id="edge148" class="edge"><title>Node53&#45;&gt;Node13</title>
<path fill="none" stroke="midnightblue" d="M1750.54,-404.175C1744.2,-373.807 1718.99,-272.816 1656.25,-224 1605.2,-184.283 1564.38,-230.058 1515.25,-188 1485.1,-162.192 1478.56,-112.74 1477.34,-85.7342"/>
<polygon fill="midnightblue" stroke="midnightblue" points="1480.84,-85.5775 1477.09,-75.6689 1473.84,-85.7539 1480.84,-85.5775"/>
</g>
<!-- Node53&#45;&gt;Node17 -->
<g id="edge149" class="edge"><title>Node53&#45;&gt;Node17</title>
<path fill="none" stroke="midnightblue" d="M1779.07,-404.483C1819.79,-391.653 1899.72,-366.866 1968.25,-348 2031.85,-330.49 2071.65,-363.998 2112.25,-312 2117.72,-304.994 2113.75,-300.761 2112.25,-292 2106.84,-260.411 2113.53,-243.695 2088.25,-224 2021.86,-172.291 1798.6,-205.1 1698.63,-187.186"/>
<polygon fill="midnightblue" stroke="midnightblue" points="1699.28,-183.746 1688.78,-185.155 1697.87,-190.602 1699.28,-183.746"/>
</g>
<!-- Node53&#45;&gt;Node18 -->
<g id="edge151" class="edge"><title>Node53&#45;&gt;Node18</title>
<path fill="none" stroke="midnightblue" d="M1743.53,-404.49C1734.82,-395.761 1721.33,-381.577 1711.25,-368 1666.81,-308.148 1685.68,-267.649 1625.25,-224 1565.46,-180.813 1535.23,-204.095 1463.25,-188 1462,-187.72 1460.72,-187.436 1459.44,-187.148"/>
<polygon fill="midnightblue" stroke="midnightblue" points="1460.02,-183.691 1449.49,-184.916 1458.49,-190.521 1460.02,-183.691"/>
</g>
<!-- Node53&#45;&gt;Node47 -->
<g id="edge147" class="edge"><title>Node53&#45;&gt;Node47</title>
<path fill="none" stroke="midnightblue" d="M1720.02,-412.328C1615.94,-409.889 1279.54,-399.894 1003.25,-368 885.043,-354.355 747.719,-328.202 675.196,-313.573"/>
<polygon fill="midnightblue" stroke="midnightblue" points="675.472,-310.057 664.976,-311.501 674.081,-316.918 675.472,-310.057"/>
</g>
<!-- Node53&#45;&gt;Node52 -->
<g id="edge125" class="edge"><title>Node53&#45;&gt;Node52</title>
<path fill="none" stroke="midnightblue" d="M1719.8,-410.504C1607.03,-401.83 1231.83,-372.968 1098.1,-362.681"/>
<polygon fill="midnightblue" stroke="midnightblue" points="1098.01,-359.164 1087.78,-361.887 1097.48,-366.144 1098.01,-359.164"/>
</g>
<!-- Node54 -->
<g id="node55" class="node"><title>Node54</title>
<g id="a_node55"><a xlink:href="_particle_type_8h.html" target="_top" xlink:title="base/ParticleType.h">
<polygon fill="white" stroke="black" points="2684.25,-230.5 2684.25,-249.5 2788.25,-249.5 2788.25,-230.5 2684.25,-230.5"/>
<text text-anchor="middle" x="2736.25" y="-237.5" font-family="Helvetica,sans-Serif" font-size="10.00">base/ParticleType.h</text>
</a>
</g>
</g>
<!-- Node53&#45;&gt;Node54 -->
<g id="edge127" class="edge"><title>Node53&#45;&gt;Node54</title>
<path fill="none" stroke="midnightblue" d="M1784.26,-408.313C1838.03,-400.385 1949.88,-383.658 2044.25,-368 2324.8,-321.45 2395.91,-314.354 2674.25,-256 2680.15,-254.763 2686.34,-253.373 2692.44,-251.952"/>
<polygon fill="midnightblue" stroke="midnightblue" points="2693.62,-255.269 2702.54,-249.552 2692.01,-248.458 2693.62,-255.269"/>
</g>
<!-- Node57 -->
<g id="node58" class="node"><title>Node57</title>
<g id="a_node58"><a xlink:href="_tree_8h.html" target="_top" xlink:title="base/Tree.h">
<polygon fill="white" stroke="black" points="2198.25,-230.5 2198.25,-249.5 2266.25,-249.5 2266.25,-230.5 2198.25,-230.5"/>
<text text-anchor="middle" x="2232.25" y="-237.5" font-family="Helvetica,sans-Serif" font-size="10.00">base/Tree.h</text>
</a>
</g>
</g>
<!-- Node53&#45;&gt;Node57 -->
<g id="edge135" class="edge"><title>Node53&#45;&gt;Node57</title>
<path fill="none" stroke="midnightblue" d="M1784.57,-408.229C1827.23,-401.49 1904.39,-387.759 1968.25,-368 1990.32,-361.168 1994.4,-355.543 2016.25,-348 2072.92,-328.433 2093.07,-339.693 2146.25,-312 2173.99,-297.551 2200.97,-273.061 2217.1,-256.959"/>
<polygon fill="midnightblue" stroke="midnightblue" points="2219.6,-259.402 2224.1,-249.808 2214.6,-254.504 2219.6,-259.402"/>
</g>
<!-- Node63 -->
<g id="node64" class="node"><title>Node63</title>
<polygon fill="white" stroke="#bfbfbf" points="1753.25,-348.5 1753.25,-367.5 1807.25,-367.5 1807.25,-348.5 1753.25,-348.5"/>
<text text-anchor="middle" x="1780.25" y="-355.5" font-family="Helvetica,sans-Serif" font-size="10.00">iostream</text>
</g>
<!-- Node53&#45;&gt;Node63 -->
<g id="edge150" class="edge"><title>Node53&#45;&gt;Node63</title>
<path fill="none" stroke="midnightblue" d="M1756.87,-404.083C1760.7,-396.691 1766.27,-385.953 1771.01,-376.811"/>
<polygon fill="midnightblue" stroke="midnightblue" points="1774.21,-378.24 1775.71,-367.751 1768,-375.018 1774.21,-378.24"/>
</g>
<!-- Node54&#45;&gt;Node4 -->
<g id="edge129" class="edge"><title>Node54&#45;&gt;Node4</title>
<path fill="none" stroke="midnightblue" d="M2707.88,-230.403C2673.33,-219.933 2614.82,-202.205 2576.36,-190.55"/>
<polygon fill="midnightblue" stroke="midnightblue" points="2577.15,-187.131 2566.56,-187.581 2575.12,-193.83 2577.15,-187.131"/>
</g>
<!-- Node54&#45;&gt;Node5 -->
<g id="edge128" class="edge"><title>Node54&#45;&gt;Node5</title>
<path fill="none" stroke="midnightblue" d="M2722.04,-230.41C2696.2,-215.214 2639.37,-183.717 2587.25,-168 2583.87,-166.983 2386.73,-139.312 2305.08,-127.875"/>
<polygon fill="midnightblue" stroke="midnightblue" points="2305.2,-124.358 2294.81,-126.437 2304.23,-131.29 2305.2,-124.358"/>
</g>
<!-- Node54&#45;&gt;Node13 -->
<g id="edge134" class="edge"><title>Node54&#45;&gt;Node13</title>
<path fill="none" stroke="midnightblue" d="M2725.82,-230.417C2707.19,-215.517 2666.47,-184.845 2627.25,-168 2563.85,-140.772 2541.69,-153.839 2476.25,-132 2455.1,-124.943 2451.96,-117.053 2430.25,-112 2249.45,-69.9238 1654.69,-67.0308 1509.45,-66.9624"/>
<polygon fill="midnightblue" stroke="midnightblue" points="1509.41,-63.4625 1499.41,-66.962 1509.41,-70.4625 1509.41,-63.4625"/>
</g>
<!-- Node54&#45;&gt;Node14 -->
<g id="edge131" class="edge"><title>Node54&#45;&gt;Node14</title>
<path fill="none" stroke="midnightblue" d="M2788.39,-236.171C2891.92,-230.019 3115.46,-213.864 3138.25,-188 3160.58,-162.657 3151.17,-143.207 3138.25,-112 3133.33,-100.121 3123.58,-89.7428 3114.41,-81.9557"/>
<polygon fill="midnightblue" stroke="midnightblue" points="3116.33,-79.0101 3106.31,-75.5641 3111.99,-84.5058 3116.33,-79.0101"/>
</g>
<!-- Node54&#45;&gt;Node15 -->
<g id="edge130" class="edge"><title>Node54&#45;&gt;Node15</title>
<path fill="none" stroke="midnightblue" d="M2755.22,-230.412C2781.91,-217.216 2825.06,-191.058 2804.25,-168 2797.37,-160.386 2494.6,-134.005 2395.96,-125.596"/>
<polygon fill="midnightblue" stroke="midnightblue" points="2396.01,-122.088 2385.75,-124.728 2395.42,-129.063 2396.01,-122.088"/>
</g>
<!-- Node54&#45;&gt;Node55 -->
<g id="edge132" class="edge"><title>Node54&#45;&gt;Node55</title>
<path fill="none" stroke="midnightblue" d="M2755.45,-230.403C2778.42,-220.117 2817.04,-202.826 2843.07,-191.17"/>
<polygon fill="midnightblue" stroke="midnightblue" points="2844.67,-194.286 2852.37,-187.005 2841.81,-187.898 2844.67,-194.286"/>
</g>
<!-- Node56 -->
<g id="node57" class="node"><title>Node56</title>
<polygon fill="white" stroke="#bfbfbf" points="2748.75,-168.5 2748.75,-187.5 2795.75,-187.5 2795.75,-168.5 2748.75,-168.5"/>
<text text-anchor="middle" x="2772.25" y="-175.5" font-family="Helvetica,sans-Serif" font-size="10.00">iterator</text>
</g>
<!-- Node54&#45;&gt;Node56 -->
<g id="edge133" class="edge"><title>Node54&#45;&gt;Node56</title>
<path fill="none" stroke="midnightblue" d="M2741.4,-230.403C2746.7,-221.582 2755.08,-207.608 2761.77,-196.455"/>
<polygon fill="midnightblue" stroke="midnightblue" points="2764.95,-197.956 2767.1,-187.581 2758.95,-194.355 2764.95,-197.956"/>
</g>
<!-- Node57&#45;&gt;Node6 -->
<g id="edge143" class="edge"><title>Node57&#45;&gt;Node6</title>
<path fill="none" stroke="midnightblue" d="M2207.56,-230.349C2200.14,-228.004 2191.93,-225.658 2184.25,-224 2056,-196.32 2020.28,-211.768 1891.25,-188 1854.78,-181.282 1846.77,-174.43 1810.25,-168 1670.35,-143.369 1501.76,-130.282 1427.52,-125.346"/>
<polygon fill="midnightblue" stroke="midnightblue" points="1427.47,-121.836 1417.26,-124.677 1427.01,-128.821 1427.47,-121.836"/>
</g>
<!-- Node57&#45;&gt;Node13 -->
<g id="edge142" class="edge"><title>Node57&#45;&gt;Node13</title>
<path fill="none" stroke="midnightblue" d="M2207.02,-230.379C2199.73,-228.089 2191.72,-225.765 2184.25,-224 2086.96,-201.035 2058.16,-216.126 1962.25,-188 1880.88,-164.14 1868.81,-135.184 1787.25,-112 1688.47,-83.9233 1566.75,-72.7827 1509.67,-68.8695"/>
<polygon fill="midnightblue" stroke="midnightblue" points="1509.67,-65.3622 1499.46,-68.2004 1509.21,-72.3472 1509.67,-65.3622"/>
</g>
<!-- Node57&#45;&gt;Node17 -->
<g id="edge141" class="edge"><title>Node57&#45;&gt;Node17</title>
<path fill="none" stroke="midnightblue" d="M2208.59,-230.429C2200.92,-227.968 2192.31,-225.537 2184.25,-224 1974.71,-184.047 1911.69,-232.971 1698.7,-187.369"/>
<polygon fill="midnightblue" stroke="midnightblue" points="1699.29,-183.915 1688.77,-185.199 1697.79,-190.754 1699.29,-183.915"/>
</g>
<!-- Node57&#45;&gt;Node18 -->
<g id="edge140" class="edge"><title>Node57&#45;&gt;Node18</title>
<path fill="none" stroke="midnightblue" d="M2198.1,-236.602C2096.83,-229.469 1789.26,-207.654 1534.25,-188 1509.23,-186.072 1481.06,-183.786 1459.35,-182.001"/>
<polygon fill="midnightblue" stroke="midnightblue" points="1459.51,-178.502 1449.26,-181.168 1458.94,-185.478 1459.51,-178.502"/>
</g>
<!-- Node57&#45;&gt;Node31 -->
<g id="edge146" class="edge"><title>Node57&#45;&gt;Node31</title>
<path fill="none" stroke="midnightblue" d="M2197.91,-236.867C2146.33,-233.716 2045.76,-227.786 1960.25,-224 1900.38,-221.35 927.068,-227.771 882.246,-188 869.588,-176.768 868.236,-156.753 869.34,-141.891"/>
<polygon fill="midnightblue" stroke="midnightblue" points="872.84,-142.098 870.518,-131.76 865.886,-141.29 872.84,-142.098"/>
</g>
<!-- Node58 -->
<g id="node59" class="node"><title>Node58</title>
<polygon fill="white" stroke="#bfbfbf" points="2108.25,-168.5 2108.25,-187.5 2204.25,-187.5 2204.25,-168.5 2108.25,-168.5"/>
<text text-anchor="middle" x="2156.25" y="-175.5" font-family="Helvetica,sans-Serif" font-size="10.00">cereal/access.hpp</text>
</g>
<!-- Node57&#45;&gt;Node58 -->
<g id="edge136" class="edge"><title>Node57&#45;&gt;Node58</title>
<path fill="none" stroke="midnightblue" d="M2221.36,-230.403C2209.28,-220.869 2189.58,-205.315 2175.01,-193.811"/>
<polygon fill="midnightblue" stroke="midnightblue" points="2177.13,-191.03 2167.12,-187.581 2172.8,-196.524 2177.13,-191.03"/>
</g>
<!-- Node59 -->
<g id="node60" class="node"><title>Node59</title>
<g id="a_node60"><a xlink:href="variadic_8h.html" target="_top" xlink:title="std_ext/variadic.h">
<polygon fill="white" stroke="black" points="1707.25,-168.5 1707.25,-187.5 1801.25,-187.5 1801.25,-168.5 1707.25,-168.5"/>
<text text-anchor="middle" x="1754.25" y="-175.5" font-family="Helvetica,sans-Serif" font-size="10.00">std_ext/variadic.h</text>
</a>
</g>
</g>
<!-- Node57&#45;&gt;Node59 -->
<g id="edge137" class="edge"><title>Node57&#45;&gt;Node59</title>
<path fill="none" stroke="midnightblue" d="M2208.08,-230.385C2200.53,-227.983 2192.12,-225.596 2184.25,-224 2022.75,-191.252 1978.8,-208.032 1815.25,-188 1813.99,-187.846 1812.72,-187.688 1811.44,-187.525"/>
<polygon fill="midnightblue" stroke="midnightblue" points="1811.88,-184.052 1801.5,-186.207 1810.96,-190.991 1811.88,-184.052"/>
</g>
<!-- Node61 -->
<g id="node62" class="node"><title>Node61</title>
<polygon fill="white" stroke="#bfbfbf" points="1971.75,-168.5 1971.75,-187.5 2020.75,-187.5 2020.75,-168.5 1971.75,-168.5"/>
<text text-anchor="middle" x="1996.25" y="-175.5" font-family="Helvetica,sans-Serif" font-size="10.00">cassert</text>
</g>
<!-- Node57&#45;&gt;Node61 -->
<g id="edge144" class="edge"><title>Node57&#45;&gt;Node61</title>
<path fill="none" stroke="midnightblue" d="M2206.19,-230.47C2199.1,-228.256 2191.41,-225.948 2184.25,-224 2119.07,-206.273 2099.55,-205.356 2031.08,-188.387"/>
<polygon fill="midnightblue" stroke="midnightblue" points="2031.64,-184.918 2021.09,-185.883 2029.94,-191.708 2031.64,-184.918"/>
</g>
<!-- Node62 -->
<g id="node63" class="node"><title>Node62</title>
<polygon fill="white" stroke="#bfbfbf" points="2038.75,-168.5 2038.75,-187.5 2089.75,-187.5 2089.75,-168.5 2038.75,-168.5"/>
<text text-anchor="middle" x="2064.25" y="-175.5" font-family="Helvetica,sans-Serif" font-size="10.00">numeric</text>
</g>
<!-- Node57&#45;&gt;Node62 -->
<g id="edge145" class="edge"><title>Node57&#45;&gt;Node62</title>
<path fill="none" stroke="midnightblue" d="M2208.18,-230.403C2179.23,-220.067 2130.48,-202.656 2097.84,-190.999"/>
<polygon fill="midnightblue" stroke="midnightblue" points="2098.87,-187.648 2088.27,-187.581 2096.51,-194.24 2098.87,-187.648"/>
</g>
<!-- Node59&#45;&gt;Node32 -->
<g id="edge139" class="edge"><title>Node59&#45;&gt;Node32</title>
<path fill="none" stroke="midnightblue" d="M1707.03,-169.045C1703.72,-168.642 1700.44,-168.287 1697.25,-168 988.362,-104.355 805.922,-186.105 96.2464,-132 83.2032,-131.006 68.8493,-129.242 56.627,-127.538"/>
<polygon fill="midnightblue" stroke="midnightblue" points="56.9194,-124.044 46.5214,-126.077 55.9176,-130.972 56.9194,-124.044"/>
</g>
<!-- Node60 -->
<g id="node61" class="node"><title>Node60</title>
<polygon fill="white" stroke="#bfbfbf" points="1729.75,-112.5 1729.75,-131.5 1778.75,-131.5 1778.75,-112.5 1729.75,-112.5"/>
<text text-anchor="middle" x="1754.25" y="-119.5" font-family="Helvetica,sans-Serif" font-size="10.00">cstddef</text>
</g>
<!-- Node59&#45;&gt;Node60 -->
<g id="edge138" class="edge"><title>Node59&#45;&gt;Node60</title>
<path fill="none" stroke="midnightblue" d="M1754.25,-168.083C1754.25,-161.006 1754.25,-150.861 1754.25,-141.986"/>
<polygon fill="midnightblue" stroke="midnightblue" points="1757.75,-141.751 1754.25,-131.751 1750.75,-141.751 1757.75,-141.751"/>
</g>
<!-- Node64&#45;&gt;Node10 -->
<g id="edge157" class="edge"><title>Node64&#45;&gt;Node10</title>
<path fill="none" stroke="midnightblue" d="M2411.95,-234.252C2374.49,-230.832 2321.67,-226.411 2275.25,-224 2103.76,-215.095 897.081,-228.64 730.246,-188 688.215,-177.761 643.955,-152.885 618.57,-137.046"/>
<polygon fill="midnightblue" stroke="midnightblue" points="620.426,-134.079 610.11,-131.664 616.668,-139.985 620.426,-134.079"/>
</g>
<!-- Node64&#45;&gt;Node15 -->
<g id="edge153" class="edge"><title>Node64&#45;&gt;Node15</title>
<path fill="none" stroke="midnightblue" d="M2454.03,-230.281C2438.04,-210.957 2399.4,-164.269 2378.77,-139.336"/>
<polygon fill="midnightblue" stroke="midnightblue" points="2381.36,-136.977 2372.28,-131.505 2375.96,-141.44 2381.36,-136.977"/>
</g>
<!-- Node64&#45;&gt;Node18 -->
<g id="edge154" class="edge"><title>Node64&#45;&gt;Node18</title>
<path fill="none" stroke="midnightblue" d="M2411.93,-234.592C2374.46,-231.347 2321.64,-226.997 2275.25,-224 1946.21,-202.745 1863.28,-209.326 1534.25,-188 1509.38,-186.388 1481.41,-184.117 1459.77,-182.26"/>
<polygon fill="midnightblue" stroke="midnightblue" points="1459.96,-178.764 1449.69,-181.386 1459.35,-185.738 1459.96,-178.764"/>
</g>
<!-- Node64&#45;&gt;Node55 -->
<g id="edge155" class="edge"><title>Node64&#45;&gt;Node55</title>
<path fill="none" stroke="midnightblue" d="M2510.56,-231.177C2525.55,-228.831 2542.07,-226.277 2557.25,-224 2662.61,-208.196 2788.09,-190.493 2842.65,-182.852"/>
<polygon fill="midnightblue" stroke="midnightblue" points="2843.17,-186.314 2852.59,-181.462 2842.2,-179.381 2843.17,-186.314"/>
</g>
<!-- Node65 -->
<g id="node66" class="node"><title>Node65</title>
<polygon fill="white" stroke="#bfbfbf" points="2450.25,-168.5 2450.25,-187.5 2480.25,-187.5 2480.25,-168.5 2450.25,-168.5"/>
<text text-anchor="middle" x="2465.25" y="-175.5" font-family="Helvetica,sans-Serif" font-size="10.00">set</text>
</g>
<!-- Node64&#45;&gt;Node65 -->
<g id="edge156" class="edge"><title>Node64&#45;&gt;Node65</title>
<path fill="none" stroke="midnightblue" d="M2461.82,-230.403C2462.38,-221.938 2463.26,-208.728 2463.99,-197.82"/>
<polygon fill="midnightblue" stroke="midnightblue" points="2467.5,-197.791 2464.67,-187.581 2460.52,-197.326 2467.5,-197.791"/>
</g>
<!-- Node66&#45;&gt;Node17 -->
<g id="edge160" class="edge"><title>Node66&#45;&gt;Node17</title>
<path fill="none" stroke="midnightblue" d="M1793.33,-230.403C1768.3,-219.6 1725.37,-201.069 1698.47,-189.456"/>
<polygon fill="midnightblue" stroke="midnightblue" points="1699.58,-186.125 1689.01,-185.375 1696.81,-192.551 1699.58,-186.125"/>
</g>
<!-- Node66&#45;&gt;Node18 -->
<g id="edge159" class="edge"><title>Node66&#45;&gt;Node18</title>
<path fill="none" stroke="midnightblue" d="M1757.78,-230.467C1676.74,-217.999 1528.16,-195.141 1459.64,-184.598"/>
<polygon fill="midnightblue" stroke="midnightblue" points="1459.76,-181.077 1449.35,-183.015 1458.7,-187.995 1459.76,-181.077"/>
</g>
<!-- Node67&#45;&gt;Node54 -->
<g id="edge167" class="edge"><title>Node67&#45;&gt;Node54</title>
<path fill="none" stroke="midnightblue" d="M2606.88,-292.403C2632.67,-282.156 2675.96,-264.956 2705.29,-253.302"/>
<polygon fill="midnightblue" stroke="midnightblue" points="2706.65,-256.526 2714.65,-249.581 2704.07,-250.021 2706.65,-256.526"/>
</g>
<!-- Node67&#45;&gt;Node55 -->
<g id="edge169" class="edge"><title>Node67&#45;&gt;Node55</title>
<path fill="none" stroke="midnightblue" d="M2644.28,-292.492C2697.58,-284.089 2771.48,-270.435 2797.25,-256 2823.52,-241.281 2846.01,-213.955 2858.83,-196.129"/>
<polygon fill="midnightblue" stroke="midnightblue" points="2861.8,-198 2864.63,-187.79 2856.05,-194.007 2861.8,-198"/>
</g>
<!-- Node67&#45;&gt;Node57 -->
<g id="edge168" class="edge"><title>Node67&#45;&gt;Node57</title>
<path fill="none" stroke="midnightblue" d="M2535.04,-292.467C2465.84,-280.705 2342.25,-259.698 2276.4,-248.505"/>
<polygon fill="midnightblue" stroke="midnightblue" points="2276.79,-245.021 2266.34,-246.795 2275.61,-251.922 2276.79,-245.021"/>
</g>
</g>
</svg>
