<?xml version="1.0" encoding="UTF-8" standalone="no"?>
<!DOCTYPE svg PUBLIC "-//W3C//DTD SVG 1.1//EN"
 "http://www.w3.org/Graphics/SVG/1.1/DTD/svg11.dtd">
<!-- Generated by graphviz version 2.36.0 (20140111.2315)
 -->
<!-- Title: src/analysis/physics/omega/Omega_EtaG.h Pages: 1 -->
<svg width="257pt" height="176pt"
 viewBox="0.00 0.00 257.00 176.00" xmlns="http://www.w3.org/2000/svg" xmlns:xlink="http://www.w3.org/1999/xlink">
<g id="graph0" class="graph" transform="scale(1 1) rotate(0) translate(4 172)">
<title>src/analysis/physics/omega/Omega_EtaG.h</title>
<polygon fill="white" stroke="none" points="-4,4 -4,-172 253,-172 253,4 -4,4"/>
<!-- Node102 -->
<g id="node1" class="node"><title>Node102</title>
<polygon fill="#bfbfbf" stroke="black" points="69.5,-137 69.5,-167 188.5,-167 188.5,-137 69.5,-137"/>
<text text-anchor="start" x="77.5" y="-155" font-family="Helvetica,sans-Serif" font-size="10.00">src/analysis/physics</text>
<text text-anchor="middle" x="129" y="-144" font-family="Helvetica,sans-Serif" font-size="10.00">/omega/Omega_EtaG.h</text>
</g>
<!-- Node103 -->
<g id="node2" class="node"><title>Node103</title>
<g id="a_node2"><a xlink:href="_omega___eta_g_8cc.html" target="_top" xlink:title="src/analysis/physics\l/omega/Omega_EtaG.cc">
<polygon fill="white" stroke="black" points="-0.5,-69 -0.5,-99 124.5,-99 124.5,-69 -0.5,-69"/>
<text text-anchor="start" x="7.5" y="-87" font-family="Helvetica,sans-Serif" font-size="10.00">src/analysis/physics</text>
<text text-anchor="middle" x="62" y="-76" font-family="Helvetica,sans-Serif" font-size="10.00">/omega/Omega_EtaG.cc</text>
</a>
</g>
</g>
<!-- Node102&#45;&gt;Node103 -->
<g id="edge1" class="edge"><title>Node102&#45;&gt;Node103</title>
<path fill="none" stroke="midnightblue" d="M107.16,-129.485C97.1092,-119.585 85.4593,-108.109 76.5096,-99.2931"/>
<polygon fill="midnightblue" stroke="midnightblue" points="104.882,-132.155 114.462,-136.679 109.794,-127.168 104.882,-132.155"/>
</g>
<!-- Node104 -->
<g id="node3" class="node"><title>Node104</title>
<g id="a_node3"><a xlink:href="pi0eta_8h.html" target="_top" xlink:title="src/analysis/physics\l/omega/pi0eta.h">
<polygon fill="white" stroke="black" points="143,-69 143,-99 249,-99 249,-69 143,-69"/>
<text text-anchor="start" x="151" y="-87" font-family="Helvetica,sans-Serif" font-size="10.00">src/analysis/physics</text>
<text text-anchor="middle" x="196" y="-76" font-family="Helvetica,sans-Serif" font-size="10.00">/omega/pi0eta.h</text>
</a>
</g>
</g>
<!-- Node102&#45;&gt;Node104 -->
<g id="edge2" class="edge"><title>Node102&#45;&gt;Node104</title>
<path fill="none" stroke="midnightblue" d="M150.84,-129.485C160.891,-119.585 172.541,-108.109 181.49,-99.2931"/>
<polygon fill="midnightblue" stroke="midnightblue" points="148.206,-127.168 143.538,-136.679 153.118,-132.155 148.206,-127.168"/>
</g>
<!-- Node105 -->
<g id="node4" class="node"><title>Node105</title>
<g id="a_node4"><a xlink:href="pi0eta_8cc.html" target="_top" xlink:title="src/analysis/physics\l/omega/pi0eta.cc">
<polygon fill="white" stroke="black" points="143,-1 143,-31 249,-31 249,-1 143,-1"/>
<text text-anchor="start" x="151" y="-19" font-family="Helvetica,sans-Serif" font-size="10.00">src/analysis/physics</text>
<text text-anchor="middle" x="196" y="-8" font-family="Helvetica,sans-Serif" font-size="10.00">/omega/pi0eta.cc</text>
</a>
</g>
</g>
<!-- Node104&#45;&gt;Node105 -->
<g id="edge3" class="edge"><title>Node104&#45;&gt;Node105</title>
<path fill="none" stroke="midnightblue" d="M196,-58.5322C196,-49.3606 196,-39.2449 196,-31.2931"/>
<polygon fill="midnightblue" stroke="midnightblue" points="192.5,-58.6789 196,-68.679 199.5,-58.679 192.5,-58.6789"/>
</g>
</g>
</svg>
