<?xml version="1.0" encoding="UTF-8" standalone="no"?>
<!DOCTYPE svg PUBLIC "-//W3C//DTD SVG 1.1//EN"
 "http://www.w3.org/Graphics/SVG/1.1/DTD/svg11.dtd">
<!-- Generated by graphviz version 2.36.0 (20140111.2315)
 -->
<!-- Title: src/base/ParticleType.cc Pages: 1 -->
<svg width="589pt" height="196pt"
 viewBox="0.00 0.00 589.00 196.00" xmlns="http://www.w3.org/2000/svg" xmlns:xlink="http://www.w3.org/1999/xlink">
<g id="graph0" class="graph" transform="scale(1 1) rotate(0) translate(4 192)">
<title>src/base/ParticleType.cc</title>
<polygon fill="white" stroke="none" points="-4,4 -4,-192 585,-192 585,4 -4,4"/>
<!-- Node0 -->
<g id="node1" class="node"><title>Node0</title>
<polygon fill="#bfbfbf" stroke="black" points="320.5,-168.5 320.5,-187.5 445.5,-187.5 445.5,-168.5 320.5,-168.5"/>
<text text-anchor="middle" x="383" y="-175.5" font-family="Helvetica,sans-Serif" font-size="10.00">src/base/ParticleType.cc</text>
</g>
<!-- Node1 -->
<g id="node2" class="node"><title>Node1</title>
<g id="a_node2"><a xlink:href="_particle_type_8h.html" target="_top" xlink:title="base/ParticleType.h">
<polygon fill="white" stroke="black" points="166,-112.5 166,-131.5 270,-131.5 270,-112.5 166,-112.5"/>
<text text-anchor="middle" x="218" y="-119.5" font-family="Helvetica,sans-Serif" font-size="10.00">base/ParticleType.h</text>
</a>
</g>
</g>
<!-- Node0&#45;&gt;Node1 -->
<g id="edge1" class="edge"><title>Node0&#45;&gt;Node1</title>
<path fill="none" stroke="midnightblue" d="M356.855,-168.444C328.977,-159.32 284.652,-144.813 253.6,-134.651"/>
<polygon fill="midnightblue" stroke="midnightblue" points="254.615,-131.3 244.022,-131.516 252.438,-137.953 254.615,-131.3"/>
</g>
<!-- Node15 -->
<g id="node16" class="node"><title>Node15</title>
<polygon fill="white" stroke="#bfbfbf" points="307,-112.5 307,-131.5 361,-131.5 361,-112.5 307,-112.5"/>
<text text-anchor="middle" x="334" y="-119.5" font-family="Helvetica,sans-Serif" font-size="10.00">iostream</text>
</g>
<!-- Node0&#45;&gt;Node15 -->
<g id="edge16" class="edge"><title>Node0&#45;&gt;Node15</title>
<path fill="none" stroke="midnightblue" d="M374.909,-168.083C367.845,-160.298 357.412,-148.801 348.851,-139.367"/>
<polygon fill="midnightblue" stroke="midnightblue" points="351.253,-136.805 341.941,-131.751 346.069,-141.509 351.253,-136.805"/>
</g>
<!-- Node16 -->
<g id="node17" class="node"><title>Node16</title>
<g id="a_node17"><a xlink:href="base_2std__ext_2math_8h.html" target="_top" xlink:title="base/std_ext/math.h">
<polygon fill="white" stroke="black" points="379,-112.5 379,-131.5 485,-131.5 485,-112.5 379,-112.5"/>
<text text-anchor="middle" x="432" y="-119.5" font-family="Helvetica,sans-Serif" font-size="10.00">base/std_ext/math.h</text>
</a>
</g>
</g>
<!-- Node0&#45;&gt;Node16 -->
<g id="edge17" class="edge"><title>Node0&#45;&gt;Node16</title>
<path fill="none" stroke="midnightblue" d="M391.091,-168.083C398.155,-160.298 408.588,-148.801 417.149,-139.367"/>
<polygon fill="midnightblue" stroke="midnightblue" points="419.931,-141.509 424.059,-131.751 414.747,-136.805 419.931,-141.509"/>
</g>
<!-- Node17 -->
<g id="node18" class="node"><title>Node17</title>
<polygon fill="white" stroke="#bfbfbf" points="503,-112.5 503,-131.5 581,-131.5 581,-112.5 503,-112.5"/>
<text text-anchor="middle" x="542" y="-119.5" font-family="Helvetica,sans-Serif" font-size="10.00">PStaticData.h</text>
</g>
<!-- Node0&#45;&gt;Node17 -->
<g id="edge21" class="edge"><title>Node0&#45;&gt;Node17</title>
<path fill="none" stroke="midnightblue" d="M408.194,-168.444C434.943,-159.359 477.403,-144.939 507.305,-134.783"/>
<polygon fill="midnightblue" stroke="midnightblue" points="508.581,-138.046 516.924,-131.516 506.329,-131.418 508.581,-138.046"/>
</g>
<!-- Node2 -->
<g id="node3" class="node"><title>Node2</title>
<g id="a_node3"><a xlink:href="types_8h.html" target="_top" xlink:title="base/types.h">
<polygon fill="white" stroke="black" points="49.5,-0.5 49.5,-19.5 122.5,-19.5 122.5,-0.5 49.5,-0.5"/>
<text text-anchor="middle" x="86" y="-7.5" font-family="Helvetica,sans-Serif" font-size="10.00">base/types.h</text>
</a>
</g>
</g>
<!-- Node1&#45;&gt;Node2 -->
<g id="edge2" class="edge"><title>Node1&#45;&gt;Node2</title>
<path fill="none" stroke="midnightblue" d="M214.722,-112.344C209.201,-98.7686 196.873,-72.3369 179,-56 163.064,-41.434 141.554,-30.6171 123.235,-23.2439"/>
<polygon fill="midnightblue" stroke="midnightblue" points="124.308,-19.9071 113.717,-19.6004 121.805,-26.4444 124.308,-19.9071"/>
</g>
<!-- Node3 -->
<g id="node4" class="node"><title>Node3</title>
<g id="a_node4"><a xlink:href="interval_8h.html" target="_top" xlink:title="base/interval.h">
<polygon fill="white" stroke="black" points="227,-56.5 227,-75.5 307,-75.5 307,-56.5 227,-56.5"/>
<text text-anchor="middle" x="267" y="-63.5" font-family="Helvetica,sans-Serif" font-size="10.00">base/interval.h</text>
</a>
</g>
</g>
<!-- Node1&#45;&gt;Node3 -->
<g id="edge3" class="edge"><title>Node1&#45;&gt;Node3</title>
<path fill="none" stroke="midnightblue" d="M226.091,-112.083C233.155,-104.298 243.588,-92.8015 252.149,-83.3665"/>
<polygon fill="midnightblue" stroke="midnightblue" points="254.931,-85.5087 259.059,-75.7511 249.747,-80.8047 254.931,-85.5087"/>
</g>
<!-- Node10 -->
<g id="node11" class="node"><title>Node10</title>
<polygon fill="white" stroke="#bfbfbf" points="325.5,-56.5 325.5,-75.5 366.5,-75.5 366.5,-56.5 325.5,-56.5"/>
<text text-anchor="middle" x="346" y="-63.5" font-family="Helvetica,sans-Serif" font-size="10.00">string</text>
</g>
<!-- Node1&#45;&gt;Node10 -->
<g id="edge11" class="edge"><title>Node1&#45;&gt;Node10</title>
<path fill="none" stroke="midnightblue" d="M238.282,-112.444C259.347,-103.557 292.517,-89.5632 316.486,-79.4514"/>
<polygon fill="midnightblue" stroke="midnightblue" points="317.96,-82.6283 325.813,-75.5164 315.239,-76.1787 317.96,-82.6283"/>
</g>
<!-- Node11 -->
<g id="node12" class="node"><title>Node11</title>
<polygon fill="white" stroke="#bfbfbf" points="0,-56.5 0,-75.5 52,-75.5 52,-56.5 0,-56.5"/>
<text text-anchor="middle" x="26" y="-63.5" font-family="Helvetica,sans-Serif" font-size="10.00">ostream</text>
</g>
<!-- Node1&#45;&gt;Node11 -->
<g id="edge12" class="edge"><title>Node1&#45;&gt;Node11</title>
<path fill="none" stroke="midnightblue" d="M187.577,-112.444C153.459,-102.848 98.1719,-87.2984 61.948,-77.1104"/>
<polygon fill="midnightblue" stroke="midnightblue" points="62.844,-73.7267 52.2699,-74.3884 60.9488,-80.4652 62.844,-73.7267"/>
</g>
<!-- Node12 -->
<g id="node13" class="node"><title>Node12</title>
<polygon fill="white" stroke="#bfbfbf" points="70.5,-56.5 70.5,-75.5 105.5,-75.5 105.5,-56.5 70.5,-56.5"/>
<text text-anchor="middle" x="88" y="-63.5" font-family="Helvetica,sans-Serif" font-size="10.00">map</text>
</g>
<!-- Node1&#45;&gt;Node12 -->
<g id="edge13" class="edge"><title>Node1&#45;&gt;Node12</title>
<path fill="none" stroke="midnightblue" d="M197.401,-112.444C175.126,-103.191 139.524,-88.4021 115.018,-78.2227"/>
<polygon fill="midnightblue" stroke="midnightblue" points="116.162,-74.9081 105.584,-74.3042 113.476,-81.3725 116.162,-74.9081"/>
</g>
<!-- Node13 -->
<g id="node14" class="node"><title>Node13</title>
<polygon fill="white" stroke="#bfbfbf" points="123.5,-56.5 123.5,-75.5 170.5,-75.5 170.5,-56.5 123.5,-56.5"/>
<text text-anchor="middle" x="147" y="-63.5" font-family="Helvetica,sans-Serif" font-size="10.00">iterator</text>
</g>
<!-- Node1&#45;&gt;Node13 -->
<g id="edge14" class="edge"><title>Node1&#45;&gt;Node13</title>
<path fill="none" stroke="midnightblue" d="M206.593,-112.324C195.891,-104.185 179.659,-91.8395 166.837,-82.0874"/>
<polygon fill="midnightblue" stroke="midnightblue" points="168.693,-79.1018 158.615,-75.8339 164.456,-84.6734 168.693,-79.1018"/>
</g>
<!-- Node14 -->
<g id="node15" class="node"><title>Node14</title>
<polygon fill="white" stroke="#bfbfbf" points="385,-56.5 385,-75.5 429,-75.5 429,-56.5 385,-56.5"/>
<text text-anchor="middle" x="407" y="-63.5" font-family="Helvetica,sans-Serif" font-size="10.00">vector</text>
</g>
<!-- Node1&#45;&gt;Node14 -->
<g id="edge15" class="edge"><title>Node1&#45;&gt;Node14</title>
<path fill="none" stroke="midnightblue" d="M247.948,-112.444C282.621,-102.537 339.504,-86.2846 375.019,-76.1375"/>
<polygon fill="midnightblue" stroke="midnightblue" points="376.216,-79.4356 384.87,-73.323 374.293,-72.7049 376.216,-79.4356"/>
</g>
<!-- Node3&#45;&gt;Node2 -->
<g id="edge4" class="edge"><title>Node3&#45;&gt;Node2</title>
<path fill="none" stroke="midnightblue" d="M238.32,-56.4435C207.473,-47.2406 158.272,-32.5617 124.171,-22.3879"/>
<polygon fill="midnightblue" stroke="midnightblue" points="125.129,-19.0215 114.546,-19.5164 123.128,-25.7293 125.129,-19.0215"/>
</g>
<!-- Node4 -->
<g id="node5" class="node"><title>Node4</title>
<polygon fill="white" stroke="#bfbfbf" points="355,-0.5 355,-19.5 411,-19.5 411,-0.5 355,-0.5"/>
<text text-anchor="middle" x="383" y="-7.5" font-family="Helvetica,sans-Serif" font-size="10.00">algorithm</text>
</g>
<!-- Node3&#45;&gt;Node4 -->
<g id="edge5" class="edge"><title>Node3&#45;&gt;Node4</title>
<path fill="none" stroke="midnightblue" d="M285.381,-56.4435C304.216,-47.6751 333.731,-33.9355 355.379,-23.8579"/>
<polygon fill="midnightblue" stroke="midnightblue" points="357.117,-26.9098 364.705,-19.5164 354.162,-20.5637 357.117,-26.9098"/>
</g>
<!-- Node5 -->
<g id="node6" class="node"><title>Node5</title>
<polygon fill="white" stroke="#bfbfbf" points="140.5,-0.5 140.5,-19.5 199.5,-19.5 199.5,-0.5 140.5,-0.5"/>
<text text-anchor="middle" x="170" y="-7.5" font-family="Helvetica,sans-Serif" font-size="10.00">stdexcept</text>
</g>
<!-- Node3&#45;&gt;Node5 -->
<g id="edge6" class="edge"><title>Node3&#45;&gt;Node5</title>
<path fill="none" stroke="midnightblue" d="M251.415,-56.324C236.001,-47.7428 212.188,-34.486 194.29,-24.5224"/>
<polygon fill="midnightblue" stroke="midnightblue" points="195.986,-21.4606 185.546,-19.6545 192.581,-27.5767 195.986,-21.4606"/>
</g>
<!-- Node6 -->
<g id="node7" class="node"><title>Node6</title>
<polygon fill="white" stroke="#bfbfbf" points="491,-0.5 491,-19.5 531,-19.5 531,-0.5 491,-0.5"/>
<text text-anchor="middle" x="511" y="-7.5" font-family="Helvetica,sans-Serif" font-size="10.00">limits</text>
</g>
<!-- Node3&#45;&gt;Node6 -->
<g id="edge7" class="edge"><title>Node3&#45;&gt;Node6</title>
<path fill="none" stroke="midnightblue" d="M307.067,-57.6203C350.239,-49.4257 420.847,-35.3186 481,-20 481.099,-19.9748 481.198,-19.9496 481.297,-19.9242"/>
<polygon fill="midnightblue" stroke="midnightblue" points="482.016,-23.3565 490.731,-17.3327 480.161,-16.6065 482.016,-23.3565"/>
</g>
<!-- Node7 -->
<g id="node8" class="node"><title>Node7</title>
<polygon fill="white" stroke="#bfbfbf" points="217.5,-0.5 217.5,-19.5 266.5,-19.5 266.5,-0.5 217.5,-0.5"/>
<text text-anchor="middle" x="242" y="-7.5" font-family="Helvetica,sans-Serif" font-size="10.00">istream</text>
</g>
<!-- Node3&#45;&gt;Node7 -->
<g id="edge8" class="edge"><title>Node3&#45;&gt;Node7</title>
<path fill="none" stroke="midnightblue" d="M262.872,-56.083C259.486,-48.77 254.584,-38.1814 250.381,-29.1034"/>
<polygon fill="midnightblue" stroke="midnightblue" points="253.429,-27.3553 246.051,-19.7511 247.077,-30.2962 253.429,-27.3553"/>
</g>
<!-- Node8 -->
<g id="node9" class="node"><title>Node8</title>
<polygon fill="white" stroke="#bfbfbf" points="285,-0.5 285,-19.5 337,-19.5 337,-0.5 285,-0.5"/>
<text text-anchor="middle" x="311" y="-7.5" font-family="Helvetica,sans-Serif" font-size="10.00">sstream</text>
</g>
<!-- Node3&#45;&gt;Node8 -->
<g id="edge9" class="edge"><title>Node3&#45;&gt;Node8</title>
<path fill="none" stroke="midnightblue" d="M274.266,-56.083C280.545,-48.3768 289.788,-37.0333 297.431,-27.6531"/>
<polygon fill="midnightblue" stroke="midnightblue" points="300.266,-29.7143 303.869,-19.7511 294.839,-25.2926 300.266,-29.7143"/>
</g>
<!-- Node9 -->
<g id="node10" class="node"><title>Node9</title>
<polygon fill="white" stroke="#bfbfbf" points="429,-0.5 429,-19.5 473,-19.5 473,-0.5 429,-0.5"/>
<text text-anchor="middle" x="451" y="-7.5" font-family="Helvetica,sans-Serif" font-size="10.00">cmath</text>
</g>
<!-- Node3&#45;&gt;Node9 -->
<g id="edge10" class="edge"><title>Node3&#45;&gt;Node9</title>
<path fill="none" stroke="midnightblue" d="M296.155,-56.4435C329.727,-46.591 384.685,-30.4621 419.296,-20.3044"/>
<polygon fill="midnightblue" stroke="midnightblue" points="420.301,-23.6571 428.911,-17.4826 418.33,-16.9404 420.301,-23.6571"/>
</g>
<!-- Node16&#45;&gt;Node6 -->
<g id="edge19" class="edge"><title>Node16&#45;&gt;Node6</title>
<path fill="none" stroke="midnightblue" d="M438.199,-112.368C451.236,-94.2153 481.697,-51.8015 498.798,-27.9902"/>
<polygon fill="midnightblue" stroke="midnightblue" points="501.839,-29.7555 504.83,-19.5914 496.154,-25.6721 501.839,-29.7555"/>
</g>
<!-- Node16&#45;&gt;Node9 -->
<g id="edge18" class="edge"><title>Node16&#45;&gt;Node9</title>
<path fill="none" stroke="midnightblue" d="M433.491,-112.368C436.557,-94.617 443.63,-53.6664 447.788,-29.5974"/>
<polygon fill="midnightblue" stroke="midnightblue" points="451.263,-30.0413 449.516,-19.5914 444.365,-28.8498 451.263,-30.0413"/>
</g>
<!-- Node16&#45;&gt;Node14 -->
<g id="edge20" class="edge"><title>Node16&#45;&gt;Node14</title>
<path fill="none" stroke="midnightblue" d="M427.872,-112.083C424.486,-104.77 419.584,-94.1814 415.381,-85.1034"/>
<polygon fill="midnightblue" stroke="midnightblue" points="418.429,-83.3553 411.051,-75.7511 412.077,-86.2962 418.429,-83.3553"/>
</g>
</g>
</svg>
