<?xml version="1.0" encoding="UTF-8" standalone="no"?>
<!DOCTYPE svg PUBLIC "-//W3C//DTD SVG 1.1//EN"
 "http://www.w3.org/Graphics/SVG/1.1/DTD/svg11.dtd">
<!-- Generated by graphviz version 2.36.0 (20140111.2315)
 -->
<!-- Title: src/base/ParticleTypeTree.cc Pages: 1 -->
<svg width="1095pt" height="252pt"
 viewBox="0.00 0.00 1095.00 252.00" xmlns="http://www.w3.org/2000/svg" xmlns:xlink="http://www.w3.org/1999/xlink">
<g id="graph0" class="graph" transform="scale(1 1) rotate(0) translate(4 248)">
<title>src/base/ParticleTypeTree.cc</title>
<polygon fill="white" stroke="none" points="-4,4 -4,-248 1091,-248 1091,4 -4,4"/>
<!-- Node0 -->
<g id="node1" class="node"><title>Node0</title>
<polygon fill="#bfbfbf" stroke="black" points="13.5,-224.5 13.5,-243.5 158.5,-243.5 158.5,-224.5 13.5,-224.5"/>
<text text-anchor="middle" x="86" y="-231.5" font-family="Helvetica,sans-Serif" font-size="10.00">src/base/ParticleTypeTree.cc</text>
</g>
<!-- Node1 -->
<g id="node2" class="node"><title>Node1</title>
<g id="a_node2"><a xlink:href="_particle_type_tree_8h.html" target="_top" xlink:title="ParticleTypeTree.h">
<polygon fill="white" stroke="black" points="93.5,-168.5 93.5,-187.5 192.5,-187.5 192.5,-168.5 93.5,-168.5"/>
<text text-anchor="middle" x="143" y="-175.5" font-family="Helvetica,sans-Serif" font-size="10.00">ParticleTypeTree.h</text>
</a>
</g>
</g>
<!-- Node0&#45;&gt;Node1 -->
<g id="edge1" class="edge"><title>Node0&#45;&gt;Node1</title>
<path fill="none" stroke="midnightblue" d="M95.158,-224.324C103.501,-216.42 116.032,-204.548 126.177,-194.938"/>
<polygon fill="midnightblue" stroke="midnightblue" points="128.823,-197.252 133.675,-187.834 124.009,-192.171 128.823,-197.252"/>
</g>
<!-- Node6 -->
<g id="node7" class="node"><title>Node6</title>
<polygon fill="white" stroke="#bfbfbf" points="-0.5,-0.5 -0.5,-19.5 58.5,-19.5 58.5,-0.5 -0.5,-0.5"/>
<text text-anchor="middle" x="29" y="-7.5" font-family="Helvetica,sans-Serif" font-size="10.00">stdexcept</text>
</g>
<!-- Node0&#45;&gt;Node6 -->
<g id="edge30" class="edge"><title>Node0&#45;&gt;Node6</title>
<path fill="none" stroke="midnightblue" d="M83.7655,-224.297C75.3608,-191.563 45.5288,-75.3752 33.7927,-29.6664"/>
<polygon fill="midnightblue" stroke="midnightblue" points="37.158,-28.6991 31.281,-19.8837 30.3779,-30.44 37.158,-28.6991"/>
</g>
<!-- Node2 -->
<g id="node3" class="node"><title>Node2</title>
<g id="a_node3"><a xlink:href="_particle_type_8h.html" target="_top" xlink:title="ParticleType.h">
<polygon fill="white" stroke="black" points="190,-112.5 190,-131.5 270,-131.5 270,-112.5 190,-112.5"/>
<text text-anchor="middle" x="230" y="-119.5" font-family="Helvetica,sans-Serif" font-size="10.00">ParticleType.h</text>
</a>
</g>
</g>
<!-- Node1&#45;&gt;Node2 -->
<g id="edge2" class="edge"><title>Node1&#45;&gt;Node2</title>
<path fill="none" stroke="midnightblue" d="M156.978,-168.324C170.55,-159.9 191.38,-146.971 207.325,-137.074"/>
<polygon fill="midnightblue" stroke="midnightblue" points="209.406,-139.902 216.057,-131.655 205.714,-133.954 209.406,-139.902"/>
</g>
<!-- Node13 -->
<g id="node14" class="node"><title>Node13</title>
<polygon fill="white" stroke="#bfbfbf" points="59.5,-56.5 59.5,-75.5 94.5,-75.5 94.5,-56.5 59.5,-56.5"/>
<text text-anchor="middle" x="77" y="-63.5" font-family="Helvetica,sans-Serif" font-size="10.00">map</text>
</g>
<!-- Node1&#45;&gt;Node13 -->
<g id="edge29" class="edge"><title>Node1&#45;&gt;Node13</title>
<path fill="none" stroke="midnightblue" d="M137.821,-168.368C126.977,-150.296 101.706,-108.176 87.3844,-84.3074"/>
<polygon fill="midnightblue" stroke="midnightblue" points="90.3011,-82.3656 82.1549,-75.5914 84.2986,-85.9671 90.3011,-82.3656"/>
</g>
<!-- Node16 -->
<g id="node17" class="node"><title>Node16</title>
<g id="a_node17"><a xlink:href="_tree_8h.html" target="_top" xlink:title="Tree.h">
<polygon fill="white" stroke="black" points="729,-112.5 729,-131.5 773,-131.5 773,-112.5 729,-112.5"/>
<text text-anchor="middle" x="751" y="-119.5" font-family="Helvetica,sans-Serif" font-size="10.00">Tree.h</text>
</a>
</g>
</g>
<!-- Node1&#45;&gt;Node16 -->
<g id="edge17" class="edge"><title>Node1&#45;&gt;Node16</title>
<path fill="none" stroke="midnightblue" d="M192.755,-172.581C313.43,-161.863 619.078,-134.717 718.913,-125.85"/>
<polygon fill="midnightblue" stroke="midnightblue" points="719.337,-129.326 728.988,-124.955 718.717,-122.354 719.337,-129.326"/>
</g>
<!-- Node3 -->
<g id="node4" class="node"><title>Node3</title>
<g id="a_node4"><a xlink:href="types_8h.html" target="_top" xlink:title="base/types.h">
<polygon fill="white" stroke="black" points="76.5,-0.5 76.5,-19.5 149.5,-19.5 149.5,-0.5 76.5,-0.5"/>
<text text-anchor="middle" x="113" y="-7.5" font-family="Helvetica,sans-Serif" font-size="10.00">base/types.h</text>
</a>
</g>
</g>
<!-- Node2&#45;&gt;Node3 -->
<g id="edge3" class="edge"><title>Node2&#45;&gt;Node3</title>
<path fill="none" stroke="midnightblue" d="M202.352,-112.392C183.299,-105.256 158.53,-93.4315 142,-76 129.655,-62.982 121.985,-43.823 117.658,-29.6758"/>
<polygon fill="midnightblue" stroke="midnightblue" points="120.916,-28.3244 114.879,-19.6176 114.168,-30.1886 120.916,-28.3244"/>
</g>
<!-- Node4 -->
<g id="node5" class="node"><title>Node4</title>
<g id="a_node5"><a xlink:href="interval_8h.html" target="_top" xlink:title="base/interval.h">
<polygon fill="white" stroke="black" points="151,-56.5 151,-75.5 231,-75.5 231,-56.5 151,-56.5"/>
<text text-anchor="middle" x="191" y="-63.5" font-family="Helvetica,sans-Serif" font-size="10.00">base/interval.h</text>
</a>
</g>
</g>
<!-- Node2&#45;&gt;Node4 -->
<g id="edge4" class="edge"><title>Node2&#45;&gt;Node4</title>
<path fill="none" stroke="midnightblue" d="M223.56,-112.083C218.051,-104.455 209.969,-93.2645 203.235,-83.9408"/>
<polygon fill="midnightblue" stroke="midnightblue" points="206.013,-81.8087 197.32,-75.7511 200.338,-85.9071 206.013,-81.8087"/>
</g>
<!-- Node11 -->
<g id="node12" class="node"><title>Node11</title>
<polygon fill="white" stroke="#bfbfbf" points="249.5,-56.5 249.5,-75.5 290.5,-75.5 290.5,-56.5 249.5,-56.5"/>
<text text-anchor="middle" x="270" y="-63.5" font-family="Helvetica,sans-Serif" font-size="10.00">string</text>
</g>
<!-- Node2&#45;&gt;Node11 -->
<g id="edge12" class="edge"><title>Node2&#45;&gt;Node11</title>
<path fill="none" stroke="midnightblue" d="M236.605,-112.083C242.255,-104.455 250.545,-93.2645 257.451,-83.9408"/>
<polygon fill="midnightblue" stroke="midnightblue" points="260.378,-85.87 263.518,-75.7511 254.753,-81.7034 260.378,-85.87"/>
</g>
<!-- Node12 -->
<g id="node13" class="node"><title>Node12</title>
<polygon fill="white" stroke="#bfbfbf" points="309,-56.5 309,-75.5 361,-75.5 361,-56.5 309,-56.5"/>
<text text-anchor="middle" x="335" y="-63.5" font-family="Helvetica,sans-Serif" font-size="10.00">ostream</text>
</g>
<!-- Node2&#45;&gt;Node12 -->
<g id="edge13" class="edge"><title>Node2&#45;&gt;Node12</title>
<path fill="none" stroke="midnightblue" d="M246.87,-112.324C263.709,-103.664 289.807,-90.2424 309.238,-80.249"/>
<polygon fill="midnightblue" stroke="midnightblue" points="310.88,-83.3405 318.172,-75.6545 307.678,-77.1155 310.88,-83.3405"/>
</g>
<!-- Node2&#45;&gt;Node13 -->
<g id="edge14" class="edge"><title>Node2&#45;&gt;Node13</title>
<path fill="none" stroke="midnightblue" d="M205.757,-112.444C178.17,-102.707 133.216,-86.8408 104.385,-76.6654"/>
<polygon fill="midnightblue" stroke="midnightblue" points="105.51,-73.3508 94.9151,-73.323 103.18,-79.9517 105.51,-73.3508"/>
</g>
<!-- Node14 -->
<g id="node15" class="node"><title>Node14</title>
<polygon fill="white" stroke="#bfbfbf" points="379.5,-56.5 379.5,-75.5 426.5,-75.5 426.5,-56.5 379.5,-56.5"/>
<text text-anchor="middle" x="403" y="-63.5" font-family="Helvetica,sans-Serif" font-size="10.00">iterator</text>
</g>
<!-- Node2&#45;&gt;Node14 -->
<g id="edge15" class="edge"><title>Node2&#45;&gt;Node14</title>
<path fill="none" stroke="midnightblue" d="M257.412,-112.444C287.892,-102.93 337.12,-87.5637 369.769,-77.3728"/>
<polygon fill="midnightblue" stroke="midnightblue" points="370.827,-80.7091 379.33,-74.3884 368.741,-74.0271 370.827,-80.7091"/>
</g>
<!-- Node15 -->
<g id="node16" class="node"><title>Node15</title>
<polygon fill="white" stroke="#bfbfbf" points="445,-56.5 445,-75.5 489,-75.5 489,-56.5 445,-56.5"/>
<text text-anchor="middle" x="467" y="-63.5" font-family="Helvetica,sans-Serif" font-size="10.00">vector</text>
</g>
<!-- Node2&#45;&gt;Node15 -->
<g id="edge16" class="edge"><title>Node2&#45;&gt;Node15</title>
<path fill="none" stroke="midnightblue" d="M270.228,-112.89C309.655,-104.781 371.663,-91.603 434.916,-75.8985"/>
<polygon fill="midnightblue" stroke="midnightblue" points="435.813,-79.2822 444.665,-73.4603 434.114,-72.4914 435.813,-79.2822"/>
</g>
<!-- Node4&#45;&gt;Node3 -->
<g id="edge5" class="edge"><title>Node4&#45;&gt;Node3</title>
<path fill="none" stroke="midnightblue" d="M178.468,-56.324C166.414,-47.979 147.973,-35.2122 133.731,-25.3524"/>
<polygon fill="midnightblue" stroke="midnightblue" points="135.715,-22.469 125.501,-19.6545 131.731,-28.2243 135.715,-22.469"/>
</g>
<!-- Node5 -->
<g id="node6" class="node"><title>Node5</title>
<polygon fill="white" stroke="#bfbfbf" points="457,-0.5 457,-19.5 513,-19.5 513,-0.5 457,-0.5"/>
<text text-anchor="middle" x="485" y="-7.5" font-family="Helvetica,sans-Serif" font-size="10.00">algorithm</text>
</g>
<!-- Node4&#45;&gt;Node5 -->
<g id="edge6" class="edge"><title>Node4&#45;&gt;Node5</title>
<path fill="none" stroke="midnightblue" d="M231.263,-57.6048C287.996,-47.1844 390.749,-28.3114 446.507,-18.0702"/>
<polygon fill="midnightblue" stroke="midnightblue" points="447.473,-21.4513 456.677,-16.2023 446.209,-14.5664 447.473,-21.4513"/>
</g>
<!-- Node4&#45;&gt;Node6 -->
<g id="edge7" class="edge"><title>Node4&#45;&gt;Node6</title>
<path fill="none" stroke="midnightblue" d="M165.331,-56.4435C138.077,-47.3591 94.8163,-32.9388 64.3494,-22.7831"/>
<polygon fill="midnightblue" stroke="midnightblue" points="65.1429,-19.3584 54.5493,-19.5164 62.9293,-25.9992 65.1429,-19.3584"/>
</g>
<!-- Node7 -->
<g id="node8" class="node"><title>Node7</title>
<polygon fill="white" stroke="#bfbfbf" points="367,-0.5 367,-19.5 407,-19.5 407,-0.5 367,-0.5"/>
<text text-anchor="middle" x="387" y="-7.5" font-family="Helvetica,sans-Serif" font-size="10.00">limits</text>
</g>
<!-- Node4&#45;&gt;Node7 -->
<g id="edge8" class="edge"><title>Node4&#45;&gt;Node7</title>
<path fill="none" stroke="midnightblue" d="M223.516,-56.4606C257.034,-47.5933 310.773,-33.1972 357,-20 357.098,-19.972 357.196,-19.9439 357.295,-19.9158"/>
<polygon fill="midnightblue" stroke="midnightblue" points="358.07,-23.3357 366.688,-17.1736 356.108,-16.6161 358.07,-23.3357"/>
</g>
<!-- Node8 -->
<g id="node9" class="node"><title>Node8</title>
<polygon fill="white" stroke="#bfbfbf" points="167.5,-0.5 167.5,-19.5 216.5,-19.5 216.5,-0.5 167.5,-0.5"/>
<text text-anchor="middle" x="192" y="-7.5" font-family="Helvetica,sans-Serif" font-size="10.00">istream</text>
</g>
<!-- Node4&#45;&gt;Node8 -->
<g id="edge9" class="edge"><title>Node4&#45;&gt;Node8</title>
<path fill="none" stroke="midnightblue" d="M191.165,-56.083C191.296,-49.0059 191.484,-38.8611 191.648,-29.9865"/>
<polygon fill="midnightblue" stroke="midnightblue" points="195.152,-29.8142 191.838,-19.7511 188.153,-29.6845 195.152,-29.8142"/>
</g>
<!-- Node9 -->
<g id="node10" class="node"><title>Node9</title>
<polygon fill="white" stroke="#bfbfbf" points="235,-0.5 235,-19.5 287,-19.5 287,-0.5 235,-0.5"/>
<text text-anchor="middle" x="261" y="-7.5" font-family="Helvetica,sans-Serif" font-size="10.00">sstream</text>
</g>
<!-- Node4&#45;&gt;Node9 -->
<g id="edge10" class="edge"><title>Node4&#45;&gt;Node9</title>
<path fill="none" stroke="midnightblue" d="M202.247,-56.324C212.797,-48.1849 228.801,-35.8395 241.442,-26.0874"/>
<polygon fill="midnightblue" stroke="midnightblue" points="243.769,-28.7132 249.549,-19.8339 239.493,-23.1707 243.769,-28.7132"/>
</g>
<!-- Node10 -->
<g id="node11" class="node"><title>Node10</title>
<polygon fill="white" stroke="#bfbfbf" points="305,-0.5 305,-19.5 349,-19.5 349,-0.5 305,-0.5"/>
<text text-anchor="middle" x="327" y="-7.5" font-family="Helvetica,sans-Serif" font-size="10.00">cmath</text>
</g>
<!-- Node4&#45;&gt;Node10 -->
<g id="edge11" class="edge"><title>Node4&#45;&gt;Node10</title>
<path fill="none" stroke="midnightblue" d="M212.55,-56.4435C235.031,-47.5171 270.488,-33.4387 295.98,-23.3168"/>
<polygon fill="midnightblue" stroke="midnightblue" points="297.549,-26.4598 305.551,-19.5164 294.965,-19.9539 297.549,-26.4598"/>
</g>
<!-- Node16&#45;&gt;Node5 -->
<g id="edge25" class="edge"><title>Node16&#45;&gt;Node5</title>
<path fill="none" stroke="midnightblue" d="M728.746,-121.209C687.567,-120.601 598.032,-114.539 536,-76 517.41,-64.4507 502.863,-43.5786 494.144,-28.5994"/>
<polygon fill="midnightblue" stroke="midnightblue" points="497.165,-26.8305 489.271,-19.764 491.035,-30.2109 497.165,-26.8305"/>
</g>
<!-- Node16&#45;&gt;Node15 -->
<g id="edge24" class="edge"><title>Node16&#45;&gt;Node15</title>
<path fill="none" stroke="midnightblue" d="M728.673,-117.452C685.105,-110.419 585.773,-93.8363 503,-76 501.725,-75.7252 500.426,-75.4375 499.115,-75.1408"/>
<polygon fill="midnightblue" stroke="midnightblue" points="499.569,-71.6515 489.031,-72.7504 497.954,-78.4627 499.569,-71.6515"/>
</g>
<!-- Node17 -->
<g id="node18" class="node"><title>Node17</title>
<polygon fill="white" stroke="#bfbfbf" points="545,-56.5 545,-75.5 641,-75.5 641,-56.5 545,-56.5"/>
<text text-anchor="middle" x="593" y="-63.5" font-family="Helvetica,sans-Serif" font-size="10.00">cereal/access.hpp</text>
</g>
<!-- Node16&#45;&gt;Node17 -->
<g id="edge18" class="edge"><title>Node16&#45;&gt;Node17</title>
<path fill="none" stroke="midnightblue" d="M728.698,-113.378C702.37,-104.38 658.286,-89.3129 627.533,-78.8025"/>
<polygon fill="midnightblue" stroke="midnightblue" points="628.651,-75.4859 618.057,-75.5637 626.387,-82.1097 628.651,-75.4859"/>
</g>
<!-- Node18 -->
<g id="node19" class="node"><title>Node18</title>
<g id="a_node19"><a xlink:href="variadic_8h.html" target="_top" xlink:title="std_ext/variadic.h">
<polygon fill="white" stroke="black" points="659,-56.5 659,-75.5 753,-75.5 753,-56.5 659,-56.5"/>
<text text-anchor="middle" x="706" y="-63.5" font-family="Helvetica,sans-Serif" font-size="10.00">std_ext/variadic.h</text>
</a>
</g>
</g>
<!-- Node16&#45;&gt;Node18 -->
<g id="edge19" class="edge"><title>Node16&#45;&gt;Node18</title>
<path fill="none" stroke="midnightblue" d="M743.569,-112.083C737.147,-104.377 727.694,-93.0333 719.878,-83.6531"/>
<polygon fill="midnightblue" stroke="midnightblue" points="722.383,-81.1927 713.293,-75.7511 717.006,-85.674 722.383,-81.1927"/>
</g>
<!-- Node21 -->
<g id="node22" class="node"><title>Node21</title>
<polygon fill="white" stroke="#bfbfbf" points="771,-56.5 771,-75.5 823,-75.5 823,-56.5 771,-56.5"/>
<text text-anchor="middle" x="797" y="-63.5" font-family="Helvetica,sans-Serif" font-size="10.00">memory</text>
</g>
<!-- Node16&#45;&gt;Node21 -->
<g id="edge22" class="edge"><title>Node16&#45;&gt;Node21</title>
<path fill="none" stroke="midnightblue" d="M758.596,-112.083C765.227,-104.298 775.021,-92.8015 783.058,-83.3665"/>
<polygon fill="midnightblue" stroke="midnightblue" points="785.725,-85.6332 789.545,-75.7511 780.396,-81.0939 785.725,-85.6332"/>
</g>
<!-- Node22 -->
<g id="node23" class="node"><title>Node22</title>
<polygon fill="white" stroke="#bfbfbf" points="841.5,-56.5 841.5,-75.5 870.5,-75.5 870.5,-56.5 841.5,-56.5"/>
<text text-anchor="middle" x="856" y="-63.5" font-family="Helvetica,sans-Serif" font-size="10.00">list</text>
</g>
<!-- Node16&#45;&gt;Node22 -->
<g id="edge23" class="edge"><title>Node16&#45;&gt;Node22</title>
<path fill="none" stroke="midnightblue" d="M767.87,-112.324C785.307,-103.357 812.671,-89.2833 832.282,-79.198"/>
<polygon fill="midnightblue" stroke="midnightblue" points="833.916,-82.2932 841.208,-74.6072 830.715,-76.0682 833.916,-82.2932"/>
</g>
<!-- Node23 -->
<g id="node24" class="node"><title>Node23</title>
<polygon fill="white" stroke="#bfbfbf" points="888.5,-56.5 888.5,-75.5 937.5,-75.5 937.5,-56.5 888.5,-56.5"/>
<text text-anchor="middle" x="913" y="-63.5" font-family="Helvetica,sans-Serif" font-size="10.00">cassert</text>
</g>
<!-- Node16&#45;&gt;Node23 -->
<g id="edge26" class="edge"><title>Node16&#45;&gt;Node23</title>
<path fill="none" stroke="midnightblue" d="M773.186,-113.605C800.397,-104.534 846.822,-89.0595 878.656,-78.4478"/>
<polygon fill="midnightblue" stroke="midnightblue" points="880.057,-81.6704 888.437,-75.1877 877.843,-75.0296 880.057,-81.6704"/>
</g>
<!-- Node24 -->
<g id="node25" class="node"><title>Node24</title>
<polygon fill="white" stroke="#bfbfbf" points="955.5,-56.5 955.5,-75.5 1006.5,-75.5 1006.5,-56.5 955.5,-56.5"/>
<text text-anchor="middle" x="981" y="-63.5" font-family="Helvetica,sans-Serif" font-size="10.00">numeric</text>
</g>
<!-- Node16&#45;&gt;Node24 -->
<g id="edge27" class="edge"><title>Node16&#45;&gt;Node24</title>
<path fill="none" stroke="midnightblue" d="M773.268,-116.051C807.827,-108.329 876.697,-92.7798 945.29,-76.1246"/>
<polygon fill="midnightblue" stroke="midnightblue" points="946.517,-79.4281 955.404,-73.6601 944.86,-72.6271 946.517,-79.4281"/>
</g>
<!-- Node25 -->
<g id="node26" class="node"><title>Node25</title>
<polygon fill="white" stroke="#bfbfbf" points="1025,-56.5 1025,-75.5 1087,-75.5 1087,-56.5 1025,-56.5"/>
<text text-anchor="middle" x="1056" y="-63.5" font-family="Helvetica,sans-Serif" font-size="10.00">type_traits</text>
</g>
<!-- Node16&#45;&gt;Node25 -->
<g id="edge28" class="edge"><title>Node16&#45;&gt;Node25</title>
<path fill="none" stroke="midnightblue" d="M773.316,-117.561C817.355,-110.697 918.75,-94.5089 1014.82,-75.952"/>
<polygon fill="midnightblue" stroke="midnightblue" points="1015.54,-79.3761 1024.69,-74.032 1014.21,-72.5047 1015.54,-79.3761"/>
</g>
<!-- Node19 -->
<g id="node20" class="node"><title>Node19</title>
<polygon fill="white" stroke="#bfbfbf" points="650.5,-0.5 650.5,-19.5 699.5,-19.5 699.5,-0.5 650.5,-0.5"/>
<text text-anchor="middle" x="675" y="-7.5" font-family="Helvetica,sans-Serif" font-size="10.00">cstddef</text>
</g>
<!-- Node18&#45;&gt;Node19 -->
<g id="edge20" class="edge"><title>Node18&#45;&gt;Node19</title>
<path fill="none" stroke="midnightblue" d="M700.881,-56.083C696.592,-48.6127 690.342,-37.7244 685.058,-28.5199"/>
<polygon fill="midnightblue" stroke="midnightblue" points="688.038,-26.6811 680.024,-19.7511 681.967,-30.1662 688.038,-26.6811"/>
</g>
<!-- Node20 -->
<g id="node21" class="node"><title>Node20</title>
<polygon fill="white" stroke="#bfbfbf" points="718,-0.5 718,-19.5 756,-19.5 756,-0.5 718,-0.5"/>
<text text-anchor="middle" x="737" y="-7.5" font-family="Helvetica,sans-Serif" font-size="10.00">tuple</text>
</g>
<!-- Node18&#45;&gt;Node20 -->
<g id="edge21" class="edge"><title>Node18&#45;&gt;Node20</title>
<path fill="none" stroke="midnightblue" d="M711.119,-56.083C715.408,-48.6127 721.658,-37.7244 726.942,-28.5199"/>
<polygon fill="midnightblue" stroke="midnightblue" points="730.033,-30.1662 731.976,-19.7511 723.962,-26.6811 730.033,-30.1662"/>
</g>
</g>
</svg>
