<?xml version="1.0" encoding="UTF-8" standalone="no"?>
<!DOCTYPE svg PUBLIC "-//W3C//DTD SVG 1.1//EN"
 "http://www.w3.org/Graphics/SVG/1.1/DTD/svg11.dtd">
<!-- Generated by graphviz version 2.36.0 (20140111.2315)
 -->
<!-- Title: src/base/PlotExt.cc Pages: 1 -->
<svg width="616pt" height="196pt"
 viewBox="0.00 0.00 616.00 196.00" xmlns="http://www.w3.org/2000/svg" xmlns:xlink="http://www.w3.org/1999/xlink">
<g id="graph0" class="graph" transform="scale(1 1) rotate(0) translate(4 192)">
<title>src/base/PlotExt.cc</title>
<polygon fill="white" stroke="none" points="-4,4 -4,-192 612,-192 612,4 -4,4"/>
<!-- Node0 -->
<g id="node1" class="node"><title>Node0</title>
<polygon fill="#bfbfbf" stroke="black" points="358.5,-168.5 358.5,-187.5 461.5,-187.5 461.5,-168.5 358.5,-168.5"/>
<text text-anchor="middle" x="410" y="-175.5" font-family="Helvetica,sans-Serif" font-size="10.00">src/base/PlotExt.cc</text>
</g>
<!-- Node1 -->
<g id="node2" class="node"><title>Node1</title>
<g id="a_node2"><a xlink:href="_plot_ext_8h.html" target="_top" xlink:title="PlotExt.h">
<polygon fill="white" stroke="black" points="250.5,-112.5 250.5,-131.5 307.5,-131.5 307.5,-112.5 250.5,-112.5"/>
<text text-anchor="middle" x="279" y="-119.5" font-family="Helvetica,sans-Serif" font-size="10.00">PlotExt.h</text>
</a>
</g>
</g>
<!-- Node0&#45;&gt;Node1 -->
<g id="edge1" class="edge"><title>Node0&#45;&gt;Node1</title>
<path fill="none" stroke="midnightblue" d="M389.243,-168.444C367.684,-159.557 333.737,-145.563 309.206,-135.451"/>
<polygon fill="midnightblue" stroke="midnightblue" points="310.239,-132.092 299.66,-131.516 307.572,-138.563 310.239,-132.092"/>
</g>
<!-- Node11 -->
<g id="node12" class="node"><title>Node11</title>
<polygon fill="white" stroke="#bfbfbf" points="326,-112.5 326,-131.5 370,-131.5 370,-112.5 326,-112.5"/>
<text text-anchor="middle" x="348" y="-119.5" font-family="Helvetica,sans-Serif" font-size="10.00">TH1.h</text>
</g>
<!-- Node0&#45;&gt;Node11 -->
<g id="edge11" class="edge"><title>Node0&#45;&gt;Node11</title>
<path fill="none" stroke="midnightblue" d="M400.039,-168.324C390.873,-160.341 377.063,-148.313 365.972,-138.653"/>
<polygon fill="midnightblue" stroke="midnightblue" points="367.982,-135.762 358.143,-131.834 363.385,-141.041 367.982,-135.762"/>
</g>
<!-- Node12 -->
<g id="node13" class="node"><title>Node12</title>
<polygon fill="white" stroke="#bfbfbf" points="388,-112.5 388,-131.5 432,-131.5 432,-112.5 388,-112.5"/>
<text text-anchor="middle" x="410" y="-119.5" font-family="Helvetica,sans-Serif" font-size="10.00">TH2.h</text>
</g>
<!-- Node0&#45;&gt;Node12 -->
<g id="edge12" class="edge"><title>Node0&#45;&gt;Node12</title>
<path fill="none" stroke="midnightblue" d="M410,-168.083C410,-161.006 410,-150.861 410,-141.986"/>
<polygon fill="midnightblue" stroke="midnightblue" points="413.5,-141.751 410,-131.751 406.5,-141.751 413.5,-141.751"/>
</g>
<!-- Node13 -->
<g id="node14" class="node"><title>Node13</title>
<polygon fill="white" stroke="#bfbfbf" points="450.5,-112.5 450.5,-131.5 507.5,-131.5 507.5,-112.5 450.5,-112.5"/>
<text text-anchor="middle" x="479" y="-119.5" font-family="Helvetica,sans-Serif" font-size="10.00">TGraph.h</text>
</g>
<!-- Node0&#45;&gt;Node13 -->
<g id="edge13" class="edge"><title>Node0&#45;&gt;Node13</title>
<path fill="none" stroke="midnightblue" d="M421.086,-168.324C431.486,-160.185 447.261,-147.839 459.722,-138.087"/>
<polygon fill="midnightblue" stroke="midnightblue" points="461.994,-140.753 467.712,-131.834 457.68,-135.241 461.994,-140.753"/>
</g>
<!-- Node14 -->
<g id="node15" class="node"><title>Node14</title>
<polygon fill="white" stroke="#bfbfbf" points="525.5,-112.5 525.5,-131.5 608.5,-131.5 608.5,-112.5 525.5,-112.5"/>
<text text-anchor="middle" x="567" y="-119.5" font-family="Helvetica,sans-Serif" font-size="10.00">TGraphErrors.h</text>
</g>
<!-- Node0&#45;&gt;Node14 -->
<g id="edge14" class="edge"><title>Node0&#45;&gt;Node14</title>
<path fill="none" stroke="midnightblue" d="M434.877,-168.444C461.289,-159.359 503.215,-144.939 532.742,-134.783"/>
<polygon fill="midnightblue" stroke="midnightblue" points="533.921,-138.079 542.239,-131.516 531.645,-131.459 533.921,-138.079"/>
</g>
<!-- Node2 -->
<g id="node3" class="node"><title>Node2</title>
<g id="a_node3"><a xlink:href="interval_8h.html" target="_top" xlink:title="base/interval.h">
<polygon fill="white" stroke="black" points="199,-56.5 199,-75.5 279,-75.5 279,-56.5 199,-56.5"/>
<text text-anchor="middle" x="239" y="-63.5" font-family="Helvetica,sans-Serif" font-size="10.00">base/interval.h</text>
</a>
</g>
</g>
<!-- Node1&#45;&gt;Node2 -->
<g id="edge2" class="edge"><title>Node1&#45;&gt;Node2</title>
<path fill="none" stroke="midnightblue" d="M272.395,-112.083C266.745,-104.455 258.455,-93.2645 251.549,-83.9408"/>
<polygon fill="midnightblue" stroke="midnightblue" points="254.247,-81.7034 245.482,-75.7511 248.622,-85.87 254.247,-81.7034"/>
</g>
<!-- Node10 -->
<g id="node11" class="node"><title>Node10</title>
<polygon fill="white" stroke="#bfbfbf" points="297,-56.5 297,-75.5 341,-75.5 341,-56.5 297,-56.5"/>
<text text-anchor="middle" x="319" y="-63.5" font-family="Helvetica,sans-Serif" font-size="10.00">vector</text>
</g>
<!-- Node1&#45;&gt;Node10 -->
<g id="edge10" class="edge"><title>Node1&#45;&gt;Node10</title>
<path fill="none" stroke="midnightblue" d="M285.605,-112.083C291.255,-104.455 299.545,-93.2645 306.451,-83.9408"/>
<polygon fill="midnightblue" stroke="midnightblue" points="309.378,-85.87 312.518,-75.7511 303.753,-81.7034 309.378,-85.87"/>
</g>
<!-- Node3 -->
<g id="node4" class="node"><title>Node3</title>
<g id="a_node4"><a xlink:href="types_8h.html" target="_top" xlink:title="types.h">
<polygon fill="white" stroke="black" points="-0.5,-0.5 -0.5,-19.5 48.5,-19.5 48.5,-0.5 -0.5,-0.5"/>
<text text-anchor="middle" x="24" y="-7.5" font-family="Helvetica,sans-Serif" font-size="10.00">types.h</text>
</a>
</g>
</g>
<!-- Node2&#45;&gt;Node3 -->
<g id="edge3" class="edge"><title>Node2&#45;&gt;Node3</title>
<path fill="none" stroke="midnightblue" d="M203.924,-56.4456C169.426,-47.9956 115.015,-34.5698 58.3551,-20.0613"/>
<polygon fill="midnightblue" stroke="midnightblue" points="59.0586,-16.6285 48.5025,-17.5332 57.3188,-23.4089 59.0586,-16.6285"/>
</g>
<!-- Node4 -->
<g id="node5" class="node"><title>Node4</title>
<polygon fill="white" stroke="#bfbfbf" points="67,-0.5 67,-19.5 123,-19.5 123,-0.5 67,-0.5"/>
<text text-anchor="middle" x="95" y="-7.5" font-family="Helvetica,sans-Serif" font-size="10.00">algorithm</text>
</g>
<!-- Node2&#45;&gt;Node4 -->
<g id="edge4" class="edge"><title>Node2&#45;&gt;Node4</title>
<path fill="none" stroke="midnightblue" d="M216.183,-56.4435C192.168,-47.4381 154.171,-33.1891 127.131,-23.049"/>
<polygon fill="midnightblue" stroke="midnightblue" points="128.303,-19.7506 117.71,-19.5164 125.845,-26.3049 128.303,-19.7506"/>
</g>
<!-- Node5 -->
<g id="node6" class="node"><title>Node5</title>
<polygon fill="white" stroke="#bfbfbf" points="141.5,-0.5 141.5,-19.5 200.5,-19.5 200.5,-0.5 141.5,-0.5"/>
<text text-anchor="middle" x="171" y="-7.5" font-family="Helvetica,sans-Serif" font-size="10.00">stdexcept</text>
</g>
<!-- Node2&#45;&gt;Node5 -->
<g id="edge5" class="edge"><title>Node2&#45;&gt;Node5</title>
<path fill="none" stroke="midnightblue" d="M228.075,-56.324C217.825,-48.1849 202.279,-35.8395 189.999,-26.0874"/>
<polygon fill="midnightblue" stroke="midnightblue" points="192.132,-23.3119 182.124,-19.8339 187.779,-28.7937 192.132,-23.3119"/>
</g>
<!-- Node6 -->
<g id="node7" class="node"><title>Node6</title>
<polygon fill="white" stroke="#bfbfbf" points="219,-0.5 219,-19.5 259,-19.5 259,-0.5 219,-0.5"/>
<text text-anchor="middle" x="239" y="-7.5" font-family="Helvetica,sans-Serif" font-size="10.00">limits</text>
</g>
<!-- Node2&#45;&gt;Node6 -->
<g id="edge6" class="edge"><title>Node2&#45;&gt;Node6</title>
<path fill="none" stroke="midnightblue" d="M239,-56.083C239,-49.0059 239,-38.8611 239,-29.9865"/>
<polygon fill="midnightblue" stroke="midnightblue" points="242.5,-29.751 239,-19.7511 235.5,-29.7511 242.5,-29.751"/>
</g>
<!-- Node7 -->
<g id="node8" class="node"><title>Node7</title>
<polygon fill="white" stroke="#bfbfbf" points="277.5,-0.5 277.5,-19.5 326.5,-19.5 326.5,-0.5 277.5,-0.5"/>
<text text-anchor="middle" x="302" y="-7.5" font-family="Helvetica,sans-Serif" font-size="10.00">istream</text>
</g>
<!-- Node2&#45;&gt;Node7 -->
<g id="edge7" class="edge"><title>Node2&#45;&gt;Node7</title>
<path fill="none" stroke="midnightblue" d="M249.122,-56.324C258.526,-48.2631 272.744,-36.0765 284.069,-26.3695"/>
<polygon fill="midnightblue" stroke="midnightblue" points="286.379,-28.9993 291.694,-19.8339 281.823,-23.6844 286.379,-28.9993"/>
</g>
<!-- Node8 -->
<g id="node9" class="node"><title>Node8</title>
<polygon fill="white" stroke="#bfbfbf" points="345,-0.5 345,-19.5 397,-19.5 397,-0.5 345,-0.5"/>
<text text-anchor="middle" x="371" y="-7.5" font-family="Helvetica,sans-Serif" font-size="10.00">sstream</text>
</g>
<!-- Node2&#45;&gt;Node8 -->
<g id="edge8" class="edge"><title>Node2&#45;&gt;Node8</title>
<path fill="none" stroke="midnightblue" d="M259.916,-56.4435C281.736,-47.5171 316.15,-33.4387 340.892,-23.3168"/>
<polygon fill="midnightblue" stroke="midnightblue" points="342.252,-26.5422 350.182,-19.5164 339.601,-20.0634 342.252,-26.5422"/>
</g>
<!-- Node9 -->
<g id="node10" class="node"><title>Node9</title>
<polygon fill="white" stroke="#bfbfbf" points="415,-0.5 415,-19.5 459,-19.5 459,-0.5 415,-0.5"/>
<text text-anchor="middle" x="437" y="-7.5" font-family="Helvetica,sans-Serif" font-size="10.00">cmath</text>
</g>
<!-- Node2&#45;&gt;Node9 -->
<g id="edge9" class="edge"><title>Node2&#45;&gt;Node9</title>
<path fill="none" stroke="midnightblue" d="M271.378,-56.4741C303.086,-48.0806 353.015,-34.7483 405.228,-20.1782"/>
<polygon fill="midnightblue" stroke="midnightblue" points="406.312,-23.5092 415,-17.4442 404.426,-16.768 406.312,-23.5092"/>
</g>
</g>
</svg>
