<?xml version="1.0" encoding="UTF-8" standalone="no"?>
<!DOCTYPE svg PUBLIC "-//W3C//DTD SVG 1.1//EN"
 "http://www.w3.org/Graphics/SVG/1.1/DTD/svg11.dtd">
<!-- Generated by graphviz version 2.36.0 (20140111.2315)
 -->
<!-- Title: src/mc/pluto/PlutoGenerator.cc Pages: 1 -->
<svg width="1765pt" height="420pt"
 viewBox="0.00 0.00 1765.00 420.00" xmlns="http://www.w3.org/2000/svg" xmlns:xlink="http://www.w3.org/1999/xlink">
<g id="graph0" class="graph" transform="scale(1 1) rotate(0) translate(4 416)">
<title>src/mc/pluto/PlutoGenerator.cc</title>
<polygon fill="white" stroke="none" points="-4,4 -4,-416 1761,-416 1761,4 -4,4"/>
<!-- Node0 -->
<g id="node1" class="node"><title>Node0</title>
<polygon fill="#bfbfbf" stroke="black" points="1391,-392.5 1391,-411.5 1543,-411.5 1543,-392.5 1391,-392.5"/>
<text text-anchor="middle" x="1467" y="-399.5" font-family="Helvetica,sans-Serif" font-size="10.00">src/mc/pluto/PlutoGenerator.cc</text>
</g>
<!-- Node1 -->
<g id="node2" class="node"><title>Node1</title>
<g id="a_node2"><a xlink:href="_pluto_generator_8h.html" target="_top" xlink:title="PlutoGenerator.h">
<polygon fill="white" stroke="black" points="633,-336.5 633,-355.5 723,-355.5 723,-336.5 633,-336.5"/>
<text text-anchor="middle" x="678" y="-343.5" font-family="Helvetica,sans-Serif" font-size="10.00">PlutoGenerator.h</text>
</a>
</g>
</g>
<!-- Node0&#45;&gt;Node1 -->
<g id="edge1" class="edge"><title>Node0&#45;&gt;Node1</title>
<path fill="none" stroke="midnightblue" d="M1390.99,-395.798C1232.9,-384.978 871.864,-360.268 733.435,-350.794"/>
<polygon fill="midnightblue" stroke="midnightblue" points="733.292,-347.276 723.077,-350.085 732.814,-354.26 733.292,-347.276"/>
</g>
<!-- Node46 -->
<g id="node47" class="node"><title>Node46</title>
<g id="a_node47"><a xlink:href="_pluto_extensions_8h.html" target="_top" xlink:title="PlutoExtensions.h">
<polygon fill="white" stroke="black" points="1368,-336.5 1368,-355.5 1464,-355.5 1464,-336.5 1368,-336.5"/>
<text text-anchor="middle" x="1416" y="-343.5" font-family="Helvetica,sans-Serif" font-size="10.00">PlutoExtensions.h</text>
</a>
</g>
</g>
<!-- Node0&#45;&gt;Node46 -->
<g id="edge70" class="edge"><title>Node0&#45;&gt;Node46</title>
<path fill="none" stroke="midnightblue" d="M1458.58,-392.083C1451.15,-384.22 1440.15,-372.569 1431.19,-363.081"/>
<polygon fill="midnightblue" stroke="midnightblue" points="1433.68,-360.618 1424.26,-355.751 1428.59,-365.424 1433.68,-360.618"/>
</g>
<!-- Node53 -->
<g id="node54" class="node"><title>Node53</title>
<polygon fill="white" stroke="#bfbfbf" points="1482.5,-336.5 1482.5,-355.5 1553.5,-355.5 1553.5,-336.5 1482.5,-336.5"/>
<text text-anchor="middle" x="1518" y="-343.5" font-family="Helvetica,sans-Serif" font-size="10.00">PReaction.h</text>
</g>
<!-- Node0&#45;&gt;Node53 -->
<g id="edge77" class="edge"><title>Node0&#45;&gt;Node53</title>
<path fill="none" stroke="midnightblue" d="M1475.42,-392.083C1482.85,-384.22 1493.85,-372.569 1502.81,-363.081"/>
<polygon fill="midnightblue" stroke="midnightblue" points="1505.41,-365.424 1509.74,-355.751 1500.32,-360.618 1505.41,-365.424"/>
</g>
<!-- Node54 -->
<g id="node55" class="node"><title>Node54</title>
<polygon fill="white" stroke="#bfbfbf" points="1571.5,-336.5 1571.5,-355.5 1636.5,-355.5 1636.5,-336.5 1571.5,-336.5"/>
<text text-anchor="middle" x="1604" y="-343.5" font-family="Helvetica,sans-Serif" font-size="10.00">PParticle.h</text>
</g>
<!-- Node0&#45;&gt;Node54 -->
<g id="edge78" class="edge"><title>Node0&#45;&gt;Node54</title>
<path fill="none" stroke="midnightblue" d="M1488.71,-392.444C1511.35,-383.517 1547.07,-369.439 1572.75,-359.317"/>
<polygon fill="midnightblue" stroke="midnightblue" points="1574.37,-362.44 1582.39,-355.516 1571.81,-355.927 1574.37,-362.44"/>
</g>
<!-- Node2 -->
<g id="node3" class="node"><title>Node2</title>
<polygon fill="white" stroke="#bfbfbf" points="834.5,-56.5 834.5,-75.5 875.5,-75.5 875.5,-56.5 834.5,-56.5"/>
<text text-anchor="middle" x="855" y="-63.5" font-family="Helvetica,sans-Serif" font-size="10.00">string</text>
</g>
<!-- Node1&#45;&gt;Node2 -->
<g id="edge2" class="edge"><title>Node1&#45;&gt;Node2</title>
<path fill="none" stroke="midnightblue" d="M716.224,-336.478C738.253,-329.823 765.05,-318.507 783,-300 842.53,-238.623 852.944,-129.081 854.688,-85.5636"/>
<polygon fill="midnightblue" stroke="midnightblue" points="858.186,-85.6572 854.976,-75.5604 851.189,-85.4553 858.186,-85.6572"/>
</g>
<!-- Node3 -->
<g id="node4" class="node"><title>Node3</title>
<polygon fill="white" stroke="#bfbfbf" points="726,-56.5 726,-75.5 770,-75.5 770,-56.5 726,-56.5"/>
<text text-anchor="middle" x="748" y="-63.5" font-family="Helvetica,sans-Serif" font-size="10.00">vector</text>
</g>
<!-- Node1&#45;&gt;Node3 -->
<g id="edge3" class="edge"><title>Node1&#45;&gt;Node3</title>
<path fill="none" stroke="midnightblue" d="M671.895,-336.191C666.245,-327.46 658.245,-313.478 655,-300 648.247,-271.948 633.996,-281.869 662,-168 668.509,-141.532 669.913,-133.236 687,-112 696.993,-99.5808 711.185,-88.8398 723.366,-80.9691"/>
<polygon fill="midnightblue" stroke="midnightblue" points="725.512,-83.758 732.186,-75.5297 721.837,-77.7999 725.512,-83.758"/>
</g>
<!-- Node4 -->
<g id="node5" class="node"><title>Node4</title>
<g id="a_node5"><a xlink:href="_wrap_t_file_8h.html" target="_top" xlink:title="base/WrapTFile.h">
<polygon fill="white" stroke="black" points="1103,-168.5 1103,-187.5 1197,-187.5 1197,-168.5 1103,-168.5"/>
<text text-anchor="middle" x="1150" y="-175.5" font-family="Helvetica,sans-Serif" font-size="10.00">base/WrapTFile.h</text>
</a>
</g>
</g>
<!-- Node1&#45;&gt;Node4 -->
<g id="edge4" class="edge"><title>Node1&#45;&gt;Node4</title>
<path fill="none" stroke="midnightblue" d="M719.84,-336.472C756.854,-328.486 812.109,-315.48 859,-300 958.366,-267.196 1071.68,-215.874 1122.64,-192.011"/>
<polygon fill="midnightblue" stroke="midnightblue" points="1124.42,-195.042 1131.98,-187.618 1121.44,-188.708 1124.42,-195.042"/>
</g>
<!-- Node14 -->
<g id="node15" class="node"><title>Node14</title>
<polygon fill="white" stroke="#bfbfbf" points="1685.5,-112.5 1685.5,-131.5 1732.5,-131.5 1732.5,-112.5 1685.5,-112.5"/>
<text text-anchor="middle" x="1709" y="-119.5" font-family="Helvetica,sans-Serif" font-size="10.00">TFile.h</text>
</g>
<!-- Node1&#45;&gt;Node14 -->
<g id="edge66" class="edge"><title>Node1&#45;&gt;Node14</title>
<path fill="none" stroke="midnightblue" d="M721.008,-336.457C765.756,-327.528 837.84,-313.028 900,-300 1242.17,-228.285 1331.56,-216.012 1675.52,-132.019"/>
<polygon fill="midnightblue" stroke="midnightblue" points="1676.36,-135.415 1685.25,-129.64 1674.7,-128.615 1676.36,-135.415"/>
</g>
<!-- Node23 -->
<g id="node24" class="node"><title>Node23</title>
<g id="a_node24"><a xlink:href="_query_8h.html" target="_top" xlink:title="mc/database/Query.h">
<polygon fill="white" stroke="black" points="664,-280.5 664,-299.5 774,-299.5 774,-280.5 664,-280.5"/>
<text text-anchor="middle" x="719" y="-287.5" font-family="Helvetica,sans-Serif" font-size="10.00">mc/database/Query.h</text>
</a>
</g>
</g>
<!-- Node1&#45;&gt;Node23 -->
<g id="edge29" class="edge"><title>Node1&#45;&gt;Node23</title>
<path fill="none" stroke="midnightblue" d="M684.77,-336.083C690.562,-328.455 699.058,-317.264 706.138,-307.941"/>
<polygon fill="midnightblue" stroke="midnightblue" points="709.096,-309.832 712.356,-299.751 703.521,-305.599 709.096,-309.832"/>
</g>
<!-- Node42 -->
<g id="node43" class="node"><title>Node42</title>
<g id="a_node43"><a xlink:href="_pluto_factory_8h.html" target="_top" xlink:title="PlutoFactory.h">
<polygon fill="white" stroke="black" points="330,-280.5 330,-299.5 410,-299.5 410,-280.5 330,-280.5"/>
<text text-anchor="middle" x="370" y="-287.5" font-family="Helvetica,sans-Serif" font-size="10.00">PlutoFactory.h</text>
</a>
</g>
</g>
<!-- Node1&#45;&gt;Node42 -->
<g id="edge63" class="edge"><title>Node1&#45;&gt;Node42</title>
<path fill="none" stroke="midnightblue" d="M632.884,-337.09C576.297,-327.169 479.551,-310.207 420.532,-299.859"/>
<polygon fill="midnightblue" stroke="midnightblue" points="420.78,-296.35 410.326,-298.07 419.571,-303.244 420.78,-296.35"/>
</g>
<!-- Node43 -->
<g id="node44" class="node"><title>Node43</title>
<polygon fill="white" stroke="#bfbfbf" points="407,-224.5 407,-243.5 449,-243.5 449,-224.5 407,-224.5"/>
<text text-anchor="middle" x="428" y="-231.5" font-family="Helvetica,sans-Serif" font-size="10.00">TF1.h</text>
</g>
<!-- Node1&#45;&gt;Node43 -->
<g id="edge67" class="edge"><title>Node1&#45;&gt;Node43</title>
<path fill="none" stroke="midnightblue" d="M632.681,-340.667C576.12,-334.443 483.573,-321.314 457,-300 442.713,-288.54 435.248,-268.561 431.495,-253.77"/>
<polygon fill="midnightblue" stroke="midnightblue" points="434.849,-252.72 429.297,-243.696 428.01,-254.213 434.849,-252.72"/>
</g>
<!-- Node44 -->
<g id="node45" class="node"><title>Node44</title>
<polygon fill="white" stroke="#bfbfbf" points="466,-280.5 466,-299.5 516,-299.5 516,-280.5 466,-280.5"/>
<text text-anchor="middle" x="491" y="-287.5" font-family="Helvetica,sans-Serif" font-size="10.00">TTree.h</text>
</g>
<!-- Node1&#45;&gt;Node44 -->
<g id="edge68" class="edge"><title>Node1&#45;&gt;Node44</title>
<path fill="none" stroke="midnightblue" d="M648.369,-336.444C615.094,-326.835 561.145,-311.256 525.867,-301.069"/>
<polygon fill="midnightblue" stroke="midnightblue" points="526.582,-297.632 516.004,-298.22 524.64,-304.357 526.582,-297.632"/>
</g>
<!-- Node45 -->
<g id="node46" class="node"><title>Node45</title>
<polygon fill="white" stroke="#bfbfbf" points="534.5,-280.5 534.5,-299.5 607.5,-299.5 607.5,-280.5 534.5,-280.5"/>
<text text-anchor="middle" x="571" y="-287.5" font-family="Helvetica,sans-Serif" font-size="10.00">TRandom3.h</text>
</g>
<!-- Node1&#45;&gt;Node45 -->
<g id="edge69" class="edge"><title>Node1&#45;&gt;Node45</title>
<path fill="none" stroke="midnightblue" d="M660.809,-336.324C643.649,-327.664 617.054,-314.242 597.253,-304.249"/>
<polygon fill="midnightblue" stroke="midnightblue" points="598.653,-301.035 588.149,-299.655 595.499,-307.285 598.653,-301.035"/>
</g>
<!-- Node4&#45;&gt;Node2 -->
<g id="edge24" class="edge"><title>Node4&#45;&gt;Node2</title>
<path fill="none" stroke="midnightblue" d="M1153.6,-168.205C1158.59,-154.439 1165.54,-127.751 1152,-112 1134.78,-91.972 958.798,-75.46 886.13,-69.4429"/>
<polygon fill="midnightblue" stroke="midnightblue" points="886.042,-65.9242 875.791,-68.6001 885.473,-72.9011 886.042,-65.9242"/>
</g>
<!-- Node5 -->
<g id="node6" class="node"><title>Node5</title>
<g id="a_node6"><a xlink:href="string_8h.html" target="_top" xlink:title="base/std_ext/string.h">
<polygon fill="white" stroke="black" points="1200,-112.5 1200,-131.5 1308,-131.5 1308,-112.5 1200,-112.5"/>
<text text-anchor="middle" x="1254" y="-119.5" font-family="Helvetica,sans-Serif" font-size="10.00">base/std_ext/string.h</text>
</a>
</g>
</g>
<!-- Node4&#45;&gt;Node5 -->
<g id="edge5" class="edge"><title>Node4&#45;&gt;Node5</title>
<path fill="none" stroke="midnightblue" d="M1166.71,-168.324C1183.31,-159.703 1209,-146.364 1228.22,-136.386"/>
<polygon fill="midnightblue" stroke="midnightblue" points="1230.07,-139.369 1237.33,-131.655 1226.84,-133.156 1230.07,-139.369"/>
</g>
<!-- Node8 -->
<g id="node9" class="node"><title>Node8</title>
<g id="a_node9"><a xlink:href="misc_8h.html" target="_top" xlink:title="base/std_ext/misc.h">
<polygon fill="white" stroke="black" points="1562.5,-112.5 1562.5,-131.5 1667.5,-131.5 1667.5,-112.5 1562.5,-112.5"/>
<text text-anchor="middle" x="1615" y="-119.5" font-family="Helvetica,sans-Serif" font-size="10.00">base/std_ext/misc.h</text>
</a>
</g>
</g>
<!-- Node4&#45;&gt;Node8 -->
<g id="edge10" class="edge"><title>Node4&#45;&gt;Node8</title>
<path fill="none" stroke="midnightblue" d="M1197.26,-169.836C1201.9,-169.19 1206.54,-168.567 1211,-168 1360.43,-149.003 1398.45,-150.029 1548,-132 1549.46,-131.824 1550.93,-131.645 1552.42,-131.461"/>
<polygon fill="midnightblue" stroke="midnightblue" points="1552.87,-134.932 1562.35,-130.209 1551.99,-127.987 1552.87,-134.932"/>
</g>
<!-- Node9 -->
<g id="node10" class="node"><title>Node9</title>
<polygon fill="white" stroke="#bfbfbf" points="1472.5,-56.5 1472.5,-75.5 1531.5,-75.5 1531.5,-56.5 1472.5,-56.5"/>
<text text-anchor="middle" x="1502" y="-63.5" font-family="Helvetica,sans-Serif" font-size="10.00">functional</text>
</g>
<!-- Node4&#45;&gt;Node9 -->
<g id="edge28" class="edge"><title>Node4&#45;&gt;Node9</title>
<path fill="none" stroke="midnightblue" d="M1197.27,-169.889C1201.91,-169.233 1206.54,-168.593 1211,-168 1278.43,-159.034 1469.81,-182.853 1515,-132 1526.43,-119.139 1520.07,-99.1317 1512.81,-84.711"/>
<polygon fill="midnightblue" stroke="midnightblue" points="1515.76,-82.816 1507.84,-75.7764 1509.64,-86.2172 1515.76,-82.816"/>
</g>
<!-- Node13 -->
<g id="node14" class="node"><title>Node13</title>
<polygon fill="white" stroke="#bfbfbf" points="1310,-56.5 1310,-75.5 1362,-75.5 1362,-56.5 1310,-56.5"/>
<text text-anchor="middle" x="1336" y="-63.5" font-family="Helvetica,sans-Serif" font-size="10.00">memory</text>
</g>
<!-- Node4&#45;&gt;Node13 -->
<g id="edge23" class="edge"><title>Node4&#45;&gt;Node13</title>
<path fill="none" stroke="midnightblue" d="M1197.23,-169.561C1240.41,-161.847 1300.05,-148.595 1317,-132 1329.2,-120.058 1333.67,-100.755 1335.26,-86.2809"/>
<polygon fill="midnightblue" stroke="midnightblue" points="1338.78,-86.1675 1336,-75.9413 1331.79,-85.6632 1338.78,-86.1675"/>
</g>
<!-- Node4&#45;&gt;Node14 -->
<g id="edge17" class="edge"><title>Node4&#45;&gt;Node14</title>
<path fill="none" stroke="midnightblue" d="M1197.25,-169.7C1201.89,-169.081 1206.53,-168.502 1211,-168 1413.77,-145.22 1470.02,-166.734 1675.43,-131.741"/>
<polygon fill="midnightblue" stroke="midnightblue" points="1676.07,-135.183 1685.33,-130.031 1674.88,-128.285 1676.07,-135.183"/>
</g>
<!-- Node15 -->
<g id="node16" class="node"><title>Node15</title>
<polygon fill="white" stroke="#bfbfbf" points="1364.5,-112.5 1364.5,-131.5 1435.5,-131.5 1435.5,-112.5 1364.5,-112.5"/>
<text text-anchor="middle" x="1400" y="-119.5" font-family="Helvetica,sans-Serif" font-size="10.00">TDirectory.h</text>
</g>
<!-- Node4&#45;&gt;Node15 -->
<g id="edge18" class="edge"><title>Node4&#45;&gt;Node15</title>
<path fill="none" stroke="midnightblue" d="M1189.61,-168.444C1234.38,-158.774 1307.13,-143.059 1354.28,-132.877"/>
<polygon fill="midnightblue" stroke="midnightblue" points="1355.18,-136.262 1364.22,-130.729 1353.7,-129.419 1355.18,-136.262"/>
</g>
<!-- Node16 -->
<g id="node17" class="node"><title>Node16</title>
<polygon fill="white" stroke="#bfbfbf" points="1454,-112.5 1454,-131.5 1506,-131.5 1506,-112.5 1454,-112.5"/>
<text text-anchor="middle" x="1480" y="-119.5" font-family="Helvetica,sans-Serif" font-size="10.00">TError.h</text>
</g>
<!-- Node4&#45;&gt;Node16 -->
<g id="edge19" class="edge"><title>Node4&#45;&gt;Node16</title>
<path fill="none" stroke="midnightblue" d="M1197.1,-170.038C1267.82,-159.548 1397.31,-140.201 1443.61,-131.802"/>
<polygon fill="midnightblue" stroke="midnightblue" points="1444.55,-135.186 1453.72,-129.871 1443.24,-128.31 1444.55,-135.186"/>
</g>
<!-- Node17 -->
<g id="node18" class="node"><title>Node17</title>
<polygon fill="white" stroke="#bfbfbf" points="890.5,-112.5 890.5,-131.5 937.5,-131.5 937.5,-112.5 890.5,-112.5"/>
<text text-anchor="middle" x="914" y="-119.5" font-family="Helvetica,sans-Serif" font-size="10.00">TList.h</text>
</g>
<!-- Node4&#45;&gt;Node17 -->
<g id="edge20" class="edge"><title>Node4&#45;&gt;Node17</title>
<path fill="none" stroke="midnightblue" d="M1108.65,-168.443C1069.62,-160.23 1009.24,-147.177 947.65,-132.068"/>
<polygon fill="midnightblue" stroke="midnightblue" points="948.305,-128.625 937.757,-129.626 946.627,-135.421 948.305,-128.625"/>
</g>
<!-- Node18 -->
<g id="node19" class="node"><title>Node18</title>
<polygon fill="white" stroke="#bfbfbf" points="956,-112.5 956,-131.5 1030,-131.5 1030,-112.5 956,-112.5"/>
<text text-anchor="middle" x="993" y="-119.5" font-family="Helvetica,sans-Serif" font-size="10.00">TCollection.h</text>
</g>
<!-- Node4&#45;&gt;Node18 -->
<g id="edge21" class="edge"><title>Node4&#45;&gt;Node18</title>
<path fill="none" stroke="midnightblue" d="M1125.12,-168.444C1098.71,-159.359 1056.78,-144.939 1027.26,-134.783"/>
<polygon fill="midnightblue" stroke="midnightblue" points="1028.36,-131.459 1017.76,-131.516 1026.08,-138.079 1028.36,-131.459"/>
</g>
<!-- Node19 -->
<g id="node20" class="node"><title>Node19</title>
<polygon fill="white" stroke="#bfbfbf" points="1048,-112.5 1048,-131.5 1096,-131.5 1096,-112.5 1048,-112.5"/>
<text text-anchor="middle" x="1072" y="-119.5" font-family="Helvetica,sans-Serif" font-size="10.00">TKey.h</text>
</g>
<!-- Node4&#45;&gt;Node19 -->
<g id="edge22" class="edge"><title>Node4&#45;&gt;Node19</title>
<path fill="none" stroke="midnightblue" d="M1137.47,-168.324C1125.41,-159.979 1106.97,-147.212 1092.73,-137.352"/>
<polygon fill="midnightblue" stroke="midnightblue" points="1094.72,-134.469 1084.5,-131.655 1090.73,-140.224 1094.72,-134.469"/>
</g>
<!-- Node20 -->
<g id="node21" class="node"><title>Node20</title>
<polygon fill="white" stroke="#bfbfbf" points="787.5,-56.5 787.5,-75.5 816.5,-75.5 816.5,-56.5 787.5,-56.5"/>
<text text-anchor="middle" x="802" y="-63.5" font-family="Helvetica,sans-Serif" font-size="10.00">list</text>
</g>
<!-- Node4&#45;&gt;Node20 -->
<g id="edge25" class="edge"><title>Node4&#45;&gt;Node20</title>
<path fill="none" stroke="midnightblue" d="M1102.83,-174.464C1028.88,-169.75 889.766,-157.689 848,-132 830.204,-121.054 817.389,-100.38 809.875,-85.2775"/>
<polygon fill="midnightblue" stroke="midnightblue" points="812.908,-83.4984 805.524,-75.9003 806.558,-86.4446 812.908,-83.4984"/>
</g>
<!-- Node21 -->
<g id="node22" class="node"><title>Node21</title>
<polygon fill="white" stroke="#bfbfbf" points="1114,-112.5 1114,-131.5 1144,-131.5 1144,-112.5 1114,-112.5"/>
<text text-anchor="middle" x="1129" y="-119.5" font-family="Helvetica,sans-Serif" font-size="10.00">set</text>
</g>
<!-- Node4&#45;&gt;Node21 -->
<g id="edge26" class="edge"><title>Node4&#45;&gt;Node21</title>
<path fill="none" stroke="midnightblue" d="M1146.53,-168.083C1143.69,-160.77 1139.57,-150.181 1136.04,-141.103"/>
<polygon fill="midnightblue" stroke="midnightblue" points="1139.29,-139.803 1132.4,-131.751 1132.77,-142.34 1139.29,-139.803"/>
</g>
<!-- Node22 -->
<g id="node23" class="node"><title>Node22</title>
<polygon fill="white" stroke="#bfbfbf" points="674.5,-0.5 674.5,-19.5 733.5,-19.5 733.5,-0.5 674.5,-0.5"/>
<text text-anchor="middle" x="704" y="-7.5" font-family="Helvetica,sans-Serif" font-size="10.00">stdexcept</text>
</g>
<!-- Node4&#45;&gt;Node22 -->
<g id="edge27" class="edge"><title>Node4&#45;&gt;Node22</title>
<path fill="none" stroke="midnightblue" d="M1102.83,-176.147C1033.4,-173.781 908.88,-164.931 881,-132 859.158,-106.2 904.803,-82.6446 884,-56 875.307,-44.8658 794.013,-27.8618 743.695,-18.26"/>
<polygon fill="midnightblue" stroke="midnightblue" points="744.246,-14.8022 733.77,-16.3852 742.947,-21.6806 744.246,-14.8022"/>
</g>
<!-- Node5&#45;&gt;Node2 -->
<g id="edge6" class="edge"><title>Node5&#45;&gt;Node2</title>
<path fill="none" stroke="midnightblue" d="M1199.77,-113.661C1114.83,-102.165 953.131,-80.2809 885.712,-71.1565"/>
<polygon fill="midnightblue" stroke="midnightblue" points="886.106,-67.678 875.727,-69.8051 885.167,-74.6148 886.106,-67.678"/>
</g>
<!-- Node5&#45;&gt;Node3 -->
<g id="edge9" class="edge"><title>Node5&#45;&gt;Node3</title>
<path fill="none" stroke="midnightblue" d="M1199.91,-116.175C1088.23,-106.174 838.231,-83.5875 780.095,-75.7331"/>
<polygon fill="midnightblue" stroke="midnightblue" points="780.579,-72.2663 770.158,-74.1787 779.497,-79.1822 780.579,-72.2663"/>
</g>
<!-- Node6 -->
<g id="node7" class="node"><title>Node6</title>
<polygon fill="white" stroke="#bfbfbf" points="783,-0.5 783,-19.5 835,-19.5 835,-0.5 783,-0.5"/>
<text text-anchor="middle" x="809" y="-7.5" font-family="Helvetica,sans-Serif" font-size="10.00">sstream</text>
</g>
<!-- Node5&#45;&gt;Node6 -->
<g id="edge7" class="edge"><title>Node5&#45;&gt;Node6</title>
<path fill="none" stroke="midnightblue" d="M1237.29,-112.364C1209.4,-98.3242 1151.26,-70.6489 1099,-56 995.566,-27.007 966.012,-37.3354 860,-20 855.206,-19.216 850.163,-18.3621 845.191,-17.5026"/>
<polygon fill="midnightblue" stroke="midnightblue" points="845.639,-14.0279 835.186,-15.7513 844.432,-20.9231 845.639,-14.0279"/>
</g>
<!-- Node7 -->
<g id="node8" class="node"><title>Node7</title>
<polygon fill="white" stroke="#bfbfbf" points="869,-0.5 869,-19.5 925,-19.5 925,-0.5 869,-0.5"/>
<text text-anchor="middle" x="897" y="-7.5" font-family="Helvetica,sans-Serif" font-size="10.00">algorithm</text>
</g>
<!-- Node5&#45;&gt;Node7 -->
<g id="edge8" class="edge"><title>Node5&#45;&gt;Node7</title>
<path fill="none" stroke="midnightblue" d="M1247.01,-112.108C1235.14,-97.7015 1209.53,-69.5102 1181,-56 1099.62,-17.4578 991.929,-10.8884 935.404,-10.3705"/>
<polygon fill="midnightblue" stroke="midnightblue" points="935.144,-6.86977 925.133,-10.3388 935.122,-13.8697 935.144,-6.86977"/>
</g>
<!-- Node8&#45;&gt;Node7 -->
<g id="edge11" class="edge"><title>Node8&#45;&gt;Node7</title>
<path fill="none" stroke="midnightblue" d="M1608.27,-112.297C1596.35,-97.6291 1569.94,-68.3748 1540,-56 1429.7,-10.4047 1056.78,-9.55021 935.473,-10.533"/>
<polygon fill="midnightblue" stroke="midnightblue" points="935.16,-7.03564 925.192,-10.6259 935.223,-14.0354 935.16,-7.03564"/>
</g>
<!-- Node8&#45;&gt;Node9 -->
<g id="edge12" class="edge"><title>Node8&#45;&gt;Node9</title>
<path fill="none" stroke="midnightblue" d="M1597.09,-112.444C1578.75,-103.675 1549.99,-89.9355 1528.91,-79.8579"/>
<polygon fill="midnightblue" stroke="midnightblue" points="1530.35,-76.6703 1519.82,-75.5164 1527.33,-82.9862 1530.35,-76.6703"/>
</g>
<!-- Node10 -->
<g id="node11" class="node"><title>Node10</title>
<polygon fill="white" stroke="#bfbfbf" points="1395,-0.5 1395,-19.5 1439,-19.5 1439,-0.5 1395,-0.5"/>
<text text-anchor="middle" x="1417" y="-7.5" font-family="Helvetica,sans-Serif" font-size="10.00">cmath</text>
</g>
<!-- Node8&#45;&gt;Node10 -->
<g id="edge13" class="edge"><title>Node8&#45;&gt;Node10</title>
<path fill="none" stroke="midnightblue" d="M1625.8,-112.356C1640.89,-99.2537 1664.85,-73.9903 1650,-56 1624.88,-25.564 1506.87,-15.4803 1449.07,-12.3327"/>
<polygon fill="midnightblue" stroke="midnightblue" points="1449.18,-8.83373 1439.01,-11.8223 1448.82,-15.8247 1449.18,-8.83373"/>
</g>
<!-- Node11 -->
<g id="node12" class="node"><title>Node11</title>
<polygon fill="white" stroke="#bfbfbf" points="1588.5,-56.5 1588.5,-75.5 1641.5,-75.5 1641.5,-56.5 1588.5,-56.5"/>
<text text-anchor="middle" x="1615" y="-63.5" font-family="Helvetica,sans-Serif" font-size="10.00">cxxabi.h</text>
</g>
<!-- Node8&#45;&gt;Node11 -->
<g id="edge14" class="edge"><title>Node8&#45;&gt;Node11</title>
<path fill="none" stroke="midnightblue" d="M1615,-112.083C1615,-105.006 1615,-94.8611 1615,-85.9865"/>
<polygon fill="midnightblue" stroke="midnightblue" points="1618.5,-85.751 1615,-75.7511 1611.5,-85.7511 1618.5,-85.751"/>
</g>
<!-- Node12 -->
<g id="node13" class="node"><title>Node12</title>
<polygon fill="white" stroke="#bfbfbf" points="1029,-56.5 1029,-75.5 1091,-75.5 1091,-56.5 1029,-56.5"/>
<text text-anchor="middle" x="1060" y="-63.5" font-family="Helvetica,sans-Serif" font-size="10.00">type_traits</text>
</g>
<!-- Node8&#45;&gt;Node12 -->
<g id="edge15" class="edge"><title>Node8&#45;&gt;Node12</title>
<path fill="none" stroke="midnightblue" d="M1562.29,-115.871C1452.38,-105.177 1200.72,-80.6912 1101.4,-71.0282"/>
<polygon fill="midnightblue" stroke="midnightblue" points="1101.46,-67.5172 1091.17,-70.0323 1100.78,-74.4843 1101.46,-67.5172"/>
</g>
<!-- Node8&#45;&gt;Node13 -->
<g id="edge16" class="edge"><title>Node8&#45;&gt;Node13</title>
<path fill="none" stroke="midnightblue" d="M1570.79,-112.444C1515.88,-101.815 1423.23,-83.8836 1372.28,-74.0223"/>
<polygon fill="midnightblue" stroke="midnightblue" points="1372.85,-70.5682 1362.37,-72.1041 1371.52,-77.4407 1372.85,-70.5682"/>
</g>
<!-- Node23&#45;&gt;Node3 -->
<g id="edge30" class="edge"><title>Node23&#45;&gt;Node3</title>
<path fill="none" stroke="midnightblue" d="M704.922,-280.259C693.647,-272.355 678.654,-259.584 672,-244 658.735,-212.936 661.293,-200.036 672,-168 683.625,-133.217 712.462,-100.803 731.084,-82.4901"/>
<polygon fill="midnightblue" stroke="midnightblue" points="733.546,-84.9779 738.359,-75.539 728.711,-79.9166 733.546,-84.9779"/>
</g>
<!-- Node24 -->
<g id="node25" class="node"><title>Node24</title>
<g id="a_node25"><a xlink:href="_production_data_base_8h.html" target="_top" xlink:title="ProductionDataBase.h">
<polygon fill="white" stroke="black" points="681.5,-224.5 681.5,-243.5 796.5,-243.5 796.5,-224.5 681.5,-224.5"/>
<text text-anchor="middle" x="739" y="-231.5" font-family="Helvetica,sans-Serif" font-size="10.00">ProductionDataBase.h</text>
</a>
</g>
</g>
<!-- Node23&#45;&gt;Node24 -->
<g id="edge31" class="edge"><title>Node23&#45;&gt;Node24</title>
<path fill="none" stroke="midnightblue" d="M722.303,-280.083C724.982,-272.849 728.849,-262.409 732.186,-253.397"/>
<polygon fill="midnightblue" stroke="midnightblue" points="735.568,-254.344 735.759,-243.751 729.004,-251.913 735.568,-254.344"/>
</g>
<!-- Node24&#45;&gt;Node3 -->
<g id="edge32" class="edge"><title>Node24&#45;&gt;Node3</title>
<path fill="none" stroke="midnightblue" d="M753.37,-224.33C764.88,-216.469 780.189,-203.722 787,-188 790.534,-179.844 788.743,-176.716 787,-168 783.601,-151.003 778.337,-148.134 772,-132 765.885,-116.43 759.331,-98.595 754.62,-85.5507"/>
<polygon fill="midnightblue" stroke="midnightblue" points="757.82,-84.1041 751.146,-75.875 751.231,-86.4695 757.82,-84.1041"/>
</g>
<!-- Node25 -->
<g id="node26" class="node"><title>Node25</title>
<g id="a_node26"><a xlink:href="_particle_type_tree_8h.html" target="_top" xlink:title="base/ParticleTypeTree.h">
<polygon fill="white" stroke="black" points="308.5,-168.5 308.5,-187.5 431.5,-187.5 431.5,-168.5 308.5,-168.5"/>
<text text-anchor="middle" x="370" y="-175.5" font-family="Helvetica,sans-Serif" font-size="10.00">base/ParticleTypeTree.h</text>
</a>
</g>
</g>
<!-- Node24&#45;&gt;Node25 -->
<g id="edge33" class="edge"><title>Node24&#45;&gt;Node25</title>
<path fill="none" stroke="midnightblue" d="M681.344,-224.562C615.56,-214.936 508.079,-199.207 438.193,-188.979"/>
<polygon fill="midnightblue" stroke="midnightblue" points="438.565,-185.497 428.164,-187.512 437.552,-192.423 438.565,-185.497"/>
</g>
<!-- Node41 -->
<g id="node42" class="node"><title>Node41</title>
<polygon fill="white" stroke="#bfbfbf" points="681,-168.5 681,-187.5 779,-187.5 779,-168.5 681,-168.5"/>
<text text-anchor="middle" x="730" y="-175.5" font-family="Helvetica,sans-Serif" font-size="10.00">Math/Interpolator.h</text>
</g>
<!-- Node24&#45;&gt;Node41 -->
<g id="edge62" class="edge"><title>Node24&#45;&gt;Node41</title>
<path fill="none" stroke="midnightblue" d="M737.514,-224.083C736.321,-216.927 734.606,-206.635 733.115,-197.691"/>
<polygon fill="midnightblue" stroke="midnightblue" points="736.555,-197.04 731.459,-187.751 729.65,-198.19 736.555,-197.04"/>
</g>
<!-- Node26 -->
<g id="node27" class="node"><title>Node26</title>
<g id="a_node27"><a xlink:href="_particle_type_8h.html" target="_top" xlink:title="ParticleType.h">
<polygon fill="white" stroke="black" points="266,-112.5 266,-131.5 346,-131.5 346,-112.5 266,-112.5"/>
<text text-anchor="middle" x="306" y="-119.5" font-family="Helvetica,sans-Serif" font-size="10.00">ParticleType.h</text>
</a>
</g>
</g>
<!-- Node25&#45;&gt;Node26 -->
<g id="edge34" class="edge"><title>Node25&#45;&gt;Node26</title>
<path fill="none" stroke="midnightblue" d="M359.717,-168.324C350.164,-160.263 335.72,-148.077 324.216,-138.369"/>
<polygon fill="midnightblue" stroke="midnightblue" points="326.37,-135.608 316.47,-131.834 321.856,-140.958 326.37,-135.608"/>
</g>
<!-- Node32 -->
<g id="node33" class="node"><title>Node32</title>
<polygon fill="white" stroke="#bfbfbf" points="-0.5,-56.5 -0.5,-75.5 34.5,-75.5 34.5,-56.5 -0.5,-56.5"/>
<text text-anchor="middle" x="17" y="-63.5" font-family="Helvetica,sans-Serif" font-size="10.00">map</text>
</g>
<!-- Node25&#45;&gt;Node32 -->
<g id="edge61" class="edge"><title>Node25&#45;&gt;Node32</title>
<path fill="none" stroke="midnightblue" d="M342.594,-168.46C276.783,-147.952 110.411,-96.1083 44.5021,-75.5701"/>
<polygon fill="midnightblue" stroke="midnightblue" points="45.4059,-72.1858 34.8174,-72.5522 43.3234,-78.8688 45.4059,-72.1858"/>
</g>
<!-- Node34 -->
<g id="node35" class="node"><title>Node34</title>
<g id="a_node35"><a xlink:href="_tree_8h.html" target="_top" xlink:title="Tree.h">
<polygon fill="white" stroke="black" points="543,-112.5 543,-131.5 587,-131.5 587,-112.5 543,-112.5"/>
<text text-anchor="middle" x="565" y="-119.5" font-family="Helvetica,sans-Serif" font-size="10.00">Tree.h</text>
</a>
</g>
</g>
<!-- Node25&#45;&gt;Node34 -->
<g id="edge49" class="edge"><title>Node25&#45;&gt;Node34</title>
<path fill="none" stroke="midnightblue" d="M400.898,-168.444C437.022,-158.44 496.511,-141.966 533.072,-131.842"/>
<polygon fill="midnightblue" stroke="midnightblue" points="534.035,-135.207 542.738,-129.165 532.166,-128.461 534.035,-135.207"/>
</g>
<!-- Node26&#45;&gt;Node2 -->
<g id="edge44" class="edge"><title>Node26&#45;&gt;Node2</title>
<path fill="none" stroke="midnightblue" d="M346.1,-120.313C432.209,-118.242 641.152,-110.021 824.656,-75.6314"/>
<polygon fill="midnightblue" stroke="midnightblue" points="825.313,-79.0694 834.481,-73.7602 824.003,-72.193 825.313,-79.0694"/>
</g>
<!-- Node26&#45;&gt;Node3 -->
<g id="edge48" class="edge"><title>Node26&#45;&gt;Node3</title>
<path fill="none" stroke="midnightblue" d="M346.197,-116.237C414.433,-108.13 557.285,-91.0614 678,-76 690.413,-74.4512 704.059,-72.7064 715.979,-71.1682"/>
<polygon fill="midnightblue" stroke="midnightblue" points="716.468,-74.6341 725.936,-69.8797 715.57,-67.692 716.468,-74.6341"/>
</g>
<!-- Node27 -->
<g id="node28" class="node"><title>Node27</title>
<g id="a_node28"><a xlink:href="types_8h.html" target="_top" xlink:title="base/types.h">
<polygon fill="white" stroke="black" points="72.5,-0.5 72.5,-19.5 145.5,-19.5 145.5,-0.5 72.5,-0.5"/>
<text text-anchor="middle" x="109" y="-7.5" font-family="Helvetica,sans-Serif" font-size="10.00">base/types.h</text>
</a>
</g>
</g>
<!-- Node26&#45;&gt;Node27 -->
<g id="edge35" class="edge"><title>Node26&#45;&gt;Node27</title>
<path fill="none" stroke="midnightblue" d="M265.925,-118.86C207.871,-114.828 104.81,-103.848 82,-76 70.3298,-61.7522 81.7599,-41.7507 93.1351,-27.709"/>
<polygon fill="midnightblue" stroke="midnightblue" points="96.0639,-29.6761 100.004,-19.841 90.7905,-25.0726 96.0639,-29.6761"/>
</g>
<!-- Node28 -->
<g id="node29" class="node"><title>Node28</title>
<g id="a_node29"><a xlink:href="interval_8h.html" target="_top" xlink:title="base/interval.h">
<polygon fill="white" stroke="black" points="339,-56.5 339,-75.5 419,-75.5 419,-56.5 339,-56.5"/>
<text text-anchor="middle" x="379" y="-63.5" font-family="Helvetica,sans-Serif" font-size="10.00">base/interval.h</text>
</a>
</g>
</g>
<!-- Node26&#45;&gt;Node28 -->
<g id="edge36" class="edge"><title>Node26&#45;&gt;Node28</title>
<path fill="none" stroke="midnightblue" d="M317.729,-112.324C328.837,-104.107 345.742,-91.6017 358.983,-81.8069"/>
<polygon fill="midnightblue" stroke="midnightblue" points="361.1,-84.5948 367.058,-75.8339 356.937,-78.9671 361.1,-84.5948"/>
</g>
<!-- Node31 -->
<g id="node32" class="node"><title>Node31</title>
<polygon fill="white" stroke="#bfbfbf" points="91,-56.5 91,-75.5 143,-75.5 143,-56.5 91,-56.5"/>
<text text-anchor="middle" x="117" y="-63.5" font-family="Helvetica,sans-Serif" font-size="10.00">ostream</text>
</g>
<!-- Node26&#45;&gt;Node31 -->
<g id="edge45" class="edge"><title>Node26&#45;&gt;Node31</title>
<path fill="none" stroke="midnightblue" d="M276.052,-112.444C242.705,-102.916 188.815,-87.5187 153.148,-77.328"/>
<polygon fill="midnightblue" stroke="midnightblue" points="153.732,-73.855 143.156,-74.473 151.809,-80.5856 153.732,-73.855"/>
</g>
<!-- Node26&#45;&gt;Node32 -->
<g id="edge46" class="edge"><title>Node26&#45;&gt;Node32</title>
<path fill="none" stroke="midnightblue" d="M265.686,-115.228C214.868,-107.659 124.968,-93.2877 49,-76 47.5229,-75.6639 46.0122,-75.302 44.4904,-74.9233"/>
<polygon fill="midnightblue" stroke="midnightblue" points="45.0874,-71.4604 34.5237,-72.2722 43.2879,-78.2252 45.0874,-71.4604"/>
</g>
<!-- Node33 -->
<g id="node34" class="node"><title>Node33</title>
<polygon fill="white" stroke="#bfbfbf" points="161.5,-56.5 161.5,-75.5 208.5,-75.5 208.5,-56.5 161.5,-56.5"/>
<text text-anchor="middle" x="185" y="-63.5" font-family="Helvetica,sans-Serif" font-size="10.00">iterator</text>
</g>
<!-- Node26&#45;&gt;Node33 -->
<g id="edge47" class="edge"><title>Node26&#45;&gt;Node33</title>
<path fill="none" stroke="midnightblue" d="M286.827,-112.444C267.091,-103.636 236.115,-89.8116 213.507,-79.722"/>
<polygon fill="midnightblue" stroke="midnightblue" points="214.641,-76.3957 204.083,-75.5164 211.789,-82.788 214.641,-76.3957"/>
</g>
<!-- Node28&#45;&gt;Node6 -->
<g id="edge42" class="edge"><title>Node28&#45;&gt;Node6</title>
<path fill="none" stroke="midnightblue" d="M419.075,-57.4118C422.091,-56.9103 425.091,-56.4334 428,-56 566.936,-35.3002 602.606,-37.3514 742,-20 752.027,-18.7519 762.887,-17.3253 772.887,-15.9816"/>
<polygon fill="midnightblue" stroke="midnightblue" points="773.484,-19.4327 782.924,-14.6221 772.545,-12.496 773.484,-19.4327"/>
</g>
<!-- Node28&#45;&gt;Node7 -->
<g id="edge38" class="edge"><title>Node28&#45;&gt;Node7</title>
<path fill="none" stroke="midnightblue" d="M419.062,-57.3204C422.081,-56.8401 425.086,-56.3928 428,-56 611.917,-31.2092 659.921,-43.5541 844,-20 848.782,-19.3881 853.792,-18.6567 858.744,-17.8789"/>
<polygon fill="midnightblue" stroke="midnightblue" points="859.431,-21.313 868.733,-16.2408 858.299,-14.4053 859.431,-21.313"/>
</g>
<!-- Node28&#45;&gt;Node10 -->
<g id="edge43" class="edge"><title>Node28&#45;&gt;Node10</title>
<path fill="none" stroke="midnightblue" d="M419.045,-57.1859C422.068,-56.7367 425.078,-56.3332 428,-56 619.801,-34.1251 1236.47,-15.9919 1384.73,-11.8762"/>
<polygon fill="midnightblue" stroke="midnightblue" points="1385.06,-15.3683 1394.96,-11.5937 1384.87,-8.37099 1385.06,-15.3683"/>
</g>
<!-- Node28&#45;&gt;Node22 -->
<g id="edge39" class="edge"><title>Node28&#45;&gt;Node22</title>
<path fill="none" stroke="midnightblue" d="M419.1,-57.5672C422.11,-57.0299 425.102,-56.5023 428,-56 511.863,-41.4632 610.3,-25.7327 664.022,-17.2608"/>
<polygon fill="midnightblue" stroke="midnightblue" points="664.818,-20.6786 674.152,-15.6657 663.73,-13.7638 664.818,-20.6786"/>
</g>
<!-- Node28&#45;&gt;Node27 -->
<g id="edge37" class="edge"><title>Node28&#45;&gt;Node27</title>
<path fill="none" stroke="midnightblue" d="M338.87,-56.974C289.979,-47.1958 207.521,-30.7043 155.793,-20.3587"/>
<polygon fill="midnightblue" stroke="midnightblue" points="156.369,-16.9045 145.876,-18.3753 154.996,-23.7686 156.369,-16.9045"/>
</g>
<!-- Node29 -->
<g id="node30" class="node"><title>Node29</title>
<polygon fill="white" stroke="#bfbfbf" points="401,-0.5 401,-19.5 441,-19.5 441,-0.5 401,-0.5"/>
<text text-anchor="middle" x="421" y="-7.5" font-family="Helvetica,sans-Serif" font-size="10.00">limits</text>
</g>
<!-- Node28&#45;&gt;Node29 -->
<g id="edge40" class="edge"><title>Node28&#45;&gt;Node29</title>
<path fill="none" stroke="midnightblue" d="M385.935,-56.083C391.929,-48.3768 400.752,-37.0333 408.048,-27.6531"/>
<polygon fill="midnightblue" stroke="midnightblue" points="410.817,-29.7934 414.194,-19.7511 405.291,-25.4958 410.817,-29.7934"/>
</g>
<!-- Node30 -->
<g id="node31" class="node"><title>Node30</title>
<polygon fill="white" stroke="#bfbfbf" points="333.5,-0.5 333.5,-19.5 382.5,-19.5 382.5,-0.5 333.5,-0.5"/>
<text text-anchor="middle" x="358" y="-7.5" font-family="Helvetica,sans-Serif" font-size="10.00">istream</text>
</g>
<!-- Node28&#45;&gt;Node30 -->
<g id="edge41" class="edge"><title>Node28&#45;&gt;Node30</title>
<path fill="none" stroke="midnightblue" d="M375.532,-56.083C372.688,-48.77 368.571,-38.1814 365.04,-29.1034"/>
<polygon fill="midnightblue" stroke="midnightblue" points="368.29,-27.8025 361.403,-19.7511 361.766,-30.3397 368.29,-27.8025"/>
</g>
<!-- Node34&#45;&gt;Node3 -->
<g id="edge56" class="edge"><title>Node34&#45;&gt;Node3</title>
<path fill="none" stroke="midnightblue" d="M587.074,-114.486C619.225,-104.999 679.118,-87.3259 716.074,-76.4207"/>
<polygon fill="midnightblue" stroke="midnightblue" points="717.247,-79.7239 725.848,-73.5368 715.266,-73.0101 717.247,-79.7239"/>
</g>
<!-- Node34&#45;&gt;Node7 -->
<g id="edge57" class="edge"><title>Node34&#45;&gt;Node7</title>
<path fill="none" stroke="midnightblue" d="M587.347,-112.818C610.333,-104.235 647.047,-90.0617 678,-76 695.735,-67.943 698.765,-62.8515 717,-56 764.683,-38.084 822.139,-25.1314 859.1,-17.8464"/>
<polygon fill="midnightblue" stroke="midnightblue" points="859.802,-21.2756 868.956,-15.9425 858.474,-14.4027 859.802,-21.2756"/>
</g>
<!-- Node34&#45;&gt;Node12 -->
<g id="edge60" class="edge"><title>Node34&#45;&gt;Node12</title>
<path fill="none" stroke="midnightblue" d="M587.231,-118.575C663.996,-110.2 918.699,-82.4147 1018.95,-71.4782"/>
<polygon fill="midnightblue" stroke="midnightblue" points="1019.44,-74.946 1029,-70.3821 1018.68,-67.9873 1019.44,-74.946"/>
</g>
<!-- Node34&#45;&gt;Node13 -->
<g id="edge54" class="edge"><title>Node34&#45;&gt;Node13</title>
<path fill="none" stroke="midnightblue" d="M587.243,-119.442C695.179,-111.882 1164.66,-79.0004 1299.6,-69.5493"/>
<polygon fill="midnightblue" stroke="midnightblue" points="1300.08,-73.0241 1309.82,-68.8339 1299.6,-66.0413 1300.08,-73.0241"/>
</g>
<!-- Node34&#45;&gt;Node20 -->
<g id="edge55" class="edge"><title>Node34&#45;&gt;Node20</title>
<path fill="none" stroke="midnightblue" d="M587.04,-117.472C624.406,-111.252 702.65,-97.197 777.776,-75.6778"/>
<polygon fill="midnightblue" stroke="midnightblue" points="778.773,-79.033 787.395,-72.8758 776.815,-72.3124 778.773,-79.033"/>
</g>
<!-- Node35 -->
<g id="node36" class="node"><title>Node35</title>
<polygon fill="white" stroke="#bfbfbf" points="437,-56.5 437,-75.5 533,-75.5 533,-56.5 437,-56.5"/>
<text text-anchor="middle" x="485" y="-63.5" font-family="Helvetica,sans-Serif" font-size="10.00">cereal/access.hpp</text>
</g>
<!-- Node34&#45;&gt;Node35 -->
<g id="edge50" class="edge"><title>Node34&#45;&gt;Node35</title>
<path fill="none" stroke="midnightblue" d="M552.147,-112.324C539.784,-103.979 520.87,-91.2122 506.263,-81.3524"/>
<polygon fill="midnightblue" stroke="midnightblue" points="508.068,-78.3483 497.821,-75.6545 504.152,-84.1503 508.068,-78.3483"/>
</g>
<!-- Node36 -->
<g id="node37" class="node"><title>Node36</title>
<g id="a_node37"><a xlink:href="variadic_8h.html" target="_top" xlink:title="std_ext/variadic.h">
<polygon fill="white" stroke="black" points="227,-56.5 227,-75.5 321,-75.5 321,-56.5 227,-56.5"/>
<text text-anchor="middle" x="274" y="-63.5" font-family="Helvetica,sans-Serif" font-size="10.00">std_ext/variadic.h</text>
</a>
</g>
</g>
<!-- Node34&#45;&gt;Node36 -->
<g id="edge51" class="edge"><title>Node34&#45;&gt;Node36</title>
<path fill="none" stroke="midnightblue" d="M542.649,-116.852C497.549,-108.483 394.465,-89.3544 329.908,-77.3747"/>
<polygon fill="midnightblue" stroke="midnightblue" points="330.364,-73.8995 319.893,-75.5162 329.086,-80.7821 330.364,-73.8995"/>
</g>
<!-- Node39 -->
<g id="node40" class="node"><title>Node39</title>
<polygon fill="white" stroke="#bfbfbf" points="551.5,-56.5 551.5,-75.5 600.5,-75.5 600.5,-56.5 551.5,-56.5"/>
<text text-anchor="middle" x="576" y="-63.5" font-family="Helvetica,sans-Serif" font-size="10.00">cassert</text>
</g>
<!-- Node34&#45;&gt;Node39 -->
<g id="edge58" class="edge"><title>Node34&#45;&gt;Node39</title>
<path fill="none" stroke="midnightblue" d="M566.816,-112.083C568.274,-104.927 570.371,-94.6353 572.193,-85.6911"/>
<polygon fill="midnightblue" stroke="midnightblue" points="575.651,-86.2485 574.217,-75.7511 568.792,-84.8512 575.651,-86.2485"/>
</g>
<!-- Node40 -->
<g id="node41" class="node"><title>Node40</title>
<polygon fill="white" stroke="#bfbfbf" points="618.5,-56.5 618.5,-75.5 669.5,-75.5 669.5,-56.5 618.5,-56.5"/>
<text text-anchor="middle" x="644" y="-63.5" font-family="Helvetica,sans-Serif" font-size="10.00">numeric</text>
</g>
<!-- Node34&#45;&gt;Node40 -->
<g id="edge59" class="edge"><title>Node34&#45;&gt;Node40</title>
<path fill="none" stroke="midnightblue" d="M577.693,-112.324C589.901,-103.979 608.578,-91.2122 623.003,-81.3524"/>
<polygon fill="midnightblue" stroke="midnightblue" points="625.058,-84.1871 631.339,-75.6545 621.108,-78.4082 625.058,-84.1871"/>
</g>
<!-- Node37 -->
<g id="node38" class="node"><title>Node37</title>
<polygon fill="white" stroke="#bfbfbf" points="198.5,-0.5 198.5,-19.5 247.5,-19.5 247.5,-0.5 198.5,-0.5"/>
<text text-anchor="middle" x="223" y="-7.5" font-family="Helvetica,sans-Serif" font-size="10.00">cstddef</text>
</g>
<!-- Node36&#45;&gt;Node37 -->
<g id="edge52" class="edge"><title>Node36&#45;&gt;Node37</title>
<path fill="none" stroke="midnightblue" d="M265.578,-56.083C258.152,-48.2195 247.148,-36.5688 238.188,-27.0813"/>
<polygon fill="midnightblue" stroke="midnightblue" points="240.676,-24.618 231.265,-19.7511 235.587,-29.4244 240.676,-24.618"/>
</g>
<!-- Node38 -->
<g id="node39" class="node"><title>Node38</title>
<polygon fill="white" stroke="#bfbfbf" points="266,-0.5 266,-19.5 304,-19.5 304,-0.5 266,-0.5"/>
<text text-anchor="middle" x="285" y="-7.5" font-family="Helvetica,sans-Serif" font-size="10.00">tuple</text>
</g>
<!-- Node36&#45;&gt;Node38 -->
<g id="edge53" class="edge"><title>Node36&#45;&gt;Node38</title>
<path fill="none" stroke="midnightblue" d="M275.816,-56.083C277.274,-48.9272 279.371,-38.6353 281.193,-29.6911"/>
<polygon fill="midnightblue" stroke="midnightblue" points="284.651,-30.2485 283.217,-19.7511 277.792,-28.8512 284.651,-30.2485"/>
</g>
<!-- Node42&#45;&gt;Node25 -->
<g id="edge64" class="edge"><title>Node42&#45;&gt;Node25</title>
<path fill="none" stroke="midnightblue" d="M370,-280.368C370,-262.617 370,-221.666 370,-197.597"/>
<polygon fill="midnightblue" stroke="midnightblue" points="373.5,-197.591 370,-187.591 366.5,-197.591 373.5,-197.591"/>
</g>
<!-- Node42&#45;&gt;Node43 -->
<g id="edge65" class="edge"><title>Node42&#45;&gt;Node43</title>
<path fill="none" stroke="midnightblue" d="M379.319,-280.324C387.893,-272.341 400.812,-260.313 411.188,-250.653"/>
<polygon fill="midnightblue" stroke="midnightblue" points="413.578,-253.21 418.512,-243.834 408.808,-248.086 413.578,-253.21"/>
</g>
<!-- Node47 -->
<g id="node48" class="node"><title>Node47</title>
<polygon fill="white" stroke="#bfbfbf" points="1325,-280.5 1325,-299.5 1403,-299.5 1403,-280.5 1325,-280.5"/>
<text text-anchor="middle" x="1364" y="-287.5" font-family="Helvetica,sans-Serif" font-size="10.00">PStaticData.h</text>
</g>
<!-- Node46&#45;&gt;Node47 -->
<g id="edge71" class="edge"><title>Node46&#45;&gt;Node47</title>
<path fill="none" stroke="midnightblue" d="M1407.41,-336.083C1399.84,-328.22 1388.62,-316.569 1379.49,-307.081"/>
<polygon fill="midnightblue" stroke="midnightblue" points="1381.88,-304.527 1372.43,-299.751 1376.84,-309.382 1381.88,-304.527"/>
</g>
<!-- Node48 -->
<g id="node49" class="node"><title>Node48</title>
<polygon fill="white" stroke="#bfbfbf" points="1421,-280.5 1421,-299.5 1517,-299.5 1517,-280.5 1421,-280.5"/>
<text text-anchor="middle" x="1469" y="-287.5" font-family="Helvetica,sans-Serif" font-size="10.00">PSimpleVMDFF.h</text>
</g>
<!-- Node46&#45;&gt;Node48 -->
<g id="edge72" class="edge"><title>Node46&#45;&gt;Node48</title>
<path fill="none" stroke="midnightblue" d="M1424.75,-336.083C1432.47,-328.22 1443.9,-316.569 1453.22,-307.081"/>
<polygon fill="midnightblue" stroke="midnightblue" points="1455.9,-309.34 1460.41,-299.751 1450.91,-304.436 1455.9,-309.34"/>
</g>
<!-- Node49 -->
<g id="node50" class="node"><title>Node49</title>
<polygon fill="white" stroke="#bfbfbf" points="1535.5,-280.5 1535.5,-299.5 1654.5,-299.5 1654.5,-280.5 1535.5,-280.5"/>
<text text-anchor="middle" x="1595" y="-287.5" font-family="Helvetica,sans-Serif" font-size="10.00">PDistributionManager.h</text>
</g>
<!-- Node46&#45;&gt;Node49 -->
<g id="edge73" class="edge"><title>Node46&#45;&gt;Node49</title>
<path fill="none" stroke="midnightblue" d="M1444.36,-336.444C1474.74,-327.28 1523.11,-312.688 1556.82,-302.519"/>
<polygon fill="midnightblue" stroke="midnightblue" points="1558.21,-305.756 1566.77,-299.516 1556.18,-299.054 1558.21,-305.756"/>
</g>
<!-- Node50 -->
<g id="node51" class="node"><title>Node50</title>
<g id="a_node51"><a xlink:href="_logger_8h.html" target="_top" xlink:title="base/Logger.h">
<polygon fill="white" stroke="black" points="1673,-280.5 1673,-299.5 1751,-299.5 1751,-280.5 1673,-280.5"/>
<text text-anchor="middle" x="1712" y="-287.5" font-family="Helvetica,sans-Serif" font-size="10.00">base/Logger.h</text>
</a>
</g>
</g>
<!-- Node46&#45;&gt;Node50 -->
<g id="edge74" class="edge"><title>Node46&#45;&gt;Node50</title>
<path fill="none" stroke="midnightblue" d="M1462.9,-336.477C1512.58,-327.442 1593.33,-312.745 1663,-300 1663.1,-299.982 1663.2,-299.963 1663.3,-299.944"/>
<polygon fill="midnightblue" stroke="midnightblue" points="1663.75,-303.422 1672.95,-298.177 1662.48,-296.536 1663.75,-303.422"/>
</g>
<!-- Node52 -->
<g id="node53" class="node"><title>Node52</title>
<polygon fill="white" stroke="#bfbfbf" points="1253,-280.5 1253,-299.5 1307,-299.5 1307,-280.5 1253,-280.5"/>
<text text-anchor="middle" x="1280" y="-287.5" font-family="Helvetica,sans-Serif" font-size="10.00">iostream</text>
</g>
<!-- Node46&#45;&gt;Node52 -->
<g id="edge76" class="edge"><title>Node46&#45;&gt;Node52</title>
<path fill="none" stroke="midnightblue" d="M1394.45,-336.444C1371.97,-327.517 1336.51,-313.439 1311.02,-303.317"/>
<polygon fill="midnightblue" stroke="midnightblue" points="1312.03,-299.954 1301.45,-299.516 1309.45,-306.46 1312.03,-299.954"/>
</g>
<!-- Node51 -->
<g id="node52" class="node"><title>Node51</title>
<polygon fill="white" stroke="#bfbfbf" points="1667.5,-224.5 1667.5,-243.5 1756.5,-243.5 1756.5,-224.5 1667.5,-224.5"/>
<text text-anchor="middle" x="1712" y="-231.5" font-family="Helvetica,sans-Serif" font-size="10.00">easylogging++.h</text>
</g>
<!-- Node50&#45;&gt;Node51 -->
<g id="edge75" class="edge"><title>Node50&#45;&gt;Node51</title>
<path fill="none" stroke="midnightblue" d="M1712,-280.083C1712,-273.006 1712,-262.861 1712,-253.986"/>
<polygon fill="midnightblue" stroke="midnightblue" points="1715.5,-253.751 1712,-243.751 1708.5,-253.751 1715.5,-253.751"/>
</g>
</g>
</svg>
