<?xml version="1.0" encoding="UTF-8" standalone="no"?>
<!DOCTYPE svg PUBLIC "-//W3C//DTD SVG 1.1//EN"
 "http://www.w3.org/Graphics/SVG/1.1/DTD/svg11.dtd">
<!-- Generated by graphviz version 2.36.0 (20140111.2315)
 -->
<!-- Title: src/analysis/input/pluto/PlutoReader.h Pages: 1 -->
<svg width="675pt" height="108pt"
 viewBox="0.00 0.00 675.00 108.00" xmlns="http://www.w3.org/2000/svg" xmlns:xlink="http://www.w3.org/1999/xlink">
<g id="graph0" class="graph" transform="scale(1 1) rotate(0) translate(4 104)">
<title>src/analysis/input/pluto/PlutoReader.h</title>
<polygon fill="white" stroke="none" points="-4,4 -4,-104 671,-104 671,4 -4,4"/>
<!-- Node34 -->
<g id="node1" class="node"><title>Node34</title>
<polygon fill="#bfbfbf" stroke="black" points="232,-69 232,-99 338,-99 338,-69 232,-69"/>
<text text-anchor="start" x="240" y="-87" font-family="Helvetica,sans-Serif" font-size="10.00">src/analysis/input</text>
<text text-anchor="middle" x="285" y="-76" font-family="Helvetica,sans-Serif" font-size="10.00">/pluto/PlutoReader.h</text>
</g>
<!-- Node35 -->
<g id="node2" class="node"><title>Node35</title>
<g id="a_node2"><a xlink:href="_ant_8cc.html" target="_top" xlink:title="Main Ant executable. ">
<polygon fill="white" stroke="black" points="0,-6.5 0,-25.5 72,-25.5 72,-6.5 0,-6.5"/>
<text text-anchor="middle" x="36" y="-13.5" font-family="Helvetica,sans-Serif" font-size="10.00">progs/Ant.cc</text>
</a>
</g>
</g>
<!-- Node34&#45;&gt;Node35 -->
<g id="edge1" class="edge"><title>Node34&#45;&gt;Node35</title>
<path fill="none" stroke="midnightblue" d="M222.127,-68.6007C181.624,-59.0004 127.952,-45.6725 81,-32 74.3584,-30.066 67.2304,-27.7861 60.6502,-25.5957"/>
<polygon fill="midnightblue" stroke="midnightblue" points="221.329,-72.0086 231.866,-70.8975 222.936,-65.1955 221.329,-72.0086"/>
</g>
<!-- Node36 -->
<g id="node3" class="node"><title>Node36</title>
<g id="a_node3"><a xlink:href="_pluto_reader_8cc.html" target="_top" xlink:title="src/analysis/input\l/pluto/PlutoReader.cc">
<polygon fill="white" stroke="black" points="90.5,-1 90.5,-31 201.5,-31 201.5,-1 90.5,-1"/>
<text text-anchor="start" x="98.5" y="-19" font-family="Helvetica,sans-Serif" font-size="10.00">src/analysis/input</text>
<text text-anchor="middle" x="146" y="-8" font-family="Helvetica,sans-Serif" font-size="10.00">/pluto/PlutoReader.cc</text>
</a>
</g>
</g>
<!-- Node34&#45;&gt;Node36 -->
<g id="edge2" class="edge"><title>Node34&#45;&gt;Node36</title>
<path fill="none" stroke="midnightblue" d="M245.997,-64.4805C223.741,-53.9128 196.28,-40.8738 175.77,-31.1352"/>
<polygon fill="midnightblue" stroke="midnightblue" points="244.646,-67.7137 255.181,-68.8413 247.649,-61.3904 244.646,-67.7137"/>
</g>
<!-- Node37 -->
<g id="node4" class="node"><title>Node37</title>
<g id="a_node4"><a xlink:href="_test_fitter_8cc.html" target="_top" xlink:title="test/analysis/TestFitter.cc">
<polygon fill="white" stroke="black" points="219.5,-6.5 219.5,-25.5 350.5,-25.5 350.5,-6.5 219.5,-6.5"/>
<text text-anchor="middle" x="285" y="-13.5" font-family="Helvetica,sans-Serif" font-size="10.00">test/analysis/TestFitter.cc</text>
</a>
</g>
</g>
<!-- Node34&#45;&gt;Node37 -->
<g id="edge3" class="edge"><title>Node34&#45;&gt;Node37</title>
<path fill="none" stroke="midnightblue" d="M285,-58.3764C285,-46.9711 285,-34.1364 285,-25.8283"/>
<polygon fill="midnightblue" stroke="midnightblue" points="281.5,-58.6789 285,-68.679 288.5,-58.679 281.5,-58.6789"/>
</g>
<!-- Node38 -->
<g id="node5" class="node"><title>Node38</title>
<g id="a_node5"><a xlink:href="_test_physics_manager_8cc.html" target="_top" xlink:title="test/analysis/TestPhysics\lManager.cc">
<polygon fill="white" stroke="black" points="369,-1 369,-31 499,-31 499,-1 369,-1"/>
<text text-anchor="start" x="377" y="-19" font-family="Helvetica,sans-Serif" font-size="10.00">test/analysis/TestPhysics</text>
<text text-anchor="middle" x="434" y="-8" font-family="Helvetica,sans-Serif" font-size="10.00">Manager.cc</text>
</a>
</g>
</g>
<!-- Node34&#45;&gt;Node38 -->
<g id="edge4" class="edge"><title>Node34&#45;&gt;Node38</title>
<path fill="none" stroke="midnightblue" d="M326.204,-64.7485C350.26,-54.093 380.146,-40.8547 402.345,-31.0218"/>
<polygon fill="midnightblue" stroke="midnightblue" points="324.69,-61.5912 316.964,-68.8413 327.525,-67.9914 324.69,-61.5912"/>
</g>
<!-- Node39 -->
<g id="node6" class="node"><title>Node39</title>
<g id="a_node6"><a xlink:href="_test_tree_fitter_8cc.html" target="_top" xlink:title="test/analysis/TestTreeFitter.cc">
<polygon fill="white" stroke="black" points="517,-6.5 517,-25.5 667,-25.5 667,-6.5 517,-6.5"/>
<text text-anchor="middle" x="592" y="-13.5" font-family="Helvetica,sans-Serif" font-size="10.00">test/analysis/TestTreeFitter.cc</text>
</a>
</g>
</g>
<!-- Node34&#45;&gt;Node39 -->
<g id="edge5" class="edge"><title>Node34&#45;&gt;Node39</title>
<path fill="none" stroke="midnightblue" d="M348.065,-69.4421C409.314,-56.2745 500.421,-36.688 552.211,-25.554"/>
<polygon fill="midnightblue" stroke="midnightblue" points="347.166,-66.0553 338.125,-71.579 348.637,-72.899 347.166,-66.0553"/>
</g>
</g>
</svg>
