<?xml version="1.0" encoding="UTF-8" standalone="no"?>
<!DOCTYPE svg PUBLIC "-//W3C//DTD SVG 1.1//EN"
 "http://www.w3.org/Graphics/SVG/1.1/DTD/svg11.dtd">
<!-- Generated by graphviz version 2.36.0 (20140111.2315)
 -->
<!-- Title: src/mc/pluto/PlutoGenerator.h Pages: 1 -->
<svg width="1602pt" height="364pt"
 viewBox="0.00 0.00 1602.07 364.00" xmlns="http://www.w3.org/2000/svg" xmlns:xlink="http://www.w3.org/1999/xlink">
<g id="graph0" class="graph" transform="scale(1 1) rotate(0) translate(4 360)">
<title>src/mc/pluto/PlutoGenerator.h</title>
<polygon fill="white" stroke="none" points="-4,4 -4,-360 1598.07,-360 1598.07,4 -4,4"/>
<!-- Node0 -->
<g id="node1" class="node"><title>Node0</title>
<polygon fill="#bfbfbf" stroke="black" points="959.568,-336.5 959.568,-355.5 1106.57,-355.5 1106.57,-336.5 959.568,-336.5"/>
<text text-anchor="middle" x="1033.07" y="-343.5" font-family="Helvetica,sans-Serif" font-size="10.00">src/mc/pluto/PlutoGenerator.h</text>
</g>
<!-- Node1 -->
<g id="node2" class="node"><title>Node1</title>
<polygon fill="white" stroke="#bfbfbf" points="763.568,-56.5 763.568,-75.5 804.568,-75.5 804.568,-56.5 763.568,-56.5"/>
<text text-anchor="middle" x="784.068" y="-63.5" font-family="Helvetica,sans-Serif" font-size="10.00">string</text>
</g>
<!-- Node0&#45;&gt;Node1 -->
<g id="edge1" class="edge"><title>Node0&#45;&gt;Node1</title>
<path fill="none" stroke="midnightblue" d="M1008.08,-336.467C970.835,-321.972 905.068,-288.767 905.068,-235 905.068,-235 905.068,-235 905.068,-177 905.068,-146.775 905.114,-134.622 885.068,-112 875.191,-100.853 840.178,-86.6852 814.131,-77.2548"/>
<polygon fill="midnightblue" stroke="midnightblue" points="815.253,-73.9392 804.658,-73.8886 812.909,-80.5351 815.253,-73.9392"/>
</g>
<!-- Node2 -->
<g id="node3" class="node"><title>Node2</title>
<polygon fill="white" stroke="#bfbfbf" points="823.068,-56.5 823.068,-75.5 867.068,-75.5 867.068,-56.5 823.068,-56.5"/>
<text text-anchor="middle" x="845.068" y="-63.5" font-family="Helvetica,sans-Serif" font-size="10.00">vector</text>
</g>
<!-- Node0&#45;&gt;Node2 -->
<g id="edge2" class="edge"><title>Node0&#45;&gt;Node2</title>
<path fill="none" stroke="midnightblue" d="M1015.74,-336.463C1001.51,-328.682 981.708,-315.979 969.068,-300 949.765,-275.597 943.068,-266.114 943.068,-235 943.068,-235 943.068,-235 943.068,-177 943.068,-146.205 938.649,-135.769 919.068,-112 907.697,-98.1958 890.917,-87.5047 876.21,-80.0138"/>
<polygon fill="midnightblue" stroke="midnightblue" points="877.452,-76.7274 866.922,-75.5528 874.421,-83.0373 877.452,-76.7274"/>
</g>
<!-- Node3 -->
<g id="node4" class="node"><title>Node3</title>
<g id="a_node4"><a xlink:href="_wrap_t_file_8h.html" target="_top" xlink:title="base/WrapTFile.h">
<polygon fill="white" stroke="black" points="364.068,-168.5 364.068,-187.5 458.068,-187.5 458.068,-168.5 364.068,-168.5"/>
<text text-anchor="middle" x="411.068" y="-175.5" font-family="Helvetica,sans-Serif" font-size="10.00">base/WrapTFile.h</text>
</a>
</g>
</g>
<!-- Node0&#45;&gt;Node3 -->
<g id="edge3" class="edge"><title>Node0&#45;&gt;Node3</title>
<path fill="none" stroke="midnightblue" d="M995.718,-336.419C957.903,-327.636 897.785,-313.411 846.068,-300 699.38,-261.961 526.173,-212.371 450.15,-190.368"/>
<polygon fill="midnightblue" stroke="midnightblue" points="451.088,-186.996 440.509,-187.575 449.14,-193.719 451.088,-186.996"/>
</g>
<!-- Node13 -->
<g id="node14" class="node"><title>Node13</title>
<polygon fill="white" stroke="#bfbfbf" points="829.568,-112.5 829.568,-131.5 876.568,-131.5 876.568,-112.5 829.568,-112.5"/>
<text text-anchor="middle" x="853.068" y="-119.5" font-family="Helvetica,sans-Serif" font-size="10.00">TFile.h</text>
</g>
<!-- Node0&#45;&gt;Node13 -->
<g id="edge65" class="edge"><title>Node0&#45;&gt;Node13</title>
<path fill="none" stroke="midnightblue" d="M959.257,-336.744C934.445,-330.411 908.636,-319.329 891.068,-300 850.426,-255.282 849.397,-177.896 851.404,-142.135"/>
<polygon fill="midnightblue" stroke="midnightblue" points="854.927,-141.934 852.148,-131.71 847.945,-141.436 854.927,-141.934"/>
</g>
<!-- Node22 -->
<g id="node23" class="node"><title>Node22</title>
<g id="a_node23"><a xlink:href="_query_8h.html" target="_top" xlink:title="mc/database/Query.h">
<polygon fill="white" stroke="black" points="978.068,-280.5 978.068,-299.5 1088.07,-299.5 1088.07,-280.5 978.068,-280.5"/>
<text text-anchor="middle" x="1033.07" y="-287.5" font-family="Helvetica,sans-Serif" font-size="10.00">mc/database/Query.h</text>
</a>
</g>
</g>
<!-- Node0&#45;&gt;Node22 -->
<g id="edge28" class="edge"><title>Node0&#45;&gt;Node22</title>
<path fill="none" stroke="midnightblue" d="M1033.07,-336.083C1033.07,-329.006 1033.07,-318.861 1033.07,-309.986"/>
<polygon fill="midnightblue" stroke="midnightblue" points="1036.57,-309.751 1033.07,-299.751 1029.57,-309.751 1036.57,-309.751"/>
</g>
<!-- Node41 -->
<g id="node42" class="node"><title>Node41</title>
<g id="a_node42"><a xlink:href="_pluto_factory_8h.html" target="_top" xlink:title="PlutoFactory.h">
<polygon fill="white" stroke="black" points="1144.07,-280.5 1144.07,-299.5 1224.07,-299.5 1224.07,-280.5 1144.07,-280.5"/>
<text text-anchor="middle" x="1184.07" y="-287.5" font-family="Helvetica,sans-Serif" font-size="10.00">PlutoFactory.h</text>
</a>
</g>
</g>
<!-- Node0&#45;&gt;Node41 -->
<g id="edge62" class="edge"><title>Node0&#45;&gt;Node41</title>
<path fill="none" stroke="midnightblue" d="M1056.99,-336.444C1082.29,-327.399 1122.37,-313.064 1150.75,-302.916"/>
<polygon fill="midnightblue" stroke="midnightblue" points="1152.02,-306.179 1160.25,-299.516 1149.66,-299.588 1152.02,-306.179"/>
</g>
<!-- Node42 -->
<g id="node43" class="node"><title>Node42</title>
<polygon fill="white" stroke="#bfbfbf" points="1163.07,-224.5 1163.07,-243.5 1205.07,-243.5 1205.07,-224.5 1163.07,-224.5"/>
<text text-anchor="middle" x="1184.07" y="-231.5" font-family="Helvetica,sans-Serif" font-size="10.00">TF1.h</text>
</g>
<!-- Node0&#45;&gt;Node42 -->
<g id="edge66" class="edge"><title>Node0&#45;&gt;Node42</title>
<path fill="none" stroke="midnightblue" d="M1045.41,-336.478C1058.36,-327.504 1079.25,-312.914 1097.07,-300 1120.47,-283.038 1147.04,-263.085 1164.59,-249.804"/>
<polygon fill="midnightblue" stroke="midnightblue" points="1167.03,-252.348 1172.88,-243.518 1162.8,-246.769 1167.03,-252.348"/>
</g>
<!-- Node43 -->
<g id="node44" class="node"><title>Node43</title>
<polygon fill="white" stroke="#bfbfbf" points="1242.07,-280.5 1242.07,-299.5 1292.07,-299.5 1292.07,-280.5 1242.07,-280.5"/>
<text text-anchor="middle" x="1267.07" y="-287.5" font-family="Helvetica,sans-Serif" font-size="10.00">TTree.h</text>
</g>
<!-- Node0&#45;&gt;Node43 -->
<g id="edge67" class="edge"><title>Node0&#45;&gt;Node43</title>
<path fill="none" stroke="midnightblue" d="M1073.02,-336.473C1111.41,-328.176 1171.29,-314.966 1232.08,-300.176"/>
<polygon fill="midnightblue" stroke="midnightblue" points="1232.96,-303.564 1241.84,-297.789 1231.3,-296.765 1232.96,-303.564"/>
</g>
<!-- Node44 -->
<g id="node45" class="node"><title>Node44</title>
<polygon fill="white" stroke="#bfbfbf" points="1310.57,-280.5 1310.57,-299.5 1383.57,-299.5 1383.57,-280.5 1310.57,-280.5"/>
<text text-anchor="middle" x="1347.07" y="-287.5" font-family="Helvetica,sans-Serif" font-size="10.00">TRandom3.h</text>
</g>
<!-- Node0&#45;&gt;Node44 -->
<g id="edge68" class="edge"><title>Node0&#45;&gt;Node44</title>
<path fill="none" stroke="midnightblue" d="M1086.28,-336.497C1138.19,-328.105 1219.66,-314.677 1300.11,-300.133"/>
<polygon fill="midnightblue" stroke="midnightblue" points="1301.21,-303.491 1310.43,-298.261 1299.96,-296.603 1301.21,-303.491"/>
</g>
<!-- Node3&#45;&gt;Node1 -->
<g id="edge23" class="edge"><title>Node3&#45;&gt;Node1</title>
<path fill="none" stroke="midnightblue" d="M433.216,-168.368C455.204,-159.658 489.77,-145.59 519.068,-132 536.739,-123.803 539.626,-118.271 558.068,-112 638.974,-84.491 666.064,-95.875 753.67,-75.8181"/>
<polygon fill="midnightblue" stroke="midnightblue" points="754.566,-79.2029 763.493,-73.497 752.956,-72.3905 754.566,-79.2029"/>
</g>
<!-- Node4 -->
<g id="node5" class="node"><title>Node4</title>
<g id="a_node5"><a xlink:href="string_8h.html" target="_top" xlink:title="base/std_ext/string.h">
<polygon fill="white" stroke="black" points="703.068,-112.5 703.068,-131.5 811.068,-131.5 811.068,-112.5 703.068,-112.5"/>
<text text-anchor="middle" x="757.068" y="-119.5" font-family="Helvetica,sans-Serif" font-size="10.00">base/std_ext/string.h</text>
</a>
</g>
</g>
<!-- Node3&#45;&gt;Node4 -->
<g id="edge4" class="edge"><title>Node3&#45;&gt;Node4</title>
<path fill="none" stroke="midnightblue" d="M458.092,-169.661C518.813,-160.184 624.758,-143.65 692.856,-133.022"/>
<polygon fill="midnightblue" stroke="midnightblue" points="693.692,-136.434 703.033,-131.433 692.613,-129.517 693.692,-136.434"/>
</g>
<!-- Node7 -->
<g id="node8" class="node"><title>Node7</title>
<g id="a_node8"><a xlink:href="misc_8h.html" target="_top" xlink:title="base/std_ext/misc.h">
<polygon fill="white" stroke="black" points="239.568,-112.5 239.568,-131.5 344.568,-131.5 344.568,-112.5 239.568,-112.5"/>
<text text-anchor="middle" x="292.068" y="-119.5" font-family="Helvetica,sans-Serif" font-size="10.00">base/std_ext/misc.h</text>
</a>
</g>
</g>
<!-- Node3&#45;&gt;Node7 -->
<g id="edge9" class="edge"><title>Node3&#45;&gt;Node7</title>
<path fill="none" stroke="midnightblue" d="M392.212,-168.444C372.802,-159.636 342.338,-145.812 320.104,-135.722"/>
<polygon fill="midnightblue" stroke="midnightblue" points="321.389,-132.462 310.836,-131.516 318.496,-138.836 321.389,-132.462"/>
</g>
<!-- Node8 -->
<g id="node9" class="node"><title>Node8</title>
<polygon fill="white" stroke="#bfbfbf" points="99.5684,-56.5 99.5684,-75.5 158.568,-75.5 158.568,-56.5 99.5684,-56.5"/>
<text text-anchor="middle" x="129.068" y="-63.5" font-family="Helvetica,sans-Serif" font-size="10.00">functional</text>
</g>
<!-- Node3&#45;&gt;Node8 -->
<g id="edge27" class="edge"><title>Node3&#45;&gt;Node8</title>
<path fill="none" stroke="midnightblue" d="M363.904,-174.968C265.663,-170.25 46.3345,-157.005 24.0684,-132 0.640828,-105.69 50.5462,-86.376 89.2973,-75.916"/>
<polygon fill="midnightblue" stroke="midnightblue" points="90.547,-79.2085 99.3583,-73.3253 88.8014,-72.4296 90.547,-79.2085"/>
</g>
<!-- Node12 -->
<g id="node13" class="node"><title>Node12</title>
<polygon fill="white" stroke="#bfbfbf" points="402.068,-56.5 402.068,-75.5 454.068,-75.5 454.068,-56.5 402.068,-56.5"/>
<text text-anchor="middle" x="428.068" y="-63.5" font-family="Helvetica,sans-Serif" font-size="10.00">memory</text>
</g>
<!-- Node3&#45;&gt;Node12 -->
<g id="edge22" class="edge"><title>Node3&#45;&gt;Node12</title>
<path fill="none" stroke="midnightblue" d="M406.467,-168.461C400.325,-155.915 390.896,-131.84 397.068,-112 400.297,-101.622 406.844,-91.5209 413.093,-83.5268"/>
<polygon fill="midnightblue" stroke="midnightblue" points="415.854,-85.6818 419.586,-75.7661 410.485,-81.1902 415.854,-85.6818"/>
</g>
<!-- Node3&#45;&gt;Node13 -->
<g id="edge16" class="edge"><title>Node3&#45;&gt;Node13</title>
<path fill="none" stroke="midnightblue" d="M458.349,-174.212C533.013,-169.284 682.868,-157.261 819.173,-131.869"/>
<polygon fill="midnightblue" stroke="midnightblue" points="820.204,-135.236 829.379,-129.938 818.903,-128.358 820.204,-135.236"/>
</g>
<!-- Node14 -->
<g id="node15" class="node"><title>Node14</title>
<polygon fill="white" stroke="#bfbfbf" points="439.568,-112.5 439.568,-131.5 510.568,-131.5 510.568,-112.5 439.568,-112.5"/>
<text text-anchor="middle" x="475.068" y="-119.5" font-family="Helvetica,sans-Serif" font-size="10.00">TDirectory.h</text>
</g>
<!-- Node3&#45;&gt;Node14 -->
<g id="edge17" class="edge"><title>Node3&#45;&gt;Node14</title>
<path fill="none" stroke="midnightblue" d="M421.351,-168.324C430.905,-160.263 445.348,-148.077 456.853,-138.369"/>
<polygon fill="midnightblue" stroke="midnightblue" points="459.213,-140.958 464.599,-131.834 454.699,-135.608 459.213,-140.958"/>
</g>
<!-- Node15 -->
<g id="node16" class="node"><title>Node15</title>
<polygon fill="white" stroke="#bfbfbf" points="567.068,-112.5 567.068,-131.5 619.068,-131.5 619.068,-112.5 567.068,-112.5"/>
<text text-anchor="middle" x="593.068" y="-119.5" font-family="Helvetica,sans-Serif" font-size="10.00">TError.h</text>
</g>
<!-- Node3&#45;&gt;Node15 -->
<g id="edge18" class="edge"><title>Node3&#45;&gt;Node15</title>
<path fill="none" stroke="midnightblue" d="M439.907,-168.444C471.745,-158.997 523.03,-143.781 557.377,-133.59"/>
<polygon fill="midnightblue" stroke="midnightblue" points="558.427,-136.929 567.019,-130.729 556.436,-130.218 558.427,-136.929"/>
</g>
<!-- Node16 -->
<g id="node17" class="node"><title>Node16</title>
<polygon fill="white" stroke="#bfbfbf" points="637.568,-112.5 637.568,-131.5 684.568,-131.5 684.568,-112.5 637.568,-112.5"/>
<text text-anchor="middle" x="661.068" y="-119.5" font-family="Helvetica,sans-Serif" font-size="10.00">TList.h</text>
</g>
<!-- Node3&#45;&gt;Node16 -->
<g id="edge19" class="edge"><title>Node3&#45;&gt;Node16</title>
<path fill="none" stroke="midnightblue" d="M456.133,-168.498C498,-160.41 562.294,-147.513 627.306,-132.064"/>
<polygon fill="midnightblue" stroke="midnightblue" points="628.411,-135.398 637.32,-129.665 626.78,-128.591 628.411,-135.398"/>
</g>
<!-- Node17 -->
<g id="node18" class="node"><title>Node17</title>
<polygon fill="white" stroke="#bfbfbf" points="33.0684,-112.5 33.0684,-131.5 107.068,-131.5 107.068,-112.5 33.0684,-112.5"/>
<text text-anchor="middle" x="70.0684" y="-119.5" font-family="Helvetica,sans-Serif" font-size="10.00">TCollection.h</text>
</g>
<!-- Node3&#45;&gt;Node17 -->
<g id="edge20" class="edge"><title>Node3&#45;&gt;Node17</title>
<path fill="none" stroke="midnightblue" d="M363.965,-170.435C307.644,-162.447 210.29,-148.204 117.079,-132.118"/>
<polygon fill="midnightblue" stroke="midnightblue" points="117.652,-128.665 107.201,-130.403 116.455,-135.562 117.652,-128.665"/>
</g>
<!-- Node18 -->
<g id="node19" class="node"><title>Node18</title>
<polygon fill="white" stroke="#bfbfbf" points="125.068,-112.5 125.068,-131.5 173.068,-131.5 173.068,-112.5 125.068,-112.5"/>
<text text-anchor="middle" x="149.068" y="-119.5" font-family="Helvetica,sans-Serif" font-size="10.00">TKey.h</text>
</g>
<!-- Node3&#45;&gt;Node18 -->
<g id="edge21" class="edge"><title>Node3&#45;&gt;Node18</title>
<path fill="none" stroke="midnightblue" d="M363.928,-168.765C319.657,-160.801 251.37,-147.928 183.219,-132.139"/>
<polygon fill="midnightblue" stroke="midnightblue" points="183.702,-128.657 173.168,-129.788 182.108,-135.474 183.702,-128.657"/>
</g>
<!-- Node19 -->
<g id="node20" class="node"><title>Node19</title>
<polygon fill="white" stroke="#bfbfbf" points="716.568,-56.5 716.568,-75.5 745.568,-75.5 745.568,-56.5 716.568,-56.5"/>
<text text-anchor="middle" x="731.068" y="-63.5" font-family="Helvetica,sans-Serif" font-size="10.00">list</text>
</g>
<!-- Node3&#45;&gt;Node19 -->
<g id="edge24" class="edge"><title>Node3&#45;&gt;Node19</title>
<path fill="none" stroke="midnightblue" d="M410.857,-168.303C411.027,-154.175 413.591,-126.377 430.068,-112 450.811,-93.902 637.251,-75.4486 705.869,-69.2118"/>
<polygon fill="midnightblue" stroke="midnightblue" points="706.537,-72.666 716.184,-68.2859 705.912,-65.694 706.537,-72.666"/>
</g>
<!-- Node20 -->
<g id="node21" class="node"><title>Node20</title>
<polygon fill="white" stroke="#bfbfbf" points="191.068,-112.5 191.068,-131.5 221.068,-131.5 221.068,-112.5 191.068,-112.5"/>
<text text-anchor="middle" x="206.068" y="-119.5" font-family="Helvetica,sans-Serif" font-size="10.00">set</text>
</g>
<!-- Node3&#45;&gt;Node20 -->
<g id="edge25" class="edge"><title>Node3&#45;&gt;Node20</title>
<path fill="none" stroke="midnightblue" d="M371.16,-168.467C336.332,-160.712 284.307,-148.387 230.853,-131.979"/>
<polygon fill="midnightblue" stroke="midnightblue" points="231.801,-128.609 221.213,-128.98 229.721,-135.293 231.801,-128.609"/>
</g>
<!-- Node21 -->
<g id="node22" class="node"><title>Node21</title>
<polygon fill="white" stroke="#bfbfbf" points="254.568,-0.5 254.568,-19.5 313.568,-19.5 313.568,-0.5 254.568,-0.5"/>
<text text-anchor="middle" x="284.068" y="-7.5" font-family="Helvetica,sans-Serif" font-size="10.00">stdexcept</text>
</g>
<!-- Node3&#45;&gt;Node21 -->
<g id="edge26" class="edge"><title>Node3&#45;&gt;Node21</title>
<path fill="none" stroke="midnightblue" d="M363.829,-175.112C263.627,-170.621 37.0259,-157.707 14.0684,-132 -55.1296,-54.5153 153.518,-23.94 244.197,-14.5157"/>
<polygon fill="midnightblue" stroke="midnightblue" points="244.787,-17.9741 254.388,-13.4941 244.089,-11.009 244.787,-17.9741"/>
</g>
<!-- Node4&#45;&gt;Node1 -->
<g id="edge5" class="edge"><title>Node4&#45;&gt;Node1</title>
<path fill="none" stroke="midnightblue" d="M761.527,-112.083C765.223,-104.691 770.592,-93.9533 775.163,-84.8111"/>
<polygon fill="midnightblue" stroke="midnightblue" points="778.351,-86.2606 779.693,-75.7511 772.09,-83.1301 778.351,-86.2606"/>
</g>
<!-- Node4&#45;&gt;Node2 -->
<g id="edge8" class="edge"><title>Node4&#45;&gt;Node2</title>
<path fill="none" stroke="midnightblue" d="M771.207,-112.324C784.935,-103.9 806.005,-90.9709 822.133,-81.0741"/>
<polygon fill="midnightblue" stroke="midnightblue" points="824.272,-83.8678 830.965,-75.6545 820.611,-77.9016 824.272,-83.8678"/>
</g>
<!-- Node5 -->
<g id="node6" class="node"><title>Node5</title>
<polygon fill="white" stroke="#bfbfbf" points="874.068,-0.5 874.068,-19.5 926.068,-19.5 926.068,-0.5 874.068,-0.5"/>
<text text-anchor="middle" x="900.068" y="-7.5" font-family="Helvetica,sans-Serif" font-size="10.00">sstream</text>
</g>
<!-- Node4&#45;&gt;Node5 -->
<g id="edge6" class="edge"><title>Node4&#45;&gt;Node5</title>
<path fill="none" stroke="midnightblue" d="M741.919,-112.314C721.983,-99.7871 691.226,-75.9616 707.068,-56 726.238,-31.8466 813.185,-19.4551 863.597,-14.196"/>
<polygon fill="midnightblue" stroke="midnightblue" points="864.16,-17.6573 873.762,-13.1804 863.464,-10.692 864.16,-17.6573"/>
</g>
<!-- Node6 -->
<g id="node7" class="node"><title>Node6</title>
<polygon fill="white" stroke="#bfbfbf" points="711.068,-0.5 711.068,-19.5 767.068,-19.5 767.068,-0.5 711.068,-0.5"/>
<text text-anchor="middle" x="739.068" y="-7.5" font-family="Helvetica,sans-Serif" font-size="10.00">algorithm</text>
</g>
<!-- Node4&#45;&gt;Node6 -->
<g id="edge7" class="edge"><title>Node4&#45;&gt;Node6</title>
<path fill="none" stroke="midnightblue" d="M724.884,-112.488C706.529,-105.801 685.053,-94.4504 674.068,-76 661.655,-55.1496 686.918,-36.137 709.481,-24.1345"/>
<polygon fill="midnightblue" stroke="midnightblue" points="711.178,-27.1987 718.547,-19.5863 708.039,-20.9418 711.178,-27.1987"/>
</g>
<!-- Node7&#45;&gt;Node6 -->
<g id="edge10" class="edge"><title>Node7&#45;&gt;Node6</title>
<path fill="none" stroke="midnightblue" d="M303.975,-112.384C326.361,-96.3458 374.17,-62.9109 393.068,-56 499.502,-17.078 635.16,-11.0113 700.485,-10.5656"/>
<polygon fill="midnightblue" stroke="midnightblue" points="700.733,-14.0651 710.724,-10.5388 700.715,-7.06512 700.733,-14.0651"/>
</g>
<!-- Node7&#45;&gt;Node8 -->
<g id="edge11" class="edge"><title>Node7&#45;&gt;Node8</title>
<path fill="none" stroke="midnightblue" d="M266.241,-112.444C238.819,-103.359 195.291,-88.9388 164.636,-78.7831"/>
<polygon fill="midnightblue" stroke="midnightblue" points="165.369,-75.3389 154.775,-75.5164 163.167,-81.9837 165.369,-75.3389"/>
</g>
<!-- Node9 -->
<g id="node10" class="node"><title>Node9</title>
<polygon fill="white" stroke="#bfbfbf" points="445.068,-0.5 445.068,-19.5 489.068,-19.5 489.068,-0.5 445.068,-0.5"/>
<text text-anchor="middle" x="467.068" y="-7.5" font-family="Helvetica,sans-Serif" font-size="10.00">cmath</text>
</g>
<!-- Node7&#45;&gt;Node9 -->
<g id="edge12" class="edge"><title>Node7&#45;&gt;Node9</title>
<path fill="none" stroke="midnightblue" d="M287.262,-112.38C280.438,-98.8543 270.126,-72.4893 283.068,-56 301.568,-32.431 386.955,-19.6153 434.637,-14.1858"/>
<polygon fill="midnightblue" stroke="midnightblue" points="435.203,-17.645 444.763,-13.0792 434.442,-10.6864 435.203,-17.645"/>
</g>
<!-- Node10 -->
<g id="node11" class="node"><title>Node10</title>
<polygon fill="white" stroke="#bfbfbf" points="292.568,-56.5 292.568,-75.5 345.568,-75.5 345.568,-56.5 292.568,-56.5"/>
<text text-anchor="middle" x="319.068" y="-63.5" font-family="Helvetica,sans-Serif" font-size="10.00">cxxabi.h</text>
</g>
<!-- Node7&#45;&gt;Node10 -->
<g id="edge13" class="edge"><title>Node7&#45;&gt;Node10</title>
<path fill="none" stroke="midnightblue" d="M296.527,-112.083C300.223,-104.691 305.592,-93.9533 310.163,-84.8111"/>
<polygon fill="midnightblue" stroke="midnightblue" points="313.351,-86.2606 314.693,-75.7511 307.09,-83.1301 313.351,-86.2606"/>
</g>
<!-- Node11 -->
<g id="node12" class="node"><title>Node11</title>
<polygon fill="white" stroke="#bfbfbf" points="516.068,-56.5 516.068,-75.5 578.068,-75.5 578.068,-56.5 516.068,-56.5"/>
<text text-anchor="middle" x="547.068" y="-63.5" font-family="Helvetica,sans-Serif" font-size="10.00">type_traits</text>
</g>
<!-- Node7&#45;&gt;Node11 -->
<g id="edge14" class="edge"><title>Node7&#45;&gt;Node11</title>
<path fill="none" stroke="midnightblue" d="M332.474,-112.444C379.836,-102.414 457.913,-85.88 505.691,-75.7623"/>
<polygon fill="midnightblue" stroke="midnightblue" points="506.637,-79.1397 515.695,-73.6439 505.186,-72.2916 506.637,-79.1397"/>
</g>
<!-- Node7&#45;&gt;Node12 -->
<g id="edge15" class="edge"><title>Node7&#45;&gt;Node12</title>
<path fill="none" stroke="midnightblue" d="M313.618,-112.444C336.099,-103.517 371.556,-89.4387 397.048,-79.3168"/>
<polygon fill="midnightblue" stroke="midnightblue" points="398.617,-82.4598 406.62,-75.5164 396.034,-75.9539 398.617,-82.4598"/>
</g>
<!-- Node22&#45;&gt;Node2 -->
<g id="edge29" class="edge"><title>Node22&#45;&gt;Node2</title>
<path fill="none" stroke="midnightblue" d="M1057.74,-280.478C1074.43,-273.382 1095.48,-261.571 1107.07,-244 1125.77,-215.649 1133.93,-196.245 1115.07,-168 1106.05,-154.495 995.289,-117.661 980.068,-112 935.333,-95.3601 921.2,-92.6518 876.813,-77.908"/>
<polygon fill="midnightblue" stroke="midnightblue" points="877.782,-74.5416 867.188,-74.6809 875.557,-81.1785 877.782,-74.5416"/>
</g>
<!-- Node23 -->
<g id="node24" class="node"><title>Node23</title>
<g id="a_node24"><a xlink:href="_production_data_base_8h.html" target="_top" xlink:title="ProductionDataBase.h">
<polygon fill="white" stroke="black" points="983.568,-224.5 983.568,-243.5 1098.57,-243.5 1098.57,-224.5 983.568,-224.5"/>
<text text-anchor="middle" x="1041.07" y="-231.5" font-family="Helvetica,sans-Serif" font-size="10.00">ProductionDataBase.h</text>
</a>
</g>
</g>
<!-- Node22&#45;&gt;Node23 -->
<g id="edge30" class="edge"><title>Node22&#45;&gt;Node23</title>
<path fill="none" stroke="midnightblue" d="M1034.39,-280.083C1035.45,-272.927 1036.97,-262.635 1038.3,-253.691"/>
<polygon fill="midnightblue" stroke="midnightblue" points="1041.77,-254.156 1039.77,-243.751 1034.84,-253.13 1041.77,-254.156"/>
</g>
<!-- Node23&#45;&gt;Node2 -->
<g id="edge31" class="edge"><title>Node23&#45;&gt;Node2</title>
<path fill="none" stroke="midnightblue" d="M1031.95,-224.211C1023.19,-215.495 1009.86,-201.524 1000.07,-188 977.301,-156.57 986.272,-137.561 957.068,-112 950.683,-106.411 907.544,-89.8808 876.714,-78.4913"/>
<polygon fill="midnightblue" stroke="midnightblue" points="877.793,-75.159 867.2,-74.9944 875.378,-81.7293 877.793,-75.159"/>
</g>
<!-- Node24 -->
<g id="node25" class="node"><title>Node24</title>
<g id="a_node25"><a xlink:href="_particle_type_tree_8h.html" target="_top" xlink:title="base/ParticleTypeTree.h">
<polygon fill="white" stroke="black" points="1171.57,-168.5 1171.57,-187.5 1294.57,-187.5 1294.57,-168.5 1171.57,-168.5"/>
<text text-anchor="middle" x="1233.07" y="-175.5" font-family="Helvetica,sans-Serif" font-size="10.00">base/ParticleTypeTree.h</text>
</a>
</g>
</g>
<!-- Node23&#45;&gt;Node24 -->
<g id="edge32" class="edge"><title>Node23&#45;&gt;Node24</title>
<path fill="none" stroke="midnightblue" d="M1071.49,-224.444C1104.35,-215.201 1156.85,-200.436 1193.04,-190.257"/>
<polygon fill="midnightblue" stroke="midnightblue" points="1194.11,-193.593 1202.79,-187.516 1192.21,-186.855 1194.11,-193.593"/>
</g>
<!-- Node40 -->
<g id="node41" class="node"><title>Node40</title>
<polygon fill="white" stroke="#bfbfbf" points="1009.07,-168.5 1009.07,-187.5 1107.07,-187.5 1107.07,-168.5 1009.07,-168.5"/>
<text text-anchor="middle" x="1058.07" y="-175.5" font-family="Helvetica,sans-Serif" font-size="10.00">Math/Interpolator.h</text>
</g>
<!-- Node23&#45;&gt;Node40 -->
<g id="edge61" class="edge"><title>Node23&#45;&gt;Node40</title>
<path fill="none" stroke="midnightblue" d="M1043.88,-224.083C1046.15,-216.849 1049.44,-206.409 1052.28,-197.397"/>
<polygon fill="midnightblue" stroke="midnightblue" points="1055.65,-198.341 1055.31,-187.751 1048.97,-196.239 1055.65,-198.341"/>
</g>
<!-- Node25 -->
<g id="node26" class="node"><title>Node25</title>
<g id="a_node26"><a xlink:href="_particle_type_8h.html" target="_top" xlink:title="ParticleType.h">
<polygon fill="white" stroke="black" points="1232.07,-112.5 1232.07,-131.5 1312.07,-131.5 1312.07,-112.5 1232.07,-112.5"/>
<text text-anchor="middle" x="1272.07" y="-119.5" font-family="Helvetica,sans-Serif" font-size="10.00">ParticleType.h</text>
</a>
</g>
</g>
<!-- Node24&#45;&gt;Node25 -->
<g id="edge33" class="edge"><title>Node24&#45;&gt;Node25</title>
<path fill="none" stroke="midnightblue" d="M1239.51,-168.083C1245.02,-160.455 1253.1,-149.264 1259.83,-139.941"/>
<polygon fill="midnightblue" stroke="midnightblue" points="1262.73,-141.907 1265.75,-131.751 1257.06,-137.809 1262.73,-141.907"/>
</g>
<!-- Node31 -->
<g id="node32" class="node"><title>Node31</title>
<polygon fill="white" stroke="#bfbfbf" points="1558.57,-56.5 1558.57,-75.5 1593.57,-75.5 1593.57,-56.5 1558.57,-56.5"/>
<text text-anchor="middle" x="1576.07" y="-63.5" font-family="Helvetica,sans-Serif" font-size="10.00">map</text>
</g>
<!-- Node24&#45;&gt;Node31 -->
<g id="edge60" class="edge"><title>Node24&#45;&gt;Node31</title>
<path fill="none" stroke="midnightblue" d="M1260.16,-168.466C1313.34,-151.684 1435.39,-113.045 1548.82,-76.053"/>
<polygon fill="midnightblue" stroke="midnightblue" points="1549.94,-79.368 1558.36,-72.9376 1547.77,-72.7135 1549.94,-79.368"/>
</g>
<!-- Node33 -->
<g id="node34" class="node"><title>Node33</title>
<g id="a_node34"><a xlink:href="_tree_8h.html" target="_top" xlink:title="Tree.h">
<polygon fill="white" stroke="black" points="1047.07,-112.5 1047.07,-131.5 1091.07,-131.5 1091.07,-112.5 1047.07,-112.5"/>
<text text-anchor="middle" x="1069.07" y="-119.5" font-family="Helvetica,sans-Serif" font-size="10.00">Tree.h</text>
</a>
</g>
</g>
<!-- Node24&#45;&gt;Node33 -->
<g id="edge48" class="edge"><title>Node24&#45;&gt;Node33</title>
<path fill="none" stroke="midnightblue" d="M1207.08,-168.444C1178.36,-158.985 1132.06,-143.742 1101.11,-133.551"/>
<polygon fill="midnightblue" stroke="midnightblue" points="1101.84,-130.107 1091.25,-130.304 1099.66,-136.756 1101.84,-130.107"/>
</g>
<!-- Node25&#45;&gt;Node1 -->
<g id="edge43" class="edge"><title>Node25&#45;&gt;Node1</title>
<path fill="none" stroke="midnightblue" d="M1231.87,-119.662C1153.34,-116.488 974.082,-106.487 814.585,-75.6902"/>
<polygon fill="midnightblue" stroke="midnightblue" points="815.08,-72.2208 804.593,-73.7284 813.732,-79.0897 815.08,-72.2208"/>
</g>
<!-- Node25&#45;&gt;Node2 -->
<g id="edge47" class="edge"><title>Node25&#45;&gt;Node2</title>
<path fill="none" stroke="midnightblue" d="M1232.06,-116.033C1165.89,-107.803 1029.48,-90.7807 914.068,-76 902.05,-74.4609 888.858,-72.7463 877.256,-71.23"/>
<polygon fill="midnightblue" stroke="midnightblue" points="877.498,-67.7319 867.128,-69.9039 876.589,-74.6726 877.498,-67.7319"/>
</g>
<!-- Node26 -->
<g id="node27" class="node"><title>Node26</title>
<g id="a_node27"><a xlink:href="types_8h.html" target="_top" xlink:title="base/types.h">
<polygon fill="white" stroke="black" points="1246.57,-0.5 1246.57,-19.5 1319.57,-19.5 1319.57,-0.5 1246.57,-0.5"/>
<text text-anchor="middle" x="1283.07" y="-7.5" font-family="Helvetica,sans-Serif" font-size="10.00">base/types.h</text>
</a>
</g>
</g>
<!-- Node25&#45;&gt;Node26 -->
<g id="edge34" class="edge"><title>Node25&#45;&gt;Node26</title>
<path fill="none" stroke="midnightblue" d="M1272.93,-112.368C1274.71,-94.617 1278.8,-53.6664 1281.21,-29.5974"/>
<polygon fill="midnightblue" stroke="midnightblue" points="1284.7,-29.8901 1282.21,-19.5914 1277.73,-29.1935 1284.7,-29.8901"/>
</g>
<!-- Node27 -->
<g id="node28" class="node"><title>Node27</title>
<g id="a_node28"><a xlink:href="interval_8h.html" target="_top" xlink:title="base/interval.h">
<polygon fill="white" stroke="black" points="1175.07,-56.5 1175.07,-75.5 1255.07,-75.5 1255.07,-56.5 1175.07,-56.5"/>
<text text-anchor="middle" x="1215.07" y="-63.5" font-family="Helvetica,sans-Serif" font-size="10.00">base/interval.h</text>
</a>
</g>
</g>
<!-- Node25&#45;&gt;Node27 -->
<g id="edge35" class="edge"><title>Node25&#45;&gt;Node27</title>
<path fill="none" stroke="midnightblue" d="M1262.91,-112.324C1254.57,-104.42 1242.04,-92.5482 1231.89,-82.9377"/>
<polygon fill="midnightblue" stroke="midnightblue" points="1234.06,-80.1705 1224.39,-75.8339 1229.25,-85.2522 1234.06,-80.1705"/>
</g>
<!-- Node30 -->
<g id="node31" class="node"><title>Node30</title>
<polygon fill="white" stroke="#bfbfbf" points="1423.07,-56.5 1423.07,-75.5 1475.07,-75.5 1475.07,-56.5 1423.07,-56.5"/>
<text text-anchor="middle" x="1449.07" y="-63.5" font-family="Helvetica,sans-Serif" font-size="10.00">ostream</text>
</g>
<!-- Node25&#45;&gt;Node30 -->
<g id="edge44" class="edge"><title>Node25&#45;&gt;Node30</title>
<path fill="none" stroke="midnightblue" d="M1300.11,-112.444C1330.68,-103.118 1379.68,-88.1708 1413.06,-77.985"/>
<polygon fill="midnightblue" stroke="midnightblue" points="1414.34,-81.2541 1422.88,-74.9883 1412.3,-74.5588 1414.34,-81.2541"/>
</g>
<!-- Node25&#45;&gt;Node31 -->
<g id="edge45" class="edge"><title>Node25&#45;&gt;Node31</title>
<path fill="none" stroke="midnightblue" d="M1312.38,-116.513C1364.76,-110.233 1459.11,-97.3859 1548.7,-75.7214"/>
<polygon fill="midnightblue" stroke="midnightblue" points="1549.59,-79.1052 1558.47,-73.318 1547.92,-72.3078 1549.59,-79.1052"/>
</g>
<!-- Node32 -->
<g id="node33" class="node"><title>Node32</title>
<polygon fill="white" stroke="#bfbfbf" points="1493.57,-56.5 1493.57,-75.5 1540.57,-75.5 1540.57,-56.5 1493.57,-56.5"/>
<text text-anchor="middle" x="1517.07" y="-63.5" font-family="Helvetica,sans-Serif" font-size="10.00">iterator</text>
</g>
<!-- Node25&#45;&gt;Node32 -->
<g id="edge46" class="edge"><title>Node25&#45;&gt;Node32</title>
<path fill="none" stroke="midnightblue" d="M1312.08,-113.216C1352.73,-105.15 1417.73,-91.8236 1483.23,-76.0928"/>
<polygon fill="midnightblue" stroke="midnightblue" points="1484.42,-79.4055 1493.32,-73.6516 1482.77,-72.6018 1484.42,-79.4055"/>
</g>
<!-- Node27&#45;&gt;Node5 -->
<g id="edge41" class="edge"><title>Node27&#45;&gt;Node5</title>
<path fill="none" stroke="midnightblue" d="M1174.96,-57.7441C1171.61,-57.15 1168.28,-56.5622 1165.07,-56 1083.36,-41.7089 987.357,-25.5683 936.304,-17.0367"/>
<polygon fill="midnightblue" stroke="midnightblue" points="936.852,-13.5798 926.412,-15.3848 935.699,-20.4842 936.852,-13.5798"/>
</g>
<!-- Node27&#45;&gt;Node6 -->
<g id="edge37" class="edge"><title>Node27&#45;&gt;Node6</title>
<path fill="none" stroke="midnightblue" d="M1174.99,-57.5213C1171.64,-56.9764 1168.3,-56.4608 1165.07,-56 1022.79,-35.7079 852.57,-20.4094 777.665,-14.1284"/>
<polygon fill="midnightblue" stroke="midnightblue" points="777.576,-10.6089 767.32,-13.2676 776.995,-17.5848 777.576,-10.6089"/>
</g>
<!-- Node27&#45;&gt;Node9 -->
<g id="edge42" class="edge"><title>Node27&#45;&gt;Node9</title>
<path fill="none" stroke="midnightblue" d="M1175.01,-57.3762C1171.66,-56.8633 1168.31,-56.3947 1165.07,-56 1033.57,-39.9784 619.186,-18.5786 499.646,-12.6066"/>
<polygon fill="midnightblue" stroke="midnightblue" points="499.491,-9.09463 489.33,-12.093 499.143,-16.086 499.491,-9.09463"/>
</g>
<!-- Node27&#45;&gt;Node21 -->
<g id="edge38" class="edge"><title>Node27&#45;&gt;Node21</title>
<path fill="none" stroke="midnightblue" d="M1175.02,-57.3227C1171.66,-56.8216 1168.31,-56.3703 1165.07,-56 842.769,-19.19 759.986,-37.5872 436.068,-20 398.053,-17.9359 354.704,-15.3458 324.054,-13.4748"/>
<polygon fill="midnightblue" stroke="midnightblue" points="323.967,-9.96303 313.772,-12.845 323.539,-16.9499 323.967,-9.96303"/>
</g>
<!-- Node27&#45;&gt;Node26 -->
<g id="edge36" class="edge"><title>Node27&#45;&gt;Node26</title>
<path fill="none" stroke="midnightblue" d="M1225.99,-56.324C1236.24,-48.1849 1251.79,-35.8395 1264.07,-26.0874"/>
<polygon fill="midnightblue" stroke="midnightblue" points="1266.29,-28.7937 1271.94,-19.8339 1261.94,-23.3119 1266.29,-28.7937"/>
</g>
<!-- Node28 -->
<g id="node29" class="node"><title>Node28</title>
<polygon fill="white" stroke="#bfbfbf" points="1121.07,-0.5 1121.07,-19.5 1161.07,-19.5 1161.07,-0.5 1121.07,-0.5"/>
<text text-anchor="middle" x="1141.07" y="-7.5" font-family="Helvetica,sans-Serif" font-size="10.00">limits</text>
</g>
<!-- Node27&#45;&gt;Node28 -->
<g id="edge39" class="edge"><title>Node27&#45;&gt;Node28</title>
<path fill="none" stroke="midnightblue" d="M1203.18,-56.324C1191.92,-48.1066 1174.78,-35.6017 1161.36,-25.8069"/>
<polygon fill="midnightblue" stroke="midnightblue" points="1163.32,-22.9014 1153.17,-19.8339 1159.19,-28.5559 1163.32,-22.9014"/>
</g>
<!-- Node29 -->
<g id="node30" class="node"><title>Node29</title>
<polygon fill="white" stroke="#bfbfbf" points="1179.57,-0.5 1179.57,-19.5 1228.57,-19.5 1228.57,-0.5 1179.57,-0.5"/>
<text text-anchor="middle" x="1204.07" y="-7.5" font-family="Helvetica,sans-Serif" font-size="10.00">istream</text>
</g>
<!-- Node27&#45;&gt;Node29 -->
<g id="edge40" class="edge"><title>Node27&#45;&gt;Node29</title>
<path fill="none" stroke="midnightblue" d="M1213.25,-56.083C1211.79,-48.9272 1209.7,-38.6353 1207.88,-29.6911"/>
<polygon fill="midnightblue" stroke="midnightblue" points="1211.28,-28.8512 1205.85,-19.7511 1204.42,-30.2485 1211.28,-28.8512"/>
</g>
<!-- Node33&#45;&gt;Node2 -->
<g id="edge55" class="edge"><title>Node33&#45;&gt;Node2</title>
<path fill="none" stroke="midnightblue" d="M1046.99,-115.435C1042.39,-114.289 1037.58,-113.097 1033.07,-112 965.614,-95.5807 948.523,-92.4193 881.068,-76 879.801,-75.6915 878.509,-75.3754 877.203,-75.055"/>
<polygon fill="midnightblue" stroke="midnightblue" points="877.69,-71.57 867.142,-72.5645 876.008,-78.3649 877.69,-71.57"/>
</g>
<!-- Node33&#45;&gt;Node6 -->
<g id="edge56" class="edge"><title>Node33&#45;&gt;Node6</title>
<path fill="none" stroke="midnightblue" d="M1046.96,-115.142C1010.28,-105.331 938.481,-85.7001 914.068,-76 895.965,-68.8071 893.035,-63.5264 875.068,-56 842.585,-42.3925 804.424,-30.0699 776.807,-21.7743"/>
<polygon fill="midnightblue" stroke="midnightblue" points="777.722,-18.395 767.139,-18.9054 775.73,-25.1057 777.722,-18.395"/>
</g>
<!-- Node33&#45;&gt;Node11 -->
<g id="edge59" class="edge"><title>Node33&#45;&gt;Node11</title>
<path fill="none" stroke="midnightblue" d="M1046.97,-118.714C967.238,-110.466 693.525,-82.1507 588.527,-71.2889"/>
<polygon fill="midnightblue" stroke="midnightblue" points="588.628,-67.7807 578.321,-70.233 587.908,-74.7435 588.628,-67.7807"/>
</g>
<!-- Node33&#45;&gt;Node12 -->
<g id="edge53" class="edge"><title>Node33&#45;&gt;Node12</title>
<path fill="none" stroke="midnightblue" d="M1046.82,-119.488C971.153,-114.288 716.775,-96.3353 507.068,-76 493.191,-74.6544 477.968,-72.9696 464.62,-71.4228"/>
<polygon fill="midnightblue" stroke="midnightblue" points="464.718,-67.9104 454.378,-70.221 463.902,-74.8627 464.718,-67.9104"/>
</g>
<!-- Node33&#45;&gt;Node19 -->
<g id="edge54" class="edge"><title>Node33&#45;&gt;Node19</title>
<path fill="none" stroke="midnightblue" d="M1046.95,-119.603C996.527,-116.05 869.201,-104.992 755.868,-75.996"/>
<polygon fill="midnightblue" stroke="midnightblue" points="756.557,-72.5584 745.996,-73.4147 754.786,-79.3307 756.557,-72.5584"/>
</g>
<!-- Node34 -->
<g id="node35" class="node"><title>Node34</title>
<polygon fill="white" stroke="#bfbfbf" points="993.068,-56.5 993.068,-75.5 1089.07,-75.5 1089.07,-56.5 993.068,-56.5"/>
<text text-anchor="middle" x="1041.07" y="-63.5" font-family="Helvetica,sans-Serif" font-size="10.00">cereal/access.hpp</text>
</g>
<!-- Node33&#45;&gt;Node34 -->
<g id="edge49" class="edge"><title>Node33&#45;&gt;Node34</title>
<path fill="none" stroke="midnightblue" d="M1064.44,-112.083C1060.61,-104.691 1055.04,-93.9533 1050.3,-84.8111"/>
<polygon fill="midnightblue" stroke="midnightblue" points="1053.32,-83.0175 1045.61,-75.7511 1047.1,-86.2398 1053.32,-83.0175"/>
</g>
<!-- Node35 -->
<g id="node36" class="node"><title>Node35</title>
<g id="a_node36"><a xlink:href="variadic_8h.html" target="_top" xlink:title="std_ext/variadic.h">
<polygon fill="white" stroke="black" points="1311.07,-56.5 1311.07,-75.5 1405.07,-75.5 1405.07,-56.5 1311.07,-56.5"/>
<text text-anchor="middle" x="1358.07" y="-63.5" font-family="Helvetica,sans-Serif" font-size="10.00">std_ext/variadic.h</text>
</a>
</g>
</g>
<!-- Node33&#45;&gt;Node35 -->
<g id="edge50" class="edge"><title>Node33&#45;&gt;Node35</title>
<path fill="none" stroke="midnightblue" d="M1091.27,-116.852C1136.06,-108.483 1238.43,-89.3544 1302.54,-77.3747"/>
<polygon fill="midnightblue" stroke="midnightblue" points="1303.3,-80.7935 1312.49,-75.5162 1302.02,-73.9125 1303.3,-80.7935"/>
</g>
<!-- Node38 -->
<g id="node39" class="node"><title>Node38</title>
<polygon fill="white" stroke="#bfbfbf" points="1107.57,-56.5 1107.57,-75.5 1156.57,-75.5 1156.57,-56.5 1107.57,-56.5"/>
<text text-anchor="middle" x="1132.07" y="-63.5" font-family="Helvetica,sans-Serif" font-size="10.00">cassert</text>
</g>
<!-- Node33&#45;&gt;Node38 -->
<g id="edge57" class="edge"><title>Node33&#45;&gt;Node38</title>
<path fill="none" stroke="midnightblue" d="M1079.19,-112.324C1088.59,-104.263 1102.81,-92.0765 1114.14,-82.3695"/>
<polygon fill="midnightblue" stroke="midnightblue" points="1116.45,-84.9993 1121.76,-75.8339 1111.89,-79.6844 1116.45,-84.9993"/>
</g>
<!-- Node39 -->
<g id="node40" class="node"><title>Node39</title>
<polygon fill="white" stroke="#bfbfbf" points="923.568,-56.5 923.568,-75.5 974.568,-75.5 974.568,-56.5 923.568,-56.5"/>
<text text-anchor="middle" x="949.068" y="-63.5" font-family="Helvetica,sans-Serif" font-size="10.00">numeric</text>
</g>
<!-- Node33&#45;&gt;Node39 -->
<g id="edge58" class="edge"><title>Node33&#45;&gt;Node39</title>
<path fill="none" stroke="midnightblue" d="M1050.05,-112.444C1030.48,-103.636 999.761,-89.8116 977.339,-79.722"/>
<polygon fill="midnightblue" stroke="midnightblue" points="978.549,-76.4284 967.994,-75.5164 975.677,-82.8119 978.549,-76.4284"/>
</g>
<!-- Node36 -->
<g id="node37" class="node"><title>Node36</title>
<polygon fill="white" stroke="#bfbfbf" points="1394.57,-0.5 1394.57,-19.5 1443.57,-19.5 1443.57,-0.5 1394.57,-0.5"/>
<text text-anchor="middle" x="1419.07" y="-7.5" font-family="Helvetica,sans-Serif" font-size="10.00">cstddef</text>
</g>
<!-- Node35&#45;&gt;Node36 -->
<g id="edge51" class="edge"><title>Node35&#45;&gt;Node36</title>
<path fill="none" stroke="midnightblue" d="M1367.87,-56.324C1376.89,-48.3414 1390.47,-36.3128 1401.39,-26.6529"/>
<polygon fill="midnightblue" stroke="midnightblue" points="1403.92,-29.083 1409.09,-19.8339 1399.28,-23.8416 1403.92,-29.083"/>
</g>
<!-- Node37 -->
<g id="node38" class="node"><title>Node37</title>
<polygon fill="white" stroke="#bfbfbf" points="1338.07,-0.5 1338.07,-19.5 1376.07,-19.5 1376.07,-0.5 1338.07,-0.5"/>
<text text-anchor="middle" x="1357.07" y="-7.5" font-family="Helvetica,sans-Serif" font-size="10.00">tuple</text>
</g>
<!-- Node35&#45;&gt;Node37 -->
<g id="edge52" class="edge"><title>Node35&#45;&gt;Node37</title>
<path fill="none" stroke="midnightblue" d="M1357.9,-56.083C1357.77,-49.0059 1357.58,-38.8611 1357.42,-29.9865"/>
<polygon fill="midnightblue" stroke="midnightblue" points="1360.92,-29.6845 1357.23,-19.7511 1353.92,-29.8142 1360.92,-29.6845"/>
</g>
<!-- Node41&#45;&gt;Node24 -->
<g id="edge63" class="edge"><title>Node41&#45;&gt;Node24</title>
<path fill="none" stroke="midnightblue" d="M1190.6,-280.45C1197.04,-271.69 1206.8,-257.483 1213.07,-244 1220.07,-228.946 1225.42,-210.817 1228.81,-197.534"/>
<polygon fill="midnightblue" stroke="midnightblue" points="1232.24,-198.233 1231.2,-187.69 1225.44,-196.584 1232.24,-198.233"/>
</g>
<!-- Node41&#45;&gt;Node42 -->
<g id="edge64" class="edge"><title>Node41&#45;&gt;Node42</title>
<path fill="none" stroke="midnightblue" d="M1184.07,-280.083C1184.07,-273.006 1184.07,-262.861 1184.07,-253.986"/>
<polygon fill="midnightblue" stroke="midnightblue" points="1187.57,-253.751 1184.07,-243.751 1180.57,-253.751 1187.57,-253.751"/>
</g>
</g>
</svg>
