<?xml version="1.0" encoding="UTF-8" standalone="no"?>
<!DOCTYPE svg PUBLIC "-//W3C//DTD SVG 1.1//EN"
 "http://www.w3.org/Graphics/SVG/1.1/DTD/svg11.dtd">
<!-- Generated by graphviz version 2.36.0 (20140111.2315)
 -->
<!-- Title: src/mc/pluto/PlutoFactory.h Pages: 1 -->
<svg width="392pt" height="140pt"
 viewBox="0.00 0.00 392.00 140.00" xmlns="http://www.w3.org/2000/svg" xmlns:xlink="http://www.w3.org/1999/xlink">
<g id="graph0" class="graph" transform="scale(1 1) rotate(0) translate(4 136)">
<title>src/mc/pluto/PlutoFactory.h</title>
<polygon fill="white" stroke="none" points="-4,4 -4,-136 388,-136 388,4 -4,4"/>
<!-- Node27 -->
<g id="node1" class="node"><title>Node27</title>
<polygon fill="#bfbfbf" stroke="black" points="83.5,-112.5 83.5,-131.5 220.5,-131.5 220.5,-112.5 83.5,-112.5"/>
<text text-anchor="middle" x="152" y="-119.5" font-family="Helvetica,sans-Serif" font-size="10.00">src/mc/pluto/PlutoFactory.h</text>
</g>
<!-- Node28 -->
<g id="node2" class="node"><title>Node28</title>
<g id="a_node2"><a xlink:href="_pluto_factory_8cc.html" target="_top" xlink:title="src/mc/pluto/PlutoFactory.cc">
<polygon fill="white" stroke="black" points="-0.5,-56.5 -0.5,-75.5 142.5,-75.5 142.5,-56.5 -0.5,-56.5"/>
<text text-anchor="middle" x="71" y="-63.5" font-family="Helvetica,sans-Serif" font-size="10.00">src/mc/pluto/PlutoFactory.cc</text>
</a>
</g>
</g>
<!-- Node27&#45;&gt;Node28 -->
<g id="edge1" class="edge"><title>Node27&#45;&gt;Node28</title>
<path fill="none" stroke="midnightblue" d="M130.433,-106.622C115.636,-96.7574 96.4878,-83.9919 83.9818,-75.6545"/>
<polygon fill="midnightblue" stroke="midnightblue" points="128.724,-109.689 138.986,-112.324 132.607,-103.865 128.724,-109.689"/>
</g>
<!-- Node29 -->
<g id="node3" class="node"><title>Node29</title>
<g id="a_node3"><a xlink:href="_pluto_generator_8h.html" target="_top" xlink:title="src/mc/pluto/PlutoGenerator.h">
<polygon fill="white" stroke="black" points="160.5,-56.5 160.5,-75.5 307.5,-75.5 307.5,-56.5 160.5,-56.5"/>
<text text-anchor="middle" x="234" y="-63.5" font-family="Helvetica,sans-Serif" font-size="10.00">src/mc/pluto/PlutoGenerator.h</text>
</a>
</g>
</g>
<!-- Node27&#45;&gt;Node29 -->
<g id="edge2" class="edge"><title>Node27&#45;&gt;Node29</title>
<path fill="none" stroke="midnightblue" d="M173.833,-106.622C188.813,-96.7574 208.197,-83.9919 220.858,-75.6545"/>
<polygon fill="midnightblue" stroke="midnightblue" points="171.601,-103.901 165.175,-112.324 175.451,-109.747 171.601,-103.901"/>
</g>
<!-- Node30 -->
<g id="node4" class="node"><title>Node30</title>
<g id="a_node4"><a xlink:href="_ant-cocktail_8cc.html" target="_top" xlink:title="progs/Ant&#45;cocktail.cc">
<polygon fill="white" stroke="black" points="104.5,-0.5 104.5,-19.5 213.5,-19.5 213.5,-0.5 104.5,-0.5"/>
<text text-anchor="middle" x="159" y="-7.5" font-family="Helvetica,sans-Serif" font-size="10.00">progs/Ant&#45;cocktail.cc</text>
</a>
</g>
</g>
<!-- Node29&#45;&gt;Node30 -->
<g id="edge3" class="edge"><title>Node29&#45;&gt;Node30</title>
<path fill="none" stroke="midnightblue" d="M213.695,-50.3804C200.139,-40.6204 182.758,-28.1057 171.269,-19.8339"/>
<polygon fill="midnightblue" stroke="midnightblue" points="211.79,-53.3213 221.95,-56.324 215.88,-47.6405 211.79,-53.3213"/>
</g>
<!-- Node31 -->
<g id="node5" class="node"><title>Node31</title>
<g id="a_node5"><a xlink:href="_pluto_generator_8cc.html" target="_top" xlink:title="src/mc/pluto/PlutoGenerator.cc">
<polygon fill="white" stroke="black" points="232,-0.5 232,-19.5 384,-19.5 384,-0.5 232,-0.5"/>
<text text-anchor="middle" x="308" y="-7.5" font-family="Helvetica,sans-Serif" font-size="10.00">src/mc/pluto/PlutoGenerator.cc</text>
</a>
</g>
</g>
<!-- Node29&#45;&gt;Node31 -->
<g id="edge4" class="edge"><title>Node29&#45;&gt;Node31</title>
<path fill="none" stroke="midnightblue" d="M254.034,-50.3804C267.409,-40.6204 284.559,-28.1057 295.894,-19.8339"/>
<polygon fill="midnightblue" stroke="midnightblue" points="251.904,-47.602 245.889,-56.324 256.03,-53.2565 251.904,-47.602"/>
</g>
</g>
</svg>
