<?xml version="1.0" encoding="UTF-8" standalone="no"?>
<!DOCTYPE svg PUBLIC "-//W3C//DTD SVG 1.1//EN"
 "http://www.w3.org/Graphics/SVG/1.1/DTD/svg11.dtd">
<!-- Generated by graphviz version 2.36.0 (20140111.2315)
 -->
<!-- Title: src/mc/pluto/PlutoGenerator.h Pages: 1 -->
<svg width="287pt" height="84pt"
 viewBox="0.00 0.00 287.00 84.00" xmlns="http://www.w3.org/2000/svg" xmlns:xlink="http://www.w3.org/1999/xlink">
<g id="graph0" class="graph" transform="scale(1 1) rotate(0) translate(4 80)">
<title>src/mc/pluto/PlutoGenerator.h</title>
<polygon fill="white" stroke="none" points="-4,4 -4,-80 283,-80 283,4 -4,4"/>
<!-- Node45 -->
<g id="node1" class="node"><title>Node45</title>
<polygon fill="#bfbfbf" stroke="black" points="54.5,-56.5 54.5,-75.5 201.5,-75.5 201.5,-56.5 54.5,-56.5"/>
<text text-anchor="middle" x="128" y="-63.5" font-family="Helvetica,sans-Serif" font-size="10.00">src/mc/pluto/PlutoGenerator.h</text>
</g>
<!-- Node46 -->
<g id="node2" class="node"><title>Node46</title>
<g id="a_node2"><a xlink:href="_ant-cocktail_8cc.html" target="_top" xlink:title="progs/Ant&#45;cocktail.cc">
<polygon fill="white" stroke="black" points="-0.5,-0.5 -0.5,-19.5 108.5,-19.5 108.5,-0.5 -0.5,-0.5"/>
<text text-anchor="middle" x="54" y="-7.5" font-family="Helvetica,sans-Serif" font-size="10.00">progs/Ant&#45;cocktail.cc</text>
</a>
</g>
</g>
<!-- Node45&#45;&gt;Node46 -->
<g id="edge1" class="edge"><title>Node45&#45;&gt;Node46</title>
<path fill="none" stroke="midnightblue" d="M107.966,-50.3804C94.5909,-40.6204 77.4412,-28.1057 66.1057,-19.8339"/>
<polygon fill="midnightblue" stroke="midnightblue" points="105.97,-53.2565 116.111,-56.324 110.096,-47.602 105.97,-53.2565"/>
</g>
<!-- Node47 -->
<g id="node3" class="node"><title>Node47</title>
<g id="a_node3"><a xlink:href="_pluto_generator_8cc.html" target="_top" xlink:title="src/mc/pluto/PlutoGenerator.cc">
<polygon fill="white" stroke="black" points="127,-0.5 127,-19.5 279,-19.5 279,-0.5 127,-0.5"/>
<text text-anchor="middle" x="203" y="-7.5" font-family="Helvetica,sans-Serif" font-size="10.00">src/mc/pluto/PlutoGenerator.cc</text>
</a>
</g>
</g>
<!-- Node45&#45;&gt;Node47 -->
<g id="edge2" class="edge"><title>Node45&#45;&gt;Node47</title>
<path fill="none" stroke="midnightblue" d="M148.305,-50.3804C161.861,-40.6204 179.242,-28.1057 190.731,-19.8339"/>
<polygon fill="midnightblue" stroke="midnightblue" points="146.12,-47.6405 140.05,-56.324 150.21,-53.3213 146.12,-47.6405"/>
</g>
</g>
</svg>
