<?xml version="1.0" encoding="UTF-8" standalone="no"?>
<!DOCTYPE svg PUBLIC "-//W3C//DTD SVG 1.1//EN"
 "http://www.w3.org/Graphics/SVG/1.1/DTD/svg11.dtd">
<!-- Generated by graphviz version 2.36.0 (20140111.2315)
 -->
<!-- Title: src/analysis/input/pluto/detail/PlutoWrapper.cc Pages: 1 -->
<svg width="205pt" height="152pt"
 viewBox="0.00 0.00 205.00 152.00" xmlns="http://www.w3.org/2000/svg" xmlns:xlink="http://www.w3.org/1999/xlink">
<g id="graph0" class="graph" transform="scale(1 1) rotate(0) translate(4 148)">
<title>src/analysis/input/pluto/detail/PlutoWrapper.cc</title>
<polygon fill="white" stroke="none" points="-4,4 -4,-148 201,-148 201,4 -4,4"/>
<!-- Node0 -->
<g id="node1" class="node"><title>Node0</title>
<polygon fill="#bfbfbf" stroke="black" points="37.5,-113 37.5,-143 180.5,-143 180.5,-113 37.5,-113"/>
<text text-anchor="start" x="45.5" y="-131" font-family="Helvetica,sans-Serif" font-size="10.00">src/analysis/input</text>
<text text-anchor="middle" x="109" y="-120" font-family="Helvetica,sans-Serif" font-size="10.00">/pluto/detail/PlutoWrapper.cc</text>
</g>
<!-- Node1 -->
<g id="node2" class="node"><title>Node1</title>
<g id="a_node2"><a xlink:href="_pluto_wrapper_8h.html" target="_top" xlink:title="PlutoWrapper.h">
<polygon fill="white" stroke="black" points="67,-56.5 67,-75.5 151,-75.5 151,-56.5 67,-56.5"/>
<text text-anchor="middle" x="109" y="-63.5" font-family="Helvetica,sans-Serif" font-size="10.00">PlutoWrapper.h</text>
</a>
</g>
</g>
<!-- Node0&#45;&gt;Node1 -->
<g id="edge1" class="edge"><title>Node0&#45;&gt;Node1</title>
<path fill="none" stroke="midnightblue" d="M109,-112.781C109,-104.781 109,-94.6887 109,-86.0168"/>
<polygon fill="midnightblue" stroke="midnightblue" points="112.5,-85.7305 109,-75.7305 105.5,-85.7306 112.5,-85.7305"/>
</g>
<!-- Node2 -->
<g id="node3" class="node"><title>Node2</title>
<polygon fill="white" stroke="#bfbfbf" points="-0.5,-0.5 -0.5,-19.5 64.5,-19.5 64.5,-0.5 -0.5,-0.5"/>
<text text-anchor="middle" x="32" y="-7.5" font-family="Helvetica,sans-Serif" font-size="10.00">PParticle.h</text>
</g>
<!-- Node1&#45;&gt;Node2 -->
<g id="edge2" class="edge"><title>Node1&#45;&gt;Node2</title>
<path fill="none" stroke="midnightblue" d="M96.6286,-56.324C84.8415,-48.0577 66.8677,-35.4527 52.8645,-25.6322"/>
<polygon fill="midnightblue" stroke="midnightblue" points="54.5376,-22.5307 44.3407,-19.6545 50.5184,-28.2619 54.5376,-22.5307"/>
</g>
<!-- Node3 -->
<g id="node4" class="node"><title>Node3</title>
<polygon fill="white" stroke="#bfbfbf" points="83,-0.5 83,-19.5 135,-19.5 135,-0.5 83,-0.5"/>
<text text-anchor="middle" x="109" y="-7.5" font-family="Helvetica,sans-Serif" font-size="10.00">ostream</text>
</g>
<!-- Node1&#45;&gt;Node3 -->
<g id="edge3" class="edge"><title>Node1&#45;&gt;Node3</title>
<path fill="none" stroke="midnightblue" d="M109,-56.083C109,-49.0059 109,-38.8611 109,-29.9865"/>
<polygon fill="midnightblue" stroke="midnightblue" points="112.5,-29.751 109,-19.7511 105.5,-29.7511 112.5,-29.751"/>
</g>
<!-- Node4 -->
<g id="node5" class="node"><title>Node4</title>
<polygon fill="white" stroke="#bfbfbf" points="153,-0.5 153,-19.5 197,-19.5 197,-0.5 153,-0.5"/>
<text text-anchor="middle" x="175" y="-7.5" font-family="Helvetica,sans-Serif" font-size="10.00">vector</text>
</g>
<!-- Node1&#45;&gt;Node4 -->
<g id="edge4" class="edge"><title>Node1&#45;&gt;Node4</title>
<path fill="none" stroke="midnightblue" d="M119.604,-56.324C129.456,-48.2631 144.351,-36.0765 156.215,-26.3695"/>
<polygon fill="midnightblue" stroke="midnightblue" points="158.68,-28.8752 164.203,-19.8339 154.247,-23.4575 158.68,-28.8752"/>
</g>
</g>
</svg>
