<?xml version="1.0" encoding="UTF-8" standalone="no"?>
<!DOCTYPE svg PUBLIC "-//W3C//DTD SVG 1.1//EN"
 "http://www.w3.org/Graphics/SVG/1.1/DTD/svg11.dtd">
<!-- Generated by graphviz version 2.36.0 (20140111.2315)
 -->
<!-- Title: src/analysis/physics/common/ProcessTaggEff.h Pages: 1 -->
<svg width="456pt" height="164pt"
 viewBox="0.00 0.00 456.00 164.00" xmlns="http://www.w3.org/2000/svg" xmlns:xlink="http://www.w3.org/1999/xlink">
<g id="graph0" class="graph" transform="scale(1 1) rotate(0) translate(4 160)">
<title>src/analysis/physics/common/ProcessTaggEff.h</title>
<polygon fill="white" stroke="none" points="-4,4 -4,-160 452,-160 452,4 -4,4"/>
<!-- Node72 -->
<g id="node1" class="node"><title>Node72</title>
<polygon fill="#bfbfbf" stroke="black" points="143.5,-125 143.5,-155 282.5,-155 282.5,-125 143.5,-125"/>
<text text-anchor="start" x="151.5" y="-143" font-family="Helvetica,sans-Serif" font-size="10.00">src/analysis/physics</text>
<text text-anchor="middle" x="213" y="-132" font-family="Helvetica,sans-Serif" font-size="10.00">/common/ProcessTaggEff.h</text>
</g>
<!-- Node73 -->
<g id="node2" class="node"><title>Node73</title>
<g id="a_node2"><a xlink:href="tagg_eff_classes_8h.html" target="_top" xlink:title="progs/detail/taggEffClasses.h">
<polygon fill="white" stroke="black" points="140,-62.5 140,-81.5 286,-81.5 286,-62.5 140,-62.5"/>
<text text-anchor="middle" x="213" y="-69.5" font-family="Helvetica,sans-Serif" font-size="10.00">progs/detail/taggEffClasses.h</text>
</a>
</g>
</g>
<!-- Node72&#45;&gt;Node73 -->
<g id="edge1" class="edge"><title>Node72&#45;&gt;Node73</title>
<path fill="none" stroke="midnightblue" d="M213,-114.376C213,-102.971 213,-90.1364 213,-81.8283"/>
<polygon fill="midnightblue" stroke="midnightblue" points="209.5,-114.679 213,-124.679 216.5,-114.679 209.5,-114.679"/>
</g>
<!-- Node74 -->
<g id="node3" class="node"><title>Node74</title>
<g id="a_node3"><a xlink:href="_ant-make_tagg_eff_8cc.html" target="_top" xlink:title="progs/Ant&#45;makeTaggEff.cc">
<polygon fill="white" stroke="black" points="0,-0.5 0,-19.5 134,-19.5 134,-0.5 0,-0.5"/>
<text text-anchor="middle" x="67" y="-7.5" font-family="Helvetica,sans-Serif" font-size="10.00">progs/Ant&#45;makeTaggEff.cc</text>
</a>
</g>
</g>
<!-- Node72&#45;&gt;Node74 -->
<g id="edge5" class="edge"><title>Node72&#45;&gt;Node74</title>
<path fill="none" stroke="midnightblue" d="M176.693,-119.815C161.784,-111.098 144.815,-100.041 131,-88 106.364,-66.5285 83.3965,-35.0667 72.9332,-19.8675"/>
<polygon fill="midnightblue" stroke="midnightblue" points="175.243,-123.017 185.664,-124.929 178.709,-116.936 175.243,-123.017"/>
</g>
<!-- Node77 -->
<g id="node6" class="node"><title>Node77</title>
<g id="a_node6"><a xlink:href="_process_tagg_eff_8cc.html" target="_top" xlink:title="src/analysis/physics\l/common/ProcessTaggEff.cc">
<polygon fill="white" stroke="black" points="304,-57 304,-87 448,-87 448,-57 304,-57"/>
<text text-anchor="start" x="312" y="-75" font-family="Helvetica,sans-Serif" font-size="10.00">src/analysis/physics</text>
<text text-anchor="middle" x="376" y="-64" font-family="Helvetica,sans-Serif" font-size="10.00">/common/ProcessTaggEff.cc</text>
</a>
</g>
</g>
<!-- Node72&#45;&gt;Node77 -->
<g id="edge6" class="edge"><title>Node72&#45;&gt;Node77</title>
<path fill="none" stroke="midnightblue" d="M257.378,-121.031C283.812,-110.328 316.871,-96.9417 341.37,-87.0218"/>
<polygon fill="midnightblue" stroke="midnightblue" points="255.923,-117.844 247.968,-124.841 258.55,-124.332 255.923,-117.844"/>
</g>
<!-- Node73&#45;&gt;Node74 -->
<g id="edge2" class="edge"><title>Node73&#45;&gt;Node74</title>
<path fill="none" stroke="midnightblue" d="M182.65,-58.5273C154.285,-46.8706 112.689,-29.7764 87.8794,-19.5806"/>
<polygon fill="midnightblue" stroke="midnightblue" points="181.502,-61.8396 192.082,-62.4035 184.163,-55.365 181.502,-61.8396"/>
</g>
<!-- Node75 -->
<g id="node4" class="node"><title>Node75</title>
<g id="a_node4"><a xlink:href="tagg_eff_classes_8cc.html" target="_top" xlink:title="progs/detail/taggEffClasses.cc">
<polygon fill="white" stroke="black" points="152.5,-0.5 152.5,-19.5 303.5,-19.5 303.5,-0.5 152.5,-0.5"/>
<text text-anchor="middle" x="228" y="-7.5" font-family="Helvetica,sans-Serif" font-size="10.00">progs/detail/taggEffClasses.cc</text>
</a>
</g>
</g>
<!-- Node73&#45;&gt;Node75 -->
<g id="edge3" class="edge"><title>Node73&#45;&gt;Node75</title>
<path fill="none" stroke="midnightblue" d="M217.624,-52.5033C220.368,-41.5268 223.718,-28.1291 225.855,-19.5806"/>
<polygon fill="midnightblue" stroke="midnightblue" points="214.179,-51.8531 215.149,-62.4035 220.97,-53.5509 214.179,-51.8531"/>
</g>
<!-- Node76 -->
<g id="node5" class="node"><title>Node76</title>
<g id="a_node5"><a xlink:href="tagg_eff_plot_8cc.html" target="_top" xlink:title="progs/taggEffPlot.cc">
<polygon fill="white" stroke="black" points="322,-0.5 322,-19.5 428,-19.5 428,-0.5 322,-0.5"/>
<text text-anchor="middle" x="375" y="-7.5" font-family="Helvetica,sans-Serif" font-size="10.00">progs/taggEffPlot.cc</text>
</a>
</g>
</g>
<!-- Node73&#45;&gt;Node76 -->
<g id="edge4" class="edge"><title>Node73&#45;&gt;Node76</title>
<path fill="none" stroke="midnightblue" d="M245.855,-58.8315C277.342,-47.1697 324.063,-29.8655 351.832,-19.5806"/>
<polygon fill="midnightblue" stroke="midnightblue" points="244.373,-55.6481 236.211,-62.4035 246.804,-62.2124 244.373,-55.6481"/>
</g>
</g>
</svg>
