<?xml version="1.0" encoding="UTF-8" standalone="no"?>
<!DOCTYPE svg PUBLIC "-//W3C//DTD SVG 1.1//EN"
 "http://www.w3.org/Graphics/SVG/1.1/DTD/svg11.dtd">
<!-- Generated by graphviz version 2.36.0 (20140111.2315)
 -->
<!-- Title: src/base/ProgressCounter.h Pages: 1 -->
<svg width="2099pt" height="164pt"
 viewBox="0.00 0.00 2099.00 164.00" xmlns="http://www.w3.org/2000/svg" xmlns:xlink="http://www.w3.org/1999/xlink">
<g id="graph0" class="graph" transform="scale(1 1) rotate(0) translate(4 160)">
<title>src/base/ProgressCounter.h</title>
<polygon fill="white" stroke="none" points="-4,4 -4,-160 2095,-160 2095,4 -4,4"/>
<!-- Node7 -->
<g id="node1" class="node"><title>Node7</title>
<polygon fill="#bfbfbf" stroke="black" points="637.5,-136.5 637.5,-155.5 776.5,-155.5 776.5,-136.5 637.5,-136.5"/>
<text text-anchor="middle" x="707" y="-143.5" font-family="Helvetica,sans-Serif" font-size="10.00">src/base/ProgressCounter.h</text>
</g>
<!-- Node8 -->
<g id="node2" class="node"><title>Node8</title>
<g id="a_node2"><a xlink:href="_ant-hadd_8cc.html" target="_top" xlink:title="progs/Ant&#45;hadd.cc">
<polygon fill="white" stroke="black" points="0,-74.5 0,-93.5 96,-93.5 96,-74.5 0,-74.5"/>
<text text-anchor="middle" x="48" y="-81.5" font-family="Helvetica,sans-Serif" font-size="10.00">progs/Ant&#45;hadd.cc</text>
</a>
</g>
</g>
<!-- Node7&#45;&gt;Node8 -->
<g id="edge1" class="edge"><title>Node7&#45;&gt;Node8</title>
<path fill="none" stroke="midnightblue" d="M627.247,-143.664C511.457,-140.681 290.373,-131.052 105,-100 95.5134,-98.4109 85.3084,-95.9664 76.1916,-93.5089"/>
<polygon fill="midnightblue" stroke="midnightblue" points="627.355,-147.168 637.439,-143.917 627.529,-140.17 627.355,-147.168"/>
</g>
<!-- Node9 -->
<g id="node3" class="node"><title>Node9</title>
<g id="a_node3"><a xlink:href="_ant-make_sigmas_8cc.html" target="_top" xlink:title="progs/Ant&#45;makeSigmas.cc">
<polygon fill="white" stroke="black" points="114,-74.5 114,-93.5 246,-93.5 246,-74.5 114,-74.5"/>
<text text-anchor="middle" x="180" y="-81.5" font-family="Helvetica,sans-Serif" font-size="10.00">progs/Ant&#45;makeSigmas.cc</text>
</a>
</g>
</g>
<!-- Node7&#45;&gt;Node9 -->
<g id="edge2" class="edge"><title>Node7&#45;&gt;Node9</title>
<path fill="none" stroke="midnightblue" d="M627.038,-139.339C536.663,-132.403 385.286,-119.164 256,-100 244.027,-98.2252 231.079,-95.8444 219.322,-93.503"/>
<polygon fill="midnightblue" stroke="midnightblue" points="626.974,-142.844 637.211,-140.113 627.505,-135.864 626.974,-142.844"/>
</g>
<!-- Node10 -->
<g id="node4" class="node"><title>Node10</title>
<g id="a_node4"><a xlink:href="_ant-mc-omegagun_8cc.html" target="_top" xlink:title="progs/Ant&#45;mc&#45;omegagun.cc">
<polygon fill="white" stroke="black" points="264.5,-74.5 264.5,-93.5 401.5,-93.5 401.5,-74.5 264.5,-74.5"/>
<text text-anchor="middle" x="333" y="-81.5" font-family="Helvetica,sans-Serif" font-size="10.00">progs/Ant&#45;mc&#45;omegagun.cc</text>
</a>
</g>
</g>
<!-- Node7&#45;&gt;Node10 -->
<g id="edge3" class="edge"><title>Node7&#45;&gt;Node10</title>
<path fill="none" stroke="midnightblue" d="M636.101,-135.016C576.058,-126.371 487.753,-113.209 411,-100 399.584,-98.0354 387.262,-95.7451 375.858,-93.5543"/>
<polygon fill="midnightblue" stroke="midnightblue" points="635.834,-138.514 646.23,-136.47 636.829,-131.585 635.834,-138.514"/>
</g>
<!-- Node11 -->
<g id="node5" class="node"><title>Node11</title>
<g id="a_node5"><a xlink:href="_ant-mc-pi0gun_8cc.html" target="_top" xlink:title="progs/Ant&#45;mc&#45;pi0gun.cc">
<polygon fill="white" stroke="black" points="420,-74.5 420,-93.5 540,-93.5 540,-74.5 420,-74.5"/>
<text text-anchor="middle" x="480" y="-81.5" font-family="Helvetica,sans-Serif" font-size="10.00">progs/Ant&#45;mc&#45;pi0gun.cc</text>
</a>
</g>
</g>
<!-- Node7&#45;&gt;Node11 -->
<g id="edge4" class="edge"><title>Node7&#45;&gt;Node11</title>
<path fill="none" stroke="midnightblue" d="M664.635,-133.802C620.548,-122.149 552.469,-104.155 512.463,-93.5806"/>
<polygon fill="midnightblue" stroke="midnightblue" points="663.914,-137.232 674.476,-136.403 665.703,-130.464 663.914,-137.232"/>
</g>
<!-- Node12 -->
<g id="node6" class="node"><title>Node12</title>
<g id="a_node6"><a xlink:href="_ant-plot_8cc.html" target="_top" xlink:title="progs/Ant&#45;plot.cc">
<polygon fill="white" stroke="black" points="558.5,-74.5 558.5,-93.5 649.5,-93.5 649.5,-74.5 558.5,-74.5"/>
<text text-anchor="middle" x="604" y="-81.5" font-family="Helvetica,sans-Serif" font-size="10.00">progs/Ant&#45;plot.cc</text>
</a>
</g>
</g>
<!-- Node7&#45;&gt;Node12 -->
<g id="edge5" class="edge"><title>Node7&#45;&gt;Node12</title>
<path fill="none" stroke="midnightblue" d="M683.458,-131.286C663.542,-119.685 635.621,-103.42 618.73,-93.5806"/>
<polygon fill="midnightblue" stroke="midnightblue" points="681.84,-134.394 692.243,-136.403 685.364,-128.346 681.84,-134.394"/>
</g>
<!-- Node13 -->
<g id="node7" class="node"><title>Node13</title>
<g id="a_node7"><a xlink:href="_p_c_a_8cc.html" target="_top" xlink:title="Tool to perform a Principal Component Analysis, based on ROOTs TPrincipal class, to create principal ...">
<polygon fill="white" stroke="black" points="668,-74.5 668,-93.5 746,-93.5 746,-74.5 668,-74.5"/>
<text text-anchor="middle" x="707" y="-81.5" font-family="Helvetica,sans-Serif" font-size="10.00">progs/PCA.cc</text>
</a>
</g>
</g>
<!-- Node7&#45;&gt;Node13 -->
<g id="edge6" class="edge"><title>Node7&#45;&gt;Node13</title>
<path fill="none" stroke="midnightblue" d="M707,-126.16C707,-115.248 707,-102.04 707,-93.5806"/>
<polygon fill="midnightblue" stroke="midnightblue" points="703.5,-126.403 707,-136.403 710.5,-126.403 703.5,-126.403"/>
</g>
<!-- Node14 -->
<g id="node8" class="node"><title>Node14</title>
<g id="a_node8"><a xlink:href="_physics_manager_8cc.html" target="_top" xlink:title="src/analysis/physics\l/PhysicsManager.cc">
<polygon fill="white" stroke="black" points="764,-69 764,-99 870,-99 870,-69 764,-69"/>
<text text-anchor="start" x="772" y="-87" font-family="Helvetica,sans-Serif" font-size="10.00">src/analysis/physics</text>
<text text-anchor="middle" x="817" y="-76" font-family="Helvetica,sans-Serif" font-size="10.00">/PhysicsManager.cc</text>
</a>
</g>
</g>
<!-- Node7&#45;&gt;Node14 -->
<g id="edge7" class="edge"><title>Node7&#45;&gt;Node14</title>
<path fill="none" stroke="midnightblue" d="M731.88,-131.429C749.538,-121.797 773.186,-108.898 791.075,-99.1408"/>
<polygon fill="midnightblue" stroke="midnightblue" points="729.863,-128.542 722.76,-136.403 733.215,-134.688 729.863,-128.542"/>
</g>
<!-- Node15 -->
<g id="node9" class="node"><title>Node15</title>
<g id="a_node9"><a xlink:href="_progress_counter_8cc.html" target="_top" xlink:title="src/base/ProgressCounter.cc">
<polygon fill="white" stroke="black" points="888,-74.5 888,-93.5 1032,-93.5 1032,-74.5 888,-74.5"/>
<text text-anchor="middle" x="960" y="-81.5" font-family="Helvetica,sans-Serif" font-size="10.00">src/base/ProgressCounter.cc</text>
</a>
</g>
</g>
<!-- Node7&#45;&gt;Node15 -->
<g id="edge8" class="edge"><title>Node7&#45;&gt;Node15</title>
<path fill="none" stroke="midnightblue" d="M752.73,-134.155C801.93,-122.487 879.15,-104.174 924.144,-93.5034"/>
<polygon fill="midnightblue" stroke="midnightblue" points="751.903,-130.754 742.98,-136.467 753.518,-137.565 751.903,-130.754"/>
</g>
<!-- Node16 -->
<g id="node10" class="node"><title>Node16</title>
<g id="a_node10"><a xlink:href="hadd_8cc.html" target="_top" xlink:title="src/root&#45;addons/analysis\l_codes/hadd.cc">
<polygon fill="white" stroke="black" points="1050.5,-69 1050.5,-99 1173.5,-99 1173.5,-69 1050.5,-69"/>
<text text-anchor="start" x="1058.5" y="-87" font-family="Helvetica,sans-Serif" font-size="10.00">src/root&#45;addons/analysis</text>
<text text-anchor="middle" x="1112" y="-76" font-family="Helvetica,sans-Serif" font-size="10.00">_codes/hadd.cc</text>
</a>
</g>
</g>
<!-- Node7&#45;&gt;Node16 -->
<g id="edge9" class="edge"><title>Node7&#45;&gt;Node16</title>
<path fill="none" stroke="midnightblue" d="M786.823,-135.936C854.648,-127.83 954.489,-114.945 1041,-100 1044.1,-99.4638 1047.28,-98.8893 1050.48,-98.2891"/>
<polygon fill="midnightblue" stroke="midnightblue" points="786.154,-132.491 776.636,-137.146 786.98,-139.442 786.154,-132.491"/>
</g>
<!-- Node17 -->
<g id="node11" class="node"><title>Node17</title>
<g id="a_node11"><a xlink:href="pi0__true__calib_8cc.html" target="_top" xlink:title="src/root&#45;addons/analysis\l_codes/pi0_true_calib.cc">
<polygon fill="white" stroke="black" points="1191.5,-69 1191.5,-99 1316.5,-99 1316.5,-69 1191.5,-69"/>
<text text-anchor="start" x="1199.5" y="-87" font-family="Helvetica,sans-Serif" font-size="10.00">src/root&#45;addons/analysis</text>
<text text-anchor="middle" x="1254" y="-76" font-family="Helvetica,sans-Serif" font-size="10.00">_codes/pi0_true_calib.cc</text>
</a>
</g>
</g>
<!-- Node7&#45;&gt;Node17 -->
<g id="edge10" class="edge"><title>Node7&#45;&gt;Node17</title>
<path fill="none" stroke="midnightblue" d="M786.587,-140.168C881.203,-133.8 1043.7,-120.891 1182,-100 1185.03,-99.5423 1188.12,-99.0386 1191.25,-98.5015"/>
<polygon fill="midnightblue" stroke="midnightblue" points="786.265,-136.682 776.52,-140.839 786.73,-143.667 786.265,-136.682"/>
</g>
<!-- Node18 -->
<g id="node12" class="node"><title>Node18</title>
<g id="a_node12"><a xlink:href="_raw_file_reader_8h.html" target="_top" xlink:title="src/unpacker/RawFileReader.h">
<polygon fill="white" stroke="black" points="1335,-74.5 1335,-93.5 1487,-93.5 1487,-74.5 1335,-74.5"/>
<text text-anchor="middle" x="1411" y="-81.5" font-family="Helvetica,sans-Serif" font-size="10.00">src/unpacker/RawFileReader.h</text>
</a>
</g>
</g>
<!-- Node7&#45;&gt;Node18 -->
<g id="edge11" class="edge"><title>Node7&#45;&gt;Node18</title>
<path fill="none" stroke="midnightblue" d="M786.764,-141.744C904.74,-136.352 1132.56,-123.729 1325,-100 1338.69,-98.3122 1353.51,-95.9289 1366.93,-93.5579"/>
<polygon fill="midnightblue" stroke="midnightblue" points="786.564,-138.25 776.732,-142.197 786.879,-145.243 786.564,-138.25"/>
</g>
<!-- Node19 -->
<g id="node13" class="node"><title>Node19</title>
<g id="a_node13"><a xlink:href="_ant-fake_raw_8cc.html" target="_top" xlink:title="progs/Ant&#45;fakeRaw.cc">
<polygon fill="white" stroke="black" points="909,-6.5 909,-25.5 1023,-25.5 1023,-6.5 909,-6.5"/>
<text text-anchor="middle" x="966" y="-13.5" font-family="Helvetica,sans-Serif" font-size="10.00">progs/Ant&#45;fakeRaw.cc</text>
</a>
</g>
</g>
<!-- Node18&#45;&gt;Node19 -->
<g id="edge12" class="edge"><title>Node18&#45;&gt;Node19</title>
<path fill="none" stroke="midnightblue" d="M1354.55,-72.7387C1344.71,-71.0695 1334.57,-69.4234 1325,-68 1195.66,-48.7601 1161.84,-54.3103 1033,-32 1022.55,-30.1899 1011.26,-27.8255 1000.99,-25.5108"/>
<polygon fill="midnightblue" stroke="midnightblue" points="1354.2,-76.2305 1364.65,-74.4782 1355.39,-69.332 1354.2,-76.2305"/>
</g>
<!-- Node20 -->
<g id="node14" class="node"><title>Node20</title>
<g id="a_node14"><a xlink:href="_ant-rawdump_8cc.html" target="_top" xlink:title="progs/Ant&#45;rawdump.cc">
<polygon fill="white" stroke="black" points="1041.5,-6.5 1041.5,-25.5 1156.5,-25.5 1156.5,-6.5 1041.5,-6.5"/>
<text text-anchor="middle" x="1099" y="-13.5" font-family="Helvetica,sans-Serif" font-size="10.00">progs/Ant&#45;rawdump.cc</text>
</a>
</g>
</g>
<!-- Node18&#45;&gt;Node20 -->
<g id="edge13" class="edge"><title>Node18&#45;&gt;Node20</title>
<path fill="none" stroke="midnightblue" d="M1359.05,-72.4218C1309.43,-62.2609 1232.55,-46.3749 1166,-32 1156.45,-29.9363 1146.14,-27.6556 1136.54,-25.5087"/>
<polygon fill="midnightblue" stroke="midnightblue" points="1358.41,-75.8628 1368.91,-74.4379 1359.81,-69.0048 1358.41,-75.8628"/>
</g>
<!-- Node21 -->
<g id="node15" class="node"><title>Node21</title>
<g id="a_node15"><a xlink:href="_ant_8cc.html" target="_top" xlink:title="Main Ant executable. ">
<polygon fill="white" stroke="black" points="1175,-6.5 1175,-25.5 1247,-25.5 1247,-6.5 1175,-6.5"/>
<text text-anchor="middle" x="1211" y="-13.5" font-family="Helvetica,sans-Serif" font-size="10.00">progs/Ant.cc</text>
</a>
</g>
</g>
<!-- Node18&#45;&gt;Node21 -->
<g id="edge14" class="edge"><title>Node18&#45;&gt;Node21</title>
<path fill="none" stroke="midnightblue" d="M1375.31,-71.2997C1343.88,-60.9879 1296.89,-45.5416 1256,-32 1249.75,-29.9288 1243.01,-27.6872 1236.69,-25.5841"/>
<polygon fill="midnightblue" stroke="midnightblue" points="1374.34,-74.6667 1384.94,-74.4583 1376.53,-68.0154 1374.34,-74.6667"/>
</g>
<!-- Node22 -->
<g id="node16" class="node"><title>Node22</title>
<g id="a_node16"><a xlink:href="_unpacker_acqu__detail_8cc.html" target="_top" xlink:title="src/unpacker/detail\l/UnpackerAcqu_detail.cc">
<polygon fill="white" stroke="black" points="1265,-1 1265,-31 1391,-31 1391,-1 1265,-1"/>
<text text-anchor="start" x="1273" y="-19" font-family="Helvetica,sans-Serif" font-size="10.00">src/unpacker/detail</text>
<text text-anchor="middle" x="1328" y="-8" font-family="Helvetica,sans-Serif" font-size="10.00">/UnpackerAcqu_detail.cc</text>
</a>
</g>
</g>
<!-- Node18&#45;&gt;Node22 -->
<g id="edge15" class="edge"><title>Node18&#45;&gt;Node22</title>
<path fill="none" stroke="midnightblue" d="M1392.22,-68.0662C1378.32,-57.0132 1359.5,-42.0515 1345.83,-31.1815"/>
<polygon fill="midnightblue" stroke="midnightblue" points="1390.14,-70.8872 1400.15,-74.3717 1394.5,-65.4082 1390.14,-70.8872"/>
</g>
<!-- Node23 -->
<g id="node17" class="node"><title>Node23</title>
<g id="a_node17"><a xlink:href="_unpacker_acqu___file_format_mk1_8cc.html" target="_top" xlink:title="src/unpacker/detail\l/UnpackerAcqu_FileFormatMk1.cc">
<polygon fill="white" stroke="black" points="1409,-1 1409,-31 1577,-31 1577,-1 1409,-1"/>
<text text-anchor="start" x="1417" y="-19" font-family="Helvetica,sans-Serif" font-size="10.00">src/unpacker/detail</text>
<text text-anchor="middle" x="1493" y="-8" font-family="Helvetica,sans-Serif" font-size="10.00">/UnpackerAcqu_FileFormatMk1.cc</text>
</a>
</g>
</g>
<!-- Node18&#45;&gt;Node23 -->
<g id="edge16" class="edge"><title>Node18&#45;&gt;Node23</title>
<path fill="none" stroke="midnightblue" d="M1429.55,-68.0662C1443.29,-57.0132 1461.88,-42.0515 1475.38,-31.1815"/>
<polygon fill="midnightblue" stroke="midnightblue" points="1427.32,-65.375 1421.72,-74.3717 1431.7,-70.8281 1427.32,-65.375"/>
</g>
<!-- Node24 -->
<g id="node18" class="node"><title>Node24</title>
<g id="a_node18"><a xlink:href="_unpacker_acqu___file_format_mk2_8cc.html" target="_top" xlink:title="src/unpacker/detail\l/UnpackerAcqu_FileFormatMk2.cc">
<polygon fill="white" stroke="black" points="1595,-1 1595,-31 1763,-31 1763,-1 1595,-1"/>
<text text-anchor="start" x="1603" y="-19" font-family="Helvetica,sans-Serif" font-size="10.00">src/unpacker/detail</text>
<text text-anchor="middle" x="1679" y="-8" font-family="Helvetica,sans-Serif" font-size="10.00">/UnpackerAcqu_FileFormatMk2.cc</text>
</a>
</g>
</g>
<!-- Node18&#45;&gt;Node24 -->
<g id="edge17" class="edge"><title>Node18&#45;&gt;Node24</title>
<path fill="none" stroke="midnightblue" d="M1455.66,-72.0007C1501.32,-60.7577 1572.38,-43.2569 1622.05,-31.0247"/>
<polygon fill="midnightblue" stroke="midnightblue" points="1454.63,-68.6495 1445.76,-74.4393 1456.31,-75.4465 1454.63,-68.6495"/>
</g>
<!-- Node25 -->
<g id="node19" class="node"><title>Node25</title>
<g id="a_node19"><a xlink:href="_raw_file_reader_8cc.html" target="_top" xlink:title="src/unpacker/RawFileReader.cc">
<polygon fill="white" stroke="black" points="1781.5,-6.5 1781.5,-25.5 1938.5,-25.5 1938.5,-6.5 1781.5,-6.5"/>
<text text-anchor="middle" x="1860" y="-13.5" font-family="Helvetica,sans-Serif" font-size="10.00">src/unpacker/RawFileReader.cc</text>
</a>
</g>
</g>
<!-- Node18&#45;&gt;Node25 -->
<g id="edge18" class="edge"><title>Node18&#45;&gt;Node25</title>
<path fill="none" stroke="midnightblue" d="M1484.8,-73.1218C1557.63,-63.2376 1672.1,-47.3365 1771,-32 1783.85,-30.007 1797.73,-27.7295 1810.61,-25.5616"/>
<polygon fill="midnightblue" stroke="midnightblue" points="1484.24,-69.6649 1474.8,-74.4759 1485.18,-76.6015 1484.24,-69.6649"/>
</g>
<!-- Node26 -->
<g id="node20" class="node"><title>Node26</title>
<g id="a_node20"><a xlink:href="_test_raw_file_reader_8cc.html" target="_top" xlink:title="test/unpacker/TestRawFile\lReader.cc">
<polygon fill="white" stroke="black" points="1957,-1 1957,-31 2091,-31 2091,-1 1957,-1"/>
<text text-anchor="start" x="1965" y="-19" font-family="Helvetica,sans-Serif" font-size="10.00">test/unpacker/TestRawFile</text>
<text text-anchor="middle" x="2024" y="-8" font-family="Helvetica,sans-Serif" font-size="10.00">Reader.cc</text>
</a>
</g>
</g>
<!-- Node18&#45;&gt;Node26 -->
<g id="edge19" class="edge"><title>Node18&#45;&gt;Node26</title>
<path fill="none" stroke="midnightblue" d="M1497.19,-77.3993C1603.35,-69.9032 1789.04,-54.8449 1947,-32 1950.23,-31.5321 1953.54,-31.0202 1956.87,-30.4765"/>
<polygon fill="midnightblue" stroke="midnightblue" points="1496.9,-73.911 1487.17,-78.1012 1497.39,-80.8939 1496.9,-73.911"/>
</g>
</g>
</svg>
