<?xml version="1.0" encoding="UTF-8" standalone="no"?>
<!DOCTYPE svg PUBLIC "-//W3C//DTD SVG 1.1//EN"
 "http://www.w3.org/Graphics/SVG/1.1/DTD/svg11.dtd">
<!-- Generated by graphviz version 2.36.0 (20140111.2315)
 -->
<!-- Title: src/analysis/utils/PullsWriter.h Pages: 1 -->
<svg width="681pt" height="196pt"
 viewBox="0.00 0.00 681.00 196.00" xmlns="http://www.w3.org/2000/svg" xmlns:xlink="http://www.w3.org/1999/xlink">
<g id="graph0" class="graph" transform="scale(1 1) rotate(0) translate(4 192)">
<title>src/analysis/utils/PullsWriter.h</title>
<polygon fill="white" stroke="none" points="-4,4 -4,-192 677,-192 677,4 -4,4"/>
<!-- Node48 -->
<g id="node1" class="node"><title>Node48</title>
<polygon fill="#bfbfbf" stroke="black" points="242,-157 242,-187 332,-187 332,-157 242,-157"/>
<text text-anchor="start" x="250" y="-175" font-family="Helvetica,sans-Serif" font-size="10.00">src/analysis/utils</text>
<text text-anchor="middle" x="287" y="-164" font-family="Helvetica,sans-Serif" font-size="10.00">/PullsWriter.h</text>
</g>
<!-- Node49 -->
<g id="node2" class="node"><title>Node49</title>
<g id="a_node2"><a xlink:href="_ant-make_sigmas_8cc.html" target="_top" xlink:title="progs/Ant&#45;makeSigmas.cc">
<polygon fill="white" stroke="black" points="0,-89.5 0,-108.5 132,-108.5 132,-89.5 0,-89.5"/>
<text text-anchor="middle" x="66" y="-96.5" font-family="Helvetica,sans-Serif" font-size="10.00">progs/Ant&#45;makeSigmas.cc</text>
</a>
</g>
</g>
<!-- Node48&#45;&gt;Node49 -->
<g id="edge1" class="edge"><title>Node48&#45;&gt;Node49</title>
<path fill="none" stroke="midnightblue" d="M233.815,-153.913C189.21,-139.583 127.375,-119.718 92.5702,-108.536"/>
<polygon fill="midnightblue" stroke="midnightblue" points="232.746,-157.246 243.338,-156.973 234.887,-150.582 232.746,-157.246"/>
</g>
<!-- Node50 -->
<g id="node3" class="node"><title>Node50</title>
<g id="a_node3"><a xlink:href="_p_i_d___t_a_p_s_veto___kinfit_8h.html" target="_top" xlink:title="src/analysis/physics\l/calibration/PID_TAPSVeto\l_Kinfit.h">
<polygon fill="white" stroke="black" points="150,-78.5 150,-119.5 286,-119.5 286,-78.5 150,-78.5"/>
<text text-anchor="start" x="158" y="-107.5" font-family="Helvetica,sans-Serif" font-size="10.00">src/analysis/physics</text>
<text text-anchor="start" x="158" y="-96.5" font-family="Helvetica,sans-Serif" font-size="10.00">/calibration/PID_TAPSVeto</text>
<text text-anchor="middle" x="218" y="-85.5" font-family="Helvetica,sans-Serif" font-size="10.00">_Kinfit.h</text>
</a>
</g>
</g>
<!-- Node48&#45;&gt;Node50 -->
<g id="edge2" class="edge"><title>Node48&#45;&gt;Node50</title>
<path fill="none" stroke="midnightblue" d="M266.334,-149.735C257.054,-140.186 246.174,-128.991 237.089,-119.642"/>
<polygon fill="midnightblue" stroke="midnightblue" points="263.888,-152.241 273.368,-156.973 268.908,-147.362 263.888,-152.241"/>
</g>
<!-- Node52 -->
<g id="node5" class="node"><title>Node52</title>
<g id="a_node5"><a xlink:href="_just_pi0_8h.html" target="_top" xlink:title="src/analysis/physics\l/pi0/JustPi0.h">
<polygon fill="white" stroke="black" points="304,-84 304,-114 410,-114 410,-84 304,-84"/>
<text text-anchor="start" x="312" y="-102" font-family="Helvetica,sans-Serif" font-size="10.00">src/analysis/physics</text>
<text text-anchor="middle" x="357" y="-91" font-family="Helvetica,sans-Serif" font-size="10.00">/pi0/JustPi0.h</text>
</a>
</g>
</g>
<!-- Node48&#45;&gt;Node52 -->
<g id="edge4" class="edge"><title>Node48&#45;&gt;Node52</title>
<path fill="none" stroke="midnightblue" d="M308.144,-149.554C319.331,-138.207 332.769,-124.577 342.718,-114.486"/>
<polygon fill="midnightblue" stroke="midnightblue" points="305.358,-147.394 300.83,-156.973 310.343,-152.309 305.358,-147.394"/>
</g>
<!-- Node55 -->
<g id="node8" class="node"><title>Node55</title>
<g id="a_node8"><a xlink:href="analysis_2physics_2tunings_2_interpolated_pulls_8h.html" target="_top" xlink:title="src/analysis/physics\l/tunings/InterpolatedPulls.h">
<polygon fill="white" stroke="black" points="499.5,-84 499.5,-114 634.5,-114 634.5,-84 499.5,-84"/>
<text text-anchor="start" x="507.5" y="-102" font-family="Helvetica,sans-Serif" font-size="10.00">src/analysis/physics</text>
<text text-anchor="middle" x="567" y="-91" font-family="Helvetica,sans-Serif" font-size="10.00">/tunings/InterpolatedPulls.h</text>
</a>
</g>
</g>
<!-- Node48&#45;&gt;Node55 -->
<g id="edge7" class="edge"><title>Node48&#45;&gt;Node55</title>
<path fill="none" stroke="midnightblue" d="M342.102,-157.028C391.149,-144.591 462.531,-126.49 511.652,-114.035"/>
<polygon fill="midnightblue" stroke="midnightblue" points="341.131,-153.663 332.298,-159.514 342.852,-160.448 341.131,-153.663"/>
</g>
<!-- Node51 -->
<g id="node4" class="node"><title>Node51</title>
<g id="a_node4"><a xlink:href="_p_i_d___t_a_p_s_veto___kinfit_8cc.html" target="_top" xlink:title="src/analysis/physics\l/calibration/PID_TAPSVeto\l_Kinfit.cc">
<polygon fill="white" stroke="black" points="97,-0.5 97,-41.5 233,-41.5 233,-0.5 97,-0.5"/>
<text text-anchor="start" x="105" y="-29.5" font-family="Helvetica,sans-Serif" font-size="10.00">src/analysis/physics</text>
<text text-anchor="start" x="105" y="-18.5" font-family="Helvetica,sans-Serif" font-size="10.00">/calibration/PID_TAPSVeto</text>
<text text-anchor="middle" x="165" y="-7.5" font-family="Helvetica,sans-Serif" font-size="10.00">_Kinfit.cc</text>
</a>
</g>
</g>
<!-- Node50&#45;&gt;Node51 -->
<g id="edge3" class="edge"><title>Node50&#45;&gt;Node51</title>
<path fill="none" stroke="midnightblue" d="M198.507,-70.0476C191.894,-60.5657 184.655,-50.1845 178.603,-41.5056"/>
<polygon fill="midnightblue" stroke="midnightblue" points="195.76,-72.2277 204.351,-78.4281 201.502,-68.2236 195.76,-72.2277"/>
</g>
<!-- Node53 -->
<g id="node6" class="node"><title>Node53</title>
<g id="a_node6"><a xlink:href="_ant-alt_veto_cal_tool_8cc.html" target="_top" xlink:title="progs/Ant&#45;altVetoCalTool.cc">
<polygon fill="white" stroke="black" points="251,-11.5 251,-30.5 391,-30.5 391,-11.5 251,-11.5"/>
<text text-anchor="middle" x="321" y="-18.5" font-family="Helvetica,sans-Serif" font-size="10.00">progs/Ant&#45;altVetoCalTool.cc</text>
</a>
</g>
</g>
<!-- Node52&#45;&gt;Node53 -->
<g id="edge5" class="edge"><title>Node52&#45;&gt;Node53</title>
<path fill="none" stroke="midnightblue" d="M345.879,-74.5221C338.808,-59.5954 330.071,-41.1499 325.056,-30.5635"/>
<polygon fill="midnightblue" stroke="midnightblue" points="342.785,-76.1659 350.229,-83.705 349.111,-73.1693 342.785,-76.1659"/>
</g>
<!-- Node54 -->
<g id="node7" class="node"><title>Node54</title>
<g id="a_node7"><a xlink:href="_just_pi0_8cc.html" target="_top" xlink:title="src/analysis/physics\l/pi0/JustPi0.cc">
<polygon fill="white" stroke="black" points="409,-6 409,-36 515,-36 515,-6 409,-6"/>
<text text-anchor="start" x="417" y="-24" font-family="Helvetica,sans-Serif" font-size="10.00">src/analysis/physics</text>
<text text-anchor="middle" x="462" y="-13" font-family="Helvetica,sans-Serif" font-size="10.00">/pi0/JustPi0.cc</text>
</a>
</g>
</g>
<!-- Node52&#45;&gt;Node54 -->
<g id="edge6" class="edge"><title>Node52&#45;&gt;Node54</title>
<path fill="none" stroke="midnightblue" d="M385.169,-77.6108C403.233,-64.5359 426.232,-47.8895 442.339,-36.2309"/>
<polygon fill="midnightblue" stroke="midnightblue" points="382.798,-75.0063 376.75,-83.705 386.903,-80.6768 382.798,-75.0063"/>
</g>
<!-- Node56 -->
<g id="node9" class="node"><title>Node56</title>
<g id="a_node9"><a xlink:href="analysis_2physics_2tunings_2_interpolated_pulls_8cc.html" target="_top" xlink:title="src/analysis/physics\l/tunings/InterpolatedPulls.cc">
<polygon fill="white" stroke="black" points="533,-6 533,-36 673,-36 673,-6 533,-6"/>
<text text-anchor="start" x="541" y="-24" font-family="Helvetica,sans-Serif" font-size="10.00">src/analysis/physics</text>
<text text-anchor="middle" x="603" y="-13" font-family="Helvetica,sans-Serif" font-size="10.00">/tunings/InterpolatedPulls.cc</text>
</a>
</g>
</g>
<!-- Node55&#45;&gt;Node56 -->
<g id="edge8" class="edge"><title>Node55&#45;&gt;Node56</title>
<path fill="none" stroke="midnightblue" d="M578.21,-74.3345C584.126,-61.8454 591.188,-46.9356 596.259,-36.2309"/>
<polygon fill="midnightblue" stroke="midnightblue" points="574.889,-73.1693 573.771,-83.705 581.215,-76.1659 574.889,-73.1693"/>
</g>
</g>
</svg>
