<?xml version="1.0" encoding="UTF-8" standalone="no"?>
<!DOCTYPE svg PUBLIC "-//W3C//DTD SVG 1.1//EN"
 "http://www.w3.org/Graphics/SVG/1.1/DTD/svg11.dtd">
<!-- Generated by graphviz version 2.36.0 (20140111.2315)
 -->
<!-- Title: src/reconstruct/Reconstruct.h Pages: 1 -->
<svg width="1245pt" height="320pt"
 viewBox="0.00 0.00 1244.65 320.00" xmlns="http://www.w3.org/2000/svg" xmlns:xlink="http://www.w3.org/1999/xlink">
<g id="graph0" class="graph" transform="scale(1 1) rotate(0) translate(4 316)">
<title>src/reconstruct/Reconstruct.h</title>
<polygon fill="white" stroke="none" points="-4,4 -4,-316 1240.65,-316 1240.65,4 -4,4"/>
<!-- Node0 -->
<g id="node1" class="node"><title>Node0</title>
<polygon fill="#bfbfbf" stroke="black" points="917,-292.5 917,-311.5 1063,-311.5 1063,-292.5 917,-292.5"/>
<text text-anchor="middle" x="990" y="-299.5" font-family="Helvetica,sans-Serif" font-size="10.00">src/reconstruct/Reconstruct.h</text>
</g>
<!-- Node1 -->
<g id="node2" class="node"><title>Node1</title>
<polygon fill="white" stroke="#bfbfbf" points="964,-56.5 964,-75.5 1016,-75.5 1016,-56.5 964,-56.5"/>
<text text-anchor="middle" x="990" y="-63.5" font-family="Helvetica,sans-Serif" font-size="10.00">memory</text>
</g>
<!-- Node0&#45;&gt;Node1 -->
<g id="edge1" class="edge"><title>Node0&#45;&gt;Node1</title>
<path fill="none" stroke="midnightblue" d="M1018.39,-292.438C1094.15,-268.207 1290.83,-195.468 1222,-112 1197.62,-82.4381 1085.31,-72.0585 1026.36,-68.6068"/>
<polygon fill="midnightblue" stroke="midnightblue" points="1026.53,-65.1108 1016.35,-68.0574 1026.14,-72.1003 1026.53,-65.1108"/>
</g>
<!-- Node2 -->
<g id="node3" class="node"><title>Node2</title>
<polygon fill="white" stroke="#bfbfbf" points="811.5,-56.5 811.5,-75.5 840.5,-75.5 840.5,-56.5 811.5,-56.5"/>
<text text-anchor="middle" x="826" y="-63.5" font-family="Helvetica,sans-Serif" font-size="10.00">list</text>
</g>
<!-- Node0&#45;&gt;Node2 -->
<g id="edge2" class="edge"><title>Node0&#45;&gt;Node2</title>
<path fill="none" stroke="midnightblue" d="M932.406,-292.462C878.76,-281.211 801.325,-255.837 762,-200 739.443,-167.972 738.341,-146.445 757,-112 766.533,-94.4007 786.265,-82.595 802.196,-75.5081"/>
<polygon fill="midnightblue" stroke="midnightblue" points="803.572,-78.7266 811.498,-71.6958 800.918,-72.2494 803.572,-78.7266"/>
</g>
<!-- Node3 -->
<g id="node4" class="node"><title>Node3</title>
<g id="a_node4"><a xlink:href="_reconstruct__traits_8h.html" target="_top" xlink:title="Reconstruct_traits.h">
<polygon fill="white" stroke="black" points="937.5,-236.5 937.5,-255.5 1042.5,-255.5 1042.5,-236.5 937.5,-236.5"/>
<text text-anchor="middle" x="990" y="-243.5" font-family="Helvetica,sans-Serif" font-size="10.00">Reconstruct_traits.h</text>
</a>
</g>
</g>
<!-- Node0&#45;&gt;Node3 -->
<g id="edge3" class="edge"><title>Node0&#45;&gt;Node3</title>
<path fill="none" stroke="midnightblue" d="M990,-292.083C990,-285.006 990,-274.861 990,-265.986"/>
<polygon fill="midnightblue" stroke="midnightblue" points="993.5,-265.751 990,-255.751 986.5,-265.751 993.5,-265.751"/>
</g>
<!-- Node3&#45;&gt;Node1 -->
<g id="edge33" class="edge"><title>Node3&#45;&gt;Node1</title>
<path fill="none" stroke="midnightblue" d="M990,-236.415C990,-209.227 990,-124.563 990,-86.2169"/>
<polygon fill="midnightblue" stroke="midnightblue" points="993.5,-85.9184 990,-75.9185 986.5,-85.9185 993.5,-85.9184"/>
</g>
<!-- Node3&#45;&gt;Node2 -->
<g id="edge35" class="edge"><title>Node3&#45;&gt;Node2</title>
<path fill="none" stroke="midnightblue" d="M985.287,-236.411C972.691,-213.992 936.314,-152.63 894,-112 880.725,-99.2537 863.397,-87.8485 849.556,-79.7094"/>
<polygon fill="midnightblue" stroke="midnightblue" points="851.044,-76.5293 840.623,-74.62 847.579,-82.6114 851.044,-76.5293"/>
</g>
<!-- Node4 -->
<g id="node5" class="node"><title>Node4</title>
<g id="a_node5"><a xlink:href="_detector__t_8h.html" target="_top" xlink:title="base/Detector_t.h">
<polygon fill="white" stroke="black" points="346.5,-174.5 346.5,-193.5 441.5,-193.5 441.5,-174.5 346.5,-174.5"/>
<text text-anchor="middle" x="394" y="-181.5" font-family="Helvetica,sans-Serif" font-size="10.00">base/Detector_t.h</text>
</a>
</g>
</g>
<!-- Node3&#45;&gt;Node4 -->
<g id="edge4" class="edge"><title>Node3&#45;&gt;Node4</title>
<path fill="none" stroke="midnightblue" d="M937.37,-239.702C826.087,-228.499 567.651,-202.482 451.891,-190.828"/>
<polygon fill="midnightblue" stroke="midnightblue" points="452.108,-187.332 441.807,-189.813 451.406,-194.297 452.108,-187.332"/>
</g>
<!-- Node18 -->
<g id="node19" class="node"><title>Node18</title>
<g id="a_node19"><a xlink:href="mapped__vectors_8h.html" target="_top" xlink:title="base/std_ext/mapped\l_vectors.h">
<polygon fill="white" stroke="black" points="771,-169 771,-199 881,-199 881,-169 771,-169"/>
<text text-anchor="start" x="779" y="-187" font-family="Helvetica,sans-Serif" font-size="10.00">base/std_ext/mapped</text>
<text text-anchor="middle" x="826" y="-176" font-family="Helvetica,sans-Serif" font-size="10.00">_vectors.h</text>
</a>
</g>
</g>
<!-- Node3&#45;&gt;Node18 -->
<g id="edge21" class="edge"><title>Node3&#45;&gt;Node18</title>
<path fill="none" stroke="midnightblue" d="M966.503,-236.403C942.447,-227.603 904.375,-213.674 873.926,-202.534"/>
<polygon fill="midnightblue" stroke="midnightblue" points="874.93,-199.174 864.336,-199.025 872.525,-205.748 874.93,-199.174"/>
</g>
<!-- Node20 -->
<g id="node21" class="node"><title>Node20</title>
<g id="a_node21"><a xlink:href="shared__ptr__container_8h.html" target="_top" xlink:title="base/std_ext/shared\l_ptr_container.h">
<polygon fill="white" stroke="black" points="1071.5,-169 1071.5,-199 1176.5,-199 1176.5,-169 1071.5,-169"/>
<text text-anchor="start" x="1079.5" y="-187" font-family="Helvetica,sans-Serif" font-size="10.00">base/std_ext/shared</text>
<text text-anchor="middle" x="1124" y="-176" font-family="Helvetica,sans-Serif" font-size="10.00">_ptr_container.h</text>
</a>
</g>
</g>
<!-- Node3&#45;&gt;Node20 -->
<g id="edge28" class="edge"><title>Node3&#45;&gt;Node20</title>
<path fill="none" stroke="midnightblue" d="M1009.2,-236.403C1028.51,-227.755 1058.89,-214.155 1083.54,-203.115"/>
<polygon fill="midnightblue" stroke="midnightblue" points="1084.98,-206.306 1092.68,-199.025 1082.12,-199.918 1084.98,-206.306"/>
</g>
<!-- Node21 -->
<g id="node22" class="node"><title>Node21</title>
<polygon fill="white" stroke="#bfbfbf" points="1154.5,-112.5 1154.5,-131.5 1213.5,-131.5 1213.5,-112.5 1154.5,-112.5"/>
<text text-anchor="middle" x="1184" y="-119.5" font-family="Helvetica,sans-Serif" font-size="10.00">functional</text>
</g>
<!-- Node3&#45;&gt;Node21 -->
<g id="edge36" class="edge"><title>Node3&#45;&gt;Node21</title>
<path fill="none" stroke="midnightblue" d="M1042.96,-240.107C1094.5,-234.119 1167.53,-221.956 1185,-200 1197.97,-183.693 1194.78,-158.701 1190.29,-141.643"/>
<polygon fill="midnightblue" stroke="midnightblue" points="1193.55,-140.319 1187.32,-131.751 1186.85,-142.336 1193.55,-140.319"/>
</g>
<!-- Node23 -->
<g id="node24" class="node"><title>Node23</title>
<polygon fill="white" stroke="#bfbfbf" points="1018.5,-174.5 1018.5,-193.5 1053.5,-193.5 1053.5,-174.5 1018.5,-174.5"/>
<text text-anchor="middle" x="1036" y="-181.5" font-family="Helvetica,sans-Serif" font-size="10.00">map</text>
</g>
<!-- Node3&#45;&gt;Node23 -->
<g id="edge34" class="edge"><title>Node3&#45;&gt;Node23</title>
<path fill="none" stroke="midnightblue" d="M996.591,-236.403C1003.49,-227.403 1014.5,-213.041 1023.13,-201.782"/>
<polygon fill="midnightblue" stroke="midnightblue" points="1026.11,-203.646 1029.42,-193.581 1020.56,-199.387 1026.11,-203.646"/>
</g>
<!-- Node5 -->
<g id="node6" class="node"><title>Node5</title>
<g id="a_node6"><a xlink:href="bitflag_8h.html" target="_top" xlink:title="base/bitflag.h">
<polygon fill="white" stroke="black" points="-0.5,-112.5 -0.5,-131.5 74.5,-131.5 74.5,-112.5 -0.5,-112.5"/>
<text text-anchor="middle" x="37" y="-119.5" font-family="Helvetica,sans-Serif" font-size="10.00">base/bitflag.h</text>
</a>
</g>
</g>
<!-- Node4&#45;&gt;Node5 -->
<g id="edge5" class="edge"><title>Node4&#45;&gt;Node5</title>
<path fill="none" stroke="midnightblue" d="M346.224,-174.97C277.911,-163.489 153.054,-142.505 84.7535,-131.026"/>
<polygon fill="midnightblue" stroke="midnightblue" points="85.1392,-127.542 74.6974,-129.336 83.979,-134.445 85.1392,-127.542"/>
</g>
<!-- Node7 -->
<g id="node8" class="node"><title>Node7</title>
<g id="a_node8"><a xlink:href="vec3_8h.html" target="_top" xlink:title="base/vec/vec3.h">
<polygon fill="white" stroke="black" points="102.5,-112.5 102.5,-131.5 191.5,-131.5 191.5,-112.5 102.5,-112.5"/>
<text text-anchor="middle" x="147" y="-119.5" font-family="Helvetica,sans-Serif" font-size="10.00">base/vec/vec3.h</text>
</a>
</g>
</g>
<!-- Node4&#45;&gt;Node7 -->
<g id="edge7" class="edge"><title>Node4&#45;&gt;Node7</title>
<path fill="none" stroke="midnightblue" d="M358.873,-174.467C314.98,-163.805 239.811,-145.545 191.814,-133.886"/>
<polygon fill="midnightblue" stroke="midnightblue" points="192.549,-130.463 182.006,-131.503 190.897,-137.265 192.549,-130.463"/>
</g>
<!-- Node11 -->
<g id="node12" class="node"><title>Node11</title>
<g id="a_node12"><a xlink:href="base_2std__ext_2math_8h.html" target="_top" xlink:title="base/std_ext/math.h">
<polygon fill="white" stroke="black" points="209,-112.5 209,-131.5 315,-131.5 315,-112.5 209,-112.5"/>
<text text-anchor="middle" x="262" y="-119.5" font-family="Helvetica,sans-Serif" font-size="10.00">base/std_ext/math.h</text>
</a>
</g>
</g>
<!-- Node4&#45;&gt;Node11 -->
<g id="edge12" class="edge"><title>Node4&#45;&gt;Node11</title>
<path fill="none" stroke="midnightblue" d="M375.088,-174.403C352.837,-164.29 315.688,-147.404 290.074,-135.761"/>
<polygon fill="midnightblue" stroke="midnightblue" points="291.429,-132.532 280.877,-131.581 288.533,-138.905 291.429,-132.532"/>
</g>
<!-- Node13 -->
<g id="node14" class="node"><title>Node13</title>
<polygon fill="white" stroke="#bfbfbf" points="507,-56.5 507,-75.5 551,-75.5 551,-56.5 507,-56.5"/>
<text text-anchor="middle" x="529" y="-63.5" font-family="Helvetica,sans-Serif" font-size="10.00">vector</text>
</g>
<!-- Node4&#45;&gt;Node13 -->
<g id="edge20" class="edge"><title>Node4&#45;&gt;Node13</title>
<path fill="none" stroke="midnightblue" d="M384.7,-174.455C370.528,-160.397 346.705,-131.962 362,-112 378.281,-90.7512 452.892,-77.2723 496.684,-71.0477"/>
<polygon fill="midnightblue" stroke="midnightblue" points="497.406,-74.4815 506.838,-69.6556 496.455,-67.5464 497.406,-74.4815"/>
</g>
<!-- Node14 -->
<g id="node15" class="node"><title>Node14</title>
<polygon fill="white" stroke="#bfbfbf" points="371,-112.5 371,-131.5 417,-131.5 417,-112.5 371,-112.5"/>
<text text-anchor="middle" x="394" y="-119.5" font-family="Helvetica,sans-Serif" font-size="10.00">cstdint</text>
</g>
<!-- Node4&#45;&gt;Node14 -->
<g id="edge16" class="edge"><title>Node4&#45;&gt;Node14</title>
<path fill="none" stroke="midnightblue" d="M394,-174.403C394,-165.938 394,-152.728 394,-141.82"/>
<polygon fill="midnightblue" stroke="midnightblue" points="397.5,-141.581 394,-131.581 390.5,-141.581 397.5,-141.581"/>
</g>
<!-- Node15 -->
<g id="node16" class="node"><title>Node15</title>
<polygon fill="white" stroke="#bfbfbf" points="435.5,-112.5 435.5,-131.5 494.5,-131.5 494.5,-112.5 435.5,-112.5"/>
<text text-anchor="middle" x="465" y="-119.5" font-family="Helvetica,sans-Serif" font-size="10.00">stdexcept</text>
</g>
<!-- Node4&#45;&gt;Node15 -->
<g id="edge17" class="edge"><title>Node4&#45;&gt;Node15</title>
<path fill="none" stroke="midnightblue" d="M404.173,-174.403C415.35,-164.958 433.517,-149.606 447.091,-138.134"/>
<polygon fill="midnightblue" stroke="midnightblue" points="449.467,-140.709 454.846,-131.581 444.949,-135.362 449.467,-140.709"/>
</g>
<!-- Node16 -->
<g id="node17" class="node"><title>Node16</title>
<polygon fill="white" stroke="#bfbfbf" points="512.5,-112.5 512.5,-131.5 553.5,-131.5 553.5,-112.5 512.5,-112.5"/>
<text text-anchor="middle" x="533" y="-119.5" font-family="Helvetica,sans-Serif" font-size="10.00">string</text>
</g>
<!-- Node4&#45;&gt;Node16 -->
<g id="edge18" class="edge"><title>Node4&#45;&gt;Node16</title>
<path fill="none" stroke="midnightblue" d="M413.915,-174.403C437.449,-164.245 476.81,-147.255 503.793,-135.607"/>
<polygon fill="midnightblue" stroke="midnightblue" points="505.328,-138.757 513.122,-131.581 502.553,-132.33 505.328,-138.757"/>
</g>
<!-- Node17 -->
<g id="node18" class="node"><title>Node17</title>
<polygon fill="white" stroke="#bfbfbf" points="572,-112.5 572,-131.5 634,-131.5 634,-112.5 572,-112.5"/>
<text text-anchor="middle" x="603" y="-119.5" font-family="Helvetica,sans-Serif" font-size="10.00">type_traits</text>
</g>
<!-- Node4&#45;&gt;Node17 -->
<g id="edge19" class="edge"><title>Node4&#45;&gt;Node17</title>
<path fill="none" stroke="midnightblue" d="M423.945,-174.403C460.572,-163.889 522.695,-146.054 563.284,-134.402"/>
<polygon fill="midnightblue" stroke="midnightblue" points="564.465,-137.704 573.111,-131.581 562.533,-130.976 564.465,-137.704"/>
</g>
<!-- Node6 -->
<g id="node7" class="node"><title>Node6</title>
<polygon fill="white" stroke="#bfbfbf" points="7.5,-56.5 7.5,-75.5 48.5,-75.5 48.5,-56.5 7.5,-56.5"/>
<text text-anchor="middle" x="28" y="-63.5" font-family="Helvetica,sans-Serif" font-size="10.00">bitset</text>
</g>
<!-- Node5&#45;&gt;Node6 -->
<g id="edge6" class="edge"><title>Node5&#45;&gt;Node6</title>
<path fill="none" stroke="midnightblue" d="M35.5138,-112.083C34.3212,-104.927 32.6059,-94.6353 31.1152,-85.6911"/>
<polygon fill="midnightblue" stroke="midnightblue" points="34.555,-85.0396 29.4585,-75.7511 27.6502,-86.1904 34.555,-85.0396"/>
</g>
<!-- Node8 -->
<g id="node9" class="node"><title>Node8</title>
<g id="a_node9"><a xlink:href="vec2_8h.html" target="_top" xlink:title="vec2.h">
<polygon fill="white" stroke="black" points="137,-56.5 137,-75.5 183,-75.5 183,-56.5 137,-56.5"/>
<text text-anchor="middle" x="160" y="-63.5" font-family="Helvetica,sans-Serif" font-size="10.00">vec2.h</text>
</a>
</g>
</g>
<!-- Node7&#45;&gt;Node8 -->
<g id="edge8" class="edge"><title>Node7&#45;&gt;Node8</title>
<path fill="none" stroke="midnightblue" d="M149.147,-112.083C150.869,-104.927 153.347,-94.6353 155.5,-85.6911"/>
<polygon fill="midnightblue" stroke="midnightblue" points="158.955,-86.2925 157.893,-75.7511 152.15,-84.6541 158.955,-86.2925"/>
</g>
<!-- Node9 -->
<g id="node10" class="node"><title>Node9</title>
<polygon fill="white" stroke="#bfbfbf" points="189,-0.5 189,-19.5 233,-19.5 233,-0.5 189,-0.5"/>
<text text-anchor="middle" x="211" y="-7.5" font-family="Helvetica,sans-Serif" font-size="10.00">cmath</text>
</g>
<!-- Node7&#45;&gt;Node9 -->
<g id="edge11" class="edge"><title>Node7&#45;&gt;Node9</title>
<path fill="none" stroke="midnightblue" d="M158.608,-112.233C168.804,-103.949 183.327,-90.6382 192,-76 200.521,-61.618 205.438,-43.1602 208.126,-29.5908"/>
<polygon fill="midnightblue" stroke="midnightblue" points="211.609,-29.9935 209.889,-19.5391 204.714,-28.7839 211.609,-29.9935"/>
</g>
<!-- Node10 -->
<g id="node11" class="node"><title>Node10</title>
<polygon fill="white" stroke="#bfbfbf" points="67,-56.5 67,-75.5 119,-75.5 119,-56.5 67,-56.5"/>
<text text-anchor="middle" x="93" y="-63.5" font-family="Helvetica,sans-Serif" font-size="10.00">ostream</text>
</g>
<!-- Node7&#45;&gt;Node10 -->
<g id="edge10" class="edge"><title>Node7&#45;&gt;Node10</title>
<path fill="none" stroke="midnightblue" d="M138.083,-112.083C130.22,-104.22 118.569,-92.5688 109.081,-83.0813"/>
<polygon fill="midnightblue" stroke="midnightblue" points="111.297,-80.3473 101.751,-75.7511 106.347,-85.2971 111.297,-80.3473"/>
</g>
<!-- Node8&#45;&gt;Node9 -->
<g id="edge9" class="edge"><title>Node8&#45;&gt;Node9</title>
<path fill="none" stroke="midnightblue" d="M168.422,-56.083C175.848,-48.2195 186.852,-36.5688 195.812,-27.0813"/>
<polygon fill="midnightblue" stroke="midnightblue" points="198.413,-29.4244 202.735,-19.7511 193.324,-24.618 198.413,-29.4244"/>
</g>
<!-- Node11&#45;&gt;Node9 -->
<g id="edge13" class="edge"><title>Node11&#45;&gt;Node9</title>
<path fill="none" stroke="midnightblue" d="M257.998,-112.368C249.693,-94.4563 230.437,-52.9233 219.321,-28.9482"/>
<polygon fill="midnightblue" stroke="midnightblue" points="222.365,-27.1916 214.983,-19.5914 216.014,-30.136 222.365,-27.1916"/>
</g>
<!-- Node12 -->
<g id="node13" class="node"><title>Node12</title>
<polygon fill="white" stroke="#bfbfbf" points="277,-56.5 277,-75.5 317,-75.5 317,-56.5 277,-56.5"/>
<text text-anchor="middle" x="297" y="-63.5" font-family="Helvetica,sans-Serif" font-size="10.00">limits</text>
</g>
<!-- Node11&#45;&gt;Node12 -->
<g id="edge14" class="edge"><title>Node11&#45;&gt;Node12</title>
<path fill="none" stroke="midnightblue" d="M267.78,-112.083C272.672,-104.534 279.827,-93.4948 285.833,-84.2298"/>
<polygon fill="midnightblue" stroke="midnightblue" points="288.826,-86.0463 291.328,-75.7511 282.952,-82.239 288.826,-86.0463"/>
</g>
<!-- Node11&#45;&gt;Node13 -->
<g id="edge15" class="edge"><title>Node11&#45;&gt;Node13</title>
<path fill="none" stroke="midnightblue" d="M304.307,-112.444C357.871,-101.61 448.953,-83.1892 497.055,-73.4609"/>
<polygon fill="midnightblue" stroke="midnightblue" points="497.809,-76.8792 506.917,-71.4662 496.421,-70.0181 497.809,-76.8792"/>
</g>
<!-- Node18&#45;&gt;Node1 -->
<g id="edge26" class="edge"><title>Node18&#45;&gt;Node1</title>
<path fill="none" stroke="midnightblue" d="M846.11,-168.776C877.405,-146.641 937.453,-104.167 969.178,-81.7277"/>
<polygon fill="midnightblue" stroke="midnightblue" points="971.547,-84.3391 977.69,-75.707 967.505,-78.6242 971.547,-84.3391"/>
</g>
<!-- Node18&#45;&gt;Node13 -->
<g id="edge25" class="edge"><title>Node18&#45;&gt;Node13</title>
<path fill="none" stroke="midnightblue" d="M789.879,-168.892C731.107,-145.937 615.78,-100.894 560.289,-79.2206"/>
<polygon fill="midnightblue" stroke="midnightblue" points="561.554,-75.9572 550.966,-75.5793 559.007,-82.4776 561.554,-75.9572"/>
</g>
<!-- Node18&#45;&gt;Node17 -->
<g id="edge27" class="edge"><title>Node18&#45;&gt;Node17</title>
<path fill="none" stroke="midnightblue" d="M773.716,-168.933C734.179,-158.295 680.647,-143.892 644.136,-134.068"/>
<polygon fill="midnightblue" stroke="midnightblue" points="644.881,-130.644 634.316,-131.426 643.063,-137.404 644.881,-130.644"/>
</g>
<!-- Node19 -->
<g id="node20" class="node"><title>Node19</title>
<g id="a_node20"><a xlink:href="memory_8h.html" target="_top" xlink:title="base/std_ext/memory.h">
<polygon fill="white" stroke="black" points="766.5,-112.5 766.5,-131.5 885.5,-131.5 885.5,-112.5 766.5,-112.5"/>
<text text-anchor="middle" x="826" y="-119.5" font-family="Helvetica,sans-Serif" font-size="10.00">base/std_ext/memory.h</text>
</a>
</g>
</g>
<!-- Node18&#45;&gt;Node19 -->
<g id="edge22" class="edge"><title>Node18&#45;&gt;Node19</title>
<path fill="none" stroke="midnightblue" d="M826,-168.781C826,-160.781 826,-150.689 826,-142.017"/>
<polygon fill="midnightblue" stroke="midnightblue" points="829.5,-141.73 826,-131.731 822.5,-141.731 829.5,-141.73"/>
</g>
<!-- Node19&#45;&gt;Node1 -->
<g id="edge23" class="edge"><title>Node19&#45;&gt;Node1</title>
<path fill="none" stroke="midnightblue" d="M851.986,-112.444C879.696,-103.32 923.752,-88.8133 954.616,-78.6509"/>
<polygon fill="midnightblue" stroke="midnightblue" points="955.732,-81.9684 964.135,-75.5164 953.542,-75.3196 955.732,-81.9684"/>
</g>
<!-- Node19&#45;&gt;Node2 -->
<g id="edge24" class="edge"><title>Node19&#45;&gt;Node2</title>
<path fill="none" stroke="midnightblue" d="M826,-112.083C826,-105.006 826,-94.8611 826,-85.9865"/>
<polygon fill="midnightblue" stroke="midnightblue" points="829.5,-85.751 826,-75.7511 822.5,-85.7511 829.5,-85.751"/>
</g>
<!-- Node20&#45;&gt;Node1 -->
<g id="edge30" class="edge"><title>Node20&#45;&gt;Node1</title>
<path fill="none" stroke="midnightblue" d="M1123.63,-168.977C1122.48,-153.248 1118.34,-127.869 1104,-112 1083.94,-89.7971 1051.52,-78.4083 1026.37,-72.6527"/>
<polygon fill="midnightblue" stroke="midnightblue" points="1026.95,-69.1973 1016.44,-70.5809 1025.52,-76.0497 1026.95,-69.1973"/>
</g>
<!-- Node20&#45;&gt;Node13 -->
<g id="edge29" class="edge"><title>Node20&#45;&gt;Node13</title>
<path fill="none" stroke="midnightblue" d="M1071.33,-169.801C1068.18,-169.154 1065.05,-168.547 1062,-168 927.646,-143.908 890.781,-159.092 757,-132 725.706,-125.663 718.695,-120.792 688,-112 643.952,-99.3831 592.977,-84.9937 560.864,-75.9544"/>
<polygon fill="midnightblue" stroke="midnightblue" points="561.708,-72.5558 551.133,-73.2166 559.812,-79.2942 561.708,-72.5558"/>
</g>
<!-- Node20&#45;&gt;Node21 -->
<g id="edge31" class="edge"><title>Node20&#45;&gt;Node21</title>
<path fill="none" stroke="midnightblue" d="M1138.22,-168.781C1147.21,-159.792 1158.84,-148.162 1168.13,-138.873"/>
<polygon fill="midnightblue" stroke="midnightblue" points="1170.67,-141.277 1175.27,-131.731 1165.72,-136.327 1170.67,-141.277"/>
</g>
<!-- Node22 -->
<g id="node23" class="node"><title>Node22</title>
<polygon fill="white" stroke="#bfbfbf" points="1040,-112.5 1040,-131.5 1096,-131.5 1096,-112.5 1040,-112.5"/>
<text text-anchor="middle" x="1068" y="-119.5" font-family="Helvetica,sans-Serif" font-size="10.00">algorithm</text>
</g>
<!-- Node20&#45;&gt;Node22 -->
<g id="edge32" class="edge"><title>Node20&#45;&gt;Node22</title>
<path fill="none" stroke="midnightblue" d="M1110.73,-168.781C1102.42,-159.882 1091.7,-148.394 1083.08,-139.152"/>
<polygon fill="midnightblue" stroke="midnightblue" points="1085.53,-136.653 1076.15,-131.731 1080.41,-141.429 1085.53,-136.653"/>
</g>
</g>
</svg>
