<?xml version="1.0" encoding="UTF-8" standalone="no"?>
<!DOCTYPE svg PUBLIC "-//W3C//DTD SVG 1.1//EN"
 "http://www.w3.org/Graphics/SVG/1.1/DTD/svg11.dtd">
<!-- Generated by graphviz version 2.36.0 (20140111.2315)
 -->
<!-- Title: src/reconstruct/Reconstruct_traits.h Pages: 1 -->
<svg width="1206pt" height="276pt"
 viewBox="0.00 0.00 1206.00 276.00" xmlns="http://www.w3.org/2000/svg" xmlns:xlink="http://www.w3.org/1999/xlink">
<g id="graph0" class="graph" transform="scale(1 1) rotate(0) translate(4 272)">
<title>src/reconstruct/Reconstruct_traits.h</title>
<polygon fill="white" stroke="none" points="-4,4 -4,-272 1202,-272 1202,4 -4,4"/>
<!-- Node0 -->
<g id="node1" class="node"><title>Node0</title>
<polygon fill="#bfbfbf" stroke="black" points="889,-237 889,-267 1027,-267 1027,-237 889,-237"/>
<text text-anchor="start" x="897" y="-255" font-family="Helvetica,sans-Serif" font-size="10.00">src/reconstruct/Reconstruct</text>
<text text-anchor="middle" x="958" y="-244" font-family="Helvetica,sans-Serif" font-size="10.00">_traits.h</text>
</g>
<!-- Node1 -->
<g id="node2" class="node"><title>Node1</title>
<g id="a_node2"><a xlink:href="_detector__t_8h.html" target="_top" xlink:title="base/Detector_t.h">
<polygon fill="white" stroke="black" points="339.5,-174.5 339.5,-193.5 434.5,-193.5 434.5,-174.5 339.5,-174.5"/>
<text text-anchor="middle" x="387" y="-181.5" font-family="Helvetica,sans-Serif" font-size="10.00">base/Detector_t.h</text>
</a>
</g>
</g>
<!-- Node0&#45;&gt;Node1 -->
<g id="edge1" class="edge"><title>Node0&#45;&gt;Node1</title>
<path fill="none" stroke="midnightblue" d="M888.84,-243.006C775.05,-229.853 550.44,-203.892 444.664,-191.665"/>
<polygon fill="midnightblue" stroke="midnightblue" points="444.836,-188.162 434.501,-190.49 444.033,-195.116 444.836,-188.162"/>
</g>
<!-- Node15 -->
<g id="node16" class="node"><title>Node15</title>
<g id="a_node16"><a xlink:href="mapped__vectors_8h.html" target="_top" xlink:title="base/std_ext/mapped\l_vectors.h">
<polygon fill="white" stroke="black" points="631,-169 631,-199 741,-199 741,-169 631,-169"/>
<text text-anchor="start" x="639" y="-187" font-family="Helvetica,sans-Serif" font-size="10.00">base/std_ext/mapped</text>
<text text-anchor="middle" x="686" y="-176" font-family="Helvetica,sans-Serif" font-size="10.00">_vectors.h</text>
</a>
</g>
</g>
<!-- Node0&#45;&gt;Node15 -->
<g id="edge18" class="edge"><title>Node0&#45;&gt;Node15</title>
<path fill="none" stroke="midnightblue" d="M899.983,-236.922C856.23,-226.306 796.214,-211.743 750.875,-200.742"/>
<polygon fill="midnightblue" stroke="midnightblue" points="751.687,-197.337 741.144,-198.38 750.036,-204.14 751.687,-197.337"/>
</g>
<!-- Node17 -->
<g id="node18" class="node"><title>Node17</title>
<polygon fill="white" stroke="#bfbfbf" points="787,-56.5 787,-75.5 839,-75.5 839,-56.5 787,-56.5"/>
<text text-anchor="middle" x="813" y="-63.5" font-family="Helvetica,sans-Serif" font-size="10.00">memory</text>
</g>
<!-- Node0&#45;&gt;Node17 -->
<g id="edge30" class="edge"><title>Node0&#45;&gt;Node17</title>
<path fill="none" stroke="midnightblue" d="M919.98,-236.886C878.899,-219.333 815.618,-185.045 788,-132 779.834,-116.316 789.158,-97.338 798.653,-83.9486"/>
<polygon fill="midnightblue" stroke="midnightblue" points="801.696,-85.734 805.041,-75.6809 796.157,-81.4541 801.696,-85.734"/>
</g>
<!-- Node18 -->
<g id="node19" class="node"><title>Node18</title>
<polygon fill="white" stroke="#bfbfbf" points="981.5,-56.5 981.5,-75.5 1010.5,-75.5 1010.5,-56.5 981.5,-56.5"/>
<text text-anchor="middle" x="996" y="-63.5" font-family="Helvetica,sans-Serif" font-size="10.00">list</text>
</g>
<!-- Node0&#45;&gt;Node18 -->
<g id="edge32" class="edge"><title>Node0&#45;&gt;Node18</title>
<path fill="none" stroke="midnightblue" d="M993.738,-236.957C1032.86,-219.276 1092.95,-184.689 1115,-132 1132.07,-91.2213 1060.07,-75.2931 1020.48,-69.6999"/>
<polygon fill="midnightblue" stroke="midnightblue" points="1020.87,-66.2212 1010.51,-68.4109 1019.97,-73.1635 1020.87,-66.2212"/>
</g>
<!-- Node19 -->
<g id="node20" class="node"><title>Node19</title>
<g id="a_node20"><a xlink:href="shared__ptr__container_8h.html" target="_top" xlink:title="base/std_ext/shared\l_ptr_container.h">
<polygon fill="white" stroke="black" points="905.5,-169 905.5,-199 1010.5,-199 1010.5,-169 905.5,-169"/>
<text text-anchor="start" x="913.5" y="-187" font-family="Helvetica,sans-Serif" font-size="10.00">base/std_ext/shared</text>
<text text-anchor="middle" x="958" y="-176" font-family="Helvetica,sans-Serif" font-size="10.00">_ptr_container.h</text>
</a>
</g>
</g>
<!-- Node0&#45;&gt;Node19 -->
<g id="edge25" class="edge"><title>Node0&#45;&gt;Node19</title>
<path fill="none" stroke="midnightblue" d="M958,-236.679C958,-228.722 958,-218.605 958,-209.436"/>
<polygon fill="midnightblue" stroke="midnightblue" points="961.5,-209.293 958,-199.293 954.5,-209.293 961.5,-209.293"/>
</g>
<!-- Node20 -->
<g id="node21" class="node"><title>Node20</title>
<polygon fill="white" stroke="#bfbfbf" points="1047.5,-112.5 1047.5,-131.5 1106.5,-131.5 1106.5,-112.5 1047.5,-112.5"/>
<text text-anchor="middle" x="1077" y="-119.5" font-family="Helvetica,sans-Serif" font-size="10.00">functional</text>
</g>
<!-- Node0&#45;&gt;Node20 -->
<g id="edge33" class="edge"><title>Node0&#45;&gt;Node20</title>
<path fill="none" stroke="midnightblue" d="M977.119,-236.857C989.659,-227.151 1006.07,-213.608 1019,-200 1037.12,-180.936 1054.85,-156.26 1065.84,-140.047"/>
<polygon fill="midnightblue" stroke="midnightblue" points="1068.85,-141.846 1071.49,-131.585 1063.02,-137.962 1068.85,-141.846"/>
</g>
<!-- Node22 -->
<g id="node23" class="node"><title>Node22</title>
<polygon fill="white" stroke="#bfbfbf" points="1163.5,-174.5 1163.5,-193.5 1198.5,-193.5 1198.5,-174.5 1163.5,-174.5"/>
<text text-anchor="middle" x="1181" y="-181.5" font-family="Helvetica,sans-Serif" font-size="10.00">map</text>
</g>
<!-- Node0&#45;&gt;Node22 -->
<g id="edge31" class="edge"><title>Node0&#45;&gt;Node22</title>
<path fill="none" stroke="midnightblue" d="M1021.67,-236.997C1059.23,-227.998 1107.4,-215.166 1149,-200 1150.9,-199.306 1152.85,-198.542 1154.79,-197.738"/>
<polygon fill="midnightblue" stroke="midnightblue" points="1156.58,-200.771 1164.3,-193.512 1153.74,-194.374 1156.58,-200.771"/>
</g>
<!-- Node2 -->
<g id="node3" class="node"><title>Node2</title>
<g id="a_node3"><a xlink:href="bitflag_8h.html" target="_top" xlink:title="base/bitflag.h">
<polygon fill="white" stroke="black" points="-0.5,-112.5 -0.5,-131.5 74.5,-131.5 74.5,-112.5 -0.5,-112.5"/>
<text text-anchor="middle" x="37" y="-119.5" font-family="Helvetica,sans-Serif" font-size="10.00">base/bitflag.h</text>
</a>
</g>
</g>
<!-- Node1&#45;&gt;Node2 -->
<g id="edge2" class="edge"><title>Node1&#45;&gt;Node2</title>
<path fill="none" stroke="midnightblue" d="M339.279,-175.403C281.344,-166.089 180.416,-149.572 84.5022,-132.239"/>
<polygon fill="midnightblue" stroke="midnightblue" points="85.104,-128.791 74.6399,-130.45 83.8549,-135.678 85.104,-128.791"/>
</g>
<!-- Node4 -->
<g id="node5" class="node"><title>Node4</title>
<g id="a_node5"><a xlink:href="vec3_8h.html" target="_top" xlink:title="base/vec/vec3.h">
<polygon fill="white" stroke="black" points="92.5,-112.5 92.5,-131.5 181.5,-131.5 181.5,-112.5 92.5,-112.5"/>
<text text-anchor="middle" x="137" y="-119.5" font-family="Helvetica,sans-Serif" font-size="10.00">base/vec/vec3.h</text>
</a>
</g>
</g>
<!-- Node1&#45;&gt;Node4 -->
<g id="edge4" class="edge"><title>Node1&#45;&gt;Node4</title>
<path fill="none" stroke="midnightblue" d="M351.447,-174.467C307.02,-163.805 230.938,-145.545 182.358,-133.886"/>
<polygon fill="midnightblue" stroke="midnightblue" points="182.971,-130.434 172.431,-131.503 181.338,-137.241 182.971,-130.434"/>
</g>
<!-- Node8 -->
<g id="node9" class="node"><title>Node8</title>
<g id="a_node9"><a xlink:href="base_2std__ext_2math_8h.html" target="_top" xlink:title="base/std_ext/math.h">
<polygon fill="white" stroke="black" points="202,-112.5 202,-131.5 308,-131.5 308,-112.5 202,-112.5"/>
<text text-anchor="middle" x="255" y="-119.5" font-family="Helvetica,sans-Serif" font-size="10.00">base/std_ext/math.h</text>
</a>
</g>
</g>
<!-- Node1&#45;&gt;Node8 -->
<g id="edge9" class="edge"><title>Node1&#45;&gt;Node8</title>
<path fill="none" stroke="midnightblue" d="M368.088,-174.403C345.837,-164.29 308.688,-147.404 283.074,-135.761"/>
<polygon fill="midnightblue" stroke="midnightblue" points="284.429,-132.532 273.877,-131.581 281.533,-138.905 284.429,-132.532"/>
</g>
<!-- Node10 -->
<g id="node11" class="node"><title>Node10</title>
<polygon fill="white" stroke="#bfbfbf" points="488,-56.5 488,-75.5 532,-75.5 532,-56.5 488,-56.5"/>
<text text-anchor="middle" x="510" y="-63.5" font-family="Helvetica,sans-Serif" font-size="10.00">vector</text>
</g>
<!-- Node1&#45;&gt;Node10 -->
<g id="edge17" class="edge"><title>Node1&#45;&gt;Node10</title>
<path fill="none" stroke="midnightblue" d="M377.743,-174.488C363.634,-160.478 339.899,-132.109 355,-112 369.744,-92.3671 436.936,-78.5262 477.861,-71.7476"/>
<polygon fill="midnightblue" stroke="midnightblue" points="478.579,-75.1773 487.899,-70.1388 477.471,-68.2655 478.579,-75.1773"/>
</g>
<!-- Node11 -->
<g id="node12" class="node"><title>Node11</title>
<polygon fill="white" stroke="#bfbfbf" points="364,-112.5 364,-131.5 410,-131.5 410,-112.5 364,-112.5"/>
<text text-anchor="middle" x="387" y="-119.5" font-family="Helvetica,sans-Serif" font-size="10.00">cstdint</text>
</g>
<!-- Node1&#45;&gt;Node11 -->
<g id="edge13" class="edge"><title>Node1&#45;&gt;Node11</title>
<path fill="none" stroke="midnightblue" d="M387,-174.403C387,-165.938 387,-152.728 387,-141.82"/>
<polygon fill="midnightblue" stroke="midnightblue" points="390.5,-141.581 387,-131.581 383.5,-141.581 390.5,-141.581"/>
</g>
<!-- Node12 -->
<g id="node13" class="node"><title>Node12</title>
<polygon fill="white" stroke="#bfbfbf" points="428.5,-112.5 428.5,-131.5 487.5,-131.5 487.5,-112.5 428.5,-112.5"/>
<text text-anchor="middle" x="458" y="-119.5" font-family="Helvetica,sans-Serif" font-size="10.00">stdexcept</text>
</g>
<!-- Node1&#45;&gt;Node12 -->
<g id="edge14" class="edge"><title>Node1&#45;&gt;Node12</title>
<path fill="none" stroke="midnightblue" d="M397.173,-174.403C408.35,-164.958 426.517,-149.606 440.091,-138.134"/>
<polygon fill="midnightblue" stroke="midnightblue" points="442.467,-140.709 447.846,-131.581 437.949,-135.362 442.467,-140.709"/>
</g>
<!-- Node13 -->
<g id="node14" class="node"><title>Node13</title>
<polygon fill="white" stroke="#bfbfbf" points="505.5,-112.5 505.5,-131.5 546.5,-131.5 546.5,-112.5 505.5,-112.5"/>
<text text-anchor="middle" x="526" y="-119.5" font-family="Helvetica,sans-Serif" font-size="10.00">string</text>
</g>
<!-- Node1&#45;&gt;Node13 -->
<g id="edge15" class="edge"><title>Node1&#45;&gt;Node13</title>
<path fill="none" stroke="midnightblue" d="M406.915,-174.403C430.449,-164.245 469.81,-147.255 496.793,-135.607"/>
<polygon fill="midnightblue" stroke="midnightblue" points="498.328,-138.757 506.122,-131.581 495.553,-132.33 498.328,-138.757"/>
</g>
<!-- Node14 -->
<g id="node15" class="node"><title>Node14</title>
<polygon fill="white" stroke="#bfbfbf" points="565,-112.5 565,-131.5 627,-131.5 627,-112.5 565,-112.5"/>
<text text-anchor="middle" x="596" y="-119.5" font-family="Helvetica,sans-Serif" font-size="10.00">type_traits</text>
</g>
<!-- Node1&#45;&gt;Node14 -->
<g id="edge16" class="edge"><title>Node1&#45;&gt;Node14</title>
<path fill="none" stroke="midnightblue" d="M416.945,-174.403C453.572,-163.889 515.695,-146.054 556.284,-134.402"/>
<polygon fill="midnightblue" stroke="midnightblue" points="557.465,-137.704 566.111,-131.581 555.533,-130.976 557.465,-137.704"/>
</g>
<!-- Node3 -->
<g id="node4" class="node"><title>Node3</title>
<polygon fill="white" stroke="#bfbfbf" points="15.5,-56.5 15.5,-75.5 56.5,-75.5 56.5,-56.5 15.5,-56.5"/>
<text text-anchor="middle" x="36" y="-63.5" font-family="Helvetica,sans-Serif" font-size="10.00">bitset</text>
</g>
<!-- Node2&#45;&gt;Node3 -->
<g id="edge3" class="edge"><title>Node2&#45;&gt;Node3</title>
<path fill="none" stroke="midnightblue" d="M36.8349,-112.083C36.7038,-105.006 36.5159,-94.8611 36.3516,-85.9865"/>
<polygon fill="midnightblue" stroke="midnightblue" points="39.8467,-85.6845 36.1621,-75.7511 32.8479,-85.8142 39.8467,-85.6845"/>
</g>
<!-- Node5 -->
<g id="node6" class="node"><title>Node5</title>
<g id="a_node6"><a xlink:href="vec2_8h.html" target="_top" xlink:title="vec2.h">
<polygon fill="white" stroke="black" points="113,-56.5 113,-75.5 159,-75.5 159,-56.5 113,-56.5"/>
<text text-anchor="middle" x="136" y="-63.5" font-family="Helvetica,sans-Serif" font-size="10.00">vec2.h</text>
</a>
</g>
</g>
<!-- Node4&#45;&gt;Node5 -->
<g id="edge5" class="edge"><title>Node4&#45;&gt;Node5</title>
<path fill="none" stroke="midnightblue" d="M136.835,-112.083C136.704,-105.006 136.516,-94.8611 136.352,-85.9865"/>
<polygon fill="midnightblue" stroke="midnightblue" points="139.847,-85.6845 136.162,-75.7511 132.848,-85.8142 139.847,-85.6845"/>
</g>
<!-- Node6 -->
<g id="node7" class="node"><title>Node6</title>
<polygon fill="white" stroke="#bfbfbf" points="114,-0.5 114,-19.5 158,-19.5 158,-0.5 114,-0.5"/>
<text text-anchor="middle" x="136" y="-7.5" font-family="Helvetica,sans-Serif" font-size="10.00">cmath</text>
</g>
<!-- Node4&#45;&gt;Node6 -->
<g id="edge8" class="edge"><title>Node4&#45;&gt;Node6</title>
<path fill="none" stroke="midnightblue" d="M127.98,-112.34C119.928,-103.932 108.702,-90.3633 104,-76 98.3501,-58.7416 109.251,-40.2758 119.831,-27.4536"/>
<polygon fill="midnightblue" stroke="midnightblue" points="122.514,-29.7037 126.56,-19.912 117.291,-25.0432 122.514,-29.7037"/>
</g>
<!-- Node7 -->
<g id="node8" class="node"><title>Node7</title>
<polygon fill="white" stroke="#bfbfbf" points="177,-56.5 177,-75.5 229,-75.5 229,-56.5 177,-56.5"/>
<text text-anchor="middle" x="203" y="-63.5" font-family="Helvetica,sans-Serif" font-size="10.00">ostream</text>
</g>
<!-- Node4&#45;&gt;Node7 -->
<g id="edge7" class="edge"><title>Node4&#45;&gt;Node7</title>
<path fill="none" stroke="midnightblue" d="M147.604,-112.324C157.456,-104.263 172.351,-92.0765 184.215,-82.3695"/>
<polygon fill="midnightblue" stroke="midnightblue" points="186.68,-84.8752 192.203,-75.8339 182.247,-79.4575 186.68,-84.8752"/>
</g>
<!-- Node5&#45;&gt;Node6 -->
<g id="edge6" class="edge"><title>Node5&#45;&gt;Node6</title>
<path fill="none" stroke="midnightblue" d="M136,-56.083C136,-49.0059 136,-38.8611 136,-29.9865"/>
<polygon fill="midnightblue" stroke="midnightblue" points="139.5,-29.751 136,-19.7511 132.5,-29.7511 139.5,-29.751"/>
</g>
<!-- Node8&#45;&gt;Node6 -->
<g id="edge10" class="edge"><title>Node8&#45;&gt;Node6</title>
<path fill="none" stroke="midnightblue" d="M255.025,-112.344C254.611,-98.7693 251.917,-72.3382 238,-56 220.15,-35.0454 190.653,-23.4849 167.959,-17.348"/>
<polygon fill="midnightblue" stroke="midnightblue" points="168.625,-13.9073 158.077,-14.8958 166.939,-20.7013 168.625,-13.9073"/>
</g>
<!-- Node9 -->
<g id="node10" class="node"><title>Node9</title>
<polygon fill="white" stroke="#bfbfbf" points="285,-56.5 285,-75.5 325,-75.5 325,-56.5 285,-56.5"/>
<text text-anchor="middle" x="305" y="-63.5" font-family="Helvetica,sans-Serif" font-size="10.00">limits</text>
</g>
<!-- Node8&#45;&gt;Node9 -->
<g id="edge11" class="edge"><title>Node8&#45;&gt;Node9</title>
<path fill="none" stroke="midnightblue" d="M263.256,-112.083C270.465,-104.298 281.11,-92.8015 289.846,-83.3665"/>
<polygon fill="midnightblue" stroke="midnightblue" points="292.671,-85.4666 296.897,-75.7511 287.535,-80.7108 292.671,-85.4666"/>
</g>
<!-- Node8&#45;&gt;Node10 -->
<g id="edge12" class="edge"><title>Node8&#45;&gt;Node10</title>
<path fill="none" stroke="midnightblue" d="M295.406,-112.444C346.063,-101.716 431.858,-83.5478 478.135,-73.748"/>
<polygon fill="midnightblue" stroke="midnightblue" points="478.866,-77.1708 487.924,-71.6749 477.416,-70.3226 478.866,-77.1708"/>
</g>
<!-- Node15&#45;&gt;Node10 -->
<g id="edge22" class="edge"><title>Node15&#45;&gt;Node10</title>
<path fill="none" stroke="midnightblue" d="M679.128,-168.76C670.767,-152.833 655.227,-127.272 635,-112 607.375,-91.1418 569.18,-79.2739 542.302,-73.0239"/>
<polygon fill="midnightblue" stroke="midnightblue" points="542.765,-69.5424 532.248,-70.824 541.269,-76.3807 542.765,-69.5424"/>
</g>
<!-- Node15&#45;&gt;Node14 -->
<g id="edge24" class="edge"><title>Node15&#45;&gt;Node14</title>
<path fill="none" stroke="midnightblue" d="M664.671,-168.781C650.429,-159.286 631.765,-146.843 617.49,-137.327"/>
<polygon fill="midnightblue" stroke="midnightblue" points="619.096,-134.191 608.834,-131.556 615.213,-140.015 619.096,-134.191"/>
</g>
<!-- Node16 -->
<g id="node17" class="node"><title>Node16</title>
<g id="a_node17"><a xlink:href="memory_8h.html" target="_top" xlink:title="base/std_ext/memory.h">
<polygon fill="white" stroke="black" points="797.5,-112.5 797.5,-131.5 916.5,-131.5 916.5,-112.5 797.5,-112.5"/>
<text text-anchor="middle" x="857" y="-119.5" font-family="Helvetica,sans-Serif" font-size="10.00">base/std_ext/memory.h</text>
</a>
</g>
</g>
<!-- Node15&#45;&gt;Node16 -->
<g id="edge19" class="edge"><title>Node15&#45;&gt;Node16</title>
<path fill="none" stroke="midnightblue" d="M726.092,-168.933C755.545,-158.598 795.125,-144.711 823.028,-134.92"/>
<polygon fill="midnightblue" stroke="midnightblue" points="824.462,-138.126 832.739,-131.513 822.144,-131.521 824.462,-138.126"/>
</g>
<!-- Node15&#45;&gt;Node17 -->
<g id="edge23" class="edge"><title>Node15&#45;&gt;Node17</title>
<path fill="none" stroke="midnightblue" d="M698.683,-168.821C712.128,-154.065 734.246,-130.564 755,-112 767.111,-101.166 781.546,-89.9619 792.985,-81.4431"/>
<polygon fill="midnightblue" stroke="midnightblue" points="795.079,-84.2477 801.06,-75.5029 790.931,-78.6089 795.079,-84.2477"/>
</g>
<!-- Node16&#45;&gt;Node17 -->
<g id="edge20" class="edge"><title>Node16&#45;&gt;Node17</title>
<path fill="none" stroke="midnightblue" d="M849.734,-112.083C843.455,-104.377 834.212,-93.0333 826.569,-83.6531"/>
<polygon fill="midnightblue" stroke="midnightblue" points="829.161,-81.2926 820.131,-75.7511 823.734,-85.7143 829.161,-81.2926"/>
</g>
<!-- Node16&#45;&gt;Node18 -->
<g id="edge21" class="edge"><title>Node16&#45;&gt;Node18</title>
<path fill="none" stroke="midnightblue" d="M879.025,-112.444C904.3,-102.624 945.621,-86.5715 971.783,-76.4081"/>
<polygon fill="midnightblue" stroke="midnightblue" points="973.273,-79.5841 981.327,-72.7003 970.738,-73.0592 973.273,-79.5841"/>
</g>
<!-- Node19&#45;&gt;Node10 -->
<g id="edge26" class="edge"><title>Node19&#45;&gt;Node10</title>
<path fill="none" stroke="midnightblue" d="M905.291,-169.352C811.626,-145.1 618.846,-95.1834 542.329,-75.371"/>
<polygon fill="midnightblue" stroke="midnightblue" points="542.885,-71.8994 532.327,-72.781 541.13,-78.6759 542.885,-71.8994"/>
</g>
<!-- Node19&#45;&gt;Node17 -->
<g id="edge27" class="edge"><title>Node19&#45;&gt;Node17</title>
<path fill="none" stroke="midnightblue" d="M954.78,-168.886C950.496,-153.075 941.471,-127.62 925,-112 903.979,-92.0651 872.998,-80.5375 848.946,-74.1506"/>
<polygon fill="midnightblue" stroke="midnightblue" points="849.659,-70.7216 839.111,-71.7186 847.978,-77.5169 849.659,-70.7216"/>
</g>
<!-- Node19&#45;&gt;Node20 -->
<g id="edge28" class="edge"><title>Node19&#45;&gt;Node20</title>
<path fill="none" stroke="midnightblue" d="M985.9,-168.933C1005.53,-159.036 1031.62,-145.88 1050.85,-136.185"/>
<polygon fill="midnightblue" stroke="midnightblue" points="1052.59,-139.227 1059.94,-131.6 1049.44,-132.977 1052.59,-139.227"/>
</g>
<!-- Node21 -->
<g id="node22" class="node"><title>Node21</title>
<polygon fill="white" stroke="#bfbfbf" points="973,-112.5 973,-131.5 1029,-131.5 1029,-112.5 973,-112.5"/>
<text text-anchor="middle" x="1001" y="-119.5" font-family="Helvetica,sans-Serif" font-size="10.00">algorithm</text>
</g>
<!-- Node19&#45;&gt;Node21 -->
<g id="edge29" class="edge"><title>Node19&#45;&gt;Node21</title>
<path fill="none" stroke="midnightblue" d="M968.19,-168.781C974.374,-160.152 982.303,-149.088 988.818,-139.999"/>
<polygon fill="midnightblue" stroke="midnightblue" points="991.763,-141.898 994.743,-131.731 986.073,-137.82 991.763,-141.898"/>
</g>
</g>
</svg>
