<?xml version="1.0" encoding="UTF-8" standalone="no"?>
<!DOCTYPE svg PUBLIC "-//W3C//DTD SVG 1.1//EN"
 "http://www.w3.org/Graphics/SVG/1.1/DTD/svg11.dtd">
<!-- Generated by graphviz version 2.36.0 (20140111.2315)
 -->
<!-- Title: src/analysis/plot/RootDraw.h Pages: 1 -->
<svg width="534pt" height="196pt"
 viewBox="0.00 0.00 534.00 196.00" xmlns="http://www.w3.org/2000/svg" xmlns:xlink="http://www.w3.org/1999/xlink">
<g id="graph0" class="graph" transform="scale(1 1) rotate(0) translate(4 192)">
<title>src/analysis/plot/RootDraw.h</title>
<polygon fill="white" stroke="none" points="-4,4 -4,-192 530,-192 530,4 -4,4"/>
<!-- Node0 -->
<g id="node1" class="node"><title>Node0</title>
<polygon fill="#bfbfbf" stroke="black" points="98.5,-168.5 98.5,-187.5 241.5,-187.5 241.5,-168.5 98.5,-168.5"/>
<text text-anchor="middle" x="170" y="-175.5" font-family="Helvetica,sans-Serif" font-size="10.00">src/analysis/plot/RootDraw.h</text>
</g>
<!-- Node1 -->
<g id="node2" class="node"><title>Node1</title>
<polygon fill="white" stroke="#bfbfbf" points="-0.5,-112.5 -0.5,-131.5 40.5,-131.5 40.5,-112.5 -0.5,-112.5"/>
<text text-anchor="middle" x="20" y="-119.5" font-family="Helvetica,sans-Serif" font-size="10.00">string</text>
</g>
<!-- Node0&#45;&gt;Node1 -->
<g id="edge1" class="edge"><title>Node0&#45;&gt;Node1</title>
<path fill="none" stroke="midnightblue" d="M146.232,-168.444C120.334,-159.12 78.8244,-144.177 50.5309,-133.991"/>
<polygon fill="midnightblue" stroke="midnightblue" points="51.3528,-130.567 40.7584,-130.473 48.9817,-137.153 51.3528,-130.567"/>
</g>
<!-- Node2 -->
<g id="node3" class="node"><title>Node2</title>
<polygon fill="white" stroke="#bfbfbf" points="58.5,-112.5 58.5,-131.5 87.5,-131.5 87.5,-112.5 58.5,-112.5"/>
<text text-anchor="middle" x="73" y="-119.5" font-family="Helvetica,sans-Serif" font-size="10.00">list</text>
</g>
<!-- Node0&#45;&gt;Node2 -->
<g id="edge2" class="edge"><title>Node0&#45;&gt;Node2</title>
<path fill="none" stroke="midnightblue" d="M154.415,-168.324C138.727,-159.59 114.34,-146.014 96.3428,-135.995"/>
<polygon fill="midnightblue" stroke="midnightblue" points="98.0338,-132.931 87.5941,-131.125 94.6289,-139.047 98.0338,-132.931"/>
</g>
<!-- Node3 -->
<g id="node4" class="node"><title>Node3</title>
<polygon fill="white" stroke="#bfbfbf" points="104,-56.5 104,-75.5 148,-75.5 148,-56.5 104,-56.5"/>
<text text-anchor="middle" x="126" y="-63.5" font-family="Helvetica,sans-Serif" font-size="10.00">vector</text>
</g>
<!-- Node0&#45;&gt;Node3 -->
<g id="edge3" class="edge"><title>Node0&#45;&gt;Node3</title>
<path fill="none" stroke="midnightblue" d="M160.898,-168.277C152.687,-159.824 141.003,-146.225 135,-132 128.834,-117.387 126.712,-99.4448 126.06,-86.1157"/>
<polygon fill="midnightblue" stroke="midnightblue" points="129.551,-85.6983 125.801,-75.7894 122.553,-85.8743 129.551,-85.6983"/>
</g>
<!-- Node4 -->
<g id="node5" class="node"><title>Node4</title>
<polygon fill="white" stroke="#bfbfbf" points="144,-112.5 144,-131.5 196,-131.5 196,-112.5 144,-112.5"/>
<text text-anchor="middle" x="170" y="-119.5" font-family="Helvetica,sans-Serif" font-size="10.00">memory</text>
</g>
<!-- Node0&#45;&gt;Node4 -->
<g id="edge4" class="edge"><title>Node0&#45;&gt;Node4</title>
<path fill="none" stroke="midnightblue" d="M170,-168.083C170,-161.006 170,-150.861 170,-141.986"/>
<polygon fill="midnightblue" stroke="midnightblue" points="173.5,-141.751 170,-131.751 166.5,-141.751 173.5,-141.751"/>
</g>
<!-- Node5 -->
<g id="node6" class="node"><title>Node5</title>
<polygon fill="white" stroke="#bfbfbf" points="214.5,-112.5 214.5,-131.5 273.5,-131.5 273.5,-112.5 214.5,-112.5"/>
<text text-anchor="middle" x="244" y="-119.5" font-family="Helvetica,sans-Serif" font-size="10.00">functional</text>
</g>
<!-- Node0&#45;&gt;Node5 -->
<g id="edge5" class="edge"><title>Node0&#45;&gt;Node5</title>
<path fill="none" stroke="midnightblue" d="M181.889,-168.324C193.15,-160.107 210.287,-147.602 223.709,-137.807"/>
<polygon fill="midnightblue" stroke="midnightblue" points="225.88,-140.556 231.894,-131.834 221.753,-134.901 225.88,-140.556"/>
</g>
<!-- Node6 -->
<g id="node7" class="node"><title>Node6</title>
<g id="a_node7"><a xlink:href="_bin_settings_8h.html" target="_top" xlink:title="base/BinSettings.h">
<polygon fill="white" stroke="black" points="291.5,-112.5 291.5,-131.5 390.5,-131.5 390.5,-112.5 291.5,-112.5"/>
<text text-anchor="middle" x="341" y="-119.5" font-family="Helvetica,sans-Serif" font-size="10.00">base/BinSettings.h</text>
</a>
</g>
</g>
<!-- Node0&#45;&gt;Node6 -->
<g id="edge6" class="edge"><title>Node0&#45;&gt;Node6</title>
<path fill="none" stroke="midnightblue" d="M197.095,-168.444C225.988,-159.32 271.925,-144.813 304.105,-134.651"/>
<polygon fill="midnightblue" stroke="midnightblue" points="305.549,-137.865 314.031,-131.516 303.441,-131.19 305.549,-137.865"/>
</g>
<!-- Node16 -->
<g id="node17" class="node"><title>Node16</title>
<polygon fill="white" stroke="#bfbfbf" points="409,-112.5 409,-131.5 465,-131.5 465,-112.5 409,-112.5"/>
<text text-anchor="middle" x="437" y="-119.5" font-family="Helvetica,sans-Serif" font-size="10.00">Rtypes.h</text>
</g>
<!-- Node0&#45;&gt;Node16 -->
<g id="edge19" class="edge"><title>Node0&#45;&gt;Node16</title>
<path fill="none" stroke="midnightblue" d="M216.163,-168.47C262.488,-159.782 335.839,-145.68 399,-132 399.099,-131.978 399.199,-131.957 399.299,-131.935"/>
<polygon fill="midnightblue" stroke="midnightblue" points="399.813,-135.407 408.806,-129.805 398.282,-128.576 399.813,-135.407"/>
</g>
<!-- Node6&#45;&gt;Node3 -->
<g id="edge15" class="edge"><title>Node6&#45;&gt;Node3</title>
<path fill="none" stroke="midnightblue" d="M306.933,-112.444C265.977,-102.157 197.782,-85.0289 157.843,-74.9978"/>
<polygon fill="midnightblue" stroke="midnightblue" points="158.644,-71.5902 148.092,-72.5488 156.938,-78.3794 158.644,-71.5902"/>
</g>
<!-- Node7 -->
<g id="node8" class="node"><title>Node7</title>
<g id="a_node8"><a xlink:href="interval_8h.html" target="_top" xlink:title="base/interval.h">
<polygon fill="white" stroke="black" points="267,-56.5 267,-75.5 347,-75.5 347,-56.5 267,-56.5"/>
<text text-anchor="middle" x="307" y="-63.5" font-family="Helvetica,sans-Serif" font-size="10.00">base/interval.h</text>
</a>
</g>
</g>
<!-- Node6&#45;&gt;Node7 -->
<g id="edge7" class="edge"><title>Node6&#45;&gt;Node7</title>
<path fill="none" stroke="midnightblue" d="M335.386,-112.083C330.633,-104.534 323.682,-93.4948 317.848,-84.2298"/>
<polygon fill="midnightblue" stroke="midnightblue" points="320.8,-82.3486 312.51,-75.7511 314.876,-86.0783 320.8,-82.3486"/>
</g>
<!-- Node10 -->
<g id="node11" class="node"><title>Node10</title>
<polygon fill="white" stroke="#bfbfbf" points="68.5,-0.5 68.5,-19.5 127.5,-19.5 127.5,-0.5 68.5,-0.5"/>
<text text-anchor="middle" x="98" y="-7.5" font-family="Helvetica,sans-Serif" font-size="10.00">stdexcept</text>
</g>
<!-- Node6&#45;&gt;Node10 -->
<g id="edge16" class="edge"><title>Node6&#45;&gt;Node10</title>
<path fill="none" stroke="midnightblue" d="M321.932,-112.368C279.346,-93.0908 176.32,-46.4536 126.253,-23.7894"/>
<polygon fill="midnightblue" stroke="midnightblue" points="127.533,-20.5268 116.979,-19.5914 124.646,-26.9039 127.533,-20.5268"/>
</g>
<!-- Node12 -->
<g id="node13" class="node"><title>Node12</title>
<polygon fill="white" stroke="#bfbfbf" points="477.5,-0.5 477.5,-19.5 526.5,-19.5 526.5,-0.5 477.5,-0.5"/>
<text text-anchor="middle" x="502" y="-7.5" font-family="Helvetica,sans-Serif" font-size="10.00">istream</text>
</g>
<!-- Node6&#45;&gt;Node12 -->
<g id="edge17" class="edge"><title>Node6&#45;&gt;Node12</title>
<path fill="none" stroke="midnightblue" d="M346.122,-112.268C354.539,-98.5882 372.523,-72.0162 394,-56 416.028,-39.5727 444.934,-27.9409 467.298,-20.6236"/>
<polygon fill="midnightblue" stroke="midnightblue" points="468.568,-23.8934 477.064,-17.5635 466.475,-17.2136 468.568,-23.8934"/>
</g>
<!-- Node15 -->
<g id="node16" class="node"><title>Node15</title>
<polygon fill="white" stroke="#bfbfbf" points="403,-56.5 403,-75.5 455,-75.5 455,-56.5 403,-56.5"/>
<text text-anchor="middle" x="429" y="-63.5" font-family="Helvetica,sans-Serif" font-size="10.00">ostream</text>
</g>
<!-- Node6&#45;&gt;Node15 -->
<g id="edge18" class="edge"><title>Node6&#45;&gt;Node15</title>
<path fill="none" stroke="midnightblue" d="M355.139,-112.324C368.866,-103.9 389.936,-90.9709 406.064,-81.0741"/>
<polygon fill="midnightblue" stroke="midnightblue" points="408.204,-83.8678 414.896,-75.6545 404.543,-77.9016 408.204,-83.8678"/>
</g>
<!-- Node8 -->
<g id="node9" class="node"><title>Node8</title>
<g id="a_node9"><a xlink:href="types_8h.html" target="_top" xlink:title="types.h">
<polygon fill="white" stroke="black" points="145.5,-0.5 145.5,-19.5 194.5,-19.5 194.5,-0.5 145.5,-0.5"/>
<text text-anchor="middle" x="170" y="-7.5" font-family="Helvetica,sans-Serif" font-size="10.00">types.h</text>
</a>
</g>
</g>
<!-- Node7&#45;&gt;Node8 -->
<g id="edge8" class="edge"><title>Node7&#45;&gt;Node8</title>
<path fill="none" stroke="midnightblue" d="M285.292,-56.4435C262.645,-47.5171 226.928,-33.4387 201.248,-23.3168"/>
<polygon fill="midnightblue" stroke="midnightblue" points="202.193,-19.9273 191.606,-19.5164 199.626,-26.4397 202.193,-19.9273"/>
</g>
<!-- Node9 -->
<g id="node10" class="node"><title>Node9</title>
<polygon fill="white" stroke="#bfbfbf" points="213,-0.5 213,-19.5 269,-19.5 269,-0.5 213,-0.5"/>
<text text-anchor="middle" x="241" y="-7.5" font-family="Helvetica,sans-Serif" font-size="10.00">algorithm</text>
</g>
<!-- Node7&#45;&gt;Node9 -->
<g id="edge9" class="edge"><title>Node7&#45;&gt;Node9</title>
<path fill="none" stroke="midnightblue" d="M296.396,-56.324C286.544,-48.2631 271.649,-36.0765 259.785,-26.3695"/>
<polygon fill="midnightblue" stroke="midnightblue" points="261.753,-23.4575 251.797,-19.8339 257.32,-28.8752 261.753,-23.4575"/>
</g>
<!-- Node7&#45;&gt;Node10 -->
<g id="edge10" class="edge"><title>Node7&#45;&gt;Node10</title>
<path fill="none" stroke="midnightblue" d="M273.883,-56.4435C236.824,-46.8683 176.82,-31.365 137.385,-21.1759"/>
<polygon fill="midnightblue" stroke="midnightblue" points="138.14,-17.7563 127.583,-18.6433 136.389,-24.5337 138.14,-17.7563"/>
</g>
<!-- Node11 -->
<g id="node12" class="node"><title>Node11</title>
<polygon fill="white" stroke="#bfbfbf" points="287,-0.5 287,-19.5 327,-19.5 327,-0.5 287,-0.5"/>
<text text-anchor="middle" x="307" y="-7.5" font-family="Helvetica,sans-Serif" font-size="10.00">limits</text>
</g>
<!-- Node7&#45;&gt;Node11 -->
<g id="edge11" class="edge"><title>Node7&#45;&gt;Node11</title>
<path fill="none" stroke="midnightblue" d="M307,-56.083C307,-49.0059 307,-38.8611 307,-29.9865"/>
<polygon fill="midnightblue" stroke="midnightblue" points="310.5,-29.751 307,-19.7511 303.5,-29.7511 310.5,-29.751"/>
</g>
<!-- Node7&#45;&gt;Node12 -->
<g id="edge12" class="edge"><title>Node7&#45;&gt;Node12</title>
<path fill="none" stroke="midnightblue" d="M337.898,-56.4435C373.237,-46.6574 430.936,-30.6793 467.656,-20.5107"/>
<polygon fill="midnightblue" stroke="midnightblue" points="468.717,-23.8486 477.42,-17.8067 466.849,-17.1025 468.717,-23.8486"/>
</g>
<!-- Node13 -->
<g id="node14" class="node"><title>Node13</title>
<polygon fill="white" stroke="#bfbfbf" points="345,-0.5 345,-19.5 397,-19.5 397,-0.5 345,-0.5"/>
<text text-anchor="middle" x="371" y="-7.5" font-family="Helvetica,sans-Serif" font-size="10.00">sstream</text>
</g>
<!-- Node7&#45;&gt;Node13 -->
<g id="edge13" class="edge"><title>Node7&#45;&gt;Node13</title>
<path fill="none" stroke="midnightblue" d="M317.283,-56.324C326.836,-48.2631 341.28,-36.0765 352.784,-26.3695"/>
<polygon fill="midnightblue" stroke="midnightblue" points="355.144,-28.9577 360.53,-19.8339 350.63,-23.6076 355.144,-28.9577"/>
</g>
<!-- Node14 -->
<g id="node15" class="node"><title>Node14</title>
<polygon fill="white" stroke="#bfbfbf" points="415,-0.5 415,-19.5 459,-19.5 459,-0.5 415,-0.5"/>
<text text-anchor="middle" x="437" y="-7.5" font-family="Helvetica,sans-Serif" font-size="10.00">cmath</text>
</g>
<!-- Node7&#45;&gt;Node14 -->
<g id="edge14" class="edge"><title>Node7&#45;&gt;Node14</title>
<path fill="none" stroke="midnightblue" d="M327.599,-56.4435C348.993,-47.5566 382.681,-33.5632 407.024,-23.4514"/>
<polygon fill="midnightblue" stroke="midnightblue" points="408.605,-26.5848 416.497,-19.5164 405.92,-20.1203 408.605,-26.5848"/>
</g>
</g>
</svg>
