<?xml version="1.0" encoding="UTF-8" standalone="no"?>
<!DOCTYPE svg PUBLIC "-//W3C//DTD SVG 1.1//EN"
 "http://www.w3.org/Graphics/SVG/1.1/DTD/svg11.dtd">
<!-- Generated by graphviz version 2.36.0 (20140111.2315)
 -->
<!-- Title: src/expconfig/setups/Setup_2017Plus_NewTagger_Base.h Pages: 1 -->
<svg width="654pt" height="128pt"
 viewBox="0.00 0.00 654.00 128.00" xmlns="http://www.w3.org/2000/svg" xmlns:xlink="http://www.w3.org/1999/xlink">
<g id="graph0" class="graph" transform="scale(1 1) rotate(0) translate(4 124)">
<title>src/expconfig/setups/Setup_2017Plus_NewTagger_Base.h</title>
<polygon fill="white" stroke="none" points="-4,4 -4,-124 650,-124 650,4 -4,4"/>
<!-- Node71 -->
<g id="node1" class="node"><title>Node71</title>
<polygon fill="#bfbfbf" stroke="black" points="270,-78.5 270,-119.5 416,-119.5 416,-78.5 270,-78.5"/>
<text text-anchor="start" x="278" y="-107.5" font-family="Helvetica,sans-Serif" font-size="10.00">src/expconfig/setups</text>
<text text-anchor="start" x="278" y="-96.5" font-family="Helvetica,sans-Serif" font-size="10.00">/Setup_2017Plus_NewTagger</text>
<text text-anchor="middle" x="343" y="-85.5" font-family="Helvetica,sans-Serif" font-size="10.00">_Base.h</text>
</g>
<!-- Node72 -->
<g id="node2" class="node"><title>Node72</title>
<g id="a_node2"><a xlink:href="_setup__2017__12_8cc.html" target="_top" xlink:title="src/expconfig/setups\l/Setup_2017_12.cc">
<polygon fill="white" stroke="black" points="-0.5,-6 -0.5,-36 106.5,-36 106.5,-6 -0.5,-6"/>
<text text-anchor="start" x="7.5" y="-24" font-family="Helvetica,sans-Serif" font-size="10.00">src/expconfig/setups</text>
<text text-anchor="middle" x="53" y="-13" font-family="Helvetica,sans-Serif" font-size="10.00">/Setup_2017_12.cc</text>
</a>
</g>
</g>
<!-- Node71&#45;&gt;Node72 -->
<g id="edge1" class="edge"><title>Node71&#45;&gt;Node72</title>
<path fill="none" stroke="midnightblue" d="M259.96,-78.8943C216.838,-68.6247 163.392,-55.3529 116,-42 109.483,-40.1639 102.624,-38.1118 95.9263,-36.0408"/>
<polygon fill="midnightblue" stroke="midnightblue" points="259.304,-82.3356 269.842,-81.2381 260.919,-75.5246 259.304,-82.3356"/>
</g>
<!-- Node73 -->
<g id="node3" class="node"><title>Node73</title>
<g id="a_node3"><a xlink:href="_setup__2017_plus___new_tagger___base_8cc.html" target="_top" xlink:title="src/expconfig/setups\l/Setup_2017Plus_NewTagger\l_Base.cc">
<polygon fill="white" stroke="black" points="125,-0.5 125,-41.5 271,-41.5 271,-0.5 125,-0.5"/>
<text text-anchor="start" x="133" y="-29.5" font-family="Helvetica,sans-Serif" font-size="10.00">src/expconfig/setups</text>
<text text-anchor="start" x="133" y="-18.5" font-family="Helvetica,sans-Serif" font-size="10.00">/Setup_2017Plus_NewTagger</text>
<text text-anchor="middle" x="198" y="-7.5" font-family="Helvetica,sans-Serif" font-size="10.00">_Base.cc</text>
</a>
</g>
</g>
<!-- Node71&#45;&gt;Node73 -->
<g id="edge2" class="edge"><title>Node71&#45;&gt;Node73</title>
<path fill="none" stroke="midnightblue" d="M296.767,-73.7675C276.891,-63.3498 253.97,-51.3358 235.215,-41.5056"/>
<polygon fill="midnightblue" stroke="midnightblue" points="295.177,-76.8857 305.659,-78.4281 298.427,-70.6857 295.177,-76.8857"/>
</g>
<!-- Node74 -->
<g id="node4" class="node"><title>Node74</title>
<g id="a_node4"><a xlink:href="_setup__2018__03_8cc.html" target="_top" xlink:title="src/expconfig/setups\l/Setup_2018_03.cc">
<polygon fill="white" stroke="black" points="289.5,-6 289.5,-36 396.5,-36 396.5,-6 289.5,-6"/>
<text text-anchor="start" x="297.5" y="-24" font-family="Helvetica,sans-Serif" font-size="10.00">src/expconfig/setups</text>
<text text-anchor="middle" x="343" y="-13" font-family="Helvetica,sans-Serif" font-size="10.00">/Setup_2018_03.cc</text>
</a>
</g>
</g>
<!-- Node71&#45;&gt;Node74 -->
<g id="edge3" class="edge"><title>Node71&#45;&gt;Node74</title>
<path fill="none" stroke="midnightblue" d="M343,-68.2829C343,-57.2536 343,-45.2457 343,-36.2254"/>
<polygon fill="midnightblue" stroke="midnightblue" points="339.5,-68.4281 343,-78.4281 346.5,-68.4281 339.5,-68.4281"/>
</g>
<!-- Node75 -->
<g id="node5" class="node"><title>Node75</title>
<g id="a_node5"><a xlink:href="_setup__2018__05_8cc.html" target="_top" xlink:title="src/expconfig/setups\l/Setup_2018_05.cc">
<polygon fill="white" stroke="black" points="414.5,-6 414.5,-36 521.5,-36 521.5,-6 414.5,-6"/>
<text text-anchor="start" x="422.5" y="-24" font-family="Helvetica,sans-Serif" font-size="10.00">src/expconfig/setups</text>
<text text-anchor="middle" x="468" y="-13" font-family="Helvetica,sans-Serif" font-size="10.00">/Setup_2018_05.cc</text>
</a>
</g>
</g>
<!-- Node71&#45;&gt;Node75 -->
<g id="edge4" class="edge"><title>Node71&#45;&gt;Node75</title>
<path fill="none" stroke="midnightblue" d="M383.871,-73.1502C404.003,-60.9103 427.549,-46.5941 444.603,-36.2254"/>
<polygon fill="midnightblue" stroke="midnightblue" points="381.917,-70.2423 375.191,-78.4281 385.554,-76.2236 381.917,-70.2423"/>
</g>
<!-- Node76 -->
<g id="node6" class="node"><title>Node76</title>
<g id="a_node6"><a xlink:href="_setup__2018__09_8cc.html" target="_top" xlink:title="src/expconfig/setups\l/Setup_2018_09.cc">
<polygon fill="white" stroke="black" points="539.5,-6 539.5,-36 646.5,-36 646.5,-6 539.5,-6"/>
<text text-anchor="start" x="547.5" y="-24" font-family="Helvetica,sans-Serif" font-size="10.00">src/expconfig/setups</text>
<text text-anchor="middle" x="593" y="-13" font-family="Helvetica,sans-Serif" font-size="10.00">/Setup_2018_09.cc</text>
</a>
</g>
</g>
<!-- Node71&#45;&gt;Node76 -->
<g id="edge5" class="edge"><title>Node71&#45;&gt;Node76</title>
<path fill="none" stroke="midnightblue" d="M419.145,-75.5057C453.112,-65.3919 493.599,-53.2276 530,-42 536.141,-40.1059 542.61,-38.0835 548.969,-36.0795"/>
<polygon fill="midnightblue" stroke="midnightblue" points="417.874,-72.2321 409.287,-78.438 419.869,-78.9416 417.874,-72.2321"/>
</g>
</g>
</svg>
