<?xml version="1.0" encoding="UTF-8" standalone="no"?>
<!DOCTYPE svg PUBLIC "-//W3C//DTD SVG 1.1//EN"
 "http://www.w3.org/Graphics/SVG/1.1/DTD/svg11.dtd">
<!-- Generated by graphviz version 2.36.0 (20140111.2315)
 -->
<!-- Title: src/expconfig/setups/SetupRegistry.h Pages: 1 -->
<svg width="364pt" height="152pt"
 viewBox="0.00 0.00 364.00 152.00" xmlns="http://www.w3.org/2000/svg" xmlns:xlink="http://www.w3.org/1999/xlink">
<g id="graph0" class="graph" transform="scale(1 1) rotate(0) translate(4 148)">
<title>src/expconfig/setups/SetupRegistry.h</title>
<polygon fill="white" stroke="none" points="-4,4 -4,-148 360,-148 360,4 -4,4"/>
<!-- Node0 -->
<g id="node1" class="node"><title>Node0</title>
<polygon fill="#bfbfbf" stroke="black" points="168.5,-113 168.5,-143 275.5,-143 275.5,-113 168.5,-113"/>
<text text-anchor="start" x="176.5" y="-131" font-family="Helvetica,sans-Serif" font-size="10.00">src/expconfig/setups</text>
<text text-anchor="middle" x="222" y="-120" font-family="Helvetica,sans-Serif" font-size="10.00">/SetupRegistry.h</text>
</g>
<!-- Node1 -->
<g id="node2" class="node"><title>Node1</title>
<g id="a_node2"><a xlink:href="_options_list_8h.html" target="_top" xlink:title="base/OptionsList.h">
<polygon fill="white" stroke="black" points="96,-56.5 96,-75.5 194,-75.5 194,-56.5 96,-56.5"/>
<text text-anchor="middle" x="145" y="-63.5" font-family="Helvetica,sans-Serif" font-size="10.00">base/OptionsList.h</text>
</a>
</g>
</g>
<!-- Node0&#45;&gt;Node1 -->
<g id="edge1" class="edge"><title>Node0&#45;&gt;Node1</title>
<path fill="none" stroke="midnightblue" d="M203.752,-112.781C191.871,-103.523 176.393,-91.4618 164.306,-82.0435"/>
<polygon fill="midnightblue" stroke="midnightblue" points="166.243,-79.1163 156.204,-75.7305 161.941,-84.6379 166.243,-79.1163"/>
</g>
<!-- Node3 -->
<g id="node4" class="node"><title>Node3</title>
<polygon fill="white" stroke="#bfbfbf" points="0,-0.5 0,-19.5 52,-19.5 52,-0.5 0,-0.5"/>
<text text-anchor="middle" x="26" y="-7.5" font-family="Helvetica,sans-Serif" font-size="10.00">memory</text>
</g>
<!-- Node0&#45;&gt;Node3 -->
<g id="edge9" class="edge"><title>Node0&#45;&gt;Node3</title>
<path fill="none" stroke="midnightblue" d="M168.362,-112.944C142.442,-104.649 111.684,-92.4974 87,-76 67.3945,-62.8966 49.5169,-42.3637 38.256,-27.8878"/>
<polygon fill="midnightblue" stroke="midnightblue" points="40.9574,-25.6568 32.1433,-19.7778 35.3674,-29.8702 40.9574,-25.6568"/>
</g>
<!-- Node4 -->
<g id="node5" class="node"><title>Node4</title>
<polygon fill="white" stroke="#bfbfbf" points="248.5,-0.5 248.5,-19.5 283.5,-19.5 283.5,-0.5 248.5,-0.5"/>
<text text-anchor="middle" x="266" y="-7.5" font-family="Helvetica,sans-Serif" font-size="10.00">map</text>
</g>
<!-- Node0&#45;&gt;Node4 -->
<g id="edge7" class="edge"><title>Node0&#45;&gt;Node4</title>
<path fill="none" stroke="midnightblue" d="M225.041,-112.827C228.381,-98.2799 234.309,-75.1297 242,-56 245.757,-46.6553 250.914,-36.7305 255.484,-28.586"/>
<polygon fill="midnightblue" stroke="midnightblue" points="258.652,-30.1006 260.636,-19.6931 252.595,-26.5919 258.652,-30.1006"/>
</g>
<!-- Node7 -->
<g id="node8" class="node"><title>Node7</title>
<polygon fill="white" stroke="#bfbfbf" points="250.5,-56.5 250.5,-75.5 279.5,-75.5 279.5,-56.5 250.5,-56.5"/>
<text text-anchor="middle" x="265" y="-63.5" font-family="Helvetica,sans-Serif" font-size="10.00">list</text>
</g>
<!-- Node0&#45;&gt;Node7 -->
<g id="edge8" class="edge"><title>Node0&#45;&gt;Node7</title>
<path fill="none" stroke="midnightblue" d="M232.19,-112.781C238.374,-104.152 246.303,-93.0882 252.818,-83.9987"/>
<polygon fill="midnightblue" stroke="midnightblue" points="255.763,-85.8976 258.743,-75.7305 250.073,-81.8199 255.763,-85.8976"/>
</g>
<!-- Node8 -->
<g id="node9" class="node"><title>Node8</title>
<polygon fill="white" stroke="#bfbfbf" points="297.5,-56.5 297.5,-75.5 356.5,-75.5 356.5,-56.5 297.5,-56.5"/>
<text text-anchor="middle" x="327" y="-63.5" font-family="Helvetica,sans-Serif" font-size="10.00">functional</text>
</g>
<!-- Node0&#45;&gt;Node8 -->
<g id="edge10" class="edge"><title>Node0&#45;&gt;Node8</title>
<path fill="none" stroke="midnightblue" d="M246.618,-112.933C263.7,-103.171 286.33,-90.2401 303.225,-80.5856"/>
<polygon fill="midnightblue" stroke="midnightblue" points="305.004,-83.6003 311.95,-75.6 301.531,-77.5226 305.004,-83.6003"/>
</g>
<!-- Node2 -->
<g id="node3" class="node"><title>Node2</title>
<polygon fill="white" stroke="#bfbfbf" points="70.5,-0.5 70.5,-19.5 111.5,-19.5 111.5,-0.5 70.5,-0.5"/>
<text text-anchor="middle" x="91" y="-7.5" font-family="Helvetica,sans-Serif" font-size="10.00">string</text>
</g>
<!-- Node1&#45;&gt;Node2 -->
<g id="edge2" class="edge"><title>Node1&#45;&gt;Node2</title>
<path fill="none" stroke="midnightblue" d="M136.083,-56.083C128.22,-48.2195 116.569,-36.5688 107.081,-27.0813"/>
<polygon fill="midnightblue" stroke="midnightblue" points="109.297,-24.3473 99.7511,-19.7511 104.347,-29.2971 109.297,-24.3473"/>
</g>
<!-- Node1&#45;&gt;Node3 -->
<g id="edge3" class="edge"><title>Node1&#45;&gt;Node3</title>
<path fill="none" stroke="midnightblue" d="M126.144,-56.4435C106.734,-47.6356 76.2699,-33.8116 54.0355,-23.722"/>
<polygon fill="midnightblue" stroke="midnightblue" points="55.3203,-20.4615 44.7677,-19.5164 52.4277,-26.836 55.3203,-20.4615"/>
</g>
<!-- Node1&#45;&gt;Node4 -->
<g id="edge4" class="edge"><title>Node1&#45;&gt;Node4</title>
<path fill="none" stroke="midnightblue" d="M164.173,-56.4435C184.374,-47.4283 216.349,-33.1583 239.075,-23.0161"/>
<polygon fill="midnightblue" stroke="midnightblue" points="240.783,-26.0867 248.488,-18.8151 237.93,-19.6944 240.783,-26.0867"/>
</g>
<!-- Node5 -->
<g id="node6" class="node"><title>Node5</title>
<polygon fill="white" stroke="#bfbfbf" points="130,-0.5 130,-19.5 160,-19.5 160,-0.5 130,-0.5"/>
<text text-anchor="middle" x="145" y="-7.5" font-family="Helvetica,sans-Serif" font-size="10.00">set</text>
</g>
<!-- Node1&#45;&gt;Node5 -->
<g id="edge5" class="edge"><title>Node1&#45;&gt;Node5</title>
<path fill="none" stroke="midnightblue" d="M145,-56.083C145,-49.0059 145,-38.8611 145,-29.9865"/>
<polygon fill="midnightblue" stroke="midnightblue" points="148.5,-29.751 145,-19.7511 141.5,-29.7511 148.5,-29.751"/>
</g>
<!-- Node6 -->
<g id="node7" class="node"><title>Node6</title>
<polygon fill="white" stroke="#bfbfbf" points="178,-0.5 178,-19.5 230,-19.5 230,-0.5 178,-0.5"/>
<text text-anchor="middle" x="204" y="-7.5" font-family="Helvetica,sans-Serif" font-size="10.00">sstream</text>
</g>
<!-- Node1&#45;&gt;Node6 -->
<g id="edge6" class="edge"><title>Node1&#45;&gt;Node6</title>
<path fill="none" stroke="midnightblue" d="M154.479,-56.324C163.201,-48.3414 176.343,-36.3128 186.898,-26.6529"/>
<polygon fill="midnightblue" stroke="midnightblue" points="189.334,-29.1674 194.348,-19.8339 184.608,-24.0036 189.334,-29.1674"/>
</g>
</g>
</svg>
