<?xml version="1.0" encoding="UTF-8" standalone="no"?>
<!DOCTYPE svg PUBLIC "-//W3C//DTD SVG 1.1//EN"
 "http://www.w3.org/Graphics/SVG/1.1/DTD/svg11.dtd">
<!-- Generated by graphviz version 2.36.0 (20140111.2315)
 -->
<!-- Title: src/expconfig/setups/Setup_2012_12_Compton.cc Pages: 1 -->
<svg width="3713pt" height="580pt"
 viewBox="0.00 0.00 3713.06 580.00" xmlns="http://www.w3.org/2000/svg" xmlns:xlink="http://www.w3.org/1999/xlink">
<g id="graph0" class="graph" transform="scale(1 1) rotate(0) translate(4 576)">
<title>src/expconfig/setups/Setup_2012_12_Compton.cc</title>
<polygon fill="white" stroke="none" points="-4,4 -4,-576 3709.06,-576 3709.06,4 -4,4"/>
<!-- Node0 -->
<g id="node1" class="node"><title>Node0</title>
<polygon fill="#bfbfbf" stroke="black" points="2995.06,-541 2995.06,-571 3141.06,-571 3141.06,-541 2995.06,-541"/>
<text text-anchor="start" x="3003.06" y="-559" font-family="Helvetica,sans-Serif" font-size="10.00">src/expconfig/setups</text>
<text text-anchor="middle" x="3068.06" y="-548" font-family="Helvetica,sans-Serif" font-size="10.00">/Setup_2012_12_Compton.cc</text>
</g>
<!-- Node1 -->
<g id="node2" class="node"><title>Node1</title>
<g id="a_node2"><a xlink:href="_setup_8h.html" target="_top" xlink:title="Setup.h">
<polygon fill="white" stroke="black" points="1422.06,-484.5 1422.06,-503.5 1472.06,-503.5 1472.06,-484.5 1422.06,-484.5"/>
<text text-anchor="middle" x="1447.06" y="-491.5" font-family="Helvetica,sans-Serif" font-size="10.00">Setup.h</text>
</a>
</g>
</g>
<!-- Node0&#45;&gt;Node1 -->
<g id="edge1" class="edge"><title>Node0&#45;&gt;Node1</title>
<path fill="none" stroke="midnightblue" d="M2995,-552.296C2710.92,-541.781 1685.61,-503.83 1482.26,-496.303"/>
<polygon fill="midnightblue" stroke="midnightblue" points="1482.26,-492.801 1472.14,-495.928 1482.01,-499.796 1482.26,-492.801"/>
</g>
<!-- Node10 -->
<g id="node11" class="node"><title>Node10</title>
<g id="a_node11"><a xlink:href="base_2std__ext_2math_8h.html" target="_top" xlink:title="base/std_ext/math.h">
<polygon fill="white" stroke="black" points="3599.06,-118.5 3599.06,-137.5 3705.06,-137.5 3705.06,-118.5 3599.06,-118.5"/>
<text text-anchor="middle" x="3652.06" y="-125.5" font-family="Helvetica,sans-Serif" font-size="10.00">base/std_ext/math.h</text>
</a>
</g>
</g>
<!-- Node0&#45;&gt;Node10 -->
<g id="edge163" class="edge"><title>Node0&#45;&gt;Node10</title>
<path fill="none" stroke="midnightblue" d="M3141.24,-555.027C3293.45,-553.103 3630.06,-537.692 3630.06,-439 3630.06,-439 3630.06,-439 3630.06,-263 3630.06,-221.311 3640.56,-173.279 3647.05,-147.559"/>
<polygon fill="midnightblue" stroke="midnightblue" points="3650.49,-148.258 3649.62,-137.698 3643.71,-146.491 3650.49,-148.258"/>
</g>
<!-- Node62 -->
<g id="node63" class="node"><title>Node62</title>
<g id="a_node63"><a xlink:href="_c_b_8h.html" target="_top" xlink:title="detectors/CB.h">
<polygon fill="white" stroke="black" points="3078.56,-484.5 3078.56,-503.5 3161.56,-503.5 3161.56,-484.5 3078.56,-484.5"/>
<text text-anchor="middle" x="3120.06" y="-491.5" font-family="Helvetica,sans-Serif" font-size="10.00">detectors/CB.h</text>
</a>
</g>
</g>
<!-- Node0&#45;&gt;Node62 -->
<g id="edge157" class="edge"><title>Node0&#45;&gt;Node62</title>
<path fill="none" stroke="midnightblue" d="M3080.38,-540.781C3088.02,-531.972 3097.85,-520.626 3105.82,-511.433"/>
<polygon fill="midnightblue" stroke="midnightblue" points="3108.59,-513.58 3112.5,-503.731 3103.3,-508.995 3108.59,-513.58"/>
</g>
<!-- Node63 -->
<g id="node64" class="node"><title>Node63</title>
<g id="a_node64"><a xlink:href="_p_i_d_8h.html" target="_top" xlink:title="detectors/PID.h">
<polygon fill="white" stroke="black" points="2974.06,-484.5 2974.06,-503.5 3060.06,-503.5 3060.06,-484.5 2974.06,-484.5"/>
<text text-anchor="middle" x="3017.06" y="-491.5" font-family="Helvetica,sans-Serif" font-size="10.00">detectors/PID.h</text>
</a>
</g>
</g>
<!-- Node0&#45;&gt;Node63 -->
<g id="edge160" class="edge"><title>Node0&#45;&gt;Node63</title>
<path fill="none" stroke="midnightblue" d="M3055.98,-540.781C3048.49,-531.972 3038.84,-520.626 3031.03,-511.433"/>
<polygon fill="midnightblue" stroke="midnightblue" points="3033.63,-509.083 3024.48,-503.731 3028.29,-513.617 3033.63,-509.083"/>
</g>
<!-- Node2 -->
<g id="node3" class="node"><title>Node2</title>
<g id="a_node3"><a xlink:href="_exp_config_8h.html" target="_top" xlink:title="expconfig/ExpConfig.h">
<polygon fill="white" stroke="black" points="1821.06,-372.5 1821.06,-391.5 1937.06,-391.5 1937.06,-372.5 1821.06,-372.5"/>
<text text-anchor="middle" x="1879.06" y="-379.5" font-family="Helvetica,sans-Serif" font-size="10.00">expconfig/ExpConfig.h</text>
</a>
</g>
</g>
<!-- Node1&#45;&gt;Node2 -->
<g id="edge2" class="edge"><title>Node1&#45;&gt;Node2</title>
<path fill="none" stroke="midnightblue" d="M1472.15,-486.61C1543.16,-468.53 1746.13,-416.848 1835.7,-394.042"/>
<polygon fill="midnightblue" stroke="midnightblue" points="1836.71,-397.397 1845.53,-391.537 1834.98,-390.613 1836.71,-397.397"/>
</g>
<!-- Node15 -->
<g id="node16" class="node"><title>Node15</title>
<polygon fill="white" stroke="#bfbfbf" points="307.562,-0.5 307.562,-19.5 348.562,-19.5 348.562,-0.5 307.562,-0.5"/>
<text text-anchor="middle" x="328.062" y="-7.5" font-family="Helvetica,sans-Serif" font-size="10.00">string</text>
</g>
<!-- Node1&#45;&gt;Node15 -->
<g id="edge156" class="edge"><title>Node1&#45;&gt;Node15</title>
<path fill="none" stroke="midnightblue" d="M1422.01,-492.401C1232.97,-487.725 38.0616,-455.305 38.0616,-383 38.0616,-383 38.0616,-383 38.0616,-127 38.0616,-78.1172 78.2252,-77.6311 122.062,-56 179.893,-27.4629 255.682,-16.8917 297.327,-13.0736"/>
<polygon fill="midnightblue" stroke="midnightblue" points="297.723,-16.5528 307.392,-12.2227 297.133,-9.57764 297.723,-16.5528"/>
</g>
<!-- Node23 -->
<g id="node24" class="node"><title>Node23</title>
<polygon fill="white" stroke="#bfbfbf" points="274.562,-56.5 274.562,-75.5 333.562,-75.5 333.562,-56.5 274.562,-56.5"/>
<text text-anchor="middle" x="304.062" y="-63.5" font-family="Helvetica,sans-Serif" font-size="10.00">functional</text>
</g>
<!-- Node1&#45;&gt;Node23 -->
<g id="edge155" class="edge"><title>Node1&#45;&gt;Node23</title>
<path fill="none" stroke="midnightblue" d="M1421.99,-492.999C1236.51,-492.891 83.0645,-490.512 24.0616,-448 -0.923852,-429.998 0.0615901,-413.795 0.0615901,-383 0.0615901,-383 0.0615901,-383 0.0615901,-263 0.0615901,-138.644 181.972,-89.3965 264.357,-73.4694"/>
<polygon fill="midnightblue" stroke="midnightblue" points="265.17,-76.8783 274.359,-71.6054 263.887,-69.9967 265.17,-76.8783"/>
</g>
<!-- Node26 -->
<g id="node27" class="node"><title>Node26</title>
<g id="a_node27"><a xlink:href="_calibration_8h.html" target="_top" xlink:title="calibration/Calibration.h">
<polygon fill="white" stroke="black" points="1297.56,-316.5 1297.56,-335.5 1416.56,-335.5 1416.56,-316.5 1297.56,-316.5"/>
<text text-anchor="middle" x="1357.06" y="-323.5" font-family="Helvetica,sans-Serif" font-size="10.00">calibration/Calibration.h</text>
</a>
</g>
</g>
<!-- Node1&#45;&gt;Node26 -->
<g id="edge147" class="edge"><title>Node1&#45;&gt;Node26</title>
<path fill="none" stroke="midnightblue" d="M1442.22,-484.075C1427.93,-457.719 1385.73,-379.878 1366.64,-344.661"/>
<polygon fill="midnightblue" stroke="midnightblue" points="1369.55,-342.691 1361.71,-335.568 1363.4,-346.027 1369.55,-342.691"/>
</g>
<!-- Node43 -->
<g id="node44" class="node"><title>Node43</title>
<g id="a_node44"><a xlink:href="_t_i_d_8h.html" target="_top" xlink:title="tree/TID.h">
<polygon fill="white" stroke="black" points="2506.56,-186.5 2506.56,-205.5 2567.56,-205.5 2567.56,-186.5 2506.56,-186.5"/>
<text text-anchor="middle" x="2537.06" y="-193.5" font-family="Helvetica,sans-Serif" font-size="10.00">tree/TID.h</text>
</a>
</g>
</g>
<!-- Node1&#45;&gt;Node43 -->
<g id="edge146" class="edge"><title>Node1&#45;&gt;Node43</title>
<path fill="none" stroke="midnightblue" d="M1472.44,-493.065C1606.9,-493.002 2235.97,-487.536 2400.06,-392 2471.46,-350.43 2514.83,-255.061 2530.46,-215.119"/>
<polygon fill="midnightblue" stroke="midnightblue" points="2533.79,-216.206 2534.05,-205.614 2527.24,-213.728 2533.79,-216.206"/>
</g>
<!-- Node50 -->
<g id="node51" class="node"><title>Node50</title>
<g id="a_node51"><a xlink:href="_options_list_8h.html" target="_top" xlink:title="base/OptionsList.h">
<polygon fill="white" stroke="black" points="619.062,-254.5 619.062,-273.5 717.062,-273.5 717.062,-254.5 619.062,-254.5"/>
<text text-anchor="middle" x="668.062" y="-261.5" font-family="Helvetica,sans-Serif" font-size="10.00">base/OptionsList.h</text>
</a>
</g>
</g>
<!-- Node1&#45;&gt;Node50 -->
<g id="edge154" class="edge"><title>Node1&#45;&gt;Node50</title>
<path fill="none" stroke="midnightblue" d="M1421.85,-489.602C1377.28,-483.317 1281.82,-468.613 1203.06,-448 1007.51,-396.821 780.414,-309.578 699.032,-277.398"/>
<polygon fill="midnightblue" stroke="midnightblue" points="700.208,-274.099 689.622,-273.665 697.627,-280.606 700.208,-274.099"/>
</g>
<!-- Node51 -->
<g id="node52" class="node"><title>Node51</title>
<g id="a_node52"><a xlink:href="piecewise__interval_8h.html" target="_top" xlink:title="base/piecewise_interval.h">
<polygon fill="white" stroke="black" points="2585.56,-186.5 2585.56,-205.5 2714.56,-205.5 2714.56,-186.5 2585.56,-186.5"/>
<text text-anchor="middle" x="2650.06" y="-193.5" font-family="Helvetica,sans-Serif" font-size="10.00">base/piecewise_interval.h</text>
</a>
</g>
</g>
<!-- Node1&#45;&gt;Node51 -->
<g id="edge153" class="edge"><title>Node1&#45;&gt;Node51</title>
<path fill="none" stroke="midnightblue" d="M1472.19,-492.163C1649.49,-486.094 2705.06,-447.264 2705.06,-383 2705.06,-383 2705.06,-383 2705.06,-325 2705.06,-282.295 2678.9,-237.61 2662.66,-213.99"/>
<polygon fill="midnightblue" stroke="midnightblue" points="2665.45,-211.874 2656.81,-205.751 2659.75,-215.929 2665.45,-211.874"/>
</g>
<!-- Node55 -->
<g id="node56" class="node"><title>Node55</title>
<g id="a_node56"><a xlink:href="_setup_registry_8h.html" target="_top" xlink:title="SetupRegistry.h">
<polygon fill="white" stroke="black" points="1030.56,-316.5 1030.56,-335.5 1117.56,-335.5 1117.56,-316.5 1030.56,-316.5"/>
<text text-anchor="middle" x="1074.06" y="-323.5" font-family="Helvetica,sans-Serif" font-size="10.00">SetupRegistry.h</text>
</a>
</g>
</g>
<!-- Node1&#45;&gt;Node55 -->
<g id="edge112" class="edge"><title>Node1&#45;&gt;Node55</title>
<path fill="none" stroke="midnightblue" d="M1421.98,-489.54C1366.92,-480.972 1233.02,-454.745 1141.06,-392 1120.47,-377.951 1100.44,-357.319 1087.72,-343.087"/>
<polygon fill="midnightblue" stroke="midnightblue" points="1090.35,-340.773 1081.13,-335.544 1085.08,-345.378 1090.35,-340.773"/>
</g>
<!-- Node56 -->
<g id="node57" class="node"><title>Node56</title>
<g id="a_node57"><a xlink:href="_unpacker_acqu_8h.html" target="_top" xlink:title="unpacker/UnpackerAcqu.h">
<polygon fill="white" stroke="black" points="2815.06,-428.5 2815.06,-447.5 2947.06,-447.5 2947.06,-428.5 2815.06,-428.5"/>
<text text-anchor="middle" x="2881.06" y="-435.5" font-family="Helvetica,sans-Serif" font-size="10.00">unpacker/UnpackerAcqu.h</text>
</a>
</g>
</g>
<!-- Node1&#45;&gt;Node56 -->
<g id="edge118" class="edge"><title>Node1&#45;&gt;Node56</title>
<path fill="none" stroke="midnightblue" d="M1472.17,-492.3C1602.7,-488.622 2216.87,-470.831 2719.06,-448 2747.01,-446.73 2777.65,-445.09 2804.69,-443.56"/>
<polygon fill="midnightblue" stroke="midnightblue" points="2805.08,-447.043 2814.87,-442.979 2804.69,-440.055 2805.08,-447.043"/>
</g>
<!-- Node58 -->
<g id="node59" class="node"><title>Node58</title>
<g id="a_node59"><a xlink:href="_unpacker_a2_geant_8h.html" target="_top" xlink:title="unpacker/UnpackerA2Geant.h">
<polygon fill="white" stroke="black" points="1805.06,-428.5 1805.06,-447.5 1953.06,-447.5 1953.06,-428.5 1805.06,-428.5"/>
<text text-anchor="middle" x="1879.06" y="-435.5" font-family="Helvetica,sans-Serif" font-size="10.00">unpacker/UnpackerA2Geant.h</text>
</a>
</g>
</g>
<!-- Node1&#45;&gt;Node58 -->
<g id="edge130" class="edge"><title>Node1&#45;&gt;Node58</title>
<path fill="none" stroke="midnightblue" d="M1472.15,-489.863C1535,-482.007 1701.25,-461.227 1800.72,-448.793"/>
<polygon fill="midnightblue" stroke="midnightblue" points="1801.23,-452.256 1810.72,-447.542 1800.37,-445.31 1801.23,-452.256"/>
</g>
<!-- Node61 -->
<g id="node62" class="node"><title>Node61</title>
<g id="a_node62"><a xlink:href="_data_manager_8h.html" target="_top" xlink:title="calibration/DataManager.h">
<polygon fill="white" stroke="black" points="1150.56,-372.5 1150.56,-391.5 1281.56,-391.5 1281.56,-372.5 1150.56,-372.5"/>
<text text-anchor="middle" x="1216.06" y="-379.5" font-family="Helvetica,sans-Serif" font-size="10.00">calibration/DataManager.h</text>
</a>
</g>
</g>
<!-- Node1&#45;&gt;Node61 -->
<g id="edge148" class="edge"><title>Node1&#45;&gt;Node61</title>
<path fill="none" stroke="midnightblue" d="M1421.85,-488.637C1390.9,-482.587 1337.42,-469.848 1296.06,-448 1271.5,-435.024 1247.3,-413.881 1232.07,-399.249"/>
<polygon fill="midnightblue" stroke="midnightblue" points="1234.16,-396.4 1224.58,-391.883 1229.25,-401.39 1234.16,-396.4"/>
</g>
<!-- Node3 -->
<g id="node4" class="node"><title>Node3</title>
<g id="a_node4"><a xlink:href="_detector__t_8h.html" target="_top" xlink:title="base/Detector_t.h">
<polygon fill="white" stroke="black" points="3170.56,-186.5 3170.56,-205.5 3265.56,-205.5 3265.56,-186.5 3170.56,-186.5"/>
<text text-anchor="middle" x="3218.06" y="-193.5" font-family="Helvetica,sans-Serif" font-size="10.00">base/Detector_t.h</text>
</a>
</g>
</g>
<!-- Node2&#45;&gt;Node3 -->
<g id="edge3" class="edge"><title>Node2&#45;&gt;Node3</title>
<path fill="none" stroke="midnightblue" d="M1937.38,-376.37C2024.53,-369.204 2193.82,-354.322 2337.06,-336 2648.73,-296.136 3019.85,-232.134 3160.34,-207.307"/>
<polygon fill="midnightblue" stroke="midnightblue" points="3161.22,-210.707 3170.45,-205.518 3160,-203.814 3161.22,-210.707"/>
</g>
<!-- Node17 -->
<g id="node18" class="node"><title>Node17</title>
<g id="a_node18"><a xlink:href="_reconstruct__traits_8h.html" target="_top" xlink:title="reconstruct/Reconstruct\l_traits.h">
<polygon fill="white" stroke="black" points="1979.06,-249 1979.06,-279 2101.06,-279 2101.06,-249 1979.06,-249"/>
<text text-anchor="start" x="1987.06" y="-267" font-family="Helvetica,sans-Serif" font-size="10.00">reconstruct/Reconstruct</text>
<text text-anchor="middle" x="2040.06" y="-256" font-family="Helvetica,sans-Serif" font-size="10.00">_traits.h</text>
</a>
</g>
</g>
<!-- Node2&#45;&gt;Node17 -->
<g id="edge20" class="edge"><title>Node2&#45;&gt;Node17</title>
<path fill="none" stroke="midnightblue" d="M1890.9,-372.47C1916.21,-354.238 1976.16,-311.041 2011.88,-285.307"/>
<polygon fill="midnightblue" stroke="midnightblue" points="2014.33,-287.852 2020.4,-279.167 2010.24,-282.173 2014.33,-287.852"/>
</g>
<!-- Node20 -->
<g id="node21" class="node"><title>Node20</title>
<polygon fill="white" stroke="#bfbfbf" points="1234.06,-56.5 1234.06,-75.5 1286.06,-75.5 1286.06,-56.5 1234.06,-56.5"/>
<text text-anchor="middle" x="1260.06" y="-63.5" font-family="Helvetica,sans-Serif" font-size="10.00">memory</text>
</g>
<!-- Node2&#45;&gt;Node20 -->
<g id="edge109" class="edge"><title>Node2&#45;&gt;Node20</title>
<path fill="none" stroke="midnightblue" d="M1879.81,-372.337C1882.04,-340.618 1885.01,-230.06 1824.06,-180 1737.64,-109.012 1421.15,-195.869 1322.06,-144 1297.17,-130.971 1278.76,-103.123 1268.72,-84.7336"/>
<polygon fill="midnightblue" stroke="midnightblue" points="1271.72,-82.9164 1264.02,-75.6444 1265.51,-86.1342 1271.72,-82.9164"/>
</g>
<!-- Node21 -->
<g id="node22" class="node"><title>Node21</title>
<polygon fill="white" stroke="#bfbfbf" points="2221.56,-56.5 2221.56,-75.5 2250.56,-75.5 2250.56,-56.5 2221.56,-56.5"/>
<text text-anchor="middle" x="2236.06" y="-63.5" font-family="Helvetica,sans-Serif" font-size="10.00">list</text>
</g>
<!-- Node2&#45;&gt;Node21 -->
<g id="edge110" class="edge"><title>Node2&#45;&gt;Node21</title>
<path fill="none" stroke="midnightblue" d="M1935.6,-372.475C2025.31,-357.755 2194.11,-324.788 2233.06,-280 2282.37,-223.302 2264.83,-186.049 2252.06,-112 2250.49,-102.91 2247.27,-93.2219 2244.12,-85.1726"/>
<polygon fill="midnightblue" stroke="midnightblue" points="2247.26,-83.6018 2240.17,-75.7229 2240.8,-86.2993 2247.26,-83.6018"/>
</g>
<!-- Node25 -->
<g id="node26" class="node"><title>Node25</title>
<polygon fill="white" stroke="#bfbfbf" points="1780.56,-186.5 1780.56,-205.5 1815.56,-205.5 1815.56,-186.5 1780.56,-186.5"/>
<text text-anchor="middle" x="1798.06" y="-193.5" font-family="Helvetica,sans-Serif" font-size="10.00">map</text>
</g>
<!-- Node2&#45;&gt;Node25 -->
<g id="edge111" class="edge"><title>Node2&#45;&gt;Node25</title>
<path fill="none" stroke="midnightblue" d="M1875.15,-372.125C1862.62,-343.647 1823.23,-254.166 1806.12,-215.31"/>
<polygon fill="midnightblue" stroke="midnightblue" points="1809.16,-213.528 1801.93,-205.786 1802.75,-216.348 1809.16,-213.528"/>
</g>
<!-- Node2&#45;&gt;Node26 -->
<g id="edge38" class="edge"><title>Node2&#45;&gt;Node26</title>
<path fill="none" stroke="midnightblue" d="M1820.92,-373.607C1816.23,-373.049 1811.57,-372.507 1807.06,-372 1672.72,-356.889 1515.52,-341.748 1426.99,-333.453"/>
<polygon fill="midnightblue" stroke="midnightblue" points="1427.08,-329.947 1416.8,-332.501 1426.43,-336.917 1427.08,-329.947"/>
</g>
<!-- Node2&#45;&gt;Node51 -->
<g id="edge98" class="edge"><title>Node2&#45;&gt;Node51</title>
<path fill="none" stroke="midnightblue" d="M1937.4,-379.359C2017.82,-376.029 2166.79,-366.006 2290.06,-336 2419.29,-304.545 2564.57,-238.29 2623.31,-210.12"/>
<polygon fill="midnightblue" stroke="midnightblue" points="2625.13,-213.128 2632.61,-205.628 2622.08,-206.824 2625.13,-213.128"/>
</g>
<!-- Node4 -->
<g id="node5" class="node"><title>Node4</title>
<g id="a_node5"><a xlink:href="bitflag_8h.html" target="_top" xlink:title="base/bitflag.h">
<polygon fill="white" stroke="black" points="3322.56,-118.5 3322.56,-137.5 3397.56,-137.5 3397.56,-118.5 3322.56,-118.5"/>
<text text-anchor="middle" x="3360.06" y="-125.5" font-family="Helvetica,sans-Serif" font-size="10.00">base/bitflag.h</text>
</a>
</g>
</g>
<!-- Node3&#45;&gt;Node4 -->
<g id="edge4" class="edge"><title>Node3&#45;&gt;Node4</title>
<path fill="none" stroke="midnightblue" d="M3236.63,-186.372C3260.97,-175.057 3303.9,-155.105 3332.16,-141.968"/>
<polygon fill="midnightblue" stroke="midnightblue" points="3333.9,-145.019 3341.49,-137.63 3330.95,-138.671 3333.9,-145.019"/>
</g>
<!-- Node6 -->
<g id="node7" class="node"><title>Node6</title>
<g id="a_node7"><a xlink:href="vec3_8h.html" target="_top" xlink:title="base/vec/vec3.h">
<polygon fill="white" stroke="black" points="3415.56,-118.5 3415.56,-137.5 3504.56,-137.5 3504.56,-118.5 3415.56,-118.5"/>
<text text-anchor="middle" x="3460.06" y="-125.5" font-family="Helvetica,sans-Serif" font-size="10.00">base/vec/vec3.h</text>
</a>
</g>
</g>
<!-- Node3&#45;&gt;Node6 -->
<g id="edge6" class="edge"><title>Node3&#45;&gt;Node6</title>
<path fill="none" stroke="midnightblue" d="M3249.68,-186.486C3287.05,-176.407 3351.11,-159.085 3406.06,-144 3410.46,-142.794 3415.05,-141.527 3419.62,-140.262"/>
<polygon fill="midnightblue" stroke="midnightblue" points="3420.81,-143.564 3429.51,-137.52 3418.94,-136.818 3420.81,-143.564"/>
</g>
<!-- Node3&#45;&gt;Node10 -->
<g id="edge11" class="edge"><title>Node3&#45;&gt;Node10</title>
<path fill="none" stroke="midnightblue" d="M3265.75,-187.748C3344.33,-175.798 3501.05,-151.965 3588.8,-138.62"/>
<polygon fill="midnightblue" stroke="midnightblue" points="3589.53,-142.05 3598.89,-137.086 3588.48,-135.129 3589.53,-142.05"/>
</g>
<!-- Node12 -->
<g id="node13" class="node"><title>Node12</title>
<polygon fill="white" stroke="#bfbfbf" points="2594.06,-0.5 2594.06,-19.5 2638.06,-19.5 2638.06,-0.5 2594.06,-0.5"/>
<text text-anchor="middle" x="2616.06" y="-7.5" font-family="Helvetica,sans-Serif" font-size="10.00">vector</text>
</g>
<!-- Node3&#45;&gt;Node12 -->
<g id="edge19" class="edge"><title>Node3&#45;&gt;Node12</title>
<path fill="none" stroke="midnightblue" d="M3226.2,-186.233C3239.25,-171.045 3262.34,-138.884 3251.06,-112 3237.33,-79.2499 3226.38,-70.7118 3194.06,-56 3095.64,-11.2048 2755.24,-9.90425 2648.4,-10.6426"/>
<polygon fill="midnightblue" stroke="midnightblue" points="2648.21,-7.14394 2638.24,-10.7242 2648.27,-14.1437 2648.21,-7.14394"/>
</g>
<!-- Node13 -->
<g id="node14" class="node"><title>Node13</title>
<polygon fill="white" stroke="#bfbfbf" points="3106.06,-118.5 3106.06,-137.5 3152.06,-137.5 3152.06,-118.5 3106.06,-118.5"/>
<text text-anchor="middle" x="3129.06" y="-125.5" font-family="Helvetica,sans-Serif" font-size="10.00">cstdint</text>
</g>
<!-- Node3&#45;&gt;Node13 -->
<g id="edge15" class="edge"><title>Node3&#45;&gt;Node13</title>
<path fill="none" stroke="midnightblue" d="M3206.43,-186.372C3191.9,-175.6 3166.82,-157.002 3149.16,-143.906"/>
<polygon fill="midnightblue" stroke="midnightblue" points="3150.82,-140.776 3140.7,-137.63 3146.65,-146.398 3150.82,-140.776"/>
</g>
<!-- Node14 -->
<g id="node15" class="node"><title>Node14</title>
<polygon fill="white" stroke="#bfbfbf" points="2644.56,-56.5 2644.56,-75.5 2703.56,-75.5 2703.56,-56.5 2644.56,-56.5"/>
<text text-anchor="middle" x="2674.06" y="-63.5" font-family="Helvetica,sans-Serif" font-size="10.00">stdexcept</text>
</g>
<!-- Node3&#45;&gt;Node14 -->
<g id="edge16" class="edge"><title>Node3&#45;&gt;Node14</title>
<path fill="none" stroke="midnightblue" d="M3215.02,-186.287C3208.37,-168.697 3190.72,-129.161 3161.06,-112 3077.23,-63.4894 2827.52,-89.5691 2714.01,-75.7467"/>
<polygon fill="midnightblue" stroke="midnightblue" points="2714.17,-72.2359 2703.78,-74.3321 2713.21,-79.1698 2714.17,-72.2359"/>
</g>
<!-- Node3&#45;&gt;Node15 -->
<g id="edge17" class="edge"><title>Node3&#45;&gt;Node15</title>
<path fill="none" stroke="midnightblue" d="M3170.28,-193.527C3081.96,-190.809 2887.21,-184.843 2723.06,-180 2583.73,-175.889 1600.74,-189.727 1469.06,-144 1446.56,-136.185 1446.71,-123.876 1426.06,-112 1371.17,-80.4354 1356.78,-70.1414 1295.06,-56 1110.85,-13.7938 504.031,-11.0145 359.269,-10.9623"/>
<polygon fill="midnightblue" stroke="midnightblue" points="358.912,-7.4622 348.912,-10.9631 358.912,-14.4622 358.912,-7.4622"/>
</g>
<!-- Node16 -->
<g id="node17" class="node"><title>Node16</title>
<polygon fill="white" stroke="#bfbfbf" points="2722.06,-56.5 2722.06,-75.5 2784.06,-75.5 2784.06,-56.5 2722.06,-56.5"/>
<text text-anchor="middle" x="2753.06" y="-63.5" font-family="Helvetica,sans-Serif" font-size="10.00">type_traits</text>
</g>
<!-- Node3&#45;&gt;Node16 -->
<g id="edge18" class="edge"><title>Node3&#45;&gt;Node16</title>
<path fill="none" stroke="midnightblue" d="M3223.51,-186.422C3233.33,-169.764 3251.27,-132.849 3232.06,-112 3200.45,-77.6939 2874.24,-82.7928 2794.36,-75.6415"/>
<polygon fill="midnightblue" stroke="midnightblue" points="2794.76,-72.1647 2784.43,-74.4913 2793.96,-79.1183 2794.76,-72.1647"/>
</g>
<!-- Node5 -->
<g id="node6" class="node"><title>Node5</title>
<polygon fill="white" stroke="#bfbfbf" points="3339.56,-56.5 3339.56,-75.5 3380.56,-75.5 3380.56,-56.5 3339.56,-56.5"/>
<text text-anchor="middle" x="3360.06" y="-63.5" font-family="Helvetica,sans-Serif" font-size="10.00">bitset</text>
</g>
<!-- Node4&#45;&gt;Node5 -->
<g id="edge5" class="edge"><title>Node4&#45;&gt;Node5</title>
<path fill="none" stroke="midnightblue" d="M3360.06,-118.403C3360.06,-109.938 3360.06,-96.7283 3360.06,-85.8199"/>
<polygon fill="midnightblue" stroke="midnightblue" points="3363.56,-85.5806 3360.06,-75.5806 3356.56,-85.5806 3363.56,-85.5806"/>
</g>
<!-- Node7 -->
<g id="node8" class="node"><title>Node7</title>
<g id="a_node8"><a xlink:href="vec2_8h.html" target="_top" xlink:title="vec2.h">
<polygon fill="white" stroke="black" points="3487.06,-56.5 3487.06,-75.5 3533.06,-75.5 3533.06,-56.5 3487.06,-56.5"/>
<text text-anchor="middle" x="3510.06" y="-63.5" font-family="Helvetica,sans-Serif" font-size="10.00">vec2.h</text>
</a>
</g>
</g>
<!-- Node6&#45;&gt;Node7 -->
<g id="edge7" class="edge"><title>Node6&#45;&gt;Node7</title>
<path fill="none" stroke="midnightblue" d="M3467.23,-118.403C3474.8,-109.314 3486.93,-94.7559 3496.35,-83.4489"/>
<polygon fill="midnightblue" stroke="midnightblue" points="3499.2,-85.5035 3502.91,-75.5806 3493.82,-81.0222 3499.2,-85.5035"/>
</g>
<!-- Node8 -->
<g id="node9" class="node"><title>Node8</title>
<polygon fill="white" stroke="#bfbfbf" points="3399.06,-0.5 3399.06,-19.5 3443.06,-19.5 3443.06,-0.5 3399.06,-0.5"/>
<text text-anchor="middle" x="3421.06" y="-7.5" font-family="Helvetica,sans-Serif" font-size="10.00">cmath</text>
</g>
<!-- Node6&#45;&gt;Node8 -->
<g id="edge10" class="edge"><title>Node6&#45;&gt;Node8</title>
<path fill="none" stroke="midnightblue" d="M3457.13,-118.281C3450.78,-99.3787 3435.62,-54.295 3427.11,-29"/>
<polygon fill="midnightblue" stroke="midnightblue" points="3430.43,-27.868 3423.92,-19.5048 3423.79,-30.0988 3430.43,-27.868"/>
</g>
<!-- Node9 -->
<g id="node10" class="node"><title>Node9</title>
<polygon fill="white" stroke="#bfbfbf" points="2977.06,-56.5 2977.06,-75.5 3029.06,-75.5 3029.06,-56.5 2977.06,-56.5"/>
<text text-anchor="middle" x="3003.06" y="-63.5" font-family="Helvetica,sans-Serif" font-size="10.00">ostream</text>
</g>
<!-- Node6&#45;&gt;Node9 -->
<g id="edge9" class="edge"><title>Node6&#45;&gt;Node9</title>
<path fill="none" stroke="midnightblue" d="M3432.51,-118.434C3424.09,-116.063 3414.75,-113.682 3406.06,-112 3272.27,-86.1207 3110.41,-73.65 3039.41,-69.1064"/>
<polygon fill="midnightblue" stroke="midnightblue" points="3039.41,-65.5996 3029.21,-68.4686 3038.97,-72.586 3039.41,-65.5996"/>
</g>
<!-- Node7&#45;&gt;Node8 -->
<g id="edge8" class="edge"><title>Node7&#45;&gt;Node8</title>
<path fill="none" stroke="midnightblue" d="M3495.76,-56.324C3481.88,-47.9002 3460.57,-34.9709 3444.26,-25.0741"/>
<polygon fill="midnightblue" stroke="midnightblue" points="3445.69,-21.8495 3435.33,-19.6545 3442.06,-27.8341 3445.69,-21.8495"/>
</g>
<!-- Node10&#45;&gt;Node8 -->
<g id="edge12" class="edge"><title>Node10&#45;&gt;Node8</title>
<path fill="none" stroke="midnightblue" d="M3652.44,-118.128C3652.55,-103.063 3650.46,-72.5133 3633.06,-56 3607.53,-31.7691 3506.07,-18.9193 3453.31,-13.7582"/>
<polygon fill="midnightblue" stroke="midnightblue" points="3453.42,-10.2536 3443.14,-12.7998 3452.77,-17.2227 3453.42,-10.2536"/>
</g>
<!-- Node11 -->
<g id="node12" class="node"><title>Node11</title>
<polygon fill="white" stroke="#bfbfbf" points="3551.06,-56.5 3551.06,-75.5 3591.06,-75.5 3591.06,-56.5 3551.06,-56.5"/>
<text text-anchor="middle" x="3571.06" y="-63.5" font-family="Helvetica,sans-Serif" font-size="10.00">limits</text>
</g>
<!-- Node10&#45;&gt;Node11 -->
<g id="edge13" class="edge"><title>Node10&#45;&gt;Node11</title>
<path fill="none" stroke="midnightblue" d="M3640.46,-118.403C3627.58,-108.869 3606.59,-93.3154 3591.06,-81.8106"/>
<polygon fill="midnightblue" stroke="midnightblue" points="3592.76,-78.7204 3582.65,-75.5806 3588.6,-84.3454 3592.76,-78.7204"/>
</g>
<!-- Node10&#45;&gt;Node12 -->
<g id="edge14" class="edge"><title>Node10&#45;&gt;Node12</title>
<path fill="none" stroke="midnightblue" d="M3648.68,-118.26C3642.07,-102.525 3625.78,-69.7901 3600.06,-56 3514.61,-10.1822 2808.31,-10.2275 2648.24,-10.8343"/>
<polygon fill="midnightblue" stroke="midnightblue" points="2648.07,-7.33492 2638.08,-10.8765 2648.09,-14.3349 2648.07,-7.33492"/>
</g>
<!-- Node17&#45;&gt;Node3 -->
<g id="edge21" class="edge"><title>Node17&#45;&gt;Node3</title>
<path fill="none" stroke="midnightblue" d="M2101.33,-259.568C2305.47,-248.13 2960.91,-211.408 3160.1,-200.247"/>
<polygon fill="midnightblue" stroke="midnightblue" points="3160.56,-203.727 3170.35,-199.673 3160.17,-196.738 3160.56,-203.727"/>
</g>
<!-- Node18 -->
<g id="node19" class="node"><title>Node18</title>
<g id="a_node19"><a xlink:href="mapped__vectors_8h.html" target="_top" xlink:title="base/std_ext/mapped\l_vectors.h">
<polygon fill="white" stroke="black" points="1986.06,-181 1986.06,-211 2096.06,-211 2096.06,-181 1986.06,-181"/>
<text text-anchor="start" x="1994.06" y="-199" font-family="Helvetica,sans-Serif" font-size="10.00">base/std_ext/mapped</text>
<text text-anchor="middle" x="2041.06" y="-188" font-family="Helvetica,sans-Serif" font-size="10.00">_vectors.h</text>
</a>
</g>
</g>
<!-- Node17&#45;&gt;Node18 -->
<g id="edge22" class="edge"><title>Node17&#45;&gt;Node18</title>
<path fill="none" stroke="midnightblue" d="M2040.28,-248.679C2040.4,-240.722 2040.55,-230.605 2040.69,-221.436"/>
<polygon fill="midnightblue" stroke="midnightblue" points="2044.19,-221.345 2040.85,-211.293 2037.19,-221.239 2044.19,-221.345"/>
</g>
<!-- Node17&#45;&gt;Node20 -->
<g id="edge34" class="edge"><title>Node17&#45;&gt;Node20</title>
<path fill="none" stroke="midnightblue" d="M2004.99,-248.789C1983.75,-239.545 1956.52,-226.53 1934.06,-212 1915.52,-200.008 1916.52,-188.299 1896.06,-180 1686.31,-94.9272 1597.81,-229.073 1388.06,-144 1367.6,-135.701 1368.51,-124.133 1350.06,-112 1330.97,-99.4457 1307.9,-87.9743 1289.89,-79.7558"/>
<polygon fill="midnightblue" stroke="midnightblue" points="1291.03,-76.4285 1280.47,-75.5384 1288.17,-82.8179 1291.03,-76.4285"/>
</g>
<!-- Node17&#45;&gt;Node21 -->
<g id="edge36" class="edge"><title>Node17&#45;&gt;Node21</title>
<path fill="none" stroke="midnightblue" d="M2063.54,-248.838C2077.11,-239.699 2093.69,-226.779 2105.06,-212 2134.56,-173.657 2115.01,-147.329 2148.06,-112 2165.45,-93.4119 2192.24,-81.2562 2211.69,-74.3196"/>
<polygon fill="midnightblue" stroke="midnightblue" points="2213,-77.5723 2221.37,-71.0783 2210.77,-70.9344 2213,-77.5723"/>
</g>
<!-- Node22 -->
<g id="node23" class="node"><title>Node22</title>
<g id="a_node23"><a xlink:href="shared__ptr__container_8h.html" target="_top" xlink:title="base/std_ext/shared\l_ptr_container.h">
<polygon fill="white" stroke="black" points="1640.56,-113 1640.56,-143 1745.56,-143 1745.56,-113 1640.56,-113"/>
<text text-anchor="start" x="1648.56" y="-131" font-family="Helvetica,sans-Serif" font-size="10.00">base/std_ext/shared</text>
<text text-anchor="middle" x="1693.06" y="-120" font-family="Helvetica,sans-Serif" font-size="10.00">_ptr_container.h</text>
</a>
</g>
</g>
<!-- Node17&#45;&gt;Node22 -->
<g id="edge29" class="edge"><title>Node17&#45;&gt;Node22</title>
<path fill="none" stroke="midnightblue" d="M2022.19,-248.665C1993.29,-225.532 1939.01,-182.309 1934.06,-180 1903.01,-165.517 1816.42,-149.185 1755.97,-138.992"/>
<polygon fill="midnightblue" stroke="midnightblue" points="1756.2,-135.481 1745.76,-137.286 1755.05,-142.386 1756.2,-135.481"/>
</g>
<!-- Node17&#45;&gt;Node23 -->
<g id="edge37" class="edge"><title>Node17&#45;&gt;Node23</title>
<path fill="none" stroke="midnightblue" d="M1978.89,-261.473C1724.65,-255.037 758.541,-229.635 623.062,-212 487.49,-194.353 420.649,-239.749 323.062,-144 307.582,-128.812 303.958,-103.167 303.461,-85.6806"/>
<polygon fill="midnightblue" stroke="midnightblue" points="306.961,-85.5706 303.492,-75.5597 299.961,-85.5487 306.961,-85.5706"/>
</g>
<!-- Node17&#45;&gt;Node25 -->
<g id="edge35" class="edge"><title>Node17&#45;&gt;Node25</title>
<path fill="none" stroke="midnightblue" d="M1988.44,-248.922C1938.49,-235.299 1864.71,-215.178 1825.27,-204.422"/>
<polygon fill="midnightblue" stroke="midnightblue" points="1826.13,-201.029 1815.57,-201.774 1824.29,-207.782 1826.13,-201.029"/>
</g>
<!-- Node18&#45;&gt;Node12 -->
<g id="edge26" class="edge"><title>Node18&#45;&gt;Node12</title>
<path fill="none" stroke="midnightblue" d="M2096.26,-192.993C2224.1,-187.878 2532.38,-172.686 2569.06,-144 2604.65,-116.164 2613.36,-59.365 2615.44,-29.8117"/>
<polygon fill="midnightblue" stroke="midnightblue" points="2618.95,-29.782 2615.97,-19.6145 2611.96,-29.4203 2618.95,-29.782"/>
</g>
<!-- Node18&#45;&gt;Node16 -->
<g id="edge28" class="edge"><title>Node18&#45;&gt;Node16</title>
<path fill="none" stroke="midnightblue" d="M2087.88,-180.998C2151.44,-162.503 2268.84,-130.158 2371.06,-112 2517.89,-85.9199 2559.83,-99.7486 2711.63,-75.867"/>
<polygon fill="midnightblue" stroke="midnightblue" points="2712.47,-79.2772 2721.79,-74.2386 2711.36,-72.3654 2712.47,-79.2772"/>
</g>
<!-- Node19 -->
<g id="node20" class="node"><title>Node19</title>
<g id="a_node20"><a xlink:href="memory_8h.html" target="_top" xlink:title="base/std_ext/memory.h">
<polygon fill="white" stroke="black" points="1802.56,-118.5 1802.56,-137.5 1921.56,-137.5 1921.56,-118.5 1802.56,-118.5"/>
<text text-anchor="middle" x="1862.06" y="-125.5" font-family="Helvetica,sans-Serif" font-size="10.00">base/std_ext/memory.h</text>
</a>
</g>
</g>
<!-- Node18&#45;&gt;Node19 -->
<g id="edge23" class="edge"><title>Node18&#45;&gt;Node19</title>
<path fill="none" stroke="midnightblue" d="M2002.66,-180.841C1970.64,-169.033 1925.48,-152.384 1895.06,-141.168"/>
<polygon fill="midnightblue" stroke="midnightblue" points="1895.94,-137.762 1885.35,-137.587 1893.52,-144.33 1895.94,-137.762"/>
</g>
<!-- Node18&#45;&gt;Node20 -->
<g id="edge27" class="edge"><title>Node18&#45;&gt;Node20</title>
<path fill="none" stroke="midnightblue" d="M1985.89,-186.544C1969.26,-184.191 1950.94,-181.791 1934.06,-180 1823.73,-168.291 1541.03,-179.963 1436.06,-144 1411.81,-135.69 1411,-123.452 1388.06,-112 1358.29,-97.1385 1322.41,-84.9772 1296.22,-77.0609"/>
<polygon fill="midnightblue" stroke="midnightblue" points="1296.92,-73.6186 1286.34,-74.1363 1294.93,-80.3307 1296.92,-73.6186"/>
</g>
<!-- Node19&#45;&gt;Node20 -->
<g id="edge24" class="edge"><title>Node19&#45;&gt;Node20</title>
<path fill="none" stroke="midnightblue" d="M1804.39,-118.478C1788.14,-116.215 1770.42,-113.88 1754.06,-112 1583.14,-92.3564 1378.14,-75.9667 1296.34,-69.7154"/>
<polygon fill="midnightblue" stroke="midnightblue" points="1296.32,-66.2038 1286.08,-68.9354 1295.79,-73.1836 1296.32,-66.2038"/>
</g>
<!-- Node19&#45;&gt;Node21 -->
<g id="edge25" class="edge"><title>Node19&#45;&gt;Node21</title>
<path fill="none" stroke="midnightblue" d="M1899.21,-118.442C1909.5,-116.203 1920.69,-113.89 1931.06,-112 2034.79,-93.0954 2159.48,-76.6396 2211.45,-70.0575"/>
<polygon fill="midnightblue" stroke="midnightblue" points="2211.92,-73.5263 2221.4,-68.8055 2211.04,-66.581 2211.92,-73.5263"/>
</g>
<!-- Node22&#45;&gt;Node12 -->
<g id="edge30" class="edge"><title>Node22&#45;&gt;Node12</title>
<path fill="none" stroke="midnightblue" d="M1745.67,-114.934C1750.53,-113.907 1755.38,-112.913 1760.06,-112 1855.58,-93.3616 1882.53,-102.893 1976.06,-76 1998.27,-69.6138 2001.59,-61.3887 2024.06,-56 2131.87,-30.1509 2476.5,-15.9695 2583.83,-12.0989"/>
<polygon fill="midnightblue" stroke="midnightblue" points="2584.16,-15.5895 2594.03,-11.7365 2583.91,-8.59388 2584.16,-15.5895"/>
</g>
<!-- Node22&#45;&gt;Node20 -->
<g id="edge31" class="edge"><title>Node22&#45;&gt;Node20</title>
<path fill="none" stroke="midnightblue" d="M1640.4,-119.049C1624.84,-116.735 1607.77,-114.231 1592.06,-112 1484.77,-96.7618 1357.8,-79.8686 1296.62,-71.8006"/>
<polygon fill="midnightblue" stroke="midnightblue" points="1296.7,-68.2813 1286.33,-70.4451 1295.79,-75.2214 1296.7,-68.2813"/>
</g>
<!-- Node22&#45;&gt;Node23 -->
<g id="edge32" class="edge"><title>Node22&#45;&gt;Node23</title>
<path fill="none" stroke="midnightblue" d="M1640.51,-118.052C1624.96,-115.713 1607.86,-113.445 1592.06,-112 1340.71,-89.0181 532.036,-71.5935 343.579,-67.7803"/>
<polygon fill="midnightblue" stroke="midnightblue" points="343.632,-64.2808 333.564,-67.5787 343.491,-71.2793 343.632,-64.2808"/>
</g>
<!-- Node24 -->
<g id="node25" class="node"><title>Node24</title>
<polygon fill="white" stroke="#bfbfbf" points="1666.06,-0.5 1666.06,-19.5 1722.06,-19.5 1722.06,-0.5 1666.06,-0.5"/>
<text text-anchor="middle" x="1694.06" y="-7.5" font-family="Helvetica,sans-Serif" font-size="10.00">algorithm</text>
</g>
<!-- Node22&#45;&gt;Node24 -->
<g id="edge33" class="edge"><title>Node22&#45;&gt;Node24</title>
<path fill="none" stroke="midnightblue" d="M1702.47,-112.789C1710.71,-98.5992 1720.71,-76.0715 1716.06,-56 1713.83,-46.3627 1709.24,-36.4052 1704.83,-28.3149"/>
<polygon fill="midnightblue" stroke="midnightblue" points="1707.76,-26.3968 1699.7,-19.5194 1701.71,-29.9216 1707.76,-26.3968"/>
</g>
<!-- Node26&#45;&gt;Node12 -->
<g id="edge97" class="edge"><title>Node26&#45;&gt;Node12</title>
<path fill="none" stroke="midnightblue" d="M1381.42,-316.43C1445.27,-293.447 1621.64,-226.55 1754.06,-144 1773.09,-132.139 1772.63,-121.23 1793.06,-112 1883.75,-71.0305 1916.56,-95.944 2014.06,-76 2050.39,-68.5686 2058.48,-62.0583 2095.06,-56 2278.29,-25.657 2501.36,-15.0731 2583.61,-12.045"/>
<polygon fill="midnightblue" stroke="midnightblue" points="2583.95,-15.5352 2593.82,-11.6818 2583.7,-8.53967 2583.95,-15.5352"/>
</g>
<!-- Node26&#45;&gt;Node17 -->
<g id="edge39" class="edge"><title>Node26&#45;&gt;Node17</title>
<path fill="none" stroke="midnightblue" d="M1416.78,-319.754C1542.38,-308.72 1833.44,-283.151 1968.65,-271.274"/>
<polygon fill="midnightblue" stroke="midnightblue" points="1969.24,-274.735 1978.89,-270.374 1968.62,-267.762 1969.24,-274.735"/>
</g>
<!-- Node27 -->
<g id="node28" class="node"><title>Node27</title>
<g id="a_node28"><a xlink:href="_manager__traits_8h.html" target="_top" xlink:title="calibration/gui/Manager\l_traits.h">
<polygon fill="white" stroke="black" points="1274.56,-249 1274.56,-279 1391.56,-279 1391.56,-249 1274.56,-249"/>
<text text-anchor="start" x="1282.56" y="-267" font-family="Helvetica,sans-Serif" font-size="10.00">calibration/gui/Manager</text>
<text text-anchor="middle" x="1333.06" y="-256" font-family="Helvetica,sans-Serif" font-size="10.00">_traits.h</text>
</a>
</g>
</g>
<!-- Node26&#45;&gt;Node27 -->
<g id="edge40" class="edge"><title>Node26&#45;&gt;Node27</title>
<path fill="none" stroke="midnightblue" d="M1353.62,-316.403C1350.71,-309.113 1346.38,-298.303 1342.45,-288.475"/>
<polygon fill="midnightblue" stroke="midnightblue" points="1345.68,-287.126 1338.72,-279.141 1339.18,-289.725 1345.68,-287.126"/>
</g>
<!-- Node26&#45;&gt;Node50 -->
<g id="edge91" class="edge"><title>Node26&#45;&gt;Node50</title>
<path fill="none" stroke="midnightblue" d="M1297.24,-317.02C1294.14,-316.662 1291.06,-316.319 1288.06,-316 1082.58,-294.16 837.929,-276.478 727.433,-268.938"/>
<polygon fill="midnightblue" stroke="midnightblue" points="727.378,-265.427 717.164,-268.241 726.904,-272.411 727.378,-265.427"/>
</g>
<!-- Node27&#45;&gt;Node15 -->
<g id="edge87" class="edge"><title>Node27&#45;&gt;Node15</title>
<path fill="none" stroke="midnightblue" d="M1274.54,-261.101C1057.61,-253.941 310.792,-228.161 292.062,-212 238.787,-166.034 232.864,-118.566 265.062,-56 272.188,-42.1513 285.771,-31.6199 298.505,-24.24"/>
<polygon fill="midnightblue" stroke="midnightblue" points="300.353,-27.221 307.523,-19.4209 297.053,-21.0472 300.353,-27.221"/>
</g>
<!-- Node27&#45;&gt;Node20 -->
<g id="edge89" class="edge"><title>Node27&#45;&gt;Node20</title>
<path fill="none" stroke="midnightblue" d="M1326.77,-248.871C1317.02,-226.743 1297.94,-182.459 1284.06,-144 1276.95,-124.287 1269.95,-101.304 1265.36,-85.6136"/>
<polygon fill="midnightblue" stroke="midnightblue" points="1268.61,-84.2661 1262.48,-75.6281 1261.89,-86.2064 1268.61,-84.2661"/>
</g>
<!-- Node27&#45;&gt;Node21 -->
<g id="edge88" class="edge"><title>Node27&#45;&gt;Node21</title>
<path fill="none" stroke="midnightblue" d="M1391.74,-257.385C1460.34,-250.101 1576.98,-235.472 1675.06,-212 1718.8,-201.533 1727.19,-189.894 1771.06,-180 1899.48,-151.041 1939.4,-183.215 2065.06,-144 2094.29,-134.88 2098.31,-124.922 2126.06,-112 2155.1,-98.4818 2189.36,-84.8123 2211.84,-76.1452"/>
<polygon fill="midnightblue" stroke="midnightblue" points="2213.19,-79.3765 2221.28,-72.5335 2210.69,-72.8389 2213.19,-79.3765"/>
</g>
<!-- Node27&#45;&gt;Node23 -->
<g id="edge90" class="edge"><title>Node27&#45;&gt;Node23</title>
<path fill="none" stroke="midnightblue" d="M1274.44,-261.587C1065.64,-256.353 368.406,-237.067 328.062,-212 287.677,-186.908 282.918,-159.006 290.062,-112 291.429,-103.001 294.252,-93.3251 297.007,-85.2601"/>
<polygon fill="midnightblue" stroke="midnightblue" points="300.327,-86.3722 300.462,-75.7782 293.75,-83.9759 300.327,-86.3722"/>
</g>
<!-- Node28 -->
<g id="node29" class="node"><title>Node28</title>
<g id="a_node29"><a xlink:href="interval_8h.html" target="_top" xlink:title="base/interval.h">
<polygon fill="white" stroke="black" points="1940.06,-118.5 1940.06,-137.5 2020.06,-137.5 2020.06,-118.5 1940.06,-118.5"/>
<text text-anchor="middle" x="1980.06" y="-125.5" font-family="Helvetica,sans-Serif" font-size="10.00">base/interval.h</text>
</a>
</g>
</g>
<!-- Node27&#45;&gt;Node28 -->
<g id="edge41" class="edge"><title>Node27&#45;&gt;Node28</title>
<path fill="none" stroke="midnightblue" d="M1391.69,-250.664C1470.4,-234.175 1614.63,-204.218 1738.06,-180 1823.26,-163.284 1845.7,-164.503 1930.06,-144 1934.49,-142.924 1939.11,-141.691 1943.67,-140.405"/>
<polygon fill="midnightblue" stroke="midnightblue" points="1944.86,-143.706 1953.48,-137.546 1942.9,-136.986 1944.86,-143.706"/>
</g>
<!-- Node32 -->
<g id="node33" class="node"><title>Node32</title>
<g id="a_node33"><a xlink:href="_wrap_t_file_8h.html" target="_top" xlink:title="base/WrapTFile.h">
<polygon fill="white" stroke="black" points="632.062,-186.5 632.062,-205.5 726.062,-205.5 726.062,-186.5 632.062,-186.5"/>
<text text-anchor="middle" x="679.062" y="-193.5" font-family="Helvetica,sans-Serif" font-size="10.00">base/WrapTFile.h</text>
</a>
</g>
</g>
<!-- Node27&#45;&gt;Node32 -->
<g id="edge49" class="edge"><title>Node27&#45;&gt;Node32</title>
<path fill="none" stroke="midnightblue" d="M1274.45,-257.085C1149.72,-244.498 859.378,-215.197 736.08,-202.754"/>
<polygon fill="midnightblue" stroke="midnightblue" points="736.385,-199.267 726.084,-201.745 735.682,-206.232 736.385,-199.267"/>
</g>
<!-- Node27&#45;&gt;Node43 -->
<g id="edge74" class="edge"><title>Node27&#45;&gt;Node43</title>
<path fill="none" stroke="midnightblue" d="M1391.95,-259.772C1602.92,-248.207 2317.87,-209.016 2496.4,-199.229"/>
<polygon fill="midnightblue" stroke="midnightblue" points="2496.63,-202.722 2506.43,-198.679 2496.25,-195.732 2496.63,-202.722"/>
</g>
<!-- Node28&#45;&gt;Node8 -->
<g id="edge48" class="edge"><title>Node28&#45;&gt;Node8</title>
<path fill="none" stroke="midnightblue" d="M2010.58,-118.492C2061.45,-104.306 2158.4,-77.2412 2162.06,-76 2184.73,-68.3155 2188.65,-60.9625 2212.06,-56 2329.98,-31.0067 3208.59,-14.6526 3388.81,-11.5411"/>
<polygon fill="midnightblue" stroke="midnightblue" points="3389.03,-15.0379 3398.97,-11.367 3388.91,-8.03894 3389.03,-15.0379"/>
</g>
<!-- Node28&#45;&gt;Node11 -->
<g id="edge45" class="edge"><title>Node28&#45;&gt;Node11</title>
<path fill="none" stroke="midnightblue" d="M2020.3,-125.355C2091.18,-122.481 2242.92,-116.428 2371.06,-112 2628.08,-103.12 3269.38,-118.589 3541.05,-75.6239"/>
<polygon fill="midnightblue" stroke="midnightblue" points="3541.65,-79.0728 3550.95,-74.0042 3540.51,-72.1647 3541.65,-79.0728"/>
</g>
<!-- Node28&#45;&gt;Node14 -->
<g id="edge44" class="edge"><title>Node28&#45;&gt;Node14</title>
<path fill="none" stroke="midnightblue" d="M2020.12,-123.537C2142.69,-112.94 2511.74,-81.0333 2634.14,-70.4518"/>
<polygon fill="midnightblue" stroke="midnightblue" points="2634.54,-73.9304 2644.2,-69.582 2633.93,-66.9564 2634.54,-73.9304"/>
</g>
<!-- Node28&#45;&gt;Node24 -->
<g id="edge43" class="edge"><title>Node28&#45;&gt;Node24</title>
<path fill="none" stroke="midnightblue" d="M1952.34,-118.49C1945.11,-116.321 1937.3,-114.03 1930.06,-112 1869.03,-94.8903 1849.93,-101.87 1792.06,-76 1762.29,-62.6923 1731.53,-40.691 1712.59,-26.0226"/>
<polygon fill="midnightblue" stroke="midnightblue" points="1714.56,-23.1142 1704.54,-19.6688 1710.22,-28.6101 1714.56,-23.1142"/>
</g>
<!-- Node29 -->
<g id="node30" class="node"><title>Node29</title>
<g id="a_node30"><a xlink:href="types_8h.html" target="_top" xlink:title="types.h">
<polygon fill="white" stroke="black" points="1801.56,-56.5 1801.56,-75.5 1850.56,-75.5 1850.56,-56.5 1801.56,-56.5"/>
<text text-anchor="middle" x="1826.06" y="-63.5" font-family="Helvetica,sans-Serif" font-size="10.00">types.h</text>
</a>
</g>
</g>
<!-- Node28&#45;&gt;Node29 -->
<g id="edge42" class="edge"><title>Node28&#45;&gt;Node29</title>
<path fill="none" stroke="midnightblue" d="M1958,-118.403C1931.7,-108.156 1887.55,-90.9561 1857.64,-79.3021"/>
<polygon fill="midnightblue" stroke="midnightblue" points="1858.67,-75.9497 1848.09,-75.5806 1856.13,-82.4722 1858.67,-75.9497"/>
</g>
<!-- Node30 -->
<g id="node31" class="node"><title>Node30</title>
<polygon fill="white" stroke="#bfbfbf" points="2104.56,-56.5 2104.56,-75.5 2153.56,-75.5 2153.56,-56.5 2104.56,-56.5"/>
<text text-anchor="middle" x="2129.06" y="-63.5" font-family="Helvetica,sans-Serif" font-size="10.00">istream</text>
</g>
<!-- Node28&#45;&gt;Node30 -->
<g id="edge46" class="edge"><title>Node28&#45;&gt;Node30</title>
<path fill="none" stroke="midnightblue" d="M2001.41,-118.403C2026.75,-108.2 2069.2,-91.1055 2098.13,-79.4544"/>
<polygon fill="midnightblue" stroke="midnightblue" points="2099.78,-82.5627 2107.75,-75.5806 2097.17,-76.0694 2099.78,-82.5627"/>
</g>
<!-- Node31 -->
<g id="node32" class="node"><title>Node31</title>
<polygon fill="white" stroke="#bfbfbf" points="1545.06,-0.5 1545.06,-19.5 1597.06,-19.5 1597.06,-0.5 1545.06,-0.5"/>
<text text-anchor="middle" x="1571.06" y="-7.5" font-family="Helvetica,sans-Serif" font-size="10.00">sstream</text>
</g>
<!-- Node28&#45;&gt;Node31 -->
<g id="edge47" class="edge"><title>Node28&#45;&gt;Node31</title>
<path fill="none" stroke="midnightblue" d="M1954.86,-118.443C1946.99,-116.044 1938.24,-113.644 1930.06,-112 1855.58,-97.0192 1648.37,-124.711 1590.06,-76 1576.69,-64.8279 1572.43,-44.8035 1571.22,-29.9225"/>
<polygon fill="midnightblue" stroke="midnightblue" points="1574.71,-29.6179 1570.78,-19.7773 1567.71,-29.9183 1574.71,-29.6179"/>
</g>
<!-- Node32&#45;&gt;Node14 -->
<g id="edge72" class="edge"><title>Node32&#45;&gt;Node14</title>
<path fill="none" stroke="midnightblue" d="M726.064,-194.308C936.961,-191.046 1797.28,-175.996 2065.06,-144 2135.77,-135.551 2151.65,-122.652 2222.06,-112 2373.55,-89.0824 2555.43,-75.0324 2634.32,-69.5896"/>
<polygon fill="midnightblue" stroke="midnightblue" points="2634.58,-73.0806 2644.32,-68.9085 2634.1,-66.0968 2634.58,-73.0806"/>
</g>
<!-- Node32&#45;&gt;Node15 -->
<g id="edge69" class="edge"><title>Node32&#45;&gt;Node15</title>
<path fill="none" stroke="midnightblue" d="M631.982,-193.086C582.81,-189.239 504.928,-177.799 447.062,-144 421.017,-128.788 365.758,-59.7864 340.785,-27.6112"/>
<polygon fill="midnightblue" stroke="midnightblue" points="343.474,-25.3669 334.594,-19.588 337.932,-29.6432 343.474,-25.3669"/>
</g>
<!-- Node32&#45;&gt;Node20 -->
<g id="edge68" class="edge"><title>Node32&#45;&gt;Node20</title>
<path fill="none" stroke="midnightblue" d="M726.153,-194.715C792.403,-192.798 915.788,-183.617 1012.06,-144 1034.42,-134.798 1034.01,-121.925 1056.06,-112 1111.55,-87.0233 1181.93,-75.4564 1223.85,-70.4504"/>
<polygon fill="midnightblue" stroke="midnightblue" points="1224.33,-73.919 1233.87,-69.3149 1223.54,-66.9636 1224.33,-73.919"/>
</g>
<!-- Node32&#45;&gt;Node21 -->
<g id="edge70" class="edge"><title>Node32&#45;&gt;Node21</title>
<path fill="none" stroke="midnightblue" d="M726.299,-194.873C950.807,-194.049 1904.28,-187.965 2029.06,-144 2051.53,-136.083 2050.65,-122.443 2072.06,-112 2078.43,-108.892 2167.59,-85.1097 2211.7,-73.4307"/>
<polygon fill="midnightblue" stroke="midnightblue" points="2212.6,-76.8125 2221.37,-70.872 2210.81,-70.0452 2212.6,-76.8125"/>
</g>
<!-- Node32&#45;&gt;Node23 -->
<g id="edge73" class="edge"><title>Node32&#45;&gt;Node23</title>
<path fill="none" stroke="midnightblue" d="M631.758,-192.13C577.283,-187.435 486.05,-175.242 414.062,-144 391.88,-134.373 389.831,-125.924 370.062,-112 355.137,-101.489 338.112,-89.8904 325.092,-81.1013"/>
<polygon fill="midnightblue" stroke="midnightblue" points="327.043,-78.1953 316.793,-75.5134 323.133,-84.0018 327.043,-78.1953"/>
</g>
<!-- Node33 -->
<g id="node34" class="node"><title>Node33</title>
<g id="a_node34"><a xlink:href="string_8h.html" target="_top" xlink:title="base/std_ext/string.h">
<polygon fill="white" stroke="black" points="1599.06,-56.5 1599.06,-75.5 1707.06,-75.5 1707.06,-56.5 1599.06,-56.5"/>
<text text-anchor="middle" x="1653.06" y="-63.5" font-family="Helvetica,sans-Serif" font-size="10.00">base/std_ext/string.h</text>
</a>
</g>
</g>
<!-- Node32&#45;&gt;Node33 -->
<g id="edge50" class="edge"><title>Node32&#45;&gt;Node33</title>
<path fill="none" stroke="midnightblue" d="M726.23,-194.616C902.299,-192.877 1514.94,-183.984 1592.06,-144 1616.84,-131.151 1634.87,-103.253 1644.65,-84.8036"/>
<polygon fill="midnightblue" stroke="midnightblue" points="1647.87,-86.1897 1649.23,-75.6819 1641.62,-83.0514 1647.87,-86.1897"/>
</g>
<!-- Node34 -->
<g id="node35" class="node"><title>Node34</title>
<g id="a_node35"><a xlink:href="misc_8h.html" target="_top" xlink:title="base/std_ext/misc.h">
<polygon fill="white" stroke="black" points="1478.56,-118.5 1478.56,-137.5 1583.56,-137.5 1583.56,-118.5 1478.56,-118.5"/>
<text text-anchor="middle" x="1531.06" y="-125.5" font-family="Helvetica,sans-Serif" font-size="10.00">base/std_ext/misc.h</text>
</a>
</g>
</g>
<!-- Node32&#45;&gt;Node34 -->
<g id="edge55" class="edge"><title>Node32&#45;&gt;Node34</title>
<path fill="none" stroke="midnightblue" d="M726.082,-191.358C870.05,-180.205 1304.92,-146.518 1468.2,-133.869"/>
<polygon fill="midnightblue" stroke="midnightblue" points="1468.86,-137.329 1478.56,-133.067 1468.32,-130.35 1468.86,-137.329"/>
</g>
<!-- Node36 -->
<g id="node37" class="node"><title>Node36</title>
<polygon fill="white" stroke="#bfbfbf" points="840.562,-118.5 840.562,-137.5 887.562,-137.5 887.562,-118.5 840.562,-118.5"/>
<text text-anchor="middle" x="864.062" y="-125.5" font-family="Helvetica,sans-Serif" font-size="10.00">TFile.h</text>
</g>
<!-- Node32&#45;&gt;Node36 -->
<g id="edge62" class="edge"><title>Node32&#45;&gt;Node36</title>
<path fill="none" stroke="midnightblue" d="M707.388,-186.455C738.153,-176.953 788.588,-160.727 831.062,-144 832.906,-143.274 834.796,-142.499 836.693,-141.699"/>
<polygon fill="midnightblue" stroke="midnightblue" points="838.3,-144.816 846.05,-137.592 835.486,-138.406 838.3,-144.816"/>
</g>
<!-- Node37 -->
<g id="node38" class="node"><title>Node37</title>
<polygon fill="white" stroke="#bfbfbf" points="456.562,-118.5 456.562,-137.5 527.562,-137.5 527.562,-118.5 456.562,-118.5"/>
<text text-anchor="middle" x="492.062" y="-125.5" font-family="Helvetica,sans-Serif" font-size="10.00">TDirectory.h</text>
</g>
<!-- Node32&#45;&gt;Node37 -->
<g id="edge63" class="edge"><title>Node32&#45;&gt;Node37</title>
<path fill="none" stroke="midnightblue" d="M654.615,-186.372C621.766,-174.778 563.224,-154.116 526.086,-141.009"/>
<polygon fill="midnightblue" stroke="midnightblue" points="526.813,-137.554 516.218,-137.526 524.483,-144.155 526.813,-137.554"/>
</g>
<!-- Node38 -->
<g id="node39" class="node"><title>Node38</title>
<polygon fill="white" stroke="#bfbfbf" points="546.062,-118.5 546.062,-137.5 598.062,-137.5 598.062,-118.5 546.062,-118.5"/>
<text text-anchor="middle" x="572.062" y="-125.5" font-family="Helvetica,sans-Serif" font-size="10.00">TError.h</text>
</g>
<!-- Node32&#45;&gt;Node38 -->
<g id="edge64" class="edge"><title>Node32&#45;&gt;Node38</title>
<path fill="none" stroke="midnightblue" d="M665.073,-186.372C647.21,-175.353 616.069,-156.145 594.782,-143.014"/>
<polygon fill="midnightblue" stroke="midnightblue" points="596.402,-139.901 586.053,-137.63 592.727,-145.859 596.402,-139.901"/>
</g>
<!-- Node39 -->
<g id="node40" class="node"><title>Node39</title>
<polygon fill="white" stroke="#bfbfbf" points="616.562,-118.5 616.562,-137.5 663.562,-137.5 663.562,-118.5 616.562,-118.5"/>
<text text-anchor="middle" x="640.062" y="-125.5" font-family="Helvetica,sans-Serif" font-size="10.00">TList.h</text>
</g>
<!-- Node32&#45;&gt;Node39 -->
<g id="edge65" class="edge"><title>Node32&#45;&gt;Node39</title>
<path fill="none" stroke="midnightblue" d="M673.963,-186.372C668.04,-176.348 658.111,-159.546 650.525,-146.708"/>
<polygon fill="midnightblue" stroke="midnightblue" points="653.386,-144.67 645.286,-137.841 647.36,-148.231 653.386,-144.67"/>
</g>
<!-- Node40 -->
<g id="node41" class="node"><title>Node40</title>
<polygon fill="white" stroke="#bfbfbf" points="682.062,-118.5 682.062,-137.5 756.062,-137.5 756.062,-118.5 682.062,-118.5"/>
<text text-anchor="middle" x="719.062" y="-125.5" font-family="Helvetica,sans-Serif" font-size="10.00">TCollection.h</text>
</g>
<!-- Node32&#45;&gt;Node40 -->
<g id="edge66" class="edge"><title>Node32&#45;&gt;Node40</title>
<path fill="none" stroke="midnightblue" d="M684.291,-186.372C690.366,-176.348 700.549,-159.546 708.33,-146.708"/>
<polygon fill="midnightblue" stroke="midnightblue" points="711.513,-148.207 713.703,-137.841 705.527,-144.579 711.513,-148.207"/>
</g>
<!-- Node41 -->
<g id="node42" class="node"><title>Node41</title>
<polygon fill="white" stroke="#bfbfbf" points="774.062,-118.5 774.062,-137.5 822.062,-137.5 822.062,-118.5 774.062,-118.5"/>
<text text-anchor="middle" x="798.062" y="-125.5" font-family="Helvetica,sans-Serif" font-size="10.00">TKey.h</text>
</g>
<!-- Node32&#45;&gt;Node41 -->
<g id="edge67" class="edge"><title>Node32&#45;&gt;Node41</title>
<path fill="none" stroke="midnightblue" d="M694.619,-186.372C714.752,-175.205 750.053,-155.627 773.743,-142.488"/>
<polygon fill="midnightblue" stroke="midnightblue" points="775.453,-145.541 782.501,-137.63 772.058,-139.42 775.453,-145.541"/>
</g>
<!-- Node42 -->
<g id="node43" class="node"><title>Node42</title>
<polygon fill="white" stroke="#bfbfbf" points="332.062,-118.5 332.062,-137.5 362.062,-137.5 362.062,-118.5 332.062,-118.5"/>
<text text-anchor="middle" x="347.062" y="-125.5" font-family="Helvetica,sans-Serif" font-size="10.00">set</text>
</g>
<!-- Node32&#45;&gt;Node42 -->
<g id="edge71" class="edge"><title>Node32&#45;&gt;Node42</title>
<path fill="none" stroke="midnightblue" d="M632.031,-191.628C571.511,-186.269 463.729,-173.252 376.062,-144 374.207,-143.381 372.325,-142.656 370.457,-141.866"/>
<polygon fill="midnightblue" stroke="midnightblue" points="371.959,-138.704 361.427,-137.548 368.939,-145.02 371.959,-138.704"/>
</g>
<!-- Node33&#45;&gt;Node12 -->
<g id="edge54" class="edge"><title>Node33&#45;&gt;Node12</title>
<path fill="none" stroke="midnightblue" d="M1707.18,-61.3684C1732.89,-59.6757 1764.06,-57.6711 1792.06,-56 2100.01,-37.6219 2472.89,-18.323 2583.6,-12.6549"/>
<polygon fill="midnightblue" stroke="midnightblue" points="2583.96,-16.1408 2593.77,-12.1345 2583.6,-9.14992 2583.96,-16.1408"/>
</g>
<!-- Node33&#45;&gt;Node15 -->
<g id="edge51" class="edge"><title>Node33&#45;&gt;Node15</title>
<path fill="none" stroke="midnightblue" d="M1598.9,-61.1857C1572.94,-59.4427 1541.4,-57.4486 1513.06,-56 1054.13,-32.5389 494.64,-15.78 358.825,-11.8712"/>
<polygon fill="midnightblue" stroke="midnightblue" points="358.83,-8.36999 348.734,-11.582 358.629,-15.3671 358.83,-8.36999"/>
</g>
<!-- Node33&#45;&gt;Node24 -->
<g id="edge53" class="edge"><title>Node33&#45;&gt;Node24</title>
<path fill="none" stroke="midnightblue" d="M1659.83,-56.083C1665.62,-48.4554 1674.12,-37.2645 1681.2,-27.9408"/>
<polygon fill="midnightblue" stroke="midnightblue" points="1684.16,-29.8321 1687.42,-19.7511 1678.58,-25.5991 1684.16,-29.8321"/>
</g>
<!-- Node33&#45;&gt;Node31 -->
<g id="edge52" class="edge"><title>Node33&#45;&gt;Node31</title>
<path fill="none" stroke="midnightblue" d="M1639.89,-56.324C1627.21,-47.979 1607.83,-35.2122 1592.86,-25.3524"/>
<polygon fill="midnightblue" stroke="midnightblue" points="1594.48,-22.2313 1584.2,-19.6545 1590.63,-28.0776 1594.48,-22.2313"/>
</g>
<!-- Node34&#45;&gt;Node8 -->
<g id="edge58" class="edge"><title>Node34&#45;&gt;Node8</title>
<path fill="none" stroke="midnightblue" d="M1583.68,-118.664C1598.94,-116.365 1615.65,-113.966 1631.06,-112 1782.67,-92.6592 1821.59,-96.3713 1973.06,-76 2027.52,-68.6765 2040.38,-61.3874 2095.06,-56 2357.48,-30.1456 3211.15,-14.5429 3388.58,-11.5349"/>
<polygon fill="midnightblue" stroke="midnightblue" points="3388.88,-15.0303 3398.82,-11.3625 3388.77,-8.03134 3388.88,-15.0303"/>
</g>
<!-- Node34&#45;&gt;Node16 -->
<g id="edge60" class="edge"><title>Node34&#45;&gt;Node16</title>
<path fill="none" stroke="midnightblue" d="M1580.26,-118.464C1596.4,-115.974 1614.45,-113.517 1631.06,-112 2106.51,-68.5715 2233.35,-134.866 2711.89,-75.7127"/>
<polygon fill="midnightblue" stroke="midnightblue" points="2712.33,-79.1848 2721.82,-74.4734 2711.47,-72.2387 2712.33,-79.1848"/>
</g>
<!-- Node34&#45;&gt;Node20 -->
<g id="edge61" class="edge"><title>Node34&#45;&gt;Node20</title>
<path fill="none" stroke="midnightblue" d="M1492.52,-118.467C1440.16,-106.874 1347.24,-86.3008 1296.17,-74.9942"/>
<polygon fill="midnightblue" stroke="midnightblue" points="1296.76,-71.5398 1286.24,-72.7953 1295.24,-78.3743 1296.76,-71.5398"/>
</g>
<!-- Node34&#45;&gt;Node23 -->
<g id="edge57" class="edge"><title>Node34&#45;&gt;Node23</title>
<path fill="none" stroke="midnightblue" d="M1478.34,-124.422C1272.47,-114.355 525.214,-77.8143 343.899,-68.9481"/>
<polygon fill="midnightblue" stroke="midnightblue" points="343.905,-65.4443 333.746,-68.4516 343.563,-72.4359 343.905,-65.4443"/>
</g>
<!-- Node34&#45;&gt;Node24 -->
<g id="edge56" class="edge"><title>Node34&#45;&gt;Node24</title>
<path fill="none" stroke="midnightblue" d="M1536.23,-118.456C1545.43,-103.887 1565.95,-74.064 1590.06,-56 1609.91,-41.1342 1635.42,-29.9985 1656.21,-22.5234"/>
<polygon fill="midnightblue" stroke="midnightblue" points="1657.38,-25.8214 1665.69,-19.2471 1655.1,-19.2053 1657.38,-25.8214"/>
</g>
<!-- Node35 -->
<g id="node36" class="node"><title>Node35</title>
<polygon fill="white" stroke="#bfbfbf" points="1451.56,-56.5 1451.56,-75.5 1504.56,-75.5 1504.56,-56.5 1451.56,-56.5"/>
<text text-anchor="middle" x="1478.06" y="-63.5" font-family="Helvetica,sans-Serif" font-size="10.00">cxxabi.h</text>
</g>
<!-- Node34&#45;&gt;Node35 -->
<g id="edge59" class="edge"><title>Node34&#45;&gt;Node35</title>
<path fill="none" stroke="midnightblue" d="M1523.47,-118.403C1515.36,-109.225 1502.33,-94.4699 1492.3,-83.1173"/>
<polygon fill="midnightblue" stroke="midnightblue" points="1494.88,-80.7582 1485.64,-75.5806 1489.64,-85.3925 1494.88,-80.7582"/>
</g>
<!-- Node43&#45;&gt;Node13 -->
<g id="edge82" class="edge"><title>Node43&#45;&gt;Node13</title>
<path fill="none" stroke="midnightblue" d="M2556.16,-186.379C2562.38,-183.916 2569.41,-181.496 2576.06,-180 2783.92,-133.263 2842.99,-172.945 3054.06,-144 3067.87,-142.107 3082.96,-139.245 3095.96,-136.527"/>
<polygon fill="midnightblue" stroke="midnightblue" points="3096.83,-139.919 3105.88,-134.399 3095.36,-133.075 3096.83,-139.919"/>
</g>
<!-- Node43&#45;&gt;Node14 -->
<g id="edge83" class="edge"><title>Node43&#45;&gt;Node14</title>
<path fill="none" stroke="midnightblue" d="M2558.76,-186.326C2585.29,-175.377 2628.13,-156.47 2640.06,-144 2655.81,-127.545 2664.98,-102.585 2669.75,-85.5754"/>
<polygon fill="midnightblue" stroke="midnightblue" points="2673.19,-86.2705 2672.28,-75.7151 2666.41,-84.5358 2673.19,-86.2705"/>
</g>
<!-- Node43&#45;&gt;Node16 -->
<g id="edge80" class="edge"><title>Node43&#45;&gt;Node16</title>
<path fill="none" stroke="midnightblue" d="M2559.01,-186.402C2594.09,-172.633 2659.33,-146.884 2664.06,-144 2692.55,-126.632 2720.9,-100.095 2737.7,-83.1506"/>
<polygon fill="midnightblue" stroke="midnightblue" points="2740.5,-85.291 2744.97,-75.6852 2735.49,-80.4071 2740.5,-85.291"/>
</g>
<!-- Node43&#45;&gt;Node21 -->
<g id="edge84" class="edge"><title>Node43&#45;&gt;Node21</title>
<path fill="none" stroke="midnightblue" d="M2545.72,-186.218C2560.82,-169.851 2588.57,-134.327 2569.06,-112 2528.8,-65.926 2330.92,-65.1451 2260.77,-66.3652"/>
<polygon fill="midnightblue" stroke="midnightblue" points="2260.58,-62.8683 2250.65,-66.5716 2260.72,-69.8668 2260.58,-62.8683"/>
</g>
<!-- Node44 -->
<g id="node45" class="node"><title>Node44</title>
<polygon fill="white" stroke="#bfbfbf" points="2380.06,-118.5 2380.06,-137.5 2436.06,-137.5 2436.06,-118.5 2380.06,-118.5"/>
<text text-anchor="middle" x="2408.06" y="-125.5" font-family="Helvetica,sans-Serif" font-size="10.00">Rtypes.h</text>
</g>
<!-- Node43&#45;&gt;Node44 -->
<g id="edge75" class="edge"><title>Node43&#45;&gt;Node44</title>
<path fill="none" stroke="midnightblue" d="M2520.2,-186.372C2498.27,-175.156 2459.77,-155.453 2434.08,-142.314"/>
<polygon fill="midnightblue" stroke="midnightblue" points="2435.43,-139.069 2424.93,-137.63 2432.24,-145.301 2435.43,-139.069"/>
</g>
<!-- Node45 -->
<g id="node46" class="node"><title>Node45</title>
<g id="a_node46"><a xlink:href="base_2std__ext_2_time_8h.html" target="_top" xlink:title="base/std_ext/time.h">
<polygon fill="white" stroke="black" points="2730.56,-118.5 2730.56,-137.5 2833.56,-137.5 2833.56,-118.5 2730.56,-118.5"/>
<text text-anchor="middle" x="2782.06" y="-125.5" font-family="Helvetica,sans-Serif" font-size="10.00">base/std_ext/time.h</text>
</a>
</g>
</g>
<!-- Node43&#45;&gt;Node45 -->
<g id="edge76" class="edge"><title>Node43&#45;&gt;Node45</title>
<path fill="none" stroke="midnightblue" d="M2557.94,-186.419C2563.76,-184.18 2570.11,-181.873 2576.06,-180 2605.38,-170.771 2684.01,-151.903 2735.2,-139.884"/>
<polygon fill="midnightblue" stroke="midnightblue" points="2736.12,-143.265 2745.05,-137.577 2734.52,-136.45 2736.12,-143.265"/>
</g>
<!-- Node47 -->
<g id="node48" class="node"><title>Node47</title>
<polygon fill="white" stroke="#bfbfbf" points="2886.56,-56.5 2886.56,-75.5 2927.56,-75.5 2927.56,-56.5 2886.56,-56.5"/>
<text text-anchor="middle" x="2907.06" y="-63.5" font-family="Helvetica,sans-Serif" font-size="10.00">ctime</text>
</g>
<!-- Node43&#45;&gt;Node47 -->
<g id="edge86" class="edge"><title>Node43&#45;&gt;Node47</title>
<path fill="none" stroke="midnightblue" d="M2556.16,-186.402C2562.39,-183.94 2569.41,-181.515 2576.06,-180 2624.32,-169.004 2986.51,-180.385 3020.06,-144 3029.7,-133.545 3028.04,-123.771 3020.06,-112 3001.75,-84.9997 2964.39,-74.1993 2937.63,-69.8792"/>
<polygon fill="midnightblue" stroke="midnightblue" points="2938,-66.3963 2927.61,-68.4787 2937.03,-73.329 2938,-66.3963"/>
</g>
<!-- Node48 -->
<g id="node49" class="node"><title>Node48</title>
<polygon fill="white" stroke="#bfbfbf" points="2454.06,-118.5 2454.06,-137.5 2492.06,-137.5 2492.06,-118.5 2454.06,-118.5"/>
<text text-anchor="middle" x="2473.06" y="-125.5" font-family="Helvetica,sans-Serif" font-size="10.00">tuple</text>
</g>
<!-- Node43&#45;&gt;Node48 -->
<g id="edge81" class="edge"><title>Node43&#45;&gt;Node48</title>
<path fill="none" stroke="midnightblue" d="M2528.69,-186.372C2518.59,-175.955 2501.39,-158.217 2488.79,-145.216"/>
<polygon fill="midnightblue" stroke="midnightblue" points="2491.11,-142.584 2481.63,-137.841 2486.08,-147.457 2491.11,-142.584"/>
</g>
<!-- Node49 -->
<g id="node50" class="node"><title>Node49</title>
<polygon fill="white" stroke="#bfbfbf" points="2510.06,-118.5 2510.06,-137.5 2560.06,-137.5 2560.06,-118.5 2510.06,-118.5"/>
<text text-anchor="middle" x="2535.06" y="-125.5" font-family="Helvetica,sans-Serif" font-size="10.00">iomanip</text>
</g>
<!-- Node43&#45;&gt;Node49 -->
<g id="edge85" class="edge"><title>Node43&#45;&gt;Node49</title>
<path fill="none" stroke="midnightblue" d="M2536.8,-186.372C2536.51,-176.643 2536.02,-160.528 2535.63,-147.85"/>
<polygon fill="midnightblue" stroke="midnightblue" points="2539.13,-147.73 2535.33,-137.841 2532.13,-147.943 2539.13,-147.73"/>
</g>
<!-- Node45&#45;&gt;Node33 -->
<g id="edge77" class="edge"><title>Node45&#45;&gt;Node33</title>
<path fill="none" stroke="midnightblue" d="M2730.43,-123.016C2687.31,-119.772 2624.2,-115.219 2569.06,-112 2223.95,-91.856 2137.23,-95.1693 1792.06,-76 1767.66,-74.645 1740.87,-72.9575 1717.37,-71.4111"/>
<polygon fill="midnightblue" stroke="midnightblue" points="1717.39,-67.9044 1707.18,-70.7354 1716.92,-74.8891 1717.39,-67.9044"/>
</g>
<!-- Node46 -->
<g id="node47" class="node"><title>Node46</title>
<polygon fill="white" stroke="#bfbfbf" points="2802.06,-56.5 2802.06,-75.5 2848.06,-75.5 2848.06,-56.5 2802.06,-56.5"/>
<text text-anchor="middle" x="2825.06" y="-63.5" font-family="Helvetica,sans-Serif" font-size="10.00">cstring</text>
</g>
<!-- Node45&#45;&gt;Node46 -->
<g id="edge78" class="edge"><title>Node45&#45;&gt;Node46</title>
<path fill="none" stroke="midnightblue" d="M2788.22,-118.403C2794.67,-109.403 2804.97,-95.0408 2813.03,-83.7824"/>
<polygon fill="midnightblue" stroke="midnightblue" points="2815.93,-85.7476 2818.91,-75.5806 2810.24,-81.6699 2815.93,-85.7476"/>
</g>
<!-- Node45&#45;&gt;Node47 -->
<g id="edge79" class="edge"><title>Node45&#45;&gt;Node47</title>
<path fill="none" stroke="midnightblue" d="M2799.97,-118.403C2820.95,-108.334 2855.91,-91.5522 2880.16,-79.9151"/>
<polygon fill="midnightblue" stroke="midnightblue" points="2881.68,-83.0633 2889.19,-75.5806 2878.66,-76.7526 2881.68,-83.0633"/>
</g>
<!-- Node50&#45;&gt;Node15 -->
<g id="edge92" class="edge"><title>Node50&#45;&gt;Node15</title>
<path fill="none" stroke="midnightblue" d="M618.854,-263.523C509.035,-263.81 247.966,-259.341 176.062,-212 116.459,-172.759 93.7969,-111.973 138.062,-56 157.602,-31.2905 248.92,-18.7404 297.491,-13.7183"/>
<polygon fill="midnightblue" stroke="midnightblue" points="297.841,-17.2009 307.447,-12.7326 297.151,-10.235 297.841,-17.2009"/>
</g>
<!-- Node50&#45;&gt;Node20 -->
<g id="edge93" class="edge"><title>Node50&#45;&gt;Node20</title>
<path fill="none" stroke="midnightblue" d="M709.264,-254.44C780.725,-238.659 931.199,-201.267 1048.06,-144 1070.43,-133.041 1071.49,-122.524 1094.06,-112 1136.49,-92.2184 1189.21,-79.7884 1223.7,-73.1247"/>
<polygon fill="midnightblue" stroke="midnightblue" points="1224.61,-76.5171 1233.79,-71.2401 1223.32,-69.6362 1224.61,-76.5171"/>
</g>
<!-- Node50&#45;&gt;Node25 -->
<g id="edge94" class="edge"><title>Node50&#45;&gt;Node25</title>
<path fill="none" stroke="midnightblue" d="M717.343,-260.122C911.498,-248.782 1620.25,-207.386 1770.11,-198.633"/>
<polygon fill="midnightblue" stroke="midnightblue" points="1770.51,-202.115 1780.29,-198.038 1770.11,-195.127 1770.51,-202.115"/>
</g>
<!-- Node50&#45;&gt;Node31 -->
<g id="edge96" class="edge"><title>Node50&#45;&gt;Node31</title>
<path fill="none" stroke="midnightblue" d="M618.881,-256.306C488.476,-236.775 151.386,-173.66 265.062,-56 310.382,-9.09114 1328.47,-10.1481 1534.79,-10.8467"/>
<polygon fill="midnightblue" stroke="midnightblue" points="1534.79,-14.3466 1544.81,-10.8825 1534.82,-7.34664 1534.79,-14.3466"/>
</g>
<!-- Node50&#45;&gt;Node42 -->
<g id="edge95" class="edge"><title>Node50&#45;&gt;Node42</title>
<path fill="none" stroke="midnightblue" d="M645.044,-254.434C595.336,-235.757 474.487,-189.398 376.062,-144 374.505,-143.282 372.911,-142.524 371.31,-141.746"/>
<polygon fill="midnightblue" stroke="midnightblue" points="372.791,-138.573 362.285,-137.202 369.643,-144.825 372.791,-138.573"/>
</g>
<!-- Node51&#45;&gt;Node12 -->
<g id="edge108" class="edge"><title>Node51&#45;&gt;Node12</title>
<path fill="none" stroke="midnightblue" d="M2691.78,-186.499C2703.79,-184.211 2716.92,-181.858 2729.06,-180 2797.4,-169.545 2992.09,-195.634 3038.06,-144 3064.07,-114.788 3064.21,-85.085 3038.06,-56 3012.09,-27.1148 2742.57,-15.283 2648.36,-12.0093"/>
<polygon fill="midnightblue" stroke="midnightblue" points="2648.38,-8.50819 2638.27,-11.6684 2648.15,-15.5042 2648.38,-8.50819"/>
</g>
<!-- Node51&#45;&gt;Node28 -->
<g id="edge99" class="edge"><title>Node51&#45;&gt;Node28</title>
<path fill="none" stroke="midnightblue" d="M2612.18,-186.453C2600.63,-184.082 2587.87,-181.696 2576.06,-180 2375.06,-151.126 2133.4,-136.607 2030.46,-131.359"/>
<polygon fill="midnightblue" stroke="midnightblue" points="2030.52,-127.857 2020.35,-130.851 2030.17,-134.849 2030.52,-127.857"/>
</g>
<!-- Node52 -->
<g id="node53" class="node"><title>Node52</title>
<g id="a_node53"><a xlink:href="printable_8h.html" target="_top" xlink:title="base/std_ext/printable.h">
<polygon fill="white" stroke="black" points="2890.56,-118.5 2890.56,-137.5 3011.56,-137.5 3011.56,-118.5 2890.56,-118.5"/>
<text text-anchor="middle" x="2951.06" y="-125.5" font-family="Helvetica,sans-Serif" font-size="10.00">base/std_ext/printable.h</text>
</a>
</g>
</g>
<!-- Node51&#45;&gt;Node52 -->
<g id="edge100" class="edge"><title>Node51&#45;&gt;Node52</title>
<path fill="none" stroke="midnightblue" d="M2689.1,-186.439C2743.69,-174.471 2842.77,-152.744 2902.19,-139.716"/>
<polygon fill="midnightblue" stroke="midnightblue" points="2903.07,-143.106 2912.09,-137.546 2901.57,-136.269 2903.07,-143.106"/>
</g>
<!-- Node52&#45;&gt;Node9 -->
<g id="edge107" class="edge"><title>Node52&#45;&gt;Node9</title>
<path fill="none" stroke="midnightblue" d="M2958.51,-118.403C2966.39,-109.314 2979.01,-94.7559 2988.81,-83.4489"/>
<polygon fill="midnightblue" stroke="midnightblue" points="2991.72,-85.4298 2995.63,-75.5806 2986.43,-80.8452 2991.72,-85.4298"/>
</g>
<!-- Node52&#45;&gt;Node16 -->
<g id="edge106" class="edge"><title>Node52&#45;&gt;Node16</title>
<path fill="none" stroke="midnightblue" d="M2922.69,-118.403C2888.14,-107.933 2829.64,-90.2049 2791.18,-78.5501"/>
<polygon fill="midnightblue" stroke="midnightblue" points="2791.96,-75.1311 2781.38,-75.5806 2789.93,-81.8303 2791.96,-75.1311"/>
</g>
<!-- Node53 -->
<g id="node54" class="node"><title>Node53</title>
<g id="a_node54"><a xlink:href="container_8h.html" target="_top" xlink:title="container.h">
<polygon fill="white" stroke="black" points="1868.56,-56.5 1868.56,-75.5 1933.56,-75.5 1933.56,-56.5 1868.56,-56.5"/>
<text text-anchor="middle" x="1901.06" y="-63.5" font-family="Helvetica,sans-Serif" font-size="10.00">container.h</text>
</a>
</g>
</g>
<!-- Node52&#45;&gt;Node53 -->
<g id="edge101" class="edge"><title>Node52&#45;&gt;Node53</title>
<path fill="none" stroke="midnightblue" d="M2896.28,-118.491C2878.97,-116.064 2859.75,-113.637 2842.06,-112 2819.41,-109.904 2124.88,-77.4389 1943.86,-68.9949"/>
<polygon fill="midnightblue" stroke="midnightblue" points="1943.81,-65.489 1933.66,-68.5193 1943.49,-72.4814 1943.81,-65.489"/>
</g>
<!-- Node53&#45;&gt;Node12 -->
<g id="edge102" class="edge"><title>Node53&#45;&gt;Node12</title>
<path fill="none" stroke="midnightblue" d="M1933.59,-58.2377C1938.43,-57.3877 1943.36,-56.6056 1948.06,-56 2191.16,-24.6555 2487.02,-14.416 2583.77,-11.78"/>
<polygon fill="midnightblue" stroke="midnightblue" points="2584.15,-15.2713 2594.05,-11.5083 2583.97,-8.2737 2584.15,-15.2713"/>
</g>
<!-- Node53&#45;&gt;Node15 -->
<g id="edge105" class="edge"><title>Node53&#45;&gt;Node15</title>
<path fill="none" stroke="midnightblue" d="M1868.14,-57.3547C1865.08,-56.8235 1862.02,-56.3578 1859.06,-56 1553.32,-19.0598 547.478,-12.1268 358.734,-11.1415"/>
<polygon fill="midnightblue" stroke="midnightblue" points="358.695,-7.64134 348.677,-11.0907 358.659,-14.6413 358.695,-7.64134"/>
</g>
<!-- Node53&#45;&gt;Node24 -->
<g id="edge103" class="edge"><title>Node53&#45;&gt;Node24</title>
<path fill="none" stroke="midnightblue" d="M1868.26,-56.4435C1831.32,-46.8067 1771.36,-31.1653 1732.32,-20.98"/>
<polygon fill="midnightblue" stroke="midnightblue" points="1732.94,-17.526 1722.38,-18.3884 1731.18,-24.2994 1732.94,-17.526"/>
</g>
<!-- Node54 -->
<g id="node55" class="node"><title>Node54</title>
<polygon fill="white" stroke="#bfbfbf" points="1875.56,-0.5 1875.56,-19.5 1926.56,-19.5 1926.56,-0.5 1875.56,-0.5"/>
<text text-anchor="middle" x="1901.06" y="-7.5" font-family="Helvetica,sans-Serif" font-size="10.00">numeric</text>
</g>
<!-- Node53&#45;&gt;Node54 -->
<g id="edge104" class="edge"><title>Node53&#45;&gt;Node54</title>
<path fill="none" stroke="midnightblue" d="M1901.06,-56.083C1901.06,-49.0059 1901.06,-38.8611 1901.06,-29.9865"/>
<polygon fill="midnightblue" stroke="midnightblue" points="1904.56,-29.751 1901.06,-19.7511 1897.56,-29.7511 1904.56,-29.751"/>
</g>
<!-- Node55&#45;&gt;Node20 -->
<g id="edge116" class="edge"><title>Node55&#45;&gt;Node20</title>
<path fill="none" stroke="midnightblue" d="M1073.75,-316.357C1073.11,-284.619 1075.15,-173.173 1132.06,-112 1155.85,-86.4251 1195.03,-75.3798 1223.79,-70.6128"/>
<polygon fill="midnightblue" stroke="midnightblue" points="1224.48,-74.0485 1233.86,-69.1253 1223.46,-67.1235 1224.48,-74.0485"/>
</g>
<!-- Node55&#45;&gt;Node21 -->
<g id="edge115" class="edge"><title>Node55&#45;&gt;Node21</title>
<path fill="none" stroke="midnightblue" d="M1117.63,-321.634C1142.62,-319.785 1174.59,-317.558 1203.06,-316 1303.77,-310.49 2023.46,-331.693 2110.06,-280 2184.57,-235.527 2219.93,-128.665 2231.55,-85.5261"/>
<polygon fill="midnightblue" stroke="midnightblue" points="2235,-86.134 2234.1,-75.5776 2228.22,-84.3926 2235,-86.134"/>
</g>
<!-- Node55&#45;&gt;Node23 -->
<g id="edge117" class="edge"><title>Node55&#45;&gt;Node23</title>
<path fill="none" stroke="midnightblue" d="M1030.47,-325.069C947.387,-324.263 761.17,-317.934 610.062,-280 457.795,-241.776 371.116,-274.644 284.062,-144 272.025,-125.937 282.304,-101.033 292.036,-84.4946"/>
<polygon fill="midnightblue" stroke="midnightblue" points="295.126,-86.1572 297.53,-75.8386 289.216,-82.406 295.126,-86.1572"/>
</g>
<!-- Node55&#45;&gt;Node25 -->
<g id="edge114" class="edge"><title>Node55&#45;&gt;Node25</title>
<path fill="none" stroke="midnightblue" d="M1117.63,-322.398C1228.39,-314.824 1528.78,-288.275 1766.06,-212 1768.2,-211.313 1770.38,-210.517 1772.54,-209.656"/>
<polygon fill="midnightblue" stroke="midnightblue" points="1774.02,-212.829 1781.78,-205.61 1771.21,-206.417 1774.02,-212.829"/>
</g>
<!-- Node55&#45;&gt;Node50 -->
<g id="edge113" class="edge"><title>Node55&#45;&gt;Node50</title>
<path fill="none" stroke="midnightblue" d="M1030.23,-318.522C957.004,-307.701 809.742,-285.938 727.341,-273.761"/>
<polygon fill="midnightblue" stroke="midnightblue" points="727.783,-270.288 717.379,-272.288 726.76,-277.213 727.783,-270.288"/>
</g>
<!-- Node56&#45;&gt;Node2 -->
<g id="edge122" class="edge"><title>Node56&#45;&gt;Node2</title>
<path fill="none" stroke="midnightblue" d="M2814.98,-435.527C2662.5,-431.753 2274.36,-419.987 1951.06,-392 1949.79,-391.89 1948.51,-391.775 1947.22,-391.654"/>
<polygon fill="midnightblue" stroke="midnightblue" points="1947.48,-388.163 1937.18,-390.65 1946.78,-395.129 1947.48,-388.163"/>
</g>
<!-- Node56&#45;&gt;Node3 -->
<g id="edge123" class="edge"><title>Node56&#45;&gt;Node3</title>
<path fill="none" stroke="midnightblue" d="M2920.55,-428.468C2948.1,-421.395 2984.98,-409.616 3014.06,-392 3097.86,-341.247 3175.22,-250.802 3205.07,-213.641"/>
<polygon fill="midnightblue" stroke="midnightblue" points="3207.83,-215.788 3211.31,-205.779 3202.35,-211.435 3207.83,-215.788"/>
</g>
<!-- Node56&#45;&gt;Node11 -->
<g id="edge129" class="edge"><title>Node56&#45;&gt;Node11</title>
<path fill="none" stroke="midnightblue" d="M2947.22,-433.352C3119.92,-422.952 3571.06,-389.775 3571.06,-327 3571.06,-327 3571.06,-327 3571.06,-195 3571.06,-156.248 3571.06,-110.897 3571.06,-85.9188"/>
<polygon fill="midnightblue" stroke="midnightblue" points="3574.56,-85.6912 3571.06,-75.6913 3567.56,-85.6913 3574.56,-85.6912"/>
</g>
<!-- Node56&#45;&gt;Node12 -->
<g id="edge127" class="edge"><title>Node56&#45;&gt;Node12</title>
<path fill="none" stroke="midnightblue" d="M2947.21,-430.527C3135.83,-409.299 3653.93,-330.19 3513.06,-112 3480.26,-61.1978 3447.78,-70.4428 3389.06,-56 3245.26,-20.6296 2776.4,-12.8099 2648.53,-11.3174"/>
<polygon fill="midnightblue" stroke="midnightblue" points="2648.27,-7.81443 2638.23,-11.2025 2648.19,-14.814 2648.27,-7.81443"/>
</g>
<!-- Node56&#45;&gt;Node13 -->
<g id="edge128" class="edge"><title>Node56&#45;&gt;Node13</title>
<path fill="none" stroke="midnightblue" d="M2889.66,-428.465C2906.25,-411.039 2941.06,-369.419 2941.06,-327 2941.06,-327 2941.06,-327 2941.06,-263 2941.06,-187.691 3042.33,-150.745 3096.22,-136.416"/>
<polygon fill="midnightblue" stroke="midnightblue" points="3097.18,-139.783 3106.01,-133.923 3095.45,-132.999 3097.18,-139.783"/>
</g>
<!-- Node56&#45;&gt;Node20 -->
<g id="edge124" class="edge"><title>Node56&#45;&gt;Node20</title>
<path fill="none" stroke="midnightblue" d="M2814.94,-437.206C2659.84,-435.287 2263.55,-416.294 1970.06,-280 1938.73,-265.451 1883.07,-192.982 1851.06,-180 1644.19,-96.0989 1552.37,-238.38 1350.06,-144 1332.12,-135.628 1333.86,-125.152 1319.06,-112 1306.94,-101.227 1292.47,-90.1656 1280.89,-81.7056"/>
<polygon fill="midnightblue" stroke="midnightblue" points="1282.85,-78.802 1272.69,-75.7911 1278.75,-84.4795 1282.85,-78.802"/>
</g>
<!-- Node56&#45;&gt;Node21 -->
<g id="edge125" class="edge"><title>Node56&#45;&gt;Node21</title>
<path fill="none" stroke="midnightblue" d="M2878.5,-428.249C2873.31,-409.738 2862.06,-365.179 2862.06,-327 2862.06,-327 2862.06,-327 2862.06,-195 2862.06,-157.055 2870.98,-136.567 2842.06,-112 2797.17,-73.8612 2369.35,-68.0182 2260.93,-67.1481"/>
<polygon fill="midnightblue" stroke="midnightblue" points="2260.68,-63.6463 2250.66,-67.0732 2260.63,-70.6461 2260.68,-63.6463"/>
</g>
<!-- Node56&#45;&gt;Node25 -->
<g id="edge126" class="edge"><title>Node56&#45;&gt;Node25</title>
<path fill="none" stroke="midnightblue" d="M2814.95,-431.958C2662.7,-418.986 2276.88,-378.325 1970.06,-280 1914.02,-262.041 1853.02,-229.09 1820.86,-210.567"/>
<polygon fill="midnightblue" stroke="midnightblue" points="1822.62,-207.54 1812.22,-205.531 1819.1,-213.588 1822.62,-207.54"/>
</g>
<!-- Node57 -->
<g id="node58" class="node"><title>Node57</title>
<g id="a_node58"><a xlink:href="_unpacker_8h.html" target="_top" xlink:title="Unpacker.h">
<polygon fill="white" stroke="black" points="1212.56,-316.5 1212.56,-335.5 1279.56,-335.5 1279.56,-316.5 1212.56,-316.5"/>
<text text-anchor="middle" x="1246.06" y="-323.5" font-family="Helvetica,sans-Serif" font-size="10.00">Unpacker.h</text>
</a>
</g>
</g>
<!-- Node56&#45;&gt;Node57 -->
<g id="edge119" class="edge"><title>Node56&#45;&gt;Node57</title>
<path fill="none" stroke="midnightblue" d="M2814.98,-435.698C2647.19,-432.071 2191.11,-420.203 1812.06,-392 1698.36,-383.54 1418.95,-356.021 1290.06,-336.171"/>
<polygon fill="midnightblue" stroke="midnightblue" points="1290.35,-332.673 1279.93,-334.576 1289.26,-339.588 1290.35,-332.673"/>
</g>
<!-- Node57&#45;&gt;Node15 -->
<g id="edge120" class="edge"><title>Node57&#45;&gt;Node15</title>
<path fill="none" stroke="midnightblue" d="M1212.44,-322.432C1188.39,-320.605 1155.23,-318.112 1126.06,-316 905.649,-300.046 309.702,-349.956 137.062,-212 82.6477,-168.518 73.332,-105.769 122.062,-56 146.151,-31.3968 246.075,-18.6529 297.372,-13.6244"/>
<polygon fill="midnightblue" stroke="midnightblue" points="297.908,-17.0895 307.536,-12.667 297.252,-10.1203 297.908,-17.0895"/>
</g>
<!-- Node57&#45;&gt;Node20 -->
<g id="edge121" class="edge"><title>Node57&#45;&gt;Node20</title>
<path fill="none" stroke="midnightblue" d="M1246.53,-316.416C1248.51,-279.918 1256.26,-137.146 1259.05,-85.6488"/>
<polygon fill="midnightblue" stroke="midnightblue" points="1262.55,-85.7913 1259.59,-75.6164 1255.56,-85.412 1262.55,-85.7913"/>
</g>
<!-- Node58&#45;&gt;Node2 -->
<g id="edge132" class="edge"><title>Node58&#45;&gt;Node2</title>
<path fill="none" stroke="midnightblue" d="M1879.06,-428.083C1879.06,-421.006 1879.06,-410.861 1879.06,-401.986"/>
<polygon fill="midnightblue" stroke="midnightblue" points="1882.56,-401.751 1879.06,-391.751 1875.56,-401.751 1882.56,-401.751"/>
</g>
<!-- Node58&#45;&gt;Node3 -->
<g id="edge133" class="edge"><title>Node58&#45;&gt;Node3</title>
<path fill="none" stroke="midnightblue" d="M1953.29,-437.027C2142.4,-436.509 2638.61,-431.325 2798.06,-392 2959.95,-352.075 3135.2,-248.848 3195.9,-211.096"/>
<polygon fill="midnightblue" stroke="midnightblue" points="3198.03,-213.895 3204.64,-205.619 3194.31,-207.964 3198.03,-213.895"/>
</g>
<!-- Node58&#45;&gt;Node12 -->
<g id="edge144" class="edge"><title>Node58&#45;&gt;Node12</title>
<path fill="none" stroke="midnightblue" d="M1953.19,-437.246C2063.24,-436.25 2275.81,-429.093 2452.06,-392 2778.74,-323.249 2967.87,-416.25 3161.06,-144 3210.28,-74.6431 3089.56,-65.4908 3059.06,-56 2982.18,-32.0775 2737.09,-17.2912 2648.45,-12.6125"/>
<polygon fill="midnightblue" stroke="midnightblue" points="2648.37,-9.1035 2638.2,-12.0799 2648,-16.0941 2648.37,-9.1035"/>
</g>
<!-- Node58&#45;&gt;Node13 -->
<g id="edge145" class="edge"><title>Node58&#45;&gt;Node13</title>
<path fill="none" stroke="midnightblue" d="M1953.44,-437.185C2055.47,-435.95 2243.99,-428.322 2400.06,-392 2571.93,-352.002 2604.91,-310.156 2770.06,-248 2852.83,-216.85 2873.07,-207.694 2957.06,-180 3005.12,-164.154 3061.45,-147.881 3096.2,-138.104"/>
<polygon fill="midnightblue" stroke="midnightblue" points="3097.15,-141.474 3105.83,-135.405 3095.26,-134.733 3097.15,-141.474"/>
</g>
<!-- Node58&#45;&gt;Node20 -->
<g id="edge141" class="edge"><title>Node58&#45;&gt;Node20</title>
<path fill="none" stroke="midnightblue" d="M1804.91,-430.642C1638.55,-415.717 1246.72,-376.619 1203.06,-336 1179.15,-313.748 1184.06,-297.666 1184.06,-265 1184.06,-265 1184.06,-265 1184.06,-195 1184.06,-148.994 1220.81,-105.079 1243.2,-82.591"/>
<polygon fill="midnightblue" stroke="midnightblue" points="1245.7,-85.0401 1250.44,-75.5623 1240.82,-80.0187 1245.7,-85.0401"/>
</g>
<!-- Node58&#45;&gt;Node21 -->
<g id="edge142" class="edge"><title>Node58&#45;&gt;Node21</title>
<path fill="none" stroke="midnightblue" d="M1953.23,-434.977C2086.35,-429.316 2352.06,-407.884 2352.06,-327 2352.06,-327 2352.06,-327 2352.06,-195 2352.06,-140.449 2293.5,-98.7961 2259.59,-79.2533"/>
<polygon fill="midnightblue" stroke="midnightblue" points="2261.19,-76.1386 2250.75,-74.3352 2257.79,-82.2556 2261.19,-76.1386"/>
</g>
<!-- Node58&#45;&gt;Node25 -->
<g id="edge143" class="edge"><title>Node58&#45;&gt;Node25</title>
<path fill="none" stroke="midnightblue" d="M1856.97,-428.416C1841.57,-421.175 1822.04,-409.212 1812.06,-392 1779.03,-335.038 1788.02,-252.422 1794.32,-215.748"/>
<polygon fill="midnightblue" stroke="midnightblue" points="1797.83,-216.016 1796.21,-205.546 1790.94,-214.74 1797.83,-216.016"/>
</g>
<!-- Node58&#45;&gt;Node44 -->
<g id="edge140" class="edge"><title>Node58&#45;&gt;Node44</title>
<path fill="none" stroke="midnightblue" d="M1953.39,-436.444C2071.31,-434.517 2295.17,-426.296 2366.06,-392 2402,-374.614 2428.06,-366.923 2428.06,-327 2428.06,-327 2428.06,-327 2428.06,-263 2428.06,-221.406 2418.52,-173.338 2412.62,-147.586"/>
<polygon fill="midnightblue" stroke="midnightblue" points="2415.99,-146.637 2410.28,-137.713 2409.18,-148.25 2415.99,-146.637"/>
</g>
<!-- Node58&#45;&gt;Node57 -->
<g id="edge131" class="edge"><title>Node58&#45;&gt;Node57</title>
<path fill="none" stroke="midnightblue" d="M1824.74,-428.496C1722.14,-412.264 1492.63,-375.148 1289.9,-336.302"/>
<polygon fill="midnightblue" stroke="midnightblue" points="1290.44,-332.842 1279.96,-334.392 1289.12,-339.716 1290.44,-332.842"/>
</g>
<!-- Node59 -->
<g id="node60" class="node"><title>Node59</title>
<g id="a_node60"><a xlink:href="_wrap_t_tree_8h.html" target="_top" xlink:title="base/WrapTTree.h">
<polygon fill="white" stroke="black" points="906.062,-118.5 906.062,-137.5 1004.06,-137.5 1004.06,-118.5 906.062,-118.5"/>
<text text-anchor="middle" x="955.062" y="-125.5" font-family="Helvetica,sans-Serif" font-size="10.00">base/WrapTTree.h</text>
</a>
</g>
</g>
<!-- Node58&#45;&gt;Node59 -->
<g id="edge134" class="edge"><title>Node58&#45;&gt;Node59</title>
<path fill="none" stroke="midnightblue" d="M1804.86,-436.075C1671.44,-433.614 1382.43,-424.634 1141.06,-392 902.044,-359.684 761.995,-467.323 610.062,-280 601.103,-268.954 601.509,-259.363 610.062,-248 644.828,-201.808 680.193,-230.218 735.062,-212 803.568,-189.253 882.397,-158.331 924.605,-141.38"/>
<polygon fill="midnightblue" stroke="midnightblue" points="926.059,-144.567 934.026,-137.583 923.443,-138.075 926.059,-144.567"/>
</g>
<!-- Node59&#45;&gt;Node12 -->
<g id="edge136" class="edge"><title>Node59&#45;&gt;Node12</title>
<path fill="none" stroke="midnightblue" d="M1004.35,-125.829C1191.48,-121.194 1851.93,-103.06 1942.06,-76 1958.85,-70.9587 1959.32,-61.197 1976.06,-56 2091.35,-20.2145 2470.24,-12.7676 2583.68,-11.3254"/>
<polygon fill="midnightblue" stroke="midnightblue" points="2583.86,-14.8236 2593.82,-11.2038 2583.77,-7.82414 2583.86,-14.8236"/>
</g>
<!-- Node59&#45;&gt;Node15 -->
<g id="edge137" class="edge"><title>Node59&#45;&gt;Node15</title>
<path fill="none" stroke="midnightblue" d="M923.317,-118.477C914.52,-116.238 904.946,-113.917 896.062,-112 692.32,-68.0476 444.489,-28.8124 358.878,-15.6685"/>
<polygon fill="midnightblue" stroke="midnightblue" points="359.214,-12.1793 348.8,-14.1269 358.156,-19.0988 359.214,-12.1793"/>
</g>
<!-- Node59&#45;&gt;Node20 -->
<g id="edge139" class="edge"><title>Node59&#45;&gt;Node20</title>
<path fill="none" stroke="midnightblue" d="M989.652,-118.436C998.863,-116.246 1008.82,-113.958 1018.06,-112 1090.74,-96.6001 1176.31,-81.3632 1223.75,-73.1701"/>
<polygon fill="midnightblue" stroke="midnightblue" points="1224.57,-76.5798 1233.83,-71.435 1223.39,-69.6811 1224.57,-76.5798"/>
</g>
<!-- Node59&#45;&gt;Node24 -->
<g id="edge138" class="edge"><title>Node59&#45;&gt;Node24</title>
<path fill="none" stroke="midnightblue" d="M981.559,-118.444C1029.56,-103.301 1134.35,-71.8869 1225.06,-56 1392.6,-26.6575 1436.79,-36.6526 1606.06,-20 1622.33,-18.3996 1640.28,-16.5742 1655.71,-14.9876"/>
<polygon fill="midnightblue" stroke="midnightblue" points="1656.34,-18.4408 1665.93,-13.933 1655.62,-11.4777 1656.34,-18.4408"/>
</g>
<!-- Node60 -->
<g id="node61" class="node"><title>Node60</title>
<polygon fill="white" stroke="#bfbfbf" points="930.062,-56.5 930.062,-75.5 980.062,-75.5 980.062,-56.5 930.062,-56.5"/>
<text text-anchor="middle" x="955.062" y="-63.5" font-family="Helvetica,sans-Serif" font-size="10.00">TTree.h</text>
</g>
<!-- Node59&#45;&gt;Node60 -->
<g id="edge135" class="edge"><title>Node59&#45;&gt;Node60</title>
<path fill="none" stroke="midnightblue" d="M955.062,-118.403C955.062,-109.938 955.062,-96.7283 955.062,-85.8199"/>
<polygon fill="midnightblue" stroke="midnightblue" points="958.562,-85.5806 955.062,-75.5806 951.562,-85.5806 958.562,-85.5806"/>
</g>
<!-- Node61&#45;&gt;Node15 -->
<g id="edge151" class="edge"><title>Node61&#45;&gt;Node15</title>
<path fill="none" stroke="midnightblue" d="M1150.47,-378.556C927.846,-368.663 208.165,-323.07 87.0616,-144 64.792,-111.071 73.8387,-82.9494 103.062,-56 130.996,-30.2386 242.256,-17.8819 297.132,-13.2578"/>
<polygon fill="midnightblue" stroke="midnightblue" points="297.629,-16.7292 307.314,-12.4344 297.064,-9.75194 297.629,-16.7292"/>
</g>
<!-- Node61&#45;&gt;Node20 -->
<g id="edge152" class="edge"><title>Node61&#45;&gt;Node20</title>
<path fill="none" stroke="midnightblue" d="M1204.33,-372.198C1194,-363.892 1179.22,-350.566 1170.06,-336 1152.33,-307.799 1146.06,-298.31 1146.06,-265 1146.06,-265 1146.06,-265 1146.06,-195 1146.06,-156.6 1145.49,-141.51 1170.06,-112 1183.99,-95.2717 1205.68,-84.1668 1224.28,-77.1743"/>
<polygon fill="midnightblue" stroke="midnightblue" points="1225.66,-80.3993 1233.94,-73.7939 1223.35,-73.7918 1225.66,-80.3993"/>
</g>
<!-- Node61&#45;&gt;Node21 -->
<g id="edge150" class="edge"><title>Node61&#45;&gt;Node21</title>
<path fill="none" stroke="midnightblue" d="M1281.84,-379.999C1467.66,-376.216 1992.83,-358.659 2143.06,-280 2215.74,-241.949 2231.63,-130 2235.1,-85.5239"/>
<polygon fill="midnightblue" stroke="midnightblue" points="2238.59,-85.7427 2235.75,-75.536 2231.61,-85.2869 2238.59,-85.7427"/>
</g>
<!-- Node61&#45;&gt;Node26 -->
<g id="edge149" class="edge"><title>Node61&#45;&gt;Node26</title>
<path fill="none" stroke="midnightblue" d="M1238.4,-372.444C1261.81,-363.478 1298.8,-349.314 1325.25,-339.183"/>
<polygon fill="midnightblue" stroke="midnightblue" points="1326.74,-342.361 1334.82,-335.516 1324.23,-335.824 1326.74,-342.361"/>
</g>
<!-- Node62&#45;&gt;Node3 -->
<g id="edge158" class="edge"><title>Node62&#45;&gt;Node3</title>
<path fill="none" stroke="midnightblue" d="M3161.77,-485C3185.15,-478.571 3213.29,-467.308 3232.06,-448 3253.53,-425.918 3256.06,-413.795 3256.06,-383 3256.06,-383 3256.06,-383 3256.06,-325 3256.06,-284.231 3238.13,-239.065 3226.9,-214.787"/>
<polygon fill="midnightblue" stroke="midnightblue" points="3230.04,-213.246 3222.57,-205.734 3223.73,-216.265 3230.04,-213.246"/>
</g>
<!-- Node62&#45;&gt;Node56 -->
<g id="edge159" class="edge"><title>Node62&#45;&gt;Node56</title>
<path fill="none" stroke="midnightblue" d="M3082.19,-484.444C3040.59,-475.043 2973.69,-459.929 2928.59,-449.739"/>
<polygon fill="midnightblue" stroke="midnightblue" points="2929.28,-446.306 2918.75,-447.516 2927.74,-453.134 2929.28,-446.306"/>
</g>
<!-- Node63&#45;&gt;Node3 -->
<g id="edge161" class="edge"><title>Node63&#45;&gt;Node3</title>
<path fill="none" stroke="midnightblue" d="M3044.17,-484.409C3099.03,-466.201 3218.06,-422.183 3218.06,-383 3218.06,-383 3218.06,-383 3218.06,-325 3218.06,-286.248 3218.06,-240.897 3218.06,-215.919"/>
<polygon fill="midnightblue" stroke="midnightblue" points="3221.56,-215.691 3218.06,-205.691 3214.56,-215.691 3221.56,-215.691"/>
</g>
<!-- Node63&#45;&gt;Node56 -->
<g id="edge162" class="edge"><title>Node63&#45;&gt;Node56</title>
<path fill="none" stroke="midnightblue" d="M2995.51,-484.444C2973.03,-475.517 2937.57,-461.439 2912.08,-451.317"/>
<polygon fill="midnightblue" stroke="midnightblue" points="2913.1,-447.954 2902.51,-447.516 2910.51,-454.46 2913.1,-447.954"/>
</g>
</g>
</svg>
