<?xml version="1.0" encoding="UTF-8" standalone="no"?>
<!DOCTYPE svg PUBLIC "-//W3C//DTD SVG 1.1//EN"
 "http://www.w3.org/Graphics/SVG/1.1/DTD/svg11.dtd">
<!-- Generated by graphviz version 2.36.0 (20140111.2315)
 -->
<!-- Title: src/expconfig/setups/Setup_2014_EPT.h Pages: 1 -->
<svg width="625pt" height="108pt"
 viewBox="0.00 0.00 625.00 108.00" xmlns="http://www.w3.org/2000/svg" xmlns:xlink="http://www.w3.org/1999/xlink">
<g id="graph0" class="graph" transform="scale(1 1) rotate(0) translate(4 104)">
<title>src/expconfig/setups/Setup_2014_EPT.h</title>
<polygon fill="white" stroke="none" points="-4,4 -4,-104 621,-104 621,4 -4,4"/>
<!-- Node70 -->
<g id="node1" class="node"><title>Node70</title>
<polygon fill="#bfbfbf" stroke="black" points="274.5,-69 274.5,-99 381.5,-99 381.5,-69 274.5,-69"/>
<text text-anchor="start" x="282.5" y="-87" font-family="Helvetica,sans-Serif" font-size="10.00">src/expconfig/setups</text>
<text text-anchor="middle" x="328" y="-76" font-family="Helvetica,sans-Serif" font-size="10.00">/Setup_2014_EPT.h</text>
</g>
<!-- Node71 -->
<g id="node2" class="node"><title>Node71</title>
<g id="a_node2"><a xlink:href="_setup__2014__07___e_p_t___prod_8cc.html" target="_top" xlink:title="src/expconfig/setups\l/Setup_2014_07_EPT_Prod.cc">
<polygon fill="white" stroke="black" points="-0.5,-1 -0.5,-31 150.5,-31 150.5,-1 -0.5,-1"/>
<text text-anchor="start" x="7.5" y="-19" font-family="Helvetica,sans-Serif" font-size="10.00">src/expconfig/setups</text>
<text text-anchor="middle" x="75" y="-8" font-family="Helvetica,sans-Serif" font-size="10.00">/Setup_2014_07_EPT_Prod.cc</text>
</a>
</g>
</g>
<!-- Node70&#45;&gt;Node71 -->
<g id="edge1" class="edge"><title>Node70&#45;&gt;Node71</title>
<path fill="none" stroke="midnightblue" d="M264.553,-66.4485C222.792,-55.5545 168.714,-41.4471 129.013,-31.0903"/>
<polygon fill="midnightblue" stroke="midnightblue" points="263.786,-69.8655 274.345,-69.0031 265.553,-63.0921 263.786,-69.8655"/>
</g>
<!-- Node72 -->
<g id="node3" class="node"><title>Node72</title>
<g id="a_node3"><a xlink:href="_setup__2014__10___e_p_t___prod_8cc.html" target="_top" xlink:title="src/expconfig/setups\l/Setup_2014_10_EPT_Prod.cc">
<polygon fill="white" stroke="black" points="168.5,-1 168.5,-31 319.5,-31 319.5,-1 168.5,-1"/>
<text text-anchor="start" x="176.5" y="-19" font-family="Helvetica,sans-Serif" font-size="10.00">src/expconfig/setups</text>
<text text-anchor="middle" x="244" y="-8" font-family="Helvetica,sans-Serif" font-size="10.00">/Setup_2014_10_EPT_Prod.cc</text>
</a>
</g>
</g>
<!-- Node70&#45;&gt;Node72 -->
<g id="edge2" class="edge"><title>Node70&#45;&gt;Node72</title>
<path fill="none" stroke="midnightblue" d="M301.667,-62.3094C288.727,-52.1426 273.472,-40.1562 261.903,-31.0663"/>
<polygon fill="midnightblue" stroke="midnightblue" points="299.748,-65.2529 309.773,-68.679 304.072,-59.7486 299.748,-65.2529"/>
</g>
<!-- Node73 -->
<g id="node4" class="node"><title>Node73</title>
<g id="a_node4"><a xlink:href="_setup__2014__12___e_p_t___prod_8cc.html" target="_top" xlink:title="src/expconfig/setups\l/Setup_2014_12_EPT_Prod.cc">
<polygon fill="white" stroke="black" points="337.5,-1 337.5,-31 488.5,-31 488.5,-1 337.5,-1"/>
<text text-anchor="start" x="345.5" y="-19" font-family="Helvetica,sans-Serif" font-size="10.00">src/expconfig/setups</text>
<text text-anchor="middle" x="413" y="-8" font-family="Helvetica,sans-Serif" font-size="10.00">/Setup_2014_12_EPT_Prod.cc</text>
</a>
</g>
</g>
<!-- Node70&#45;&gt;Node73 -->
<g id="edge3" class="edge"><title>Node70&#45;&gt;Node73</title>
<path fill="none" stroke="midnightblue" d="M354.647,-62.3094C367.741,-52.1426 383.178,-40.1562 394.884,-31.0663"/>
<polygon fill="midnightblue" stroke="midnightblue" points="352.196,-59.7815 346.444,-68.679 356.489,-65.3105 352.196,-59.7815"/>
</g>
<!-- Node74 -->
<g id="node5" class="node"><title>Node74</title>
<g id="a_node5"><a xlink:href="_setup__2014___e_p_t_8cc.html" target="_top" xlink:title="src/expconfig/setups\l/Setup_2014_EPT.cc">
<polygon fill="white" stroke="black" points="507,-1 507,-31 617,-31 617,-1 507,-1"/>
<text text-anchor="start" x="515" y="-19" font-family="Helvetica,sans-Serif" font-size="10.00">src/expconfig/setups</text>
<text text-anchor="middle" x="562" y="-8" font-family="Helvetica,sans-Serif" font-size="10.00">/Setup_2014_EPT.cc</text>
</a>
</g>
</g>
<!-- Node70&#45;&gt;Node74 -->
<g id="edge4" class="edge"><title>Node70&#45;&gt;Node74</title>
<path fill="none" stroke="midnightblue" d="M387.952,-66.0905C426.441,-55.2347 475.835,-41.303 512.165,-31.0561"/>
<polygon fill="midnightblue" stroke="midnightblue" points="386.586,-62.8391 377.912,-68.9223 388.486,-69.5762 386.586,-62.8391"/>
</g>
</g>
</svg>
