<?xml version="1.0" encoding="UTF-8" standalone="no"?>
<!DOCTYPE svg PUBLIC "-//W3C//DTD SVG 1.1//EN"
 "http://www.w3.org/Graphics/SVG/1.1/DTD/svg11.dtd">
<!-- Generated by graphviz version 2.36.0 (20140111.2315)
 -->
<!-- Title: src/expconfig/setups/SetupRegistry.h Pages: 1 -->
<svg width="3292pt" height="264pt"
 viewBox="0.00 0.00 3292.00 264.00" xmlns="http://www.w3.org/2000/svg" xmlns:xlink="http://www.w3.org/1999/xlink">
<g id="graph0" class="graph" transform="scale(1 1) rotate(0) translate(4 260)">
<title>src/expconfig/setups/SetupRegistry.h</title>
<polygon fill="white" stroke="none" points="-4,4 -4,-260 3288,-260 3288,4 -4,4"/>
<!-- Node9 -->
<g id="node1" class="node"><title>Node9</title>
<polygon fill="#bfbfbf" stroke="black" points="1557.5,-225 1557.5,-255 1664.5,-255 1664.5,-225 1557.5,-225"/>
<text text-anchor="start" x="1565.5" y="-243" font-family="Helvetica,sans-Serif" font-size="10.00">src/expconfig/setups</text>
<text text-anchor="middle" x="1611" y="-232" font-family="Helvetica,sans-Serif" font-size="10.00">/SetupRegistry.h</text>
</g>
<!-- Node10 -->
<g id="node2" class="node"><title>Node10</title>
<g id="a_node2"><a xlink:href="_ant-rawdump_8cc.html" target="_top" xlink:title="progs/Ant&#45;rawdump.cc">
<polygon fill="white" stroke="black" points="-0.5,-89.5 -0.5,-108.5 114.5,-108.5 114.5,-89.5 -0.5,-89.5"/>
<text text-anchor="middle" x="57" y="-96.5" font-family="Helvetica,sans-Serif" font-size="10.00">progs/Ant&#45;rawdump.cc</text>
</a>
</g>
</g>
<!-- Node9&#45;&gt;Node10 -->
<g id="edge1" class="edge"><title>Node9&#45;&gt;Node10</title>
<path fill="none" stroke="midnightblue" d="M1547.17,-238.779C1378.54,-237.597 907.367,-230.434 518,-188 340.911,-168.7 296.351,-161.02 123,-120 109.485,-116.802 94.6664,-112.396 82.5009,-108.533"/>
<polygon fill="midnightblue" stroke="midnightblue" points="1547.34,-242.28 1557.36,-238.845 1547.39,-235.28 1547.34,-242.28"/>
</g>
<!-- Node11 -->
<g id="node3" class="node"><title>Node11</title>
<g id="a_node3"><a xlink:href="_ant_8cc.html" target="_top" xlink:title="Main Ant executable. ">
<polygon fill="white" stroke="black" points="1718,-162.5 1718,-181.5 1790,-181.5 1790,-162.5 1718,-162.5"/>
<text text-anchor="middle" x="1754" y="-169.5" font-family="Helvetica,sans-Serif" font-size="10.00">progs/Ant.cc</text>
</a>
</g>
</g>
<!-- Node9&#45;&gt;Node11 -->
<g id="edge2" class="edge"><title>Node9&#45;&gt;Node11</title>
<path fill="none" stroke="midnightblue" d="M1651.06,-220.512C1678.59,-207.804 1713.9,-191.51 1735.19,-181.682"/>
<polygon fill="midnightblue" stroke="midnightblue" points="1649.29,-217.473 1641.68,-224.841 1652.22,-223.829 1649.29,-217.473"/>
</g>
<!-- Node12 -->
<g id="node4" class="node"><title>Node12</title>
<g id="a_node4"><a xlink:href="_omega_eta_g__fit_8cc.html" target="_top" xlink:title="progs/OmegaEtaG_fit.cc">
<polygon fill="white" stroke="black" points="132.5,-89.5 132.5,-108.5 257.5,-108.5 257.5,-89.5 132.5,-89.5"/>
<text text-anchor="middle" x="195" y="-96.5" font-family="Helvetica,sans-Serif" font-size="10.00">progs/OmegaEtaG_fit.cc</text>
</a>
</g>
</g>
<!-- Node9&#45;&gt;Node12 -->
<g id="edge3" class="edge"><title>Node9&#45;&gt;Node12</title>
<path fill="none" stroke="midnightblue" d="M1547.38,-237.484C1353.64,-231.99 754.382,-208.502 267,-120 251.683,-117.219 234.905,-112.65 221.402,-108.581"/>
<polygon fill="midnightblue" stroke="midnightblue" points="1547.3,-240.983 1557.39,-237.762 1547.49,-233.986 1547.3,-240.983"/>
</g>
<!-- Node13 -->
<g id="node5" class="node"><title>Node13</title>
<g id="a_node5"><a xlink:href="_setup_8h.html" target="_top" xlink:title="src/expconfig/setups\l/Setup.h">
<polygon fill="white" stroke="black" points="1516.5,-157 1516.5,-187 1623.5,-187 1623.5,-157 1516.5,-157"/>
<text text-anchor="start" x="1524.5" y="-175" font-family="Helvetica,sans-Serif" font-size="10.00">src/expconfig/setups</text>
<text text-anchor="middle" x="1570" y="-164" font-family="Helvetica,sans-Serif" font-size="10.00">/Setup.h</text>
</a>
</g>
</g>
<!-- Node9&#45;&gt;Node13 -->
<g id="edge4" class="edge"><title>Node9&#45;&gt;Node13</title>
<path fill="none" stroke="midnightblue" d="M1596.72,-216.019C1590.79,-206.467 1584.09,-195.677 1578.88,-187.293"/>
<polygon fill="midnightblue" stroke="midnightblue" points="1593.85,-218.031 1602.1,-224.679 1599.8,-214.338 1593.85,-218.031"/>
</g>
<!-- Node52 -->
<g id="node44" class="node"><title>Node52</title>
<g id="a_node44"><a xlink:href="_setup_registry_8cc.html" target="_top" xlink:title="src/expconfig/setups\l/SetupRegistry.cc">
<polygon fill="white" stroke="black" points="2860.5,-84 2860.5,-114 2967.5,-114 2967.5,-84 2860.5,-84"/>
<text text-anchor="start" x="2868.5" y="-102" font-family="Helvetica,sans-Serif" font-size="10.00">src/expconfig/setups</text>
<text text-anchor="middle" x="2914" y="-91" font-family="Helvetica,sans-Serif" font-size="10.00">/SetupRegistry.cc</text>
</a>
</g>
</g>
<!-- Node9&#45;&gt;Node52 -->
<g id="edge50" class="edge"><title>Node9&#45;&gt;Node52</title>
<path fill="none" stroke="midnightblue" d="M1621.97,-215.633C1632.68,-195.811 1651.02,-168.643 1676,-156 1792.54,-97.017 2722.24,-141.971 2851,-120 2859.03,-118.63 2867.45,-116.481 2875.43,-114.091"/>
<polygon fill="midnightblue" stroke="midnightblue" points="1618.78,-214.182 1617.33,-224.677 1625.01,-217.379 1618.78,-214.182"/>
</g>
<!-- Node53 -->
<g id="node45" class="node"><title>Node53</title>
<g id="a_node45"><a xlink:href="expconfig__helpers_8cc.html" target="_top" xlink:title="test/expconfig_helpers.cc">
<polygon fill="white" stroke="black" points="2986,-89.5 2986,-108.5 3114,-108.5 3114,-89.5 2986,-89.5"/>
<text text-anchor="middle" x="3050" y="-96.5" font-family="Helvetica,sans-Serif" font-size="10.00">test/expconfig_helpers.cc</text>
</a>
</g>
</g>
<!-- Node9&#45;&gt;Node53 -->
<g id="edge51" class="edge"><title>Node9&#45;&gt;Node53</title>
<path fill="none" stroke="midnightblue" d="M1636.14,-218.142C1647.18,-208.943 1660.27,-197.976 1672,-188 1688.56,-173.916 1688.74,-163.877 1709,-156 1840.27,-104.976 2836.67,-140.515 2976,-120 2992.33,-117.596 3010.2,-112.829 3024.29,-108.551"/>
<polygon fill="midnightblue" stroke="midnightblue" points="1633.6,-215.7 1628.16,-224.787 1638.08,-221.08 1633.6,-215.7"/>
</g>
<!-- Node13&#45;&gt;Node10 -->
<g id="edge8" class="edge"><title>Node13&#45;&gt;Node10</title>
<path fill="none" stroke="midnightblue" d="M1506.24,-170.943C1263.21,-170.387 394.958,-165.21 123,-120 108.355,-117.565 92.4121,-112.797 79.8651,-108.527"/>
<polygon fill="midnightblue" stroke="midnightblue" points="1506.31,-174.443 1516.32,-170.964 1506.33,-167.443 1506.31,-174.443"/>
</g>
<!-- Node13&#45;&gt;Node12 -->
<g id="edge9" class="edge"><title>Node13&#45;&gt;Node12</title>
<path fill="none" stroke="midnightblue" d="M1506.31,-169.374C1261.67,-163.011 389.863,-139.202 267,-120 251.234,-117.536 233.997,-112.823 220.342,-108.59"/>
<polygon fill="midnightblue" stroke="midnightblue" points="1506.37,-172.877 1516.46,-169.638 1506.55,-165.879 1506.37,-172.877"/>
</g>
<!-- Node14 -->
<g id="node6" class="node"><title>Node14</title>
<g id="a_node6"><a xlink:href="_ant-fake_raw_8cc.html" target="_top" xlink:title="progs/Ant&#45;fakeRaw.cc">
<polygon fill="white" stroke="black" points="1392,-89.5 1392,-108.5 1506,-108.5 1506,-89.5 1392,-89.5"/>
<text text-anchor="middle" x="1449" y="-96.5" font-family="Helvetica,sans-Serif" font-size="10.00">progs/Ant&#45;fakeRaw.cc</text>
</a>
</g>
</g>
<!-- Node13&#45;&gt;Node14 -->
<g id="edge5" class="edge"><title>Node13&#45;&gt;Node14</title>
<path fill="none" stroke="midnightblue" d="M1537.31,-151.819C1513.33,-137.745 1481.89,-119.299 1463.72,-108.637"/>
<polygon fill="midnightblue" stroke="midnightblue" points="1535.7,-154.93 1546.09,-156.973 1539.24,-148.893 1535.7,-154.93"/>
</g>
<!-- Node15 -->
<g id="node7" class="node"><title>Node15</title>
<g id="a_node7"><a xlink:href="_ant-info_8cc.html" target="_top" xlink:title="progs/Ant&#45;info.cc">
<polygon fill="white" stroke="black" points="1524.5,-89.5 1524.5,-108.5 1615.5,-108.5 1615.5,-89.5 1524.5,-89.5"/>
<text text-anchor="middle" x="1570" y="-96.5" font-family="Helvetica,sans-Serif" font-size="10.00">progs/Ant&#45;info.cc</text>
</a>
</g>
</g>
<!-- Node13&#45;&gt;Node15 -->
<g id="edge6" class="edge"><title>Node13&#45;&gt;Node15</title>
<path fill="none" stroke="midnightblue" d="M1570,-146.632C1570,-133.468 1570,-118.031 1570,-108.637"/>
<polygon fill="midnightblue" stroke="midnightblue" points="1566.5,-146.973 1570,-156.973 1573.5,-146.973 1566.5,-146.973"/>
</g>
<!-- Node16 -->
<g id="node8" class="node"><title>Node16</title>
<g id="a_node8"><a xlink:href="_ant-make_tagg_eff_8cc.html" target="_top" xlink:title="progs/Ant&#45;makeTaggEff.cc">
<polygon fill="white" stroke="black" points="1634,-89.5 1634,-108.5 1768,-108.5 1768,-89.5 1634,-89.5"/>
<text text-anchor="middle" x="1701" y="-96.5" font-family="Helvetica,sans-Serif" font-size="10.00">progs/Ant&#45;makeTaggEff.cc</text>
</a>
</g>
</g>
<!-- Node13&#45;&gt;Node16 -->
<g id="edge7" class="edge"><title>Node13&#45;&gt;Node16</title>
<path fill="none" stroke="midnightblue" d="M1604.71,-152.189C1630.76,-138.071 1665.22,-119.393 1685.06,-108.637"/>
<polygon fill="midnightblue" stroke="midnightblue" points="1603.01,-149.131 1595.88,-156.973 1606.34,-155.285 1603.01,-149.131"/>
</g>
<!-- Node17 -->
<g id="node9" class="node"><title>Node17</title>
<g id="a_node9"><a xlink:href="_proton_vertex_test_8cc.html" target="_top" xlink:title="src/analysis/physics\l/scratch/wolfes/ProtonVertex\lTest.cc">
<polygon fill="white" stroke="black" points="1786.5,-78.5 1786.5,-119.5 1929.5,-119.5 1929.5,-78.5 1786.5,-78.5"/>
<text text-anchor="start" x="1794.5" y="-107.5" font-family="Helvetica,sans-Serif" font-size="10.00">src/analysis/physics</text>
<text text-anchor="start" x="1794.5" y="-96.5" font-family="Helvetica,sans-Serif" font-size="10.00">/scratch/wolfes/ProtonVertex</text>
<text text-anchor="middle" x="1858" y="-85.5" font-family="Helvetica,sans-Serif" font-size="10.00">Test.cc</text>
</a>
</g>
</g>
<!-- Node13&#45;&gt;Node17 -->
<g id="edge10" class="edge"><title>Node13&#45;&gt;Node17</title>
<path fill="none" stroke="midnightblue" d="M1633.46,-155.374C1674.43,-145.284 1728.86,-131.873 1777,-120 1780.09,-119.237 1783.25,-118.457 1786.45,-117.67"/>
<polygon fill="midnightblue" stroke="midnightblue" points="1632.49,-152.009 1623.61,-157.799 1634.16,-158.806 1632.49,-152.009"/>
</g>
<!-- Node18 -->
<g id="node10" class="node"><title>Node18</title>
<g id="a_node10"><a xlink:href="_exp_config_8cc.html" target="_top" xlink:title="src/expconfig/ExpConfig.cc">
<polygon fill="white" stroke="black" points="1947.5,-89.5 1947.5,-108.5 2084.5,-108.5 2084.5,-89.5 1947.5,-89.5"/>
<text text-anchor="middle" x="2016" y="-96.5" font-family="Helvetica,sans-Serif" font-size="10.00">src/expconfig/ExpConfig.cc</text>
</a>
</g>
</g>
<!-- Node13&#45;&gt;Node18 -->
<g id="edge11" class="edge"><title>Node13&#45;&gt;Node18</title>
<path fill="none" stroke="midnightblue" d="M1633.6,-156.77C1635.08,-156.504 1636.55,-156.247 1638,-156 1770.39,-133.51 1806.01,-144.731 1938,-120 1954.21,-116.962 1972.05,-112.475 1986.57,-108.521"/>
<polygon fill="midnightblue" stroke="midnightblue" points="1632.9,-153.34 1623.73,-158.64 1634.2,-160.218 1632.9,-153.34"/>
</g>
<!-- Node19 -->
<g id="node11" class="node"><title>Node19</title>
<g id="a_node11"><a xlink:href="_setup_8cc.html" target="_top" xlink:title="src/expconfig/setups\l/Setup.cc">
<polygon fill="white" stroke="black" points="2102.5,-84 2102.5,-114 2209.5,-114 2209.5,-84 2102.5,-84"/>
<text text-anchor="start" x="2110.5" y="-102" font-family="Helvetica,sans-Serif" font-size="10.00">src/expconfig/setups</text>
<text text-anchor="middle" x="2156" y="-91" font-family="Helvetica,sans-Serif" font-size="10.00">/Setup.cc</text>
</a>
</g>
</g>
<!-- Node13&#45;&gt;Node19 -->
<g id="edge12" class="edge"><title>Node13&#45;&gt;Node19</title>
<path fill="none" stroke="midnightblue" d="M1633.59,-156.69C1635.07,-156.448 1636.54,-156.217 1638,-156 1838.64,-126.08 1893.92,-158.943 2093,-120 2100.66,-118.502 2108.69,-116.389 2116.36,-114.093"/>
<polygon fill="midnightblue" stroke="midnightblue" points="1632.93,-153.251 1623.69,-158.437 1634.15,-160.145 1632.93,-153.251"/>
</g>
<!-- Node20 -->
<g id="node12" class="node"><title>Node20</title>
<g id="a_node12"><a xlink:href="_setup__2007___base_8h.html" target="_top" xlink:title="src/expconfig/setups\l/Setup_2007_Base.h">
<polygon fill="white" stroke="black" points="2227.5,-84 2227.5,-114 2334.5,-114 2334.5,-84 2227.5,-84"/>
<text text-anchor="start" x="2235.5" y="-102" font-family="Helvetica,sans-Serif" font-size="10.00">src/expconfig/setups</text>
<text text-anchor="middle" x="2281" y="-91" font-family="Helvetica,sans-Serif" font-size="10.00">/Setup_2007_Base.h</text>
</a>
</g>
</g>
<!-- Node13&#45;&gt;Node20 -->
<g id="edge13" class="edge"><title>Node13&#45;&gt;Node20</title>
<path fill="none" stroke="midnightblue" d="M1633.58,-156.656C1635.07,-156.424 1636.54,-156.205 1638,-156 1893.76,-120.075 1964.12,-167.431 2218,-120 2225.78,-118.546 2233.95,-116.423 2241.72,-114.097"/>
<polygon fill="midnightblue" stroke="midnightblue" points="1632.95,-153.214 1623.68,-158.352 1634.13,-160.114 1632.95,-153.214"/>
</g>
<!-- Node23 -->
<g id="node15" class="node"><title>Node23</title>
<g id="a_node15"><a xlink:href="_setup__2007___base_8cc.html" target="_top" xlink:title="src/expconfig/setups\l/Setup_2007_Base.cc">
<polygon fill="white" stroke="black" points="2224.5,-6 2224.5,-36 2337.5,-36 2337.5,-6 2224.5,-6"/>
<text text-anchor="start" x="2232.5" y="-24" font-family="Helvetica,sans-Serif" font-size="10.00">src/expconfig/setups</text>
<text text-anchor="middle" x="2281" y="-13" font-family="Helvetica,sans-Serif" font-size="10.00">/Setup_2007_Base.cc</text>
</a>
</g>
</g>
<!-- Node13&#45;&gt;Node23 -->
<g id="edge17" class="edge"><title>Node13&#45;&gt;Node23</title>
<path fill="none" stroke="midnightblue" d="M1633.58,-156.635C1635.06,-156.409 1636.54,-156.197 1638,-156 1715.73,-145.516 2288.97,-176.859 2343,-120 2355.86,-106.468 2350.58,-95.0588 2343,-78 2335.17,-60.3706 2318.74,-45.9441 2304.76,-36.151"/>
<polygon fill="midnightblue" stroke="midnightblue" points="1632.96,-153.19 1623.67,-158.297 1634.12,-160.093 1632.96,-153.19"/>
</g>
<!-- Node24 -->
<g id="node16" class="node"><title>Node24</title>
<g id="a_node16"><a xlink:href="_setup__2010__03___base_8cc.html" target="_top" xlink:title="src/expconfig/setups\l/Setup_2010_03_Base.cc">
<polygon fill="white" stroke="black" points="2356,-6 2356,-36 2484,-36 2484,-6 2356,-6"/>
<text text-anchor="start" x="2364" y="-24" font-family="Helvetica,sans-Serif" font-size="10.00">src/expconfig/setups</text>
<text text-anchor="middle" x="2420" y="-13" font-family="Helvetica,sans-Serif" font-size="10.00">/Setup_2010_03_Base.cc</text>
</a>
</g>
</g>
<!-- Node13&#45;&gt;Node24 -->
<g id="edge18" class="edge"><title>Node13&#45;&gt;Node24</title>
<path fill="none" stroke="midnightblue" d="M1633.58,-156.632C1635.06,-156.407 1636.54,-156.196 1638,-156 1717.61,-145.312 2290.93,-160.994 2360,-120 2391.74,-101.164 2408.94,-58.3731 2416.04,-36.0865"/>
<polygon fill="midnightblue" stroke="midnightblue" points="1632.96,-153.187 1623.67,-158.291 1634.11,-160.091 1632.96,-153.187"/>
</g>
<!-- Node25 -->
<g id="node17" class="node"><title>Node25</title>
<g id="a_node17"><a xlink:href="_setup__2010__03___base_8h.html" target="_top" xlink:title="src/expconfig/setups\l/Setup_2010_03_Base.h">
<polygon fill="white" stroke="black" points="2429.5,-84 2429.5,-114 2552.5,-114 2552.5,-84 2429.5,-84"/>
<text text-anchor="start" x="2437.5" y="-102" font-family="Helvetica,sans-Serif" font-size="10.00">src/expconfig/setups</text>
<text text-anchor="middle" x="2491" y="-91" font-family="Helvetica,sans-Serif" font-size="10.00">/Setup_2010_03_Base.h</text>
</a>
</g>
</g>
<!-- Node13&#45;&gt;Node25 -->
<g id="edge19" class="edge"><title>Node13&#45;&gt;Node25</title>
<path fill="none" stroke="midnightblue" d="M1633.58,-156.625C1635.06,-156.403 1636.54,-156.193 1638,-156 1980.71,-110.601 2073.27,-172.28 2415,-120 2424.44,-118.556 2434.4,-116.406 2443.89,-114.044"/>
<polygon fill="midnightblue" stroke="midnightblue" points="1632.96,-153.18 1623.67,-158.273 1634.11,-160.085 1632.96,-153.18"/>
</g>
<!-- Node27 -->
<g id="node19" class="node"><title>Node27</title>
<g id="a_node19"><a xlink:href="_setup__2012__12___compton_8cc.html" target="_top" xlink:title="src/expconfig/setups\l/Setup_2012_12_Compton.cc">
<polygon fill="white" stroke="black" points="2571,-84 2571,-114 2717,-114 2717,-84 2571,-84"/>
<text text-anchor="start" x="2579" y="-102" font-family="Helvetica,sans-Serif" font-size="10.00">src/expconfig/setups</text>
<text text-anchor="middle" x="2644" y="-91" font-family="Helvetica,sans-Serif" font-size="10.00">/Setup_2012_12_Compton.cc</text>
</a>
</g>
</g>
<!-- Node13&#45;&gt;Node27 -->
<g id="edge22" class="edge"><title>Node13&#45;&gt;Node27</title>
<path fill="none" stroke="midnightblue" d="M1633.58,-156.611C1635.06,-156.392 1636.54,-156.188 1638,-156 2045.17,-103.576 2154.35,-176.36 2561,-120 2571.28,-118.576 2582.14,-116.435 2592.5,-114.076"/>
<polygon fill="midnightblue" stroke="midnightblue" points="1632.97,-153.164 1623.67,-158.236 1634.1,-160.071 1632.97,-153.164"/>
</g>
<!-- Node28 -->
<g id="node20" class="node"><title>Node28</title>
<g id="a_node20"><a xlink:href="_setup__2014___e_p_t_8h.html" target="_top" xlink:title="src/expconfig/setups\l/Setup_2014_EPT.h">
<polygon fill="white" stroke="black" points="2735.5,-84 2735.5,-114 2842.5,-114 2842.5,-84 2735.5,-84"/>
<text text-anchor="start" x="2743.5" y="-102" font-family="Helvetica,sans-Serif" font-size="10.00">src/expconfig/setups</text>
<text text-anchor="middle" x="2789" y="-91" font-family="Helvetica,sans-Serif" font-size="10.00">/Setup_2014_EPT.h</text>
</a>
</g>
</g>
<!-- Node13&#45;&gt;Node28 -->
<g id="edge23" class="edge"><title>Node13&#45;&gt;Node28</title>
<path fill="none" stroke="midnightblue" d="M1633.57,-156.599C1635.06,-156.384 1636.54,-156.184 1638,-156 2118.04,-95.6348 2249.17,-201.967 2726,-120 2734.03,-118.62 2742.45,-116.467 2750.43,-114.076"/>
<polygon fill="midnightblue" stroke="midnightblue" points="1632.97,-153.151 1623.66,-158.206 1634.09,-160.06 1632.97,-153.151"/>
</g>
<!-- Node33 -->
<g id="node25" class="node"><title>Node33</title>
<g id="a_node25"><a xlink:href="_setup__2015__01___pion_8cc.html" target="_top" xlink:title="src/expconfig/setups\l/Setup_2015_01_Pion.cc">
<polygon fill="white" stroke="black" points="101.5,-6 101.5,-36 226.5,-36 226.5,-6 101.5,-6"/>
<text text-anchor="start" x="109.5" y="-24" font-family="Helvetica,sans-Serif" font-size="10.00">src/expconfig/setups</text>
<text text-anchor="middle" x="164" y="-13" font-family="Helvetica,sans-Serif" font-size="10.00">/Setup_2015_01_Pion.cc</text>
</a>
</g>
</g>
<!-- Node13&#45;&gt;Node33 -->
<g id="edge28" class="edge"><title>Node13&#45;&gt;Node33</title>
<path fill="none" stroke="midnightblue" d="M1506.15,-169.447C1274.8,-163.648 491.433,-142.437 443,-120 419.886,-109.293 426.155,-90.572 404,-78 337.208,-40.0983 309.554,-60.4208 235,-42 227.665,-40.1877 219.94,-38.1484 212.394,-36.083"/>
<polygon fill="midnightblue" stroke="midnightblue" points="1506.34,-172.953 1516.43,-169.704 1506.52,-165.955 1506.34,-172.953"/>
</g>
<!-- Node34 -->
<g id="node26" class="node"><title>Node34</title>
<g id="a_node26"><a xlink:href="_setup__2015__01___pion_8h.html" target="_top" xlink:title="src/expconfig/setups\l/Setup_2015_01_Pion.h">
<polygon fill="white" stroke="black" points="276,-84 276,-114 396,-114 396,-84 276,-84"/>
<text text-anchor="start" x="284" y="-102" font-family="Helvetica,sans-Serif" font-size="10.00">src/expconfig/setups</text>
<text text-anchor="middle" x="336" y="-91" font-family="Helvetica,sans-Serif" font-size="10.00">/Setup_2015_01_Pion.h</text>
</a>
</g>
</g>
<!-- Node13&#45;&gt;Node34 -->
<g id="edge29" class="edge"><title>Node13&#45;&gt;Node34</title>
<path fill="none" stroke="midnightblue" d="M1506.01,-170.04C1295.22,-166.585 623.89,-153.191 410,-120 400.794,-118.571 391.09,-116.429 381.849,-114.069"/>
<polygon fill="midnightblue" stroke="midnightblue" points="1506.23,-173.544 1516.29,-170.206 1506.35,-166.544 1506.23,-173.544"/>
</g>
<!-- Node35 -->
<g id="node27" class="node"><title>Node35</title>
<g id="a_node27"><a xlink:href="_setup__2017__03_8h.html" target="_top" xlink:title="src/expconfig/setups\l/Setup_2017_03.h">
<polygon fill="white" stroke="black" points="452.5,-84 452.5,-114 559.5,-114 559.5,-84 452.5,-84"/>
<text text-anchor="start" x="460.5" y="-102" font-family="Helvetica,sans-Serif" font-size="10.00">src/expconfig/setups</text>
<text text-anchor="middle" x="506" y="-91" font-family="Helvetica,sans-Serif" font-size="10.00">/Setup_2017_03.h</text>
</a>
</g>
</g>
<!-- Node13&#45;&gt;Node35 -->
<g id="edge31" class="edge"><title>Node13&#45;&gt;Node35</title>
<path fill="none" stroke="midnightblue" d="M1506.08,-169.925C1314.83,-166.364 749.161,-153.237 568,-120 560.213,-118.571 552.049,-116.429 544.296,-114.069"/>
<polygon fill="midnightblue" stroke="midnightblue" points="1506.18,-173.427 1516.25,-170.112 1506.31,-166.429 1506.18,-173.427"/>
</g>
<!-- Node37 -->
<g id="node29" class="node"><title>Node37</title>
<g id="a_node29"><a xlink:href="_setup__2017__05_8h.html" target="_top" xlink:title="src/expconfig/setups\l/Setup_2017_05.h">
<polygon fill="white" stroke="black" points="577.5,-84 577.5,-114 684.5,-114 684.5,-84 577.5,-84"/>
<text text-anchor="start" x="585.5" y="-102" font-family="Helvetica,sans-Serif" font-size="10.00">src/expconfig/setups</text>
<text text-anchor="middle" x="631" y="-91" font-family="Helvetica,sans-Serif" font-size="10.00">/Setup_2017_05.h</text>
</a>
</g>
</g>
<!-- Node13&#45;&gt;Node37 -->
<g id="edge33" class="edge"><title>Node13&#45;&gt;Node37</title>
<path fill="none" stroke="midnightblue" d="M1506.16,-169.347C1331.77,-164.501 849.966,-148.828 694,-120 686.101,-118.54 677.811,-116.383 669.935,-114.019"/>
<polygon fill="midnightblue" stroke="midnightblue" points="1506.12,-172.847 1516.21,-169.623 1506.31,-165.849 1506.12,-172.847"/>
</g>
<!-- Node39 -->
<g id="node31" class="node"><title>Node39</title>
<g id="a_node31"><a xlink:href="_setup__2017_plus___new_tagger___base_8h.html" target="_top" xlink:title="src/expconfig/setups\l/Setup_2017Plus_NewTagger\l_Base.h">
<polygon fill="white" stroke="black" points="703,-78.5 703,-119.5 849,-119.5 849,-78.5 703,-78.5"/>
<text text-anchor="start" x="711" y="-107.5" font-family="Helvetica,sans-Serif" font-size="10.00">src/expconfig/setups</text>
<text text-anchor="start" x="711" y="-96.5" font-family="Helvetica,sans-Serif" font-size="10.00">/Setup_2017Plus_NewTagger</text>
<text text-anchor="middle" x="776" y="-85.5" font-family="Helvetica,sans-Serif" font-size="10.00">_Base.h</text>
</a>
</g>
</g>
<!-- Node13&#45;&gt;Node39 -->
<g id="edge35" class="edge"><title>Node13&#45;&gt;Node39</title>
<path fill="none" stroke="midnightblue" d="M1505.88,-170.003C1380.63,-167.263 1094.98,-157.119 858,-120 855.105,-119.546 852.161,-119.042 849.195,-118.497"/>
<polygon fill="midnightblue" stroke="midnightblue" points="1505.99,-173.506 1516.06,-170.217 1506.14,-166.507 1505.99,-173.506"/>
</g>
<!-- Node45 -->
<g id="node37" class="node"><title>Node45</title>
<g id="a_node37"><a xlink:href="_setup__2018__11_8h.html" target="_top" xlink:title="src/expconfig/setups\l/Setup_2018_11.h">
<polygon fill="white" stroke="black" points="867.5,-84 867.5,-114 974.5,-114 974.5,-84 867.5,-84"/>
<text text-anchor="start" x="875.5" y="-102" font-family="Helvetica,sans-Serif" font-size="10.00">src/expconfig/setups</text>
<text text-anchor="middle" x="921" y="-91" font-family="Helvetica,sans-Serif" font-size="10.00">/Setup_2018_11.h</text>
</a>
</g>
</g>
<!-- Node13&#45;&gt;Node45 -->
<g id="edge41" class="edge"><title>Node13&#45;&gt;Node45</title>
<path fill="none" stroke="midnightblue" d="M1506.29,-170.147C1397.8,-167.656 1170.71,-157.925 983,-120 975.461,-118.477 967.553,-116.352 960.004,-114.052"/>
<polygon fill="midnightblue" stroke="midnightblue" points="1506.34,-173.649 1516.41,-170.366 1506.49,-166.65 1506.34,-173.649"/>
</g>
<!-- Node47 -->
<g id="node39" class="node"><title>Node47</title>
<g id="a_node39"><a xlink:href="_setup__2019__01_8h.html" target="_top" xlink:title="src/expconfig/setups\l/Setup_2019_01.h">
<polygon fill="white" stroke="black" points="992.5,-84 992.5,-114 1099.5,-114 1099.5,-84 992.5,-84"/>
<text text-anchor="start" x="1000.5" y="-102" font-family="Helvetica,sans-Serif" font-size="10.00">src/expconfig/setups</text>
<text text-anchor="middle" x="1046" y="-91" font-family="Helvetica,sans-Serif" font-size="10.00">/Setup_2019_01.h</text>
</a>
</g>
</g>
<!-- Node13&#45;&gt;Node47 -->
<g id="edge43" class="edge"><title>Node13&#45;&gt;Node47</title>
<path fill="none" stroke="midnightblue" d="M1506.42,-168.05C1416.75,-162.972 1248.37,-150.064 1108,-120 1100.59,-118.413 1092.81,-116.287 1085.37,-114.012"/>
<polygon fill="midnightblue" stroke="midnightblue" points="1506.26,-171.546 1516.44,-168.603 1506.64,-164.557 1506.26,-171.546"/>
</g>
<!-- Node49 -->
<g id="node41" class="node"><title>Node49</title>
<g id="a_node41"><a xlink:href="_setup__2019__06_8h.html" target="_top" xlink:title="src/expconfig/setups\l/Setup_2019_06.h">
<polygon fill="white" stroke="black" points="1117.5,-84 1117.5,-114 1224.5,-114 1224.5,-84 1117.5,-84"/>
<text text-anchor="start" x="1125.5" y="-102" font-family="Helvetica,sans-Serif" font-size="10.00">src/expconfig/setups</text>
<text text-anchor="middle" x="1171" y="-91" font-family="Helvetica,sans-Serif" font-size="10.00">/Setup_2019_06.h</text>
</a>
</g>
</g>
<!-- Node13&#45;&gt;Node49 -->
<g id="edge45" class="edge"><title>Node13&#45;&gt;Node49</title>
<path fill="none" stroke="midnightblue" d="M1506.22,-164.464C1438.01,-156.751 1326.96,-142.111 1233,-120 1225.95,-118.342 1218.56,-116.263 1211.42,-114.077"/>
<polygon fill="midnightblue" stroke="midnightblue" points="1506.05,-167.966 1516.38,-165.597 1506.83,-161.01 1506.05,-167.966"/>
</g>
<!-- Node51 -->
<g id="node43" class="node"><title>Node51</title>
<g id="a_node43"><a xlink:href="_setup___c_b_source_calib_8cc.html" target="_top" xlink:title="src/expconfig/setups\l/Setup_CBSourceCalib.cc">
<polygon fill="white" stroke="black" points="1242.5,-84 1242.5,-114 1373.5,-114 1373.5,-84 1242.5,-84"/>
<text text-anchor="start" x="1250.5" y="-102" font-family="Helvetica,sans-Serif" font-size="10.00">src/expconfig/setups</text>
<text text-anchor="middle" x="1308" y="-91" font-family="Helvetica,sans-Serif" font-size="10.00">/Setup_CBSourceCalib.cc</text>
</a>
</g>
</g>
<!-- Node13&#45;&gt;Node51 -->
<g id="edge47" class="edge"><title>Node13&#45;&gt;Node51</title>
<path fill="none" stroke="midnightblue" d="M1508.57,-154.353C1463.46,-142.129 1402.85,-125.704 1360.1,-114.12"/>
<polygon fill="midnightblue" stroke="midnightblue" points="1507.67,-157.735 1518.24,-156.973 1509.5,-150.979 1507.67,-157.735"/>
</g>
<!-- Node13&#45;&gt;Node52 -->
<g id="edge48" class="edge"><title>Node13&#45;&gt;Node52</title>
<path fill="none" stroke="midnightblue" d="M1633.57,-156.592C1635.06,-156.379 1636.54,-156.181 1638,-156 2173.25,-89.6182 2319.29,-210.469 2851,-120 2859.03,-118.633 2867.45,-116.486 2875.43,-114.097"/>
<polygon fill="midnightblue" stroke="midnightblue" points="1632.98,-153.143 1623.66,-158.189 1634.09,-160.054 1632.98,-153.143"/>
</g>
<!-- Node13&#45;&gt;Node53 -->
<g id="edge49" class="edge"><title>Node13&#45;&gt;Node53</title>
<path fill="none" stroke="midnightblue" d="M1633.52,-160.821C1647.48,-158.917 1662.21,-157.163 1676,-156 2251.95,-107.43 2404.14,-203.988 2976,-120 2992.33,-117.602 3010.2,-112.835 3024.29,-108.556"/>
<polygon fill="midnightblue" stroke="midnightblue" points="1632.94,-157.37 1623.52,-162.228 1633.91,-164.301 1632.94,-157.37"/>
</g>
<!-- Node21 -->
<g id="node13" class="node"><title>Node21</title>
<g id="a_node13"><a xlink:href="_setup__2007__06_8cc.html" target="_top" xlink:title="src/expconfig/setups\l/Setup_2007_06.cc">
<polygon fill="white" stroke="black" points="1974.5,-6 1974.5,-36 2081.5,-36 2081.5,-6 1974.5,-6"/>
<text text-anchor="start" x="1982.5" y="-24" font-family="Helvetica,sans-Serif" font-size="10.00">src/expconfig/setups</text>
<text text-anchor="middle" x="2028" y="-13" font-family="Helvetica,sans-Serif" font-size="10.00">/Setup_2007_06.cc</text>
</a>
</g>
</g>
<!-- Node20&#45;&gt;Node21 -->
<g id="edge14" class="edge"><title>Node20&#45;&gt;Node21</title>
<path fill="none" stroke="midnightblue" d="M2227.59,-80.9176C2224.35,-79.9201 2221.13,-78.9409 2218,-78 2161.81,-61.122 2147.19,-58.878 2091,-42 2084.74,-40.1183 2078.14,-38.083 2071.66,-36.0558"/>
<polygon fill="midnightblue" stroke="midnightblue" points="2226.75,-84.3208 2237.34,-83.9442 2228.82,-77.6357 2226.75,-84.3208"/>
</g>
<!-- Node22 -->
<g id="node14" class="node"><title>Node22</title>
<g id="a_node14"><a xlink:href="_setup__2007__07_8cc.html" target="_top" xlink:title="src/expconfig/setups\l/Setup_2007_07.cc">
<polygon fill="white" stroke="black" points="2099.5,-6 2099.5,-36 2206.5,-36 2206.5,-6 2099.5,-6"/>
<text text-anchor="start" x="2107.5" y="-24" font-family="Helvetica,sans-Serif" font-size="10.00">src/expconfig/setups</text>
<text text-anchor="middle" x="2153" y="-13" font-family="Helvetica,sans-Serif" font-size="10.00">/Setup_2007_07.cc</text>
</a>
</g>
</g>
<!-- Node20&#45;&gt;Node22 -->
<g id="edge15" class="edge"><title>Node20&#45;&gt;Node22</title>
<path fill="none" stroke="midnightblue" d="M2248.4,-78.6444C2226.02,-65.3533 2196.82,-48.0166 2176.65,-36.0413"/>
<polygon fill="midnightblue" stroke="midnightblue" points="2246.84,-81.7872 2257.22,-83.8831 2250.41,-75.7682 2246.84,-81.7872"/>
</g>
<!-- Node20&#45;&gt;Node23 -->
<g id="edge16" class="edge"><title>Node20&#45;&gt;Node23</title>
<path fill="none" stroke="midnightblue" d="M2281,-73.5898C2281,-61.2565 2281,-46.7237 2281,-36.2309"/>
<polygon fill="midnightblue" stroke="midnightblue" points="2277.5,-73.7049 2281,-83.705 2284.5,-73.705 2277.5,-73.7049"/>
</g>
<!-- Node25&#45;&gt;Node24 -->
<g id="edge20" class="edge"><title>Node25&#45;&gt;Node24</title>
<path fill="none" stroke="midnightblue" d="M2470.61,-76.1707C2458.61,-63.3319 2443.79,-47.4656 2433.29,-36.2309"/>
<polygon fill="midnightblue" stroke="midnightblue" points="2468.26,-78.7869 2477.65,-83.705 2473.38,-74.0083 2468.26,-78.7869"/>
</g>
<!-- Node26 -->
<g id="node18" class="node"><title>Node26</title>
<g id="a_node18"><a xlink:href="_setup__2010__09___compton_8cc.html" target="_top" xlink:title="src/expconfig/setups\l/Setup_2010_09_Compton.cc">
<polygon fill="white" stroke="black" points="2502,-6 2502,-36 2648,-36 2648,-6 2502,-6"/>
<text text-anchor="start" x="2510" y="-24" font-family="Helvetica,sans-Serif" font-size="10.00">src/expconfig/setups</text>
<text text-anchor="middle" x="2575" y="-13" font-family="Helvetica,sans-Serif" font-size="10.00">/Setup_2010_09_Compton.cc</text>
</a>
</g>
</g>
<!-- Node25&#45;&gt;Node26 -->
<g id="edge21" class="edge"><title>Node25&#45;&gt;Node26</title>
<path fill="none" stroke="midnightblue" d="M2514.33,-76.8941C2528.65,-63.9322 2546.62,-47.6775 2559.27,-36.2309"/>
<polygon fill="midnightblue" stroke="midnightblue" points="2511.87,-74.4004 2506.8,-83.705 2516.56,-79.5912 2511.87,-74.4004"/>
</g>
<!-- Node29 -->
<g id="node21" class="node"><title>Node29</title>
<g id="a_node21"><a xlink:href="_setup__2014__07___e_p_t___prod_8cc.html" target="_top" xlink:title="src/expconfig/setups\l/Setup_2014_07_EPT_Prod.cc">
<polygon fill="white" stroke="black" points="3133.5,-6 3133.5,-36 3284.5,-36 3284.5,-6 3133.5,-6"/>
<text text-anchor="start" x="3141.5" y="-24" font-family="Helvetica,sans-Serif" font-size="10.00">src/expconfig/setups</text>
<text text-anchor="middle" x="3209" y="-13" font-family="Helvetica,sans-Serif" font-size="10.00">/Setup_2014_07_EPT_Prod.cc</text>
</a>
</g>
</g>
<!-- Node28&#45;&gt;Node29 -->
<g id="edge24" class="edge"><title>Node28&#45;&gt;Node29</title>
<path fill="none" stroke="midnightblue" d="M2839.49,-81.1211C2843.69,-79.9741 2847.9,-78.9135 2852,-78 2971.02,-51.4488 3004.06,-63.9921 3124,-42 3133.39,-40.2775 3143.31,-38.1916 3152.93,-36.0254"/>
<polygon fill="midnightblue" stroke="midnightblue" points="2838.37,-77.801 2829.72,-83.9255 2840.3,-84.529 2838.37,-77.801"/>
</g>
<!-- Node30 -->
<g id="node22" class="node"><title>Node30</title>
<g id="a_node22"><a xlink:href="_setup__2014__10___e_p_t___prod_8cc.html" target="_top" xlink:title="src/expconfig/setups\l/Setup_2014_10_EPT_Prod.cc">
<polygon fill="white" stroke="black" points="2666.5,-6 2666.5,-36 2817.5,-36 2817.5,-6 2666.5,-6"/>
<text text-anchor="start" x="2674.5" y="-24" font-family="Helvetica,sans-Serif" font-size="10.00">src/expconfig/setups</text>
<text text-anchor="middle" x="2742" y="-13" font-family="Helvetica,sans-Serif" font-size="10.00">/Setup_2014_10_EPT_Prod.cc</text>
</a>
</g>
</g>
<!-- Node28&#45;&gt;Node30 -->
<g id="edge25" class="edge"><title>Node28&#45;&gt;Node30</title>
<path fill="none" stroke="midnightblue" d="M2774.82,-75.0735C2767.01,-62.4375 2757.55,-47.1476 2750.8,-36.2309"/>
<polygon fill="midnightblue" stroke="midnightblue" points="2771.92,-77.0408 2780.16,-83.705 2777.88,-73.359 2771.92,-77.0408"/>
</g>
<!-- Node31 -->
<g id="node23" class="node"><title>Node31</title>
<g id="a_node23"><a xlink:href="_setup__2014__12___e_p_t___prod_8cc.html" target="_top" xlink:title="src/expconfig/setups\l/Setup_2014_12_EPT_Prod.cc">
<polygon fill="white" stroke="black" points="2835.5,-6 2835.5,-36 2986.5,-36 2986.5,-6 2835.5,-6"/>
<text text-anchor="start" x="2843.5" y="-24" font-family="Helvetica,sans-Serif" font-size="10.00">src/expconfig/setups</text>
<text text-anchor="middle" x="2911" y="-13" font-family="Helvetica,sans-Serif" font-size="10.00">/Setup_2014_12_EPT_Prod.cc</text>
</a>
</g>
</g>
<!-- Node28&#45;&gt;Node31 -->
<g id="edge26" class="edge"><title>Node28&#45;&gt;Node31</title>
<path fill="none" stroke="midnightblue" d="M2820.36,-78.467C2841.65,-65.1993 2869.32,-47.9633 2888.46,-36.0413"/>
<polygon fill="midnightblue" stroke="midnightblue" points="2818.3,-75.6248 2811.66,-83.8831 2822,-81.5663 2818.3,-75.6248"/>
</g>
<!-- Node32 -->
<g id="node24" class="node"><title>Node32</title>
<g id="a_node24"><a xlink:href="_setup__2014___e_p_t_8cc.html" target="_top" xlink:title="src/expconfig/setups\l/Setup_2014_EPT.cc">
<polygon fill="white" stroke="black" points="3005,-6 3005,-36 3115,-36 3115,-6 3005,-6"/>
<text text-anchor="start" x="3013" y="-24" font-family="Helvetica,sans-Serif" font-size="10.00">src/expconfig/setups</text>
<text text-anchor="middle" x="3060" y="-13" font-family="Helvetica,sans-Serif" font-size="10.00">/Setup_2014_EPT.cc</text>
</a>
</g>
</g>
<!-- Node28&#45;&gt;Node32 -->
<g id="edge27" class="edge"><title>Node28&#45;&gt;Node32</title>
<path fill="none" stroke="midnightblue" d="M2841.72,-81.0041C2845.19,-79.965 2848.64,-78.9547 2852,-78 2915.04,-60.0764 2931.88,-59.6429 2995,-42 3001.6,-40.1565 3008.54,-38.1218 3015.33,-36.077"/>
<polygon fill="midnightblue" stroke="midnightblue" points="2840.48,-77.7234 2831.93,-83.9867 2842.52,-84.4193 2840.48,-77.7234"/>
</g>
<!-- Node34&#45;&gt;Node33 -->
<g id="edge30" class="edge"><title>Node34&#45;&gt;Node33</title>
<path fill="none" stroke="midnightblue" d="M294.582,-79.6989C264.217,-66.2817 223.602,-48.3359 195.778,-36.0413"/>
<polygon fill="midnightblue" stroke="midnightblue" points="293.49,-83.0428 304.051,-83.8831 296.319,-76.64 293.49,-83.0428"/>
</g>
<!-- Node36 -->
<g id="node28" class="node"><title>Node36</title>
<g id="a_node28"><a xlink:href="_setup__2017__03_8cc.html" target="_top" xlink:title="src/expconfig/setups\l/Setup_2017_03.cc">
<polygon fill="white" stroke="black" points="244.5,-6 244.5,-36 351.5,-36 351.5,-6 244.5,-6"/>
<text text-anchor="start" x="252.5" y="-24" font-family="Helvetica,sans-Serif" font-size="10.00">src/expconfig/setups</text>
<text text-anchor="middle" x="298" y="-13" font-family="Helvetica,sans-Serif" font-size="10.00">/Setup_2017_03.cc</text>
</a>
</g>
</g>
<!-- Node35&#45;&gt;Node36 -->
<g id="edge32" class="edge"><title>Node35&#45;&gt;Node36</title>
<path fill="none" stroke="midnightblue" d="M457.809,-80.3918C420.898,-66.9049 370.66,-48.5488 336.429,-36.0413"/>
<polygon fill="midnightblue" stroke="midnightblue" points="456.77,-83.7385 467.364,-83.8831 459.173,-77.1637 456.77,-83.7385"/>
</g>
<!-- Node38 -->
<g id="node30" class="node"><title>Node38</title>
<g id="a_node30"><a xlink:href="_setup__2017__05_8cc.html" target="_top" xlink:title="src/expconfig/setups\l/Setup_2017_05.cc">
<polygon fill="white" stroke="black" points="369.5,-6 369.5,-36 476.5,-36 476.5,-6 369.5,-6"/>
<text text-anchor="start" x="377.5" y="-24" font-family="Helvetica,sans-Serif" font-size="10.00">src/expconfig/setups</text>
<text text-anchor="middle" x="423" y="-13" font-family="Helvetica,sans-Serif" font-size="10.00">/Setup_2017_05.cc</text>
</a>
</g>
</g>
<!-- Node37&#45;&gt;Node38 -->
<g id="edge34" class="edge"><title>Node37&#45;&gt;Node38</title>
<path fill="none" stroke="midnightblue" d="M582.809,-80.3918C545.898,-66.9049 495.66,-48.5488 461.429,-36.0413"/>
<polygon fill="midnightblue" stroke="midnightblue" points="581.77,-83.7385 592.364,-83.8831 584.173,-77.1637 581.77,-83.7385"/>
</g>
<!-- Node40 -->
<g id="node32" class="node"><title>Node40</title>
<g id="a_node32"><a xlink:href="_setup__2017__12_8cc.html" target="_top" xlink:title="src/expconfig/setups\l/Setup_2017_12.cc">
<polygon fill="white" stroke="black" points="1034.5,-6 1034.5,-36 1141.5,-36 1141.5,-6 1034.5,-6"/>
<text text-anchor="start" x="1042.5" y="-24" font-family="Helvetica,sans-Serif" font-size="10.00">src/expconfig/setups</text>
<text text-anchor="middle" x="1088" y="-13" font-family="Helvetica,sans-Serif" font-size="10.00">/Setup_2017_12.cc</text>
</a>
</g>
</g>
<!-- Node39&#45;&gt;Node40 -->
<g id="edge36" class="edge"><title>Node39&#45;&gt;Node40</title>
<path fill="none" stroke="midnightblue" d="M859.161,-77.7756C933.7,-61.0106 954.632,-60.7089 1025,-42 1031.76,-40.2014 1038.88,-38.1244 1045.8,-36.0037"/>
<polygon fill="midnightblue" stroke="midnightblue" points="858.269,-74.389 849.294,-80.0198 859.822,-81.2147 858.269,-74.389"/>
</g>
<!-- Node41 -->
<g id="node33" class="node"><title>Node41</title>
<g id="a_node33"><a xlink:href="_setup__2017_plus___new_tagger___base_8cc.html" target="_top" xlink:title="src/expconfig/setups\l/Setup_2017Plus_NewTagger\l_Base.cc">
<polygon fill="white" stroke="black" points="495,-0.5 495,-41.5 641,-41.5 641,-0.5 495,-0.5"/>
<text text-anchor="start" x="503" y="-29.5" font-family="Helvetica,sans-Serif" font-size="10.00">src/expconfig/setups</text>
<text text-anchor="start" x="503" y="-18.5" font-family="Helvetica,sans-Serif" font-size="10.00">/Setup_2017Plus_NewTagger</text>
<text text-anchor="middle" x="568" y="-7.5" font-family="Helvetica,sans-Serif" font-size="10.00">_Base.cc</text>
</a>
</g>
</g>
<!-- Node39&#45;&gt;Node41 -->
<g id="edge37" class="edge"><title>Node39&#45;&gt;Node41</title>
<path fill="none" stroke="midnightblue" d="M712.744,-74.8874C683.545,-64.2185 649.257,-51.6901 621.384,-41.5056"/>
<polygon fill="midnightblue" stroke="midnightblue" points="711.841,-78.2835 722.435,-78.4281 714.243,-71.7087 711.841,-78.2835"/>
</g>
<!-- Node42 -->
<g id="node34" class="node"><title>Node42</title>
<g id="a_node34"><a xlink:href="_setup__2018__03_8cc.html" target="_top" xlink:title="src/expconfig/setups\l/Setup_2018_03.cc">
<polygon fill="white" stroke="black" points="659.5,-6 659.5,-36 766.5,-36 766.5,-6 659.5,-6"/>
<text text-anchor="start" x="667.5" y="-24" font-family="Helvetica,sans-Serif" font-size="10.00">src/expconfig/setups</text>
<text text-anchor="middle" x="713" y="-13" font-family="Helvetica,sans-Serif" font-size="10.00">/Setup_2018_03.cc</text>
</a>
</g>
</g>
<!-- Node39&#45;&gt;Node42 -->
<g id="edge38" class="edge"><title>Node39&#45;&gt;Node42</title>
<path fill="none" stroke="midnightblue" d="M753.332,-70.6539C743.673,-59.0022 732.809,-45.8967 724.792,-36.2254"/>
<polygon fill="midnightblue" stroke="midnightblue" points="750.699,-72.963 759.776,-78.4281 756.089,-68.4956 750.699,-72.963"/>
</g>
<!-- Node43 -->
<g id="node35" class="node"><title>Node43</title>
<g id="a_node35"><a xlink:href="_setup__2018__05_8cc.html" target="_top" xlink:title="src/expconfig/setups\l/Setup_2018_05.cc">
<polygon fill="white" stroke="black" points="784.5,-6 784.5,-36 891.5,-36 891.5,-6 784.5,-6"/>
<text text-anchor="start" x="792.5" y="-24" font-family="Helvetica,sans-Serif" font-size="10.00">src/expconfig/setups</text>
<text text-anchor="middle" x="838" y="-13" font-family="Helvetica,sans-Serif" font-size="10.00">/Setup_2018_05.cc</text>
</a>
</g>
</g>
<!-- Node39&#45;&gt;Node43 -->
<g id="edge39" class="edge"><title>Node39&#45;&gt;Node43</title>
<path fill="none" stroke="midnightblue" d="M798.309,-70.6539C807.814,-59.0022 818.505,-45.8967 826.395,-36.2254"/>
<polygon fill="midnightblue" stroke="midnightblue" points="795.576,-68.467 791.967,-78.4281 801,-72.8919 795.576,-68.467"/>
</g>
<!-- Node44 -->
<g id="node36" class="node"><title>Node44</title>
<g id="a_node36"><a xlink:href="_setup__2018__09_8cc.html" target="_top" xlink:title="src/expconfig/setups\l/Setup_2018_09.cc">
<polygon fill="white" stroke="black" points="909.5,-6 909.5,-36 1016.5,-36 1016.5,-6 909.5,-6"/>
<text text-anchor="start" x="917.5" y="-24" font-family="Helvetica,sans-Serif" font-size="10.00">src/expconfig/setups</text>
<text text-anchor="middle" x="963" y="-13" font-family="Helvetica,sans-Serif" font-size="10.00">/Setup_2018_09.cc</text>
</a>
</g>
</g>
<!-- Node39&#45;&gt;Node44 -->
<g id="edge40" class="edge"><title>Node39&#45;&gt;Node44</title>
<path fill="none" stroke="midnightblue" d="M833.555,-74.6086C864.54,-62.0157 901.738,-46.8981 928.291,-36.1065"/>
<polygon fill="midnightblue" stroke="midnightblue" points="832.103,-71.4205 824.157,-78.4281 834.739,-77.9054 832.103,-71.4205"/>
</g>
<!-- Node46 -->
<g id="node38" class="node"><title>Node46</title>
<g id="a_node38"><a xlink:href="_setup__2018__11_8cc.html" target="_top" xlink:title="src/expconfig/setups\l/Setup_2018_11.cc">
<polygon fill="white" stroke="black" points="1159.5,-6 1159.5,-36 1266.5,-36 1266.5,-6 1159.5,-6"/>
<text text-anchor="start" x="1167.5" y="-24" font-family="Helvetica,sans-Serif" font-size="10.00">src/expconfig/setups</text>
<text text-anchor="middle" x="1213" y="-13" font-family="Helvetica,sans-Serif" font-size="10.00">/Setup_2018_11.cc</text>
</a>
</g>
</g>
<!-- Node45&#45;&gt;Node46 -->
<g id="edge42" class="edge"><title>Node45&#45;&gt;Node46</title>
<path fill="none" stroke="midnightblue" d="M972.17,-81.0544C975.823,-79.9799 979.46,-78.95 983,-78 1056.33,-58.3206 1076.62,-61.509 1150,-42 1156.76,-40.2014 1163.88,-38.1244 1170.8,-36.0037"/>
<polygon fill="midnightblue" stroke="midnightblue" points="971.074,-77.7291 962.518,-83.9781 973.104,-84.4285 971.074,-77.7291"/>
</g>
<!-- Node48 -->
<g id="node40" class="node"><title>Node48</title>
<g id="a_node40"><a xlink:href="_setup__2019__01_8cc.html" target="_top" xlink:title="src/expconfig/setups\l/Setup_2019_01.cc">
<polygon fill="white" stroke="black" points="1284.5,-6 1284.5,-36 1391.5,-36 1391.5,-6 1284.5,-6"/>
<text text-anchor="start" x="1292.5" y="-24" font-family="Helvetica,sans-Serif" font-size="10.00">src/expconfig/setups</text>
<text text-anchor="middle" x="1338" y="-13" font-family="Helvetica,sans-Serif" font-size="10.00">/Setup_2019_01.cc</text>
</a>
</g>
</g>
<!-- Node47&#45;&gt;Node48 -->
<g id="edge44" class="edge"><title>Node47&#45;&gt;Node48</title>
<path fill="none" stroke="midnightblue" d="M1097.17,-81.0544C1100.82,-79.9799 1104.46,-78.95 1108,-78 1181.33,-58.3206 1201.62,-61.509 1275,-42 1281.76,-40.2014 1288.88,-38.1244 1295.8,-36.0037"/>
<polygon fill="midnightblue" stroke="midnightblue" points="1096.07,-77.7291 1087.52,-83.9781 1098.1,-84.4285 1096.07,-77.7291"/>
</g>
<!-- Node50 -->
<g id="node42" class="node"><title>Node50</title>
<g id="a_node42"><a xlink:href="_setup__2019__06_8cc.html" target="_top" xlink:title="src/expconfig/setups\l/Setup_2019_06.cc">
<polygon fill="white" stroke="black" points="1409.5,-6 1409.5,-36 1516.5,-36 1516.5,-6 1409.5,-6"/>
<text text-anchor="start" x="1417.5" y="-24" font-family="Helvetica,sans-Serif" font-size="10.00">src/expconfig/setups</text>
<text text-anchor="middle" x="1463" y="-13" font-family="Helvetica,sans-Serif" font-size="10.00">/Setup_2019_06.cc</text>
</a>
</g>
</g>
<!-- Node49&#45;&gt;Node50 -->
<g id="edge46" class="edge"><title>Node49&#45;&gt;Node50</title>
<path fill="none" stroke="midnightblue" d="M1222.17,-81.0544C1225.82,-79.9799 1229.46,-78.95 1233,-78 1306.33,-58.3206 1326.62,-61.509 1400,-42 1406.76,-40.2014 1413.88,-38.1244 1420.8,-36.0037"/>
<polygon fill="midnightblue" stroke="midnightblue" points="1221.07,-77.7291 1212.52,-83.9781 1223.1,-84.4285 1221.07,-77.7291"/>
</g>
</g>
</svg>
