<?xml version="1.0" encoding="UTF-8" standalone="no"?>
<!DOCTYPE svg PUBLIC "-//W3C//DTD SVG 1.1//EN"
 "http://www.w3.org/Graphics/SVG/1.1/DTD/svg11.dtd">
<!-- Generated by graphviz version 2.36.0 (20140111.2315)
 -->
<!-- Title: src/tree/TAntHeader.h Pages: 1 -->
<svg width="784pt" height="252pt"
 viewBox="0.00 0.00 784.00 252.00" xmlns="http://www.w3.org/2000/svg" xmlns:xlink="http://www.w3.org/1999/xlink">
<g id="graph0" class="graph" transform="scale(1 1) rotate(0) translate(4 248)">
<title>src/tree/TAntHeader.h</title>
<polygon fill="white" stroke="none" points="-4,4 -4,-248 780,-248 780,4 -4,4"/>
<!-- Node0 -->
<g id="node1" class="node"><title>Node0</title>
<polygon fill="#bfbfbf" stroke="black" points="629.5,-224.5 629.5,-243.5 742.5,-243.5 742.5,-224.5 629.5,-224.5"/>
<text text-anchor="middle" x="686" y="-231.5" font-family="Helvetica,sans-Serif" font-size="10.00">src/tree/TAntHeader.h</text>
</g>
<!-- Node1 -->
<g id="node2" class="node"><title>Node1</title>
<g id="a_node2"><a xlink:href="_t_i_d_8h.html" target="_top" xlink:title="TID.h">
<polygon fill="white" stroke="black" points="391.5,-168.5 391.5,-187.5 432.5,-187.5 432.5,-168.5 391.5,-168.5"/>
<text text-anchor="middle" x="412" y="-175.5" font-family="Helvetica,sans-Serif" font-size="10.00">TID.h</text>
</a>
</g>
</g>
<!-- Node0&#45;&gt;Node1 -->
<g id="edge1" class="edge"><title>Node0&#45;&gt;Node1</title>
<path fill="none" stroke="midnightblue" d="M642.584,-224.444C586.772,-213.444 491.267,-194.622 442.542,-185.019"/>
<polygon fill="midnightblue" stroke="midnightblue" points="443.094,-181.561 432.606,-183.061 441.74,-188.429 443.094,-181.561"/>
</g>
<!-- Node5 -->
<g id="node6" class="node"><title>Node5</title>
<polygon fill="white" stroke="#bfbfbf" points="435.5,-0.5 435.5,-19.5 476.5,-19.5 476.5,-0.5 435.5,-0.5"/>
<text text-anchor="middle" x="456" y="-7.5" font-family="Helvetica,sans-Serif" font-size="10.00">string</text>
</g>
<!-- Node0&#45;&gt;Node5 -->
<g id="edge19" class="edge"><title>Node0&#45;&gt;Node5</title>
<path fill="none" stroke="midnightblue" d="M687.174,-224.358C689.59,-202.971 692.908,-146.793 667,-112 622.464,-52.1903 533.269,-26.2187 486.388,-16.3132"/>
<polygon fill="midnightblue" stroke="midnightblue" points="487.008,-12.8679 476.515,-14.3337 485.631,-19.7313 487.008,-12.8679"/>
</g>
<!-- Node17 -->
<g id="node18" class="node"><title>Node17</title>
<polygon fill="white" stroke="#bfbfbf" points="714,-168.5 714,-187.5 776,-187.5 776,-168.5 714,-168.5"/>
<text text-anchor="middle" x="745" y="-175.5" font-family="Helvetica,sans-Serif" font-size="10.00">TNamed.h</text>
</g>
<!-- Node0&#45;&gt;Node17 -->
<g id="edge18" class="edge"><title>Node0&#45;&gt;Node17</title>
<path fill="none" stroke="midnightblue" d="M695.479,-224.324C704.201,-216.341 717.343,-204.313 727.898,-194.653"/>
<polygon fill="midnightblue" stroke="midnightblue" points="730.334,-197.167 735.348,-187.834 725.608,-192.004 730.334,-197.167"/>
</g>
<!-- Node2 -->
<g id="node3" class="node"><title>Node2</title>
<polygon fill="white" stroke="#bfbfbf" points="49,-112.5 49,-131.5 105,-131.5 105,-112.5 49,-112.5"/>
<text text-anchor="middle" x="77" y="-119.5" font-family="Helvetica,sans-Serif" font-size="10.00">Rtypes.h</text>
</g>
<!-- Node1&#45;&gt;Node2 -->
<g id="edge2" class="edge"><title>Node1&#45;&gt;Node2</title>
<path fill="none" stroke="midnightblue" d="M391.298,-174.517C344.094,-168.719 224.719,-153.29 115.119,-132.075"/>
<polygon fill="midnightblue" stroke="midnightblue" points="115.711,-128.625 105.225,-130.139 114.366,-135.494 115.711,-128.625"/>
</g>
<!-- Node3 -->
<g id="node4" class="node"><title>Node3</title>
<g id="a_node4"><a xlink:href="base_2std__ext_2_time_8h.html" target="_top" xlink:title="base/std_ext/time.h">
<polygon fill="white" stroke="black" points="123.5,-112.5 123.5,-131.5 226.5,-131.5 226.5,-112.5 123.5,-112.5"/>
<text text-anchor="middle" x="175" y="-119.5" font-family="Helvetica,sans-Serif" font-size="10.00">base/std_ext/time.h</text>
</a>
</g>
</g>
<!-- Node1&#45;&gt;Node3 -->
<g id="edge3" class="edge"><title>Node1&#45;&gt;Node3</title>
<path fill="none" stroke="midnightblue" d="M391.382,-172.302C354.007,-163.786 274.171,-145.596 222.622,-133.851"/>
<polygon fill="midnightblue" stroke="midnightblue" points="223.239,-130.401 212.711,-131.592 221.683,-137.227 223.239,-130.401"/>
</g>
<!-- Node10 -->
<g id="node11" class="node"><title>Node10</title>
<polygon fill="white" stroke="#bfbfbf" points="234.5,-56.5 234.5,-75.5 275.5,-75.5 275.5,-56.5 234.5,-56.5"/>
<text text-anchor="middle" x="255" y="-63.5" font-family="Helvetica,sans-Serif" font-size="10.00">ctime</text>
</g>
<!-- Node1&#45;&gt;Node10 -->
<g id="edge17" class="edge"><title>Node1&#45;&gt;Node10</title>
<path fill="none" stroke="midnightblue" d="M391.083,-176.067C360.973,-173.583 305.576,-164.565 274,-132 262.117,-119.745 257.602,-100.484 255.919,-86.1049"/>
<polygon fill="midnightblue" stroke="midnightblue" points="259.384,-85.5327 255.09,-75.8472 252.407,-86.0966 259.384,-85.5327"/>
</g>
<!-- Node11 -->
<g id="node12" class="node"><title>Node11</title>
<polygon fill="white" stroke="#bfbfbf" points="283,-112.5 283,-131.5 345,-131.5 345,-112.5 283,-112.5"/>
<text text-anchor="middle" x="314" y="-119.5" font-family="Helvetica,sans-Serif" font-size="10.00">type_traits</text>
</g>
<!-- Node1&#45;&gt;Node11 -->
<g id="edge11" class="edge"><title>Node1&#45;&gt;Node11</title>
<path fill="none" stroke="midnightblue" d="M396.255,-168.324C380.681,-159.743 356.623,-146.486 338.541,-136.522"/>
<polygon fill="midnightblue" stroke="midnightblue" points="340.154,-133.415 329.706,-131.655 336.776,-139.546 340.154,-133.415"/>
</g>
<!-- Node12 -->
<g id="node13" class="node"><title>Node12</title>
<polygon fill="white" stroke="#bfbfbf" points="363,-112.5 363,-131.5 401,-131.5 401,-112.5 363,-112.5"/>
<text text-anchor="middle" x="382" y="-119.5" font-family="Helvetica,sans-Serif" font-size="10.00">tuple</text>
</g>
<!-- Node1&#45;&gt;Node12 -->
<g id="edge12" class="edge"><title>Node1&#45;&gt;Node12</title>
<path fill="none" stroke="midnightblue" d="M407.046,-168.083C402.896,-160.613 396.847,-149.724 391.733,-140.52"/>
<polygon fill="midnightblue" stroke="midnightblue" points="394.778,-138.793 386.862,-131.751 388.659,-142.192 394.778,-138.793"/>
</g>
<!-- Node13 -->
<g id="node14" class="node"><title>Node13</title>
<polygon fill="white" stroke="#bfbfbf" points="419,-112.5 419,-131.5 465,-131.5 465,-112.5 419,-112.5"/>
<text text-anchor="middle" x="442" y="-119.5" font-family="Helvetica,sans-Serif" font-size="10.00">cstdint</text>
</g>
<!-- Node1&#45;&gt;Node13 -->
<g id="edge13" class="edge"><title>Node1&#45;&gt;Node13</title>
<path fill="none" stroke="midnightblue" d="M416.954,-168.083C421.104,-160.613 427.153,-149.724 432.267,-140.52"/>
<polygon fill="midnightblue" stroke="midnightblue" points="435.341,-142.192 437.138,-131.751 429.222,-138.793 435.341,-142.192"/>
</g>
<!-- Node14 -->
<g id="node15" class="node"><title>Node14</title>
<polygon fill="white" stroke="#bfbfbf" points="483.5,-112.5 483.5,-131.5 542.5,-131.5 542.5,-112.5 483.5,-112.5"/>
<text text-anchor="middle" x="513" y="-119.5" font-family="Helvetica,sans-Serif" font-size="10.00">stdexcept</text>
</g>
<!-- Node1&#45;&gt;Node14 -->
<g id="edge14" class="edge"><title>Node1&#45;&gt;Node14</title>
<path fill="none" stroke="midnightblue" d="M428.227,-168.324C444.351,-159.703 469.3,-146.364 487.964,-136.386"/>
<polygon fill="midnightblue" stroke="midnightblue" points="489.644,-139.456 496.813,-131.655 486.344,-133.283 489.644,-139.456"/>
</g>
<!-- Node15 -->
<g id="node16" class="node"><title>Node15</title>
<polygon fill="white" stroke="#bfbfbf" points="560.5,-112.5 560.5,-131.5 589.5,-131.5 589.5,-112.5 560.5,-112.5"/>
<text text-anchor="middle" x="575" y="-119.5" font-family="Helvetica,sans-Serif" font-size="10.00">list</text>
</g>
<!-- Node1&#45;&gt;Node15 -->
<g id="edge15" class="edge"><title>Node1&#45;&gt;Node15</title>
<path fill="none" stroke="midnightblue" d="M432.823,-170.585C458.387,-162.639 503.263,-148.466 550.781,-131.959"/>
<polygon fill="midnightblue" stroke="midnightblue" points="552.03,-135.231 560.315,-128.628 549.721,-128.622 552.03,-135.231"/>
</g>
<!-- Node16 -->
<g id="node17" class="node"><title>Node16</title>
<polygon fill="white" stroke="#bfbfbf" points="608,-112.5 608,-131.5 658,-131.5 658,-112.5 608,-112.5"/>
<text text-anchor="middle" x="633" y="-119.5" font-family="Helvetica,sans-Serif" font-size="10.00">iomanip</text>
</g>
<!-- Node1&#45;&gt;Node16 -->
<g id="edge16" class="edge"><title>Node1&#45;&gt;Node16</title>
<path fill="none" stroke="midnightblue" d="M432.667,-172.102C467.023,-163.937 538.043,-146.961 598,-132 598.099,-131.975 598.198,-131.951 598.297,-131.926"/>
<polygon fill="midnightblue" stroke="midnightblue" points="598.937,-135.374 607.776,-129.532 597.223,-128.587 598.937,-135.374"/>
</g>
<!-- Node4 -->
<g id="node5" class="node"><title>Node4</title>
<g id="a_node5"><a xlink:href="string_8h.html" target="_top" xlink:title="base/std_ext/string.h">
<polygon fill="white" stroke="black" points="44,-56.5 44,-75.5 152,-75.5 152,-56.5 44,-56.5"/>
<text text-anchor="middle" x="98" y="-63.5" font-family="Helvetica,sans-Serif" font-size="10.00">base/std_ext/string.h</text>
</a>
</g>
</g>
<!-- Node3&#45;&gt;Node4 -->
<g id="edge4" class="edge"><title>Node3&#45;&gt;Node4</title>
<path fill="none" stroke="midnightblue" d="M162.629,-112.324C150.842,-104.058 132.868,-91.4527 118.864,-81.6322"/>
<polygon fill="midnightblue" stroke="midnightblue" points="120.538,-78.5307 110.341,-75.6545 116.518,-84.2619 120.538,-78.5307"/>
</g>
<!-- Node9 -->
<g id="node10" class="node"><title>Node9</title>
<polygon fill="white" stroke="#bfbfbf" points="170,-56.5 170,-75.5 216,-75.5 216,-56.5 170,-56.5"/>
<text text-anchor="middle" x="193" y="-63.5" font-family="Helvetica,sans-Serif" font-size="10.00">cstring</text>
</g>
<!-- Node3&#45;&gt;Node9 -->
<g id="edge9" class="edge"><title>Node3&#45;&gt;Node9</title>
<path fill="none" stroke="midnightblue" d="M177.972,-112.083C180.384,-104.849 183.864,-94.4087 186.868,-85.3968"/>
<polygon fill="midnightblue" stroke="midnightblue" points="190.241,-86.3447 190.083,-75.7511 183.6,-84.1311 190.241,-86.3447"/>
</g>
<!-- Node3&#45;&gt;Node10 -->
<g id="edge10" class="edge"><title>Node3&#45;&gt;Node10</title>
<path fill="none" stroke="midnightblue" d="M187.853,-112.324C200.216,-103.979 219.13,-91.2122 233.737,-81.3524"/>
<polygon fill="midnightblue" stroke="midnightblue" points="235.848,-84.1503 242.179,-75.6545 231.932,-78.3483 235.848,-84.1503"/>
</g>
<!-- Node4&#45;&gt;Node5 -->
<g id="edge5" class="edge"><title>Node4&#45;&gt;Node5</title>
<path fill="none" stroke="midnightblue" d="M152.372,-56.7986C228.581,-45.3034 364.623,-24.7832 425.308,-15.6295"/>
<polygon fill="midnightblue" stroke="midnightblue" points="426.029,-19.0604 435.395,-14.108 424.985,-12.1387 426.029,-19.0604"/>
</g>
<!-- Node6 -->
<g id="node7" class="node"><title>Node6</title>
<polygon fill="white" stroke="#bfbfbf" points="0,-0.5 0,-19.5 52,-19.5 52,-0.5 0,-0.5"/>
<text text-anchor="middle" x="26" y="-7.5" font-family="Helvetica,sans-Serif" font-size="10.00">sstream</text>
</g>
<!-- Node4&#45;&gt;Node6 -->
<g id="edge6" class="edge"><title>Node4&#45;&gt;Node6</title>
<path fill="none" stroke="midnightblue" d="M86.432,-56.324C75.5798,-48.1849 59.1193,-35.8395 46.1166,-26.0874"/>
<polygon fill="midnightblue" stroke="midnightblue" points="47.8786,-23.0339 37.7785,-19.8339 43.6785,-28.6339 47.8786,-23.0339"/>
</g>
<!-- Node7 -->
<g id="node8" class="node"><title>Node7</title>
<polygon fill="white" stroke="#bfbfbf" points="70,-0.5 70,-19.5 126,-19.5 126,-0.5 70,-0.5"/>
<text text-anchor="middle" x="98" y="-7.5" font-family="Helvetica,sans-Serif" font-size="10.00">algorithm</text>
</g>
<!-- Node4&#45;&gt;Node7 -->
<g id="edge7" class="edge"><title>Node4&#45;&gt;Node7</title>
<path fill="none" stroke="midnightblue" d="M98,-56.083C98,-49.0059 98,-38.8611 98,-29.9865"/>
<polygon fill="midnightblue" stroke="midnightblue" points="101.5,-29.751 98,-19.7511 94.5001,-29.7511 101.5,-29.751"/>
</g>
<!-- Node8 -->
<g id="node9" class="node"><title>Node8</title>
<polygon fill="white" stroke="#bfbfbf" points="144,-0.5 144,-19.5 188,-19.5 188,-0.5 144,-0.5"/>
<text text-anchor="middle" x="166" y="-7.5" font-family="Helvetica,sans-Serif" font-size="10.00">vector</text>
</g>
<!-- Node4&#45;&gt;Node8 -->
<g id="edge8" class="edge"><title>Node4&#45;&gt;Node8</title>
<path fill="none" stroke="midnightblue" d="M108.925,-56.324C119.175,-48.1849 134.721,-35.8395 147.001,-26.0874"/>
<polygon fill="midnightblue" stroke="midnightblue" points="149.221,-28.7937 154.876,-19.8339 144.868,-23.3119 149.221,-28.7937"/>
</g>
</g>
</svg>
