<?xml version="1.0" encoding="UTF-8" standalone="no"?>
<!DOCTYPE svg PUBLIC "-//W3C//DTD SVG 1.1//EN"
 "http://www.w3.org/Graphics/SVG/1.1/DTD/svg11.dtd">
<!-- Generated by graphviz version 2.36.0 (20140111.2315)
 -->
<!-- Title: src/root&#45;addons/analysis_codes/TAPSEnergy_Check.h Pages: 1 -->
<svg width="162pt" height="108pt"
 viewBox="0.00 0.00 162.00 108.00" xmlns="http://www.w3.org/2000/svg" xmlns:xlink="http://www.w3.org/1999/xlink">
<g id="graph0" class="graph" transform="scale(1 1) rotate(0) translate(4 104)">
<title>src/root&#45;addons/analysis_codes/TAPSEnergy_Check.h</title>
<polygon fill="white" stroke="none" points="-4,4 -4,-104 158,-104 158,4 -4,4"/>
<!-- Node1 -->
<g id="node1" class="node"><title>Node1</title>
<polygon fill="#bfbfbf" stroke="black" points="2,-69 2,-99 152,-99 152,-69 2,-69"/>
<text text-anchor="start" x="10" y="-87" font-family="Helvetica,sans-Serif" font-size="10.00">src/root&#45;addons/analysis</text>
<text text-anchor="middle" x="77" y="-76" font-family="Helvetica,sans-Serif" font-size="10.00">_codes/TAPSEnergy_Check.h</text>
</g>
<!-- Node2 -->
<g id="node2" class="node"><title>Node2</title>
<g id="a_node2"><a xlink:href="_t_a_p_s_energy___check_8cc.html" target="_top" xlink:title="src/root&#45;addons/analysis\l_codes/TAPSEnergy_Check.cc">
<polygon fill="white" stroke="black" points="-0.5,-1 -0.5,-31 154.5,-31 154.5,-1 -0.5,-1"/>
<text text-anchor="start" x="7.5" y="-19" font-family="Helvetica,sans-Serif" font-size="10.00">src/root&#45;addons/analysis</text>
<text text-anchor="middle" x="77" y="-8" font-family="Helvetica,sans-Serif" font-size="10.00">_codes/TAPSEnergy_Check.cc</text>
</a>
</g>
</g>
<!-- Node1&#45;&gt;Node2 -->
<g id="edge1" class="edge"><title>Node1&#45;&gt;Node2</title>
<path fill="none" stroke="midnightblue" d="M77,-58.5322C77,-49.3606 77,-39.2449 77,-31.2931"/>
<polygon fill="midnightblue" stroke="midnightblue" points="73.5001,-58.6789 77,-68.679 80.5001,-58.679 73.5001,-58.6789"/>
</g>
</g>
</svg>
