<?xml version="1.0" encoding="UTF-8" standalone="no"?>
<!DOCTYPE svg PUBLIC "-//W3C//DTD SVG 1.1//EN"
 "http://www.w3.org/Graphics/SVG/1.1/DTD/svg11.dtd">
<!-- Generated by graphviz version 2.36.0 (20140111.2315)
 -->
<!-- Title: src/expconfig/detectors/detail/TAPS_2013_11_PbWO4_elements.h Pages: 1 -->
<svg width="162pt" height="118pt"
 viewBox="0.00 0.00 162.00 118.00" xmlns="http://www.w3.org/2000/svg" xmlns:xlink="http://www.w3.org/1999/xlink">
<g id="graph0" class="graph" transform="scale(1 1) rotate(0) translate(4 114)">
<title>src/expconfig/detectors/detail/TAPS_2013_11_PbWO4_elements.h</title>
<polygon fill="white" stroke="none" points="-4,4 -4,-114 158,-114 158,4 -4,4"/>
<!-- Node59 -->
<g id="node1" class="node"><title>Node59</title>
<polygon fill="#bfbfbf" stroke="black" points="0,-68.5 0,-109.5 154,-109.5 154,-68.5 0,-68.5"/>
<text text-anchor="start" x="8" y="-97.5" font-family="Helvetica,sans-Serif" font-size="10.00">src/expconfig/detectors</text>
<text text-anchor="start" x="8" y="-86.5" font-family="Helvetica,sans-Serif" font-size="10.00">/detail/TAPS_2013_11_PbWO4</text>
<text text-anchor="middle" x="77" y="-75.5" font-family="Helvetica,sans-Serif" font-size="10.00">_elements.h</text>
</g>
<!-- Node60 -->
<g id="node2" class="node"><title>Node60</title>
<g id="a_node2"><a xlink:href="_t_a_p_s_8cc.html" target="_top" xlink:title="src/expconfig/detectors\l/TAPS.cc">
<polygon fill="white" stroke="black" points="17.5,-1 17.5,-31 136.5,-31 136.5,-1 17.5,-1"/>
<text text-anchor="start" x="25.5" y="-19" font-family="Helvetica,sans-Serif" font-size="10.00">src/expconfig/detectors</text>
<text text-anchor="middle" x="77" y="-8" font-family="Helvetica,sans-Serif" font-size="10.00">/TAPS.cc</text>
</a>
</g>
</g>
<!-- Node59&#45;&gt;Node60 -->
<g id="edge1" class="edge"><title>Node59&#45;&gt;Node60</title>
<path fill="none" stroke="midnightblue" d="M77,-58.0188C77,-48.6567 77,-38.7696 77,-31.0485"/>
<polygon fill="midnightblue" stroke="midnightblue" points="73.5001,-58.2225 77,-68.2225 80.5001,-58.2226 73.5001,-58.2225"/>
</g>
</g>
</svg>
