<?xml version="1.0" encoding="UTF-8" standalone="no"?>
<!DOCTYPE svg PUBLIC "-//W3C//DTD SVG 1.1//EN"
 "http://www.w3.org/Graphics/SVG/1.1/DTD/svg11.dtd">
<!-- Generated by graphviz version 2.36.0 (20140111.2315)
 -->
<!-- Title: src/tree/TCandidate.h Pages: 1 -->
<svg width="1001pt" height="376pt"
 viewBox="0.00 0.00 1001.21 376.00" xmlns="http://www.w3.org/2000/svg" xmlns:xlink="http://www.w3.org/1999/xlink">
<g id="graph0" class="graph" transform="scale(1 1) rotate(0) translate(4 372)">
<title>src/tree/TCandidate.h</title>
<polygon fill="white" stroke="none" points="-4,4 -4,-372 997.211,-372 997.211,4 -4,4"/>
<!-- Node0 -->
<g id="node1" class="node"><title>Node0</title>
<polygon fill="#bfbfbf" stroke="black" points="661.711,-348.5 661.711,-367.5 772.711,-367.5 772.711,-348.5 661.711,-348.5"/>
<text text-anchor="middle" x="717.211" y="-355.5" font-family="Helvetica,sans-Serif" font-size="10.00">src/tree/TCandidate.h</text>
</g>
<!-- Node1 -->
<g id="node2" class="node"><title>Node1</title>
<g id="a_node2"><a xlink:href="_t_cluster_8h.html" target="_top" xlink:title="TCluster.h">
<polygon fill="white" stroke="black" points="572.211,-292.5 572.211,-311.5 634.211,-311.5 634.211,-292.5 572.211,-292.5"/>
<text text-anchor="middle" x="603.211" y="-299.5" font-family="Helvetica,sans-Serif" font-size="10.00">TCluster.h</text>
</a>
</g>
</g>
<!-- Node0&#45;&gt;Node1 -->
<g id="edge1" class="edge"><title>Node0&#45;&gt;Node1</title>
<path fill="none" stroke="midnightblue" d="M699.147,-348.444C680.636,-339.675 651.63,-325.935 630.355,-315.858"/>
<polygon fill="midnightblue" stroke="midnightblue" points="631.725,-312.634 621.19,-311.516 628.729,-318.96 631.725,-312.634"/>
</g>
<!-- Node3 -->
<g id="node4" class="node"><title>Node3</title>
<g id="a_node4"><a xlink:href="_detector__t_8h.html" target="_top" xlink:title="base/Detector_t.h">
<polygon fill="white" stroke="black" points="375.711,-168.5 375.711,-187.5 470.711,-187.5 470.711,-168.5 375.711,-168.5"/>
<text text-anchor="middle" x="423.211" y="-175.5" font-family="Helvetica,sans-Serif" font-size="10.00">base/Detector_t.h</text>
</a>
</g>
</g>
<!-- Node0&#45;&gt;Node3 -->
<g id="edge35" class="edge"><title>Node0&#45;&gt;Node3</title>
<path fill="none" stroke="midnightblue" d="M661.647,-351.735C599.294,-344.979 502.845,-331.725 472.211,-312 446.71,-295.58 444.143,-284.291 433.211,-256 425.938,-237.18 423.751,-214.046 423.189,-198.076"/>
<polygon fill="midnightblue" stroke="midnightblue" points="426.686,-197.817 423.018,-187.877 419.687,-197.934 426.686,-197.817"/>
</g>
<!-- Node12 -->
<g id="node13" class="node"><title>Node12</title>
<polygon fill="white" stroke="#bfbfbf" points="673.211,-56.5 673.211,-75.5 717.211,-75.5 717.211,-56.5 673.211,-56.5"/>
<text text-anchor="middle" x="695.211" y="-63.5" font-family="Helvetica,sans-Serif" font-size="10.00">vector</text>
</g>
<!-- Node0&#45;&gt;Node12 -->
<g id="edge36" class="edge"><title>Node0&#45;&gt;Node12</title>
<path fill="none" stroke="midnightblue" d="M772.731,-357.251C853.328,-354.371 993.211,-335.728 993.211,-241 993.211,-241 993.211,-241 993.211,-177 993.211,-120.906 805.031,-84.5001 727.747,-71.9141"/>
<polygon fill="midnightblue" stroke="midnightblue" points="728.036,-68.416 717.609,-70.2967 726.933,-75.3286 728.036,-68.416"/>
</g>
<!-- Node17 -->
<g id="node18" class="node"><title>Node17</title>
<polygon fill="white" stroke="#bfbfbf" points="616.211,-168.5 616.211,-187.5 666.211,-187.5 666.211,-168.5 616.211,-168.5"/>
<text text-anchor="middle" x="641.211" y="-175.5" font-family="Helvetica,sans-Serif" font-size="10.00">iomanip</text>
</g>
<!-- Node0&#45;&gt;Node17 -->
<g id="edge37" class="edge"><title>Node0&#45;&gt;Node17</title>
<path fill="none" stroke="midnightblue" d="M713.545,-348.415C701.837,-320.992 665.163,-235.099 648.997,-197.236"/>
<polygon fill="midnightblue" stroke="midnightblue" points="652.164,-195.741 645.019,-187.918 645.726,-198.49 652.164,-195.741"/>
</g>
<!-- Node18 -->
<g id="node19" class="node"><title>Node18</title>
<polygon fill="white" stroke="#bfbfbf" points="489.211,-168.5 489.211,-187.5 541.211,-187.5 541.211,-168.5 489.211,-168.5"/>
<text text-anchor="middle" x="515.211" y="-175.5" font-family="Helvetica,sans-Serif" font-size="10.00">sstream</text>
</g>
<!-- Node0&#45;&gt;Node18 -->
<g id="edge38" class="edge"><title>Node0&#45;&gt;Node18</title>
<path fill="none" stroke="midnightblue" d="M661.592,-355.204C595.7,-349.67 488.978,-329.178 442.211,-256 434.552,-244.016 435.278,-236.418 442.211,-224 450.367,-209.391 465.43,-198.936 479.765,-191.804"/>
<polygon fill="midnightblue" stroke="midnightblue" points="481.357,-194.924 488.999,-187.586 478.449,-188.557 481.357,-194.924"/>
</g>
<!-- Node20 -->
<g id="node21" class="node"><title>Node20</title>
<polygon fill="white" stroke="#bfbfbf" points="913.211,-168.5 913.211,-187.5 965.211,-187.5 965.211,-168.5 913.211,-168.5"/>
<text text-anchor="middle" x="939.211" y="-175.5" font-family="Helvetica,sans-Serif" font-size="10.00">memory</text>
</g>
<!-- Node0&#45;&gt;Node20 -->
<g id="edge39" class="edge"><title>Node0&#45;&gt;Node20</title>
<path fill="none" stroke="midnightblue" d="M751.947,-348.442C776.036,-341.357 808.01,-329.573 832.211,-312 876.614,-279.757 912.763,-224.574 929.367,-196.506"/>
<polygon fill="midnightblue" stroke="midnightblue" points="932.431,-198.2 934.407,-187.791 926.371,-194.696 932.431,-198.2"/>
</g>
<!-- Node22 -->
<g id="node23" class="node"><title>Node22</title>
<polygon fill="white" stroke="#bfbfbf" points="839.211,-168.5 839.211,-187.5 895.211,-187.5 895.211,-168.5 839.211,-168.5"/>
<text text-anchor="middle" x="867.211" y="-175.5" font-family="Helvetica,sans-Serif" font-size="10.00">algorithm</text>
</g>
<!-- Node0&#45;&gt;Node22 -->
<g id="edge40" class="edge"><title>Node0&#45;&gt;Node22</title>
<path fill="none" stroke="midnightblue" d="M738.992,-348.483C771.401,-334.545 831.469,-303.561 859.211,-256 869.554,-238.267 870.402,-214.281 869.404,-197.819"/>
<polygon fill="midnightblue" stroke="midnightblue" points="872.885,-197.443 868.512,-187.793 865.912,-198.063 872.885,-197.443"/>
</g>
<!-- Node2 -->
<g id="node3" class="node"><title>Node2</title>
<g id="a_node3"><a xlink:href="_t_detector_read_hit_8h.html" target="_top" xlink:title="tree/TDetectorReadHit.h">
<polygon fill="white" stroke="black" points="451.211,-230.5 451.211,-249.5 575.211,-249.5 575.211,-230.5 451.211,-230.5"/>
<text text-anchor="middle" x="513.211" y="-237.5" font-family="Helvetica,sans-Serif" font-size="10.00">tree/TDetectorReadHit.h</text>
</a>
</g>
</g>
<!-- Node1&#45;&gt;Node2 -->
<g id="edge2" class="edge"><title>Node1&#45;&gt;Node2</title>
<path fill="none" stroke="midnightblue" d="M590.316,-292.403C575.746,-282.691 551.808,-266.732 534.465,-255.17"/>
<polygon fill="midnightblue" stroke="midnightblue" points="536.343,-252.215 526.082,-249.581 532.461,-258.04 536.343,-252.215"/>
</g>
<!-- Node1&#45;&gt;Node3 -->
<g id="edge22" class="edge"><title>Node1&#45;&gt;Node3</title>
<path fill="none" stroke="midnightblue" d="M571.897,-301.14C535.585,-299.543 476.358,-291.209 442.211,-256 427.191,-240.514 423.44,-215.141 422.789,-197.784"/>
<polygon fill="midnightblue" stroke="midnightblue" points="426.289,-197.697 422.722,-187.72 419.289,-197.743 426.289,-197.697"/>
</g>
<!-- Node6 -->
<g id="node7" class="node"><title>Node6</title>
<g id="a_node7"><a xlink:href="vec3_8h.html" target="_top" xlink:title="base/vec/vec3.h">
<polygon fill="white" stroke="black" points="166.711,-112.5 166.711,-131.5 255.711,-131.5 255.711,-112.5 166.711,-112.5"/>
<text text-anchor="middle" x="211.211" y="-119.5" font-family="Helvetica,sans-Serif" font-size="10.00">base/vec/vec3.h</text>
</a>
</g>
</g>
<!-- Node1&#45;&gt;Node6 -->
<g id="edge29" class="edge"><title>Node1&#45;&gt;Node6</title>
<path fill="none" stroke="midnightblue" d="M572.001,-296.276C535.328,-290.034 473.147,-277.268 423.211,-256 346.56,-223.354 265.796,-164.995 230.084,-137.759"/>
<polygon fill="midnightblue" stroke="midnightblue" points="232.065,-134.866 222.006,-131.539 227.794,-140.413 232.065,-134.866"/>
</g>
<!-- Node8 -->
<g id="node9" class="node"><title>Node8</title>
<polygon fill="white" stroke="#bfbfbf" points="99.2106,-0.5 99.2106,-19.5 143.211,-19.5 143.211,-0.5 99.2106,-0.5"/>
<text text-anchor="middle" x="121.211" y="-7.5" font-family="Helvetica,sans-Serif" font-size="10.00">cmath</text>
</g>
<!-- Node1&#45;&gt;Node8 -->
<g id="edge31" class="edge"><title>Node1&#45;&gt;Node8</title>
<path fill="none" stroke="midnightblue" d="M572.06,-301.403C448.583,-302.181 0.210625,-296.89 0.210625,-179 0.210625,-179 0.210625,-179 0.210625,-121 0.210625,-90.9022 -0.631874,-78.6308 19.2106,-56 37.2474,-35.4287 66.4632,-23.8551 89.014,-17.6147"/>
<polygon fill="midnightblue" stroke="midnightblue" points="90.0164,-20.9712 98.842,-15.1095 88.2874,-14.188 90.0164,-20.9712"/>
</g>
<!-- Node10 -->
<g id="node11" class="node"><title>Node10</title>
<g id="a_node11"><a xlink:href="base_2std__ext_2math_8h.html" target="_top" xlink:title="base/std_ext/math.h">
<polygon fill="white" stroke="black" points="43.2106,-112.5 43.2106,-131.5 149.211,-131.5 149.211,-112.5 43.2106,-112.5"/>
<text text-anchor="middle" x="96.2106" y="-119.5" font-family="Helvetica,sans-Serif" font-size="10.00">base/std_ext/math.h</text>
</a>
</g>
</g>
<!-- Node1&#45;&gt;Node10 -->
<g id="edge23" class="edge"><title>Node1&#45;&gt;Node10</title>
<path fill="none" stroke="midnightblue" d="M571.934,-298.166C524.645,-293.237 432.576,-281.115 358.211,-256 264.332,-224.295 162.075,-164.13 118.204,-136.949"/>
<polygon fill="midnightblue" stroke="midnightblue" points="119.852,-133.852 109.516,-131.523 116.143,-139.789 119.852,-133.852"/>
</g>
<!-- Node1&#45;&gt;Node12 -->
<g id="edge30" class="edge"><title>Node1&#45;&gt;Node12</title>
<path fill="none" stroke="midnightblue" d="M610.086,-292.243C616.981,-283.323 627.758,-268.994 636.211,-256 655.209,-226.796 663.517,-220.819 675.211,-188 687.554,-153.355 692.346,-110.374 694.157,-86.0798"/>
<polygon fill="midnightblue" stroke="midnightblue" points="697.671,-85.9789 694.827,-75.773 690.686,-85.5249 697.671,-85.9789"/>
</g>
<!-- Node1&#45;&gt;Node17 -->
<g id="edge32" class="edge"><title>Node1&#45;&gt;Node17</title>
<path fill="none" stroke="midnightblue" d="M605.943,-292.226C612.106,-272.442 627.192,-224.007 635.497,-197.344"/>
<polygon fill="midnightblue" stroke="midnightblue" points="638.87,-198.283 638.503,-187.694 632.187,-196.201 638.87,-198.283"/>
</g>
<!-- Node1&#45;&gt;Node18 -->
<g id="edge33" class="edge"><title>Node1&#45;&gt;Node18</title>
<path fill="none" stroke="midnightblue" d="M602.921,-292.06C602.014,-276.752 598.301,-245.131 583.211,-224 573.518,-210.428 558.345,-199.817 544.788,-192.316"/>
<polygon fill="midnightblue" stroke="midnightblue" points="546.236,-189.125 535.749,-187.622 543.011,-195.337 546.236,-189.125"/>
</g>
<!-- Node19 -->
<g id="node20" class="node"><title>Node19</title>
<g id="a_node20"><a xlink:href="shared__ptr__container_8h.html" target="_top" xlink:title="base/std_ext/shared\l_ptr_container.h">
<polygon fill="white" stroke="black" points="745.711,-225 745.711,-255 850.711,-255 850.711,-225 745.711,-225"/>
<text text-anchor="start" x="753.711" y="-243" font-family="Helvetica,sans-Serif" font-size="10.00">base/std_ext/shared</text>
<text text-anchor="middle" x="798.211" y="-232" font-family="Helvetica,sans-Serif" font-size="10.00">_ptr_container.h</text>
</a>
</g>
</g>
<!-- Node1&#45;&gt;Node19 -->
<g id="edge24" class="edge"><title>Node1&#45;&gt;Node19</title>
<path fill="none" stroke="midnightblue" d="M631.149,-292.403C660.124,-283.488 706.2,-269.311 742.631,-258.101"/>
<polygon fill="midnightblue" stroke="midnightblue" points="744.1,-261.311 752.628,-255.025 742.041,-254.621 744.1,-261.311"/>
</g>
<!-- Node1&#45;&gt;Node20 -->
<g id="edge34" class="edge"><title>Node1&#45;&gt;Node20</title>
<path fill="none" stroke="midnightblue" d="M634.595,-301.256C684.78,-300.442 784.987,-293.717 859.211,-256 887.309,-241.722 912.148,-214.273 926.43,-196.302"/>
<polygon fill="midnightblue" stroke="midnightblue" points="929.578,-197.949 932.897,-187.887 924.028,-193.683 929.578,-197.949"/>
</g>
<!-- Node2&#45;&gt;Node3 -->
<g id="edge3" class="edge"><title>Node2&#45;&gt;Node3</title>
<path fill="none" stroke="midnightblue" d="M500.316,-230.403C485.746,-220.691 461.808,-204.732 444.465,-193.17"/>
<polygon fill="midnightblue" stroke="midnightblue" points="446.343,-190.215 436.082,-187.581 442.461,-196.04 446.343,-190.215"/>
</g>
<!-- Node2&#45;&gt;Node17 -->
<g id="edge20" class="edge"><title>Node2&#45;&gt;Node17</title>
<path fill="none" stroke="midnightblue" d="M531.55,-230.403C553.031,-220.334 588.833,-203.552 613.658,-191.915"/>
<polygon fill="midnightblue" stroke="midnightblue" points="615.336,-194.994 622.905,-187.581 612.365,-188.656 615.336,-194.994"/>
</g>
<!-- Node2&#45;&gt;Node18 -->
<g id="edge21" class="edge"><title>Node2&#45;&gt;Node18</title>
<path fill="none" stroke="midnightblue" d="M513.497,-230.403C513.779,-221.938 514.22,-208.728 514.583,-197.82"/>
<polygon fill="midnightblue" stroke="midnightblue" points="518.089,-197.692 514.925,-187.581 511.093,-197.458 518.089,-197.692"/>
</g>
<!-- Node4 -->
<g id="node5" class="node"><title>Node4</title>
<g id="a_node5"><a xlink:href="bitflag_8h.html" target="_top" xlink:title="base/bitflag.h">
<polygon fill="white" stroke="black" points="273.711,-112.5 273.711,-131.5 348.711,-131.5 348.711,-112.5 273.711,-112.5"/>
<text text-anchor="middle" x="311.211" y="-119.5" font-family="Helvetica,sans-Serif" font-size="10.00">base/bitflag.h</text>
</a>
</g>
</g>
<!-- Node3&#45;&gt;Node4 -->
<g id="edge4" class="edge"><title>Node3&#45;&gt;Node4</title>
<path fill="none" stroke="midnightblue" d="M405.216,-168.324C387.173,-159.625 359.164,-146.12 338.408,-136.113"/>
<polygon fill="midnightblue" stroke="midnightblue" points="339.688,-132.845 329.161,-131.655 336.648,-139.15 339.688,-132.845"/>
</g>
<!-- Node3&#45;&gt;Node6 -->
<g id="edge6" class="edge"><title>Node3&#45;&gt;Node6</title>
<path fill="none" stroke="midnightblue" d="M389.619,-168.444C353.023,-159.122 294.373,-144.183 254.385,-133.997"/>
<polygon fill="midnightblue" stroke="midnightblue" points="255.2,-130.593 244.645,-131.516 253.472,-137.377 255.2,-130.593"/>
</g>
<!-- Node3&#45;&gt;Node10 -->
<g id="edge11" class="edge"><title>Node3&#45;&gt;Node10</title>
<path fill="none" stroke="midnightblue" d="M375.662,-169.148C318.193,-159.658 221.347,-143.665 158.103,-133.221"/>
<polygon fill="midnightblue" stroke="midnightblue" points="158.303,-129.706 147.866,-131.53 157.162,-136.613 158.303,-129.706"/>
</g>
<!-- Node3&#45;&gt;Node12 -->
<g id="edge19" class="edge"><title>Node3&#45;&gt;Node12</title>
<path fill="none" stroke="midnightblue" d="M470.847,-168.682C529.709,-158.148 623.886,-140.366 638.211,-132 657.986,-120.451 674.436,-99.5786 684.501,-84.5994"/>
<polygon fill="midnightblue" stroke="midnightblue" points="687.714,-86.0719 690.163,-75.764 681.821,-82.2948 687.714,-86.0719"/>
</g>
<!-- Node13 -->
<g id="node14" class="node"><title>Node13</title>
<polygon fill="white" stroke="#bfbfbf" points="583.211,-112.5 583.211,-131.5 629.211,-131.5 629.211,-112.5 583.211,-112.5"/>
<text text-anchor="middle" x="606.211" y="-119.5" font-family="Helvetica,sans-Serif" font-size="10.00">cstdint</text>
</g>
<!-- Node3&#45;&gt;Node13 -->
<g id="edge15" class="edge"><title>Node3&#45;&gt;Node13</title>
<path fill="none" stroke="midnightblue" d="M452.208,-168.444C485.23,-158.699 539.057,-142.816 573.537,-132.641"/>
<polygon fill="midnightblue" stroke="midnightblue" points="574.543,-135.994 583.144,-129.807 572.562,-129.28 574.543,-135.994"/>
</g>
<!-- Node14 -->
<g id="node15" class="node"><title>Node14</title>
<polygon fill="white" stroke="#bfbfbf" points="366.711,-112.5 366.711,-131.5 425.711,-131.5 425.711,-112.5 366.711,-112.5"/>
<text text-anchor="middle" x="396.211" y="-119.5" font-family="Helvetica,sans-Serif" font-size="10.00">stdexcept</text>
</g>
<!-- Node3&#45;&gt;Node14 -->
<g id="edge16" class="edge"><title>Node3&#45;&gt;Node14</title>
<path fill="none" stroke="midnightblue" d="M418.752,-168.083C415.056,-160.691 409.687,-149.953 405.116,-140.811"/>
<polygon fill="midnightblue" stroke="midnightblue" points="408.189,-139.13 400.586,-131.751 401.928,-142.261 408.189,-139.13"/>
</g>
<!-- Node15 -->
<g id="node16" class="node"><title>Node15</title>
<polygon fill="white" stroke="#bfbfbf" points="443.711,-112.5 443.711,-131.5 484.711,-131.5 484.711,-112.5 443.711,-112.5"/>
<text text-anchor="middle" x="464.211" y="-119.5" font-family="Helvetica,sans-Serif" font-size="10.00">string</text>
</g>
<!-- Node3&#45;&gt;Node15 -->
<g id="edge17" class="edge"><title>Node3&#45;&gt;Node15</title>
<path fill="none" stroke="midnightblue" d="M429.981,-168.083C435.772,-160.455 444.269,-149.264 451.348,-139.941"/>
<polygon fill="midnightblue" stroke="midnightblue" points="454.307,-141.832 457.566,-131.751 448.732,-137.599 454.307,-141.832"/>
</g>
<!-- Node16 -->
<g id="node17" class="node"><title>Node16</title>
<polygon fill="white" stroke="#bfbfbf" points="503.211,-112.5 503.211,-131.5 565.211,-131.5 565.211,-112.5 503.211,-112.5"/>
<text text-anchor="middle" x="534.211" y="-119.5" font-family="Helvetica,sans-Serif" font-size="10.00">type_traits</text>
</g>
<!-- Node3&#45;&gt;Node16 -->
<g id="edge18" class="edge"><title>Node3&#45;&gt;Node16</title>
<path fill="none" stroke="midnightblue" d="M441.045,-168.324C458.927,-159.625 486.686,-146.12 507.256,-136.113"/>
<polygon fill="midnightblue" stroke="midnightblue" points="508.96,-139.177 516.421,-131.655 505.897,-132.882 508.96,-139.177"/>
</g>
<!-- Node5 -->
<g id="node6" class="node"><title>Node5</title>
<polygon fill="white" stroke="#bfbfbf" points="296.711,-56.5 296.711,-75.5 337.711,-75.5 337.711,-56.5 296.711,-56.5"/>
<text text-anchor="middle" x="317.211" y="-63.5" font-family="Helvetica,sans-Serif" font-size="10.00">bitset</text>
</g>
<!-- Node4&#45;&gt;Node5 -->
<g id="edge5" class="edge"><title>Node4&#45;&gt;Node5</title>
<path fill="none" stroke="midnightblue" d="M312.201,-112.083C312.996,-104.927 314.14,-94.6353 315.134,-85.6911"/>
<polygon fill="midnightblue" stroke="midnightblue" points="318.612,-86.0765 316.238,-75.7511 311.655,-85.3034 318.612,-86.0765"/>
</g>
<!-- Node7 -->
<g id="node8" class="node"><title>Node7</title>
<g id="a_node8"><a xlink:href="vec2_8h.html" target="_top" xlink:title="vec2.h">
<polygon fill="white" stroke="black" points="124.211,-56.5 124.211,-75.5 170.211,-75.5 170.211,-56.5 124.211,-56.5"/>
<text text-anchor="middle" x="147.211" y="-63.5" font-family="Helvetica,sans-Serif" font-size="10.00">vec2.h</text>
</a>
</g>
</g>
<!-- Node6&#45;&gt;Node7 -->
<g id="edge7" class="edge"><title>Node6&#45;&gt;Node7</title>
<path fill="none" stroke="midnightblue" d="M200.928,-112.324C191.374,-104.263 176.931,-92.0765 165.426,-82.3695"/>
<polygon fill="midnightblue" stroke="midnightblue" points="167.58,-79.6076 157.68,-75.8339 163.066,-84.9577 167.58,-79.6076"/>
</g>
<!-- Node6&#45;&gt;Node8 -->
<g id="edge10" class="edge"><title>Node6&#45;&gt;Node8</title>
<path fill="none" stroke="midnightblue" d="M222.866,-112.292C238.5,-99.5346 262.812,-75.1993 249.211,-56 227.651,-25.5671 183.797,-15.5652 153.473,-12.3631"/>
<polygon fill="midnightblue" stroke="midnightblue" points="153.634,-8.86406 143.37,-11.4917 153.032,-15.8382 153.634,-8.86406"/>
</g>
<!-- Node9 -->
<g id="node10" class="node"><title>Node9</title>
<polygon fill="white" stroke="#bfbfbf" points="188.211,-56.5 188.211,-75.5 240.211,-75.5 240.211,-56.5 188.211,-56.5"/>
<text text-anchor="middle" x="214.211" y="-63.5" font-family="Helvetica,sans-Serif" font-size="10.00">ostream</text>
</g>
<!-- Node6&#45;&gt;Node9 -->
<g id="edge9" class="edge"><title>Node6&#45;&gt;Node9</title>
<path fill="none" stroke="midnightblue" d="M211.706,-112.083C212.099,-105.006 212.663,-94.8611 213.156,-85.9865"/>
<polygon fill="midnightblue" stroke="midnightblue" points="216.664,-85.9299 213.724,-75.7511 209.675,-85.5415 216.664,-85.9299"/>
</g>
<!-- Node7&#45;&gt;Node8 -->
<g id="edge8" class="edge"><title>Node7&#45;&gt;Node8</title>
<path fill="none" stroke="midnightblue" d="M142.917,-56.083C139.358,-48.6913 134.188,-37.9533 129.786,-28.8111"/>
<polygon fill="midnightblue" stroke="midnightblue" points="132.916,-27.2427 125.424,-19.7511 126.609,-30.2795 132.916,-27.2427"/>
</g>
<!-- Node10&#45;&gt;Node8 -->
<g id="edge12" class="edge"><title>Node10&#45;&gt;Node8</title>
<path fill="none" stroke="midnightblue" d="M98.1723,-112.368C102.207,-94.617 111.514,-53.6664 116.984,-29.5974"/>
<polygon fill="midnightblue" stroke="midnightblue" points="120.455,-30.1185 119.258,-19.5914 113.629,-28.567 120.455,-30.1185"/>
</g>
<!-- Node11 -->
<g id="node12" class="node"><title>Node11</title>
<polygon fill="white" stroke="#bfbfbf" points="28.2106,-56.5 28.2106,-75.5 68.2106,-75.5 68.2106,-56.5 28.2106,-56.5"/>
<text text-anchor="middle" x="48.2106" y="-63.5" font-family="Helvetica,sans-Serif" font-size="10.00">limits</text>
</g>
<!-- Node10&#45;&gt;Node11 -->
<g id="edge13" class="edge"><title>Node10&#45;&gt;Node11</title>
<path fill="none" stroke="midnightblue" d="M88.2844,-112.083C81.3645,-104.298 71.1453,-92.8015 62.7586,-83.3665"/>
<polygon fill="midnightblue" stroke="midnightblue" points="65.249,-80.8999 55.9894,-75.7511 60.0171,-85.5505 65.249,-80.8999"/>
</g>
<!-- Node10&#45;&gt;Node12 -->
<g id="edge14" class="edge"><title>Node10&#45;&gt;Node12</title>
<path fill="none" stroke="midnightblue" d="M149.414,-112.949C152.049,-112.613 154.658,-112.295 157.211,-112 348.545,-89.9055 579.362,-74.2866 662.992,-68.9836"/>
<polygon fill="midnightblue" stroke="midnightblue" points="663.365,-72.4672 673.125,-68.3461 662.925,-65.481 663.365,-72.4672"/>
</g>
<!-- Node19&#45;&gt;Node12 -->
<g id="edge25" class="edge"><title>Node19&#45;&gt;Node12</title>
<path fill="none" stroke="midnightblue" d="M783.285,-224.787C773.614,-215.051 761.193,-201.501 752.211,-188 729.577,-153.981 711.128,-109.562 701.805,-85.1116"/>
<polygon fill="midnightblue" stroke="midnightblue" points="705.056,-83.8129 698.281,-75.6673 698.498,-86.2599 705.056,-83.8129"/>
</g>
<!-- Node19&#45;&gt;Node20 -->
<g id="edge26" class="edge"><title>Node19&#45;&gt;Node20</title>
<path fill="none" stroke="midnightblue" d="M831.269,-224.933C855.057,-214.81 886.858,-201.278 909.773,-191.527"/>
<polygon fill="midnightblue" stroke="midnightblue" points="911.169,-194.736 919.001,-187.6 908.429,-188.295 911.169,-194.736"/>
</g>
<!-- Node21 -->
<g id="node22" class="node"><title>Node21</title>
<polygon fill="white" stroke="#bfbfbf" points="761.711,-168.5 761.711,-187.5 820.711,-187.5 820.711,-168.5 761.711,-168.5"/>
<text text-anchor="middle" x="791.211" y="-175.5" font-family="Helvetica,sans-Serif" font-size="10.00">functional</text>
</g>
<!-- Node19&#45;&gt;Node21 -->
<g id="edge27" class="edge"><title>Node19&#45;&gt;Node21</title>
<path fill="none" stroke="midnightblue" d="M796.552,-224.781C795.608,-216.691 794.414,-206.462 793.395,-197.725"/>
<polygon fill="midnightblue" stroke="midnightblue" points="796.865,-197.258 792.229,-187.731 789.912,-198.069 796.865,-197.258"/>
</g>
<!-- Node19&#45;&gt;Node22 -->
<g id="edge28" class="edge"><title>Node19&#45;&gt;Node22</title>
<path fill="none" stroke="midnightblue" d="M814.563,-224.781C825.106,-215.613 838.811,-203.696 849.594,-194.319"/>
<polygon fill="midnightblue" stroke="midnightblue" points="851.921,-196.933 857.171,-187.731 847.328,-191.651 851.921,-196.933"/>
</g>
</g>
</svg>
