<?xml version="1.0" encoding="UTF-8" standalone="no"?>
<!DOCTYPE svg PUBLIC "-//W3C//DTD SVG 1.1//EN"
 "http://www.w3.org/Graphics/SVG/1.1/DTD/svg11.dtd">
<!-- Generated by graphviz version 2.36.0 (20140111.2315)
 -->
<!-- Title: src/tree/TCalibrationData.h Pages: 1 -->
<svg width="771pt" height="252pt"
 viewBox="0.00 0.00 771.00 252.00" xmlns="http://www.w3.org/2000/svg" xmlns:xlink="http://www.w3.org/1999/xlink">
<g id="graph0" class="graph" transform="scale(1 1) rotate(0) translate(4 248)">
<title>src/tree/TCalibrationData.h</title>
<polygon fill="white" stroke="none" points="-4,4 -4,-248 767.004,-248 767.004,4 -4,4"/>
<!-- Node0 -->
<g id="node1" class="node"><title>Node0</title>
<polygon fill="#bfbfbf" stroke="black" points="603,-224.5 603,-243.5 737,-243.5 737,-224.5 603,-224.5"/>
<text text-anchor="middle" x="670" y="-231.5" font-family="Helvetica,sans-Serif" font-size="10.00">src/tree/TCalibrationData.h</text>
</g>
<!-- Node1 -->
<g id="node2" class="node"><title>Node1</title>
<g id="a_node2"><a xlink:href="_t_i_d_8h.html" target="_top" xlink:title="TID.h">
<polygon fill="white" stroke="black" points="300.5,-168.5 300.5,-187.5 341.5,-187.5 341.5,-168.5 300.5,-168.5"/>
<text text-anchor="middle" x="321" y="-175.5" font-family="Helvetica,sans-Serif" font-size="10.00">TID.h</text>
</a>
</g>
</g>
<!-- Node0&#45;&gt;Node1 -->
<g id="edge1" class="edge"><title>Node0&#45;&gt;Node1</title>
<path fill="none" stroke="midnightblue" d="M614.7,-224.444C540.333,-212.937 410.637,-192.869 351.707,-183.751"/>
<polygon fill="midnightblue" stroke="midnightblue" points="351.973,-180.251 341.556,-182.181 350.903,-187.169 351.973,-180.251"/>
</g>
<!-- Node5 -->
<g id="node6" class="node"><title>Node5</title>
<polygon fill="white" stroke="#bfbfbf" points="683.5,-0.5 683.5,-19.5 724.5,-19.5 724.5,-0.5 683.5,-0.5"/>
<text text-anchor="middle" x="704" y="-7.5" font-family="Helvetica,sans-Serif" font-size="10.00">string</text>
</g>
<!-- Node0&#45;&gt;Node5 -->
<g id="edge20" class="edge"><title>Node0&#45;&gt;Node5</title>
<path fill="none" stroke="midnightblue" d="M701.809,-224.385C719.946,-217.661 741.164,-206.306 752,-188 783.427,-134.906 739.773,-60.7732 716.697,-27.8749"/>
<polygon fill="midnightblue" stroke="midnightblue" points="719.51,-25.7924 710.813,-19.7411 713.838,-29.895 719.51,-25.7924"/>
</g>
<!-- Node10 -->
<g id="node11" class="node"><title>Node10</title>
<polygon fill="white" stroke="#bfbfbf" points="604.5,-56.5 604.5,-75.5 645.5,-75.5 645.5,-56.5 604.5,-56.5"/>
<text text-anchor="middle" x="625" y="-63.5" font-family="Helvetica,sans-Serif" font-size="10.00">ctime</text>
</g>
<!-- Node0&#45;&gt;Node10 -->
<g id="edge21" class="edge"><title>Node0&#45;&gt;Node10</title>
<path fill="none" stroke="midnightblue" d="M667.186,-224.412C664.261,-215.385 659.615,-200.752 656,-188 645.738,-151.798 635.145,-109.081 629.385,-85.3138"/>
<polygon fill="midnightblue" stroke="midnightblue" points="632.777,-84.4504 627.032,-75.5485 625.972,-86.0901 632.777,-84.4504"/>
</g>
<!-- Node17 -->
<g id="node18" class="node"><title>Node17</title>
<g id="a_node18"><a xlink:href="_git_info_8h.html" target="_top" xlink:title="base/GitInfo.h">
<polygon fill="white" stroke="black" points="665,-168.5 665,-187.5 743,-187.5 743,-168.5 665,-168.5"/>
<text text-anchor="middle" x="704" y="-175.5" font-family="Helvetica,sans-Serif" font-size="10.00">base/GitInfo.h</text>
</a>
</g>
</g>
<!-- Node0&#45;&gt;Node17 -->
<g id="edge18" class="edge"><title>Node0&#45;&gt;Node17</title>
<path fill="none" stroke="midnightblue" d="M675.614,-224.083C680.367,-216.534 687.318,-205.495 693.152,-196.23"/>
<polygon fill="midnightblue" stroke="midnightblue" points="696.124,-198.078 698.49,-187.751 690.2,-194.349 696.124,-198.078"/>
</g>
<!-- Node2 -->
<g id="node3" class="node"><title>Node2</title>
<polygon fill="white" stroke="#bfbfbf" points="393,-112.5 393,-131.5 449,-131.5 449,-112.5 393,-112.5"/>
<text text-anchor="middle" x="421" y="-119.5" font-family="Helvetica,sans-Serif" font-size="10.00">Rtypes.h</text>
</g>
<!-- Node1&#45;&gt;Node2 -->
<g id="edge2" class="edge"><title>Node1&#45;&gt;Node2</title>
<path fill="none" stroke="midnightblue" d="M337.067,-168.324C352.958,-159.743 377.507,-146.486 395.958,-136.522"/>
<polygon fill="midnightblue" stroke="midnightblue" points="397.837,-139.486 404.973,-131.655 394.511,-133.326 397.837,-139.486"/>
</g>
<!-- Node3 -->
<g id="node4" class="node"><title>Node3</title>
<g id="a_node4"><a xlink:href="base_2std__ext_2_time_8h.html" target="_top" xlink:title="base/std_ext/time.h">
<polygon fill="white" stroke="black" points="467.5,-112.5 467.5,-131.5 570.5,-131.5 570.5,-112.5 467.5,-112.5"/>
<text text-anchor="middle" x="519" y="-119.5" font-family="Helvetica,sans-Serif" font-size="10.00">base/std_ext/time.h</text>
</a>
</g>
</g>
<!-- Node1&#45;&gt;Node3 -->
<g id="edge3" class="edge"><title>Node1&#45;&gt;Node3</title>
<path fill="none" stroke="midnightblue" d="M341.815,-171.323C374.011,-162.542 436.495,-145.501 477.989,-134.185"/>
<polygon fill="midnightblue" stroke="midnightblue" points="479.069,-137.518 487.796,-131.51 477.228,-130.765 479.069,-137.518"/>
</g>
<!-- Node1&#45;&gt;Node10 -->
<g id="edge17" class="edge"><title>Node1&#45;&gt;Node10</title>
<path fill="none" stroke="midnightblue" d="M341.757,-175.417C395.782,-170.982 539.32,-157.088 579,-132 596.659,-120.835 609.499,-100.2 617.056,-85.167"/>
<polygon fill="midnightblue" stroke="midnightblue" points="620.354,-86.3789 621.438,-75.8397 614.018,-83.4025 620.354,-86.3789"/>
</g>
<!-- Node11 -->
<g id="node12" class="node"><title>Node11</title>
<polygon fill="white" stroke="#bfbfbf" points="0,-112.5 0,-131.5 62,-131.5 62,-112.5 0,-112.5"/>
<text text-anchor="middle" x="31" y="-119.5" font-family="Helvetica,sans-Serif" font-size="10.00">type_traits</text>
</g>
<!-- Node1&#45;&gt;Node11 -->
<g id="edge11" class="edge"><title>Node1&#45;&gt;Node11</title>
<path fill="none" stroke="midnightblue" d="M300.2,-173.569C258.767,-166.667 162.786,-150.349 72.2836,-132.195"/>
<polygon fill="midnightblue" stroke="midnightblue" points="72.9102,-128.751 62.4154,-130.203 71.5254,-135.612 72.9102,-128.751"/>
</g>
<!-- Node12 -->
<g id="node13" class="node"><title>Node12</title>
<polygon fill="white" stroke="#bfbfbf" points="80,-112.5 80,-131.5 118,-131.5 118,-112.5 80,-112.5"/>
<text text-anchor="middle" x="99" y="-119.5" font-family="Helvetica,sans-Serif" font-size="10.00">tuple</text>
</g>
<!-- Node1&#45;&gt;Node12 -->
<g id="edge12" class="edge"><title>Node1&#45;&gt;Node12</title>
<path fill="none" stroke="midnightblue" d="M300.47,-172.824C266.508,-165.792 196.336,-150.738 127.863,-132.067"/>
<polygon fill="midnightblue" stroke="midnightblue" points="128.787,-128.691 118.216,-129.409 126.927,-135.439 128.787,-128.691"/>
</g>
<!-- Node13 -->
<g id="node14" class="node"><title>Node13</title>
<polygon fill="white" stroke="#bfbfbf" points="136,-112.5 136,-131.5 182,-131.5 182,-112.5 136,-112.5"/>
<text text-anchor="middle" x="159" y="-119.5" font-family="Helvetica,sans-Serif" font-size="10.00">cstdint</text>
</g>
<!-- Node1&#45;&gt;Node13 -->
<g id="edge13" class="edge"><title>Node1&#45;&gt;Node13</title>
<path fill="none" stroke="midnightblue" d="M300.483,-170.161C273.091,-161.03 224.261,-144.754 191.75,-133.917"/>
<polygon fill="midnightblue" stroke="midnightblue" points="192.819,-130.584 182.225,-130.742 190.605,-137.225 192.819,-130.584"/>
</g>
<!-- Node14 -->
<g id="node15" class="node"><title>Node14</title>
<polygon fill="white" stroke="#bfbfbf" points="200.5,-112.5 200.5,-131.5 259.5,-131.5 259.5,-112.5 200.5,-112.5"/>
<text text-anchor="middle" x="230" y="-119.5" font-family="Helvetica,sans-Serif" font-size="10.00">stdexcept</text>
</g>
<!-- Node1&#45;&gt;Node14 -->
<g id="edge14" class="edge"><title>Node1&#45;&gt;Node14</title>
<path fill="none" stroke="midnightblue" d="M306.379,-168.324C292.051,-159.822 269.987,-146.729 253.251,-136.797"/>
<polygon fill="midnightblue" stroke="midnightblue" points="254.97,-133.748 244.584,-131.655 251.398,-139.768 254.97,-133.748"/>
</g>
<!-- Node15 -->
<g id="node16" class="node"><title>Node15</title>
<polygon fill="white" stroke="#bfbfbf" points="277.5,-112.5 277.5,-131.5 306.5,-131.5 306.5,-112.5 277.5,-112.5"/>
<text text-anchor="middle" x="292" y="-119.5" font-family="Helvetica,sans-Serif" font-size="10.00">list</text>
</g>
<!-- Node1&#45;&gt;Node15 -->
<g id="edge15" class="edge"><title>Node1&#45;&gt;Node15</title>
<path fill="none" stroke="midnightblue" d="M316.211,-168.083C312.242,-160.691 306.475,-149.953 301.565,-140.811"/>
<polygon fill="midnightblue" stroke="midnightblue" points="304.514,-138.905 296.7,-131.751 298.347,-142.217 304.514,-138.905"/>
</g>
<!-- Node16 -->
<g id="node17" class="node"><title>Node16</title>
<polygon fill="white" stroke="#bfbfbf" points="325,-112.5 325,-131.5 375,-131.5 375,-112.5 325,-112.5"/>
<text text-anchor="middle" x="350" y="-119.5" font-family="Helvetica,sans-Serif" font-size="10.00">iomanip</text>
</g>
<!-- Node1&#45;&gt;Node16 -->
<g id="edge16" class="edge"><title>Node1&#45;&gt;Node16</title>
<path fill="none" stroke="midnightblue" d="M325.789,-168.083C329.758,-160.691 335.525,-149.953 340.435,-140.811"/>
<polygon fill="midnightblue" stroke="midnightblue" points="343.653,-142.217 345.3,-131.751 337.486,-138.905 343.653,-142.217"/>
</g>
<!-- Node4 -->
<g id="node5" class="node"><title>Node4</title>
<g id="a_node5"><a xlink:href="string_8h.html" target="_top" xlink:title="base/std_ext/string.h">
<polygon fill="white" stroke="black" points="478,-56.5 478,-75.5 586,-75.5 586,-56.5 478,-56.5"/>
<text text-anchor="middle" x="532" y="-63.5" font-family="Helvetica,sans-Serif" font-size="10.00">base/std_ext/string.h</text>
</a>
</g>
</g>
<!-- Node3&#45;&gt;Node4 -->
<g id="edge4" class="edge"><title>Node3&#45;&gt;Node4</title>
<path fill="none" stroke="midnightblue" d="M521.147,-112.083C522.869,-104.927 525.347,-94.6353 527.5,-85.6911"/>
<polygon fill="midnightblue" stroke="midnightblue" points="530.955,-86.2925 529.893,-75.7511 524.15,-84.6541 530.955,-86.2925"/>
</g>
<!-- Node9 -->
<g id="node10" class="node"><title>Node9</title>
<polygon fill="white" stroke="#bfbfbf" points="414,-56.5 414,-75.5 460,-75.5 460,-56.5 414,-56.5"/>
<text text-anchor="middle" x="437" y="-63.5" font-family="Helvetica,sans-Serif" font-size="10.00">cstring</text>
</g>
<!-- Node3&#45;&gt;Node9 -->
<g id="edge9" class="edge"><title>Node3&#45;&gt;Node9</title>
<path fill="none" stroke="midnightblue" d="M505.825,-112.324C493.153,-103.979 473.767,-91.2122 458.794,-81.3524"/>
<polygon fill="midnightblue" stroke="midnightblue" points="460.419,-78.2313 450.142,-75.6545 456.569,-84.0776 460.419,-78.2313"/>
</g>
<!-- Node3&#45;&gt;Node10 -->
<g id="edge10" class="edge"><title>Node3&#45;&gt;Node10</title>
<path fill="none" stroke="midnightblue" d="M536.031,-112.324C553.03,-103.664 579.376,-90.2424 598.993,-80.249"/>
<polygon fill="midnightblue" stroke="midnightblue" points="600.69,-83.3125 608.012,-75.6545 597.512,-77.0752 600.69,-83.3125"/>
</g>
<!-- Node4&#45;&gt;Node5 -->
<g id="edge5" class="edge"><title>Node4&#45;&gt;Node5</title>
<path fill="none" stroke="midnightblue" d="M559.254,-56.4435C590.367,-46.6756 641.129,-30.7385 673.527,-20.5673"/>
<polygon fill="midnightblue" stroke="midnightblue" points="674.859,-23.8174 683.352,-17.4826 672.762,-17.1388 674.859,-23.8174"/>
</g>
<!-- Node6 -->
<g id="node7" class="node"><title>Node6</title>
<polygon fill="white" stroke="#bfbfbf" points="572,-0.5 572,-19.5 624,-19.5 624,-0.5 572,-0.5"/>
<text text-anchor="middle" x="598" y="-7.5" font-family="Helvetica,sans-Serif" font-size="10.00">sstream</text>
</g>
<!-- Node4&#45;&gt;Node6 -->
<g id="edge6" class="edge"><title>Node4&#45;&gt;Node6</title>
<path fill="none" stroke="midnightblue" d="M542.604,-56.324C552.456,-48.2631 567.351,-36.0765 579.215,-26.3695"/>
<polygon fill="midnightblue" stroke="midnightblue" points="581.68,-28.8752 587.203,-19.8339 577.247,-23.4575 581.68,-28.8752"/>
</g>
<!-- Node7 -->
<g id="node8" class="node"><title>Node7</title>
<polygon fill="white" stroke="#bfbfbf" points="436,-0.5 436,-19.5 492,-19.5 492,-0.5 436,-0.5"/>
<text text-anchor="middle" x="464" y="-7.5" font-family="Helvetica,sans-Serif" font-size="10.00">algorithm</text>
</g>
<!-- Node4&#45;&gt;Node7 -->
<g id="edge7" class="edge"><title>Node4&#45;&gt;Node7</title>
<path fill="none" stroke="midnightblue" d="M521.075,-56.324C510.825,-48.1849 495.279,-35.8395 482.999,-26.0874"/>
<polygon fill="midnightblue" stroke="midnightblue" points="485.132,-23.3119 475.124,-19.8339 480.779,-28.7937 485.132,-23.3119"/>
</g>
<!-- Node8 -->
<g id="node9" class="node"><title>Node8</title>
<polygon fill="white" stroke="#bfbfbf" points="510,-0.5 510,-19.5 554,-19.5 554,-0.5 510,-0.5"/>
<text text-anchor="middle" x="532" y="-7.5" font-family="Helvetica,sans-Serif" font-size="10.00">vector</text>
</g>
<!-- Node4&#45;&gt;Node8 -->
<g id="edge8" class="edge"><title>Node4&#45;&gt;Node8</title>
<path fill="none" stroke="midnightblue" d="M532,-56.083C532,-49.0059 532,-38.8611 532,-29.9865"/>
<polygon fill="midnightblue" stroke="midnightblue" points="535.5,-29.751 532,-19.7511 528.5,-29.7511 535.5,-29.751"/>
</g>
<!-- Node17&#45;&gt;Node5 -->
<g id="edge19" class="edge"><title>Node17&#45;&gt;Node5</title>
<path fill="none" stroke="midnightblue" d="M704,-168.075C704,-141.945 704,-65.2106 704,-29.577"/>
<polygon fill="midnightblue" stroke="midnightblue" points="707.5,-29.5681 704,-19.5681 700.5,-29.5681 707.5,-29.5681"/>
</g>
</g>
</svg>
