<?xml version="1.0" encoding="UTF-8" standalone="no"?>
<!DOCTYPE svg PUBLIC "-//W3C//DTD SVG 1.1//EN"
 "http://www.w3.org/Graphics/SVG/1.1/DTD/svg11.dtd">
<!-- Generated by graphviz version 2.36.0 (20140111.2315)
 -->
<!-- Title: src/base/TH_ext.cc Pages: 1 -->
<svg width="979pt" height="252pt"
 viewBox="0.00 0.00 979.00 252.00" xmlns="http://www.w3.org/2000/svg" xmlns:xlink="http://www.w3.org/1999/xlink">
<g id="graph0" class="graph" transform="scale(1 1) rotate(0) translate(4 248)">
<title>src/base/TH_ext.cc</title>
<polygon fill="white" stroke="none" points="-4,4 -4,-248 975,-248 975,4 -4,4"/>
<!-- Node0 -->
<g id="node1" class="node"><title>Node0</title>
<polygon fill="#bfbfbf" stroke="black" points="647.5,-224.5 647.5,-243.5 750.5,-243.5 750.5,-224.5 647.5,-224.5"/>
<text text-anchor="middle" x="699" y="-231.5" font-family="Helvetica,sans-Serif" font-size="10.00">src/base/TH_ext.cc</text>
</g>
<!-- Node1 -->
<g id="node2" class="node"><title>Node1</title>
<g id="a_node2"><a xlink:href="_t_h__ext_8h.html" target="_top" xlink:title="base/TH_ext.h">
<polygon fill="white" stroke="black" points="611.5,-168.5 611.5,-187.5 692.5,-187.5 692.5,-168.5 611.5,-168.5"/>
<text text-anchor="middle" x="652" y="-175.5" font-family="Helvetica,sans-Serif" font-size="10.00">base/TH_ext.h</text>
</a>
</g>
</g>
<!-- Node0&#45;&gt;Node1 -->
<g id="edge1" class="edge"><title>Node0&#45;&gt;Node1</title>
<path fill="none" stroke="midnightblue" d="M691.239,-224.083C684.463,-216.298 674.457,-204.801 666.245,-195.367"/>
<polygon fill="midnightblue" stroke="midnightblue" points="668.822,-192.996 659.617,-187.751 663.542,-197.592 668.822,-192.996"/>
</g>
<!-- Node20 -->
<g id="node21" class="node"><title>Node20</title>
<polygon fill="white" stroke="#bfbfbf" points="710.5,-168.5 710.5,-187.5 781.5,-187.5 781.5,-168.5 710.5,-168.5"/>
<text text-anchor="middle" x="746" y="-175.5" font-family="Helvetica,sans-Serif" font-size="10.00">TDirectory.h</text>
</g>
<!-- Node0&#45;&gt;Node20 -->
<g id="edge26" class="edge"><title>Node0&#45;&gt;Node20</title>
<path fill="none" stroke="midnightblue" d="M706.761,-224.083C713.537,-216.298 723.543,-204.801 731.755,-195.367"/>
<polygon fill="midnightblue" stroke="midnightblue" points="734.458,-197.592 738.383,-187.751 729.178,-192.996 734.458,-197.592"/>
</g>
<!-- Node21 -->
<g id="node22" class="node"><title>Node21</title>
<g id="a_node22"><a xlink:href="string_8h.html" target="_top" xlink:title="base/std_ext/string.h">
<polygon fill="white" stroke="black" points="91,-56.5 91,-75.5 199,-75.5 199,-56.5 91,-56.5"/>
<text text-anchor="middle" x="145" y="-63.5" font-family="Helvetica,sans-Serif" font-size="10.00">base/std_ext/string.h</text>
</a>
</g>
</g>
<!-- Node0&#45;&gt;Node21 -->
<g id="edge27" class="edge"><title>Node0&#45;&gt;Node21</title>
<path fill="none" stroke="midnightblue" d="M670.381,-224.425C578.069,-196.764 288.111,-109.882 183.289,-78.473"/>
<polygon fill="midnightblue" stroke="midnightblue" points="184.032,-75.0417 173.448,-75.5241 182.022,-81.7472 184.032,-75.0417"/>
</g>
<!-- Node23 -->
<g id="node24" class="node"><title>Node23</title>
<polygon fill="white" stroke="#bfbfbf" points="800,-168.5 800,-187.5 850,-187.5 850,-168.5 800,-168.5"/>
<text text-anchor="middle" x="825" y="-175.5" font-family="Helvetica,sans-Serif" font-size="10.00">iomanip</text>
</g>
<!-- Node0&#45;&gt;Node23 -->
<g id="edge32" class="edge"><title>Node0&#45;&gt;Node23</title>
<path fill="none" stroke="midnightblue" d="M718.965,-224.444C739.609,-215.596 772.063,-201.687 795.632,-191.586"/>
<polygon fill="midnightblue" stroke="midnightblue" points="797.316,-194.673 805.128,-187.516 794.558,-188.239 797.316,-194.673"/>
</g>
<!-- Node2 -->
<g id="node3" class="node"><title>Node2</title>
<g id="a_node3"><a xlink:href="_bin_settings_8h.html" target="_top" xlink:title="base/BinSettings.h">
<polygon fill="white" stroke="black" points="477.5,-112.5 477.5,-131.5 576.5,-131.5 576.5,-112.5 477.5,-112.5"/>
<text text-anchor="middle" x="527" y="-119.5" font-family="Helvetica,sans-Serif" font-size="10.00">base/BinSettings.h</text>
</a>
</g>
</g>
<!-- Node1&#45;&gt;Node2 -->
<g id="edge2" class="edge"><title>Node1&#45;&gt;Node2</title>
<path fill="none" stroke="midnightblue" d="M632.193,-168.444C611.713,-159.596 579.517,-145.687 556.135,-135.586"/>
<polygon fill="midnightblue" stroke="midnightblue" points="557.282,-132.269 546.714,-131.516 554.506,-138.695 557.282,-132.269"/>
</g>
<!-- Node6 -->
<g id="node7" class="node"><title>Node6</title>
<polygon fill="white" stroke="#bfbfbf" points="453.5,-0.5 453.5,-19.5 512.5,-19.5 512.5,-0.5 453.5,-0.5"/>
<text text-anchor="middle" x="483" y="-7.5" font-family="Helvetica,sans-Serif" font-size="10.00">stdexcept</text>
</g>
<!-- Node1&#45;&gt;Node6 -->
<g id="edge25" class="edge"><title>Node1&#45;&gt;Node6</title>
<path fill="none" stroke="midnightblue" d="M611.209,-172.83C562.52,-166.914 485.462,-154.247 468,-132 444.463,-102.012 461.465,-54.3339 473.618,-28.6962"/>
<polygon fill="midnightblue" stroke="midnightblue" points="476.752,-30.254 478.095,-19.7445 470.491,-27.1229 476.752,-30.254"/>
</g>
<!-- Node13 -->
<g id="node14" class="node"><title>Node13</title>
<polygon fill="white" stroke="#bfbfbf" points="595,-112.5 595,-131.5 645,-131.5 645,-112.5 595,-112.5"/>
<text text-anchor="middle" x="620" y="-119.5" font-family="Helvetica,sans-Serif" font-size="10.00">TAxis.h</text>
</g>
<!-- Node1&#45;&gt;Node13 -->
<g id="edge15" class="edge"><title>Node1&#45;&gt;Node13</title>
<path fill="none" stroke="midnightblue" d="M646.716,-168.083C642.289,-160.613 635.837,-149.724 630.382,-140.52"/>
<polygon fill="midnightblue" stroke="midnightblue" points="633.295,-138.57 625.186,-131.751 627.273,-142.138 633.295,-138.57"/>
</g>
<!-- Node14 -->
<g id="node15" class="node"><title>Node14</title>
<polygon fill="white" stroke="#bfbfbf" points="663,-112.5 663,-131.5 707,-131.5 707,-112.5 663,-112.5"/>
<text text-anchor="middle" x="685" y="-119.5" font-family="Helvetica,sans-Serif" font-size="10.00">TH1.h</text>
</g>
<!-- Node1&#45;&gt;Node14 -->
<g id="edge16" class="edge"><title>Node1&#45;&gt;Node14</title>
<path fill="none" stroke="midnightblue" d="M657.449,-168.083C662.014,-160.613 668.668,-149.724 674.293,-140.52"/>
<polygon fill="midnightblue" stroke="midnightblue" points="677.424,-142.109 679.652,-131.751 671.451,-138.459 677.424,-142.109"/>
</g>
<!-- Node15 -->
<g id="node16" class="node"><title>Node15</title>
<polygon fill="white" stroke="#bfbfbf" points="725,-112.5 725,-131.5 769,-131.5 769,-112.5 725,-112.5"/>
<text text-anchor="middle" x="747" y="-119.5" font-family="Helvetica,sans-Serif" font-size="10.00">TH2.h</text>
</g>
<!-- Node1&#45;&gt;Node15 -->
<g id="edge17" class="edge"><title>Node1&#45;&gt;Node15</title>
<path fill="none" stroke="midnightblue" d="M667.263,-168.324C682.221,-159.822 705.255,-146.729 722.727,-136.797"/>
<polygon fill="midnightblue" stroke="midnightblue" points="724.81,-139.639 731.774,-131.655 721.351,-133.553 724.81,-139.639"/>
</g>
<!-- Node16 -->
<g id="node17" class="node"><title>Node16</title>
<polygon fill="white" stroke="#bfbfbf" points="787,-112.5 787,-131.5 831,-131.5 831,-112.5 787,-112.5"/>
<text text-anchor="middle" x="809" y="-119.5" font-family="Helvetica,sans-Serif" font-size="10.00">TH3.h</text>
</g>
<!-- Node1&#45;&gt;Node16 -->
<g id="edge18" class="edge"><title>Node1&#45;&gt;Node16</title>
<path fill="none" stroke="midnightblue" d="M676.877,-168.444C704.066,-159.092 747.695,-144.086 777.314,-133.898"/>
<polygon fill="midnightblue" stroke="midnightblue" points="778.46,-137.206 786.778,-130.643 776.183,-130.586 778.46,-137.206"/>
</g>
<!-- Node17 -->
<g id="node18" class="node"><title>Node17</title>
<polygon fill="white" stroke="#bfbfbf" points="849,-112.5 849,-131.5 891,-131.5 891,-112.5 849,-112.5"/>
<text text-anchor="middle" x="870" y="-119.5" font-family="Helvetica,sans-Serif" font-size="10.00">TF1.h</text>
</g>
<!-- Node1&#45;&gt;Node17 -->
<g id="edge19" class="edge"><title>Node1&#45;&gt;Node17</title>
<path fill="none" stroke="midnightblue" d="M689.738,-168.461C727.599,-159.766 787.521,-145.659 839,-132 839.098,-131.974 839.197,-131.948 839.295,-131.922"/>
<polygon fill="midnightblue" stroke="midnightblue" points="839.983,-135.363 848.691,-129.327 838.12,-128.615 839.983,-135.363"/>
</g>
<!-- Node18 -->
<g id="node19" class="node"><title>Node18</title>
<g id="a_node19"><a xlink:href="base_2std__ext_2math_8h.html" target="_top" xlink:title="base/std_ext/math.h">
<polygon fill="white" stroke="black" points="217,-56.5 217,-75.5 323,-75.5 323,-56.5 217,-56.5"/>
<text text-anchor="middle" x="270" y="-63.5" font-family="Helvetica,sans-Serif" font-size="10.00">base/std_ext/math.h</text>
</a>
</g>
</g>
<!-- Node1&#45;&gt;Node18 -->
<g id="edge20" class="edge"><title>Node1&#45;&gt;Node18</title>
<path fill="none" stroke="midnightblue" d="M611.494,-170.73C567.517,-163.431 495.467,-150.036 435,-132 385.802,-117.326 330.69,-94.1899 298.242,-79.8417"/>
<polygon fill="midnightblue" stroke="midnightblue" points="299.49,-76.566 288.931,-75.6901 296.639,-82.9592 299.49,-76.566"/>
</g>
<!-- Node19 -->
<g id="node20" class="node"><title>Node19</title>
<polygon fill="white" stroke="#bfbfbf" points="909,-112.5 909,-131.5 971,-131.5 971,-112.5 909,-112.5"/>
<text text-anchor="middle" x="940" y="-119.5" font-family="Helvetica,sans-Serif" font-size="10.00">type_traits</text>
</g>
<!-- Node1&#45;&gt;Node19 -->
<g id="edge24" class="edge"><title>Node1&#45;&gt;Node19</title>
<path fill="none" stroke="midnightblue" d="M692.585,-169.688C751.718,-159.024 858.151,-139.783 898.852,-131.93"/>
<polygon fill="midnightblue" stroke="midnightblue" points="899.549,-135.36 908.685,-129.995 898.197,-128.492 899.549,-135.36"/>
</g>
<!-- Node3 -->
<g id="node4" class="node"><title>Node3</title>
<g id="a_node4"><a xlink:href="interval_8h.html" target="_top" xlink:title="base/interval.h">
<polygon fill="white" stroke="black" points="341,-56.5 341,-75.5 421,-75.5 421,-56.5 341,-56.5"/>
<text text-anchor="middle" x="381" y="-63.5" font-family="Helvetica,sans-Serif" font-size="10.00">base/interval.h</text>
</a>
</g>
</g>
<!-- Node2&#45;&gt;Node3 -->
<g id="edge3" class="edge"><title>Node2&#45;&gt;Node3</title>
<path fill="none" stroke="midnightblue" d="M503.866,-112.444C479.518,-103.438 440.993,-89.1891 413.577,-79.049"/>
<polygon fill="midnightblue" stroke="midnightblue" points="414.619,-75.7028 404.026,-75.5164 412.191,-82.2681 414.619,-75.7028"/>
</g>
<!-- Node2&#45;&gt;Node6 -->
<g id="edge12" class="edge"><title>Node2&#45;&gt;Node6</title>
<path fill="none" stroke="midnightblue" d="M523.547,-112.368C516.383,-94.4563 499.769,-52.9233 490.179,-28.9482"/>
<polygon fill="midnightblue" stroke="midnightblue" points="493.4,-27.5763 486.437,-19.5914 486.901,-30.1761 493.4,-27.5763"/>
</g>
<!-- Node8 -->
<g id="node9" class="node"><title>Node8</title>
<polygon fill="white" stroke="#bfbfbf" points="530.5,-0.5 530.5,-19.5 579.5,-19.5 579.5,-0.5 530.5,-0.5"/>
<text text-anchor="middle" x="555" y="-7.5" font-family="Helvetica,sans-Serif" font-size="10.00">istream</text>
</g>
<!-- Node2&#45;&gt;Node8 -->
<g id="edge13" class="edge"><title>Node2&#45;&gt;Node8</title>
<path fill="none" stroke="midnightblue" d="M529.197,-112.368C533.716,-94.617 544.139,-53.6664 550.266,-29.5974"/>
<polygon fill="midnightblue" stroke="midnightblue" points="553.738,-30.1458 552.813,-19.5914 546.954,-28.419 553.738,-30.1458"/>
</g>
<!-- Node11 -->
<g id="node12" class="node"><title>Node11</title>
<polygon fill="white" stroke="#bfbfbf" points="0,-0.5 0,-19.5 44,-19.5 44,-0.5 0,-0.5"/>
<text text-anchor="middle" x="22" y="-7.5" font-family="Helvetica,sans-Serif" font-size="10.00">vector</text>
</g>
<!-- Node2&#45;&gt;Node11 -->
<g id="edge11" class="edge"><title>Node2&#45;&gt;Node11</title>
<path fill="none" stroke="midnightblue" d="M477.119,-120.36C375.912,-118.355 150.257,-110.08 82,-76 60.6085,-65.3194 43.0445,-43.5894 32.5644,-28.1996"/>
<polygon fill="midnightblue" stroke="midnightblue" points="35.3606,-26.0787 26.9835,-19.5922 29.4871,-29.887 35.3606,-26.0787"/>
</g>
<!-- Node12 -->
<g id="node13" class="node"><title>Node12</title>
<polygon fill="white" stroke="#bfbfbf" points="555,-56.5 555,-75.5 607,-75.5 607,-56.5 555,-56.5"/>
<text text-anchor="middle" x="581" y="-63.5" font-family="Helvetica,sans-Serif" font-size="10.00">ostream</text>
</g>
<!-- Node2&#45;&gt;Node12 -->
<g id="edge14" class="edge"><title>Node2&#45;&gt;Node12</title>
<path fill="none" stroke="midnightblue" d="M535.917,-112.083C543.78,-104.22 555.431,-92.5688 564.919,-83.0813"/>
<polygon fill="midnightblue" stroke="midnightblue" points="567.653,-85.2971 572.249,-75.7511 562.703,-80.3473 567.653,-85.2971"/>
</g>
<!-- Node4 -->
<g id="node5" class="node"><title>Node4</title>
<g id="a_node5"><a xlink:href="types_8h.html" target="_top" xlink:title="types.h">
<polygon fill="white" stroke="black" points="386.5,-0.5 386.5,-19.5 435.5,-19.5 435.5,-0.5 386.5,-0.5"/>
<text text-anchor="middle" x="411" y="-7.5" font-family="Helvetica,sans-Serif" font-size="10.00">types.h</text>
</a>
</g>
</g>
<!-- Node3&#45;&gt;Node4 -->
<g id="edge4" class="edge"><title>Node3&#45;&gt;Node4</title>
<path fill="none" stroke="midnightblue" d="M385.954,-56.083C390.104,-48.6127 396.153,-37.7244 401.267,-28.5199"/>
<polygon fill="midnightblue" stroke="midnightblue" points="404.341,-30.1924 406.138,-19.7511 398.222,-26.7929 404.341,-30.1924"/>
</g>
<!-- Node5 -->
<g id="node6" class="node"><title>Node5</title>
<polygon fill="white" stroke="#bfbfbf" points="122,-0.5 122,-19.5 178,-19.5 178,-0.5 122,-0.5"/>
<text text-anchor="middle" x="150" y="-7.5" font-family="Helvetica,sans-Serif" font-size="10.00">algorithm</text>
</g>
<!-- Node3&#45;&gt;Node5 -->
<g id="edge5" class="edge"><title>Node3&#45;&gt;Node5</title>
<path fill="none" stroke="midnightblue" d="M343.781,-56.491C306.767,-48.0012 248.094,-34.4697 188.272,-20.2848"/>
<polygon fill="midnightblue" stroke="midnightblue" points="188.812,-16.8158 178.274,-17.9104 187.195,-23.6263 188.812,-16.8158"/>
</g>
<!-- Node3&#45;&gt;Node6 -->
<g id="edge6" class="edge"><title>Node3&#45;&gt;Node6</title>
<path fill="none" stroke="midnightblue" d="M397.388,-56.324C413.671,-47.7034 438.867,-34.3643 457.716,-24.3855"/>
<polygon fill="midnightblue" stroke="midnightblue" points="459.452,-27.4267 466.653,-19.6545 456.177,-21.2402 459.452,-27.4267"/>
</g>
<!-- Node7 -->
<g id="node8" class="node"><title>Node7</title>
<polygon fill="white" stroke="#bfbfbf" points="266,-0.5 266,-19.5 306,-19.5 306,-0.5 266,-0.5"/>
<text text-anchor="middle" x="286" y="-7.5" font-family="Helvetica,sans-Serif" font-size="10.00">limits</text>
</g>
<!-- Node3&#45;&gt;Node7 -->
<g id="edge7" class="edge"><title>Node3&#45;&gt;Node7</title>
<path fill="none" stroke="midnightblue" d="M365.737,-56.324C350.779,-47.8215 327.745,-34.7288 310.273,-24.7975"/>
<polygon fill="midnightblue" stroke="midnightblue" points="311.649,-21.5534 301.226,-19.6545 308.19,-27.639 311.649,-21.5534"/>
</g>
<!-- Node3&#45;&gt;Node8 -->
<g id="edge8" class="edge"><title>Node3&#45;&gt;Node8</title>
<path fill="none" stroke="midnightblue" d="M408.571,-56.4435C438.966,-47.0106 487.899,-31.8245 520.736,-21.6337"/>
<polygon fill="midnightblue" stroke="midnightblue" points="521.858,-24.9501 530.371,-18.6433 519.783,-18.2647 521.858,-24.9501"/>
</g>
<!-- Node9 -->
<g id="node10" class="node"><title>Node9</title>
<polygon fill="white" stroke="#bfbfbf" points="196,-0.5 196,-19.5 248,-19.5 248,-0.5 196,-0.5"/>
<text text-anchor="middle" x="222" y="-7.5" font-family="Helvetica,sans-Serif" font-size="10.00">sstream</text>
</g>
<!-- Node3&#45;&gt;Node9 -->
<g id="edge9" class="edge"><title>Node3&#45;&gt;Node9</title>
<path fill="none" stroke="midnightblue" d="M355.806,-56.4435C329.057,-47.3591 286.597,-32.9388 256.695,-22.7831"/>
<polygon fill="midnightblue" stroke="midnightblue" points="257.671,-19.4182 247.076,-19.5164 255.419,-26.0464 257.671,-19.4182"/>
</g>
<!-- Node10 -->
<g id="node11" class="node"><title>Node10</title>
<polygon fill="white" stroke="#bfbfbf" points="324,-0.5 324,-19.5 368,-19.5 368,-0.5 324,-0.5"/>
<text text-anchor="middle" x="346" y="-7.5" font-family="Helvetica,sans-Serif" font-size="10.00">cmath</text>
</g>
<!-- Node3&#45;&gt;Node10 -->
<g id="edge10" class="edge"><title>Node3&#45;&gt;Node10</title>
<path fill="none" stroke="midnightblue" d="M375.22,-56.083C370.328,-48.5341 363.173,-37.4948 357.167,-28.2298"/>
<polygon fill="midnightblue" stroke="midnightblue" points="360.048,-26.239 351.672,-19.7511 354.174,-30.0463 360.048,-26.239"/>
</g>
<!-- Node18&#45;&gt;Node7 -->
<g id="edge22" class="edge"><title>Node18&#45;&gt;Node7</title>
<path fill="none" stroke="midnightblue" d="M272.642,-56.083C274.786,-48.8486 277.879,-38.4087 280.549,-29.3968"/>
<polygon fill="midnightblue" stroke="midnightblue" points="283.922,-30.3334 283.407,-19.7511 277.21,-28.3447 283.922,-30.3334"/>
</g>
<!-- Node18&#45;&gt;Node10 -->
<g id="edge21" class="edge"><title>Node18&#45;&gt;Node10</title>
<path fill="none" stroke="midnightblue" d="M282.211,-56.324C293.776,-48.1066 311.375,-35.6017 325.161,-25.8069"/>
<polygon fill="midnightblue" stroke="midnightblue" points="327.443,-28.4791 333.567,-19.8339 323.388,-22.7729 327.443,-28.4791"/>
</g>
<!-- Node18&#45;&gt;Node11 -->
<g id="edge23" class="edge"><title>Node18&#45;&gt;Node11</title>
<path fill="none" stroke="midnightblue" d="M223.622,-56.4702C181.677,-48.5118 118.029,-35.8326 54.1338,-20.1388"/>
<polygon fill="midnightblue" stroke="midnightblue" points="54.8432,-16.7087 44.2947,-17.6983 53.1579,-23.5029 54.8432,-16.7087"/>
</g>
<!-- Node21&#45;&gt;Node5 -->
<g id="edge30" class="edge"><title>Node21&#45;&gt;Node5</title>
<path fill="none" stroke="midnightblue" d="M145.826,-56.083C146.481,-49.0059 147.42,-38.8611 148.242,-29.9865"/>
<polygon fill="midnightblue" stroke="midnightblue" points="151.753,-30.0312 149.19,-19.7511 144.783,-29.3858 151.753,-30.0312"/>
</g>
<!-- Node21&#45;&gt;Node9 -->
<g id="edge29" class="edge"><title>Node21&#45;&gt;Node9</title>
<path fill="none" stroke="midnightblue" d="M157.371,-56.324C169.158,-48.0577 187.132,-35.4527 201.136,-25.6322"/>
<polygon fill="midnightblue" stroke="midnightblue" points="203.482,-28.2619 209.659,-19.6545 199.462,-22.5307 203.482,-28.2619"/>
</g>
<!-- Node21&#45;&gt;Node11 -->
<g id="edge31" class="edge"><title>Node21&#45;&gt;Node11</title>
<path fill="none" stroke="midnightblue" d="M125.51,-56.4435C105.358,-47.5961 73.6771,-33.6875 50.6692,-23.5865"/>
<polygon fill="midnightblue" stroke="midnightblue" points="51.962,-20.3316 41.3985,-19.5164 49.148,-26.7411 51.962,-20.3316"/>
</g>
<!-- Node22 -->
<g id="node23" class="node"><title>Node22</title>
<polygon fill="white" stroke="#bfbfbf" points="62.5,-0.5 62.5,-19.5 103.5,-19.5 103.5,-0.5 62.5,-0.5"/>
<text text-anchor="middle" x="83" y="-7.5" font-family="Helvetica,sans-Serif" font-size="10.00">string</text>
</g>
<!-- Node21&#45;&gt;Node22 -->
<g id="edge28" class="edge"><title>Node21&#45;&gt;Node22</title>
<path fill="none" stroke="midnightblue" d="M135.039,-56.324C125.873,-48.3414 112.063,-36.3128 100.972,-26.6529"/>
<polygon fill="midnightblue" stroke="midnightblue" points="102.982,-23.7624 93.1426,-19.8339 98.3847,-29.041 102.982,-23.7624"/>
</g>
</g>
</svg>
