<?xml version="1.0" encoding="UTF-8" standalone="no"?>
<!DOCTYPE svg PUBLIC "-//W3C//DTD SVG 1.1//EN"
 "http://www.w3.org/Graphics/SVG/1.1/DTD/svg11.dtd">
<!-- Generated by graphviz version 2.36.0 (20140111.2315)
 -->
<!-- Title: src/root&#45;addons/cbtaps_display/TH2Crystals.h Pages: 1 -->
<svg width="3586pt" height="332pt"
 viewBox="0.00 0.00 3586.00 332.00" xmlns="http://www.w3.org/2000/svg" xmlns:xlink="http://www.w3.org/1999/xlink">
<g id="graph0" class="graph" transform="scale(1 1) rotate(0) translate(4 328)">
<title>src/root&#45;addons/cbtaps_display/TH2Crystals.h</title>
<polygon fill="white" stroke="none" points="-4,4 -4,-328 3582,-328 3582,4 -4,4"/>
<!-- Node5 -->
<g id="node1" class="node"><title>Node5</title>
<polygon fill="#bfbfbf" stroke="black" points="2100.5,-293 2100.5,-323 2219.5,-323 2219.5,-293 2100.5,-293"/>
<text text-anchor="start" x="2108.5" y="-311" font-family="Helvetica,sans-Serif" font-size="10.00">src/root&#45;addons/cbtaps</text>
<text text-anchor="middle" x="2160" y="-300" font-family="Helvetica,sans-Serif" font-size="10.00">_display/TH2Crystals.h</text>
</g>
<!-- Node6 -->
<g id="node2" class="node"><title>Node6</title>
<g id="a_node2"><a xlink:href="_t_h2_c_b_8h.html" target="_top" xlink:title="src/root&#45;addons/cbtaps\l_display/TH2CB.h">
<polygon fill="white" stroke="black" points="2102,-225 2102,-255 2218,-255 2218,-225 2102,-225"/>
<text text-anchor="start" x="2110" y="-243" font-family="Helvetica,sans-Serif" font-size="10.00">src/root&#45;addons/cbtaps</text>
<text text-anchor="middle" x="2160" y="-232" font-family="Helvetica,sans-Serif" font-size="10.00">_display/TH2CB.h</text>
</a>
</g>
</g>
<!-- Node5&#45;&gt;Node6 -->
<g id="edge1" class="edge"><title>Node5&#45;&gt;Node6</title>
<path fill="none" stroke="midnightblue" d="M2160,-282.532C2160,-273.361 2160,-263.245 2160,-255.293"/>
<polygon fill="midnightblue" stroke="midnightblue" points="2156.5,-282.679 2160,-292.679 2163.5,-282.679 2156.5,-282.679"/>
</g>
<!-- Node36 -->
<g id="node32" class="node"><title>Node36</title>
<g id="a_node32"><a xlink:href="_t_h2_t_a_p_s_8h.html" target="_top" xlink:title="src/root&#45;addons/cbtaps\l_display/TH2TAPS.h">
<polygon fill="white" stroke="black" points="754,-225 754,-255 870,-255 870,-225 754,-225"/>
<text text-anchor="start" x="762" y="-243" font-family="Helvetica,sans-Serif" font-size="10.00">src/root&#45;addons/cbtaps</text>
<text text-anchor="middle" x="812" y="-232" font-family="Helvetica,sans-Serif" font-size="10.00">_display/TH2TAPS.h</text>
</a>
</g>
</g>
<!-- Node5&#45;&gt;Node36 -->
<g id="edge31" class="edge"><title>Node5&#45;&gt;Node36</title>
<path fill="none" stroke="midnightblue" d="M2090.16,-303.581C1854.01,-292.018 1087.96,-254.511 870.214,-243.85"/>
<polygon fill="midnightblue" stroke="midnightblue" points="2090.18,-307.086 2100.34,-304.079 2090.52,-300.094 2090.18,-307.086"/>
</g>
<!-- Node43 -->
<g id="node39" class="node"><title>Node43</title>
<g id="a_node39"><a xlink:href="_t_h2_crystals_8cc.html" target="_top" xlink:title="src/root&#45;addons/cbtaps\l_display/TH2Crystals.cc">
<polygon fill="white" stroke="black" points="2236.5,-225 2236.5,-255 2361.5,-255 2361.5,-225 2236.5,-225"/>
<text text-anchor="start" x="2244.5" y="-243" font-family="Helvetica,sans-Serif" font-size="10.00">src/root&#45;addons/cbtaps</text>
<text text-anchor="middle" x="2299" y="-232" font-family="Helvetica,sans-Serif" font-size="10.00">_display/TH2Crystals.cc</text>
</a>
</g>
</g>
<!-- Node5&#45;&gt;Node43 -->
<g id="edge43" class="edge"><title>Node5&#45;&gt;Node43</title>
<path fill="none" stroke="midnightblue" d="M2199,-288.48C2221.26,-277.913 2248.72,-264.874 2269.23,-255.135"/>
<polygon fill="midnightblue" stroke="midnightblue" points="2197.35,-285.39 2189.82,-292.841 2200.35,-291.714 2197.35,-285.39"/>
</g>
<!-- Node7 -->
<g id="node3" class="node"><title>Node7</title>
<g id="a_node3"><a xlink:href="progs_2_xmas_c_b_8cc.html" target="_top" xlink:title="progs/XmasCB.cc">
<polygon fill="white" stroke="black" points="3335.5,-157.5 3335.5,-176.5 3432.5,-176.5 3432.5,-157.5 3335.5,-157.5"/>
<text text-anchor="middle" x="3384" y="-164.5" font-family="Helvetica,sans-Serif" font-size="10.00">progs/XmasCB.cc</text>
</a>
</g>
</g>
<!-- Node6&#45;&gt;Node7 -->
<g id="edge2" class="edge"><title>Node6&#45;&gt;Node7</title>
<path fill="none" stroke="midnightblue" d="M2228.42,-223.995C2713.64,-163.898 2848.69,-276.042 3326,-188 3338.99,-185.604 3353,-180.837 3364,-176.558"/>
<polygon fill="midnightblue" stroke="midnightblue" points="2227.84,-220.54 2218.35,-225.26 2228.71,-227.486 2227.84,-220.54"/>
</g>
<!-- Node8 -->
<g id="node4" class="node"><title>Node8</title>
<g id="a_node4"><a xlink:href="analysis_2physics_2calibration_2_c_b___energy_8h.html" target="_top" xlink:title="src/analysis/physics\l/calibration/CB_Energy.h">
<polygon fill="white" stroke="black" points="3450.5,-152 3450.5,-182 3575.5,-182 3575.5,-152 3450.5,-152"/>
<text text-anchor="start" x="3458.5" y="-170" font-family="Helvetica,sans-Serif" font-size="10.00">src/analysis/physics</text>
<text text-anchor="middle" x="3513" y="-159" font-family="Helvetica,sans-Serif" font-size="10.00">/calibration/CB_Energy.h</text>
</a>
</g>
</g>
<!-- Node6&#45;&gt;Node8 -->
<g id="edge3" class="edge"><title>Node6&#45;&gt;Node8</title>
<path fill="none" stroke="midnightblue" d="M2228.67,-223.966C2764.44,-158.145 2910.68,-268.311 3441,-188 3450.11,-186.621 3459.7,-184.468 3468.81,-182.077"/>
<polygon fill="midnightblue" stroke="midnightblue" points="2227.84,-220.542 2218.35,-225.249 2228.71,-227.488 2227.84,-220.542"/>
</g>
<!-- Node10 -->
<g id="node6" class="node"><title>Node10</title>
<g id="a_node6"><a xlink:href="analysis_2physics_2calibration_2_c_b___source_calib_8h.html" target="_top" xlink:title="src/analysis/physics\l/calibration/CB_SourceCalib.h">
<polygon fill="white" stroke="black" points="1533,-152 1533,-182 1681,-182 1681,-152 1533,-152"/>
<text text-anchor="start" x="1541" y="-170" font-family="Helvetica,sans-Serif" font-size="10.00">src/analysis/physics</text>
<text text-anchor="middle" x="1607" y="-159" font-family="Helvetica,sans-Serif" font-size="10.00">/calibration/CB_SourceCalib.h</text>
</a>
</g>
</g>
<!-- Node6&#45;&gt;Node10 -->
<g id="edge5" class="edge"><title>Node6&#45;&gt;Node10</title>
<path fill="none" stroke="midnightblue" d="M2091.78,-234.359C1999.99,-227.485 1831.85,-212.681 1690,-188 1680.51,-186.348 1670.49,-184.246 1660.81,-182.029"/>
<polygon fill="midnightblue" stroke="midnightblue" points="2091.55,-237.851 2101.78,-235.098 2092.06,-230.87 2091.55,-237.851"/>
</g>
<!-- Node12 -->
<g id="node8" class="node"><title>Node12</title>
<g id="a_node8"><a xlink:href="_thresholds_8cc.html" target="_top" xlink:title="src/analysis/physics\l/calibration/Thresholds.cc">
<polygon fill="white" stroke="black" points="1699,-152 1699,-182 1827,-182 1827,-152 1699,-152"/>
<text text-anchor="start" x="1707" y="-170" font-family="Helvetica,sans-Serif" font-size="10.00">src/analysis/physics</text>
<text text-anchor="middle" x="1763" y="-159" font-family="Helvetica,sans-Serif" font-size="10.00">/calibration/Thresholds.cc</text>
</a>
</g>
</g>
<!-- Node6&#45;&gt;Node12 -->
<g id="edge7" class="edge"><title>Node6&#45;&gt;Node12</title>
<path fill="none" stroke="midnightblue" d="M2091.74,-230.504C2025.89,-221.779 1923.59,-206.831 1836,-188 1828.03,-186.288 1819.65,-184.231 1811.51,-182.099"/>
<polygon fill="midnightblue" stroke="midnightblue" points="2091.62,-234.018 2101.99,-231.85 2092.53,-227.077 2091.62,-234.018"/>
</g>
<!-- Node13 -->
<g id="node9" class="node"><title>Node13</title>
<g id="a_node9"><a xlink:href="_data_overview_8cc.html" target="_top" xlink:title="src/analysis/physics\l/common/DataOverview.cc">
<polygon fill="white" stroke="black" points="1845,-152 1845,-182 1981,-182 1981,-152 1845,-152"/>
<text text-anchor="start" x="1853" y="-170" font-family="Helvetica,sans-Serif" font-size="10.00">src/analysis/physics</text>
<text text-anchor="middle" x="1913" y="-159" font-family="Helvetica,sans-Serif" font-size="10.00">/common/DataOverview.cc</text>
</a>
</g>
</g>
<!-- Node6&#45;&gt;Node13 -->
<g id="edge8" class="edge"><title>Node6&#45;&gt;Node13</title>
<path fill="none" stroke="midnightblue" d="M2101.55,-222.199C2059.08,-209.992 2002.25,-193.655 1962.12,-182.12"/>
<polygon fill="midnightblue" stroke="midnightblue" points="2100.62,-225.574 2111.2,-224.973 2102.56,-218.846 2100.62,-225.574"/>
</g>
<!-- Node14 -->
<g id="node10" class="node"><title>Node14</title>
<g id="a_node10"><a xlink:href="_event_display_hists_8cc.html" target="_top" xlink:title="src/analysis/physics\l/common/EventDisplayHists.cc">
<polygon fill="white" stroke="black" points="1067.5,-152 1067.5,-182 1222.5,-182 1222.5,-152 1067.5,-152"/>
<text text-anchor="start" x="1075.5" y="-170" font-family="Helvetica,sans-Serif" font-size="10.00">src/analysis/physics</text>
<text text-anchor="middle" x="1145" y="-159" font-family="Helvetica,sans-Serif" font-size="10.00">/common/EventDisplayHists.cc</text>
</a>
</g>
</g>
<!-- Node6&#45;&gt;Node14 -->
<g id="edge9" class="edge"><title>Node6&#45;&gt;Node14</title>
<path fill="none" stroke="midnightblue" d="M2091.5,-239.294C1937.1,-239.072 1550.47,-233.565 1231,-188 1220.53,-186.507 1209.45,-184.365 1198.86,-182.034"/>
<polygon fill="midnightblue" stroke="midnightblue" points="2091.77,-242.794 2101.77,-239.301 2091.77,-235.794 2091.77,-242.794"/>
</g>
<!-- Node15 -->
<g id="node11" class="node"><title>Node15</title>
<g id="a_node11"><a xlink:href="_meson_dalitz_decays_8h.html" target="_top" xlink:title="src/analysis/physics\l/common/MesonDalitzDecays.h">
<polygon fill="white" stroke="black" points="1999.5,-152 1999.5,-182 2156.5,-182 2156.5,-152 1999.5,-152"/>
<text text-anchor="start" x="2007.5" y="-170" font-family="Helvetica,sans-Serif" font-size="10.00">src/analysis/physics</text>
<text text-anchor="middle" x="2078" y="-159" font-family="Helvetica,sans-Serif" font-size="10.00">/common/MesonDalitzDecays.h</text>
</a>
</g>
</g>
<!-- Node6&#45;&gt;Node15 -->
<g id="edge10" class="edge"><title>Node6&#45;&gt;Node15</title>
<path fill="none" stroke="midnightblue" d="M2135.93,-218.159C2122.58,-206.604 2106.34,-192.535 2094.45,-182.241"/>
<polygon fill="midnightblue" stroke="midnightblue" points="2133.95,-221.073 2143.8,-224.973 2138.53,-215.781 2133.95,-221.073"/>
</g>
<!-- Node18 -->
<g id="node14" class="node"><title>Node18</title>
<g id="a_node14"><a xlink:href="etaprime__dalitz_8h.html" target="_top" xlink:title="src/analysis/physics\l/etaprime/etaprime_dalitz.h">
<polygon fill="white" stroke="black" points="2175,-152 2175,-182 2309,-182 2309,-152 2175,-152"/>
<text text-anchor="start" x="2183" y="-170" font-family="Helvetica,sans-Serif" font-size="10.00">src/analysis/physics</text>
<text text-anchor="middle" x="2242" y="-159" font-family="Helvetica,sans-Serif" font-size="10.00">/etaprime/etaprime_dalitz.h</text>
</a>
</g>
</g>
<!-- Node6&#45;&gt;Node18 -->
<g id="edge13" class="edge"><title>Node6&#45;&gt;Node18</title>
<path fill="none" stroke="midnightblue" d="M2184.07,-218.159C2197.42,-206.604 2213.66,-192.535 2225.55,-182.241"/>
<polygon fill="midnightblue" stroke="midnightblue" points="2181.47,-215.781 2176.2,-224.973 2186.05,-221.073 2181.47,-215.781"/>
</g>
<!-- Node24 -->
<g id="node20" class="node"><title>Node24</title>
<g id="a_node20"><a xlink:href="_goat_comparison_8cc.html" target="_top" xlink:title="src/analysis/physics\l/misc/GoatComparison.cc">
<polygon fill="white" stroke="black" points="1240.5,-152 1240.5,-182 1371.5,-182 1371.5,-152 1240.5,-152"/>
<text text-anchor="start" x="1248.5" y="-170" font-family="Helvetica,sans-Serif" font-size="10.00">src/analysis/physics</text>
<text text-anchor="middle" x="1306" y="-159" font-family="Helvetica,sans-Serif" font-size="10.00">/misc/GoatComparison.cc</text>
</a>
</g>
</g>
<!-- Node6&#45;&gt;Node24 -->
<g id="edge19" class="edge"><title>Node6&#45;&gt;Node24</title>
<path fill="none" stroke="midnightblue" d="M2091.53,-239.073C1955.14,-238.218 1640.29,-231.243 1380,-188 1370.94,-186.495 1361.39,-184.348 1352.27,-182.015"/>
<polygon fill="midnightblue" stroke="midnightblue" points="2091.8,-242.574 2101.82,-239.128 2091.84,-235.574 2091.8,-242.574"/>
</g>
<!-- Node25 -->
<g id="node21" class="node"><title>Node25</title>
<g id="a_node21"><a xlink:href="src_2analysis_2physics_2misc_2_xmas_c_b_8cc.html" target="_top" xlink:title="src/analysis/physics\l/misc/XMasCB.cc">
<polygon fill="white" stroke="black" points="2327,-152 2327,-182 2433,-182 2433,-152 2327,-152"/>
<text text-anchor="start" x="2335" y="-170" font-family="Helvetica,sans-Serif" font-size="10.00">src/analysis/physics</text>
<text text-anchor="middle" x="2380" y="-159" font-family="Helvetica,sans-Serif" font-size="10.00">/misc/XMasCB.cc</text>
</a>
</g>
</g>
<!-- Node6&#45;&gt;Node25 -->
<g id="edge20" class="edge"><title>Node6&#45;&gt;Node25</title>
<path fill="none" stroke="midnightblue" d="M2213.26,-221.812C2250.95,-209.648 2300.88,-193.534 2336.25,-182.12"/>
<polygon fill="midnightblue" stroke="midnightblue" points="2211.91,-218.57 2203.46,-224.973 2214.06,-225.232 2211.91,-218.57"/>
</g>
<!-- Node26 -->
<g id="node22" class="node"><title>Node26</title>
<g id="a_node22"><a xlink:href="_pi0_calib_8h.html" target="_top" xlink:title="src/analysis/physics\l/scratch/sobotzik/Pi0Calib.h">
<polygon fill="white" stroke="black" points="2451,-152 2451,-182 2591,-182 2591,-152 2451,-152"/>
<text text-anchor="start" x="2459" y="-170" font-family="Helvetica,sans-Serif" font-size="10.00">src/analysis/physics</text>
<text text-anchor="middle" x="2521" y="-159" font-family="Helvetica,sans-Serif" font-size="10.00">/scratch/sobotzik/Pi0Calib.h</text>
</a>
</g>
</g>
<!-- Node6&#45;&gt;Node26 -->
<g id="edge21" class="edge"><title>Node6&#45;&gt;Node26</title>
<path fill="none" stroke="midnightblue" d="M2228.13,-223.847C2323.38,-205.583 2349.72,-207.057 2441,-188 2449.55,-186.215 2458.57,-184.145 2467.34,-182.028"/>
<polygon fill="midnightblue" stroke="midnightblue" points="2227.21,-220.459 2218.06,-225.801 2228.55,-227.331 2227.21,-220.459"/>
</g>
<!-- Node28 -->
<g id="node24" class="node"><title>Node28</title>
<g id="a_node24"><a xlink:href="calibration_2modules_2_c_b___energy_8cc.html" target="_top" xlink:title="src/calibration/modules\l/CB_Energy.cc">
<polygon fill="white" stroke="black" points="2609.5,-152 2609.5,-182 2726.5,-182 2726.5,-152 2609.5,-152"/>
<text text-anchor="start" x="2617.5" y="-170" font-family="Helvetica,sans-Serif" font-size="10.00">src/calibration/modules</text>
<text text-anchor="middle" x="2668" y="-159" font-family="Helvetica,sans-Serif" font-size="10.00">/CB_Energy.cc</text>
</a>
</g>
</g>
<!-- Node6&#45;&gt;Node28 -->
<g id="edge23" class="edge"><title>Node6&#45;&gt;Node28</title>
<path fill="none" stroke="midnightblue" d="M2228.04,-223.976C2393.27,-198.591 2439.68,-219.022 2600,-188 2608.09,-186.434 2616.61,-184.317 2624.77,-182.046"/>
<polygon fill="midnightblue" stroke="midnightblue" points="2227.36,-220.54 2218.02,-225.548 2228.44,-227.455 2227.36,-220.54"/>
</g>
<!-- Node29 -->
<g id="node25" class="node"><title>Node29</title>
<g id="a_node25"><a xlink:href="calibration_2modules_2_c_b___source_calib_8cc.html" target="_top" xlink:title="src/calibration/modules\l/CB_SourceCalib.cc">
<polygon fill="white" stroke="black" points="2744.5,-152 2744.5,-182 2861.5,-182 2861.5,-152 2744.5,-152"/>
<text text-anchor="start" x="2752.5" y="-170" font-family="Helvetica,sans-Serif" font-size="10.00">src/calibration/modules</text>
<text text-anchor="middle" x="2803" y="-159" font-family="Helvetica,sans-Serif" font-size="10.00">/CB_SourceCalib.cc</text>
</a>
</g>
</g>
<!-- Node6&#45;&gt;Node29 -->
<g id="edge24" class="edge"><title>Node6&#45;&gt;Node29</title>
<path fill="none" stroke="midnightblue" d="M2228.13,-223.996C2452.78,-192.25 2515.51,-227.577 2735,-188 2743.36,-186.493 2752.15,-184.346 2760.53,-182.012"/>
<polygon fill="midnightblue" stroke="midnightblue" points="2227.4,-220.565 2218.01,-225.457 2228.4,-227.493 2227.4,-220.565"/>
</g>
<!-- Node30 -->
<g id="node26" class="node"><title>Node30</title>
<g id="a_node26"><a xlink:href="_c_b_e_sum___check_8cc.html" target="_top" xlink:title="src/root&#45;addons/analysis\l_codes/CBESum_Check.cc">
<polygon fill="white" stroke="black" points="2880,-152 2880,-182 3020,-182 3020,-152 2880,-152"/>
<text text-anchor="start" x="2888" y="-170" font-family="Helvetica,sans-Serif" font-size="10.00">src/root&#45;addons/analysis</text>
<text text-anchor="middle" x="2950" y="-159" font-family="Helvetica,sans-Serif" font-size="10.00">_codes/CBESum_Check.cc</text>
</a>
</g>
</g>
<!-- Node6&#45;&gt;Node30 -->
<g id="edge25" class="edge"><title>Node6&#45;&gt;Node30</title>
<path fill="none" stroke="midnightblue" d="M2228.54,-223.944C2512.32,-185.674 2590.32,-230.399 2870,-188 2879.77,-186.519 2890.08,-184.384 2899.94,-182.054"/>
<polygon fill="midnightblue" stroke="midnightblue" points="2227.79,-220.514 2218.36,-225.341 2228.75,-227.45 2227.79,-220.514"/>
</g>
<!-- Node31 -->
<g id="node27" class="node"><title>Node31</title>
<g id="a_node27"><a xlink:href="_detector_plots_8cc.html" target="_top" xlink:title="src/root&#45;addons/analysis\l_codes/DetectorPlots.cc">
<polygon fill="white" stroke="black" points="1389.5,-152 1389.5,-182 1514.5,-182 1514.5,-152 1389.5,-152"/>
<text text-anchor="start" x="1397.5" y="-170" font-family="Helvetica,sans-Serif" font-size="10.00">src/root&#45;addons/analysis</text>
<text text-anchor="middle" x="1452" y="-159" font-family="Helvetica,sans-Serif" font-size="10.00">_codes/DetectorPlots.cc</text>
</a>
</g>
</g>
<!-- Node6&#45;&gt;Node31 -->
<g id="edge26" class="edge"><title>Node6&#45;&gt;Node31</title>
<path fill="none" stroke="midnightblue" d="M2091.4,-237.781C1974.21,-234.746 1728.34,-224.23 1524,-188 1515.31,-186.46 1506.16,-184.327 1497.4,-182.024"/>
<polygon fill="midnightblue" stroke="midnightblue" points="2091.57,-241.286 2101.65,-238.035 2091.74,-234.288 2091.57,-241.286"/>
</g>
<!-- Node32 -->
<g id="node28" class="node"><title>Node32</title>
<g id="a_node28"><a xlink:href="_display_clustering_8cc.html" target="_top" xlink:title="src/root&#45;addons/analysis\l_codes/DisplayClustering.cc">
<polygon fill="white" stroke="black" points="741,-152 741,-182 883,-182 883,-152 741,-152"/>
<text text-anchor="start" x="749" y="-170" font-family="Helvetica,sans-Serif" font-size="10.00">src/root&#45;addons/analysis</text>
<text text-anchor="middle" x="812" y="-159" font-family="Helvetica,sans-Serif" font-size="10.00">_codes/DisplayClustering.cc</text>
</a>
</g>
</g>
<!-- Node6&#45;&gt;Node32 -->
<g id="edge27" class="edge"><title>Node6&#45;&gt;Node32</title>
<path fill="none" stroke="midnightblue" d="M2091.5,-238.093C1862.78,-234.776 1126.65,-221.687 892,-188 882.08,-186.576 871.604,-184.435 861.617,-182.076"/>
<polygon fill="midnightblue" stroke="midnightblue" points="2091.63,-241.596 2101.68,-238.239 2091.73,-234.596 2091.63,-241.596"/>
</g>
<!-- Node33 -->
<g id="node29" class="node"><title>Node33</title>
<g id="a_node29"><a xlink:href="root-addons_2analysis__codes_2_extract_resolutions_8cc.html" target="_top" xlink:title="src/root&#45;addons/analysis\l_codes/ExtractResolutions.cc">
<polygon fill="white" stroke="black" points="901,-152 901,-182 1049,-182 1049,-152 901,-152"/>
<text text-anchor="start" x="909" y="-170" font-family="Helvetica,sans-Serif" font-size="10.00">src/root&#45;addons/analysis</text>
<text text-anchor="middle" x="975" y="-159" font-family="Helvetica,sans-Serif" font-size="10.00">_codes/ExtractResolutions.cc</text>
</a>
</g>
</g>
<!-- Node6&#45;&gt;Node33 -->
<g id="edge28" class="edge"><title>Node6&#45;&gt;Node33</title>
<path fill="none" stroke="midnightblue" d="M2091.47,-237.536C1883.1,-232.814 1259.03,-216.607 1058,-188 1047.73,-186.538 1036.87,-184.381 1026.51,-182.017"/>
<polygon fill="midnightblue" stroke="midnightblue" points="2091.59,-241.039 2101.67,-237.765 2091.75,-234.041 2091.59,-241.039"/>
</g>
<!-- Node34 -->
<g id="node30" class="node"><title>Node34</title>
<g id="a_node30"><a xlink:href="_two_pi0___m_c_smearing__tools_8cc.html" target="_top" xlink:title="src/root&#45;addons/analysis\l_codes/TwoPi0_MCSmearing\l_tools.cc">
<polygon fill="white" stroke="black" points="3038,-146.5 3038,-187.5 3184,-187.5 3184,-146.5 3038,-146.5"/>
<text text-anchor="start" x="3046" y="-175.5" font-family="Helvetica,sans-Serif" font-size="10.00">src/root&#45;addons/analysis</text>
<text text-anchor="start" x="3046" y="-164.5" font-family="Helvetica,sans-Serif" font-size="10.00">_codes/TwoPi0_MCSmearing</text>
<text text-anchor="middle" x="3111" y="-153.5" font-family="Helvetica,sans-Serif" font-size="10.00">_tools.cc</text>
</a>
</g>
</g>
<!-- Node6&#45;&gt;Node34 -->
<g id="edge29" class="edge"><title>Node6&#45;&gt;Node34</title>
<path fill="none" stroke="midnightblue" d="M2228.37,-223.982C2582.46,-177.978 2679.07,-238.043 3029,-188 3031.9,-187.585 3034.85,-187.113 3037.82,-186.595"/>
<polygon fill="midnightblue" stroke="midnightblue" points="2227.81,-220.525 2218.36,-225.302 2228.73,-227.465 2227.81,-220.525"/>
</g>
<!-- Node35 -->
<g id="node31" class="node"><title>Node35</title>
<g id="a_node31"><a xlink:href="_t_h2_c_b_8cc.html" target="_top" xlink:title="src/root&#45;addons/cbtaps\l_display/TH2CB.cc">
<polygon fill="white" stroke="black" points="3202,-152 3202,-182 3318,-182 3318,-152 3202,-152"/>
<text text-anchor="start" x="3210" y="-170" font-family="Helvetica,sans-Serif" font-size="10.00">src/root&#45;addons/cbtaps</text>
<text text-anchor="middle" x="3260" y="-159" font-family="Helvetica,sans-Serif" font-size="10.00">_display/TH2CB.cc</text>
</a>
</g>
</g>
<!-- Node6&#45;&gt;Node35 -->
<g id="edge30" class="edge"><title>Node6&#45;&gt;Node35</title>
<path fill="none" stroke="midnightblue" d="M2228.48,-223.98C2654.91,-170.221 2772.42,-257.457 3193,-188 3201.5,-186.596 3210.44,-184.432 3218.92,-182.038"/>
<polygon fill="midnightblue" stroke="midnightblue" points="2227.83,-220.535 2218.35,-225.276 2228.72,-227.478 2227.83,-220.535"/>
</g>
<!-- Node9 -->
<g id="node5" class="node"><title>Node9</title>
<g id="a_node5"><a xlink:href="analysis_2physics_2calibration_2_c_b___energy_8cc.html" target="_top" xlink:title="src/analysis/physics\l/calibration/CB_Energy.cc">
<polygon fill="white" stroke="black" points="3447.5,-74 3447.5,-104 3578.5,-104 3578.5,-74 3447.5,-74"/>
<text text-anchor="start" x="3455.5" y="-92" font-family="Helvetica,sans-Serif" font-size="10.00">src/analysis/physics</text>
<text text-anchor="middle" x="3513" y="-81" font-family="Helvetica,sans-Serif" font-size="10.00">/calibration/CB_Energy.cc</text>
</a>
</g>
</g>
<!-- Node8&#45;&gt;Node9 -->
<g id="edge4" class="edge"><title>Node8&#45;&gt;Node9</title>
<path fill="none" stroke="midnightblue" d="M3513,-141.59C3513,-129.257 3513,-114.724 3513,-104.231"/>
<polygon fill="midnightblue" stroke="midnightblue" points="3509.5,-141.705 3513,-151.705 3516.5,-141.705 3509.5,-141.705"/>
</g>
<!-- Node11 -->
<g id="node7" class="node"><title>Node11</title>
<g id="a_node7"><a xlink:href="analysis_2physics_2calibration_2_c_b___source_calib_8cc.html" target="_top" xlink:title="src/analysis/physics\l/calibration/CB_SourceCalib.cc">
<polygon fill="white" stroke="black" points="1507.5,-74 1507.5,-104 1660.5,-104 1660.5,-74 1507.5,-74"/>
<text text-anchor="start" x="1515.5" y="-92" font-family="Helvetica,sans-Serif" font-size="10.00">src/analysis/physics</text>
<text text-anchor="middle" x="1584" y="-81" font-family="Helvetica,sans-Serif" font-size="10.00">/calibration/CB_SourceCalib.cc</text>
</a>
</g>
</g>
<!-- Node10&#45;&gt;Node11 -->
<g id="edge6" class="edge"><title>Node10&#45;&gt;Node11</title>
<path fill="none" stroke="midnightblue" d="M1599.73,-141.963C1595.97,-129.551 1591.51,-114.83 1588.31,-104.231"/>
<polygon fill="midnightblue" stroke="midnightblue" points="1596.43,-143.148 1602.67,-151.705 1603.13,-141.12 1596.43,-143.148"/>
</g>
<!-- Node16 -->
<g id="node12" class="node"><title>Node16</title>
<g id="a_node12"><a xlink:href="_meson_dalitz_decays_8cc.html" target="_top" xlink:title="Physics class to investigate Dalitz decays for different mesons. ">
<polygon fill="white" stroke="black" points="1679,-74 1679,-104 1841,-104 1841,-74 1679,-74"/>
<text text-anchor="start" x="1687" y="-92" font-family="Helvetica,sans-Serif" font-size="10.00">src/analysis/physics</text>
<text text-anchor="middle" x="1760" y="-81" font-family="Helvetica,sans-Serif" font-size="10.00">/common/MesonDalitzDecays.cc</text>
</a>
</g>
</g>
<!-- Node15&#45;&gt;Node16 -->
<g id="edge11" class="edge"><title>Node15&#45;&gt;Node16</title>
<path fill="none" stroke="midnightblue" d="M2009.32,-149.586C1952.45,-135.995 1872.52,-116.892 1818.62,-104.011"/>
<polygon fill="midnightblue" stroke="midnightblue" points="2008.76,-153.051 2019.3,-151.972 2010.39,-146.243 2008.76,-153.051"/>
</g>
<!-- Node17 -->
<g id="node13" class="node"><title>Node17</title>
<g id="a_node13"><a xlink:href="_meson_dalitz_decays__plot_8cc.html" target="_top" xlink:title="src/analysis/physics\l/common/MesonDalitzDecays\l_plot.cc">
<polygon fill="white" stroke="black" points="1859.5,-68.5 1859.5,-109.5 2008.5,-109.5 2008.5,-68.5 1859.5,-68.5"/>
<text text-anchor="start" x="1867.5" y="-97.5" font-family="Helvetica,sans-Serif" font-size="10.00">src/analysis/physics</text>
<text text-anchor="start" x="1867.5" y="-86.5" font-family="Helvetica,sans-Serif" font-size="10.00">/common/MesonDalitzDecays</text>
<text text-anchor="middle" x="1934" y="-75.5" font-family="Helvetica,sans-Serif" font-size="10.00">_plot.cc</text>
</a>
</g>
</g>
<!-- Node15&#45;&gt;Node17 -->
<g id="edge12" class="edge"><title>Node15&#45;&gt;Node17</title>
<path fill="none" stroke="midnightblue" d="M2042.37,-147.196C2020.72,-135.769 1993.12,-121.201 1971.19,-109.628"/>
<polygon fill="midnightblue" stroke="midnightblue" points="2040.77,-150.311 2051.25,-151.883 2044.04,-144.12 2040.77,-150.311"/>
</g>
<!-- Node19 -->
<g id="node15" class="node"><title>Node19</title>
<g id="a_node15"><a xlink:href="_p_c_a_8cc.html" target="_top" xlink:title="Tool to perform a Principal Component Analysis, based on ROOTs TPrincipal class, to create principal ...">
<polygon fill="white" stroke="black" points="2363,-79.5 2363,-98.5 2441,-98.5 2441,-79.5 2363,-79.5"/>
<text text-anchor="middle" x="2402" y="-86.5" font-family="Helvetica,sans-Serif" font-size="10.00">progs/PCA.cc</text>
</a>
</g>
</g>
<!-- Node18&#45;&gt;Node19 -->
<g id="edge14" class="edge"><title>Node18&#45;&gt;Node19</title>
<path fill="none" stroke="midnightblue" d="M2281.02,-147.467C2313.75,-131.917 2359.04,-110.407 2383.88,-98.6061"/>
<polygon fill="midnightblue" stroke="midnightblue" points="2279.25,-144.431 2271.72,-151.883 2282.25,-150.754 2279.25,-144.431"/>
</g>
<!-- Node20 -->
<g id="node16" class="node"><title>Node20</title>
<g id="a_node16"><a xlink:href="_etap_dalitz__plot_8cc.html" target="_top" xlink:title="src/analysis/physics\l/etaprime/EtapDalitz\l_plot.cc">
<polygon fill="white" stroke="black" points="2459,-68.5 2459,-109.5 2565,-109.5 2565,-68.5 2459,-68.5"/>
<text text-anchor="start" x="2467" y="-97.5" font-family="Helvetica,sans-Serif" font-size="10.00">src/analysis/physics</text>
<text text-anchor="start" x="2467" y="-86.5" font-family="Helvetica,sans-Serif" font-size="10.00">/etaprime/EtapDalitz</text>
<text text-anchor="middle" x="2512" y="-75.5" font-family="Helvetica,sans-Serif" font-size="10.00">_plot.cc</text>
</a>
</g>
</g>
<!-- Node18&#45;&gt;Node20 -->
<g id="edge15" class="edge"><title>Node18&#45;&gt;Node20</title>
<path fill="none" stroke="midnightblue" d="M2305.14,-149.364C2355.9,-135.924 2423.02,-117.978 2450,-110 2452.93,-109.134 2455.93,-108.228 2458.95,-107.301"/>
<polygon fill="midnightblue" stroke="midnightblue" points="2304,-146.046 2295.23,-151.988 2305.79,-152.814 2304,-146.046"/>
</g>
<!-- Node21 -->
<g id="node17" class="node"><title>Node21</title>
<g id="a_node17"><a xlink:href="etaprime__dalitz_8cc.html" target="_top" xlink:title="src/analysis/physics\l/etaprime/etaprime_dalitz.cc">
<polygon fill="white" stroke="black" points="2027,-74 2027,-104 2167,-104 2167,-74 2027,-74"/>
<text text-anchor="start" x="2035" y="-92" font-family="Helvetica,sans-Serif" font-size="10.00">src/analysis/physics</text>
<text text-anchor="middle" x="2097" y="-81" font-family="Helvetica,sans-Serif" font-size="10.00">/etaprime/etaprime_dalitz.cc</text>
</a>
</g>
</g>
<!-- Node18&#45;&gt;Node21 -->
<g id="edge16" class="edge"><title>Node18&#45;&gt;Node21</title>
<path fill="none" stroke="midnightblue" d="M2206.08,-147.174C2180.6,-133.817 2146.94,-116.176 2123.79,-104.041"/>
<polygon fill="midnightblue" stroke="midnightblue" points="2204.58,-150.341 2215.07,-151.883 2207.83,-144.141 2204.58,-150.341"/>
</g>
<!-- Node22 -->
<g id="node18" class="node"><title>Node22</title>
<g id="a_node18"><a xlink:href="_etap_dalitz_m_c_8h.html" target="_top" xlink:title="src/analysis/physics\l/scratch/wagner/EtapDalitzMC.h">
<polygon fill="white" stroke="black" points="2185.5,-74 2185.5,-104 2344.5,-104 2344.5,-74 2185.5,-74"/>
<text text-anchor="start" x="2193.5" y="-92" font-family="Helvetica,sans-Serif" font-size="10.00">src/analysis/physics</text>
<text text-anchor="middle" x="2265" y="-81" font-family="Helvetica,sans-Serif" font-size="10.00">/scratch/wagner/EtapDalitzMC.h</text>
</a>
</g>
</g>
<!-- Node18&#45;&gt;Node22 -->
<g id="edge17" class="edge"><title>Node18&#45;&gt;Node22</title>
<path fill="none" stroke="midnightblue" d="M2249.27,-141.963C2253.03,-129.551 2257.49,-114.83 2260.69,-104.231"/>
<polygon fill="midnightblue" stroke="midnightblue" points="2245.87,-141.12 2246.33,-151.705 2252.57,-143.148 2245.87,-141.12"/>
</g>
<!-- Node23 -->
<g id="node19" class="node"><title>Node23</title>
<g id="a_node19"><a xlink:href="_etap_dalitz_m_c_8cc.html" target="_top" xlink:title="src/analysis/physics\l/scratch/wagner/EtapDalitzMC.cc">
<polygon fill="white" stroke="black" points="2183,-1 2183,-31 2347,-31 2347,-1 2183,-1"/>
<text text-anchor="start" x="2191" y="-19" font-family="Helvetica,sans-Serif" font-size="10.00">src/analysis/physics</text>
<text text-anchor="middle" x="2265" y="-8" font-family="Helvetica,sans-Serif" font-size="10.00">/scratch/wagner/EtapDalitzMC.cc</text>
</a>
</g>
</g>
<!-- Node22&#45;&gt;Node23 -->
<g id="edge18" class="edge"><title>Node22&#45;&gt;Node23</title>
<path fill="none" stroke="midnightblue" d="M2265,-63.8976C2265,-53.1314 2265,-40.8005 2265,-31.4856"/>
<polygon fill="midnightblue" stroke="midnightblue" points="2261.5,-63.9727 2265,-73.9727 2268.5,-63.9727 2261.5,-63.9727"/>
</g>
<!-- Node27 -->
<g id="node23" class="node"><title>Node27</title>
<g id="a_node23"><a xlink:href="_pi0_calib_8cc.html" target="_top" xlink:title="src/analysis/physics\l/scratch/sobotzik/Pi0Calib.cc">
<polygon fill="white" stroke="black" points="2583.5,-74 2583.5,-104 2728.5,-104 2728.5,-74 2583.5,-74"/>
<text text-anchor="start" x="2591.5" y="-92" font-family="Helvetica,sans-Serif" font-size="10.00">src/analysis/physics</text>
<text text-anchor="middle" x="2656" y="-81" font-family="Helvetica,sans-Serif" font-size="10.00">/scratch/sobotzik/Pi0Calib.cc</text>
</a>
</g>
</g>
<!-- Node26&#45;&gt;Node27 -->
<g id="edge22" class="edge"><title>Node26&#45;&gt;Node27</title>
<path fill="none" stroke="midnightblue" d="M2555.07,-146.821C2578.72,-133.508 2609.69,-116.07 2631.06,-104.041"/>
<polygon fill="midnightblue" stroke="midnightblue" points="2553.07,-143.927 2546.08,-151.883 2556.51,-150.027 2553.07,-143.927"/>
</g>
<!-- Node36&#45;&gt;Node14 -->
<g id="edge35" class="edge"><title>Node36&#45;&gt;Node14</title>
<path fill="none" stroke="midnightblue" d="M880.164,-225.279C929.589,-215.23 998.004,-201.113 1058,-188 1066.63,-186.114 1075.73,-184.076 1084.66,-182.047"/>
<polygon fill="midnightblue" stroke="midnightblue" points="879.332,-221.876 870.229,-227.296 880.725,-228.736 879.332,-221.876"/>
</g>
<!-- Node36&#45;&gt;Node24 -->
<g id="edge36" class="edge"><title>Node36&#45;&gt;Node24</title>
<path fill="none" stroke="midnightblue" d="M880.099,-233.652C963.381,-226.436 1108.4,-211.687 1231,-188 1239.6,-186.338 1248.67,-184.231 1257.41,-182.012"/>
<polygon fill="midnightblue" stroke="midnightblue" points="879.672,-230.175 870.007,-234.515 880.269,-237.15 879.672,-230.175"/>
</g>
<!-- Node36&#45;&gt;Node31 -->
<g id="edge39" class="edge"><title>Node36&#45;&gt;Node31</title>
<path fill="none" stroke="midnightblue" d="M880.146,-236.871C987.309,-232.63 1201.42,-220.541 1380,-188 1388.55,-186.442 1397.56,-184.329 1406.2,-182.059"/>
<polygon fill="midnightblue" stroke="midnightblue" points="879.972,-233.375 870.114,-237.257 880.241,-240.37 879.972,-233.375"/>
</g>
<!-- Node36&#45;&gt;Node32 -->
<g id="edge40" class="edge"><title>Node36&#45;&gt;Node32</title>
<path fill="none" stroke="midnightblue" d="M812,-214.898C812,-204.131 812,-191.801 812,-182.486"/>
<polygon fill="midnightblue" stroke="midnightblue" points="808.5,-214.973 812,-224.973 815.5,-214.973 808.5,-214.973"/>
</g>
<!-- Node36&#45;&gt;Node33 -->
<g id="edge41" class="edge"><title>Node36&#45;&gt;Node33</title>
<path fill="none" stroke="midnightblue" d="M853.615,-220.873C881.267,-208.829 917.049,-193.243 942.585,-182.12"/>
<polygon fill="midnightblue" stroke="midnightblue" points="851.974,-217.77 844.204,-224.973 854.769,-224.188 851.974,-217.77"/>
</g>
<!-- Node37 -->
<g id="node33" class="node"><title>Node37</title>
<g id="a_node33"><a xlink:href="analysis_2physics_2calibration_2_t_a_p_s___energy_8h.html" target="_top" xlink:title="src/analysis/physics\l/calibration/TAPS_Energy.h">
<polygon fill="white" stroke="black" points="134.5,-152 134.5,-182 271.5,-182 271.5,-152 134.5,-152"/>
<text text-anchor="start" x="142.5" y="-170" font-family="Helvetica,sans-Serif" font-size="10.00">src/analysis/physics</text>
<text text-anchor="middle" x="203" y="-159" font-family="Helvetica,sans-Serif" font-size="10.00">/calibration/TAPS_Energy.h</text>
</a>
</g>
</g>
<!-- Node36&#45;&gt;Node37 -->
<g id="edge32" class="edge"><title>Node36&#45;&gt;Node37</title>
<path fill="none" stroke="midnightblue" d="M743.734,-235.838C642.209,-230.371 445.703,-216.845 281,-188 271.912,-186.408 262.325,-184.308 253.101,-182.067"/>
<polygon fill="midnightblue" stroke="midnightblue" points="743.682,-239.34 753.852,-236.373 744.051,-232.35 743.682,-239.34"/>
</g>
<!-- Node39 -->
<g id="node35" class="node"><title>Node39</title>
<g id="a_node35"><a xlink:href="_m_c_reconstruct_check_8cc.html" target="_top" xlink:title="src/analysis/physics\l/check/MCReconstructCheck.cc">
<polygon fill="white" stroke="black" points="290,-152 290,-182 450,-182 450,-152 290,-152"/>
<text text-anchor="start" x="298" y="-170" font-family="Helvetica,sans-Serif" font-size="10.00">src/analysis/physics</text>
<text text-anchor="middle" x="370" y="-159" font-family="Helvetica,sans-Serif" font-size="10.00">/check/MCReconstructCheck.cc</text>
</a>
</g>
</g>
<!-- Node36&#45;&gt;Node39 -->
<g id="edge34" class="edge"><title>Node36&#45;&gt;Node39</title>
<path fill="none" stroke="midnightblue" d="M743.799,-230.741C672.512,-221.736 557.524,-206.159 459,-188 449.5,-186.249 439.474,-184.197 429.712,-182.087"/>
<polygon fill="midnightblue" stroke="midnightblue" points="743.634,-234.248 753.993,-232.022 744.507,-227.302 743.634,-234.248"/>
</g>
<!-- Node40 -->
<g id="node36" class="node"><title>Node40</title>
<g id="a_node36"><a xlink:href="calibration_2modules_2_t_a_p_s___energy_8cc.html" target="_top" xlink:title="src/calibration/modules\l/TAPS_Energy.cc">
<polygon fill="white" stroke="black" points="468.5,-152 468.5,-182 585.5,-182 585.5,-152 468.5,-152"/>
<text text-anchor="start" x="476.5" y="-170" font-family="Helvetica,sans-Serif" font-size="10.00">src/calibration/modules</text>
<text text-anchor="middle" x="527" y="-159" font-family="Helvetica,sans-Serif" font-size="10.00">/TAPS_Energy.cc</text>
</a>
</g>
</g>
<!-- Node36&#45;&gt;Node40 -->
<g id="edge37" class="edge"><title>Node36&#45;&gt;Node40</title>
<path fill="none" stroke="midnightblue" d="M744.109,-224.224C700.96,-214.56 644.008,-201.3 594,-188 587.079,-186.159 579.789,-184.104 572.668,-182.032"/>
<polygon fill="midnightblue" stroke="midnightblue" points="743.409,-227.654 753.931,-226.415 744.933,-220.822 743.409,-227.654"/>
</g>
<!-- Node41 -->
<g id="node37" class="node"><title>Node41</title>
<g id="a_node37"><a xlink:href="calibration_2modules_2_t_a_p_s___short_energy_8cc.html" target="_top" xlink:title="src/calibration/modules\l/TAPS_ShortEnergy.cc">
<polygon fill="white" stroke="black" points="603.5,-152 603.5,-182 722.5,-182 722.5,-152 603.5,-152"/>
<text text-anchor="start" x="611.5" y="-170" font-family="Helvetica,sans-Serif" font-size="10.00">src/calibration/modules</text>
<text text-anchor="middle" x="663" y="-159" font-family="Helvetica,sans-Serif" font-size="10.00">/TAPS_ShortEnergy.cc</text>
</a>
</g>
</g>
<!-- Node36&#45;&gt;Node41 -->
<g id="edge38" class="edge"><title>Node36&#45;&gt;Node41</title>
<path fill="none" stroke="midnightblue" d="M773.295,-220.557C748.112,-208.557 715.77,-193.145 692.631,-182.12"/>
<polygon fill="midnightblue" stroke="midnightblue" points="772.029,-223.831 782.562,-224.973 775.041,-217.511 772.029,-223.831"/>
</g>
<!-- Node42 -->
<g id="node38" class="node"><title>Node42</title>
<g id="a_node38"><a xlink:href="_t_h2_t_a_p_s_8cc.html" target="_top" xlink:title="src/root&#45;addons/cbtaps\l_display/TH2TAPS.cc">
<polygon fill="white" stroke="black" points="0,-152 0,-182 116,-182 116,-152 0,-152"/>
<text text-anchor="start" x="8" y="-170" font-family="Helvetica,sans-Serif" font-size="10.00">src/root&#45;addons/cbtaps</text>
<text text-anchor="middle" x="58" y="-159" font-family="Helvetica,sans-Serif" font-size="10.00">_display/TH2TAPS.cc</text>
</a>
</g>
</g>
<!-- Node36&#45;&gt;Node42 -->
<g id="edge42" class="edge"><title>Node36&#45;&gt;Node42</title>
<path fill="none" stroke="midnightblue" d="M743.421,-238.787C619.1,-237.324 348.663,-229.184 125,-188 116.882,-186.505 108.349,-184.393 100.195,-182.098"/>
<polygon fill="midnightblue" stroke="midnightblue" points="743.519,-242.289 753.556,-238.896 743.594,-235.289 743.519,-242.289"/>
</g>
<!-- Node38 -->
<g id="node34" class="node"><title>Node38</title>
<g id="a_node34"><a xlink:href="analysis_2physics_2calibration_2_t_a_p_s___energy_8cc.html" target="_top" xlink:title="src/analysis/physics\l/calibration/TAPS_Energy.cc">
<polygon fill="white" stroke="black" points="131.5,-74 131.5,-104 274.5,-104 274.5,-74 131.5,-74"/>
<text text-anchor="start" x="139.5" y="-92" font-family="Helvetica,sans-Serif" font-size="10.00">src/analysis/physics</text>
<text text-anchor="middle" x="203" y="-81" font-family="Helvetica,sans-Serif" font-size="10.00">/calibration/TAPS_Energy.cc</text>
</a>
</g>
</g>
<!-- Node37&#45;&gt;Node38 -->
<g id="edge33" class="edge"><title>Node37&#45;&gt;Node38</title>
<path fill="none" stroke="midnightblue" d="M203,-141.59C203,-129.257 203,-114.724 203,-104.231"/>
<polygon fill="midnightblue" stroke="midnightblue" points="199.5,-141.705 203,-151.705 206.5,-141.705 199.5,-141.705"/>
</g>
</g>
</svg>
