<?xml version="1.0" encoding="UTF-8" standalone="no"?>
<!DOCTYPE svg PUBLIC "-//W3C//DTD SVG 1.1//EN"
 "http://www.w3.org/Graphics/SVG/1.1/DTD/svg11.dtd">
<!-- Generated by graphviz version 2.36.0 (20140111.2315)
 -->
<!-- Title: src/calibration/modules/detail/TH2Storage.cc Pages: 1 -->
<svg width="929pt" height="320pt"
 viewBox="0.00 0.00 929.00 320.00" xmlns="http://www.w3.org/2000/svg" xmlns:xlink="http://www.w3.org/1999/xlink">
<g id="graph0" class="graph" transform="scale(1 1) rotate(0) translate(4 316)">
<title>src/calibration/modules/detail/TH2Storage.cc</title>
<polygon fill="white" stroke="none" points="-4,4 -4,-316 925,-316 925,4 -4,4"/>
<!-- Node0 -->
<g id="node1" class="node"><title>Node0</title>
<polygon fill="#bfbfbf" stroke="black" points="721.5,-281 721.5,-311 838.5,-311 838.5,-281 721.5,-281"/>
<text text-anchor="start" x="729.5" y="-299" font-family="Helvetica,sans-Serif" font-size="10.00">src/calibration/modules</text>
<text text-anchor="middle" x="780" y="-288" font-family="Helvetica,sans-Serif" font-size="10.00">/detail/TH2Storage.cc</text>
</g>
<!-- Node1 -->
<g id="node2" class="node"><title>Node1</title>
<g id="a_node2"><a xlink:href="_t_h2_storage_8h.html" target="_top" xlink:title="TH2Storage.h">
<polygon fill="white" stroke="black" points="368.5,-224.5 368.5,-243.5 445.5,-243.5 445.5,-224.5 368.5,-224.5"/>
<text text-anchor="middle" x="407" y="-231.5" font-family="Helvetica,sans-Serif" font-size="10.00">TH2Storage.h</text>
</a>
</g>
</g>
<!-- Node0&#45;&gt;Node1 -->
<g id="edge1" class="edge"><title>Node0&#45;&gt;Node1</title>
<path fill="none" stroke="midnightblue" d="M721.308,-285.559C648.032,-273.772 524.038,-253.826 455.744,-242.841"/>
<polygon fill="midnightblue" stroke="midnightblue" points="456.11,-239.355 445.681,-241.222 454.999,-246.266 456.11,-239.355"/>
</g>
<!-- Node13 -->
<g id="node14" class="node"><title>Node13</title>
<g id="a_node14"><a xlink:href="_t_calibration_data_8h.html" target="_top" xlink:title="tree/TCalibrationData.h">
<polygon fill="white" stroke="black" points="672,-224.5 672,-243.5 790,-243.5 790,-224.5 672,-224.5"/>
<text text-anchor="middle" x="731" y="-231.5" font-family="Helvetica,sans-Serif" font-size="10.00">tree/TCalibrationData.h</text>
</a>
</g>
</g>
<!-- Node0&#45;&gt;Node13 -->
<g id="edge15" class="edge"><title>Node0&#45;&gt;Node13</title>
<path fill="none" stroke="midnightblue" d="M768.388,-280.781C761.267,-272.062 752.117,-260.857 744.651,-251.715"/>
<polygon fill="midnightblue" stroke="midnightblue" points="747.166,-249.262 738.13,-243.731 741.744,-253.69 747.166,-249.262"/>
</g>
<!-- Node27 -->
<g id="node28" class="node"><title>Node27</title>
<polygon fill="white" stroke="#bfbfbf" points="808,-224.5 808,-243.5 852,-243.5 852,-224.5 808,-224.5"/>
<text text-anchor="middle" x="830" y="-231.5" font-family="Helvetica,sans-Serif" font-size="10.00">TH2.h</text>
</g>
<!-- Node0&#45;&gt;Node27 -->
<g id="edge37" class="edge"><title>Node0&#45;&gt;Node27</title>
<path fill="none" stroke="midnightblue" d="M791.849,-280.781C799.19,-271.972 808.645,-260.626 816.306,-251.433"/>
<polygon fill="midnightblue" stroke="midnightblue" points="819.011,-253.653 822.725,-243.731 813.634,-249.172 819.011,-253.653"/>
</g>
<!-- Node28 -->
<g id="node29" class="node"><title>Node28</title>
<polygon fill="white" stroke="#bfbfbf" points="870.5,-224.5 870.5,-243.5 921.5,-243.5 921.5,-224.5 870.5,-224.5"/>
<text text-anchor="middle" x="896" y="-231.5" font-family="Helvetica,sans-Serif" font-size="10.00">TH2D.h</text>
</g>
<!-- Node0&#45;&gt;Node28 -->
<g id="edge38" class="edge"><title>Node0&#45;&gt;Node28</title>
<path fill="none" stroke="midnightblue" d="M807.197,-280.933C826.243,-271.081 851.533,-258 870.251,-248.318"/>
<polygon fill="midnightblue" stroke="midnightblue" points="872.099,-251.303 879.373,-243.6 868.883,-245.086 872.099,-251.303"/>
</g>
<!-- Node2 -->
<g id="node3" class="node"><title>Node2</title>
<g id="a_node3"><a xlink:href="_bin_settings_8h.html" target="_top" xlink:title="base/BinSettings.h">
<polygon fill="white" stroke="black" points="15.5,-112.5 15.5,-131.5 114.5,-131.5 114.5,-112.5 15.5,-112.5"/>
<text text-anchor="middle" x="65" y="-119.5" font-family="Helvetica,sans-Serif" font-size="10.00">base/BinSettings.h</text>
</a>
</g>
</g>
<!-- Node1&#45;&gt;Node2 -->
<g id="edge2" class="edge"><title>Node1&#45;&gt;Node2</title>
<path fill="none" stroke="midnightblue" d="M380.448,-224.46C319.717,-204.926 170.593,-156.963 101.382,-134.702"/>
<polygon fill="midnightblue" stroke="midnightblue" points="102.362,-131.34 91.7705,-131.61 100.218,-138.004 102.362,-131.34"/>
</g>
<!-- Node3 -->
<g id="node4" class="node"><title>Node3</title>
<g id="a_node4"><a xlink:href="interval_8h.html" target="_top" xlink:title="base/interval.h">
<polygon fill="white" stroke="black" points="150,-56.5 150,-75.5 230,-75.5 230,-56.5 150,-56.5"/>
<text text-anchor="middle" x="190" y="-63.5" font-family="Helvetica,sans-Serif" font-size="10.00">base/interval.h</text>
</a>
</g>
</g>
<!-- Node2&#45;&gt;Node3 -->
<g id="edge3" class="edge"><title>Node2&#45;&gt;Node3</title>
<path fill="none" stroke="midnightblue" d="M84.8066,-112.444C105.287,-103.596 137.483,-89.6875 160.865,-79.5865"/>
<polygon fill="midnightblue" stroke="midnightblue" points="162.494,-82.6953 170.286,-75.5164 159.718,-76.2692 162.494,-82.6953"/>
</g>
<!-- Node6 -->
<g id="node7" class="node"><title>Node6</title>
<polygon fill="white" stroke="#bfbfbf" points="255.5,-0.5 255.5,-19.5 314.5,-19.5 314.5,-0.5 255.5,-0.5"/>
<text text-anchor="middle" x="285" y="-7.5" font-family="Helvetica,sans-Serif" font-size="10.00">stdexcept</text>
</g>
<!-- Node2&#45;&gt;Node6 -->
<g id="edge12" class="edge"><title>Node2&#45;&gt;Node6</title>
<path fill="none" stroke="midnightblue" d="M113.055,-112.42C157.186,-103.86 218.712,-89.9996 239,-76 256.196,-64.1342 269.12,-43.626 276.823,-28.8142"/>
<polygon fill="midnightblue" stroke="midnightblue" points="280.058,-30.1668 281.31,-19.6463 273.77,-27.0895 280.058,-30.1668"/>
</g>
<!-- Node8 -->
<g id="node9" class="node"><title>Node8</title>
<polygon fill="white" stroke="#bfbfbf" points="-0.5,-0.5 -0.5,-19.5 48.5,-19.5 48.5,-0.5 -0.5,-0.5"/>
<text text-anchor="middle" x="24" y="-7.5" font-family="Helvetica,sans-Serif" font-size="10.00">istream</text>
</g>
<!-- Node2&#45;&gt;Node8 -->
<g id="edge13" class="edge"><title>Node2&#45;&gt;Node8</title>
<path fill="none" stroke="midnightblue" d="M60.1593,-112.235C55.363,-103.309 48.0257,-88.9745 43,-76 37.0282,-60.583 31.884,-42.4899 28.4602,-29.3129"/>
<polygon fill="midnightblue" stroke="midnightblue" points="31.8424,-28.411 26.0083,-19.5671 25.0539,-30.1189 31.8424,-28.411"/>
</g>
<!-- Node11 -->
<g id="node12" class="node"><title>Node11</title>
<polygon fill="white" stroke="#bfbfbf" points="477,-0.5 477,-19.5 521,-19.5 521,-0.5 477,-0.5"/>
<text text-anchor="middle" x="499" y="-7.5" font-family="Helvetica,sans-Serif" font-size="10.00">vector</text>
</g>
<!-- Node2&#45;&gt;Node11 -->
<g id="edge11" class="edge"><title>Node2&#45;&gt;Node11</title>
<path fill="none" stroke="midnightblue" d="M105.152,-112.498C145.438,-103.832 209.201,-89.7462 264,-76 354.78,-53.2279 376.84,-45.1144 467,-20 467.101,-19.9719 467.202,-19.9438 467.303,-19.9156"/>
<polygon fill="midnightblue" stroke="midnightblue" points="468.283,-23.276 476.97,-17.2115 466.397,-16.5347 468.283,-23.276"/>
</g>
<!-- Node12 -->
<g id="node13" class="node"><title>Node12</title>
<polygon fill="white" stroke="#bfbfbf" points="52,-56.5 52,-75.5 104,-75.5 104,-56.5 52,-56.5"/>
<text text-anchor="middle" x="78" y="-63.5" font-family="Helvetica,sans-Serif" font-size="10.00">ostream</text>
</g>
<!-- Node2&#45;&gt;Node12 -->
<g id="edge14" class="edge"><title>Node2&#45;&gt;Node12</title>
<path fill="none" stroke="midnightblue" d="M67.1467,-112.083C68.8694,-104.927 71.3471,-94.6353 73.5003,-85.6911"/>
<polygon fill="midnightblue" stroke="midnightblue" points="76.9554,-86.2925 75.8933,-75.7511 70.1499,-84.6541 76.9554,-86.2925"/>
</g>
<!-- Node4 -->
<g id="node5" class="node"><title>Node4</title>
<g id="a_node5"><a xlink:href="types_8h.html" target="_top" xlink:title="types.h">
<polygon fill="white" stroke="black" points="129.5,-0.5 129.5,-19.5 178.5,-19.5 178.5,-0.5 129.5,-0.5"/>
<text text-anchor="middle" x="154" y="-7.5" font-family="Helvetica,sans-Serif" font-size="10.00">types.h</text>
</a>
</g>
</g>
<!-- Node3&#45;&gt;Node4 -->
<g id="edge4" class="edge"><title>Node3&#45;&gt;Node4</title>
<path fill="none" stroke="midnightblue" d="M184.055,-56.083C179.023,-48.5341 171.663,-37.4948 165.487,-28.2298"/>
<polygon fill="midnightblue" stroke="midnightblue" points="168.293,-26.1301 159.834,-19.7511 162.469,-30.0131 168.293,-26.1301"/>
</g>
<!-- Node5 -->
<g id="node6" class="node"><title>Node5</title>
<polygon fill="white" stroke="#bfbfbf" points="403,-0.5 403,-19.5 459,-19.5 459,-0.5 403,-0.5"/>
<text text-anchor="middle" x="431" y="-7.5" font-family="Helvetica,sans-Serif" font-size="10.00">algorithm</text>
</g>
<!-- Node3&#45;&gt;Node5 -->
<g id="edge5" class="edge"><title>Node3&#45;&gt;Node5</title>
<path fill="none" stroke="midnightblue" d="M229.929,-56.4577C269.005,-48.0386 330.476,-34.6383 392.737,-20.2577"/>
<polygon fill="midnightblue" stroke="midnightblue" points="393.781,-23.6087 402.733,-17.9419 392.201,-16.7893 393.781,-23.6087"/>
</g>
<!-- Node3&#45;&gt;Node6 -->
<g id="edge6" class="edge"><title>Node3&#45;&gt;Node6</title>
<path fill="none" stroke="midnightblue" d="M205.263,-56.324C220.221,-47.8215 243.255,-34.7288 260.727,-24.7975"/>
<polygon fill="midnightblue" stroke="midnightblue" points="262.81,-27.639 269.774,-19.6545 259.351,-21.5534 262.81,-27.639"/>
</g>
<!-- Node7 -->
<g id="node8" class="node"><title>Node7</title>
<polygon fill="white" stroke="#bfbfbf" points="197,-0.5 197,-19.5 237,-19.5 237,-0.5 197,-0.5"/>
<text text-anchor="middle" x="217" y="-7.5" font-family="Helvetica,sans-Serif" font-size="10.00">limits</text>
</g>
<!-- Node3&#45;&gt;Node7 -->
<g id="edge7" class="edge"><title>Node3&#45;&gt;Node7</title>
<path fill="none" stroke="midnightblue" d="M194.459,-56.083C198.154,-48.6913 203.523,-37.9533 208.094,-28.8111"/>
<polygon fill="midnightblue" stroke="midnightblue" points="211.283,-30.2606 212.624,-19.7511 205.022,-27.1301 211.283,-30.2606"/>
</g>
<!-- Node3&#45;&gt;Node8 -->
<g id="edge8" class="edge"><title>Node3&#45;&gt;Node8</title>
<path fill="none" stroke="midnightblue" d="M163.697,-56.4435C135.154,-47.1586 89.4765,-32.2996 58.1746,-22.117"/>
<polygon fill="midnightblue" stroke="midnightblue" points="59.1489,-18.7535 48.5567,-18.9883 56.9834,-25.4102 59.1489,-18.7535"/>
</g>
<!-- Node9 -->
<g id="node10" class="node"><title>Node9</title>
<polygon fill="white" stroke="#bfbfbf" points="333,-0.5 333,-19.5 385,-19.5 385,-0.5 333,-0.5"/>
<text text-anchor="middle" x="359" y="-7.5" font-family="Helvetica,sans-Serif" font-size="10.00">sstream</text>
</g>
<!-- Node3&#45;&gt;Node9 -->
<g id="edge9" class="edge"><title>Node3&#45;&gt;Node9</title>
<path fill="none" stroke="midnightblue" d="M216.779,-56.4435C245.501,-47.2659 291.267,-32.6424 323.097,-22.472"/>
<polygon fill="midnightblue" stroke="midnightblue" points="324.442,-25.7167 332.902,-19.339 322.311,-19.0488 324.442,-25.7167"/>
</g>
<!-- Node10 -->
<g id="node11" class="node"><title>Node10</title>
<polygon fill="white" stroke="#bfbfbf" points="67,-0.5 67,-19.5 111,-19.5 111,-0.5 67,-0.5"/>
<text text-anchor="middle" x="89" y="-7.5" font-family="Helvetica,sans-Serif" font-size="10.00">cmath</text>
</g>
<!-- Node3&#45;&gt;Node10 -->
<g id="edge10" class="edge"><title>Node3&#45;&gt;Node10</title>
<path fill="none" stroke="midnightblue" d="M173.773,-56.324C157.649,-47.7034 132.7,-34.3643 114.036,-24.3855"/>
<polygon fill="midnightblue" stroke="midnightblue" points="115.656,-21.283 105.187,-19.6545 112.356,-27.456 115.656,-21.283"/>
</g>
<!-- Node14 -->
<g id="node15" class="node"><title>Node14</title>
<g id="a_node15"><a xlink:href="_t_i_d_8h.html" target="_top" xlink:title="TID.h">
<polygon fill="white" stroke="black" points="386.5,-168.5 386.5,-187.5 427.5,-187.5 427.5,-168.5 386.5,-168.5"/>
<text text-anchor="middle" x="407" y="-175.5" font-family="Helvetica,sans-Serif" font-size="10.00">TID.h</text>
</a>
</g>
</g>
<!-- Node13&#45;&gt;Node14 -->
<g id="edge16" class="edge"><title>Node13&#45;&gt;Node14</title>
<path fill="none" stroke="midnightblue" d="M679.661,-224.444C611.435,-213.072 493.048,-193.341 437.469,-184.078"/>
<polygon fill="midnightblue" stroke="midnightblue" points="437.975,-180.614 427.536,-182.423 436.824,-187.519 437.975,-180.614"/>
</g>
<!-- Node18 -->
<g id="node19" class="node"><title>Node18</title>
<polygon fill="white" stroke="#bfbfbf" points="777.5,-0.5 777.5,-19.5 818.5,-19.5 818.5,-0.5 777.5,-0.5"/>
<text text-anchor="middle" x="798" y="-7.5" font-family="Helvetica,sans-Serif" font-size="10.00">string</text>
</g>
<!-- Node13&#45;&gt;Node18 -->
<g id="edge35" class="edge"><title>Node13&#45;&gt;Node18</title>
<path fill="none" stroke="midnightblue" d="M788.779,-224.445C810.44,-218.122 832.947,-207.125 846,-188 880.946,-136.8 834.974,-61.1006 810.952,-27.7811"/>
<polygon fill="midnightblue" stroke="midnightblue" points="813.618,-25.5011 804.844,-19.5627 808,-29.6766 813.618,-25.5011"/>
</g>
<!-- Node20 -->
<g id="node21" class="node"><title>Node20</title>
<polygon fill="white" stroke="#bfbfbf" points="672.5,-56.5 672.5,-75.5 713.5,-75.5 713.5,-56.5 672.5,-56.5"/>
<text text-anchor="middle" x="693" y="-63.5" font-family="Helvetica,sans-Serif" font-size="10.00">ctime</text>
</g>
<!-- Node13&#45;&gt;Node20 -->
<g id="edge36" class="edge"><title>Node13&#45;&gt;Node20</title>
<path fill="none" stroke="midnightblue" d="M728.957,-224.075C722.975,-197.945 705.41,-121.211 697.253,-85.577"/>
<polygon fill="midnightblue" stroke="midnightblue" points="700.605,-84.5349 694.961,-75.5681 693.781,-86.097 700.605,-84.5349"/>
</g>
<!-- Node26 -->
<g id="node27" class="node"><title>Node26</title>
<g id="a_node27"><a xlink:href="_git_info_8h.html" target="_top" xlink:title="base/GitInfo.h">
<polygon fill="white" stroke="black" points="759,-168.5 759,-187.5 837,-187.5 837,-168.5 759,-168.5"/>
<text text-anchor="middle" x="798" y="-175.5" font-family="Helvetica,sans-Serif" font-size="10.00">base/GitInfo.h</text>
</a>
</g>
</g>
<!-- Node13&#45;&gt;Node26 -->
<g id="edge33" class="edge"><title>Node13&#45;&gt;Node26</title>
<path fill="none" stroke="midnightblue" d="M741.765,-224.324C751.766,-216.263 766.887,-204.077 778.93,-194.369"/>
<polygon fill="midnightblue" stroke="midnightblue" points="781.45,-196.834 787.039,-187.834 777.057,-191.384 781.45,-196.834"/>
</g>
<!-- Node14&#45;&gt;Node6 -->
<g id="edge29" class="edge"><title>Node14&#45;&gt;Node6</title>
<path fill="none" stroke="midnightblue" d="M400.65,-168.143C391.651,-155.609 374.651,-131.994 360,-112 338.17,-82.2095 312.455,-47.706 297.513,-27.7144"/>
<polygon fill="midnightblue" stroke="midnightblue" points="300.25,-25.5309 291.458,-19.6193 294.645,-29.7236 300.25,-25.5309"/>
</g>
<!-- Node15 -->
<g id="node16" class="node"><title>Node15</title>
<polygon fill="white" stroke="#bfbfbf" points="407,-112.5 407,-131.5 463,-131.5 463,-112.5 407,-112.5"/>
<text text-anchor="middle" x="435" y="-119.5" font-family="Helvetica,sans-Serif" font-size="10.00">Rtypes.h</text>
</g>
<!-- Node14&#45;&gt;Node15 -->
<g id="edge17" class="edge"><title>Node14&#45;&gt;Node15</title>
<path fill="none" stroke="midnightblue" d="M411.624,-168.083C415.456,-160.691 421.024,-149.953 425.765,-140.811"/>
<polygon fill="midnightblue" stroke="midnightblue" points="428.966,-142.24 430.462,-131.751 422.752,-139.018 428.966,-142.24"/>
</g>
<!-- Node16 -->
<g id="node17" class="node"><title>Node16</title>
<g id="a_node17"><a xlink:href="base_2std__ext_2_time_8h.html" target="_top" xlink:title="base/std_ext/time.h">
<polygon fill="white" stroke="black" points="481.5,-112.5 481.5,-131.5 584.5,-131.5 584.5,-112.5 481.5,-112.5"/>
<text text-anchor="middle" x="533" y="-119.5" font-family="Helvetica,sans-Serif" font-size="10.00">base/std_ext/time.h</text>
</a>
</g>
</g>
<!-- Node14&#45;&gt;Node16 -->
<g id="edge18" class="edge"><title>Node14&#45;&gt;Node16</title>
<path fill="none" stroke="midnightblue" d="M426.965,-168.444C447.609,-159.596 480.063,-145.687 503.632,-135.586"/>
<polygon fill="midnightblue" stroke="midnightblue" points="505.316,-138.673 513.128,-131.516 502.558,-132.239 505.316,-138.673"/>
</g>
<!-- Node14&#45;&gt;Node20 -->
<g id="edge32" class="edge"><title>Node14&#45;&gt;Node20</title>
<path fill="none" stroke="midnightblue" d="M427.685,-176.234C483.665,-173.751 636.378,-164.117 673,-132 686.157,-120.462 690.783,-100.495 692.346,-85.7277"/>
<polygon fill="midnightblue" stroke="midnightblue" points="695.843,-85.8901 693.035,-75.6742 688.86,-85.4115 695.843,-85.8901"/>
</g>
<!-- Node21 -->
<g id="node22" class="node"><title>Node21</title>
<polygon fill="white" stroke="#bfbfbf" points="603,-112.5 603,-131.5 665,-131.5 665,-112.5 603,-112.5"/>
<text text-anchor="middle" x="634" y="-119.5" font-family="Helvetica,sans-Serif" font-size="10.00">type_traits</text>
</g>
<!-- Node14&#45;&gt;Node21 -->
<g id="edge26" class="edge"><title>Node14&#45;&gt;Node21</title>
<path fill="none" stroke="midnightblue" d="M427.545,-172.113C464.837,-163.241 544.306,-144.337 593.047,-132.742"/>
<polygon fill="midnightblue" stroke="midnightblue" points="594.037,-136.104 602.955,-130.385 592.417,-129.294 594.037,-136.104"/>
</g>
<!-- Node22 -->
<g id="node23" class="node"><title>Node22</title>
<polygon fill="white" stroke="#bfbfbf" points="133,-112.5 133,-131.5 171,-131.5 171,-112.5 133,-112.5"/>
<text text-anchor="middle" x="152" y="-119.5" font-family="Helvetica,sans-Serif" font-size="10.00">tuple</text>
</g>
<!-- Node14&#45;&gt;Node22 -->
<g id="edge27" class="edge"><title>Node14&#45;&gt;Node22</title>
<path fill="none" stroke="midnightblue" d="M386.473,-173.747C348.002,-167.479 262.305,-152.701 181.075,-132.04"/>
<polygon fill="midnightblue" stroke="midnightblue" points="181.752,-128.6 171.194,-129.491 180.003,-135.378 181.752,-128.6"/>
</g>
<!-- Node23 -->
<g id="node24" class="node"><title>Node23</title>
<polygon fill="white" stroke="#bfbfbf" points="189,-112.5 189,-131.5 235,-131.5 235,-112.5 189,-112.5"/>
<text text-anchor="middle" x="212" y="-119.5" font-family="Helvetica,sans-Serif" font-size="10.00">cstdint</text>
</g>
<!-- Node14&#45;&gt;Node23 -->
<g id="edge28" class="edge"><title>Node14&#45;&gt;Node23</title>
<path fill="none" stroke="midnightblue" d="M386.406,-171.349C357.166,-163.317 301.693,-148.054 244.928,-132.249"/>
<polygon fill="midnightblue" stroke="midnightblue" points="245.641,-128.815 235.068,-129.502 243.762,-135.558 245.641,-128.815"/>
</g>
<!-- Node24 -->
<g id="node25" class="node"><title>Node24</title>
<polygon fill="white" stroke="#bfbfbf" points="253.5,-112.5 253.5,-131.5 282.5,-131.5 282.5,-112.5 253.5,-112.5"/>
<text text-anchor="middle" x="268" y="-119.5" font-family="Helvetica,sans-Serif" font-size="10.00">list</text>
</g>
<!-- Node14&#45;&gt;Node24 -->
<g id="edge30" class="edge"><title>Node14&#45;&gt;Node24</title>
<path fill="none" stroke="midnightblue" d="M386.49,-169.032C361.312,-159.251 318.68,-142.689 292.003,-132.325"/>
<polygon fill="midnightblue" stroke="midnightblue" points="293.218,-129.042 282.629,-128.683 290.683,-135.567 293.218,-129.042"/>
</g>
<!-- Node25 -->
<g id="node26" class="node"><title>Node25</title>
<polygon fill="white" stroke="#bfbfbf" points="301,-112.5 301,-131.5 351,-131.5 351,-112.5 301,-112.5"/>
<text text-anchor="middle" x="326" y="-119.5" font-family="Helvetica,sans-Serif" font-size="10.00">iomanip</text>
</g>
<!-- Node14&#45;&gt;Node25 -->
<g id="edge31" class="edge"><title>Node14&#45;&gt;Node25</title>
<path fill="none" stroke="midnightblue" d="M393.986,-168.324C381.468,-159.979 362.318,-147.212 347.529,-137.352"/>
<polygon fill="midnightblue" stroke="midnightblue" points="349.244,-134.289 338.982,-131.655 345.361,-140.114 349.244,-134.289"/>
</g>
<!-- Node17 -->
<g id="node18" class="node"><title>Node17</title>
<g id="a_node18"><a xlink:href="string_8h.html" target="_top" xlink:title="base/std_ext/string.h">
<polygon fill="white" stroke="black" points="445,-56.5 445,-75.5 553,-75.5 553,-56.5 445,-56.5"/>
<text text-anchor="middle" x="499" y="-63.5" font-family="Helvetica,sans-Serif" font-size="10.00">base/std_ext/string.h</text>
</a>
</g>
</g>
<!-- Node16&#45;&gt;Node17 -->
<g id="edge19" class="edge"><title>Node16&#45;&gt;Node17</title>
<path fill="none" stroke="midnightblue" d="M527.386,-112.083C522.633,-104.534 515.682,-93.4948 509.848,-84.2298"/>
<polygon fill="midnightblue" stroke="midnightblue" points="512.8,-82.3486 504.51,-75.7511 506.876,-86.0783 512.8,-82.3486"/>
</g>
<!-- Node19 -->
<g id="node20" class="node"><title>Node19</title>
<polygon fill="white" stroke="#bfbfbf" points="571,-56.5 571,-75.5 617,-75.5 617,-56.5 571,-56.5"/>
<text text-anchor="middle" x="594" y="-63.5" font-family="Helvetica,sans-Serif" font-size="10.00">cstring</text>
</g>
<!-- Node16&#45;&gt;Node19 -->
<g id="edge24" class="edge"><title>Node16&#45;&gt;Node19</title>
<path fill="none" stroke="midnightblue" d="M542.801,-112.324C551.818,-104.341 565.406,-92.3128 576.318,-82.6529"/>
<polygon fill="midnightblue" stroke="midnightblue" points="578.853,-85.083 584.021,-75.8339 574.213,-79.8416 578.853,-85.083"/>
</g>
<!-- Node16&#45;&gt;Node20 -->
<g id="edge25" class="edge"><title>Node16&#45;&gt;Node20</title>
<path fill="none" stroke="midnightblue" d="M558.352,-112.444C586.694,-102.878 632.565,-87.3969 662.756,-77.2075"/>
<polygon fill="midnightblue" stroke="midnightblue" points="663.99,-80.4851 672.345,-73.971 661.751,-73.8526 663.99,-80.4851"/>
</g>
<!-- Node17&#45;&gt;Node5 -->
<g id="edge22" class="edge"><title>Node17&#45;&gt;Node5</title>
<path fill="none" stroke="midnightblue" d="M488.075,-56.324C477.825,-48.1849 462.279,-35.8395 449.999,-26.0874"/>
<polygon fill="midnightblue" stroke="midnightblue" points="452.132,-23.3119 442.124,-19.8339 447.779,-28.7937 452.132,-23.3119"/>
</g>
<!-- Node17&#45;&gt;Node9 -->
<g id="edge21" class="edge"><title>Node17&#45;&gt;Node9</title>
<path fill="none" stroke="midnightblue" d="M476.817,-56.4435C453.572,-47.4776 416.851,-33.314 390.585,-23.1827"/>
<polygon fill="midnightblue" stroke="midnightblue" points="391.669,-19.8497 381.08,-19.5164 389.15,-26.3807 391.669,-19.8497"/>
</g>
<!-- Node17&#45;&gt;Node11 -->
<g id="edge23" class="edge"><title>Node17&#45;&gt;Node11</title>
<path fill="none" stroke="midnightblue" d="M499,-56.083C499,-49.0059 499,-38.8611 499,-29.9865"/>
<polygon fill="midnightblue" stroke="midnightblue" points="502.5,-29.751 499,-19.7511 495.5,-29.7511 502.5,-29.751"/>
</g>
<!-- Node17&#45;&gt;Node18 -->
<g id="edge20" class="edge"><title>Node17&#45;&gt;Node18</title>
<path fill="none" stroke="midnightblue" d="M546.377,-56.4435C608.307,-45.2589 715.023,-25.9859 767.314,-16.542"/>
<polygon fill="midnightblue" stroke="midnightblue" points="768.095,-19.9576 777.314,-14.7359 766.851,-13.069 768.095,-19.9576"/>
</g>
<!-- Node26&#45;&gt;Node18 -->
<g id="edge34" class="edge"><title>Node26&#45;&gt;Node18</title>
<path fill="none" stroke="midnightblue" d="M798,-168.075C798,-141.945 798,-65.2106 798,-29.577"/>
<polygon fill="midnightblue" stroke="midnightblue" points="801.5,-29.5681 798,-19.5681 794.5,-29.5681 801.5,-29.5681"/>
</g>
</g>
</svg>
