<?xml version="1.0" encoding="UTF-8" standalone="no"?>
<!DOCTYPE svg PUBLIC "-//W3C//DTD SVG 1.1//EN"
 "http://www.w3.org/Graphics/SVG/1.1/DTD/svg11.dtd">
<!-- Generated by graphviz version 2.36.0 (20140111.2315)
 -->
<!-- Title: src/root&#45;addons/cbtaps_display/TH2Crystals.h Pages: 1 -->
<svg width="287pt" height="96pt"
 viewBox="0.00 0.00 287.00 96.00" xmlns="http://www.w3.org/2000/svg" xmlns:xlink="http://www.w3.org/1999/xlink">
<g id="graph0" class="graph" transform="scale(1 1) rotate(0) translate(4 92)">
<title>src/root&#45;addons/cbtaps_display/TH2Crystals.h</title>
<polygon fill="white" stroke="none" points="-4,4 -4,-92 283,-92 283,4 -4,4"/>
<!-- Node0 -->
<g id="node1" class="node"><title>Node0</title>
<polygon fill="#bfbfbf" stroke="black" points="87.5,-57 87.5,-87 206.5,-87 206.5,-57 87.5,-57"/>
<text text-anchor="start" x="95.5" y="-75" font-family="Helvetica,sans-Serif" font-size="10.00">src/root&#45;addons/cbtaps</text>
<text text-anchor="middle" x="147" y="-64" font-family="Helvetica,sans-Serif" font-size="10.00">_display/TH2Crystals.h</text>
</g>
<!-- Node1 -->
<g id="node2" class="node"><title>Node1</title>
<polygon fill="white" stroke="#bfbfbf" points="0,-0.5 0,-19.5 56,-19.5 56,-0.5 0,-0.5"/>
<text text-anchor="middle" x="28" y="-7.5" font-family="Helvetica,sans-Serif" font-size="10.00">Rtypes.h</text>
</g>
<!-- Node0&#45;&gt;Node1 -->
<g id="edge1" class="edge"><title>Node0&#45;&gt;Node1</title>
<path fill="none" stroke="midnightblue" d="M119.1,-56.9327C99.4713,-47.0359 73.3792,-33.8803 54.1507,-24.1852"/>
<polygon fill="midnightblue" stroke="midnightblue" points="55.5617,-20.977 45.0567,-19.6 52.4102,-27.2274 55.5617,-20.977"/>
</g>
<!-- Node2 -->
<g id="node3" class="node"><title>Node2</title>
<polygon fill="white" stroke="#bfbfbf" points="74.5,-0.5 74.5,-19.5 137.5,-19.5 137.5,-0.5 74.5,-0.5"/>
<text text-anchor="middle" x="106" y="-7.5" font-family="Helvetica,sans-Serif" font-size="10.00">TH2Poly.h</text>
</g>
<!-- Node0&#45;&gt;Node2 -->
<g id="edge2" class="edge"><title>Node0&#45;&gt;Node2</title>
<path fill="none" stroke="midnightblue" d="M137.284,-56.7808C131.387,-48.152 123.827,-37.0882 117.616,-27.9987"/>
<polygon fill="midnightblue" stroke="midnightblue" points="120.498,-26.0123 111.966,-19.7305 114.718,-29.9617 120.498,-26.0123"/>
</g>
<!-- Node3 -->
<g id="node4" class="node"><title>Node3</title>
<polygon fill="white" stroke="#bfbfbf" points="155.5,-0.5 155.5,-19.5 220.5,-19.5 220.5,-0.5 155.5,-0.5"/>
<text text-anchor="middle" x="188" y="-7.5" font-family="Helvetica,sans-Serif" font-size="10.00">TVector2.h</text>
</g>
<!-- Node0&#45;&gt;Node3 -->
<g id="edge3" class="edge"><title>Node0&#45;&gt;Node3</title>
<path fill="none" stroke="midnightblue" d="M156.716,-56.7808C162.613,-48.152 170.173,-37.0882 176.384,-27.9987"/>
<polygon fill="midnightblue" stroke="midnightblue" points="179.282,-29.9617 182.034,-19.7305 173.502,-26.0123 179.282,-29.9617"/>
</g>
<!-- Node4 -->
<g id="node5" class="node"><title>Node4</title>
<polygon fill="white" stroke="#bfbfbf" points="238.5,-0.5 238.5,-19.5 279.5,-19.5 279.5,-0.5 238.5,-0.5"/>
<text text-anchor="middle" x="259" y="-7.5" font-family="Helvetica,sans-Serif" font-size="10.00">string</text>
</g>
<!-- Node0&#45;&gt;Node4 -->
<g id="edge4" class="edge"><title>Node0&#45;&gt;Node4</title>
<path fill="none" stroke="midnightblue" d="M173.259,-56.9327C191.48,-47.1715 215.618,-34.2401 233.64,-24.5856"/>
<polygon fill="midnightblue" stroke="midnightblue" points="235.785,-27.4075 242.947,-19.6 232.479,-21.2371 235.785,-27.4075"/>
</g>
</g>
</svg>
