<?xml version="1.0" encoding="UTF-8" standalone="no"?>
<!DOCTYPE svg PUBLIC "-//W3C//DTD SVG 1.1//EN"
 "http://www.w3.org/Graphics/SVG/1.1/DTD/svg11.dtd">
<!-- Generated by graphviz version 2.36.0 (20140111.2315)
 -->
<!-- Title: src/root&#45;addons/cbtaps_display/TH2DrawTool.h Pages: 1 -->
<svg width="406pt" height="108pt"
 viewBox="0.00 0.00 406.00 108.00" xmlns="http://www.w3.org/2000/svg" xmlns:xlink="http://www.w3.org/1999/xlink">
<g id="graph0" class="graph" transform="scale(1 1) rotate(0) translate(4 104)">
<title>src/root&#45;addons/cbtaps_display/TH2DrawTool.h</title>
<polygon fill="white" stroke="none" points="-4,4 -4,-104 402,-104 402,4 -4,4"/>
<!-- Node7 -->
<g id="node1" class="node"><title>Node7</title>
<polygon fill="#bfbfbf" stroke="black" points="136.5,-69 136.5,-99 261.5,-99 261.5,-69 136.5,-69"/>
<text text-anchor="start" x="144.5" y="-87" font-family="Helvetica,sans-Serif" font-size="10.00">src/root&#45;addons/cbtaps</text>
<text text-anchor="middle" x="199" y="-76" font-family="Helvetica,sans-Serif" font-size="10.00">_display/TH2DrawTool.h</text>
</g>
<!-- Node8 -->
<g id="node2" class="node"><title>Node8</title>
<g id="a_node2"><a xlink:href="_t_h2_c_b_8cc.html" target="_top" xlink:title="src/root&#45;addons/cbtaps\l_display/TH2CB.cc">
<polygon fill="white" stroke="black" points="0,-1 0,-31 116,-31 116,-1 0,-1"/>
<text text-anchor="start" x="8" y="-19" font-family="Helvetica,sans-Serif" font-size="10.00">src/root&#45;addons/cbtaps</text>
<text text-anchor="middle" x="58" y="-8" font-family="Helvetica,sans-Serif" font-size="10.00">_display/TH2CB.cc</text>
</a>
</g>
</g>
<!-- Node7&#45;&gt;Node8 -->
<g id="edge1" class="edge"><title>Node7&#45;&gt;Node8</title>
<path fill="none" stroke="midnightblue" d="M159.436,-64.4805C136.859,-53.9128 109.003,-40.8738 88.198,-31.1352"/>
<polygon fill="midnightblue" stroke="midnightblue" points="158.211,-67.7718 168.752,-68.8413 161.179,-61.432 158.211,-67.7718"/>
</g>
<!-- Node9 -->
<g id="node3" class="node"><title>Node9</title>
<g id="a_node3"><a xlink:href="_t_h2_draw_tool_8cc.html" target="_top" xlink:title="src/root&#45;addons/cbtaps\l_display/TH2DrawTool.cc">
<polygon fill="white" stroke="black" points="134,-1 134,-31 264,-31 264,-1 134,-1"/>
<text text-anchor="start" x="142" y="-19" font-family="Helvetica,sans-Serif" font-size="10.00">src/root&#45;addons/cbtaps</text>
<text text-anchor="middle" x="199" y="-8" font-family="Helvetica,sans-Serif" font-size="10.00">_display/TH2DrawTool.cc</text>
</a>
</g>
</g>
<!-- Node7&#45;&gt;Node9 -->
<g id="edge2" class="edge"><title>Node7&#45;&gt;Node9</title>
<path fill="none" stroke="midnightblue" d="M199,-58.5322C199,-49.3606 199,-39.2449 199,-31.2931"/>
<polygon fill="midnightblue" stroke="midnightblue" points="195.5,-58.6789 199,-68.679 202.5,-58.679 195.5,-58.6789"/>
</g>
<!-- Node10 -->
<g id="node4" class="node"><title>Node10</title>
<g id="a_node4"><a xlink:href="_t_h2_t_a_p_s_8cc.html" target="_top" xlink:title="src/root&#45;addons/cbtaps\l_display/TH2TAPS.cc">
<polygon fill="white" stroke="black" points="282,-1 282,-31 398,-31 398,-1 282,-1"/>
<text text-anchor="start" x="290" y="-19" font-family="Helvetica,sans-Serif" font-size="10.00">src/root&#45;addons/cbtaps</text>
<text text-anchor="middle" x="340" y="-8" font-family="Helvetica,sans-Serif" font-size="10.00">_display/TH2TAPS.cc</text>
</a>
</g>
</g>
<!-- Node7&#45;&gt;Node10 -->
<g id="edge3" class="edge"><title>Node7&#45;&gt;Node10</title>
<path fill="none" stroke="midnightblue" d="M238.564,-64.4805C261.141,-53.9128 288.997,-40.8738 309.802,-31.1352"/>
<polygon fill="midnightblue" stroke="midnightblue" points="236.821,-61.432 229.248,-68.8413 239.789,-67.7718 236.821,-61.432"/>
</g>
</g>
</svg>
