<?xml version="1.0" encoding="UTF-8" standalone="no"?>
<!DOCTYPE svg PUBLIC "-//W3C//DTD SVG 1.1//EN"
 "http://www.w3.org/Graphics/SVG/1.1/DTD/svg11.dtd">
<!-- Generated by graphviz version 2.36.0 (20140111.2315)
 -->
<!-- Title: progs/detail/TPCSim_tools.cc Pages: 1 -->
<svg width="1042pt" height="276pt"
 viewBox="0.00 0.00 1042.00 276.00" xmlns="http://www.w3.org/2000/svg" xmlns:xlink="http://www.w3.org/1999/xlink">
<g id="graph0" class="graph" transform="scale(1 1) rotate(0) translate(4 272)">
<title>progs/detail/TPCSim_tools.cc</title>
<polygon fill="white" stroke="none" points="-4,4 -4,-272 1038,-272 1038,4 -4,4"/>
<!-- Node0 -->
<g id="node1" class="node"><title>Node0</title>
<polygon fill="#bfbfbf" stroke="black" points="698.5,-237 698.5,-267 805.5,-267 805.5,-237 698.5,-237"/>
<text text-anchor="start" x="706.5" y="-255" font-family="Helvetica,sans-Serif" font-size="10.00">progs/detail/TPCSim</text>
<text text-anchor="middle" x="752" y="-244" font-family="Helvetica,sans-Serif" font-size="10.00">_tools.cc</text>
</g>
<!-- Node1 -->
<g id="node2" class="node"><title>Node1</title>
<g id="a_node2"><a xlink:href="_t_p_c_sim__tools_8h.html" target="_top" xlink:title="TPCSim_tools.h">
<polygon fill="white" stroke="black" points="512.5,-180.5 512.5,-199.5 601.5,-199.5 601.5,-180.5 512.5,-180.5"/>
<text text-anchor="middle" x="557" y="-187.5" font-family="Helvetica,sans-Serif" font-size="10.00">TPCSim_tools.h</text>
</a>
</g>
</g>
<!-- Node0&#45;&gt;Node1 -->
<g id="edge1" class="edge"><title>Node0&#45;&gt;Node1</title>
<path fill="none" stroke="midnightblue" d="M706.281,-236.933C672.253,-226.462 626.37,-212.345 594.491,-202.536"/>
<polygon fill="midnightblue" stroke="midnightblue" points="595.253,-199.108 584.666,-199.513 593.195,-205.799 595.253,-199.108"/>
</g>
<!-- Node10 -->
<g id="node11" class="node"><title>Node10</title>
<polygon fill="white" stroke="#bfbfbf" points="636,-56.5 636,-75.5 692,-75.5 692,-56.5 636,-56.5"/>
<text text-anchor="middle" x="664" y="-63.5" font-family="Helvetica,sans-Serif" font-size="10.00">algorithm</text>
</g>
<!-- Node0&#45;&gt;Node10 -->
<g id="edge36" class="edge"><title>Node0&#45;&gt;Node10</title>
<path fill="none" stroke="midnightblue" d="M805.946,-242.985C853.223,-234.726 916.721,-220.209 932,-200 955.587,-168.802 957.437,-141.709 932,-112 899.992,-74.6176 767.065,-84.8605 702.369,-75.8246"/>
<polygon fill="midnightblue" stroke="midnightblue" points="702.669,-72.3261 692.227,-74.1248 701.511,-79.2298 702.669,-72.3261"/>
</g>
<!-- Node15 -->
<g id="node16" class="node"><title>Node15</title>
<g id="a_node16"><a xlink:href="base_2std__ext_2math_8h.html" target="_top" xlink:title="base/std_ext/math.h">
<polygon fill="white" stroke="black" points="287,-118.5 287,-137.5 393,-137.5 393,-118.5 287,-118.5"/>
<text text-anchor="middle" x="340" y="-125.5" font-family="Helvetica,sans-Serif" font-size="10.00">base/std_ext/math.h</text>
</a>
</g>
</g>
<!-- Node0&#45;&gt;Node15 -->
<g id="edge35" class="edge"><title>Node0&#45;&gt;Node15</title>
<path fill="none" stroke="midnightblue" d="M698.233,-243.316C647.238,-235.252 568.842,-220.831 503,-200 452.86,-184.137 397.262,-157.941 365.679,-142.191"/>
<polygon fill="midnightblue" stroke="midnightblue" points="367.187,-139.032 356.681,-137.662 364.04,-145.285 367.187,-139.032"/>
</g>
<!-- Node21 -->
<g id="node22" class="node"><title>Node21</title>
<polygon fill="white" stroke="#bfbfbf" points="619.5,-180.5 619.5,-199.5 692.5,-199.5 692.5,-180.5 619.5,-180.5"/>
<text text-anchor="middle" x="656" y="-187.5" font-family="Helvetica,sans-Serif" font-size="10.00">TRandom2.h</text>
</g>
<!-- Node0&#45;&gt;Node21 -->
<g id="edge28" class="edge"><title>Node0&#45;&gt;Node21</title>
<path fill="none" stroke="midnightblue" d="M729.249,-236.781C713.913,-227.196 693.77,-214.606 678.489,-205.056"/>
<polygon fill="midnightblue" stroke="midnightblue" points="680.024,-201.888 669.689,-199.556 676.314,-207.824 680.024,-201.888"/>
</g>
<!-- Node22 -->
<g id="node23" class="node"><title>Node22</title>
<polygon fill="white" stroke="#bfbfbf" points="710.5,-180.5 710.5,-199.5 793.5,-199.5 793.5,-180.5 710.5,-180.5"/>
<text text-anchor="middle" x="752" y="-187.5" font-family="Helvetica,sans-Serif" font-size="10.00">TGraphErrors.h</text>
</g>
<!-- Node0&#45;&gt;Node22 -->
<g id="edge29" class="edge"><title>Node0&#45;&gt;Node22</title>
<path fill="none" stroke="midnightblue" d="M752,-236.781C752,-228.781 752,-218.689 752,-210.017"/>
<polygon fill="midnightblue" stroke="midnightblue" points="755.5,-209.73 752,-199.731 748.5,-209.731 755.5,-209.73"/>
</g>
<!-- Node23 -->
<g id="node24" class="node"><title>Node23</title>
<polygon fill="white" stroke="#bfbfbf" points="812,-180.5 812,-199.5 854,-199.5 854,-180.5 812,-180.5"/>
<text text-anchor="middle" x="833" y="-187.5" font-family="Helvetica,sans-Serif" font-size="10.00">TF1.h</text>
</g>
<!-- Node0&#45;&gt;Node23 -->
<g id="edge30" class="edge"><title>Node0&#45;&gt;Node23</title>
<path fill="none" stroke="midnightblue" d="M771.196,-236.781C783.816,-227.433 800.293,-215.227 813.061,-205.77"/>
<polygon fill="midnightblue" stroke="midnightblue" points="815.262,-208.495 821.214,-199.731 811.095,-202.87 815.262,-208.495"/>
</g>
<!-- Node24 -->
<g id="node25" class="node"><title>Node24</title>
<polygon fill="white" stroke="#bfbfbf" points="872.5,-180.5 872.5,-199.5 923.5,-199.5 923.5,-180.5 872.5,-180.5"/>
<text text-anchor="middle" x="898" y="-187.5" font-family="Helvetica,sans-Serif" font-size="10.00">TH2D.h</text>
</g>
<!-- Node0&#45;&gt;Node24 -->
<g id="edge31" class="edge"><title>Node0&#45;&gt;Node24</title>
<path fill="none" stroke="midnightblue" d="M786.231,-236.933C810.862,-226.81 843.79,-213.278 867.518,-203.527"/>
<polygon fill="midnightblue" stroke="midnightblue" points="869.154,-206.639 877.073,-199.6 866.493,-200.164 869.154,-206.639"/>
</g>
<!-- Node25 -->
<g id="node26" class="node"><title>Node25</title>
<g id="a_node26"><a xlink:href="_plot_ext_8h.html" target="_top" xlink:title="base/PlotExt.h">
<polygon fill="white" stroke="black" points="218.5,-180.5 218.5,-199.5 299.5,-199.5 299.5,-180.5 218.5,-180.5"/>
<text text-anchor="middle" x="259" y="-187.5" font-family="Helvetica,sans-Serif" font-size="10.00">base/PlotExt.h</text>
</a>
</g>
</g>
<!-- Node0&#45;&gt;Node25 -->
<g id="edge32" class="edge"><title>Node0&#45;&gt;Node25</title>
<path fill="none" stroke="midnightblue" d="M698.302,-244.465C602.446,-232.799 403.174,-208.547 309.599,-197.158"/>
<polygon fill="midnightblue" stroke="midnightblue" points="309.881,-193.667 299.532,-195.933 309.036,-200.615 309.881,-193.667"/>
</g>
<!-- Node26 -->
<g id="node27" class="node"><title>Node26</title>
<polygon fill="white" stroke="#bfbfbf" points="980,-180.5 980,-199.5 1034,-199.5 1034,-180.5 980,-180.5"/>
<text text-anchor="middle" x="1007" y="-187.5" font-family="Helvetica,sans-Serif" font-size="10.00">iostream</text>
</g>
<!-- Node0&#45;&gt;Node26 -->
<g id="edge37" class="edge"><title>Node0&#45;&gt;Node26</title>
<path fill="none" stroke="midnightblue" d="M805.767,-238.349C855.143,-226.731 926.997,-209.824 970.151,-199.67"/>
<polygon fill="midnightblue" stroke="midnightblue" points="971.018,-203.062 979.951,-197.365 969.415,-196.248 971.018,-203.062"/>
</g>
<!-- Node2 -->
<g id="node3" class="node"><title>Node2</title>
<polygon fill="white" stroke="#bfbfbf" points="426,-56.5 426,-75.5 470,-75.5 470,-56.5 426,-56.5"/>
<text text-anchor="middle" x="448" y="-63.5" font-family="Helvetica,sans-Serif" font-size="10.00">vector</text>
</g>
<!-- Node1&#45;&gt;Node2 -->
<g id="edge2" class="edge"><title>Node1&#45;&gt;Node2</title>
<path fill="none" stroke="midnightblue" d="M561.731,-180.49C569.476,-165.289 582.614,-133.088 568,-112 557.679,-97.107 511.917,-82.9495 479.989,-74.6199"/>
<polygon fill="midnightblue" stroke="midnightblue" points="480.725,-71.1958 470.171,-72.1268 479.002,-77.9805 480.725,-71.1958"/>
</g>
<!-- Node3 -->
<g id="node4" class="node"><title>Node3</title>
<polygon fill="white" stroke="#bfbfbf" points="894.5,-118.5 894.5,-137.5 923.5,-137.5 923.5,-118.5 894.5,-118.5"/>
<text text-anchor="middle" x="909" y="-125.5" font-family="Helvetica,sans-Serif" font-size="10.00">list</text>
</g>
<!-- Node1&#45;&gt;Node3 -->
<g id="edge3" class="edge"><title>Node1&#45;&gt;Node3</title>
<path fill="none" stroke="midnightblue" d="M601.514,-181.323C604.384,-180.864 607.232,-180.419 610,-180 729.696,-161.863 764.524,-180.348 880,-144 881.865,-143.413 883.755,-142.712 885.627,-141.937"/>
<polygon fill="midnightblue" stroke="midnightblue" points="887.131,-145.098 894.668,-137.653 884.133,-138.773 887.131,-145.098"/>
</g>
<!-- Node4 -->
<g id="node5" class="node"><title>Node4</title>
<g id="a_node5"><a xlink:href="vec2_8h.html" target="_top" xlink:title="base/vec/vec2.h">
<polygon fill="white" stroke="black" points="769.5,-56.5 769.5,-75.5 858.5,-75.5 858.5,-56.5 769.5,-56.5"/>
<text text-anchor="middle" x="814" y="-63.5" font-family="Helvetica,sans-Serif" font-size="10.00">base/vec/vec2.h</text>
</a>
</g>
</g>
<!-- Node1&#45;&gt;Node4 -->
<g id="edge4" class="edge"><title>Node1&#45;&gt;Node4</title>
<path fill="none" stroke="midnightblue" d="M601.524,-181.383C604.392,-180.91 607.236,-180.446 610,-180 662.375,-171.559 811.431,-184.242 846,-144 861.402,-126.07 844.139,-99.6876 829.614,-82.9292"/>
<polygon fill="midnightblue" stroke="midnightblue" points="832.194,-80.5642 822.858,-75.5546 827.032,-85.2926 832.194,-80.5642"/>
</g>
<!-- Node6 -->
<g id="node7" class="node"><title>Node6</title>
<polygon fill="white" stroke="#bfbfbf" points="507,-118.5 507,-137.5 559,-137.5 559,-118.5 507,-118.5"/>
<text text-anchor="middle" x="533" y="-125.5" font-family="Helvetica,sans-Serif" font-size="10.00">ostream</text>
</g>
<!-- Node1&#45;&gt;Node6 -->
<g id="edge6" class="edge"><title>Node1&#45;&gt;Node6</title>
<path fill="none" stroke="midnightblue" d="M553.561,-180.403C550.104,-171.76 544.668,-158.17 540.254,-147.134"/>
<polygon fill="midnightblue" stroke="midnightblue" points="543.396,-145.565 536.432,-137.581 536.897,-148.165 543.396,-145.565"/>
</g>
<!-- Node7 -->
<g id="node8" class="node"><title>Node7</title>
<g id="a_node8"><a xlink:href="_linear_8h.html" target="_top" xlink:title="base/math_functions\l/Linear.h">
<polygon fill="white" stroke="black" points="730.5,-113 730.5,-143 837.5,-143 837.5,-113 730.5,-113"/>
<text text-anchor="start" x="738.5" y="-131" font-family="Helvetica,sans-Serif" font-size="10.00">base/math_functions</text>
<text text-anchor="middle" x="784" y="-120" font-family="Helvetica,sans-Serif" font-size="10.00">/Linear.h</text>
</a>
</g>
</g>
<!-- Node1&#45;&gt;Node7 -->
<g id="edge7" class="edge"><title>Node1&#45;&gt;Node7</title>
<path fill="none" stroke="midnightblue" d="M589.524,-180.403C623.757,-171.355 678.499,-156.886 721.195,-145.6"/>
<polygon fill="midnightblue" stroke="midnightblue" points="722.164,-148.965 730.938,-143.025 720.375,-142.197 722.164,-148.965"/>
</g>
<!-- Node8 -->
<g id="node9" class="node"><title>Node8</title>
<g id="a_node9"><a xlink:href="interval_8h.html" target="_top" xlink:title="base/interval.h">
<polygon fill="white" stroke="black" points="151,-118.5 151,-137.5 231,-137.5 231,-118.5 151,-118.5"/>
<text text-anchor="middle" x="191" y="-125.5" font-family="Helvetica,sans-Serif" font-size="10.00">base/interval.h</text>
</a>
</g>
</g>
<!-- Node1&#45;&gt;Node8 -->
<g id="edge9" class="edge"><title>Node1&#45;&gt;Node8</title>
<path fill="none" stroke="midnightblue" d="M512.036,-181.901C456.874,-173.157 360.513,-157.767 278,-144 266.071,-142.01 253.23,-139.821 241.173,-137.746"/>
<polygon fill="midnightblue" stroke="midnightblue" points="241.716,-134.288 231.267,-136.036 240.526,-141.186 241.716,-134.288"/>
</g>
<!-- Node1&#45;&gt;Node15 -->
<g id="edge17" class="edge"><title>Node1&#45;&gt;Node15</title>
<path fill="none" stroke="midnightblue" d="M525.909,-180.403C487.719,-169.844 422.831,-151.903 380.701,-140.254"/>
<polygon fill="midnightblue" stroke="midnightblue" points="381.604,-136.872 371.033,-137.581 379.739,-143.619 381.604,-136.872"/>
</g>
<!-- Node16 -->
<g id="node17" class="node"><title>Node16</title>
<g id="a_node17"><a xlink:href="_wrap_t_tree_8h.html" target="_top" xlink:title="base/WrapTTree.h">
<polygon fill="white" stroke="black" points="615,-118.5 615,-137.5 713,-137.5 713,-118.5 615,-118.5"/>
<text text-anchor="middle" x="664" y="-125.5" font-family="Helvetica,sans-Serif" font-size="10.00">base/WrapTTree.h</text>
</a>
</g>
</g>
<!-- Node1&#45;&gt;Node16 -->
<g id="edge21" class="edge"><title>Node1&#45;&gt;Node16</title>
<path fill="none" stroke="midnightblue" d="M572.33,-180.403C589.97,-170.512 619.16,-154.144 639.858,-142.538"/>
<polygon fill="midnightblue" stroke="midnightblue" points="641.688,-145.524 648.698,-137.581 638.264,-139.419 641.688,-145.524"/>
</g>
<!-- Node20 -->
<g id="node21" class="node"><title>Node20</title>
<polygon fill="white" stroke="#bfbfbf" points="411.5,-118.5 411.5,-137.5 488.5,-137.5 488.5,-118.5 411.5,-118.5"/>
<text text-anchor="middle" x="450" y="-125.5" font-family="Helvetica,sans-Serif" font-size="10.00">APLCON.hpp</text>
</g>
<!-- Node1&#45;&gt;Node20 -->
<g id="edge27" class="edge"><title>Node1&#45;&gt;Node20</title>
<path fill="none" stroke="midnightblue" d="M541.67,-180.403C524.03,-170.512 494.84,-154.144 474.142,-142.538"/>
<polygon fill="midnightblue" stroke="midnightblue" points="475.736,-139.419 465.302,-137.581 472.312,-145.524 475.736,-139.419"/>
</g>
<!-- Node5 -->
<g id="node6" class="node"><title>Node5</title>
<polygon fill="white" stroke="#bfbfbf" points="366,-0.5 366,-19.5 410,-19.5 410,-0.5 366,-0.5"/>
<text text-anchor="middle" x="388" y="-7.5" font-family="Helvetica,sans-Serif" font-size="10.00">cmath</text>
</g>
<!-- Node4&#45;&gt;Node5 -->
<g id="edge5" class="edge"><title>Node4&#45;&gt;Node5</title>
<path fill="none" stroke="midnightblue" d="M769.235,-57.3806C766.112,-56.8979 763.01,-56.4327 760,-56 634.652,-37.982 484.839,-21.3463 420.245,-14.409"/>
<polygon fill="midnightblue" stroke="midnightblue" points="420.584,-10.9253 410.269,-13.3419 419.84,-17.8856 420.584,-10.9253"/>
</g>
<!-- Node7&#45;&gt;Node4 -->
<g id="edge8" class="edge"><title>Node7&#45;&gt;Node4</title>
<path fill="none" stroke="midnightblue" d="M791.11,-112.781C795.289,-104.422 800.611,-93.7773 805.072,-84.8565"/>
<polygon fill="midnightblue" stroke="midnightblue" points="808.293,-86.2401 809.635,-75.7305 802.032,-83.1095 808.293,-86.2401"/>
</g>
<!-- Node8&#45;&gt;Node5 -->
<g id="edge16" class="edge"><title>Node8&#45;&gt;Node5</title>
<path fill="none" stroke="midnightblue" d="M184.353,-118.095C174.346,-103.52 158.086,-74.3582 173,-56 195.655,-28.112 301.449,-16.8979 355.713,-12.9212"/>
<polygon fill="midnightblue" stroke="midnightblue" points="356.105,-16.4026 365.839,-12.2196 355.621,-9.41933 356.105,-16.4026"/>
</g>
<!-- Node9 -->
<g id="node10" class="node"><title>Node9</title>
<g id="a_node10"><a xlink:href="types_8h.html" target="_top" xlink:title="types.h">
<polygon fill="white" stroke="black" points="-0.5,-56.5 -0.5,-75.5 48.5,-75.5 48.5,-56.5 -0.5,-56.5"/>
<text text-anchor="middle" x="24" y="-63.5" font-family="Helvetica,sans-Serif" font-size="10.00">types.h</text>
</a>
</g>
</g>
<!-- Node8&#45;&gt;Node9 -->
<g id="edge10" class="edge"><title>Node8&#45;&gt;Node9</title>
<path fill="none" stroke="midnightblue" d="M167.073,-118.403C138.303,-108.067 89.8436,-90.6564 57.3983,-78.9994"/>
<polygon fill="midnightblue" stroke="midnightblue" points="58.4771,-75.668 47.8826,-75.5806 56.1102,-82.2557 58.4771,-75.668"/>
</g>
<!-- Node8&#45;&gt;Node10 -->
<g id="edge11" class="edge"><title>Node8&#45;&gt;Node10</title>
<path fill="none" stroke="midnightblue" d="M231.194,-119.483C245.887,-116.891 262.664,-114.111 278,-112 429.159,-91.1973 471.524,-101.999 625.495,-76.0409"/>
<polygon fill="midnightblue" stroke="midnightblue" points="626.535,-79.414 635.801,-74.2772 625.354,-72.5143 626.535,-79.414"/>
</g>
<!-- Node11 -->
<g id="node12" class="node"><title>Node11</title>
<polygon fill="white" stroke="#bfbfbf" points="66.5,-56.5 66.5,-75.5 125.5,-75.5 125.5,-56.5 66.5,-56.5"/>
<text text-anchor="middle" x="96" y="-63.5" font-family="Helvetica,sans-Serif" font-size="10.00">stdexcept</text>
</g>
<!-- Node8&#45;&gt;Node11 -->
<g id="edge12" class="edge"><title>Node8&#45;&gt;Node11</title>
<path fill="none" stroke="midnightblue" d="M177.389,-118.403C161.939,-108.646 136.51,-92.5854 118.184,-81.0109"/>
<polygon fill="midnightblue" stroke="midnightblue" points="119.91,-77.9613 109.586,-75.5806 116.172,-83.8798 119.91,-77.9613"/>
</g>
<!-- Node12 -->
<g id="node13" class="node"><title>Node12</title>
<polygon fill="white" stroke="#bfbfbf" points="320,-56.5 320,-75.5 360,-75.5 360,-56.5 320,-56.5"/>
<text text-anchor="middle" x="340" y="-63.5" font-family="Helvetica,sans-Serif" font-size="10.00">limits</text>
</g>
<!-- Node8&#45;&gt;Node12 -->
<g id="edge13" class="edge"><title>Node8&#45;&gt;Node12</title>
<path fill="none" stroke="midnightblue" d="M212.348,-118.403C237.973,-108.085 281.105,-90.7161 310.053,-79.0594"/>
<polygon fill="midnightblue" stroke="midnightblue" points="311.679,-82.1775 319.648,-75.1954 309.065,-75.6842 311.679,-82.1775"/>
</g>
<!-- Node13 -->
<g id="node14" class="node"><title>Node13</title>
<polygon fill="white" stroke="#bfbfbf" points="182.5,-56.5 182.5,-75.5 231.5,-75.5 231.5,-56.5 182.5,-56.5"/>
<text text-anchor="middle" x="207" y="-63.5" font-family="Helvetica,sans-Serif" font-size="10.00">istream</text>
</g>
<!-- Node8&#45;&gt;Node13 -->
<g id="edge14" class="edge"><title>Node8&#45;&gt;Node13</title>
<path fill="none" stroke="midnightblue" d="M193.292,-118.403C195.574,-109.849 199.147,-96.4497 202.073,-85.4762"/>
<polygon fill="midnightblue" stroke="midnightblue" points="205.517,-86.1448 204.712,-75.5806 198.753,-84.3411 205.517,-86.1448"/>
</g>
<!-- Node14 -->
<g id="node15" class="node"><title>Node14</title>
<polygon fill="white" stroke="#bfbfbf" points="250,-56.5 250,-75.5 302,-75.5 302,-56.5 250,-56.5"/>
<text text-anchor="middle" x="276" y="-63.5" font-family="Helvetica,sans-Serif" font-size="10.00">sstream</text>
</g>
<!-- Node8&#45;&gt;Node14 -->
<g id="edge15" class="edge"><title>Node8&#45;&gt;Node14</title>
<path fill="none" stroke="midnightblue" d="M203.178,-118.403C216.812,-108.78 239.132,-93.0242 255.474,-81.4891"/>
<polygon fill="midnightblue" stroke="midnightblue" points="257.693,-84.2069 263.844,-75.5806 253.656,-78.4881 257.693,-84.2069"/>
</g>
<!-- Node15&#45;&gt;Node2 -->
<g id="edge20" class="edge"><title>Node15&#45;&gt;Node2</title>
<path fill="none" stroke="midnightblue" d="M355.474,-118.403C373.278,-108.512 402.741,-92.1442 423.632,-80.5378"/>
<polygon fill="midnightblue" stroke="midnightblue" points="425.513,-83.4966 432.555,-75.5806 422.114,-77.3775 425.513,-83.4966"/>
</g>
<!-- Node15&#45;&gt;Node5 -->
<g id="edge18" class="edge"><title>Node15&#45;&gt;Node5</title>
<path fill="none" stroke="midnightblue" d="M345.787,-118.295C352.169,-108.391 362.405,-91.5686 369,-76 375.449,-60.7765 380.546,-42.6644 383.831,-29.4308"/>
<polygon fill="midnightblue" stroke="midnightblue" points="387.252,-30.1703 386.153,-19.6326 380.441,-28.5557 387.252,-30.1703"/>
</g>
<!-- Node15&#45;&gt;Node12 -->
<g id="edge19" class="edge"><title>Node15&#45;&gt;Node12</title>
<path fill="none" stroke="midnightblue" d="M340,-118.403C340,-109.938 340,-96.7283 340,-85.8199"/>
<polygon fill="midnightblue" stroke="midnightblue" points="343.5,-85.5806 340,-75.5806 336.5,-85.5806 343.5,-85.5806"/>
</g>
<!-- Node16&#45;&gt;Node2 -->
<g id="edge23" class="edge"><title>Node16&#45;&gt;Node2</title>
<path fill="none" stroke="midnightblue" d="M633.052,-118.403C592.295,-107.082 520.99,-87.2749 479.808,-75.8355"/>
<polygon fill="midnightblue" stroke="midnightblue" points="480.596,-72.4219 470.024,-73.1177 478.722,-79.1665 480.596,-72.4219"/>
</g>
<!-- Node16&#45;&gt;Node10 -->
<g id="edge25" class="edge"><title>Node16&#45;&gt;Node10</title>
<path fill="none" stroke="midnightblue" d="M664,-118.403C664,-109.938 664,-96.7283 664,-85.8199"/>
<polygon fill="midnightblue" stroke="midnightblue" points="667.5,-85.5806 664,-75.5806 660.5,-85.5806 667.5,-85.5806"/>
</g>
<!-- Node17 -->
<g id="node18" class="node"><title>Node17</title>
<polygon fill="white" stroke="#bfbfbf" points="568,-56.5 568,-75.5 618,-75.5 618,-56.5 568,-56.5"/>
<text text-anchor="middle" x="593" y="-63.5" font-family="Helvetica,sans-Serif" font-size="10.00">TTree.h</text>
</g>
<!-- Node16&#45;&gt;Node17 -->
<g id="edge22" class="edge"><title>Node16&#45;&gt;Node17</title>
<path fill="none" stroke="midnightblue" d="M653.827,-118.403C642.65,-108.958 624.483,-93.6056 610.909,-82.1342"/>
<polygon fill="midnightblue" stroke="midnightblue" points="613.051,-79.3619 603.154,-75.5806 608.533,-84.7085 613.051,-79.3619"/>
</g>
<!-- Node18 -->
<g id="node19" class="node"><title>Node18</title>
<polygon fill="white" stroke="#bfbfbf" points="710.5,-56.5 710.5,-75.5 751.5,-75.5 751.5,-56.5 710.5,-56.5"/>
<text text-anchor="middle" x="731" y="-63.5" font-family="Helvetica,sans-Serif" font-size="10.00">string</text>
</g>
<!-- Node16&#45;&gt;Node18 -->
<g id="edge24" class="edge"><title>Node16&#45;&gt;Node18</title>
<path fill="none" stroke="midnightblue" d="M673.599,-118.403C684.048,-109.047 700.968,-93.8948 713.736,-82.4599"/>
<polygon fill="midnightblue" stroke="midnightblue" points="716.304,-84.8592 721.418,-75.5806 711.634,-79.6445 716.304,-84.8592"/>
</g>
<!-- Node19 -->
<g id="node20" class="node"><title>Node19</title>
<polygon fill="white" stroke="#bfbfbf" points="498,-56.5 498,-75.5 550,-75.5 550,-56.5 498,-56.5"/>
<text text-anchor="middle" x="524" y="-63.5" font-family="Helvetica,sans-Serif" font-size="10.00">memory</text>
</g>
<!-- Node16&#45;&gt;Node19 -->
<g id="edge26" class="edge"><title>Node16&#45;&gt;Node19</title>
<path fill="none" stroke="midnightblue" d="M643.941,-118.403C620.238,-108.245 580.594,-91.2547 553.417,-79.6074"/>
<polygon fill="midnightblue" stroke="midnightblue" points="554.592,-76.3028 544.021,-75.5806 551.834,-82.7369 554.592,-76.3028"/>
</g>
<!-- Node25&#45;&gt;Node2 -->
<g id="edge34" class="edge"><title>Node25&#45;&gt;Node2</title>
<path fill="none" stroke="midnightblue" d="M258.487,-180.255C258.06,-164.385 259.561,-130.752 278,-112 297.083,-92.5927 372.048,-78.3902 415.797,-71.5566"/>
<polygon fill="midnightblue" stroke="midnightblue" points="416.572,-74.9792 425.934,-70.0178 415.522,-68.0585 416.572,-74.9792"/>
</g>
<!-- Node25&#45;&gt;Node8 -->
<g id="edge33" class="edge"><title>Node25&#45;&gt;Node8</title>
<path fill="none" stroke="midnightblue" d="M249.257,-180.403C238.653,-171.047 221.481,-155.895 208.521,-144.46"/>
<polygon fill="midnightblue" stroke="midnightblue" points="210.539,-141.572 200.725,-137.581 205.907,-146.821 210.539,-141.572"/>
</g>
</g>
</svg>
