<?xml version="1.0" encoding="UTF-8" standalone="no"?>
<!DOCTYPE svg PUBLIC "-//W3C//DTD SVG 1.1//EN"
 "http://www.w3.org/Graphics/SVG/1.1/DTD/svg11.dtd">
<!-- Generated by graphviz version 2.36.0 (20140111.2315)
 -->
<!-- Title: progs/detail/TPCSim_tools.h Pages: 1 -->
<svg width="872pt" height="220pt"
 viewBox="0.00 0.00 872.00 220.00" xmlns="http://www.w3.org/2000/svg" xmlns:xlink="http://www.w3.org/1999/xlink">
<g id="graph0" class="graph" transform="scale(1 1) rotate(0) translate(4 216)">
<title>progs/detail/TPCSim_tools.h</title>
<polygon fill="white" stroke="none" points="-4,4 -4,-216 868,-216 868,4 -4,4"/>
<!-- Node0 -->
<g id="node1" class="node"><title>Node0</title>
<polygon fill="#bfbfbf" stroke="black" points="505.5,-181 505.5,-211 612.5,-211 612.5,-181 505.5,-181"/>
<text text-anchor="start" x="513.5" y="-199" font-family="Helvetica,sans-Serif" font-size="10.00">progs/detail/TPCSim</text>
<text text-anchor="middle" x="559" y="-188" font-family="Helvetica,sans-Serif" font-size="10.00">_tools.h</text>
</g>
<!-- Node1 -->
<g id="node2" class="node"><title>Node1</title>
<polygon fill="white" stroke="#bfbfbf" points="19,-56.5 19,-75.5 63,-75.5 63,-56.5 19,-56.5"/>
<text text-anchor="middle" x="41" y="-63.5" font-family="Helvetica,sans-Serif" font-size="10.00">vector</text>
</g>
<!-- Node0&#45;&gt;Node1 -->
<g id="edge1" class="edge"><title>Node0&#45;&gt;Node1</title>
<path fill="none" stroke="midnightblue" d="M505.195,-193.399C431.855,-189.924 297.143,-178.909 188,-144 140.418,-128.781 89.8528,-98.8525 62.1754,-81.1231"/>
<polygon fill="midnightblue" stroke="midnightblue" points="63.996,-78.1321 53.704,-75.617 60.1812,-84.0013 63.996,-78.1321"/>
</g>
<!-- Node2 -->
<g id="node3" class="node"><title>Node2</title>
<polygon fill="white" stroke="#bfbfbf" points="669.5,-118.5 669.5,-137.5 698.5,-137.5 698.5,-118.5 669.5,-118.5"/>
<text text-anchor="middle" x="684" y="-125.5" font-family="Helvetica,sans-Serif" font-size="10.00">list</text>
</g>
<!-- Node0&#45;&gt;Node2 -->
<g id="edge2" class="edge"><title>Node0&#45;&gt;Node2</title>
<path fill="none" stroke="midnightblue" d="M585.816,-180.841C607.962,-169.148 639.098,-152.708 660.331,-141.497"/>
<polygon fill="midnightblue" stroke="midnightblue" points="662.113,-144.514 669.322,-136.75 658.845,-138.324 662.113,-144.514"/>
</g>
<!-- Node3 -->
<g id="node4" class="node"><title>Node3</title>
<g id="a_node4"><a xlink:href="vec2_8h.html" target="_top" xlink:title="base/vec/vec2.h">
<polygon fill="white" stroke="black" points="731.5,-56.5 731.5,-75.5 820.5,-75.5 820.5,-56.5 731.5,-56.5"/>
<text text-anchor="middle" x="776" y="-63.5" font-family="Helvetica,sans-Serif" font-size="10.00">base/vec/vec2.h</text>
</a>
</g>
</g>
<!-- Node0&#45;&gt;Node3 -->
<g id="edge3" class="edge"><title>Node0&#45;&gt;Node3</title>
<path fill="none" stroke="midnightblue" d="M576.277,-180.829C604.76,-157.48 658.683,-113.352 661,-112 685.037,-97.9802 714.261,-86.6092 737.234,-78.8049"/>
<polygon fill="midnightblue" stroke="midnightblue" points="738.592,-82.0425 746.985,-75.5775 736.392,-75.397 738.592,-82.0425"/>
</g>
<!-- Node5 -->
<g id="node6" class="node"><title>Node5</title>
<polygon fill="white" stroke="#bfbfbf" points="717,-118.5 717,-137.5 769,-137.5 769,-118.5 717,-118.5"/>
<text text-anchor="middle" x="743" y="-125.5" font-family="Helvetica,sans-Serif" font-size="10.00">ostream</text>
</g>
<!-- Node0&#45;&gt;Node5 -->
<g id="edge5" class="edge"><title>Node0&#45;&gt;Node5</title>
<path fill="none" stroke="midnightblue" d="M602.001,-180.978C631.675,-171.107 671.944,-157.328 707,-144 709.108,-143.198 711.277,-142.351 713.456,-141.485"/>
<polygon fill="midnightblue" stroke="midnightblue" points="714.967,-144.649 722.907,-137.634 712.326,-138.166 714.967,-144.649"/>
</g>
<!-- Node6 -->
<g id="node7" class="node"><title>Node6</title>
<g id="a_node7"><a xlink:href="_linear_8h.html" target="_top" xlink:title="base/math_functions\l/Linear.h">
<polygon fill="white" stroke="black" points="505.5,-113 505.5,-143 612.5,-143 612.5,-113 505.5,-113"/>
<text text-anchor="start" x="513.5" y="-131" font-family="Helvetica,sans-Serif" font-size="10.00">base/math_functions</text>
<text text-anchor="middle" x="559" y="-120" font-family="Helvetica,sans-Serif" font-size="10.00">/Linear.h</text>
</a>
</g>
</g>
<!-- Node0&#45;&gt;Node6 -->
<g id="edge6" class="edge"><title>Node0&#45;&gt;Node6</title>
<path fill="none" stroke="midnightblue" d="M559,-180.679C559,-172.722 559,-162.605 559,-153.436"/>
<polygon fill="midnightblue" stroke="midnightblue" points="562.5,-153.293 559,-143.293 555.5,-153.293 562.5,-153.293"/>
</g>
<!-- Node7 -->
<g id="node8" class="node"><title>Node7</title>
<g id="a_node8"><a xlink:href="interval_8h.html" target="_top" xlink:title="base/interval.h">
<polygon fill="white" stroke="black" points="407,-118.5 407,-137.5 487,-137.5 487,-118.5 407,-118.5"/>
<text text-anchor="middle" x="447" y="-125.5" font-family="Helvetica,sans-Serif" font-size="10.00">base/interval.h</text>
</a>
</g>
</g>
<!-- Node0&#45;&gt;Node7 -->
<g id="edge8" class="edge"><title>Node0&#45;&gt;Node7</title>
<path fill="none" stroke="midnightblue" d="M534.973,-180.841C515.948,-169.63 489.519,-154.056 470.604,-142.91"/>
<polygon fill="midnightblue" stroke="midnightblue" points="472.125,-139.743 461.733,-137.682 468.571,-145.774 472.125,-139.743"/>
</g>
<!-- Node14 -->
<g id="node15" class="node"><title>Node14</title>
<g id="a_node15"><a xlink:href="base_2std__ext_2math_8h.html" target="_top" xlink:title="base/std_ext/math.h">
<polygon fill="white" stroke="black" points="0,-118.5 0,-137.5 106,-137.5 106,-118.5 0,-118.5"/>
<text text-anchor="middle" x="53" y="-125.5" font-family="Helvetica,sans-Serif" font-size="10.00">base/std_ext/math.h</text>
</a>
</g>
</g>
<!-- Node0&#45;&gt;Node14 -->
<g id="edge16" class="edge"><title>Node0&#45;&gt;Node14</title>
<path fill="none" stroke="midnightblue" d="M505.381,-189.176C426.054,-180.389 272.806,-162.765 143,-144 133.006,-142.555 122.408,-140.9 112.127,-139.228"/>
<polygon fill="midnightblue" stroke="midnightblue" points="112.421,-135.73 101.985,-137.559 111.284,-142.637 112.421,-135.73"/>
</g>
<!-- Node15 -->
<g id="node16" class="node"><title>Node15</title>
<g id="a_node16"><a xlink:href="_wrap_t_tree_8h.html" target="_top" xlink:title="base/WrapTTree.h">
<polygon fill="white" stroke="black" points="197,-118.5 197,-137.5 295,-137.5 295,-118.5 197,-118.5"/>
<text text-anchor="middle" x="246" y="-125.5" font-family="Helvetica,sans-Serif" font-size="10.00">base/WrapTTree.h</text>
</a>
</g>
</g>
<!-- Node0&#45;&gt;Node15 -->
<g id="edge20" class="edge"><title>Node0&#45;&gt;Node15</title>
<path fill="none" stroke="midnightblue" d="M505.193,-183.654C446.658,-171.311 353.807,-151.732 296.573,-139.664"/>
<polygon fill="midnightblue" stroke="midnightblue" points="297.172,-136.213 286.665,-137.575 295.727,-143.063 297.172,-136.213"/>
</g>
<!-- Node19 -->
<g id="node20" class="node"><title>Node19</title>
<polygon fill="white" stroke="#bfbfbf" points="787.5,-118.5 787.5,-137.5 864.5,-137.5 864.5,-118.5 787.5,-118.5"/>
<text text-anchor="middle" x="826" y="-125.5" font-family="Helvetica,sans-Serif" font-size="10.00">APLCON.hpp</text>
</g>
<!-- Node0&#45;&gt;Node19 -->
<g id="edge26" class="edge"><title>Node0&#45;&gt;Node19</title>
<path fill="none" stroke="midnightblue" d="M612.829,-183.631C657.332,-173.952 722.065,-159.23 778,-144 781.916,-142.934 785.992,-141.76 790.042,-140.553"/>
<polygon fill="midnightblue" stroke="midnightblue" points="791.405,-143.797 799.946,-137.527 789.359,-137.102 791.405,-143.797"/>
</g>
<!-- Node4 -->
<g id="node5" class="node"><title>Node4</title>
<polygon fill="white" stroke="#bfbfbf" points="399,-0.5 399,-19.5 443,-19.5 443,-0.5 399,-0.5"/>
<text text-anchor="middle" x="421" y="-7.5" font-family="Helvetica,sans-Serif" font-size="10.00">cmath</text>
</g>
<!-- Node3&#45;&gt;Node4 -->
<g id="edge4" class="edge"><title>Node3&#45;&gt;Node4</title>
<path fill="none" stroke="midnightblue" d="M731.22,-57.4774C728.101,-56.9716 725.004,-56.4749 722,-56 624.389,-40.5703 508.743,-23.6669 453.515,-15.6789"/>
<polygon fill="midnightblue" stroke="midnightblue" points="453.696,-12.1688 443.298,-14.2033 452.695,-19.0969 453.696,-12.1688"/>
</g>
<!-- Node6&#45;&gt;Node3 -->
<g id="edge7" class="edge"><title>Node6&#45;&gt;Node3</title>
<path fill="none" stroke="midnightblue" d="M609.877,-112.933C648.072,-102.372 699.689,-88.0998 735.197,-78.282"/>
<polygon fill="midnightblue" stroke="midnightblue" points="736.507,-81.5512 745.212,-75.5127 734.641,-74.8043 736.507,-81.5512"/>
</g>
<!-- Node7&#45;&gt;Node4 -->
<g id="edge15" class="edge"><title>Node7&#45;&gt;Node4</title>
<path fill="none" stroke="midnightblue" d="M445.046,-118.281C440.828,-99.4631 430.794,-54.6971 425.111,-29.3399"/>
<polygon fill="midnightblue" stroke="midnightblue" points="428.509,-28.4972 422.906,-19.5048 421.678,-30.0282 428.509,-28.4972"/>
</g>
<!-- Node8 -->
<g id="node9" class="node"><title>Node8</title>
<g id="a_node9"><a xlink:href="types_8h.html" target="_top" xlink:title="types.h">
<polygon fill="white" stroke="black" points="587.5,-56.5 587.5,-75.5 636.5,-75.5 636.5,-56.5 587.5,-56.5"/>
<text text-anchor="middle" x="612" y="-63.5" font-family="Helvetica,sans-Serif" font-size="10.00">types.h</text>
</a>
</g>
</g>
<!-- Node7&#45;&gt;Node8 -->
<g id="edge9" class="edge"><title>Node7&#45;&gt;Node8</title>
<path fill="none" stroke="midnightblue" d="M470.64,-118.403C499.066,-108.067 546.945,-90.6564 579.002,-78.9994"/>
<polygon fill="midnightblue" stroke="midnightblue" points="580.202,-82.2874 588.403,-75.5806 577.809,-75.7088 580.202,-82.2874"/>
</g>
<!-- Node9 -->
<g id="node10" class="node"><title>Node9</title>
<polygon fill="white" stroke="#bfbfbf" points="337,-56.5 337,-75.5 393,-75.5 393,-56.5 337,-56.5"/>
<text text-anchor="middle" x="365" y="-63.5" font-family="Helvetica,sans-Serif" font-size="10.00">algorithm</text>
</g>
<!-- Node7&#45;&gt;Node9 -->
<g id="edge10" class="edge"><title>Node7&#45;&gt;Node9</title>
<path fill="none" stroke="midnightblue" d="M435.251,-118.403C422.099,-108.78 400.566,-93.0242 384.802,-81.4891"/>
<polygon fill="midnightblue" stroke="midnightblue" points="386.864,-78.6611 376.727,-75.5806 382.73,-84.3103 386.864,-78.6611"/>
</g>
<!-- Node10 -->
<g id="node11" class="node"><title>Node10</title>
<polygon fill="white" stroke="#bfbfbf" points="654.5,-56.5 654.5,-75.5 713.5,-75.5 713.5,-56.5 654.5,-56.5"/>
<text text-anchor="middle" x="684" y="-63.5" font-family="Helvetica,sans-Serif" font-size="10.00">stdexcept</text>
</g>
<!-- Node7&#45;&gt;Node10 -->
<g id="edge11" class="edge"><title>Node7&#45;&gt;Node10</title>
<path fill="none" stroke="midnightblue" d="M474.43,-118.473C481.741,-116.282 489.651,-113.985 497,-112 524.423,-104.593 597.988,-87.1561 644.253,-76.292"/>
<polygon fill="midnightblue" stroke="midnightblue" points="645.314,-79.6384 654.25,-73.9471 643.715,-72.8233 645.314,-79.6384"/>
</g>
<!-- Node11 -->
<g id="node12" class="node"><title>Node11</title>
<polygon fill="white" stroke="#bfbfbf" points="209,-56.5 209,-75.5 249,-75.5 249,-56.5 209,-56.5"/>
<text text-anchor="middle" x="229" y="-63.5" font-family="Helvetica,sans-Serif" font-size="10.00">limits</text>
</g>
<!-- Node7&#45;&gt;Node11 -->
<g id="edge12" class="edge"><title>Node7&#45;&gt;Node11</title>
<path fill="none" stroke="midnightblue" d="M413.778,-118.437C377.871,-109.093 318.741,-93.4516 258.865,-76.1768"/>
<polygon fill="midnightblue" stroke="midnightblue" points="259.832,-72.8129 249.252,-73.391 257.883,-79.5362 259.832,-72.8129"/>
</g>
<!-- Node12 -->
<g id="node13" class="node"><title>Node12</title>
<polygon fill="white" stroke="#bfbfbf" points="449.5,-56.5 449.5,-75.5 498.5,-75.5 498.5,-56.5 449.5,-56.5"/>
<text text-anchor="middle" x="474" y="-63.5" font-family="Helvetica,sans-Serif" font-size="10.00">istream</text>
</g>
<!-- Node7&#45;&gt;Node12 -->
<g id="edge13" class="edge"><title>Node7&#45;&gt;Node12</title>
<path fill="none" stroke="midnightblue" d="M450.868,-118.403C454.798,-109.671 461,-95.8893 465.993,-84.7936"/>
<polygon fill="midnightblue" stroke="midnightblue" points="469.227,-86.1361 470.139,-75.5806 462.843,-83.2635 469.227,-86.1361"/>
</g>
<!-- Node13 -->
<g id="node14" class="node"><title>Node13</title>
<polygon fill="white" stroke="#bfbfbf" points="517,-56.5 517,-75.5 569,-75.5 569,-56.5 517,-56.5"/>
<text text-anchor="middle" x="543" y="-63.5" font-family="Helvetica,sans-Serif" font-size="10.00">sstream</text>
</g>
<!-- Node7&#45;&gt;Node13 -->
<g id="edge14" class="edge"><title>Node7&#45;&gt;Node13</title>
<path fill="none" stroke="midnightblue" d="M460.754,-118.403C476.366,-108.646 502.063,-92.5854 520.583,-81.0109"/>
<polygon fill="midnightblue" stroke="midnightblue" points="522.646,-83.8486 529.271,-75.5806 518.936,-77.9126 522.646,-83.8486"/>
</g>
<!-- Node14&#45;&gt;Node1 -->
<g id="edge19" class="edge"><title>Node14&#45;&gt;Node1</title>
<path fill="none" stroke="midnightblue" d="M51.2807,-118.403C49.5698,-109.849 46.8899,-96.4497 44.6952,-85.4762"/>
<polygon fill="midnightblue" stroke="midnightblue" points="48.1094,-84.7 42.7161,-75.5806 41.2453,-86.0728 48.1094,-84.7"/>
</g>
<!-- Node14&#45;&gt;Node4 -->
<g id="edge17" class="edge"><title>Node14&#45;&gt;Node4</title>
<path fill="none" stroke="midnightblue" d="M41.0998,-118.454C22.9146,-104.395 -7.89218,-75.9581 10,-56 35.1766,-27.9163 296.05,-15.614 388.631,-12.1098"/>
<polygon fill="midnightblue" stroke="midnightblue" points="388.947,-15.6006 398.811,-11.7345 388.689,-8.60535 388.947,-15.6006"/>
</g>
<!-- Node14&#45;&gt;Node11 -->
<g id="edge18" class="edge"><title>Node14&#45;&gt;Node11</title>
<path fill="none" stroke="midnightblue" d="M78.2165,-118.403C110.088,-107.538 164.885,-88.8573 198.91,-77.2579"/>
<polygon fill="midnightblue" stroke="midnightblue" points="200.418,-80.4416 208.754,-73.902 198.16,-73.816 200.418,-80.4416"/>
</g>
<!-- Node15&#45;&gt;Node1 -->
<g id="edge22" class="edge"><title>Node15&#45;&gt;Node1</title>
<path fill="none" stroke="midnightblue" d="M216.628,-118.403C178.436,-107.225 111.98,-87.7747 72.6848,-76.2736"/>
<polygon fill="midnightblue" stroke="midnightblue" points="73.6575,-72.9115 63.077,-73.4616 71.6912,-79.6297 73.6575,-72.9115"/>
</g>
<!-- Node15&#45;&gt;Node9 -->
<g id="edge24" class="edge"><title>Node15&#45;&gt;Node9</title>
<path fill="none" stroke="midnightblue" d="M263.05,-118.403C282.844,-108.423 315.717,-91.8487 338.77,-80.2253"/>
<polygon fill="midnightblue" stroke="midnightblue" points="340.628,-83.208 347.982,-75.5806 337.477,-76.9575 340.628,-83.208"/>
</g>
<!-- Node16 -->
<g id="node17" class="node"><title>Node16</title>
<polygon fill="white" stroke="#bfbfbf" points="81,-56.5 81,-75.5 131,-75.5 131,-56.5 81,-56.5"/>
<text text-anchor="middle" x="106" y="-63.5" font-family="Helvetica,sans-Serif" font-size="10.00">TTree.h</text>
</g>
<!-- Node15&#45;&gt;Node16 -->
<g id="edge21" class="edge"><title>Node15&#45;&gt;Node16</title>
<path fill="none" stroke="midnightblue" d="M225.941,-118.403C202.238,-108.245 162.594,-91.2547 135.417,-79.6074"/>
<polygon fill="midnightblue" stroke="midnightblue" points="136.592,-76.3028 126.021,-75.5806 133.834,-82.7369 136.592,-76.3028"/>
</g>
<!-- Node17 -->
<g id="node18" class="node"><title>Node17</title>
<polygon fill="white" stroke="#bfbfbf" points="149.5,-56.5 149.5,-75.5 190.5,-75.5 190.5,-56.5 149.5,-56.5"/>
<text text-anchor="middle" x="170" y="-63.5" font-family="Helvetica,sans-Serif" font-size="10.00">string</text>
</g>
<!-- Node15&#45;&gt;Node17 -->
<g id="edge23" class="edge"><title>Node15&#45;&gt;Node17</title>
<path fill="none" stroke="midnightblue" d="M235.111,-118.403C223.034,-108.869 203.333,-93.3154 188.76,-81.8106"/>
<polygon fill="midnightblue" stroke="midnightblue" points="190.886,-79.03 180.869,-75.5806 186.549,-84.5242 190.886,-79.03"/>
</g>
<!-- Node18 -->
<g id="node19" class="node"><title>Node18</title>
<polygon fill="white" stroke="#bfbfbf" points="267,-56.5 267,-75.5 319,-75.5 319,-56.5 267,-56.5"/>
<text text-anchor="middle" x="293" y="-63.5" font-family="Helvetica,sans-Serif" font-size="10.00">memory</text>
</g>
<!-- Node15&#45;&gt;Node18 -->
<g id="edge25" class="edge"><title>Node15&#45;&gt;Node18</title>
<path fill="none" stroke="midnightblue" d="M252.734,-118.403C259.784,-109.403 271.035,-95.0408 279.854,-83.7824"/>
<polygon fill="midnightblue" stroke="midnightblue" points="282.867,-85.6112 286.279,-75.5806 277.357,-81.2946 282.867,-85.6112"/>
</g>
</g>
</svg>
