<?xml version="1.0" encoding="UTF-8" standalone="no"?>
<!DOCTYPE svg PUBLIC "-//W3C//DTD SVG 1.1//EN"
 "http://www.w3.org/Graphics/SVG/1.1/DTD/svg11.dtd">
<!-- Generated by graphviz version 2.36.0 (20140111.2315)
 -->
<!-- Title: progs/detail/TPCSim_tools.h Pages: 1 -->
<svg width="227pt" height="108pt"
 viewBox="0.00 0.00 227.00 108.00" xmlns="http://www.w3.org/2000/svg" xmlns:xlink="http://www.w3.org/1999/xlink">
<g id="graph0" class="graph" transform="scale(1 1) rotate(0) translate(4 104)">
<title>progs/detail/TPCSim_tools.h</title>
<polygon fill="white" stroke="none" points="-4,4 -4,-104 223,-104 223,4 -4,4"/>
<!-- Node20 -->
<g id="node1" class="node"><title>Node20</title>
<polygon fill="#bfbfbf" stroke="black" points="58.5,-69 58.5,-99 165.5,-99 165.5,-69 58.5,-69"/>
<text text-anchor="start" x="66.5" y="-87" font-family="Helvetica,sans-Serif" font-size="10.00">progs/detail/TPCSim</text>
<text text-anchor="middle" x="112" y="-76" font-family="Helvetica,sans-Serif" font-size="10.00">_tools.h</text>
</g>
<!-- Node21 -->
<g id="node2" class="node"><title>Node21</title>
<g id="a_node2"><a xlink:href="_t_p_c_sim__tools_8cc.html" target="_top" xlink:title="progs/detail/TPCSim\l_tools.cc">
<polygon fill="white" stroke="black" points="-0.5,-1 -0.5,-31 106.5,-31 106.5,-1 -0.5,-1"/>
<text text-anchor="start" x="7.5" y="-19" font-family="Helvetica,sans-Serif" font-size="10.00">progs/detail/TPCSim</text>
<text text-anchor="middle" x="53" y="-8" font-family="Helvetica,sans-Serif" font-size="10.00">_tools.cc</text>
</a>
</g>
</g>
<!-- Node20&#45;&gt;Node21 -->
<g id="edge1" class="edge"><title>Node20&#45;&gt;Node21</title>
<path fill="none" stroke="midnightblue" d="M92.5066,-61.1939C83.7162,-51.3605 73.5809,-40.0228 65.7771,-31.2931"/>
<polygon fill="midnightblue" stroke="midnightblue" points="89.9238,-63.5562 99.1979,-68.679 95.1426,-58.891 89.9238,-63.5562"/>
</g>
<!-- Node22 -->
<g id="node3" class="node"><title>Node22</title>
<g id="a_node3"><a xlink:href="_t_p_c_sim_8cc.html" target="_top" xlink:title="progs/TPCSim.cc">
<polygon fill="white" stroke="black" points="124.5,-6.5 124.5,-25.5 219.5,-25.5 219.5,-6.5 124.5,-6.5"/>
<text text-anchor="middle" x="172" y="-13.5" font-family="Helvetica,sans-Serif" font-size="10.00">progs/TPCSim.cc</text>
</a>
</g>
</g>
<!-- Node20&#45;&gt;Node22 -->
<g id="edge2" class="edge"><title>Node20&#45;&gt;Node22</title>
<path fill="none" stroke="midnightblue" d="M131.849,-61.1658C142.801,-49.119 155.799,-34.8216 163.974,-25.8283"/>
<polygon fill="midnightblue" stroke="midnightblue" points="129.156,-58.9252 125.019,-68.679 134.336,-63.6339 129.156,-58.9252"/>
</g>
</g>
</svg>
