<?xml version="1.0" encoding="UTF-8" standalone="no"?>
<!DOCTYPE svg PUBLIC "-//W3C//DTD SVG 1.1//EN"
 "http://www.w3.org/Graphics/SVG/1.1/DTD/svg11.dtd">
<!-- Generated by graphviz version 2.36.0 (20140111.2315)
 -->
<!-- Title: src/tree/TSlowControl.h Pages: 1 -->
<svg width="637pt" height="252pt"
 viewBox="0.00 0.00 637.00 252.00" xmlns="http://www.w3.org/2000/svg" xmlns:xlink="http://www.w3.org/1999/xlink">
<g id="graph0" class="graph" transform="scale(1 1) rotate(0) translate(4 248)">
<title>src/tree/TSlowControl.h</title>
<polygon fill="white" stroke="none" points="-4,4 -4,-248 633,-248 633,4 -4,4"/>
<!-- Node0 -->
<g id="node1" class="node"><title>Node0</title>
<polygon fill="#bfbfbf" stroke="black" points="366,-224.5 366,-243.5 486,-243.5 486,-224.5 366,-224.5"/>
<text text-anchor="middle" x="426" y="-231.5" font-family="Helvetica,sans-Serif" font-size="10.00">src/tree/TSlowControl.h</text>
</g>
<!-- Node1 -->
<g id="node2" class="node"><title>Node1</title>
<g id="a_node2"><a xlink:href="_t_i_d_8h.html" target="_top" xlink:title="TID.h">
<polygon fill="white" stroke="black" points="361.5,-168.5 361.5,-187.5 402.5,-187.5 402.5,-168.5 361.5,-168.5"/>
<text text-anchor="middle" x="382" y="-175.5" font-family="Helvetica,sans-Serif" font-size="10.00">TID.h</text>
</a>
</g>
</g>
<!-- Node0&#45;&gt;Node1 -->
<g id="edge1" class="edge"><title>Node0&#45;&gt;Node1</title>
<path fill="none" stroke="midnightblue" d="M418.734,-224.083C412.455,-216.377 403.212,-205.033 395.569,-195.653"/>
<polygon fill="midnightblue" stroke="midnightblue" points="398.161,-193.293 389.131,-187.751 392.734,-197.714 398.161,-193.293"/>
</g>
<!-- Node3 -->
<g id="node4" class="node"><title>Node3</title>
<g id="a_node4"><a xlink:href="base_2std__ext_2_time_8h.html" target="_top" xlink:title="base/std_ext/time.h">
<polygon fill="white" stroke="black" points="21.5,-112.5 21.5,-131.5 124.5,-131.5 124.5,-112.5 21.5,-112.5"/>
<text text-anchor="middle" x="73" y="-119.5" font-family="Helvetica,sans-Serif" font-size="10.00">base/std_ext/time.h</text>
</a>
</g>
</g>
<!-- Node0&#45;&gt;Node3 -->
<g id="edge18" class="edge"><title>Node0&#45;&gt;Node3</title>
<path fill="none" stroke="midnightblue" d="M398.594,-224.46C335.909,-204.926 181.989,-156.963 110.552,-134.702"/>
<polygon fill="midnightblue" stroke="midnightblue" points="111.22,-131.244 100.632,-131.61 109.137,-137.927 111.22,-131.244"/>
</g>
<!-- Node12 -->
<g id="node13" class="node"><title>Node12</title>
<polygon fill="white" stroke="#bfbfbf" points="527,-112.5 527,-131.5 565,-131.5 565,-112.5 527,-112.5"/>
<text text-anchor="middle" x="546" y="-119.5" font-family="Helvetica,sans-Serif" font-size="10.00">tuple</text>
</g>
<!-- Node0&#45;&gt;Node12 -->
<g id="edge20" class="edge"><title>Node0&#45;&gt;Node12</title>
<path fill="none" stroke="midnightblue" d="M435.416,-224.368C455.658,-205.814 503.55,-161.913 529.159,-138.438"/>
<polygon fill="midnightblue" stroke="midnightblue" points="531.621,-140.929 536.628,-131.591 526.891,-135.769 531.621,-140.929"/>
</g>
<!-- Node13 -->
<g id="node14" class="node"><title>Node13</title>
<polygon fill="white" stroke="#bfbfbf" points="583,-112.5 583,-131.5 629,-131.5 629,-112.5 583,-112.5"/>
<text text-anchor="middle" x="606" y="-119.5" font-family="Helvetica,sans-Serif" font-size="10.00">cstdint</text>
</g>
<!-- Node0&#45;&gt;Node13 -->
<g id="edge19" class="edge"><title>Node0&#45;&gt;Node13</title>
<path fill="none" stroke="midnightblue" d="M440.196,-224.389C455.1,-215.343 479.211,-200.695 500,-188 528.727,-170.458 561.784,-150.171 583.239,-136.991"/>
<polygon fill="midnightblue" stroke="midnightblue" points="585.262,-139.856 591.95,-131.638 581.598,-133.891 585.262,-139.856"/>
</g>
<!-- Node2 -->
<g id="node3" class="node"><title>Node2</title>
<polygon fill="white" stroke="#bfbfbf" points="335,-112.5 335,-131.5 391,-131.5 391,-112.5 335,-112.5"/>
<text text-anchor="middle" x="363" y="-119.5" font-family="Helvetica,sans-Serif" font-size="10.00">Rtypes.h</text>
</g>
<!-- Node1&#45;&gt;Node2 -->
<g id="edge2" class="edge"><title>Node1&#45;&gt;Node2</title>
<path fill="none" stroke="midnightblue" d="M378.863,-168.083C376.317,-160.849 372.644,-150.409 369.473,-141.397"/>
<polygon fill="midnightblue" stroke="midnightblue" points="372.7,-140.023 366.079,-131.751 366.097,-142.346 372.7,-140.023"/>
</g>
<!-- Node1&#45;&gt;Node3 -->
<g id="edge3" class="edge"><title>Node1&#45;&gt;Node3</title>
<path fill="none" stroke="midnightblue" d="M361.246,-173.373C314.945,-165.282 201.791,-145.507 131.819,-133.279"/>
<polygon fill="midnightblue" stroke="midnightblue" points="132.275,-129.806 121.822,-131.532 131.07,-136.701 132.275,-129.806"/>
</g>
<!-- Node10 -->
<g id="node11" class="node"><title>Node10</title>
<polygon fill="white" stroke="#bfbfbf" points="295.5,-56.5 295.5,-75.5 336.5,-75.5 336.5,-56.5 295.5,-56.5"/>
<text text-anchor="middle" x="316" y="-63.5" font-family="Helvetica,sans-Serif" font-size="10.00">ctime</text>
</g>
<!-- Node1&#45;&gt;Node10 -->
<g id="edge17" class="edge"><title>Node1&#45;&gt;Node10</title>
<path fill="none" stroke="midnightblue" d="M388.162,-168.419C396.686,-155.399 409.86,-130.241 399,-112 387.628,-92.8982 365.009,-81.4059 346.253,-74.8216"/>
<polygon fill="midnightblue" stroke="midnightblue" points="347.193,-71.4476 336.602,-71.7314 345.058,-78.1142 347.193,-71.4476"/>
</g>
<!-- Node11 -->
<g id="node12" class="node"><title>Node11</title>
<polygon fill="white" stroke="#bfbfbf" points="447,-112.5 447,-131.5 509,-131.5 509,-112.5 447,-112.5"/>
<text text-anchor="middle" x="478" y="-119.5" font-family="Helvetica,sans-Serif" font-size="10.00">type_traits</text>
</g>
<!-- Node1&#45;&gt;Node11 -->
<g id="edge11" class="edge"><title>Node1&#45;&gt;Node11</title>
<path fill="none" stroke="midnightblue" d="M397.424,-168.324C412.54,-159.822 435.815,-146.729 453.471,-136.797"/>
<polygon fill="midnightblue" stroke="midnightblue" points="455.614,-139.608 462.614,-131.655 452.183,-133.507 455.614,-139.608"/>
</g>
<!-- Node1&#45;&gt;Node12 -->
<g id="edge12" class="edge"><title>Node1&#45;&gt;Node12</title>
<path fill="none" stroke="midnightblue" d="M402.771,-170.161C431.703,-160.634 484.262,-143.328 517.032,-132.538"/>
<polygon fill="midnightblue" stroke="midnightblue" points="518.518,-135.734 526.921,-129.282 516.328,-129.085 518.518,-135.734"/>
</g>
<!-- Node1&#45;&gt;Node13 -->
<g id="edge13" class="edge"><title>Node1&#45;&gt;Node13</title>
<path fill="none" stroke="midnightblue" d="M402.532,-172.499C436.086,-165.077 504.975,-149.564 572.944,-132.187"/>
<polygon fill="midnightblue" stroke="midnightblue" points="574.148,-135.491 582.961,-129.61 572.404,-128.712 574.148,-135.491"/>
</g>
<!-- Node14 -->
<g id="node15" class="node"><title>Node14</title>
<polygon fill="white" stroke="#bfbfbf" points="142.5,-112.5 142.5,-131.5 201.5,-131.5 201.5,-112.5 142.5,-112.5"/>
<text text-anchor="middle" x="172" y="-119.5" font-family="Helvetica,sans-Serif" font-size="10.00">stdexcept</text>
</g>
<!-- Node1&#45;&gt;Node14 -->
<g id="edge14" class="edge"><title>Node1&#45;&gt;Node14</title>
<path fill="none" stroke="midnightblue" d="M361.482,-171.724C326.821,-162.811 256.106,-144.627 211.548,-133.169"/>
<polygon fill="midnightblue" stroke="midnightblue" points="212.197,-129.723 201.641,-130.622 210.454,-136.502 212.197,-129.723"/>
</g>
<!-- Node15 -->
<g id="node16" class="node"><title>Node15</title>
<polygon fill="white" stroke="#bfbfbf" points="219.5,-112.5 219.5,-131.5 248.5,-131.5 248.5,-112.5 219.5,-112.5"/>
<text text-anchor="middle" x="234" y="-119.5" font-family="Helvetica,sans-Serif" font-size="10.00">list</text>
</g>
<!-- Node1&#45;&gt;Node15 -->
<g id="edge15" class="edge"><title>Node1&#45;&gt;Node15</title>
<path fill="none" stroke="midnightblue" d="M361.351,-169.583C338.452,-161.34 300.187,-147.519 258.28,-132.076"/>
<polygon fill="midnightblue" stroke="midnightblue" points="259.307,-128.725 248.714,-128.546 256.884,-135.292 259.307,-128.725"/>
</g>
<!-- Node16 -->
<g id="node17" class="node"><title>Node16</title>
<polygon fill="white" stroke="#bfbfbf" points="267,-112.5 267,-131.5 317,-131.5 317,-112.5 267,-112.5"/>
<text text-anchor="middle" x="292" y="-119.5" font-family="Helvetica,sans-Serif" font-size="10.00">iomanip</text>
</g>
<!-- Node1&#45;&gt;Node16 -->
<g id="edge16" class="edge"><title>Node1&#45;&gt;Node16</title>
<path fill="none" stroke="midnightblue" d="M367.54,-168.324C353.5,-159.9 331.952,-146.971 315.457,-137.074"/>
<polygon fill="midnightblue" stroke="midnightblue" points="316.8,-133.798 306.424,-131.655 313.198,-139.801 316.8,-133.798"/>
</g>
<!-- Node4 -->
<g id="node5" class="node"><title>Node4</title>
<g id="a_node5"><a xlink:href="string_8h.html" target="_top" xlink:title="base/std_ext/string.h">
<polygon fill="white" stroke="black" points="67,-56.5 67,-75.5 175,-75.5 175,-56.5 67,-56.5"/>
<text text-anchor="middle" x="121" y="-63.5" font-family="Helvetica,sans-Serif" font-size="10.00">base/std_ext/string.h</text>
</a>
</g>
</g>
<!-- Node3&#45;&gt;Node4 -->
<g id="edge4" class="edge"><title>Node3&#45;&gt;Node4</title>
<path fill="none" stroke="midnightblue" d="M80.9262,-112.083C87.8461,-104.298 98.0654,-92.8015 106.452,-83.3665"/>
<polygon fill="midnightblue" stroke="midnightblue" points="109.194,-85.5505 113.221,-75.7511 103.962,-80.8999 109.194,-85.5505"/>
</g>
<!-- Node9 -->
<g id="node10" class="node"><title>Node9</title>
<polygon fill="white" stroke="#bfbfbf" points="3,-56.5 3,-75.5 49,-75.5 49,-56.5 3,-56.5"/>
<text text-anchor="middle" x="26" y="-63.5" font-family="Helvetica,sans-Serif" font-size="10.00">cstring</text>
</g>
<!-- Node3&#45;&gt;Node9 -->
<g id="edge9" class="edge"><title>Node3&#45;&gt;Node9</title>
<path fill="none" stroke="midnightblue" d="M65.2389,-112.083C58.4632,-104.298 48.4568,-92.8015 40.2449,-83.3665"/>
<polygon fill="midnightblue" stroke="midnightblue" points="42.822,-80.9963 33.6167,-75.7511 37.5419,-85.592 42.822,-80.9963"/>
</g>
<!-- Node3&#45;&gt;Node10 -->
<g id="edge10" class="edge"><title>Node3&#45;&gt;Node10</title>
<path fill="none" stroke="midnightblue" d="M111.504,-112.444C159.699,-101.734 241.268,-83.6072 285.417,-73.7961"/>
<polygon fill="midnightblue" stroke="midnightblue" points="286.275,-77.191 295.278,-71.6049 284.757,-70.3576 286.275,-77.191"/>
</g>
<!-- Node5 -->
<g id="node6" class="node"><title>Node5</title>
<polygon fill="white" stroke="#bfbfbf" points="-0.5,-0.5 -0.5,-19.5 40.5,-19.5 40.5,-0.5 -0.5,-0.5"/>
<text text-anchor="middle" x="20" y="-7.5" font-family="Helvetica,sans-Serif" font-size="10.00">string</text>
</g>
<!-- Node4&#45;&gt;Node5 -->
<g id="edge5" class="edge"><title>Node4&#45;&gt;Node5</title>
<path fill="none" stroke="midnightblue" d="M104.773,-56.324C88.649,-47.7034 63.6998,-34.3643 45.0359,-24.3855"/>
<polygon fill="midnightblue" stroke="midnightblue" points="46.6561,-21.283 36.1871,-19.6545 43.3556,-27.456 46.6561,-21.283"/>
</g>
<!-- Node6 -->
<g id="node7" class="node"><title>Node6</title>
<polygon fill="white" stroke="#bfbfbf" points="59,-0.5 59,-19.5 111,-19.5 111,-0.5 59,-0.5"/>
<text text-anchor="middle" x="85" y="-7.5" font-family="Helvetica,sans-Serif" font-size="10.00">sstream</text>
</g>
<!-- Node4&#45;&gt;Node6 -->
<g id="edge6" class="edge"><title>Node4&#45;&gt;Node6</title>
<path fill="none" stroke="midnightblue" d="M115.055,-56.083C110.023,-48.5341 102.663,-37.4948 96.4865,-28.2298"/>
<polygon fill="midnightblue" stroke="midnightblue" points="99.2933,-26.1301 90.8341,-19.7511 93.4689,-30.0131 99.2933,-26.1301"/>
</g>
<!-- Node7 -->
<g id="node8" class="node"><title>Node7</title>
<polygon fill="white" stroke="#bfbfbf" points="129,-0.5 129,-19.5 185,-19.5 185,-0.5 129,-0.5"/>
<text text-anchor="middle" x="157" y="-7.5" font-family="Helvetica,sans-Serif" font-size="10.00">algorithm</text>
</g>
<!-- Node4&#45;&gt;Node7 -->
<g id="edge7" class="edge"><title>Node4&#45;&gt;Node7</title>
<path fill="none" stroke="midnightblue" d="M126.945,-56.083C131.977,-48.5341 139.337,-37.4948 145.513,-28.2298"/>
<polygon fill="midnightblue" stroke="midnightblue" points="148.531,-30.0131 151.166,-19.7511 142.707,-26.1301 148.531,-30.0131"/>
</g>
<!-- Node8 -->
<g id="node9" class="node"><title>Node8</title>
<polygon fill="white" stroke="#bfbfbf" points="203,-0.5 203,-19.5 247,-19.5 247,-0.5 203,-0.5"/>
<text text-anchor="middle" x="225" y="-7.5" font-family="Helvetica,sans-Serif" font-size="10.00">vector</text>
</g>
<!-- Node4&#45;&gt;Node8 -->
<g id="edge8" class="edge"><title>Node4&#45;&gt;Node8</title>
<path fill="none" stroke="midnightblue" d="M137.709,-56.324C154.312,-47.7034 180.002,-34.3643 199.22,-24.3855"/>
<polygon fill="midnightblue" stroke="midnightblue" points="201.07,-27.3689 208.332,-19.6545 197.844,-21.1565 201.07,-27.3689"/>
</g>
</g>
</svg>
