<?xml version="1.0" encoding="UTF-8" standalone="no"?>
<!DOCTYPE svg PUBLIC "-//W3C//DTD SVG 1.1//EN"
 "http://www.w3.org/Graphics/SVG/1.1/DTD/svg11.dtd">
<!-- Generated by graphviz version 2.36.0 (20140111.2315)
 -->
<!-- Title: src/tree/TSimpleParticle.h Pages: 1 -->
<svg width="1755pt" height="488pt"
 viewBox="0.00 0.00 1755.00 488.00" xmlns="http://www.w3.org/2000/svg" xmlns:xlink="http://www.w3.org/1999/xlink">
<g id="graph0" class="graph" transform="scale(1 1) rotate(0) translate(4 484)">
<title>src/tree/TSimpleParticle.h</title>
<polygon fill="white" stroke="none" points="-4,4 -4,-484 1751,-484 1751,4 -4,4"/>
<!-- Node0 -->
<g id="node1" class="node"><title>Node0</title>
<polygon fill="#bfbfbf" stroke="black" points="836,-460.5 836,-479.5 966,-479.5 966,-460.5 836,-460.5"/>
<text text-anchor="middle" x="901" y="-467.5" font-family="Helvetica,sans-Serif" font-size="10.00">src/tree/TSimpleParticle.h</text>
</g>
<!-- Node1 -->
<g id="node2" class="node"><title>Node1</title>
<g id="a_node2"><a xlink:href="_t_particle_8h.html" target="_top" xlink:title="TParticle.h">
<polygon fill="white" stroke="black" points="752,-404.5 752,-423.5 816,-423.5 816,-404.5 752,-404.5"/>
<text text-anchor="middle" x="784" y="-411.5" font-family="Helvetica,sans-Serif" font-size="10.00">TParticle.h</text>
</a>
</g>
</g>
<!-- Node0&#45;&gt;Node1 -->
<g id="edge1" class="edge"><title>Node0&#45;&gt;Node1</title>
<path fill="none" stroke="midnightblue" d="M882.461,-460.444C863.377,-451.636 833.425,-437.812 811.564,-427.722"/>
<polygon fill="midnightblue" stroke="midnightblue" points="812.999,-424.529 802.452,-423.516 810.065,-430.885 812.999,-424.529"/>
</g>
<!-- Node24 -->
<g id="node25" class="node"><title>Node24</title>
<polygon fill="white" stroke="#bfbfbf" points="923,-168.5 923,-187.5 979,-187.5 979,-168.5 923,-168.5"/>
<text text-anchor="middle" x="951" y="-175.5" font-family="Helvetica,sans-Serif" font-size="10.00">algorithm</text>
</g>
<!-- Node0&#45;&gt;Node24 -->
<g id="edge77" class="edge"><title>Node0&#45;&gt;Node24</title>
<path fill="none" stroke="midnightblue" d="M897.224,-460.351C889.581,-442.034 873,-397.821 873,-359 873,-359 873,-359 873,-301 873,-256.699 909.961,-215.579 932.997,-194.252"/>
<polygon fill="midnightblue" stroke="midnightblue" points="935.358,-196.836 940.481,-187.562 930.693,-191.617 935.358,-196.836"/>
</g>
<!-- Node41 -->
<g id="node42" class="node"><title>Node41</title>
<polygon fill="white" stroke="#bfbfbf" points="901,-404.5 901,-423.5 957,-423.5 957,-404.5 901,-404.5"/>
<text text-anchor="middle" x="929" y="-411.5" font-family="Helvetica,sans-Serif" font-size="10.00">Rtypes.h</text>
</g>
<!-- Node0&#45;&gt;Node41 -->
<g id="edge78" class="edge"><title>Node0&#45;&gt;Node41</title>
<path fill="none" stroke="midnightblue" d="M905.624,-460.083C909.456,-452.691 915.024,-441.953 919.765,-432.811"/>
<polygon fill="midnightblue" stroke="midnightblue" points="922.966,-434.24 924.462,-423.751 916.752,-431.018 922.966,-434.24"/>
</g>
<!-- Node42 -->
<g id="node43" class="node"><title>Node42</title>
<polygon fill="white" stroke="#bfbfbf" points="975,-404.5 975,-423.5 1067,-423.5 1067,-404.5 975,-404.5"/>
<text text-anchor="middle" x="1021" y="-411.5" font-family="Helvetica,sans-Serif" font-size="10.00">TLorentzVector.h</text>
</g>
<!-- Node0&#45;&gt;Node42 -->
<g id="edge79" class="edge"><title>Node0&#45;&gt;Node42</title>
<path fill="none" stroke="midnightblue" d="M920.014,-460.444C939.588,-451.636 970.308,-437.812 992.729,-427.722"/>
<polygon fill="midnightblue" stroke="midnightblue" points="994.392,-430.812 1002.07,-423.516 991.519,-424.428 994.392,-430.812"/>
</g>
<!-- Node2 -->
<g id="node3" class="node"><title>Node2</title>
<g id="a_node3"><a xlink:href="_t_candidate_8h.html" target="_top" xlink:title="tree/TCandidate.h">
<polygon fill="white" stroke="black" points="1153.5,-348.5 1153.5,-367.5 1248.5,-367.5 1248.5,-348.5 1153.5,-348.5"/>
<text text-anchor="middle" x="1201" y="-355.5" font-family="Helvetica,sans-Serif" font-size="10.00">tree/TCandidate.h</text>
</a>
</g>
</g>
<!-- Node1&#45;&gt;Node2 -->
<g id="edge2" class="edge"><title>Node1&#45;&gt;Node2</title>
<path fill="none" stroke="midnightblue" d="M816.029,-408.852C886.178,-399.768 1054.22,-378.007 1143.3,-366.472"/>
<polygon fill="midnightblue" stroke="midnightblue" points="1143.77,-369.94 1153.24,-365.185 1142.87,-362.998 1143.77,-369.94"/>
</g>
<!-- Node14 -->
<g id="node15" class="node"><title>Node14</title>
<polygon fill="white" stroke="#bfbfbf" points="1265,-56.5 1265,-75.5 1309,-75.5 1309,-56.5 1265,-56.5"/>
<text text-anchor="middle" x="1287" y="-63.5" font-family="Helvetica,sans-Serif" font-size="10.00">vector</text>
</g>
<!-- Node1&#45;&gt;Node14 -->
<g id="edge73" class="edge"><title>Node1&#45;&gt;Node14</title>
<path fill="none" stroke="midnightblue" d="M816.041,-410.201C983.136,-395.499 1747,-326.979 1747,-303 1747,-303 1747,-303 1747,-177 1747,-88.9702 1424.32,-71.2352 1319.48,-67.7962"/>
<polygon fill="midnightblue" stroke="midnightblue" points="1319.29,-64.289 1309.19,-67.4824 1319.08,-71.2858 1319.29,-64.289"/>
</g>
<!-- Node22 -->
<g id="node23" class="node"><title>Node22</title>
<polygon fill="white" stroke="#bfbfbf" points="997,-168.5 997,-187.5 1049,-187.5 1049,-168.5 997,-168.5"/>
<text text-anchor="middle" x="1023" y="-175.5" font-family="Helvetica,sans-Serif" font-size="10.00">memory</text>
</g>
<!-- Node1&#45;&gt;Node22 -->
<g id="edge76" class="edge"><title>Node1&#45;&gt;Node22</title>
<path fill="none" stroke="midnightblue" d="M792.79,-404.394C828.143,-369.78 960.283,-240.405 1006.73,-194.929"/>
<polygon fill="midnightblue" stroke="midnightblue" points="1009.43,-197.181 1014.13,-187.684 1004.54,-192.179 1009.43,-197.181"/>
</g>
<!-- Node25 -->
<g id="node26" class="node"><title>Node25</title>
<g id="a_node26"><a xlink:href="types_8h.html" target="_top" xlink:title="base/types.h">
<polygon fill="white" stroke="black" points="124.5,-168.5 124.5,-187.5 197.5,-187.5 197.5,-168.5 124.5,-168.5"/>
<text text-anchor="middle" x="161" y="-175.5" font-family="Helvetica,sans-Serif" font-size="10.00">base/types.h</text>
</a>
</g>
</g>
<!-- Node1&#45;&gt;Node25 -->
<g id="edge43" class="edge"><title>Node1&#45;&gt;Node25</title>
<path fill="none" stroke="midnightblue" d="M751.724,-409.743C671.232,-400.92 455.941,-373.007 287,-312 234.281,-292.962 207.427,-300.993 174,-256 161.519,-239.2 159.363,-214.661 159.619,-197.826"/>
<polygon fill="midnightblue" stroke="midnightblue" points="163.126,-197.741 160.084,-187.592 156.133,-197.423 163.126,-197.741"/>
</g>
<!-- Node26 -->
<g id="node27" class="node"><title>Node26</title>
<g id="a_node27"><a xlink:href="_particle_type_8h.html" target="_top" xlink:title="base/ParticleType.h">
<polygon fill="white" stroke="black" points="296,-292.5 296,-311.5 400,-311.5 400,-292.5 296,-292.5"/>
<text text-anchor="middle" x="348" y="-299.5" font-family="Helvetica,sans-Serif" font-size="10.00">base/ParticleType.h</text>
</a>
</g>
</g>
<!-- Node1&#45;&gt;Node26 -->
<g id="edge44" class="edge"><title>Node1&#45;&gt;Node26</title>
<path fill="none" stroke="midnightblue" d="M751.94,-404.911C674.949,-385.487 479.522,-336.182 391.798,-314.05"/>
<polygon fill="midnightblue" stroke="midnightblue" points="392.451,-310.605 381.899,-311.552 390.739,-317.392 392.451,-310.605"/>
</g>
<!-- Node31 -->
<g id="node32" class="node"><title>Node31</title>
<g id="a_node32"><a xlink:href="_tree_8h.html" target="_top" xlink:title="base/Tree.h">
<polygon fill="white" stroke="black" points="777,-230.5 777,-249.5 845,-249.5 845,-230.5 777,-230.5"/>
<text text-anchor="middle" x="811" y="-237.5" font-family="Helvetica,sans-Serif" font-size="10.00">base/Tree.h</text>
</a>
</g>
</g>
<!-- Node1&#45;&gt;Node31 -->
<g id="edge59" class="edge"><title>Node1&#45;&gt;Node31</title>
<path fill="none" stroke="midnightblue" d="M785.604,-404.385C787.272,-395.337 789.924,-380.686 792,-368 798.279,-329.634 804.82,-284.607 808.352,-259.796"/>
<polygon fill="midnightblue" stroke="midnightblue" points="811.854,-260.028 809.791,-249.636 804.924,-259.047 811.854,-260.028"/>
</g>
<!-- Node36 -->
<g id="node37" class="node"><title>Node36</title>
<polygon fill="white" stroke="#bfbfbf" points="586.5,-168.5 586.5,-187.5 615.5,-187.5 615.5,-168.5 586.5,-168.5"/>
<text text-anchor="middle" x="601" y="-175.5" font-family="Helvetica,sans-Serif" font-size="10.00">list</text>
</g>
<!-- Node1&#45;&gt;Node36 -->
<g id="edge74" class="edge"><title>Node1&#45;&gt;Node36</title>
<path fill="none" stroke="midnightblue" d="M768.479,-404.482C754.643,-396.367 734.41,-383.162 720,-368 667.973,-313.256 626.229,-232.408 609.237,-196.867"/>
<polygon fill="midnightblue" stroke="midnightblue" points="612.365,-195.295 604.942,-187.735 606.031,-198.274 612.365,-195.295"/>
</g>
<!-- Node39 -->
<g id="node40" class="node"><title>Node39</title>
<g id="a_node40"><a xlink:href="_lorentz_vec_8h.html" target="_top" xlink:title="base/vec/LorentzVec.h">
<polygon fill="white" stroke="black" points="-0.5,-292.5 -0.5,-311.5 116.5,-311.5 116.5,-292.5 -0.5,-292.5"/>
<text text-anchor="middle" x="58" y="-299.5" font-family="Helvetica,sans-Serif" font-size="10.00">base/vec/LorentzVec.h</text>
</a>
</g>
</g>
<!-- Node1&#45;&gt;Node39 -->
<g id="edge71" class="edge"><title>Node1&#45;&gt;Node39</title>
<path fill="none" stroke="midnightblue" d="M751.864,-413.504C636.622,-414.894 244.914,-415.913 131,-368 106.188,-357.564 84.0965,-335.104 70.8808,-319.529"/>
<polygon fill="midnightblue" stroke="midnightblue" points="73.527,-317.236 64.491,-311.704 68.1051,-321.663 73.527,-317.236"/>
</g>
<!-- Node40 -->
<g id="node41" class="node"><title>Node40</title>
<polygon fill="white" stroke="#bfbfbf" points="729,-348.5 729,-367.5 783,-367.5 783,-348.5 729,-348.5"/>
<text text-anchor="middle" x="756" y="-355.5" font-family="Helvetica,sans-Serif" font-size="10.00">iostream</text>
</g>
<!-- Node1&#45;&gt;Node40 -->
<g id="edge75" class="edge"><title>Node1&#45;&gt;Node40</title>
<path fill="none" stroke="midnightblue" d="M779.376,-404.083C775.544,-396.691 769.976,-385.953 765.235,-376.811"/>
<polygon fill="midnightblue" stroke="midnightblue" points="768.248,-375.018 760.538,-367.751 762.034,-378.24 768.248,-375.018"/>
</g>
<!-- Node3 -->
<g id="node4" class="node"><title>Node3</title>
<g id="a_node4"><a xlink:href="_t_cluster_8h.html" target="_top" xlink:title="TCluster.h">
<polygon fill="white" stroke="black" points="1270,-292.5 1270,-311.5 1332,-311.5 1332,-292.5 1270,-292.5"/>
<text text-anchor="middle" x="1301" y="-299.5" font-family="Helvetica,sans-Serif" font-size="10.00">TCluster.h</text>
</a>
</g>
</g>
<!-- Node2&#45;&gt;Node3 -->
<g id="edge3" class="edge"><title>Node2&#45;&gt;Node3</title>
<path fill="none" stroke="midnightblue" d="M1217.07,-348.324C1232.96,-339.743 1257.51,-326.486 1275.96,-316.522"/>
<polygon fill="midnightblue" stroke="midnightblue" points="1277.84,-319.486 1284.97,-311.655 1274.51,-313.326 1277.84,-319.486"/>
</g>
<!-- Node5 -->
<g id="node6" class="node"><title>Node5</title>
<g id="a_node6"><a xlink:href="_detector__t_8h.html" target="_top" xlink:title="base/Detector_t.h">
<polygon fill="white" stroke="black" points="1067.5,-168.5 1067.5,-187.5 1162.5,-187.5 1162.5,-168.5 1067.5,-168.5"/>
<text text-anchor="middle" x="1115" y="-175.5" font-family="Helvetica,sans-Serif" font-size="10.00">base/Detector_t.h</text>
</a>
</g>
</g>
<!-- Node2&#45;&gt;Node5 -->
<g id="edge37" class="edge"><title>Node2&#45;&gt;Node5</title>
<path fill="none" stroke="midnightblue" d="M1192.77,-348.36C1177.54,-331.857 1145.08,-294.088 1129,-256 1121.09,-237.266 1117.64,-214.117 1116.14,-198.12"/>
<polygon fill="midnightblue" stroke="midnightblue" points="1119.62,-197.605 1115.36,-187.901 1112.64,-198.139 1119.62,-197.605"/>
</g>
<!-- Node2&#45;&gt;Node14 -->
<g id="edge38" class="edge"><title>Node2&#45;&gt;Node14</title>
<path fill="none" stroke="midnightblue" d="M1248.61,-354.074C1320.55,-348.925 1452.83,-336.399 1493,-312 1548.85,-278.075 1555.53,-251.236 1572,-188 1599.85,-81.0905 1399.29,-67.8523 1319.12,-66.7883"/>
<polygon fill="midnightblue" stroke="midnightblue" points="1319.11,-63.2882 1309.08,-66.7112 1319.05,-70.288 1319.11,-63.2882"/>
</g>
<!-- Node19 -->
<g id="node20" class="node"><title>Node19</title>
<polygon fill="white" stroke="#bfbfbf" points="1494,-168.5 1494,-187.5 1544,-187.5 1544,-168.5 1494,-168.5"/>
<text text-anchor="middle" x="1519" y="-175.5" font-family="Helvetica,sans-Serif" font-size="10.00">iomanip</text>
</g>
<!-- Node2&#45;&gt;Node19 -->
<g id="edge39" class="edge"><title>Node2&#45;&gt;Node19</title>
<path fill="none" stroke="midnightblue" d="M1248.6,-357.831C1303.68,-356.84 1395.55,-349.033 1464,-312 1493.87,-295.838 1502.97,-287.367 1516,-256 1523.68,-237.508 1523.41,-214.319 1521.85,-198.246"/>
<polygon fill="midnightblue" stroke="midnightblue" points="1525.28,-197.467 1520.59,-187.968 1518.34,-198.32 1525.28,-197.467"/>
</g>
<!-- Node20 -->
<g id="node21" class="node"><title>Node20</title>
<polygon fill="white" stroke="#bfbfbf" points="1411,-168.5 1411,-187.5 1463,-187.5 1463,-168.5 1411,-168.5"/>
<text text-anchor="middle" x="1437" y="-175.5" font-family="Helvetica,sans-Serif" font-size="10.00">sstream</text>
</g>
<!-- Node2&#45;&gt;Node20 -->
<g id="edge40" class="edge"><title>Node2&#45;&gt;Node20</title>
<path fill="none" stroke="midnightblue" d="M1248.6,-356.826C1317.25,-353.677 1442.02,-336.474 1499,-256 1507.22,-244.393 1505.46,-236.671 1499,-224 1492,-210.27 1478.63,-199.75 1466.1,-192.346"/>
<polygon fill="midnightblue" stroke="midnightblue" points="1467.68,-189.22 1457.22,-187.505 1464.33,-195.366 1467.68,-189.22"/>
</g>
<!-- Node2&#45;&gt;Node22 -->
<g id="edge41" class="edge"><title>Node2&#45;&gt;Node22</title>
<path fill="none" stroke="midnightblue" d="M1187.63,-348.444C1163.16,-332.364 1110.36,-295.663 1074,-256 1057.13,-237.598 1041.92,-213.1 1032.58,-196.727"/>
<polygon fill="midnightblue" stroke="midnightblue" points="1035.49,-194.749 1027.57,-187.709 1029.37,-198.15 1035.49,-194.749"/>
</g>
<!-- Node2&#45;&gt;Node24 -->
<g id="edge42" class="edge"><title>Node2&#45;&gt;Node24</title>
<path fill="none" stroke="midnightblue" d="M1180.37,-348.482C1161.42,-340.272 1132.88,-326.923 1110,-312 1053.48,-275.14 994.464,-220.931 966.923,-194.557"/>
<polygon fill="midnightblue" stroke="midnightblue" points="969.346,-192.031 959.72,-187.604 964.484,-197.067 969.346,-192.031"/>
</g>
<!-- Node4 -->
<g id="node5" class="node"><title>Node4</title>
<g id="a_node5"><a xlink:href="_t_detector_read_hit_8h.html" target="_top" xlink:title="tree/TDetectorReadHit.h">
<polygon fill="white" stroke="black" points="1367,-230.5 1367,-249.5 1491,-249.5 1491,-230.5 1367,-230.5"/>
<text text-anchor="middle" x="1429" y="-237.5" font-family="Helvetica,sans-Serif" font-size="10.00">tree/TDetectorReadHit.h</text>
</a>
</g>
</g>
<!-- Node3&#45;&gt;Node4 -->
<g id="edge4" class="edge"><title>Node3&#45;&gt;Node4</title>
<path fill="none" stroke="midnightblue" d="M1319.34,-292.403C1340.82,-282.334 1376.62,-265.552 1401.45,-253.915"/>
<polygon fill="midnightblue" stroke="midnightblue" points="1403.13,-256.994 1410.69,-249.581 1400.15,-250.656 1403.13,-256.994"/>
</g>
<!-- Node3&#45;&gt;Node5 -->
<g id="edge24" class="edge"><title>Node3&#45;&gt;Node5</title>
<path fill="none" stroke="midnightblue" d="M1269.96,-297.936C1238.68,-293.431 1190.5,-282.452 1158,-256 1139.12,-240.632 1127.1,-214.651 1120.71,-197.168"/>
<polygon fill="midnightblue" stroke="midnightblue" points="1123.97,-195.895 1117.44,-187.552 1117.35,-198.146 1123.97,-195.895"/>
</g>
<!-- Node8 -->
<g id="node9" class="node"><title>Node8</title>
<g id="a_node9"><a xlink:href="vec3_8h.html" target="_top" xlink:title="base/vec/vec3.h">
<polygon fill="white" stroke="black" points="252.5,-112.5 252.5,-131.5 341.5,-131.5 341.5,-112.5 252.5,-112.5"/>
<text text-anchor="middle" x="297" y="-119.5" font-family="Helvetica,sans-Serif" font-size="10.00">base/vec/vec3.h</text>
</a>
</g>
</g>
<!-- Node3&#45;&gt;Node8 -->
<g id="edge31" class="edge"><title>Node3&#45;&gt;Node8</title>
<path fill="none" stroke="midnightblue" d="M1269.77,-300.745C1116.18,-299.327 444.791,-291.146 359,-256 353.757,-253.852 285.313,-193.172 283,-188 276.242,-172.884 281.452,-154.301 287.34,-140.882"/>
<polygon fill="midnightblue" stroke="midnightblue" points="290.547,-142.291 291.789,-131.769 284.257,-139.221 290.547,-142.291"/>
</g>
<!-- Node10 -->
<g id="node11" class="node"><title>Node10</title>
<polygon fill="white" stroke="#bfbfbf" points="326,-0.5 326,-19.5 370,-19.5 370,-0.5 326,-0.5"/>
<text text-anchor="middle" x="348" y="-7.5" font-family="Helvetica,sans-Serif" font-size="10.00">cmath</text>
</g>
<!-- Node3&#45;&gt;Node10 -->
<g id="edge33" class="edge"><title>Node3&#45;&gt;Node10</title>
<path fill="none" stroke="midnightblue" d="M1332.23,-297.516C1421.43,-286.705 1671,-250.104 1671,-179 1671,-179 1671,-179 1671,-121 1671,38.9636 1475.93,-74.1963 1317,-56 951.159,-14.1127 503.37,-10.9504 380.497,-10.9193"/>
<polygon fill="midnightblue" stroke="midnightblue" points="380.269,-7.41928 370.271,-10.924 380.272,-14.4193 380.269,-7.41928"/>
</g>
<!-- Node12 -->
<g id="node13" class="node"><title>Node12</title>
<g id="a_node13"><a xlink:href="base_2std__ext_2math_8h.html" target="_top" xlink:title="base/std_ext/math.h">
<polygon fill="white" stroke="black" points="1019,-112.5 1019,-131.5 1125,-131.5 1125,-112.5 1019,-112.5"/>
<text text-anchor="middle" x="1072" y="-119.5" font-family="Helvetica,sans-Serif" font-size="10.00">base/std_ext/math.h</text>
</a>
</g>
</g>
<!-- Node3&#45;&gt;Node12 -->
<g id="edge25" class="edge"><title>Node3&#45;&gt;Node12</title>
<path fill="none" stroke="midnightblue" d="M1304.3,-292.253C1314.03,-265.764 1340.97,-187.064 1325,-168 1301.26,-139.661 1202.21,-129.154 1135.32,-125.269"/>
<polygon fill="midnightblue" stroke="midnightblue" points="1135.46,-121.771 1125.29,-124.721 1135.08,-128.761 1135.46,-121.771"/>
</g>
<!-- Node3&#45;&gt;Node14 -->
<g id="edge32" class="edge"><title>Node3&#45;&gt;Node14</title>
<path fill="none" stroke="midnightblue" d="M1332.11,-298.143C1385.82,-292.656 1492.97,-279.096 1522,-256 1554.45,-230.186 1576.55,-202.131 1553,-168 1499.39,-90.2987 1377.59,-72.322 1319.28,-68.201"/>
<polygon fill="midnightblue" stroke="midnightblue" points="1319.36,-64.6993 1309.16,-67.5815 1318.93,-71.6862 1319.36,-64.6993"/>
</g>
<!-- Node3&#45;&gt;Node19 -->
<g id="edge34" class="edge"><title>Node3&#45;&gt;Node19</title>
<path fill="none" stroke="midnightblue" d="M1332.04,-297.866C1381.61,-292.237 1475.47,-278.824 1499,-256 1514.62,-240.856 1518.59,-215.2 1519.33,-197.7"/>
<polygon fill="midnightblue" stroke="midnightblue" points="1522.83,-197.608 1519.44,-187.57 1515.83,-197.53 1522.83,-197.608"/>
</g>
<!-- Node3&#45;&gt;Node20 -->
<g id="edge35" class="edge"><title>Node3&#45;&gt;Node20</title>
<path fill="none" stroke="midnightblue" d="M1305.7,-292.467C1314.41,-277.228 1334.36,-244.972 1358,-224 1372.76,-210.901 1391.95,-199.862 1407.72,-191.996"/>
<polygon fill="midnightblue" stroke="midnightblue" points="1409.54,-195.008 1417.03,-187.518 1406.5,-188.7 1409.54,-195.008"/>
</g>
<!-- Node21 -->
<g id="node22" class="node"><title>Node21</title>
<g id="a_node22"><a xlink:href="shared__ptr__container_8h.html" target="_top" xlink:title="base/std_ext/shared\l_ptr_container.h">
<polygon fill="white" stroke="black" points="1167.5,-225 1167.5,-255 1272.5,-255 1272.5,-225 1167.5,-225"/>
<text text-anchor="start" x="1175.5" y="-243" font-family="Helvetica,sans-Serif" font-size="10.00">base/std_ext/shared</text>
<text text-anchor="middle" x="1220" y="-232" font-family="Helvetica,sans-Serif" font-size="10.00">_ptr_container.h</text>
</a>
</g>
</g>
<!-- Node3&#45;&gt;Node21 -->
<g id="edge26" class="edge"><title>Node3&#45;&gt;Node21</title>
<path fill="none" stroke="midnightblue" d="M1289.39,-292.403C1278.42,-284.277 1261.55,-271.779 1247.19,-261.142"/>
<polygon fill="midnightblue" stroke="midnightblue" points="1249.21,-258.281 1239.09,-255.141 1245.04,-263.906 1249.21,-258.281"/>
</g>
<!-- Node3&#45;&gt;Node22 -->
<g id="edge36" class="edge"><title>Node3&#45;&gt;Node22</title>
<path fill="none" stroke="midnightblue" d="M1269.98,-296.461C1234.59,-290.483 1175.59,-278.052 1129,-256 1094.46,-239.652 1059.6,-211.6 1039.72,-194.245"/>
<polygon fill="midnightblue" stroke="midnightblue" points="1041.96,-191.554 1032.16,-187.528 1037.31,-196.787 1041.96,-191.554"/>
</g>
<!-- Node4&#45;&gt;Node5 -->
<g id="edge5" class="edge"><title>Node4&#45;&gt;Node5</title>
<path fill="none" stroke="midnightblue" d="M1384.34,-230.467C1327.84,-219.671 1230.58,-201.086 1169.69,-189.45"/>
<polygon fill="midnightblue" stroke="midnightblue" points="1169.98,-185.943 1159.5,-187.503 1168.67,-192.818 1169.98,-185.943"/>
</g>
<!-- Node4&#45;&gt;Node19 -->
<g id="edge22" class="edge"><title>Node4&#45;&gt;Node19</title>
<path fill="none" stroke="midnightblue" d="M1441.89,-230.403C1456.46,-220.691 1480.4,-204.732 1497.75,-193.17"/>
<polygon fill="midnightblue" stroke="midnightblue" points="1499.75,-196.04 1506.13,-187.581 1495.87,-190.215 1499.75,-196.04"/>
</g>
<!-- Node4&#45;&gt;Node20 -->
<g id="edge23" class="edge"><title>Node4&#45;&gt;Node20</title>
<path fill="none" stroke="midnightblue" d="M1430.15,-230.403C1431.27,-221.938 1433.04,-208.728 1434.49,-197.82"/>
<polygon fill="midnightblue" stroke="midnightblue" points="1438,-197.955 1435.86,-187.581 1431.06,-197.03 1438,-197.955"/>
</g>
<!-- Node6 -->
<g id="node7" class="node"><title>Node6</title>
<g id="a_node7"><a xlink:href="bitflag_8h.html" target="_top" xlink:title="base/bitflag.h">
<polygon fill="white" stroke="black" points="861.5,-112.5 861.5,-131.5 936.5,-131.5 936.5,-112.5 861.5,-112.5"/>
<text text-anchor="middle" x="899" y="-119.5" font-family="Helvetica,sans-Serif" font-size="10.00">base/bitflag.h</text>
</a>
</g>
</g>
<!-- Node5&#45;&gt;Node6 -->
<g id="edge6" class="edge"><title>Node5&#45;&gt;Node6</title>
<path fill="none" stroke="midnightblue" d="M1080.77,-168.444C1043.49,-159.122 983.731,-144.183 942.989,-133.997"/>
<polygon fill="midnightblue" stroke="midnightblue" points="943.616,-130.546 933.066,-131.516 941.918,-137.337 943.616,-130.546"/>
</g>
<!-- Node5&#45;&gt;Node8 -->
<g id="edge8" class="edge"><title>Node5&#45;&gt;Node8</title>
<path fill="none" stroke="midnightblue" d="M1067.46,-169.124C1064.26,-168.708 1061.09,-168.328 1058,-168 768.078,-137.225 693.84,-152.335 403,-132 386.293,-130.832 368.122,-129.362 351.621,-127.951"/>
<polygon fill="midnightblue" stroke="midnightblue" points="351.854,-124.458 341.59,-127.083 351.251,-131.432 351.854,-124.458"/>
</g>
<!-- Node5&#45;&gt;Node12 -->
<g id="edge13" class="edge"><title>Node5&#45;&gt;Node12</title>
<path fill="none" stroke="midnightblue" d="M1107.9,-168.083C1101.76,-160.377 1092.73,-149.033 1085.26,-139.653"/>
<polygon fill="midnightblue" stroke="midnightblue" points="1087.94,-137.394 1078.97,-131.751 1082.46,-141.754 1087.94,-137.394"/>
</g>
<!-- Node5&#45;&gt;Node14 -->
<g id="edge21" class="edge"><title>Node5&#45;&gt;Node14</title>
<path fill="none" stroke="midnightblue" d="M1121.33,-168.305C1131.64,-154.675 1153.3,-128.171 1177,-112 1201.2,-95.4899 1232.4,-83.4509 1255.38,-76.0023"/>
<polygon fill="midnightblue" stroke="midnightblue" points="1256.5,-79.321 1265,-72.9975 1254.41,-72.6396 1256.5,-79.321"/>
</g>
<!-- Node15 -->
<g id="node16" class="node"><title>Node15</title>
<polygon fill="white" stroke="#bfbfbf" points="955,-112.5 955,-131.5 1001,-131.5 1001,-112.5 955,-112.5"/>
<text text-anchor="middle" x="978" y="-119.5" font-family="Helvetica,sans-Serif" font-size="10.00">cstdint</text>
</g>
<!-- Node5&#45;&gt;Node15 -->
<g id="edge17" class="edge"><title>Node5&#45;&gt;Node15</title>
<path fill="none" stroke="midnightblue" d="M1093.29,-168.444C1070.65,-159.517 1034.93,-145.439 1009.25,-135.317"/>
<polygon fill="midnightblue" stroke="midnightblue" points="1010.19,-131.927 999.606,-131.516 1007.63,-138.44 1010.19,-131.927"/>
</g>
<!-- Node16 -->
<g id="node17" class="node"><title>Node16</title>
<polygon fill="white" stroke="#bfbfbf" points="563.5,-112.5 563.5,-131.5 622.5,-131.5 622.5,-112.5 563.5,-112.5"/>
<text text-anchor="middle" x="593" y="-119.5" font-family="Helvetica,sans-Serif" font-size="10.00">stdexcept</text>
</g>
<!-- Node5&#45;&gt;Node16 -->
<g id="edge18" class="edge"><title>Node5&#45;&gt;Node16</title>
<path fill="none" stroke="midnightblue" d="M1067.44,-169.272C1064.25,-168.821 1061.08,-168.392 1058,-168 1057.67,-167.958 745.768,-137.78 633.041,-126.874"/>
<polygon fill="midnightblue" stroke="midnightblue" points="633.062,-123.36 622.771,-125.88 632.387,-130.327 633.062,-123.36"/>
</g>
<!-- Node17 -->
<g id="node18" class="node"><title>Node17</title>
<polygon fill="white" stroke="#bfbfbf" points="695.5,-112.5 695.5,-131.5 736.5,-131.5 736.5,-112.5 695.5,-112.5"/>
<text text-anchor="middle" x="716" y="-119.5" font-family="Helvetica,sans-Serif" font-size="10.00">string</text>
</g>
<!-- Node5&#45;&gt;Node17 -->
<g id="edge19" class="edge"><title>Node5&#45;&gt;Node17</title>
<path fill="none" stroke="midnightblue" d="M1067.43,-169.376C1064.24,-168.9 1061.07,-168.437 1058,-168 931.596,-150.042 899.404,-149.958 773,-132 764.397,-130.778 755.08,-129.351 746.521,-127.998"/>
<polygon fill="midnightblue" stroke="midnightblue" points="746.983,-124.527 736.556,-126.403 745.877,-131.439 746.983,-124.527"/>
</g>
<!-- Node18 -->
<g id="node19" class="node"><title>Node18</title>
<polygon fill="white" stroke="#bfbfbf" points="782,-112.5 782,-131.5 844,-131.5 844,-112.5 782,-112.5"/>
<text text-anchor="middle" x="813" y="-119.5" font-family="Helvetica,sans-Serif" font-size="10.00">type_traits</text>
</g>
<!-- Node5&#45;&gt;Node18 -->
<g id="edge20" class="edge"><title>Node5&#45;&gt;Node18</title>
<path fill="none" stroke="midnightblue" d="M1067.35,-169.184C1007.29,-159.279 906.403,-142.445 854.128,-132.325"/>
<polygon fill="midnightblue" stroke="midnightblue" points="854.534,-128.837 844.045,-130.333 853.177,-135.705 854.534,-128.837"/>
</g>
<!-- Node7 -->
<g id="node8" class="node"><title>Node7</title>
<polygon fill="white" stroke="#bfbfbf" points="878.5,-56.5 878.5,-75.5 919.5,-75.5 919.5,-56.5 878.5,-56.5"/>
<text text-anchor="middle" x="899" y="-63.5" font-family="Helvetica,sans-Serif" font-size="10.00">bitset</text>
</g>
<!-- Node6&#45;&gt;Node7 -->
<g id="edge7" class="edge"><title>Node6&#45;&gt;Node7</title>
<path fill="none" stroke="midnightblue" d="M899,-112.083C899,-105.006 899,-94.8611 899,-85.9865"/>
<polygon fill="midnightblue" stroke="midnightblue" points="902.5,-85.751 899,-75.7511 895.5,-85.7511 902.5,-85.751"/>
</g>
<!-- Node9 -->
<g id="node10" class="node"><title>Node9</title>
<g id="a_node10"><a xlink:href="vec2_8h.html" target="_top" xlink:title="vec2.h">
<polygon fill="white" stroke="black" points="325,-56.5 325,-75.5 371,-75.5 371,-56.5 325,-56.5"/>
<text text-anchor="middle" x="348" y="-63.5" font-family="Helvetica,sans-Serif" font-size="10.00">vec2.h</text>
</a>
</g>
</g>
<!-- Node8&#45;&gt;Node9 -->
<g id="edge9" class="edge"><title>Node8&#45;&gt;Node9</title>
<path fill="none" stroke="midnightblue" d="M305.422,-112.083C312.848,-104.22 323.852,-92.5688 332.812,-83.0813"/>
<polygon fill="midnightblue" stroke="midnightblue" points="335.413,-85.4244 339.735,-75.7511 330.324,-80.618 335.413,-85.4244"/>
</g>
<!-- Node8&#45;&gt;Node10 -->
<g id="edge12" class="edge"><title>Node8&#45;&gt;Node10</title>
<path fill="none" stroke="midnightblue" d="M298.589,-112.251C301.127,-99.4424 306.771,-75.0441 316,-56 320.851,-45.9902 327.878,-35.8098 334.113,-27.6697"/>
<polygon fill="midnightblue" stroke="midnightblue" points="336.934,-29.7452 340.426,-19.7423 331.458,-25.3844 336.934,-29.7452"/>
</g>
<!-- Node11 -->
<g id="node12" class="node"><title>Node11</title>
<polygon fill="white" stroke="#bfbfbf" points="216,-56.5 216,-75.5 268,-75.5 268,-56.5 216,-56.5"/>
<text text-anchor="middle" x="242" y="-63.5" font-family="Helvetica,sans-Serif" font-size="10.00">ostream</text>
</g>
<!-- Node8&#45;&gt;Node11 -->
<g id="edge11" class="edge"><title>Node8&#45;&gt;Node11</title>
<path fill="none" stroke="midnightblue" d="M287.918,-112.083C279.829,-104.141 267.805,-92.3354 258.09,-82.7973"/>
<polygon fill="midnightblue" stroke="midnightblue" points="260.501,-80.2595 250.913,-75.7511 255.597,-85.2545 260.501,-80.2595"/>
</g>
<!-- Node9&#45;&gt;Node10 -->
<g id="edge10" class="edge"><title>Node9&#45;&gt;Node10</title>
<path fill="none" stroke="midnightblue" d="M348,-56.083C348,-49.0059 348,-38.8611 348,-29.9865"/>
<polygon fill="midnightblue" stroke="midnightblue" points="351.5,-29.751 348,-19.7511 344.5,-29.7511 351.5,-29.751"/>
</g>
<!-- Node12&#45;&gt;Node10 -->
<g id="edge14" class="edge"><title>Node12&#45;&gt;Node10</title>
<path fill="none" stroke="midnightblue" d="M1057.49,-112.386C1032.2,-97.8516 977.954,-68.7937 928,-56 823.004,-29.1097 486.379,-15.678 380.32,-12.039"/>
<polygon fill="midnightblue" stroke="midnightblue" points="380.34,-8.5378 370.228,-11.6986 380.104,-15.5338 380.34,-8.5378"/>
</g>
<!-- Node13 -->
<g id="node14" class="node"><title>Node13</title>
<polygon fill="white" stroke="#bfbfbf" points="605,-56.5 605,-75.5 645,-75.5 645,-56.5 605,-56.5"/>
<text text-anchor="middle" x="625" y="-63.5" font-family="Helvetica,sans-Serif" font-size="10.00">limits</text>
</g>
<!-- Node12&#45;&gt;Node13 -->
<g id="edge15" class="edge"><title>Node12&#45;&gt;Node13</title>
<path fill="none" stroke="midnightblue" d="M1018.91,-113.195C1015.9,-112.783 1012.91,-112.381 1010,-112 877.898,-94.6952 719.86,-77.2424 655.008,-70.2202"/>
<polygon fill="midnightblue" stroke="midnightblue" points="655.382,-66.7403 645.064,-69.1462 654.631,-73.6998 655.382,-66.7403"/>
</g>
<!-- Node12&#45;&gt;Node14 -->
<g id="edge16" class="edge"><title>Node12&#45;&gt;Node14</title>
<path fill="none" stroke="midnightblue" d="M1106.07,-112.444C1147.02,-102.157 1215.22,-85.0289 1255.16,-74.9978"/>
<polygon fill="midnightblue" stroke="midnightblue" points="1256.06,-78.3794 1264.91,-72.5488 1254.36,-71.5902 1256.06,-78.3794"/>
</g>
<!-- Node21&#45;&gt;Node14 -->
<g id="edge27" class="edge"><title>Node21&#45;&gt;Node14</title>
<path fill="none" stroke="midnightblue" d="M1272.51,-226.385C1292.5,-218.749 1313.28,-206.724 1325,-188 1346.12,-154.257 1318.46,-107.824 1300.38,-83.4551"/>
<polygon fill="midnightblue" stroke="midnightblue" points="1303.15,-81.3114 1294.26,-75.5398 1297.61,-85.5923 1303.15,-81.3114"/>
</g>
<!-- Node21&#45;&gt;Node22 -->
<g id="edge28" class="edge"><title>Node21&#45;&gt;Node22</title>
<path fill="none" stroke="midnightblue" d="M1173.81,-224.933C1138.82,-214.275 1091.42,-199.838 1059.16,-190.013"/>
<polygon fill="midnightblue" stroke="midnightblue" points="1059.84,-186.561 1049.25,-186.996 1057.8,-193.258 1059.84,-186.561"/>
</g>
<!-- Node23 -->
<g id="node24" class="node"><title>Node23</title>
<polygon fill="white" stroke="#bfbfbf" points="1257.5,-168.5 1257.5,-187.5 1316.5,-187.5 1316.5,-168.5 1257.5,-168.5"/>
<text text-anchor="middle" x="1287" y="-175.5" font-family="Helvetica,sans-Serif" font-size="10.00">functional</text>
</g>
<!-- Node21&#45;&gt;Node23 -->
<g id="edge29" class="edge"><title>Node21&#45;&gt;Node23</title>
<path fill="none" stroke="midnightblue" d="M1235.88,-224.781C1246.02,-215.703 1259.16,-203.929 1269.59,-194.595"/>
<polygon fill="midnightblue" stroke="midnightblue" points="1272.14,-197.009 1277.25,-187.731 1267.47,-191.794 1272.14,-197.009"/>
</g>
<!-- Node21&#45;&gt;Node24 -->
<g id="edge30" class="edge"><title>Node21&#45;&gt;Node24</title>
<path fill="none" stroke="midnightblue" d="M1167.4,-227.787C1122.54,-218.142 1056.06,-203.666 989.141,-188.228"/>
<polygon fill="midnightblue" stroke="midnightblue" points="989.798,-184.788 979.266,-185.944 988.22,-191.608 989.798,-184.788"/>
</g>
<!-- Node26&#45;&gt;Node11 -->
<g id="edge55" class="edge"><title>Node26&#45;&gt;Node11</title>
<path fill="none" stroke="midnightblue" d="M295.682,-295.765C259.346,-290.225 211.003,-278.922 174,-256 139.985,-234.929 128.995,-225.485 115,-188 95.937,-136.941 165.594,-98.1363 209.242,-79.4057"/>
<polygon fill="midnightblue" stroke="midnightblue" points="210.754,-82.568 218.65,-75.5037 208.072,-76.1021 210.754,-82.568"/>
</g>
<!-- Node26&#45;&gt;Node14 -->
<g id="edge58" class="edge"><title>Node26&#45;&gt;Node14</title>
<path fill="none" stroke="midnightblue" d="M400.037,-299.605C563.055,-294.392 1060.96,-271.809 1195,-188 1235.87,-162.445 1265.26,-111.754 1278.74,-84.8087"/>
<polygon fill="midnightblue" stroke="midnightblue" points="1281.92,-86.2729 1283.12,-75.7461 1275.62,-83.2273 1281.92,-86.2729"/>
</g>
<!-- Node26&#45;&gt;Node17 -->
<g id="edge54" class="edge"><title>Node26&#45;&gt;Node17</title>
<path fill="none" stroke="midnightblue" d="M373.476,-292.463C396.094,-284.426 429.695,-271.35 457,-256 514.652,-223.59 518.122,-198.125 577,-168 612.396,-149.89 656.559,-137.086 685.483,-129.881"/>
<polygon fill="midnightblue" stroke="midnightblue" points="686.508,-133.234 695.405,-127.48 684.862,-126.43 686.508,-133.234"/>
</g>
<!-- Node26&#45;&gt;Node25 -->
<g id="edge45" class="edge"><title>Node26&#45;&gt;Node25</title>
<path fill="none" stroke="midnightblue" d="M295.685,-294.916C265.536,-289.13 228.486,-277.871 202,-256 183.432,-240.667 172.113,-214.677 166.201,-197.183"/>
<polygon fill="midnightblue" stroke="midnightblue" points="169.519,-196.066 163.202,-187.56 162.836,-198.148 169.519,-196.066"/>
</g>
<!-- Node27 -->
<g id="node28" class="node"><title>Node27</title>
<g id="a_node28"><a xlink:href="interval_8h.html" target="_top" xlink:title="base/interval.h">
<polygon fill="white" stroke="black" points="368,-230.5 368,-249.5 448,-249.5 448,-230.5 368,-230.5"/>
<text text-anchor="middle" x="408" y="-237.5" font-family="Helvetica,sans-Serif" font-size="10.00">base/interval.h</text>
</a>
</g>
</g>
<!-- Node26&#45;&gt;Node27 -->
<g id="edge46" class="edge"><title>Node26&#45;&gt;Node27</title>
<path fill="none" stroke="midnightblue" d="M356.597,-292.403C365.864,-283.136 380.817,-268.183 392.212,-256.788"/>
<polygon fill="midnightblue" stroke="midnightblue" points="394.823,-259.127 399.419,-249.581 389.873,-254.177 394.823,-259.127"/>
</g>
<!-- Node29 -->
<g id="node30" class="node"><title>Node29</title>
<polygon fill="white" stroke="#bfbfbf" points="211.5,-230.5 211.5,-249.5 246.5,-249.5 246.5,-230.5 211.5,-230.5"/>
<text text-anchor="middle" x="229" y="-237.5" font-family="Helvetica,sans-Serif" font-size="10.00">map</text>
</g>
<!-- Node26&#45;&gt;Node29 -->
<g id="edge56" class="edge"><title>Node26&#45;&gt;Node29</title>
<path fill="none" stroke="midnightblue" d="M329.274,-292.427C310.35,-283.65 280.363,-269.43 255,-256 254.174,-255.563 253.336,-255.113 252.492,-254.655"/>
<polygon fill="midnightblue" stroke="midnightblue" points="253.906,-251.435 243.472,-249.598 250.483,-257.541 253.906,-251.435"/>
</g>
<!-- Node30 -->
<g id="node31" class="node"><title>Node30</title>
<polygon fill="white" stroke="#bfbfbf" points="264.5,-230.5 264.5,-249.5 311.5,-249.5 311.5,-230.5 264.5,-230.5"/>
<text text-anchor="middle" x="288" y="-237.5" font-family="Helvetica,sans-Serif" font-size="10.00">iterator</text>
</g>
<!-- Node26&#45;&gt;Node30 -->
<g id="edge57" class="edge"><title>Node26&#45;&gt;Node30</title>
<path fill="none" stroke="midnightblue" d="M339.403,-292.403C330.136,-283.136 315.183,-268.183 303.788,-256.788"/>
<polygon fill="midnightblue" stroke="midnightblue" points="306.127,-254.177 296.581,-249.581 301.177,-259.127 306.127,-254.177"/>
</g>
<!-- Node27&#45;&gt;Node10 -->
<g id="edge53" class="edge"><title>Node27&#45;&gt;Node10</title>
<path fill="none" stroke="midnightblue" d="M372.915,-230.438C346.221,-222.639 309.66,-209.077 283,-188 235.81,-150.693 223.952,-133.718 207,-76 193.188,-28.9724 270.135,-15.958 315.877,-12.3643"/>
<polygon fill="midnightblue" stroke="midnightblue" points="316.2,-15.8506 325.941,-11.6844 315.728,-8.86653 316.2,-15.8506"/>
</g>
<!-- Node27&#45;&gt;Node13 -->
<g id="edge50" class="edge"><title>Node27&#45;&gt;Node13</title>
<path fill="none" stroke="midnightblue" d="M403.638,-230.245C398.945,-220.298 391.782,-203.436 389,-188 382.908,-154.198 378.174,-135.734 403,-112 430.182,-86.014 540.652,-73.7396 594.795,-69.1929"/>
<polygon fill="midnightblue" stroke="midnightblue" points="595.144,-72.6762 604.831,-68.3848 594.582,-65.6988 595.144,-72.6762"/>
</g>
<!-- Node27&#45;&gt;Node16 -->
<g id="edge49" class="edge"><title>Node27&#45;&gt;Node16</title>
<path fill="none" stroke="midnightblue" d="M425.131,-230.351C444.046,-220.63 475.231,-204.097 501,-188 526.8,-171.884 555.212,-151.356 573.538,-137.726"/>
<polygon fill="midnightblue" stroke="midnightblue" points="575.76,-140.434 581.668,-131.639 571.565,-134.831 575.76,-140.434"/>
</g>
<!-- Node27&#45;&gt;Node20 -->
<g id="edge52" class="edge"><title>Node27&#45;&gt;Node20</title>
<path fill="none" stroke="midnightblue" d="M448.244,-237.116C576.353,-231.044 986.159,-211.033 1325,-188 1350.26,-186.283 1378.68,-183.994 1400.58,-182.155"/>
<polygon fill="midnightblue" stroke="midnightblue" points="1401.09,-185.624 1410.76,-181.292 1400.5,-178.649 1401.09,-185.624"/>
</g>
<!-- Node27&#45;&gt;Node24 -->
<g id="edge48" class="edge"><title>Node27&#45;&gt;Node24</title>
<path fill="none" stroke="midnightblue" d="M448.305,-234.723C529.216,-226.11 717.184,-205.961 875,-188 887.253,-186.606 900.61,-185.039 912.662,-183.609"/>
<polygon fill="midnightblue" stroke="midnightblue" points="913.339,-187.053 922.855,-182.395 912.511,-180.102 913.339,-187.053"/>
</g>
<!-- Node27&#45;&gt;Node25 -->
<g id="edge47" class="edge"><title>Node27&#45;&gt;Node25</title>
<path fill="none" stroke="midnightblue" d="M372.873,-230.467C328.98,-219.805 253.811,-201.545 205.814,-189.886"/>
<polygon fill="midnightblue" stroke="midnightblue" points="206.549,-186.463 196.006,-187.503 204.897,-193.265 206.549,-186.463"/>
</g>
<!-- Node28 -->
<g id="node29" class="node"><title>Node28</title>
<polygon fill="white" stroke="#bfbfbf" points="292.5,-168.5 292.5,-187.5 341.5,-187.5 341.5,-168.5 292.5,-168.5"/>
<text text-anchor="middle" x="317" y="-175.5" font-family="Helvetica,sans-Serif" font-size="10.00">istream</text>
</g>
<!-- Node27&#45;&gt;Node28 -->
<g id="edge51" class="edge"><title>Node27&#45;&gt;Node28</title>
<path fill="none" stroke="midnightblue" d="M394.962,-230.403C380.231,-220.691 356.027,-204.732 338.491,-193.17"/>
<polygon fill="midnightblue" stroke="midnightblue" points="340.289,-190.163 330.014,-187.581 336.436,-196.007 340.289,-190.163"/>
</g>
<!-- Node31&#45;&gt;Node14 -->
<g id="edge66" class="edge"><title>Node31&#45;&gt;Node14</title>
<path fill="none" stroke="midnightblue" d="M845.262,-232.684C860.998,-229.87 879.921,-226.61 897,-224 957.707,-214.722 1119.91,-222.082 1171,-188 1203.47,-166.34 1187.87,-140.061 1215,-112 1227.61,-98.9597 1244.73,-88.0589 1259.11,-80.2535"/>
<polygon fill="midnightblue" stroke="midnightblue" points="1260.84,-83.3007 1268.09,-75.5799 1257.61,-77.091 1260.84,-83.3007"/>
</g>
<!-- Node31&#45;&gt;Node18 -->
<g id="edge70" class="edge"><title>Node31&#45;&gt;Node18</title>
<path fill="none" stroke="midnightblue" d="M829.162,-230.386C844.547,-221.975 865.565,-207.583 875,-188 885.142,-166.95 862.175,-148.275 841.38,-136.405"/>
<polygon fill="midnightblue" stroke="midnightblue" points="842.873,-133.234 832.406,-131.597 839.568,-139.405 842.873,-133.234"/>
</g>
<!-- Node31&#45;&gt;Node22 -->
<g id="edge64" class="edge"><title>Node31&#45;&gt;Node22</title>
<path fill="none" stroke="midnightblue" d="M841.374,-230.403C879.794,-219.53 945.869,-200.829 986.847,-189.232"/>
<polygon fill="midnightblue" stroke="midnightblue" points="988.023,-192.537 996.692,-186.446 986.117,-185.801 988.023,-192.537"/>
</g>
<!-- Node31&#45;&gt;Node24 -->
<g id="edge67" class="edge"><title>Node31&#45;&gt;Node24</title>
<path fill="none" stroke="midnightblue" d="M831.059,-230.403C854.762,-220.245 894.406,-203.255 921.583,-191.607"/>
<polygon fill="midnightblue" stroke="midnightblue" points="923.166,-194.737 930.979,-187.581 920.408,-188.303 923.166,-194.737"/>
</g>
<!-- Node32 -->
<g id="node33" class="node"><title>Node32</title>
<polygon fill="white" stroke="#bfbfbf" points="634,-168.5 634,-187.5 730,-187.5 730,-168.5 634,-168.5"/>
<text text-anchor="middle" x="682" y="-175.5" font-family="Helvetica,sans-Serif" font-size="10.00">cereal/access.hpp</text>
</g>
<!-- Node31&#45;&gt;Node32 -->
<g id="edge60" class="edge"><title>Node31&#45;&gt;Node32</title>
<path fill="none" stroke="midnightblue" d="M792.517,-230.403C770.868,-220.334 734.787,-203.552 709.768,-191.915"/>
<polygon fill="midnightblue" stroke="midnightblue" points="710.992,-188.624 700.448,-187.581 708.039,-194.971 710.992,-188.624"/>
</g>
<!-- Node33 -->
<g id="node34" class="node"><title>Node33</title>
<g id="a_node34"><a xlink:href="variadic_8h.html" target="_top" xlink:title="std_ext/variadic.h">
<polygon fill="white" stroke="black" points="398,-168.5 398,-187.5 492,-187.5 492,-168.5 398,-168.5"/>
<text text-anchor="middle" x="445" y="-175.5" font-family="Helvetica,sans-Serif" font-size="10.00">std_ext/variadic.h</text>
</a>
</g>
</g>
<!-- Node31&#45;&gt;Node33 -->
<g id="edge61" class="edge"><title>Node31&#45;&gt;Node33</title>
<path fill="none" stroke="midnightblue" d="M776.896,-233.409C714.057,-223.108 579.386,-201.031 502.299,-188.393"/>
<polygon fill="midnightblue" stroke="midnightblue" points="502.71,-184.914 492.275,-186.75 501.578,-191.822 502.71,-184.914"/>
</g>
<!-- Node31&#45;&gt;Node36 -->
<g id="edge65" class="edge"><title>Node31&#45;&gt;Node36</title>
<path fill="none" stroke="midnightblue" d="M776.784,-230.615C741.238,-221.686 683.857,-206.662 625.415,-187.902"/>
<polygon fill="midnightblue" stroke="midnightblue" points="626.241,-184.49 615.649,-184.735 624.081,-191.149 626.241,-184.49"/>
</g>
<!-- Node37 -->
<g id="node38" class="node"><title>Node37</title>
<polygon fill="white" stroke="#bfbfbf" points="748.5,-168.5 748.5,-187.5 797.5,-187.5 797.5,-168.5 748.5,-168.5"/>
<text text-anchor="middle" x="773" y="-175.5" font-family="Helvetica,sans-Serif" font-size="10.00">cassert</text>
</g>
<!-- Node31&#45;&gt;Node37 -->
<g id="edge68" class="edge"><title>Node31&#45;&gt;Node37</title>
<path fill="none" stroke="midnightblue" d="M805.556,-230.403C799.912,-221.493 790.939,-207.325 783.841,-196.118"/>
<polygon fill="midnightblue" stroke="midnightblue" points="786.742,-194.156 778.434,-187.581 780.828,-197.901 786.742,-194.156"/>
</g>
<!-- Node38 -->
<g id="node39" class="node"><title>Node38</title>
<polygon fill="white" stroke="#bfbfbf" points="815.5,-168.5 815.5,-187.5 866.5,-187.5 866.5,-168.5 815.5,-168.5"/>
<text text-anchor="middle" x="841" y="-175.5" font-family="Helvetica,sans-Serif" font-size="10.00">numeric</text>
</g>
<!-- Node31&#45;&gt;Node38 -->
<g id="edge69" class="edge"><title>Node31&#45;&gt;Node38</title>
<path fill="none" stroke="midnightblue" d="M815.298,-230.403C819.665,-221.671 826.555,-207.889 832.103,-196.794"/>
<polygon fill="midnightblue" stroke="midnightblue" points="835.368,-198.09 836.71,-187.581 829.107,-194.96 835.368,-198.09"/>
</g>
<!-- Node34 -->
<g id="node35" class="node"><title>Node34</title>
<polygon fill="white" stroke="#bfbfbf" points="468.5,-112.5 468.5,-131.5 517.5,-131.5 517.5,-112.5 468.5,-112.5"/>
<text text-anchor="middle" x="493" y="-119.5" font-family="Helvetica,sans-Serif" font-size="10.00">cstddef</text>
</g>
<!-- Node33&#45;&gt;Node34 -->
<g id="edge62" class="edge"><title>Node33&#45;&gt;Node34</title>
<path fill="none" stroke="midnightblue" d="M452.926,-168.083C459.846,-160.298 470.065,-148.801 478.452,-139.367"/>
<polygon fill="midnightblue" stroke="midnightblue" points="481.194,-141.55 485.221,-131.751 475.962,-136.9 481.194,-141.55"/>
</g>
<!-- Node35 -->
<g id="node36" class="node"><title>Node35</title>
<polygon fill="white" stroke="#bfbfbf" points="412,-112.5 412,-131.5 450,-131.5 450,-112.5 412,-112.5"/>
<text text-anchor="middle" x="431" y="-119.5" font-family="Helvetica,sans-Serif" font-size="10.00">tuple</text>
</g>
<!-- Node33&#45;&gt;Node35 -->
<g id="edge63" class="edge"><title>Node33&#45;&gt;Node35</title>
<path fill="none" stroke="midnightblue" d="M442.688,-168.083C440.833,-160.927 438.165,-150.635 435.846,-141.691"/>
<polygon fill="midnightblue" stroke="midnightblue" points="439.166,-140.553 433.269,-131.751 432.391,-142.309 439.166,-140.553"/>
</g>
<!-- Node39&#45;&gt;Node8 -->
<g id="edge72" class="edge"><title>Node39&#45;&gt;Node8</title>
<path fill="none" stroke="midnightblue" d="M59.06,-292.294C62.4367,-268.486 75.1749,-201.828 115,-168 150.372,-137.955 202.803,-127.418 242.316,-123.98"/>
<polygon fill="midnightblue" stroke="midnightblue" points="242.609,-127.468 252.321,-123.235 242.089,-120.487 242.609,-127.468"/>
</g>
</g>
</svg>
