<?xml version="1.0" encoding="UTF-8" standalone="no"?>
<!DOCTYPE svg PUBLIC "-//W3C//DTD SVG 1.1//EN"
 "http://www.w3.org/Graphics/SVG/1.1/DTD/svg11.dtd">
<!-- Generated by graphviz version 2.36.0 (20140111.2315)
 -->
<!-- Title: src/tree/TSimpleParticle.cc Pages: 1 -->
<svg width="1878pt" height="544pt"
 viewBox="0.00 0.00 1878.00 544.00" xmlns="http://www.w3.org/2000/svg" xmlns:xlink="http://www.w3.org/1999/xlink">
<g id="graph0" class="graph" transform="scale(1 1) rotate(0) translate(4 540)">
<title>src/tree/TSimpleParticle.cc</title>
<polygon fill="white" stroke="none" points="-4,4 -4,-540 1874,-540 1874,4 -4,4"/>
<!-- Node0 -->
<g id="node1" class="node"><title>Node0</title>
<polygon fill="#bfbfbf" stroke="black" points="406.5,-516.5 406.5,-535.5 541.5,-535.5 541.5,-516.5 406.5,-516.5"/>
<text text-anchor="middle" x="474" y="-523.5" font-family="Helvetica,sans-Serif" font-size="10.00">src/tree/TSimpleParticle.cc</text>
</g>
<!-- Node1 -->
<g id="node2" class="node"><title>Node1</title>
<g id="a_node2"><a xlink:href="_t_simple_particle_8h.html" target="_top" xlink:title="TSimpleParticle.h">
<polygon fill="white" stroke="black" points="902,-460.5 902,-479.5 996,-479.5 996,-460.5 902,-460.5"/>
<text text-anchor="middle" x="949" y="-467.5" font-family="Helvetica,sans-Serif" font-size="10.00">TSimpleParticle.h</text>
</a>
</g>
</g>
<!-- Node0&#45;&gt;Node1 -->
<g id="edge1" class="edge"><title>Node0&#45;&gt;Node1</title>
<path fill="none" stroke="midnightblue" d="M541.551,-517.32C635.421,-506.649 803.671,-487.522 891.722,-477.512"/>
<polygon fill="midnightblue" stroke="midnightblue" points="892.254,-480.974 901.795,-476.367 891.463,-474.019 892.254,-480.974"/>
</g>
<!-- Node13 -->
<g id="node14" class="node"><title>Node13</title>
<g id="a_node14"><a xlink:href="base_2std__ext_2math_8h.html" target="_top" xlink:title="base/std_ext/math.h">
<polygon fill="white" stroke="black" points="349,-112.5 349,-131.5 455,-131.5 455,-112.5 349,-112.5"/>
<text text-anchor="middle" x="402" y="-119.5" font-family="Helvetica,sans-Serif" font-size="10.00">base/std_ext/math.h</text>
</a>
</g>
</g>
<!-- Node0&#45;&gt;Node13 -->
<g id="edge81" class="edge"><title>Node0&#45;&gt;Node13</title>
<path fill="none" stroke="midnightblue" d="M406.339,-523.279C275.375,-518.103 0,-497.419 0,-415 0,-415 0,-415 0,-357 0,-243.722 72.352,-223.683 171,-168 222.654,-138.843 290.01,-128.284 338.648,-124.606"/>
<polygon fill="midnightblue" stroke="midnightblue" points="338.99,-128.091 348.73,-123.921 338.516,-121.107 338.99,-128.091"/>
</g>
<!-- Node2 -->
<g id="node3" class="node"><title>Node2</title>
<g id="a_node3"><a xlink:href="_t_particle_8h.html" target="_top" xlink:title="TParticle.h">
<polygon fill="white" stroke="black" points="1105,-404.5 1105,-423.5 1169,-423.5 1169,-404.5 1105,-404.5"/>
<text text-anchor="middle" x="1137" y="-411.5" font-family="Helvetica,sans-Serif" font-size="10.00">TParticle.h</text>
</a>
</g>
</g>
<!-- Node1&#45;&gt;Node2 -->
<g id="edge2" class="edge"><title>Node1&#45;&gt;Node2</title>
<path fill="none" stroke="midnightblue" d="M978.789,-460.444C1010.83,-451.241 1061.93,-436.562 1097.35,-426.388"/>
<polygon fill="midnightblue" stroke="midnightblue" points="1098.71,-429.641 1107.35,-423.516 1096.77,-422.913 1098.71,-429.641"/>
</g>
<!-- Node25 -->
<g id="node26" class="node"><title>Node25</title>
<polygon fill="white" stroke="#bfbfbf" points="771,-168.5 771,-187.5 827,-187.5 827,-168.5 771,-168.5"/>
<text text-anchor="middle" x="799" y="-175.5" font-family="Helvetica,sans-Serif" font-size="10.00">algorithm</text>
</g>
<!-- Node1&#45;&gt;Node25 -->
<g id="edge78" class="edge"><title>Node1&#45;&gt;Node25</title>
<path fill="none" stroke="midnightblue" d="M940.45,-460.319C932.302,-451.685 920.109,-437.771 912,-424 863.507,-341.645 879.791,-307.334 833,-224 827.438,-214.093 819.933,-203.923 813.389,-195.762"/>
<polygon fill="midnightblue" stroke="midnightblue" points="815.875,-193.276 806.803,-187.804 810.482,-197.739 815.875,-193.276"/>
</g>
<!-- Node42 -->
<g id="node43" class="node"><title>Node42</title>
<polygon fill="white" stroke="#bfbfbf" points="921,-404.5 921,-423.5 977,-423.5 977,-404.5 921,-404.5"/>
<text text-anchor="middle" x="949" y="-411.5" font-family="Helvetica,sans-Serif" font-size="10.00">Rtypes.h</text>
</g>
<!-- Node1&#45;&gt;Node42 -->
<g id="edge79" class="edge"><title>Node1&#45;&gt;Node42</title>
<path fill="none" stroke="midnightblue" d="M949,-460.083C949,-453.006 949,-442.861 949,-433.986"/>
<polygon fill="midnightblue" stroke="midnightblue" points="952.5,-433.751 949,-423.751 945.5,-433.751 952.5,-433.751"/>
</g>
<!-- Node43 -->
<g id="node44" class="node"><title>Node43</title>
<polygon fill="white" stroke="#bfbfbf" points="995,-404.5 995,-423.5 1087,-423.5 1087,-404.5 995,-404.5"/>
<text text-anchor="middle" x="1041" y="-411.5" font-family="Helvetica,sans-Serif" font-size="10.00">TLorentzVector.h</text>
</g>
<!-- Node1&#45;&gt;Node43 -->
<g id="edge80" class="edge"><title>Node1&#45;&gt;Node43</title>
<path fill="none" stroke="midnightblue" d="M963.781,-460.324C978.267,-451.822 1000.57,-438.729 1017.49,-428.797"/>
<polygon fill="midnightblue" stroke="midnightblue" points="1019.4,-431.735 1026.26,-423.655 1015.86,-425.698 1019.4,-431.735"/>
</g>
<!-- Node3 -->
<g id="node4" class="node"><title>Node3</title>
<g id="a_node4"><a xlink:href="_t_candidate_8h.html" target="_top" xlink:title="tree/TCandidate.h">
<polygon fill="white" stroke="black" points="693.5,-348.5 693.5,-367.5 788.5,-367.5 788.5,-348.5 693.5,-348.5"/>
<text text-anchor="middle" x="741" y="-355.5" font-family="Helvetica,sans-Serif" font-size="10.00">tree/TCandidate.h</text>
</a>
</g>
</g>
<!-- Node2&#45;&gt;Node3 -->
<g id="edge3" class="edge"><title>Node2&#45;&gt;Node3</title>
<path fill="none" stroke="midnightblue" d="M1104.82,-405.65C1101.85,-405.057 1098.87,-404.496 1096,-404 991.702,-385.98 868.995,-372.014 798.577,-364.688"/>
<polygon fill="midnightblue" stroke="midnightblue" points="798.882,-361.201 788.575,-363.655 798.163,-368.164 798.882,-361.201"/>
</g>
<!-- Node15 -->
<g id="node16" class="node"><title>Node15</title>
<polygon fill="white" stroke="#bfbfbf" points="512,-56.5 512,-75.5 556,-75.5 556,-56.5 512,-56.5"/>
<text text-anchor="middle" x="534" y="-63.5" font-family="Helvetica,sans-Serif" font-size="10.00">vector</text>
</g>
<!-- Node2&#45;&gt;Node15 -->
<g id="edge74" class="edge"><title>Node2&#45;&gt;Node15</title>
<path fill="none" stroke="midnightblue" d="M1104.84,-405.531C1101.86,-404.963 1098.88,-404.44 1096,-404 908.624,-375.37 413.354,-404.668 248,-312 182.162,-275.103 126.292,-236.488 158,-168 174.162,-133.09 188.935,-127.823 224,-112 273.171,-89.8123 432.301,-74.9887 501.435,-69.4403"/>
<polygon fill="midnightblue" stroke="midnightblue" points="502.033,-72.9042 511.728,-68.6298 501.484,-65.9258 502.033,-72.9042"/>
</g>
<!-- Node23 -->
<g id="node24" class="node"><title>Node23</title>
<polygon fill="white" stroke="#bfbfbf" points="663,-168.5 663,-187.5 715,-187.5 715,-168.5 663,-168.5"/>
<text text-anchor="middle" x="689" y="-175.5" font-family="Helvetica,sans-Serif" font-size="10.00">memory</text>
</g>
<!-- Node2&#45;&gt;Node23 -->
<g id="edge77" class="edge"><title>Node2&#45;&gt;Node23</title>
<path fill="none" stroke="midnightblue" d="M1120.52,-404.394C1053.02,-369.135 797.267,-235.55 714.799,-192.476"/>
<polygon fill="midnightblue" stroke="midnightblue" points="716.11,-189.211 705.626,-187.684 712.869,-195.416 716.11,-189.211"/>
</g>
<!-- Node26 -->
<g id="node27" class="node"><title>Node26</title>
<g id="a_node27"><a xlink:href="types_8h.html" target="_top" xlink:title="base/types.h">
<polygon fill="white" stroke="black" points="1590.5,-168.5 1590.5,-187.5 1663.5,-187.5 1663.5,-168.5 1590.5,-168.5"/>
<text text-anchor="middle" x="1627" y="-175.5" font-family="Helvetica,sans-Serif" font-size="10.00">base/types.h</text>
</a>
</g>
</g>
<!-- Node2&#45;&gt;Node26 -->
<g id="edge44" class="edge"><title>Node2&#45;&gt;Node26</title>
<path fill="none" stroke="midnightblue" d="M1169.03,-409.186C1241.37,-399.766 1421.93,-371.704 1561,-312 1602.91,-294.006 1625.26,-296.097 1647,-256 1657.25,-237.096 1647.63,-212.707 1638.53,-196.495"/>
<polygon fill="midnightblue" stroke="midnightblue" points="1641.29,-194.305 1633.1,-187.581 1635.31,-197.943 1641.29,-194.305"/>
</g>
<!-- Node27 -->
<g id="node28" class="node"><title>Node27</title>
<g id="a_node28"><a xlink:href="_particle_type_8h.html" target="_top" xlink:title="base/ParticleType.h">
<polygon fill="white" stroke="black" points="1448,-292.5 1448,-311.5 1552,-311.5 1552,-292.5 1448,-292.5"/>
<text text-anchor="middle" x="1500" y="-299.5" font-family="Helvetica,sans-Serif" font-size="10.00">base/ParticleType.h</text>
</a>
</g>
</g>
<!-- Node2&#45;&gt;Node27 -->
<g id="edge45" class="edge"><title>Node2&#45;&gt;Node27</title>
<path fill="none" stroke="midnightblue" d="M1141.95,-404.072C1150.5,-389.612 1169.48,-361.346 1194,-348 1234.9,-325.736 1360.87,-312.983 1437.84,-307.074"/>
<polygon fill="midnightblue" stroke="midnightblue" points="1438.19,-310.558 1447.9,-306.319 1437.67,-303.577 1438.19,-310.558"/>
</g>
<!-- Node32 -->
<g id="node33" class="node"><title>Node32</title>
<g id="a_node33"><a xlink:href="_tree_8h.html" target="_top" xlink:title="base/Tree.h">
<polygon fill="white" stroke="black" points="975,-230.5 975,-249.5 1043,-249.5 1043,-230.5 975,-230.5"/>
<text text-anchor="middle" x="1009" y="-237.5" font-family="Helvetica,sans-Serif" font-size="10.00">base/Tree.h</text>
</a>
</g>
</g>
<!-- Node2&#45;&gt;Node32 -->
<g id="edge60" class="edge"><title>Node2&#45;&gt;Node32</title>
<path fill="none" stroke="midnightblue" d="M1130.48,-404.234C1110.27,-377.086 1048.49,-294.067 1021.66,-258.012"/>
<polygon fill="midnightblue" stroke="midnightblue" points="1024.14,-255.477 1015.36,-249.544 1018.52,-259.656 1024.14,-255.477"/>
</g>
<!-- Node37 -->
<g id="node38" class="node"><title>Node37</title>
<polygon fill="white" stroke="#bfbfbf" points="1285.5,-168.5 1285.5,-187.5 1314.5,-187.5 1314.5,-168.5 1285.5,-168.5"/>
<text text-anchor="middle" x="1300" y="-175.5" font-family="Helvetica,sans-Serif" font-size="10.00">list</text>
</g>
<!-- Node2&#45;&gt;Node37 -->
<g id="edge75" class="edge"><title>Node2&#45;&gt;Node37</title>
<path fill="none" stroke="midnightblue" d="M1140.27,-404.259C1145.23,-391.462 1155.31,-367.077 1167,-348 1203.92,-287.726 1258.97,-224.178 1285.14,-195.159"/>
<polygon fill="midnightblue" stroke="midnightblue" points="1287.87,-197.365 1292,-187.612 1282.69,-192.656 1287.87,-197.365"/>
</g>
<!-- Node40 -->
<g id="node41" class="node"><title>Node40</title>
<g id="a_node41"><a xlink:href="_lorentz_vec_8h.html" target="_top" xlink:title="base/vec/LorentzVec.h">
<polygon fill="white" stroke="black" points="1753.5,-292.5 1753.5,-311.5 1870.5,-311.5 1870.5,-292.5 1753.5,-292.5"/>
<text text-anchor="middle" x="1812" y="-299.5" font-family="Helvetica,sans-Serif" font-size="10.00">base/vec/LorentzVec.h</text>
</a>
</g>
</g>
<!-- Node2&#45;&gt;Node40 -->
<g id="edge72" class="edge"><title>Node2&#45;&gt;Node40</title>
<path fill="none" stroke="midnightblue" d="M1169.25,-413.286C1278.69,-413.841 1634.91,-412.137 1739,-368 1763.78,-357.492 1785.88,-335.05 1799.11,-319.498"/>
<polygon fill="midnightblue" stroke="midnightblue" points="1801.87,-321.641 1805.5,-311.686 1796.46,-317.206 1801.87,-321.641"/>
</g>
<!-- Node41 -->
<g id="node42" class="node"><title>Node41</title>
<polygon fill="white" stroke="#bfbfbf" points="1203,-348.5 1203,-367.5 1257,-367.5 1257,-348.5 1203,-348.5"/>
<text text-anchor="middle" x="1230" y="-355.5" font-family="Helvetica,sans-Serif" font-size="10.00">iostream</text>
</g>
<!-- Node2&#45;&gt;Node41 -->
<g id="edge76" class="edge"><title>Node2&#45;&gt;Node41</title>
<path fill="none" stroke="midnightblue" d="M1151.94,-404.324C1166.59,-395.822 1189.13,-382.729 1206.24,-372.797"/>
<polygon fill="midnightblue" stroke="midnightblue" points="1208.2,-375.703 1215.1,-367.655 1204.69,-369.649 1208.2,-375.703"/>
</g>
<!-- Node4 -->
<g id="node5" class="node"><title>Node4</title>
<g id="a_node5"><a xlink:href="_t_cluster_8h.html" target="_top" xlink:title="TCluster.h">
<polygon fill="white" stroke="black" points="415,-292.5 415,-311.5 477,-311.5 477,-292.5 415,-292.5"/>
<text text-anchor="middle" x="446" y="-299.5" font-family="Helvetica,sans-Serif" font-size="10.00">TCluster.h</text>
</a>
</g>
</g>
<!-- Node3&#45;&gt;Node4 -->
<g id="edge4" class="edge"><title>Node3&#45;&gt;Node4</title>
<path fill="none" stroke="midnightblue" d="M694.256,-348.444C637.173,-337.994 541.525,-320.486 487.124,-310.528"/>
<polygon fill="midnightblue" stroke="midnightblue" points="487.608,-307.058 477.141,-308.7 486.347,-313.944 487.608,-307.058"/>
</g>
<!-- Node6 -->
<g id="node7" class="node"><title>Node6</title>
<g id="a_node7"><a xlink:href="_detector__t_8h.html" target="_top" xlink:title="base/Detector_t.h">
<polygon fill="white" stroke="black" points="511.5,-168.5 511.5,-187.5 606.5,-187.5 606.5,-168.5 511.5,-168.5"/>
<text text-anchor="middle" x="559" y="-175.5" font-family="Helvetica,sans-Serif" font-size="10.00">base/Detector_t.h</text>
</a>
</g>
</g>
<!-- Node3&#45;&gt;Node6 -->
<g id="edge38" class="edge"><title>Node3&#45;&gt;Node6</title>
<path fill="none" stroke="midnightblue" d="M738.159,-348.275C730.163,-324.986 705.323,-260.643 664,-224 646.657,-208.621 623.264,-197.905 602.961,-190.8"/>
<polygon fill="midnightblue" stroke="midnightblue" points="603.875,-187.416 593.282,-187.597 601.676,-194.061 603.875,-187.416"/>
</g>
<!-- Node3&#45;&gt;Node15 -->
<g id="edge39" class="edge"><title>Node3&#45;&gt;Node15</title>
<path fill="none" stroke="midnightblue" d="M746.384,-348.443C751.556,-339.678 759.012,-325.467 762,-312 763.925,-303.322 762.456,-300.877 762,-292 757.639,-207.056 763.075,-165.56 697,-112 659.178,-81.3418 601.952,-71.5204 566.337,-68.4052"/>
<polygon fill="midnightblue" stroke="midnightblue" points="566.255,-64.8895 556.023,-67.6381 565.736,-71.8702 566.255,-64.8895"/>
</g>
<!-- Node20 -->
<g id="node21" class="node"><title>Node20</title>
<polygon fill="white" stroke="#bfbfbf" points="180,-168.5 180,-187.5 230,-187.5 230,-168.5 180,-168.5"/>
<text text-anchor="middle" x="205" y="-175.5" font-family="Helvetica,sans-Serif" font-size="10.00">iomanip</text>
</g>
<!-- Node3&#45;&gt;Node20 -->
<g id="edge40" class="edge"><title>Node3&#45;&gt;Node20</title>
<path fill="none" stroke="midnightblue" d="M693.382,-355.192C594.37,-350.943 369.553,-338.605 298,-312 257.32,-296.874 241.189,-292.687 218,-256 206.936,-238.495 204.447,-214.466 204.239,-197.93"/>
<polygon fill="midnightblue" stroke="midnightblue" points="207.739,-197.901 204.382,-187.852 200.74,-197.801 207.739,-197.901"/>
</g>
<!-- Node21 -->
<g id="node22" class="node"><title>Node21</title>
<polygon fill="white" stroke="#bfbfbf" points="287,-168.5 287,-187.5 339,-187.5 339,-168.5 287,-168.5"/>
<text text-anchor="middle" x="313" y="-175.5" font-family="Helvetica,sans-Serif" font-size="10.00">sstream</text>
</g>
<!-- Node3&#45;&gt;Node21 -->
<g id="edge41" class="edge"><title>Node3&#45;&gt;Node21</title>
<path fill="none" stroke="midnightblue" d="M693.268,-355.15C579.577,-349.587 298.405,-328.605 247,-256 238.782,-244.393 240.355,-236.574 247,-224 254.424,-209.953 268.421,-199.467 281.621,-192.167"/>
<polygon fill="midnightblue" stroke="midnightblue" points="283.223,-195.279 290.541,-187.618 280.043,-189.043 283.223,-195.279"/>
</g>
<!-- Node3&#45;&gt;Node23 -->
<g id="edge42" class="edge"><title>Node3&#45;&gt;Node23</title>
<path fill="none" stroke="midnightblue" d="M742.796,-348.412C746.943,-326.501 755.417,-267.206 736,-224 730.628,-212.046 720.472,-201.684 710.972,-193.928"/>
<polygon fill="midnightblue" stroke="midnightblue" points="713.006,-191.077 702.928,-187.807 708.767,-196.648 713.006,-191.077"/>
</g>
<!-- Node3&#45;&gt;Node25 -->
<g id="edge43" class="edge"><title>Node3&#45;&gt;Node25</title>
<path fill="none" stroke="midnightblue" d="M766.161,-348.378C782.419,-341.343 802.293,-329.645 812,-312 832.238,-275.212 817.365,-223.969 806.91,-197.094"/>
<polygon fill="midnightblue" stroke="midnightblue" points="810.115,-195.686 803.072,-187.771 803.642,-198.35 810.115,-195.686"/>
</g>
<!-- Node5 -->
<g id="node6" class="node"><title>Node5</title>
<g id="a_node6"><a xlink:href="_t_detector_read_hit_8h.html" target="_top" xlink:title="tree/TDetectorReadHit.h">
<polygon fill="white" stroke="black" points="256,-230.5 256,-249.5 380,-249.5 380,-230.5 256,-230.5"/>
<text text-anchor="middle" x="318" y="-237.5" font-family="Helvetica,sans-Serif" font-size="10.00">tree/TDetectorReadHit.h</text>
</a>
</g>
</g>
<!-- Node4&#45;&gt;Node5 -->
<g id="edge5" class="edge"><title>Node4&#45;&gt;Node5</title>
<path fill="none" stroke="midnightblue" d="M427.661,-292.403C406.179,-282.334 370.378,-265.552 345.552,-253.915"/>
<polygon fill="midnightblue" stroke="midnightblue" points="346.845,-250.656 336.305,-249.581 343.874,-256.994 346.845,-250.656"/>
</g>
<!-- Node4&#45;&gt;Node6 -->
<g id="edge25" class="edge"><title>Node4&#45;&gt;Node6</title>
<path fill="none" stroke="midnightblue" d="M452.424,-292.053C463.207,-277.267 485.941,-247.076 508,-224 518.072,-213.464 530.288,-202.626 540.239,-194.227"/>
<polygon fill="midnightblue" stroke="midnightblue" points="542.513,-196.888 547.968,-187.806 538.04,-191.504 542.513,-196.888"/>
</g>
<!-- Node9 -->
<g id="node10" class="node"><title>Node9</title>
<g id="a_node10"><a xlink:href="vec3_8h.html" target="_top" xlink:title="base/vec/vec3.h">
<polygon fill="white" stroke="black" points="1057.5,-112.5 1057.5,-131.5 1146.5,-131.5 1146.5,-112.5 1057.5,-112.5"/>
<text text-anchor="middle" x="1102" y="-119.5" font-family="Helvetica,sans-Serif" font-size="10.00">base/vec/vec3.h</text>
</a>
</g>
</g>
<!-- Node4&#45;&gt;Node9 -->
<g id="edge32" class="edge"><title>Node4&#45;&gt;Node9</title>
<path fill="none" stroke="midnightblue" d="M459.229,-292.209C472.066,-283.493 491.913,-269.521 508,-256 523.64,-242.855 524.271,-235.727 541,-224 570.949,-203.006 582.282,-204.346 615,-188 632.426,-179.294 635.292,-173.43 654,-168 819.738,-119.895 871.678,-153.182 1047.16,-131.982"/>
<polygon fill="midnightblue" stroke="midnightblue" points="1047.76,-135.435 1057.25,-130.721 1046.89,-128.489 1047.76,-135.435"/>
</g>
<!-- Node11 -->
<g id="node12" class="node"><title>Node11</title>
<polygon fill="white" stroke="#bfbfbf" points="1029,-0.5 1029,-19.5 1073,-19.5 1073,-0.5 1029,-0.5"/>
<text text-anchor="middle" x="1051" y="-7.5" font-family="Helvetica,sans-Serif" font-size="10.00">cmath</text>
</g>
<!-- Node4&#45;&gt;Node11 -->
<g id="edge34" class="edge"><title>Node4&#45;&gt;Node11</title>
<path fill="none" stroke="midnightblue" d="M414.752,-299.089C350.653,-294.675 206.879,-282.092 166,-256 131.191,-233.782 114,-220.295 114,-179 114,-179 114,-179 114,-121 114,-27.842 854.016,-13.3865 1018.76,-11.3226"/>
<polygon fill="midnightblue" stroke="midnightblue" points="1018.8,-14.8224 1028.76,-11.2039 1018.72,-7.82288 1018.8,-14.8224"/>
</g>
<!-- Node4&#45;&gt;Node13 -->
<g id="edge26" class="edge"><title>Node4&#45;&gt;Node13</title>
<path fill="none" stroke="midnightblue" d="M443.849,-292.476C439.92,-277.796 430.705,-247.095 417,-224 406.225,-205.842 393.348,-207.795 386,-188 380.199,-172.372 385.921,-153.851 392.075,-140.585"/>
<polygon fill="midnightblue" stroke="midnightblue" points="395.234,-142.095 396.682,-131.6 389.005,-138.902 395.234,-142.095"/>
</g>
<!-- Node4&#45;&gt;Node15 -->
<g id="edge33" class="edge"><title>Node4&#45;&gt;Node15</title>
<path fill="none" stroke="midnightblue" d="M414.73,-298.253C329.93,-289.567 106.188,-257.753 171,-168 210.353,-113.502 420.481,-81.4117 501.816,-70.8754"/>
<polygon fill="midnightblue" stroke="midnightblue" points="502.486,-74.3185 511.966,-69.5865 501.604,-67.3742 502.486,-74.3185"/>
</g>
<!-- Node4&#45;&gt;Node20 -->
<g id="edge35" class="edge"><title>Node4&#45;&gt;Node20</title>
<path fill="none" stroke="midnightblue" d="M414.778,-301.578C372.578,-300.794 296.886,-293.682 247,-256 227.681,-241.407 216.158,-215.238 210.199,-197.502"/>
<polygon fill="midnightblue" stroke="midnightblue" points="213.477,-196.254 207.188,-187.727 206.787,-198.314 213.477,-196.254"/>
</g>
<!-- Node4&#45;&gt;Node21 -->
<g id="edge36" class="edge"><title>Node4&#45;&gt;Node21</title>
<path fill="none" stroke="midnightblue" d="M440.847,-292.043C431.704,-276.709 411.387,-245.048 388,-224 373.927,-211.334 355.771,-200.331 340.847,-192.376"/>
<polygon fill="midnightblue" stroke="midnightblue" points="342.075,-189.071 331.583,-187.601 338.868,-195.293 342.075,-189.071"/>
</g>
<!-- Node22 -->
<g id="node23" class="node"><title>Node22</title>
<g id="a_node23"><a xlink:href="shared__ptr__container_8h.html" target="_top" xlink:title="base/std_ext/shared\l_ptr_container.h">
<polygon fill="white" stroke="black" points="550.5,-225 550.5,-255 655.5,-255 655.5,-225 550.5,-225"/>
<text text-anchor="start" x="558.5" y="-243" font-family="Helvetica,sans-Serif" font-size="10.00">base/std_ext/shared</text>
<text text-anchor="middle" x="603" y="-232" font-family="Helvetica,sans-Serif" font-size="10.00">_ptr_container.h</text>
</a>
</g>
</g>
<!-- Node4&#45;&gt;Node22 -->
<g id="edge27" class="edge"><title>Node4&#45;&gt;Node22</title>
<path fill="none" stroke="midnightblue" d="M468.494,-292.403C491.424,-283.641 527.655,-269.794 556.74,-258.679"/>
<polygon fill="midnightblue" stroke="midnightblue" points="558.209,-261.865 566.3,-255.025 555.71,-255.326 558.209,-261.865"/>
</g>
<!-- Node4&#45;&gt;Node23 -->
<g id="edge37" class="edge"><title>Node4&#45;&gt;Node23</title>
<path fill="none" stroke="midnightblue" d="M477.39,-298.372C530.935,-293.278 636.792,-280.36 664,-256 680.493,-241.234 686.154,-215.492 688.07,-197.868"/>
<polygon fill="midnightblue" stroke="midnightblue" points="691.578,-197.897 688.863,-187.656 684.599,-197.355 691.578,-197.897"/>
</g>
<!-- Node5&#45;&gt;Node6 -->
<g id="edge6" class="edge"><title>Node5&#45;&gt;Node6</title>
<path fill="none" stroke="midnightblue" d="M352.273,-230.467C395.011,-219.827 468.137,-201.622 514.98,-189.959"/>
<polygon fill="midnightblue" stroke="midnightblue" points="515.987,-193.316 524.845,-187.503 514.295,-186.523 515.987,-193.316"/>
</g>
<!-- Node5&#45;&gt;Node20 -->
<g id="edge23" class="edge"><title>Node5&#45;&gt;Node20</title>
<path fill="none" stroke="midnightblue" d="M301.81,-230.403C283.098,-220.468 252.077,-203.997 230.201,-192.381"/>
<polygon fill="midnightblue" stroke="midnightblue" points="231.634,-189.179 221.16,-187.581 228.351,-195.362 231.634,-189.179"/>
</g>
<!-- Node5&#45;&gt;Node21 -->
<g id="edge24" class="edge"><title>Node5&#45;&gt;Node21</title>
<path fill="none" stroke="midnightblue" d="M317.284,-230.403C316.578,-221.938 315.477,-208.728 314.568,-197.82"/>
<polygon fill="midnightblue" stroke="midnightblue" points="318.034,-197.255 313.715,-187.581 311.058,-197.837 318.034,-197.255"/>
</g>
<!-- Node7 -->
<g id="node8" class="node"><title>Node7</title>
<g id="a_node8"><a xlink:href="bitflag_8h.html" target="_top" xlink:title="base/bitflag.h">
<polygon fill="white" stroke="black" points="613.5,-112.5 613.5,-131.5 688.5,-131.5 688.5,-112.5 613.5,-112.5"/>
<text text-anchor="middle" x="651" y="-119.5" font-family="Helvetica,sans-Serif" font-size="10.00">base/bitflag.h</text>
</a>
</g>
</g>
<!-- Node6&#45;&gt;Node7 -->
<g id="edge7" class="edge"><title>Node6&#45;&gt;Node7</title>
<path fill="none" stroke="midnightblue" d="M573.781,-168.324C588.267,-159.822 610.573,-146.729 627.493,-136.797"/>
<polygon fill="midnightblue" stroke="midnightblue" points="629.403,-139.735 636.255,-131.655 625.859,-133.698 629.403,-139.735"/>
</g>
<!-- Node6&#45;&gt;Node9 -->
<g id="edge9" class="edge"><title>Node6&#45;&gt;Node9</title>
<path fill="none" stroke="midnightblue" d="M606.69,-169.783C611.519,-169.14 616.353,-168.533 621,-168 806.978,-146.681 857.317,-155.363 1047.22,-131.993"/>
<polygon fill="midnightblue" stroke="midnightblue" points="1047.76,-135.453 1057.25,-130.745 1046.9,-128.506 1047.76,-135.453"/>
</g>
<!-- Node6&#45;&gt;Node13 -->
<g id="edge14" class="edge"><title>Node6&#45;&gt;Node13</title>
<path fill="none" stroke="midnightblue" d="M534.123,-168.444C507.711,-159.359 465.785,-144.939 436.258,-134.783"/>
<polygon fill="midnightblue" stroke="midnightblue" points="437.355,-131.459 426.761,-131.516 435.079,-138.079 437.355,-131.459"/>
</g>
<!-- Node6&#45;&gt;Node15 -->
<g id="edge22" class="edge"><title>Node6&#45;&gt;Node15</title>
<path fill="none" stroke="midnightblue" d="M562.128,-168.361C566.229,-155.691 572.214,-131.462 566,-112 562.659,-101.538 555.9,-91.4277 549.451,-83.4496"/>
<polygon fill="midnightblue" stroke="midnightblue" points="551.944,-80.9815 542.751,-75.7136 546.652,-85.5641 551.944,-80.9815"/>
</g>
<!-- Node16 -->
<g id="node17" class="node"><title>Node16</title>
<polygon fill="white" stroke="#bfbfbf" points="511,-112.5 511,-131.5 557,-131.5 557,-112.5 511,-112.5"/>
<text text-anchor="middle" x="534" y="-119.5" font-family="Helvetica,sans-Serif" font-size="10.00">cstdint</text>
</g>
<!-- Node6&#45;&gt;Node16 -->
<g id="edge18" class="edge"><title>Node6&#45;&gt;Node16</title>
<path fill="none" stroke="midnightblue" d="M554.872,-168.083C551.486,-160.77 546.584,-150.181 542.381,-141.103"/>
<polygon fill="midnightblue" stroke="midnightblue" points="545.429,-139.355 538.051,-131.751 539.077,-142.296 545.429,-139.355"/>
</g>
<!-- Node17 -->
<g id="node18" class="node"><title>Node17</title>
<polygon fill="white" stroke="#bfbfbf" points="980.5,-112.5 980.5,-131.5 1039.5,-131.5 1039.5,-112.5 980.5,-112.5"/>
<text text-anchor="middle" x="1010" y="-119.5" font-family="Helvetica,sans-Serif" font-size="10.00">stdexcept</text>
</g>
<!-- Node6&#45;&gt;Node17 -->
<g id="edge19" class="edge"><title>Node6&#45;&gt;Node17</title>
<path fill="none" stroke="midnightblue" d="M606.7,-169.871C611.527,-169.211 616.359,-168.575 621,-168 773.006,-149.158 815.027,-157.279 970.358,-131.901"/>
<polygon fill="midnightblue" stroke="midnightblue" points="970.971,-135.348 980.266,-130.263 969.828,-128.441 970.971,-135.348"/>
</g>
<!-- Node18 -->
<g id="node19" class="node"><title>Node18</title>
<polygon fill="white" stroke="#bfbfbf" points="921.5,-112.5 921.5,-131.5 962.5,-131.5 962.5,-112.5 921.5,-112.5"/>
<text text-anchor="middle" x="942" y="-119.5" font-family="Helvetica,sans-Serif" font-size="10.00">string</text>
</g>
<!-- Node6&#45;&gt;Node18 -->
<g id="edge20" class="edge"><title>Node6&#45;&gt;Node18</title>
<path fill="none" stroke="midnightblue" d="M606.724,-170.048C611.546,-169.353 616.37,-168.661 621,-168 727.506,-152.805 853.957,-135.208 911.166,-127.272"/>
<polygon fill="midnightblue" stroke="midnightblue" points="911.916,-130.701 921.34,-125.861 910.954,-123.768 911.916,-130.701"/>
</g>
<!-- Node19 -->
<g id="node20" class="node"><title>Node19</title>
<polygon fill="white" stroke="#bfbfbf" points="787,-112.5 787,-131.5 849,-131.5 849,-112.5 787,-112.5"/>
<text text-anchor="middle" x="818" y="-119.5" font-family="Helvetica,sans-Serif" font-size="10.00">type_traits</text>
</g>
<!-- Node6&#45;&gt;Node19 -->
<g id="edge21" class="edge"><title>Node6&#45;&gt;Node19</title>
<path fill="none" stroke="midnightblue" d="M600.039,-168.444C648.512,-158.337 728.658,-141.627 777.079,-131.532"/>
<polygon fill="midnightblue" stroke="midnightblue" points="777.832,-134.95 786.907,-129.483 776.403,-128.097 777.832,-134.95"/>
</g>
<!-- Node8 -->
<g id="node9" class="node"><title>Node8</title>
<polygon fill="white" stroke="#bfbfbf" points="630.5,-56.5 630.5,-75.5 671.5,-75.5 671.5,-56.5 630.5,-56.5"/>
<text text-anchor="middle" x="651" y="-63.5" font-family="Helvetica,sans-Serif" font-size="10.00">bitset</text>
</g>
<!-- Node7&#45;&gt;Node8 -->
<g id="edge8" class="edge"><title>Node7&#45;&gt;Node8</title>
<path fill="none" stroke="midnightblue" d="M651,-112.083C651,-105.006 651,-94.8611 651,-85.9865"/>
<polygon fill="midnightblue" stroke="midnightblue" points="654.5,-85.751 651,-75.7511 647.5,-85.7511 654.5,-85.751"/>
</g>
<!-- Node10 -->
<g id="node11" class="node"><title>Node10</title>
<g id="a_node11"><a xlink:href="vec2_8h.html" target="_top" xlink:title="vec2.h">
<polygon fill="white" stroke="black" points="1028,-56.5 1028,-75.5 1074,-75.5 1074,-56.5 1028,-56.5"/>
<text text-anchor="middle" x="1051" y="-63.5" font-family="Helvetica,sans-Serif" font-size="10.00">vec2.h</text>
</a>
</g>
</g>
<!-- Node9&#45;&gt;Node10 -->
<g id="edge10" class="edge"><title>Node9&#45;&gt;Node10</title>
<path fill="none" stroke="midnightblue" d="M1093.58,-112.083C1086.15,-104.22 1075.15,-92.5688 1066.19,-83.0813"/>
<polygon fill="midnightblue" stroke="midnightblue" points="1068.68,-80.618 1059.26,-75.7511 1063.59,-85.4244 1068.68,-80.618"/>
</g>
<!-- Node9&#45;&gt;Node11 -->
<g id="edge13" class="edge"><title>Node9&#45;&gt;Node11</title>
<path fill="none" stroke="midnightblue" d="M1100.41,-112.251C1097.87,-99.4424 1092.23,-75.0441 1083,-56 1078.15,-45.9902 1071.12,-35.8098 1064.89,-27.6697"/>
<polygon fill="midnightblue" stroke="midnightblue" points="1067.54,-25.3844 1058.57,-19.7423 1062.07,-29.7452 1067.54,-25.3844"/>
</g>
<!-- Node12 -->
<g id="node13" class="node"><title>Node12</title>
<polygon fill="white" stroke="#bfbfbf" points="1272,-56.5 1272,-75.5 1324,-75.5 1324,-56.5 1272,-56.5"/>
<text text-anchor="middle" x="1298" y="-63.5" font-family="Helvetica,sans-Serif" font-size="10.00">ostream</text>
</g>
<!-- Node9&#45;&gt;Node12 -->
<g id="edge12" class="edge"><title>Node9&#45;&gt;Node12</title>
<path fill="none" stroke="midnightblue" d="M1133.06,-112.444C1168.08,-102.793 1224.96,-87.122 1261.93,-76.9377"/>
<polygon fill="midnightblue" stroke="midnightblue" points="1263.08,-80.2508 1271.79,-74.2203 1261.22,-73.5022 1263.08,-80.2508"/>
</g>
<!-- Node10&#45;&gt;Node11 -->
<g id="edge11" class="edge"><title>Node10&#45;&gt;Node11</title>
<path fill="none" stroke="midnightblue" d="M1051,-56.083C1051,-49.0059 1051,-38.8611 1051,-29.9865"/>
<polygon fill="midnightblue" stroke="midnightblue" points="1054.5,-29.751 1051,-19.7511 1047.5,-29.7511 1054.5,-29.751"/>
</g>
<!-- Node13&#45;&gt;Node11 -->
<g id="edge15" class="edge"><title>Node13&#45;&gt;Node11</title>
<path fill="none" stroke="midnightblue" d="M411.734,-112.342C428.807,-97.7421 465.874,-68.5876 503,-56 599.591,-23.2508 916.751,-13.8204 1018.95,-11.5976"/>
<polygon fill="midnightblue" stroke="midnightblue" points="1019.05,-15.0964 1028.98,-11.388 1018.91,-8.09796 1019.05,-15.0964"/>
</g>
<!-- Node14 -->
<g id="node15" class="node"><title>Node14</title>
<polygon fill="white" stroke="#bfbfbf" points="830,-56.5 830,-75.5 870,-75.5 870,-56.5 830,-56.5"/>
<text text-anchor="middle" x="850" y="-63.5" font-family="Helvetica,sans-Serif" font-size="10.00">limits</text>
</g>
<!-- Node13&#45;&gt;Node14 -->
<g id="edge16" class="edge"><title>Node13&#45;&gt;Node14</title>
<path fill="none" stroke="midnightblue" d="M455.151,-114.593C549.702,-103.197 744.242,-79.7477 819.415,-70.6866"/>
<polygon fill="midnightblue" stroke="midnightblue" points="820.105,-74.1289 829.614,-69.4573 819.267,-67.1792 820.105,-74.1289"/>
</g>
<!-- Node13&#45;&gt;Node15 -->
<g id="edge17" class="edge"><title>Node13&#45;&gt;Node15</title>
<path fill="none" stroke="midnightblue" d="M422.916,-112.444C444.736,-103.517 479.15,-89.4387 503.892,-79.3168"/>
<polygon fill="midnightblue" stroke="midnightblue" points="505.252,-82.5422 513.182,-75.5164 502.601,-76.0634 505.252,-82.5422"/>
</g>
<!-- Node22&#45;&gt;Node15 -->
<g id="edge28" class="edge"><title>Node22&#45;&gt;Node15</title>
<path fill="none" stroke="midnightblue" d="M550.317,-225.036C531.742,-217.303 512.809,-205.567 502,-188 484.299,-159.232 491.726,-144.177 502,-112 505.341,-101.538 512.1,-91.4277 518.549,-83.4496"/>
<polygon fill="midnightblue" stroke="midnightblue" points="521.348,-85.5641 525.249,-75.7136 516.056,-80.9815 521.348,-85.5641"/>
</g>
<!-- Node22&#45;&gt;Node23 -->
<g id="edge29" class="edge"><title>Node22&#45;&gt;Node23</title>
<path fill="none" stroke="midnightblue" d="M623.381,-224.781C636.99,-215.286 654.824,-202.843 668.465,-193.327"/>
<polygon fill="midnightblue" stroke="midnightblue" points="670.538,-196.148 676.737,-187.556 666.533,-190.407 670.538,-196.148"/>
</g>
<!-- Node24 -->
<g id="node25" class="node"><title>Node24</title>
<polygon fill="white" stroke="#bfbfbf" points="395.5,-168.5 395.5,-187.5 454.5,-187.5 454.5,-168.5 395.5,-168.5"/>
<text text-anchor="middle" x="425" y="-175.5" font-family="Helvetica,sans-Serif" font-size="10.00">functional</text>
</g>
<!-- Node22&#45;&gt;Node24 -->
<g id="edge30" class="edge"><title>Node22&#45;&gt;Node24</title>
<path fill="none" stroke="midnightblue" d="M561.267,-224.933C530.474,-214.553 489.047,-200.589 459.982,-190.792"/>
<polygon fill="midnightblue" stroke="midnightblue" points="460.848,-187.39 450.254,-187.513 458.612,-194.024 460.848,-187.39"/>
</g>
<!-- Node22&#45;&gt;Node25 -->
<g id="edge31" class="edge"><title>Node22&#45;&gt;Node25</title>
<path fill="none" stroke="midnightblue" d="M648.953,-224.933C683.156,-214.462 729.275,-200.345 761.316,-190.536"/>
<polygon fill="midnightblue" stroke="midnightblue" points="762.654,-193.787 771.192,-187.513 760.605,-187.093 762.654,-193.787"/>
</g>
<!-- Node27&#45;&gt;Node12 -->
<g id="edge56" class="edge"><title>Node27&#45;&gt;Node12</title>
<path fill="none" stroke="midnightblue" d="M1552.04,-296.598C1583.13,-291.422 1621.41,-280.214 1647,-256 1676.53,-228.055 1696.72,-200.281 1672,-168 1630.49,-113.792 1419.58,-82.0394 1334.08,-71.2203"/>
<polygon fill="midnightblue" stroke="midnightblue" points="1334.41,-67.7348 1324.05,-69.9757 1333.55,-74.6815 1334.41,-67.7348"/>
</g>
<!-- Node27&#45;&gt;Node15 -->
<g id="edge59" class="edge"><title>Node27&#45;&gt;Node15</title>
<path fill="none" stroke="midnightblue" d="M1476.84,-292.449C1458.24,-284.817 1432.15,-272.328 1413,-256 1349.82,-202.135 1369.52,-146.498 1294,-112 1225.89,-80.8843 695.655,-81.8546 621,-76 602.87,-74.5782 582.662,-72.5169 566.288,-70.7257"/>
<polygon fill="midnightblue" stroke="midnightblue" points="566.468,-67.2242 556.143,-69.597 565.694,-74.1813 566.468,-67.2242"/>
</g>
<!-- Node27&#45;&gt;Node18 -->
<g id="edge55" class="edge"><title>Node27&#45;&gt;Node18</title>
<path fill="none" stroke="midnightblue" d="M1458.64,-292.435C1433.84,-285.711 1402.8,-274.338 1380,-256 1343.69,-226.793 1362.75,-192.316 1323,-168 1258.41,-128.493 1063.28,-146.275 972.765,-131.813"/>
<polygon fill="midnightblue" stroke="midnightblue" points="973.246,-128.343 962.78,-129.992 971.99,-135.229 973.246,-128.343"/>
</g>
<!-- Node27&#45;&gt;Node26 -->
<g id="edge46" class="edge"><title>Node27&#45;&gt;Node26</title>
<path fill="none" stroke="midnightblue" d="M1552.3,-296.884C1579.92,-291.737 1611.63,-280.463 1629,-256 1641.07,-239.008 1637.7,-214.164 1633.22,-197.329"/>
<polygon fill="midnightblue" stroke="midnightblue" points="1636.52,-196.138 1630.26,-187.584 1629.82,-198.17 1636.52,-196.138"/>
</g>
<!-- Node28 -->
<g id="node29" class="node"><title>Node28</title>
<g id="a_node29"><a xlink:href="interval_8h.html" target="_top" xlink:title="base/interval.h">
<polygon fill="white" stroke="black" points="1422,-230.5 1422,-249.5 1502,-249.5 1502,-230.5 1422,-230.5"/>
<text text-anchor="middle" x="1462" y="-237.5" font-family="Helvetica,sans-Serif" font-size="10.00">base/interval.h</text>
</a>
</g>
</g>
<!-- Node27&#45;&gt;Node28 -->
<g id="edge47" class="edge"><title>Node27&#45;&gt;Node28</title>
<path fill="none" stroke="midnightblue" d="M1494.56,-292.403C1488.91,-283.493 1479.94,-269.325 1472.84,-258.118"/>
<polygon fill="midnightblue" stroke="midnightblue" points="1475.74,-256.156 1467.43,-249.581 1469.83,-259.901 1475.74,-256.156"/>
</g>
<!-- Node30 -->
<g id="node31" class="node"><title>Node30</title>
<polygon fill="white" stroke="#bfbfbf" points="1520.5,-230.5 1520.5,-249.5 1555.5,-249.5 1555.5,-230.5 1520.5,-230.5"/>
<text text-anchor="middle" x="1538" y="-237.5" font-family="Helvetica,sans-Serif" font-size="10.00">map</text>
</g>
<!-- Node27&#45;&gt;Node30 -->
<g id="edge57" class="edge"><title>Node27&#45;&gt;Node30</title>
<path fill="none" stroke="midnightblue" d="M1505.44,-292.403C1511.09,-283.493 1520.06,-269.325 1527.16,-258.118"/>
<polygon fill="midnightblue" stroke="midnightblue" points="1530.17,-259.901 1532.57,-249.581 1524.26,-256.156 1530.17,-259.901"/>
</g>
<!-- Node31 -->
<g id="node32" class="node"><title>Node31</title>
<polygon fill="white" stroke="#bfbfbf" points="1573.5,-230.5 1573.5,-249.5 1620.5,-249.5 1620.5,-230.5 1573.5,-230.5"/>
<text text-anchor="middle" x="1597" y="-237.5" font-family="Helvetica,sans-Serif" font-size="10.00">iterator</text>
</g>
<!-- Node27&#45;&gt;Node31 -->
<g id="edge58" class="edge"><title>Node27&#45;&gt;Node31</title>
<path fill="none" stroke="midnightblue" d="M1513.9,-292.403C1529.74,-282.601 1555.87,-266.439 1574.6,-254.853"/>
<polygon fill="midnightblue" stroke="midnightblue" points="1576.46,-257.818 1583.13,-249.581 1572.78,-251.865 1576.46,-257.818"/>
</g>
<!-- Node28&#45;&gt;Node11 -->
<g id="edge54" class="edge"><title>Node28&#45;&gt;Node11</title>
<path fill="none" stroke="midnightblue" d="M1465.45,-230.145C1469.16,-220.106 1474.82,-203.164 1477,-188 1482.01,-153.195 1479.16,-137.551 1455,-112 1414.01,-68.6485 1390.1,-73.3051 1333,-56 1244.89,-29.295 1136.22,-17.6542 1083.18,-13.2749"/>
<polygon fill="midnightblue" stroke="midnightblue" points="1083.28,-9.77202 1073.04,-12.4706 1082.73,-16.7501 1083.28,-9.77202"/>
</g>
<!-- Node28&#45;&gt;Node14 -->
<g id="edge51" class="edge"><title>Node28&#45;&gt;Node14</title>
<path fill="none" stroke="midnightblue" d="M1463.12,-230.183C1465.53,-206.74 1468.45,-142.575 1433,-112 1422.42,-102.878 998.975,-76.1714 880.511,-68.8658"/>
<polygon fill="midnightblue" stroke="midnightblue" points="880.525,-65.3602 870.329,-68.2395 880.096,-72.347 880.525,-65.3602"/>
</g>
<!-- Node28&#45;&gt;Node17 -->
<g id="edge50" class="edge"><title>Node28&#45;&gt;Node17</title>
<path fill="none" stroke="midnightblue" d="M1452.75,-230.42C1435.46,-214.947 1396.41,-182.62 1357,-168 1230.41,-121.033 1186.24,-154.329 1049.79,-132.103"/>
<polygon fill="midnightblue" stroke="midnightblue" points="1050.25,-128.631 1039.8,-130.405 1049.07,-135.532 1050.25,-128.631"/>
</g>
<!-- Node28&#45;&gt;Node21 -->
<g id="edge53" class="edge"><title>Node28&#45;&gt;Node21</title>
<path fill="none" stroke="midnightblue" d="M1421.91,-237.505C1252.33,-231.121 593.187,-205.657 386,-188 374.116,-186.987 361.185,-185.515 349.554,-184.054"/>
<polygon fill="midnightblue" stroke="midnightblue" points="349.672,-180.54 339.306,-182.729 348.774,-187.483 349.672,-180.54"/>
</g>
<!-- Node28&#45;&gt;Node25 -->
<g id="edge49" class="edge"><title>Node28&#45;&gt;Node25</title>
<path fill="none" stroke="midnightblue" d="M1421.52,-235.337C1302.38,-224.555 954.003,-193.027 837.473,-182.482"/>
<polygon fill="midnightblue" stroke="midnightblue" points="837.526,-178.972 827.251,-181.557 836.895,-185.944 837.526,-178.972"/>
</g>
<!-- Node28&#45;&gt;Node26 -->
<g id="edge48" class="edge"><title>Node28&#45;&gt;Node26</title>
<path fill="none" stroke="midnightblue" d="M1485.64,-230.403C1514.07,-220.067 1561.94,-202.656 1594,-190.999"/>
<polygon fill="midnightblue" stroke="midnightblue" points="1595.2,-194.287 1603.4,-187.581 1592.81,-187.709 1595.2,-194.287"/>
</g>
<!-- Node29 -->
<g id="node30" class="node"><title>Node29</title>
<polygon fill="white" stroke="#bfbfbf" points="1523.5,-168.5 1523.5,-187.5 1572.5,-187.5 1572.5,-168.5 1523.5,-168.5"/>
<text text-anchor="middle" x="1548" y="-175.5" font-family="Helvetica,sans-Serif" font-size="10.00">istream</text>
</g>
<!-- Node28&#45;&gt;Node29 -->
<g id="edge52" class="edge"><title>Node28&#45;&gt;Node29</title>
<path fill="none" stroke="midnightblue" d="M1474.32,-230.403C1488.12,-220.78 1510.7,-205.024 1527.23,-193.489"/>
<polygon fill="midnightblue" stroke="midnightblue" points="1529.5,-196.173 1535.7,-187.581 1525.5,-190.432 1529.5,-196.173"/>
</g>
<!-- Node32&#45;&gt;Node15 -->
<g id="edge67" class="edge"><title>Node32&#45;&gt;Node15</title>
<path fill="none" stroke="midnightblue" d="M986.024,-230.469C965.142,-221.938 934.283,-207.317 912,-188 880.495,-160.689 892.732,-133.487 857,-112 844.604,-104.546 646.115,-80.3104 566.582,-70.841"/>
<polygon fill="midnightblue" stroke="midnightblue" points="566.524,-67.3095 556.181,-69.6061 565.699,-74.2607 566.524,-67.3095"/>
</g>
<!-- Node32&#45;&gt;Node19 -->
<g id="edge71" class="edge"><title>Node32&#45;&gt;Node19</title>
<path fill="none" stroke="midnightblue" d="M975.802,-230.42C948.301,-222.309 909.006,-208.33 879,-188 859.478,-174.773 841.584,-154.263 830.297,-139.827"/>
<polygon fill="midnightblue" stroke="midnightblue" points="832.998,-137.596 824.167,-131.742 827.42,-141.825 832.998,-137.596"/>
</g>
<!-- Node32&#45;&gt;Node23 -->
<g id="edge65" class="edge"><title>Node32&#45;&gt;Node23</title>
<path fill="none" stroke="midnightblue" d="M974.754,-232.579C913.941,-221.176 787.65,-197.497 725.356,-185.817"/>
<polygon fill="midnightblue" stroke="midnightblue" points="725.686,-182.318 715.212,-183.915 724.396,-189.198 725.686,-182.318"/>
</g>
<!-- Node32&#45;&gt;Node25 -->
<g id="edge68" class="edge"><title>Node32&#45;&gt;Node25</title>
<path fill="none" stroke="midnightblue" d="M978.912,-230.403C941.483,-219.709 877.553,-201.444 836.839,-189.811"/>
<polygon fill="midnightblue" stroke="midnightblue" points="837.595,-186.387 827.019,-187.005 835.672,-193.118 837.595,-186.387"/>
</g>
<!-- Node33 -->
<g id="node34" class="node"><title>Node33</title>
<polygon fill="white" stroke="#bfbfbf" points="991,-168.5 991,-187.5 1087,-187.5 1087,-168.5 991,-168.5"/>
<text text-anchor="middle" x="1039" y="-175.5" font-family="Helvetica,sans-Serif" font-size="10.00">cereal/access.hpp</text>
</g>
<!-- Node32&#45;&gt;Node33 -->
<g id="edge61" class="edge"><title>Node32&#45;&gt;Node33</title>
<path fill="none" stroke="midnightblue" d="M1013.3,-230.403C1017.66,-221.671 1024.56,-207.889 1030.1,-196.794"/>
<polygon fill="midnightblue" stroke="midnightblue" points="1033.37,-198.09 1034.71,-187.581 1027.11,-194.96 1033.37,-198.09"/>
</g>
<!-- Node34 -->
<g id="node35" class="node"><title>Node34</title>
<g id="a_node35"><a xlink:href="variadic_8h.html" target="_top" xlink:title="std_ext/variadic.h">
<polygon fill="white" stroke="black" points="1173,-168.5 1173,-187.5 1267,-187.5 1267,-168.5 1173,-168.5"/>
<text text-anchor="middle" x="1220" y="-175.5" font-family="Helvetica,sans-Serif" font-size="10.00">std_ext/variadic.h</text>
</a>
</g>
</g>
<!-- Node32&#45;&gt;Node34 -->
<g id="edge62" class="edge"><title>Node32&#45;&gt;Node34</title>
<path fill="none" stroke="midnightblue" d="M1039.23,-230.403C1076.29,-219.866 1139.19,-201.978 1180.16,-190.328"/>
<polygon fill="midnightblue" stroke="midnightblue" points="1181.16,-193.682 1189.82,-187.581 1179.25,-186.949 1181.16,-193.682"/>
</g>
<!-- Node32&#45;&gt;Node37 -->
<g id="edge66" class="edge"><title>Node32&#45;&gt;Node37</title>
<path fill="none" stroke="midnightblue" d="M1043.15,-234.379C1092.54,-227.284 1186.83,-212.202 1275.72,-187.645"/>
<polygon fill="midnightblue" stroke="midnightblue" points="1276.73,-190.996 1285.41,-184.922 1274.83,-184.257 1276.73,-190.996"/>
</g>
<!-- Node38 -->
<g id="node39" class="node"><title>Node38</title>
<polygon fill="white" stroke="#bfbfbf" points="1105.5,-168.5 1105.5,-187.5 1154.5,-187.5 1154.5,-168.5 1105.5,-168.5"/>
<text text-anchor="middle" x="1130" y="-175.5" font-family="Helvetica,sans-Serif" font-size="10.00">cassert</text>
</g>
<!-- Node32&#45;&gt;Node38 -->
<g id="edge69" class="edge"><title>Node32&#45;&gt;Node38</title>
<path fill="none" stroke="midnightblue" d="M1026.34,-230.403C1046.55,-220.379 1080.19,-203.701 1103.64,-192.07"/>
<polygon fill="midnightblue" stroke="midnightblue" points="1105.29,-195.159 1112.7,-187.581 1102.18,-188.887 1105.29,-195.159"/>
</g>
<!-- Node39 -->
<g id="node40" class="node"><title>Node39</title>
<polygon fill="white" stroke="#bfbfbf" points="921.5,-168.5 921.5,-187.5 972.5,-187.5 972.5,-168.5 921.5,-168.5"/>
<text text-anchor="middle" x="947" y="-175.5" font-family="Helvetica,sans-Serif" font-size="10.00">numeric</text>
</g>
<!-- Node32&#45;&gt;Node39 -->
<g id="edge70" class="edge"><title>Node32&#45;&gt;Node39</title>
<path fill="none" stroke="midnightblue" d="M1000.12,-230.403C990.541,-221.136 975.089,-206.183 963.314,-194.788"/>
<polygon fill="midnightblue" stroke="midnightblue" points="965.487,-192.02 955.867,-187.581 960.619,-197.05 965.487,-192.02"/>
</g>
<!-- Node35 -->
<g id="node36" class="node"><title>Node35</title>
<polygon fill="white" stroke="#bfbfbf" points="1179.5,-112.5 1179.5,-131.5 1228.5,-131.5 1228.5,-112.5 1179.5,-112.5"/>
<text text-anchor="middle" x="1204" y="-119.5" font-family="Helvetica,sans-Serif" font-size="10.00">cstddef</text>
</g>
<!-- Node34&#45;&gt;Node35 -->
<g id="edge63" class="edge"><title>Node34&#45;&gt;Node35</title>
<path fill="none" stroke="midnightblue" d="M1217.36,-168.083C1215.21,-160.849 1212.12,-150.409 1209.45,-141.397"/>
<polygon fill="midnightblue" stroke="midnightblue" points="1212.79,-140.345 1206.59,-131.751 1206.08,-142.333 1212.79,-140.345"/>
</g>
<!-- Node36 -->
<g id="node37" class="node"><title>Node36</title>
<polygon fill="white" stroke="#bfbfbf" points="1247,-112.5 1247,-131.5 1285,-131.5 1285,-112.5 1247,-112.5"/>
<text text-anchor="middle" x="1266" y="-119.5" font-family="Helvetica,sans-Serif" font-size="10.00">tuple</text>
</g>
<!-- Node34&#45;&gt;Node36 -->
<g id="edge64" class="edge"><title>Node34&#45;&gt;Node36</title>
<path fill="none" stroke="midnightblue" d="M1227.6,-168.083C1234.23,-160.298 1244.02,-148.801 1252.06,-139.367"/>
<polygon fill="midnightblue" stroke="midnightblue" points="1254.73,-141.633 1258.55,-131.751 1249.4,-137.094 1254.73,-141.633"/>
</g>
<!-- Node40&#45;&gt;Node9 -->
<g id="edge73" class="edge"><title>Node40&#45;&gt;Node9</title>
<path fill="none" stroke="midnightblue" d="M1806.39,-292.215C1789.67,-266.973 1737.28,-194.368 1672,-168 1568.3,-126.111 1281.27,-143.342 1170,-132 1165.62,-131.553 1161.08,-131.047 1156.53,-130.509"/>
<polygon fill="midnightblue" stroke="midnightblue" points="1156.93,-127.033 1146.58,-129.289 1156.08,-133.981 1156.93,-127.033"/>
</g>
</g>
</svg>
