<?xml version="1.0" encoding="UTF-8" standalone="no"?>
<!DOCTYPE svg PUBLIC "-//W3C//DTD SVG 1.1//EN"
 "http://www.w3.org/Graphics/SVG/1.1/DTD/svg11.dtd">
<!-- Generated by graphviz version 2.36.0 (20140111.2315)
 -->
<!-- Title: src/tree/TTarget.h Pages: 1 -->
<svg width="429pt" height="196pt"
 viewBox="0.00 0.00 429.00 196.00" xmlns="http://www.w3.org/2000/svg" xmlns:xlink="http://www.w3.org/1999/xlink">
<g id="graph0" class="graph" transform="scale(1 1) rotate(0) translate(4 192)">
<title>src/tree/TTarget.h</title>
<polygon fill="white" stroke="none" points="-4,4 -4,-192 425,-192 425,4 -4,4"/>
<!-- Node0 -->
<g id="node1" class="node"><title>Node0</title>
<polygon fill="#bfbfbf" stroke="black" points="211.5,-168.5 211.5,-187.5 306.5,-187.5 306.5,-168.5 211.5,-168.5"/>
<text text-anchor="middle" x="259" y="-175.5" font-family="Helvetica,sans-Serif" font-size="10.00">src/tree/TTarget.h</text>
</g>
<!-- Node1 -->
<g id="node2" class="node"><title>Node1</title>
<g id="a_node2"><a xlink:href="types_8h.html" target="_top" xlink:title="base/types.h">
<polygon fill="white" stroke="black" points="-0.5,-112.5 -0.5,-131.5 72.5,-131.5 72.5,-112.5 -0.5,-112.5"/>
<text text-anchor="middle" x="36" y="-119.5" font-family="Helvetica,sans-Serif" font-size="10.00">base/types.h</text>
</a>
</g>
</g>
<!-- Node0&#45;&gt;Node1 -->
<g id="edge1" class="edge"><title>Node0&#45;&gt;Node1</title>
<path fill="none" stroke="midnightblue" d="M223.665,-168.444C185.089,-159.102 123.215,-144.119 81.1474,-133.933"/>
<polygon fill="midnightblue" stroke="midnightblue" points="81.7126,-130.468 71.1697,-131.516 80.0651,-137.272 81.7126,-130.468"/>
</g>
<!-- Node2 -->
<g id="node3" class="node"><title>Node2</title>
<g id="a_node3"><a xlink:href="base_2std__ext_2math_8h.html" target="_top" xlink:title="base/std_ext/math.h">
<polygon fill="white" stroke="black" points="91,-112.5 91,-131.5 197,-131.5 197,-112.5 91,-112.5"/>
<text text-anchor="middle" x="144" y="-119.5" font-family="Helvetica,sans-Serif" font-size="10.00">base/std_ext/math.h</text>
</a>
</g>
</g>
<!-- Node0&#45;&gt;Node2 -->
<g id="edge2" class="edge"><title>Node0&#45;&gt;Node2</title>
<path fill="none" stroke="midnightblue" d="M240.778,-168.444C222.104,-159.675 192.844,-145.935 171.383,-135.858"/>
<polygon fill="midnightblue" stroke="midnightblue" points="172.676,-132.599 162.137,-131.516 169.701,-138.935 172.676,-132.599"/>
</g>
<!-- Node6 -->
<g id="node7" class="node"><title>Node6</title>
<g id="a_node7"><a xlink:href="vec3_8h.html" target="_top" xlink:title="base/vec/vec3.h">
<polygon fill="white" stroke="black" points="214.5,-112.5 214.5,-131.5 303.5,-131.5 303.5,-112.5 214.5,-112.5"/>
<text text-anchor="middle" x="259" y="-119.5" font-family="Helvetica,sans-Serif" font-size="10.00">base/vec/vec3.h</text>
</a>
</g>
</g>
<!-- Node0&#45;&gt;Node6 -->
<g id="edge6" class="edge"><title>Node0&#45;&gt;Node6</title>
<path fill="none" stroke="midnightblue" d="M259,-168.083C259,-161.006 259,-150.861 259,-141.986"/>
<polygon fill="midnightblue" stroke="midnightblue" points="262.5,-141.751 259,-131.751 255.5,-141.751 262.5,-141.751"/>
</g>
<!-- Node9 -->
<g id="node10" class="node"><title>Node9</title>
<polygon fill="white" stroke="#bfbfbf" points="321.5,-112.5 321.5,-131.5 350.5,-131.5 350.5,-112.5 321.5,-112.5"/>
<text text-anchor="middle" x="336" y="-119.5" font-family="Helvetica,sans-Serif" font-size="10.00">list</text>
</g>
<!-- Node0&#45;&gt;Node9 -->
<g id="edge11" class="edge"><title>Node0&#45;&gt;Node9</title>
<path fill="none" stroke="midnightblue" d="M271.371,-168.324C283.158,-160.058 301.132,-147.453 315.136,-137.632"/>
<polygon fill="midnightblue" stroke="midnightblue" points="317.482,-140.262 323.659,-131.655 313.462,-134.531 317.482,-140.262"/>
</g>
<!-- Node10 -->
<g id="node11" class="node"><title>Node10</title>
<polygon fill="white" stroke="#bfbfbf" points="369,-112.5 369,-131.5 421,-131.5 421,-112.5 369,-112.5"/>
<text text-anchor="middle" x="395" y="-119.5" font-family="Helvetica,sans-Serif" font-size="10.00">memory</text>
</g>
<!-- Node0&#45;&gt;Node10 -->
<g id="edge12" class="edge"><title>Node0&#45;&gt;Node10</title>
<path fill="none" stroke="midnightblue" d="M280.55,-168.444C303.031,-159.517 338.488,-145.439 363.98,-135.317"/>
<polygon fill="midnightblue" stroke="midnightblue" points="365.549,-138.46 373.551,-131.516 362.965,-131.954 365.549,-138.46"/>
</g>
<!-- Node3 -->
<g id="node4" class="node"><title>Node3</title>
<polygon fill="white" stroke="#bfbfbf" points="209,-0.5 209,-19.5 253,-19.5 253,-0.5 209,-0.5"/>
<text text-anchor="middle" x="231" y="-7.5" font-family="Helvetica,sans-Serif" font-size="10.00">cmath</text>
</g>
<!-- Node2&#45;&gt;Node3 -->
<g id="edge3" class="edge"><title>Node2&#45;&gt;Node3</title>
<path fill="none" stroke="midnightblue" d="M128.245,-112.368C107.919,-100.102 76.8689,-76.8028 92,-56 116.301,-22.5902 165.945,-13.4775 198.847,-11.2687"/>
<polygon fill="midnightblue" stroke="midnightblue" points="199.073,-14.7619 208.888,-10.7721 198.728,-7.77044 199.073,-14.7619"/>
</g>
<!-- Node4 -->
<g id="node5" class="node"><title>Node4</title>
<polygon fill="white" stroke="#bfbfbf" points="101,-56.5 101,-75.5 141,-75.5 141,-56.5 101,-56.5"/>
<text text-anchor="middle" x="121" y="-63.5" font-family="Helvetica,sans-Serif" font-size="10.00">limits</text>
</g>
<!-- Node2&#45;&gt;Node4 -->
<g id="edge4" class="edge"><title>Node2&#45;&gt;Node4</title>
<path fill="none" stroke="midnightblue" d="M140.202,-112.083C137.087,-104.77 132.577,-94.1814 128.711,-85.1034"/>
<polygon fill="midnightblue" stroke="midnightblue" points="131.866,-83.5798 124.727,-75.7511 125.426,-86.3229 131.866,-83.5798"/>
</g>
<!-- Node5 -->
<g id="node6" class="node"><title>Node5</title>
<polygon fill="white" stroke="#bfbfbf" points="159,-56.5 159,-75.5 203,-75.5 203,-56.5 159,-56.5"/>
<text text-anchor="middle" x="181" y="-63.5" font-family="Helvetica,sans-Serif" font-size="10.00">vector</text>
</g>
<!-- Node2&#45;&gt;Node5 -->
<g id="edge5" class="edge"><title>Node2&#45;&gt;Node5</title>
<path fill="none" stroke="midnightblue" d="M150.11,-112.083C155.282,-104.534 162.846,-93.4948 169.194,-84.2298"/>
<polygon fill="midnightblue" stroke="midnightblue" points="172.239,-85.9787 175.004,-75.7511 166.464,-82.0221 172.239,-85.9787"/>
</g>
<!-- Node6&#45;&gt;Node3 -->
<g id="edge10" class="edge"><title>Node6&#45;&gt;Node3</title>
<path fill="none" stroke="midnightblue" d="M256.803,-112.368C252.284,-94.617 241.861,-53.6664 235.734,-29.5974"/>
<polygon fill="midnightblue" stroke="midnightblue" points="239.046,-28.419 233.187,-19.5914 232.262,-30.1458 239.046,-28.419"/>
</g>
<!-- Node7 -->
<g id="node8" class="node"><title>Node7</title>
<g id="a_node8"><a xlink:href="vec2_8h.html" target="_top" xlink:title="vec2.h">
<polygon fill="white" stroke="black" points="259,-56.5 259,-75.5 305,-75.5 305,-56.5 259,-56.5"/>
<text text-anchor="middle" x="282" y="-63.5" font-family="Helvetica,sans-Serif" font-size="10.00">vec2.h</text>
</a>
</g>
</g>
<!-- Node6&#45;&gt;Node7 -->
<g id="edge7" class="edge"><title>Node6&#45;&gt;Node7</title>
<path fill="none" stroke="midnightblue" d="M262.798,-112.083C265.913,-104.77 270.423,-94.1814 274.289,-85.1034"/>
<polygon fill="midnightblue" stroke="midnightblue" points="277.574,-86.3229 278.273,-75.7511 271.134,-83.5798 277.574,-86.3229"/>
</g>
<!-- Node8 -->
<g id="node9" class="node"><title>Node8</title>
<polygon fill="white" stroke="#bfbfbf" points="323,-56.5 323,-75.5 375,-75.5 375,-56.5 323,-56.5"/>
<text text-anchor="middle" x="349" y="-63.5" font-family="Helvetica,sans-Serif" font-size="10.00">ostream</text>
</g>
<!-- Node6&#45;&gt;Node8 -->
<g id="edge9" class="edge"><title>Node6&#45;&gt;Node8</title>
<path fill="none" stroke="midnightblue" d="M273.46,-112.324C287.5,-103.9 309.048,-90.9709 325.543,-81.0741"/>
<polygon fill="midnightblue" stroke="midnightblue" points="327.802,-83.8007 334.576,-75.6545 324.2,-77.7983 327.802,-83.8007"/>
</g>
<!-- Node7&#45;&gt;Node3 -->
<g id="edge8" class="edge"><title>Node7&#45;&gt;Node3</title>
<path fill="none" stroke="midnightblue" d="M273.578,-56.083C266.152,-48.2195 255.148,-36.5688 246.188,-27.0813"/>
<polygon fill="midnightblue" stroke="midnightblue" points="248.676,-24.618 239.265,-19.7511 243.587,-29.4244 248.676,-24.618"/>
</g>
</g>
</svg>
