<?xml version="1.0" encoding="UTF-8" standalone="no"?>
<!DOCTYPE svg PUBLIC "-//W3C//DTD SVG 1.1//EN"
 "http://www.w3.org/Graphics/SVG/1.1/DTD/svg11.dtd">
<!-- Generated by graphviz version 2.36.0 (20140111.2315)
 -->
<!-- Title: src/tree/TUnpackerMessage.h Pages: 1 -->
<svg width="196pt" height="140pt"
 viewBox="0.00 0.00 196.00 140.00" xmlns="http://www.w3.org/2000/svg" xmlns:xlink="http://www.w3.org/1999/xlink">
<g id="graph0" class="graph" transform="scale(1 1) rotate(0) translate(4 136)">
<title>src/tree/TUnpackerMessage.h</title>
<polygon fill="white" stroke="none" points="-4,4 -4,-136 192,-136 192,4 -4,4"/>
<!-- Node0 -->
<g id="node1" class="node"><title>Node0</title>
<polygon fill="#bfbfbf" stroke="black" points="39.5,-112.5 39.5,-131.5 188.5,-131.5 188.5,-112.5 39.5,-112.5"/>
<text text-anchor="middle" x="114" y="-119.5" font-family="Helvetica,sans-Serif" font-size="10.00">src/tree/TUnpackerMessage.h</text>
</g>
<!-- Node1 -->
<g id="node2" class="node"><title>Node1</title>
<g id="a_node2"><a xlink:href="_format_8h.html" target="_top" xlink:title="base/Format.h">
<polygon fill="white" stroke="black" points="32,-56.5 32,-75.5 112,-75.5 112,-56.5 32,-56.5"/>
<text text-anchor="middle" x="72" y="-63.5" font-family="Helvetica,sans-Serif" font-size="10.00">base/Format.h</text>
</a>
</g>
</g>
<!-- Node0&#45;&gt;Node1 -->
<g id="edge1" class="edge"><title>Node0&#45;&gt;Node1</title>
<path fill="none" stroke="midnightblue" d="M107.065,-112.083C101.071,-104.377 92.2482,-93.0333 84.9524,-83.6531"/>
<polygon fill="midnightblue" stroke="midnightblue" points="87.7086,-81.4958 78.8064,-75.7511 82.1831,-85.7934 87.7086,-81.4958"/>
</g>
<!-- Node4 -->
<g id="node5" class="node"><title>Node4</title>
<polygon fill="white" stroke="#bfbfbf" points="130,-56.5 130,-75.5 182,-75.5 182,-56.5 130,-56.5"/>
<text text-anchor="middle" x="156" y="-63.5" font-family="Helvetica,sans-Serif" font-size="10.00">ostream</text>
</g>
<!-- Node0&#45;&gt;Node4 -->
<g id="edge4" class="edge"><title>Node0&#45;&gt;Node4</title>
<path fill="none" stroke="midnightblue" d="M120.935,-112.083C126.929,-104.377 135.752,-93.0333 143.048,-83.6531"/>
<polygon fill="midnightblue" stroke="midnightblue" points="145.817,-85.7934 149.194,-75.7511 140.291,-81.4958 145.817,-85.7934"/>
</g>
<!-- Node2 -->
<g id="node3" class="node"><title>Node2</title>
<polygon fill="white" stroke="#bfbfbf" points="0,-0.5 0,-19.5 70,-19.5 70,-0.5 0,-0.5"/>
<text text-anchor="middle" x="35" y="-7.5" font-family="Helvetica,sans-Serif" font-size="10.00">fmt/format.h</text>
</g>
<!-- Node1&#45;&gt;Node2 -->
<g id="edge2" class="edge"><title>Node1&#45;&gt;Node2</title>
<path fill="none" stroke="midnightblue" d="M65.8902,-56.083C60.7178,-48.5341 53.1539,-37.4948 46.8056,-28.2298"/>
<polygon fill="midnightblue" stroke="midnightblue" points="49.5357,-26.0221 40.9961,-19.7511 43.7612,-29.9787 49.5357,-26.0221"/>
</g>
<!-- Node3 -->
<g id="node4" class="node"><title>Node3</title>
<polygon fill="white" stroke="#bfbfbf" points="88,-0.5 88,-19.5 132,-19.5 132,-0.5 88,-0.5"/>
<text text-anchor="middle" x="110" y="-7.5" font-family="Helvetica,sans-Serif" font-size="10.00">vector</text>
</g>
<!-- Node1&#45;&gt;Node3 -->
<g id="edge3" class="edge"><title>Node1&#45;&gt;Node3</title>
<path fill="none" stroke="midnightblue" d="M78.2749,-56.083C83.6425,-48.4554 91.5176,-37.2645 98.0787,-27.9408"/>
<polygon fill="midnightblue" stroke="midnightblue" points="100.949,-29.9434 103.842,-19.7511 95.2245,-25.9149 100.949,-29.9434"/>
</g>
</g>
</svg>
