<?xml version="1.0" encoding="UTF-8" standalone="no"?>
<!DOCTYPE svg PUBLIC "-//W3C//DTD SVG 1.1//EN"
 "http://www.w3.org/Graphics/SVG/1.1/DTD/svg11.dtd">
<!-- Generated by graphviz version 2.36.0 (20140111.2315)
 -->
<!-- Title: src/calibration/modules/Tagger_QDC.h Pages: 1 -->
<svg width="1378pt" height="108pt"
 viewBox="0.00 0.00 1378.00 108.00" xmlns="http://www.w3.org/2000/svg" xmlns:xlink="http://www.w3.org/1999/xlink">
<g id="graph0" class="graph" transform="scale(1 1) rotate(0) translate(4 104)">
<title>src/calibration/modules/Tagger_QDC.h</title>
<polygon fill="white" stroke="none" points="-4,4 -4,-104 1374,-104 1374,4 -4,4"/>
<!-- Node49 -->
<g id="node1" class="node"><title>Node49</title>
<polygon fill="#bfbfbf" stroke="black" points="633.5,-69 633.5,-99 750.5,-99 750.5,-69 633.5,-69"/>
<text text-anchor="start" x="641.5" y="-87" font-family="Helvetica,sans-Serif" font-size="10.00">src/calibration/modules</text>
<text text-anchor="middle" x="692" y="-76" font-family="Helvetica,sans-Serif" font-size="10.00">/Tagger_QDC.h</text>
</g>
<!-- Node50 -->
<g id="node2" class="node"><title>Node50</title>
<g id="a_node2"><a xlink:href="_tagger___q_d_c_8cc.html" target="_top" xlink:title="src/calibration/modules\l/Tagger_QDC.cc">
<polygon fill="white" stroke="black" points="-0.5,-1 -0.5,-31 116.5,-31 116.5,-1 -0.5,-1"/>
<text text-anchor="start" x="7.5" y="-19" font-family="Helvetica,sans-Serif" font-size="10.00">src/calibration/modules</text>
<text text-anchor="middle" x="58" y="-8" font-family="Helvetica,sans-Serif" font-size="10.00">/Tagger_QDC.cc</text>
</a>
</g>
</g>
<!-- Node49&#45;&gt;Node50 -->
<g id="edge1" class="edge"><title>Node49&#45;&gt;Node50</title>
<path fill="none" stroke="midnightblue" d="M623.443,-79.6435C516.642,-73.7808 304.284,-59.5813 126,-32 122.894,-31.5194 119.717,-30.9818 116.516,-30.4036"/>
<polygon fill="midnightblue" stroke="midnightblue" points="623.27,-83.1391 633.444,-80.185 623.648,-76.1494 623.27,-83.1391"/>
</g>
<!-- Node51 -->
<g id="node3" class="node"><title>Node51</title>
<g id="a_node3"><a xlink:href="_setup__2014___e_p_t_8cc.html" target="_top" xlink:title="src/expconfig/setups\l/Setup_2014_EPT.cc">
<polygon fill="white" stroke="black" points="135,-1 135,-31 245,-31 245,-1 135,-1"/>
<text text-anchor="start" x="143" y="-19" font-family="Helvetica,sans-Serif" font-size="10.00">src/expconfig/setups</text>
<text text-anchor="middle" x="190" y="-8" font-family="Helvetica,sans-Serif" font-size="10.00">/Setup_2014_EPT.cc</text>
</a>
</g>
</g>
<!-- Node49&#45;&gt;Node51 -->
<g id="edge2" class="edge"><title>Node49&#45;&gt;Node51</title>
<path fill="none" stroke="midnightblue" d="M623.018,-77.4239C536.427,-69.8616 383.533,-54.6445 254,-32 251.077,-31.489 248.088,-30.9271 245.076,-30.3299"/>
<polygon fill="midnightblue" stroke="midnightblue" points="622.979,-80.9335 633.244,-78.3082 623.582,-73.9595 622.979,-80.9335"/>
</g>
<!-- Node52 -->
<g id="node4" class="node"><title>Node52</title>
<g id="a_node4"><a xlink:href="_setup__2017__03_8cc.html" target="_top" xlink:title="src/expconfig/setups\l/Setup_2017_03.cc">
<polygon fill="white" stroke="black" points="263.5,-1 263.5,-31 370.5,-31 370.5,-1 263.5,-1"/>
<text text-anchor="start" x="271.5" y="-19" font-family="Helvetica,sans-Serif" font-size="10.00">src/expconfig/setups</text>
<text text-anchor="middle" x="317" y="-8" font-family="Helvetica,sans-Serif" font-size="10.00">/Setup_2017_03.cc</text>
</a>
</g>
</g>
<!-- Node49&#45;&gt;Node52 -->
<g id="edge3" class="edge"><title>Node49&#45;&gt;Node52</title>
<path fill="none" stroke="midnightblue" d="M623.586,-73.3796C559.993,-64.0761 462.753,-48.9294 379,-32 376.286,-31.4515 373.511,-30.867 370.713,-30.2589"/>
<polygon fill="midnightblue" stroke="midnightblue" points="623.096,-76.8451 633.496,-74.8219 624.104,-69.9181 623.096,-76.8451"/>
</g>
<!-- Node53 -->
<g id="node5" class="node"><title>Node53</title>
<g id="a_node5"><a xlink:href="_setup__2017__05_8cc.html" target="_top" xlink:title="src/expconfig/setups\l/Setup_2017_05.cc">
<polygon fill="white" stroke="black" points="388.5,-1 388.5,-31 495.5,-31 495.5,-1 388.5,-1"/>
<text text-anchor="start" x="396.5" y="-19" font-family="Helvetica,sans-Serif" font-size="10.00">src/expconfig/setups</text>
<text text-anchor="middle" x="442" y="-8" font-family="Helvetica,sans-Serif" font-size="10.00">/Setup_2017_05.cc</text>
</a>
</g>
</g>
<!-- Node49&#45;&gt;Node53 -->
<g id="edge4" class="edge"><title>Node49&#45;&gt;Node53</title>
<path fill="none" stroke="midnightblue" d="M628.996,-66.367C587.728,-55.4721 534.387,-41.3902 495.243,-31.0561"/>
<polygon fill="midnightblue" stroke="midnightblue" points="628.113,-69.7537 638.675,-68.9223 629.9,-62.9856 628.113,-69.7537"/>
</g>
<!-- Node54 -->
<g id="node6" class="node"><title>Node54</title>
<g id="a_node6"><a xlink:href="_setup__2017__12_8cc.html" target="_top" xlink:title="src/expconfig/setups\l/Setup_2017_12.cc">
<polygon fill="white" stroke="black" points="513.5,-1 513.5,-31 620.5,-31 620.5,-1 513.5,-1"/>
<text text-anchor="start" x="521.5" y="-19" font-family="Helvetica,sans-Serif" font-size="10.00">src/expconfig/setups</text>
<text text-anchor="middle" x="567" y="-8" font-family="Helvetica,sans-Serif" font-size="10.00">/Setup_2017_12.cc</text>
</a>
</g>
</g>
<!-- Node49&#45;&gt;Node54 -->
<g id="edge5" class="edge"><title>Node49&#45;&gt;Node54</title>
<path fill="none" stroke="midnightblue" d="M656.118,-64.0545C636.25,-53.5641 611.968,-40.7434 593.771,-31.1352"/>
<polygon fill="midnightblue" stroke="midnightblue" points="654.707,-67.2672 665.184,-68.8413 657.976,-61.0771 654.707,-67.2672"/>
</g>
<!-- Node55 -->
<g id="node7" class="node"><title>Node55</title>
<g id="a_node7"><a xlink:href="_setup__2018__03_8cc.html" target="_top" xlink:title="src/expconfig/setups\l/Setup_2018_03.cc">
<polygon fill="white" stroke="black" points="638.5,-1 638.5,-31 745.5,-31 745.5,-1 638.5,-1"/>
<text text-anchor="start" x="646.5" y="-19" font-family="Helvetica,sans-Serif" font-size="10.00">src/expconfig/setups</text>
<text text-anchor="middle" x="692" y="-8" font-family="Helvetica,sans-Serif" font-size="10.00">/Setup_2018_03.cc</text>
</a>
</g>
</g>
<!-- Node49&#45;&gt;Node55 -->
<g id="edge6" class="edge"><title>Node49&#45;&gt;Node55</title>
<path fill="none" stroke="midnightblue" d="M692,-58.5322C692,-49.3606 692,-39.2449 692,-31.2931"/>
<polygon fill="midnightblue" stroke="midnightblue" points="688.5,-58.6789 692,-68.679 695.5,-58.679 688.5,-58.6789"/>
</g>
<!-- Node56 -->
<g id="node8" class="node"><title>Node56</title>
<g id="a_node8"><a xlink:href="_setup__2018__05_8cc.html" target="_top" xlink:title="src/expconfig/setups\l/Setup_2018_05.cc">
<polygon fill="white" stroke="black" points="763.5,-1 763.5,-31 870.5,-31 870.5,-1 763.5,-1"/>
<text text-anchor="start" x="771.5" y="-19" font-family="Helvetica,sans-Serif" font-size="10.00">src/expconfig/setups</text>
<text text-anchor="middle" x="817" y="-8" font-family="Helvetica,sans-Serif" font-size="10.00">/Setup_2018_05.cc</text>
</a>
</g>
</g>
<!-- Node49&#45;&gt;Node56 -->
<g id="edge7" class="edge"><title>Node49&#45;&gt;Node56</title>
<path fill="none" stroke="midnightblue" d="M727.882,-64.0545C747.75,-53.5641 772.032,-40.7434 790.229,-31.1352"/>
<polygon fill="midnightblue" stroke="midnightblue" points="726.024,-61.0771 718.816,-68.8413 729.293,-67.2672 726.024,-61.0771"/>
</g>
<!-- Node57 -->
<g id="node9" class="node"><title>Node57</title>
<g id="a_node9"><a xlink:href="_setup__2018__09_8cc.html" target="_top" xlink:title="src/expconfig/setups\l/Setup_2018_09.cc">
<polygon fill="white" stroke="black" points="888.5,-1 888.5,-31 995.5,-31 995.5,-1 888.5,-1"/>
<text text-anchor="start" x="896.5" y="-19" font-family="Helvetica,sans-Serif" font-size="10.00">src/expconfig/setups</text>
<text text-anchor="middle" x="942" y="-8" font-family="Helvetica,sans-Serif" font-size="10.00">/Setup_2018_09.cc</text>
</a>
</g>
</g>
<!-- Node49&#45;&gt;Node57 -->
<g id="edge8" class="edge"><title>Node49&#45;&gt;Node57</title>
<path fill="none" stroke="midnightblue" d="M755.004,-66.367C796.272,-55.4721 849.613,-41.3902 888.757,-31.0561"/>
<polygon fill="midnightblue" stroke="midnightblue" points="754.1,-62.9856 745.325,-68.9223 755.887,-69.7537 754.1,-62.9856"/>
</g>
<!-- Node58 -->
<g id="node10" class="node"><title>Node58</title>
<g id="a_node10"><a xlink:href="_setup__2018__11_8cc.html" target="_top" xlink:title="src/expconfig/setups\l/Setup_2018_11.cc">
<polygon fill="white" stroke="black" points="1013.5,-1 1013.5,-31 1120.5,-31 1120.5,-1 1013.5,-1"/>
<text text-anchor="start" x="1021.5" y="-19" font-family="Helvetica,sans-Serif" font-size="10.00">src/expconfig/setups</text>
<text text-anchor="middle" x="1067" y="-8" font-family="Helvetica,sans-Serif" font-size="10.00">/Setup_2018_11.cc</text>
</a>
</g>
</g>
<!-- Node49&#45;&gt;Node58 -->
<g id="edge9" class="edge"><title>Node49&#45;&gt;Node58</title>
<path fill="none" stroke="midnightblue" d="M760.863,-73.1935C824.254,-63.823 920.781,-48.6863 1004,-32 1007.09,-31.3811 1010.25,-30.7181 1013.44,-30.0281"/>
<polygon fill="midnightblue" stroke="midnightblue" points="759.976,-69.7862 750.592,-74.7042 760.995,-76.7117 759.976,-69.7862"/>
</g>
<!-- Node59 -->
<g id="node11" class="node"><title>Node59</title>
<g id="a_node11"><a xlink:href="_setup__2019__01_8cc.html" target="_top" xlink:title="src/expconfig/setups\l/Setup_2019_01.cc">
<polygon fill="white" stroke="black" points="1138.5,-1 1138.5,-31 1245.5,-31 1245.5,-1 1138.5,-1"/>
<text text-anchor="start" x="1146.5" y="-19" font-family="Helvetica,sans-Serif" font-size="10.00">src/expconfig/setups</text>
<text text-anchor="middle" x="1192" y="-8" font-family="Helvetica,sans-Serif" font-size="10.00">/Setup_2019_01.cc</text>
</a>
</g>
</g>
<!-- Node49&#45;&gt;Node59 -->
<g id="edge10" class="edge"><title>Node49&#45;&gt;Node59</title>
<path fill="none" stroke="midnightblue" d="M760.837,-77.4868C847.243,-69.9891 999.802,-54.8382 1129,-32 1132.1,-31.452 1135.28,-30.8444 1138.47,-30.1969"/>
<polygon fill="midnightblue" stroke="midnightblue" points="760.297,-74.0202 750.633,-78.3632 760.896,-80.9945 760.297,-74.0202"/>
</g>
<!-- Node60 -->
<g id="node12" class="node"><title>Node60</title>
<g id="a_node12"><a xlink:href="_setup__2019__06_8cc.html" target="_top" xlink:title="src/expconfig/setups\l/Setup_2019_06.cc">
<polygon fill="white" stroke="black" points="1263.5,-1 1263.5,-31 1370.5,-31 1370.5,-1 1263.5,-1"/>
<text text-anchor="start" x="1271.5" y="-19" font-family="Helvetica,sans-Serif" font-size="10.00">src/expconfig/setups</text>
<text text-anchor="middle" x="1317" y="-8" font-family="Helvetica,sans-Serif" font-size="10.00">/Setup_2019_06.cc</text>
</a>
</g>
</g>
<!-- Node49&#45;&gt;Node60 -->
<g id="edge11" class="edge"><title>Node49&#45;&gt;Node60</title>
<path fill="none" stroke="midnightblue" d="M760.873,-79.9322C867.235,-74.4796 1077.62,-60.848 1254,-32 1257.11,-31.4919 1260.29,-30.9154 1263.49,-30.2917"/>
<polygon fill="midnightblue" stroke="midnightblue" points="760.41,-76.451 750.599,-80.4499 760.763,-83.4421 760.41,-76.451"/>
</g>
</g>
</svg>
