<?xml version="1.0" encoding="UTF-8" standalone="no"?>
<!DOCTYPE svg PUBLIC "-//W3C//DTD SVG 1.1//EN"
 "http://www.w3.org/Graphics/SVG/1.1/DTD/svg11.dtd">
<!-- Generated by graphviz version 2.36.0 (20140111.2315)
 -->
<!-- Title: src/analysis/slowcontrol/variables/TaggerScalers.h Pages: 1 -->
<svg width="2182pt" height="186pt"
 viewBox="0.00 0.00 2182.00 186.00" xmlns="http://www.w3.org/2000/svg" xmlns:xlink="http://www.w3.org/1999/xlink">
<g id="graph0" class="graph" transform="scale(1 1) rotate(0) translate(4 182)">
<title>src/analysis/slowcontrol/variables/TaggerScalers.h</title>
<polygon fill="white" stroke="none" points="-4,4 -4,-182 2178,-182 2178,4 -4,4"/>
<!-- Node59 -->
<g id="node1" class="node"><title>Node59</title>
<polygon fill="#bfbfbf" stroke="black" points="1098.5,-147 1098.5,-177 1231.5,-177 1231.5,-147 1098.5,-147"/>
<text text-anchor="start" x="1106.5" y="-165" font-family="Helvetica,sans-Serif" font-size="10.00">src/analysis/slowcontrol</text>
<text text-anchor="middle" x="1165" y="-154" font-family="Helvetica,sans-Serif" font-size="10.00">/variables/TaggerScalers.h</text>
</g>
<!-- Node60 -->
<g id="node2" class="node"><title>Node60</title>
<g id="a_node2"><a xlink:href="_slow_control_variables_8h.html" target="_top" xlink:title="src/analysis/slowcontrol\l/SlowControlVariables.h">
<polygon fill="white" stroke="black" points="1030,-79 1030,-109 1152,-109 1152,-79 1030,-79"/>
<text text-anchor="start" x="1038" y="-97" font-family="Helvetica,sans-Serif" font-size="10.00">src/analysis/slowcontrol</text>
<text text-anchor="middle" x="1091" y="-86" font-family="Helvetica,sans-Serif" font-size="10.00">/SlowControlVariables.h</text>
</a>
</g>
</g>
<!-- Node59&#45;&gt;Node60 -->
<g id="edge1" class="edge"><title>Node59&#45;&gt;Node60</title>
<path fill="none" stroke="midnightblue" d="M1141.48,-140.018C1130.15,-129.915 1116.87,-118.07 1106.77,-109.066"/>
<polygon fill="midnightblue" stroke="midnightblue" points="1139.15,-142.635 1148.94,-146.679 1143.81,-137.411 1139.15,-142.635"/>
</g>
<!-- Node76 -->
<g id="node18" class="node"><title>Node76</title>
<g id="a_node18"><a xlink:href="_tagger_scalers_8cc.html" target="_top" xlink:title="src/analysis/slowcontrol\l/variables/TaggerScalers.cc">
<polygon fill="white" stroke="black" points="1170,-79 1170,-109 1308,-109 1308,-79 1170,-79"/>
<text text-anchor="start" x="1178" y="-97" font-family="Helvetica,sans-Serif" font-size="10.00">src/analysis/slowcontrol</text>
<text text-anchor="middle" x="1239" y="-86" font-family="Helvetica,sans-Serif" font-size="10.00">/variables/TaggerScalers.cc</text>
</a>
</g>
</g>
<!-- Node59&#45;&gt;Node76 -->
<g id="edge17" class="edge"><title>Node59&#45;&gt;Node76</title>
<path fill="none" stroke="midnightblue" d="M1188.52,-140.018C1199.85,-129.915 1213.13,-118.07 1223.23,-109.066"/>
<polygon fill="midnightblue" stroke="midnightblue" points="1186.19,-137.411 1181.06,-146.679 1190.85,-142.635 1186.19,-137.411"/>
</g>
<!-- Node61 -->
<g id="node3" class="node"><title>Node61</title>
<g id="a_node3"><a xlink:href="_debug_physics_8cc.html" target="_top" xlink:title="src/analysis/physics\l/common/DebugPhysics.cc">
<polygon fill="white" stroke="black" points="-0.5,-6 -0.5,-36 136.5,-36 136.5,-6 -0.5,-6"/>
<text text-anchor="start" x="7.5" y="-24" font-family="Helvetica,sans-Serif" font-size="10.00">src/analysis/physics</text>
<text text-anchor="middle" x="68" y="-13" font-family="Helvetica,sans-Serif" font-size="10.00">/common/DebugPhysics.cc</text>
</a>
</g>
</g>
<!-- Node60&#45;&gt;Node61 -->
<g id="edge2" class="edge"><title>Node60&#45;&gt;Node61</title>
<path fill="none" stroke="midnightblue" d="M1019.72,-90.974C829.751,-85.2836 314.332,-67.8644 146,-42 136.466,-40.5351 126.405,-38.4069 116.793,-36.0794"/>
<polygon fill="midnightblue" stroke="midnightblue" points="1019.77,-94.477 1029.87,-91.2762 1019.98,-87.4801 1019.77,-94.477"/>
</g>
<!-- Node62 -->
<g id="node4" class="node"><title>Node62</title>
<g id="a_node4"><a xlink:href="_extract_scalers_8cc.html" target="_top" xlink:title="src/analysis/physics\l/common/ExtractScalers.cc">
<polygon fill="white" stroke="black" points="155,-6 155,-36 293,-36 293,-6 155,-6"/>
<text text-anchor="start" x="163" y="-24" font-family="Helvetica,sans-Serif" font-size="10.00">src/analysis/physics</text>
<text text-anchor="middle" x="224" y="-13" font-family="Helvetica,sans-Serif" font-size="10.00">/common/ExtractScalers.cc</text>
</a>
</g>
</g>
<!-- Node60&#45;&gt;Node62 -->
<g id="edge3" class="edge"><title>Node60&#45;&gt;Node62</title>
<path fill="none" stroke="midnightblue" d="M1019.85,-92.8278C880.959,-91.5174 564.352,-83.7397 302,-42 292.612,-40.5064 282.708,-38.3951 273.224,-36.0997"/>
<polygon fill="midnightblue" stroke="midnightblue" points="1019.91,-96.3284 1029.94,-92.9145 1019.97,-89.3287 1019.91,-96.3284"/>
</g>
<!-- Node63 -->
<g id="node5" class="node"><title>Node63</title>
<g id="a_node5"><a xlink:href="_photon_flux_8cc.html" target="_top" xlink:title="src/analysis/physics\l/common/PhotonFlux.cc">
<polygon fill="white" stroke="black" points="311.5,-6 311.5,-36 434.5,-36 434.5,-6 311.5,-6"/>
<text text-anchor="start" x="319.5" y="-24" font-family="Helvetica,sans-Serif" font-size="10.00">src/analysis/physics</text>
<text text-anchor="middle" x="373" y="-13" font-family="Helvetica,sans-Serif" font-size="10.00">/common/PhotonFlux.cc</text>
</a>
</g>
</g>
<!-- Node60&#45;&gt;Node63 -->
<g id="edge4" class="edge"><title>Node60&#45;&gt;Node63</title>
<path fill="none" stroke="midnightblue" d="M1019.69,-91.9309C899.876,-89.1217 650.939,-78.9342 444,-42 435.427,-40.47 426.399,-38.3416 417.763,-36.0408"/>
<polygon fill="midnightblue" stroke="midnightblue" points="1019.76,-95.4332 1029.84,-92.1582 1019.92,-88.435 1019.76,-95.4332"/>
</g>
<!-- Node64 -->
<g id="node6" class="node"><title>Node64</title>
<g id="a_node6"><a xlink:href="_process_tagg_eff_8cc.html" target="_top" xlink:title="src/analysis/physics\l/common/ProcessTaggEff.cc">
<polygon fill="white" stroke="black" points="453,-6 453,-36 597,-36 597,-6 453,-6"/>
<text text-anchor="start" x="461" y="-24" font-family="Helvetica,sans-Serif" font-size="10.00">src/analysis/physics</text>
<text text-anchor="middle" x="525" y="-13" font-family="Helvetica,sans-Serif" font-size="10.00">/common/ProcessTaggEff.cc</text>
</a>
</g>
</g>
<!-- Node60&#45;&gt;Node64 -->
<g id="edge5" class="edge"><title>Node60&#45;&gt;Node64</title>
<path fill="none" stroke="midnightblue" d="M1019.7,-88.5785C924.753,-81.9908 751.841,-67.5484 606,-42 596.726,-40.3754 586.94,-38.2864 577.499,-36.0736"/>
<polygon fill="midnightblue" stroke="midnightblue" points="1019.54,-92.0761 1029.76,-89.2674 1020.02,-85.0924 1019.54,-92.0761"/>
</g>
<!-- Node65 -->
<g id="node7" class="node"><title>Node65</title>
<g id="a_node7"><a xlink:href="debug_scalers_8cc.html" target="_top" xlink:title="src/analysis/physics\l/misc/debugScalers.cc">
<polygon fill="white" stroke="black" points="615,-6 615,-36 731,-36 731,-6 615,-6"/>
<text text-anchor="start" x="623" y="-24" font-family="Helvetica,sans-Serif" font-size="10.00">src/analysis/physics</text>
<text text-anchor="middle" x="673" y="-13" font-family="Helvetica,sans-Serif" font-size="10.00">/misc/debugScalers.cc</text>
</a>
</g>
</g>
<!-- Node60&#45;&gt;Node65 -->
<g id="edge6" class="edge"><title>Node60&#45;&gt;Node65</title>
<path fill="none" stroke="midnightblue" d="M1019.74,-85.7314C948.433,-77.7368 835.855,-63.1521 740,-42 732.413,-40.3259 724.433,-38.2388 716.729,-36.0499"/>
<polygon fill="midnightblue" stroke="midnightblue" points="1019.63,-89.2405 1029.95,-86.8631 1020.4,-82.2831 1019.63,-89.2405"/>
</g>
<!-- Node66 -->
<g id="node8" class="node"><title>Node66</title>
<g id="a_node8"><a xlink:href="debug_tagg_eff_8cc.html" target="_top" xlink:title="src/analysis/physics\l/misc/debugTaggEff.cc">
<polygon fill="white" stroke="black" points="749,-6 749,-36 867,-36 867,-6 749,-6"/>
<text text-anchor="start" x="757" y="-24" font-family="Helvetica,sans-Serif" font-size="10.00">src/analysis/physics</text>
<text text-anchor="middle" x="808" y="-13" font-family="Helvetica,sans-Serif" font-size="10.00">/misc/debugTaggEff.cc</text>
</a>
</g>
</g>
<!-- Node60&#45;&gt;Node66 -->
<g id="edge7" class="edge"><title>Node60&#45;&gt;Node66</title>
<path fill="none" stroke="midnightblue" d="M1019.76,-77.1026C977.784,-67.485 923.713,-54.6661 876,-42 869.102,-40.1688 861.839,-38.1407 854.73,-36.099"/>
<polygon fill="midnightblue" stroke="midnightblue" points="1019.09,-80.5387 1029.62,-79.3523 1020.65,-73.7143 1019.09,-80.5387"/>
</g>
<!-- Node67 -->
<g id="node9" class="node"><title>Node67</title>
<g id="a_node9"><a xlink:href="sigma_plus_8cc.html" target="_top" xlink:title="src/analysis/physics\l/production/sigmaPlus.cc">
<polygon fill="white" stroke="black" points="885.5,-6 885.5,-36 1012.5,-36 1012.5,-6 885.5,-6"/>
<text text-anchor="start" x="893.5" y="-24" font-family="Helvetica,sans-Serif" font-size="10.00">src/analysis/physics</text>
<text text-anchor="middle" x="949" y="-13" font-family="Helvetica,sans-Serif" font-size="10.00">/production/sigmaPlus.cc</text>
</a>
</g>
</g>
<!-- Node60&#45;&gt;Node67 -->
<g id="edge8" class="edge"><title>Node60&#45;&gt;Node67</title>
<path fill="none" stroke="midnightblue" d="M1053.83,-74.4135C1029.96,-62.4783 999.429,-47.2147 977.482,-36.2412"/>
<polygon fill="midnightblue" stroke="midnightblue" points="1052.44,-77.631 1062.95,-78.9727 1055.57,-71.37 1052.44,-77.631"/>
</g>
<!-- Node68 -->
<g id="node10" class="node"><title>Node68</title>
<g id="a_node10"><a xlink:href="single_pi0_8cc.html" target="_top" xlink:title="src/analysis/physics\l/production/singlePi0.cc">
<polygon fill="white" stroke="black" points="1030.5,-6 1030.5,-36 1151.5,-36 1151.5,-6 1030.5,-6"/>
<text text-anchor="start" x="1038.5" y="-24" font-family="Helvetica,sans-Serif" font-size="10.00">src/analysis/physics</text>
<text text-anchor="middle" x="1091" y="-13" font-family="Helvetica,sans-Serif" font-size="10.00">/production/singlePi0.cc</text>
</a>
</g>
</g>
<!-- Node60&#45;&gt;Node68 -->
<g id="edge9" class="edge"><title>Node60&#45;&gt;Node68</title>
<path fill="none" stroke="midnightblue" d="M1091,-68.8976C1091,-58.1314 1091,-45.8005 1091,-36.4856"/>
<polygon fill="midnightblue" stroke="midnightblue" points="1087.5,-68.9727 1091,-78.9727 1094.5,-68.9727 1087.5,-68.9727"/>
</g>
<!-- Node69 -->
<g id="node11" class="node"><title>Node69</title>
<g id="a_node11"><a xlink:href="triple_pi0_8cc.html" target="_top" xlink:title="src/analysis/physics\l/production/triplePi0.cc">
<polygon fill="white" stroke="black" points="1170,-6 1170,-36 1286,-36 1286,-6 1170,-6"/>
<text text-anchor="start" x="1178" y="-24" font-family="Helvetica,sans-Serif" font-size="10.00">src/analysis/physics</text>
<text text-anchor="middle" x="1228" y="-13" font-family="Helvetica,sans-Serif" font-size="10.00">/production/triplePi0.cc</text>
</a>
</g>
</g>
<!-- Node60&#45;&gt;Node69 -->
<g id="edge10" class="edge"><title>Node60&#45;&gt;Node69</title>
<path fill="none" stroke="midnightblue" d="M1127.17,-74.2549C1150.15,-62.3433 1179.44,-47.1661 1200.52,-36.2412"/>
<polygon fill="midnightblue" stroke="midnightblue" points="1125.33,-71.2639 1118.07,-78.9727 1128.56,-77.4788 1125.33,-71.2639"/>
</g>
<!-- Node70 -->
<g id="node12" class="node"><title>Node70</title>
<g id="a_node12"><a xlink:href="cross__section_8cc.html" target="_top" xlink:title="src/analysis/physics\l/scratch/collicott/cross\l_section.cc">
<polygon fill="white" stroke="black" points="1304,-0.5 1304,-41.5 1420,-41.5 1420,-0.5 1304,-0.5"/>
<text text-anchor="start" x="1312" y="-29.5" font-family="Helvetica,sans-Serif" font-size="10.00">src/analysis/physics</text>
<text text-anchor="start" x="1312" y="-18.5" font-family="Helvetica,sans-Serif" font-size="10.00">/scratch/collicott/cross</text>
<text text-anchor="middle" x="1362" y="-7.5" font-family="Helvetica,sans-Serif" font-size="10.00">_section.cc</text>
</a>
</g>
</g>
<!-- Node60&#45;&gt;Node70 -->
<g id="edge11" class="edge"><title>Node60&#45;&gt;Node70</title>
<path fill="none" stroke="midnightblue" d="M1159.14,-76.6007C1198.63,-66.9175 1249.24,-54.2007 1294,-42 1297.21,-41.1263 1300.49,-40.2144 1303.8,-39.2821"/>
<polygon fill="midnightblue" stroke="midnightblue" points="1158.23,-73.2193 1149.35,-78.995 1159.9,-80.0189 1158.23,-73.2193"/>
</g>
<!-- Node71 -->
<g id="node13" class="node"><title>Node71</title>
<g id="a_node13"><a xlink:href="det__eff_8cc.html" target="_top" xlink:title="src/analysis/physics\l/scratch/collicott/det\l_eff.cc">
<polygon fill="white" stroke="black" points="1438,-0.5 1438,-41.5 1544,-41.5 1544,-0.5 1438,-0.5"/>
<text text-anchor="start" x="1446" y="-29.5" font-family="Helvetica,sans-Serif" font-size="10.00">src/analysis/physics</text>
<text text-anchor="start" x="1446" y="-18.5" font-family="Helvetica,sans-Serif" font-size="10.00">/scratch/collicott/det</text>
<text text-anchor="middle" x="1491" y="-7.5" font-family="Helvetica,sans-Serif" font-size="10.00">_eff.cc</text>
</a>
</g>
</g>
<!-- Node60&#45;&gt;Node71 -->
<g id="edge12" class="edge"><title>Node60&#45;&gt;Node71</title>
<path fill="none" stroke="midnightblue" d="M1162.23,-77.8847C1280.79,-58.0017 1314.36,-67.4971 1428,-42 1431.25,-41.2715 1434.57,-40.4513 1437.9,-39.5697"/>
<polygon fill="midnightblue" stroke="midnightblue" points="1161.29,-74.4944 1152.03,-79.6327 1162.48,-81.3939 1161.29,-74.4944"/>
</g>
<!-- Node72 -->
<g id="node14" class="node"><title>Node72</title>
<g id="a_node14"><a xlink:href="checktagger_8cc.html" target="_top" xlink:title="src/analysis/physics\l/scratch/lheijken/checktagger.cc">
<polygon fill="white" stroke="black" points="1562,-6 1562,-36 1720,-36 1720,-6 1562,-6"/>
<text text-anchor="start" x="1570" y="-24" font-family="Helvetica,sans-Serif" font-size="10.00">src/analysis/physics</text>
<text text-anchor="middle" x="1641" y="-13" font-family="Helvetica,sans-Serif" font-size="10.00">/scratch/lheijken/checktagger.cc</text>
</a>
</g>
</g>
<!-- Node60&#45;&gt;Node72 -->
<g id="edge13" class="edge"><title>Node60&#45;&gt;Node72</title>
<path fill="none" stroke="midnightblue" d="M1161.97,-77.9779C1335.27,-52.3051 1382.82,-68.6834 1552,-42 1562.32,-40.3716 1573.24,-38.2535 1583.76,-36.0065"/>
<polygon fill="midnightblue" stroke="midnightblue" points="1161.37,-74.5285 1152,-79.4796 1162.41,-81.4504 1161.37,-74.5285"/>
</g>
<!-- Node73 -->
<g id="node15" class="node"><title>Node73</title>
<g id="a_node15"><a xlink:href="_slow_control_manager_8cc.html" target="_top" xlink:title="src/analysis/slowcontrol\l/SlowControlManager.cc">
<polygon fill="white" stroke="black" points="1738,-6 1738,-36 1862,-36 1862,-6 1738,-6"/>
<text text-anchor="start" x="1746" y="-24" font-family="Helvetica,sans-Serif" font-size="10.00">src/analysis/slowcontrol</text>
<text text-anchor="middle" x="1800" y="-13" font-family="Helvetica,sans-Serif" font-size="10.00">/SlowControlManager.cc</text>
</a>
</g>
</g>
<!-- Node60&#45;&gt;Node73 -->
<g id="edge14" class="edge"><title>Node60&#45;&gt;Node73</title>
<path fill="none" stroke="midnightblue" d="M1162.5,-77.9346C1412.95,-44.5073 1482.3,-83.4631 1728,-42 1736.83,-40.5105 1746.13,-38.3709 1755,-36.04"/>
<polygon fill="midnightblue" stroke="midnightblue" points="1161.81,-74.4973 1152.37,-79.3135 1162.75,-81.4334 1161.81,-74.4973"/>
</g>
<!-- Node74 -->
<g id="node16" class="node"><title>Node74</title>
<g id="a_node16"><a xlink:href="_slow_control_variables_8cc.html" target="_top" xlink:title="src/analysis/slowcontrol\l/SlowControlVariables.cc">
<polygon fill="white" stroke="black" points="1880.5,-6 1880.5,-36 2007.5,-36 2007.5,-6 1880.5,-6"/>
<text text-anchor="start" x="1888.5" y="-24" font-family="Helvetica,sans-Serif" font-size="10.00">src/analysis/slowcontrol</text>
<text text-anchor="middle" x="1944" y="-13" font-family="Helvetica,sans-Serif" font-size="10.00">/SlowControlVariables.cc</text>
</a>
</g>
</g>
<!-- Node60&#45;&gt;Node74 -->
<g id="edge15" class="edge"><title>Node60&#45;&gt;Node74</title>
<path fill="none" stroke="midnightblue" d="M1162.64,-77.934C1475.66,-37.9743 1561.73,-90.9102 1870,-42 1879.2,-40.5402 1888.9,-38.3834 1898.14,-36.0199"/>
<polygon fill="midnightblue" stroke="midnightblue" points="1161.83,-74.51 1152.36,-79.2688 1162.73,-81.4517 1161.83,-74.51"/>
</g>
<!-- Node75 -->
<g id="node17" class="node"><title>Node75</title>
<g id="a_node17"><a xlink:href="_test_slow_control_manager_8cc.html" target="_top" xlink:title="test/analysis/TestSlowControl\lManager.cc">
<polygon fill="white" stroke="black" points="2026,-6 2026,-36 2174,-36 2174,-6 2026,-6"/>
<text text-anchor="start" x="2034" y="-24" font-family="Helvetica,sans-Serif" font-size="10.00">test/analysis/TestSlowControl</text>
<text text-anchor="middle" x="2100" y="-13" font-family="Helvetica,sans-Serif" font-size="10.00">Manager.cc</text>
</a>
</g>
</g>
<!-- Node60&#45;&gt;Node75 -->
<g id="edge16" class="edge"><title>Node60&#45;&gt;Node75</title>
<path fill="none" stroke="midnightblue" d="M1162.47,-77.9658C1540.09,-31.1042 1642.59,-93.8272 2016,-42 2026.39,-40.5574 2037.38,-38.4083 2047.87,-36.047"/>
<polygon fill="midnightblue" stroke="midnightblue" points="1161.84,-74.5168 1152.36,-79.2384 1162.72,-81.462 1161.84,-74.5168"/>
</g>
</g>
</svg>
