<?xml version="1.0" encoding="UTF-8" standalone="no"?>
<!DOCTYPE svg PUBLIC "-//W3C//DTD SVG 1.1//EN"
 "http://www.w3.org/Graphics/SVG/1.1/DTD/svg11.dtd">
<!-- Generated by graphviz version 2.36.0 (20140111.2315)
 -->
<!-- Title: src/expconfig/detectors/detail/Tagger_2007_1508_elements.h Pages: 1 -->
<svg width="136pt" height="118pt"
 viewBox="0.00 0.00 136.00 118.00" xmlns="http://www.w3.org/2000/svg" xmlns:xlink="http://www.w3.org/1999/xlink">
<g id="graph0" class="graph" transform="scale(1 1) rotate(0) translate(4 114)">
<title>src/expconfig/detectors/detail/Tagger_2007_1508_elements.h</title>
<polygon fill="white" stroke="none" points="-4,4 -4,-114 132,-114 132,4 -4,4"/>
<!-- Node58 -->
<g id="node1" class="node"><title>Node58</title>
<polygon fill="#bfbfbf" stroke="black" points="0,-68.5 0,-109.5 128,-109.5 128,-68.5 0,-68.5"/>
<text text-anchor="start" x="8" y="-97.5" font-family="Helvetica,sans-Serif" font-size="10.00">src/expconfig/detectors</text>
<text text-anchor="start" x="8" y="-86.5" font-family="Helvetica,sans-Serif" font-size="10.00">/detail/Tagger_2007_1508</text>
<text text-anchor="middle" x="64" y="-75.5" font-family="Helvetica,sans-Serif" font-size="10.00">_elements.h</text>
</g>
<!-- Node59 -->
<g id="node2" class="node"><title>Node59</title>
<g id="a_node2"><a xlink:href="_tagger_8cc.html" target="_top" xlink:title="src/expconfig/detectors\l/Tagger.cc">
<polygon fill="white" stroke="black" points="4.5,-1 4.5,-31 123.5,-31 123.5,-1 4.5,-1"/>
<text text-anchor="start" x="12.5" y="-19" font-family="Helvetica,sans-Serif" font-size="10.00">src/expconfig/detectors</text>
<text text-anchor="middle" x="64" y="-8" font-family="Helvetica,sans-Serif" font-size="10.00">/Tagger.cc</text>
</a>
</g>
</g>
<!-- Node58&#45;&gt;Node59 -->
<g id="edge1" class="edge"><title>Node58&#45;&gt;Node59</title>
<path fill="none" stroke="midnightblue" d="M64,-58.0188C64,-48.6567 64,-38.7696 64,-31.0485"/>
<polygon fill="midnightblue" stroke="midnightblue" points="60.5001,-58.2225 64,-68.2225 67.5001,-58.2226 60.5001,-58.2225"/>
</g>
</g>
</svg>
