<?xml version="1.0" encoding="UTF-8" standalone="no"?>
<!DOCTYPE svg PUBLIC "-//W3C//DTD SVG 1.1//EN"
 "http://www.w3.org/Graphics/SVG/1.1/DTD/svg11.dtd">
<!-- Generated by graphviz version 2.36.0 (20140111.2315)
 -->
<!-- Title: src/analysis/utils/TimeSmearingHack.h Pages: 1 -->
<svg width="1352pt" height="444pt"
 viewBox="0.00 0.00 1352.00 444.00" xmlns="http://www.w3.org/2000/svg" xmlns:xlink="http://www.w3.org/1999/xlink">
<g id="graph0" class="graph" transform="scale(1 1) rotate(0) translate(4 440)">
<title>src/analysis/utils/TimeSmearingHack.h</title>
<polygon fill="white" stroke="none" points="-4,4 -4,-440 1348,-440 1348,4 -4,4"/>
<!-- Node0 -->
<g id="node1" class="node"><title>Node0</title>
<polygon fill="#bfbfbf" stroke="black" points="554,-405 554,-435 668,-435 668,-405 554,-405"/>
<text text-anchor="start" x="562" y="-423" font-family="Helvetica,sans-Serif" font-size="10.00">src/analysis/utils</text>
<text text-anchor="middle" x="611" y="-412" font-family="Helvetica,sans-Serif" font-size="10.00">/TimeSmearingHack.h</text>
</g>
<!-- Node1 -->
<g id="node2" class="node"><title>Node1</title>
<g id="a_node2"><a xlink:href="_t_tagger_hit_8h.html" target="_top" xlink:title="tree/TTaggerHit.h">
<polygon fill="white" stroke="black" points="840.5,-292.5 840.5,-311.5 933.5,-311.5 933.5,-292.5 840.5,-292.5"/>
<text text-anchor="middle" x="887" y="-299.5" font-family="Helvetica,sans-Serif" font-size="10.00">tree/TTaggerHit.h</text>
</a>
</g>
</g>
<!-- Node0&#45;&gt;Node1 -->
<g id="edge1" class="edge"><title>Node0&#45;&gt;Node1</title>
<path fill="none" stroke="midnightblue" d="M644.567,-404.892C698.957,-382.033 805.469,-337.267 857.28,-315.491"/>
<polygon fill="midnightblue" stroke="midnightblue" points="858.725,-318.681 866.587,-311.579 856.012,-312.227 858.725,-318.681"/>
</g>
<!-- Node23 -->
<g id="node24" class="node"><title>Node23</title>
<g id="a_node24"><a xlink:href="_t_candidate_8h.html" target="_top" xlink:title="tree/TCandidate.h">
<polygon fill="white" stroke="black" points="436.5,-348.5 436.5,-367.5 531.5,-367.5 531.5,-348.5 436.5,-348.5"/>
<text text-anchor="middle" x="484" y="-355.5" font-family="Helvetica,sans-Serif" font-size="10.00">tree/TCandidate.h</text>
</a>
</g>
</g>
<!-- Node0&#45;&gt;Node23 -->
<g id="edge28" class="edge"><title>Node0&#45;&gt;Node23</title>
<path fill="none" stroke="midnightblue" d="M581.224,-404.933C560.085,-394.946 531.921,-381.64 511.348,-371.92"/>
<polygon fill="midnightblue" stroke="midnightblue" points="512.74,-368.707 502.203,-367.6 509.75,-375.036 512.74,-368.707"/>
</g>
<!-- Node2 -->
<g id="node3" class="node"><title>Node2</title>
<g id="a_node3"><a xlink:href="_t_i_d_8h.html" target="_top" xlink:title="TID.h">
<polygon fill="white" stroke="black" points="988.5,-230.5 988.5,-249.5 1029.5,-249.5 1029.5,-230.5 988.5,-230.5"/>
<text text-anchor="middle" x="1009" y="-237.5" font-family="Helvetica,sans-Serif" font-size="10.00">TID.h</text>
</a>
</g>
</g>
<!-- Node1&#45;&gt;Node2 -->
<g id="edge2" class="edge"><title>Node1&#45;&gt;Node2</title>
<path fill="none" stroke="midnightblue" d="M904.659,-292.419C923.197,-283.398 953.181,-268.769 979,-256 980.174,-255.419 981.374,-254.825 982.586,-254.223"/>
<polygon fill="midnightblue" stroke="midnightblue" points="984.489,-257.185 991.879,-249.593 981.368,-250.92 984.489,-257.185"/>
</g>
<!-- Node7 -->
<g id="node8" class="node"><title>Node7</title>
<polygon fill="white" stroke="#bfbfbf" points="1055,-56.5 1055,-75.5 1107,-75.5 1107,-56.5 1055,-56.5"/>
<text text-anchor="middle" x="1081" y="-63.5" font-family="Helvetica,sans-Serif" font-size="10.00">sstream</text>
</g>
<!-- Node1&#45;&gt;Node7 -->
<g id="edge27" class="edge"><title>Node1&#45;&gt;Node7</title>
<path fill="none" stroke="midnightblue" d="M933.771,-300.958C1013.69,-298.255 1176.64,-280.861 1267,-188 1291.01,-163.324 1303.52,-138.873 1282,-112 1261.77,-86.736 1169.64,-74.7002 1117.41,-69.8175"/>
<polygon fill="midnightblue" stroke="midnightblue" points="1117.5,-66.311 1107.22,-68.9082 1116.87,-73.2833 1117.5,-66.311"/>
</g>
<!-- Node9 -->
<g id="node10" class="node"><title>Node9</title>
<polygon fill="white" stroke="#bfbfbf" points="119,-56.5 119,-75.5 163,-75.5 163,-56.5 119,-56.5"/>
<text text-anchor="middle" x="141" y="-63.5" font-family="Helvetica,sans-Serif" font-size="10.00">vector</text>
</g>
<!-- Node1&#45;&gt;Node9 -->
<g id="edge25" class="edge"><title>Node1&#45;&gt;Node9</title>
<path fill="none" stroke="midnightblue" d="M840.428,-299.098C693.348,-292.93 246.924,-272.9 221,-256 194.937,-239.009 166.809,-161.174 156,-132 150.399,-116.881 146.453,-98.9827 144.02,-85.7995"/>
<polygon fill="midnightblue" stroke="midnightblue" points="147.412,-84.8773 142.266,-75.6163 140.514,-86.0652 147.412,-84.8773"/>
</g>
<!-- Node17 -->
<g id="node18" class="node"><title>Node17</title>
<polygon fill="white" stroke="#bfbfbf" points="739,-168.5 739,-187.5 789,-187.5 789,-168.5 739,-168.5"/>
<text text-anchor="middle" x="764" y="-175.5" font-family="Helvetica,sans-Serif" font-size="10.00">iomanip</text>
</g>
<!-- Node1&#45;&gt;Node17 -->
<g id="edge26" class="edge"><title>Node1&#45;&gt;Node17</title>
<path fill="none" stroke="midnightblue" d="M878.154,-292.226C857.587,-271.826 806.31,-220.966 780.05,-194.92"/>
<polygon fill="midnightblue" stroke="midnightblue" points="782.33,-192.252 772.766,-187.694 777.401,-197.222 782.33,-192.252"/>
</g>
<!-- Node18 -->
<g id="node19" class="node"><title>Node18</title>
<g id="a_node19"><a xlink:href="_lorentz_vec_8h.html" target="_top" xlink:title="base/vec/LorentzVec.h">
<polygon fill="white" stroke="black" points="853.5,-230.5 853.5,-249.5 970.5,-249.5 970.5,-230.5 853.5,-230.5"/>
<text text-anchor="middle" x="912" y="-237.5" font-family="Helvetica,sans-Serif" font-size="10.00">base/vec/LorentzVec.h</text>
</a>
</g>
</g>
<!-- Node1&#45;&gt;Node18 -->
<g id="edge19" class="edge"><title>Node1&#45;&gt;Node18</title>
<path fill="none" stroke="midnightblue" d="M890.582,-292.403C894.183,-283.76 899.846,-270.17 904.444,-259.134"/>
<polygon fill="midnightblue" stroke="midnightblue" points="907.809,-260.158 908.425,-249.581 901.348,-257.465 907.809,-260.158"/>
</g>
<!-- Node3 -->
<g id="node4" class="node"><title>Node3</title>
<polygon fill="white" stroke="#bfbfbf" points="1062,-168.5 1062,-187.5 1118,-187.5 1118,-168.5 1062,-168.5"/>
<text text-anchor="middle" x="1090" y="-175.5" font-family="Helvetica,sans-Serif" font-size="10.00">Rtypes.h</text>
</g>
<!-- Node2&#45;&gt;Node3 -->
<g id="edge3" class="edge"><title>Node2&#45;&gt;Node3</title>
<path fill="none" stroke="midnightblue" d="M1020.61,-230.403C1033.48,-220.869 1054.47,-205.315 1070.01,-193.811"/>
<polygon fill="midnightblue" stroke="midnightblue" points="1072.46,-196.345 1078.42,-187.581 1068.3,-190.72 1072.46,-196.345"/>
</g>
<!-- Node4 -->
<g id="node5" class="node"><title>Node4</title>
<g id="a_node5"><a xlink:href="base_2std__ext_2_time_8h.html" target="_top" xlink:title="base/std_ext/time.h">
<polygon fill="white" stroke="black" points="1136.5,-168.5 1136.5,-187.5 1239.5,-187.5 1239.5,-168.5 1136.5,-168.5"/>
<text text-anchor="middle" x="1188" y="-175.5" font-family="Helvetica,sans-Serif" font-size="10.00">base/std_ext/time.h</text>
</a>
</g>
</g>
<!-- Node2&#45;&gt;Node4 -->
<g id="edge4" class="edge"><title>Node2&#45;&gt;Node4</title>
<path fill="none" stroke="midnightblue" d="M1029.53,-232.117C1059.58,-222.045 1115.95,-203.15 1152.72,-190.824"/>
<polygon fill="midnightblue" stroke="midnightblue" points="1154.17,-194.032 1162.54,-187.535 1151.94,-187.395 1154.17,-194.032"/>
</g>
<!-- Node11 -->
<g id="node12" class="node"><title>Node11</title>
<polygon fill="white" stroke="#bfbfbf" points="1232.5,-112.5 1232.5,-131.5 1273.5,-131.5 1273.5,-112.5 1232.5,-112.5"/>
<text text-anchor="middle" x="1253" y="-119.5" font-family="Helvetica,sans-Serif" font-size="10.00">ctime</text>
</g>
<!-- Node2&#45;&gt;Node11 -->
<g id="edge18" class="edge"><title>Node2&#45;&gt;Node11</title>
<path fill="none" stroke="midnightblue" d="M1029.88,-237.66C1082.67,-233.809 1219.3,-220.813 1248,-188 1258.82,-175.632 1258.97,-156.385 1257.08,-142.041"/>
<polygon fill="midnightblue" stroke="midnightblue" points="1260.46,-141.059 1255.29,-131.813 1253.57,-142.267 1260.46,-141.059"/>
</g>
<!-- Node12 -->
<g id="node13" class="node"><title>Node12</title>
<polygon fill="white" stroke="#bfbfbf" points="655,-112.5 655,-131.5 717,-131.5 717,-112.5 655,-112.5"/>
<text text-anchor="middle" x="686" y="-119.5" font-family="Helvetica,sans-Serif" font-size="10.00">type_traits</text>
</g>
<!-- Node2&#45;&gt;Node12 -->
<g id="edge12" class="edge"><title>Node2&#45;&gt;Node12</title>
<path fill="none" stroke="midnightblue" d="M991.671,-230.341C963.109,-216.069 909.07,-189.062 907,-188 890.019,-179.287 886.843,-174.773 869,-168 855.765,-162.976 776.78,-144.177 726.998,-132.525"/>
<polygon fill="midnightblue" stroke="midnightblue" points="727.69,-129.092 717.156,-130.225 726.098,-135.908 727.69,-129.092"/>
</g>
<!-- Node13 -->
<g id="node14" class="node"><title>Node13</title>
<polygon fill="white" stroke="#bfbfbf" points="959,-168.5 959,-187.5 997,-187.5 997,-168.5 959,-168.5"/>
<text text-anchor="middle" x="978" y="-175.5" font-family="Helvetica,sans-Serif" font-size="10.00">tuple</text>
</g>
<!-- Node2&#45;&gt;Node13 -->
<g id="edge13" class="edge"><title>Node2&#45;&gt;Node13</title>
<path fill="none" stroke="midnightblue" d="M1004.56,-230.403C1000.05,-221.671 992.926,-207.889 987.193,-196.794"/>
<polygon fill="midnightblue" stroke="midnightblue" points="990.133,-194.858 982.433,-187.581 983.914,-198.071 990.133,-194.858"/>
</g>
<!-- Node14 -->
<g id="node15" class="node"><title>Node14</title>
<polygon fill="white" stroke="#bfbfbf" points="735,-112.5 735,-131.5 781,-131.5 781,-112.5 735,-112.5"/>
<text text-anchor="middle" x="758" y="-119.5" font-family="Helvetica,sans-Serif" font-size="10.00">cstdint</text>
</g>
<!-- Node2&#45;&gt;Node14 -->
<g id="edge14" class="edge"><title>Node2&#45;&gt;Node14</title>
<path fill="none" stroke="midnightblue" d="M998.962,-230.373C981.407,-215.677 943.512,-185.669 907,-168 896.433,-162.886 831.557,-143.98 790.971,-132.363"/>
<polygon fill="midnightblue" stroke="midnightblue" points="791.8,-128.96 781.223,-129.579 789.878,-135.691 791.8,-128.96"/>
</g>
<!-- Node15 -->
<g id="node16" class="node"><title>Node15</title>
<polygon fill="white" stroke="#bfbfbf" points="577.5,-112.5 577.5,-131.5 636.5,-131.5 636.5,-112.5 577.5,-112.5"/>
<text text-anchor="middle" x="607" y="-119.5" font-family="Helvetica,sans-Serif" font-size="10.00">stdexcept</text>
</g>
<!-- Node2&#45;&gt;Node15 -->
<g id="edge15" class="edge"><title>Node2&#45;&gt;Node15</title>
<path fill="none" stroke="midnightblue" d="M993.03,-230.41C988.558,-228.171 983.647,-225.866 979,-224 939.929,-208.311 838.626,-179.056 798,-168 783.477,-164.048 697.989,-144.108 646.431,-132.137"/>
<polygon fill="midnightblue" stroke="midnightblue" points="647.136,-128.708 636.603,-129.856 645.553,-135.527 647.136,-128.708"/>
</g>
<!-- Node16 -->
<g id="node17" class="node"><title>Node16</title>
<polygon fill="white" stroke="#bfbfbf" points="1015.5,-168.5 1015.5,-187.5 1044.5,-187.5 1044.5,-168.5 1015.5,-168.5"/>
<text text-anchor="middle" x="1030" y="-175.5" font-family="Helvetica,sans-Serif" font-size="10.00">list</text>
</g>
<!-- Node2&#45;&gt;Node16 -->
<g id="edge16" class="edge"><title>Node2&#45;&gt;Node16</title>
<path fill="none" stroke="midnightblue" d="M1012.01,-230.403C1015.03,-221.76 1019.79,-208.17 1023.65,-197.134"/>
<polygon fill="midnightblue" stroke="midnightblue" points="1027,-198.175 1027,-187.581 1020.39,-195.863 1027,-198.175"/>
</g>
<!-- Node2&#45;&gt;Node17 -->
<g id="edge17" class="edge"><title>Node2&#45;&gt;Node17</title>
<path fill="none" stroke="midnightblue" d="M993.76,-230.432C989.127,-228.088 983.949,-225.723 979,-224 917.447,-202.573 842.254,-189.699 799.069,-183.508"/>
<polygon fill="midnightblue" stroke="midnightblue" points="799.453,-180.028 789.065,-182.112 798.485,-186.961 799.453,-180.028"/>
</g>
<!-- Node5 -->
<g id="node6" class="node"><title>Node5</title>
<g id="a_node6"><a xlink:href="string_8h.html" target="_top" xlink:title="base/std_ext/string.h">
<polygon fill="white" stroke="black" points="799,-112.5 799,-131.5 907,-131.5 907,-112.5 799,-112.5"/>
<text text-anchor="middle" x="853" y="-119.5" font-family="Helvetica,sans-Serif" font-size="10.00">base/std_ext/string.h</text>
</a>
</g>
</g>
<!-- Node4&#45;&gt;Node5 -->
<g id="edge5" class="edge"><title>Node4&#45;&gt;Node5</title>
<path fill="none" stroke="midnightblue" d="M1136.39,-168.681C1076.98,-159.105 979.427,-143.379 915.7,-133.107"/>
<polygon fill="midnightblue" stroke="midnightblue" points="916.204,-129.643 905.774,-131.507 915.09,-136.554 916.204,-129.643"/>
</g>
<!-- Node10 -->
<g id="node11" class="node"><title>Node10</title>
<polygon fill="white" stroke="#bfbfbf" points="1165,-112.5 1165,-131.5 1211,-131.5 1211,-112.5 1165,-112.5"/>
<text text-anchor="middle" x="1188" y="-119.5" font-family="Helvetica,sans-Serif" font-size="10.00">cstring</text>
</g>
<!-- Node4&#45;&gt;Node10 -->
<g id="edge10" class="edge"><title>Node4&#45;&gt;Node10</title>
<path fill="none" stroke="midnightblue" d="M1188,-168.083C1188,-161.006 1188,-150.861 1188,-141.986"/>
<polygon fill="midnightblue" stroke="midnightblue" points="1191.5,-141.751 1188,-131.751 1184.5,-141.751 1191.5,-141.751"/>
</g>
<!-- Node4&#45;&gt;Node11 -->
<g id="edge11" class="edge"><title>Node4&#45;&gt;Node11</title>
<path fill="none" stroke="midnightblue" d="M1198.44,-168.324C1208.15,-160.263 1222.82,-148.077 1234.5,-138.369"/>
<polygon fill="midnightblue" stroke="midnightblue" points="1236.91,-140.916 1242.37,-131.834 1232.44,-135.532 1236.91,-140.916"/>
</g>
<!-- Node6 -->
<g id="node7" class="node"><title>Node6</title>
<polygon fill="white" stroke="#bfbfbf" points="653.5,-56.5 653.5,-75.5 694.5,-75.5 694.5,-56.5 653.5,-56.5"/>
<text text-anchor="middle" x="674" y="-63.5" font-family="Helvetica,sans-Serif" font-size="10.00">string</text>
</g>
<!-- Node5&#45;&gt;Node6 -->
<g id="edge6" class="edge"><title>Node5&#45;&gt;Node6</title>
<path fill="none" stroke="midnightblue" d="M824.637,-112.444C791.85,-102.552 738.094,-86.3357 704.448,-76.1854"/>
<polygon fill="midnightblue" stroke="midnightblue" points="705.282,-72.7812 694.697,-73.2437 703.26,-79.4828 705.282,-72.7812"/>
</g>
<!-- Node5&#45;&gt;Node7 -->
<g id="edge7" class="edge"><title>Node5&#45;&gt;Node7</title>
<path fill="none" stroke="midnightblue" d="M889.127,-112.444C931.816,-102.333 1002.41,-85.6134 1045.03,-75.5192"/>
<polygon fill="midnightblue" stroke="midnightblue" points="1046.05,-78.8754 1054.97,-73.1649 1044.43,-72.0638 1046.05,-78.8754"/>
</g>
<!-- Node8 -->
<g id="node9" class="node"><title>Node8</title>
<polygon fill="white" stroke="#bfbfbf" points="333,-56.5 333,-75.5 389,-75.5 389,-56.5 333,-56.5"/>
<text text-anchor="middle" x="361" y="-63.5" font-family="Helvetica,sans-Serif" font-size="10.00">algorithm</text>
</g>
<!-- Node5&#45;&gt;Node8 -->
<g id="edge8" class="edge"><title>Node5&#45;&gt;Node8</title>
<path fill="none" stroke="midnightblue" d="M798.721,-113.115C795.772,-112.727 792.851,-112.353 790,-112 714.668,-102.671 489.625,-79.8983 399.219,-70.8236"/>
<polygon fill="midnightblue" stroke="midnightblue" points="399.431,-67.3274 389.131,-69.8118 398.732,-74.2925 399.431,-67.3274"/>
</g>
<!-- Node5&#45;&gt;Node9 -->
<g id="edge9" class="edge"><title>Node5&#45;&gt;Node9</title>
<path fill="none" stroke="midnightblue" d="M798.737,-112.974C795.784,-112.623 792.857,-112.295 790,-112 541.035,-86.2823 477.417,-96.8813 228,-76 209.877,-74.4828 189.67,-72.4153 173.295,-70.6446"/>
<polygon fill="midnightblue" stroke="midnightblue" points="173.47,-67.1429 163.148,-69.5326 172.707,-74.1012 173.47,-67.1429"/>
</g>
<!-- Node19 -->
<g id="node20" class="node"><title>Node19</title>
<g id="a_node20"><a xlink:href="vec3_8h.html" target="_top" xlink:title="base/vec/vec3.h">
<polygon fill="white" stroke="black" points="925.5,-112.5 925.5,-131.5 1014.5,-131.5 1014.5,-112.5 925.5,-112.5"/>
<text text-anchor="middle" x="970" y="-119.5" font-family="Helvetica,sans-Serif" font-size="10.00">base/vec/vec3.h</text>
</a>
</g>
</g>
<!-- Node18&#45;&gt;Node19 -->
<g id="edge20" class="edge"><title>Node18&#45;&gt;Node19</title>
<path fill="none" stroke="midnightblue" d="M916.359,-230.281C925.853,-211.294 948.554,-165.892 961.169,-140.662"/>
<polygon fill="midnightblue" stroke="midnightblue" points="964.406,-142.014 965.748,-131.505 958.145,-138.884 964.406,-142.014"/>
</g>
<!-- Node20 -->
<g id="node21" class="node"><title>Node20</title>
<g id="a_node21"><a xlink:href="vec2_8h.html" target="_top" xlink:title="vec2.h">
<polygon fill="white" stroke="black" points="947,-56.5 947,-75.5 993,-75.5 993,-56.5 947,-56.5"/>
<text text-anchor="middle" x="970" y="-63.5" font-family="Helvetica,sans-Serif" font-size="10.00">vec2.h</text>
</a>
</g>
</g>
<!-- Node19&#45;&gt;Node20 -->
<g id="edge21" class="edge"><title>Node19&#45;&gt;Node20</title>
<path fill="none" stroke="midnightblue" d="M970,-112.083C970,-105.006 970,-94.8611 970,-85.9865"/>
<polygon fill="midnightblue" stroke="midnightblue" points="973.5,-85.751 970,-75.7511 966.5,-85.7511 973.5,-85.751"/>
</g>
<!-- Node21 -->
<g id="node22" class="node"><title>Node21</title>
<polygon fill="white" stroke="#bfbfbf" points="646,-0.5 646,-19.5 690,-19.5 690,-0.5 646,-0.5"/>
<text text-anchor="middle" x="668" y="-7.5" font-family="Helvetica,sans-Serif" font-size="10.00">cmath</text>
</g>
<!-- Node19&#45;&gt;Node21 -->
<g id="edge24" class="edge"><title>Node19&#45;&gt;Node21</title>
<path fill="none" stroke="midnightblue" d="M963.33,-112.211C951.993,-97.9526 927.502,-69.9695 900,-56 834.333,-22.6448 746.68,-13.9414 700.167,-11.7181"/>
<polygon fill="midnightblue" stroke="midnightblue" points="700.21,-8.21711 690.076,-11.308 699.925,-15.2113 700.21,-8.21711"/>
</g>
<!-- Node22 -->
<g id="node23" class="node"><title>Node22</title>
<polygon fill="white" stroke="#bfbfbf" points="839,-56.5 839,-75.5 891,-75.5 891,-56.5 839,-56.5"/>
<text text-anchor="middle" x="865" y="-63.5" font-family="Helvetica,sans-Serif" font-size="10.00">ostream</text>
</g>
<!-- Node19&#45;&gt;Node22 -->
<g id="edge23" class="edge"><title>Node19&#45;&gt;Node22</title>
<path fill="none" stroke="midnightblue" d="M953.13,-112.324C936.291,-103.664 910.193,-90.2424 890.762,-80.249"/>
<polygon fill="midnightblue" stroke="midnightblue" points="892.322,-77.1155 881.828,-75.6545 889.12,-83.3405 892.322,-77.1155"/>
</g>
<!-- Node20&#45;&gt;Node21 -->
<g id="edge22" class="edge"><title>Node20&#45;&gt;Node21</title>
<path fill="none" stroke="midnightblue" d="M946.964,-59.1312C942.352,-58.0313 937.532,-56.9348 933,-56 849.545,-38.7865 750.318,-23.2343 700.28,-15.7313"/>
<polygon fill="midnightblue" stroke="midnightblue" points="700.492,-12.2243 690.085,-14.2122 699.46,-19.1479 700.492,-12.2243"/>
</g>
<!-- Node23&#45;&gt;Node7 -->
<g id="edge62" class="edge"><title>Node23&#45;&gt;Node7</title>
<path fill="none" stroke="midnightblue" d="M531.771,-355.63C712.472,-349.825 1344,-323.626 1344,-241 1344,-241 1344,-241 1344,-177 1344,-79.8244 1189.29,-67.0036 1117.19,-66.3052"/>
<polygon fill="midnightblue" stroke="midnightblue" points="1117.19,-62.8053 1107.18,-66.2816 1117.17,-69.8053 1117.19,-62.8053"/>
</g>
<!-- Node23&#45;&gt;Node8 -->
<g id="edge64" class="edge"><title>Node23&#45;&gt;Node8</title>
<path fill="none" stroke="midnightblue" d="M467.13,-348.397C437.449,-331.919 379,-292.883 379,-241 379,-241 379,-241 379,-177 379,-144.537 371.27,-107.384 365.942,-85.6276"/>
<polygon fill="midnightblue" stroke="midnightblue" points="369.288,-84.5867 363.428,-75.7605 362.505,-86.3151 369.288,-84.5867"/>
</g>
<!-- Node23&#45;&gt;Node9 -->
<g id="edge60" class="edge"><title>Node23&#45;&gt;Node9</title>
<path fill="none" stroke="midnightblue" d="M436.268,-355.656C314.162,-350.929 0,-330.108 0,-241 0,-241 0,-241 0,-177 0,-121.93 67.6899,-90.365 109.269,-76.1707"/>
<polygon fill="midnightblue" stroke="midnightblue" points="110.545,-79.4362 118.969,-73.0105 108.376,-72.7805 110.545,-79.4362"/>
</g>
<!-- Node23&#45;&gt;Node17 -->
<g id="edge61" class="edge"><title>Node23&#45;&gt;Node17</title>
<path fill="none" stroke="midnightblue" d="M531.513,-353.085C592.267,-345.394 696.15,-322.702 751,-256 764.293,-239.835 766.281,-215.165 765.765,-198.126"/>
<polygon fill="midnightblue" stroke="midnightblue" points="769.233,-197.51 765.116,-187.748 762.247,-197.947 769.233,-197.51"/>
</g>
<!-- Node24 -->
<g id="node25" class="node"><title>Node24</title>
<g id="a_node25"><a xlink:href="_t_cluster_8h.html" target="_top" xlink:title="TCluster.h">
<polygon fill="white" stroke="black" points="483,-292.5 483,-311.5 545,-311.5 545,-292.5 483,-292.5"/>
<text text-anchor="middle" x="514" y="-299.5" font-family="Helvetica,sans-Serif" font-size="10.00">TCluster.h</text>
</a>
</g>
</g>
<!-- Node23&#45;&gt;Node24 -->
<g id="edge29" class="edge"><title>Node23&#45;&gt;Node24</title>
<path fill="none" stroke="midnightblue" d="M488.954,-348.083C493.104,-340.613 499.153,-329.724 504.267,-320.52"/>
<polygon fill="midnightblue" stroke="midnightblue" points="507.341,-322.192 509.138,-311.751 501.222,-318.793 507.341,-322.192"/>
</g>
<!-- Node26 -->
<g id="node27" class="node"><title>Node26</title>
<g id="a_node27"><a xlink:href="_detector__t_8h.html" target="_top" xlink:title="base/Detector_t.h">
<polygon fill="white" stroke="black" points="445.5,-168.5 445.5,-187.5 540.5,-187.5 540.5,-168.5 445.5,-168.5"/>
<text text-anchor="middle" x="493" y="-175.5" font-family="Helvetica,sans-Serif" font-size="10.00">base/Detector_t.h</text>
</a>
</g>
</g>
<!-- Node23&#45;&gt;Node26 -->
<g id="edge59" class="edge"><title>Node23&#45;&gt;Node26</title>
<path fill="none" stroke="midnightblue" d="M481.518,-348.467C479.043,-339.485 475.415,-324.888 474,-312 469.499,-271.001 480.282,-223.183 487.381,-197.529"/>
<polygon fill="midnightblue" stroke="midnightblue" points="490.811,-198.268 490.23,-187.689 484.087,-196.322 490.811,-198.268"/>
</g>
<!-- Node32 -->
<g id="node33" class="node"><title>Node32</title>
<polygon fill="white" stroke="#bfbfbf" points="107,-168.5 107,-187.5 159,-187.5 159,-168.5 107,-168.5"/>
<text text-anchor="middle" x="133" y="-175.5" font-family="Helvetica,sans-Serif" font-size="10.00">memory</text>
</g>
<!-- Node23&#45;&gt;Node32 -->
<g id="edge63" class="edge"><title>Node23&#45;&gt;Node32</title>
<path fill="none" stroke="midnightblue" d="M436.201,-357.387C362.471,-355.21 221.719,-339.538 147,-256 132.808,-240.133 130.743,-214.845 131.278,-197.612"/>
<polygon fill="midnightblue" stroke="midnightblue" points="134.771,-197.83 131.903,-187.63 127.785,-197.392 134.771,-197.83"/>
</g>
<!-- Node24&#45;&gt;Node7 -->
<g id="edge57" class="edge"><title>Node24&#45;&gt;Node7</title>
<path fill="none" stroke="midnightblue" d="M545.207,-301.01C583.756,-299.405 649.334,-291.187 691,-256 723.684,-228.398 695.504,-193.301 730,-168 845.406,-83.3553 933.427,-215.03 1050,-132 1065.24,-121.144 1073.26,-100.764 1077.29,-85.7066"/>
<polygon fill="midnightblue" stroke="midnightblue" points="1080.71,-86.4282 1079.56,-75.8959 1073.89,-84.8464 1080.71,-86.4282"/>
</g>
<!-- Node24&#45;&gt;Node9 -->
<g id="edge54" class="edge"><title>Node24&#45;&gt;Node9</title>
<path fill="none" stroke="midnightblue" d="M482.828,-299.672C391.523,-295.501 129.323,-281.403 101,-256 53.191,-213.119 60.7493,-169.674 89,-112 95.0724,-99.6031 106.267,-89.2247 116.719,-81.5704"/>
<polygon fill="midnightblue" stroke="midnightblue" points="118.9,-84.3194 125.194,-75.7969 114.959,-78.5341 118.9,-84.3194"/>
</g>
<!-- Node24&#45;&gt;Node17 -->
<g id="edge56" class="edge"><title>Node24&#45;&gt;Node17</title>
<path fill="none" stroke="midnightblue" d="M545.26,-297.659C596.92,-291.603 697.175,-277.42 725,-256 743.88,-241.466 754.352,-215.283 759.577,-197.527"/>
<polygon fill="midnightblue" stroke="midnightblue" points="762.992,-198.304 762.181,-187.741 756.228,-196.505 762.992,-198.304"/>
</g>
<!-- Node24&#45;&gt;Node19 -->
<g id="edge53" class="edge"><title>Node24&#45;&gt;Node19</title>
<path fill="none" stroke="midnightblue" d="M516.066,-292.311C520.139,-276.826 530.547,-244.192 550,-224 587.788,-184.777 607.081,-184.453 659,-168 765.942,-134.11 800.13,-148.628 915.315,-132.03"/>
<polygon fill="midnightblue" stroke="midnightblue" points="915.85,-135.489 925.225,-130.554 914.819,-128.565 915.85,-135.489"/>
</g>
<!-- Node24&#45;&gt;Node21 -->
<g id="edge55" class="edge"><title>Node24&#45;&gt;Node21</title>
<path fill="none" stroke="midnightblue" d="M499.687,-292.236C472.705,-274.49 417,-231.495 417,-179 417,-179 417,-179 417,-121 417,-26.6128 567.737,-12.4561 635.584,-10.8646"/>
<polygon fill="midnightblue" stroke="midnightblue" points="635.781,-14.3621 645.725,-10.7067 635.672,-7.36292 635.781,-14.3621"/>
</g>
<!-- Node25 -->
<g id="node26" class="node"><title>Node25</title>
<g id="a_node26"><a xlink:href="_t_detector_read_hit_8h.html" target="_top" xlink:title="tree/TDetectorReadHit.h">
<polygon fill="white" stroke="black" points="559,-230.5 559,-249.5 683,-249.5 683,-230.5 559,-230.5"/>
<text text-anchor="middle" x="621" y="-237.5" font-family="Helvetica,sans-Serif" font-size="10.00">tree/TDetectorReadHit.h</text>
</a>
</g>
</g>
<!-- Node24&#45;&gt;Node25 -->
<g id="edge30" class="edge"><title>Node24&#45;&gt;Node25</title>
<path fill="none" stroke="midnightblue" d="M529.33,-292.403C546.97,-282.512 576.16,-266.144 596.858,-254.538"/>
<polygon fill="midnightblue" stroke="midnightblue" points="598.688,-257.524 605.698,-249.581 595.264,-251.419 598.688,-257.524"/>
</g>
<!-- Node24&#45;&gt;Node26 -->
<g id="edge46" class="edge"><title>Node24&#45;&gt;Node26</title>
<path fill="none" stroke="midnightblue" d="M512.49,-292.226C509.099,-272.53 500.821,-224.437 496.219,-197.7"/>
<polygon fill="midnightblue" stroke="midnightblue" points="499.642,-196.956 494.497,-187.694 492.744,-198.143 499.642,-196.956"/>
</g>
<!-- Node29 -->
<g id="node30" class="node"><title>Node29</title>
<g id="a_node30"><a xlink:href="base_2std__ext_2math_8h.html" target="_top" xlink:title="base/std_ext/math.h">
<polygon fill="white" stroke="black" points="207,-112.5 207,-131.5 313,-131.5 313,-112.5 207,-112.5"/>
<text text-anchor="middle" x="260" y="-119.5" font-family="Helvetica,sans-Serif" font-size="10.00">base/std_ext/math.h</text>
</a>
</g>
</g>
<!-- Node24&#45;&gt;Node29 -->
<g id="edge47" class="edge"><title>Node24&#45;&gt;Node29</title>
<path fill="none" stroke="midnightblue" d="M482.849,-300.342C404.903,-298.204 203.63,-289.501 147,-256 108.471,-233.208 70.9112,-203.639 98,-168 110.253,-151.879 156.808,-140.014 196.885,-132.528"/>
<polygon fill="midnightblue" stroke="midnightblue" points="197.69,-135.939 206.91,-130.719 196.447,-129.05 197.69,-135.939"/>
</g>
<!-- Node31 -->
<g id="node32" class="node"><title>Node31</title>
<g id="a_node32"><a xlink:href="shared__ptr__container_8h.html" target="_top" xlink:title="base/std_ext/shared\l_ptr_container.h">
<polygon fill="white" stroke="black" points="230.5,-225 230.5,-255 335.5,-255 335.5,-225 230.5,-225"/>
<text text-anchor="start" x="238.5" y="-243" font-family="Helvetica,sans-Serif" font-size="10.00">base/std_ext/shared</text>
<text text-anchor="middle" x="283" y="-232" font-family="Helvetica,sans-Serif" font-size="10.00">_ptr_container.h</text>
</a>
</g>
</g>
<!-- Node24&#45;&gt;Node31 -->
<g id="edge48" class="edge"><title>Node24&#45;&gt;Node31</title>
<path fill="none" stroke="midnightblue" d="M482.846,-292.908C447.812,-283.808 390.012,-268.795 345.561,-257.25"/>
<polygon fill="midnightblue" stroke="midnightblue" points="346.279,-253.82 335.72,-254.694 344.519,-260.595 346.279,-253.82"/>
</g>
<!-- Node24&#45;&gt;Node32 -->
<g id="edge58" class="edge"><title>Node24&#45;&gt;Node32</title>
<path fill="none" stroke="midnightblue" d="M482.927,-300.355C409.111,-298.281 225.695,-289.775 176,-256 155.77,-242.251 144.044,-215.677 138.086,-197.639"/>
<polygon fill="midnightblue" stroke="midnightblue" points="141.397,-196.497 135.16,-187.933 134.695,-198.518 141.397,-196.497"/>
</g>
<!-- Node25&#45;&gt;Node7 -->
<g id="edge45" class="edge"><title>Node25&#45;&gt;Node7</title>
<path fill="none" stroke="midnightblue" d="M627.334,-230.132C639.062,-214.495 665.826,-182.323 697,-168 829.458,-107.141 893.443,-198.811 1023,-132 1043.93,-121.208 1060.85,-99.502 1070.9,-84.1483"/>
<polygon fill="midnightblue" stroke="midnightblue" points="1073.93,-85.9029 1076.25,-75.5637 1067.99,-82.2037 1073.93,-85.9029"/>
</g>
<!-- Node25&#45;&gt;Node17 -->
<g id="edge44" class="edge"><title>Node25&#45;&gt;Node17</title>
<path fill="none" stroke="midnightblue" d="M641.488,-230.403C665.806,-220.2 706.549,-203.105 734.317,-191.454"/>
<polygon fill="midnightblue" stroke="midnightblue" points="735.683,-194.677 743.55,-187.581 732.974,-188.222 735.683,-194.677"/>
</g>
<!-- Node25&#45;&gt;Node26 -->
<g id="edge31" class="edge"><title>Node25&#45;&gt;Node26</title>
<path fill="none" stroke="midnightblue" d="M602.661,-230.403C581.179,-220.334 545.378,-203.552 520.552,-191.915"/>
<polygon fill="midnightblue" stroke="midnightblue" points="521.845,-188.656 511.305,-187.581 518.874,-194.994 521.845,-188.656"/>
</g>
<!-- Node26&#45;&gt;Node6 -->
<g id="edge41" class="edge"><title>Node26&#45;&gt;Node6</title>
<path fill="none" stroke="midnightblue" d="M501.078,-168.45C514.124,-155.018 541.101,-128.781 568,-112 591.976,-97.0421 621.792,-84.8829 643.689,-76.9922"/>
<polygon fill="midnightblue" stroke="midnightblue" points="644.868,-80.2879 653.143,-73.6723 642.548,-73.6833 644.868,-80.2879"/>
</g>
<!-- Node26&#45;&gt;Node9 -->
<g id="edge43" class="edge"><title>Node26&#45;&gt;Node9</title>
<path fill="none" stroke="midnightblue" d="M445.452,-173.711C373.183,-168.055 239.689,-154.836 198,-132 177.724,-120.893 161.212,-99.6206 151.275,-84.4361"/>
<polygon fill="midnightblue" stroke="midnightblue" points="154.223,-82.5485 145.963,-75.9137 148.282,-86.2515 154.223,-82.5485"/>
</g>
<!-- Node26&#45;&gt;Node12 -->
<g id="edge42" class="edge"><title>Node26&#45;&gt;Node12</title>
<path fill="none" stroke="midnightblue" d="M523.581,-168.444C556.615,-159.201 609.388,-144.436 645.766,-134.257"/>
<polygon fill="midnightblue" stroke="midnightblue" points="646.875,-137.582 655.562,-131.516 644.988,-130.84 646.875,-137.582"/>
</g>
<!-- Node26&#45;&gt;Node14 -->
<g id="edge39" class="edge"><title>Node26&#45;&gt;Node14</title>
<path fill="none" stroke="midnightblue" d="M540.763,-168.811C587.824,-160.491 661.666,-146.757 725,-132 725.101,-131.976 725.203,-131.953 725.304,-131.929"/>
<polygon fill="midnightblue" stroke="midnightblue" points="726.122,-135.332 734.977,-129.515 724.427,-128.541 726.122,-135.332"/>
</g>
<!-- Node26&#45;&gt;Node15 -->
<g id="edge40" class="edge"><title>Node26&#45;&gt;Node15</title>
<path fill="none" stroke="midnightblue" d="M511.064,-168.444C529.575,-159.675 558.581,-145.935 579.855,-135.858"/>
<polygon fill="midnightblue" stroke="midnightblue" points="581.482,-138.96 589.021,-131.516 578.485,-132.634 581.482,-138.96"/>
</g>
<!-- Node26&#45;&gt;Node19 -->
<g id="edge34" class="edge"><title>Node26&#45;&gt;Node19</title>
<path fill="none" stroke="midnightblue" d="M540.699,-169.856C545.526,-169.199 550.358,-168.568 555,-168 711.764,-148.815 754.432,-153.077 915.002,-132.047"/>
<polygon fill="midnightblue" stroke="midnightblue" points="915.79,-135.473 925.245,-130.692 914.872,-128.533 915.79,-135.473"/>
</g>
<!-- Node27 -->
<g id="node28" class="node"><title>Node27</title>
<g id="a_node28"><a xlink:href="bitflag_8h.html" target="_top" xlink:title="base/bitflag.h">
<polygon fill="white" stroke="black" points="445.5,-112.5 445.5,-131.5 520.5,-131.5 520.5,-112.5 445.5,-112.5"/>
<text text-anchor="middle" x="483" y="-119.5" font-family="Helvetica,sans-Serif" font-size="10.00">base/bitflag.h</text>
</a>
</g>
</g>
<!-- Node26&#45;&gt;Node27 -->
<g id="edge32" class="edge"><title>Node26&#45;&gt;Node27</title>
<path fill="none" stroke="midnightblue" d="M491.349,-168.083C490.024,-160.927 488.118,-150.635 486.461,-141.691"/>
<polygon fill="midnightblue" stroke="midnightblue" points="489.883,-140.947 484.621,-131.751 483,-142.221 489.883,-140.947"/>
</g>
<!-- Node26&#45;&gt;Node29 -->
<g id="edge35" class="edge"><title>Node26&#45;&gt;Node29</title>
<path fill="none" stroke="midnightblue" d="M456.08,-168.444C415.605,-159.063 350.579,-143.993 306.616,-133.804"/>
<polygon fill="midnightblue" stroke="midnightblue" points="307.279,-130.365 296.747,-131.516 305.698,-137.184 307.279,-130.365"/>
</g>
<!-- Node28 -->
<g id="node29" class="node"><title>Node28</title>
<polygon fill="white" stroke="#bfbfbf" points="462.5,-56.5 462.5,-75.5 503.5,-75.5 503.5,-56.5 462.5,-56.5"/>
<text text-anchor="middle" x="483" y="-63.5" font-family="Helvetica,sans-Serif" font-size="10.00">bitset</text>
</g>
<!-- Node27&#45;&gt;Node28 -->
<g id="edge33" class="edge"><title>Node27&#45;&gt;Node28</title>
<path fill="none" stroke="midnightblue" d="M483,-112.083C483,-105.006 483,-94.8611 483,-85.9865"/>
<polygon fill="midnightblue" stroke="midnightblue" points="486.5,-85.751 483,-75.7511 479.5,-85.7511 486.5,-85.751"/>
</g>
<!-- Node29&#45;&gt;Node9 -->
<g id="edge38" class="edge"><title>Node29&#45;&gt;Node9</title>
<path fill="none" stroke="midnightblue" d="M241.144,-112.444C221.734,-103.636 191.27,-89.8116 169.035,-79.722"/>
<polygon fill="midnightblue" stroke="midnightblue" points="170.32,-76.4615 159.768,-75.5164 167.428,-82.836 170.32,-76.4615"/>
</g>
<!-- Node29&#45;&gt;Node21 -->
<g id="edge36" class="edge"><title>Node29&#45;&gt;Node21</title>
<path fill="none" stroke="midnightblue" d="M265.505,-112.485C275.323,-98.0997 297.343,-69.2607 324,-56 378.355,-28.9608 560.411,-16.6022 635.349,-12.5701"/>
<polygon fill="midnightblue" stroke="midnightblue" points="635.796,-16.0516 645.6,-12.0349 635.431,-9.06113 635.796,-16.0516"/>
</g>
<!-- Node30 -->
<g id="node31" class="node"><title>Node30</title>
<polygon fill="white" stroke="#bfbfbf" points="237,-56.5 237,-75.5 277,-75.5 277,-56.5 237,-56.5"/>
<text text-anchor="middle" x="257" y="-63.5" font-family="Helvetica,sans-Serif" font-size="10.00">limits</text>
</g>
<!-- Node29&#45;&gt;Node30 -->
<g id="edge37" class="edge"><title>Node29&#45;&gt;Node30</title>
<path fill="none" stroke="midnightblue" d="M259.505,-112.083C259.111,-105.006 258.548,-94.8611 258.055,-85.9865"/>
<polygon fill="midnightblue" stroke="midnightblue" points="261.536,-85.5415 257.486,-75.7511 254.546,-85.9299 261.536,-85.5415"/>
</g>
<!-- Node31&#45;&gt;Node8 -->
<g id="edge52" class="edge"><title>Node31&#45;&gt;Node8</title>
<path fill="none" stroke="midnightblue" d="M295.652,-224.668C303.777,-214.882 314.068,-201.321 321,-188 338.81,-153.774 350.917,-110.031 356.826,-85.6181"/>
<polygon fill="midnightblue" stroke="midnightblue" points="360.302,-86.1218 359.165,-75.5881 353.485,-84.5318 360.302,-86.1218"/>
</g>
<!-- Node31&#45;&gt;Node9 -->
<g id="edge49" class="edge"><title>Node31&#45;&gt;Node9</title>
<path fill="none" stroke="midnightblue" d="M264.26,-224.818C240.166,-205.823 198.2,-170.074 171,-132 160.625,-117.477 152.449,-98.7927 147.27,-85.1866"/>
<polygon fill="midnightblue" stroke="midnightblue" points="150.472,-83.7493 143.775,-75.5399 143.891,-86.1341 150.472,-83.7493"/>
</g>
<!-- Node31&#45;&gt;Node32 -->
<g id="edge50" class="edge"><title>Node31&#45;&gt;Node32</title>
<path fill="none" stroke="midnightblue" d="M247.832,-224.933C222.412,-214.765 188.392,-201.157 163.991,-191.396"/>
<polygon fill="midnightblue" stroke="midnightblue" points="165.085,-188.064 154.5,-187.6 162.485,-194.564 165.085,-188.064"/>
</g>
<!-- Node33 -->
<g id="node34" class="node"><title>Node33</title>
<polygon fill="white" stroke="#bfbfbf" points="253.5,-168.5 253.5,-187.5 312.5,-187.5 312.5,-168.5 253.5,-168.5"/>
<text text-anchor="middle" x="283" y="-175.5" font-family="Helvetica,sans-Serif" font-size="10.00">functional</text>
</g>
<!-- Node31&#45;&gt;Node33 -->
<g id="edge51" class="edge"><title>Node31&#45;&gt;Node33</title>
<path fill="none" stroke="midnightblue" d="M283,-224.781C283,-216.781 283,-206.689 283,-198.017"/>
<polygon fill="midnightblue" stroke="midnightblue" points="286.5,-197.73 283,-187.731 279.5,-197.731 286.5,-197.73"/>
</g>
</g>
</svg>
