<?xml version="1.0" encoding="UTF-8" standalone="no"?>
<!DOCTYPE svg PUBLIC "-//W3C//DTD SVG 1.1//EN"
 "http://www.w3.org/Graphics/SVG/1.1/DTD/svg11.dtd">
<!-- Generated by graphviz version 2.36.0 (20140111.2315)
 -->
<!-- Title: src/analysis/utils/TimeSmearingHack.cc Pages: 1 -->
<svg width="1497pt" height="500pt"
 viewBox="0.00 0.00 1497.37 500.00" xmlns="http://www.w3.org/2000/svg" xmlns:xlink="http://www.w3.org/1999/xlink">
<g id="graph0" class="graph" transform="scale(1 1) rotate(0) translate(4 496)">
<title>src/analysis/utils/TimeSmearingHack.cc</title>
<polygon fill="white" stroke="none" points="-4,4 -4,-496 1493.37,-496 1493.37,4 -4,4"/>
<!-- Node0 -->
<g id="node1" class="node"><title>Node0</title>
<polygon fill="#bfbfbf" stroke="black" points="746.5,-461 746.5,-491 865.5,-491 865.5,-461 746.5,-461"/>
<text text-anchor="start" x="754.5" y="-479" font-family="Helvetica,sans-Serif" font-size="10.00">src/analysis/utils</text>
<text text-anchor="middle" x="806" y="-468" font-family="Helvetica,sans-Serif" font-size="10.00">/TimeSmearingHack.cc</text>
</g>
<!-- Node1 -->
<g id="node2" class="node"><title>Node1</title>
<g id="a_node2"><a xlink:href="_time_smearing_hack_8h.html" target="_top" xlink:title="TimeSmearingHack.h">
<polygon fill="white" stroke="black" points="642.5,-404.5 642.5,-423.5 753.5,-423.5 753.5,-404.5 642.5,-404.5"/>
<text text-anchor="middle" x="698" y="-411.5" font-family="Helvetica,sans-Serif" font-size="10.00">TimeSmearingHack.h</text>
</a>
</g>
</g>
<!-- Node0&#45;&gt;Node1 -->
<g id="edge1" class="edge"><title>Node0&#45;&gt;Node1</title>
<path fill="none" stroke="midnightblue" d="M780.679,-460.933C763.109,-451.171 739.832,-438.24 722.454,-428.586"/>
<polygon fill="midnightblue" stroke="midnightblue" points="723.921,-425.397 713.48,-423.6 720.522,-431.516 723.921,-425.397"/>
</g>
<!-- Node35 -->
<g id="node36" class="node"><title>Node35</title>
<polygon fill="white" stroke="#bfbfbf" points="772,-404.5 772,-423.5 840,-423.5 840,-404.5 772,-404.5"/>
<text text-anchor="middle" x="806" y="-411.5" font-family="Helvetica,sans-Serif" font-size="10.00">TRandom.h</text>
</g>
<!-- Node0&#45;&gt;Node35 -->
<g id="edge66" class="edge"><title>Node0&#45;&gt;Node35</title>
<path fill="none" stroke="midnightblue" d="M806,-460.781C806,-452.781 806,-442.689 806,-434.017"/>
<polygon fill="midnightblue" stroke="midnightblue" points="809.5,-433.73 806,-423.731 802.5,-433.731 809.5,-433.73"/>
</g>
<!-- Node36 -->
<g id="node37" class="node"><title>Node36</title>
<g id="a_node37"><a xlink:href="_logger_8h.html" target="_top" xlink:title="base/Logger.h">
<polygon fill="white" stroke="black" points="858,-404.5 858,-423.5 936,-423.5 936,-404.5 858,-404.5"/>
<text text-anchor="middle" x="897" y="-411.5" font-family="Helvetica,sans-Serif" font-size="10.00">base/Logger.h</text>
</a>
</g>
</g>
<!-- Node0&#45;&gt;Node36 -->
<g id="edge67" class="edge"><title>Node0&#45;&gt;Node36</title>
<path fill="none" stroke="midnightblue" d="M827.566,-460.781C841.966,-451.286 860.837,-438.843 875.271,-429.327"/>
<polygon fill="midnightblue" stroke="midnightblue" points="877.602,-431.982 884.024,-423.556 873.749,-426.138 877.602,-431.982"/>
</g>
<!-- Node2 -->
<g id="node3" class="node"><title>Node2</title>
<g id="a_node3"><a xlink:href="_t_tagger_hit_8h.html" target="_top" xlink:title="tree/TTaggerHit.h">
<polygon fill="white" stroke="black" points="1070.5,-292.5 1070.5,-311.5 1163.5,-311.5 1163.5,-292.5 1070.5,-292.5"/>
<text text-anchor="middle" x="1117" y="-299.5" font-family="Helvetica,sans-Serif" font-size="10.00">tree/TTaggerHit.h</text>
</a>
</g>
</g>
<!-- Node1&#45;&gt;Node2 -->
<g id="edge2" class="edge"><title>Node1&#45;&gt;Node2</title>
<path fill="none" stroke="midnightblue" d="M713.573,-404.392C739.583,-390.394 793.861,-362.776 843,-348 863.392,-341.868 986.16,-322.764 1060.27,-311.516"/>
<polygon fill="midnightblue" stroke="midnightblue" points="1061.03,-314.941 1070.39,-309.983 1059.98,-308.02 1061.03,-314.941"/>
</g>
<!-- Node24 -->
<g id="node25" class="node"><title>Node24</title>
<g id="a_node25"><a xlink:href="_t_candidate_8h.html" target="_top" xlink:title="tree/TCandidate.h">
<polygon fill="white" stroke="black" points="600.5,-348.5 600.5,-367.5 695.5,-367.5 695.5,-348.5 600.5,-348.5"/>
<text text-anchor="middle" x="648" y="-355.5" font-family="Helvetica,sans-Serif" font-size="10.00">tree/TCandidate.h</text>
</a>
</g>
</g>
<!-- Node1&#45;&gt;Node24 -->
<g id="edge29" class="edge"><title>Node1&#45;&gt;Node24</title>
<path fill="none" stroke="midnightblue" d="M689.744,-404.083C682.535,-396.298 671.89,-384.801 663.154,-375.367"/>
<polygon fill="midnightblue" stroke="midnightblue" points="665.465,-372.711 656.103,-367.751 660.329,-377.467 665.465,-372.711"/>
</g>
<!-- Node3 -->
<g id="node4" class="node"><title>Node3</title>
<g id="a_node4"><a xlink:href="_t_i_d_8h.html" target="_top" xlink:title="TID.h">
<polygon fill="white" stroke="black" points="1125.5,-230.5 1125.5,-249.5 1166.5,-249.5 1166.5,-230.5 1125.5,-230.5"/>
<text text-anchor="middle" x="1146" y="-237.5" font-family="Helvetica,sans-Serif" font-size="10.00">TID.h</text>
</a>
</g>
</g>
<!-- Node2&#45;&gt;Node3 -->
<g id="edge3" class="edge"><title>Node2&#45;&gt;Node3</title>
<path fill="none" stroke="midnightblue" d="M1121.15,-292.403C1125.38,-283.671 1132.04,-269.889 1137.4,-258.794"/>
<polygon fill="midnightblue" stroke="midnightblue" points="1140.65,-260.107 1141.85,-249.581 1134.35,-257.061 1140.65,-260.107"/>
</g>
<!-- Node8 -->
<g id="node9" class="node"><title>Node8</title>
<polygon fill="white" stroke="#bfbfbf" points="1066,-56.5 1066,-75.5 1118,-75.5 1118,-56.5 1066,-56.5"/>
<text text-anchor="middle" x="1092" y="-63.5" font-family="Helvetica,sans-Serif" font-size="10.00">sstream</text>
</g>
<!-- Node2&#45;&gt;Node8 -->
<g id="edge28" class="edge"><title>Node2&#45;&gt;Node8</title>
<path fill="none" stroke="midnightblue" d="M1163.86,-294.308C1279.96,-275.931 1564.86,-218.818 1470,-112 1447.5,-86.6582 1218.36,-73.0359 1128.18,-68.6226"/>
<polygon fill="midnightblue" stroke="midnightblue" points="1128.3,-65.1244 1118.15,-68.1415 1127.97,-72.1164 1128.3,-65.1244"/>
</g>
<!-- Node10 -->
<g id="node11" class="node"><title>Node10</title>
<polygon fill="white" stroke="#bfbfbf" points="255,-56.5 255,-75.5 299,-75.5 299,-56.5 255,-56.5"/>
<text text-anchor="middle" x="277" y="-63.5" font-family="Helvetica,sans-Serif" font-size="10.00">vector</text>
</g>
<!-- Node2&#45;&gt;Node10 -->
<g id="edge26" class="edge"><title>Node2&#45;&gt;Node10</title>
<path fill="none" stroke="midnightblue" d="M1070.46,-300.348C952.306,-298.213 643.338,-289.498 547,-256 437.007,-217.754 331.253,-120.863 292.519,-82.7479"/>
<polygon fill="midnightblue" stroke="midnightblue" points="294.848,-80.1275 285.293,-75.5489 289.907,-85.0863 294.848,-80.1275"/>
</g>
<!-- Node18 -->
<g id="node19" class="node"><title>Node18</title>
<polygon fill="white" stroke="#bfbfbf" points="812,-168.5 812,-187.5 862,-187.5 862,-168.5 812,-168.5"/>
<text text-anchor="middle" x="837" y="-175.5" font-family="Helvetica,sans-Serif" font-size="10.00">iomanip</text>
</g>
<!-- Node2&#45;&gt;Node18 -->
<g id="edge27" class="edge"><title>Node2&#45;&gt;Node18</title>
<path fill="none" stroke="midnightblue" d="M1097.31,-292.421C1048.71,-271.246 922.872,-216.416 865.845,-191.568"/>
<polygon fill="midnightblue" stroke="midnightblue" points="867.233,-188.355 856.667,-187.569 864.437,-194.772 867.233,-188.355"/>
</g>
<!-- Node19 -->
<g id="node20" class="node"><title>Node19</title>
<g id="a_node20"><a xlink:href="_lorentz_vec_8h.html" target="_top" xlink:title="base/vec/LorentzVec.h">
<polygon fill="white" stroke="black" points="556.5,-230.5 556.5,-249.5 673.5,-249.5 673.5,-230.5 556.5,-230.5"/>
<text text-anchor="middle" x="615" y="-237.5" font-family="Helvetica,sans-Serif" font-size="10.00">base/vec/LorentzVec.h</text>
</a>
</g>
</g>
<!-- Node2&#45;&gt;Node19 -->
<g id="edge20" class="edge"><title>Node2&#45;&gt;Node19</title>
<path fill="none" stroke="midnightblue" d="M1070.21,-297.903C990.405,-292.229 823.027,-278.628 683,-256 675.532,-254.793 667.651,-253.28 660.006,-251.682"/>
<polygon fill="midnightblue" stroke="midnightblue" points="660.66,-248.243 650.147,-249.552 659.182,-255.085 660.66,-248.243"/>
</g>
<!-- Node4 -->
<g id="node5" class="node"><title>Node4</title>
<polygon fill="white" stroke="#bfbfbf" points="1146,-168.5 1146,-187.5 1202,-187.5 1202,-168.5 1146,-168.5"/>
<text text-anchor="middle" x="1174" y="-175.5" font-family="Helvetica,sans-Serif" font-size="10.00">Rtypes.h</text>
</g>
<!-- Node3&#45;&gt;Node4 -->
<g id="edge4" class="edge"><title>Node3&#45;&gt;Node4</title>
<path fill="none" stroke="midnightblue" d="M1150.01,-230.403C1154.09,-221.671 1160.52,-207.889 1165.7,-196.794"/>
<polygon fill="midnightblue" stroke="midnightblue" points="1168.94,-198.123 1170,-187.581 1162.6,-195.162 1168.94,-198.123"/>
</g>
<!-- Node5 -->
<g id="node6" class="node"><title>Node5</title>
<g id="a_node6"><a xlink:href="base_2std__ext_2_time_8h.html" target="_top" xlink:title="base/std_ext/time.h">
<polygon fill="white" stroke="black" points="1323.5,-168.5 1323.5,-187.5 1426.5,-187.5 1426.5,-168.5 1323.5,-168.5"/>
<text text-anchor="middle" x="1375" y="-175.5" font-family="Helvetica,sans-Serif" font-size="10.00">base/std_ext/time.h</text>
</a>
</g>
</g>
<!-- Node3&#45;&gt;Node5 -->
<g id="edge5" class="edge"><title>Node3&#45;&gt;Node5</title>
<path fill="none" stroke="midnightblue" d="M1166.73,-233.57C1204.12,-223.773 1283.54,-202.964 1332.78,-190.062"/>
<polygon fill="midnightblue" stroke="midnightblue" points="1333.72,-193.435 1342.5,-187.514 1331.94,-186.663 1333.72,-193.435"/>
</g>
<!-- Node12 -->
<g id="node13" class="node"><title>Node12</title>
<polygon fill="white" stroke="#bfbfbf" points="1420.5,-112.5 1420.5,-131.5 1461.5,-131.5 1461.5,-112.5 1420.5,-112.5"/>
<text text-anchor="middle" x="1441" y="-119.5" font-family="Helvetica,sans-Serif" font-size="10.00">ctime</text>
</g>
<!-- Node3&#45;&gt;Node12 -->
<g id="edge19" class="edge"><title>Node3&#45;&gt;Node12</title>
<path fill="none" stroke="midnightblue" d="M1166.7,-238.478C1226.69,-236.506 1398.68,-227.451 1435,-188 1446.25,-175.775 1446.59,-156.231 1444.81,-141.762"/>
<polygon fill="midnightblue" stroke="midnightblue" points="1448.27,-141.194 1443.19,-131.892 1441.36,-142.327 1448.27,-141.194"/>
</g>
<!-- Node13 -->
<g id="node14" class="node"><title>Node13</title>
<polygon fill="white" stroke="#bfbfbf" points="658,-112.5 658,-131.5 720,-131.5 720,-112.5 658,-112.5"/>
<text text-anchor="middle" x="689" y="-119.5" font-family="Helvetica,sans-Serif" font-size="10.00">type_traits</text>
</g>
<!-- Node3&#45;&gt;Node13 -->
<g id="edge13" class="edge"><title>Node3&#45;&gt;Node13</title>
<path fill="none" stroke="midnightblue" d="M1125.39,-234.061C1088.52,-225.177 1008.86,-205.77 942,-188 910.316,-179.579 902.695,-176.38 871,-168 822.822,-155.262 767.172,-141.664 730.221,-132.792"/>
<polygon fill="midnightblue" stroke="midnightblue" points="730.857,-129.345 720.317,-130.419 729.226,-136.152 730.857,-129.345"/>
</g>
<!-- Node14 -->
<g id="node15" class="node"><title>Node14</title>
<polygon fill="white" stroke="#bfbfbf" points="1220,-168.5 1220,-187.5 1258,-187.5 1258,-168.5 1220,-168.5"/>
<text text-anchor="middle" x="1239" y="-175.5" font-family="Helvetica,sans-Serif" font-size="10.00">tuple</text>
</g>
<!-- Node3&#45;&gt;Node14 -->
<g id="edge14" class="edge"><title>Node3&#45;&gt;Node14</title>
<path fill="none" stroke="midnightblue" d="M1159.32,-230.403C1174.38,-220.691 1199.12,-204.732 1217.04,-193.17"/>
<polygon fill="midnightblue" stroke="midnightblue" points="1219.19,-195.943 1225.7,-187.581 1215.4,-190.061 1219.19,-195.943"/>
</g>
<!-- Node15 -->
<g id="node16" class="node"><title>Node15</title>
<polygon fill="white" stroke="#bfbfbf" points="738,-112.5 738,-131.5 784,-131.5 784,-112.5 738,-112.5"/>
<text text-anchor="middle" x="761" y="-119.5" font-family="Helvetica,sans-Serif" font-size="10.00">cstdint</text>
</g>
<!-- Node3&#45;&gt;Node15 -->
<g id="edge15" class="edge"><title>Node3&#45;&gt;Node15</title>
<path fill="none" stroke="midnightblue" d="M1125.37,-231.065C1088.78,-217.165 1010,-187.995 942,-168 879.576,-149.644 860.603,-149.225 793.798,-132.119"/>
<polygon fill="midnightblue" stroke="midnightblue" points="794.603,-128.712 784.044,-129.591 792.846,-135.489 794.603,-128.712"/>
</g>
<!-- Node16 -->
<g id="node17" class="node"><title>Node16</title>
<polygon fill="white" stroke="#bfbfbf" points="802.5,-112.5 802.5,-131.5 861.5,-131.5 861.5,-112.5 802.5,-112.5"/>
<text text-anchor="middle" x="832" y="-119.5" font-family="Helvetica,sans-Serif" font-size="10.00">stdexcept</text>
</g>
<!-- Node3&#45;&gt;Node16 -->
<g id="edge16" class="edge"><title>Node3&#45;&gt;Node16</title>
<path fill="none" stroke="midnightblue" d="M1142.33,-230.323C1135.37,-214.989 1118.68,-183.282 1094,-168 1075.38,-156.474 940.412,-137.31 871.809,-128.165"/>
<polygon fill="midnightblue" stroke="midnightblue" points="872.166,-124.681 861.793,-126.838 871.247,-131.621 872.166,-124.681"/>
</g>
<!-- Node17 -->
<g id="node18" class="node"><title>Node17</title>
<polygon fill="white" stroke="#bfbfbf" points="1276.5,-168.5 1276.5,-187.5 1305.5,-187.5 1305.5,-168.5 1276.5,-168.5"/>
<text text-anchor="middle" x="1291" y="-175.5" font-family="Helvetica,sans-Serif" font-size="10.00">list</text>
</g>
<!-- Node3&#45;&gt;Node17 -->
<g id="edge17" class="edge"><title>Node3&#45;&gt;Node17</title>
<path fill="none" stroke="midnightblue" d="M1166.77,-230.403C1193.28,-219.437 1239.02,-200.508 1266.99,-188.935"/>
<polygon fill="midnightblue" stroke="midnightblue" points="1268.52,-192.091 1276.42,-185.033 1265.84,-185.622 1268.52,-192.091"/>
</g>
<!-- Node3&#45;&gt;Node18 -->
<g id="edge18" class="edge"><title>Node3&#45;&gt;Node18</title>
<path fill="none" stroke="midnightblue" d="M1125.25,-234.97C1073.33,-224.89 937.38,-198.491 872.477,-185.889"/>
<polygon fill="midnightblue" stroke="midnightblue" points="872.809,-182.388 862.325,-183.917 871.474,-189.259 872.809,-182.388"/>
</g>
<!-- Node6 -->
<g id="node7" class="node"><title>Node6</title>
<g id="a_node7"><a xlink:href="string_8h.html" target="_top" xlink:title="base/std_ext/string.h">
<polygon fill="white" stroke="black" points="918,-112.5 918,-131.5 1026,-131.5 1026,-112.5 918,-112.5"/>
<text text-anchor="middle" x="972" y="-119.5" font-family="Helvetica,sans-Serif" font-size="10.00">base/std_ext/string.h</text>
</a>
</g>
</g>
<!-- Node5&#45;&gt;Node6 -->
<g id="edge6" class="edge"><title>Node5&#45;&gt;Node6</title>
<path fill="none" stroke="midnightblue" d="M1323.42,-169.332C1320.24,-168.876 1317.07,-168.429 1314,-168 1217.39,-154.518 1105.26,-139.974 1036.48,-131.178"/>
<polygon fill="midnightblue" stroke="midnightblue" points="1036.6,-127.665 1026.23,-129.87 1035.71,-134.609 1036.6,-127.665"/>
</g>
<!-- Node11 -->
<g id="node12" class="node"><title>Node11</title>
<polygon fill="white" stroke="#bfbfbf" points="1352,-112.5 1352,-131.5 1398,-131.5 1398,-112.5 1352,-112.5"/>
<text text-anchor="middle" x="1375" y="-119.5" font-family="Helvetica,sans-Serif" font-size="10.00">cstring</text>
</g>
<!-- Node5&#45;&gt;Node11 -->
<g id="edge11" class="edge"><title>Node5&#45;&gt;Node11</title>
<path fill="none" stroke="midnightblue" d="M1375,-168.083C1375,-161.006 1375,-150.861 1375,-141.986"/>
<polygon fill="midnightblue" stroke="midnightblue" points="1378.5,-141.751 1375,-131.751 1371.5,-141.751 1378.5,-141.751"/>
</g>
<!-- Node5&#45;&gt;Node12 -->
<g id="edge12" class="edge"><title>Node5&#45;&gt;Node12</title>
<path fill="none" stroke="midnightblue" d="M1385.6,-168.324C1395.46,-160.263 1410.35,-148.077 1422.22,-138.369"/>
<polygon fill="midnightblue" stroke="midnightblue" points="1424.68,-140.875 1430.2,-131.834 1420.25,-135.457 1424.68,-140.875"/>
</g>
<!-- Node7 -->
<g id="node8" class="node"><title>Node7</title>
<polygon fill="white" stroke="#bfbfbf" points="943.5,-56.5 943.5,-75.5 984.5,-75.5 984.5,-56.5 943.5,-56.5"/>
<text text-anchor="middle" x="964" y="-63.5" font-family="Helvetica,sans-Serif" font-size="10.00">string</text>
</g>
<!-- Node6&#45;&gt;Node7 -->
<g id="edge7" class="edge"><title>Node6&#45;&gt;Node7</title>
<path fill="none" stroke="midnightblue" d="M970.679,-112.083C969.619,-104.927 968.094,-94.6353 966.769,-85.6911"/>
<polygon fill="midnightblue" stroke="midnightblue" points="970.224,-85.1302 965.296,-75.7511 963.3,-86.1561 970.224,-85.1302"/>
</g>
<!-- Node6&#45;&gt;Node8 -->
<g id="edge8" class="edge"><title>Node6&#45;&gt;Node8</title>
<path fill="none" stroke="midnightblue" d="M991.014,-112.444C1010.59,-103.636 1041.31,-89.8116 1063.73,-79.722"/>
<polygon fill="midnightblue" stroke="midnightblue" points="1065.39,-82.8119 1073.07,-75.5164 1062.52,-76.4284 1065.39,-82.8119"/>
</g>
<!-- Node9 -->
<g id="node10" class="node"><title>Node9</title>
<polygon fill="white" stroke="#bfbfbf" points="862,-56.5 862,-75.5 918,-75.5 918,-56.5 862,-56.5"/>
<text text-anchor="middle" x="890" y="-63.5" font-family="Helvetica,sans-Serif" font-size="10.00">algorithm</text>
</g>
<!-- Node6&#45;&gt;Node9 -->
<g id="edge9" class="edge"><title>Node6&#45;&gt;Node9</title>
<path fill="none" stroke="midnightblue" d="M958.825,-112.324C946.153,-103.979 926.767,-91.2122 911.794,-81.3524"/>
<polygon fill="midnightblue" stroke="midnightblue" points="913.419,-78.2313 903.142,-75.6545 909.569,-84.0776 913.419,-78.2313"/>
</g>
<!-- Node6&#45;&gt;Node10 -->
<g id="edge10" class="edge"><title>Node6&#45;&gt;Node10</title>
<path fill="none" stroke="midnightblue" d="M917.761,-115.974C902.333,-114.609 885.51,-113.184 870,-112 621.763,-93.0577 556.718,-116.043 311,-76 310.397,-75.9018 309.79,-75.7975 309.179,-75.6878"/>
<polygon fill="midnightblue" stroke="midnightblue" points="309.692,-72.218 299.179,-73.5331 308.217,-79.061 309.692,-72.218"/>
</g>
<!-- Node20 -->
<g id="node21" class="node"><title>Node20</title>
<g id="a_node21"><a xlink:href="vec3_8h.html" target="_top" xlink:title="base/vec/vec3.h">
<polygon fill="white" stroke="black" points="419.5,-112.5 419.5,-131.5 508.5,-131.5 508.5,-112.5 419.5,-112.5"/>
<text text-anchor="middle" x="464" y="-119.5" font-family="Helvetica,sans-Serif" font-size="10.00">base/vec/vec3.h</text>
</a>
</g>
</g>
<!-- Node19&#45;&gt;Node20 -->
<g id="edge21" class="edge"><title>Node19&#45;&gt;Node20</title>
<path fill="none" stroke="midnightblue" d="M587.966,-230.406C565.115,-222.172 532.449,-208.027 509,-188 493.547,-174.802 480.916,-155.128 473.012,-140.883"/>
<polygon fill="midnightblue" stroke="midnightblue" points="475.891,-138.841 468.119,-131.641 469.705,-142.116 475.891,-138.841"/>
</g>
<!-- Node21 -->
<g id="node22" class="node"><title>Node21</title>
<g id="a_node22"><a xlink:href="vec2_8h.html" target="_top" xlink:title="vec2.h">
<polygon fill="white" stroke="black" points="390,-56.5 390,-75.5 436,-75.5 436,-56.5 390,-56.5"/>
<text text-anchor="middle" x="413" y="-63.5" font-family="Helvetica,sans-Serif" font-size="10.00">vec2.h</text>
</a>
</g>
</g>
<!-- Node20&#45;&gt;Node21 -->
<g id="edge22" class="edge"><title>Node20&#45;&gt;Node21</title>
<path fill="none" stroke="midnightblue" d="M455.578,-112.083C448.152,-104.22 437.148,-92.5688 428.188,-83.0813"/>
<polygon fill="midnightblue" stroke="midnightblue" points="430.676,-80.618 421.265,-75.7511 425.587,-85.4244 430.676,-80.618"/>
</g>
<!-- Node22 -->
<g id="node23" class="node"><title>Node22</title>
<polygon fill="white" stroke="#bfbfbf" points="292,-0.5 292,-19.5 336,-19.5 336,-0.5 292,-0.5"/>
<text text-anchor="middle" x="314" y="-7.5" font-family="Helvetica,sans-Serif" font-size="10.00">cmath</text>
</g>
<!-- Node20&#45;&gt;Node22 -->
<g id="edge25" class="edge"><title>Node20&#45;&gt;Node22</title>
<path fill="none" stroke="midnightblue" d="M463.881,-112.181C463.217,-98.3812 459.937,-71.6482 445,-56 419.047,-28.811 375.95,-18.0478 346.32,-13.7881"/>
<polygon fill="midnightblue" stroke="midnightblue" points="346.429,-10.2742 336.069,-12.4946 345.552,-17.2191 346.429,-10.2742"/>
</g>
<!-- Node23 -->
<g id="node24" class="node"><title>Node23</title>
<polygon fill="white" stroke="#bfbfbf" points="320,-56.5 320,-75.5 372,-75.5 372,-56.5 320,-56.5"/>
<text text-anchor="middle" x="346" y="-63.5" font-family="Helvetica,sans-Serif" font-size="10.00">ostream</text>
</g>
<!-- Node20&#45;&gt;Node23 -->
<g id="edge24" class="edge"><title>Node20&#45;&gt;Node23</title>
<path fill="none" stroke="midnightblue" d="M445.303,-112.444C426.056,-103.636 395.848,-89.8116 373.8,-79.722"/>
<polygon fill="midnightblue" stroke="midnightblue" points="375.16,-76.4951 364.61,-75.5164 372.247,-82.8603 375.16,-76.4951"/>
</g>
<!-- Node21&#45;&gt;Node22 -->
<g id="edge23" class="edge"><title>Node21&#45;&gt;Node22</title>
<path fill="none" stroke="midnightblue" d="M397.094,-56.324C381.362,-47.7428 357.058,-34.486 338.791,-24.5224"/>
<polygon fill="midnightblue" stroke="midnightblue" points="340.322,-21.3704 329.867,-19.6545 336.97,-27.5157 340.322,-21.3704"/>
</g>
<!-- Node24&#45;&gt;Node8 -->
<g id="edge63" class="edge"><title>Node24&#45;&gt;Node8</title>
<path fill="none" stroke="midnightblue" d="M694.534,-348.496C729.602,-341.202 778.418,-329.138 819,-312 917.444,-270.427 940.817,-253.825 1025,-188 1052.73,-166.319 1064.85,-163.277 1081,-132 1088.46,-117.539 1091.03,-99.0902 1091.84,-85.5442"/>
<polygon fill="midnightblue" stroke="midnightblue" points="1095.34,-85.6243 1092.17,-75.5139 1088.34,-85.3925 1095.34,-85.6243"/>
</g>
<!-- Node24&#45;&gt;Node9 -->
<g id="edge65" class="edge"><title>Node24&#45;&gt;Node9</title>
<path fill="none" stroke="midnightblue" d="M695.317,-348.453C724.482,-341.698 761.762,-330.286 791,-312 820.054,-293.829 825.568,-284.889 844,-256 879.076,-201.026 887.409,-121.45 889.386,-85.6657"/>
<polygon fill="midnightblue" stroke="midnightblue" points="892.883,-85.8185 889.831,-75.6728 885.89,-85.5074 892.883,-85.8185"/>
</g>
<!-- Node24&#45;&gt;Node10 -->
<g id="edge61" class="edge"><title>Node24&#45;&gt;Node10</title>
<path fill="none" stroke="midnightblue" d="M600.351,-353.514C450.703,-341.936 0,-302.001 0,-241 0,-241 0,-241 0,-177 0,-124.846 171.759,-86.6213 244.776,-72.7277"/>
<polygon fill="midnightblue" stroke="midnightblue" points="245.613,-76.132 254.8,-70.8556 244.328,-69.251 245.613,-76.132"/>
</g>
<!-- Node24&#45;&gt;Node18 -->
<g id="edge62" class="edge"><title>Node24&#45;&gt;Node18</title>
<path fill="none" stroke="midnightblue" d="M678.436,-348.479C718.659,-335.534 788.555,-306.873 824,-256 835.964,-238.828 838.226,-214.366 838.137,-197.651"/>
<polygon fill="midnightblue" stroke="midnightblue" points="841.63,-197.375 837.79,-187.501 834.634,-197.615 841.63,-197.375"/>
</g>
<!-- Node25 -->
<g id="node26" class="node"><title>Node25</title>
<g id="a_node26"><a xlink:href="_t_cluster_8h.html" target="_top" xlink:title="TCluster.h">
<polygon fill="white" stroke="black" points="345,-292.5 345,-311.5 407,-311.5 407,-292.5 345,-292.5"/>
<text text-anchor="middle" x="376" y="-299.5" font-family="Helvetica,sans-Serif" font-size="10.00">TCluster.h</text>
</a>
</g>
</g>
<!-- Node24&#45;&gt;Node25 -->
<g id="edge30" class="edge"><title>Node24&#45;&gt;Node25</title>
<path fill="none" stroke="midnightblue" d="M604.901,-348.444C553.328,-338.205 467.614,-321.188 416.993,-311.138"/>
<polygon fill="midnightblue" stroke="midnightblue" points="417.543,-307.679 407.053,-309.165 416.18,-314.545 417.543,-307.679"/>
</g>
<!-- Node27 -->
<g id="node28" class="node"><title>Node27</title>
<g id="a_node28"><a xlink:href="_detector__t_8h.html" target="_top" xlink:title="base/Detector_t.h">
<polygon fill="white" stroke="black" points="518.5,-168.5 518.5,-187.5 613.5,-187.5 613.5,-168.5 518.5,-168.5"/>
<text text-anchor="middle" x="566" y="-175.5" font-family="Helvetica,sans-Serif" font-size="10.00">base/Detector_t.h</text>
</a>
</g>
</g>
<!-- Node24&#45;&gt;Node27 -->
<g id="edge60" class="edge"><title>Node24&#45;&gt;Node27</title>
<path fill="none" stroke="midnightblue" d="M633.811,-348.28C610.458,-332.987 564.746,-298.842 547,-256 538.884,-236.406 547.413,-212.515 555.495,-196.591"/>
<polygon fill="midnightblue" stroke="midnightblue" points="558.569,-198.265 560.317,-187.816 552.434,-194.894 558.569,-198.265"/>
</g>
<!-- Node33 -->
<g id="node34" class="node"><title>Node33</title>
<polygon fill="white" stroke="#bfbfbf" points="142,-168.5 142,-187.5 194,-187.5 194,-168.5 142,-168.5"/>
<text text-anchor="middle" x="168" y="-175.5" font-family="Helvetica,sans-Serif" font-size="10.00">memory</text>
</g>
<!-- Node24&#45;&gt;Node33 -->
<g id="edge64" class="edge"><title>Node24&#45;&gt;Node33</title>
<path fill="none" stroke="midnightblue" d="M600.261,-354.503C490.06,-347.609 223.421,-324.088 172,-256 159.427,-239.351 160.68,-214.433 163.585,-197.486"/>
<polygon fill="midnightblue" stroke="midnightblue" points="167.018,-198.168 165.604,-187.668 160.162,-196.758 167.018,-198.168"/>
</g>
<!-- Node25&#45;&gt;Node8 -->
<g id="edge58" class="edge"><title>Node25&#45;&gt;Node8</title>
<path fill="none" stroke="midnightblue" d="M407.104,-301.556C480.95,-302.09 672.02,-298.838 824,-256 938.042,-223.856 979.425,-218.871 1060,-132 1072.54,-118.478 1081.21,-99.1227 1086.34,-85.0518"/>
<polygon fill="midnightblue" stroke="midnightblue" points="1089.68,-86.1002 1089.56,-75.506 1083.04,-83.857 1089.68,-86.1002"/>
</g>
<!-- Node25&#45;&gt;Node10 -->
<g id="edge55" class="edge"><title>Node25&#45;&gt;Node10</title>
<path fill="none" stroke="midnightblue" d="M372.29,-292.246C363.224,-270.91 339.141,-214.562 318,-168 310.685,-151.889 307.849,-148.315 301,-132 294.452,-116.402 287.856,-98.327 283.241,-85.2028"/>
<polygon fill="midnightblue" stroke="midnightblue" points="286.46,-83.8048 279.874,-75.506 279.847,-86.1008 286.46,-83.8048"/>
</g>
<!-- Node25&#45;&gt;Node18 -->
<g id="edge57" class="edge"><title>Node25&#45;&gt;Node18</title>
<path fill="none" stroke="midnightblue" d="M391.482,-292.304C420.848,-276.206 487.072,-241.787 547,-224 636.479,-197.443 746.399,-185.85 801.685,-181.405"/>
<polygon fill="midnightblue" stroke="midnightblue" points="801.973,-184.893 811.674,-180.632 801.433,-177.914 801.973,-184.893"/>
</g>
<!-- Node25&#45;&gt;Node20 -->
<g id="edge54" class="edge"><title>Node25&#45;&gt;Node20</title>
<path fill="none" stroke="midnightblue" d="M378.074,-292.11C381.704,-277.407 389.985,-247.332 402,-224 411.036,-206.454 417.422,-204.663 428,-188 437.917,-172.379 448.023,-153.857 454.992,-140.589"/>
<polygon fill="midnightblue" stroke="midnightblue" points="458.156,-142.09 459.656,-131.602 451.943,-138.866 458.156,-142.09"/>
</g>
<!-- Node25&#45;&gt;Node22 -->
<g id="edge56" class="edge"><title>Node25&#45;&gt;Node22</title>
<path fill="none" stroke="midnightblue" d="M344.746,-301.954C296.426,-302.011 202.255,-296.358 136,-256 98.9475,-233.43 76,-222.385 76,-179 76,-179 76,-179 76,-121 76,-31.5285 216.306,-14.6026 281.463,-11.5662"/>
<polygon fill="midnightblue" stroke="midnightblue" points="281.751,-15.0579 291.61,-11.1781 281.483,-8.06301 281.751,-15.0579"/>
</g>
<!-- Node26 -->
<g id="node27" class="node"><title>Node26</title>
<g id="a_node27"><a xlink:href="_t_detector_read_hit_8h.html" target="_top" xlink:title="tree/TDetectorReadHit.h">
<polygon fill="white" stroke="black" points="692,-230.5 692,-249.5 816,-249.5 816,-230.5 692,-230.5"/>
<text text-anchor="middle" x="754" y="-237.5" font-family="Helvetica,sans-Serif" font-size="10.00">tree/TDetectorReadHit.h</text>
</a>
</g>
</g>
<!-- Node25&#45;&gt;Node26 -->
<g id="edge31" class="edge"><title>Node25&#45;&gt;Node26</title>
<path fill="none" stroke="midnightblue" d="M407.375,-297.012C462.908,-289.813 582.076,-273.74 682,-256 689.518,-254.665 697.452,-253.136 705.197,-251.575"/>
<polygon fill="midnightblue" stroke="midnightblue" points="706.128,-254.957 715.22,-249.52 704.721,-248.1 706.128,-254.957"/>
</g>
<!-- Node25&#45;&gt;Node27 -->
<g id="edge47" class="edge"><title>Node25&#45;&gt;Node27</title>
<path fill="none" stroke="midnightblue" d="M380.785,-292.289C389.895,-276.473 411.234,-242.926 438,-224 460.651,-207.983 489.552,-197.179 514.158,-190.182"/>
<polygon fill="midnightblue" stroke="midnightblue" points="515.318,-193.494 524.056,-187.503 513.489,-186.737 515.318,-193.494"/>
</g>
<!-- Node30 -->
<g id="node31" class="node"><title>Node30</title>
<g id="a_node31"><a xlink:href="base_2std__ext_2math_8h.html" target="_top" xlink:title="base/std_ext/math.h">
<polygon fill="white" stroke="black" points="104,-112.5 104,-131.5 210,-131.5 210,-112.5 104,-112.5"/>
<text text-anchor="middle" x="157" y="-119.5" font-family="Helvetica,sans-Serif" font-size="10.00">base/std_ext/math.h</text>
</a>
</g>
</g>
<!-- Node25&#45;&gt;Node30 -->
<g id="edge48" class="edge"><title>Node25&#45;&gt;Node30</title>
<path fill="none" stroke="midnightblue" d="M344.853,-301.652C301.89,-301.008 223.881,-294.113 172,-256 137.523,-230.673 122.624,-209.503 133,-168 135.439,-158.245 140.437,-148.29 145.243,-140.231"/>
<polygon fill="midnightblue" stroke="midnightblue" points="148.213,-142.083 150.633,-131.768 142.309,-138.322 148.213,-142.083"/>
</g>
<!-- Node32 -->
<g id="node33" class="node"><title>Node32</title>
<g id="a_node33"><a xlink:href="shared__ptr__container_8h.html" target="_top" xlink:title="base/std_ext/shared\l_ptr_container.h">
<polygon fill="white" stroke="black" points="204.5,-225 204.5,-255 309.5,-255 309.5,-225 204.5,-225"/>
<text text-anchor="start" x="212.5" y="-243" font-family="Helvetica,sans-Serif" font-size="10.00">base/std_ext/shared</text>
<text text-anchor="middle" x="257" y="-232" font-family="Helvetica,sans-Serif" font-size="10.00">_ptr_container.h</text>
</a>
</g>
</g>
<!-- Node25&#45;&gt;Node32 -->
<g id="edge49" class="edge"><title>Node25&#45;&gt;Node32</title>
<path fill="none" stroke="midnightblue" d="M358.95,-292.403C342.08,-283.898 315.71,-270.602 294.016,-259.663"/>
<polygon fill="midnightblue" stroke="midnightblue" points="295.551,-256.518 285.046,-255.141 292.399,-262.768 295.551,-256.518"/>
</g>
<!-- Node25&#45;&gt;Node33 -->
<g id="edge59" class="edge"><title>Node25&#45;&gt;Node33</title>
<path fill="none" stroke="midnightblue" d="M344.665,-301.776C304.911,-301.048 236.54,-293.824 195,-256 178.503,-240.978 172.085,-215.295 169.589,-197.755"/>
<polygon fill="midnightblue" stroke="midnightblue" points="173.042,-197.145 168.448,-187.598 166.086,-197.926 173.042,-197.145"/>
</g>
<!-- Node26&#45;&gt;Node8 -->
<g id="edge46" class="edge"><title>Node26&#45;&gt;Node8</title>
<path fill="none" stroke="midnightblue" d="M793.192,-230.487C850.265,-216.739 957.841,-185.625 1035,-132 1053.6,-119.071 1070.08,-98.7923 1080.48,-84.3248"/>
<polygon fill="midnightblue" stroke="midnightblue" points="1083.57,-86.0054 1086.39,-75.7925 1077.82,-82.0182 1083.57,-86.0054"/>
</g>
<!-- Node26&#45;&gt;Node18 -->
<g id="edge45" class="edge"><title>Node26&#45;&gt;Node18</title>
<path fill="none" stroke="midnightblue" d="M765.892,-230.403C779.205,-220.78 801,-205.024 816.957,-193.489"/>
<polygon fill="midnightblue" stroke="midnightblue" points="819.076,-196.276 825.13,-187.581 814.975,-190.603 819.076,-196.276"/>
</g>
<!-- Node26&#45;&gt;Node27 -->
<g id="edge32" class="edge"><title>Node26&#45;&gt;Node27</title>
<path fill="none" stroke="midnightblue" d="M727.064,-230.403C694.397,-219.978 639.181,-202.356 602.657,-190.699"/>
<polygon fill="midnightblue" stroke="midnightblue" points="603.477,-187.287 592.886,-187.581 601.348,-193.955 603.477,-187.287"/>
</g>
<!-- Node27&#45;&gt;Node7 -->
<g id="edge42" class="edge"><title>Node27&#45;&gt;Node7</title>
<path fill="none" stroke="midnightblue" d="M573.74,-168.493C587.378,-154.12 617.265,-125.298 649,-112 763.5,-64.0206 803.879,-98.3356 926,-76 928.363,-75.5677 930.801,-75.0827 933.246,-74.5678"/>
<polygon fill="midnightblue" stroke="midnightblue" points="934.184,-77.9445 943.176,-72.3414 932.652,-71.1141 934.184,-77.9445"/>
</g>
<!-- Node27&#45;&gt;Node10 -->
<g id="edge44" class="edge"><title>Node27&#45;&gt;Node10</title>
<path fill="none" stroke="midnightblue" d="M529.791,-168.459C497.793,-160.464 450.113,-147.453 410,-132 370.913,-116.942 327.686,-94.7111 301.435,-80.544"/>
<polygon fill="midnightblue" stroke="midnightblue" points="303.027,-77.4255 292.57,-75.7176 299.679,-83.5734 303.027,-77.4255"/>
</g>
<!-- Node27&#45;&gt;Node13 -->
<g id="edge43" class="edge"><title>Node27&#45;&gt;Node13</title>
<path fill="none" stroke="midnightblue" d="M585.49,-168.444C605.642,-159.596 637.323,-145.687 660.331,-135.586"/>
<polygon fill="midnightblue" stroke="midnightblue" points="661.852,-138.741 669.601,-131.516 659.038,-132.332 661.852,-138.741"/>
</g>
<!-- Node27&#45;&gt;Node15 -->
<g id="edge40" class="edge"><title>Node27&#45;&gt;Node15</title>
<path fill="none" stroke="midnightblue" d="M596.898,-168.444C632.728,-158.522 691.543,-142.234 728.174,-132.09"/>
<polygon fill="midnightblue" stroke="midnightblue" points="729.176,-135.445 737.879,-129.403 727.308,-128.698 729.176,-135.445"/>
</g>
<!-- Node27&#45;&gt;Node16 -->
<g id="edge41" class="edge"><title>Node27&#45;&gt;Node16</title>
<path fill="none" stroke="midnightblue" d="M611.308,-168.448C655.037,-160.098 723.366,-146.799 792.074,-132.146"/>
<polygon fill="midnightblue" stroke="midnightblue" points="793.166,-135.492 802.211,-129.975 791.699,-128.647 793.166,-135.492"/>
</g>
<!-- Node27&#45;&gt;Node20 -->
<g id="edge35" class="edge"><title>Node27&#45;&gt;Node20</title>
<path fill="none" stroke="midnightblue" d="M549.612,-168.324C533.329,-159.703 508.133,-146.364 489.284,-136.386"/>
<polygon fill="midnightblue" stroke="midnightblue" points="490.823,-133.24 480.347,-131.655 487.548,-139.427 490.823,-133.24"/>
</g>
<!-- Node28 -->
<g id="node29" class="node"><title>Node28</title>
<g id="a_node29"><a xlink:href="bitflag_8h.html" target="_top" xlink:title="base/bitflag.h">
<polygon fill="white" stroke="black" points="526.5,-112.5 526.5,-131.5 601.5,-131.5 601.5,-112.5 526.5,-112.5"/>
<text text-anchor="middle" x="564" y="-119.5" font-family="Helvetica,sans-Serif" font-size="10.00">base/bitflag.h</text>
</a>
</g>
</g>
<!-- Node27&#45;&gt;Node28 -->
<g id="edge33" class="edge"><title>Node27&#45;&gt;Node28</title>
<path fill="none" stroke="midnightblue" d="M565.67,-168.083C565.408,-161.006 565.032,-150.861 564.703,-141.986"/>
<polygon fill="midnightblue" stroke="midnightblue" points="568.192,-141.615 564.324,-131.751 561.197,-141.874 568.192,-141.615"/>
</g>
<!-- Node27&#45;&gt;Node30 -->
<g id="edge36" class="edge"><title>Node27&#45;&gt;Node30</title>
<path fill="none" stroke="midnightblue" d="M518.282,-170.7C444.448,-160.952 302.471,-142.206 220.196,-131.344"/>
<polygon fill="midnightblue" stroke="midnightblue" points="220.594,-127.866 210.222,-130.027 219.678,-134.806 220.594,-127.866"/>
</g>
<!-- Node29 -->
<g id="node30" class="node"><title>Node29</title>
<polygon fill="white" stroke="#bfbfbf" points="543.5,-56.5 543.5,-75.5 584.5,-75.5 584.5,-56.5 543.5,-56.5"/>
<text text-anchor="middle" x="564" y="-63.5" font-family="Helvetica,sans-Serif" font-size="10.00">bitset</text>
</g>
<!-- Node28&#45;&gt;Node29 -->
<g id="edge34" class="edge"><title>Node28&#45;&gt;Node29</title>
<path fill="none" stroke="midnightblue" d="M564,-112.083C564,-105.006 564,-94.8611 564,-85.9865"/>
<polygon fill="midnightblue" stroke="midnightblue" points="567.5,-85.751 564,-75.7511 560.5,-85.7511 567.5,-85.751"/>
</g>
<!-- Node30&#45;&gt;Node10 -->
<g id="edge39" class="edge"><title>Node30&#45;&gt;Node10</title>
<path fill="none" stroke="midnightblue" d="M176.014,-112.444C195.588,-103.636 226.308,-89.8116 248.729,-79.722"/>
<polygon fill="midnightblue" stroke="midnightblue" points="250.392,-82.8119 258.075,-75.5164 247.519,-76.4284 250.392,-82.8119"/>
</g>
<!-- Node30&#45;&gt;Node22 -->
<g id="edge37" class="edge"><title>Node30&#45;&gt;Node22</title>
<path fill="none" stroke="midnightblue" d="M168.399,-112.415C185.212,-99.8109 217.726,-75.6647 246,-56 261.203,-45.4263 278.624,-33.9088 292.027,-25.173"/>
<polygon fill="midnightblue" stroke="midnightblue" points="294.106,-27.9963 300.587,-19.6152 290.294,-22.1251 294.106,-27.9963"/>
</g>
<!-- Node31 -->
<g id="node32" class="node"><title>Node31</title>
<polygon fill="white" stroke="#bfbfbf" points="137,-56.5 137,-75.5 177,-75.5 177,-56.5 137,-56.5"/>
<text text-anchor="middle" x="157" y="-63.5" font-family="Helvetica,sans-Serif" font-size="10.00">limits</text>
</g>
<!-- Node30&#45;&gt;Node31 -->
<g id="edge38" class="edge"><title>Node30&#45;&gt;Node31</title>
<path fill="none" stroke="midnightblue" d="M157,-112.083C157,-105.006 157,-94.8611 157,-85.9865"/>
<polygon fill="midnightblue" stroke="midnightblue" points="160.5,-85.751 157,-75.7511 153.5,-85.7511 160.5,-85.751"/>
</g>
<!-- Node32&#45;&gt;Node9 -->
<g id="edge53" class="edge"><title>Node32&#45;&gt;Node9</title>
<path fill="none" stroke="midnightblue" d="M273.989,-224.788C313.424,-191.814 407.982,-112.837 410,-112 489.724,-78.936 752.517,-69.9401 851.674,-67.692"/>
<polygon fill="midnightblue" stroke="midnightblue" points="851.923,-71.1876 861.845,-67.4723 851.772,-64.1892 851.923,-71.1876"/>
</g>
<!-- Node32&#45;&gt;Node10 -->
<g id="edge50" class="edge"><title>Node32&#45;&gt;Node10</title>
<path fill="none" stroke="midnightblue" d="M251.333,-224.986C247.568,-214.891 242.967,-200.842 241,-188 235.218,-150.257 253.979,-107.846 266.555,-84.6003"/>
<polygon fill="midnightblue" stroke="midnightblue" points="269.759,-86.0448 271.633,-75.617 263.665,-82.6004 269.759,-86.0448"/>
</g>
<!-- Node32&#45;&gt;Node33 -->
<g id="edge51" class="edge"><title>Node32&#45;&gt;Node33</title>
<path fill="none" stroke="midnightblue" d="M235.908,-224.781C221.825,-215.286 203.368,-202.843 189.251,-193.327"/>
<polygon fill="midnightblue" stroke="midnightblue" points="190.939,-190.244 180.691,-187.556 187.026,-196.048 190.939,-190.244"/>
</g>
<!-- Node34 -->
<g id="node35" class="node"><title>Node34</title>
<polygon fill="white" stroke="#bfbfbf" points="250.5,-168.5 250.5,-187.5 309.5,-187.5 309.5,-168.5 250.5,-168.5"/>
<text text-anchor="middle" x="280" y="-175.5" font-family="Helvetica,sans-Serif" font-size="10.00">functional</text>
</g>
<!-- Node32&#45;&gt;Node34 -->
<g id="edge52" class="edge"><title>Node32&#45;&gt;Node34</title>
<path fill="none" stroke="midnightblue" d="M262.451,-224.781C265.621,-216.512 269.648,-206.006 273.044,-197.145"/>
<polygon fill="midnightblue" stroke="midnightblue" points="276.342,-198.321 276.653,-187.731 269.806,-195.815 276.342,-198.321"/>
</g>
<!-- Node37 -->
<g id="node38" class="node"><title>Node37</title>
<polygon fill="white" stroke="#bfbfbf" points="852.5,-348.5 852.5,-367.5 941.5,-367.5 941.5,-348.5 852.5,-348.5"/>
<text text-anchor="middle" x="897" y="-355.5" font-family="Helvetica,sans-Serif" font-size="10.00">easylogging++.h</text>
</g>
<!-- Node36&#45;&gt;Node37 -->
<g id="edge68" class="edge"><title>Node36&#45;&gt;Node37</title>
<path fill="none" stroke="midnightblue" d="M897,-404.083C897,-397.006 897,-386.861 897,-377.986"/>
<polygon fill="midnightblue" stroke="midnightblue" points="900.5,-377.751 897,-367.751 893.5,-377.751 900.5,-377.751"/>
</g>
</g>
</svg>
