<?xml version="1.0" encoding="UTF-8" standalone="no"?>
<!DOCTYPE svg PUBLIC "-//W3C//DTD SVG 1.1//EN"
 "http://www.w3.org/Graphics/SVG/1.1/DTD/svg11.dtd">
<!-- Generated by graphviz version 2.36.0 (20140111.2315)
 -->
<!-- Title: src/root&#45;addons/analysis_codes/TreeTools.h Pages: 1 -->
<svg width="443pt" height="108pt"
 viewBox="0.00 0.00 443.00 108.00" xmlns="http://www.w3.org/2000/svg" xmlns:xlink="http://www.w3.org/1999/xlink">
<g id="graph0" class="graph" transform="scale(1 1) rotate(0) translate(4 104)">
<title>src/root&#45;addons/analysis_codes/TreeTools.h</title>
<polygon fill="white" stroke="none" points="-4,4 -4,-104 439,-104 439,4 -4,4"/>
<!-- Node14 -->
<g id="node1" class="node"><title>Node14</title>
<polygon fill="#bfbfbf" stroke="black" points="168.5,-69 168.5,-99 291.5,-99 291.5,-69 168.5,-69"/>
<text text-anchor="start" x="176.5" y="-87" font-family="Helvetica,sans-Serif" font-size="10.00">src/root&#45;addons/analysis</text>
<text text-anchor="middle" x="230" y="-76" font-family="Helvetica,sans-Serif" font-size="10.00">_codes/TreeTools.h</text>
</g>
<!-- Node15 -->
<g id="node2" class="node"><title>Node15</title>
<g id="a_node2"><a xlink:href="root-addons_2analysis__codes_2_extract_resolutions_8cc.html" target="_top" xlink:title="src/root&#45;addons/analysis\l_codes/ExtractResolutions.cc">
<polygon fill="white" stroke="black" points="0,-1 0,-31 148,-31 148,-1 0,-1"/>
<text text-anchor="start" x="8" y="-19" font-family="Helvetica,sans-Serif" font-size="10.00">src/root&#45;addons/analysis</text>
<text text-anchor="middle" x="74" y="-8" font-family="Helvetica,sans-Serif" font-size="10.00">_codes/ExtractResolutions.cc</text>
</a>
</g>
</g>
<!-- Node14&#45;&gt;Node15 -->
<g id="edge1" class="edge"><title>Node14&#45;&gt;Node15</title>
<path fill="none" stroke="midnightblue" d="M187.194,-64.8898C161.952,-54.2103 130.487,-40.8982 107.142,-31.0218"/>
<polygon fill="midnightblue" stroke="midnightblue" points="185.961,-68.1683 196.534,-68.8413 188.688,-61.7215 185.961,-68.1683"/>
</g>
<!-- Node16 -->
<g id="node3" class="node"><title>Node16</title>
<g id="a_node3"><a xlink:href="symmetric__pi0_8cc.html" target="_top" xlink:title="src/root&#45;addons/analysis\l_codes/symmetric_pi0.cc">
<polygon fill="white" stroke="black" points="166,-1 166,-31 294,-31 294,-1 166,-1"/>
<text text-anchor="start" x="174" y="-19" font-family="Helvetica,sans-Serif" font-size="10.00">src/root&#45;addons/analysis</text>
<text text-anchor="middle" x="230" y="-8" font-family="Helvetica,sans-Serif" font-size="10.00">_codes/symmetric_pi0.cc</text>
</a>
</g>
</g>
<!-- Node14&#45;&gt;Node16 -->
<g id="edge2" class="edge"><title>Node14&#45;&gt;Node16</title>
<path fill="none" stroke="midnightblue" d="M230,-58.5322C230,-49.3606 230,-39.2449 230,-31.2931"/>
<polygon fill="midnightblue" stroke="midnightblue" points="226.5,-58.6789 230,-68.679 233.5,-58.679 226.5,-58.6789"/>
</g>
<!-- Node17 -->
<g id="node4" class="node"><title>Node17</title>
<g id="a_node4"><a xlink:href="_tree_tools_8cc.html" target="_top" xlink:title="src/root&#45;addons/analysis\l_codes/TreeTools.cc">
<polygon fill="white" stroke="black" points="312.5,-1 312.5,-31 435.5,-31 435.5,-1 312.5,-1"/>
<text text-anchor="start" x="320.5" y="-19" font-family="Helvetica,sans-Serif" font-size="10.00">src/root&#45;addons/analysis</text>
<text text-anchor="middle" x="374" y="-8" font-family="Helvetica,sans-Serif" font-size="10.00">_codes/TreeTools.cc</text>
</a>
</g>
</g>
<!-- Node14&#45;&gt;Node17 -->
<g id="edge3" class="edge"><title>Node14&#45;&gt;Node17</title>
<path fill="none" stroke="midnightblue" d="M270.098,-64.6218C293.209,-54.0292 321.817,-40.9173 343.159,-31.1352"/>
<polygon fill="midnightblue" stroke="midnightblue" points="268.524,-61.493 260.892,-68.8413 271.441,-67.8565 268.524,-61.493"/>
</g>
</g>
</svg>
