<?xml version="1.0" encoding="UTF-8" standalone="no"?>
<!DOCTYPE svg PUBLIC "-//W3C//DTD SVG 1.1//EN"
 "http://www.w3.org/Graphics/SVG/1.1/DTD/svg11.dtd">
<!-- Generated by graphviz version 2.36.0 (20140111.2315)
 -->
<!-- Title: src/unpacker/Unpacker.cc Pages: 1 -->
<svg width="3586pt" height="512pt"
 viewBox="0.00 0.00 3585.93 512.00" xmlns="http://www.w3.org/2000/svg" xmlns:xlink="http://www.w3.org/1999/xlink">
<g id="graph0" class="graph" transform="scale(1 1) rotate(0) translate(4 508)">
<title>src/unpacker/Unpacker.cc</title>
<polygon fill="white" stroke="none" points="-4,4 -4,-508 3581.93,-508 3581.93,4 -4,4"/>
<!-- Node0 -->
<g id="node1" class="node"><title>Node0</title>
<polygon fill="#bfbfbf" stroke="black" points="2327.43,-484.5 2327.43,-503.5 2458.43,-503.5 2458.43,-484.5 2327.43,-484.5"/>
<text text-anchor="middle" x="2392.93" y="-491.5" font-family="Helvetica,sans-Serif" font-size="10.00">src/unpacker/Unpacker.cc</text>
</g>
<!-- Node1 -->
<g id="node2" class="node"><title>Node1</title>
<g id="a_node2"><a xlink:href="_unpacker_8h.html" target="_top" xlink:title="Unpacker.h">
<polygon fill="white" stroke="black" points="319.435,-372.5 319.435,-391.5 386.435,-391.5 386.435,-372.5 319.435,-372.5"/>
<text text-anchor="middle" x="352.935" y="-379.5" font-family="Helvetica,sans-Serif" font-size="10.00">Unpacker.h</text>
</a>
</g>
</g>
<!-- Node0&#45;&gt;Node1 -->
<g id="edge1" class="edge"><title>Node0&#45;&gt;Node1</title>
<path fill="none" stroke="midnightblue" d="M2327.32,-492.875C2076.42,-491.722 1154.01,-481.28 400.935,-392 399.632,-391.846 398.312,-391.677 396.981,-391.496"/>
<polygon fill="midnightblue" stroke="midnightblue" points="397.091,-387.972 386.676,-389.917 396.03,-394.892 397.091,-387.972"/>
</g>
<!-- Node4 -->
<g id="node5" class="node"><title>Node4</title>
<g id="a_node5"><a xlink:href="_unpacker_acqu_8h.html" target="_top" xlink:title="UnpackerAcqu.h">
<polygon fill="white" stroke="black" points="2260.43,-428.5 2260.43,-447.5 2349.43,-447.5 2349.43,-428.5 2260.43,-428.5"/>
<text text-anchor="middle" x="2304.93" y="-435.5" font-family="Helvetica,sans-Serif" font-size="10.00">UnpackerAcqu.h</text>
</a>
</g>
</g>
<!-- Node0&#45;&gt;Node4 -->
<g id="edge4" class="edge"><title>Node0&#45;&gt;Node4</title>
<path fill="none" stroke="midnightblue" d="M2378.8,-484.324C2365.07,-475.9 2344,-462.971 2327.87,-453.074"/>
<polygon fill="midnightblue" stroke="midnightblue" points="2329.39,-449.902 2319.04,-447.655 2325.73,-455.868 2329.39,-449.902"/>
</g>
<!-- Node25 -->
<g id="node26" class="node"><title>Node25</title>
<polygon fill="white" stroke="#bfbfbf" points="1879.93,-0.5 1879.93,-19.5 1935.93,-19.5 1935.93,-0.5 1879.93,-0.5"/>
<text text-anchor="middle" x="1907.93" y="-7.5" font-family="Helvetica,sans-Serif" font-size="10.00">algorithm</text>
</g>
<!-- Node0&#45;&gt;Node25 -->
<g id="edge141" class="edge"><title>Node0&#45;&gt;Node25</title>
<path fill="none" stroke="midnightblue" d="M2327.4,-493.323C2107.82,-493.948 1378.03,-492.316 776.935,-448 568.458,-432.63 467.889,-528.928 309.935,-392 270.996,-358.245 286.659,-331.092 279.935,-280 278.079,-265.899 270.236,-258.402 279.935,-248 318.977,-206.127 738.731,-227.175 793.935,-212 858.713,-194.193 870.274,-176.746 928.935,-144 994.096,-107.626 1000.7,-78.2469 1071.93,-56 1223.7,-8.60186 1726.62,-9.3511 1869.67,-10.5712"/>
<polygon fill="midnightblue" stroke="midnightblue" points="1869.69,-14.0714 1879.73,-10.6629 1869.76,-7.0717 1869.69,-14.0714"/>
</g>
<!-- Node56 -->
<g id="node57" class="node"><title>Node56</title>
<g id="a_node57"><a xlink:href="_unpacker_a2_geant_8h.html" target="_top" xlink:title="UnpackerA2Geant.h">
<polygon fill="white" stroke="black" points="2428.43,-428.5 2428.43,-447.5 2533.43,-447.5 2533.43,-428.5 2428.43,-428.5"/>
<text text-anchor="middle" x="2480.93" y="-435.5" font-family="Helvetica,sans-Serif" font-size="10.00">UnpackerA2Geant.h</text>
</a>
</g>
</g>
<!-- Node0&#45;&gt;Node56 -->
<g id="edge123" class="edge"><title>Node0&#45;&gt;Node56</title>
<path fill="none" stroke="midnightblue" d="M2407.07,-484.324C2420.8,-475.9 2441.87,-462.971 2458,-453.074"/>
<polygon fill="midnightblue" stroke="midnightblue" points="2460.14,-455.868 2466.83,-447.655 2456.48,-449.902 2460.14,-455.868"/>
</g>
<!-- Node59 -->
<g id="node60" class="node"><title>Node59</title>
<g id="a_node60"><a xlink:href="_logger_8h.html" target="_top" xlink:title="base/Logger.h">
<polygon fill="white" stroke="black" points="2551.93,-428.5 2551.93,-447.5 2629.93,-447.5 2629.93,-428.5 2551.93,-428.5"/>
<text text-anchor="middle" x="2590.93" y="-435.5" font-family="Helvetica,sans-Serif" font-size="10.00">base/Logger.h</text>
</a>
</g>
</g>
<!-- Node0&#45;&gt;Node59 -->
<g id="edge139" class="edge"><title>Node0&#45;&gt;Node59</title>
<path fill="none" stroke="midnightblue" d="M2424.31,-484.444C2458.2,-475.201 2512.34,-460.436 2549.66,-450.257"/>
<polygon fill="midnightblue" stroke="midnightblue" points="2550.98,-453.524 2559.71,-447.516 2549.14,-446.771 2550.98,-453.524"/>
</g>
<!-- Node61 -->
<g id="node62" class="node"><title>Node61</title>
<polygon fill="white" stroke="#bfbfbf" points="2647.93,-428.5 2647.93,-447.5 2701.93,-447.5 2701.93,-428.5 2647.93,-428.5"/>
<text text-anchor="middle" x="2674.93" y="-435.5" font-family="Helvetica,sans-Serif" font-size="10.00">iostream</text>
</g>
<!-- Node0&#45;&gt;Node61 -->
<g id="edge142" class="edge"><title>Node0&#45;&gt;Node61</title>
<path fill="none" stroke="midnightblue" d="M2444.96,-484.479C2492.64,-476.445 2565.41,-463.623 2637.66,-448.167"/>
<polygon fill="midnightblue" stroke="midnightblue" points="2638.81,-451.499 2647.85,-445.968 2637.34,-444.656 2638.81,-451.499"/>
</g>
<!-- Node2 -->
<g id="node3" class="node"><title>Node2</title>
<polygon fill="white" stroke="#bfbfbf" points="632.435,-0.5 632.435,-19.5 673.435,-19.5 673.435,-0.5 632.435,-0.5"/>
<text text-anchor="middle" x="652.935" y="-7.5" font-family="Helvetica,sans-Serif" font-size="10.00">string</text>
</g>
<!-- Node1&#45;&gt;Node2 -->
<g id="edge2" class="edge"><title>Node1&#45;&gt;Node2</title>
<path fill="none" stroke="midnightblue" d="M332.643,-372.382C287.584,-352.041 179.499,-296.323 132.935,-212 99.2428,-150.987 69.758,-107.303 116.935,-56 134.159,-37.2696 510.702,-17.8086 622.135,-12.4427"/>
<polygon fill="midnightblue" stroke="midnightblue" points="622.541,-15.9274 632.362,-11.9541 622.207,-8.93539 622.541,-15.9274"/>
</g>
<!-- Node3 -->
<g id="node4" class="node"><title>Node3</title>
<polygon fill="white" stroke="#bfbfbf" points="2179.93,-56.5 2179.93,-75.5 2231.93,-75.5 2231.93,-56.5 2179.93,-56.5"/>
<text text-anchor="middle" x="2205.93" y="-63.5" font-family="Helvetica,sans-Serif" font-size="10.00">memory</text>
</g>
<!-- Node1&#45;&gt;Node3 -->
<g id="edge3" class="edge"><title>Node1&#45;&gt;Node3</title>
<path fill="none" stroke="midnightblue" d="M386.586,-381.054C632.208,-381.342 2141.73,-381.265 2225.93,-336 2315.78,-287.702 2324.81,-201.532 2275.93,-112 2268.12,-97.6789 2253.57,-87.2355 2239.76,-80.0358"/>
<polygon fill="midnightblue" stroke="midnightblue" points="2240.94,-76.7188 2230.4,-75.5617 2237.92,-83.0338 2240.94,-76.7188"/>
</g>
<!-- Node4&#45;&gt;Node1 -->
<g id="edge5" class="edge"><title>Node4&#45;&gt;Node1</title>
<path fill="none" stroke="midnightblue" d="M2260.32,-436.379C1991.34,-432.575 591.048,-411.937 400.935,-392 399.63,-391.863 398.308,-391.71 396.976,-391.543"/>
<polygon fill="midnightblue" stroke="midnightblue" points="397.065,-388.019 386.663,-390.033 396.05,-394.945 397.065,-388.019"/>
</g>
<!-- Node4&#45;&gt;Node3 -->
<g id="edge117" class="edge"><title>Node4&#45;&gt;Node3</title>
<path fill="none" stroke="midnightblue" d="M2313.95,-428.238C2322.1,-419.758 2333.74,-406.141 2339.93,-392 2390,-277.788 2440.98,-205.022 2357.93,-112 2357.43,-111.438 2286.39,-90.5576 2241.62,-77.4405"/>
<polygon fill="midnightblue" stroke="midnightblue" points="2242.53,-74.0615 2231.95,-74.6097 2240.56,-80.7794 2242.53,-74.0615"/>
</g>
<!-- Node5 -->
<g id="node6" class="node"><title>Node5</title>
<g id="a_node6"><a xlink:href="_exp_config_8h.html" target="_top" xlink:title="expconfig/ExpConfig.h">
<polygon fill="white" stroke="black" points="2215.93,-372.5 2215.93,-391.5 2331.93,-391.5 2331.93,-372.5 2215.93,-372.5"/>
<text text-anchor="middle" x="2273.93" y="-379.5" font-family="Helvetica,sans-Serif" font-size="10.00">expconfig/ExpConfig.h</text>
</a>
</g>
</g>
<!-- Node4&#45;&gt;Node5 -->
<g id="edge6" class="edge"><title>Node4&#45;&gt;Node5</title>
<path fill="none" stroke="midnightblue" d="M2299.82,-428.083C2295.53,-420.613 2289.28,-409.724 2283.99,-400.52"/>
<polygon fill="midnightblue" stroke="midnightblue" points="2286.97,-398.681 2278.96,-391.751 2280.9,-402.166 2286.97,-398.681"/>
</g>
<!-- Node6 -->
<g id="node7" class="node"><title>Node6</title>
<g id="a_node7"><a xlink:href="_detector__t_8h.html" target="_top" xlink:title="base/Detector_t.h">
<polygon fill="white" stroke="black" points="2918.43,-186.5 2918.43,-205.5 3013.43,-205.5 3013.43,-186.5 2918.43,-186.5"/>
<text text-anchor="middle" x="2965.93" y="-193.5" font-family="Helvetica,sans-Serif" font-size="10.00">base/Detector_t.h</text>
</a>
</g>
</g>
<!-- Node4&#45;&gt;Node6 -->
<g id="edge116" class="edge"><title>Node4&#45;&gt;Node6</title>
<path fill="none" stroke="midnightblue" d="M2347.22,-428.443C2384.63,-420.438 2440.48,-407.421 2487.93,-392 2663.37,-334.984 2865.68,-243.602 2938.26,-209.968"/>
<polygon fill="midnightblue" stroke="midnightblue" points="2940.03,-213.005 2947.62,-205.615 2937.08,-206.657 2940.03,-213.005"/>
</g>
<!-- Node14 -->
<g id="node15" class="node"><title>Node14</title>
<polygon fill="white" stroke="#bfbfbf" points="1935.93,-56.5 1935.93,-75.5 1975.93,-75.5 1975.93,-56.5 1935.93,-56.5"/>
<text text-anchor="middle" x="1955.93" y="-63.5" font-family="Helvetica,sans-Serif" font-size="10.00">limits</text>
</g>
<!-- Node4&#45;&gt;Node14 -->
<g id="edge122" class="edge"><title>Node4&#45;&gt;Node14</title>
<path fill="none" stroke="midnightblue" d="M2260.28,-430.883C2173.59,-417.751 1990.93,-383.39 1990.93,-327 1990.93,-327 1990.93,-327 1990.93,-263 1990.93,-196.852 1971.38,-120.074 1961.5,-85.5226"/>
<polygon fill="midnightblue" stroke="midnightblue" points="1964.74,-84.113 1958.57,-75.5001 1958.02,-86.0808 1964.74,-84.113"/>
</g>
<!-- Node15 -->
<g id="node16" class="node"><title>Node15</title>
<polygon fill="white" stroke="#bfbfbf" points="2792.93,-0.5 2792.93,-19.5 2836.93,-19.5 2836.93,-0.5 2792.93,-0.5"/>
<text text-anchor="middle" x="2814.93" y="-7.5" font-family="Helvetica,sans-Serif" font-size="10.00">vector</text>
</g>
<!-- Node4&#45;&gt;Node15 -->
<g id="edge120" class="edge"><title>Node4&#45;&gt;Node15</title>
<path fill="none" stroke="midnightblue" d="M2331.13,-428.407C2369.36,-414.025 2435.93,-381.198 2435.93,-327 2435.93,-327 2435.93,-327 2435.93,-195 2435.93,-41.2693 2691.4,-15.9409 2782.85,-11.799"/>
<polygon fill="midnightblue" stroke="midnightblue" points="2783.07,-15.2934 2792.92,-11.4 2782.79,-8.29893 2783.07,-15.2934"/>
</g>
<!-- Node16 -->
<g id="node17" class="node"><title>Node16</title>
<polygon fill="white" stroke="#bfbfbf" points="2501.93,-118.5 2501.93,-137.5 2547.93,-137.5 2547.93,-118.5 2501.93,-118.5"/>
<text text-anchor="middle" x="2524.93" y="-125.5" font-family="Helvetica,sans-Serif" font-size="10.00">cstdint</text>
</g>
<!-- Node4&#45;&gt;Node16 -->
<g id="edge121" class="edge"><title>Node4&#45;&gt;Node16</title>
<path fill="none" stroke="midnightblue" d="M2349.77,-433.45C2381.43,-428.709 2422.88,-417.668 2449.93,-392 2472.28,-370.807 2473.93,-357.795 2473.93,-327 2473.93,-327 2473.93,-327 2473.93,-263 2473.93,-218.611 2498.68,-171.041 2513.7,-146.262"/>
<polygon fill="midnightblue" stroke="midnightblue" points="2516.74,-147.993 2519.08,-137.66 2510.81,-144.279 2516.74,-147.993"/>
</g>
<!-- Node22 -->
<g id="node23" class="node"><title>Node22</title>
<polygon fill="white" stroke="#bfbfbf" points="265.435,-56.5 265.435,-75.5 294.435,-75.5 294.435,-56.5 265.435,-56.5"/>
<text text-anchor="middle" x="279.935" y="-63.5" font-family="Helvetica,sans-Serif" font-size="10.00">list</text>
</g>
<!-- Node4&#45;&gt;Node22 -->
<g id="edge118" class="edge"><title>Node4&#45;&gt;Node22</title>
<path fill="none" stroke="midnightblue" d="M2260.02,-436.667C1973.17,-434.457 406.328,-421.083 309.935,-392 208.768,-361.477 108.935,-370.671 108.935,-265 108.935,-265 108.935,-265 108.935,-195 108.935,-122.601 208.39,-86.1835 255.605,-72.9743"/>
<polygon fill="midnightblue" stroke="midnightblue" points="256.597,-76.332 265.355,-70.37 254.791,-69.5691 256.597,-76.332"/>
</g>
<!-- Node26 -->
<g id="node27" class="node"><title>Node26</title>
<polygon fill="white" stroke="#bfbfbf" points="1234.43,-186.5 1234.43,-205.5 1269.43,-205.5 1269.43,-186.5 1234.43,-186.5"/>
<text text-anchor="middle" x="1251.93" y="-193.5" font-family="Helvetica,sans-Serif" font-size="10.00">map</text>
</g>
<!-- Node4&#45;&gt;Node26 -->
<g id="edge119" class="edge"><title>Node4&#45;&gt;Node26</title>
<path fill="none" stroke="midnightblue" d="M2260.36,-436.81C2063.44,-435.756 1279.62,-429.227 1243.93,-392 1197.43,-343.481 1227.79,-253.083 1243.83,-214.831"/>
<polygon fill="midnightblue" stroke="midnightblue" points="1247.1,-216.068 1247.89,-205.502 1240.69,-213.271 1247.1,-216.068"/>
</g>
<!-- Node5&#45;&gt;Node3 -->
<g id="edge113" class="edge"><title>Node5&#45;&gt;Node3</title>
<path fill="none" stroke="midnightblue" d="M2280.54,-372.129C2306.53,-336.065 2397.37,-198.278 2335.93,-112 2333.06,-107.959 2279.15,-90.2078 2241.67,-78.2451"/>
<polygon fill="midnightblue" stroke="midnightblue" points="2242.65,-74.8851 2232.06,-75.1906 2240.53,-81.5561 2242.65,-74.8851"/>
</g>
<!-- Node5&#45;&gt;Node6 -->
<g id="edge7" class="edge"><title>Node5&#45;&gt;Node6</title>
<path fill="none" stroke="midnightblue" d="M2314.78,-372.492C2390.61,-356.42 2558.08,-319.637 2696.93,-280 2740.18,-267.655 2750.03,-261.472 2792.93,-248 2838.34,-233.744 2890.82,-218.438 2925.96,-208.354"/>
<polygon fill="midnightblue" stroke="midnightblue" points="2927.18,-211.644 2935.83,-205.527 2925.26,-204.914 2927.18,-211.644"/>
</g>
<!-- Node19 -->
<g id="node20" class="node"><title>Node19</title>
<g id="a_node20"><a xlink:href="_reconstruct__traits_8h.html" target="_top" xlink:title="reconstruct/Reconstruct\l_traits.h">
<polygon fill="white" stroke="black" points="2133.93,-249 2133.93,-279 2255.93,-279 2255.93,-249 2133.93,-249"/>
<text text-anchor="start" x="2141.93" y="-267" font-family="Helvetica,sans-Serif" font-size="10.00">reconstruct/Reconstruct</text>
<text text-anchor="middle" x="2194.93" y="-256" font-family="Helvetica,sans-Serif" font-size="10.00">_traits.h</text>
</a>
</g>
</g>
<!-- Node5&#45;&gt;Node19 -->
<g id="edge24" class="edge"><title>Node5&#45;&gt;Node19</title>
<path fill="none" stroke="midnightblue" d="M2268,-372.281C2255.86,-354.465 2227.89,-313.39 2210.29,-287.548"/>
<polygon fill="midnightblue" stroke="midnightblue" points="2213.06,-285.401 2204.54,-279.106 2207.28,-289.342 2213.06,-285.401"/>
</g>
<!-- Node5&#45;&gt;Node22 -->
<g id="edge114" class="edge"><title>Node5&#45;&gt;Node22</title>
<path fill="none" stroke="midnightblue" d="M2215.73,-380.234C1894.46,-375.735 349.961,-350.484 279.935,-280 227.668,-227.391 257.29,-126.495 272.576,-85.2498"/>
<polygon fill="midnightblue" stroke="midnightblue" points="275.847,-86.4957 276.179,-75.906 269.316,-83.9773 275.847,-86.4957"/>
</g>
<!-- Node5&#45;&gt;Node26 -->
<g id="edge115" class="edge"><title>Node5&#45;&gt;Node26</title>
<path fill="none" stroke="midnightblue" d="M2215.73,-379.962C2035.29,-375.944 1488,-357.504 1330.93,-280 1300.89,-265.172 1276.18,-233.925 1262.79,-214.284"/>
<polygon fill="midnightblue" stroke="midnightblue" points="1265.57,-212.137 1257.16,-205.697 1259.72,-215.978 1265.57,-212.137"/>
</g>
<!-- Node27 -->
<g id="node28" class="node"><title>Node27</title>
<g id="a_node28"><a xlink:href="_calibration_8h.html" target="_top" xlink:title="calibration/Calibration.h">
<polygon fill="white" stroke="black" points="2098.43,-316.5 2098.43,-335.5 2217.43,-335.5 2217.43,-316.5 2098.43,-316.5"/>
<text text-anchor="middle" x="2157.93" y="-323.5" font-family="Helvetica,sans-Serif" font-size="10.00">calibration/Calibration.h</text>
</a>
</g>
</g>
<!-- Node5&#45;&gt;Node27 -->
<g id="edge42" class="edge"><title>Node5&#45;&gt;Node27</title>
<path fill="none" stroke="midnightblue" d="M2255.55,-372.444C2236.72,-363.675 2207.2,-349.935 2185.56,-339.858"/>
<polygon fill="midnightblue" stroke="midnightblue" points="2186.77,-336.564 2176.23,-335.516 2183.82,-342.91 2186.77,-336.564"/>
</g>
<!-- Node52 -->
<g id="node53" class="node"><title>Node52</title>
<g id="a_node53"><a xlink:href="piecewise__interval_8h.html" target="_top" xlink:title="base/piecewise_interval.h">
<polygon fill="white" stroke="black" points="2732.43,-186.5 2732.43,-205.5 2861.43,-205.5 2861.43,-186.5 2732.43,-186.5"/>
<text text-anchor="middle" x="2796.93" y="-193.5" font-family="Helvetica,sans-Serif" font-size="10.00">base/piecewise_interval.h</text>
</a>
</g>
</g>
<!-- Node5&#45;&gt;Node52 -->
<g id="edge102" class="edge"><title>Node5&#45;&gt;Node52</title>
<path fill="none" stroke="midnightblue" d="M2298.11,-372.494C2382.61,-342.766 2664.92,-243.444 2763.01,-208.935"/>
<polygon fill="midnightblue" stroke="midnightblue" points="2764.44,-212.142 2772.71,-205.521 2762.12,-205.538 2764.44,-212.142"/>
</g>
<!-- Node6&#45;&gt;Node2 -->
<g id="edge21" class="edge"><title>Node6&#45;&gt;Node2</title>
<path fill="none" stroke="midnightblue" d="M2919.7,-186.481C2903.97,-183.927 2886.24,-181.427 2869.93,-180 2667.67,-162.287 1239.24,-195.871 1042.93,-144 1014.09,-136.379 1011.45,-123.522 983.935,-112 955.552,-100.115 760.623,-42.5712 683.882,-20.057"/>
<polygon fill="midnightblue" stroke="midnightblue" points="684.448,-16.5758 673.867,-17.121 682.479,-23.293 684.448,-16.5758"/>
</g>
<!-- Node7 -->
<g id="node8" class="node"><title>Node7</title>
<g id="a_node8"><a xlink:href="bitflag_8h.html" target="_top" xlink:title="base/bitflag.h">
<polygon fill="white" stroke="black" points="3249.43,-118.5 3249.43,-137.5 3324.43,-137.5 3324.43,-118.5 3249.43,-118.5"/>
<text text-anchor="middle" x="3286.93" y="-125.5" font-family="Helvetica,sans-Serif" font-size="10.00">base/bitflag.h</text>
</a>
</g>
</g>
<!-- Node6&#45;&gt;Node7 -->
<g id="edge8" class="edge"><title>Node6&#45;&gt;Node7</title>
<path fill="none" stroke="midnightblue" d="M3013.84,-187.942C3068.85,-179.412 3161.57,-163.716 3239.93,-144 3244.05,-142.966 3248.33,-141.77 3252.55,-140.515"/>
<polygon fill="midnightblue" stroke="midnightblue" points="3253.7,-143.823 3262.22,-137.525 3251.63,-137.136 3253.7,-143.823"/>
</g>
<!-- Node9 -->
<g id="node10" class="node"><title>Node9</title>
<g id="a_node10"><a xlink:href="vec3_8h.html" target="_top" xlink:title="base/vec/vec3.h">
<polygon fill="white" stroke="black" points="3342.43,-118.5 3342.43,-137.5 3431.43,-137.5 3431.43,-118.5 3342.43,-118.5"/>
<text text-anchor="middle" x="3386.93" y="-125.5" font-family="Helvetica,sans-Serif" font-size="10.00">base/vec/vec3.h</text>
</a>
</g>
</g>
<!-- Node6&#45;&gt;Node9 -->
<g id="edge10" class="edge"><title>Node6&#45;&gt;Node9</title>
<path fill="none" stroke="midnightblue" d="M3013.5,-190.432C3083.8,-183.22 3219.4,-167.548 3332.93,-144 3338.1,-142.928 3343.5,-141.637 3348.81,-140.268"/>
<polygon fill="midnightblue" stroke="midnightblue" points="3350.06,-143.557 3358.8,-137.576 3348.24,-136.798 3350.06,-143.557"/>
</g>
<!-- Node13 -->
<g id="node14" class="node"><title>Node13</title>
<g id="a_node14"><a xlink:href="base_2std__ext_2math_8h.html" target="_top" xlink:title="base/std_ext/math.h">
<polygon fill="white" stroke="black" points="3125.93,-118.5 3125.93,-137.5 3231.93,-137.5 3231.93,-118.5 3125.93,-118.5"/>
<text text-anchor="middle" x="3178.93" y="-125.5" font-family="Helvetica,sans-Serif" font-size="10.00">base/std_ext/math.h</text>
</a>
</g>
</g>
<!-- Node6&#45;&gt;Node13 -->
<g id="edge15" class="edge"><title>Node6&#45;&gt;Node13</title>
<path fill="none" stroke="midnightblue" d="M2993.78,-186.372C3031.68,-174.629 3099.59,-153.585 3141.79,-140.508"/>
<polygon fill="midnightblue" stroke="midnightblue" points="3142.9,-143.829 3151.42,-137.526 3140.83,-137.143 3142.9,-143.829"/>
</g>
<!-- Node6&#45;&gt;Node15 -->
<g id="edge23" class="edge"><title>Node6&#45;&gt;Node15</title>
<path fill="none" stroke="midnightblue" d="M3000.47,-186.425C3024.13,-178.894 3054.62,-165.673 3073.93,-144 3100.83,-113.819 3123.17,-86.7546 3096.93,-56 3065.16,-18.7527 2914.56,-12.1934 2847.4,-11.1406"/>
<polygon fill="midnightblue" stroke="midnightblue" points="2847.04,-7.63594 2836.99,-11.0116 2846.95,-14.6354 2847.04,-7.63594"/>
</g>
<!-- Node6&#45;&gt;Node16 -->
<g id="edge19" class="edge"><title>Node6&#45;&gt;Node16</title>
<path fill="none" stroke="midnightblue" d="M2918.09,-187.445C2902.72,-185.039 2885.61,-182.383 2869.93,-180 2755.59,-162.615 2619.79,-142.777 2558.22,-133.828"/>
<polygon fill="midnightblue" stroke="midnightblue" points="2558.36,-130.311 2547.96,-132.337 2557.35,-137.238 2558.36,-130.311"/>
</g>
<!-- Node17 -->
<g id="node18" class="node"><title>Node17</title>
<polygon fill="white" stroke="#bfbfbf" points="1468.43,-56.5 1468.43,-75.5 1527.43,-75.5 1527.43,-56.5 1468.43,-56.5"/>
<text text-anchor="middle" x="1497.93" y="-63.5" font-family="Helvetica,sans-Serif" font-size="10.00">stdexcept</text>
</g>
<!-- Node6&#45;&gt;Node17 -->
<g id="edge20" class="edge"><title>Node6&#45;&gt;Node17</title>
<path fill="none" stroke="midnightblue" d="M2918.72,-186.426C2903.23,-183.933 2885.89,-181.485 2869.93,-180 2739.66,-167.877 1815.44,-189.95 1692.93,-144 1671.94,-136.126 1673.78,-122.433 1653.93,-112 1633.74,-101.382 1576.69,-86.1954 1537.48,-76.4658"/>
<polygon fill="midnightblue" stroke="midnightblue" points="1538.23,-73.0458 1527.68,-74.0556 1536.56,-79.8431 1538.23,-73.0458"/>
</g>
<!-- Node18 -->
<g id="node19" class="node"><title>Node18</title>
<polygon fill="white" stroke="#bfbfbf" points="2724.93,-56.5 2724.93,-75.5 2786.93,-75.5 2786.93,-56.5 2724.93,-56.5"/>
<text text-anchor="middle" x="2755.93" y="-63.5" font-family="Helvetica,sans-Serif" font-size="10.00">type_traits</text>
</g>
<!-- Node6&#45;&gt;Node18 -->
<g id="edge22" class="edge"><title>Node6&#45;&gt;Node18</title>
<path fill="none" stroke="midnightblue" d="M2968.85,-186.289C2973.8,-169.727 2981.66,-133.439 2963.93,-112 2943.09,-86.7887 2851.55,-74.924 2797.1,-70.0049"/>
<polygon fill="midnightblue" stroke="midnightblue" points="2797.33,-66.5115 2787.06,-69.1386 2796.73,-73.4856 2797.33,-66.5115"/>
</g>
<!-- Node8 -->
<g id="node9" class="node"><title>Node8</title>
<polygon fill="white" stroke="#bfbfbf" points="3266.43,-56.5 3266.43,-75.5 3307.43,-75.5 3307.43,-56.5 3266.43,-56.5"/>
<text text-anchor="middle" x="3286.93" y="-63.5" font-family="Helvetica,sans-Serif" font-size="10.00">bitset</text>
</g>
<!-- Node7&#45;&gt;Node8 -->
<g id="edge9" class="edge"><title>Node7&#45;&gt;Node8</title>
<path fill="none" stroke="midnightblue" d="M3286.93,-118.403C3286.93,-109.938 3286.93,-96.7283 3286.93,-85.8199"/>
<polygon fill="midnightblue" stroke="midnightblue" points="3290.43,-85.5806 3286.93,-75.5806 3283.43,-85.5806 3290.43,-85.5806"/>
</g>
<!-- Node10 -->
<g id="node11" class="node"><title>Node10</title>
<g id="a_node11"><a xlink:href="vec2_8h.html" target="_top" xlink:title="vec2.h">
<polygon fill="white" stroke="black" points="3363.93,-56.5 3363.93,-75.5 3409.93,-75.5 3409.93,-56.5 3363.93,-56.5"/>
<text text-anchor="middle" x="3386.93" y="-63.5" font-family="Helvetica,sans-Serif" font-size="10.00">vec2.h</text>
</a>
</g>
</g>
<!-- Node9&#45;&gt;Node10 -->
<g id="edge11" class="edge"><title>Node9&#45;&gt;Node10</title>
<path fill="none" stroke="midnightblue" d="M3386.93,-118.403C3386.93,-109.938 3386.93,-96.7283 3386.93,-85.8199"/>
<polygon fill="midnightblue" stroke="midnightblue" points="3390.43,-85.5806 3386.93,-75.5806 3383.43,-85.5806 3390.43,-85.5806"/>
</g>
<!-- Node11 -->
<g id="node12" class="node"><title>Node11</title>
<polygon fill="white" stroke="#bfbfbf" points="3169.93,-0.5 3169.93,-19.5 3213.93,-19.5 3213.93,-0.5 3169.93,-0.5"/>
<text text-anchor="middle" x="3191.93" y="-7.5" font-family="Helvetica,sans-Serif" font-size="10.00">cmath</text>
</g>
<!-- Node9&#45;&gt;Node11 -->
<g id="edge14" class="edge"><title>Node9&#45;&gt;Node11</title>
<path fill="none" stroke="midnightblue" d="M3396.38,-118.337C3410.77,-104.109 3434.89,-75.4346 3418.93,-56 3394.68,-26.4666 3281.12,-15.9767 3224.37,-12.5362"/>
<polygon fill="midnightblue" stroke="midnightblue" points="3224.33,-9.0283 3214.15,-11.9556 3223.94,-16.017 3224.33,-9.0283"/>
</g>
<!-- Node12 -->
<g id="node13" class="node"><title>Node12</title>
<polygon fill="white" stroke="#bfbfbf" points="3035.93,-56.5 3035.93,-75.5 3087.93,-75.5 3087.93,-56.5 3035.93,-56.5"/>
<text text-anchor="middle" x="3061.93" y="-63.5" font-family="Helvetica,sans-Serif" font-size="10.00">ostream</text>
</g>
<!-- Node9&#45;&gt;Node12 -->
<g id="edge13" class="edge"><title>Node9&#45;&gt;Node12</title>
<path fill="none" stroke="midnightblue" d="M3358.49,-118.489C3350.29,-116.2 3341.29,-113.85 3332.93,-112 3249.73,-93.5893 3150.64,-78.9556 3098.39,-71.7961"/>
<polygon fill="midnightblue" stroke="midnightblue" points="3098.65,-68.3003 3088.27,-70.424 3097.71,-75.2368 3098.65,-68.3003"/>
</g>
<!-- Node10&#45;&gt;Node11 -->
<g id="edge12" class="edge"><title>Node10&#45;&gt;Node11</title>
<path fill="none" stroke="midnightblue" d="M3363.8,-58.5934C3329.07,-48.9763 3263.35,-30.7769 3224.01,-19.883"/>
<polygon fill="midnightblue" stroke="midnightblue" points="3224.71,-16.4447 3214.14,-17.1489 3222.84,-23.1908 3224.71,-16.4447"/>
</g>
<!-- Node13&#45;&gt;Node11 -->
<g id="edge16" class="edge"><title>Node13&#45;&gt;Node11</title>
<path fill="none" stroke="midnightblue" d="M3179.91,-118.281C3182.01,-99.5475 3186.99,-55.098 3189.84,-29.6822"/>
<polygon fill="midnightblue" stroke="midnightblue" points="3193.35,-29.8324 3190.98,-19.5048 3186.39,-29.0527 3193.35,-29.8324"/>
</g>
<!-- Node13&#45;&gt;Node14 -->
<g id="edge17" class="edge"><title>Node13&#45;&gt;Node14</title>
<path fill="none" stroke="midnightblue" d="M3125.5,-122.899C3082.02,-119.651 3019.03,-115.152 2963.93,-112 2864.34,-106.304 2143.94,-75.1176 1986.34,-68.312"/>
<polygon fill="midnightblue" stroke="midnightblue" points="1986.13,-64.7995 1975.99,-67.8648 1985.83,-71.7929 1986.13,-64.7995"/>
</g>
<!-- Node13&#45;&gt;Node15 -->
<g id="edge18" class="edge"><title>Node13&#45;&gt;Node15</title>
<path fill="none" stroke="midnightblue" d="M3175.67,-118.262C3169.4,-102.833 3154.13,-70.978 3129.93,-56 3083.02,-26.9597 2917.55,-15.8411 2847.09,-12.357"/>
<polygon fill="midnightblue" stroke="midnightblue" points="2847.17,-8.85708 2837.01,-11.8793 2846.84,-15.8492 2847.17,-8.85708"/>
</g>
<!-- Node19&#45;&gt;Node3 -->
<g id="edge38" class="edge"><title>Node19&#45;&gt;Node3</title>
<path fill="none" stroke="midnightblue" d="M2205.69,-248.974C2221.27,-227.677 2249.39,-185.285 2259.93,-144 2263.45,-130.22 2265.97,-124.879 2259.93,-112 2253.89,-99.0941 2242.12,-88.5985 2231.11,-80.9999"/>
<polygon fill="midnightblue" stroke="midnightblue" points="2232.88,-77.9748 2222.57,-75.5364 2229.11,-83.8723 2232.88,-77.9748"/>
</g>
<!-- Node19&#45;&gt;Node6 -->
<g id="edge25" class="edge"><title>Node19&#45;&gt;Node6</title>
<path fill="none" stroke="midnightblue" d="M2256.06,-260.015C2374.69,-253.86 2644.33,-238.106 2869.93,-212 2882.36,-210.562 2895.65,-208.698 2908.25,-206.775"/>
<polygon fill="midnightblue" stroke="midnightblue" points="2908.84,-210.226 2918.18,-205.228 2907.76,-203.309 2908.84,-210.226"/>
</g>
<!-- Node20 -->
<g id="node21" class="node"><title>Node20</title>
<g id="a_node21"><a xlink:href="mapped__vectors_8h.html" target="_top" xlink:title="base/std_ext/mapped\l_vectors.h">
<polygon fill="white" stroke="black" points="2603.93,-181 2603.93,-211 2713.93,-211 2713.93,-181 2603.93,-181"/>
<text text-anchor="start" x="2611.93" y="-199" font-family="Helvetica,sans-Serif" font-size="10.00">base/std_ext/mapped</text>
<text text-anchor="middle" x="2658.93" y="-188" font-family="Helvetica,sans-Serif" font-size="10.00">_vectors.h</text>
</a>
</g>
</g>
<!-- Node19&#45;&gt;Node20 -->
<g id="edge26" class="edge"><title>Node19&#45;&gt;Node20</title>
<path fill="none" stroke="midnightblue" d="M2256.07,-254.304C2343.63,-241.85 2504.03,-219.033 2593.76,-206.27"/>
<polygon fill="midnightblue" stroke="midnightblue" points="2594.41,-209.714 2603.82,-204.84 2593.42,-202.783 2594.41,-209.714"/>
</g>
<!-- Node19&#45;&gt;Node22 -->
<g id="edge40" class="edge"><title>Node19&#45;&gt;Node22</title>
<path fill="none" stroke="midnightblue" d="M2133.7,-261.483C1868.72,-254.846 827.667,-227.976 681.935,-212 518.338,-194.066 449.099,-243.406 317.935,-144 299.044,-129.683 288.961,-103.447 284.031,-85.6208"/>
<polygon fill="midnightblue" stroke="midnightblue" points="287.397,-84.6545 281.595,-75.7898 280.603,-86.338 287.397,-84.6545"/>
</g>
<!-- Node23 -->
<g id="node24" class="node"><title>Node23</title>
<g id="a_node24"><a xlink:href="shared__ptr__container_8h.html" target="_top" xlink:title="base/std_ext/shared\l_ptr_container.h">
<polygon fill="white" stroke="black" points="2112.43,-113 2112.43,-143 2217.43,-143 2217.43,-113 2112.43,-113"/>
<text text-anchor="start" x="2120.43" y="-131" font-family="Helvetica,sans-Serif" font-size="10.00">base/std_ext/shared</text>
<text text-anchor="middle" x="2164.93" y="-120" font-family="Helvetica,sans-Serif" font-size="10.00">_ptr_container.h</text>
</a>
</g>
</g>
<!-- Node19&#45;&gt;Node23 -->
<g id="edge33" class="edge"><title>Node19&#45;&gt;Node23</title>
<path fill="none" stroke="midnightblue" d="M2191.72,-248.66C2186.63,-225.891 2176.62,-181.203 2170.39,-153.349"/>
<polygon fill="midnightblue" stroke="midnightblue" points="2173.72,-152.231 2168.12,-143.237 2166.89,-153.76 2173.72,-152.231"/>
</g>
<!-- Node24 -->
<g id="node25" class="node"><title>Node24</title>
<polygon fill="white" stroke="#bfbfbf" points="1545.43,-56.5 1545.43,-75.5 1604.43,-75.5 1604.43,-56.5 1545.43,-56.5"/>
<text text-anchor="middle" x="1574.93" y="-63.5" font-family="Helvetica,sans-Serif" font-size="10.00">functional</text>
</g>
<!-- Node19&#45;&gt;Node24 -->
<g id="edge41" class="edge"><title>Node19&#45;&gt;Node24</title>
<path fill="none" stroke="midnightblue" d="M2133.8,-262.969C1954.67,-262.357 1439.9,-256.69 1379.93,-212 1343.2,-184.623 1325.87,-147.413 1354.93,-112 1404.99,-51.0127 1452.02,-89.981 1535.1,-75.9039"/>
<polygon fill="midnightblue" stroke="midnightblue" points="1535.99,-79.2986 1545.15,-73.9729 1534.66,-72.4246 1535.99,-79.2986"/>
</g>
<!-- Node19&#45;&gt;Node26 -->
<g id="edge39" class="edge"><title>Node19&#45;&gt;Node26</title>
<path fill="none" stroke="midnightblue" d="M2133.77,-262.631C1990.96,-261.072 1624.71,-253.039 1321.93,-212 1307.89,-210.096 1292.46,-206.911 1279.67,-203.964"/>
<polygon fill="midnightblue" stroke="midnightblue" points="1280.18,-200.487 1269.64,-201.578 1278.56,-207.297 1280.18,-200.487"/>
</g>
<!-- Node20&#45;&gt;Node3 -->
<g id="edge31" class="edge"><title>Node20&#45;&gt;Node3</title>
<path fill="none" stroke="midnightblue" d="M2651.81,-180.958C2641.22,-161.707 2619.35,-127.72 2589.93,-112 2522.14,-75.7754 2321.78,-88.4574 2245.93,-76 2244.67,-75.7923 2243.39,-75.5694 2242.09,-75.3343"/>
<polygon fill="midnightblue" stroke="midnightblue" points="2242.59,-71.865 2232.1,-73.3478 2241.22,-78.7306 2242.59,-71.865"/>
</g>
<!-- Node20&#45;&gt;Node15 -->
<g id="edge30" class="edge"><title>Node20&#45;&gt;Node15</title>
<path fill="none" stroke="midnightblue" d="M2708.37,-180.911C2729.02,-172.923 2751.89,-161.032 2767.93,-144 2798.49,-111.569 2809.35,-58.0607 2813.08,-29.813"/>
<polygon fill="midnightblue" stroke="midnightblue" points="2816.58,-30.0326 2814.25,-19.6971 2809.62,-29.2296 2816.58,-30.0326"/>
</g>
<!-- Node20&#45;&gt;Node18 -->
<g id="edge32" class="edge"><title>Node20&#45;&gt;Node18</title>
<path fill="none" stroke="midnightblue" d="M2700.95,-180.826C2718.33,-172.779 2736.96,-160.866 2747.93,-144 2759.13,-126.794 2759.82,-102.707 2758.55,-86.076"/>
<polygon fill="midnightblue" stroke="midnightblue" points="2762,-85.5002 2757.46,-75.9299 2755.04,-86.2458 2762,-85.5002"/>
</g>
<!-- Node21 -->
<g id="node22" class="node"><title>Node21</title>
<g id="a_node22"><a xlink:href="memory_8h.html" target="_top" xlink:title="base/std_ext/memory.h">
<polygon fill="white" stroke="black" points="1526.43,-118.5 1526.43,-137.5 1645.43,-137.5 1645.43,-118.5 1526.43,-118.5"/>
<text text-anchor="middle" x="1585.93" y="-125.5" font-family="Helvetica,sans-Serif" font-size="10.00">base/std_ext/memory.h</text>
</a>
</g>
</g>
<!-- Node20&#45;&gt;Node21 -->
<g id="edge27" class="edge"><title>Node20&#45;&gt;Node21</title>
<path fill="none" stroke="midnightblue" d="M2603.72,-195.06C2452.25,-194.604 2017.67,-189.133 1659.93,-144 1651.05,-142.879 1641.64,-141.289 1632.62,-139.559"/>
<polygon fill="midnightblue" stroke="midnightblue" points="1633.14,-136.094 1622.64,-137.565 1631.76,-142.958 1633.14,-136.094"/>
</g>
<!-- Node21&#45;&gt;Node3 -->
<g id="edge28" class="edge"><title>Node21&#45;&gt;Node3</title>
<path fill="none" stroke="midnightblue" d="M1642.78,-118.473C1658.97,-116.197 1676.63,-113.857 1692.93,-112 1871.4,-91.677 2085.71,-75.5372 2169.68,-69.5316"/>
<polygon fill="midnightblue" stroke="midnightblue" points="2170,-73.0178 2179.73,-68.8171 2169.5,-66.0354 2170,-73.0178"/>
</g>
<!-- Node21&#45;&gt;Node22 -->
<g id="edge29" class="edge"><title>Node21&#45;&gt;Node22</title>
<path fill="none" stroke="midnightblue" d="M1533.27,-118.478C1516,-115.988 1496.69,-113.529 1478.93,-112 988.046,-69.7388 862.582,-108.264 370.935,-76 348.528,-74.5295 323.101,-71.9365 304.832,-69.9103"/>
<polygon fill="midnightblue" stroke="midnightblue" points="305.056,-66.4134 294.726,-68.7663 304.269,-73.369 305.056,-66.4134"/>
</g>
<!-- Node23&#45;&gt;Node3 -->
<g id="edge35" class="edge"><title>Node23&#45;&gt;Node3</title>
<path fill="none" stroke="midnightblue" d="M2174.65,-112.781C2180.55,-104.152 2188.11,-93.0882 2194.32,-83.9987"/>
<polygon fill="midnightblue" stroke="midnightblue" points="2197.22,-85.9617 2199.97,-75.7305 2191.44,-82.0123 2197.22,-85.9617"/>
</g>
<!-- Node23&#45;&gt;Node15 -->
<g id="edge34" class="edge"><title>Node23&#45;&gt;Node15</title>
<path fill="none" stroke="midnightblue" d="M2217.72,-115.653C2286.94,-100.956 2412.23,-74.9749 2519.93,-56 2615.12,-39.2303 2728.24,-23.0037 2782.61,-15.4348"/>
<polygon fill="midnightblue" stroke="midnightblue" points="2783.25,-18.8794 2792.67,-14.0389 2782.29,-11.9457 2783.25,-18.8794"/>
</g>
<!-- Node23&#45;&gt;Node24 -->
<g id="edge36" class="edge"><title>Node23&#45;&gt;Node24</title>
<path fill="none" stroke="midnightblue" d="M2112.11,-113.822C2108.68,-113.152 2105.26,-112.536 2101.93,-112 2089.92,-110.067 1736.06,-80.4478 1615.05,-70.3458"/>
<polygon fill="midnightblue" stroke="midnightblue" points="1615.01,-66.8297 1604.75,-69.4857 1614.42,-73.8054 1615.01,-66.8297"/>
</g>
<!-- Node23&#45;&gt;Node25 -->
<g id="edge37" class="edge"><title>Node23&#45;&gt;Node25</title>
<path fill="none" stroke="midnightblue" d="M2133.68,-112.892C2083.24,-90.1276 1984.68,-45.6384 1936.21,-23.7638"/>
<polygon fill="midnightblue" stroke="midnightblue" points="1937.5,-20.5032 1926.94,-19.5793 1934.62,-26.8834 1937.5,-20.5032"/>
</g>
<!-- Node27&#45;&gt;Node15 -->
<g id="edge101" class="edge"><title>Node27&#45;&gt;Node15</title>
<path fill="none" stroke="midnightblue" d="M2216.92,-316.499C2382.24,-292.557 2840.04,-225.432 2869.93,-212 2890.39,-202.811 2890.06,-192.098 2908.93,-180 2939.73,-160.265 2963.54,-175.007 2982.93,-144 3005.35,-108.175 2980.21,-82.0422 2946.93,-56 2917.56,-33.0098 2875.73,-21.3927 2847.07,-15.7866"/>
<polygon fill="midnightblue" stroke="midnightblue" points="2847.63,-12.3298 2837.16,-13.9832 2846.37,-19.2167 2847.63,-12.3298"/>
</g>
<!-- Node27&#45;&gt;Node19 -->
<g id="edge43" class="edge"><title>Node27&#45;&gt;Node19</title>
<path fill="none" stroke="midnightblue" d="M2163.24,-316.403C2167.83,-308.961 2174.68,-297.851 2180.84,-287.862"/>
<polygon fill="midnightblue" stroke="midnightblue" points="2183.94,-289.49 2186.21,-279.141 2177.99,-285.815 2183.94,-289.49"/>
</g>
<!-- Node28 -->
<g id="node29" class="node"><title>Node28</title>
<g id="a_node29"><a xlink:href="_manager__traits_8h.html" target="_top" xlink:title="calibration/gui/Manager\l_traits.h">
<polygon fill="white" stroke="black" points="1340.43,-249 1340.43,-279 1457.43,-279 1457.43,-249 1340.43,-249"/>
<text text-anchor="start" x="1348.43" y="-267" font-family="Helvetica,sans-Serif" font-size="10.00">calibration/gui/Manager</text>
<text text-anchor="middle" x="1398.93" y="-256" font-family="Helvetica,sans-Serif" font-size="10.00">_traits.h</text>
</a>
</g>
</g>
<!-- Node27&#45;&gt;Node28 -->
<g id="edge44" class="edge"><title>Node27&#45;&gt;Node28</title>
<path fill="none" stroke="midnightblue" d="M2098.38,-320.292C1959.65,-309.325 1615.57,-282.126 1467.98,-270.458"/>
<polygon fill="midnightblue" stroke="midnightblue" points="1467.94,-266.944 1457.69,-269.645 1467.39,-273.922 1467.94,-266.944"/>
</g>
<!-- Node51 -->
<g id="node52" class="node"><title>Node51</title>
<g id="a_node52"><a xlink:href="_options_list_8h.html" target="_top" xlink:title="base/OptionsList.h">
<polygon fill="white" stroke="black" points="288.935,-254.5 288.935,-273.5 386.935,-273.5 386.935,-254.5 288.935,-254.5"/>
<text text-anchor="middle" x="337.935" y="-261.5" font-family="Helvetica,sans-Serif" font-size="10.00">base/OptionsList.h</text>
</a>
</g>
</g>
<!-- Node27&#45;&gt;Node51 -->
<g id="edge95" class="edge"><title>Node27&#45;&gt;Node51</title>
<path fill="none" stroke="midnightblue" d="M2098.41,-323.038C1822.91,-313.955 673.165,-276.052 397.519,-266.964"/>
<polygon fill="midnightblue" stroke="midnightblue" points="397.433,-263.46 387.323,-266.628 397.203,-270.456 397.433,-263.46"/>
</g>
<!-- Node28&#45;&gt;Node2 -->
<g id="edge91" class="edge"><title>Node28&#45;&gt;Node2</title>
<path fill="none" stroke="midnightblue" d="M1340.06,-261.947C1118.89,-257.773 348.07,-241.183 304.935,-212 244.743,-171.277 207.527,-110.204 255.935,-56 280.271,-28.7495 533.444,-15.8737 622.309,-12.1692"/>
<polygon fill="midnightblue" stroke="midnightblue" points="622.456,-15.6663 632.305,-11.7626 622.171,-8.67205 622.456,-15.6663"/>
</g>
<!-- Node28&#45;&gt;Node3 -->
<g id="edge93" class="edge"><title>Node28&#45;&gt;Node3</title>
<path fill="none" stroke="midnightblue" d="M1457.82,-260.956C1561.44,-256.64 1782.85,-244.197 1966.93,-212 2084.17,-191.496 2153.25,-238.236 2225.93,-144 2239.33,-126.63 2228.41,-101.174 2218.18,-84.3522"/>
<polygon fill="midnightblue" stroke="midnightblue" points="2220.84,-82.0202 2212.43,-75.5716 2214.98,-85.855 2220.84,-82.0202"/>
</g>
<!-- Node28&#45;&gt;Node22 -->
<g id="edge92" class="edge"><title>Node28&#45;&gt;Node22</title>
<path fill="none" stroke="midnightblue" d="M1340.31,-262.398C1134.35,-259.969 451.484,-249.168 360.935,-212 319.005,-194.789 304.766,-184.756 284.935,-144 276.067,-125.777 275.934,-102.202 277.309,-85.9643"/>
<polygon fill="midnightblue" stroke="midnightblue" points="280.833,-85.9476 278.473,-75.6189 273.877,-85.1647 280.833,-85.9476"/>
</g>
<!-- Node28&#45;&gt;Node24 -->
<g id="edge94" class="edge"><title>Node28&#45;&gt;Node24</title>
<path fill="none" stroke="midnightblue" d="M1363.34,-248.838C1347.66,-240.6 1330.81,-228.527 1321.93,-212 1300.9,-172.846 1293.23,-145.934 1321.93,-112 1351.37,-77.1943 1474.13,-84.4462 1535.21,-75.7457"/>
<polygon fill="midnightblue" stroke="midnightblue" points="1535.89,-79.1813 1545.16,-74.0642 1534.72,-72.2791 1535.89,-79.1813"/>
</g>
<!-- Node29 -->
<g id="node30" class="node"><title>Node29</title>
<g id="a_node30"><a xlink:href="interval_8h.html" target="_top" xlink:title="base/interval.h">
<polygon fill="white" stroke="black" points="1701.93,-118.5 1701.93,-137.5 1781.93,-137.5 1781.93,-118.5 1701.93,-118.5"/>
<text text-anchor="middle" x="1741.93" y="-125.5" font-family="Helvetica,sans-Serif" font-size="10.00">base/interval.h</text>
</a>
</g>
</g>
<!-- Node28&#45;&gt;Node29 -->
<g id="edge45" class="edge"><title>Node28&#45;&gt;Node29</title>
<path fill="none" stroke="midnightblue" d="M1434.99,-248.913C1502.42,-222.571 1646.54,-166.267 1710.38,-141.327"/>
<polygon fill="midnightblue" stroke="midnightblue" points="1711.87,-144.502 1719.91,-137.603 1709.32,-137.982 1711.87,-144.502"/>
</g>
<!-- Node33 -->
<g id="node34" class="node"><title>Node33</title>
<g id="a_node34"><a xlink:href="_wrap_t_file_8h.html" target="_top" xlink:title="base/WrapTFile.h">
<polygon fill="white" stroke="black" points="690.935,-186.5 690.935,-205.5 784.935,-205.5 784.935,-186.5 690.935,-186.5"/>
<text text-anchor="middle" x="737.935" y="-193.5" font-family="Helvetica,sans-Serif" font-size="10.00">base/WrapTFile.h</text>
</a>
</g>
</g>
<!-- Node28&#45;&gt;Node33 -->
<g id="edge53" class="edge"><title>Node28&#45;&gt;Node33</title>
<path fill="none" stroke="midnightblue" d="M1340.28,-257.143C1214.43,-244.577 919.856,-215.165 795.234,-202.721"/>
<polygon fill="midnightblue" stroke="midnightblue" points="795.433,-199.224 785.135,-201.713 794.737,-206.189 795.433,-199.224"/>
</g>
<!-- Node44 -->
<g id="node45" class="node"><title>Node44</title>
<g id="a_node45"><a xlink:href="_t_i_d_8h.html" target="_top" xlink:title="tree/TID.h">
<polygon fill="white" stroke="black" points="1389.43,-186.5 1389.43,-205.5 1450.43,-205.5 1450.43,-186.5 1389.43,-186.5"/>
<text text-anchor="middle" x="1419.93" y="-193.5" font-family="Helvetica,sans-Serif" font-size="10.00">tree/TID.h</text>
</a>
</g>
</g>
<!-- Node28&#45;&gt;Node44 -->
<g id="edge78" class="edge"><title>Node28&#45;&gt;Node44</title>
<path fill="none" stroke="midnightblue" d="M1403.49,-248.679C1406.57,-238.999 1410.67,-226.123 1414,-215.645"/>
<polygon fill="midnightblue" stroke="midnightblue" points="1417.43,-216.419 1417.13,-205.828 1410.76,-214.296 1417.43,-216.419"/>
</g>
<!-- Node29&#45;&gt;Node11 -->
<g id="edge52" class="edge"><title>Node29&#45;&gt;Node11</title>
<path fill="none" stroke="midnightblue" d="M1765.83,-118.44C1773.72,-115.949 1782.62,-113.497 1790.93,-112 2057.79,-63.9772 2132.48,-120.534 2399.93,-76 2432.7,-70.5451 2439.18,-61.5102 2471.93,-56 2607.11,-33.2575 3037.52,-16.5069 3159.46,-12.1288"/>
<polygon fill="midnightblue" stroke="midnightblue" points="3159.77,-15.62 3169.64,-11.7664 3159.52,-8.62444 3159.77,-15.62"/>
</g>
<!-- Node29&#45;&gt;Node14 -->
<g id="edge49" class="edge"><title>Node29&#45;&gt;Node14</title>
<path fill="none" stroke="midnightblue" d="M1769.36,-118.441C1776.38,-116.295 1783.93,-114.028 1790.93,-112 1837.9,-98.4094 1892.72,-83.6827 1925.86,-74.9054"/>
<polygon fill="midnightblue" stroke="midnightblue" points="1927.04,-78.2126 1935.81,-72.2736 1925.25,-71.445 1927.04,-78.2126"/>
</g>
<!-- Node29&#45;&gt;Node17 -->
<g id="edge48" class="edge"><title>Node29&#45;&gt;Node17</title>
<path fill="none" stroke="midnightblue" d="M1712,-118.464C1704.18,-116.296 1695.76,-114.012 1687.93,-112 1687.01,-111.762 1592.67,-89.4267 1537.29,-76.3169"/>
<polygon fill="midnightblue" stroke="midnightblue" points="1537.97,-72.8816 1527.44,-73.9838 1536.36,-79.6933 1537.97,-72.8816"/>
</g>
<!-- Node29&#45;&gt;Node25 -->
<g id="edge47" class="edge"><title>Node29&#45;&gt;Node25</title>
<path fill="none" stroke="midnightblue" d="M1725.36,-118.287C1702.06,-104.927 1664.44,-78.5575 1682.93,-56 1706.12,-27.7232 1811.75,-16.8606 1869.66,-12.9776"/>
<polygon fill="midnightblue" stroke="midnightblue" points="1870.13,-16.455 1879.89,-12.3311 1869.69,-9.46897 1870.13,-16.455"/>
</g>
<!-- Node30 -->
<g id="node31" class="node"><title>Node30</title>
<g id="a_node31"><a xlink:href="types_8h.html" target="_top" xlink:title="types.h">
<polygon fill="white" stroke="black" points="1692.43,-56.5 1692.43,-75.5 1741.43,-75.5 1741.43,-56.5 1692.43,-56.5"/>
<text text-anchor="middle" x="1716.93" y="-63.5" font-family="Helvetica,sans-Serif" font-size="10.00">types.h</text>
</a>
</g>
</g>
<!-- Node29&#45;&gt;Node30 -->
<g id="edge46" class="edge"><title>Node29&#45;&gt;Node30</title>
<path fill="none" stroke="midnightblue" d="M1738.35,-118.403C1734.75,-109.76 1729.09,-96.17 1724.49,-85.1341"/>
<polygon fill="midnightblue" stroke="midnightblue" points="1727.59,-83.4652 1720.51,-75.5806 1721.13,-86.1575 1727.59,-83.4652"/>
</g>
<!-- Node31 -->
<g id="node32" class="node"><title>Node31</title>
<polygon fill="white" stroke="#bfbfbf" points="1759.43,-56.5 1759.43,-75.5 1808.43,-75.5 1808.43,-56.5 1759.43,-56.5"/>
<text text-anchor="middle" x="1783.93" y="-63.5" font-family="Helvetica,sans-Serif" font-size="10.00">istream</text>
</g>
<!-- Node29&#45;&gt;Node31 -->
<g id="edge50" class="edge"><title>Node29&#45;&gt;Node31</title>
<path fill="none" stroke="midnightblue" d="M1747.95,-118.403C1754.25,-109.403 1764.31,-95.0408 1772.19,-83.7824"/>
<polygon fill="midnightblue" stroke="midnightblue" points="1775.06,-85.7801 1777.93,-75.5806 1769.33,-81.7658 1775.06,-85.7801"/>
</g>
<!-- Node32 -->
<g id="node33" class="node"><title>Node32</title>
<polygon fill="white" stroke="#bfbfbf" points="358.935,-0.5 358.935,-19.5 410.935,-19.5 410.935,-0.5 358.935,-0.5"/>
<text text-anchor="middle" x="384.935" y="-7.5" font-family="Helvetica,sans-Serif" font-size="10.00">sstream</text>
</g>
<!-- Node29&#45;&gt;Node32 -->
<g id="edge51" class="edge"><title>Node29&#45;&gt;Node32</title>
<path fill="none" stroke="midnightblue" d="M1701.78,-119.087C1686.81,-116.421 1669.65,-113.696 1653.93,-112 1308.9,-74.7736 1219.59,-106.892 873.935,-76 703.925,-60.8059 502.247,-29.8734 421.251,-16.917"/>
<polygon fill="midnightblue" stroke="midnightblue" points="421.514,-13.4144 411.085,-15.2836 420.404,-20.3257 421.514,-13.4144"/>
</g>
<!-- Node33&#45;&gt;Node2 -->
<g id="edge73" class="edge"><title>Node33&#45;&gt;Node2</title>
<path fill="none" stroke="midnightblue" d="M690.704,-193.23C620.087,-189.48 492.232,-178.05 463.935,-144 412.695,-82.343 556.58,-35.9108 622.21,-18.4983"/>
<polygon fill="midnightblue" stroke="midnightblue" points="623.227,-21.8506 632.03,-15.955 621.472,-15.0742 623.227,-21.8506"/>
</g>
<!-- Node33&#45;&gt;Node3 -->
<g id="edge72" class="edge"><title>Node33&#45;&gt;Node3</title>
<path fill="none" stroke="midnightblue" d="M785.128,-193.386C997.645,-186.064 1857.88,-155.813 1913.93,-144 1952.22,-135.933 1958.46,-123.246 1995.93,-112 2055.85,-94.0164 2127.44,-80.2761 2169.65,-72.9418"/>
<polygon fill="midnightblue" stroke="midnightblue" points="2170.46,-76.354 2179.73,-71.2164 2169.28,-69.4544 2170.46,-76.354"/>
</g>
<!-- Node33&#45;&gt;Node17 -->
<g id="edge76" class="edge"><title>Node33&#45;&gt;Node17</title>
<path fill="none" stroke="midnightblue" d="M784.967,-193.248C864.236,-189.439 1029.01,-177.823 1163.93,-144 1201.88,-134.488 1208.28,-122.6 1245.93,-112 1319.62,-91.258 1408.23,-78.0559 1458.33,-71.6376"/>
<polygon fill="midnightblue" stroke="midnightblue" points="1458.93,-75.0899 1468.41,-70.3708 1458.05,-68.1445 1458.93,-75.0899"/>
</g>
<!-- Node33&#45;&gt;Node22 -->
<g id="edge74" class="edge"><title>Node33&#45;&gt;Node22</title>
<path fill="none" stroke="midnightblue" d="M690.854,-194.592C625.265,-192.515 503.776,-183.128 408.935,-144 386.582,-134.778 385.449,-124.8 364.935,-112 345.04,-99.5868 321.393,-87.2505 304.098,-78.6423"/>
<polygon fill="midnightblue" stroke="midnightblue" points="305.243,-75.3052 294.725,-74.0324 302.154,-81.5866 305.243,-75.3052"/>
</g>
<!-- Node33&#45;&gt;Node24 -->
<g id="edge77" class="edge"><title>Node33&#45;&gt;Node24</title>
<path fill="none" stroke="midnightblue" d="M785.073,-195.427C872.439,-195.037 1064.66,-188.623 1218.93,-144 1249.87,-135.053 1253.17,-121.506 1283.93,-112 1388.97,-79.5456 1422.8,-95.7526 1535.15,-75.9647"/>
<polygon fill="midnightblue" stroke="midnightblue" points="1535.97,-79.374 1545.18,-74.1407 1534.71,-72.487 1535.97,-79.374"/>
</g>
<!-- Node34 -->
<g id="node35" class="node"><title>Node34</title>
<g id="a_node35"><a xlink:href="string_8h.html" target="_top" xlink:title="base/std_ext/string.h">
<polygon fill="white" stroke="black" points="882.935,-56.5 882.935,-75.5 990.935,-75.5 990.935,-56.5 882.935,-56.5"/>
<text text-anchor="middle" x="936.935" y="-63.5" font-family="Helvetica,sans-Serif" font-size="10.00">base/std_ext/string.h</text>
</a>
</g>
</g>
<!-- Node33&#45;&gt;Node34 -->
<g id="edge54" class="edge"><title>Node33&#45;&gt;Node34</title>
<path fill="none" stroke="midnightblue" d="M690.821,-194.696C600.732,-192.588 418.238,-180.07 479.935,-112 505.784,-83.4803 752.707,-72.381 872.446,-68.6491"/>
<polygon fill="midnightblue" stroke="midnightblue" points="872.693,-72.1433 882.583,-68.3413 872.481,-65.1465 872.693,-72.1433"/>
</g>
<!-- Node35 -->
<g id="node36" class="node"><title>Node35</title>
<g id="a_node36"><a xlink:href="misc_8h.html" target="_top" xlink:title="base/std_ext/misc.h">
<polygon fill="white" stroke="black" points="1800.43,-118.5 1800.43,-137.5 1905.43,-137.5 1905.43,-118.5 1800.43,-118.5"/>
<text text-anchor="middle" x="1852.93" y="-125.5" font-family="Helvetica,sans-Serif" font-size="10.00">base/std_ext/misc.h</text>
</a>
</g>
</g>
<!-- Node33&#45;&gt;Node35 -->
<g id="edge59" class="edge"><title>Node33&#45;&gt;Node35</title>
<path fill="none" stroke="midnightblue" d="M785.011,-193.245C976.395,-186.039 1690.67,-158.424 1790.93,-144 1797.93,-142.993 1805.29,-141.556 1812.4,-139.966"/>
<polygon fill="midnightblue" stroke="midnightblue" points="1813.64,-143.269 1822.57,-137.558 1812.03,-136.457 1813.64,-143.269"/>
</g>
<!-- Node37 -->
<g id="node38" class="node"><title>Node37</title>
<polygon fill="white" stroke="#bfbfbf" points="489.435,-118.5 489.435,-137.5 536.435,-137.5 536.435,-118.5 489.435,-118.5"/>
<text text-anchor="middle" x="512.935" y="-125.5" font-family="Helvetica,sans-Serif" font-size="10.00">TFile.h</text>
</g>
<!-- Node33&#45;&gt;Node37 -->
<g id="edge66" class="edge"><title>Node33&#45;&gt;Node37</title>
<path fill="none" stroke="midnightblue" d="M696.991,-186.434C657.47,-177.642 596.241,-162.632 544.935,-144 543.032,-143.309 541.087,-142.547 539.144,-141.743"/>
<polygon fill="midnightblue" stroke="midnightblue" points="540.194,-138.38 529.634,-137.52 537.353,-144.777 540.194,-138.38"/>
</g>
<!-- Node38 -->
<g id="node39" class="node"><title>Node38</title>
<polygon fill="white" stroke="#bfbfbf" points="554.435,-118.5 554.435,-137.5 625.435,-137.5 625.435,-118.5 554.435,-118.5"/>
<text text-anchor="middle" x="589.935" y="-125.5" font-family="Helvetica,sans-Serif" font-size="10.00">TDirectory.h</text>
</g>
<!-- Node33&#45;&gt;Node38 -->
<g id="edge67" class="edge"><title>Node33&#45;&gt;Node38</title>
<path fill="none" stroke="midnightblue" d="M718.586,-186.372C693.103,-175.007 648.083,-154.931 618.629,-141.796"/>
<polygon fill="midnightblue" stroke="midnightblue" points="619.846,-138.507 609.288,-137.63 616.995,-144.9 619.846,-138.507"/>
</g>
<!-- Node39 -->
<g id="node40" class="node"><title>Node39</title>
<polygon fill="white" stroke="#bfbfbf" points="643.935,-118.5 643.935,-137.5 695.935,-137.5 695.935,-118.5 643.935,-118.5"/>
<text text-anchor="middle" x="669.935" y="-125.5" font-family="Helvetica,sans-Serif" font-size="10.00">TError.h</text>
</g>
<!-- Node33&#45;&gt;Node39 -->
<g id="edge68" class="edge"><title>Node33&#45;&gt;Node39</title>
<path fill="none" stroke="midnightblue" d="M729.045,-186.372C718.211,-175.856 699.692,-157.882 686.265,-144.85"/>
<polygon fill="midnightblue" stroke="midnightblue" points="688.657,-142.294 679.044,-137.841 683.782,-147.317 688.657,-142.294"/>
</g>
<!-- Node40 -->
<g id="node41" class="node"><title>Node40</title>
<polygon fill="white" stroke="#bfbfbf" points="714.435,-118.5 714.435,-137.5 761.435,-137.5 761.435,-118.5 714.435,-118.5"/>
<text text-anchor="middle" x="737.935" y="-125.5" font-family="Helvetica,sans-Serif" font-size="10.00">TList.h</text>
</g>
<!-- Node33&#45;&gt;Node40 -->
<g id="edge69" class="edge"><title>Node33&#45;&gt;Node40</title>
<path fill="none" stroke="midnightblue" d="M737.935,-186.372C737.935,-176.643 737.935,-160.528 737.935,-147.85"/>
<polygon fill="midnightblue" stroke="midnightblue" points="741.435,-147.841 737.935,-137.841 734.435,-147.841 741.435,-147.841"/>
</g>
<!-- Node41 -->
<g id="node42" class="node"><title>Node41</title>
<polygon fill="white" stroke="#bfbfbf" points="779.935,-118.5 779.935,-137.5 853.935,-137.5 853.935,-118.5 779.935,-118.5"/>
<text text-anchor="middle" x="816.935" y="-125.5" font-family="Helvetica,sans-Serif" font-size="10.00">TCollection.h</text>
</g>
<!-- Node33&#45;&gt;Node41 -->
<g id="edge70" class="edge"><title>Node33&#45;&gt;Node41</title>
<path fill="none" stroke="midnightblue" d="M748.263,-186.372C761.037,-175.699 783.009,-157.343 798.659,-144.268"/>
<polygon fill="midnightblue" stroke="midnightblue" points="801.174,-146.728 806.604,-137.63 796.686,-141.356 801.174,-146.728"/>
</g>
<!-- Node42 -->
<g id="node43" class="node"><title>Node42</title>
<polygon fill="white" stroke="#bfbfbf" points="871.935,-118.5 871.935,-137.5 919.935,-137.5 919.935,-118.5 871.935,-118.5"/>
<text text-anchor="middle" x="895.935" y="-125.5" font-family="Helvetica,sans-Serif" font-size="10.00">TKey.h</text>
</g>
<!-- Node33&#45;&gt;Node42 -->
<g id="edge71" class="edge"><title>Node33&#45;&gt;Node42</title>
<path fill="none" stroke="midnightblue" d="M759.721,-186.412C784.748,-176.477 826.991,-159.495 862.935,-144 864.564,-143.298 866.234,-142.568 867.917,-141.826"/>
<polygon fill="midnightblue" stroke="midnightblue" points="869.795,-144.82 877.491,-137.538 866.934,-138.432 869.795,-144.82"/>
</g>
<!-- Node43 -->
<g id="node44" class="node"><title>Node43</title>
<polygon fill="white" stroke="#bfbfbf" points="326.935,-118.5 326.935,-137.5 356.935,-137.5 356.935,-118.5 326.935,-118.5"/>
<text text-anchor="middle" x="341.935" y="-125.5" font-family="Helvetica,sans-Serif" font-size="10.00">set</text>
</g>
<!-- Node33&#45;&gt;Node43 -->
<g id="edge75" class="edge"><title>Node33&#45;&gt;Node43</title>
<path fill="none" stroke="midnightblue" d="M690.758,-193.527C619.793,-190.188 482.052,-179.314 370.935,-144 369.071,-143.408 367.183,-142.703 365.311,-141.926"/>
<polygon fill="midnightblue" stroke="midnightblue" points="366.807,-138.762 356.272,-137.636 363.805,-145.086 366.807,-138.762"/>
</g>
<!-- Node34&#45;&gt;Node2 -->
<g id="edge55" class="edge"><title>Node34&#45;&gt;Node2</title>
<path fill="none" stroke="midnightblue" d="M891.934,-56.4435C833.672,-45.3655 733.679,-26.3527 683.516,-16.8148"/>
<polygon fill="midnightblue" stroke="midnightblue" points="684.079,-13.3592 673.602,-14.9296 682.772,-20.236 684.079,-13.3592"/>
</g>
<!-- Node34&#45;&gt;Node15 -->
<g id="edge58" class="edge"><title>Node34&#45;&gt;Node15</title>
<path fill="none" stroke="midnightblue" d="M991.1,-60.8829C1015.75,-59.1396 1045.3,-57.231 1071.93,-56 1248.86,-47.822 2559.1,-16.9856 2782.57,-11.7559"/>
<polygon fill="midnightblue" stroke="midnightblue" points="2782.75,-15.2528 2792.66,-11.5198 2782.59,-8.25468 2782.75,-15.2528"/>
</g>
<!-- Node34&#45;&gt;Node25 -->
<g id="edge57" class="edge"><title>Node34&#45;&gt;Node25</title>
<path fill="none" stroke="midnightblue" d="M991.081,-57.4276C995.761,-56.8963 1000.43,-56.4098 1004.93,-56 1339.1,-25.6111 1744.83,-14.596 1869.6,-11.7888"/>
<polygon fill="midnightblue" stroke="midnightblue" points="1869.87,-15.2839 1879.79,-11.564 1869.71,-8.28562 1869.87,-15.2839"/>
</g>
<!-- Node34&#45;&gt;Node32 -->
<g id="edge56" class="edge"><title>Node34&#45;&gt;Node32</title>
<path fill="none" stroke="midnightblue" d="M882.749,-59.6992C770.671,-48.735 515.947,-23.8165 421.266,-14.5542"/>
<polygon fill="midnightblue" stroke="midnightblue" points="421.343,-11.0451 411.05,-13.5547 420.661,-18.0118 421.343,-11.0451"/>
</g>
<!-- Node35&#45;&gt;Node3 -->
<g id="edge65" class="edge"><title>Node35&#45;&gt;Node3</title>
<path fill="none" stroke="midnightblue" d="M1903.14,-118.467C1975.26,-106.208 2106.47,-83.9065 2169.81,-73.1402"/>
<polygon fill="midnightblue" stroke="midnightblue" points="2170.46,-76.5794 2179.74,-71.4531 2169.29,-69.6783 2170.46,-76.5794"/>
</g>
<!-- Node35&#45;&gt;Node11 -->
<g id="edge62" class="edge"><title>Node35&#45;&gt;Node11</title>
<path fill="none" stroke="midnightblue" d="M1905.68,-122.45C1940.64,-119.448 1987.53,-115.447 2028.93,-112 2225.79,-95.6126 2275.33,-95.1544 2471.93,-76 2550.29,-68.3663 2569.59,-63.6904 2647.93,-56 2841.97,-36.9546 3075.47,-19.4578 3159.69,-13.3208"/>
<polygon fill="midnightblue" stroke="midnightblue" points="3160.17,-16.7954 3169.89,-12.5801 3159.66,-9.81375 3160.17,-16.7954"/>
</g>
<!-- Node35&#45;&gt;Node18 -->
<g id="edge64" class="edge"><title>Node35&#45;&gt;Node18</title>
<path fill="none" stroke="midnightblue" d="M1905.65,-122.054C1940.6,-118.887 1987.48,-114.852 2028.93,-112 2330.69,-91.2405 2411.32,-117.139 2714.62,-75.9458"/>
<polygon fill="midnightblue" stroke="midnightblue" points="2715.15,-79.4062 2724.58,-74.58 2714.2,-72.4711 2715.15,-79.4062"/>
</g>
<!-- Node35&#45;&gt;Node24 -->
<g id="edge61" class="edge"><title>Node35&#45;&gt;Node24</title>
<path fill="none" stroke="midnightblue" d="M1818.55,-118.473C1809.57,-116.305 1799.9,-114.018 1790.93,-112 1729.53,-98.1784 1657.95,-83.5594 1614.57,-74.8617"/>
<polygon fill="midnightblue" stroke="midnightblue" points="1615.19,-71.4167 1604.7,-72.8874 1613.82,-78.2807 1615.19,-71.4167"/>
</g>
<!-- Node35&#45;&gt;Node25 -->
<g id="edge60" class="edge"><title>Node35&#45;&gt;Node25</title>
<path fill="none" stroke="midnightblue" d="M1860,-118.474C1867.77,-108.73 1880.18,-92.0517 1887.93,-76 1895.16,-61.0494 1900.48,-42.9104 1903.81,-29.5971"/>
<polygon fill="midnightblue" stroke="midnightblue" points="1907.25,-30.2613 1906.14,-19.725 1900.44,-28.655 1907.25,-30.2613"/>
</g>
<!-- Node36 -->
<g id="node37" class="node"><title>Node36</title>
<polygon fill="white" stroke="#bfbfbf" points="1826.43,-56.5 1826.43,-75.5 1879.43,-75.5 1879.43,-56.5 1826.43,-56.5"/>
<text text-anchor="middle" x="1852.93" y="-63.5" font-family="Helvetica,sans-Serif" font-size="10.00">cxxabi.h</text>
</g>
<!-- Node35&#45;&gt;Node36 -->
<g id="edge63" class="edge"><title>Node35&#45;&gt;Node36</title>
<path fill="none" stroke="midnightblue" d="M1852.93,-118.403C1852.93,-109.938 1852.93,-96.7283 1852.93,-85.8199"/>
<polygon fill="midnightblue" stroke="midnightblue" points="1856.43,-85.5806 1852.93,-75.5806 1849.43,-85.5806 1856.43,-85.5806"/>
</g>
<!-- Node44&#45;&gt;Node16 -->
<g id="edge86" class="edge"><title>Node44&#45;&gt;Node16</title>
<path fill="none" stroke="midnightblue" d="M1450.53,-194.925C1603.08,-194.339 2282.39,-189.196 2487.93,-144 2491.18,-143.286 2494.52,-142.312 2497.78,-141.201"/>
<polygon fill="midnightblue" stroke="midnightblue" points="2499.17,-144.419 2507.26,-137.579 2496.67,-137.881 2499.17,-144.419"/>
</g>
<!-- Node44&#45;&gt;Node17 -->
<g id="edge87" class="edge"><title>Node44&#45;&gt;Node17</title>
<path fill="none" stroke="midnightblue" d="M1434.08,-186.488C1447.65,-177.582 1467.68,-162.353 1478.93,-144 1489.93,-126.069 1494.57,-102.122 1496.52,-85.7224"/>
<polygon fill="midnightblue" stroke="midnightblue" points="1500.01,-86.0325 1497.49,-75.7411 1493.04,-85.3562 1500.01,-86.0325"/>
</g>
<!-- Node44&#45;&gt;Node18 -->
<g id="edge84" class="edge"><title>Node44&#45;&gt;Node18</title>
<path fill="none" stroke="midnightblue" d="M1450.75,-193.88C1557.97,-189.807 1924.61,-174.399 2225.93,-144 2332.32,-133.267 2592.99,-97.6601 2714.62,-76.1067"/>
<polygon fill="midnightblue" stroke="midnightblue" points="2715.32,-79.5373 2724.54,-74.3232 2714.08,-72.6478 2715.32,-79.5373"/>
</g>
<!-- Node44&#45;&gt;Node22 -->
<g id="edge88" class="edge"><title>Node44&#45;&gt;Node22</title>
<path fill="none" stroke="midnightblue" d="M1389.15,-191.625C1300.15,-181.802 1046.51,-153.339 1009.93,-144 972.431,-134.424 966.706,-120.46 928.935,-112 686.427,-57.6854 618.625,-96.2325 370.935,-76 348.554,-74.1718 323.124,-71.6163 304.848,-69.6954"/>
<polygon fill="midnightblue" stroke="midnightblue" points="305.051,-66.1973 294.737,-68.6207 304.311,-73.1581 305.051,-66.1973"/>
</g>
<!-- Node45 -->
<g id="node46" class="node"><title>Node45</title>
<polygon fill="white" stroke="#bfbfbf" points="2037.93,-118.5 2037.93,-137.5 2093.93,-137.5 2093.93,-118.5 2037.93,-118.5"/>
<text text-anchor="middle" x="2065.93" y="-125.5" font-family="Helvetica,sans-Serif" font-size="10.00">Rtypes.h</text>
</g>
<!-- Node44&#45;&gt;Node45 -->
<g id="edge79" class="edge"><title>Node44&#45;&gt;Node45</title>
<path fill="none" stroke="midnightblue" d="M1450.73,-193.262C1536.06,-188.224 1782.66,-172.15 1985.93,-144 1999.63,-142.103 2014.54,-139.465 2027.74,-136.93"/>
<polygon fill="midnightblue" stroke="midnightblue" points="2028.77,-140.296 2037.9,-134.934 2027.42,-133.427 2028.77,-140.296"/>
</g>
<!-- Node46 -->
<g id="node47" class="node"><title>Node46</title>
<g id="a_node47"><a xlink:href="base_2std__ext_2_time_8h.html" target="_top" xlink:title="base/std_ext/time.h">
<polygon fill="white" stroke="black" points="1052.43,-118.5 1052.43,-137.5 1155.43,-137.5 1155.43,-118.5 1052.43,-118.5"/>
<text text-anchor="middle" x="1103.93" y="-125.5" font-family="Helvetica,sans-Serif" font-size="10.00">base/std_ext/time.h</text>
</a>
</g>
</g>
<!-- Node44&#45;&gt;Node46 -->
<g id="edge80" class="edge"><title>Node44&#45;&gt;Node46</title>
<path fill="none" stroke="midnightblue" d="M1389.1,-188.939C1341.85,-179.6 1248.74,-160.992 1169.93,-144 1163.75,-142.667 1157.25,-141.232 1150.84,-139.796"/>
<polygon fill="midnightblue" stroke="midnightblue" points="1151.43,-136.34 1140.9,-137.554 1149.89,-143.169 1151.43,-136.34"/>
</g>
<!-- Node48 -->
<g id="node49" class="node"><title>Node48</title>
<polygon fill="white" stroke="#bfbfbf" points="1154.43,-56.5 1154.43,-75.5 1195.43,-75.5 1195.43,-56.5 1154.43,-56.5"/>
<text text-anchor="middle" x="1174.93" y="-63.5" font-family="Helvetica,sans-Serif" font-size="10.00">ctime</text>
</g>
<!-- Node44&#45;&gt;Node48 -->
<g id="edge90" class="edge"><title>Node44&#45;&gt;Node48</title>
<path fill="none" stroke="midnightblue" d="M1403.48,-186.403C1361.55,-164.497 1250.47,-106.464 1200.24,-80.2198"/>
<polygon fill="midnightblue" stroke="midnightblue" points="1201.8,-77.0883 1191.32,-75.5598 1198.56,-83.2926 1201.8,-77.0883"/>
</g>
<!-- Node49 -->
<g id="node50" class="node"><title>Node49</title>
<polygon fill="white" stroke="#bfbfbf" points="1363.93,-118.5 1363.93,-137.5 1401.93,-137.5 1401.93,-118.5 1363.93,-118.5"/>
<text text-anchor="middle" x="1382.93" y="-125.5" font-family="Helvetica,sans-Serif" font-size="10.00">tuple</text>
</g>
<!-- Node44&#45;&gt;Node49 -->
<g id="edge85" class="edge"><title>Node44&#45;&gt;Node49</title>
<path fill="none" stroke="midnightblue" d="M1415.1,-186.372C1409.48,-176.348 1400.06,-159.546 1392.86,-146.708"/>
<polygon fill="midnightblue" stroke="midnightblue" points="1395.83,-144.852 1387.89,-137.841 1389.73,-148.275 1395.83,-144.852"/>
</g>
<!-- Node50 -->
<g id="node51" class="node"><title>Node50</title>
<polygon fill="white" stroke="#bfbfbf" points="1419.93,-118.5 1419.93,-137.5 1469.93,-137.5 1469.93,-118.5 1419.93,-118.5"/>
<text text-anchor="middle" x="1444.93" y="-125.5" font-family="Helvetica,sans-Serif" font-size="10.00">iomanip</text>
</g>
<!-- Node44&#45;&gt;Node50 -->
<g id="edge89" class="edge"><title>Node44&#45;&gt;Node50</title>
<path fill="none" stroke="midnightblue" d="M1423.2,-186.372C1426.93,-176.544 1433.12,-160.202 1437.94,-147.467"/>
<polygon fill="midnightblue" stroke="midnightblue" points="1441.32,-148.433 1441.59,-137.841 1434.77,-145.953 1441.32,-148.433"/>
</g>
<!-- Node46&#45;&gt;Node34 -->
<g id="edge81" class="edge"><title>Node46&#45;&gt;Node34</title>
<path fill="none" stroke="midnightblue" d="M1080.01,-118.403C1051.24,-108.067 1002.78,-90.6564 970.333,-78.9994"/>
<polygon fill="midnightblue" stroke="midnightblue" points="971.412,-75.668 960.817,-75.5806 969.045,-82.2557 971.412,-75.668"/>
</g>
<!-- Node47 -->
<g id="node48" class="node"><title>Node47</title>
<polygon fill="white" stroke="#bfbfbf" points="1080.93,-56.5 1080.93,-75.5 1126.93,-75.5 1126.93,-56.5 1080.93,-56.5"/>
<text text-anchor="middle" x="1103.93" y="-63.5" font-family="Helvetica,sans-Serif" font-size="10.00">cstring</text>
</g>
<!-- Node46&#45;&gt;Node47 -->
<g id="edge82" class="edge"><title>Node46&#45;&gt;Node47</title>
<path fill="none" stroke="midnightblue" d="M1103.93,-118.403C1103.93,-109.938 1103.93,-96.7283 1103.93,-85.8199"/>
<polygon fill="midnightblue" stroke="midnightblue" points="1107.43,-85.5806 1103.93,-75.5806 1100.43,-85.5806 1107.43,-85.5806"/>
</g>
<!-- Node46&#45;&gt;Node48 -->
<g id="edge83" class="edge"><title>Node46&#45;&gt;Node48</title>
<path fill="none" stroke="midnightblue" d="M1114.11,-118.403C1125.28,-108.958 1143.45,-93.6056 1157.03,-82.1342"/>
<polygon fill="midnightblue" stroke="midnightblue" points="1159.4,-84.7085 1164.78,-75.5806 1154.88,-79.3619 1159.4,-84.7085"/>
</g>
<!-- Node51&#45;&gt;Node2 -->
<g id="edge96" class="edge"><title>Node51&#45;&gt;Node2</title>
<path fill="none" stroke="midnightblue" d="M297.744,-254.429C246.847,-241.032 162.246,-209.556 132.935,-144 116.971,-108.295 106.498,-84.8233 132.935,-56 149.588,-37.8437 513.322,-18.0552 622.33,-12.5148"/>
<polygon fill="midnightblue" stroke="midnightblue" points="622.539,-16.0088 632.35,-12.0093 622.186,-9.01765 622.539,-16.0088"/>
</g>
<!-- Node51&#45;&gt;Node3 -->
<g id="edge97" class="edge"><title>Node51&#45;&gt;Node3</title>
<path fill="none" stroke="midnightblue" d="M387.298,-262.528C626.223,-259.771 1663.53,-242.252 1968.93,-144 1997.7,-134.744 2000.75,-122.914 2028.93,-112 2076.16,-93.7111 2133.36,-80.7258 2169.71,-73.5458"/>
<polygon fill="midnightblue" stroke="midnightblue" points="2170.67,-76.9235 2179.83,-71.5897 2169.35,-70.0506 2170.67,-76.9235"/>
</g>
<!-- Node51&#45;&gt;Node26 -->
<g id="edge98" class="edge"><title>Node51&#45;&gt;Node26</title>
<path fill="none" stroke="midnightblue" d="M369.13,-254.439C379.209,-251.979 390.48,-249.546 400.935,-248 483.884,-235.735 1086.82,-205.221 1224.15,-198.377"/>
<polygon fill="midnightblue" stroke="midnightblue" points="1224.45,-201.866 1234.26,-197.874 1224.1,-194.875 1224.45,-201.866"/>
</g>
<!-- Node51&#45;&gt;Node32 -->
<g id="edge100" class="edge"><title>Node51&#45;&gt;Node32</title>
<path fill="none" stroke="midnightblue" d="M297.774,-254.489C193.482,-230.701 -71.7211,-158.485 18.9347,-56 40.5886,-31.5207 260.566,-17.4621 348.702,-12.775"/>
<polygon fill="midnightblue" stroke="midnightblue" points="348.971,-16.2658 358.775,-12.2498 348.606,-9.27532 348.971,-16.2658"/>
</g>
<!-- Node51&#45;&gt;Node43 -->
<g id="edge99" class="edge"><title>Node51&#45;&gt;Node43</title>
<path fill="none" stroke="midnightblue" d="M338.197,-254.208C338.839,-232.722 340.497,-177.167 341.373,-147.814"/>
<polygon fill="midnightblue" stroke="midnightblue" points="344.876,-147.75 341.677,-137.65 337.88,-147.541 344.876,-147.75"/>
</g>
<!-- Node52&#45;&gt;Node15 -->
<g id="edge112" class="edge"><title>Node52&#45;&gt;Node15</title>
<path fill="none" stroke="midnightblue" d="M2832.95,-186.41C2879.61,-174.92 2955.98,-154.752 2963.93,-144 3003.26,-90.87 2901.39,-43.1159 2846.81,-22.1934"/>
<polygon fill="midnightblue" stroke="midnightblue" points="2847.8,-18.8289 2837.21,-18.6037 2845.35,-25.3853 2847.8,-18.8289"/>
</g>
<!-- Node52&#45;&gt;Node29 -->
<g id="edge103" class="edge"><title>Node52&#45;&gt;Node29</title>
<path fill="none" stroke="midnightblue" d="M2760.61,-186.423C2748.68,-183.93 2735.3,-181.482 2722.93,-180 2311.35,-130.664 2199.64,-213.247 1790.93,-144 1785.8,-143.131 1780.46,-141.875 1775.27,-140.456"/>
<polygon fill="midnightblue" stroke="midnightblue" points="1776.15,-137.066 1765.56,-137.582 1774.16,-143.778 1776.15,-137.066"/>
</g>
<!-- Node53 -->
<g id="node54" class="node"><title>Node53</title>
<g id="a_node54"><a xlink:href="printable_8h.html" target="_top" xlink:title="base/std_ext/printable.h">
<polygon fill="white" stroke="black" points="2834.43,-118.5 2834.43,-137.5 2955.43,-137.5 2955.43,-118.5 2834.43,-118.5"/>
<text text-anchor="middle" x="2894.93" y="-125.5" font-family="Helvetica,sans-Serif" font-size="10.00">base/std_ext/printable.h</text>
</a>
</g>
</g>
<!-- Node52&#45;&gt;Node53 -->
<g id="edge104" class="edge"><title>Node52&#45;&gt;Node53</title>
<path fill="none" stroke="midnightblue" d="M2809.75,-186.372C2825.96,-175.452 2854.12,-156.489 2873.6,-143.369"/>
<polygon fill="midnightblue" stroke="midnightblue" points="2875.78,-146.12 2882.12,-137.63 2871.87,-140.313 2875.78,-146.12"/>
</g>
<!-- Node53&#45;&gt;Node12 -->
<g id="edge111" class="edge"><title>Node53&#45;&gt;Node12</title>
<path fill="none" stroke="midnightblue" d="M2918.86,-118.403C2947.63,-108.067 2996.09,-90.6564 3028.54,-78.9994"/>
<polygon fill="midnightblue" stroke="midnightblue" points="3029.82,-82.2557 3038.05,-75.5806 3027.46,-75.668 3029.82,-82.2557"/>
</g>
<!-- Node53&#45;&gt;Node18 -->
<g id="edge110" class="edge"><title>Node53&#45;&gt;Node18</title>
<path fill="none" stroke="midnightblue" d="M2875.02,-118.403C2851.49,-108.245 2812.12,-91.2547 2785.14,-79.6074"/>
<polygon fill="midnightblue" stroke="midnightblue" points="2786.38,-76.3303 2775.81,-75.5806 2783.61,-82.7572 2786.38,-76.3303"/>
</g>
<!-- Node54 -->
<g id="node55" class="node"><title>Node54</title>
<g id="a_node55"><a xlink:href="container_8h.html" target="_top" xlink:title="container.h">
<polygon fill="white" stroke="black" points="2326.43,-56.5 2326.43,-75.5 2391.43,-75.5 2391.43,-56.5 2326.43,-56.5"/>
<text text-anchor="middle" x="2358.93" y="-63.5" font-family="Helvetica,sans-Serif" font-size="10.00">container.h</text>
</a>
</g>
</g>
<!-- Node53&#45;&gt;Node54 -->
<g id="edge105" class="edge"><title>Node53&#45;&gt;Node54</title>
<path fill="none" stroke="midnightblue" d="M2834.23,-120.205C2724.73,-107.947 2496.71,-82.4229 2401.82,-71.8002"/>
<polygon fill="midnightblue" stroke="midnightblue" points="2402.05,-68.3041 2391.72,-70.6698 2401.27,-75.2606 2402.05,-68.3041"/>
</g>
<!-- Node54&#45;&gt;Node2 -->
<g id="edge109" class="edge"><title>Node54&#45;&gt;Node2</title>
<path fill="none" stroke="midnightblue" d="M2326.29,-60.9436C2310.5,-59.1351 2291.26,-57.1558 2273.93,-56 1633.43,-13.2657 847.958,-10.9575 683.859,-10.9636"/>
<polygon fill="midnightblue" stroke="midnightblue" points="683.54,-7.46364 673.541,-10.9673 683.542,-14.4636 683.54,-7.46364"/>
</g>
<!-- Node54&#45;&gt;Node15 -->
<g id="edge106" class="edge"><title>Node54&#45;&gt;Node15</title>
<path fill="none" stroke="midnightblue" d="M2391.49,-58.4175C2396.32,-57.542 2401.25,-56.7048 2405.93,-56 2545.4,-35.0081 2713.02,-19.6293 2782.41,-13.6917"/>
<polygon fill="midnightblue" stroke="midnightblue" points="2783.02,-17.153 2792.69,-12.8204 2782.43,-10.178 2783.02,-17.153"/>
</g>
<!-- Node54&#45;&gt;Node25 -->
<g id="edge107" class="edge"><title>Node54&#45;&gt;Node25</title>
<path fill="none" stroke="midnightblue" d="M2326.38,-58.4233C2321.54,-57.5469 2316.62,-56.708 2311.93,-56 2178.19,-35.7784 2018.26,-20.6124 1946.32,-14.2666"/>
<polygon fill="midnightblue" stroke="midnightblue" points="1946.22,-10.7444 1935.95,-13.3595 1945.61,-17.7178 1946.22,-10.7444"/>
</g>
<!-- Node55 -->
<g id="node56" class="node"><title>Node55</title>
<polygon fill="white" stroke="#bfbfbf" points="2333.43,-0.5 2333.43,-19.5 2384.43,-19.5 2384.43,-0.5 2333.43,-0.5"/>
<text text-anchor="middle" x="2358.93" y="-7.5" font-family="Helvetica,sans-Serif" font-size="10.00">numeric</text>
</g>
<!-- Node54&#45;&gt;Node55 -->
<g id="edge108" class="edge"><title>Node54&#45;&gt;Node55</title>
<path fill="none" stroke="midnightblue" d="M2358.93,-56.083C2358.93,-49.0059 2358.93,-38.8611 2358.93,-29.9865"/>
<polygon fill="midnightblue" stroke="midnightblue" points="2362.43,-29.751 2358.93,-19.7511 2355.43,-29.7511 2362.43,-29.751"/>
</g>
<!-- Node56&#45;&gt;Node1 -->
<g id="edge124" class="edge"><title>Node56&#45;&gt;Node1</title>
<path fill="none" stroke="midnightblue" d="M2428.3,-432.518C2406.54,-430.829 2381.03,-429.061 2357.93,-428 1505.79,-388.86 1290.36,-444.441 438.935,-392 425.204,-391.154 410.283,-389.761 396.784,-388.32"/>
<polygon fill="midnightblue" stroke="midnightblue" points="397.105,-384.834 386.781,-387.217 396.337,-391.792 397.105,-384.834"/>
</g>
<!-- Node56&#45;&gt;Node3 -->
<g id="edge134" class="edge"><title>Node56&#45;&gt;Node3</title>
<path fill="none" stroke="midnightblue" d="M2499.5,-428.406C2513.81,-420.825 2532.95,-408.426 2543.93,-392 2578.56,-340.218 2598.95,-157.981 2556.93,-112 2510.74,-61.4451 2324.14,-87.5299 2242.57,-76.6657"/>
<polygon fill="midnightblue" stroke="midnightblue" points="2242.68,-73.1361 2232.24,-74.9686 2241.54,-80.0435 2242.68,-73.1361"/>
</g>
<!-- Node56&#45;&gt;Node5 -->
<g id="edge125" class="edge"><title>Node56&#45;&gt;Node5</title>
<path fill="none" stroke="midnightblue" d="M2448.13,-428.444C2412.55,-419.162 2355.62,-404.309 2316.59,-394.127"/>
<polygon fill="midnightblue" stroke="midnightblue" points="2317.14,-390.654 2306.58,-391.516 2315.37,-397.427 2317.14,-390.654"/>
</g>
<!-- Node56&#45;&gt;Node6 -->
<g id="edge126" class="edge"><title>Node56&#45;&gt;Node6</title>
<path fill="none" stroke="midnightblue" d="M2533.69,-429.285C2536.82,-428.846 2539.92,-428.414 2542.93,-428 2666.36,-411.051 2713.45,-454.993 2820.93,-392 2893.62,-349.404 2941.14,-254.61 2958.52,-214.97"/>
<polygon fill="midnightblue" stroke="midnightblue" points="2961.84,-216.112 2962.54,-205.54 2955.4,-213.367 2961.84,-216.112"/>
</g>
<!-- Node56&#45;&gt;Node15 -->
<g id="edge137" class="edge"><title>Node56&#45;&gt;Node15</title>
<path fill="none" stroke="midnightblue" d="M2533.67,-429.101C2536.8,-428.708 2539.91,-428.337 2542.93,-428 2644.81,-416.658 3459.93,-429.505 3459.93,-327 3459.93,-327 3459.93,-327 3459.93,-195 3459.93,-157.055 3464.48,-140.941 3439.93,-112 3413.4,-80.7091 3392.1,-93.3721 3354.93,-76 3337.29,-67.7516 3334.65,-61.4154 3315.93,-56 3227.29,-30.3438 2943.52,-16.3783 2847.24,-12.2876"/>
<polygon fill="midnightblue" stroke="midnightblue" points="2847.11,-8.77893 2836.97,-11.8585 2846.81,-15.7728 2847.11,-8.77893"/>
</g>
<!-- Node56&#45;&gt;Node16 -->
<g id="edge138" class="edge"><title>Node56&#45;&gt;Node16</title>
<path fill="none" stroke="midnightblue" d="M2494,-428.436C2504.85,-420.471 2519.51,-407.515 2525.93,-392 2561.3,-306.626 2540.12,-191.868 2529.7,-147.543"/>
<polygon fill="midnightblue" stroke="midnightblue" points="2533.05,-146.511 2527.27,-137.634 2526.25,-148.18 2533.05,-146.511"/>
</g>
<!-- Node56&#45;&gt;Node22 -->
<g id="edge135" class="edge"><title>Node56&#45;&gt;Node22</title>
<path fill="none" stroke="midnightblue" d="M2428.28,-432.867C2406.51,-431.231 2381.02,-429.409 2357.93,-428 1523.38,-377.044 1305.97,-458.862 478.935,-336 377.856,-320.984 323.942,-356.272 255.935,-280 206.229,-224.254 228.795,-183.013 251.935,-112 255.207,-101.957 261.175,-91.872 266.763,-83.8025"/>
<polygon fill="midnightblue" stroke="midnightblue" points="269.647,-85.7889 272.747,-75.6576 264.005,-81.6445 269.647,-85.7889"/>
</g>
<!-- Node56&#45;&gt;Node26 -->
<g id="edge136" class="edge"><title>Node56&#45;&gt;Node26</title>
<path fill="none" stroke="midnightblue" d="M2428.4,-432.544C2232.22,-415.809 1548.87,-356.614 1452.93,-336 1376.81,-319.643 1343.98,-332.992 1286.93,-280 1268.44,-262.82 1259.35,-234.308 1255.16,-215.583"/>
<polygon fill="midnightblue" stroke="midnightblue" points="1258.57,-214.742 1253.19,-205.614 1251.7,-216.103 1258.57,-214.742"/>
</g>
<!-- Node56&#45;&gt;Node45 -->
<g id="edge133" class="edge"><title>Node56&#45;&gt;Node45</title>
<path fill="none" stroke="midnightblue" d="M2472.36,-428.473C2444.17,-400.654 2351.17,-310.727 2264.93,-248 2205.82,-204.996 2130.43,-163.118 2091.6,-142.412"/>
<polygon fill="midnightblue" stroke="midnightblue" points="2093.03,-139.206 2082.55,-137.616 2089.75,-145.391 2093.03,-139.206"/>
</g>
<!-- Node57 -->
<g id="node58" class="node"><title>Node57</title>
<g id="a_node58"><a xlink:href="_wrap_t_tree_8h.html" target="_top" xlink:title="base/WrapTTree.h">
<polygon fill="white" stroke="black" points="2641.93,-118.5 2641.93,-137.5 2739.93,-137.5 2739.93,-118.5 2641.93,-118.5"/>
<text text-anchor="middle" x="2690.93" y="-125.5" font-family="Helvetica,sans-Serif" font-size="10.00">base/WrapTTree.h</text>
</a>
</g>
</g>
<!-- Node56&#45;&gt;Node57 -->
<g id="edge127" class="edge"><title>Node56&#45;&gt;Node57</title>
<path fill="none" stroke="midnightblue" d="M2533.69,-429.243C2536.81,-428.814 2539.92,-428.397 2542.93,-428 2655.11,-413.263 3041.93,-440.138 3041.93,-327 3041.93,-327 3041.93,-327 3041.93,-263 3041.93,-225.055 3049.86,-205.687 3021.93,-180 3012.01,-170.871 2842.59,-148.184 2750.09,-136.388"/>
<polygon fill="midnightblue" stroke="midnightblue" points="2750.39,-132.898 2740.03,-135.109 2749.51,-139.842 2750.39,-132.898"/>
</g>
<!-- Node57&#45;&gt;Node2 -->
<g id="edge130" class="edge"><title>Node57&#45;&gt;Node2</title>
<path fill="none" stroke="midnightblue" d="M2655.27,-118.456C2644.59,-116.113 2632.83,-113.742 2621.93,-112 2468.39,-87.4466 2421.34,-125.499 2273.93,-76 2257.68,-70.5405 2257.39,-60.8481 2240.93,-56 2086.45,-10.4728 891.938,-10.5622 683.811,-10.9273"/>
<polygon fill="midnightblue" stroke="midnightblue" points="683.591,-7.42765 673.598,-10.9469 683.605,-14.4276 683.591,-7.42765"/>
</g>
<!-- Node57&#45;&gt;Node3 -->
<g id="edge132" class="edge"><title>Node57&#45;&gt;Node3</title>
<path fill="none" stroke="midnightblue" d="M2659.06,-118.497C2649.15,-116.099 2638.14,-113.687 2627.93,-112 2459.69,-84.183 2414.35,-102.771 2245.93,-76 2244.67,-75.7989 2243.38,-75.5815 2242.09,-75.3512"/>
<polygon fill="midnightblue" stroke="midnightblue" points="2242.58,-71.881 2232.09,-73.3869 2241.23,-78.7496 2242.58,-71.881"/>
</g>
<!-- Node57&#45;&gt;Node15 -->
<g id="edge129" class="edge"><title>Node57&#45;&gt;Node15</title>
<path fill="none" stroke="midnightblue" d="M2678.82,-118.305C2661.08,-104.518 2631.81,-77.0478 2647.93,-56 2664.22,-34.7512 2738.83,-21.2723 2782.62,-15.0477"/>
<polygon fill="midnightblue" stroke="midnightblue" points="2783.34,-18.4815 2792.77,-13.6556 2782.39,-11.5464 2783.34,-18.4815"/>
</g>
<!-- Node57&#45;&gt;Node25 -->
<g id="edge131" class="edge"><title>Node57&#45;&gt;Node25</title>
<path fill="none" stroke="midnightblue" d="M2654.89,-118.477C2644.31,-116.162 2632.7,-113.8 2621.93,-112 2487.31,-89.4758 2448.25,-113.252 2316.93,-76 2296.66,-70.2477 2294.2,-61.8014 2273.93,-56 2157.68,-22.7144 2013.72,-14.0494 1946.23,-11.7937"/>
<polygon fill="midnightblue" stroke="midnightblue" points="1946.17,-8.29049 1936.07,-11.484 1945.96,-15.2872 1946.17,-8.29049"/>
</g>
<!-- Node58 -->
<g id="node59" class="node"><title>Node58</title>
<polygon fill="white" stroke="#bfbfbf" points="2656.93,-56.5 2656.93,-75.5 2706.93,-75.5 2706.93,-56.5 2656.93,-56.5"/>
<text text-anchor="middle" x="2681.93" y="-63.5" font-family="Helvetica,sans-Serif" font-size="10.00">TTree.h</text>
</g>
<!-- Node57&#45;&gt;Node58 -->
<g id="edge128" class="edge"><title>Node57&#45;&gt;Node58</title>
<path fill="none" stroke="midnightblue" d="M2689.65,-118.403C2688.36,-109.849 2686.35,-96.4497 2684.71,-85.4762"/>
<polygon fill="midnightblue" stroke="midnightblue" points="2688.17,-84.9507 2683.22,-75.5806 2681.24,-85.9892 2688.17,-84.9507"/>
</g>
<!-- Node60 -->
<g id="node61" class="node"><title>Node60</title>
<polygon fill="white" stroke="#bfbfbf" points="3488.43,-372.5 3488.43,-391.5 3577.43,-391.5 3577.43,-372.5 3488.43,-372.5"/>
<text text-anchor="middle" x="3532.93" y="-379.5" font-family="Helvetica,sans-Serif" font-size="10.00">easylogging++.h</text>
</g>
<!-- Node59&#45;&gt;Node60 -->
<g id="edge140" class="edge"><title>Node59&#45;&gt;Node60</title>
<path fill="none" stroke="midnightblue" d="M2630.16,-429.175C2633.12,-428.729 2636.07,-428.329 2638.93,-428 3007.97,-385.665 3104.23,-428.06 3473.93,-392 3475.24,-391.873 3476.56,-391.736 3477.89,-391.591"/>
<polygon fill="midnightblue" stroke="midnightblue" points="3478.71,-395.017 3488.22,-390.341 3477.87,-388.068 3478.71,-395.017"/>
</g>
</g>
</svg>
