<?xml version="1.0" encoding="UTF-8" standalone="no"?>
<!DOCTYPE svg PUBLIC "-//W3C//DTD SVG 1.1//EN"
 "http://www.w3.org/Graphics/SVG/1.1/DTD/svg11.dtd">
<!-- Generated by graphviz version 2.36.0 (20140111.2315)
 -->
<!-- Title: src/unpacker/detail/UnpackerAcqu_FileFormatMk1.h Pages: 1 -->
<svg width="320pt" height="108pt"
 viewBox="0.00 0.00 320.00 108.00" xmlns="http://www.w3.org/2000/svg" xmlns:xlink="http://www.w3.org/1999/xlink">
<g id="graph0" class="graph" transform="scale(1 1) rotate(0) translate(4 104)">
<title>src/unpacker/detail/UnpackerAcqu_FileFormatMk1.h</title>
<polygon fill="white" stroke="none" points="-4,4 -4,-104 316,-104 316,4 -4,4"/>
<!-- Node60 -->
<g id="node1" class="node"><title>Node60</title>
<polygon fill="#bfbfbf" stroke="black" points="63.5,-69 63.5,-99 226.5,-99 226.5,-69 63.5,-69"/>
<text text-anchor="start" x="71.5" y="-87" font-family="Helvetica,sans-Serif" font-size="10.00">src/unpacker/detail</text>
<text text-anchor="middle" x="145" y="-76" font-family="Helvetica,sans-Serif" font-size="10.00">/UnpackerAcqu_FileFormatMk1.h</text>
</g>
<!-- Node61 -->
<g id="node2" class="node"><title>Node61</title>
<g id="a_node2"><a xlink:href="_unpacker_acqu__detail_8cc.html" target="_top" xlink:title="src/unpacker/detail\l/UnpackerAcqu_detail.cc">
<polygon fill="white" stroke="black" points="0,-1 0,-31 126,-31 126,-1 0,-1"/>
<text text-anchor="start" x="8" y="-19" font-family="Helvetica,sans-Serif" font-size="10.00">src/unpacker/detail</text>
<text text-anchor="middle" x="63" y="-8" font-family="Helvetica,sans-Serif" font-size="10.00">/UnpackerAcqu_detail.cc</text>
</a>
</g>
</g>
<!-- Node60&#45;&gt;Node61 -->
<g id="edge1" class="edge"><title>Node60&#45;&gt;Node61</title>
<path fill="none" stroke="midnightblue" d="M119.294,-62.3094C106.662,-52.1426 91.7698,-40.1562 80.4764,-31.0663"/>
<polygon fill="midnightblue" stroke="midnightblue" points="117.223,-65.1354 127.207,-68.679 121.612,-59.6823 117.223,-65.1354"/>
</g>
<!-- Node62 -->
<g id="node3" class="node"><title>Node62</title>
<g id="a_node3"><a xlink:href="_unpacker_acqu___file_format_mk1_8cc.html" target="_top" xlink:title="src/unpacker/detail\l/UnpackerAcqu_FileFormatMk1.cc">
<polygon fill="white" stroke="black" points="144,-1 144,-31 312,-31 312,-1 144,-1"/>
<text text-anchor="start" x="152" y="-19" font-family="Helvetica,sans-Serif" font-size="10.00">src/unpacker/detail</text>
<text text-anchor="middle" x="228" y="-8" font-family="Helvetica,sans-Serif" font-size="10.00">/UnpackerAcqu_FileFormatMk1.cc</text>
</a>
</g>
</g>
<!-- Node60&#45;&gt;Node62 -->
<g id="edge2" class="edge"><title>Node60&#45;&gt;Node62</title>
<path fill="none" stroke="midnightblue" d="M171.02,-62.3094C183.806,-52.1426 198.879,-40.1562 210.311,-31.0663"/>
<polygon fill="midnightblue" stroke="midnightblue" points="168.658,-59.7155 163.01,-68.679 173.015,-65.1945 168.658,-59.7155"/>
</g>
</g>
</svg>
