<?xml version="1.0" encoding="UTF-8" standalone="no"?>
<!DOCTYPE svg PUBLIC "-//W3C//DTD SVG 1.1//EN"
 "http://www.w3.org/Graphics/SVG/1.1/DTD/svg11.dtd">
<!-- Generated by graphviz version 2.36.0 (20140111.2315)
 -->
<!-- Title: src/reconstruct/UpdateableManager.cc Pages: 1 -->
<svg width="1717pt" height="400pt"
 viewBox="0.00 0.00 1717.00 400.00" xmlns="http://www.w3.org/2000/svg" xmlns:xlink="http://www.w3.org/1999/xlink">
<g id="graph0" class="graph" transform="scale(1 1) rotate(0) translate(4 396)">
<title>src/reconstruct/UpdateableManager.cc</title>
<polygon fill="white" stroke="none" points="-4,4 -4,-396 1713,-396 1713,4 -4,4"/>
<!-- Node0 -->
<g id="node1" class="node"><title>Node0</title>
<polygon fill="#bfbfbf" stroke="black" points="768,-361 768,-391 902,-391 902,-361 768,-361"/>
<text text-anchor="start" x="776" y="-379" font-family="Helvetica,sans-Serif" font-size="10.00">src/reconstruct/Updateable</text>
<text text-anchor="middle" x="835" y="-368" font-family="Helvetica,sans-Serif" font-size="10.00">Manager.cc</text>
</g>
<!-- Node1 -->
<g id="node2" class="node"><title>Node1</title>
<g id="a_node2"><a xlink:href="_updateable_manager_8h.html" target="_top" xlink:title="UpdateableManager.h">
<polygon fill="white" stroke="black" points="617,-304.5 617,-323.5 729,-323.5 729,-304.5 617,-304.5"/>
<text text-anchor="middle" x="673" y="-311.5" font-family="Helvetica,sans-Serif" font-size="10.00">UpdateableManager.h</text>
</a>
</g>
</g>
<!-- Node0&#45;&gt;Node1 -->
<g id="edge1" class="edge"><title>Node0&#45;&gt;Node1</title>
<path fill="none" stroke="midnightblue" d="M797.018,-360.933C769.321,-350.674 732.17,-336.915 705.77,-327.137"/>
<polygon fill="midnightblue" stroke="midnightblue" points="706.813,-323.791 696.22,-323.6 704.382,-330.355 706.813,-323.791"/>
</g>
<!-- Node2 -->
<g id="node3" class="node"><title>Node2</title>
<g id="a_node3"><a xlink:href="_t_i_d_8h.html" target="_top" xlink:title="tree/TID.h">
<polygon fill="white" stroke="black" points="350.5,-248.5 350.5,-267.5 411.5,-267.5 411.5,-248.5 350.5,-248.5"/>
<text text-anchor="middle" x="381" y="-255.5" font-family="Helvetica,sans-Serif" font-size="10.00">tree/TID.h</text>
</a>
</g>
</g>
<!-- Node0&#45;&gt;Node2 -->
<g id="edge57" class="edge"><title>Node0&#45;&gt;Node2</title>
<path fill="none" stroke="midnightblue" d="M767.711,-360.951C722.412,-351.231 661.422,-337.638 608,-324 540.793,-306.843 463.261,-283.971 418.412,-270.433"/>
<polygon fill="midnightblue" stroke="midnightblue" points="419.401,-267.075 408.816,-267.528 417.373,-273.775 419.401,-267.075"/>
</g>
<!-- Node15 -->
<g id="node16" class="node"><title>Node15</title>
<polygon fill="white" stroke="#bfbfbf" points="518.5,-118.5 518.5,-137.5 577.5,-137.5 577.5,-118.5 518.5,-118.5"/>
<text text-anchor="middle" x="548" y="-125.5" font-family="Helvetica,sans-Serif" font-size="10.00">stdexcept</text>
</g>
<!-- Node0&#45;&gt;Node15 -->
<g id="edge63" class="edge"><title>Node0&#45;&gt;Node15</title>
<path fill="none" stroke="midnightblue" d="M821.226,-360.747C797.735,-336.672 748.082,-286.783 703,-248 656.618,-208.099 598.663,-165.359 568.458,-143.582"/>
<polygon fill="midnightblue" stroke="midnightblue" points="570.183,-140.512 560.019,-137.523 566.101,-146.198 570.183,-140.512"/>
</g>
<!-- Node16 -->
<g id="node17" class="node"><title>Node16</title>
<polygon fill="white" stroke="#bfbfbf" points="311.5,-56.5 311.5,-75.5 340.5,-75.5 340.5,-56.5 311.5,-56.5"/>
<text text-anchor="middle" x="326" y="-63.5" font-family="Helvetica,sans-Serif" font-size="10.00">list</text>
</g>
<!-- Node0&#45;&gt;Node16 -->
<g id="edge60" class="edge"><title>Node0&#45;&gt;Node16</title>
<path fill="none" stroke="midnightblue" d="M767.728,-372.705C569.264,-365.047 0,-336.341 0,-259 0,-259 0,-259 0,-195 0,-149.22 22.034,-136.03 61,-112 101.207,-87.2046 243.554,-73.4836 301.345,-68.8284"/>
<polygon fill="midnightblue" stroke="midnightblue" points="301.718,-72.3099 311.415,-68.0407 301.172,-65.3312 301.718,-72.3099"/>
</g>
<!-- Node18 -->
<g id="node19" class="node"><title>Node18</title>
<g id="a_node19"><a xlink:href="_reconstruct__traits_8h.html" target="_top" xlink:title="Reconstruct_traits.h">
<polygon fill="white" stroke="black" points="1055.5,-248.5 1055.5,-267.5 1160.5,-267.5 1160.5,-248.5 1055.5,-248.5"/>
<text text-anchor="middle" x="1108" y="-255.5" font-family="Helvetica,sans-Serif" font-size="10.00">Reconstruct_traits.h</text>
</a>
</g>
</g>
<!-- Node0&#45;&gt;Node18 -->
<g id="edge56" class="edge"><title>Node0&#45;&gt;Node18</title>
<path fill="none" stroke="midnightblue" d="M868.202,-360.892C922.001,-338.033 1027.36,-293.267 1078.6,-271.491"/>
<polygon fill="midnightblue" stroke="midnightblue" points="1079.97,-274.711 1087.81,-267.579 1077.24,-268.269 1079.97,-274.711"/>
</g>
<!-- Node30 -->
<g id="node31" class="node"><title>Node30</title>
<polygon fill="white" stroke="#bfbfbf" points="1416,-56.5 1416,-75.5 1468,-75.5 1468,-56.5 1416,-56.5"/>
<text text-anchor="middle" x="1442" y="-63.5" font-family="Helvetica,sans-Serif" font-size="10.00">memory</text>
</g>
<!-- Node0&#45;&gt;Node30 -->
<g id="edge61" class="edge"><title>Node0&#45;&gt;Node30</title>
<path fill="none" stroke="midnightblue" d="M902.09,-371.722C1087.11,-361.792 1591,-328.381 1591,-259 1591,-259 1591,-259 1591,-195 1591,-135.237 1521.18,-97.3131 1477.13,-79.3343"/>
<polygon fill="midnightblue" stroke="midnightblue" points="1478.2,-75.9967 1467.61,-75.5965 1475.64,-82.5116 1478.2,-75.9967"/>
</g>
<!-- Node33 -->
<g id="node34" class="node"><title>Node33</title>
<polygon fill="white" stroke="#bfbfbf" points="1527.5,-186.5 1527.5,-205.5 1562.5,-205.5 1562.5,-186.5 1527.5,-186.5"/>
<text text-anchor="middle" x="1545" y="-193.5" font-family="Helvetica,sans-Serif" font-size="10.00">map</text>
</g>
<!-- Node0&#45;&gt;Node33 -->
<g id="edge62" class="edge"><title>Node0&#45;&gt;Node33</title>
<path fill="none" stroke="midnightblue" d="M902.255,-372.367C1054.13,-365.185 1417.8,-340.663 1513,-268 1529.59,-255.336 1537.81,-232.127 1541.72,-215.696"/>
<polygon fill="midnightblue" stroke="midnightblue" points="1545.21,-216.116 1543.79,-205.616 1538.35,-214.708 1545.21,-216.116"/>
</g>
<!-- Node35 -->
<g id="node36" class="node"><title>Node35</title>
<g id="a_node36"><a xlink:href="_logger_8h.html" target="_top" xlink:title="base/Logger.h">
<polygon fill="white" stroke="black" points="1622,-304.5 1622,-323.5 1700,-323.5 1700,-304.5 1622,-304.5"/>
<text text-anchor="middle" x="1661" y="-311.5" font-family="Helvetica,sans-Serif" font-size="10.00">base/Logger.h</text>
</a>
</g>
</g>
<!-- Node0&#45;&gt;Node35 -->
<g id="edge58" class="edge"><title>Node0&#45;&gt;Node35</title>
<path fill="none" stroke="midnightblue" d="M902.135,-372.66C1036.12,-367.525 1346.08,-353.317 1605,-324 1607.23,-323.748 1609.5,-323.47 1611.79,-323.172"/>
<polygon fill="midnightblue" stroke="midnightblue" points="1612.48,-326.61 1621.9,-321.76 1611.51,-319.677 1612.48,-326.61"/>
</g>
<!-- Node1&#45;&gt;Node2 -->
<g id="edge2" class="edge"><title>Node1&#45;&gt;Node2</title>
<path fill="none" stroke="midnightblue" d="M626.732,-304.444C570.229,-293.994 475.554,-276.486 421.706,-266.528"/>
<polygon fill="midnightblue" stroke="midnightblue" points="422.294,-263.077 411.824,-264.7 421.021,-269.961 422.294,-263.077"/>
</g>
<!-- Node1&#45;&gt;Node16 -->
<g id="edge54" class="edge"><title>Node1&#45;&gt;Node16</title>
<path fill="none" stroke="midnightblue" d="M658.596,-304.389C621.611,-282.426 520.018,-223.016 432,-180 395.507,-162.165 374.847,-174.48 348,-144 333.814,-127.894 328.737,-103.212 326.942,-86.1544"/>
<polygon fill="midnightblue" stroke="midnightblue" points="330.4,-85.4681 326.151,-75.7623 323.42,-85.9989 330.4,-85.4681"/>
</g>
<!-- Node1&#45;&gt;Node18 -->
<g id="edge19" class="edge"><title>Node1&#45;&gt;Node18</title>
<path fill="none" stroke="midnightblue" d="M729.423,-305.996C810.826,-295.891 960.714,-277.284 1045.42,-266.769"/>
<polygon fill="midnightblue" stroke="midnightblue" points="1045.93,-270.233 1055.42,-265.527 1045.06,-263.286 1045.93,-270.233"/>
</g>
<!-- Node1&#45;&gt;Node30 -->
<g id="edge55" class="edge"><title>Node1&#45;&gt;Node30</title>
<path fill="none" stroke="midnightblue" d="M729.276,-311.431C821.772,-308.063 1011.41,-297.84 1169,-268 1256.34,-251.463 1285.39,-258.739 1361,-212 1396.04,-190.337 1404.67,-180.382 1424,-144 1433.75,-125.66 1438.26,-102.106 1440.32,-85.9056"/>
<polygon fill="midnightblue" stroke="midnightblue" points="1443.84,-85.9046 1441.43,-75.5881 1436.88,-85.1574 1443.84,-85.9046"/>
</g>
<!-- Node34 -->
<g id="node35" class="node"><title>Node34</title>
<polygon fill="white" stroke="#bfbfbf" points="651.5,-248.5 651.5,-267.5 694.5,-267.5 694.5,-248.5 651.5,-248.5"/>
<text text-anchor="middle" x="673" y="-255.5" font-family="Helvetica,sans-Serif" font-size="10.00">queue</text>
</g>
<!-- Node1&#45;&gt;Node34 -->
<g id="edge53" class="edge"><title>Node1&#45;&gt;Node34</title>
<path fill="none" stroke="midnightblue" d="M673,-304.083C673,-297.006 673,-286.861 673,-277.986"/>
<polygon fill="midnightblue" stroke="midnightblue" points="676.5,-277.751 673,-267.751 669.5,-277.751 676.5,-277.751"/>
</g>
<!-- Node3 -->
<g id="node4" class="node"><title>Node3</title>
<polygon fill="white" stroke="#bfbfbf" points="188,-186.5 188,-205.5 244,-205.5 244,-186.5 188,-186.5"/>
<text text-anchor="middle" x="216" y="-193.5" font-family="Helvetica,sans-Serif" font-size="10.00">Rtypes.h</text>
</g>
<!-- Node2&#45;&gt;Node3 -->
<g id="edge3" class="edge"><title>Node2&#45;&gt;Node3</title>
<path fill="none" stroke="midnightblue" d="M357.36,-248.403C328.934,-238.067 281.055,-220.656 248.998,-208.999"/>
<polygon fill="midnightblue" stroke="midnightblue" points="250.191,-205.709 239.597,-205.581 247.798,-212.287 250.191,-205.709"/>
</g>
<!-- Node4 -->
<g id="node5" class="node"><title>Node4</title>
<g id="a_node5"><a xlink:href="base_2std__ext_2_time_8h.html" target="_top" xlink:title="base/std_ext/time.h">
<polygon fill="white" stroke="black" points="66.5,-186.5 66.5,-205.5 169.5,-205.5 169.5,-186.5 66.5,-186.5"/>
<text text-anchor="middle" x="118" y="-193.5" font-family="Helvetica,sans-Serif" font-size="10.00">base/std_ext/time.h</text>
</a>
</g>
</g>
<!-- Node2&#45;&gt;Node4 -->
<g id="edge4" class="edge"><title>Node2&#45;&gt;Node4</title>
<path fill="none" stroke="midnightblue" d="M350.495,-250.422C310.902,-241.835 239.693,-226.221 179,-212 173.558,-210.725 167.85,-209.359 162.201,-207.99"/>
<polygon fill="midnightblue" stroke="midnightblue" points="162.711,-204.512 152.166,-205.542 161.052,-211.312 162.711,-204.512"/>
</g>
<!-- Node11 -->
<g id="node12" class="node"><title>Node11</title>
<polygon fill="white" stroke="#bfbfbf" points="176.5,-118.5 176.5,-137.5 217.5,-137.5 217.5,-118.5 176.5,-118.5"/>
<text text-anchor="middle" x="197" y="-125.5" font-family="Helvetica,sans-Serif" font-size="10.00">ctime</text>
</g>
<!-- Node2&#45;&gt;Node11 -->
<g id="edge18" class="edge"><title>Node2&#45;&gt;Node11</title>
<path fill="none" stroke="midnightblue" d="M360.144,-248.427C341.341,-240.274 313.302,-227.046 291,-212 275.007,-201.21 236.103,-165.578 213.678,-144.673"/>
<polygon fill="midnightblue" stroke="midnightblue" points="215.928,-141.985 206.234,-137.71 211.147,-147.097 215.928,-141.985"/>
</g>
<!-- Node12 -->
<g id="node13" class="node"><title>Node12</title>
<polygon fill="white" stroke="#bfbfbf" points="996,-118.5 996,-137.5 1058,-137.5 1058,-118.5 996,-118.5"/>
<text text-anchor="middle" x="1027" y="-125.5" font-family="Helvetica,sans-Serif" font-size="10.00">type_traits</text>
</g>
<!-- Node2&#45;&gt;Node12 -->
<g id="edge12" class="edge"><title>Node2&#45;&gt;Node12</title>
<path fill="none" stroke="midnightblue" d="M411.594,-256.09C507.204,-252.964 799.342,-241.207 889,-212 935.607,-196.817 983.104,-163.5 1008.41,-144.009"/>
<polygon fill="midnightblue" stroke="midnightblue" points="1010.69,-146.669 1016.4,-137.744 1006.37,-141.161 1010.69,-146.669"/>
</g>
<!-- Node13 -->
<g id="node14" class="node"><title>Node13</title>
<polygon fill="white" stroke="#bfbfbf" points="300,-186.5 300,-205.5 338,-205.5 338,-186.5 300,-186.5"/>
<text text-anchor="middle" x="319" y="-193.5" font-family="Helvetica,sans-Serif" font-size="10.00">tuple</text>
</g>
<!-- Node2&#45;&gt;Node13 -->
<g id="edge13" class="edge"><title>Node2&#45;&gt;Node13</title>
<path fill="none" stroke="midnightblue" d="M372.117,-248.403C362.541,-239.136 347.089,-224.183 335.314,-212.788"/>
<polygon fill="midnightblue" stroke="midnightblue" points="337.487,-210.02 327.867,-205.581 332.619,-215.05 337.487,-210.02"/>
</g>
<!-- Node14 -->
<g id="node15" class="node"><title>Node14</title>
<polygon fill="white" stroke="#bfbfbf" points="252,-118.5 252,-137.5 298,-137.5 298,-118.5 252,-118.5"/>
<text text-anchor="middle" x="275" y="-125.5" font-family="Helvetica,sans-Serif" font-size="10.00">cstdint</text>
</g>
<!-- Node2&#45;&gt;Node14 -->
<g id="edge14" class="edge"><title>Node2&#45;&gt;Node14</title>
<path fill="none" stroke="midnightblue" d="M390.288,-248.33C405.111,-233.428 430.902,-202.403 415,-180 386.931,-140.456 357.373,-161.115 312,-144 309.756,-143.154 307.444,-142.262 305.121,-141.353"/>
<polygon fill="midnightblue" stroke="midnightblue" points="306.258,-138.039 295.673,-137.589 303.667,-144.542 306.258,-138.039"/>
</g>
<!-- Node2&#45;&gt;Node15 -->
<g id="edge15" class="edge"><title>Node2&#45;&gt;Node15</title>
<path fill="none" stroke="midnightblue" d="M392.217,-248.403C420.263,-226.906 493.695,-170.623 528.787,-143.726"/>
<polygon fill="midnightblue" stroke="midnightblue" points="531.024,-146.421 536.832,-137.56 526.766,-140.865 531.024,-146.421"/>
</g>
<!-- Node2&#45;&gt;Node16 -->
<g id="edge16" class="edge"><title>Node2&#45;&gt;Node16</title>
<path fill="none" stroke="midnightblue" d="M350.497,-257.597C277.299,-258.31 94.9449,-255.579 57,-212 33.4319,-184.932 75.7993,-120.19 86,-112 119.013,-85.4934 246.613,-72.9551 301.104,-68.7243"/>
<polygon fill="midnightblue" stroke="midnightblue" points="301.558,-72.2002 311.27,-67.9663 301.037,-65.2196 301.558,-72.2002"/>
</g>
<!-- Node17 -->
<g id="node18" class="node"><title>Node17</title>
<polygon fill="white" stroke="#bfbfbf" points="356,-186.5 356,-205.5 406,-205.5 406,-186.5 356,-186.5"/>
<text text-anchor="middle" x="381" y="-193.5" font-family="Helvetica,sans-Serif" font-size="10.00">iomanip</text>
</g>
<!-- Node2&#45;&gt;Node17 -->
<g id="edge17" class="edge"><title>Node2&#45;&gt;Node17</title>
<path fill="none" stroke="midnightblue" d="M381,-248.403C381,-239.938 381,-226.728 381,-215.82"/>
<polygon fill="midnightblue" stroke="midnightblue" points="384.5,-215.581 381,-205.581 377.5,-215.581 384.5,-215.581"/>
</g>
<!-- Node5 -->
<g id="node6" class="node"><title>Node5</title>
<g id="a_node6"><a xlink:href="string_8h.html" target="_top" xlink:title="base/std_ext/string.h">
<polygon fill="white" stroke="black" points="392,-118.5 392,-137.5 500,-137.5 500,-118.5 392,-118.5"/>
<text text-anchor="middle" x="446" y="-125.5" font-family="Helvetica,sans-Serif" font-size="10.00">base/std_ext/string.h</text>
</a>
</g>
</g>
<!-- Node4&#45;&gt;Node5 -->
<g id="edge5" class="edge"><title>Node4&#45;&gt;Node5</title>
<path fill="none" stroke="midnightblue" d="M151.487,-186.431C160.406,-184.24 170.05,-181.954 179,-180 250.253,-164.446 332.779,-149.085 387.002,-139.353"/>
<polygon fill="midnightblue" stroke="midnightblue" points="387.895,-142.749 397.122,-137.543 386.662,-135.858 387.895,-142.749"/>
</g>
<!-- Node10 -->
<g id="node11" class="node"><title>Node10</title>
<polygon fill="white" stroke="#bfbfbf" points="95,-118.5 95,-137.5 141,-137.5 141,-118.5 95,-118.5"/>
<text text-anchor="middle" x="118" y="-125.5" font-family="Helvetica,sans-Serif" font-size="10.00">cstring</text>
</g>
<!-- Node4&#45;&gt;Node10 -->
<g id="edge10" class="edge"><title>Node4&#45;&gt;Node10</title>
<path fill="none" stroke="midnightblue" d="M118,-186.372C118,-176.643 118,-160.528 118,-147.85"/>
<polygon fill="midnightblue" stroke="midnightblue" points="121.5,-147.841 118,-137.841 114.5,-147.841 121.5,-147.841"/>
</g>
<!-- Node4&#45;&gt;Node11 -->
<g id="edge11" class="edge"><title>Node4&#45;&gt;Node11</title>
<path fill="none" stroke="midnightblue" d="M128.328,-186.372C141.102,-175.699 163.075,-157.343 178.724,-144.268"/>
<polygon fill="midnightblue" stroke="midnightblue" points="181.239,-146.728 186.67,-137.63 176.751,-141.356 181.239,-146.728"/>
</g>
<!-- Node6 -->
<g id="node7" class="node"><title>Node6</title>
<polygon fill="white" stroke="#bfbfbf" points="510.5,-56.5 510.5,-75.5 551.5,-75.5 551.5,-56.5 510.5,-56.5"/>
<text text-anchor="middle" x="531" y="-63.5" font-family="Helvetica,sans-Serif" font-size="10.00">string</text>
</g>
<!-- Node5&#45;&gt;Node6 -->
<g id="edge6" class="edge"><title>Node5&#45;&gt;Node6</title>
<path fill="none" stroke="midnightblue" d="M458.178,-118.403C471.812,-108.78 494.132,-93.0242 510.474,-81.4891"/>
<polygon fill="midnightblue" stroke="midnightblue" points="512.693,-84.2069 518.844,-75.5806 508.656,-78.4881 512.693,-84.2069"/>
</g>
<!-- Node7 -->
<g id="node8" class="node"><title>Node7</title>
<polygon fill="white" stroke="#bfbfbf" points="420,-56.5 420,-75.5 472,-75.5 472,-56.5 420,-56.5"/>
<text text-anchor="middle" x="446" y="-63.5" font-family="Helvetica,sans-Serif" font-size="10.00">sstream</text>
</g>
<!-- Node5&#45;&gt;Node7 -->
<g id="edge7" class="edge"><title>Node5&#45;&gt;Node7</title>
<path fill="none" stroke="midnightblue" d="M446,-118.403C446,-109.938 446,-96.7283 446,-85.8199"/>
<polygon fill="midnightblue" stroke="midnightblue" points="449.5,-85.5806 446,-75.5806 442.5,-85.5806 449.5,-85.5806"/>
</g>
<!-- Node8 -->
<g id="node9" class="node"><title>Node8</title>
<polygon fill="white" stroke="#bfbfbf" points="921,-56.5 921,-75.5 977,-75.5 977,-56.5 921,-56.5"/>
<text text-anchor="middle" x="949" y="-63.5" font-family="Helvetica,sans-Serif" font-size="10.00">algorithm</text>
</g>
<!-- Node5&#45;&gt;Node8 -->
<g id="edge8" class="edge"><title>Node5&#45;&gt;Node8</title>
<path fill="none" stroke="midnightblue" d="M477.869,-118.466C487.783,-116.067 498.791,-113.662 509,-112 683.28,-83.6211 732.804,-104.546 910.848,-75.9471"/>
<polygon fill="midnightblue" stroke="midnightblue" points="911.504,-79.3864 920.808,-74.3176 910.374,-72.4782 911.504,-79.3864"/>
</g>
<!-- Node9 -->
<g id="node10" class="node"><title>Node9</title>
<polygon fill="white" stroke="#bfbfbf" points="995,-56.5 995,-75.5 1039,-75.5 1039,-56.5 995,-56.5"/>
<text text-anchor="middle" x="1017" y="-63.5" font-family="Helvetica,sans-Serif" font-size="10.00">vector</text>
</g>
<!-- Node5&#45;&gt;Node9 -->
<g id="edge9" class="edge"><title>Node5&#45;&gt;Node9</title>
<path fill="none" stroke="midnightblue" d="M477.532,-118.459C487.529,-116.03 498.669,-113.61 509,-112 715.353,-79.838 774.242,-111.87 984.618,-75.6443"/>
<polygon fill="midnightblue" stroke="midnightblue" points="985.506,-79.0419 994.751,-73.8671 984.297,-72.1472 985.506,-79.0419"/>
</g>
<!-- Node18&#45;&gt;Node16 -->
<g id="edge51" class="edge"><title>Node18&#45;&gt;Node16</title>
<path fill="none" stroke="midnightblue" d="M1055.37,-251.179C898.33,-233.482 440.371,-179.367 383,-144 360.17,-129.926 343.486,-103.032 334.263,-85.0521"/>
<polygon fill="midnightblue" stroke="midnightblue" points="337.328,-83.3532 329.809,-75.8891 331.033,-86.4131 337.328,-83.3532"/>
</g>
<!-- Node19 -->
<g id="node20" class="node"><title>Node19</title>
<g id="a_node20"><a xlink:href="_detector__t_8h.html" target="_top" xlink:title="base/Detector_t.h">
<polygon fill="white" stroke="black" points="785.5,-186.5 785.5,-205.5 880.5,-205.5 880.5,-186.5 785.5,-186.5"/>
<text text-anchor="middle" x="833" y="-193.5" font-family="Helvetica,sans-Serif" font-size="10.00">base/Detector_t.h</text>
</a>
</g>
</g>
<!-- Node18&#45;&gt;Node19 -->
<g id="edge20" class="edge"><title>Node18&#45;&gt;Node19</title>
<path fill="none" stroke="midnightblue" d="M1068.89,-248.467C1019.72,-237.738 935.28,-219.316 881.892,-207.667"/>
<polygon fill="midnightblue" stroke="midnightblue" points="882.49,-204.216 871.974,-205.503 880.998,-211.055 882.49,-204.216"/>
</g>
<!-- Node28 -->
<g id="node29" class="node"><title>Node28</title>
<g id="a_node29"><a xlink:href="mapped__vectors_8h.html" target="_top" xlink:title="base/std_ext/mapped\l_vectors.h">
<polygon fill="white" stroke="black" points="1053,-181 1053,-211 1163,-211 1163,-181 1053,-181"/>
<text text-anchor="start" x="1061" y="-199" font-family="Helvetica,sans-Serif" font-size="10.00">base/std_ext/mapped</text>
<text text-anchor="middle" x="1108" y="-188" font-family="Helvetica,sans-Serif" font-size="10.00">_vectors.h</text>
</a>
</g>
</g>
<!-- Node18&#45;&gt;Node28 -->
<g id="edge37" class="edge"><title>Node18&#45;&gt;Node28</title>
<path fill="none" stroke="midnightblue" d="M1108,-248.403C1108,-241.341 1108,-230.975 1108,-221.399"/>
<polygon fill="midnightblue" stroke="midnightblue" points="1111.5,-221.141 1108,-211.141 1104.5,-221.141 1111.5,-221.141"/>
</g>
<!-- Node18&#45;&gt;Node30 -->
<g id="edge49" class="edge"><title>Node18&#45;&gt;Node30</title>
<path fill="none" stroke="midnightblue" d="M1160.74,-253.789C1206.13,-249.257 1272.28,-238.331 1324,-212 1364.1,-191.585 1371,-179.217 1399,-144 1413.7,-125.518 1426.29,-101.36 1433.98,-85.0719"/>
<polygon fill="midnightblue" stroke="midnightblue" points="1437.32,-86.1926 1438.3,-75.6434 1430.96,-83.2771 1437.32,-86.1926"/>
</g>
<!-- Node31 -->
<g id="node32" class="node"><title>Node31</title>
<g id="a_node32"><a xlink:href="shared__ptr__container_8h.html" target="_top" xlink:title="base/std_ext/shared\l_ptr_container.h">
<polygon fill="white" stroke="black" points="1251.5,-113 1251.5,-143 1356.5,-143 1356.5,-113 1251.5,-113"/>
<text text-anchor="start" x="1259.5" y="-131" font-family="Helvetica,sans-Serif" font-size="10.00">base/std_ext/shared</text>
<text text-anchor="middle" x="1304" y="-120" font-family="Helvetica,sans-Serif" font-size="10.00">_ptr_container.h</text>
</a>
</g>
</g>
<!-- Node18&#45;&gt;Node31 -->
<g id="edge44" class="edge"><title>Node18&#45;&gt;Node31</title>
<path fill="none" stroke="midnightblue" d="M1121.16,-248.403C1152.16,-228.161 1230.39,-177.074 1273.8,-148.722"/>
<polygon fill="midnightblue" stroke="midnightblue" points="1275.79,-151.602 1282.25,-143.204 1271.96,-145.741 1275.79,-151.602"/>
</g>
<!-- Node32 -->
<g id="node33" class="node"><title>Node32</title>
<polygon fill="white" stroke="#bfbfbf" points="1306.5,-56.5 1306.5,-75.5 1365.5,-75.5 1365.5,-56.5 1306.5,-56.5"/>
<text text-anchor="middle" x="1336" y="-63.5" font-family="Helvetica,sans-Serif" font-size="10.00">functional</text>
</g>
<!-- Node18&#45;&gt;Node32 -->
<g id="edge52" class="edge"><title>Node18&#45;&gt;Node32</title>
<path fill="none" stroke="midnightblue" d="M1160.59,-250.844C1221.8,-240.543 1320.17,-213.541 1365,-144 1377.28,-124.955 1363.21,-99.9482 1350.72,-83.6801"/>
<polygon fill="midnightblue" stroke="midnightblue" points="1353.18,-81.151 1344.13,-75.6346 1347.76,-85.5878 1353.18,-81.151"/>
</g>
<!-- Node18&#45;&gt;Node33 -->
<g id="edge50" class="edge"><title>Node18&#45;&gt;Node33</title>
<path fill="none" stroke="midnightblue" d="M1160.78,-252.02C1232.27,-244.935 1363.74,-230.703 1475,-212 1488.98,-209.65 1504.4,-206.416 1517.2,-203.553"/>
<polygon fill="midnightblue" stroke="midnightblue" points="1518.27,-206.898 1527.25,-201.262 1516.72,-200.073 1518.27,-206.898"/>
</g>
<!-- Node19&#45;&gt;Node6 -->
<g id="edge34" class="edge"><title>Node19&#45;&gt;Node6</title>
<path fill="none" stroke="midnightblue" d="M797.652,-186.437C738.806,-172.168 626.959,-144.98 625,-144 604.947,-133.97 603.343,-126.21 586,-112 573.801,-102.005 560.072,-90.7717 549.382,-82.0289"/>
<polygon fill="midnightblue" stroke="midnightblue" points="551.504,-79.2434 541.547,-75.6224 547.073,-84.6623 551.504,-79.2434"/>
</g>
<!-- Node19&#45;&gt;Node9 -->
<g id="edge36" class="edge"><title>Node19&#45;&gt;Node9</title>
<path fill="none" stroke="midnightblue" d="M860.744,-186.42C885.176,-178.032 920.975,-163.654 948,-144 971.273,-127.075 992.456,-101.152 1005.04,-84.1374"/>
<polygon fill="midnightblue" stroke="midnightblue" points="1008.1,-85.8753 1011.11,-75.7151 1002.42,-81.7845 1008.1,-85.8753"/>
</g>
<!-- Node19&#45;&gt;Node12 -->
<g id="edge35" class="edge"><title>Node19&#45;&gt;Node12</title>
<path fill="none" stroke="midnightblue" d="M858.362,-186.372C892.586,-174.728 953.693,-153.939 992.194,-140.841"/>
<polygon fill="midnightblue" stroke="midnightblue" points="993.599,-144.06 1001.94,-137.526 991.345,-137.433 993.599,-144.06"/>
</g>
<!-- Node19&#45;&gt;Node14 -->
<g id="edge32" class="edge"><title>Node19&#45;&gt;Node14</title>
<path fill="none" stroke="midnightblue" d="M785.33,-189.996C703.135,-181.278 529.459,-162.467 383,-144 357.936,-140.84 329.654,-136.898 308.321,-133.848"/>
<polygon fill="midnightblue" stroke="midnightblue" points="308.548,-130.345 298.152,-132.387 307.552,-137.274 308.548,-130.345"/>
</g>
<!-- Node19&#45;&gt;Node15 -->
<g id="edge33" class="edge"><title>Node19&#45;&gt;Node15</title>
<path fill="none" stroke="midnightblue" d="M798.621,-186.431C789.647,-184.263 779.974,-181.987 771,-180 691.771,-162.456 670.347,-165.137 592,-144 588.357,-143.017 584.578,-141.893 580.833,-140.712"/>
<polygon fill="midnightblue" stroke="midnightblue" points="581.711,-137.317 571.118,-137.511 579.52,-143.965 581.711,-137.317"/>
</g>
<!-- Node20 -->
<g id="node21" class="node"><title>Node20</title>
<g id="a_node21"><a xlink:href="bitflag_8h.html" target="_top" xlink:title="base/bitflag.h">
<polygon fill="white" stroke="black" points="741.5,-118.5 741.5,-137.5 816.5,-137.5 816.5,-118.5 741.5,-118.5"/>
<text text-anchor="middle" x="779" y="-125.5" font-family="Helvetica,sans-Serif" font-size="10.00">base/bitflag.h</text>
</a>
</g>
</g>
<!-- Node19&#45;&gt;Node20 -->
<g id="edge21" class="edge"><title>Node19&#45;&gt;Node20</title>
<path fill="none" stroke="midnightblue" d="M825.94,-186.372C817.498,-176.053 803.178,-158.551 792.57,-145.585"/>
<polygon fill="midnightblue" stroke="midnightblue" points="795.275,-143.364 786.234,-137.841 789.857,-147.797 795.275,-143.364"/>
</g>
<!-- Node22 -->
<g id="node23" class="node"><title>Node22</title>
<g id="a_node23"><a xlink:href="vec3_8h.html" target="_top" xlink:title="base/vec/vec3.h">
<polygon fill="white" stroke="black" points="634.5,-118.5 634.5,-137.5 723.5,-137.5 723.5,-118.5 634.5,-118.5"/>
<text text-anchor="middle" x="679" y="-125.5" font-family="Helvetica,sans-Serif" font-size="10.00">base/vec/vec3.h</text>
</a>
</g>
</g>
<!-- Node19&#45;&gt;Node22 -->
<g id="edge23" class="edge"><title>Node19&#45;&gt;Node22</title>
<path fill="none" stroke="midnightblue" d="M812.867,-186.372C786.235,-174.958 739.098,-154.756 708.459,-141.625"/>
<polygon fill="midnightblue" stroke="midnightblue" points="709.708,-138.353 699.138,-137.63 706.95,-144.787 709.708,-138.353"/>
</g>
<!-- Node26 -->
<g id="node27" class="node"><title>Node26</title>
<g id="a_node27"><a xlink:href="base_2std__ext_2math_8h.html" target="_top" xlink:title="base/std_ext/math.h">
<polygon fill="white" stroke="black" points="834,-118.5 834,-137.5 940,-137.5 940,-118.5 834,-118.5"/>
<text text-anchor="middle" x="887" y="-125.5" font-family="Helvetica,sans-Serif" font-size="10.00">base/std_ext/math.h</text>
</a>
</g>
</g>
<!-- Node19&#45;&gt;Node26 -->
<g id="edge28" class="edge"><title>Node19&#45;&gt;Node26</title>
<path fill="none" stroke="midnightblue" d="M840.06,-186.372C848.502,-176.053 862.822,-158.551 873.43,-145.585"/>
<polygon fill="midnightblue" stroke="midnightblue" points="876.143,-147.797 879.766,-137.841 870.725,-143.364 876.143,-147.797"/>
</g>
<!-- Node21 -->
<g id="node22" class="node"><title>Node21</title>
<polygon fill="white" stroke="#bfbfbf" points="761.5,-56.5 761.5,-75.5 802.5,-75.5 802.5,-56.5 761.5,-56.5"/>
<text text-anchor="middle" x="782" y="-63.5" font-family="Helvetica,sans-Serif" font-size="10.00">bitset</text>
</g>
<!-- Node20&#45;&gt;Node21 -->
<g id="edge22" class="edge"><title>Node20&#45;&gt;Node21</title>
<path fill="none" stroke="midnightblue" d="M779.43,-118.403C779.853,-109.938 780.514,-96.7283 781.059,-85.8199"/>
<polygon fill="midnightblue" stroke="midnightblue" points="784.567,-85.7429 781.571,-75.5806 777.576,-85.3933 784.567,-85.7429"/>
</g>
<!-- Node23 -->
<g id="node24" class="node"><title>Node23</title>
<g id="a_node24"><a xlink:href="vec2_8h.html" target="_top" xlink:title="vec2.h">
<polygon fill="white" stroke="black" points="589,-56.5 589,-75.5 635,-75.5 635,-56.5 589,-56.5"/>
<text text-anchor="middle" x="612" y="-63.5" font-family="Helvetica,sans-Serif" font-size="10.00">vec2.h</text>
</a>
</g>
</g>
<!-- Node22&#45;&gt;Node23 -->
<g id="edge24" class="edge"><title>Node22&#45;&gt;Node23</title>
<path fill="none" stroke="midnightblue" d="M669.401,-118.403C658.952,-109.047 642.032,-93.8948 629.264,-82.4599"/>
<polygon fill="midnightblue" stroke="midnightblue" points="631.366,-79.6445 621.582,-75.5806 626.696,-84.8592 631.366,-79.6445"/>
</g>
<!-- Node24 -->
<g id="node25" class="node"><title>Node24</title>
<polygon fill="white" stroke="#bfbfbf" points="711,-0.5 711,-19.5 755,-19.5 755,-0.5 711,-0.5"/>
<text text-anchor="middle" x="733" y="-7.5" font-family="Helvetica,sans-Serif" font-size="10.00">cmath</text>
</g>
<!-- Node22&#45;&gt;Node24 -->
<g id="edge27" class="edge"><title>Node22&#45;&gt;Node24</title>
<path fill="none" stroke="midnightblue" d="M686.103,-118.494C693.912,-108.769 706.36,-92.106 714,-76 721.086,-61.0622 726.12,-42.9219 729.219,-29.6049"/>
<polygon fill="midnightblue" stroke="midnightblue" points="732.661,-30.245 731.369,-19.7293 725.821,-28.7559 732.661,-30.245"/>
</g>
<!-- Node25 -->
<g id="node26" class="node"><title>Node25</title>
<polygon fill="white" stroke="#bfbfbf" points="653,-56.5 653,-75.5 705,-75.5 705,-56.5 653,-56.5"/>
<text text-anchor="middle" x="679" y="-63.5" font-family="Helvetica,sans-Serif" font-size="10.00">ostream</text>
</g>
<!-- Node22&#45;&gt;Node25 -->
<g id="edge26" class="edge"><title>Node22&#45;&gt;Node25</title>
<path fill="none" stroke="midnightblue" d="M679,-118.403C679,-109.938 679,-96.7283 679,-85.8199"/>
<polygon fill="midnightblue" stroke="midnightblue" points="682.5,-85.5806 679,-75.5806 675.5,-85.5806 682.5,-85.5806"/>
</g>
<!-- Node23&#45;&gt;Node24 -->
<g id="edge25" class="edge"><title>Node23&#45;&gt;Node24</title>
<path fill="none" stroke="midnightblue" d="M631.173,-56.4435C650.909,-47.6356 681.885,-33.8116 704.493,-23.722"/>
<polygon fill="midnightblue" stroke="midnightblue" points="706.211,-26.788 713.917,-19.5164 703.359,-20.3957 706.211,-26.788"/>
</g>
<!-- Node26&#45;&gt;Node9 -->
<g id="edge31" class="edge"><title>Node26&#45;&gt;Node9</title>
<path fill="none" stroke="midnightblue" d="M905.626,-118.403C927.443,-108.334 963.804,-91.5522 989.017,-79.9151"/>
<polygon fill="midnightblue" stroke="midnightblue" points="990.796,-82.9491 998.409,-75.5806 987.862,-76.5934 990.796,-82.9491"/>
</g>
<!-- Node26&#45;&gt;Node24 -->
<g id="edge29" class="edge"><title>Node26&#45;&gt;Node24</title>
<path fill="none" stroke="midnightblue" d="M879.115,-118.46C865.881,-104.41 837.992,-75.985 811,-56 794.768,-43.9818 775.055,-32.6335 759.508,-24.3397"/>
<polygon fill="midnightblue" stroke="midnightblue" points="760.918,-21.127 750.435,-19.5916 757.672,-27.3292 760.918,-21.127"/>
</g>
<!-- Node27 -->
<g id="node28" class="node"><title>Node27</title>
<polygon fill="white" stroke="#bfbfbf" points="863,-56.5 863,-75.5 903,-75.5 903,-56.5 863,-56.5"/>
<text text-anchor="middle" x="883" y="-63.5" font-family="Helvetica,sans-Serif" font-size="10.00">limits</text>
</g>
<!-- Node26&#45;&gt;Node27 -->
<g id="edge30" class="edge"><title>Node26&#45;&gt;Node27</title>
<path fill="none" stroke="midnightblue" d="M886.427,-118.403C885.863,-109.938 884.982,-96.7283 884.255,-85.8199"/>
<polygon fill="midnightblue" stroke="midnightblue" points="887.73,-85.3256 883.572,-75.5806 880.745,-85.7913 887.73,-85.3256"/>
</g>
<!-- Node28&#45;&gt;Node9 -->
<g id="edge41" class="edge"><title>Node28&#45;&gt;Node9</title>
<path fill="none" stroke="midnightblue" d="M1102.7,-180.906C1095.81,-163.652 1082.67,-134.015 1066,-112 1057.59,-100.891 1046.22,-90.2571 1036.55,-82.1187"/>
<polygon fill="midnightblue" stroke="midnightblue" points="1038.58,-79.2542 1028.61,-75.6598 1034.16,-84.6849 1038.58,-79.2542"/>
</g>
<!-- Node28&#45;&gt;Node12 -->
<g id="edge43" class="edge"><title>Node28&#45;&gt;Node12</title>
<path fill="none" stroke="midnightblue" d="M1090.42,-180.679C1077.29,-169.981 1059.37,-155.377 1045.93,-144.422"/>
<polygon fill="midnightblue" stroke="midnightblue" points="1047.8,-141.432 1037.83,-137.828 1043.38,-146.858 1047.8,-141.432"/>
</g>
<!-- Node29 -->
<g id="node30" class="node"><title>Node29</title>
<g id="a_node30"><a xlink:href="memory_8h.html" target="_top" xlink:title="base/std_ext/memory.h">
<polygon fill="white" stroke="black" points="1114.5,-118.5 1114.5,-137.5 1233.5,-137.5 1233.5,-118.5 1114.5,-118.5"/>
<text text-anchor="middle" x="1174" y="-125.5" font-family="Helvetica,sans-Serif" font-size="10.00">base/std_ext/memory.h</text>
</a>
</g>
</g>
<!-- Node28&#45;&gt;Node29 -->
<g id="edge38" class="edge"><title>Node28&#45;&gt;Node29</title>
<path fill="none" stroke="midnightblue" d="M1122.32,-180.679C1132.82,-170.184 1147.07,-155.932 1157.95,-145.052"/>
<polygon fill="midnightblue" stroke="midnightblue" points="1160.58,-147.374 1165.17,-137.828 1155.63,-142.425 1160.58,-147.374"/>
</g>
<!-- Node28&#45;&gt;Node30 -->
<g id="edge42" class="edge"><title>Node28&#45;&gt;Node30</title>
<path fill="none" stroke="midnightblue" d="M1163.25,-193.261C1217.52,-189.5 1301.21,-178.08 1365,-144 1392.26,-129.435 1416.11,-102.066 1429.78,-84.1894"/>
<polygon fill="midnightblue" stroke="midnightblue" points="1432.84,-85.9454 1435.97,-75.8243 1427.21,-81.7827 1432.84,-85.9454"/>
</g>
<!-- Node29&#45;&gt;Node16 -->
<g id="edge40" class="edge"><title>Node29&#45;&gt;Node16</title>
<path fill="none" stroke="midnightblue" d="M1119.16,-118.484C1102.16,-116.086 1083.33,-113.677 1066,-112 775.805,-83.9217 701.613,-99.3567 411,-76 390.736,-74.3714 367.819,-71.9086 350.892,-69.9707"/>
<polygon fill="midnightblue" stroke="midnightblue" points="351.058,-66.4666 340.72,-68.7871 350.249,-73.4196 351.058,-66.4666"/>
</g>
<!-- Node29&#45;&gt;Node30 -->
<g id="edge39" class="edge"><title>Node29&#45;&gt;Node30</title>
<path fill="none" stroke="midnightblue" d="M1212.11,-118.467C1263.76,-106.905 1355.31,-86.4082 1405.9,-75.083"/>
<polygon fill="midnightblue" stroke="midnightblue" points="1406.75,-78.4791 1415.74,-72.8788 1405.22,-71.6481 1406.75,-78.4791"/>
</g>
<!-- Node31&#45;&gt;Node8 -->
<g id="edge48" class="edge"><title>Node31&#45;&gt;Node8</title>
<path fill="none" stroke="midnightblue" d="M1251.31,-113.882C1248.17,-113.215 1245.05,-112.581 1242,-112 1132.34,-91.0751 1100.63,-97.2231 987.337,-76.0874"/>
<polygon fill="midnightblue" stroke="midnightblue" points="987.696,-72.5932 977.219,-74.1685 986.392,-79.4706 987.696,-72.5932"/>
</g>
<!-- Node31&#45;&gt;Node9 -->
<g id="edge45" class="edge"><title>Node31&#45;&gt;Node9</title>
<path fill="none" stroke="midnightblue" d="M1251.27,-114.091C1248.14,-113.371 1245.03,-112.669 1242,-112 1173.54,-96.8795 1092.87,-81.2815 1049.14,-73.0084"/>
<polygon fill="midnightblue" stroke="midnightblue" points="1049.57,-69.5293 1039.1,-71.1158 1048.28,-76.4081 1049.57,-69.5293"/>
</g>
<!-- Node31&#45;&gt;Node30 -->
<g id="edge46" class="edge"><title>Node31&#45;&gt;Node30</title>
<path fill="none" stroke="midnightblue" d="M1336.35,-112.933C1359.53,-102.855 1390.48,-89.3986 1412.89,-79.6575"/>
<polygon fill="midnightblue" stroke="midnightblue" points="1414.44,-82.7971 1422.22,-75.6 1411.65,-76.3776 1414.44,-82.7971"/>
</g>
<!-- Node31&#45;&gt;Node32 -->
<g id="edge47" class="edge"><title>Node31&#45;&gt;Node32</title>
<path fill="none" stroke="midnightblue" d="M1311.58,-112.781C1316.09,-104.332 1321.84,-93.5481 1326.63,-84.5693"/>
<polygon fill="midnightblue" stroke="midnightblue" points="1329.73,-86.2012 1331.34,-75.7305 1323.55,-82.907 1329.73,-86.2012"/>
</g>
<!-- Node36 -->
<g id="node37" class="node"><title>Node36</title>
<polygon fill="white" stroke="#bfbfbf" points="1619.5,-248.5 1619.5,-267.5 1708.5,-267.5 1708.5,-248.5 1619.5,-248.5"/>
<text text-anchor="middle" x="1664" y="-255.5" font-family="Helvetica,sans-Serif" font-size="10.00">easylogging++.h</text>
</g>
<!-- Node35&#45;&gt;Node36 -->
<g id="edge59" class="edge"><title>Node35&#45;&gt;Node36</title>
<path fill="none" stroke="midnightblue" d="M1661.5,-304.083C1661.89,-297.006 1662.45,-286.861 1662.95,-277.986"/>
<polygon fill="midnightblue" stroke="midnightblue" points="1666.45,-277.93 1663.51,-267.751 1659.46,-277.542 1666.45,-277.93"/>
</g>
</g>
</svg>
