<?xml version="1.0" encoding="UTF-8" standalone="no"?>
<!DOCTYPE svg PUBLIC "-//W3C//DTD SVG 1.1//EN"
 "http://www.w3.org/Graphics/SVG/1.1/DTD/svg11.dtd">
<!-- Generated by graphviz version 2.36.0 (20140111.2315)
 -->
<!-- Title: src/reconstruct/UpdateableManager.h Pages: 1 -->
<svg width="1366pt" height="344pt"
 viewBox="0.00 0.00 1366.00 344.00" xmlns="http://www.w3.org/2000/svg" xmlns:xlink="http://www.w3.org/1999/xlink">
<g id="graph0" class="graph" transform="scale(1 1) rotate(0) translate(4 340)">
<title>src/reconstruct/UpdateableManager.h</title>
<polygon fill="white" stroke="none" points="-4,4 -4,-340 1362,-340 1362,4 -4,4"/>
<!-- Node0 -->
<g id="node1" class="node"><title>Node0</title>
<polygon fill="#bfbfbf" stroke="black" points="173,-305 173,-335 307,-335 307,-305 173,-305"/>
<text text-anchor="start" x="181" y="-323" font-family="Helvetica,sans-Serif" font-size="10.00">src/reconstruct/Updateable</text>
<text text-anchor="middle" x="240" y="-312" font-family="Helvetica,sans-Serif" font-size="10.00">Manager.h</text>
</g>
<!-- Node1 -->
<g id="node2" class="node"><title>Node1</title>
<g id="a_node2"><a xlink:href="_t_i_d_8h.html" target="_top" xlink:title="tree/TID.h">
<polygon fill="white" stroke="black" points="954.5,-248.5 954.5,-267.5 1015.5,-267.5 1015.5,-248.5 954.5,-248.5"/>
<text text-anchor="middle" x="985" y="-255.5" font-family="Helvetica,sans-Serif" font-size="10.00">tree/TID.h</text>
</a>
</g>
</g>
<!-- Node0&#45;&gt;Node1 -->
<g id="edge1" class="edge"><title>Node0&#45;&gt;Node1</title>
<path fill="none" stroke="midnightblue" d="M307.098,-313.596C458.277,-301.421 821.855,-272.139 944.108,-262.293"/>
<polygon fill="midnightblue" stroke="midnightblue" points="944.485,-265.774 954.171,-261.483 943.923,-258.797 944.485,-265.774"/>
</g>
<!-- Node15 -->
<g id="node16" class="node"><title>Node15</title>
<polygon fill="white" stroke="#bfbfbf" points="-0.5,-56.5 -0.5,-75.5 28.5,-75.5 28.5,-56.5 -0.5,-56.5"/>
<text text-anchor="middle" x="14" y="-63.5" font-family="Helvetica,sans-Serif" font-size="10.00">list</text>
</g>
<!-- Node0&#45;&gt;Node15 -->
<g id="edge53" class="edge"><title>Node0&#45;&gt;Node15</title>
<path fill="none" stroke="midnightblue" d="M172.933,-305.332C146.92,-297.586 118.132,-285.762 96,-268 37.5552,-221.096 20.4308,-125.793 15.6974,-85.5723"/>
<polygon fill="midnightblue" stroke="midnightblue" points="19.1727,-85.1526 14.6484,-75.5723 12.2109,-85.883 19.1727,-85.1526"/>
</g>
<!-- Node17 -->
<g id="node18" class="node"><title>Node17</title>
<g id="a_node18"><a xlink:href="_reconstruct__traits_8h.html" target="_top" xlink:title="Reconstruct_traits.h">
<polygon fill="white" stroke="black" points="187.5,-248.5 187.5,-267.5 292.5,-267.5 292.5,-248.5 187.5,-248.5"/>
<text text-anchor="middle" x="240" y="-255.5" font-family="Helvetica,sans-Serif" font-size="10.00">Reconstruct_traits.h</text>
</a>
</g>
</g>
<!-- Node0&#45;&gt;Node17 -->
<g id="edge18" class="edge"><title>Node0&#45;&gt;Node17</title>
<path fill="none" stroke="midnightblue" d="M240,-304.781C240,-296.781 240,-286.689 240,-278.017"/>
<polygon fill="midnightblue" stroke="midnightblue" points="243.5,-277.73 240,-267.731 236.5,-277.731 243.5,-277.73"/>
</g>
<!-- Node29 -->
<g id="node30" class="node"><title>Node29</title>
<polygon fill="white" stroke="#bfbfbf" points="133,-56.5 133,-75.5 185,-75.5 185,-56.5 133,-56.5"/>
<text text-anchor="middle" x="159" y="-63.5" font-family="Helvetica,sans-Serif" font-size="10.00">memory</text>
</g>
<!-- Node0&#45;&gt;Node29 -->
<g id="edge54" class="edge"><title>Node0&#45;&gt;Node29</title>
<path fill="none" stroke="midnightblue" d="M195.266,-304.874C154.409,-289.315 96.4658,-259.93 70,-212 62.0102,-197.53 60.632,-131.449 73,-112 84.2672,-94.2817 104.941,-83.1506 123.194,-76.392"/>
<polygon fill="midnightblue" stroke="midnightblue" points="124.386,-79.6837 132.733,-73.1587 122.139,-73.0542 124.386,-79.6837"/>
</g>
<!-- Node33 -->
<g id="node34" class="node"><title>Node33</title>
<polygon fill="white" stroke="#bfbfbf" points="1033.5,-248.5 1033.5,-267.5 1076.5,-267.5 1076.5,-248.5 1033.5,-248.5"/>
<text text-anchor="middle" x="1055" y="-255.5" font-family="Helvetica,sans-Serif" font-size="10.00">queue</text>
</g>
<!-- Node0&#45;&gt;Node33 -->
<g id="edge52" class="edge"><title>Node0&#45;&gt;Node33</title>
<path fill="none" stroke="midnightblue" d="M307.181,-319.526C441.786,-319.519 753.949,-314.175 1023.49,-267.647"/>
<polygon fill="midnightblue" stroke="midnightblue" points="1024.21,-271.073 1033.46,-265.903 1023.01,-264.178 1024.21,-271.073"/>
</g>
<!-- Node2 -->
<g id="node3" class="node"><title>Node2</title>
<polygon fill="white" stroke="#bfbfbf" points="901,-186.5 901,-205.5 957,-205.5 957,-186.5 901,-186.5"/>
<text text-anchor="middle" x="929" y="-193.5" font-family="Helvetica,sans-Serif" font-size="10.00">Rtypes.h</text>
</g>
<!-- Node1&#45;&gt;Node2 -->
<g id="edge2" class="edge"><title>Node1&#45;&gt;Node2</title>
<path fill="none" stroke="midnightblue" d="M976.977,-248.403C968.41,-239.225 954.639,-224.47 944.043,-213.117"/>
<polygon fill="midnightblue" stroke="midnightblue" points="946.39,-210.503 937.009,-205.581 941.273,-215.279 946.39,-210.503"/>
</g>
<!-- Node3 -->
<g id="node4" class="node"><title>Node3</title>
<g id="a_node4"><a xlink:href="base_2std__ext_2_time_8h.html" target="_top" xlink:title="base/std_ext/time.h">
<polygon fill="white" stroke="black" points="1092.5,-186.5 1092.5,-205.5 1195.5,-205.5 1195.5,-186.5 1092.5,-186.5"/>
<text text-anchor="middle" x="1144" y="-193.5" font-family="Helvetica,sans-Serif" font-size="10.00">base/std_ext/time.h</text>
</a>
</g>
</g>
<!-- Node1&#45;&gt;Node3 -->
<g id="edge3" class="edge"><title>Node1&#45;&gt;Node3</title>
<path fill="none" stroke="midnightblue" d="M1007.78,-248.403C1035.05,-238.111 1080.91,-220.806 1111.8,-209.15"/>
<polygon fill="midnightblue" stroke="midnightblue" points="1113.14,-212.386 1121.26,-205.581 1110.67,-205.837 1113.14,-212.386"/>
</g>
<!-- Node10 -->
<g id="node11" class="node"><title>Node10</title>
<polygon fill="white" stroke="#bfbfbf" points="1287.5,-118.5 1287.5,-137.5 1328.5,-137.5 1328.5,-118.5 1287.5,-118.5"/>
<text text-anchor="middle" x="1308" y="-125.5" font-family="Helvetica,sans-Serif" font-size="10.00">ctime</text>
</g>
<!-- Node1&#45;&gt;Node10 -->
<g id="edge17" class="edge"><title>Node1&#45;&gt;Node10</title>
<path fill="none" stroke="midnightblue" d="M1015.64,-249.84C1018.46,-249.207 1021.28,-248.585 1024,-248 1103.76,-230.826 1130.27,-246.917 1204,-212 1224.26,-202.404 1225.51,-194.032 1243,-180 1258.27,-167.747 1275.74,-154.061 1288.72,-143.954"/>
<polygon fill="midnightblue" stroke="midnightblue" points="1291.15,-146.491 1296.9,-137.59 1286.86,-140.964 1291.15,-146.491"/>
</g>
<!-- Node11 -->
<g id="node12" class="node"><title>Node11</title>
<polygon fill="white" stroke="#bfbfbf" points="475,-118.5 475,-137.5 537,-137.5 537,-118.5 475,-118.5"/>
<text text-anchor="middle" x="506" y="-125.5" font-family="Helvetica,sans-Serif" font-size="10.00">type_traits</text>
</g>
<!-- Node1&#45;&gt;Node11 -->
<g id="edge11" class="edge"><title>Node1&#45;&gt;Node11</title>
<path fill="none" stroke="midnightblue" d="M954.249,-255.409C898.77,-251.888 778.707,-241.286 682,-212 624.616,-194.622 562.206,-161.447 529.32,-142.73"/>
<polygon fill="midnightblue" stroke="midnightblue" points="530.89,-139.596 520.477,-137.64 527.397,-145.662 530.89,-139.596"/>
</g>
<!-- Node12 -->
<g id="node13" class="node"><title>Node12</title>
<polygon fill="white" stroke="#bfbfbf" points="1252,-186.5 1252,-205.5 1290,-205.5 1290,-186.5 1252,-186.5"/>
<text text-anchor="middle" x="1271" y="-193.5" font-family="Helvetica,sans-Serif" font-size="10.00">tuple</text>
</g>
<!-- Node1&#45;&gt;Node12 -->
<g id="edge12" class="edge"><title>Node1&#45;&gt;Node12</title>
<path fill="none" stroke="midnightblue" d="M1015.62,-249.751C1018.45,-249.137 1021.27,-248.543 1024,-248 1118.59,-229.148 1145.77,-240.193 1238,-212 1240.29,-211.302 1242.62,-210.48 1244.94,-209.588"/>
<polygon fill="midnightblue" stroke="midnightblue" points="1246.36,-212.784 1254.2,-205.653 1243.63,-206.341 1246.36,-212.784"/>
</g>
<!-- Node13 -->
<g id="node14" class="node"><title>Node13</title>
<polygon fill="white" stroke="#bfbfbf" points="955,-118.5 955,-137.5 1001,-137.5 1001,-118.5 955,-118.5"/>
<text text-anchor="middle" x="978" y="-125.5" font-family="Helvetica,sans-Serif" font-size="10.00">cstdint</text>
</g>
<!-- Node1&#45;&gt;Node13 -->
<g id="edge13" class="edge"><title>Node1&#45;&gt;Node13</title>
<path fill="none" stroke="midnightblue" d="M984.519,-248.202C983.389,-227.551 980.549,-175.606 979.017,-147.594"/>
<polygon fill="midnightblue" stroke="midnightblue" points="982.507,-147.316 978.466,-137.522 975.517,-147.699 982.507,-147.316"/>
</g>
<!-- Node14 -->
<g id="node15" class="node"><title>Node14</title>
<polygon fill="white" stroke="#bfbfbf" points="1019.5,-118.5 1019.5,-137.5 1078.5,-137.5 1078.5,-118.5 1019.5,-118.5"/>
<text text-anchor="middle" x="1049" y="-125.5" font-family="Helvetica,sans-Serif" font-size="10.00">stdexcept</text>
</g>
<!-- Node1&#45;&gt;Node14 -->
<g id="edge14" class="edge"><title>Node1&#45;&gt;Node14</title>
<path fill="none" stroke="midnightblue" d="M989.399,-248.202C999.862,-227.275 1026.39,-174.216 1040.26,-146.486"/>
<polygon fill="midnightblue" stroke="midnightblue" points="1043.4,-148.032 1044.74,-137.522 1037.14,-144.901 1043.4,-148.032"/>
</g>
<!-- Node1&#45;&gt;Node15 -->
<g id="edge15" class="edge"><title>Node1&#45;&gt;Node15</title>
<path fill="none" stroke="midnightblue" d="M954.416,-256.406C834.275,-253.87 394.65,-242.651 259,-212 180.028,-194.156 157.4,-188.859 90,-144 64.701,-127.162 41.0228,-100.85 27.0224,-83.766"/>
<polygon fill="midnightblue" stroke="midnightblue" points="29.6065,-81.3934 20.6258,-75.7722 24.1409,-85.7669 29.6065,-81.3934"/>
</g>
<!-- Node16 -->
<g id="node17" class="node"><title>Node16</title>
<polygon fill="white" stroke="#bfbfbf" points="1308,-186.5 1308,-205.5 1358,-205.5 1358,-186.5 1308,-186.5"/>
<text text-anchor="middle" x="1333" y="-193.5" font-family="Helvetica,sans-Serif" font-size="10.00">iomanip</text>
</g>
<!-- Node1&#45;&gt;Node16 -->
<g id="edge16" class="edge"><title>Node1&#45;&gt;Node16</title>
<path fill="none" stroke="midnightblue" d="M1015.6,-249.644C1018.43,-249.052 1021.26,-248.493 1024,-248 1145.31,-226.116 1180.29,-245.215 1299,-212 1301.5,-211.3 1304.06,-210.45 1306.59,-209.513"/>
<polygon fill="midnightblue" stroke="midnightblue" points="1308.14,-212.657 1316.05,-205.611 1305.48,-206.185 1308.14,-212.657"/>
</g>
<!-- Node4 -->
<g id="node5" class="node"><title>Node4</title>
<g id="a_node5"><a xlink:href="string_8h.html" target="_top" xlink:title="base/std_ext/string.h">
<polygon fill="white" stroke="black" points="1097,-118.5 1097,-137.5 1205,-137.5 1205,-118.5 1097,-118.5"/>
<text text-anchor="middle" x="1151" y="-125.5" font-family="Helvetica,sans-Serif" font-size="10.00">base/std_ext/string.h</text>
</a>
</g>
</g>
<!-- Node3&#45;&gt;Node4 -->
<g id="edge4" class="edge"><title>Node3&#45;&gt;Node4</title>
<path fill="none" stroke="midnightblue" d="M1144.92,-186.372C1145.95,-176.643 1147.66,-160.528 1149,-147.85"/>
<polygon fill="midnightblue" stroke="midnightblue" points="1152.49,-148.155 1150.06,-137.841 1145.53,-147.416 1152.49,-148.155"/>
</g>
<!-- Node9 -->
<g id="node10" class="node"><title>Node9</title>
<polygon fill="white" stroke="#bfbfbf" points="1223,-118.5 1223,-137.5 1269,-137.5 1269,-118.5 1223,-118.5"/>
<text text-anchor="middle" x="1246" y="-125.5" font-family="Helvetica,sans-Serif" font-size="10.00">cstring</text>
</g>
<!-- Node3&#45;&gt;Node9 -->
<g id="edge9" class="edge"><title>Node3&#45;&gt;Node9</title>
<path fill="none" stroke="midnightblue" d="M1157.33,-186.372C1174.29,-175.403 1203.78,-156.317 1224.07,-143.191"/>
<polygon fill="midnightblue" stroke="midnightblue" points="1226.17,-146.002 1232.66,-137.63 1222.36,-140.125 1226.17,-146.002"/>
</g>
<!-- Node3&#45;&gt;Node10 -->
<g id="edge10" class="edge"><title>Node3&#45;&gt;Node10</title>
<path fill="none" stroke="midnightblue" d="M1169,-186.332C1196.14,-176.724 1240.62,-160.409 1278,-144 1279.4,-143.386 1280.83,-142.739 1282.26,-142.075"/>
<polygon fill="midnightblue" stroke="midnightblue" points="1284.15,-145.05 1291.64,-137.552 1281.11,-138.746 1284.15,-145.05"/>
</g>
<!-- Node5 -->
<g id="node6" class="node"><title>Node5</title>
<polygon fill="white" stroke="#bfbfbf" points="1041.5,-56.5 1041.5,-75.5 1082.5,-75.5 1082.5,-56.5 1041.5,-56.5"/>
<text text-anchor="middle" x="1062" y="-63.5" font-family="Helvetica,sans-Serif" font-size="10.00">string</text>
</g>
<!-- Node4&#45;&gt;Node5 -->
<g id="edge5" class="edge"><title>Node4&#45;&gt;Node5</title>
<path fill="none" stroke="midnightblue" d="M1138.25,-118.403C1123.97,-108.78 1100.6,-93.0242 1083.49,-81.4891"/>
<polygon fill="midnightblue" stroke="midnightblue" points="1084.98,-78.2684 1074.73,-75.5806 1081.06,-84.0727 1084.98,-78.2684"/>
</g>
<!-- Node6 -->
<g id="node7" class="node"><title>Node6</title>
<polygon fill="white" stroke="#bfbfbf" points="1125,-56.5 1125,-75.5 1177,-75.5 1177,-56.5 1125,-56.5"/>
<text text-anchor="middle" x="1151" y="-63.5" font-family="Helvetica,sans-Serif" font-size="10.00">sstream</text>
</g>
<!-- Node4&#45;&gt;Node6 -->
<g id="edge6" class="edge"><title>Node4&#45;&gt;Node6</title>
<path fill="none" stroke="midnightblue" d="M1151,-118.403C1151,-109.938 1151,-96.7283 1151,-85.8199"/>
<polygon fill="midnightblue" stroke="midnightblue" points="1154.5,-85.5806 1151,-75.5806 1147.5,-85.5806 1154.5,-85.5806"/>
</g>
<!-- Node7 -->
<g id="node8" class="node"><title>Node7</title>
<polygon fill="white" stroke="#bfbfbf" points="732,-56.5 732,-75.5 788,-75.5 788,-56.5 732,-56.5"/>
<text text-anchor="middle" x="760" y="-63.5" font-family="Helvetica,sans-Serif" font-size="10.00">algorithm</text>
</g>
<!-- Node4&#45;&gt;Node7 -->
<g id="edge7" class="edge"><title>Node4&#45;&gt;Node7</title>
<path fill="none" stroke="midnightblue" d="M1117.25,-118.466C1107.52,-116.177 1096.87,-113.832 1087,-112 983.138,-92.7258 859.304,-77.8768 798.112,-71.0737"/>
<polygon fill="midnightblue" stroke="midnightblue" points="798.46,-67.5909 788.136,-69.9744 797.693,-74.5488 798.46,-67.5909"/>
</g>
<!-- Node8 -->
<g id="node9" class="node"><title>Node8</title>
<polygon fill="white" stroke="#bfbfbf" points="612,-56.5 612,-75.5 656,-75.5 656,-56.5 612,-56.5"/>
<text text-anchor="middle" x="634" y="-63.5" font-family="Helvetica,sans-Serif" font-size="10.00">vector</text>
</g>
<!-- Node4&#45;&gt;Node8 -->
<g id="edge8" class="edge"><title>Node4&#45;&gt;Node8</title>
<path fill="none" stroke="midnightblue" d="M1118.62,-118.449C1108.55,-116.049 1097.37,-113.648 1087,-112 904.366,-82.9648 851.901,-109.443 666.316,-75.8819"/>
<polygon fill="midnightblue" stroke="midnightblue" points="666.693,-72.3926 656.224,-74.022 665.424,-79.2767 666.693,-72.3926"/>
</g>
<!-- Node17&#45;&gt;Node15 -->
<g id="edge50" class="edge"><title>Node17&#45;&gt;Node15</title>
<path fill="none" stroke="midnightblue" d="M187.21,-252.14C151.608,-246.784 104.938,-235.547 70,-212 38.6728,-190.887 32.1019,-179.433 19,-144 12.0462,-125.194 11.5145,-102.058 12.2724,-86.083"/>
<polygon fill="midnightblue" stroke="midnightblue" points="15.7796,-86.0988 12.9787,-75.8809 8.79627,-85.6152 15.7796,-86.0988"/>
</g>
<!-- Node18 -->
<g id="node19" class="node"><title>Node18</title>
<g id="a_node19"><a xlink:href="_detector__t_8h.html" target="_top" xlink:title="base/Detector_t.h">
<polygon fill="white" stroke="black" points="691.5,-186.5 691.5,-205.5 786.5,-205.5 786.5,-186.5 691.5,-186.5"/>
<text text-anchor="middle" x="739" y="-193.5" font-family="Helvetica,sans-Serif" font-size="10.00">base/Detector_t.h</text>
</a>
</g>
</g>
<!-- Node17&#45;&gt;Node18 -->
<g id="edge19" class="edge"><title>Node17&#45;&gt;Node18</title>
<path fill="none" stroke="midnightblue" d="M292.929,-250.636C387.287,-239.29 583.796,-215.662 681.409,-203.925"/>
<polygon fill="midnightblue" stroke="midnightblue" points="681.881,-207.393 691.392,-202.724 681.045,-200.443 681.881,-207.393"/>
</g>
<!-- Node27 -->
<g id="node28" class="node"><title>Node27</title>
<g id="a_node28"><a xlink:href="mapped__vectors_8h.html" target="_top" xlink:title="base/std_ext/mapped\l_vectors.h">
<polygon fill="white" stroke="black" points="268,-181 268,-211 378,-211 378,-181 268,-181"/>
<text text-anchor="start" x="276" y="-199" font-family="Helvetica,sans-Serif" font-size="10.00">base/std_ext/mapped</text>
<text text-anchor="middle" x="323" y="-188" font-family="Helvetica,sans-Serif" font-size="10.00">_vectors.h</text>
</a>
</g>
</g>
<!-- Node17&#45;&gt;Node27 -->
<g id="edge36" class="edge"><title>Node17&#45;&gt;Node27</title>
<path fill="none" stroke="midnightblue" d="M251.892,-248.403C263.133,-240.277 280.422,-227.779 295.137,-217.142"/>
<polygon fill="midnightblue" stroke="midnightblue" points="297.385,-219.836 303.439,-211.141 293.284,-214.163 297.385,-219.836"/>
</g>
<!-- Node17&#45;&gt;Node29 -->
<g id="edge48" class="edge"><title>Node17&#45;&gt;Node29</title>
<path fill="none" stroke="midnightblue" d="M187.31,-256.241C153.63,-252.67 112.234,-241.884 90,-212 63.4698,-176.343 68.8309,-151.079 90,-112 97.7486,-97.6958 112.234,-87.2188 125.94,-79.992"/>
<polygon fill="midnightblue" stroke="midnightblue" points="127.738,-83.0103 135.212,-75.501 124.686,-76.7104 127.738,-83.0103"/>
</g>
<!-- Node30 -->
<g id="node31" class="node"><title>Node30</title>
<g id="a_node31"><a xlink:href="shared__ptr__container_8h.html" target="_top" xlink:title="base/std_ext/shared\l_ptr_container.h">
<polygon fill="white" stroke="black" points="351.5,-113 351.5,-143 456.5,-143 456.5,-113 351.5,-113"/>
<text text-anchor="start" x="359.5" y="-131" font-family="Helvetica,sans-Serif" font-size="10.00">base/std_ext/shared</text>
<text text-anchor="middle" x="404" y="-120" font-family="Helvetica,sans-Serif" font-size="10.00">_ptr_container.h</text>
</a>
</g>
</g>
<!-- Node17&#45;&gt;Node30 -->
<g id="edge43" class="edge"><title>Node17&#45;&gt;Node30</title>
<path fill="none" stroke="midnightblue" d="M292.658,-254.007C324.376,-249.385 363.12,-238.265 387,-212 401.325,-196.244 404.885,-171.764 405.274,-153.467"/>
<polygon fill="midnightblue" stroke="midnightblue" points="408.772,-153.232 405.184,-143.263 401.772,-153.294 408.772,-153.232"/>
</g>
<!-- Node31 -->
<g id="node32" class="node"><title>Node31</title>
<polygon fill="white" stroke="#bfbfbf" points="314.5,-56.5 314.5,-75.5 373.5,-75.5 373.5,-56.5 314.5,-56.5"/>
<text text-anchor="middle" x="344" y="-63.5" font-family="Helvetica,sans-Serif" font-size="10.00">functional</text>
</g>
<!-- Node17&#45;&gt;Node31 -->
<g id="edge51" class="edge"><title>Node17&#45;&gt;Node31</title>
<path fill="none" stroke="midnightblue" d="M241.02,-248.066C242.961,-233.299 248.012,-203.134 259,-180 277.143,-141.801 309.358,-103.843 328.491,-83.0994"/>
<polygon fill="midnightblue" stroke="midnightblue" points="331.287,-85.2346 335.583,-75.5498 326.185,-80.4418 331.287,-85.2346"/>
</g>
<!-- Node32 -->
<g id="node33" class="node"><title>Node32</title>
<polygon fill="white" stroke="#bfbfbf" points="99.5,-186.5 99.5,-205.5 134.5,-205.5 134.5,-186.5 99.5,-186.5"/>
<text text-anchor="middle" x="117" y="-193.5" font-family="Helvetica,sans-Serif" font-size="10.00">map</text>
</g>
<!-- Node17&#45;&gt;Node32 -->
<g id="edge49" class="edge"><title>Node17&#45;&gt;Node32</title>
<path fill="none" stroke="midnightblue" d="M222.377,-248.403C201.826,-238.379 167.636,-221.701 143.793,-210.07"/>
<polygon fill="midnightblue" stroke="midnightblue" points="145.112,-206.819 134.59,-205.581 142.043,-213.111 145.112,-206.819"/>
</g>
<!-- Node18&#45;&gt;Node5 -->
<g id="edge33" class="edge"><title>Node18&#45;&gt;Node5</title>
<path fill="none" stroke="midnightblue" d="M783.66,-186.464C818.63,-178.618 867.754,-164.98 907,-144 926.773,-133.43 926.639,-123.307 946,-112 973.42,-95.986 1007.6,-83.5254 1031.73,-75.8175"/>
<polygon fill="midnightblue" stroke="midnightblue" points="1032.9,-79.1195 1041.41,-72.8087 1030.82,-72.435 1032.9,-79.1195"/>
</g>
<!-- Node18&#45;&gt;Node8 -->
<g id="edge35" class="edge"><title>Node18&#45;&gt;Node8</title>
<path fill="none" stroke="midnightblue" d="M725.916,-186.431C712.458,-177.149 691.474,-161.329 677,-144 661.863,-125.877 649.359,-101.646 641.808,-85.2421"/>
<polygon fill="midnightblue" stroke="midnightblue" points="644.843,-83.4532 637.584,-75.736 638.446,-86.2957 644.843,-83.4532"/>
</g>
<!-- Node18&#45;&gt;Node11 -->
<g id="edge34" class="edge"><title>Node18&#45;&gt;Node11</title>
<path fill="none" stroke="midnightblue" d="M701.456,-186.429C662.117,-177.146 598.691,-161.324 545,-144 542.217,-143.102 539.343,-142.115 536.476,-141.089"/>
<polygon fill="midnightblue" stroke="midnightblue" points="537.491,-137.732 526.899,-137.524 535.05,-144.293 537.491,-137.732"/>
</g>
<!-- Node18&#45;&gt;Node13 -->
<g id="edge31" class="edge"><title>Node18&#45;&gt;Node13</title>
<path fill="none" stroke="midnightblue" d="M779.71,-186.456C820.842,-177.42 885.998,-161.997 941,-144 943.567,-143.16 946.21,-142.228 948.846,-141.252"/>
<polygon fill="midnightblue" stroke="midnightblue" points="950.166,-144.494 958.216,-137.606 947.628,-137.97 950.166,-144.494"/>
</g>
<!-- Node18&#45;&gt;Node14 -->
<g id="edge32" class="edge"><title>Node18&#45;&gt;Node14</title>
<path fill="none" stroke="midnightblue" d="M786.601,-188.71C841.198,-180.884 933.088,-165.833 1010,-144 1012.97,-143.156 1016.04,-142.177 1019.08,-141.131"/>
<polygon fill="midnightblue" stroke="midnightblue" points="1020.4,-144.374 1028.59,-137.649 1018,-137.801 1020.4,-144.374"/>
</g>
<!-- Node19 -->
<g id="node20" class="node"><title>Node19</title>
<g id="a_node20"><a xlink:href="bitflag_8h.html" target="_top" xlink:title="base/bitflag.h">
<polygon fill="white" stroke="black" points="554.5,-118.5 554.5,-137.5 629.5,-137.5 629.5,-118.5 554.5,-118.5"/>
<text text-anchor="middle" x="592" y="-125.5" font-family="Helvetica,sans-Serif" font-size="10.00">base/bitflag.h</text>
</a>
</g>
</g>
<!-- Node18&#45;&gt;Node19 -->
<g id="edge20" class="edge"><title>Node18&#45;&gt;Node19</title>
<path fill="none" stroke="midnightblue" d="M719.782,-186.372C694.471,-175.007 649.755,-154.931 620.5,-141.796"/>
<polygon fill="midnightblue" stroke="midnightblue" points="621.779,-138.533 611.222,-137.63 618.912,-144.919 621.779,-138.533"/>
</g>
<!-- Node21 -->
<g id="node22" class="node"><title>Node21</title>
<g id="a_node22"><a xlink:href="vec3_8h.html" target="_top" xlink:title="base/vec/vec3.h">
<polygon fill="white" stroke="black" points="809.5,-118.5 809.5,-137.5 898.5,-137.5 898.5,-118.5 809.5,-118.5"/>
<text text-anchor="middle" x="854" y="-125.5" font-family="Helvetica,sans-Serif" font-size="10.00">base/vec/vec3.h</text>
</a>
</g>
</g>
<!-- Node18&#45;&gt;Node21 -->
<g id="edge22" class="edge"><title>Node18&#45;&gt;Node21</title>
<path fill="none" stroke="midnightblue" d="M754.034,-186.372C773.405,-175.254 807.304,-155.8 830.194,-142.662"/>
<polygon fill="midnightblue" stroke="midnightblue" points="832.031,-145.644 838.962,-137.63 828.547,-139.573 832.031,-145.644"/>
</g>
<!-- Node25 -->
<g id="node26" class="node"><title>Node25</title>
<g id="a_node26"><a xlink:href="base_2std__ext_2math_8h.html" target="_top" xlink:title="base/std_ext/math.h">
<polygon fill="white" stroke="black" points="686,-118.5 686,-137.5 792,-137.5 792,-118.5 686,-118.5"/>
<text text-anchor="middle" x="739" y="-125.5" font-family="Helvetica,sans-Serif" font-size="10.00">base/std_ext/math.h</text>
</a>
</g>
</g>
<!-- Node18&#45;&gt;Node25 -->
<g id="edge27" class="edge"><title>Node18&#45;&gt;Node25</title>
<path fill="none" stroke="midnightblue" d="M739,-186.372C739,-176.643 739,-160.528 739,-147.85"/>
<polygon fill="midnightblue" stroke="midnightblue" points="742.5,-147.841 739,-137.841 735.5,-147.841 742.5,-147.841"/>
</g>
<!-- Node20 -->
<g id="node21" class="node"><title>Node20</title>
<polygon fill="white" stroke="#bfbfbf" points="552.5,-56.5 552.5,-75.5 593.5,-75.5 593.5,-56.5 552.5,-56.5"/>
<text text-anchor="middle" x="573" y="-63.5" font-family="Helvetica,sans-Serif" font-size="10.00">bitset</text>
</g>
<!-- Node19&#45;&gt;Node20 -->
<g id="edge21" class="edge"><title>Node19&#45;&gt;Node20</title>
<path fill="none" stroke="midnightblue" d="M589.278,-118.403C586.541,-109.76 582.237,-96.17 578.742,-85.1341"/>
<polygon fill="midnightblue" stroke="midnightblue" points="582.073,-84.0574 575.717,-75.5806 575.399,-86.1707 582.073,-84.0574"/>
</g>
<!-- Node22 -->
<g id="node23" class="node"><title>Node22</title>
<g id="a_node23"><a xlink:href="vec2_8h.html" target="_top" xlink:title="vec2.h">
<polygon fill="white" stroke="black" points="882,-56.5 882,-75.5 928,-75.5 928,-56.5 882,-56.5"/>
<text text-anchor="middle" x="905" y="-63.5" font-family="Helvetica,sans-Serif" font-size="10.00">vec2.h</text>
</a>
</g>
</g>
<!-- Node21&#45;&gt;Node22 -->
<g id="edge23" class="edge"><title>Node21&#45;&gt;Node22</title>
<path fill="none" stroke="midnightblue" d="M861.307,-118.403C869.033,-109.314 881.408,-94.7559 891.018,-83.4489"/>
<polygon fill="midnightblue" stroke="midnightblue" points="893.897,-85.4668 897.706,-75.5806 888.563,-80.9332 893.897,-85.4668"/>
</g>
<!-- Node23 -->
<g id="node24" class="node"><title>Node23</title>
<polygon fill="white" stroke="#bfbfbf" points="832,-0.5 832,-19.5 876,-19.5 876,-0.5 832,-0.5"/>
<text text-anchor="middle" x="854" y="-7.5" font-family="Helvetica,sans-Serif" font-size="10.00">cmath</text>
</g>
<!-- Node21&#45;&gt;Node23 -->
<g id="edge26" class="edge"><title>Node21&#45;&gt;Node23</title>
<path fill="none" stroke="midnightblue" d="M854,-118.281C854,-99.5475 854,-55.098 854,-29.6822"/>
<polygon fill="midnightblue" stroke="midnightblue" points="857.5,-29.5047 854,-19.5048 850.5,-29.5048 857.5,-29.5047"/>
</g>
<!-- Node24 -->
<g id="node25" class="node"><title>Node24</title>
<polygon fill="white" stroke="#bfbfbf" points="946,-56.5 946,-75.5 998,-75.5 998,-56.5 946,-56.5"/>
<text text-anchor="middle" x="972" y="-63.5" font-family="Helvetica,sans-Serif" font-size="10.00">ostream</text>
</g>
<!-- Node21&#45;&gt;Node24 -->
<g id="edge25" class="edge"><title>Node21&#45;&gt;Node24</title>
<path fill="none" stroke="midnightblue" d="M870.907,-118.403C890.534,-108.423 923.131,-91.8487 945.99,-80.2253"/>
<polygon fill="midnightblue" stroke="midnightblue" points="947.797,-83.233 955.125,-75.5806 944.625,-76.9933 947.797,-83.233"/>
</g>
<!-- Node22&#45;&gt;Node23 -->
<g id="edge24" class="edge"><title>Node22&#45;&gt;Node23</title>
<path fill="none" stroke="midnightblue" d="M896.578,-56.083C889.152,-48.2195 878.148,-36.5688 869.188,-27.0813"/>
<polygon fill="midnightblue" stroke="midnightblue" points="871.676,-24.618 862.265,-19.7511 866.587,-29.4244 871.676,-24.618"/>
</g>
<!-- Node25&#45;&gt;Node8 -->
<g id="edge30" class="edge"><title>Node25&#45;&gt;Node8</title>
<path fill="none" stroke="midnightblue" d="M723.956,-118.403C706.725,-108.557 678.26,-92.2915 657.966,-80.6949"/>
<polygon fill="midnightblue" stroke="midnightblue" points="659.435,-77.5032 649.016,-75.5806 655.962,-83.5809 659.435,-77.5032"/>
</g>
<!-- Node25&#45;&gt;Node23 -->
<g id="edge28" class="edge"><title>Node25&#45;&gt;Node23</title>
<path fill="none" stroke="midnightblue" d="M749.406,-118.305C761.081,-108.411 780.424,-91.597 796,-76 811.78,-60.1984 828.652,-41.001 840.107,-27.5818"/>
<polygon fill="midnightblue" stroke="midnightblue" points="842.996,-29.5855 846.786,-19.6916 837.654,-25.0628 842.996,-29.5855"/>
</g>
<!-- Node26 -->
<g id="node27" class="node"><title>Node26</title>
<polygon fill="white" stroke="#bfbfbf" points="674,-56.5 674,-75.5 714,-75.5 714,-56.5 674,-56.5"/>
<text text-anchor="middle" x="694" y="-63.5" font-family="Helvetica,sans-Serif" font-size="10.00">limits</text>
</g>
<!-- Node25&#45;&gt;Node26 -->
<g id="edge29" class="edge"><title>Node25&#45;&gt;Node26</title>
<path fill="none" stroke="midnightblue" d="M732.553,-118.403C725.803,-109.403 715.031,-95.0408 706.587,-83.7824"/>
<polygon fill="midnightblue" stroke="midnightblue" points="709.235,-81.4806 700.435,-75.5806 703.635,-85.6806 709.235,-81.4806"/>
</g>
<!-- Node27&#45;&gt;Node8 -->
<g id="edge40" class="edge"><title>Node27&#45;&gt;Node8</title>
<path fill="none" stroke="midnightblue" d="M321.787,-180.898C321.03,-162.215 322.817,-129.575 342,-112 382.992,-74.4445 530.17,-86.6073 601.729,-75.5026"/>
<polygon fill="midnightblue" stroke="midnightblue" points="602.504,-78.9192 611.716,-73.6867 601.252,-72.0321 602.504,-78.9192"/>
</g>
<!-- Node27&#45;&gt;Node11 -->
<g id="edge42" class="edge"><title>Node27&#45;&gt;Node11</title>
<path fill="none" stroke="midnightblue" d="M362.2,-180.992C390.726,-170.78 430.277,-156.587 465,-144 467.583,-143.064 470.257,-142.092 472.943,-141.113"/>
<polygon fill="midnightblue" stroke="midnightblue" points="474.399,-144.308 482.593,-137.591 471.999,-137.732 474.399,-144.308"/>
</g>
<!-- Node28 -->
<g id="node29" class="node"><title>Node28</title>
<g id="a_node29"><a xlink:href="memory_8h.html" target="_top" xlink:title="base/std_ext/memory.h">
<polygon fill="white" stroke="black" points="99.5,-118.5 99.5,-137.5 218.5,-137.5 218.5,-118.5 99.5,-118.5"/>
<text text-anchor="middle" x="159" y="-125.5" font-family="Helvetica,sans-Serif" font-size="10.00">base/std_ext/memory.h</text>
</a>
</g>
</g>
<!-- Node27&#45;&gt;Node28 -->
<g id="edge37" class="edge"><title>Node27&#45;&gt;Node28</title>
<path fill="none" stroke="midnightblue" d="M287.818,-180.841C258.815,-169.169 218.06,-152.768 190.206,-141.558"/>
<polygon fill="midnightblue" stroke="midnightblue" points="191.157,-138.168 180.573,-137.682 188.543,-144.662 191.157,-138.168"/>
</g>
<!-- Node27&#45;&gt;Node29 -->
<g id="edge41" class="edge"><title>Node27&#45;&gt;Node29</title>
<path fill="none" stroke="midnightblue" d="M307.882,-180.854C289.386,-163.806 256.845,-134.63 227,-112 212.427,-100.95 195.245,-89.5931 181.799,-81.0527"/>
<polygon fill="midnightblue" stroke="midnightblue" points="183.494,-77.9844 173.165,-75.6285 179.771,-83.9118 183.494,-77.9844"/>
</g>
<!-- Node28&#45;&gt;Node15 -->
<g id="edge39" class="edge"><title>Node28&#45;&gt;Node15</title>
<path fill="none" stroke="midnightblue" d="M138.225,-118.403C111.723,-107.437 65.9787,-88.5084 38.0108,-76.9355"/>
<polygon fill="midnightblue" stroke="midnightblue" points="39.158,-73.6225 28.5796,-73.0329 36.4815,-80.0906 39.158,-73.6225"/>
</g>
<!-- Node28&#45;&gt;Node29 -->
<g id="edge38" class="edge"><title>Node28&#45;&gt;Node29</title>
<path fill="none" stroke="midnightblue" d="M159,-118.403C159,-109.938 159,-96.7283 159,-85.8199"/>
<polygon fill="midnightblue" stroke="midnightblue" points="162.5,-85.5806 159,-75.5806 155.5,-85.5806 162.5,-85.5806"/>
</g>
<!-- Node30&#45;&gt;Node7 -->
<g id="edge47" class="edge"><title>Node30&#45;&gt;Node7</title>
<path fill="none" stroke="midnightblue" d="M456.689,-113.88C459.833,-113.213 462.954,-112.58 466,-112 576.091,-91.0245 607.925,-97.2697 721.627,-76.0929"/>
<polygon fill="midnightblue" stroke="midnightblue" points="722.607,-79.4696 731.781,-74.1701 721.305,-72.5918 722.607,-79.4696"/>
</g>
<!-- Node30&#45;&gt;Node8 -->
<g id="edge44" class="edge"><title>Node30&#45;&gt;Node8</title>
<path fill="none" stroke="midnightblue" d="M456.61,-113.785C496.557,-103.67 552.815,-89.2493 602,-76 602.101,-75.9728 602.202,-75.9455 602.304,-75.9182"/>
<polygon fill="midnightblue" stroke="midnightblue" points="603.267,-79.2833 611.984,-73.2609 601.414,-72.533 603.267,-79.2833"/>
</g>
<!-- Node30&#45;&gt;Node29 -->
<g id="edge45" class="edge"><title>Node30&#45;&gt;Node29</title>
<path fill="none" stroke="midnightblue" d="M351.441,-114.128C304.26,-102.574 236.262,-85.9212 194.999,-75.8162"/>
<polygon fill="midnightblue" stroke="midnightblue" points="195.66,-72.3745 185.114,-73.3953 193.994,-79.1736 195.66,-72.3745"/>
</g>
<!-- Node30&#45;&gt;Node31 -->
<g id="edge46" class="edge"><title>Node30&#45;&gt;Node31</title>
<path fill="none" stroke="midnightblue" d="M389.781,-112.781C380.792,-103.792 369.162,-92.162 359.873,-82.8731"/>
<polygon fill="midnightblue" stroke="midnightblue" points="362.277,-80.3267 352.731,-75.7305 357.327,-85.2765 362.277,-80.3267"/>
</g>
</g>
</svg>
