<?xml version="1.0" encoding="UTF-8" standalone="no"?>
<!DOCTYPE svg PUBLIC "-//W3C//DTD SVG 1.1//EN"
 "http://www.w3.org/Graphics/SVG/1.1/DTD/svg11.dtd">
<!-- Generated by graphviz version 2.36.0 (20140111.2315)
 -->
<!-- Title: src/base/WrapTTree.cc Pages: 1 -->
<svg width="693pt" height="140pt"
 viewBox="0.00 0.00 693.00 140.00" xmlns="http://www.w3.org/2000/svg" xmlns:xlink="http://www.w3.org/1999/xlink">
<g id="graph0" class="graph" transform="scale(1 1) rotate(0) translate(4 136)">
<title>src/base/WrapTTree.cc</title>
<polygon fill="white" stroke="none" points="-4,4 -4,-136 689,-136 689,4 -4,4"/>
<!-- Node0 -->
<g id="node1" class="node"><title>Node0</title>
<polygon fill="#bfbfbf" stroke="black" points="367.5,-112.5 367.5,-131.5 486.5,-131.5 486.5,-112.5 367.5,-112.5"/>
<text text-anchor="middle" x="427" y="-119.5" font-family="Helvetica,sans-Serif" font-size="10.00">src/base/WrapTTree.cc</text>
</g>
<!-- Node1 -->
<g id="node2" class="node"><title>Node1</title>
<g id="a_node2"><a xlink:href="_wrap_t_tree_8h.html" target="_top" xlink:title="WrapTTree.h">
<polygon fill="white" stroke="black" points="91,-56.5 91,-75.5 165,-75.5 165,-56.5 91,-56.5"/>
<text text-anchor="middle" x="128" y="-63.5" font-family="Helvetica,sans-Serif" font-size="10.00">WrapTTree.h</text>
</a>
</g>
</g>
<!-- Node0&#45;&gt;Node1 -->
<g id="edge1" class="edge"><title>Node0&#45;&gt;Node1</title>
<path fill="none" stroke="midnightblue" d="M377.506,-112.456C328.663,-103.966 251.585,-90.4126 175.4,-76.2373"/>
<polygon fill="midnightblue" stroke="midnightblue" points="175.619,-72.7178 165.147,-74.3246 174.335,-79.5991 175.619,-72.7178"/>
</g>
<!-- Node7 -->
<g id="node8" class="node"><title>Node7</title>
<g id="a_node8"><a xlink:href="string_8h.html" target="_top" xlink:title="base/std_ext/string.h">
<polygon fill="white" stroke="black" points="183,-56.5 183,-75.5 291,-75.5 291,-56.5 183,-56.5"/>
<text text-anchor="middle" x="237" y="-63.5" font-family="Helvetica,sans-Serif" font-size="10.00">base/std_ext/string.h</text>
</a>
</g>
</g>
<!-- Node0&#45;&gt;Node7 -->
<g id="edge7" class="edge"><title>Node0&#45;&gt;Node7</title>
<path fill="none" stroke="midnightblue" d="M396.894,-112.444C364.374,-103.201 312.421,-88.4356 276.609,-78.2572"/>
<polygon fill="midnightblue" stroke="midnightblue" points="277.541,-74.8837 266.965,-75.5164 275.627,-81.617 277.541,-74.8837"/>
</g>
<!-- Node9 -->
<g id="node10" class="node"><title>Node9</title>
<g id="a_node10"><a xlink:href="memory_8h.html" target="_top" xlink:title="base/std_ext/memory.h">
<polygon fill="white" stroke="black" points="309.5,-56.5 309.5,-75.5 428.5,-75.5 428.5,-56.5 309.5,-56.5"/>
<text text-anchor="middle" x="369" y="-63.5" font-family="Helvetica,sans-Serif" font-size="10.00">base/std_ext/memory.h</text>
</a>
</g>
</g>
<!-- Node0&#45;&gt;Node9 -->
<g id="edge12" class="edge"><title>Node0&#45;&gt;Node9</title>
<path fill="none" stroke="midnightblue" d="M417.681,-112.324C409.107,-104.341 396.188,-92.3128 385.812,-82.6529"/>
<polygon fill="midnightblue" stroke="midnightblue" points="388.192,-80.0865 378.488,-75.8339 383.422,-85.2098 388.192,-80.0865"/>
</g>
<!-- Node11 -->
<g id="node12" class="node"><title>Node11</title>
<g id="a_node12"><a xlink:href="_logger_8h.html" target="_top" xlink:title="base/Logger.h">
<polygon fill="white" stroke="black" points="447,-56.5 447,-75.5 525,-75.5 525,-56.5 447,-56.5"/>
<text text-anchor="middle" x="486" y="-63.5" font-family="Helvetica,sans-Serif" font-size="10.00">base/Logger.h</text>
</a>
</g>
</g>
<!-- Node0&#45;&gt;Node11 -->
<g id="edge15" class="edge"><title>Node0&#45;&gt;Node11</title>
<path fill="none" stroke="midnightblue" d="M436.479,-112.324C445.201,-104.341 458.343,-92.3128 468.898,-82.6529"/>
<polygon fill="midnightblue" stroke="midnightblue" points="471.334,-85.1674 476.348,-75.8339 466.608,-80.0036 471.334,-85.1674"/>
</g>
<!-- Node13 -->
<g id="node14" class="node"><title>Node13</title>
<polygon fill="white" stroke="#bfbfbf" points="543.5,-56.5 543.5,-75.5 616.5,-75.5 616.5,-56.5 543.5,-56.5"/>
<text text-anchor="middle" x="580" y="-63.5" font-family="Helvetica,sans-Serif" font-size="10.00">TBufferFile.h</text>
</g>
<!-- Node0&#45;&gt;Node13 -->
<g id="edge17" class="edge"><title>Node0&#45;&gt;Node13</title>
<path fill="none" stroke="midnightblue" d="M451.243,-112.444C476.871,-103.399 517.485,-89.064 546.238,-78.9158"/>
<polygon fill="midnightblue" stroke="midnightblue" points="547.605,-82.1452 555.87,-75.5164 545.275,-75.5442 547.605,-82.1452"/>
</g>
<!-- Node14 -->
<g id="node15" class="node"><title>Node14</title>
<polygon fill="white" stroke="#bfbfbf" points="635,-56.5 635,-75.5 685,-75.5 685,-56.5 635,-56.5"/>
<text text-anchor="middle" x="660" y="-63.5" font-family="Helvetica,sans-Serif" font-size="10.00">TLeaf.h</text>
</g>
<!-- Node0&#45;&gt;Node14 -->
<g id="edge18" class="edge"><title>Node0&#45;&gt;Node14</title>
<path fill="none" stroke="midnightblue" d="M466.148,-112.445C506.145,-103.623 570.01,-89.3161 625,-76 625.099,-75.976 625.198,-75.952 625.298,-75.9278"/>
<polygon fill="midnightblue" stroke="midnightblue" points="625.923,-79.3789 634.786,-73.5741 624.238,-72.5848 625.923,-79.3789"/>
</g>
<!-- Node2 -->
<g id="node3" class="node"><title>Node2</title>
<polygon fill="white" stroke="#bfbfbf" points="0,-0.5 0,-19.5 50,-19.5 50,-0.5 0,-0.5"/>
<text text-anchor="middle" x="25" y="-7.5" font-family="Helvetica,sans-Serif" font-size="10.00">TTree.h</text>
</g>
<!-- Node1&#45;&gt;Node2 -->
<g id="edge2" class="edge"><title>Node1&#45;&gt;Node2</title>
<path fill="none" stroke="midnightblue" d="M111.451,-56.324C95.0084,-47.7034 69.5652,-34.3643 50.5316,-24.3855"/>
<polygon fill="midnightblue" stroke="midnightblue" points="51.9895,-21.198 41.5077,-19.6545 48.7391,-27.3977 51.9895,-21.198"/>
</g>
<!-- Node3 -->
<g id="node4" class="node"><title>Node3</title>
<polygon fill="white" stroke="#bfbfbf" points="68,-0.5 68,-19.5 112,-19.5 112,-0.5 68,-0.5"/>
<text text-anchor="middle" x="90" y="-7.5" font-family="Helvetica,sans-Serif" font-size="10.00">vector</text>
</g>
<!-- Node1&#45;&gt;Node3 -->
<g id="edge3" class="edge"><title>Node1&#45;&gt;Node3</title>
<path fill="none" stroke="midnightblue" d="M121.725,-56.083C116.358,-48.4554 108.482,-37.2645 101.921,-27.9408"/>
<polygon fill="midnightblue" stroke="midnightblue" points="104.775,-25.9149 96.1582,-19.7511 99.0508,-29.9434 104.775,-25.9149"/>
</g>
<!-- Node4 -->
<g id="node5" class="node"><title>Node4</title>
<polygon fill="white" stroke="#bfbfbf" points="130.5,-0.5 130.5,-19.5 171.5,-19.5 171.5,-0.5 130.5,-0.5"/>
<text text-anchor="middle" x="151" y="-7.5" font-family="Helvetica,sans-Serif" font-size="10.00">string</text>
</g>
<!-- Node1&#45;&gt;Node4 -->
<g id="edge4" class="edge"><title>Node1&#45;&gt;Node4</title>
<path fill="none" stroke="midnightblue" d="M131.798,-56.083C134.913,-48.77 139.423,-38.1814 143.289,-29.1034"/>
<polygon fill="midnightblue" stroke="midnightblue" points="146.574,-30.3229 147.273,-19.7511 140.134,-27.5798 146.574,-30.3229"/>
</g>
<!-- Node5 -->
<g id="node6" class="node"><title>Node5</title>
<polygon fill="white" stroke="#bfbfbf" points="190,-0.5 190,-19.5 246,-19.5 246,-0.5 190,-0.5"/>
<text text-anchor="middle" x="218" y="-7.5" font-family="Helvetica,sans-Serif" font-size="10.00">algorithm</text>
</g>
<!-- Node1&#45;&gt;Node5 -->
<g id="edge5" class="edge"><title>Node1&#45;&gt;Node5</title>
<path fill="none" stroke="midnightblue" d="M142.46,-56.324C156.5,-47.9002 178.048,-34.9709 194.543,-25.0741"/>
<polygon fill="midnightblue" stroke="midnightblue" points="196.802,-27.8007 203.576,-19.6545 193.2,-21.7983 196.802,-27.8007"/>
</g>
<!-- Node6 -->
<g id="node7" class="node"><title>Node6</title>
<polygon fill="white" stroke="#bfbfbf" points="334,-0.5 334,-19.5 386,-19.5 386,-0.5 334,-0.5"/>
<text text-anchor="middle" x="360" y="-7.5" font-family="Helvetica,sans-Serif" font-size="10.00">memory</text>
</g>
<!-- Node1&#45;&gt;Node6 -->
<g id="edge6" class="edge"><title>Node1&#45;&gt;Node6</title>
<path fill="none" stroke="midnightblue" d="M165.105,-56.8391C202.745,-48.4907 262.926,-34.9524 323.863,-20.2306"/>
<polygon fill="midnightblue" stroke="midnightblue" points="324.752,-23.6164 333.646,-17.8583 323.103,-16.8136 324.752,-23.6164"/>
</g>
<!-- Node7&#45;&gt;Node3 -->
<g id="edge11" class="edge"><title>Node7&#45;&gt;Node3</title>
<path fill="none" stroke="midnightblue" d="M213.707,-56.4435C188.904,-47.3322 149.489,-32.8531 121.831,-22.6929"/>
<polygon fill="midnightblue" stroke="midnightblue" points="122.815,-19.3258 112.221,-19.1629 120.401,-25.8965 122.815,-19.3258"/>
</g>
<!-- Node7&#45;&gt;Node4 -->
<g id="edge8" class="edge"><title>Node7&#45;&gt;Node4</title>
<path fill="none" stroke="midnightblue" d="M223.183,-56.324C209.767,-47.9002 189.176,-34.9709 173.414,-25.0741"/>
<polygon fill="midnightblue" stroke="midnightblue" points="175.113,-22.0081 164.783,-19.6545 171.391,-27.9364 175.113,-22.0081"/>
</g>
<!-- Node7&#45;&gt;Node5 -->
<g id="edge10" class="edge"><title>Node7&#45;&gt;Node5</title>
<path fill="none" stroke="midnightblue" d="M233.863,-56.083C231.317,-48.8486 227.644,-38.4087 224.473,-29.3968"/>
<polygon fill="midnightblue" stroke="midnightblue" points="227.7,-28.0225 221.079,-19.7511 221.097,-30.3459 227.7,-28.0225"/>
</g>
<!-- Node8 -->
<g id="node9" class="node"><title>Node8</title>
<polygon fill="white" stroke="#bfbfbf" points="264,-0.5 264,-19.5 316,-19.5 316,-0.5 264,-0.5"/>
<text text-anchor="middle" x="290" y="-7.5" font-family="Helvetica,sans-Serif" font-size="10.00">sstream</text>
</g>
<!-- Node7&#45;&gt;Node8 -->
<g id="edge9" class="edge"><title>Node7&#45;&gt;Node8</title>
<path fill="none" stroke="midnightblue" d="M245.752,-56.083C253.47,-48.2195 264.905,-36.5688 274.217,-27.0813"/>
<polygon fill="midnightblue" stroke="midnightblue" points="276.904,-29.3396 281.411,-19.7511 271.908,-24.4363 276.904,-29.3396"/>
</g>
<!-- Node9&#45;&gt;Node6 -->
<g id="edge13" class="edge"><title>Node9&#45;&gt;Node6</title>
<path fill="none" stroke="midnightblue" d="M367.514,-56.083C366.321,-48.9272 364.606,-38.6353 363.115,-29.6911"/>
<polygon fill="midnightblue" stroke="midnightblue" points="366.555,-29.0396 361.459,-19.7511 359.65,-30.1904 366.555,-29.0396"/>
</g>
<!-- Node10 -->
<g id="node11" class="node"><title>Node10</title>
<polygon fill="white" stroke="#bfbfbf" points="404.5,-0.5 404.5,-19.5 433.5,-19.5 433.5,-0.5 404.5,-0.5"/>
<text text-anchor="middle" x="419" y="-7.5" font-family="Helvetica,sans-Serif" font-size="10.00">list</text>
</g>
<!-- Node9&#45;&gt;Node10 -->
<g id="edge14" class="edge"><title>Node9&#45;&gt;Node10</title>
<path fill="none" stroke="midnightblue" d="M377.256,-56.083C384.465,-48.2982 395.11,-36.8015 403.846,-27.3665"/>
<polygon fill="midnightblue" stroke="midnightblue" points="406.671,-29.4666 410.897,-19.7511 401.535,-24.7108 406.671,-29.4666"/>
</g>
<!-- Node12 -->
<g id="node13" class="node"><title>Node12</title>
<polygon fill="white" stroke="#bfbfbf" points="451.5,-0.5 451.5,-19.5 540.5,-19.5 540.5,-0.5 451.5,-0.5"/>
<text text-anchor="middle" x="496" y="-7.5" font-family="Helvetica,sans-Serif" font-size="10.00">easylogging++.h</text>
</g>
<!-- Node11&#45;&gt;Node12 -->
<g id="edge16" class="edge"><title>Node11&#45;&gt;Node12</title>
<path fill="none" stroke="midnightblue" d="M487.651,-56.083C488.976,-48.9272 490.882,-38.6353 492.539,-29.6911"/>
<polygon fill="midnightblue" stroke="midnightblue" points="496,-30.2212 494.379,-19.7511 489.117,-28.9466 496,-30.2212"/>
</g>
</g>
</svg>
