<?xml version="1.0" encoding="UTF-8" standalone="no"?>
<!DOCTYPE svg PUBLIC "-//W3C//DTD SVG 1.1//EN"
 "http://www.w3.org/Graphics/SVG/1.1/DTD/svg11.dtd">
<!-- Generated by graphviz version 2.36.0 (20140111.2315)
 -->
<!-- Title: src/analysis/slowcontrol/processors/TaggEff.h Pages: 1 -->
<svg width="1351pt" height="244pt"
 viewBox="0.00 0.00 1351.00 244.00" xmlns="http://www.w3.org/2000/svg" xmlns:xlink="http://www.w3.org/1999/xlink">
<g id="graph0" class="graph" transform="scale(1 1) rotate(0) translate(4 240)">
<title>src/analysis/slowcontrol/processors/TaggEff.h</title>
<polygon fill="white" stroke="none" points="-4,4 -4,-240 1347,-240 1347,4 -4,4"/>
<!-- Node58 -->
<g id="node1" class="node"><title>Node58</title>
<polygon fill="#bfbfbf" stroke="black" points="572,-205 572,-235 694,-235 694,-205 572,-205"/>
<text text-anchor="start" x="580" y="-223" font-family="Helvetica,sans-Serif" font-size="10.00">src/analysis/slowcontrol</text>
<text text-anchor="middle" x="633" y="-212" font-family="Helvetica,sans-Serif" font-size="10.00">/processors/TaggEff.h</text>
</g>
<!-- Node59 -->
<g id="node2" class="node"><title>Node59</title>
<g id="a_node2"><a xlink:href="analysis_2slowcontrol_2processors_2_tagg_eff_8cc.html" target="_top" xlink:title="src/analysis/slowcontrol\l/processors/TaggEff.cc">
<polygon fill="white" stroke="black" points="500,-137 500,-167 622,-167 622,-137 500,-137"/>
<text text-anchor="start" x="508" y="-155" font-family="Helvetica,sans-Serif" font-size="10.00">src/analysis/slowcontrol</text>
<text text-anchor="middle" x="561" y="-144" font-family="Helvetica,sans-Serif" font-size="10.00">/processors/TaggEff.cc</text>
</a>
</g>
</g>
<!-- Node58&#45;&gt;Node59 -->
<g id="edge1" class="edge"><title>Node58&#45;&gt;Node59</title>
<path fill="none" stroke="midnightblue" d="M609.847,-197.776C598.975,-187.81 586.304,-176.196 576.592,-167.293"/>
<polygon fill="midnightblue" stroke="midnightblue" points="607.64,-200.502 617.377,-204.679 612.371,-195.342 607.64,-200.502"/>
</g>
<!-- Node60 -->
<g id="node3" class="node"><title>Node60</title>
<g id="a_node3"><a xlink:href="_slow_control_processors_8h.html" target="_top" xlink:title="src/analysis/slowcontrol\l/SlowControlProcessors.h">
<polygon fill="white" stroke="black" points="640.5,-137 640.5,-167 771.5,-167 771.5,-137 640.5,-137"/>
<text text-anchor="start" x="648.5" y="-155" font-family="Helvetica,sans-Serif" font-size="10.00">src/analysis/slowcontrol</text>
<text text-anchor="middle" x="706" y="-144" font-family="Helvetica,sans-Serif" font-size="10.00">/SlowControlProcessors.h</text>
</a>
</g>
</g>
<!-- Node58&#45;&gt;Node60 -->
<g id="edge2" class="edge"><title>Node58&#45;&gt;Node60</title>
<path fill="none" stroke="midnightblue" d="M656.53,-197.727C667.634,-187.687 680.579,-175.983 690.442,-167.066"/>
<polygon fill="midnightblue" stroke="midnightblue" points="653.91,-195.376 648.84,-204.679 658.605,-200.569 653.91,-195.376"/>
</g>
<!-- Node61 -->
<g id="node4" class="node"><title>Node61</title>
<g id="a_node4"><a xlink:href="_slow_control_manager_8h.html" target="_top" xlink:title="src/analysis/slowcontrol\l/SlowControlManager.h">
<polygon fill="white" stroke="black" points="141,-69 141,-99 263,-99 263,-69 141,-69"/>
<text text-anchor="start" x="149" y="-87" font-family="Helvetica,sans-Serif" font-size="10.00">src/analysis/slowcontrol</text>
<text text-anchor="middle" x="202" y="-76" font-family="Helvetica,sans-Serif" font-size="10.00">/SlowControlManager.h</text>
</a>
</g>
</g>
<!-- Node60&#45;&gt;Node61 -->
<g id="edge3" class="edge"><title>Node60&#45;&gt;Node61</title>
<path fill="none" stroke="midnightblue" d="M630.17,-135.956C487.001,-114.034 448.665,-117.593 309,-100 294.111,-98.1245 278.079,-95.9563 263.071,-93.8616"/>
<polygon fill="midnightblue" stroke="midnightblue" points="629.79,-139.439 640.207,-137.508 630.859,-132.521 629.79,-139.439"/>
</g>
<!-- Node64 -->
<g id="node7" class="node"><title>Node64</title>
<g id="a_node7"><a xlink:href="_test_slow_control_manager_8cc.html" target="_top" xlink:title="test/analysis/TestSlowControl\lManager.cc">
<polygon fill="white" stroke="black" points="266,-1 266,-31 414,-31 414,-1 266,-1"/>
<text text-anchor="start" x="274" y="-19" font-family="Helvetica,sans-Serif" font-size="10.00">test/analysis/TestSlowControl</text>
<text text-anchor="middle" x="340" y="-8" font-family="Helvetica,sans-Serif" font-size="10.00">Manager.cc</text>
</a>
</g>
</g>
<!-- Node60&#45;&gt;Node64 -->
<g id="edge14" class="edge"><title>Node60&#45;&gt;Node64</title>
<path fill="none" stroke="midnightblue" d="M630.197,-136.202C551.756,-127.437 383.557,-145.927 342,-100 325.076,-81.2959 330.356,-49.3779 335.391,-31.0523"/>
<polygon fill="midnightblue" stroke="midnightblue" points="629.82,-139.683 640.2,-137.556 630.759,-132.746 629.82,-139.683"/>
</g>
<!-- Node65 -->
<g id="node8" class="node"><title>Node65</title>
<g id="a_node8"><a xlink:href="_slow_control_processors_8cc.html" target="_top" xlink:title="src/analysis/slowcontrol\l/SlowControlProcessors.cc">
<polygon fill="white" stroke="black" points="351,-69 351,-99 487,-99 487,-69 351,-69"/>
<text text-anchor="start" x="359" y="-87" font-family="Helvetica,sans-Serif" font-size="10.00">src/analysis/slowcontrol</text>
<text text-anchor="middle" x="419" y="-76" font-family="Helvetica,sans-Serif" font-size="10.00">/SlowControlProcessors.cc</text>
</a>
</g>
</g>
<!-- Node60&#45;&gt;Node65 -->
<g id="edge7" class="edge"><title>Node60&#45;&gt;Node65</title>
<path fill="none" stroke="midnightblue" d="M634.868,-134.642C587.33,-123.71 525.439,-109.477 480.123,-99.0561"/>
<polygon fill="midnightblue" stroke="midnightblue" points="634.253,-138.092 644.783,-136.922 635.822,-131.27 634.253,-138.092"/>
</g>
<!-- Node66 -->
<g id="node9" class="node"><title>Node66</title>
<g id="a_node9"><a xlink:href="_beam_8cc.html" target="_top" xlink:title="src/analysis/slowcontrol\l/variables/Beam.cc">
<polygon fill="white" stroke="black" points="505,-69 505,-99 627,-99 627,-69 505,-69"/>
<text text-anchor="start" x="513" y="-87" font-family="Helvetica,sans-Serif" font-size="10.00">src/analysis/slowcontrol</text>
<text text-anchor="middle" x="566" y="-76" font-family="Helvetica,sans-Serif" font-size="10.00">/variables/Beam.cc</text>
</a>
</g>
</g>
<!-- Node60&#45;&gt;Node66 -->
<g id="edge8" class="edge"><title>Node60&#45;&gt;Node66</title>
<path fill="none" stroke="midnightblue" d="M666.716,-132.48C644.3,-121.913 616.641,-108.874 595.984,-99.1352"/>
<polygon fill="midnightblue" stroke="midnightblue" points="665.429,-135.743 675.966,-136.841 668.414,-129.411 665.429,-135.743"/>
</g>
<!-- Node67 -->
<g id="node10" class="node"><title>Node67</title>
<g id="a_node10"><a xlink:href="_clocks_8cc.html" target="_top" xlink:title="src/analysis/slowcontrol\l/variables/Clocks.cc">
<polygon fill="white" stroke="black" points="645,-69 645,-99 767,-99 767,-69 645,-69"/>
<text text-anchor="start" x="653" y="-87" font-family="Helvetica,sans-Serif" font-size="10.00">src/analysis/slowcontrol</text>
<text text-anchor="middle" x="706" y="-76" font-family="Helvetica,sans-Serif" font-size="10.00">/variables/Clocks.cc</text>
</a>
</g>
</g>
<!-- Node60&#45;&gt;Node67 -->
<g id="edge9" class="edge"><title>Node60&#45;&gt;Node67</title>
<path fill="none" stroke="midnightblue" d="M706,-126.532C706,-117.361 706,-107.245 706,-99.2931"/>
<polygon fill="midnightblue" stroke="midnightblue" points="702.5,-126.679 706,-136.679 709.5,-126.679 702.5,-126.679"/>
</g>
<!-- Node68 -->
<g id="node11" class="node"><title>Node68</title>
<g id="a_node11"><a xlink:href="variables_2_pair_spec_8cc.html" target="_top" xlink:title="src/analysis/slowcontrol\l/variables/Pairspec.cc">
<polygon fill="white" stroke="black" points="785,-69 785,-99 907,-99 907,-69 785,-69"/>
<text text-anchor="start" x="793" y="-87" font-family="Helvetica,sans-Serif" font-size="10.00">src/analysis/slowcontrol</text>
<text text-anchor="middle" x="846" y="-76" font-family="Helvetica,sans-Serif" font-size="10.00">/variables/Pairspec.cc</text>
</a>
</g>
</g>
<!-- Node60&#45;&gt;Node68 -->
<g id="edge10" class="edge"><title>Node60&#45;&gt;Node68</title>
<path fill="none" stroke="midnightblue" d="M745.284,-132.48C767.7,-121.913 795.359,-108.874 816.016,-99.1352"/>
<polygon fill="midnightblue" stroke="midnightblue" points="743.586,-129.411 736.034,-136.841 746.571,-135.743 743.586,-129.411"/>
</g>
<!-- Node69 -->
<g id="node12" class="node"><title>Node69</title>
<g id="a_node12"><a xlink:href="analysis_2slowcontrol_2variables_2_tagg_eff_8cc.html" target="_top" xlink:title="src/analysis/slowcontrol\l/variables/TaggEff.cc">
<polygon fill="white" stroke="black" points="925,-69 925,-99 1047,-99 1047,-69 925,-69"/>
<text text-anchor="start" x="933" y="-87" font-family="Helvetica,sans-Serif" font-size="10.00">src/analysis/slowcontrol</text>
<text text-anchor="middle" x="986" y="-76" font-family="Helvetica,sans-Serif" font-size="10.00">/variables/TaggEff.cc</text>
</a>
</g>
</g>
<!-- Node60&#45;&gt;Node69 -->
<g id="edge11" class="edge"><title>Node60&#45;&gt;Node69</title>
<path fill="none" stroke="midnightblue" d="M775.688,-134.574C822.028,-123.651 882.249,-109.456 926.368,-99.0561"/>
<polygon fill="midnightblue" stroke="midnightblue" points="774.654,-131.221 765.724,-136.922 776.26,-138.035 774.654,-131.221"/>
</g>
<!-- Node70 -->
<g id="node13" class="node"><title>Node70</title>
<g id="a_node13"><a xlink:href="_tagger_scalers_8cc.html" target="_top" xlink:title="src/analysis/slowcontrol\l/variables/TaggerScalers.cc">
<polygon fill="white" stroke="black" points="1065,-69 1065,-99 1203,-99 1203,-69 1065,-69"/>
<text text-anchor="start" x="1073" y="-87" font-family="Helvetica,sans-Serif" font-size="10.00">src/analysis/slowcontrol</text>
<text text-anchor="middle" x="1134" y="-76" font-family="Helvetica,sans-Serif" font-size="10.00">/variables/TaggerScalers.cc</text>
</a>
</g>
</g>
<!-- Node60&#45;&gt;Node70 -->
<g id="edge12" class="edge"><title>Node60&#45;&gt;Node70</title>
<path fill="none" stroke="midnightblue" d="M781.806,-140.963C852.803,-131.324 961.789,-115.914 1056,-100 1058.86,-99.5177 1061.77,-99.0135 1064.71,-98.4944"/>
<polygon fill="midnightblue" stroke="midnightblue" points="781.053,-137.533 771.613,-142.343 781.992,-144.47 781.053,-137.533"/>
</g>
<!-- Node71 -->
<g id="node14" class="node"><title>Node71</title>
<g id="a_node14"><a xlink:href="analysis_2slowcontrol_2variables_2_trigger_8cc.html" target="_top" xlink:title="src/analysis/slowcontrol\l/variables/Trigger.cc">
<polygon fill="white" stroke="black" points="1221,-69 1221,-99 1343,-99 1343,-69 1221,-69"/>
<text text-anchor="start" x="1229" y="-87" font-family="Helvetica,sans-Serif" font-size="10.00">src/analysis/slowcontrol</text>
<text text-anchor="middle" x="1282" y="-76" font-family="Helvetica,sans-Serif" font-size="10.00">/variables/Trigger.cc</text>
</a>
</g>
</g>
<!-- Node60&#45;&gt;Node71 -->
<g id="edge13" class="edge"><title>Node60&#45;&gt;Node71</title>
<path fill="none" stroke="midnightblue" d="M782.035,-145.972C881.328,-138.803 1060.36,-123.814 1212,-100 1214.95,-99.5372 1217.96,-99.0294 1220.99,-98.489"/>
<polygon fill="midnightblue" stroke="midnightblue" points="781.523,-142.499 771.798,-146.703 782.022,-149.482 781.523,-142.499"/>
</g>
<!-- Node62 -->
<g id="node5" class="node"><title>Node62</title>
<g id="a_node5"><a xlink:href="_physics_manager_8cc.html" target="_top" xlink:title="src/analysis/physics\l/PhysicsManager.cc">
<polygon fill="white" stroke="black" points="0,-1 0,-31 106,-31 106,-1 0,-1"/>
<text text-anchor="start" x="8" y="-19" font-family="Helvetica,sans-Serif" font-size="10.00">src/analysis/physics</text>
<text text-anchor="middle" x="53" y="-8" font-family="Helvetica,sans-Serif" font-size="10.00">/PhysicsManager.cc</text>
</a>
</g>
</g>
<!-- Node61&#45;&gt;Node62 -->
<g id="edge4" class="edge"><title>Node61&#45;&gt;Node62</title>
<path fill="none" stroke="midnightblue" d="M160.796,-64.7485C136.74,-54.093 106.854,-40.8547 84.6553,-31.0218"/>
<polygon fill="midnightblue" stroke="midnightblue" points="159.475,-67.9914 170.036,-68.8413 162.31,-61.5912 159.475,-67.9914"/>
</g>
<!-- Node63 -->
<g id="node6" class="node"><title>Node63</title>
<g id="a_node6"><a xlink:href="_slow_control_manager_8cc.html" target="_top" xlink:title="src/analysis/slowcontrol\l/SlowControlManager.cc">
<polygon fill="white" stroke="black" points="124,-1 124,-31 248,-31 248,-1 124,-1"/>
<text text-anchor="start" x="132" y="-19" font-family="Helvetica,sans-Serif" font-size="10.00">src/analysis/slowcontrol</text>
<text text-anchor="middle" x="186" y="-8" font-family="Helvetica,sans-Serif" font-size="10.00">/SlowControlManager.cc</text>
</a>
</g>
</g>
<!-- Node61&#45;&gt;Node63 -->
<g id="edge5" class="edge"><title>Node61&#45;&gt;Node63</title>
<path fill="none" stroke="midnightblue" d="M196.141,-58.8309C193.898,-49.5807 191.414,-39.3313 189.465,-31.2931"/>
<polygon fill="midnightblue" stroke="midnightblue" points="192.771,-59.7851 198.528,-68.679 199.574,-58.1359 192.771,-59.7851"/>
</g>
<!-- Node61&#45;&gt;Node64 -->
<g id="edge6" class="edge"><title>Node61&#45;&gt;Node64</title>
<path fill="none" stroke="midnightblue" d="M240.723,-64.4805C262.819,-53.9128 290.082,-40.8738 310.444,-31.1352"/>
<polygon fill="midnightblue" stroke="midnightblue" points="239.116,-61.3693 231.604,-68.8413 242.136,-67.6842 239.116,-61.3693"/>
</g>
</g>
</svg>
