<?xml version="1.0" encoding="UTF-8" standalone="no"?>
<!DOCTYPE svg PUBLIC "-//W3C//DTD SVG 1.1//EN"
 "http://www.w3.org/Graphics/SVG/1.1/DTD/svg11.dtd">
<!-- Generated by graphviz version 2.36.0 (20140111.2315)
 -->
<!-- Title: src/analysis/physics/calibration/CB_SourceCalib.h Pages: 1 -->
<svg width="160pt" height="108pt"
 viewBox="0.00 0.00 160.00 108.00" xmlns="http://www.w3.org/2000/svg" xmlns:xlink="http://www.w3.org/1999/xlink">
<g id="graph0" class="graph" transform="scale(1 1) rotate(0) translate(4 104)">
<title>src/analysis/physics/calibration/CB_SourceCalib.h</title>
<polygon fill="white" stroke="none" points="-4,4 -4,-104 156,-104 156,4 -4,4"/>
<!-- Node95 -->
<g id="node1" class="node"><title>Node95</title>
<polygon fill="#bfbfbf" stroke="black" points="2,-69 2,-99 150,-99 150,-69 2,-69"/>
<text text-anchor="start" x="10" y="-87" font-family="Helvetica,sans-Serif" font-size="10.00">src/analysis/physics</text>
<text text-anchor="middle" x="76" y="-76" font-family="Helvetica,sans-Serif" font-size="10.00">/calibration/CB_SourceCalib.h</text>
</g>
<!-- Node96 -->
<g id="node2" class="node"><title>Node96</title>
<g id="a_node2"><a xlink:href="analysis_2physics_2calibration_2_c_b___source_calib_8cc.html" target="_top" xlink:title="src/analysis/physics\l/calibration/CB_SourceCalib.cc">
<polygon fill="white" stroke="black" points="-0.5,-1 -0.5,-31 152.5,-31 152.5,-1 -0.5,-1"/>
<text text-anchor="start" x="7.5" y="-19" font-family="Helvetica,sans-Serif" font-size="10.00">src/analysis/physics</text>
<text text-anchor="middle" x="76" y="-8" font-family="Helvetica,sans-Serif" font-size="10.00">/calibration/CB_SourceCalib.cc</text>
</a>
</g>
</g>
<!-- Node95&#45;&gt;Node96 -->
<g id="edge1" class="edge"><title>Node95&#45;&gt;Node96</title>
<path fill="none" stroke="midnightblue" d="M76,-58.5322C76,-49.3606 76,-39.2449 76,-31.2931"/>
<polygon fill="midnightblue" stroke="midnightblue" points="72.5001,-58.6789 76,-68.679 79.5001,-58.679 72.5001,-58.6789"/>
</g>
</g>
</svg>
