<?xml version="1.0" encoding="UTF-8" standalone="no"?>
<!DOCTYPE svg PUBLIC "-//W3C//DTD SVG 1.1//EN"
 "http://www.w3.org/Graphics/SVG/1.1/DTD/svg11.dtd">
<!-- Generated by graphviz version 2.36.0 (20140111.2315)
 -->
<!-- Title: src/calibration/modules/TaggEff.h Pages: 1 -->
<svg width="1671pt" height="108pt"
 viewBox="0.00 0.00 1671.00 108.00" xmlns="http://www.w3.org/2000/svg" xmlns:xlink="http://www.w3.org/1999/xlink">
<g id="graph0" class="graph" transform="scale(1 1) rotate(0) translate(4 104)">
<title>src/calibration/modules/TaggEff.h</title>
<polygon fill="white" stroke="none" points="-4,4 -4,-104 1667,-104 1667,4 -4,4"/>
<!-- Node49 -->
<g id="node1" class="node"><title>Node49</title>
<polygon fill="#bfbfbf" stroke="black" points="801.5,-69 801.5,-99 918.5,-99 918.5,-69 801.5,-69"/>
<text text-anchor="start" x="809.5" y="-87" font-family="Helvetica,sans-Serif" font-size="10.00">src/calibration/modules</text>
<text text-anchor="middle" x="860" y="-76" font-family="Helvetica,sans-Serif" font-size="10.00">/TaggEff.h</text>
</g>
<!-- Node50 -->
<g id="node2" class="node"><title>Node50</title>
<g id="a_node2"><a xlink:href="_ant-make_tagg_eff_8cc.html" target="_top" xlink:title="progs/Ant&#45;makeTaggEff.cc">
<polygon fill="white" stroke="black" points="0,-6.5 0,-25.5 134,-25.5 134,-6.5 0,-6.5"/>
<text text-anchor="middle" x="67" y="-13.5" font-family="Helvetica,sans-Serif" font-size="10.00">progs/Ant&#45;makeTaggEff.cc</text>
</a>
</g>
</g>
<!-- Node49&#45;&gt;Node50 -->
<g id="edge1" class="edge"><title>Node49&#45;&gt;Node50</title>
<path fill="none" stroke="midnightblue" d="M791.136,-80.9386C663.039,-76.4756 379.647,-63.6458 143,-32 130.736,-30.36 117.471,-27.9615 105.509,-25.5615"/>
<polygon fill="midnightblue" stroke="midnightblue" points="791.083,-84.4388 801.197,-81.283 791.323,-77.4429 791.083,-84.4388"/>
</g>
<!-- Node51 -->
<g id="node3" class="node"><title>Node51</title>
<g id="a_node3"><a xlink:href="analysis_2slowcontrol_2processors_2_tagg_eff_8cc.html" target="_top" xlink:title="src/analysis/slowcontrol\l/processors/TaggEff.cc">
<polygon fill="white" stroke="black" points="152,-1 152,-31 274,-31 274,-1 152,-1"/>
<text text-anchor="start" x="160" y="-19" font-family="Helvetica,sans-Serif" font-size="10.00">src/analysis/slowcontrol</text>
<text text-anchor="middle" x="213" y="-8" font-family="Helvetica,sans-Serif" font-size="10.00">/processors/TaggEff.cc</text>
</a>
</g>
</g>
<!-- Node49&#45;&gt;Node51 -->
<g id="edge2" class="edge"><title>Node49&#45;&gt;Node51</title>
<path fill="none" stroke="midnightblue" d="M790.993,-79.6487C682.427,-73.7591 465.31,-59.4838 283,-32 280.05,-31.5553 277.039,-31.0622 274.002,-30.5336"/>
<polygon fill="midnightblue" stroke="midnightblue" points="790.983,-83.1531 801.156,-80.1926 791.357,-76.1631 790.983,-83.1531"/>
</g>
<!-- Node52 -->
<g id="node4" class="node"><title>Node52</title>
<g id="a_node4"><a xlink:href="calibration_2modules_2_tagg_eff_8cc.html" target="_top" xlink:title="src/calibration/modules\l/TaggEff.cc">
<polygon fill="white" stroke="black" points="292.5,-1 292.5,-31 409.5,-31 409.5,-1 292.5,-1"/>
<text text-anchor="start" x="300.5" y="-19" font-family="Helvetica,sans-Serif" font-size="10.00">src/calibration/modules</text>
<text text-anchor="middle" x="351" y="-8" font-family="Helvetica,sans-Serif" font-size="10.00">/TaggEff.cc</text>
</a>
</g>
</g>
<!-- Node49&#45;&gt;Node52 -->
<g id="edge3" class="edge"><title>Node49&#45;&gt;Node52</title>
<path fill="none" stroke="midnightblue" d="M791.223,-77.2358C704.2,-69.4407 549.879,-53.9443 419,-32 415.9,-31.4802 412.728,-30.9113 409.531,-30.3086"/>
<polygon fill="midnightblue" stroke="midnightblue" points="790.967,-80.7268 801.238,-78.1254 791.587,-73.7542 790.967,-80.7268"/>
</g>
<!-- Node53 -->
<g id="node5" class="node"><title>Node53</title>
<g id="a_node5"><a xlink:href="_setup__2014___e_p_t_8cc.html" target="_top" xlink:title="src/expconfig/setups\l/Setup_2014_EPT.cc">
<polygon fill="white" stroke="black" points="428,-1 428,-31 538,-31 538,-1 428,-1"/>
<text text-anchor="start" x="436" y="-19" font-family="Helvetica,sans-Serif" font-size="10.00">src/expconfig/setups</text>
<text text-anchor="middle" x="483" y="-8" font-family="Helvetica,sans-Serif" font-size="10.00">/Setup_2014_EPT.cc</text>
</a>
</g>
</g>
<!-- Node49&#45;&gt;Node53 -->
<g id="edge4" class="edge"><title>Node49&#45;&gt;Node53</title>
<path fill="none" stroke="midnightblue" d="M791.322,-73.197C727.743,-63.7935 630.685,-48.6042 547,-32 544.09,-31.4225 541.11,-30.8076 538.106,-30.1689"/>
<polygon fill="midnightblue" stroke="midnightblue" points="790.828,-76.6619 801.231,-74.6558 791.848,-69.7366 790.828,-76.6619"/>
</g>
<!-- Node54 -->
<g id="node6" class="node"><title>Node54</title>
<g id="a_node6"><a xlink:href="_setup__2017__03_8cc.html" target="_top" xlink:title="src/expconfig/setups\l/Setup_2017_03.cc">
<polygon fill="white" stroke="black" points="556.5,-1 556.5,-31 663.5,-31 663.5,-1 556.5,-1"/>
<text text-anchor="start" x="564.5" y="-19" font-family="Helvetica,sans-Serif" font-size="10.00">src/expconfig/setups</text>
<text text-anchor="middle" x="610" y="-8" font-family="Helvetica,sans-Serif" font-size="10.00">/Setup_2017_03.cc</text>
</a>
</g>
</g>
<!-- Node49&#45;&gt;Node54 -->
<g id="edge5" class="edge"><title>Node49&#45;&gt;Node54</title>
<path fill="none" stroke="midnightblue" d="M796.996,-66.367C755.728,-55.4721 702.387,-41.3902 663.243,-31.0561"/>
<polygon fill="midnightblue" stroke="midnightblue" points="796.113,-69.7537 806.675,-68.9223 797.9,-62.9856 796.113,-69.7537"/>
</g>
<!-- Node55 -->
<g id="node7" class="node"><title>Node55</title>
<g id="a_node7"><a xlink:href="_setup__2017__05_8cc.html" target="_top" xlink:title="src/expconfig/setups\l/Setup_2017_05.cc">
<polygon fill="white" stroke="black" points="681.5,-1 681.5,-31 788.5,-31 788.5,-1 681.5,-1"/>
<text text-anchor="start" x="689.5" y="-19" font-family="Helvetica,sans-Serif" font-size="10.00">src/expconfig/setups</text>
<text text-anchor="middle" x="735" y="-8" font-family="Helvetica,sans-Serif" font-size="10.00">/Setup_2017_05.cc</text>
</a>
</g>
</g>
<!-- Node49&#45;&gt;Node55 -->
<g id="edge6" class="edge"><title>Node49&#45;&gt;Node55</title>
<path fill="none" stroke="midnightblue" d="M824.118,-64.0545C804.25,-53.5641 779.968,-40.7434 761.771,-31.1352"/>
<polygon fill="midnightblue" stroke="midnightblue" points="822.707,-67.2672 833.184,-68.8413 825.976,-61.0771 822.707,-67.2672"/>
</g>
<!-- Node56 -->
<g id="node8" class="node"><title>Node56</title>
<g id="a_node8"><a xlink:href="_setup__2017__12_8cc.html" target="_top" xlink:title="src/expconfig/setups\l/Setup_2017_12.cc">
<polygon fill="white" stroke="black" points="806.5,-1 806.5,-31 913.5,-31 913.5,-1 806.5,-1"/>
<text text-anchor="start" x="814.5" y="-19" font-family="Helvetica,sans-Serif" font-size="10.00">src/expconfig/setups</text>
<text text-anchor="middle" x="860" y="-8" font-family="Helvetica,sans-Serif" font-size="10.00">/Setup_2017_12.cc</text>
</a>
</g>
</g>
<!-- Node49&#45;&gt;Node56 -->
<g id="edge7" class="edge"><title>Node49&#45;&gt;Node56</title>
<path fill="none" stroke="midnightblue" d="M860,-58.5322C860,-49.3606 860,-39.2449 860,-31.2931"/>
<polygon fill="midnightblue" stroke="midnightblue" points="856.5,-58.6789 860,-68.679 863.5,-58.679 856.5,-58.6789"/>
</g>
<!-- Node57 -->
<g id="node9" class="node"><title>Node57</title>
<g id="a_node9"><a xlink:href="_setup__2018__03_8cc.html" target="_top" xlink:title="src/expconfig/setups\l/Setup_2018_03.cc">
<polygon fill="white" stroke="black" points="931.5,-1 931.5,-31 1038.5,-31 1038.5,-1 931.5,-1"/>
<text text-anchor="start" x="939.5" y="-19" font-family="Helvetica,sans-Serif" font-size="10.00">src/expconfig/setups</text>
<text text-anchor="middle" x="985" y="-8" font-family="Helvetica,sans-Serif" font-size="10.00">/Setup_2018_03.cc</text>
</a>
</g>
</g>
<!-- Node49&#45;&gt;Node57 -->
<g id="edge8" class="edge"><title>Node49&#45;&gt;Node57</title>
<path fill="none" stroke="midnightblue" d="M895.882,-64.0545C915.75,-53.5641 940.032,-40.7434 958.229,-31.1352"/>
<polygon fill="midnightblue" stroke="midnightblue" points="894.024,-61.0771 886.816,-68.8413 897.293,-67.2672 894.024,-61.0771"/>
</g>
<!-- Node58 -->
<g id="node10" class="node"><title>Node58</title>
<g id="a_node10"><a xlink:href="_setup__2018__05_8cc.html" target="_top" xlink:title="src/expconfig/setups\l/Setup_2018_05.cc">
<polygon fill="white" stroke="black" points="1056.5,-1 1056.5,-31 1163.5,-31 1163.5,-1 1056.5,-1"/>
<text text-anchor="start" x="1064.5" y="-19" font-family="Helvetica,sans-Serif" font-size="10.00">src/expconfig/setups</text>
<text text-anchor="middle" x="1110" y="-8" font-family="Helvetica,sans-Serif" font-size="10.00">/Setup_2018_05.cc</text>
</a>
</g>
</g>
<!-- Node49&#45;&gt;Node58 -->
<g id="edge9" class="edge"><title>Node49&#45;&gt;Node58</title>
<path fill="none" stroke="midnightblue" d="M923.004,-66.367C964.272,-55.4721 1017.61,-41.3902 1056.76,-31.0561"/>
<polygon fill="midnightblue" stroke="midnightblue" points="922.1,-62.9856 913.325,-68.9223 923.887,-69.7537 922.1,-62.9856"/>
</g>
<!-- Node59 -->
<g id="node11" class="node"><title>Node59</title>
<g id="a_node11"><a xlink:href="_setup__2018__09_8cc.html" target="_top" xlink:title="src/expconfig/setups\l/Setup_2018_09.cc">
<polygon fill="white" stroke="black" points="1181.5,-1 1181.5,-31 1288.5,-31 1288.5,-1 1181.5,-1"/>
<text text-anchor="start" x="1189.5" y="-19" font-family="Helvetica,sans-Serif" font-size="10.00">src/expconfig/setups</text>
<text text-anchor="middle" x="1235" y="-8" font-family="Helvetica,sans-Serif" font-size="10.00">/Setup_2018_09.cc</text>
</a>
</g>
</g>
<!-- Node49&#45;&gt;Node59 -->
<g id="edge10" class="edge"><title>Node49&#45;&gt;Node59</title>
<path fill="none" stroke="midnightblue" d="M928.863,-73.1935C992.254,-63.823 1088.78,-48.6863 1172,-32 1175.09,-31.3811 1178.25,-30.7181 1181.44,-30.0281"/>
<polygon fill="midnightblue" stroke="midnightblue" points="927.976,-69.7862 918.592,-74.7042 928.995,-76.7117 927.976,-69.7862"/>
</g>
<!-- Node60 -->
<g id="node12" class="node"><title>Node60</title>
<g id="a_node12"><a xlink:href="_setup__2018__11_8cc.html" target="_top" xlink:title="src/expconfig/setups\l/Setup_2018_11.cc">
<polygon fill="white" stroke="black" points="1306.5,-1 1306.5,-31 1413.5,-31 1413.5,-1 1306.5,-1"/>
<text text-anchor="start" x="1314.5" y="-19" font-family="Helvetica,sans-Serif" font-size="10.00">src/expconfig/setups</text>
<text text-anchor="middle" x="1360" y="-8" font-family="Helvetica,sans-Serif" font-size="10.00">/Setup_2018_11.cc</text>
</a>
</g>
</g>
<!-- Node49&#45;&gt;Node60 -->
<g id="edge11" class="edge"><title>Node49&#45;&gt;Node60</title>
<path fill="none" stroke="midnightblue" d="M928.837,-77.4868C1015.24,-69.9891 1167.8,-54.8382 1297,-32 1300.1,-31.452 1303.28,-30.8444 1306.47,-30.1969"/>
<polygon fill="midnightblue" stroke="midnightblue" points="928.297,-74.0202 918.633,-78.3632 928.896,-80.9945 928.297,-74.0202"/>
</g>
<!-- Node61 -->
<g id="node13" class="node"><title>Node61</title>
<g id="a_node13"><a xlink:href="_setup__2019__01_8cc.html" target="_top" xlink:title="src/expconfig/setups\l/Setup_2019_01.cc">
<polygon fill="white" stroke="black" points="1431.5,-1 1431.5,-31 1538.5,-31 1538.5,-1 1431.5,-1"/>
<text text-anchor="start" x="1439.5" y="-19" font-family="Helvetica,sans-Serif" font-size="10.00">src/expconfig/setups</text>
<text text-anchor="middle" x="1485" y="-8" font-family="Helvetica,sans-Serif" font-size="10.00">/Setup_2019_01.cc</text>
</a>
</g>
</g>
<!-- Node49&#45;&gt;Node61 -->
<g id="edge12" class="edge"><title>Node49&#45;&gt;Node61</title>
<path fill="none" stroke="midnightblue" d="M928.873,-79.9322C1035.23,-74.4796 1245.62,-60.848 1422,-32 1425.11,-31.4919 1428.29,-30.9154 1431.49,-30.2917"/>
<polygon fill="midnightblue" stroke="midnightblue" points="928.41,-76.451 918.599,-80.4499 928.763,-83.4421 928.41,-76.451"/>
</g>
<!-- Node62 -->
<g id="node14" class="node"><title>Node62</title>
<g id="a_node14"><a xlink:href="_setup__2019__06_8cc.html" target="_top" xlink:title="src/expconfig/setups\l/Setup_2019_06.cc">
<polygon fill="white" stroke="black" points="1556.5,-1 1556.5,-31 1663.5,-31 1663.5,-1 1556.5,-1"/>
<text text-anchor="start" x="1564.5" y="-19" font-family="Helvetica,sans-Serif" font-size="10.00">src/expconfig/setups</text>
<text text-anchor="middle" x="1610" y="-8" font-family="Helvetica,sans-Serif" font-size="10.00">/Setup_2019_06.cc</text>
</a>
</g>
</g>
<!-- Node49&#45;&gt;Node62 -->
<g id="edge13" class="edge"><title>Node49&#45;&gt;Node62</title>
<path fill="none" stroke="midnightblue" d="M928.842,-81.5205C1053.04,-78.0463 1322.55,-66.8226 1547,-32 1550.11,-31.5173 1553.29,-30.9608 1556.5,-30.3524"/>
<polygon fill="midnightblue" stroke="midnightblue" points="928.618,-78.0252 918.717,-81.7954 928.808,-85.0226 928.618,-78.0252"/>
</g>
</g>
</svg>
