<?xml version="1.0" encoding="UTF-8" standalone="no"?>
<!DOCTYPE svg PUBLIC "-//W3C//DTD SVG 1.1//EN"
 "http://www.w3.org/Graphics/SVG/1.1/DTD/svg11.dtd">
<!-- Generated by graphviz version 2.36.0 (20140111.2315)
 -->
<!-- Title: src/calibration/modules/TAPS_ShortEnergy.h Pages: 1 -->
<svg width="1612pt" height="118pt"
 viewBox="0.00 0.00 1612.00 118.00" xmlns="http://www.w3.org/2000/svg" xmlns:xlink="http://www.w3.org/1999/xlink">
<g id="graph0" class="graph" transform="scale(1 1) rotate(0) translate(4 114)">
<title>src/calibration/modules/TAPS_ShortEnergy.h</title>
<polygon fill="white" stroke="none" points="-4,4 -4,-114 1608,-114 1608,4 -4,4"/>
<!-- Node52 -->
<g id="node1" class="node"><title>Node52</title>
<polygon fill="#bfbfbf" stroke="black" points="742.5,-79 742.5,-109 859.5,-109 859.5,-79 742.5,-79"/>
<text text-anchor="start" x="750.5" y="-97" font-family="Helvetica,sans-Serif" font-size="10.00">src/calibration/modules</text>
<text text-anchor="middle" x="801" y="-86" font-family="Helvetica,sans-Serif" font-size="10.00">/TAPS_ShortEnergy.h</text>
</g>
<!-- Node53 -->
<g id="node2" class="node"><title>Node53</title>
<g id="a_node2"><a xlink:href="calibration_2modules_2_t_a_p_s___short_energy_8cc.html" target="_top" xlink:title="src/calibration/modules\l/TAPS_ShortEnergy.cc">
<polygon fill="white" stroke="black" points="-0.5,-6 -0.5,-36 118.5,-36 118.5,-6 -0.5,-6"/>
<text text-anchor="start" x="7.5" y="-24" font-family="Helvetica,sans-Serif" font-size="10.00">src/calibration/modules</text>
<text text-anchor="middle" x="59" y="-13" font-family="Helvetica,sans-Serif" font-size="10.00">/TAPS_ShortEnergy.cc</text>
</a>
</g>
</g>
<!-- Node52&#45;&gt;Node53 -->
<g id="edge1" class="edge"><title>Node52&#45;&gt;Node53</title>
<path fill="none" stroke="midnightblue" d="M731.955,-92.5501C609.224,-90.6937 345.445,-81.928 127,-42 118.769,-40.4954 110.112,-38.379 101.838,-36.082"/>
<polygon fill="midnightblue" stroke="midnightblue" points="732.274,-96.0548 742.322,-92.6954 732.372,-89.0555 732.274,-96.0548"/>
</g>
<!-- Node54 -->
<g id="node3" class="node"><title>Node54</title>
<g id="a_node3"><a xlink:href="_setup__2007___base_8cc.html" target="_top" xlink:title="src/expconfig/setups\l/Setup_2007_Base.cc">
<polygon fill="white" stroke="black" points="136.5,-6 136.5,-36 249.5,-36 249.5,-6 136.5,-6"/>
<text text-anchor="start" x="144.5" y="-24" font-family="Helvetica,sans-Serif" font-size="10.00">src/expconfig/setups</text>
<text text-anchor="middle" x="193" y="-13" font-family="Helvetica,sans-Serif" font-size="10.00">/Setup_2007_Base.cc</text>
</a>
</g>
</g>
<!-- Node52&#45;&gt;Node54 -->
<g id="edge2" class="edge"><title>Node52&#45;&gt;Node54</title>
<path fill="none" stroke="midnightblue" d="M732.289,-90.9405C628.776,-86.8493 427.058,-75.0233 259,-42 251.129,-40.4533 242.857,-38.3463 234.933,-36.0781"/>
<polygon fill="midnightblue" stroke="midnightblue" points="732.172,-94.4385 742.299,-91.324 732.44,-87.4436 732.172,-94.4385"/>
</g>
<!-- Node55 -->
<g id="node4" class="node"><title>Node55</title>
<g id="a_node4"><a xlink:href="_setup__2010__03___base_8cc.html" target="_top" xlink:title="src/expconfig/setups\l/Setup_2010_03_Base.cc">
<polygon fill="white" stroke="black" points="268,-6 268,-36 396,-36 396,-6 268,-6"/>
<text text-anchor="start" x="276" y="-24" font-family="Helvetica,sans-Serif" font-size="10.00">src/expconfig/setups</text>
<text text-anchor="middle" x="332" y="-13" font-family="Helvetica,sans-Serif" font-size="10.00">/Setup_2010_03_Base.cc</text>
</a>
</g>
</g>
<!-- Node52&#45;&gt;Node55 -->
<g id="edge3" class="edge"><title>Node52&#45;&gt;Node55</title>
<path fill="none" stroke="midnightblue" d="M731.851,-87.0402C652.443,-79.5166 518.506,-64.7427 405,-42 396.754,-40.3478 388.068,-38.2716 379.678,-36.0869"/>
<polygon fill="midnightblue" stroke="midnightblue" points="731.927,-90.5626 742.21,-88.0098 732.58,-83.593 731.927,-90.5626"/>
</g>
<!-- Node56 -->
<g id="node5" class="node"><title>Node56</title>
<g id="a_node5"><a xlink:href="_setup__2014___e_p_t_8cc.html" target="_top" xlink:title="src/expconfig/setups\l/Setup_2014_EPT.cc">
<polygon fill="white" stroke="black" points="414,-6 414,-36 524,-36 524,-6 414,-6"/>
<text text-anchor="start" x="422" y="-24" font-family="Helvetica,sans-Serif" font-size="10.00">src/expconfig/setups</text>
<text text-anchor="middle" x="469" y="-13" font-family="Helvetica,sans-Serif" font-size="10.00">/Setup_2014_EPT.cc</text>
</a>
</g>
</g>
<!-- Node52&#45;&gt;Node56 -->
<g id="edge4" class="edge"><title>Node52&#45;&gt;Node56</title>
<path fill="none" stroke="midnightblue" d="M732.404,-82.1798C677.976,-73.0589 600.147,-58.8217 533,-42 525.999,-40.2461 518.635,-38.1686 511.495,-36.0272"/>
<polygon fill="midnightblue" stroke="midnightblue" points="731.848,-85.6354 742.287,-83.8228 732.996,-78.7301 731.848,-85.6354"/>
</g>
<!-- Node57 -->
<g id="node6" class="node"><title>Node57</title>
<g id="a_node6"><a xlink:href="_setup__2015__01___pion_8cc.html" target="_top" xlink:title="src/expconfig/setups\l/Setup_2015_01_Pion.cc">
<polygon fill="white" stroke="black" points="542.5,-6 542.5,-36 667.5,-36 667.5,-6 542.5,-6"/>
<text text-anchor="start" x="550.5" y="-24" font-family="Helvetica,sans-Serif" font-size="10.00">src/expconfig/setups</text>
<text text-anchor="middle" x="605" y="-13" font-family="Helvetica,sans-Serif" font-size="10.00">/Setup_2015_01_Pion.cc</text>
</a>
</g>
</g>
<!-- Node52&#45;&gt;Node57 -->
<g id="edge5" class="edge"><title>Node52&#45;&gt;Node57</title>
<path fill="none" stroke="midnightblue" d="M752.693,-75.501C719.217,-63.3743 675.22,-47.4369 643.978,-36.1195"/>
<polygon fill="midnightblue" stroke="midnightblue" points="751.682,-78.8575 762.277,-78.9727 754.067,-72.276 751.682,-78.8575"/>
</g>
<!-- Node58 -->
<g id="node7" class="node"><title>Node58</title>
<g id="a_node7"><a xlink:href="_setup__2017__03_8cc.html" target="_top" xlink:title="src/expconfig/setups\l/Setup_2017_03.cc">
<polygon fill="white" stroke="black" points="685.5,-6 685.5,-36 792.5,-36 792.5,-6 685.5,-6"/>
<text text-anchor="start" x="693.5" y="-24" font-family="Helvetica,sans-Serif" font-size="10.00">src/expconfig/setups</text>
<text text-anchor="middle" x="739" y="-13" font-family="Helvetica,sans-Serif" font-size="10.00">/Setup_2017_03.cc</text>
</a>
</g>
</g>
<!-- Node52&#45;&gt;Node58 -->
<g id="edge6" class="edge"><title>Node52&#45;&gt;Node58</title>
<path fill="none" stroke="midnightblue" d="M781.986,-71.226C772.136,-59.9457 760.377,-46.4798 751.649,-36.4856"/>
<polygon fill="midnightblue" stroke="midnightblue" points="779.537,-73.7425 788.751,-78.9727 784.81,-69.1382 779.537,-73.7425"/>
</g>
<!-- Node59 -->
<g id="node8" class="node"><title>Node59</title>
<g id="a_node8"><a xlink:href="_setup__2017__05_8cc.html" target="_top" xlink:title="src/expconfig/setups\l/Setup_2017_05.cc">
<polygon fill="white" stroke="black" points="810.5,-6 810.5,-36 917.5,-36 917.5,-6 810.5,-6"/>
<text text-anchor="start" x="818.5" y="-24" font-family="Helvetica,sans-Serif" font-size="10.00">src/expconfig/setups</text>
<text text-anchor="middle" x="864" y="-13" font-family="Helvetica,sans-Serif" font-size="10.00">/Setup_2017_05.cc</text>
</a>
</g>
</g>
<!-- Node52&#45;&gt;Node59 -->
<g id="edge7" class="edge"><title>Node52&#45;&gt;Node59</title>
<path fill="none" stroke="midnightblue" d="M820.321,-71.226C830.33,-59.9457 842.279,-46.4798 851.147,-36.4856"/>
<polygon fill="midnightblue" stroke="midnightblue" points="817.466,-69.1698 813.447,-78.9727 822.702,-73.8158 817.466,-69.1698"/>
</g>
<!-- Node60 -->
<g id="node9" class="node"><title>Node60</title>
<g id="a_node9"><a xlink:href="_setup__2017_plus___new_tagger___base_8cc.html" target="_top" xlink:title="src/expconfig/setups\l/Setup_2017Plus_NewTagger\l_Base.cc">
<polygon fill="white" stroke="black" points="936,-0.5 936,-41.5 1082,-41.5 1082,-0.5 936,-0.5"/>
<text text-anchor="start" x="944" y="-29.5" font-family="Helvetica,sans-Serif" font-size="10.00">src/expconfig/setups</text>
<text text-anchor="start" x="944" y="-18.5" font-family="Helvetica,sans-Serif" font-size="10.00">/Setup_2017Plus_NewTagger</text>
<text text-anchor="middle" x="1009" y="-7.5" font-family="Helvetica,sans-Serif" font-size="10.00">_Base.cc</text>
</a>
</g>
</g>
<!-- Node52&#45;&gt;Node60 -->
<g id="edge8" class="edge"><title>Node52&#45;&gt;Node60</title>
<path fill="none" stroke="midnightblue" d="M851.616,-75.7223C881.902,-65.3846 920.473,-52.2183 951.851,-41.5075"/>
<polygon fill="midnightblue" stroke="midnightblue" points="850.427,-72.4298 842.094,-78.9727 852.689,-79.0545 850.427,-72.4298"/>
</g>
<!-- Node61 -->
<g id="node10" class="node"><title>Node61</title>
<g id="a_node10"><a xlink:href="_setup__2018__11_8cc.html" target="_top" xlink:title="src/expconfig/setups\l/Setup_2018_11.cc">
<polygon fill="white" stroke="black" points="1100.5,-6 1100.5,-36 1207.5,-36 1207.5,-6 1100.5,-6"/>
<text text-anchor="start" x="1108.5" y="-24" font-family="Helvetica,sans-Serif" font-size="10.00">src/expconfig/setups</text>
<text text-anchor="middle" x="1154" y="-13" font-family="Helvetica,sans-Serif" font-size="10.00">/Setup_2018_11.cc</text>
</a>
</g>
</g>
<!-- Node52&#45;&gt;Node61 -->
<g id="edge9" class="edge"><title>Node52&#45;&gt;Node61</title>
<path fill="none" stroke="midnightblue" d="M869.489,-83.5896C928.594,-74.8433 1016.03,-60.4056 1091,-42 1098.02,-40.2763 1105.4,-38.1898 1112.54,-36.0234"/>
<polygon fill="midnightblue" stroke="midnightblue" points="868.91,-80.137 859.523,-85.0501 869.925,-87.063 868.91,-80.137"/>
</g>
<!-- Node62 -->
<g id="node11" class="node"><title>Node62</title>
<g id="a_node11"><a xlink:href="_setup__2019__01_8cc.html" target="_top" xlink:title="src/expconfig/setups\l/Setup_2019_01.cc">
<polygon fill="white" stroke="black" points="1225.5,-6 1225.5,-36 1332.5,-36 1332.5,-6 1225.5,-6"/>
<text text-anchor="start" x="1233.5" y="-24" font-family="Helvetica,sans-Serif" font-size="10.00">src/expconfig/setups</text>
<text text-anchor="middle" x="1279" y="-13" font-family="Helvetica,sans-Serif" font-size="10.00">/Setup_2019_01.cc</text>
</a>
</g>
</g>
<!-- Node52&#45;&gt;Node62 -->
<g id="edge10" class="edge"><title>Node52&#45;&gt;Node62</title>
<path fill="none" stroke="midnightblue" d="M869.695,-88.4707C952.539,-82.1125 1095.66,-68.2578 1216,-42 1223.4,-40.3854 1231.17,-38.2739 1238.63,-36.0292"/>
<polygon fill="midnightblue" stroke="midnightblue" points="869.358,-84.9861 859.65,-89.2275 869.884,-91.9663 869.358,-84.9861"/>
</g>
<!-- Node63 -->
<g id="node12" class="node"><title>Node63</title>
<g id="a_node12"><a xlink:href="_setup__2019__06_8cc.html" target="_top" xlink:title="src/expconfig/setups\l/Setup_2019_06.cc">
<polygon fill="white" stroke="black" points="1350.5,-6 1350.5,-36 1457.5,-36 1457.5,-6 1350.5,-6"/>
<text text-anchor="start" x="1358.5" y="-24" font-family="Helvetica,sans-Serif" font-size="10.00">src/expconfig/setups</text>
<text text-anchor="middle" x="1404" y="-13" font-family="Helvetica,sans-Serif" font-size="10.00">/Setup_2019_06.cc</text>
</a>
</g>
</g>
<!-- Node52&#45;&gt;Node63 -->
<g id="edge11" class="edge"><title>Node52&#45;&gt;Node63</title>
<path fill="none" stroke="midnightblue" d="M869.826,-91.1875C973.123,-87.416 1173.95,-75.9984 1341,-42 1348.53,-40.4666 1356.44,-38.366 1364.01,-36.1"/>
<polygon fill="midnightblue" stroke="midnightblue" points="869.405,-87.7001 859.534,-91.5497 869.651,-94.6958 869.405,-87.7001"/>
</g>
<!-- Node64 -->
<g id="node13" class="node"><title>Node64</title>
<g id="a_node13"><a xlink:href="expconfig__helpers_8cc.html" target="_top" xlink:title="test/expconfig_helpers.cc">
<polygon fill="white" stroke="black" points="1476,-11.5 1476,-30.5 1604,-30.5 1604,-11.5 1476,-11.5"/>
<text text-anchor="middle" x="1540" y="-18.5" font-family="Helvetica,sans-Serif" font-size="10.00">test/expconfig_helpers.cc</text>
</a>
</g>
</g>
<!-- Node52&#45;&gt;Node64 -->
<g id="edge12" class="edge"><title>Node52&#45;&gt;Node64</title>
<path fill="none" stroke="midnightblue" d="M869.972,-91.9569C991.331,-89.1796 1250.61,-79.0298 1466,-42 1481.87,-39.2717 1499.27,-34.6544 1513.21,-30.5433"/>
<polygon fill="midnightblue" stroke="midnightblue" points="869.638,-88.4633 859.717,-92.1814 869.791,-95.4616 869.638,-88.4633"/>
</g>
</g>
</svg>
