<?xml version="1.0" encoding="UTF-8" standalone="no"?>
<!DOCTYPE svg PUBLIC "-//W3C//DTD SVG 1.1//EN"
 "http://www.w3.org/Graphics/SVG/1.1/DTD/svg11.dtd">
<!-- Generated by graphviz version 2.36.0 (20140111.2315)
 -->
<!-- Title: src/calibration/modules/Time.h Pages: 1 -->
<svg width="2380pt" height="186pt"
 viewBox="0.00 0.00 2380.00 186.00" xmlns="http://www.w3.org/2000/svg" xmlns:xlink="http://www.w3.org/1999/xlink">
<g id="graph0" class="graph" transform="scale(1 1) rotate(0) translate(4 182)">
<title>src/calibration/modules/Time.h</title>
<polygon fill="white" stroke="none" points="-4,4 -4,-182 2376,-182 2376,4 -4,4"/>
<!-- Node53 -->
<g id="node1" class="node"><title>Node53</title>
<polygon fill="#bfbfbf" stroke="black" points="1438.5,-147 1438.5,-177 1555.5,-177 1555.5,-147 1438.5,-147"/>
<text text-anchor="start" x="1446.5" y="-165" font-family="Helvetica,sans-Serif" font-size="10.00">src/calibration/modules</text>
<text text-anchor="middle" x="1497" y="-154" font-family="Helvetica,sans-Serif" font-size="10.00">/Time.h</text>
</g>
<!-- Node54 -->
<g id="node2" class="node"><title>Node54</title>
<g id="a_node2"><a xlink:href="_new_tagger___time_8h.html" target="_top" xlink:title="src/calibration/modules\l/NewTagger_Time.h">
<polygon fill="white" stroke="black" points="504.5,-79 504.5,-109 621.5,-109 621.5,-79 504.5,-79"/>
<text text-anchor="start" x="512.5" y="-97" font-family="Helvetica,sans-Serif" font-size="10.00">src/calibration/modules</text>
<text text-anchor="middle" x="563" y="-86" font-family="Helvetica,sans-Serif" font-size="10.00">/NewTagger_Time.h</text>
</a>
</g>
</g>
<!-- Node53&#45;&gt;Node54 -->
<g id="edge1" class="edge"><title>Node53&#45;&gt;Node54</title>
<path fill="none" stroke="midnightblue" d="M1427.97,-157.226C1291.87,-149.621 979.331,-131.347 717,-110 685.54,-107.44 650.517,-104.07 621.829,-101.173"/>
<polygon fill="midnightblue" stroke="midnightblue" points="1428.07,-160.736 1438.24,-157.798 1428.45,-153.747 1428.07,-160.736"/>
</g>
<!-- Node60 -->
<g id="node8" class="node"><title>Node60</title>
<g id="a_node8"><a xlink:href="_setup__2018__11_8cc.html" target="_top" xlink:title="src/expconfig/setups\l/Setup_2018_11.cc">
<polygon fill="white" stroke="black" points="634.5,-6 634.5,-36 741.5,-36 741.5,-6 634.5,-6"/>
<text text-anchor="start" x="642.5" y="-24" font-family="Helvetica,sans-Serif" font-size="10.00">src/expconfig/setups</text>
<text text-anchor="middle" x="688" y="-13" font-family="Helvetica,sans-Serif" font-size="10.00">/Setup_2018_11.cc</text>
</a>
</g>
</g>
<!-- Node53&#45;&gt;Node60 -->
<g id="edge44" class="edge"><title>Node53&#45;&gt;Node60</title>
<path fill="none" stroke="midnightblue" d="M1428.25,-158.53C1327.97,-153.97 1136.12,-141.613 976,-110 883.931,-91.8228 779.381,-55.8718 725.118,-36.0086"/>
<polygon fill="midnightblue" stroke="midnightblue" points="1428.1,-162.027 1438.25,-158.973 1428.41,-155.034 1428.1,-162.027"/>
</g>
<!-- Node61 -->
<g id="node9" class="node"><title>Node61</title>
<g id="a_node9"><a xlink:href="_setup__2019__01_8cc.html" target="_top" xlink:title="src/expconfig/setups\l/Setup_2019_01.cc">
<polygon fill="white" stroke="black" points="759.5,-6 759.5,-36 866.5,-36 866.5,-6 759.5,-6"/>
<text text-anchor="start" x="767.5" y="-24" font-family="Helvetica,sans-Serif" font-size="10.00">src/expconfig/setups</text>
<text text-anchor="middle" x="813" y="-13" font-family="Helvetica,sans-Serif" font-size="10.00">/Setup_2019_01.cc</text>
</a>
</g>
</g>
<!-- Node53&#45;&gt;Node61 -->
<g id="edge45" class="edge"><title>Node53&#45;&gt;Node61</title>
<path fill="none" stroke="midnightblue" d="M1428.18,-156.04C1347.27,-149.353 1209.27,-135.264 1093,-110 993.821,-88.4491 971.741,-72.6908 875,-42 868.963,-40.0848 862.6,-38.0504 856.343,-36.0407"/>
<polygon fill="midnightblue" stroke="midnightblue" points="1427.99,-159.536 1438.25,-156.858 1428.56,-152.559 1427.99,-159.536"/>
</g>
<!-- Node62 -->
<g id="node10" class="node"><title>Node62</title>
<g id="a_node10"><a xlink:href="_setup__2019__06_8cc.html" target="_top" xlink:title="src/expconfig/setups\l/Setup_2019_06.cc">
<polygon fill="white" stroke="black" points="884.5,-6 884.5,-36 991.5,-36 991.5,-6 884.5,-6"/>
<text text-anchor="start" x="892.5" y="-24" font-family="Helvetica,sans-Serif" font-size="10.00">src/expconfig/setups</text>
<text text-anchor="middle" x="938" y="-13" font-family="Helvetica,sans-Serif" font-size="10.00">/Setup_2019_06.cc</text>
</a>
</g>
</g>
<!-- Node53&#45;&gt;Node62 -->
<g id="edge46" class="edge"><title>Node53&#45;&gt;Node62</title>
<path fill="none" stroke="midnightblue" d="M1427.99,-152.374C1366.98,-144.002 1275.82,-129.676 1198,-110 1116.23,-89.324 1023.24,-55.1713 973.636,-36.0616"/>
<polygon fill="midnightblue" stroke="midnightblue" points="1427.89,-155.892 1438.27,-153.767 1428.83,-148.955 1427.89,-155.892"/>
</g>
<!-- Node63 -->
<g id="node11" class="node"><title>Node63</title>
<g id="a_node11"><a xlink:href="_t_a_p_s___time_8h.html" target="_top" xlink:title="src/calibration/modules\l/TAPS_Time.h">
<polygon fill="white" stroke="black" points="1482.5,-79 1482.5,-109 1599.5,-109 1599.5,-79 1482.5,-79"/>
<text text-anchor="start" x="1490.5" y="-97" font-family="Helvetica,sans-Serif" font-size="10.00">src/calibration/modules</text>
<text text-anchor="middle" x="1541" y="-86" font-family="Helvetica,sans-Serif" font-size="10.00">/TAPS_Time.h</text>
</a>
</g>
</g>
<!-- Node53&#45;&gt;Node63 -->
<g id="edge10" class="edge"><title>Node53&#45;&gt;Node63</title>
<path fill="none" stroke="midnightblue" d="M1512.12,-138.314C1518.54,-128.689 1525.82,-117.763 1531.47,-109.293"/>
<polygon fill="midnightblue" stroke="midnightblue" points="1509.18,-136.417 1506.55,-146.679 1515.01,-140.3 1509.18,-136.417"/>
</g>
<!-- Node65 -->
<g id="node13" class="node"><title>Node65</title>
<g id="a_node13"><a xlink:href="_setup__2007___base_8cc.html" target="_top" xlink:title="src/expconfig/setups\l/Setup_2007_Base.cc">
<polygon fill="white" stroke="black" points="1273.5,-6 1273.5,-36 1386.5,-36 1386.5,-6 1273.5,-6"/>
<text text-anchor="start" x="1281.5" y="-24" font-family="Helvetica,sans-Serif" font-size="10.00">src/expconfig/setups</text>
<text text-anchor="middle" x="1330" y="-13" font-family="Helvetica,sans-Serif" font-size="10.00">/Setup_2007_Base.cc</text>
</a>
</g>
</g>
<!-- Node53&#45;&gt;Node65 -->
<g id="edge37" class="edge"><title>Node53&#45;&gt;Node65</title>
<path fill="none" stroke="midnightblue" d="M1428.28,-152.306C1377.66,-144.324 1314.95,-130.582 1299,-110 1281.63,-87.5952 1302.5,-54.6995 1317.44,-36.1257"/>
<polygon fill="midnightblue" stroke="midnightblue" points="1427.82,-155.775 1438.23,-153.825 1428.87,-148.855 1427.82,-155.775"/>
</g>
<!-- Node66 -->
<g id="node14" class="node"><title>Node66</title>
<g id="a_node14"><a xlink:href="_setup__2010__03___base_8cc.html" target="_top" xlink:title="src/expconfig/setups\l/Setup_2010_03_Base.cc">
<polygon fill="white" stroke="black" points="1405,-6 1405,-36 1533,-36 1533,-6 1405,-6"/>
<text text-anchor="start" x="1413" y="-24" font-family="Helvetica,sans-Serif" font-size="10.00">src/expconfig/setups</text>
<text text-anchor="middle" x="1469" y="-13" font-family="Helvetica,sans-Serif" font-size="10.00">/Setup_2010_03_Base.cc</text>
</a>
</g>
</g>
<!-- Node53&#45;&gt;Node66 -->
<g id="edge38" class="edge"><title>Node53&#45;&gt;Node66</title>
<path fill="none" stroke="midnightblue" d="M1483.78,-137.916C1479.55,-129.411 1475.36,-119.524 1473,-110 1466.72,-84.614 1467.04,-53.8781 1467.95,-36.2662"/>
<polygon fill="midnightblue" stroke="midnightblue" points="1480.72,-139.617 1488.47,-146.837 1486.91,-136.358 1480.72,-139.617"/>
</g>
<!-- Node67 -->
<g id="node15" class="node"><title>Node67</title>
<g id="a_node15"><a xlink:href="_setup__2014___e_p_t_8cc.html" target="_top" xlink:title="src/expconfig/setups\l/Setup_2014_EPT.cc">
<polygon fill="white" stroke="black" points="1010,-6 1010,-36 1120,-36 1120,-6 1010,-6"/>
<text text-anchor="start" x="1018" y="-24" font-family="Helvetica,sans-Serif" font-size="10.00">src/expconfig/setups</text>
<text text-anchor="middle" x="1065" y="-13" font-family="Helvetica,sans-Serif" font-size="10.00">/Setup_2014_EPT.cc</text>
</a>
</g>
</g>
<!-- Node53&#45;&gt;Node67 -->
<g id="edge39" class="edge"><title>Node53&#45;&gt;Node67</title>
<path fill="none" stroke="midnightblue" d="M1428.29,-146.585C1387.45,-137.416 1334.83,-124.55 1289,-110 1219.11,-87.813 1139.77,-54.6887 1096.79,-36.0505"/>
<polygon fill="midnightblue" stroke="midnightblue" points="1427.62,-150.022 1438.14,-148.777 1429.14,-143.189 1427.62,-150.022"/>
</g>
<!-- Node68 -->
<g id="node16" class="node"><title>Node68</title>
<g id="a_node16"><a xlink:href="_setup__2015__01___pion_8cc.html" target="_top" xlink:title="src/expconfig/setups\l/Setup_2015_01_Pion.cc">
<polygon fill="white" stroke="black" points="1551.5,-6 1551.5,-36 1676.5,-36 1676.5,-6 1551.5,-6"/>
<text text-anchor="start" x="1559.5" y="-24" font-family="Helvetica,sans-Serif" font-size="10.00">src/expconfig/setups</text>
<text text-anchor="middle" x="1614" y="-13" font-family="Helvetica,sans-Serif" font-size="10.00">/Setup_2015_01_Pion.cc</text>
</a>
</g>
</g>
<!-- Node53&#45;&gt;Node68 -->
<g id="edge40" class="edge"><title>Node53&#45;&gt;Node68</title>
<path fill="none" stroke="midnightblue" d="M1564.85,-143.385C1581.53,-135.812 1597.58,-125.095 1608,-110 1623.22,-87.9446 1620.44,-54.9206 1617.15,-36.2307"/>
<polygon fill="midnightblue" stroke="midnightblue" points="1563.42,-140.189 1555.55,-147.277 1566.12,-146.647 1563.42,-140.189"/>
</g>
<!-- Node69 -->
<g id="node17" class="node"><title>Node69</title>
<g id="a_node17"><a xlink:href="_setup__2017__03_8cc.html" target="_top" xlink:title="src/expconfig/setups\l/Setup_2017_03.cc">
<polygon fill="white" stroke="black" points="1694.5,-6 1694.5,-36 1801.5,-36 1801.5,-6 1694.5,-6"/>
<text text-anchor="start" x="1702.5" y="-24" font-family="Helvetica,sans-Serif" font-size="10.00">src/expconfig/setups</text>
<text text-anchor="middle" x="1748" y="-13" font-family="Helvetica,sans-Serif" font-size="10.00">/Setup_2017_03.cc</text>
</a>
</g>
</g>
<!-- Node53&#45;&gt;Node69 -->
<g id="edge41" class="edge"><title>Node53&#45;&gt;Node69</title>
<path fill="none" stroke="midnightblue" d="M1551.09,-143.548C1575.28,-134.839 1603.74,-123.315 1628,-110 1667.86,-88.1209 1709.63,-54.7318 1731.85,-36.0003"/>
<polygon fill="midnightblue" stroke="midnightblue" points="1549.62,-140.354 1541.36,-146.984 1551.95,-146.955 1549.62,-140.354"/>
</g>
<!-- Node70 -->
<g id="node18" class="node"><title>Node70</title>
<g id="a_node18"><a xlink:href="_setup__2017__05_8cc.html" target="_top" xlink:title="src/expconfig/setups\l/Setup_2017_05.cc">
<polygon fill="white" stroke="black" points="1819.5,-6 1819.5,-36 1926.5,-36 1926.5,-6 1819.5,-6"/>
<text text-anchor="start" x="1827.5" y="-24" font-family="Helvetica,sans-Serif" font-size="10.00">src/expconfig/setups</text>
<text text-anchor="middle" x="1873" y="-13" font-family="Helvetica,sans-Serif" font-size="10.00">/Setup_2017_05.cc</text>
</a>
</g>
</g>
<!-- Node53&#45;&gt;Node70 -->
<g id="edge42" class="edge"><title>Node53&#45;&gt;Node70</title>
<path fill="none" stroke="midnightblue" d="M1563.11,-144.345C1595,-135.512 1633.52,-123.658 1667,-110 1695.35,-98.4372 1700.12,-90.6467 1728,-78 1762.9,-62.1705 1803.69,-46.6719 1833.11,-36.0075"/>
<polygon fill="midnightblue" stroke="midnightblue" points="1562.16,-140.976 1553.44,-146.988 1564.01,-147.728 1562.16,-140.976"/>
</g>
<!-- Node71 -->
<g id="node19" class="node"><title>Node71</title>
<g id="a_node19"><a xlink:href="_setup__2017_plus___new_tagger___base_8cc.html" target="_top" xlink:title="src/expconfig/setups\l/Setup_2017Plus_NewTagger\l_Base.cc">
<polygon fill="white" stroke="black" points="1945,-0.5 1945,-41.5 2091,-41.5 2091,-0.5 1945,-0.5"/>
<text text-anchor="start" x="1953" y="-29.5" font-family="Helvetica,sans-Serif" font-size="10.00">src/expconfig/setups</text>
<text text-anchor="start" x="1953" y="-18.5" font-family="Helvetica,sans-Serif" font-size="10.00">/Setup_2017Plus_NewTagger</text>
<text text-anchor="middle" x="2018" y="-7.5" font-family="Helvetica,sans-Serif" font-size="10.00">_Base.cc</text>
</a>
</g>
</g>
<!-- Node53&#45;&gt;Node71 -->
<g id="edge43" class="edge"><title>Node53&#45;&gt;Node71</title>
<path fill="none" stroke="midnightblue" d="M1566.04,-150.116C1609.03,-142.01 1664.91,-129.023 1712,-110 1737.87,-99.5505 1740.01,-88.151 1766,-78 1837.53,-50.0562 1860.11,-58.9966 1935,-42 1938.18,-41.2783 1941.43,-40.5329 1944.7,-39.7733"/>
<polygon fill="midnightblue" stroke="midnightblue" points="1565.16,-146.719 1555.96,-151.973 1566.43,-153.604 1565.16,-146.719"/>
</g>
<!-- Node72 -->
<g id="node20" class="node"><title>Node72</title>
<g id="a_node20"><a xlink:href="expconfig__helpers_8cc.html" target="_top" xlink:title="test/expconfig_helpers.cc">
<polygon fill="white" stroke="black" points="2109,-11.5 2109,-30.5 2237,-30.5 2237,-11.5 2109,-11.5"/>
<text text-anchor="middle" x="2173" y="-18.5" font-family="Helvetica,sans-Serif" font-size="10.00">test/expconfig_helpers.cc</text>
</a>
</g>
</g>
<!-- Node53&#45;&gt;Node72 -->
<g id="edge48" class="edge"><title>Node53&#45;&gt;Node72</title>
<path fill="none" stroke="midnightblue" d="M1565.57,-154.875C1618.42,-148.389 1692.44,-135.404 1753,-110 1776.3,-100.224 1776.34,-86.869 1800,-78 1925.75,-30.8699 1968.21,-67.8127 2100,-42 2115.22,-39.0195 2131.92,-34.5374 2145.5,-30.5712"/>
<polygon fill="midnightblue" stroke="midnightblue" points="1565.15,-151.401 1555.63,-156.05 1565.97,-158.352 1565.15,-151.401"/>
</g>
<!-- Node73 -->
<g id="node21" class="node"><title>Node73</title>
<g id="a_node21"><a xlink:href="_t_a_p_s_veto___time_8h.html" target="_top" xlink:title="src/calibration/modules\l/TAPSVeto_Time.h">
<polygon fill="white" stroke="black" points="1308.5,-79 1308.5,-109 1425.5,-109 1425.5,-79 1308.5,-79"/>
<text text-anchor="start" x="1316.5" y="-97" font-family="Helvetica,sans-Serif" font-size="10.00">src/calibration/modules</text>
<text text-anchor="middle" x="1367" y="-86" font-family="Helvetica,sans-Serif" font-size="10.00">/TAPSVeto_Time.h</text>
</a>
</g>
</g>
<!-- Node53&#45;&gt;Node73 -->
<g id="edge23" class="edge"><title>Node53&#45;&gt;Node73</title>
<path fill="none" stroke="midnightblue" d="M1459.96,-142.197C1439.25,-131.68 1413.85,-118.787 1394.84,-109.135"/>
<polygon fill="midnightblue" stroke="midnightblue" points="1458.61,-145.435 1469.11,-146.841 1461.78,-139.194 1458.61,-145.435"/>
</g>
<!-- Node75 -->
<g id="node23" class="node"><title>Node75</title>
<g id="a_node23"><a xlink:href="calibration_2modules_2_time_8cc.html" target="_top" xlink:title="src/calibration/modules\l/Time.cc">
<polygon fill="white" stroke="black" points="1808.5,-79 1808.5,-109 1925.5,-109 1925.5,-79 1808.5,-79"/>
<text text-anchor="start" x="1816.5" y="-97" font-family="Helvetica,sans-Serif" font-size="10.00">src/calibration/modules</text>
<text text-anchor="middle" x="1867" y="-86" font-family="Helvetica,sans-Serif" font-size="10.00">/Time.cc</text>
</a>
</g>
</g>
<!-- Node53&#45;&gt;Node75 -->
<g id="edge36" class="edge"><title>Node53&#45;&gt;Node75</title>
<path fill="none" stroke="midnightblue" d="M1565.86,-149.828C1626.13,-139.895 1716,-124.707 1794,-110 1798.7,-109.113 1803.57,-108.169 1808.46,-107.203"/>
<polygon fill="midnightblue" stroke="midnightblue" points="1565.01,-146.422 1555.71,-151.499 1566.14,-153.329 1565.01,-146.422"/>
</g>
<!-- Node76 -->
<g id="node24" class="node"><title>Node76</title>
<g id="a_node24"><a xlink:href="_setup___c_b_source_calib_8cc.html" target="_top" xlink:title="src/expconfig/setups\l/Setup_CBSourceCalib.cc">
<polygon fill="white" stroke="black" points="1943.5,-79 1943.5,-109 2074.5,-109 2074.5,-79 1943.5,-79"/>
<text text-anchor="start" x="1951.5" y="-97" font-family="Helvetica,sans-Serif" font-size="10.00">src/expconfig/setups</text>
<text text-anchor="middle" x="2009" y="-86" font-family="Helvetica,sans-Serif" font-size="10.00">/Setup_CBSourceCalib.cc</text>
</a>
</g>
</g>
<!-- Node53&#45;&gt;Node76 -->
<g id="edge47" class="edge"><title>Node53&#45;&gt;Node76</title>
<path fill="none" stroke="midnightblue" d="M1565.71,-154.723C1651.98,-146.442 1804.41,-130.487 1934,-110 1937.02,-109.523 1940.1,-109.011 1943.2,-108.473"/>
<polygon fill="midnightblue" stroke="midnightblue" points="1565.14,-151.261 1555.52,-155.695 1565.81,-158.229 1565.14,-151.261"/>
</g>
<!-- Node55 -->
<g id="node3" class="node"><title>Node55</title>
<g id="a_node3"><a xlink:href="_new_tagger___time_8cc.html" target="_top" xlink:title="src/calibration/modules\l/NewTagger_Time.cc">
<polygon fill="white" stroke="black" points="124.5,-6 124.5,-36 241.5,-36 241.5,-6 124.5,-6"/>
<text text-anchor="start" x="132.5" y="-24" font-family="Helvetica,sans-Serif" font-size="10.00">src/calibration/modules</text>
<text text-anchor="middle" x="183" y="-13" font-family="Helvetica,sans-Serif" font-size="10.00">/NewTagger_Time.cc</text>
</a>
</g>
</g>
<!-- Node54&#45;&gt;Node55 -->
<g id="edge2" class="edge"><title>Node54&#45;&gt;Node55</title>
<path fill="none" stroke="midnightblue" d="M494.365,-84.4035C430.619,-75.8096 333.278,-61.1306 250,-42 242.546,-40.2878 234.704,-38.207 227.115,-36.0429"/>
<polygon fill="midnightblue" stroke="midnightblue" points="493.924,-87.8757 504.3,-85.7302 494.851,-80.9373 493.924,-87.8757"/>
</g>
<!-- Node56 -->
<g id="node4" class="node"><title>Node56</title>
<g id="a_node4"><a xlink:href="_setup__2017__12_8cc.html" target="_top" xlink:title="src/expconfig/setups\l/Setup_2017_12.cc">
<polygon fill="white" stroke="black" points="259.5,-6 259.5,-36 366.5,-36 366.5,-6 259.5,-6"/>
<text text-anchor="start" x="267.5" y="-24" font-family="Helvetica,sans-Serif" font-size="10.00">src/expconfig/setups</text>
<text text-anchor="middle" x="313" y="-13" font-family="Helvetica,sans-Serif" font-size="10.00">/Setup_2017_12.cc</text>
</a>
</g>
</g>
<!-- Node54&#45;&gt;Node56 -->
<g id="edge3" class="edge"><title>Node54&#45;&gt;Node56</title>
<path fill="none" stroke="midnightblue" d="M498.522,-76.3127C462.135,-66.6945 415.896,-54.1359 375,-42 368.711,-40.1338 362.09,-38.0866 355.609,-36.0363"/>
<polygon fill="midnightblue" stroke="midnightblue" points="497.949,-79.7812 508.511,-78.9448 499.733,-73.0122 497.949,-79.7812"/>
</g>
<!-- Node57 -->
<g id="node5" class="node"><title>Node57</title>
<g id="a_node5"><a xlink:href="_setup__2018__03_8cc.html" target="_top" xlink:title="src/expconfig/setups\l/Setup_2018_03.cc">
<polygon fill="white" stroke="black" points="384.5,-6 384.5,-36 491.5,-36 491.5,-6 384.5,-6"/>
<text text-anchor="start" x="392.5" y="-24" font-family="Helvetica,sans-Serif" font-size="10.00">src/expconfig/setups</text>
<text text-anchor="middle" x="438" y="-13" font-family="Helvetica,sans-Serif" font-size="10.00">/Setup_2018_03.cc</text>
</a>
</g>
</g>
<!-- Node54&#45;&gt;Node57 -->
<g id="edge4" class="edge"><title>Node54&#45;&gt;Node57</title>
<path fill="none" stroke="midnightblue" d="M529.437,-73.9365C508.553,-62.0739 482.136,-47.069 463.073,-36.2412"/>
<polygon fill="midnightblue" stroke="midnightblue" points="527.88,-77.0771 538.304,-78.9727 531.337,-70.9904 527.88,-77.0771"/>
</g>
<!-- Node58 -->
<g id="node6" class="node"><title>Node58</title>
<g id="a_node6"><a xlink:href="_setup__2018__05_8cc.html" target="_top" xlink:title="src/expconfig/setups\l/Setup_2018_05.cc">
<polygon fill="white" stroke="black" points="509.5,-6 509.5,-36 616.5,-36 616.5,-6 509.5,-6"/>
<text text-anchor="start" x="517.5" y="-24" font-family="Helvetica,sans-Serif" font-size="10.00">src/expconfig/setups</text>
<text text-anchor="middle" x="563" y="-13" font-family="Helvetica,sans-Serif" font-size="10.00">/Setup_2018_05.cc</text>
</a>
</g>
</g>
<!-- Node54&#45;&gt;Node58 -->
<g id="edge5" class="edge"><title>Node54&#45;&gt;Node58</title>
<path fill="none" stroke="midnightblue" d="M563,-68.8976C563,-58.1314 563,-45.8005 563,-36.4856"/>
<polygon fill="midnightblue" stroke="midnightblue" points="559.5,-68.9727 563,-78.9727 566.5,-68.9727 559.5,-68.9727"/>
</g>
<!-- Node59 -->
<g id="node7" class="node"><title>Node59</title>
<g id="a_node7"><a xlink:href="_setup__2018__09_8cc.html" target="_top" xlink:title="src/expconfig/setups\l/Setup_2018_09.cc">
<polygon fill="white" stroke="black" points="-0.5,-6 -0.5,-36 106.5,-36 106.5,-6 -0.5,-6"/>
<text text-anchor="start" x="7.5" y="-24" font-family="Helvetica,sans-Serif" font-size="10.00">src/expconfig/setups</text>
<text text-anchor="middle" x="53" y="-13" font-family="Helvetica,sans-Serif" font-size="10.00">/Setup_2018_09.cc</text>
</a>
</g>
</g>
<!-- Node54&#45;&gt;Node59 -->
<g id="edge6" class="edge"><title>Node54&#45;&gt;Node59</title>
<path fill="none" stroke="midnightblue" d="M494.224,-89.4224C405.692,-83.8501 247.483,-70.6116 115,-42 107.704,-40.4242 100.048,-38.3316 92.7044,-36.0934"/>
<polygon fill="midnightblue" stroke="midnightblue" points="494.211,-92.9281 504.407,-90.0488 494.641,-85.9413 494.211,-92.9281"/>
</g>
<!-- Node54&#45;&gt;Node60 -->
<g id="edge7" class="edge"><title>Node54&#45;&gt;Node60</title>
<path fill="none" stroke="midnightblue" d="M596.563,-73.9365C617.447,-62.0739 643.864,-47.069 662.927,-36.2412"/>
<polygon fill="midnightblue" stroke="midnightblue" points="594.663,-70.9904 587.696,-78.9727 598.12,-77.0771 594.663,-70.9904"/>
</g>
<!-- Node54&#45;&gt;Node61 -->
<g id="edge8" class="edge"><title>Node54&#45;&gt;Node61</title>
<path fill="none" stroke="midnightblue" d="M626.716,-76.3193C662.96,-66.6565 709.139,-54.0523 750,-42 756.384,-40.117 763.109,-38.0607 769.693,-36.0062"/>
<polygon fill="midnightblue" stroke="midnightblue" points="625.534,-73.0118 616.769,-78.9638 627.332,-79.7768 625.534,-73.0118"/>
</g>
<!-- Node54&#45;&gt;Node62 -->
<g id="edge9" class="edge"><title>Node54&#45;&gt;Node62</title>
<path fill="none" stroke="midnightblue" d="M631.886,-84.6677C695.489,-76.2848 792.325,-61.7692 875,-42 882.031,-40.3187 889.417,-38.2536 896.558,-36.0956"/>
<polygon fill="midnightblue" stroke="midnightblue" points="631.045,-81.2476 621.581,-86.0106 631.95,-88.1889 631.045,-81.2476"/>
</g>
<!-- Node63&#45;&gt;Node60 -->
<g id="edge19" class="edge"><title>Node63&#45;&gt;Node60</title>
<path fill="none" stroke="midnightblue" d="M1472.2,-82.458C1459.52,-80.7706 1446.38,-79.1909 1434,-78 1130.98,-48.8413 1049.38,-97.1928 750,-42 742.214,-40.5646 734.051,-38.4188 726.298,-36.0585"/>
<polygon fill="midnightblue" stroke="midnightblue" points="1471.86,-85.9446 1482.24,-83.829 1472.81,-79.0089 1471.86,-85.9446"/>
</g>
<!-- Node63&#45;&gt;Node61 -->
<g id="edge20" class="edge"><title>Node63&#45;&gt;Node61</title>
<path fill="none" stroke="midnightblue" d="M1472.18,-82.5776C1459.51,-80.8782 1446.37,-79.2634 1434,-78 1186.33,-52.7008 1119.56,-88.5724 875,-42 867.334,-40.5401 859.296,-38.4143 851.644,-36.0875"/>
<polygon fill="midnightblue" stroke="midnightblue" points="1471.85,-86.064 1482.23,-83.9536 1472.8,-79.1288 1471.85,-86.064"/>
</g>
<!-- Node63&#45;&gt;Node62 -->
<g id="edge21" class="edge"><title>Node63&#45;&gt;Node62</title>
<path fill="none" stroke="midnightblue" d="M1472.39,-82.7981C1459.64,-81.0688 1446.43,-79.3869 1434,-78 1242.08,-56.5869 1190.44,-79.4509 1001,-42 993.345,-40.4867 985.311,-38.3661 977.641,-36.0678"/>
<polygon fill="midnightblue" stroke="midnightblue" points="1472.1,-86.2916 1482.49,-84.1904 1473.06,-79.3572 1472.1,-86.2916"/>
</g>
<!-- Node64 -->
<g id="node12" class="node"><title>Node64</title>
<g id="a_node12"><a xlink:href="_t_a_p_s___time_8cc.html" target="_top" xlink:title="src/calibration/modules\l/TAPS_Time.cc">
<polygon fill="white" stroke="black" points="2255.5,-6 2255.5,-36 2372.5,-36 2372.5,-6 2255.5,-6"/>
<text text-anchor="start" x="2263.5" y="-24" font-family="Helvetica,sans-Serif" font-size="10.00">src/calibration/modules</text>
<text text-anchor="middle" x="2314" y="-13" font-family="Helvetica,sans-Serif" font-size="10.00">/TAPS_Time.cc</text>
</a>
</g>
</g>
<!-- Node63&#45;&gt;Node64 -->
<g id="edge11" class="edge"><title>Node63&#45;&gt;Node64</title>
<path fill="none" stroke="midnightblue" d="M1609.77,-88.8651C1774.86,-78.8177 2184.53,-53.13 2246,-42 2254.35,-40.4871 2263.15,-38.3368 2271.53,-36.0027"/>
<polygon fill="midnightblue" stroke="midnightblue" points="1609.49,-85.3752 1599.72,-89.4754 1609.92,-92.3623 1609.49,-85.3752"/>
</g>
<!-- Node63&#45;&gt;Node65 -->
<g id="edge12" class="edge"><title>Node63&#45;&gt;Node65</title>
<path fill="none" stroke="midnightblue" d="M1489.46,-75.657C1453.36,-63.5112 1405.74,-47.4854 1371.96,-36.1195"/>
<polygon fill="midnightblue" stroke="midnightblue" points="1488.72,-79.1006 1499.31,-78.9727 1490.95,-72.4662 1488.72,-79.1006"/>
</g>
<!-- Node63&#45;&gt;Node66 -->
<g id="edge13" class="edge"><title>Node63&#45;&gt;Node66</title>
<path fill="none" stroke="midnightblue" d="M1519.58,-71.8806C1508.01,-60.4699 1494.02,-46.6738 1483.69,-36.4856"/>
<polygon fill="midnightblue" stroke="midnightblue" points="1517.2,-74.4433 1526.78,-78.9727 1522.11,-69.4591 1517.2,-74.4433"/>
</g>
<!-- Node63&#45;&gt;Node67 -->
<g id="edge14" class="edge"><title>Node63&#45;&gt;Node67</title>
<path fill="none" stroke="midnightblue" d="M1472.35,-83.15C1459.61,-81.386 1446.4,-79.6013 1434,-78 1298.63,-60.5241 1262.49,-70.479 1129,-42 1121.49,-40.397 1113.59,-38.2912 1106.01,-36.0484"/>
<polygon fill="midnightblue" stroke="midnightblue" points="1472.06,-86.6431 1482.44,-84.5563 1473.02,-79.71 1472.06,-86.6431"/>
</g>
<!-- Node63&#45;&gt;Node68 -->
<g id="edge15" class="edge"><title>Node63&#45;&gt;Node68</title>
<path fill="none" stroke="midnightblue" d="M1562.71,-71.8806C1574.45,-60.4699 1588.63,-46.6738 1599.11,-36.4856"/>
<polygon fill="midnightblue" stroke="midnightblue" points="1560.15,-69.4915 1555.42,-78.9727 1565.03,-74.5095 1560.15,-69.4915"/>
</g>
<!-- Node63&#45;&gt;Node69 -->
<g id="edge16" class="edge"><title>Node63&#45;&gt;Node69</title>
<path fill="none" stroke="midnightblue" d="M1591.56,-75.657C1626.97,-63.5112 1673.7,-47.4854 1706.83,-36.1195"/>
<polygon fill="midnightblue" stroke="midnightblue" points="1590.22,-72.4175 1581.9,-78.9727 1592.49,-79.0389 1590.22,-72.4175"/>
</g>
<!-- Node63&#45;&gt;Node70 -->
<g id="edge17" class="edge"><title>Node63&#45;&gt;Node70</title>
<path fill="none" stroke="midnightblue" d="M1609.61,-82.3283C1664.27,-73.2674 1742.53,-59.0387 1810,-42 1816.9,-40.2578 1824.15,-38.1864 1831.18,-36.0475"/>
<polygon fill="midnightblue" stroke="midnightblue" points="1608.99,-78.8836 1599.69,-83.9595 1610.12,-85.7909 1608.99,-78.8836"/>
</g>
<!-- Node63&#45;&gt;Node71 -->
<g id="edge18" class="edge"><title>Node63&#45;&gt;Node71</title>
<path fill="none" stroke="midnightblue" d="M1610.02,-86.3427C1688.95,-78.2022 1821.89,-62.8855 1935,-42 1938.21,-41.4079 1941.48,-40.7699 1944.77,-40.0981"/>
<polygon fill="midnightblue" stroke="midnightblue" points="1609.31,-82.8966 1599.72,-87.3956 1610.02,-89.8603 1609.31,-82.8966"/>
</g>
<!-- Node63&#45;&gt;Node72 -->
<g id="edge22" class="edge"><title>Node63&#45;&gt;Node72</title>
<path fill="none" stroke="midnightblue" d="M1610.01,-88.234C1738.04,-79.1386 2007.69,-58.7215 2100,-42 2115.52,-39.1894 2132.53,-34.6192 2146.22,-30.5566"/>
<polygon fill="midnightblue" stroke="midnightblue" points="1609.66,-84.7503 1599.93,-88.9477 1610.15,-91.7328 1609.66,-84.7503"/>
</g>
<!-- Node73&#45;&gt;Node60 -->
<g id="edge32" class="edge"><title>Node73&#45;&gt;Node60</title>
<path fill="none" stroke="midnightblue" d="M1298.05,-92.4385C1183.26,-90.3622 946.182,-81.2079 750,-42 742.458,-40.4928 734.549,-38.3751 726.999,-36.0777"/>
<polygon fill="midnightblue" stroke="midnightblue" points="1298.05,-95.9389 1308.11,-92.6078 1298.17,-88.9399 1298.05,-95.9389"/>
</g>
<!-- Node73&#45;&gt;Node61 -->
<g id="edge33" class="edge"><title>Node73&#45;&gt;Node61</title>
<path fill="none" stroke="midnightblue" d="M1298.32,-90.4032C1202.58,-85.7623 1023.98,-73.3897 875,-42 867.585,-40.4376 859.805,-38.3232 852.358,-36.0525"/>
<polygon fill="midnightblue" stroke="midnightblue" points="1298.3,-93.9059 1308.45,-90.8803 1298.63,-86.9136 1298.3,-93.9059"/>
</g>
<!-- Node73&#45;&gt;Node62 -->
<g id="edge34" class="edge"><title>Node73&#45;&gt;Node62</title>
<path fill="none" stroke="midnightblue" d="M1298.32,-86.9272C1224.3,-79.5717 1103.33,-65.1985 1001,-42 993.726,-40.3509 986.084,-38.2499 978.73,-36.0328"/>
<polygon fill="midnightblue" stroke="midnightblue" points="1298.16,-90.4275 1308.45,-87.9187 1298.84,-83.4608 1298.16,-90.4275"/>
</g>
<!-- Node73&#45;&gt;Node65 -->
<g id="edge25" class="edge"><title>Node73&#45;&gt;Node65</title>
<path fill="none" stroke="midnightblue" d="M1354.96,-69.9022C1349.23,-58.905 1342.55,-46.0916 1337.55,-36.4856"/>
<polygon fill="midnightblue" stroke="midnightblue" points="1351.96,-71.7221 1359.69,-78.9727 1358.17,-68.4871 1351.96,-71.7221"/>
</g>
<!-- Node73&#45;&gt;Node66 -->
<g id="edge26" class="edge"><title>Node73&#45;&gt;Node66</title>
<path fill="none" stroke="midnightblue" d="M1395.54,-73.1339C1412.39,-61.4031 1433.33,-46.8262 1448.54,-36.2412"/>
<polygon fill="midnightblue" stroke="midnightblue" points="1393.36,-70.387 1387.15,-78.9727 1397.36,-76.1322 1393.36,-70.387"/>
</g>
<!-- Node73&#45;&gt;Node67 -->
<g id="edge27" class="edge"><title>Node73&#45;&gt;Node67</title>
<path fill="none" stroke="midnightblue" d="M1298.53,-80.0605C1250.75,-70.6105 1185.66,-56.8906 1129,-42 1122.24,-40.2247 1115.14,-38.183 1108.22,-36.0972"/>
<polygon fill="midnightblue" stroke="midnightblue" points="1297.96,-83.5163 1308.45,-82.0111 1299.31,-76.6477 1297.96,-83.5163"/>
</g>
<!-- Node73&#45;&gt;Node68 -->
<g id="edge28" class="edge"><title>Node73&#45;&gt;Node68</title>
<path fill="none" stroke="midnightblue" d="M1425.45,-76.1993C1467.92,-63.9917 1524.75,-47.6554 1564.88,-36.1195"/>
<polygon fill="midnightblue" stroke="midnightblue" points="1424.44,-72.8462 1415.8,-78.9727 1426.38,-79.5738 1424.44,-72.8462"/>
</g>
<!-- Node73&#45;&gt;Node69 -->
<g id="edge29" class="edge"><title>Node73&#45;&gt;Node69</title>
<path fill="none" stroke="midnightblue" d="M1436.07,-83.1477C1514.94,-71.682 1638.99,-52.929 1685,-42 1692.15,-40.3027 1699.66,-38.2041 1706.9,-36.0108"/>
<polygon fill="midnightblue" stroke="midnightblue" points="1435.13,-79.748 1425.74,-84.6467 1436.13,-86.6755 1435.13,-79.748"/>
</g>
<!-- Node73&#45;&gt;Node70 -->
<g id="edge30" class="edge"><title>Node73&#45;&gt;Node70</title>
<path fill="none" stroke="midnightblue" d="M1435.81,-82.9137C1448.18,-81.2 1460.97,-79.4936 1473,-78 1622.48,-59.4446 1662.58,-72.9448 1810,-42 1817.52,-40.4205 1825.43,-38.2978 1832.99,-36.0245"/>
<polygon fill="midnightblue" stroke="midnightblue" points="1434.97,-79.4984 1425.55,-84.3505 1435.94,-86.4309 1434.97,-79.4984"/>
</g>
<!-- Node73&#45;&gt;Node71 -->
<g id="edge31" class="edge"><title>Node73&#45;&gt;Node71</title>
<path fill="none" stroke="midnightblue" d="M1435.78,-82.6263C1448.15,-80.9428 1460.95,-79.321 1473,-78 1677.73,-55.5603 1731.58,-74.2249 1935,-42 1938.22,-41.4898 1941.5,-40.9196 1944.81,-40.3034"/>
<polygon fill="midnightblue" stroke="midnightblue" points="1434.94,-79.2098 1425.51,-84.0497 1435.9,-86.1436 1434.94,-79.2098"/>
</g>
<!-- Node73&#45;&gt;Node72 -->
<g id="edge35" class="edge"><title>Node73&#45;&gt;Node72</title>
<path fill="none" stroke="midnightblue" d="M1435.98,-82.3914C1448.29,-80.7407 1461.01,-79.1908 1473,-78 1750.76,-50.4215 1824.55,-87.1261 2100,-42 2115.82,-39.4082 2133.14,-34.7445 2146.94,-30.5722"/>
<polygon fill="midnightblue" stroke="midnightblue" points="1435.2,-78.9664 1425.77,-83.7961 1436.15,-85.9012 1435.2,-78.9664"/>
</g>
<!-- Node74 -->
<g id="node22" class="node"><title>Node74</title>
<g id="a_node22"><a xlink:href="_t_a_p_s_veto___time_8cc.html" target="_top" xlink:title="src/calibration/modules\l/TAPSVeto_Time.cc">
<polygon fill="white" stroke="black" points="1138.5,-6 1138.5,-36 1255.5,-36 1255.5,-6 1138.5,-6"/>
<text text-anchor="start" x="1146.5" y="-24" font-family="Helvetica,sans-Serif" font-size="10.00">src/calibration/modules</text>
<text text-anchor="middle" x="1197" y="-13" font-family="Helvetica,sans-Serif" font-size="10.00">/TAPSVeto_Time.cc</text>
</a>
</g>
</g>
<!-- Node73&#45;&gt;Node74 -->
<g id="edge24" class="edge"><title>Node73&#45;&gt;Node74</title>
<path fill="none" stroke="midnightblue" d="M1323.98,-75.0307C1295.08,-62.9647 1257.56,-47.2912 1230.81,-36.1195"/>
<polygon fill="midnightblue" stroke="midnightblue" points="1322.84,-78.3484 1333.41,-78.9727 1325.53,-71.8891 1322.84,-78.3484"/>
</g>
</g>
</svg>
