<?xml version="1.0" encoding="UTF-8" standalone="no"?>
<!DOCTYPE svg PUBLIC "-//W3C//DTD SVG 1.1//EN"
 "http://www.w3.org/Graphics/SVG/1.1/DTD/svg11.dtd">
<!-- Generated by graphviz version 2.36.0 (20140111.2315)
 -->
<!-- Title: src/calibration/modules/PID_Energy.h Pages: 1 -->
<svg width="1610pt" height="118pt"
 viewBox="0.00 0.00 1610.00 118.00" xmlns="http://www.w3.org/2000/svg" xmlns:xlink="http://www.w3.org/1999/xlink">
<g id="graph0" class="graph" transform="scale(1 1) rotate(0) translate(4 114)">
<title>src/calibration/modules/PID_Energy.h</title>
<polygon fill="white" stroke="none" points="-4,4 -4,-114 1606,-114 1606,4 -4,4"/>
<!-- Node51 -->
<g id="node1" class="node"><title>Node51</title>
<polygon fill="#bfbfbf" stroke="black" points="740.5,-79 740.5,-109 857.5,-109 857.5,-79 740.5,-79"/>
<text text-anchor="start" x="748.5" y="-97" font-family="Helvetica,sans-Serif" font-size="10.00">src/calibration/modules</text>
<text text-anchor="middle" x="799" y="-86" font-family="Helvetica,sans-Serif" font-size="10.00">/PID_Energy.h</text>
</g>
<!-- Node52 -->
<g id="node2" class="node"><title>Node52</title>
<g id="a_node2"><a xlink:href="calibration_2modules_2_p_i_d___energy_8cc.html" target="_top" xlink:title="src/calibration/modules\l/PID_Energy.cc">
<polygon fill="white" stroke="black" points="-0.5,-6 -0.5,-36 116.5,-36 116.5,-6 -0.5,-6"/>
<text text-anchor="start" x="7.5" y="-24" font-family="Helvetica,sans-Serif" font-size="10.00">src/calibration/modules</text>
<text text-anchor="middle" x="58" y="-13" font-family="Helvetica,sans-Serif" font-size="10.00">/PID_Energy.cc</text>
</a>
</g>
</g>
<!-- Node51&#45;&gt;Node52 -->
<g id="edge1" class="edge"><title>Node51&#45;&gt;Node52</title>
<path fill="none" stroke="midnightblue" d="M730.308,-92.6452C607.712,-90.9408 343.583,-82.4093 125,-42 116.883,-40.4994 108.351,-38.3849 100.197,-36.0884"/>
<polygon fill="midnightblue" stroke="midnightblue" points="730.264,-96.1448 740.308,-92.7733 730.353,-89.1454 730.264,-96.1448"/>
</g>
<!-- Node53 -->
<g id="node3" class="node"><title>Node53</title>
<g id="a_node3"><a xlink:href="_setup__2007___base_8cc.html" target="_top" xlink:title="src/expconfig/setups\l/Setup_2007_Base.cc">
<polygon fill="white" stroke="black" points="134.5,-6 134.5,-36 247.5,-36 247.5,-6 134.5,-6"/>
<text text-anchor="start" x="142.5" y="-24" font-family="Helvetica,sans-Serif" font-size="10.00">src/expconfig/setups</text>
<text text-anchor="middle" x="191" y="-13" font-family="Helvetica,sans-Serif" font-size="10.00">/Setup_2007_Base.cc</text>
</a>
</g>
</g>
<!-- Node51&#45;&gt;Node53 -->
<g id="edge2" class="edge"><title>Node51&#45;&gt;Node53</title>
<path fill="none" stroke="midnightblue" d="M730.289,-90.9405C626.776,-86.8493 425.058,-75.0233 257,-42 249.129,-40.4533 240.857,-38.3463 232.933,-36.0781"/>
<polygon fill="midnightblue" stroke="midnightblue" points="730.172,-94.4385 740.299,-91.324 730.44,-87.4436 730.172,-94.4385"/>
</g>
<!-- Node54 -->
<g id="node4" class="node"><title>Node54</title>
<g id="a_node4"><a xlink:href="_setup__2010__03___base_8cc.html" target="_top" xlink:title="src/expconfig/setups\l/Setup_2010_03_Base.cc">
<polygon fill="white" stroke="black" points="266,-6 266,-36 394,-36 394,-6 266,-6"/>
<text text-anchor="start" x="274" y="-24" font-family="Helvetica,sans-Serif" font-size="10.00">src/expconfig/setups</text>
<text text-anchor="middle" x="330" y="-13" font-family="Helvetica,sans-Serif" font-size="10.00">/Setup_2010_03_Base.cc</text>
</a>
</g>
</g>
<!-- Node51&#45;&gt;Node54 -->
<g id="edge3" class="edge"><title>Node51&#45;&gt;Node54</title>
<path fill="none" stroke="midnightblue" d="M729.851,-87.0402C650.443,-79.5166 516.506,-64.7427 403,-42 394.754,-40.3478 386.068,-38.2716 377.678,-36.0869"/>
<polygon fill="midnightblue" stroke="midnightblue" points="729.927,-90.5626 740.21,-88.0098 730.58,-83.593 729.927,-90.5626"/>
</g>
<!-- Node55 -->
<g id="node5" class="node"><title>Node55</title>
<g id="a_node5"><a xlink:href="_setup__2014___e_p_t_8cc.html" target="_top" xlink:title="src/expconfig/setups\l/Setup_2014_EPT.cc">
<polygon fill="white" stroke="black" points="412,-6 412,-36 522,-36 522,-6 412,-6"/>
<text text-anchor="start" x="420" y="-24" font-family="Helvetica,sans-Serif" font-size="10.00">src/expconfig/setups</text>
<text text-anchor="middle" x="467" y="-13" font-family="Helvetica,sans-Serif" font-size="10.00">/Setup_2014_EPT.cc</text>
</a>
</g>
</g>
<!-- Node51&#45;&gt;Node55 -->
<g id="edge4" class="edge"><title>Node51&#45;&gt;Node55</title>
<path fill="none" stroke="midnightblue" d="M730.404,-82.1798C675.976,-73.0589 598.147,-58.8217 531,-42 523.999,-40.2461 516.635,-38.1686 509.495,-36.0272"/>
<polygon fill="midnightblue" stroke="midnightblue" points="729.848,-85.6354 740.287,-83.8228 730.996,-78.7301 729.848,-85.6354"/>
</g>
<!-- Node56 -->
<g id="node6" class="node"><title>Node56</title>
<g id="a_node6"><a xlink:href="_setup__2015__01___pion_8cc.html" target="_top" xlink:title="src/expconfig/setups\l/Setup_2015_01_Pion.cc">
<polygon fill="white" stroke="black" points="540.5,-6 540.5,-36 665.5,-36 665.5,-6 540.5,-6"/>
<text text-anchor="start" x="548.5" y="-24" font-family="Helvetica,sans-Serif" font-size="10.00">src/expconfig/setups</text>
<text text-anchor="middle" x="603" y="-13" font-family="Helvetica,sans-Serif" font-size="10.00">/Setup_2015_01_Pion.cc</text>
</a>
</g>
</g>
<!-- Node51&#45;&gt;Node56 -->
<g id="edge5" class="edge"><title>Node51&#45;&gt;Node56</title>
<path fill="none" stroke="midnightblue" d="M750.693,-75.501C717.217,-63.3743 673.22,-47.4369 641.978,-36.1195"/>
<polygon fill="midnightblue" stroke="midnightblue" points="749.682,-78.8575 760.277,-78.9727 752.067,-72.276 749.682,-78.8575"/>
</g>
<!-- Node57 -->
<g id="node7" class="node"><title>Node57</title>
<g id="a_node7"><a xlink:href="_setup__2017__03_8cc.html" target="_top" xlink:title="src/expconfig/setups\l/Setup_2017_03.cc">
<polygon fill="white" stroke="black" points="683.5,-6 683.5,-36 790.5,-36 790.5,-6 683.5,-6"/>
<text text-anchor="start" x="691.5" y="-24" font-family="Helvetica,sans-Serif" font-size="10.00">src/expconfig/setups</text>
<text text-anchor="middle" x="737" y="-13" font-family="Helvetica,sans-Serif" font-size="10.00">/Setup_2017_03.cc</text>
</a>
</g>
</g>
<!-- Node51&#45;&gt;Node57 -->
<g id="edge6" class="edge"><title>Node51&#45;&gt;Node57</title>
<path fill="none" stroke="midnightblue" d="M779.986,-71.226C770.136,-59.9457 758.377,-46.4798 749.649,-36.4856"/>
<polygon fill="midnightblue" stroke="midnightblue" points="777.537,-73.7425 786.751,-78.9727 782.81,-69.1382 777.537,-73.7425"/>
</g>
<!-- Node58 -->
<g id="node8" class="node"><title>Node58</title>
<g id="a_node8"><a xlink:href="_setup__2017__05_8cc.html" target="_top" xlink:title="src/expconfig/setups\l/Setup_2017_05.cc">
<polygon fill="white" stroke="black" points="808.5,-6 808.5,-36 915.5,-36 915.5,-6 808.5,-6"/>
<text text-anchor="start" x="816.5" y="-24" font-family="Helvetica,sans-Serif" font-size="10.00">src/expconfig/setups</text>
<text text-anchor="middle" x="862" y="-13" font-family="Helvetica,sans-Serif" font-size="10.00">/Setup_2017_05.cc</text>
</a>
</g>
</g>
<!-- Node51&#45;&gt;Node58 -->
<g id="edge7" class="edge"><title>Node51&#45;&gt;Node58</title>
<path fill="none" stroke="midnightblue" d="M818.321,-71.226C828.33,-59.9457 840.279,-46.4798 849.147,-36.4856"/>
<polygon fill="midnightblue" stroke="midnightblue" points="815.466,-69.1698 811.447,-78.9727 820.702,-73.8158 815.466,-69.1698"/>
</g>
<!-- Node59 -->
<g id="node9" class="node"><title>Node59</title>
<g id="a_node9"><a xlink:href="_setup__2017_plus___new_tagger___base_8cc.html" target="_top" xlink:title="src/expconfig/setups\l/Setup_2017Plus_NewTagger\l_Base.cc">
<polygon fill="white" stroke="black" points="934,-0.5 934,-41.5 1080,-41.5 1080,-0.5 934,-0.5"/>
<text text-anchor="start" x="942" y="-29.5" font-family="Helvetica,sans-Serif" font-size="10.00">src/expconfig/setups</text>
<text text-anchor="start" x="942" y="-18.5" font-family="Helvetica,sans-Serif" font-size="10.00">/Setup_2017Plus_NewTagger</text>
<text text-anchor="middle" x="1007" y="-7.5" font-family="Helvetica,sans-Serif" font-size="10.00">_Base.cc</text>
</a>
</g>
</g>
<!-- Node51&#45;&gt;Node59 -->
<g id="edge8" class="edge"><title>Node51&#45;&gt;Node59</title>
<path fill="none" stroke="midnightblue" d="M849.616,-75.7223C879.902,-65.3846 918.473,-52.2183 949.851,-41.5075"/>
<polygon fill="midnightblue" stroke="midnightblue" points="848.427,-72.4298 840.094,-78.9727 850.689,-79.0545 848.427,-72.4298"/>
</g>
<!-- Node60 -->
<g id="node10" class="node"><title>Node60</title>
<g id="a_node10"><a xlink:href="_setup__2018__11_8cc.html" target="_top" xlink:title="src/expconfig/setups\l/Setup_2018_11.cc">
<polygon fill="white" stroke="black" points="1098.5,-6 1098.5,-36 1205.5,-36 1205.5,-6 1098.5,-6"/>
<text text-anchor="start" x="1106.5" y="-24" font-family="Helvetica,sans-Serif" font-size="10.00">src/expconfig/setups</text>
<text text-anchor="middle" x="1152" y="-13" font-family="Helvetica,sans-Serif" font-size="10.00">/Setup_2018_11.cc</text>
</a>
</g>
</g>
<!-- Node51&#45;&gt;Node60 -->
<g id="edge9" class="edge"><title>Node51&#45;&gt;Node60</title>
<path fill="none" stroke="midnightblue" d="M867.489,-83.5896C926.594,-74.8433 1014.03,-60.4056 1089,-42 1096.02,-40.2763 1103.4,-38.1898 1110.54,-36.0234"/>
<polygon fill="midnightblue" stroke="midnightblue" points="866.91,-80.137 857.523,-85.0501 867.925,-87.063 866.91,-80.137"/>
</g>
<!-- Node61 -->
<g id="node11" class="node"><title>Node61</title>
<g id="a_node11"><a xlink:href="_setup__2019__01_8cc.html" target="_top" xlink:title="src/expconfig/setups\l/Setup_2019_01.cc">
<polygon fill="white" stroke="black" points="1223.5,-6 1223.5,-36 1330.5,-36 1330.5,-6 1223.5,-6"/>
<text text-anchor="start" x="1231.5" y="-24" font-family="Helvetica,sans-Serif" font-size="10.00">src/expconfig/setups</text>
<text text-anchor="middle" x="1277" y="-13" font-family="Helvetica,sans-Serif" font-size="10.00">/Setup_2019_01.cc</text>
</a>
</g>
</g>
<!-- Node51&#45;&gt;Node61 -->
<g id="edge10" class="edge"><title>Node51&#45;&gt;Node61</title>
<path fill="none" stroke="midnightblue" d="M867.695,-88.4707C950.539,-82.1125 1093.66,-68.2578 1214,-42 1221.4,-40.3854 1229.17,-38.2739 1236.63,-36.0292"/>
<polygon fill="midnightblue" stroke="midnightblue" points="867.358,-84.9861 857.65,-89.2275 867.884,-91.9663 867.358,-84.9861"/>
</g>
<!-- Node62 -->
<g id="node12" class="node"><title>Node62</title>
<g id="a_node12"><a xlink:href="_setup__2019__06_8cc.html" target="_top" xlink:title="src/expconfig/setups\l/Setup_2019_06.cc">
<polygon fill="white" stroke="black" points="1348.5,-6 1348.5,-36 1455.5,-36 1455.5,-6 1348.5,-6"/>
<text text-anchor="start" x="1356.5" y="-24" font-family="Helvetica,sans-Serif" font-size="10.00">src/expconfig/setups</text>
<text text-anchor="middle" x="1402" y="-13" font-family="Helvetica,sans-Serif" font-size="10.00">/Setup_2019_06.cc</text>
</a>
</g>
</g>
<!-- Node51&#45;&gt;Node62 -->
<g id="edge11" class="edge"><title>Node51&#45;&gt;Node62</title>
<path fill="none" stroke="midnightblue" d="M867.826,-91.1875C971.123,-87.416 1171.95,-75.9984 1339,-42 1346.53,-40.4666 1354.44,-38.366 1362.01,-36.1"/>
<polygon fill="midnightblue" stroke="midnightblue" points="867.405,-87.7001 857.534,-91.5497 867.651,-94.6958 867.405,-87.7001"/>
</g>
<!-- Node63 -->
<g id="node13" class="node"><title>Node63</title>
<g id="a_node13"><a xlink:href="expconfig__helpers_8cc.html" target="_top" xlink:title="test/expconfig_helpers.cc">
<polygon fill="white" stroke="black" points="1474,-11.5 1474,-30.5 1602,-30.5 1602,-11.5 1474,-11.5"/>
<text text-anchor="middle" x="1538" y="-18.5" font-family="Helvetica,sans-Serif" font-size="10.00">test/expconfig_helpers.cc</text>
</a>
</g>
</g>
<!-- Node51&#45;&gt;Node63 -->
<g id="edge12" class="edge"><title>Node51&#45;&gt;Node63</title>
<path fill="none" stroke="midnightblue" d="M867.972,-91.9569C989.331,-89.1796 1248.61,-79.0298 1464,-42 1479.87,-39.2717 1497.27,-34.6544 1511.21,-30.5433"/>
<polygon fill="midnightblue" stroke="midnightblue" points="867.638,-88.4633 857.717,-92.1814 867.791,-95.4616 867.638,-88.4633"/>
</g>
</g>
</svg>
