<?xml version="1.0" encoding="UTF-8" standalone="no"?>
<!DOCTYPE svg PUBLIC "-//W3C//DTD SVG 1.1//EN"
 "http://www.w3.org/Graphics/SVG/1.1/DTD/svg11.dtd">
<!-- Generated by graphviz version 2.36.0 (20140111.2315)
 -->
<!-- Title: ant::analysis::physics::DataOverviewBase Pages: 1 -->
<svg width="418pt" height="185pt"
 viewBox="0.00 0.00 418.00 185.00" xmlns="http://www.w3.org/2000/svg" xmlns:xlink="http://www.w3.org/1999/xlink">
<g id="graph0" class="graph" transform="scale(1 1) rotate(0) translate(4 181)">
<title>ant::analysis::physics::DataOverviewBase</title>
<polygon fill="white" stroke="none" points="-4,4 -4,-181 414,-181 414,4 -4,4"/>
<!-- Node0 -->
<g id="node1" class="node"><title>Node0</title>
<polygon fill="#bfbfbf" stroke="black" points="150,-73 150,-103 262,-103 262,-73 150,-73"/>
<text text-anchor="start" x="158" y="-91" font-family="Helvetica,sans-Serif" font-size="10.00">ant::analysis::physics</text>
<text text-anchor="middle" x="206" y="-80" font-family="Helvetica,sans-Serif" font-size="10.00">::DataOverviewBase</text>
</g>
<!-- Node2 -->
<g id="node3" class="node"><title>Node2</title>
<g id="a_node3"><a xlink:href="classant_1_1analysis_1_1physics_1_1_particle_overview.html" target="_top" xlink:title="The ParticleOverview class shows particle type occurences. ">
<polygon fill="white" stroke="black" points="298,-147 298,-177 410,-177 410,-147 298,-147"/>
<text text-anchor="start" x="306" y="-165" font-family="Helvetica,sans-Serif" font-size="10.00">ant::analysis::physics</text>
<text text-anchor="middle" x="354" y="-154" font-family="Helvetica,sans-Serif" font-size="10.00">::ParticleOverview</text>
</a>
</g>
</g>
<!-- Node0&#45;&gt;Node2 -->
<g id="edge2" class="edge"><title>Node0&#45;&gt;Node2</title>
<path fill="none" stroke="midnightblue" d="M242.692,-107.937C259.359,-117.062 279.553,-127.854 298,-137 304.672,-140.308 311.874,-143.704 318.798,-146.885"/>
<polygon fill="midnightblue" stroke="midnightblue" points="244.277,-104.815 233.828,-103.061 240.902,-110.948 244.277,-104.815"/>
</g>
<!-- Node3 -->
<g id="node4" class="node"><title>Node3</title>
<g id="a_node4"><a xlink:href="classant_1_1analysis_1_1physics_1_1_tagger_overview.html" target="_top" xlink:title="Physics class to show Tagger related infos. ">
<polygon fill="white" stroke="black" points="298,-98 298,-128 410,-128 410,-98 298,-98"/>
<text text-anchor="start" x="306" y="-116" font-family="Helvetica,sans-Serif" font-size="10.00">ant::analysis::physics</text>
<text text-anchor="middle" x="354" y="-105" font-family="Helvetica,sans-Serif" font-size="10.00">::TaggerOverview</text>
</a>
</g>
</g>
<!-- Node0&#45;&gt;Node3 -->
<g id="edge3" class="edge"><title>Node0&#45;&gt;Node3</title>
<path fill="none" stroke="midnightblue" d="M272.131,-99.1526C280.676,-100.616 289.366,-102.104 297.726,-103.535"/>
<polygon fill="midnightblue" stroke="midnightblue" points="272.644,-95.6895 262.196,-97.4514 271.462,-102.589 272.644,-95.6895"/>
</g>
<!-- Node4 -->
<g id="node5" class="node"><title>Node4</title>
<g id="a_node5"><a xlink:href="classant_1_1analysis_1_1physics_1_1_target_overview.html" target="_top" xlink:title="The TargetOverview class shows target information. ">
<polygon fill="white" stroke="black" points="298,-49 298,-79 410,-79 410,-49 298,-49"/>
<text text-anchor="start" x="306" y="-67" font-family="Helvetica,sans-Serif" font-size="10.00">ant::analysis::physics</text>
<text text-anchor="middle" x="354" y="-56" font-family="Helvetica,sans-Serif" font-size="10.00">::TargetOverview</text>
</a>
</g>
</g>
<!-- Node0&#45;&gt;Node4 -->
<g id="edge4" class="edge"><title>Node0&#45;&gt;Node4</title>
<path fill="none" stroke="midnightblue" d="M272.131,-77.2935C280.676,-75.8889 289.366,-74.4604 297.726,-73.0862"/>
<polygon fill="midnightblue" stroke="midnightblue" points="271.496,-73.8508 262.196,-78.9266 272.632,-80.7581 271.496,-73.8508"/>
</g>
<!-- Node5 -->
<g id="node6" class="node"><title>Node5</title>
<g id="a_node6"><a xlink:href="classant_1_1analysis_1_1physics_1_1_trigger_overview.html" target="_top" xlink:title="Physics class to show Trigger and general event infos. ">
<polygon fill="white" stroke="black" points="298,-0 298,-30 410,-30 410,-0 298,-0"/>
<text text-anchor="start" x="306" y="-18" font-family="Helvetica,sans-Serif" font-size="10.00">ant::analysis::physics</text>
<text text-anchor="middle" x="354" y="-7" font-family="Helvetica,sans-Serif" font-size="10.00">::TriggerOverview</text>
</a>
</g>
</g>
<!-- Node0&#45;&gt;Node5 -->
<g id="edge5" class="edge"><title>Node0&#45;&gt;Node5</title>
<path fill="none" stroke="midnightblue" d="M242.629,-67.9346C259.284,-58.7833 279.484,-48.0059 298,-39 304.183,-35.9925 310.834,-32.9405 317.3,-30.0669"/>
<polygon fill="midnightblue" stroke="midnightblue" points="240.833,-64.9284 233.774,-72.8298 244.219,-71.0545 240.833,-64.9284"/>
</g>
<!-- Node1 -->
<g id="node2" class="node"><title>Node1</title>
<g id="a_node2"><a xlink:href="classant_1_1analysis_1_1_physics.html" target="_top" xlink:title="ant::analysis::Physics">
<polygon fill="white" stroke="black" points="0.5,-78.5 0.5,-97.5 113.5,-97.5 113.5,-78.5 0.5,-78.5"/>
<text text-anchor="middle" x="57" y="-85.5" font-family="Helvetica,sans-Serif" font-size="10.00">ant::analysis::Physics</text>
</a>
</g>
</g>
<!-- Node1&#45;&gt;Node0 -->
<g id="edge1" class="edge"><title>Node1&#45;&gt;Node0</title>
<path fill="none" stroke="midnightblue" d="M123.718,-88C132.442,-88 141.314,-88 149.835,-88"/>
<polygon fill="midnightblue" stroke="midnightblue" points="123.574,-84.5001 113.574,-88 123.574,-91.5001 123.574,-84.5001"/>
</g>
</g>
</svg>
