<?xml version="1.0" encoding="UTF-8" standalone="no"?>
<!DOCTYPE svg PUBLIC "-//W3C//DTD SVG 1.1//EN"
 "http://www.w3.org/Graphics/SVG/1.1/DTD/svg11.dtd">
<!-- Generated by graphviz version 2.36.0 (20140111.2315)
 -->
<!-- Title: ant::calibration::gui::FitGaus Pages: 1 -->
<svg width="576pt" height="87pt"
 viewBox="0.00 0.00 576.00 87.00" xmlns="http://www.w3.org/2000/svg" xmlns:xlink="http://www.w3.org/1999/xlink">
<g id="graph0" class="graph" transform="scale(1 1) rotate(0) translate(4 83)">
<title>ant::calibration::gui::FitGaus</title>
<polygon fill="white" stroke="none" points="-4,4 -4,-83 572,-83 572,4 -4,4"/>
<!-- Node0 -->
<g id="node1" class="node"><title>Node0</title>
<polygon fill="#bfbfbf" stroke="black" points="280.5,-24 280.5,-54 379.5,-54 379.5,-24 280.5,-24"/>
<text text-anchor="start" x="288.5" y="-42" font-family="Helvetica,sans-Serif" font-size="10.00">ant::calibration::gui</text>
<text text-anchor="middle" x="330" y="-31" font-family="Helvetica,sans-Serif" font-size="10.00">::FitGaus</text>
</g>
<!-- Node3 -->
<g id="node4" class="node"><title>Node3</title>
<g id="a_node4"><a xlink:href="classant_1_1calibration_1_1gui_1_1_c_b_peak_function.html" target="_top" xlink:title="ant::calibration::gui\l::CBPeakFunction">
<polygon fill="white" stroke="black" points="442.5,-49 442.5,-79 541.5,-79 541.5,-49 442.5,-49"/>
<text text-anchor="start" x="450.5" y="-67" font-family="Helvetica,sans-Serif" font-size="10.00">ant::calibration::gui</text>
<text text-anchor="middle" x="492" y="-56" font-family="Helvetica,sans-Serif" font-size="10.00">::CBPeakFunction</text>
</a>
</g>
</g>
<!-- Node0&#45;&gt;Node3 -->
<g id="edge3" class="edge"><title>Node0&#45;&gt;Node3</title>
<path fill="none" stroke="midnightblue" d="M389.863,-48.1973C407.15,-50.8985 425.856,-53.8213 442.425,-56.4101"/>
<polygon fill="midnightblue" stroke="midnightblue" points="390.295,-44.7225 379.875,-46.6367 389.214,-51.6386 390.295,-44.7225"/>
</g>
<!-- Node4 -->
<g id="node5" class="node"><title>Node4</title>
<g id="a_node5"><a xlink:href="class_p_i_d___phi_angle_1_1_the_g_u_i_1_1___fit_gauss.html" target="_top" xlink:title="The PID_PhiAngle::TheGUI::_FitGauss: override the SetDefaults for PID phi angle fits. ">
<polygon fill="white" stroke="black" points="416,-0 416,-30 568,-30 568,-0 416,-0"/>
<text text-anchor="start" x="424" y="-18" font-family="Helvetica,sans-Serif" font-size="10.00">ant::calibration::PID</text>
<text text-anchor="middle" x="492" y="-7" font-family="Helvetica,sans-Serif" font-size="10.00">_PhiAngle::TheGUI::_FitGauss</text>
</a>
</g>
</g>
<!-- Node0&#45;&gt;Node4 -->
<g id="edge4" class="edge"><title>Node0&#45;&gt;Node4</title>
<path fill="none" stroke="midnightblue" d="M389.979,-30.1531C398.423,-28.8866 407.202,-27.5696 415.904,-26.2643"/>
<polygon fill="midnightblue" stroke="midnightblue" points="389.245,-26.724 379.875,-31.6688 390.283,-33.6466 389.245,-26.724"/>
</g>
<!-- Node1 -->
<g id="node2" class="node"><title>Node1</title>
<g id="a_node2"><a xlink:href="classant_1_1calibration_1_1gui_1_1_peaking_fit_function.html" target="_top" xlink:title="Fit functions describing peak shapes, like Gaus or Lorentz with optional background function...">
<polygon fill="white" stroke="black" points="136.5,-24 136.5,-54 243.5,-54 243.5,-24 136.5,-24"/>
<text text-anchor="start" x="144.5" y="-42" font-family="Helvetica,sans-Serif" font-size="10.00">ant::calibration::gui</text>
<text text-anchor="middle" x="190" y="-31" font-family="Helvetica,sans-Serif" font-size="10.00">::PeakingFitFunction</text>
</a>
</g>
</g>
<!-- Node1&#45;&gt;Node0 -->
<g id="edge1" class="edge"><title>Node1&#45;&gt;Node0</title>
<path fill="none" stroke="midnightblue" d="M253.853,-39C262.699,-39 271.681,-39 280.211,-39"/>
<polygon fill="midnightblue" stroke="midnightblue" points="253.566,-35.5001 243.566,-39 253.566,-42.5001 253.566,-35.5001"/>
</g>
<!-- Node2 -->
<g id="node3" class="node"><title>Node2</title>
<g id="a_node3"><a xlink:href="classant_1_1calibration_1_1gui_1_1_fit_function.html" target="_top" xlink:title="ant::calibration::gui\l::FitFunction">
<polygon fill="white" stroke="black" points="0.5,-24 0.5,-54 99.5,-54 99.5,-24 0.5,-24"/>
<text text-anchor="start" x="8.5" y="-42" font-family="Helvetica,sans-Serif" font-size="10.00">ant::calibration::gui</text>
<text text-anchor="middle" x="50" y="-31" font-family="Helvetica,sans-Serif" font-size="10.00">::FitFunction</text>
</a>
</g>
</g>
<!-- Node2&#45;&gt;Node1 -->
<g id="edge2" class="edge"><title>Node2&#45;&gt;Node1</title>
<path fill="none" stroke="midnightblue" d="M109.778,-39C118.519,-39 127.485,-39 136.096,-39"/>
<polygon fill="midnightblue" stroke="midnightblue" points="109.654,-35.5001 99.6536,-39 109.654,-42.5001 109.654,-35.5001"/>
</g>
</g>
</svg>
