<?xml version="1.0" encoding="UTF-8" standalone="no"?>
<!DOCTYPE svg PUBLIC "-//W3C//DTD SVG 1.1//EN"
 "http://www.w3.org/Graphics/SVG/1.1/DTD/svg11.dtd">
<!-- Generated by graphviz version 2.36.0 (20140111.2315)
 -->
<!-- Title: DirList Pages: 1 -->
<svg width="122pt" height="154pt"
 viewBox="0.00 0.00 122.00 154.00" xmlns="http://www.w3.org/2000/svg" xmlns:xlink="http://www.w3.org/1999/xlink">
<g id="graph0" class="graph" transform="scale(1 1) rotate(0) translate(4 150)">
<title>DirList</title>
<polygon fill="white" stroke="none" points="-4,4 -4,-150 118,-150 118,4 -4,4"/>
<!-- Node2 -->
<g id="node1" class="node"><title>Node2</title>
<polygon fill="#bfbfbf" stroke="black" points="34.5,-0.5 34.5,-19.5 79.5,-19.5 79.5,-0.5 34.5,-0.5"/>
<text text-anchor="middle" x="57" y="-7.5" font-family="Helvetica,sans-Serif" font-size="10.00">DirList</text>
</g>
<!-- Node3 -->
<g id="node2" class="node"><title>Node3</title>
<g id="a_node2"><a xlink:title="STL class. ">
<polygon fill="white" stroke="#bfbfbf" points="-1,-58.5 -1,-77.5 115,-77.5 115,-58.5 -1,-58.5"/>
<text text-anchor="middle" x="57" y="-65.5" font-family="Helvetica,sans-Serif" font-size="10.00">std::list&lt; TDirectory *&gt;</text>
</a>
</g>
</g>
<!-- Node3&#45;&gt;Node2 -->
<g id="edge1" class="edge"><title>Node3&#45;&gt;Node2</title>
<path fill="none" stroke="midnightblue" d="M57,-47.953C57,-38.2875 57,-27.0312 57,-19.5052"/>
<polygon fill="midnightblue" stroke="midnightblue" points="53.5001,-48.25 57,-58.25 60.5001,-48.25 53.5001,-48.25"/>
</g>
<!-- Node4 -->
<g id="node3" class="node"><title>Node4</title>
<polygon fill="white" stroke="#bfbfbf" points="42.5,-126.5 42.5,-145.5 71.5,-145.5 71.5,-126.5 42.5,-126.5"/>
<text text-anchor="middle" x="57" y="-133.5" font-family="Helvetica,sans-Serif" font-size="10.00">T</text>
</g>
<!-- Node4&#45;&gt;Node3 -->
<g id="edge2" class="edge"><title>Node4&#45;&gt;Node3</title>
<path fill="none" stroke="#9a32cd" stroke-dasharray="5,2" d="M57,-116.041C57,-103.472 57,-87.5631 57,-77.8411"/>
<polygon fill="#9a32cd" stroke="#9a32cd" points="53.5001,-116.372 57,-126.372 60.5001,-116.372 53.5001,-116.372"/>
<text text-anchor="middle" x="78.5" y="-99.5" font-family="Helvetica,sans-Serif" font-size="10.00"> elements</text>
</g>
</g>
</svg>
