<?xml version="1.0" encoding="UTF-8" standalone="no"?>
<!DOCTYPE svg PUBLIC "-//W3C//DTD SVG 1.1//EN"
 "http://www.w3.org/Graphics/SVG/1.1/DTD/svg11.dtd">
<!-- Generated by graphviz version 2.36.0 (20140111.2315)
 -->
<!-- Title: ant::calibration::PID_Energy Pages: 1 -->
<svg width="762pt" height="159pt"
 viewBox="0.00 0.00 762.00 159.00" xmlns="http://www.w3.org/2000/svg" xmlns:xlink="http://www.w3.org/1999/xlink">
<g id="graph0" class="graph" transform="scale(1 1) rotate(0) translate(4 155)">
<title>ant::calibration::PID_Energy</title>
<polygon fill="white" stroke="none" points="-4,4 -4,-155 758,-155 758,4 -4,4"/>
<!-- Node0 -->
<g id="node1" class="node"><title>Node0</title>
<polygon fill="#bfbfbf" stroke="black" points="650,-22 650,-52 754,-52 754,-22 650,-22"/>
<text text-anchor="start" x="658" y="-40" font-family="Helvetica,sans-Serif" font-size="10.00">ant::calibration::PID</text>
<text text-anchor="middle" x="702" y="-29" font-family="Helvetica,sans-Serif" font-size="10.00">_Energy</text>
</g>
<!-- Node1 -->
<g id="node2" class="node"><title>Node1</title>
<g id="a_node2"><a xlink:href="classant_1_1calibration_1_1_energy.html" target="_top" xlink:title="ant::calibration::Energy">
<polygon fill="white" stroke="black" points="496.5,-49.5 496.5,-68.5 613.5,-68.5 613.5,-49.5 496.5,-49.5"/>
<text text-anchor="middle" x="555" y="-56.5" font-family="Helvetica,sans-Serif" font-size="10.00">ant::calibration::Energy</text>
</a>
</g>
</g>
<!-- Node1&#45;&gt;Node0 -->
<g id="edge1" class="edge"><title>Node1&#45;&gt;Node0</title>
<path fill="none" stroke="midnightblue" d="M623.821,-48.71C632.481,-47.3959 641.231,-46.0683 649.574,-44.8026"/>
<polygon fill="midnightblue" stroke="midnightblue" points="623.086,-45.2812 613.724,-50.2418 624.136,-52.202 623.086,-45.2812"/>
</g>
<!-- Node2 -->
<g id="node3" class="node"><title>Node2</title>
<g id="a_node3"><a xlink:href="classant_1_1_calibration_1_1_module.html" target="_top" xlink:title="The Module class is typically used for calibrations. ">
<polygon fill="white" stroke="black" points="340,-93.5 340,-112.5 460,-112.5 460,-93.5 340,-93.5"/>
<text text-anchor="middle" x="400" y="-100.5" font-family="Helvetica,sans-Serif" font-size="10.00">ant::Calibration::Module</text>
</a>
</g>
</g>
<!-- Node2&#45;&gt;Node1 -->
<g id="edge2" class="edge"><title>Node2&#45;&gt;Node1</title>
<path fill="none" stroke="midnightblue" d="M443.914,-90.6588C468.283,-83.6507 498.325,-75.0112 520.866,-68.5287"/>
<polygon fill="midnightblue" stroke="midnightblue" points="442.842,-87.3251 434.199,-93.4527 444.777,-94.0525 442.842,-87.3251"/>
</g>
<!-- Node3 -->
<g id="node4" class="node"><title>Node3</title>
<g id="a_node4"><a xlink:href="classant_1_1_calibration_1_1_physics_module.html" target="_top" xlink:title="The PhysicsModule class gives the modules the ability to create histograms from events as well as fit...">
<polygon fill="white" stroke="black" points="180,-121 180,-151 304,-151 304,-121 180,-121"/>
<text text-anchor="start" x="188" y="-139" font-family="Helvetica,sans-Serif" font-size="10.00">ant::Calibration::Physics</text>
<text text-anchor="middle" x="242" y="-128" font-family="Helvetica,sans-Serif" font-size="10.00">Module</text>
</a>
</g>
</g>
<!-- Node3&#45;&gt;Node2 -->
<g id="edge3" class="edge"><title>Node3&#45;&gt;Node2</title>
<path fill="none" stroke="midnightblue" d="M314.008,-120.979C327.569,-118.11 341.415,-115.182 353.887,-112.543"/>
<polygon fill="midnightblue" stroke="midnightblue" points="313.267,-117.558 304.208,-123.052 314.715,-124.407 313.267,-117.558"/>
</g>
<!-- Node4 -->
<g id="node5" class="node"><title>Node4</title>
<g id="a_node5"><a xlink:href="classant_1_1_calibration_1_1_base_module.html" target="_top" xlink:title="The BaseModule class provides a name for identification. ">
<polygon fill="white" stroke="black" points="0.5,-126.5 0.5,-145.5 143.5,-145.5 143.5,-126.5 0.5,-126.5"/>
<text text-anchor="middle" x="72" y="-133.5" font-family="Helvetica,sans-Serif" font-size="10.00">ant::Calibration::BaseModule</text>
</a>
</g>
</g>
<!-- Node4&#45;&gt;Node3 -->
<g id="edge4" class="edge"><title>Node4&#45;&gt;Node3</title>
<path fill="none" stroke="midnightblue" d="M153.964,-136C162.693,-136 171.466,-136 179.904,-136"/>
<polygon fill="midnightblue" stroke="midnightblue" points="153.76,-132.5 143.76,-136 153.76,-139.5 153.76,-132.5"/>
</g>
<!-- Node5 -->
<g id="node6" class="node"><title>Node5</title>
<g id="a_node6"><a xlink:href="structant_1_1_updateable__traits.html" target="_top" xlink:title="The Updateable_traits class used by the UpdateableManager. ">
<polygon fill="white" stroke="black" points="185.5,-82.5 185.5,-101.5 298.5,-101.5 298.5,-82.5 185.5,-82.5"/>
<text text-anchor="middle" x="242" y="-89.5" font-family="Helvetica,sans-Serif" font-size="10.00">ant::Updateable_traits</text>
</a>
</g>
</g>
<!-- Node5&#45;&gt;Node2 -->
<g id="edge5" class="edge"><title>Node5&#45;&gt;Node2</title>
<path fill="none" stroke="midnightblue" d="M308.994,-96.6534C319.23,-97.3752 329.748,-98.1169 339.822,-98.8272"/>
<polygon fill="midnightblue" stroke="midnightblue" points="309.1,-93.1523 298.879,-95.9402 308.608,-100.135 309.1,-93.1523"/>
</g>
<!-- Node6 -->
<g id="node7" class="node"><title>Node6</title>
<g id="a_node7"><a xlink:href="structant_1_1_reconstruct_hook_1_1_detector_read_hits.html" target="_top" xlink:title="The DetectorReadHits struct instances are applied before hit matching. ">
<polygon fill="white" stroke="black" points="343.5,-44 343.5,-74 456.5,-74 456.5,-44 343.5,-44"/>
<text text-anchor="start" x="351.5" y="-62" font-family="Helvetica,sans-Serif" font-size="10.00">ant::ReconstructHook</text>
<text text-anchor="middle" x="400" y="-51" font-family="Helvetica,sans-Serif" font-size="10.00">::DetectorReadHits</text>
</a>
</g>
</g>
<!-- Node6&#45;&gt;Node1 -->
<g id="edge6" class="edge"><title>Node6&#45;&gt;Node1</title>
<path fill="none" stroke="midnightblue" d="M466.791,-59C476.614,-59 486.677,-59 496.315,-59"/>
<polygon fill="midnightblue" stroke="midnightblue" points="466.669,-55.5001 456.669,-59 466.669,-62.5001 466.669,-55.5001"/>
</g>
<!-- Node7 -->
<g id="node8" class="node"><title>Node7</title>
<g id="a_node8"><a xlink:href="structant_1_1_reconstruct_hook_1_1_base.html" target="_top" xlink:title="The Base struct just defines some useful types. ">
<polygon fill="white" stroke="black" points="185.5,-11 185.5,-41 298.5,-41 298.5,-11 185.5,-11"/>
<text text-anchor="start" x="193.5" y="-29" font-family="Helvetica,sans-Serif" font-size="10.00">ant::ReconstructHook</text>
<text text-anchor="middle" x="242" y="-18" font-family="Helvetica,sans-Serif" font-size="10.00">::Base</text>
</a>
</g>
</g>
<!-- Node7&#45;&gt;Node6 -->
<g id="edge7" class="edge"><title>Node7&#45;&gt;Node6</title>
<path fill="none" stroke="midnightblue" d="M308.828,-39.9251C320.283,-42.3483 332.097,-44.8474 343.249,-47.2066"/>
<polygon fill="midnightblue" stroke="midnightblue" points="309.387,-36.466 298.879,-37.8205 307.938,-43.3144 309.387,-36.466"/>
</g>
<!-- Node8 -->
<g id="node9" class="node"><title>Node8</title>
<g id="a_node9"><a xlink:href="structant_1_1_reconstruct_hook_1_1_event_data.html" target="_top" xlink:title="The EventData struct instances are applied after candidate building. ">
<polygon fill="white" stroke="black" points="498.5,-0 498.5,-30 611.5,-30 611.5,-0 498.5,-0"/>
<text text-anchor="start" x="506.5" y="-18" font-family="Helvetica,sans-Serif" font-size="10.00">ant::ReconstructHook</text>
<text text-anchor="middle" x="555" y="-7" font-family="Helvetica,sans-Serif" font-size="10.00">::EventData</text>
</a>
</g>
</g>
<!-- Node7&#45;&gt;Node8 -->
<g id="edge9" class="edge"><title>Node7&#45;&gt;Node8</title>
<path fill="none" stroke="midnightblue" d="M308.822,-23.6719C365.11,-21.681 445.217,-18.8476 498.357,-16.9681"/>
<polygon fill="midnightblue" stroke="midnightblue" points="308.471,-20.182 298.601,-24.0334 308.718,-27.1777 308.471,-20.182"/>
</g>
<!-- Node8&#45;&gt;Node0 -->
<g id="edge8" class="edge"><title>Node8&#45;&gt;Node0</title>
<path fill="none" stroke="midnightblue" d="M621.693,-24.9673C631.035,-26.3846 640.529,-27.825 649.547,-29.1933"/>
<polygon fill="midnightblue" stroke="midnightblue" points="622.058,-21.4826 611.646,-23.4429 621.008,-28.4034 622.058,-21.4826"/>
</g>
</g>
</svg>
