<?xml version="1.0" encoding="UTF-8" standalone="no"?>
<!DOCTYPE svg PUBLIC "-//W3C//DTD SVG 1.1//EN"
 "http://www.w3.org/Graphics/SVG/1.1/DTD/svg11.dtd">
<!-- Generated by graphviz version 2.36.0 (20140111.2315)
 -->
<!-- Title: ant::calibration::TAPS_ToF::TheGUI Pages: 1 -->
<svg width="1436pt" height="317pt"
 viewBox="0.00 0.00 1436.00 317.00" xmlns="http://www.w3.org/2000/svg" xmlns:xlink="http://www.w3.org/1999/xlink">
<g id="graph0" class="graph" transform="scale(1 1) rotate(0) translate(4 313)">
<title>ant::calibration::TAPS_ToF::TheGUI</title>
<polygon fill="white" stroke="none" points="-4,4 -4,-313 1432,-313 1432,4 -4,4"/>
<!-- Node2 -->
<g id="node1" class="node"><title>Node2</title>
<polygon fill="#bfbfbf" stroke="black" points="1314.5,-85 1314.5,-115 1427.5,-115 1427.5,-85 1314.5,-85"/>
<text text-anchor="start" x="1322.5" y="-103" font-family="Helvetica,sans-Serif" font-size="10.00">ant::calibration::TAPS</text>
<text text-anchor="middle" x="1371" y="-92" font-family="Helvetica,sans-Serif" font-size="10.00">_ToF::TheGUI</text>
</g>
<!-- Node3 -->
<g id="node2" class="node"><title>Node3</title>
<g id="a_node2"><a xlink:href="classant_1_1calibration_1_1gui_1_1_calib_module__traits.html" target="_top" xlink:title="ant::calibration::gui\l::CalibModule_traits">
<polygon fill="white" stroke="black" points="1113,-185 1113,-215 1217,-215 1217,-185 1113,-185"/>
<text text-anchor="start" x="1121" y="-203" font-family="Helvetica,sans-Serif" font-size="10.00">ant::calibration::gui</text>
<text text-anchor="middle" x="1165" y="-192" font-family="Helvetica,sans-Serif" font-size="10.00">::CalibModule_traits</text>
</a>
</g>
</g>
<!-- Node3&#45;&gt;Node2 -->
<g id="edge1" class="edge"><title>Node3&#45;&gt;Node2</title>
<path fill="none" stroke="midnightblue" d="M1216.33,-181.303C1240.8,-171.66 1270.38,-159.171 1296,-146 1314.03,-136.731 1333.46,-124.562 1347.88,-115.069"/>
<polygon fill="midnightblue" stroke="midnightblue" points="1214.93,-178.095 1206.88,-184.988 1217.47,-184.617 1214.93,-178.095"/>
</g>
<!-- Node4 -->
<g id="node3" class="node"><title>Node4</title>
<g id="a_node3"><a xlink:href="classant_1_1calibration_1_1gui_1_1_cal_canvas.html" target="_top" xlink:title="ant::calibration::gui\l::CalCanvas">
<polygon fill="white" stroke="black" points="1115.5,-136 1115.5,-166 1214.5,-166 1214.5,-136 1115.5,-136"/>
<text text-anchor="start" x="1123.5" y="-154" font-family="Helvetica,sans-Serif" font-size="10.00">ant::calibration::gui</text>
<text text-anchor="middle" x="1165" y="-143" font-family="Helvetica,sans-Serif" font-size="10.00">::CalCanvas</text>
</a>
</g>
</g>
<!-- Node4&#45;&gt;Node2 -->
<g id="edge2" class="edge"><title>Node4&#45;&gt;Node2</title>
<path fill="none" stroke="#9a32cd" stroke-dasharray="5,2" d="M1224.34,-136.415C1252.57,-129.357 1286.3,-120.924 1314.19,-113.952"/>
<polygon fill="#9a32cd" stroke="#9a32cd" points="1223.46,-133.028 1214.6,-138.849 1225.15,-139.819 1223.46,-133.028"/>
<text text-anchor="middle" x="1270" y="-134" font-family="Helvetica,sans-Serif" font-size="10.00"> theCanvas</text>
</g>
<!-- Node5 -->
<g id="node4" class="node"><title>Node5</title>
<polygon fill="white" stroke="#bfbfbf" points="906,-289.5 906,-308.5 962,-308.5 962,-289.5 906,-289.5"/>
<text text-anchor="middle" x="934" y="-296.5" font-family="Helvetica,sans-Serif" font-size="10.00">TCanvas</text>
</g>
<!-- Node5&#45;&gt;Node4 -->
<g id="edge3" class="edge"><title>Node5&#45;&gt;Node4</title>
<path fill="none" stroke="midnightblue" d="M972.366,-304.125C1006.61,-306.563 1056.36,-304.04 1086,-275 1118.26,-243.396 1075.46,-209.995 1104,-175 1107.19,-171.088 1111.11,-167.809 1115.41,-165.063"/>
<polygon fill="midnightblue" stroke="midnightblue" points="972.545,-300.627 962.275,-303.233 971.928,-307.6 972.545,-300.627"/>
</g>
<!-- Node6 -->
<g id="node5" class="node"><title>Node6</title>
<g id="a_node5"><a xlink:href="classant_1_1calibration_1_1gui_1_1update__notify__traits.html" target="_top" xlink:title="ant::calibration::gui\l::update_notify_traits">
<polygon fill="white" stroke="black" points="464,-233 464,-263 572,-263 572,-233 464,-233"/>
<text text-anchor="start" x="472" y="-251" font-family="Helvetica,sans-Serif" font-size="10.00">ant::calibration::gui</text>
<text text-anchor="middle" x="518" y="-240" font-family="Helvetica,sans-Serif" font-size="10.00">::update_notify_traits</text>
</a>
</g>
</g>
<!-- Node6&#45;&gt;Node4 -->
<g id="edge4" class="edge"><title>Node6&#45;&gt;Node4</title>
<path fill="none" stroke="midnightblue" d="M582.406,-254.209C676.057,-261.783 856.425,-270.252 1006,-241 1043.42,-233.681 1057.65,-235.506 1086,-210 1099,-198.299 1091.06,-186.771 1104,-175 1107.73,-171.603 1112.01,-168.658 1116.52,-166.112"/>
<polygon fill="midnightblue" stroke="midnightblue" points="582.501,-250.705 572.245,-253.363 581.92,-257.68 582.501,-250.705"/>
</g>
<!-- Node8 -->
<g id="node7" class="node"><title>Node8</title>
<g id="a_node7"><a xlink:href="classant_1_1calibration_1_1gui_1_1_indicator.html" target="_top" xlink:title="ant::calibration::gui\l::Indicator">
<polygon fill="white" stroke="black" points="672.5,-202 672.5,-232 771.5,-232 771.5,-202 672.5,-202"/>
<text text-anchor="start" x="680.5" y="-220" font-family="Helvetica,sans-Serif" font-size="10.00">ant::calibration::gui</text>
<text text-anchor="middle" x="722" y="-209" font-family="Helvetica,sans-Serif" font-size="10.00">::Indicator</text>
</a>
</g>
</g>
<!-- Node6&#45;&gt;Node8 -->
<g id="edge7" class="edge"><title>Node6&#45;&gt;Node8</title>
<path fill="none" stroke="midnightblue" d="M582.155,-238.308C611.293,-233.836 645.343,-228.611 672.431,-224.454"/>
<polygon fill="midnightblue" stroke="midnightblue" points="581.426,-234.879 572.073,-239.855 582.488,-241.798 581.426,-234.879"/>
</g>
<!-- Node7 -->
<g id="node6" class="node"><title>Node7</title>
<polygon fill="white" stroke="#bfbfbf" points="873,-202 873,-232 995,-232 995,-202 873,-202"/>
<text text-anchor="start" x="881" y="-220" font-family="Helvetica,sans-Serif" font-size="10.00">std::list&lt; ant::calibration</text>
<text text-anchor="middle" x="934" y="-209" font-family="Helvetica,sans-Serif" font-size="10.00">::gui::Indicator *&gt;</text>
</g>
<!-- Node7&#45;&gt;Node4 -->
<g id="edge5" class="edge"><title>Node7&#45;&gt;Node4</title>
<path fill="none" stroke="#9a32cd" stroke-dasharray="5,2" d="M1005.11,-199.406C1030.67,-192.735 1059.73,-184.848 1086,-177 1097.21,-173.649 1109.25,-169.777 1120.42,-166.062"/>
<polygon fill="#9a32cd" stroke="#9a32cd" points="1003.93,-196.096 995.131,-201.996 1005.69,-202.871 1003.93,-196.096"/>
<text text-anchor="middle" x="1055" y="-198" font-family="Helvetica,sans-Serif" font-size="10.00"> indicators</text>
</g>
<!-- Node8&#45;&gt;Node7 -->
<g id="edge6" class="edge"><title>Node8&#45;&gt;Node7</title>
<path fill="none" stroke="#9a32cd" stroke-dasharray="5,2" d="M781.901,-217C810.319,-217 844.358,-217 872.928,-217"/>
<polygon fill="#9a32cd" stroke="#9a32cd" points="781.706,-213.5 771.706,-217 781.706,-220.5 781.706,-213.5"/>
<text text-anchor="middle" x="822" y="-220" font-family="Helvetica,sans-Serif" font-size="10.00"> elements</text>
</g>
<!-- Node9 -->
<g id="node8" class="node"><title>Node9</title>
<polygon fill="white" stroke="#bfbfbf" points="875,-153 875,-183 993,-183 993,-153 875,-153"/>
<text text-anchor="start" x="883" y="-171" font-family="Helvetica,sans-Serif" font-size="10.00">std::stack&lt; FitFunction</text>
<text text-anchor="middle" x="934" y="-160" font-family="Helvetica,sans-Serif" font-size="10.00">::SavedState_t &gt;</text>
</g>
<!-- Node9&#45;&gt;Node4 -->
<g id="edge8" class="edge"><title>Node9&#45;&gt;Node4</title>
<path fill="none" stroke="#9a32cd" stroke-dasharray="5,2" d="M1003.51,-162.914C1039.49,-160.243 1082.74,-157.032 1115.27,-154.617"/>
<polygon fill="#9a32cd" stroke="#9a32cd" points="1002.8,-159.457 993.082,-163.688 1003.31,-166.438 1002.8,-159.457"/>
<text text-anchor="middle" x="1055" y="-165" font-family="Helvetica,sans-Serif" font-size="10.00"> UndoStack</text>
</g>
<!-- Node10 -->
<g id="node9" class="node"><title>Node10</title>
<g id="a_node9"><a xlink:title="STL class. ">
<polygon fill="white" stroke="#bfbfbf" points="678.5,-158.5 678.5,-177.5 765.5,-177.5 765.5,-158.5 678.5,-158.5"/>
<text text-anchor="middle" x="722" y="-165.5" font-family="Helvetica,sans-Serif" font-size="10.00">std::vector&lt; T &gt;</text>
</a>
</g>
</g>
<!-- Node10&#45;&gt;Node9 -->
<g id="edge9" class="edge"><title>Node10&#45;&gt;Node9</title>
<path fill="none" stroke="#9a32cd" stroke-dasharray="5,2" d="M776.056,-168C806.158,-168 843.874,-168 874.788,-168"/>
<polygon fill="#9a32cd" stroke="#9a32cd" points="775.75,-164.5 765.75,-168 775.75,-171.5 775.75,-164.5"/>
<text text-anchor="middle" x="822" y="-171" font-family="Helvetica,sans-Serif" font-size="10.00"> elements</text>
</g>
<!-- Node11 -->
<g id="node10" class="node"><title>Node11</title>
<polygon fill="white" stroke="#bfbfbf" points="503.5,-158.5 503.5,-177.5 532.5,-177.5 532.5,-158.5 503.5,-158.5"/>
<text text-anchor="middle" x="518" y="-165.5" font-family="Helvetica,sans-Serif" font-size="10.00">T</text>
</g>
<!-- Node11&#45;&gt;Node10 -->
<g id="edge10" class="edge"><title>Node11&#45;&gt;Node10</title>
<path fill="none" stroke="#9a32cd" stroke-dasharray="5,2" d="M542.72,-168C576.005,-168 637.114,-168 678.396,-168"/>
<polygon fill="#9a32cd" stroke="#9a32cd" points="542.567,-164.5 532.567,-168 542.567,-171.5 542.567,-164.5"/>
<text text-anchor="middle" x="622" y="-171" font-family="Helvetica,sans-Serif" font-size="10.00"> elements</text>
</g>
<!-- Node12 -->
<g id="node11" class="node"><title>Node12</title>
<g id="a_node11"><a xlink:href="structant_1_1calibration_1_1gui_1_1_cal_canvas_1_1axis__settings__t.html" target="_top" xlink:title="ant::calibration::gui\l::CalCanvas::axis_settings_t">
<polygon fill="white" stroke="black" points="862.5,-104 862.5,-134 1005.5,-134 1005.5,-104 862.5,-104"/>
<text text-anchor="start" x="870.5" y="-122" font-family="Helvetica,sans-Serif" font-size="10.00">ant::calibration::gui</text>
<text text-anchor="middle" x="934" y="-111" font-family="Helvetica,sans-Serif" font-size="10.00">::CalCanvas::axis_settings_t</text>
</a>
</g>
</g>
<!-- Node12&#45;&gt;Node4 -->
<g id="edge11" class="edge"><title>Node12&#45;&gt;Node4</title>
<path fill="none" stroke="#9a32cd" stroke-dasharray="5,2" d="M1015.75,-130.285C1049.03,-134.934 1086.48,-140.167 1115.41,-144.211"/>
<polygon fill="#9a32cd" stroke="#9a32cd" points="1015.96,-126.78 1005.58,-128.862 1015,-133.713 1015.96,-126.78"/>
<text text-anchor="middle" x="1055" y="-143" font-family="Helvetica,sans-Serif" font-size="10.00"> axis_settings</text>
</g>
<!-- Node13 -->
<g id="node12" class="node"><title>Node13</title>
<g id="a_node12"><a xlink:href="classant_1_1calibration_1_1gui_1_1_fit_function.html" target="_top" xlink:title="ant::calibration::gui\l::FitFunction">
<polygon fill="white" stroke="black" points="884.5,-55 884.5,-85 983.5,-85 983.5,-55 884.5,-55"/>
<text text-anchor="start" x="892.5" y="-73" font-family="Helvetica,sans-Serif" font-size="10.00">ant::calibration::gui</text>
<text text-anchor="middle" x="934" y="-62" font-family="Helvetica,sans-Serif" font-size="10.00">::FitFunction</text>
</a>
</g>
</g>
<!-- Node13&#45;&gt;Node4 -->
<g id="edge12" class="edge"><title>Node13&#45;&gt;Node4</title>
<path fill="none" stroke="#9a32cd" stroke-dasharray="5,2" d="M993.376,-87.1777C1021.57,-95.8235 1055.76,-106.825 1086,-118 1100.62,-123.403 1116.51,-129.989 1130.1,-135.853"/>
<polygon fill="#9a32cd" stroke="#9a32cd" points="994.256,-83.787 983.67,-84.2214 992.216,-90.4833 994.256,-83.787"/>
<text text-anchor="middle" x="1055" y="-121" font-family="Helvetica,sans-Serif" font-size="10.00"> func</text>
</g>
<!-- Node14 -->
<g id="node13" class="node"><title>Node14</title>
<polygon fill="white" stroke="#bfbfbf" points="662,-16 662,-46 782,-46 782,-16 662,-16"/>
<text text-anchor="start" x="670" y="-34" font-family="Helvetica,sans-Serif" font-size="10.00">std::list&lt; std::unique</text>
<text text-anchor="middle" x="722" y="-23" font-family="Helvetica,sans-Serif" font-size="10.00">_ptr&lt; IndicatorKnob &gt; &gt;</text>
</g>
<!-- Node14&#45;&gt;Node13 -->
<g id="edge13" class="edge"><title>Node14&#45;&gt;Node13</title>
<path fill="none" stroke="#9a32cd" stroke-dasharray="5,2" d="M792.007,-42.6362C809.021,-45.5988 827.184,-48.8409 844,-52 857.014,-54.4449 871.07,-57.2233 884.083,-59.8532"/>
<polygon fill="#9a32cd" stroke="#9a32cd" points="792.592,-39.1855 782.141,-40.9268 791.397,-46.0827 792.592,-39.1855"/>
<text text-anchor="middle" x="822" y="-55" font-family="Helvetica,sans-Serif" font-size="10.00"> knobs</text>
</g>
<!-- Node15 -->
<g id="node14" class="node"><title>Node15</title>
<polygon fill="white" stroke="#bfbfbf" points="454,-10 454,-40 582,-40 582,-10 454,-10"/>
<text text-anchor="start" x="462" y="-28" font-family="Helvetica,sans-Serif" font-size="10.00">std::unique_ptr&lt; Indicator</text>
<text text-anchor="middle" x="518" y="-17" font-family="Helvetica,sans-Serif" font-size="10.00">Knob &gt;</text>
</g>
<!-- Node15&#45;&gt;Node14 -->
<g id="edge14" class="edge"><title>Node15&#45;&gt;Node14</title>
<path fill="none" stroke="#9a32cd" stroke-dasharray="5,2" d="M592.102,-27.1714C615.017,-27.852 640.01,-28.5944 661.837,-29.2427"/>
<polygon fill="#9a32cd" stroke="#9a32cd" points="592.183,-23.6723 582.083,-26.8738 591.975,-30.6692 592.183,-23.6723"/>
<text text-anchor="middle" x="622" y="-32" font-family="Helvetica,sans-Serif" font-size="10.00"> elements</text>
</g>
<!-- Node16 -->
<g id="node15" class="node"><title>Node16</title>
<g id="a_node15"><a xlink:href="classant_1_1calibration_1_1gui_1_1_indicator_knob.html" target="_top" xlink:title="ant::calibration::gui\l::IndicatorKnob">
<polygon fill="white" stroke="black" points="302.5,-10 302.5,-40 401.5,-40 401.5,-10 302.5,-10"/>
<text text-anchor="start" x="310.5" y="-28" font-family="Helvetica,sans-Serif" font-size="10.00">ant::calibration::gui</text>
<text text-anchor="middle" x="352" y="-17" font-family="Helvetica,sans-Serif" font-size="10.00">::IndicatorKnob</text>
</a>
</g>
</g>
<!-- Node16&#45;&gt;Node15 -->
<g id="edge15" class="edge"><title>Node16&#45;&gt;Node15</title>
<path fill="none" stroke="#9a32cd" stroke-dasharray="5,2" d="M411.95,-25C425.544,-25 440.058,-25 453.823,-25"/>
<polygon fill="#9a32cd" stroke="#9a32cd" points="411.761,-21.5001 401.761,-25 411.761,-28.5001 411.761,-21.5001"/>
<text text-anchor="middle" x="428" y="-28" font-family="Helvetica,sans-Serif" font-size="10.00"> ptr</text>
</g>
<!-- Node17 -->
<g id="node16" class="node"><title>Node17</title>
<g id="a_node16"><a xlink:title="STL class. ">
<polygon fill="white" stroke="#bfbfbf" points="156,-59.5 156,-78.5 216,-78.5 216,-59.5 156,-59.5"/>
<text text-anchor="middle" x="186" y="-66.5" font-family="Helvetica,sans-Serif" font-size="10.00">std::string</text>
</a>
</g>
</g>
<!-- Node17&#45;&gt;Node13 -->
<g id="edge19" class="edge"><title>Node17&#45;&gt;Node13</title>
<path fill="none" stroke="#9a32cd" stroke-dasharray="5,2" d="M226.215,-71.9885C259.423,-74.2611 308.301,-77 351,-77 351,-77 351,-77 723,-77 778.265,-77 841.666,-74.5484 884.218,-72.547"/>
<polygon fill="#9a32cd" stroke="#9a32cd" points="226.232,-68.4812 216.011,-71.2711 225.741,-75.4639 226.232,-68.4812"/>
<text text-anchor="middle" x="518" y="-80" font-family="Helvetica,sans-Serif" font-size="10.00"> AdditionalFitArgs</text>
</g>
<!-- Node17&#45;&gt;Node16 -->
<g id="edge16" class="edge"><title>Node17&#45;&gt;Node16</title>
<path fill="none" stroke="#9a32cd" stroke-dasharray="5,2" d="M226.027,-58.5293C248.892,-52.3948 277.97,-44.5933 302.323,-38.0596"/>
<polygon fill="#9a32cd" stroke="#9a32cd" points="225.071,-55.1619 216.32,-61.1337 226.885,-61.9228 225.071,-55.1619"/>
<text text-anchor="middle" x="270" y="-53" font-family="Helvetica,sans-Serif" font-size="10.00"> name</text>
</g>
<!-- Node18 -->
<g id="node17" class="node"><title>Node18</title>
<g id="a_node17"><a xlink:title="STL class. ">
<polygon fill="white" stroke="#bfbfbf" points="0.5,-54 0.5,-84 95.5,-84 95.5,-54 0.5,-54"/>
<text text-anchor="start" x="8.5" y="-72" font-family="Helvetica,sans-Serif" font-size="10.00">std::basic_string&lt;</text>
<text text-anchor="middle" x="48" y="-61" font-family="Helvetica,sans-Serif" font-size="10.00"> char &gt;</text>
</a>
</g>
</g>
<!-- Node18&#45;&gt;Node17 -->
<g id="edge17" class="edge"><title>Node18&#45;&gt;Node17</title>
<path fill="none" stroke="midnightblue" d="M105.82,-69C123.086,-69 141.34,-69 155.965,-69"/>
<polygon fill="midnightblue" stroke="midnightblue" points="105.804,-65.5001 95.8035,-69 105.803,-72.5001 105.804,-65.5001"/>
</g>
<!-- Node19 -->
<g id="node18" class="node"><title>Node19</title>
<g id="a_node18"><a xlink:href="structant_1_1calibration_1_1gui_1_1_indicator_properties.html" target="_top" xlink:title="ant::calibration::gui\l::IndicatorProperties">
<polygon fill="white" stroke="black" points="134,-2 134,-32 238,-32 238,-2 134,-2"/>
<text text-anchor="start" x="142" y="-20" font-family="Helvetica,sans-Serif" font-size="10.00">ant::calibration::gui</text>
<text text-anchor="middle" x="186" y="-9" font-family="Helvetica,sans-Serif" font-size="10.00">::IndicatorProperties</text>
</a>
</g>
</g>
<!-- Node19&#45;&gt;Node16 -->
<g id="edge18" class="edge"><title>Node19&#45;&gt;Node16</title>
<path fill="none" stroke="#9a32cd" stroke-dasharray="5,2" d="M248.373,-16.7625C260.202,-16.9628 272.491,-17.3409 284,-18 289.955,-18.341 296.196,-18.824 302.373,-19.3788"/>
<polygon fill="#9a32cd" stroke="#9a32cd" points="248.171,-13.2597 238.127,-16.6297 248.081,-20.2591 248.171,-13.2597"/>
<text text-anchor="middle" x="270" y="-21" font-family="Helvetica,sans-Serif" font-size="10.00"> gui</text>
</g>
<!-- Node20 -->
<g id="node19" class="node"><title>Node20</title>
<polygon fill="white" stroke="#bfbfbf" points="1104,-0 1104,-30 1226,-30 1226,-0 1104,-0"/>
<text text-anchor="start" x="1112" y="-18" font-family="Helvetica,sans-Serif" font-size="10.00">std::map&lt; unsigned,</text>
<text text-anchor="middle" x="1165" y="-7" font-family="Helvetica,sans-Serif" font-size="10.00"> std::vector&lt; double &gt; &gt;</text>
</g>
<!-- Node20&#45;&gt;Node2 -->
<g id="edge20" class="edge"><title>Node20&#45;&gt;Node2</title>
<path fill="none" stroke="#9a32cd" stroke-dasharray="5,2" d="M1236.05,-23.4513C1256.03,-27.4666 1277.4,-33.3617 1296,-42 1318.8,-52.5882 1340.95,-71.4264 1354.98,-84.7571"/>
<polygon fill="#9a32cd" stroke="#9a32cd" points="1236.55,-19.9825 1226.07,-21.5729 1235.25,-26.8618 1236.55,-19.9825"/>
<text text-anchor="middle" x="1270" y="-45" font-family="Helvetica,sans-Serif" font-size="10.00"> fitParams</text>
</g>
<!-- Node21 -->
<g id="node20" class="node"><title>Node21</title>
<polygon fill="white" stroke="#bfbfbf" points="879,-11.5 879,-30.5 989,-30.5 989,-11.5 879,-11.5"/>
<text text-anchor="middle" x="934" y="-18.5" font-family="Helvetica,sans-Serif" font-size="10.00">std::vector&lt; double &gt;</text>
</g>
<!-- Node21&#45;&gt;Node2 -->
<g id="edge22" class="edge"><title>Node21&#45;&gt;Node2</title>
<path fill="none" stroke="#9a32cd" stroke-dasharray="5,2" d="M997.493,-32.3494C1082.42,-47.7725 1232.98,-75.1157 1314.25,-89.8759"/>
<polygon fill="#9a32cd" stroke="#9a32cd" points="997.936,-28.8725 987.471,-30.5292 996.685,-35.7599 997.936,-28.8725"/>
<text text-anchor="middle" x="1165" y="-88" font-family="Helvetica,sans-Serif" font-size="10.00"> offsets</text>
<text text-anchor="middle" x="1165" y="-77" font-family="Helvetica,sans-Serif" font-size="10.00">previousOffsets</text>
</g>
<!-- Node21&#45;&gt;Node20 -->
<g id="edge21" class="edge"><title>Node21&#45;&gt;Node20</title>
<path fill="none" stroke="#9a32cd" stroke-dasharray="5,2" d="M999.617,-19.307C1032.27,-18.4515 1071.65,-17.4198 1103.67,-16.5806"/>
<polygon fill="#9a32cd" stroke="#9a32cd" points="999.175,-15.8173 989.27,-19.5781 999.358,-22.8149 999.175,-15.8173"/>
<text text-anchor="middle" x="1055" y="-22" font-family="Helvetica,sans-Serif" font-size="10.00"> elements</text>
</g>
</g>
</svg>
