<?xml version="1.0" encoding="UTF-8" standalone="no"?>
<!DOCTYPE svg PUBLIC "-//W3C//DTD SVG 1.1//EN"
 "http://www.w3.org/Graphics/SVG/1.1/DTD/svg11.dtd">
<!-- Generated by graphviz version 2.36.0 (20140111.2315)
 -->
<!-- Title: ant::analysis::utils::ParticleID Pages: 1 -->
<svg width="272pt" height="136pt"
 viewBox="0.00 0.00 272.00 136.00" xmlns="http://www.w3.org/2000/svg" xmlns:xlink="http://www.w3.org/1999/xlink">
<g id="graph0" class="graph" transform="scale(1 1) rotate(0) translate(4 132)">
<title>ant::analysis::utils::ParticleID</title>
<polygon fill="white" stroke="none" points="-4,4 -4,-132 268,-132 268,4 -4,4"/>
<!-- Node0 -->
<g id="node1" class="node"><title>Node0</title>
<polygon fill="#bfbfbf" stroke="black" points="0,-49 0,-79 96,-79 96,-49 0,-49"/>
<text text-anchor="start" x="8" y="-67" font-family="Helvetica,sans-Serif" font-size="10.00">ant::analysis::utils</text>
<text text-anchor="middle" x="48" y="-56" font-family="Helvetica,sans-Serif" font-size="10.00">::ParticleID</text>
</g>
<!-- Node1 -->
<g id="node2" class="node"><title>Node1</title>
<g id="a_node2"><a xlink:href="classant_1_1analysis_1_1utils_1_1_basic_particle_i_d.html" target="_top" xlink:title="ant::analysis::utils\l::BasicParticleID">
<polygon fill="white" stroke="black" points="150,-98 150,-128 246,-128 246,-98 150,-98"/>
<text text-anchor="start" x="158" y="-116" font-family="Helvetica,sans-Serif" font-size="10.00">ant::analysis::utils</text>
<text text-anchor="middle" x="198" y="-105" font-family="Helvetica,sans-Serif" font-size="10.00">::BasicParticleID</text>
</a>
</g>
</g>
<!-- Node0&#45;&gt;Node1 -->
<g id="edge1" class="edge"><title>Node0&#45;&gt;Node1</title>
<path fill="none" stroke="midnightblue" d="M104.15,-82.2591C119.76,-87.4273 136.569,-92.9924 151.538,-97.9484"/>
<polygon fill="midnightblue" stroke="midnightblue" points="105.206,-78.9219 94.6125,-79.1014 103.006,-85.5672 105.206,-78.9219"/>
</g>
<!-- Node2 -->
<g id="node3" class="node"><title>Node2</title>
<g id="a_node3"><a xlink:href="classant_1_1analysis_1_1utils_1_1_c_b_t_a_p_s_basic_particle_i_d.html" target="_top" xlink:title="ant::analysis::utils\l::CBTAPSBasicParticleID">
<polygon fill="white" stroke="black" points="132.5,-49 132.5,-79 263.5,-79 263.5,-49 132.5,-49"/>
<text text-anchor="start" x="140.5" y="-67" font-family="Helvetica,sans-Serif" font-size="10.00">ant::analysis::utils</text>
<text text-anchor="middle" x="198" y="-56" font-family="Helvetica,sans-Serif" font-size="10.00">::CBTAPSBasicParticleID</text>
</a>
</g>
</g>
<!-- Node0&#45;&gt;Node2 -->
<g id="edge2" class="edge"><title>Node0&#45;&gt;Node2</title>
<path fill="none" stroke="midnightblue" d="M106.43,-64C114.939,-64 123.757,-64 132.401,-64"/>
<polygon fill="midnightblue" stroke="midnightblue" points="106.235,-60.5001 96.235,-64 106.235,-67.5001 106.235,-60.5001"/>
</g>
<!-- Node3 -->
<g id="node4" class="node"><title>Node3</title>
<g id="a_node4"><a xlink:href="classant_1_1analysis_1_1utils_1_1_simple_particle_i_d.html" target="_top" xlink:title="ant::analysis::utils\l::SimpleParticleID">
<polygon fill="white" stroke="black" points="150,-0 150,-30 246,-30 246,-0 150,-0"/>
<text text-anchor="start" x="158" y="-18" font-family="Helvetica,sans-Serif" font-size="10.00">ant::analysis::utils</text>
<text text-anchor="middle" x="198" y="-7" font-family="Helvetica,sans-Serif" font-size="10.00">::SimpleParticleID</text>
</a>
</g>
</g>
<!-- Node0&#45;&gt;Node3 -->
<g id="edge3" class="edge"><title>Node0&#45;&gt;Node3</title>
<path fill="none" stroke="midnightblue" d="M104.15,-45.7409C119.76,-40.5727 136.569,-35.0076 151.538,-30.0516"/>
<polygon fill="midnightblue" stroke="midnightblue" points="103.006,-42.4328 94.6125,-48.8986 105.206,-49.0781 103.006,-42.4328"/>
</g>
</g>
</svg>
