<?xml version="1.0" encoding="UTF-8" standalone="no"?>
<!DOCTYPE svg PUBLIC "-//W3C//DTD SVG 1.1//EN"
 "http://www.w3.org/Graphics/SVG/1.1/DTD/svg11.dtd">
<!-- Generated by graphviz version 2.36.0 (20140111.2315)
 -->
<!-- Title: ant::analysis::physics::scratch_sobotzik_Pi0Calib Pages: 1 -->
<svg width="908pt" height="315pt"
 viewBox="0.00 0.00 908.00 315.00" xmlns="http://www.w3.org/2000/svg" xmlns:xlink="http://www.w3.org/1999/xlink">
<g id="graph0" class="graph" transform="scale(1 1) rotate(0) translate(4 311)">
<title>ant::analysis::physics::scratch_sobotzik_Pi0Calib</title>
<polygon fill="white" stroke="none" points="-4,4 -4,-311 904,-311 904,4 -4,4"/>
<!-- Node2 -->
<g id="node1" class="node"><title>Node2</title>
<polygon fill="#bfbfbf" stroke="black" points="760.5,-146 760.5,-176 899.5,-176 899.5,-146 760.5,-146"/>
<text text-anchor="start" x="768.5" y="-164" font-family="Helvetica,sans-Serif" font-size="10.00">ant::analysis::physics</text>
<text text-anchor="middle" x="830" y="-153" font-family="Helvetica,sans-Serif" font-size="10.00">::scratch_sobotzik_Pi0Calib</text>
</g>
<!-- Node3 -->
<g id="node2" class="node"><title>Node3</title>
<g id="a_node2"><a xlink:href="classant_1_1analysis_1_1_physics.html" target="_top" xlink:title="ant::analysis::Physics">
<polygon fill="white" stroke="black" points="498.5,-282.5 498.5,-301.5 611.5,-301.5 611.5,-282.5 498.5,-282.5"/>
<text text-anchor="middle" x="555" y="-289.5" font-family="Helvetica,sans-Serif" font-size="10.00">ant::analysis::Physics</text>
</a>
</g>
</g>
<!-- Node3&#45;&gt;Node2 -->
<g id="edge1" class="edge"><title>Node3&#45;&gt;Node2</title>
<path fill="none" stroke="midnightblue" d="M622.117,-286.874C659.24,-281.748 705.326,-271.497 742,-251 775.577,-232.234 804.313,-196.394 818.851,-176.061"/>
<polygon fill="midnightblue" stroke="midnightblue" points="621.371,-283.441 611.9,-288.188 622.264,-290.383 621.371,-283.441"/>
</g>
<!-- Node4 -->
<g id="node3" class="node"><title>Node4</title>
<g id="a_node3"><a xlink:href="classant_1_1analysis_1_1_histogram_factory.html" target="_top" xlink:title="ant::analysis::Histogram\lFactory">
<polygon fill="white" stroke="black" points="278.5,-277 278.5,-307 401.5,-307 401.5,-277 278.5,-277"/>
<text text-anchor="start" x="286.5" y="-295" font-family="Helvetica,sans-Serif" font-size="10.00">ant::analysis::Histogram</text>
<text text-anchor="middle" x="340" y="-284" font-family="Helvetica,sans-Serif" font-size="10.00">Factory</text>
</a>
</g>
</g>
<!-- Node4&#45;&gt;Node3 -->
<g id="edge2" class="edge"><title>Node4&#45;&gt;Node3</title>
<path fill="none" stroke="#9a32cd" stroke-dasharray="5,2" d="M411.921,-292C440.027,-292 471.867,-292 498.272,-292"/>
<polygon fill="#9a32cd" stroke="#9a32cd" points="411.752,-288.5 401.752,-292 411.752,-295.5 411.752,-288.5"/>
<text text-anchor="middle" x="442" y="-295" font-family="Helvetica,sans-Serif" font-size="10.00"> HistFac</text>
</g>
<!-- Node5 -->
<g id="node4" class="node"><title>Node5</title>
<g id="a_node4"><a xlink:href="classant_1_1interval.html" target="_top" xlink:title="ant::interval\&lt; double \&gt;">
<polygon fill="white" stroke="black" points="498,-244.5 498,-263.5 612,-263.5 612,-244.5 498,-244.5"/>
<text text-anchor="middle" x="555" y="-251.5" font-family="Helvetica,sans-Serif" font-size="10.00">ant::interval&lt; double &gt;</text>
</a>
</g>
</g>
<!-- Node5&#45;&gt;Node2 -->
<g id="edge3" class="edge"><title>Node5&#45;&gt;Node2</title>
<path fill="none" stroke="#9a32cd" stroke-dasharray="5,2" d="M619.633,-242.427C656.14,-234.765 702.437,-223.294 742,-208 764.257,-199.396 787.994,-186.279 805.041,-176.087"/>
<polygon fill="#9a32cd" stroke="#9a32cd" points="618.7,-239.045 609.61,-244.487 620.109,-245.902 618.7,-239.045"/>
<text text-anchor="middle" x="694" y="-239" font-family="Helvetica,sans-Serif" font-size="10.00"> CaloEnergy_Window</text>
</g>
<!-- Node6 -->
<g id="node5" class="node"><title>Node6</title>
<g id="a_node5"><a xlink:href="classant_1_1analysis_1_1utils_1_1_trigger_simulation.html" target="_top" xlink:title="ant::analysis::utils\l::TriggerSimulation">
<polygon fill="white" stroke="black" points="506,-195 506,-225 604,-225 604,-195 506,-195"/>
<text text-anchor="start" x="514" y="-213" font-family="Helvetica,sans-Serif" font-size="10.00">ant::analysis::utils</text>
<text text-anchor="middle" x="555" y="-202" font-family="Helvetica,sans-Serif" font-size="10.00">::TriggerSimulation</text>
</a>
</g>
</g>
<!-- Node6&#45;&gt;Node2 -->
<g id="edge4" class="edge"><title>Node6&#45;&gt;Node2</title>
<path fill="none" stroke="#9a32cd" stroke-dasharray="5,2" d="M614.153,-199.562C656.93,-191.884 715.229,-181.42 760.305,-173.33"/>
<polygon fill="#9a32cd" stroke="#9a32cd" points="613.403,-196.141 604.178,-201.353 614.64,-203.031 613.403,-196.141"/>
<text text-anchor="middle" x="694" y="-196" font-family="Helvetica,sans-Serif" font-size="10.00"> triggersimu</text>
</g>
<!-- Node7 -->
<g id="node6" class="node"><title>Node7</title>
<g id="a_node6"><a xlink:href="classant_1_1analysis_1_1_prompt_random_1_1_switch.html" target="_top" xlink:title="ant::analysis::PromptRandom\l::Switch">
<polygon fill="white" stroke="black" points="482,-146 482,-176 628,-176 628,-146 482,-146"/>
<text text-anchor="start" x="490" y="-164" font-family="Helvetica,sans-Serif" font-size="10.00">ant::analysis::PromptRandom</text>
<text text-anchor="middle" x="555" y="-153" font-family="Helvetica,sans-Serif" font-size="10.00">::Switch</text>
</a>
</g>
</g>
<!-- Node7&#45;&gt;Node2 -->
<g id="edge5" class="edge"><title>Node7&#45;&gt;Node2</title>
<path fill="none" stroke="#9a32cd" stroke-dasharray="5,2" d="M638.344,-161C677.285,-161 723.243,-161 760.279,-161"/>
<polygon fill="#9a32cd" stroke="#9a32cd" points="638.085,-157.5 628.085,-161 638.085,-164.5 638.085,-157.5"/>
<text text-anchor="middle" x="694" y="-164" font-family="Helvetica,sans-Serif" font-size="10.00"> promptrandom</text>
</g>
<!-- Node8 -->
<g id="node7" class="node"><title>Node8</title>
<g id="a_node7"><a xlink:href="classant_1_1_piecewise_interval.html" target="_top" xlink:title="ant::PiecewiseInterval\l\&lt; double \&gt;">
<polygon fill="white" stroke="black" points="283.5,-146 283.5,-176 396.5,-176 396.5,-146 283.5,-146"/>
<text text-anchor="start" x="291.5" y="-164" font-family="Helvetica,sans-Serif" font-size="10.00">ant::PiecewiseInterval</text>
<text text-anchor="middle" x="340" y="-153" font-family="Helvetica,sans-Serif" font-size="10.00">&lt; double &gt;</text>
</a>
</g>
</g>
<!-- Node8&#45;&gt;Node7 -->
<g id="edge6" class="edge"><title>Node8&#45;&gt;Node7</title>
<path fill="none" stroke="#9a32cd" stroke-dasharray="5,2" d="M406.987,-161C430.702,-161 457.566,-161 481.783,-161"/>
<polygon fill="#9a32cd" stroke="#9a32cd" points="406.685,-157.5 396.685,-161 406.685,-164.5 406.685,-157.5"/>
<text text-anchor="middle" x="442" y="-175" font-family="Helvetica,sans-Serif" font-size="10.00"> promptw</text>
<text text-anchor="middle" x="442" y="-164" font-family="Helvetica,sans-Serif" font-size="10.00">randomw</text>
</g>
<!-- Node9 -->
<g id="node8" class="node"><title>Node9</title>
<g id="a_node8"><a xlink:title="STL class. ">
<polygon fill="white" stroke="#bfbfbf" points="136,-146 136,-176 240,-176 240,-146 136,-146"/>
<text text-anchor="start" x="144" y="-164" font-family="Helvetica,sans-Serif" font-size="10.00">std::vector&lt; interval</text>
<text text-anchor="middle" x="188" y="-153" font-family="Helvetica,sans-Serif" font-size="10.00">&lt; double &gt; &gt;</text>
</a>
</g>
</g>
<!-- Node9&#45;&gt;Node8 -->
<g id="edge7" class="edge"><title>Node9&#45;&gt;Node8</title>
<path fill="none" stroke="midnightblue" d="M250.498,-161C261.396,-161 272.686,-161 283.409,-161"/>
<polygon fill="midnightblue" stroke="midnightblue" points="250.202,-157.5 240.202,-161 250.202,-164.5 250.202,-157.5"/>
</g>
<!-- Node10 -->
<g id="node9" class="node"><title>Node10</title>
<polygon fill="white" stroke="#bfbfbf" points="13.5,-151.5 13.5,-170.5 42.5,-170.5 42.5,-151.5 13.5,-151.5"/>
<text text-anchor="middle" x="28" y="-158.5" font-family="Helvetica,sans-Serif" font-size="10.00">T</text>
</g>
<!-- Node10&#45;&gt;Node9 -->
<g id="edge8" class="edge"><title>Node10&#45;&gt;Node9</title>
<path fill="none" stroke="#9a32cd" stroke-dasharray="5,2" d="M52.7939,-161C74.6894,-161 107.898,-161 135.803,-161"/>
<polygon fill="#9a32cd" stroke="#9a32cd" points="52.7451,-157.5 42.7451,-161 52.745,-164.5 52.7451,-157.5"/>
<text text-anchor="middle" x="96" y="-164" font-family="Helvetica,sans-Serif" font-size="10.00"> elements</text>
</g>
<!-- Node11 -->
<g id="node10" class="node"><title>Node11</title>
<polygon fill="white" stroke="#bfbfbf" points="486.5,-60.5 486.5,-79.5 623.5,-79.5 623.5,-60.5 486.5,-60.5"/>
<text text-anchor="middle" x="555" y="-67.5" font-family="Helvetica,sans-Serif" font-size="10.00">std::vector&lt; ant::TH2CB *&gt;</text>
</g>
<!-- Node11&#45;&gt;Node2 -->
<g id="edge9" class="edge"><title>Node11&#45;&gt;Node2</title>
<path fill="none" stroke="#9a32cd" stroke-dasharray="5,2" d="M633.918,-62.499C668.285,-62.0987 708.409,-65.7302 742,-80 775.05,-94.0398 803.365,-126.414 818.113,-145.714"/>
<polygon fill="#9a32cd" stroke="#9a32cd" points="633.837,-58.9998 623.92,-62.7291 633.998,-65.998 633.837,-58.9998"/>
<text text-anchor="middle" x="694" y="-94" font-family="Helvetica,sans-Serif" font-size="10.00"> h_cbs_ClusterSize0</text>
<text text-anchor="middle" x="694" y="-83" font-family="Helvetica,sans-Serif" font-size="10.00">h_cbs_ClusterSize3</text>
</g>
<!-- Node12 -->
<g id="node11" class="node"><title>Node12</title>
<g id="a_node11"><a xlink:href="classant_1_1_t_h2_c_b.html" target="_top" xlink:title="The TH2CB class. ">
<polygon fill="white" stroke="black" points="305.5,-88.5 305.5,-107.5 374.5,-107.5 374.5,-88.5 305.5,-88.5"/>
<text text-anchor="middle" x="340" y="-95.5" font-family="Helvetica,sans-Serif" font-size="10.00">ant::TH2CB</text>
</a>
</g>
</g>
<!-- Node12&#45;&gt;Node2 -->
<g id="edge13" class="edge"><title>Node12&#45;&gt;Node2</title>
<path fill="none" stroke="#9a32cd" stroke-dasharray="5,2" d="M384.677,-100.97C441.05,-105.064 542.105,-113.288 628,-125 672.259,-131.035 721.642,-139.85 760.384,-147.247"/>
<polygon fill="#9a32cd" stroke="#9a32cd" points="384.909,-97.4777 374.685,-100.254 384.409,-104.46 384.909,-97.4777"/>
<text text-anchor="middle" x="555" y="-128" font-family="Helvetica,sans-Serif" font-size="10.00"> h_cb</text>
</g>
<!-- Node12&#45;&gt;Node11 -->
<g id="edge10" class="edge"><title>Node12&#45;&gt;Node11</title>
<path fill="none" stroke="#9a32cd" stroke-dasharray="5,2" d="M384.679,-92.2582C413.985,-88.4057 453.168,-83.2549 486.46,-78.8785"/>
<polygon fill="#9a32cd" stroke="#9a32cd" points="384.209,-88.7897 374.75,-93.5633 385.121,-95.73 384.209,-88.7897"/>
<text text-anchor="middle" x="442" y="-91" font-family="Helvetica,sans-Serif" font-size="10.00"> elements</text>
</g>
<!-- Node13 -->
<g id="node12" class="node"><title>Node13</title>
<g id="a_node12"><a xlink:href="classant_1_1_t_h2_crystals.html" target="_top" xlink:title="Base class for A2 Calorimeter display classes. ">
<polygon fill="white" stroke="black" points="142,-88.5 142,-107.5 234,-107.5 234,-88.5 142,-88.5"/>
<text text-anchor="middle" x="188" y="-95.5" font-family="Helvetica,sans-Serif" font-size="10.00">ant::TH2Crystals</text>
</a>
</g>
</g>
<!-- Node13&#45;&gt;Node12 -->
<g id="edge11" class="edge"><title>Node13&#45;&gt;Node12</title>
<path fill="none" stroke="midnightblue" d="M244.206,-98C264.759,-98 287.448,-98 305.474,-98"/>
<polygon fill="midnightblue" stroke="midnightblue" points="244.005,-94.5001 234.005,-98 244.005,-101.5 244.005,-94.5001"/>
</g>
<!-- Node14 -->
<g id="node13" class="node"><title>Node14</title>
<polygon fill="white" stroke="#bfbfbf" points="0.5,-88.5 0.5,-107.5 55.5,-107.5 55.5,-88.5 0.5,-88.5"/>
<text text-anchor="middle" x="28" y="-95.5" font-family="Helvetica,sans-Serif" font-size="10.00">TH2Poly</text>
</g>
<!-- Node14&#45;&gt;Node13 -->
<g id="edge12" class="edge"><title>Node14&#45;&gt;Node13</title>
<path fill="none" stroke="midnightblue" d="M66.0241,-98C88.6613,-98 117.779,-98 141.775,-98"/>
<polygon fill="midnightblue" stroke="midnightblue" points="65.8026,-94.5001 55.8025,-98 65.8025,-101.5 65.8026,-94.5001"/>
</g>
<!-- Node15 -->
<g id="node14" class="node"><title>Node15</title>
<g id="a_node14"><a xlink:href="structant_1_1analysis_1_1physics_1_1scratch__sobotzik___pi0_calib_1_1_my_tree.html" target="_top" xlink:title="ant::analysis::physics\l::scratch_sobotzik_Pi0Calib\l::MyTree">
<polygon fill="white" stroke="black" points="485.5,-0.5 485.5,-41.5 624.5,-41.5 624.5,-0.5 485.5,-0.5"/>
<text text-anchor="start" x="493.5" y="-29.5" font-family="Helvetica,sans-Serif" font-size="10.00">ant::analysis::physics</text>
<text text-anchor="start" x="493.5" y="-18.5" font-family="Helvetica,sans-Serif" font-size="10.00">::scratch_sobotzik_Pi0Calib</text>
<text text-anchor="middle" x="555" y="-7.5" font-family="Helvetica,sans-Serif" font-size="10.00">::MyTree</text>
</a>
</g>
</g>
<!-- Node15&#45;&gt;Node2 -->
<g id="edge14" class="edge"><title>Node15&#45;&gt;Node2</title>
<path fill="none" stroke="#9a32cd" stroke-dasharray="5,2" d="M634.774,-19.3806C669.661,-21.8349 709.959,-29.2518 742,-48 781.961,-71.3824 809.963,-120.9 822.155,-145.894"/>
<polygon fill="#9a32cd" stroke="#9a32cd" points="634.799,-15.8763 624.614,-18.7927 634.395,-22.8646 634.799,-15.8763"/>
<text text-anchor="middle" x="694" y="-51" font-family="Helvetica,sans-Serif" font-size="10.00"> t</text>
</g>
<!-- Node16 -->
<g id="node15" class="node"><title>Node16</title>
<g id="a_node15"><a xlink:href="classant_1_1_wrap_t_tree.html" target="_top" xlink:title="The WrapTTree struct simplifies TTree handling in physics classes. ">
<polygon fill="white" stroke="black" points="297.5,-11.5 297.5,-30.5 382.5,-30.5 382.5,-11.5 297.5,-11.5"/>
<text text-anchor="middle" x="340" y="-18.5" font-family="Helvetica,sans-Serif" font-size="10.00">ant::WrapTTree</text>
</a>
</g>
</g>
<!-- Node16&#45;&gt;Node15 -->
<g id="edge15" class="edge"><title>Node16&#45;&gt;Node15</title>
<path fill="none" stroke="midnightblue" d="M392.871,-21C420.669,-21 455.276,-21 485.285,-21"/>
<polygon fill="midnightblue" stroke="midnightblue" points="392.574,-17.5001 382.574,-21 392.574,-24.5001 392.574,-17.5001"/>
</g>
</g>
</svg>
