<?xml version="1.0" encoding="UTF-8" standalone="no"?>
<!DOCTYPE svg PUBLIC "-//W3C//DTD SVG 1.1//EN"
 "http://www.w3.org/Graphics/SVG/1.1/DTD/svg11.dtd">
<!-- Generated by graphviz version 2.36.0 (20140111.2315)
 -->
<!-- Title: ant::analysis::physics::EventFilter Pages: 1 -->
<svg width="520pt" height="121pt"
 viewBox="0.00 0.00 520.00 121.00" xmlns="http://www.w3.org/2000/svg" xmlns:xlink="http://www.w3.org/1999/xlink">
<g id="graph0" class="graph" transform="scale(1 1) rotate(0) translate(4 117)">
<title>ant::analysis::physics::EventFilter</title>
<polygon fill="white" stroke="none" points="-4,4 -4,-117 516,-117 516,4 -4,4"/>
<!-- Node2 -->
<g id="node1" class="node"><title>Node2</title>
<polygon fill="#bfbfbf" stroke="black" points="400,-39 400,-69 512,-69 512,-39 400,-39"/>
<text text-anchor="start" x="408" y="-57" font-family="Helvetica,sans-Serif" font-size="10.00">ant::analysis::physics</text>
<text text-anchor="middle" x="456" y="-46" font-family="Helvetica,sans-Serif" font-size="10.00">::EventFilter</text>
</g>
<!-- Node3 -->
<g id="node2" class="node"><title>Node3</title>
<g id="a_node2"><a xlink:href="classant_1_1analysis_1_1_physics.html" target="_top" xlink:title="ant::analysis::Physics">
<polygon fill="white" stroke="black" points="198.5,-88.5 198.5,-107.5 311.5,-107.5 311.5,-88.5 198.5,-88.5"/>
<text text-anchor="middle" x="255" y="-95.5" font-family="Helvetica,sans-Serif" font-size="10.00">ant::analysis::Physics</text>
</a>
</g>
</g>
<!-- Node3&#45;&gt;Node2 -->
<g id="edge1" class="edge"><title>Node3&#45;&gt;Node2</title>
<path fill="none" stroke="midnightblue" d="M309.188,-86.2399C337.187,-80.0492 371.483,-72.4661 399.778,-66.2099"/>
<polygon fill="midnightblue" stroke="midnightblue" points="308.189,-82.8762 299.18,-88.4527 309.7,-89.7111 308.189,-82.8762"/>
</g>
<!-- Node4 -->
<g id="node3" class="node"><title>Node4</title>
<g id="a_node3"><a xlink:href="classant_1_1analysis_1_1_histogram_factory.html" target="_top" xlink:title="ant::analysis::Histogram\lFactory">
<polygon fill="white" stroke="black" points="0.5,-83 0.5,-113 123.5,-113 123.5,-83 0.5,-83"/>
<text text-anchor="start" x="8.5" y="-101" font-family="Helvetica,sans-Serif" font-size="10.00">ant::analysis::Histogram</text>
<text text-anchor="middle" x="62" y="-90" font-family="Helvetica,sans-Serif" font-size="10.00">Factory</text>
</a>
</g>
</g>
<!-- Node4&#45;&gt;Node3 -->
<g id="edge2" class="edge"><title>Node4&#45;&gt;Node3</title>
<path fill="none" stroke="#9a32cd" stroke-dasharray="5,2" d="M133.968,-98C155.219,-98 178.207,-98 198.324,-98"/>
<polygon fill="#9a32cd" stroke="#9a32cd" points="133.696,-94.5001 123.696,-98 133.696,-101.5 133.696,-94.5001"/>
<text text-anchor="middle" x="161" y="-101" font-family="Helvetica,sans-Serif" font-size="10.00"> HistFac</text>
</g>
<!-- Node5 -->
<g id="node4" class="node"><title>Node5</title>
<g id="a_node4"><a xlink:href="classant_1_1analysis_1_1utils_1_1_trigger_simulation.html" target="_top" xlink:title="ant::analysis::utils\l::TriggerSimulation">
<polygon fill="white" stroke="black" points="206,-39 206,-69 304,-69 304,-39 206,-39"/>
<text text-anchor="start" x="214" y="-57" font-family="Helvetica,sans-Serif" font-size="10.00">ant::analysis::utils</text>
<text text-anchor="middle" x="255" y="-46" font-family="Helvetica,sans-Serif" font-size="10.00">::TriggerSimulation</text>
</a>
</g>
</g>
<!-- Node5&#45;&gt;Node2 -->
<g id="edge3" class="edge"><title>Node5&#45;&gt;Node2</title>
<path fill="none" stroke="#9a32cd" stroke-dasharray="5,2" d="M314.269,-54C341.298,-54 373.258,-54 399.885,-54"/>
<polygon fill="#9a32cd" stroke="#9a32cd" points="314.172,-50.5001 304.172,-54 314.172,-57.5001 314.172,-50.5001"/>
<text text-anchor="middle" x="356" y="-57" font-family="Helvetica,sans-Serif" font-size="10.00"> triggersimu</text>
</g>
<!-- Node6 -->
<g id="node5" class="node"><title>Node6</title>
<g id="a_node5"><a xlink:href="classant_1_1interval.html" target="_top" xlink:title="ant::interval\&lt; size_t \&gt;">
<polygon fill="white" stroke="black" points="199,-0.5 199,-19.5 311,-19.5 311,-0.5 199,-0.5"/>
<text text-anchor="middle" x="255" y="-7.5" font-family="Helvetica,sans-Serif" font-size="10.00">ant::interval&lt; size_t &gt;</text>
</a>
</g>
</g>
<!-- Node6&#45;&gt;Node2 -->
<g id="edge4" class="edge"><title>Node6&#45;&gt;Node2</title>
<path fill="none" stroke="#9a32cd" stroke-dasharray="5,2" d="M309.188,-21.7601C337.187,-27.9508 371.483,-35.5339 399.778,-41.7901"/>
<polygon fill="#9a32cd" stroke="#9a32cd" points="309.7,-18.2889 299.18,-19.5473 308.189,-25.1238 309.7,-18.2889"/>
<text text-anchor="middle" x="356" y="-41" font-family="Helvetica,sans-Serif" font-size="10.00"> nCands</text>
</g>
</g>
</svg>
