<?xml version="1.0" encoding="UTF-8" standalone="no"?>
<!DOCTYPE svg PUBLIC "-//W3C//DTD SVG 1.1//EN"
 "http://www.w3.org/Graphics/SVG/1.1/DTD/svg11.dtd">
<!-- Generated by graphviz version 2.36.0 (20140111.2315)
 -->
<!-- Title: ant::calibration::TAPSVeto_Energy Pages: 1 -->
<svg width="405pt" height="288pt"
 viewBox="0.00 0.00 405.00 288.00" xmlns="http://www.w3.org/2000/svg" xmlns:xlink="http://www.w3.org/1999/xlink">
<g id="graph0" class="graph" transform="scale(1 1) rotate(0) translate(4 284)">
<title>ant::calibration::TAPSVeto_Energy</title>
<polygon fill="white" stroke="none" points="-4,4 -4,-284 401,-284 401,4 -4,4"/>
<!-- Node0 -->
<g id="node1" class="node"><title>Node0</title>
<polygon fill="#bfbfbf" stroke="black" points="206.5,-1 206.5,-31 339.5,-31 339.5,-1 206.5,-1"/>
<text text-anchor="start" x="214.5" y="-19" font-family="Helvetica,sans-Serif" font-size="10.00">ant::calibration::TAPSVeto</text>
<text text-anchor="middle" x="273" y="-8" font-family="Helvetica,sans-Serif" font-size="10.00">_Energy</text>
</g>
<!-- Node1 -->
<g id="node2" class="node"><title>Node1</title>
<g id="a_node2"><a xlink:href="classant_1_1calibration_1_1_energy.html" target="_top" xlink:title="ant::calibration::Energy">
<polygon fill="white" stroke="black" points="214.5,-68.5 214.5,-87.5 331.5,-87.5 331.5,-68.5 214.5,-68.5"/>
<text text-anchor="middle" x="273" y="-75.5" font-family="Helvetica,sans-Serif" font-size="10.00">ant::calibration::Energy</text>
</a>
</g>
</g>
<!-- Node1&#45;&gt;Node0 -->
<g id="edge1" class="edge"><title>Node1&#45;&gt;Node0</title>
<path fill="none" stroke="midnightblue" d="M273,-58.3707C273,-49.5849 273,-39.2721 273,-31.1408"/>
<polygon fill="midnightblue" stroke="midnightblue" points="269.5,-58.4034 273,-68.4035 276.5,-58.4035 269.5,-58.4034"/>
</g>
<!-- Node2 -->
<g id="node3" class="node"><title>Node2</title>
<g id="a_node3"><a xlink:href="classant_1_1_calibration_1_1_module.html" target="_top" xlink:title="The Module class is typically used for calibrations. ">
<polygon fill="white" stroke="black" points="146,-130.5 146,-149.5 266,-149.5 266,-130.5 146,-130.5"/>
<text text-anchor="middle" x="206" y="-137.5" font-family="Helvetica,sans-Serif" font-size="10.00">ant::Calibration::Module</text>
</a>
</g>
</g>
<!-- Node2&#45;&gt;Node1 -->
<g id="edge2" class="edge"><title>Node2&#45;&gt;Node1</title>
<path fill="none" stroke="midnightblue" d="M223.285,-123.521C236.059,-112.082 252.978,-96.9305 263.418,-87.5806"/>
<polygon fill="midnightblue" stroke="midnightblue" points="220.714,-121.125 215.599,-130.403 225.384,-126.34 220.714,-121.125"/>
</g>
<!-- Node3 -->
<g id="node4" class="node"><title>Node3</title>
<g id="a_node4"><a xlink:href="classant_1_1_calibration_1_1_physics_module.html" target="_top" xlink:title="The PhysicsModule class gives the modules the ability to create histograms from events as well as fit...">
<polygon fill="white" stroke="black" points="9,-193 9,-223 133,-223 133,-193 9,-193"/>
<text text-anchor="start" x="17" y="-211" font-family="Helvetica,sans-Serif" font-size="10.00">ant::Calibration::Physics</text>
<text text-anchor="middle" x="71" y="-200" font-family="Helvetica,sans-Serif" font-size="10.00">Module</text>
</a>
</g>
</g>
<!-- Node3&#45;&gt;Node2 -->
<g id="edge3" class="edge"><title>Node3&#45;&gt;Node2</title>
<path fill="none" stroke="midnightblue" d="M109.157,-188.346C135.101,-175.662 168.227,-159.467 188.242,-149.682"/>
<polygon fill="midnightblue" stroke="midnightblue" points="107.407,-185.305 99.9609,-192.841 110.482,-191.594 107.407,-185.305"/>
</g>
<!-- Node4 -->
<g id="node5" class="node"><title>Node4</title>
<g id="a_node5"><a xlink:href="classant_1_1_calibration_1_1_base_module.html" target="_top" xlink:title="The BaseModule class provides a name for identification. ">
<polygon fill="white" stroke="black" points="-0.5,-260.5 -0.5,-279.5 142.5,-279.5 142.5,-260.5 -0.5,-260.5"/>
<text text-anchor="middle" x="71" y="-267.5" font-family="Helvetica,sans-Serif" font-size="10.00">ant::Calibration::BaseModule</text>
</a>
</g>
</g>
<!-- Node4&#45;&gt;Node3 -->
<g id="edge4" class="edge"><title>Node4&#45;&gt;Node3</title>
<path fill="none" stroke="midnightblue" d="M71,-250.371C71,-241.585 71,-231.272 71,-223.141"/>
<polygon fill="midnightblue" stroke="midnightblue" points="67.5001,-250.403 71,-260.403 74.5001,-250.403 67.5001,-250.403"/>
</g>
<!-- Node5 -->
<g id="node6" class="node"><title>Node5</title>
<g id="a_node6"><a xlink:href="structant_1_1_updateable__traits.html" target="_top" xlink:title="The Updateable_traits class used by the UpdateableManager. ">
<polygon fill="white" stroke="black" points="151.5,-198.5 151.5,-217.5 264.5,-217.5 264.5,-198.5 151.5,-198.5"/>
<text text-anchor="middle" x="208" y="-205.5" font-family="Helvetica,sans-Serif" font-size="10.00">ant::Updateable_traits</text>
</a>
</g>
</g>
<!-- Node5&#45;&gt;Node2 -->
<g id="edge5" class="edge"><title>Node5&#45;&gt;Node2</title>
<path fill="none" stroke="midnightblue" d="M207.425,-188.041C207.045,-175.472 206.563,-159.563 206.268,-149.841"/>
<polygon fill="midnightblue" stroke="midnightblue" points="203.937,-188.482 207.739,-198.372 210.934,-188.27 203.937,-188.482"/>
</g>
<!-- Node6 -->
<g id="node7" class="node"><title>Node6</title>
<g id="a_node7"><a xlink:href="structant_1_1_reconstruct_hook_1_1_detector_read_hits.html" target="_top" xlink:title="The DetectorReadHits struct instances are applied before hit matching. ">
<polygon fill="white" stroke="black" points="284.5,-125 284.5,-155 397.5,-155 397.5,-125 284.5,-125"/>
<text text-anchor="start" x="292.5" y="-143" font-family="Helvetica,sans-Serif" font-size="10.00">ant::ReconstructHook</text>
<text text-anchor="middle" x="341" y="-132" font-family="Helvetica,sans-Serif" font-size="10.00">::DetectorReadHits</text>
</a>
</g>
</g>
<!-- Node6&#45;&gt;Node1 -->
<g id="edge6" class="edge"><title>Node6&#45;&gt;Node1</title>
<path fill="none" stroke="midnightblue" d="M317.111,-117.922C305.36,-107.553 291.837,-95.6209 282.895,-87.7305"/>
<polygon fill="midnightblue" stroke="midnightblue" points="315.071,-120.789 324.885,-124.781 319.702,-115.54 315.071,-120.789"/>
</g>
<!-- Node7 -->
<g id="node8" class="node"><title>Node7</title>
<g id="a_node8"><a xlink:href="structant_1_1_reconstruct_hook_1_1_base.html" target="_top" xlink:title="The Base struct just defines some useful types. ">
<polygon fill="white" stroke="black" points="284.5,-193 284.5,-223 397.5,-223 397.5,-193 284.5,-193"/>
<text text-anchor="start" x="292.5" y="-211" font-family="Helvetica,sans-Serif" font-size="10.00">ant::ReconstructHook</text>
<text text-anchor="middle" x="341" y="-200" font-family="Helvetica,sans-Serif" font-size="10.00">::Base</text>
</a>
</g>
</g>
<!-- Node7&#45;&gt;Node6 -->
<g id="edge7" class="edge"><title>Node7&#45;&gt;Node6</title>
<path fill="none" stroke="midnightblue" d="M341,-182.532C341,-173.361 341,-163.245 341,-155.293"/>
<polygon fill="midnightblue" stroke="midnightblue" points="337.5,-182.679 341,-192.679 344.5,-182.679 337.5,-182.679"/>
</g>
</g>
</svg>
