<?xml version="1.0" encoding="UTF-8" standalone="no"?>
<!DOCTYPE svg PUBLIC "-//W3C//DTD SVG 1.1//EN"
 "http://www.w3.org/Graphics/SVG/1.1/DTD/svg11.dtd">
<!-- Generated by graphviz version 2.36.0 (20140111.2315)
 -->
<!-- Title: ant::calibration::gui::CBPeakFunction Pages: 1 -->
<svg width="114pt" height="244pt"
 viewBox="0.00 0.00 114.00 244.00" xmlns="http://www.w3.org/2000/svg" xmlns:xlink="http://www.w3.org/1999/xlink">
<g id="graph0" class="graph" transform="scale(1 1) rotate(0) translate(4 240)">
<title>ant::calibration::gui::CBPeakFunction</title>
<polygon fill="white" stroke="none" points="-4,4 -4,-240 110,-240 110,4 -4,4"/>
<!-- Node0 -->
<g id="node1" class="node"><title>Node0</title>
<polygon fill="#bfbfbf" stroke="black" points="3.5,-1 3.5,-31 102.5,-31 102.5,-1 3.5,-1"/>
<text text-anchor="start" x="11.5" y="-19" font-family="Helvetica,sans-Serif" font-size="10.00">ant::calibration::gui</text>
<text text-anchor="middle" x="53" y="-8" font-family="Helvetica,sans-Serif" font-size="10.00">::CBPeakFunction</text>
</g>
<!-- Node1 -->
<g id="node2" class="node"><title>Node1</title>
<g id="a_node2"><a xlink:href="classant_1_1calibration_1_1gui_1_1_fit_gaus.html" target="_top" xlink:title="ant::calibration::gui\l::FitGaus">
<polygon fill="white" stroke="black" points="3.5,-69 3.5,-99 102.5,-99 102.5,-69 3.5,-69"/>
<text text-anchor="start" x="11.5" y="-87" font-family="Helvetica,sans-Serif" font-size="10.00">ant::calibration::gui</text>
<text text-anchor="middle" x="53" y="-76" font-family="Helvetica,sans-Serif" font-size="10.00">::FitGaus</text>
</a>
</g>
</g>
<!-- Node1&#45;&gt;Node0 -->
<g id="edge1" class="edge"><title>Node1&#45;&gt;Node0</title>
<path fill="none" stroke="midnightblue" d="M53,-58.5322C53,-49.3606 53,-39.2449 53,-31.2931"/>
<polygon fill="midnightblue" stroke="midnightblue" points="49.5001,-58.6789 53,-68.679 56.5001,-58.679 49.5001,-58.6789"/>
</g>
<!-- Node2 -->
<g id="node3" class="node"><title>Node2</title>
<g id="a_node3"><a xlink:href="classant_1_1calibration_1_1gui_1_1_peaking_fit_function.html" target="_top" xlink:title="Fit functions describing peak shapes, like Gaus or Lorentz with optional background function...">
<polygon fill="white" stroke="black" points="-0.5,-137 -0.5,-167 106.5,-167 106.5,-137 -0.5,-137"/>
<text text-anchor="start" x="7.5" y="-155" font-family="Helvetica,sans-Serif" font-size="10.00">ant::calibration::gui</text>
<text text-anchor="middle" x="53" y="-144" font-family="Helvetica,sans-Serif" font-size="10.00">::PeakingFitFunction</text>
</a>
</g>
</g>
<!-- Node2&#45;&gt;Node1 -->
<g id="edge2" class="edge"><title>Node2&#45;&gt;Node1</title>
<path fill="none" stroke="midnightblue" d="M53,-126.532C53,-117.361 53,-107.245 53,-99.2931"/>
<polygon fill="midnightblue" stroke="midnightblue" points="49.5001,-126.679 53,-136.679 56.5001,-126.679 49.5001,-126.679"/>
</g>
<!-- Node3 -->
<g id="node4" class="node"><title>Node3</title>
<g id="a_node4"><a xlink:href="classant_1_1calibration_1_1gui_1_1_fit_function.html" target="_top" xlink:title="ant::calibration::gui\l::FitFunction">
<polygon fill="white" stroke="black" points="3.5,-205 3.5,-235 102.5,-235 102.5,-205 3.5,-205"/>
<text text-anchor="start" x="11.5" y="-223" font-family="Helvetica,sans-Serif" font-size="10.00">ant::calibration::gui</text>
<text text-anchor="middle" x="53" y="-212" font-family="Helvetica,sans-Serif" font-size="10.00">::FitFunction</text>
</a>
</g>
</g>
<!-- Node3&#45;&gt;Node2 -->
<g id="edge3" class="edge"><title>Node3&#45;&gt;Node2</title>
<path fill="none" stroke="midnightblue" d="M53,-194.532C53,-185.361 53,-175.245 53,-167.293"/>
<polygon fill="midnightblue" stroke="midnightblue" points="49.5001,-194.679 53,-204.679 56.5001,-194.679 49.5001,-194.679"/>
</g>
</g>
</svg>
