<?xml version="1.0" encoding="UTF-8" standalone="no"?>
<!DOCTYPE svg PUBLIC "-//W3C//DTD SVG 1.1//EN"
 "http://www.w3.org/Graphics/SVG/1.1/DTD/svg11.dtd">
<!-- Generated by graphviz version 2.36.0 (20140111.2315)
 -->
<!-- Title: ant::analysis::physics::PID_TAPSVeto_Kinfit Pages: 1 -->
<svg width="2214pt" height="482pt"
 viewBox="0.00 0.00 2214.00 482.00" xmlns="http://www.w3.org/2000/svg" xmlns:xlink="http://www.w3.org/1999/xlink">
<g id="graph0" class="graph" transform="scale(1 1) rotate(0) translate(4 478)">
<title>ant::analysis::physics::PID_TAPSVeto_Kinfit</title>
<polygon fill="white" stroke="none" points="-4,4 -4,-478 2210,-478 2210,4 -4,4"/>
<!-- Node2 -->
<g id="node1" class="node"><title>Node2</title>
<polygon fill="#bfbfbf" stroke="black" points="2086.5,-168 2086.5,-198 2205.5,-198 2205.5,-168 2086.5,-168"/>
<text text-anchor="start" x="2094.5" y="-186" font-family="Helvetica,sans-Serif" font-size="10.00">ant::analysis::physics</text>
<text text-anchor="middle" x="2146" y="-175" font-family="Helvetica,sans-Serif" font-size="10.00">::PID_TAPSVeto_Kinfit</text>
</g>
<!-- Node3 -->
<g id="node2" class="node"><title>Node3</title>
<g id="a_node2"><a xlink:href="classant_1_1analysis_1_1_physics.html" target="_top" xlink:title="ant::analysis::Physics">
<polygon fill="white" stroke="black" points="1454.5,-303.5 1454.5,-322.5 1567.5,-322.5 1567.5,-303.5 1454.5,-303.5"/>
<text text-anchor="middle" x="1511" y="-310.5" font-family="Helvetica,sans-Serif" font-size="10.00">ant::analysis::Physics</text>
</a>
</g>
</g>
<!-- Node3&#45;&gt;Node2 -->
<g id="edge1" class="edge"><title>Node3&#45;&gt;Node2</title>
<path fill="none" stroke="midnightblue" d="M1570.16,-301.429C1663.15,-282.88 1851.02,-245.196 2010,-212 2034.99,-206.782 2062.55,-200.886 2086.22,-195.78"/>
<polygon fill="midnightblue" stroke="midnightblue" points="1569.23,-298.046 1560.11,-303.434 1570.6,-304.91 1569.23,-298.046"/>
</g>
<!-- Node4 -->
<g id="node3" class="node"><title>Node4</title>
<g id="a_node3"><a xlink:href="classant_1_1analysis_1_1_histogram_factory.html" target="_top" xlink:title="ant::analysis::Histogram\lFactory">
<polygon fill="white" stroke="black" points="1079.5,-327 1079.5,-357 1202.5,-357 1202.5,-327 1079.5,-327"/>
<text text-anchor="start" x="1087.5" y="-345" font-family="Helvetica,sans-Serif" font-size="10.00">ant::analysis::Histogram</text>
<text text-anchor="middle" x="1141" y="-334" font-family="Helvetica,sans-Serif" font-size="10.00">Factory</text>
</a>
</g>
</g>
<!-- Node4&#45;&gt;Node3 -->
<g id="edge2" class="edge"><title>Node4&#45;&gt;Node3</title>
<path fill="none" stroke="#9a32cd" stroke-dasharray="5,2" d="M1212.88,-336.414C1283.26,-330.868 1389.72,-322.479 1454.27,-317.392"/>
<polygon fill="#9a32cd" stroke="#9a32cd" points="1212.46,-332.936 1202.77,-337.211 1213.01,-339.915 1212.46,-332.936"/>
<text text-anchor="middle" x="1265" y="-337" font-family="Helvetica,sans-Serif" font-size="10.00"> HistFac</text>
</g>
<!-- Node7 -->
<g id="node6" class="node"><title>Node7</title>
<g id="a_node6"><a xlink:href="structant_1_1analysis_1_1physics_1_1_p_i_d___t_a_p_s_veto___kinfit_1_1_multi_pi0.html" target="_top" xlink:title="ant::analysis::physics\l::PID_TAPSVeto_Kinfit\l::MultiPi0">
<polygon fill="white" stroke="black" points="1316.5,-162.5 1316.5,-203.5 1435.5,-203.5 1435.5,-162.5 1316.5,-162.5"/>
<text text-anchor="start" x="1324.5" y="-191.5" font-family="Helvetica,sans-Serif" font-size="10.00">ant::analysis::physics</text>
<text text-anchor="start" x="1324.5" y="-180.5" font-family="Helvetica,sans-Serif" font-size="10.00">::PID_TAPSVeto_Kinfit</text>
<text text-anchor="middle" x="1376" y="-169.5" font-family="Helvetica,sans-Serif" font-size="10.00">::MultiPi0</text>
</a>
</g>
</g>
<!-- Node4&#45;&gt;Node7 -->
<g id="edge31" class="edge"><title>Node4&#45;&gt;Node7</title>
<path fill="none" stroke="#9a32cd" stroke-dasharray="5,2" d="M1198.13,-323.305C1203.53,-321.269 1208.89,-319.152 1214,-317 1222.24,-313.526 1223.78,-311.534 1232,-308 1260.67,-295.667 1272.85,-302.492 1298,-284 1327.49,-262.315 1351.11,-226.285 1364.07,-203.632"/>
<polygon fill="#9a32cd" stroke="#9a32cd" points="1196.61,-320.137 1188.43,-326.872 1199.02,-326.708 1196.61,-320.137"/>
<text text-anchor="middle" x="1265" y="-311" font-family="Helvetica,sans-Serif" font-size="10.00"> HistFac</text>
</g>
<!-- Node5 -->
<g id="node4" class="node"><title>Node5</title>
<polygon fill="white" stroke="#bfbfbf" points="1830.5,-162.5 1830.5,-203.5 2009.5,-203.5 2009.5,-162.5 1830.5,-162.5"/>
<text text-anchor="start" x="1838.5" y="-191.5" font-family="Helvetica,sans-Serif" font-size="10.00">std::vector&lt; std::unique</text>
<text text-anchor="start" x="1838.5" y="-180.5" font-family="Helvetica,sans-Serif" font-size="10.00">_ptr&lt; ant::analysis::physics</text>
<text text-anchor="middle" x="1920" y="-169.5" font-family="Helvetica,sans-Serif" font-size="10.00">::PID_TAPSVeto_Kinfit::MultiPi0 &gt; &gt;</text>
</g>
<!-- Node5&#45;&gt;Node2 -->
<g id="edge3" class="edge"><title>Node5&#45;&gt;Node2</title>
<path fill="none" stroke="#9a32cd" stroke-dasharray="5,2" d="M2019.58,-183C2042.37,-183 2065.9,-183 2086.34,-183"/>
<polygon fill="#9a32cd" stroke="#9a32cd" points="2019.53,-179.5 2009.53,-183 2019.53,-186.5 2019.53,-179.5"/>
<text text-anchor="middle" x="2048" y="-186" font-family="Helvetica,sans-Serif" font-size="10.00"> multiPi0</text>
</g>
<!-- Node6 -->
<g id="node5" class="node"><title>Node6</title>
<polygon fill="white" stroke="#bfbfbf" points="1586,-162.5 1586,-203.5 1750,-203.5 1750,-162.5 1586,-162.5"/>
<text text-anchor="start" x="1594" y="-191.5" font-family="Helvetica,sans-Serif" font-size="10.00">std::unique_ptr&lt; ant</text>
<text text-anchor="start" x="1594" y="-180.5" font-family="Helvetica,sans-Serif" font-size="10.00">::analysis::physics::</text>
<text text-anchor="middle" x="1668" y="-169.5" font-family="Helvetica,sans-Serif" font-size="10.00">PID_TAPSVeto_Kinfit::MultiPi0 &gt;</text>
</g>
<!-- Node6&#45;&gt;Node5 -->
<g id="edge4" class="edge"><title>Node6&#45;&gt;Node5</title>
<path fill="none" stroke="#9a32cd" stroke-dasharray="5,2" d="M1760.22,-183C1783.14,-183 1807.69,-183 1830.47,-183"/>
<polygon fill="#9a32cd" stroke="#9a32cd" points="1760.17,-179.5 1750.17,-183 1760.17,-186.5 1760.17,-179.5"/>
<text text-anchor="middle" x="1790" y="-186" font-family="Helvetica,sans-Serif" font-size="10.00"> elements</text>
</g>
<!-- Node7&#45;&gt;Node6 -->
<g id="edge5" class="edge"><title>Node7&#45;&gt;Node6</title>
<path fill="none" stroke="#9a32cd" stroke-dasharray="5,2" d="M1445.82,-183C1487.84,-183 1541.78,-183 1585.88,-183"/>
<polygon fill="#9a32cd" stroke="#9a32cd" points="1445.69,-179.5 1435.69,-183 1445.69,-186.5 1445.69,-179.5"/>
<text text-anchor="middle" x="1511" y="-186" font-family="Helvetica,sans-Serif" font-size="10.00"> ptr</text>
</g>
<!-- Node8 -->
<g id="node7" class="node"><title>Node8</title>
<polygon fill="white" stroke="#bfbfbf" points="1068,-108.5 1068,-149.5 1214,-149.5 1214,-108.5 1068,-108.5"/>
<text text-anchor="start" x="1076" y="-137.5" font-family="Helvetica,sans-Serif" font-size="10.00">std::vector&lt; std::pair</text>
<text text-anchor="start" x="1076" y="-126.5" font-family="Helvetica,sans-Serif" font-size="10.00">&lt; utils::TreeFitter::tree</text>
<text text-anchor="middle" x="1141" y="-115.5" font-family="Helvetica,sans-Serif" font-size="10.00">_t, utils::TreeFitter::tree_t &gt; &gt;</text>
</g>
<!-- Node8&#45;&gt;Node7 -->
<g id="edge6" class="edge"><title>Node8&#45;&gt;Node7</title>
<path fill="none" stroke="#9a32cd" stroke-dasharray="5,2" d="M1223.91,-147.982C1254.44,-155.059 1288.46,-162.943 1316.48,-169.436"/>
<polygon fill="#9a32cd" stroke="#9a32cd" points="1224.66,-144.564 1214.13,-145.716 1223.08,-151.384 1224.66,-144.564"/>
<text text-anchor="middle" x="1265" y="-167" font-family="Helvetica,sans-Serif" font-size="10.00"> pions</text>
</g>
<!-- Node9 -->
<g id="node8" class="node"><title>Node9</title>
<g id="a_node8"><a xlink:href="classant_1_1analysis_1_1utils_1_1_tree_fitter.html" target="_top" xlink:title="ant::analysis::utils\l::TreeFitter">
<polygon fill="white" stroke="black" points="1093,-278 1093,-308 1189,-308 1189,-278 1093,-278"/>
<text text-anchor="start" x="1101" y="-296" font-family="Helvetica,sans-Serif" font-size="10.00">ant::analysis::utils</text>
<text text-anchor="middle" x="1141" y="-285" font-family="Helvetica,sans-Serif" font-size="10.00">::TreeFitter</text>
</a>
</g>
</g>
<!-- Node9&#45;&gt;Node7 -->
<g id="edge7" class="edge"><title>Node9&#45;&gt;Node7</title>
<path fill="none" stroke="#9a32cd" stroke-dasharray="5,2" d="M1199.11,-279.63C1236.2,-270.426 1280.75,-258.239 1298,-249 1320.04,-237.195 1341.32,-218.179 1355.9,-203.584"/>
<polygon fill="#9a32cd" stroke="#9a32cd" points="1198.24,-276.238 1189.37,-282.022 1199.91,-283.036 1198.24,-276.238"/>
<text text-anchor="middle" x="1265" y="-274" font-family="Helvetica,sans-Serif" font-size="10.00"> treefitter</text>
</g>
<!-- Node10 -->
<g id="node9" class="node"><title>Node10</title>
<g id="a_node9"><a xlink:href="classant_1_1analysis_1_1utils_1_1_kin_fitter.html" target="_top" xlink:title="ant::analysis::utils\l::KinFitter">
<polygon fill="white" stroke="black" points="827,-220 827,-250 923,-250 923,-220 827,-220"/>
<text text-anchor="start" x="835" y="-238" font-family="Helvetica,sans-Serif" font-size="10.00">ant::analysis::utils</text>
<text text-anchor="middle" x="875" y="-227" font-family="Helvetica,sans-Serif" font-size="10.00">::KinFitter</text>
</a>
</g>
</g>
<!-- Node10&#45;&gt;Node7 -->
<g id="edge25" class="edge"><title>Node10&#45;&gt;Node7</title>
<path fill="none" stroke="#9a32cd" stroke-dasharray="5,2" d="M933.095,-232.249C1014.46,-227.818 1168.28,-217.547 1298,-198 1303.93,-197.107 1310.09,-196.078 1316.23,-194.986"/>
<polygon fill="#9a32cd" stroke="#9a32cd" points="932.859,-228.756 923.06,-232.786 933.233,-235.746 932.859,-228.756"/>
<text text-anchor="middle" x="1141" y="-227" font-family="Helvetica,sans-Serif" font-size="10.00"> fitter</text>
</g>
<!-- Node10&#45;&gt;Node9 -->
<g id="edge8" class="edge"><title>Node10&#45;&gt;Node9</title>
<path fill="none" stroke="midnightblue" d="M933.068,-247.538C980.783,-258.021 1048.03,-272.795 1092.77,-282.623"/>
<polygon fill="midnightblue" stroke="midnightblue" points="933.716,-244.097 923.198,-245.369 932.214,-250.934 933.716,-244.097"/>
</g>
<!-- Node11 -->
<g id="node10" class="node"><title>Node11</title>
<g id="a_node10"><a xlink:href="classant_1_1analysis_1_1utils_1_1_fitter.html" target="_top" xlink:title="ant::analysis::utils\l::Fitter">
<polygon fill="white" stroke="black" points="605,-220 605,-250 701,-250 701,-220 605,-220"/>
<text text-anchor="start" x="613" y="-238" font-family="Helvetica,sans-Serif" font-size="10.00">ant::analysis::utils</text>
<text text-anchor="middle" x="653" y="-227" font-family="Helvetica,sans-Serif" font-size="10.00">::Fitter</text>
</a>
</g>
</g>
<!-- Node11&#45;&gt;Node10 -->
<g id="edge9" class="edge"><title>Node11&#45;&gt;Node10</title>
<path fill="none" stroke="midnightblue" d="M711.527,-235C747.447,-235 793.116,-235 826.883,-235"/>
<polygon fill="midnightblue" stroke="midnightblue" points="711.196,-231.5 701.196,-235 711.195,-238.5 711.196,-231.5"/>
</g>
<!-- Node12 -->
<g id="node11" class="node"><title>Node12</title>
<g id="a_node11"><a xlink:href="structant_1_1analysis_1_1utils_1_1_kin_fitter_1_1_target__t.html" target="_top" xlink:title="ant::analysis::utils\l::KinFitter::Target_t">
<polygon fill="white" stroke="black" points="602.5,-171 602.5,-201 703.5,-201 703.5,-171 602.5,-171"/>
<text text-anchor="start" x="610.5" y="-189" font-family="Helvetica,sans-Serif" font-size="10.00">ant::analysis::utils</text>
<text text-anchor="middle" x="653" y="-178" font-family="Helvetica,sans-Serif" font-size="10.00">::KinFitter::Target_t</text>
</a>
</g>
</g>
<!-- Node12&#45;&gt;Node10 -->
<g id="edge10" class="edge"><title>Node12&#45;&gt;Node10</title>
<path fill="none" stroke="#9a32cd" stroke-dasharray="5,2" d="M713.428,-199.236C749.016,-207.163 793.631,-217.1 826.796,-224.486"/>
<polygon fill="#9a32cd" stroke="#9a32cd" points="714.168,-195.815 703.647,-197.058 712.647,-202.648 714.168,-195.815"/>
<text text-anchor="middle" x="756" y="-217" font-family="Helvetica,sans-Serif" font-size="10.00"> Target</text>
</g>
<!-- Node13 -->
<g id="node12" class="node"><title>Node13</title>
<g id="a_node12"><a xlink:href="structant_1_1analysis_1_1utils_1_1_kin_fitter_1_1_beam_e__t.html" target="_top" xlink:title="ant::analysis::utils\l::KinFitter::BeamE_t">
<polygon fill="white" stroke="black" points="600,-269 600,-299 706,-299 706,-269 600,-269"/>
<text text-anchor="start" x="608" y="-287" font-family="Helvetica,sans-Serif" font-size="10.00">ant::analysis::utils</text>
<text text-anchor="middle" x="653" y="-276" font-family="Helvetica,sans-Serif" font-size="10.00">::KinFitter::BeamE_t</text>
</a>
</g>
</g>
<!-- Node13&#45;&gt;Node10 -->
<g id="edge11" class="edge"><title>Node13&#45;&gt;Node10</title>
<path fill="none" stroke="#9a32cd" stroke-dasharray="5,2" d="M716.271,-270.13C751.348,-262.318 794.457,-252.716 826.737,-245.527"/>
<polygon fill="#9a32cd" stroke="#9a32cd" points="715.137,-266.797 706.137,-272.388 716.659,-273.63 715.137,-266.797"/>
<text text-anchor="middle" x="756" y="-269" font-family="Helvetica,sans-Serif" font-size="10.00"> BeamE</text>
</g>
<!-- Node14 -->
<g id="node13" class="node"><title>Node14</title>
<polygon fill="white" stroke="#bfbfbf" points="417,-274.5 417,-293.5 473,-293.5 473,-274.5 417,-274.5"/>
<text text-anchor="middle" x="445" y="-281.5" font-family="Helvetica,sans-Serif" font-size="10.00">V_S_P_t</text>
</g>
<!-- Node14&#45;&gt;Node13 -->
<g id="edge12" class="edge"><title>Node14&#45;&gt;Node13</title>
<path fill="none" stroke="midnightblue" d="M483.377,-284C515.972,-284 563.592,-284 599.92,-284"/>
<polygon fill="midnightblue" stroke="midnightblue" points="483.355,-280.5 473.355,-284 483.355,-287.5 483.355,-280.5"/>
</g>
<!-- Node15 -->
<g id="node14" class="node"><title>Node15</title>
<polygon fill="white" stroke="#bfbfbf" points="590.5,-132.5 590.5,-151.5 715.5,-151.5 715.5,-132.5 590.5,-132.5"/>
<text text-anchor="middle" x="653" y="-139.5" font-family="Helvetica,sans-Serif" font-size="10.00">std::vector&lt; FitParticle &gt;</text>
</g>
<!-- Node15&#45;&gt;Node10 -->
<g id="edge13" class="edge"><title>Node15&#45;&gt;Node10</title>
<path fill="none" stroke="#9a32cd" stroke-dasharray="5,2" d="M697.697,-154.547C703.889,-156.569 710.139,-158.744 716,-161 762.219,-178.79 813.849,-204.041 845.125,-219.966"/>
<polygon fill="#9a32cd" stroke="#9a32cd" points="698.669,-151.184 688.08,-151.506 696.559,-157.858 698.669,-151.184"/>
<text text-anchor="middle" x="756" y="-191" font-family="Helvetica,sans-Serif" font-size="10.00"> Photons</text>
</g>
<!-- Node16 -->
<g id="node15" class="node"><title>Node16</title>
<polygon fill="white" stroke="#bfbfbf" points="822,-454.5 822,-473.5 928,-473.5 928,-454.5 822,-454.5"/>
<text text-anchor="middle" x="875" y="-461.5" font-family="Helvetica,sans-Serif" font-size="10.00">std::vector&lt; tree_t &gt;</text>
</g>
<!-- Node16&#45;&gt;Node9 -->
<g id="edge14" class="edge"><title>Node16&#45;&gt;Node9</title>
<path fill="none" stroke="#9a32cd" stroke-dasharray="5,2" d="M938.729,-465.092C976.203,-462.254 1021.84,-452.062 1050,-422 1082.07,-387.762 1037.64,-353.757 1068,-318 1074.51,-310.334 1083.5,-305.017 1092.92,-301.329"/>
<polygon fill="#9a32cd" stroke="#9a32cd" points="938.171,-461.619 928.397,-465.708 938.588,-468.607 938.171,-461.619"/>
<text text-anchor="middle" x="1011" y="-463" font-family="Helvetica,sans-Serif" font-size="10.00"> tree_leaves</text>
</g>
<!-- Node17 -->
<g id="node16" class="node"><title>Node17</title>
<polygon fill="white" stroke="#bfbfbf" points="802,-356 802,-386 948,-386 948,-356 802,-356"/>
<text text-anchor="start" x="810" y="-374" font-family="Helvetica,sans-Serif" font-size="10.00">std::list&lt; ant::analysis</text>
<text text-anchor="middle" x="875" y="-363" font-family="Helvetica,sans-Serif" font-size="10.00">::utils::TreeFitter::iteration_t &gt;</text>
</g>
<!-- Node17&#45;&gt;Node9 -->
<g id="edge15" class="edge"><title>Node17&#45;&gt;Node9</title>
<path fill="none" stroke="#9a32cd" stroke-dasharray="5,2" d="M958.039,-357.94C987.756,-351.595 1021.1,-342.551 1050,-330 1058.82,-326.17 1059.39,-322.278 1068,-318 1075.82,-314.114 1084.4,-310.571 1092.81,-307.451"/>
<polygon fill="#9a32cd" stroke="#9a32cd" points="957.197,-354.54 948.111,-359.99 958.612,-361.396 957.197,-354.54"/>
<text text-anchor="middle" x="1011" y="-356" font-family="Helvetica,sans-Serif" font-size="10.00"> iterations</text>
</g>
<!-- Node18 -->
<g id="node17" class="node"><title>Node18</title>
<g id="a_node17"><a xlink:href="structant_1_1analysis_1_1utils_1_1_tree_fitter_1_1iteration__t.html" target="_top" xlink:title="ant::analysis::utils\l::TreeFitter::iteration_t">
<polygon fill="white" stroke="black" points="596.5,-357 596.5,-387 709.5,-387 709.5,-357 596.5,-357"/>
<text text-anchor="start" x="604.5" y="-375" font-family="Helvetica,sans-Serif" font-size="10.00">ant::analysis::utils</text>
<text text-anchor="middle" x="653" y="-364" font-family="Helvetica,sans-Serif" font-size="10.00">::TreeFitter::iteration_t</text>
</a>
</g>
</g>
<!-- Node18&#45;&gt;Node17 -->
<g id="edge16" class="edge"><title>Node18&#45;&gt;Node17</title>
<path fill="none" stroke="#9a32cd" stroke-dasharray="5,2" d="M719.603,-371.702C745.501,-371.584 775.345,-371.448 801.85,-371.328"/>
<polygon fill="#9a32cd" stroke="#9a32cd" points="719.499,-368.202 709.515,-371.748 719.531,-375.202 719.499,-368.202"/>
<text text-anchor="middle" x="756" y="-374" font-family="Helvetica,sans-Serif" font-size="10.00"> elements</text>
</g>
<!-- Node19 -->
<g id="node18" class="node"><title>Node19</title>
<polygon fill="white" stroke="#bfbfbf" points="380.5,-351.5 380.5,-392.5 509.5,-392.5 509.5,-351.5 380.5,-351.5"/>
<text text-anchor="start" x="388.5" y="-380.5" font-family="Helvetica,sans-Serif" font-size="10.00">std::vector&lt; ant::analysis</text>
<text text-anchor="start" x="388.5" y="-369.5" font-family="Helvetica,sans-Serif" font-size="10.00">::utils::TreeFitter::iteration</text>
<text text-anchor="middle" x="445" y="-358.5" font-family="Helvetica,sans-Serif" font-size="10.00">_t::photon_t &gt;</text>
</g>
<!-- Node19&#45;&gt;Node18 -->
<g id="edge17" class="edge"><title>Node19&#45;&gt;Node18</title>
<path fill="none" stroke="#9a32cd" stroke-dasharray="5,2" d="M519.991,-372C545.111,-372 572.737,-372 596.195,-372"/>
<polygon fill="#9a32cd" stroke="#9a32cd" points="519.769,-368.5 509.769,-372 519.769,-375.5 519.769,-368.5"/>
<text text-anchor="middle" x="550" y="-375" font-family="Helvetica,sans-Serif" font-size="10.00"> Photons</text>
</g>
<!-- Node20 -->
<g id="node19" class="node"><title>Node20</title>
<g id="a_node19"><a xlink:href="structant_1_1analysis_1_1utils_1_1_tree_fitter_1_1iteration__t_1_1photon__t.html" target="_top" xlink:title="ant::analysis::utils\l::TreeFitter::iteration\l_t::photon_t">
<polygon fill="white" stroke="black" points="194.5,-351.5 194.5,-392.5 299.5,-392.5 299.5,-351.5 194.5,-351.5"/>
<text text-anchor="start" x="202.5" y="-380.5" font-family="Helvetica,sans-Serif" font-size="10.00">ant::analysis::utils</text>
<text text-anchor="start" x="202.5" y="-369.5" font-family="Helvetica,sans-Serif" font-size="10.00">::TreeFitter::iteration</text>
<text text-anchor="middle" x="247" y="-358.5" font-family="Helvetica,sans-Serif" font-size="10.00">_t::photon_t</text>
</a>
</g>
</g>
<!-- Node20&#45;&gt;Node19 -->
<g id="edge18" class="edge"><title>Node20&#45;&gt;Node19</title>
<path fill="none" stroke="#9a32cd" stroke-dasharray="5,2" d="M309.853,-372C332.333,-372 357.764,-372 380.393,-372"/>
<polygon fill="#9a32cd" stroke="#9a32cd" points="309.753,-368.5 299.753,-372 309.753,-375.5 309.753,-368.5"/>
<text text-anchor="middle" x="340" y="-375" font-family="Helvetica,sans-Serif" font-size="10.00"> elements</text>
</g>
<!-- Node21 -->
<g id="node20" class="node"><title>Node21</title>
<g id="a_node20"><a xlink:href="structant_1_1std__ext_1_1cc__shared__ptr.html" target="_top" xlink:title="ant::std_ext::cc_shared\l_ptr\&lt; TParticle \&gt;">
<polygon fill="white" stroke="black" points="0.5,-357 0.5,-387 119.5,-387 119.5,-357 0.5,-357"/>
<text text-anchor="start" x="8.5" y="-375" font-family="Helvetica,sans-Serif" font-size="10.00">ant::std_ext::cc_shared</text>
<text text-anchor="middle" x="60" y="-364" font-family="Helvetica,sans-Serif" font-size="10.00">_ptr&lt; TParticle &gt;</text>
</a>
</g>
</g>
<!-- Node21&#45;&gt;Node20 -->
<g id="edge19" class="edge"><title>Node21&#45;&gt;Node20</title>
<path fill="none" stroke="#9a32cd" stroke-dasharray="5,2" d="M129.57,-372C151.026,-372 174.326,-372 194.406,-372"/>
<polygon fill="#9a32cd" stroke="#9a32cd" points="129.535,-368.5 119.535,-372 129.535,-375.5 129.535,-368.5"/>
<text text-anchor="middle" x="157" y="-375" font-family="Helvetica,sans-Serif" font-size="10.00"> Particle</text>
</g>
<!-- Node22 -->
<g id="node21" class="node"><title>Node22</title>
<polygon fill="white" stroke="#bfbfbf" points="812,-405 812,-435 938,-435 938,-405 812,-405"/>
<text text-anchor="start" x="820" y="-423" font-family="Helvetica,sans-Serif" font-size="10.00">std::vector&lt; std::function</text>
<text text-anchor="middle" x="875" y="-412" font-family="Helvetica,sans-Serif" font-size="10.00">&lt; void()&gt; &gt;</text>
</g>
<!-- Node22&#45;&gt;Node9 -->
<g id="edge20" class="edge"><title>Node22&#45;&gt;Node9</title>
<path fill="none" stroke="#9a32cd" stroke-dasharray="5,2" d="M948.151,-413.532C982.779,-406.988 1022.59,-393.937 1050,-368 1067.15,-351.766 1051.2,-334.606 1068,-318 1074.87,-311.209 1083.68,-306.258 1092.75,-302.65"/>
<polygon fill="#9a32cd" stroke="#9a32cd" points="947.318,-410.124 938.065,-415.286 948.517,-417.021 947.318,-410.124"/>
<text text-anchor="middle" x="1011" y="-410" font-family="Helvetica,sans-Serif" font-size="10.00"> sum_daughters</text>
</g>
<!-- Node23 -->
<g id="node22" class="node"><title>Node23</title>
<polygon fill="white" stroke="#bfbfbf" points="805,-317.5 805,-336.5 945,-336.5 945,-317.5 805,-317.5"/>
<text text-anchor="middle" x="875" y="-324.5" font-family="Helvetica,sans-Serif" font-size="10.00">std::vector&lt; permutation_t &gt;</text>
</g>
<!-- Node23&#45;&gt;Node9 -->
<g id="edge21" class="edge"><title>Node23&#45;&gt;Node9</title>
<path fill="none" stroke="#9a32cd" stroke-dasharray="5,2" d="M954.949,-317.133C984.743,-313.379 1018.94,-309.034 1050,-305 1063.91,-303.193 1079.03,-301.192 1092.83,-299.35"/>
<polygon fill="#9a32cd" stroke="#9a32cd" points="954.509,-313.661 945.024,-318.382 955.383,-320.606 954.509,-313.661"/>
<text text-anchor="middle" x="1011" y="-318" font-family="Helvetica,sans-Serif" font-size="10.00"> permutations</text>
</g>
<!-- Node24 -->
<g id="node23" class="node"><title>Node24</title>
<g id="a_node23"><a xlink:title="STL class. ">
<polygon fill="white" stroke="#bfbfbf" points="609.5,-318.5 609.5,-337.5 696.5,-337.5 696.5,-318.5 609.5,-318.5"/>
<text text-anchor="middle" x="653" y="-325.5" font-family="Helvetica,sans-Serif" font-size="10.00">std::vector&lt; T &gt;</text>
</a>
</g>
</g>
<!-- Node24&#45;&gt;Node23 -->
<g id="edge22" class="edge"><title>Node24&#45;&gt;Node23</title>
<path fill="none" stroke="#9a32cd" stroke-dasharray="5,2" d="M706.722,-327.76C736.063,-327.627 772.944,-327.459 804.605,-327.315"/>
<polygon fill="#9a32cd" stroke="#9a32cd" points="706.663,-324.26 696.679,-327.806 706.695,-331.26 706.663,-324.26"/>
<text text-anchor="middle" x="756" y="-331" font-family="Helvetica,sans-Serif" font-size="10.00"> elements</text>
</g>
<!-- Node25 -->
<g id="node24" class="node"><title>Node25</title>
<polygon fill="white" stroke="#bfbfbf" points="430.5,-313.5 430.5,-332.5 459.5,-332.5 459.5,-313.5 430.5,-313.5"/>
<text text-anchor="middle" x="445" y="-320.5" font-family="Helvetica,sans-Serif" font-size="10.00">T</text>
</g>
<!-- Node25&#45;&gt;Node24 -->
<g id="edge23" class="edge"><title>Node25&#45;&gt;Node24</title>
<path fill="none" stroke="#9a32cd" stroke-dasharray="5,2" d="M469.881,-323.58C503.935,-324.406 566.99,-325.937 609.223,-326.962"/>
<polygon fill="#9a32cd" stroke="#9a32cd" points="469.598,-320.072 459.516,-323.328 469.428,-327.07 469.598,-320.072"/>
<text text-anchor="middle" x="550" y="-329" font-family="Helvetica,sans-Serif" font-size="10.00"> elements</text>
</g>
<!-- Node29 -->
<g id="node28" class="node"><title>Node29</title>
<g id="a_node28"><a xlink:title="STL class. ">
<polygon fill="white" stroke="#bfbfbf" points="601,-83 601,-113 705,-113 705,-83 601,-83"/>
<text text-anchor="start" x="609" y="-101" font-family="Helvetica,sans-Serif" font-size="10.00">std::vector&lt; interval</text>
<text text-anchor="middle" x="653" y="-90" font-family="Helvetica,sans-Serif" font-size="10.00">&lt; double &gt; &gt;</text>
</a>
</g>
</g>
<!-- Node25&#45;&gt;Node29 -->
<g id="edge29" class="edge"><title>Node25&#45;&gt;Node29</title>
<path fill="none" stroke="#9a32cd" stroke-dasharray="5,2" d="M469.859,-320.395C483.038,-317.86 498.931,-312.861 510,-303 575.369,-244.767 527.024,-183.813 590,-123 594.007,-119.13 598.692,-115.833 603.658,-113.029"/>
<polygon fill="#9a32cd" stroke="#9a32cd" points="468.933,-316.997 459.593,-321.996 470.013,-323.913 468.933,-316.997"/>
<text text-anchor="middle" x="550" y="-285" font-family="Helvetica,sans-Serif" font-size="10.00"> elements</text>
</g>
<!-- Node26 -->
<g id="node25" class="node"><title>Node26</title>
<polygon fill="white" stroke="#bfbfbf" points="796,-279.5 796,-298.5 954,-298.5 954,-279.5 796,-279.5"/>
<text text-anchor="middle" x="875" y="-286.5" font-family="Helvetica,sans-Serif" font-size="10.00">std::vector&lt; node_constraint_t &gt;</text>
</g>
<!-- Node26&#45;&gt;Node9 -->
<g id="edge24" class="edge"><title>Node26&#45;&gt;Node9</title>
<path fill="none" stroke="#9a32cd" stroke-dasharray="5,2" d="M964.314,-290.338C1007.23,-290.988 1057.09,-291.744 1092.7,-292.283"/>
<polygon fill="#9a32cd" stroke="#9a32cd" points="964.189,-286.836 954.137,-290.184 964.083,-293.835 964.189,-286.836"/>
<text text-anchor="middle" x="1011" y="-295" font-family="Helvetica,sans-Serif" font-size="10.00"> node_constraints</text>
</g>
<!-- Node27 -->
<g id="node26" class="node"><title>Node27</title>
<g id="a_node26"><a xlink:href="classant_1_1analysis_1_1_prompt_random_1_1_switch.html" target="_top" xlink:title="ant::analysis::PromptRandom\l::Switch">
<polygon fill="white" stroke="black" points="1068,-168 1068,-198 1214,-198 1214,-168 1068,-168"/>
<text text-anchor="start" x="1076" y="-186" font-family="Helvetica,sans-Serif" font-size="10.00">ant::analysis::PromptRandom</text>
<text text-anchor="middle" x="1141" y="-175" font-family="Helvetica,sans-Serif" font-size="10.00">::Switch</text>
</a>
</g>
</g>
<!-- Node27&#45;&gt;Node7 -->
<g id="edge26" class="edge"><title>Node27&#45;&gt;Node7</title>
<path fill="none" stroke="#9a32cd" stroke-dasharray="5,2" d="M1224.3,-183C1254.73,-183 1288.58,-183 1316.48,-183"/>
<polygon fill="#9a32cd" stroke="#9a32cd" points="1224.13,-179.5 1214.13,-183 1224.13,-186.5 1224.13,-179.5"/>
<text text-anchor="middle" x="1265" y="-186" font-family="Helvetica,sans-Serif" font-size="10.00"> promptrandom</text>
</g>
<!-- Node28 -->
<g id="node27" class="node"><title>Node28</title>
<g id="a_node27"><a xlink:href="classant_1_1_piecewise_interval.html" target="_top" xlink:title="ant::PiecewiseInterval\l\&lt; double \&gt;">
<polygon fill="white" stroke="black" points="818.5,-133 818.5,-163 931.5,-163 931.5,-133 818.5,-133"/>
<text text-anchor="start" x="826.5" y="-151" font-family="Helvetica,sans-Serif" font-size="10.00">ant::PiecewiseInterval</text>
<text text-anchor="middle" x="875" y="-140" font-family="Helvetica,sans-Serif" font-size="10.00">&lt; double &gt;</text>
</a>
</g>
</g>
<!-- Node28&#45;&gt;Node27 -->
<g id="edge27" class="edge"><title>Node28&#45;&gt;Node27</title>
<path fill="none" stroke="#9a32cd" stroke-dasharray="5,2" d="M941.688,-156.709C980.026,-161.791 1028.45,-168.211 1067.84,-173.434"/>
<polygon fill="#9a32cd" stroke="#9a32cd" points="942.038,-153.225 931.665,-155.38 941.118,-160.164 942.038,-153.225"/>
<text text-anchor="middle" x="1011" y="-185" font-family="Helvetica,sans-Serif" font-size="10.00"> promptw</text>
<text text-anchor="middle" x="1011" y="-174" font-family="Helvetica,sans-Serif" font-size="10.00">randomw</text>
</g>
<!-- Node29&#45;&gt;Node28 -->
<g id="edge28" class="edge"><title>Node29&#45;&gt;Node28</title>
<path fill="none" stroke="midnightblue" d="M715.203,-107.506C735.304,-110.988 757.693,-115.252 778,-120 793.722,-123.676 810.69,-128.376 825.925,-132.872"/>
<polygon fill="midnightblue" stroke="midnightblue" points="715.678,-104.037 705.233,-105.81 714.504,-110.938 715.678,-104.037"/>
</g>
<!-- Node30 -->
<g id="node29" class="node"><title>Node30</title>
<g id="a_node29"><a xlink:href="classant_1_1analysis_1_1utils_1_1_trigger_simulation.html" target="_top" xlink:title="ant::analysis::utils\l::TriggerSimulation">
<polygon fill="white" stroke="black" points="1092,-0 1092,-30 1190,-30 1190,-0 1092,-0"/>
<text text-anchor="start" x="1100" y="-18" font-family="Helvetica,sans-Serif" font-size="10.00">ant::analysis::utils</text>
<text text-anchor="middle" x="1141" y="-7" font-family="Helvetica,sans-Serif" font-size="10.00">::TriggerSimulation</text>
</a>
</g>
</g>
<!-- Node30&#45;&gt;Node2 -->
<g id="edge34" class="edge"><title>Node30&#45;&gt;Node2</title>
<path fill="none" stroke="#9a32cd" stroke-dasharray="5,2" d="M1200.22,-15.7767C1247.35,-16.3388 1315.45,-17 1375,-17 1375,-17 1375,-17 1921,-17 2021.92,-17 2107.04,-127.113 2135.15,-167.976"/>
<polygon fill="#9a32cd" stroke="#9a32cd" points="1200.24,-12.2767 1190.19,-15.6549 1200.15,-19.2762 1200.24,-12.2767"/>
<text text-anchor="middle" x="1668" y="-20" font-family="Helvetica,sans-Serif" font-size="10.00"> triggersimu</text>
</g>
<!-- Node30&#45;&gt;Node7 -->
<g id="edge30" class="edge"><title>Node30&#45;&gt;Node7</title>
<path fill="none" stroke="#9a32cd" stroke-dasharray="5,2" d="M1199.74,-32.8074C1204.62,-34.7465 1209.44,-36.8155 1214,-39 1254.03,-58.1665 1264.55,-63.8282 1298,-93 1322.18,-114.085 1345.48,-142.893 1360,-162.182"/>
<polygon fill="#9a32cd" stroke="#9a32cd" points="1200.89,-29.5012 1190.3,-29.2424 1198.42,-36.0498 1200.89,-29.5012"/>
<text text-anchor="middle" x="1265" y="-96" font-family="Helvetica,sans-Serif" font-size="10.00"> triggersimu</text>
</g>
<!-- Node31 -->
<g id="node30" class="node"><title>Node31</title>
<g id="a_node30"><a xlink:href="structant_1_1analysis_1_1physics_1_1_p_i_d___t_a_p_s_veto___kinfit_1_1_multi_pi0_1_1_multi_pi0_tree.html" target="_top" xlink:title="ant::analysis::physics\l::PID_TAPSVeto_Kinfit\l::MultiPi0::MultiPi0Tree">
<polygon fill="white" stroke="black" points="1081.5,-48.5 1081.5,-89.5 1200.5,-89.5 1200.5,-48.5 1081.5,-48.5"/>
<text text-anchor="start" x="1089.5" y="-77.5" font-family="Helvetica,sans-Serif" font-size="10.00">ant::analysis::physics</text>
<text text-anchor="start" x="1089.5" y="-66.5" font-family="Helvetica,sans-Serif" font-size="10.00">::PID_TAPSVeto_Kinfit</text>
<text text-anchor="middle" x="1141" y="-55.5" font-family="Helvetica,sans-Serif" font-size="10.00">::MultiPi0::MultiPi0Tree</text>
</a>
</g>
</g>
<!-- Node31&#45;&gt;Node7 -->
<g id="edge32" class="edge"><title>Node31&#45;&gt;Node7</title>
<path fill="none" stroke="#9a32cd" stroke-dasharray="5,2" d="M1201.41,-93.5876C1205.67,-95.4047 1209.91,-97.222 1214,-99 1251.58,-115.326 1261.69,-118.018 1298,-137 1312.9,-144.791 1328.94,-154.195 1342.49,-162.465"/>
<polygon fill="#9a32cd" stroke="#9a32cd" points="1202.62,-90.3007 1192.05,-89.6254 1199.89,-96.7469 1202.62,-90.3007"/>
<text text-anchor="middle" x="1265" y="-140" font-family="Helvetica,sans-Serif" font-size="10.00"> t</text>
</g>
<!-- Node32 -->
<g id="node31" class="node"><title>Node32</title>
<g id="a_node31"><a xlink:href="classant_1_1_wrap_t_tree.html" target="_top" xlink:title="The WrapTTree struct simplifies TTree handling in physics classes. ">
<polygon fill="white" stroke="black" points="832.5,-59.5 832.5,-78.5 917.5,-78.5 917.5,-59.5 832.5,-59.5"/>
<text text-anchor="middle" x="875" y="-66.5" font-family="Helvetica,sans-Serif" font-size="10.00">ant::WrapTTree</text>
</a>
</g>
</g>
<!-- Node32&#45;&gt;Node31 -->
<g id="edge33" class="edge"><title>Node32&#45;&gt;Node31</title>
<path fill="none" stroke="midnightblue" d="M927.745,-69C971.793,-69 1035.06,-69 1081.05,-69"/>
<polygon fill="midnightblue" stroke="midnightblue" points="927.54,-65.5001 917.54,-69 927.54,-72.5001 927.54,-65.5001"/>
</g>
</g>
</svg>
