<?xml version="1.0" encoding="UTF-8" standalone="no"?>
<!DOCTYPE svg PUBLIC "-//W3C//DTD SVG 1.1//EN"
 "http://www.w3.org/Graphics/SVG/1.1/DTD/svg11.dtd">
<!-- Generated by graphviz version 2.36.0 (20140111.2315)
 -->
<!-- Title: ant::progs::taggeff::taggEffTriple_t Pages: 1 -->
<svg width="1068pt" height="229pt"
 viewBox="0.00 0.00 1068.00 229.00" xmlns="http://www.w3.org/2000/svg" xmlns:xlink="http://www.w3.org/1999/xlink">
<g id="graph0" class="graph" transform="scale(1 1) rotate(0) translate(4 225)">
<title>ant::progs::taggeff::taggEffTriple_t</title>
<polygon fill="white" stroke="none" points="-4,4 -4,-225 1064,-225 1064,4 -4,4"/>
<!-- Node1 -->
<g id="node1" class="node"><title>Node1</title>
<polygon fill="#bfbfbf" stroke="black" points="964,-82 964,-112 1060,-112 1060,-82 964,-82"/>
<text text-anchor="start" x="972" y="-100" font-family="Helvetica,sans-Serif" font-size="10.00">ant::progs::taggeff</text>
<text text-anchor="middle" x="1012" y="-89" font-family="Helvetica,sans-Serif" font-size="10.00">::taggEffTriple_t</text>
</g>
<!-- Node2 -->
<g id="node2" class="node"><title>Node2</title>
<g id="a_node2"><a xlink:href="structant_1_1progs_1_1taggeff_1_1tree_loader__t.html" target="_top" xlink:title="ant::progs::taggeff\l::treeLoader_t">
<polygon fill="white" stroke="black" points="780,-147 780,-177 876,-177 876,-147 780,-147"/>
<text text-anchor="start" x="788" y="-165" font-family="Helvetica,sans-Serif" font-size="10.00">ant::progs::taggeff</text>
<text text-anchor="middle" x="828" y="-154" font-family="Helvetica,sans-Serif" font-size="10.00">::treeLoader_t</text>
</a>
</g>
</g>
<!-- Node2&#45;&gt;Node1 -->
<g id="edge1" class="edge"><title>Node2&#45;&gt;Node1</title>
<path fill="none" stroke="#9a32cd" stroke-dasharray="5,2" d="M885.791,-144.559C905.021,-138.387 926.548,-131.186 946,-124 955.858,-120.358 966.428,-116.116 976.119,-112.088"/>
<polygon fill="#9a32cd" stroke="#9a32cd" points="884.728,-141.224 876.262,-147.593 886.852,-147.894 884.728,-141.224"/>
<text text-anchor="middle" x="927" y="-162" font-family="Helvetica,sans-Serif" font-size="10.00"> Bkg1</text>
<text text-anchor="middle" x="927" y="-151" font-family="Helvetica,sans-Serif" font-size="10.00">Bkg2</text>
<text text-anchor="middle" x="927" y="-140" font-family="Helvetica,sans-Serif" font-size="10.00">Run</text>
</g>
<!-- Node3 -->
<g id="node3" class="node"><title>Node3</title>
<g id="a_node3"><a xlink:href="structant_1_1analysis_1_1physics_1_1_process_tagg_eff_1_1_tree_scalar_reads.html" target="_top" xlink:title="ant::analysis::physics\l::ProcessTaggEff::TreeScalarReads">
<polygon fill="white" stroke="black" points="500.5,-191 500.5,-221 675.5,-221 675.5,-191 500.5,-191"/>
<text text-anchor="start" x="508.5" y="-209" font-family="Helvetica,sans-Serif" font-size="10.00">ant::analysis::physics</text>
<text text-anchor="middle" x="588" y="-198" font-family="Helvetica,sans-Serif" font-size="10.00">::ProcessTaggEff::TreeScalarReads</text>
</a>
</g>
</g>
<!-- Node3&#45;&gt;Node2 -->
<g id="edge2" class="edge"><title>Node3&#45;&gt;Node2</title>
<path fill="none" stroke="#9a32cd" stroke-dasharray="5,2" d="M681.83,-189.185C703.547,-185.219 726.59,-180.985 748,-177 758.293,-175.084 769.336,-173.003 779.806,-171.019"/>
<polygon fill="#9a32cd" stroke="#9a32cd" points="681.165,-185.749 671.955,-190.987 682.421,-192.635 681.165,-185.749"/>
<text text-anchor="middle" x="721" y="-189" font-family="Helvetica,sans-Serif" font-size="10.00"> wrapTree</text>
</g>
<!-- Node4 -->
<g id="node4" class="node"><title>Node4</title>
<g id="a_node4"><a xlink:href="classant_1_1_wrap_t_tree.html" target="_top" xlink:title="The WrapTTree struct simplifies TTree handling in physics classes. ">
<polygon fill="white" stroke="black" points="371.5,-196.5 371.5,-215.5 456.5,-215.5 456.5,-196.5 371.5,-196.5"/>
<text text-anchor="middle" x="414" y="-203.5" font-family="Helvetica,sans-Serif" font-size="10.00">ant::WrapTTree</text>
</a>
</g>
</g>
<!-- Node4&#45;&gt;Node3 -->
<g id="edge3" class="edge"><title>Node4&#45;&gt;Node3</title>
<path fill="none" stroke="midnightblue" d="M466.885,-206C477.437,-206 488.805,-206 500.193,-206"/>
<polygon fill="midnightblue" stroke="midnightblue" points="466.636,-202.5 456.636,-206 466.636,-209.5 466.636,-202.5"/>
</g>
<!-- Node5 -->
<g id="node5" class="node"><title>Node5</title>
<g id="a_node5"><a xlink:title="STL class. ">
<polygon fill="white" stroke="#bfbfbf" points="558,-152.5 558,-171.5 618,-171.5 618,-152.5 558,-152.5"/>
<text text-anchor="middle" x="588" y="-159.5" font-family="Helvetica,sans-Serif" font-size="10.00">std::string</text>
</a>
</g>
</g>
<!-- Node5&#45;&gt;Node2 -->
<g id="edge4" class="edge"><title>Node5&#45;&gt;Node2</title>
<path fill="none" stroke="#9a32cd" stroke-dasharray="5,2" d="M628.214,-162C669.819,-162 735.55,-162 779.926,-162"/>
<polygon fill="#9a32cd" stroke="#9a32cd" points="628.184,-158.5 618.183,-162 628.183,-165.5 628.184,-158.5"/>
<text text-anchor="middle" x="721" y="-165" font-family="Helvetica,sans-Serif" font-size="10.00"> setupName</text>
</g>
<!-- Node6 -->
<g id="node6" class="node"><title>Node6</title>
<g id="a_node6"><a xlink:title="STL class. ">
<polygon fill="white" stroke="#bfbfbf" points="366.5,-147 366.5,-177 461.5,-177 461.5,-147 366.5,-147"/>
<text text-anchor="start" x="374.5" y="-165" font-family="Helvetica,sans-Serif" font-size="10.00">std::basic_string&lt;</text>
<text text-anchor="middle" x="414" y="-154" font-family="Helvetica,sans-Serif" font-size="10.00"> char &gt;</text>
</a>
</g>
</g>
<!-- Node6&#45;&gt;Node5 -->
<g id="edge5" class="edge"><title>Node6&#45;&gt;Node5</title>
<path fill="none" stroke="midnightblue" d="M471.913,-162C500.736,-162 534.5,-162 557.972,-162"/>
<polygon fill="midnightblue" stroke="midnightblue" points="471.546,-158.5 461.546,-162 471.546,-165.5 471.546,-158.5"/>
</g>
<!-- Node7 -->
<g id="node7" class="node"><title>Node7</title>
<g id="a_node7"><a xlink:href="classant_1_1_wrap_t_file_input.html" target="_top" xlink:title="ant::WrapTFileInput">
<polygon fill="white" stroke="black" points="536.5,-111.5 536.5,-130.5 639.5,-130.5 639.5,-111.5 536.5,-111.5"/>
<text text-anchor="middle" x="588" y="-118.5" font-family="Helvetica,sans-Serif" font-size="10.00">ant::WrapTFileInput</text>
</a>
</g>
</g>
<!-- Node7&#45;&gt;Node2 -->
<g id="edge6" class="edge"><title>Node7&#45;&gt;Node2</title>
<path fill="none" stroke="#9a32cd" stroke-dasharray="5,2" d="M649.742,-130.559C679.404,-135.323 715.599,-141.276 748,-147 758.311,-148.822 769.36,-150.863 779.831,-152.84"/>
<polygon fill="#9a32cd" stroke="#9a32cd" points="649.967,-127.051 639.54,-128.927 648.861,-133.963 649.967,-127.051"/>
<text text-anchor="middle" x="721" y="-150" font-family="Helvetica,sans-Serif" font-size="10.00"> wrapFile</text>
</g>
<!-- Node8 -->
<g id="node8" class="node"><title>Node8</title>
<g id="a_node8"><a xlink:href="classant_1_1_wrap_t_file.html" target="_top" xlink:title="ant::WrapTFile">
<polygon fill="white" stroke="black" points="373.5,-108.5 373.5,-127.5 454.5,-127.5 454.5,-108.5 373.5,-108.5"/>
<text text-anchor="middle" x="414" y="-115.5" font-family="Helvetica,sans-Serif" font-size="10.00">ant::WrapTFile</text>
</a>
</g>
</g>
<!-- Node8&#45;&gt;Node7 -->
<g id="edge7" class="edge"><title>Node8&#45;&gt;Node7</title>
<path fill="none" stroke="midnightblue" d="M465.182,-118.875C487.525,-119.265 513.795,-119.723 536.209,-120.114"/>
<polygon fill="midnightblue" stroke="midnightblue" points="464.952,-115.371 454.893,-118.696 464.83,-122.37 464.952,-115.371"/>
</g>
<!-- Node9 -->
<g id="node9" class="node"><title>Node9</title>
<polygon fill="white" stroke="#bfbfbf" points="202,-103 202,-133 308,-133 308,-103 202,-103"/>
<text text-anchor="start" x="210" y="-121" font-family="Helvetica,sans-Serif" font-size="10.00">std::list&lt; std::unique</text>
<text text-anchor="middle" x="255" y="-110" font-family="Helvetica,sans-Serif" font-size="10.00">_ptr&lt; TFile &gt; &gt;</text>
</g>
<!-- Node9&#45;&gt;Node8 -->
<g id="edge8" class="edge"><title>Node9&#45;&gt;Node8</title>
<path fill="none" stroke="#9a32cd" stroke-dasharray="5,2" d="M318.414,-118C336.94,-118 356.714,-118 373.366,-118"/>
<polygon fill="#9a32cd" stroke="#9a32cd" points="318.279,-114.5 308.279,-118 318.279,-121.5 318.279,-114.5"/>
<text text-anchor="middle" x="337" y="-121" font-family="Helvetica,sans-Serif" font-size="10.00"> files</text>
</g>
<!-- Node10 -->
<g id="node10" class="node"><title>Node10</title>
<polygon fill="white" stroke="#bfbfbf" points="0.5,-108.5 0.5,-127.5 121.5,-127.5 121.5,-108.5 0.5,-108.5"/>
<text text-anchor="middle" x="61" y="-115.5" font-family="Helvetica,sans-Serif" font-size="10.00">std::unique_ptr&lt; TFile &gt;</text>
</g>
<!-- Node10&#45;&gt;Node9 -->
<g id="edge9" class="edge"><title>Node10&#45;&gt;Node9</title>
<path fill="none" stroke="#9a32cd" stroke-dasharray="5,2" d="M131.799,-118C154.922,-118 180.242,-118 201.807,-118"/>
<polygon fill="#9a32cd" stroke="#9a32cd" points="131.698,-114.5 121.698,-118 131.697,-121.5 131.698,-114.5"/>
<text text-anchor="middle" x="162" y="-121" font-family="Helvetica,sans-Serif" font-size="10.00"> elements</text>
</g>
<!-- Node11 -->
<g id="node11" class="node"><title>Node11</title>
<g id="a_node11"><a xlink:href="structant_1_1_t_i_d.html" target="_top" xlink:title="ant::TID">
<polygon fill="white" stroke="black" points="801.5,-108.5 801.5,-127.5 854.5,-127.5 854.5,-108.5 801.5,-108.5"/>
<text text-anchor="middle" x="828" y="-115.5" font-family="Helvetica,sans-Serif" font-size="10.00">ant::TID</text>
</a>
</g>
</g>
<!-- Node11&#45;&gt;Node1 -->
<g id="edge10" class="edge"><title>Node11&#45;&gt;Node1</title>
<path fill="none" stroke="#9a32cd" stroke-dasharray="5,2" d="M864.958,-113.851C893.319,-110.579 933.105,-105.988 963.989,-102.424"/>
<polygon fill="#9a32cd" stroke="#9a32cd" points="864.223,-110.412 854.69,-115.036 865.025,-117.366 864.223,-110.412"/>
<text text-anchor="middle" x="927" y="-112" font-family="Helvetica,sans-Serif" font-size="10.00"> startID</text>
</g>
<!-- Node12 -->
<g id="node12" class="node"><title>Node12</title>
<polygon fill="white" stroke="#bfbfbf" points="770,-48.5 770,-89.5 886,-89.5 886,-48.5 770,-48.5"/>
<text text-anchor="start" x="778" y="-77.5" font-family="Helvetica,sans-Serif" font-size="10.00">std::vector&lt; ant::progs</text>
<text text-anchor="start" x="778" y="-66.5" font-family="Helvetica,sans-Serif" font-size="10.00">::taggeff::taggEffTriple</text>
<text text-anchor="middle" x="828" y="-55.5" font-family="Helvetica,sans-Serif" font-size="10.00">_t::bkgFit_t &gt;</text>
</g>
<!-- Node12&#45;&gt;Node1 -->
<g id="edge11" class="edge"><title>Node12&#45;&gt;Node1</title>
<path fill="none" stroke="#9a32cd" stroke-dasharray="5,2" d="M896.245,-79.3454C918.719,-82.803 943.272,-86.5804 963.879,-89.7506"/>
<polygon fill="#9a32cd" stroke="#9a32cd" points="896.503,-75.8439 886.087,-77.7826 895.438,-82.7625 896.503,-75.8439"/>
<text text-anchor="middle" x="927" y="-90" font-family="Helvetica,sans-Serif" font-size="10.00"> bkgFits</text>
</g>
<!-- Node13 -->
<g id="node13" class="node"><title>Node13</title>
<g id="a_node13"><a xlink:href="structant_1_1progs_1_1taggeff_1_1tagg_eff_triple__t_1_1bkg_fit__t.html" target="_top" xlink:title="ant::progs::taggeff\l::taggEffTriple_t::bkgFit_t">
<polygon fill="white" stroke="black" points="524,-54 524,-84 652,-84 652,-54 524,-54"/>
<text text-anchor="start" x="532" y="-72" font-family="Helvetica,sans-Serif" font-size="10.00">ant::progs::taggeff</text>
<text text-anchor="middle" x="588" y="-61" font-family="Helvetica,sans-Serif" font-size="10.00">::taggEffTriple_t::bkgFit_t</text>
</a>
</g>
</g>
<!-- Node13&#45;&gt;Node12 -->
<g id="edge12" class="edge"><title>Node13&#45;&gt;Node12</title>
<path fill="none" stroke="#9a32cd" stroke-dasharray="5,2" d="M662.197,-69C696.753,-69 737.39,-69 769.665,-69"/>
<polygon fill="#9a32cd" stroke="#9a32cd" points="662.155,-65.5001 652.155,-69 662.155,-72.5001 662.155,-65.5001"/>
<text text-anchor="middle" x="721" y="-72" font-family="Helvetica,sans-Serif" font-size="10.00"> elements</text>
</g>
<!-- Node14 -->
<g id="node14" class="node"><title>Node14</title>
<g id="a_node14"><a xlink:href="classant_1_1analysis_1_1_histogram_factory.html" target="_top" xlink:title="ant::analysis::Histogram\lFactory">
<polygon fill="white" stroke="black" points="766.5,-0 766.5,-30 889.5,-30 889.5,-0 766.5,-0"/>
<text text-anchor="start" x="774.5" y="-18" font-family="Helvetica,sans-Serif" font-size="10.00">ant::analysis::Histogram</text>
<text text-anchor="middle" x="828" y="-7" font-family="Helvetica,sans-Serif" font-size="10.00">Factory</text>
</a>
</g>
</g>
<!-- Node14&#45;&gt;Node1 -->
<g id="edge13" class="edge"><title>Node14&#45;&gt;Node1</title>
<path fill="none" stroke="#9a32cd" stroke-dasharray="5,2" d="M878.029,-33.9312C882.094,-35.6094 886.127,-37.3123 890,-39 921.394,-52.6788 956.631,-69.7725 980.946,-81.8491"/>
<polygon fill="#9a32cd" stroke="#9a32cd" points="879.13,-30.6005 868.548,-30.0788 876.495,-37.0857 879.13,-30.6005"/>
<text text-anchor="middle" x="927" y="-67" font-family="Helvetica,sans-Serif" font-size="10.00"> HistFac</text>
</g>
</g>
</svg>
