<?xml version="1.0" encoding="UTF-8" standalone="no"?>
<!DOCTYPE svg PUBLIC "-//W3C//DTD SVG 1.1//EN"
 "http://www.w3.org/Graphics/SVG/1.1/DTD/svg11.dtd">
<!-- Generated by graphviz version 2.36.0 (20140111.2315)
 -->
<!-- Title: ant::analysis::physics::MesonDalitzDecays Pages: 1 -->
<svg width="1586pt" height="627pt"
 viewBox="0.00 0.00 1586.00 627.44" xmlns="http://www.w3.org/2000/svg" xmlns:xlink="http://www.w3.org/1999/xlink">
<g id="graph0" class="graph" transform="scale(1 1) rotate(0) translate(4 623.445)">
<title>ant::analysis::physics::MesonDalitzDecays</title>
<polygon fill="white" stroke="none" points="-4,4 -4,-623.445 1582,-623.445 1582,4 -4,4"/>
<!-- Node2 -->
<g id="node1" class="node"><title>Node2</title>
<polygon fill="#bfbfbf" stroke="black" points="1466,-339.445 1466,-369.445 1578,-369.445 1578,-339.445 1466,-339.445"/>
<text text-anchor="start" x="1474" y="-357.445" font-family="Helvetica,sans-Serif" font-size="10.00">ant::analysis::physics</text>
<text text-anchor="middle" x="1522" y="-346.445" font-family="Helvetica,sans-Serif" font-size="10.00">::MesonDalitzDecays</text>
</g>
<!-- Node3 -->
<g id="node2" class="node"><title>Node3</title>
<g id="a_node2"><a xlink:href="classant_1_1analysis_1_1_physics.html" target="_top" xlink:title="ant::analysis::Physics">
<polygon fill="white" stroke="black" points="1203.5,-594.945 1203.5,-613.945 1316.5,-613.945 1316.5,-594.945 1203.5,-594.945"/>
<text text-anchor="middle" x="1260" y="-601.945" font-family="Helvetica,sans-Serif" font-size="10.00">ant::analysis::Physics</text>
</a>
</g>
</g>
<!-- Node3&#45;&gt;Node2 -->
<g id="edge1" class="edge"><title>Node3&#45;&gt;Node2</title>
<path fill="none" stroke="midnightblue" d="M1326.68,-600.12C1366.25,-594.278 1415.18,-580.882 1448,-550.445 1502.18,-500.201 1516.35,-405.984 1519.89,-369.454"/>
<polygon fill="midnightblue" stroke="midnightblue" points="1326.02,-596.677 1316.57,-601.48 1326.95,-603.614 1326.02,-596.677"/>
</g>
<!-- Node4 -->
<g id="node3" class="node"><title>Node4</title>
<g id="a_node3"><a xlink:href="classant_1_1analysis_1_1_histogram_factory.html" target="_top" xlink:title="ant::analysis::Histogram\lFactory">
<polygon fill="white" stroke="black" points="889.5,-589.445 889.5,-619.445 1012.5,-619.445 1012.5,-589.445 889.5,-589.445"/>
<text text-anchor="start" x="897.5" y="-607.445" font-family="Helvetica,sans-Serif" font-size="10.00">ant::analysis::Histogram</text>
<text text-anchor="middle" x="951" y="-596.445" font-family="Helvetica,sans-Serif" font-size="10.00">Factory</text>
</a>
</g>
</g>
<!-- Node4&#45;&gt;Node3 -->
<g id="edge2" class="edge"><title>Node4&#45;&gt;Node3</title>
<path fill="none" stroke="#9a32cd" stroke-dasharray="5,2" d="M1022.66,-604.445C1077.58,-604.445 1152.69,-604.445 1203.38,-604.445"/>
<polygon fill="#9a32cd" stroke="#9a32cd" points="1022.65,-600.945 1012.65,-604.445 1022.65,-607.945 1022.65,-600.945"/>
<text text-anchor="middle" x="1114" y="-607.445" font-family="Helvetica,sans-Serif" font-size="10.00"> HistFac</text>
</g>
<!-- Node40 -->
<g id="node39" class="node"><title>Node40</title>
<polygon fill="white" stroke="#bfbfbf" points="1172.5,-534.445 1172.5,-564.445 1347.5,-564.445 1347.5,-534.445 1172.5,-534.445"/>
<text text-anchor="start" x="1180.5" y="-552.445" font-family="Helvetica,sans-Serif" font-size="10.00">std::map&lt; std::string,</text>
<text text-anchor="middle" x="1260" y="-541.445" font-family="Helvetica,sans-Serif" font-size="10.00"> ant::analysis::HistogramFactory &amp;&gt;</text>
</g>
<!-- Node4&#45;&gt;Node40 -->
<g id="edge44" class="edge"><title>Node4&#45;&gt;Node40</title>
<path fill="none" stroke="#9a32cd" stroke-dasharray="5,2" d="M1022.72,-591.775C1068.16,-583.633 1127.43,-573.016 1175.23,-564.452"/>
<polygon fill="#9a32cd" stroke="#9a32cd" points="1021.88,-588.37 1012.65,-593.578 1023.11,-595.26 1021.88,-588.37"/>
<text text-anchor="middle" x="1114" y="-585.445" font-family="Helvetica,sans-Serif" font-size="10.00"> elements</text>
</g>
<!-- Node5 -->
<g id="node4" class="node"><title>Node5</title>
<g id="a_node4"><a xlink:href="structant_1_1analysis_1_1utils_1_1_cluster_tools.html" target="_top" xlink:title="ant::analysis::utils\l::ClusterTools">
<polygon fill="white" stroke="black" points="1212,-365.445 1212,-395.445 1308,-395.445 1308,-365.445 1212,-365.445"/>
<text text-anchor="start" x="1220" y="-383.445" font-family="Helvetica,sans-Serif" font-size="10.00">ant::analysis::utils</text>
<text text-anchor="middle" x="1260" y="-372.445" font-family="Helvetica,sans-Serif" font-size="10.00">::ClusterTools</text>
</a>
</g>
</g>
<!-- Node5&#45;&gt;Node2 -->
<g id="edge3" class="edge"><title>Node5&#45;&gt;Node2</title>
<path fill="none" stroke="#9a32cd" stroke-dasharray="5,2" d="M1318.3,-374.714C1362.18,-370.327 1422.33,-364.312 1465.7,-359.975"/>
<polygon fill="#9a32cd" stroke="#9a32cd" points="1317.69,-371.259 1308.08,-375.736 1318.38,-378.224 1317.69,-371.259"/>
<text text-anchor="middle" x="1407" y="-373.445" font-family="Helvetica,sans-Serif" font-size="10.00"> clustertools</text>
</g>
<!-- Node6 -->
<g id="node5" class="node"><title>Node6</title>
<polygon fill="white" stroke="#bfbfbf" points="881.5,-359.945 881.5,-400.945 1020.5,-400.945 1020.5,-359.945 881.5,-359.945"/>
<text text-anchor="start" x="889.5" y="-388.945" font-family="Helvetica,sans-Serif" font-size="10.00">std::map&lt; Detector</text>
<text text-anchor="start" x="889.5" y="-377.945" font-family="Helvetica,sans-Serif" font-size="10.00">_t::Type_t, ant::analysis</text>
<text text-anchor="middle" x="951" y="-366.945" font-family="Helvetica,sans-Serif" font-size="10.00">::utils::ClusterTools::det_t &gt;</text>
</g>
<!-- Node6&#45;&gt;Node5 -->
<g id="edge4" class="edge"><title>Node6&#45;&gt;Node5</title>
<path fill="none" stroke="#9a32cd" stroke-dasharray="5,2" d="M1030.61,-380.445C1087.83,-380.445 1163.44,-380.445 1211.66,-380.445"/>
<polygon fill="#9a32cd" stroke="#9a32cd" points="1030.51,-376.945 1020.51,-380.445 1030.51,-383.945 1030.51,-376.945"/>
<text text-anchor="middle" x="1114" y="-383.445" font-family="Helvetica,sans-Serif" font-size="10.00"> cluster_detectors</text>
</g>
<!-- Node7 -->
<g id="node6" class="node"><title>Node7</title>
<g id="a_node6"><a xlink:href="structant_1_1analysis_1_1utils_1_1_cluster_tools_1_1det__t.html" target="_top" xlink:title="ant::analysis::utils\l::ClusterTools::det_t">
<polygon fill="white" stroke="black" points="625,-334.445 625,-364.445 731,-364.445 731,-334.445 625,-334.445"/>
<text text-anchor="start" x="633" y="-352.445" font-family="Helvetica,sans-Serif" font-size="10.00">ant::analysis::utils</text>
<text text-anchor="middle" x="678" y="-341.445" font-family="Helvetica,sans-Serif" font-size="10.00">::ClusterTools::det_t</text>
</a>
</g>
</g>
<!-- Node7&#45;&gt;Node6 -->
<g id="edge5" class="edge"><title>Node7&#45;&gt;Node6</title>
<path fill="none" stroke="#9a32cd" stroke-dasharray="5,2" d="M741.323,-356.574C783.193,-361.363 838.38,-367.676 881.484,-372.607"/>
<polygon fill="#9a32cd" stroke="#9a32cd" points="741.585,-353.081 731.252,-355.422 740.789,-360.036 741.585,-353.081"/>
<text text-anchor="middle" x="806" y="-369.445" font-family="Helvetica,sans-Serif" font-size="10.00"> elements</text>
</g>
<!-- Node8 -->
<g id="node7" class="node"><title>Node8</title>
<polygon fill="white" stroke="#bfbfbf" points="390,-339.945 390,-358.945 500,-358.945 500,-339.945 390,-339.945"/>
<text text-anchor="middle" x="445" y="-346.945" font-family="Helvetica,sans-Serif" font-size="10.00">std::vector&lt; double &gt;</text>
</g>
<!-- Node8&#45;&gt;Node7 -->
<g id="edge6" class="edge"><title>Node8&#45;&gt;Node7</title>
<path fill="none" stroke="#9a32cd" stroke-dasharray="5,2" d="M510.573,-349.445C546.616,-349.445 590.932,-349.445 624.77,-349.445"/>
<polygon fill="#9a32cd" stroke="#9a32cd" points="510.159,-345.945 500.159,-349.445 510.159,-352.945 510.159,-345.945"/>
<text text-anchor="middle" x="550" y="-352.445" font-family="Helvetica,sans-Serif" font-size="10.00"> R0</text>
</g>
<!-- Node9 -->
<g id="node8" class="node"><title>Node9</title>
<g id="a_node8"><a xlink:href="structant_1_1analysis_1_1physics_1_1_meson_dalitz_decays_1_1_tree__t.html" target="_top" xlink:title="ant::analysis::physics\l::MesonDalitzDecays::Tree_t">
<polygon fill="white" stroke="black" points="1187.5,-316.445 1187.5,-346.445 1332.5,-346.445 1332.5,-316.445 1187.5,-316.445"/>
<text text-anchor="start" x="1195.5" y="-334.445" font-family="Helvetica,sans-Serif" font-size="10.00">ant::analysis::physics</text>
<text text-anchor="middle" x="1260" y="-323.445" font-family="Helvetica,sans-Serif" font-size="10.00">::MesonDalitzDecays::Tree_t</text>
</a>
</g>
</g>
<!-- Node9&#45;&gt;Node2 -->
<g id="edge7" class="edge"><title>Node9&#45;&gt;Node2</title>
<path fill="none" stroke="#9a32cd" stroke-dasharray="5,2" d="M1342.68,-332.871C1375.5,-334.097 1413.63,-336.343 1448,-340.445 1453.77,-341.133 1459.76,-342.012 1465.73,-342.993"/>
<polygon fill="#9a32cd" stroke="#9a32cd" points="1342.8,-329.373 1332.68,-332.523 1342.55,-336.369 1342.8,-329.373"/>
<text text-anchor="middle" x="1407" y="-343.445" font-family="Helvetica,sans-Serif" font-size="10.00"> t</text>
</g>
<!-- Node10 -->
<g id="node9" class="node"><title>Node10</title>
<g id="a_node9"><a xlink:href="classant_1_1_wrap_t_tree.html" target="_top" xlink:title="The WrapTTree struct simplifies TTree handling in physics classes. ">
<polygon fill="white" stroke="black" points="908.5,-321.945 908.5,-340.945 993.5,-340.945 993.5,-321.945 908.5,-321.945"/>
<text text-anchor="middle" x="951" y="-328.945" font-family="Helvetica,sans-Serif" font-size="10.00">ant::WrapTTree</text>
</a>
</g>
</g>
<!-- Node10&#45;&gt;Node9 -->
<g id="edge8" class="edge"><title>Node10&#45;&gt;Node9</title>
<path fill="none" stroke="midnightblue" d="M1003.74,-331.445C1054.1,-331.445 1131.06,-331.445 1187.31,-331.445"/>
<polygon fill="midnightblue" stroke="midnightblue" points="1003.72,-327.945 993.723,-331.445 1003.72,-334.945 1003.72,-327.945"/>
</g>
<!-- Node11 -->
<g id="node10" class="node"><title>Node11</title>
<g id="a_node10"><a xlink:href="classant_1_1analysis_1_1utils_1_1_tree_fitter.html" target="_top" xlink:title="ant::analysis::utils\l::TreeFitter">
<polygon fill="white" stroke="black" points="1212,-188.445 1212,-218.445 1308,-218.445 1308,-188.445 1212,-188.445"/>
<text text-anchor="start" x="1220" y="-206.445" font-family="Helvetica,sans-Serif" font-size="10.00">ant::analysis::utils</text>
<text text-anchor="middle" x="1260" y="-195.445" font-family="Helvetica,sans-Serif" font-size="10.00">::TreeFitter</text>
</a>
</g>
</g>
<!-- Node11&#45;&gt;Node2 -->
<g id="edge9" class="edge"><title>Node11&#45;&gt;Node2</title>
<path fill="none" stroke="#9a32cd" stroke-dasharray="5,2" d="M1318,-209.398C1357.34,-215.753 1409.33,-228.799 1448,-255.445 1479.65,-277.254 1502.88,-317.338 1513.89,-339.216"/>
<polygon fill="#9a32cd" stroke="#9a32cd" points="1318.44,-205.925 1308.03,-207.885 1317.39,-212.846 1318.44,-205.925"/>
<text text-anchor="middle" x="1407" y="-258.445" font-family="Helvetica,sans-Serif" font-size="10.00"> treefitter_eta</text>
</g>
<!-- Node12 -->
<g id="node11" class="node"><title>Node12</title>
<g id="a_node11"><a xlink:href="classant_1_1analysis_1_1utils_1_1_kin_fitter.html" target="_top" xlink:title="ant::analysis::utils\l::KinFitter">
<polygon fill="white" stroke="black" points="903,-223.445 903,-253.445 999,-253.445 999,-223.445 903,-223.445"/>
<text text-anchor="start" x="911" y="-241.445" font-family="Helvetica,sans-Serif" font-size="10.00">ant::analysis::utils</text>
<text text-anchor="middle" x="951" y="-230.445" font-family="Helvetica,sans-Serif" font-size="10.00">::KinFitter</text>
</a>
</g>
</g>
<!-- Node12&#45;&gt;Node2 -->
<g id="edge27" class="edge"><title>Node12&#45;&gt;Node2</title>
<path fill="none" stroke="#9a32cd" stroke-dasharray="5,2" d="M1009.08,-251.623C1039.98,-258.743 1072.24,-266.15 1074,-266.445 1194.78,-286.622 1228.42,-269.072 1348,-295.445 1396.34,-306.106 1450.01,-325.683 1484.56,-339.35"/>
<polygon fill="#9a32cd" stroke="#9a32cd" points="1009.66,-248.166 999.134,-249.33 1008.09,-254.987 1009.66,-248.166"/>
<text text-anchor="middle" x="1260" y="-298.445" font-family="Helvetica,sans-Serif" font-size="10.00"> kinfit</text>
</g>
<!-- Node12&#45;&gt;Node11 -->
<g id="edge10" class="edge"><title>Node12&#45;&gt;Node11</title>
<path fill="none" stroke="midnightblue" d="M1009.48,-231.892C1067.95,-225.226 1157.48,-215.018 1211.9,-208.814"/>
<polygon fill="midnightblue" stroke="midnightblue" points="1008.84,-228.442 999.296,-233.053 1009.63,-235.397 1008.84,-228.442"/>
</g>
<!-- Node13 -->
<g id="node12" class="node"><title>Node13</title>
<g id="a_node12"><a xlink:href="classant_1_1analysis_1_1utils_1_1_fitter.html" target="_top" xlink:title="ant::analysis::utils\l::Fitter">
<polygon fill="white" stroke="black" points="630,-99.4447 630,-129.445 726,-129.445 726,-99.4447 630,-99.4447"/>
<text text-anchor="start" x="638" y="-117.445" font-family="Helvetica,sans-Serif" font-size="10.00">ant::analysis::utils</text>
<text text-anchor="middle" x="678" y="-106.445" font-family="Helvetica,sans-Serif" font-size="10.00">::Fitter</text>
</a>
</g>
</g>
<!-- Node13&#45;&gt;Node12 -->
<g id="edge11" class="edge"><title>Node13&#45;&gt;Node12</title>
<path fill="none" stroke="midnightblue" d="M736.061,-128.238C746.222,-131.423 756.567,-135.159 766,-139.445 795.857,-153.007 805.831,-155.281 828,-179.445 839.559,-192.044 832.492,-202.963 846,-213.445 862.138,-225.967 883.609,-232.344 902.851,-235.544"/>
<polygon fill="midnightblue" stroke="midnightblue" points="736.994,-124.864 726.411,-125.352 734.989,-131.57 736.994,-124.864"/>
</g>
<!-- Node14 -->
<g id="node13" class="node"><title>Node14</title>
<g id="a_node13"><a xlink:href="structant_1_1analysis_1_1utils_1_1_kin_fitter_1_1_target__t.html" target="_top" xlink:title="ant::analysis::utils\l::KinFitter::Target_t">
<polygon fill="white" stroke="black" points="627.5,-236.445 627.5,-266.445 728.5,-266.445 728.5,-236.445 627.5,-236.445"/>
<text text-anchor="start" x="635.5" y="-254.445" font-family="Helvetica,sans-Serif" font-size="10.00">ant::analysis::utils</text>
<text text-anchor="middle" x="678" y="-243.445" font-family="Helvetica,sans-Serif" font-size="10.00">::KinFitter::Target_t</text>
</a>
</g>
</g>
<!-- Node14&#45;&gt;Node12 -->
<g id="edge12" class="edge"><title>Node14&#45;&gt;Node12</title>
<path fill="none" stroke="#9a32cd" stroke-dasharray="5,2" d="M738.929,-248.57C788.312,-246.201 857.383,-242.888 902.878,-240.705"/>
<polygon fill="#9a32cd" stroke="#9a32cd" points="738.526,-245.085 728.706,-249.06 738.862,-252.077 738.526,-245.085"/>
<text text-anchor="middle" x="806" y="-249.445" font-family="Helvetica,sans-Serif" font-size="10.00"> Target</text>
</g>
<!-- Node15 -->
<g id="node14" class="node"><title>Node15</title>
<g id="a_node14"><a xlink:href="structant_1_1analysis_1_1utils_1_1_kin_fitter_1_1_beam_e__t.html" target="_top" xlink:title="ant::analysis::utils\l::KinFitter::BeamE_t">
<polygon fill="white" stroke="black" points="625,-187.445 625,-217.445 731,-217.445 731,-187.445 625,-187.445"/>
<text text-anchor="start" x="633" y="-205.445" font-family="Helvetica,sans-Serif" font-size="10.00">ant::analysis::utils</text>
<text text-anchor="middle" x="678" y="-194.445" font-family="Helvetica,sans-Serif" font-size="10.00">::KinFitter::BeamE_t</text>
</a>
</g>
</g>
<!-- Node15&#45;&gt;Node12 -->
<g id="edge13" class="edge"><title>Node15&#45;&gt;Node12</title>
<path fill="none" stroke="#9a32cd" stroke-dasharray="5,2" d="M741.456,-210.741C790.652,-217.277 858.169,-226.246 902.892,-232.187"/>
<polygon fill="#9a32cd" stroke="#9a32cd" points="741.625,-207.233 731.252,-209.386 740.704,-214.172 741.625,-207.233"/>
<text text-anchor="middle" x="806" y="-225.445" font-family="Helvetica,sans-Serif" font-size="10.00"> BeamE</text>
</g>
<!-- Node16 -->
<g id="node15" class="node"><title>Node16</title>
<polygon fill="white" stroke="#bfbfbf" points="417,-192.945 417,-211.945 473,-211.945 473,-192.945 417,-192.945"/>
<text text-anchor="middle" x="445" y="-199.945" font-family="Helvetica,sans-Serif" font-size="10.00">V_S_P_t</text>
</g>
<!-- Node16&#45;&gt;Node15 -->
<g id="edge14" class="edge"><title>Node16&#45;&gt;Node15</title>
<path fill="none" stroke="midnightblue" d="M483.62,-202.445C521.963,-202.445 581.744,-202.445 624.689,-202.445"/>
<polygon fill="midnightblue" stroke="midnightblue" points="483.406,-198.945 473.406,-202.445 483.406,-205.945 483.406,-198.945"/>
</g>
<!-- Node17 -->
<g id="node16" class="node"><title>Node17</title>
<polygon fill="white" stroke="#bfbfbf" points="615.5,-148.945 615.5,-167.945 740.5,-167.945 740.5,-148.945 615.5,-148.945"/>
<text text-anchor="middle" x="678" y="-155.945" font-family="Helvetica,sans-Serif" font-size="10.00">std::vector&lt; FitParticle &gt;</text>
</g>
<!-- Node17&#45;&gt;Node12 -->
<g id="edge15" class="edge"><title>Node17&#45;&gt;Node12</title>
<path fill="none" stroke="#9a32cd" stroke-dasharray="5,2" d="M739.53,-170.286C748.469,-172.432 757.52,-174.829 766,-177.445 794.392,-186.201 801.456,-189.097 828,-202.445 836.376,-206.657 837.336,-209.861 846,-213.445 864.018,-220.898 884.751,-226.443 902.941,-230.391"/>
<polygon fill="#9a32cd" stroke="#9a32cd" points="740.052,-166.814 729.521,-167.971 738.475,-173.634 740.052,-166.814"/>
<text text-anchor="middle" x="806" y="-205.445" font-family="Helvetica,sans-Serif" font-size="10.00"> Photons</text>
</g>
<!-- Node18 -->
<g id="node17" class="node"><title>Node18</title>
<polygon fill="white" stroke="#bfbfbf" points="898,-59.9447 898,-78.9447 1004,-78.9447 1004,-59.9447 898,-59.9447"/>
<text text-anchor="middle" x="951" y="-66.9447" font-family="Helvetica,sans-Serif" font-size="10.00">std::vector&lt; tree_t &gt;</text>
</g>
<!-- Node18&#45;&gt;Node11 -->
<g id="edge16" class="edge"><title>Node18&#45;&gt;Node11</title>
<path fill="none" stroke="#9a32cd" stroke-dasharray="5,2" d="M1014.15,-62.0366C1058.63,-60.349 1116.97,-66.073 1154,-100.445 1180.08,-124.647 1147.52,-152.629 1172,-178.445 1182.38,-189.392 1197.21,-195.644 1211.69,-199.183"/>
<polygon fill="#9a32cd" stroke="#9a32cd" points="1013.83,-58.5482 1004.02,-62.5558 1014.19,-65.539 1013.83,-58.5482"/>
<text text-anchor="middle" x="1114" y="-103.445" font-family="Helvetica,sans-Serif" font-size="10.00"> tree_leaves</text>
</g>
<!-- Node19 -->
<g id="node18" class="node"><title>Node19</title>
<polygon fill="white" stroke="#bfbfbf" points="878,-272.445 878,-302.445 1024,-302.445 1024,-272.445 878,-272.445"/>
<text text-anchor="start" x="886" y="-290.445" font-family="Helvetica,sans-Serif" font-size="10.00">std::list&lt; ant::analysis</text>
<text text-anchor="middle" x="951" y="-279.445" font-family="Helvetica,sans-Serif" font-size="10.00">::utils::TreeFitter::iteration_t &gt;</text>
</g>
<!-- Node19&#45;&gt;Node11 -->
<g id="edge17" class="edge"><title>Node19&#45;&gt;Node11</title>
<path fill="none" stroke="#9a32cd" stroke-dasharray="5,2" d="M1026.6,-269.96C1036.5,-267.508 1046.51,-264.963 1056,-262.445 1109.57,-248.231 1170.57,-230.258 1211.6,-217.906"/>
<polygon fill="#9a32cd" stroke="#9a32cd" points="1025.63,-266.594 1016.75,-272.377 1027.3,-273.393 1025.63,-266.594"/>
<text text-anchor="middle" x="1114" y="-260.445" font-family="Helvetica,sans-Serif" font-size="10.00"> iterations</text>
</g>
<!-- Node20 -->
<g id="node19" class="node"><title>Node20</title>
<g id="a_node19"><a xlink:href="structant_1_1analysis_1_1utils_1_1_tree_fitter_1_1iteration__t.html" target="_top" xlink:title="ant::analysis::utils\l::TreeFitter::iteration_t">
<polygon fill="white" stroke="black" points="621.5,-285.445 621.5,-315.445 734.5,-315.445 734.5,-285.445 621.5,-285.445"/>
<text text-anchor="start" x="629.5" y="-303.445" font-family="Helvetica,sans-Serif" font-size="10.00">ant::analysis::utils</text>
<text text-anchor="middle" x="678" y="-292.445" font-family="Helvetica,sans-Serif" font-size="10.00">::TreeFitter::iteration_t</text>
</a>
</g>
</g>
<!-- Node20&#45;&gt;Node19 -->
<g id="edge18" class="edge"><title>Node20&#45;&gt;Node19</title>
<path fill="none" stroke="#9a32cd" stroke-dasharray="5,2" d="M745.043,-297.277C785.204,-295.35 836.522,-292.888 877.76,-290.91"/>
<polygon fill="#9a32cd" stroke="#9a32cd" points="744.644,-293.792 734.823,-297.767 744.979,-300.784 744.644,-293.792"/>
<text text-anchor="middle" x="806" y="-298.445" font-family="Helvetica,sans-Serif" font-size="10.00"> elements</text>
</g>
<!-- Node21 -->
<g id="node20" class="node"><title>Node21</title>
<polygon fill="white" stroke="#bfbfbf" points="380.5,-279.945 380.5,-320.945 509.5,-320.945 509.5,-279.945 380.5,-279.945"/>
<text text-anchor="start" x="388.5" y="-308.945" font-family="Helvetica,sans-Serif" font-size="10.00">std::vector&lt; ant::analysis</text>
<text text-anchor="start" x="388.5" y="-297.945" font-family="Helvetica,sans-Serif" font-size="10.00">::utils::TreeFitter::iteration</text>
<text text-anchor="middle" x="445" y="-286.945" font-family="Helvetica,sans-Serif" font-size="10.00">_t::photon_t &gt;</text>
</g>
<!-- Node21&#45;&gt;Node20 -->
<g id="edge19" class="edge"><title>Node21&#45;&gt;Node20</title>
<path fill="none" stroke="#9a32cd" stroke-dasharray="5,2" d="M519.77,-300.445C552.698,-300.445 590.854,-300.445 621.332,-300.445"/>
<polygon fill="#9a32cd" stroke="#9a32cd" points="519.733,-296.945 509.733,-300.445 519.733,-303.945 519.733,-296.945"/>
<text text-anchor="middle" x="550" y="-303.445" font-family="Helvetica,sans-Serif" font-size="10.00"> Photons</text>
</g>
<!-- Node22 -->
<g id="node21" class="node"><title>Node22</title>
<g id="a_node21"><a xlink:href="structant_1_1analysis_1_1utils_1_1_tree_fitter_1_1iteration__t_1_1photon__t.html" target="_top" xlink:title="ant::analysis::utils\l::TreeFitter::iteration\l_t::photon_t">
<polygon fill="white" stroke="black" points="194.5,-279.945 194.5,-320.945 299.5,-320.945 299.5,-279.945 194.5,-279.945"/>
<text text-anchor="start" x="202.5" y="-308.945" font-family="Helvetica,sans-Serif" font-size="10.00">ant::analysis::utils</text>
<text text-anchor="start" x="202.5" y="-297.945" font-family="Helvetica,sans-Serif" font-size="10.00">::TreeFitter::iteration</text>
<text text-anchor="middle" x="247" y="-286.945" font-family="Helvetica,sans-Serif" font-size="10.00">_t::photon_t</text>
</a>
</g>
</g>
<!-- Node22&#45;&gt;Node21 -->
<g id="edge20" class="edge"><title>Node22&#45;&gt;Node21</title>
<path fill="none" stroke="#9a32cd" stroke-dasharray="5,2" d="M309.853,-300.445C332.333,-300.445 357.764,-300.445 380.393,-300.445"/>
<polygon fill="#9a32cd" stroke="#9a32cd" points="309.753,-296.945 299.753,-300.445 309.753,-303.945 309.753,-296.945"/>
<text text-anchor="middle" x="340" y="-303.445" font-family="Helvetica,sans-Serif" font-size="10.00"> elements</text>
</g>
<!-- Node23 -->
<g id="node22" class="node"><title>Node23</title>
<g id="a_node22"><a xlink:href="structant_1_1std__ext_1_1cc__shared__ptr.html" target="_top" xlink:title="ant::std_ext::cc_shared\l_ptr\&lt; TParticle \&gt;">
<polygon fill="white" stroke="black" points="0.5,-285.445 0.5,-315.445 119.5,-315.445 119.5,-285.445 0.5,-285.445"/>
<text text-anchor="start" x="8.5" y="-303.445" font-family="Helvetica,sans-Serif" font-size="10.00">ant::std_ext::cc_shared</text>
<text text-anchor="middle" x="60" y="-292.445" font-family="Helvetica,sans-Serif" font-size="10.00">_ptr&lt; TParticle &gt;</text>
</a>
</g>
</g>
<!-- Node23&#45;&gt;Node22 -->
<g id="edge21" class="edge"><title>Node23&#45;&gt;Node22</title>
<path fill="none" stroke="#9a32cd" stroke-dasharray="5,2" d="M129.57,-300.445C151.026,-300.445 174.326,-300.445 194.406,-300.445"/>
<polygon fill="#9a32cd" stroke="#9a32cd" points="129.535,-296.945 119.535,-300.445 129.535,-303.945 129.535,-296.945"/>
<text text-anchor="middle" x="157" y="-303.445" font-family="Helvetica,sans-Serif" font-size="10.00"> Particle</text>
</g>
<!-- Node24 -->
<g id="node23" class="node"><title>Node24</title>
<polygon fill="white" stroke="#bfbfbf" points="888,-174.445 888,-204.445 1014,-204.445 1014,-174.445 888,-174.445"/>
<text text-anchor="start" x="896" y="-192.445" font-family="Helvetica,sans-Serif" font-size="10.00">std::vector&lt; std::function</text>
<text text-anchor="middle" x="951" y="-181.445" font-family="Helvetica,sans-Serif" font-size="10.00">&lt; void()&gt; &gt;</text>
</g>
<!-- Node24&#45;&gt;Node11 -->
<g id="edge22" class="edge"><title>Node24&#45;&gt;Node11</title>
<path fill="none" stroke="#9a32cd" stroke-dasharray="5,2" d="M1024.47,-188.953C1062.98,-189.087 1111.09,-189.884 1154,-192.445 1172.94,-193.575 1193.72,-195.589 1211.77,-197.588"/>
<polygon fill="#9a32cd" stroke="#9a32cd" points="1024.39,-185.453 1014.39,-188.932 1024.38,-192.453 1024.39,-185.453"/>
<text text-anchor="middle" x="1114" y="-195.445" font-family="Helvetica,sans-Serif" font-size="10.00"> sum_daughters</text>
</g>
<!-- Node25 -->
<g id="node24" class="node"><title>Node25</title>
<polygon fill="white" stroke="#bfbfbf" points="881,-135.945 881,-154.945 1021,-154.945 1021,-135.945 881,-135.945"/>
<text text-anchor="middle" x="951" y="-142.945" font-family="Helvetica,sans-Serif" font-size="10.00">std::vector&lt; permutation_t &gt;</text>
</g>
<!-- Node25&#45;&gt;Node11 -->
<g id="edge23" class="edge"><title>Node25&#45;&gt;Node11</title>
<path fill="none" stroke="#9a32cd" stroke-dasharray="5,2" d="M1031.39,-155.121C1068.76,-160.216 1113.86,-167.139 1154,-175.445 1173.12,-179.401 1193.94,-184.735 1211.97,-189.686"/>
<polygon fill="#9a32cd" stroke="#9a32cd" points="1031.44,-151.596 1021.06,-153.733 1030.5,-158.534 1031.44,-151.596"/>
<text text-anchor="middle" x="1114" y="-178.445" font-family="Helvetica,sans-Serif" font-size="10.00"> permutations</text>
</g>
<!-- Node26 -->
<g id="node25" class="node"><title>Node26</title>
<g id="a_node25"><a xlink:title="STL class. ">
<polygon fill="white" stroke="#bfbfbf" points="634.5,-60.9447 634.5,-79.9447 721.5,-79.9447 721.5,-60.9447 634.5,-60.9447"/>
<text text-anchor="middle" x="678" y="-67.9447" font-family="Helvetica,sans-Serif" font-size="10.00">std::vector&lt; T &gt;</text>
</a>
</g>
</g>
<!-- Node26&#45;&gt;Node25 -->
<g id="edge24" class="edge"><title>Node26&#45;&gt;Node25</title>
<path fill="none" stroke="#9a32cd" stroke-dasharray="5,2" d="M731.862,-65.3573C762.567,-65.1019 800.494,-69.707 828,-89.4447 842.858,-100.106 831.435,-115.387 846,-126.445 856.087,-134.103 868.292,-139.013 880.74,-142.1"/>
<polygon fill="#9a32cd" stroke="#9a32cd" points="731.659,-61.8612 721.751,-65.6154 731.837,-68.859 731.659,-61.8612"/>
<text text-anchor="middle" x="806" y="-92.4447" font-family="Helvetica,sans-Serif" font-size="10.00"> elements</text>
</g>
<!-- Node27 -->
<g id="node26" class="node"><title>Node27</title>
<polygon fill="white" stroke="#bfbfbf" points="430.5,-37.9447 430.5,-56.9447 459.5,-56.9447 459.5,-37.9447 430.5,-37.9447"/>
<text text-anchor="middle" x="445" y="-44.9447" font-family="Helvetica,sans-Serif" font-size="10.00">T</text>
</g>
<!-- Node27&#45;&gt;Node26 -->
<g id="edge25" class="edge"><title>Node27&#45;&gt;Node26</title>
<path fill="none" stroke="#9a32cd" stroke-dasharray="5,2" d="M470.088,-49.8431C508.959,-53.7133 586.036,-61.3876 634.358,-66.1989"/>
<polygon fill="#9a32cd" stroke="#9a32cd" points="470.056,-46.3226 459.758,-48.8145 469.362,-53.2882 470.056,-46.3226"/>
<text text-anchor="middle" x="550" y="-63.4447" font-family="Helvetica,sans-Serif" font-size="10.00"> elements</text>
</g>
<!-- Node38 -->
<g id="node37" class="node"><title>Node38</title>
<g id="a_node37"><a xlink:title="STL class. ">
<polygon fill="white" stroke="#bfbfbf" points="626,-11.4447 626,-41.4447 730,-41.4447 730,-11.4447 626,-11.4447"/>
<text text-anchor="start" x="634" y="-29.4447" font-family="Helvetica,sans-Serif" font-size="10.00">std::vector&lt; interval</text>
<text text-anchor="middle" x="678" y="-18.4447" font-family="Helvetica,sans-Serif" font-size="10.00">&lt; double &gt; &gt;</text>
</a>
</g>
</g>
<!-- Node27&#45;&gt;Node38 -->
<g id="edge40" class="edge"><title>Node27&#45;&gt;Node38</title>
<path fill="none" stroke="#9a32cd" stroke-dasharray="5,2" d="M469.797,-42.1759C486.095,-38.7938 508.249,-34.6378 528,-32.4447 560.421,-28.8447 597.023,-27.3349 625.836,-26.7299"/>
<polygon fill="#9a32cd" stroke="#9a32cd" points="468.602,-38.852 459.552,-44.3602 470.062,-45.6981 468.602,-38.852"/>
<text text-anchor="middle" x="550" y="-35.4447" font-family="Helvetica,sans-Serif" font-size="10.00"> elements</text>
</g>
<!-- Node28 -->
<g id="node27" class="node"><title>Node28</title>
<polygon fill="white" stroke="#bfbfbf" points="872,-97.9447 872,-116.945 1030,-116.945 1030,-97.9447 872,-97.9447"/>
<text text-anchor="middle" x="951" y="-104.945" font-family="Helvetica,sans-Serif" font-size="10.00">std::vector&lt; node_constraint_t &gt;</text>
</g>
<!-- Node28&#45;&gt;Node11 -->
<g id="edge26" class="edge"><title>Node28&#45;&gt;Node11</title>
<path fill="none" stroke="#9a32cd" stroke-dasharray="5,2" d="M1040.16,-108.74C1078.19,-113.155 1121.33,-123.732 1154,-147.445 1166.89,-156.804 1159.44,-168.648 1172,-178.445 1183.4,-187.335 1197.84,-193.064 1211.67,-196.756"/>
<polygon fill="#9a32cd" stroke="#9a32cd" points="1040.41,-105.247 1030.1,-107.699 1039.69,-112.209 1040.41,-105.247"/>
<text text-anchor="middle" x="1114" y="-150.445" font-family="Helvetica,sans-Serif" font-size="10.00"> node_constraints</text>
</g>
<!-- Node29 -->
<g id="node28" class="node"><title>Node29</title>
<g id="a_node28"><a xlink:href="structant_1_1analysis_1_1physics_1_1_meson_dalitz_decays_1_1_reaction_channel_list__t.html" target="_top" xlink:title="ant::analysis::physics\l::MesonDalitzDecays::Reaction\lChannelList_t">
<polygon fill="white" stroke="black" points="1182,-470.945 1182,-511.945 1338,-511.945 1338,-470.945 1182,-470.945"/>
<text text-anchor="start" x="1190" y="-499.945" font-family="Helvetica,sans-Serif" font-size="10.00">ant::analysis::physics</text>
<text text-anchor="start" x="1190" y="-488.945" font-family="Helvetica,sans-Serif" font-size="10.00">::MesonDalitzDecays::Reaction</text>
<text text-anchor="middle" x="1260" y="-477.945" font-family="Helvetica,sans-Serif" font-size="10.00">ChannelList_t</text>
</a>
</g>
</g>
<!-- Node29&#45;&gt;Node2 -->
<g id="edge28" class="edge"><title>Node29&#45;&gt;Node2</title>
<path fill="none" stroke="#9a32cd" stroke-dasharray="5,2" d="M1348.61,-485.101C1381.75,-479.522 1418.55,-469.248 1448,-450.445 1479.59,-430.275 1502.69,-391.376 1513.73,-369.801"/>
<polygon fill="#9a32cd" stroke="#9a32cd" points="1347.8,-481.686 1338.45,-486.686 1348.87,-488.602 1347.8,-481.686"/>
<text text-anchor="middle" x="1407" y="-484.445" font-family="Helvetica,sans-Serif" font-size="10.00"> reaction_channels</text>
</g>
<!-- Node30 -->
<g id="node29" class="node"><title>Node30</title>
<polygon fill="white" stroke="#bfbfbf" points="846.5,-479.945 846.5,-520.945 1055.5,-520.945 1055.5,-479.945 846.5,-479.945"/>
<text text-anchor="start" x="854.5" y="-508.945" font-family="Helvetica,sans-Serif" font-size="10.00">std::map&lt; unsigned,</text>
<text text-anchor="start" x="854.5" y="-497.945" font-family="Helvetica,sans-Serif" font-size="10.00"> ant::analysis::physics</text>
<text text-anchor="middle" x="951" y="-486.945" font-family="Helvetica,sans-Serif" font-size="10.00">::MesonDalitzDecays::ReactionChannel_t &gt;</text>
</g>
<!-- Node30&#45;&gt;Node29 -->
<g id="edge29" class="edge"><title>Node30&#45;&gt;Node29</title>
<path fill="none" stroke="#9a32cd" stroke-dasharray="5,2" d="M1065.76,-497.11C1104.36,-495.978 1146.56,-494.741 1181.65,-493.712"/>
<polygon fill="#9a32cd" stroke="#9a32cd" points="1065.4,-493.619 1055.51,-497.41 1065.61,-500.616 1065.4,-493.619"/>
<text text-anchor="middle" x="1114" y="-500.445" font-family="Helvetica,sans-Serif" font-size="10.00"> channels</text>
</g>
<!-- Node31 -->
<g id="node30" class="node"><title>Node31</title>
<g id="a_node30"><a xlink:href="structant_1_1analysis_1_1physics_1_1_meson_dalitz_decays_1_1_reaction_channel__t.html" target="_top" xlink:title="ant::analysis::physics\l::MesonDalitzDecays::Reaction\lChannel_t">
<polygon fill="white" stroke="black" points="600,-479.945 600,-520.945 756,-520.945 756,-479.945 600,-479.945"/>
<text text-anchor="start" x="608" y="-508.945" font-family="Helvetica,sans-Serif" font-size="10.00">ant::analysis::physics</text>
<text text-anchor="start" x="608" y="-497.945" font-family="Helvetica,sans-Serif" font-size="10.00">::MesonDalitzDecays::Reaction</text>
<text text-anchor="middle" x="678" y="-486.945" font-family="Helvetica,sans-Serif" font-size="10.00">Channel_t</text>
</a>
</g>
</g>
<!-- Node31&#45;&gt;Node30 -->
<g id="edge30" class="edge"><title>Node31&#45;&gt;Node30</title>
<path fill="none" stroke="#9a32cd" stroke-dasharray="5,2" d="M766.299,-500.445C791.792,-500.445 819.903,-500.445 846.306,-500.445"/>
<polygon fill="#9a32cd" stroke="#9a32cd" points="766.295,-496.945 756.295,-500.445 766.295,-503.945 766.295,-496.945"/>
<text text-anchor="middle" x="806" y="-503.445" font-family="Helvetica,sans-Serif" font-size="10.00"> elements</text>
</g>
<!-- Node32 -->
<g id="node31" class="node"><title>Node32</title>
<g id="a_node31"><a xlink:title="STL class. ">
<polygon fill="white" stroke="#bfbfbf" points="415,-461.945 415,-480.945 475,-480.945 475,-461.945 415,-461.945"/>
<text text-anchor="middle" x="445" y="-468.945" font-family="Helvetica,sans-Serif" font-size="10.00">std::string</text>
</a>
</g>
</g>
<!-- Node32&#45;&gt;Node31 -->
<g id="edge31" class="edge"><title>Node32&#45;&gt;Node31</title>
<path fill="none" stroke="#9a32cd" stroke-dasharray="5,2" d="M485.338,-476.383C516.676,-480.317 561.51,-485.946 599.937,-490.77"/>
<polygon fill="#9a32cd" stroke="#9a32cd" points="485.614,-472.891 475.256,-475.118 484.742,-479.836 485.614,-472.891"/>
<text text-anchor="middle" x="550" y="-490.445" font-family="Helvetica,sans-Serif" font-size="10.00"> name</text>
</g>
<!-- Node34 -->
<g id="node33" class="node"><title>Node34</title>
<polygon fill="white" stroke="#bfbfbf" points="858.5,-419.945 858.5,-460.945 1043.5,-460.945 1043.5,-419.945 858.5,-419.945"/>
<text text-anchor="start" x="866.5" y="-448.945" font-family="Helvetica,sans-Serif" font-size="10.00">std::map&lt; std::string,</text>
<text text-anchor="start" x="866.5" y="-437.945" font-family="Helvetica,sans-Serif" font-size="10.00"> ant::analysis::physics</text>
<text text-anchor="middle" x="951" y="-426.945" font-family="Helvetica,sans-Serif" font-size="10.00">::MesonDalitzDecays::PerChannel_t &gt;</text>
</g>
<!-- Node32&#45;&gt;Node34 -->
<g id="edge34" class="edge"><title>Node32&#45;&gt;Node34</title>
<path fill="none" stroke="#9a32cd" stroke-dasharray="5,2" d="M485.33,-467.842C514.263,-465.272 554.557,-461.856 590,-459.445 681.166,-453.242 785.438,-447.934 858.215,-444.518"/>
<polygon fill="#9a32cd" stroke="#9a32cd" points="484.863,-464.37 475.215,-468.748 485.487,-471.342 484.863,-464.37"/>
<text text-anchor="middle" x="678" y="-462.445" font-family="Helvetica,sans-Serif" font-size="10.00"> keys</text>
</g>
<!-- Node35 -->
<g id="node34" class="node"><title>Node35</title>
<g id="a_node34"><a xlink:href="structant_1_1analysis_1_1physics_1_1_meson_dalitz_decays_1_1_per_channel__t.html" target="_top" xlink:title="ant::analysis::physics\l::MesonDalitzDecays::PerChannel_t">
<polygon fill="white" stroke="black" points="590,-383.445 590,-413.445 766,-413.445 766,-383.445 590,-383.445"/>
<text text-anchor="start" x="598" y="-401.445" font-family="Helvetica,sans-Serif" font-size="10.00">ant::analysis::physics</text>
<text text-anchor="middle" x="678" y="-390.445" font-family="Helvetica,sans-Serif" font-size="10.00">::MesonDalitzDecays::PerChannel_t</text>
</a>
</g>
</g>
<!-- Node32&#45;&gt;Node35 -->
<g id="edge36" class="edge"><title>Node32&#45;&gt;Node35</title>
<path fill="none" stroke="#9a32cd" stroke-dasharray="5,2" d="M463.943,-454.947C479.61,-441.59 503.605,-423.549 528,-414.445 547.378,-407.213 569.09,-402.929 589.817,-400.461"/>
<polygon fill="#9a32cd" stroke="#9a32cd" points="461.347,-452.569 456.146,-461.8 465.968,-457.827 461.347,-452.569"/>
<text text-anchor="middle" x="550" y="-428.445" font-family="Helvetica,sans-Serif" font-size="10.00"> title</text>
<text text-anchor="middle" x="550" y="-417.445" font-family="Helvetica,sans-Serif" font-size="10.00">name</text>
</g>
<!-- Node32&#45;&gt;Node40 -->
<g id="edge43" class="edge"><title>Node32&#45;&gt;Node40</title>
<path fill="none" stroke="#9a32cd" stroke-dasharray="5,2" d="M473.219,-485.8C501.514,-499.901 547.525,-520.551 590,-529.445 795.286,-572.426 1043.67,-564.74 1172.32,-556.467"/>
<polygon fill="#9a32cd" stroke="#9a32cd" points="474.486,-482.519 463.984,-481.116 471.319,-488.761 474.486,-482.519"/>
<text text-anchor="middle" x="806" y="-562.445" font-family="Helvetica,sans-Serif" font-size="10.00"> keys</text>
</g>
<!-- Node33 -->
<g id="node32" class="node"><title>Node33</title>
<g id="a_node32"><a xlink:title="STL class. ">
<polygon fill="white" stroke="#bfbfbf" points="199.5,-456.445 199.5,-486.445 294.5,-486.445 294.5,-456.445 199.5,-456.445"/>
<text text-anchor="start" x="207.5" y="-474.445" font-family="Helvetica,sans-Serif" font-size="10.00">std::basic_string&lt;</text>
<text text-anchor="middle" x="247" y="-463.445" font-family="Helvetica,sans-Serif" font-size="10.00"> char &gt;</text>
</a>
</g>
</g>
<!-- Node33&#45;&gt;Node32 -->
<g id="edge32" class="edge"><title>Node33&#45;&gt;Node32</title>
<path fill="none" stroke="midnightblue" d="M305.296,-471.445C341.201,-471.445 385.97,-471.445 414.767,-471.445"/>
<polygon fill="midnightblue" stroke="midnightblue" points="304.947,-467.945 294.947,-471.445 304.947,-474.945 304.947,-467.945"/>
</g>
<!-- Node34&#45;&gt;Node2 -->
<g id="edge33" class="edge"><title>Node34&#45;&gt;Node2</title>
<path fill="none" stroke="#9a32cd" stroke-dasharray="5,2" d="M1053.89,-440C1155.72,-437.055 1315.75,-425.584 1448,-385.445 1461.97,-381.206 1476.88,-375.162 1489.57,-369.536"/>
<polygon fill="#9a32cd" stroke="#9a32cd" points="1053.51,-436.509 1043.61,-440.275 1053.7,-443.507 1053.51,-436.509"/>
<text text-anchor="middle" x="1260" y="-436.445" font-family="Helvetica,sans-Serif" font-size="10.00"> channels</text>
</g>
<!-- Node35&#45;&gt;Node34 -->
<g id="edge35" class="edge"><title>Node35&#45;&gt;Node34</title>
<path fill="none" stroke="#9a32cd" stroke-dasharray="5,2" d="M776.353,-413.533C803.047,-417.67 831.89,-422.14 858.258,-426.226"/>
<polygon fill="#9a32cd" stroke="#9a32cd" points="776.656,-410.038 766.238,-411.965 775.584,-416.955 776.656,-410.038"/>
<text text-anchor="middle" x="806" y="-424.445" font-family="Helvetica,sans-Serif" font-size="10.00"> elements</text>
</g>
<!-- Node36 -->
<g id="node35" class="node"><title>Node36</title>
<g id="a_node35"><a xlink:href="classant_1_1analysis_1_1_prompt_random_1_1_switch.html" target="_top" xlink:title="ant::analysis::PromptRandom\l::Switch">
<polygon fill="white" stroke="black" points="1187,-139.445 1187,-169.445 1333,-169.445 1333,-139.445 1187,-139.445"/>
<text text-anchor="start" x="1195" y="-157.445" font-family="Helvetica,sans-Serif" font-size="10.00">ant::analysis::PromptRandom</text>
<text text-anchor="middle" x="1260" y="-146.445" font-family="Helvetica,sans-Serif" font-size="10.00">::Switch</text>
</a>
</g>
</g>
<!-- Node36&#45;&gt;Node2 -->
<g id="edge37" class="edge"><title>Node36&#45;&gt;Node2</title>
<path fill="none" stroke="#9a32cd" stroke-dasharray="5,2" d="M1343.1,-161.667C1378.58,-168.365 1418.6,-181.144 1448,-205.445 1491.3,-241.232 1510.99,-308.952 1517.92,-339.192"/>
<polygon fill="#9a32cd" stroke="#9a32cd" points="1343.68,-158.216 1333.23,-159.935 1342.47,-165.111 1343.68,-158.216"/>
<text text-anchor="middle" x="1407" y="-208.445" font-family="Helvetica,sans-Serif" font-size="10.00"> promptrandom</text>
</g>
<!-- Node37 -->
<g id="node36" class="node"><title>Node37</title>
<g id="a_node36"><a xlink:href="classant_1_1_piecewise_interval.html" target="_top" xlink:title="ant::PiecewiseInterval\l\&lt; double \&gt;">
<polygon fill="white" stroke="black" points="894.5,-10.4447 894.5,-40.4447 1007.5,-40.4447 1007.5,-10.4447 894.5,-10.4447"/>
<text text-anchor="start" x="902.5" y="-28.4447" font-family="Helvetica,sans-Serif" font-size="10.00">ant::PiecewiseInterval</text>
<text text-anchor="middle" x="951" y="-17.4447" font-family="Helvetica,sans-Serif" font-size="10.00">&lt; double &gt;</text>
</a>
</g>
</g>
<!-- Node37&#45;&gt;Node36 -->
<g id="edge38" class="edge"><title>Node37&#45;&gt;Node36</title>
<path fill="none" stroke="#9a32cd" stroke-dasharray="5,2" d="M1008.09,-8.0046C1052.79,2.12889 1114.27,7.11124 1154,-26.4447 1189.5,-56.4311 1140.94,-94.8771 1172,-129.445 1176.2,-134.121 1181.21,-137.946 1186.68,-141.072"/>
<polygon fill="#9a32cd" stroke="#9a32cd" points="1007.15,-4.63028 998.253,-10.3777 1008.8,-11.4351 1007.15,-4.63028"/>
<text text-anchor="middle" x="1114" y="-40.4447" font-family="Helvetica,sans-Serif" font-size="10.00"> promptw</text>
<text text-anchor="middle" x="1114" y="-29.4447" font-family="Helvetica,sans-Serif" font-size="10.00">randomw</text>
</g>
<!-- Node38&#45;&gt;Node37 -->
<g id="edge39" class="edge"><title>Node38&#45;&gt;Node37</title>
<path fill="none" stroke="midnightblue" d="M740.478,-26.2178C786.695,-26.0473 849.487,-25.8156 894.251,-25.6504"/>
<polygon fill="midnightblue" stroke="midnightblue" points="740.279,-22.7184 730.292,-26.2554 740.305,-29.7184 740.279,-22.7184"/>
</g>
<!-- Node39 -->
<g id="node38" class="node"><title>Node39</title>
<g id="a_node38"><a xlink:href="classant_1_1analysis_1_1utils_1_1_trigger_simulation.html" target="_top" xlink:title="ant::analysis::utils\l::TriggerSimulation">
<polygon fill="white" stroke="black" points="1211,-90.4447 1211,-120.445 1309,-120.445 1309,-90.4447 1211,-90.4447"/>
<text text-anchor="start" x="1219" y="-108.445" font-family="Helvetica,sans-Serif" font-size="10.00">ant::analysis::utils</text>
<text text-anchor="middle" x="1260" y="-97.4447" font-family="Helvetica,sans-Serif" font-size="10.00">::TriggerSimulation</text>
</a>
</g>
</g>
<!-- Node39&#45;&gt;Node2 -->
<g id="edge41" class="edge"><title>Node39&#45;&gt;Node2</title>
<path fill="none" stroke="#9a32cd" stroke-dasharray="5,2" d="M1319.07,-106.209C1359.78,-109.739 1412.98,-120.778 1448,-152.445 1504.56,-203.588 1517.34,-301.924 1520.19,-339.418"/>
<polygon fill="#9a32cd" stroke="#9a32cd" points="1319.24,-102.712 1309.01,-105.466 1318.72,-109.693 1319.24,-102.712"/>
<text text-anchor="middle" x="1407" y="-155.445" font-family="Helvetica,sans-Serif" font-size="10.00"> triggersimu</text>
</g>
<!-- Node40&#45;&gt;Node2 -->
<g id="edge42" class="edge"><title>Node40&#45;&gt;Node2</title>
<path fill="none" stroke="#9a32cd" stroke-dasharray="5,2" d="M1358.06,-537.61C1389.38,-529.929 1422.56,-517.277 1448,-496.445 1489.39,-462.553 1509.87,-399.055 1517.43,-369.854"/>
<polygon fill="#9a32cd" stroke="#9a32cd" points="1356.92,-534.279 1347.96,-539.933 1358.49,-541.101 1356.92,-534.279"/>
<text text-anchor="middle" x="1407" y="-538.445" font-family="Helvetica,sans-Serif" font-size="10.00"> productions</text>
</g>
</g>
</svg>
