<?xml version="1.0" encoding="UTF-8" standalone="no"?>
<!DOCTYPE svg PUBLIC "-//W3C//DTD SVG 1.1//EN"
 "http://www.w3.org/Graphics/SVG/1.1/DTD/svg11.dtd">
<!-- Generated by graphviz version 2.36.0 (20140111.2315)
 -->
<!-- Title: ant::calibration::PID_Energy Pages: 1 -->
<svg width="1152pt" height="253pt"
 viewBox="0.00 0.00 1152.00 253.00" xmlns="http://www.w3.org/2000/svg" xmlns:xlink="http://www.w3.org/1999/xlink">
<g id="graph0" class="graph" transform="scale(1 1) rotate(0) translate(4 249)">
<title>ant::calibration::PID_Energy</title>
<polygon fill="white" stroke="none" points="-4,4 -4,-249 1148,-249 1148,4 -4,4"/>
<!-- Node9 -->
<g id="node1" class="node"><title>Node9</title>
<polygon fill="#bfbfbf" stroke="black" points="1040,-42 1040,-72 1144,-72 1144,-42 1040,-42"/>
<text text-anchor="start" x="1048" y="-60" font-family="Helvetica,sans-Serif" font-size="10.00">ant::calibration::PID</text>
<text text-anchor="middle" x="1092" y="-49" font-family="Helvetica,sans-Serif" font-size="10.00">_Energy</text>
</g>
<!-- Node10 -->
<g id="node2" class="node"><title>Node10</title>
<g id="a_node2"><a xlink:href="classant_1_1calibration_1_1_energy.html" target="_top" xlink:title="ant::calibration::Energy">
<polygon fill="white" stroke="black" points="884.5,-85.5 884.5,-104.5 1001.5,-104.5 1001.5,-85.5 884.5,-85.5"/>
<text text-anchor="middle" x="943" y="-92.5" font-family="Helvetica,sans-Serif" font-size="10.00">ant::calibration::Energy</text>
</a>
</g>
</g>
<!-- Node10&#45;&gt;Node9 -->
<g id="edge1" class="edge"><title>Node10&#45;&gt;Node9</title>
<path fill="none" stroke="midnightblue" d="M991.01,-82.8478C1006.55,-78.8302 1023.92,-74.3409 1039.76,-70.2455"/>
<polygon fill="midnightblue" stroke="midnightblue" points="989.9,-79.5195 981.094,-85.411 991.652,-86.2968 989.9,-79.5195"/>
</g>
<!-- Node11 -->
<g id="node3" class="node"><title>Node11</title>
<g id="a_node3"><a xlink:href="classant_1_1_calibration_1_1_module.html" target="_top" xlink:title="The Module class is typically used for calibrations. ">
<polygon fill="white" stroke="black" points="606,-85.5 606,-104.5 726,-104.5 726,-85.5 606,-85.5"/>
<text text-anchor="middle" x="666" y="-92.5" font-family="Helvetica,sans-Serif" font-size="10.00">ant::Calibration::Module</text>
</a>
</g>
</g>
<!-- Node11&#45;&gt;Node10 -->
<g id="edge2" class="edge"><title>Node11&#45;&gt;Node10</title>
<path fill="none" stroke="midnightblue" d="M736.446,-95C782.088,-95 841.107,-95 884.189,-95"/>
<polygon fill="midnightblue" stroke="midnightblue" points="736.332,-91.5001 726.332,-95 736.332,-98.5001 736.332,-91.5001"/>
</g>
<!-- Node12 -->
<g id="node4" class="node"><title>Node12</title>
<g id="a_node4"><a xlink:href="classant_1_1_calibration_1_1_physics_module.html" target="_top" xlink:title="The PhysicsModule class gives the modules the ability to create histograms from events as well as fit...">
<polygon fill="white" stroke="black" points="390,-53 390,-83 514,-83 514,-53 390,-53"/>
<text text-anchor="start" x="398" y="-71" font-family="Helvetica,sans-Serif" font-size="10.00">ant::Calibration::Physics</text>
<text text-anchor="middle" x="452" y="-60" font-family="Helvetica,sans-Serif" font-size="10.00">Module</text>
</a>
</g>
</g>
<!-- Node12&#45;&gt;Node11 -->
<g id="edge3" class="edge"><title>Node12&#45;&gt;Node11</title>
<path fill="none" stroke="midnightblue" d="M524.039,-77.0475C550.607,-80.4311 580.475,-84.235 605.856,-87.4675"/>
<polygon fill="midnightblue" stroke="midnightblue" points="524.397,-73.5648 514.035,-75.7733 523.512,-80.5087 524.397,-73.5648"/>
</g>
<!-- Node13 -->
<g id="node5" class="node"><title>Node13</title>
<g id="a_node5"><a xlink:href="classant_1_1_calibration_1_1_base_module.html" target="_top" xlink:title="The BaseModule class provides a name for identification. ">
<polygon fill="white" stroke="black" points="134.5,-58.5 134.5,-77.5 277.5,-77.5 277.5,-58.5 134.5,-58.5"/>
<text text-anchor="middle" x="206" y="-65.5" font-family="Helvetica,sans-Serif" font-size="10.00">ant::Calibration::BaseModule</text>
</a>
</g>
</g>
<!-- Node13&#45;&gt;Node12 -->
<g id="edge4" class="edge"><title>Node13&#45;&gt;Node12</title>
<path fill="none" stroke="midnightblue" d="M287.725,-68C320.95,-68 358.805,-68 389.694,-68"/>
<polygon fill="midnightblue" stroke="midnightblue" points="287.575,-64.5001 277.575,-68 287.575,-71.5001 287.575,-64.5001"/>
</g>
<!-- Node14 -->
<g id="node6" class="node"><title>Node14</title>
<g id="a_node6"><a xlink:href="structant_1_1_updateable__traits.html" target="_top" xlink:title="The Updateable_traits class used by the UpdateableManager. ">
<polygon fill="white" stroke="black" points="395.5,-102.5 395.5,-121.5 508.5,-121.5 508.5,-102.5 395.5,-102.5"/>
<text text-anchor="middle" x="452" y="-109.5" font-family="Helvetica,sans-Serif" font-size="10.00">ant::Updateable_traits</text>
</a>
</g>
</g>
<!-- Node14&#45;&gt;Node11 -->
<g id="edge5" class="edge"><title>Node14&#45;&gt;Node11</title>
<path fill="none" stroke="midnightblue" d="M518.755,-106.727C546.629,-104.492 578.863,-101.907 605.964,-99.734"/>
<polygon fill="midnightblue" stroke="midnightblue" points="518.389,-103.245 508.701,-107.533 518.948,-110.223 518.389,-103.245"/>
</g>
<!-- Node15 -->
<g id="node7" class="node"><title>Node15</title>
<g id="a_node7"><a xlink:href="structant_1_1_reconstruct_hook_1_1_detector_read_hits.html" target="_top" xlink:title="The DetectorReadHits struct instances are applied before hit matching. ">
<polygon fill="white" stroke="black" points="609.5,-36 609.5,-66 722.5,-66 722.5,-36 609.5,-36"/>
<text text-anchor="start" x="617.5" y="-54" font-family="Helvetica,sans-Serif" font-size="10.00">ant::ReconstructHook</text>
<text text-anchor="middle" x="666" y="-43" font-family="Helvetica,sans-Serif" font-size="10.00">::DetectorReadHits</text>
</a>
</g>
</g>
<!-- Node15&#45;&gt;Node10 -->
<g id="edge6" class="edge"><title>Node15&#45;&gt;Node10</title>
<path fill="none" stroke="midnightblue" d="M732.542,-61.4867C778.636,-68.8618 839.752,-78.6404 884.063,-85.73"/>
<polygon fill="midnightblue" stroke="midnightblue" points="733.078,-58.028 722.65,-59.9041 731.972,-64.9401 733.078,-58.028"/>
</g>
<!-- Node16 -->
<g id="node8" class="node"><title>Node16</title>
<g id="a_node8"><a xlink:href="structant_1_1_reconstruct_hook_1_1_base.html" target="_top" xlink:title="The Base struct just defines some useful types. ">
<polygon fill="white" stroke="black" points="395.5,-0 395.5,-30 508.5,-30 508.5,-0 395.5,-0"/>
<text text-anchor="start" x="403.5" y="-18" font-family="Helvetica,sans-Serif" font-size="10.00">ant::ReconstructHook</text>
<text text-anchor="middle" x="452" y="-7" font-family="Helvetica,sans-Serif" font-size="10.00">::Base</text>
</a>
</g>
</g>
<!-- Node16&#45;&gt;Node15 -->
<g id="edge7" class="edge"><title>Node16&#45;&gt;Node15</title>
<path fill="none" stroke="midnightblue" d="M518.753,-26.1657C547.782,-31.0951 581.54,-36.8276 609.304,-41.5422"/>
<polygon fill="midnightblue" stroke="midnightblue" points="519.145,-22.6822 508.701,-24.4586 517.973,-29.5834 519.145,-22.6822"/>
</g>
<!-- Node22 -->
<g id="node14" class="node"><title>Node22</title>
<g id="a_node14"><a xlink:href="structant_1_1_reconstruct_hook_1_1_event_data.html" target="_top" xlink:title="The EventData struct instances are applied after candidate building. ">
<polygon fill="white" stroke="black" points="752.5,-0 752.5,-30 865.5,-30 865.5,-0 752.5,-0"/>
<text text-anchor="start" x="760.5" y="-18" font-family="Helvetica,sans-Serif" font-size="10.00">ant::ReconstructHook</text>
<text text-anchor="middle" x="809" y="-7" font-family="Helvetica,sans-Serif" font-size="10.00">::EventData</text>
</a>
</g>
</g>
<!-- Node16&#45;&gt;Node22 -->
<g id="edge15" class="edge"><title>Node16&#45;&gt;Node22</title>
<path fill="none" stroke="midnightblue" d="M518.917,-15C586.137,-15 689.271,-15 752.466,-15"/>
<polygon fill="midnightblue" stroke="midnightblue" points="518.859,-11.5001 508.859,-15 518.859,-18.5001 518.859,-11.5001"/>
</g>
<!-- Node17 -->
<g id="node9" class="node"><title>Node17</title>
<g id="a_node9"><a xlink:href="structant_1_1calibration_1_1_calib_type.html" target="_top" xlink:title="The CalibType struct stores the data for the Updateable interface and for the GUI. ">
<polygon fill="white" stroke="black" points="386.5,-150.5 386.5,-169.5 517.5,-169.5 517.5,-150.5 386.5,-150.5"/>
<text text-anchor="middle" x="452" y="-157.5" font-family="Helvetica,sans-Serif" font-size="10.00">ant::calibration::CalibType</text>
</a>
</g>
</g>
<!-- Node17&#45;&gt;Node10 -->
<g id="edge8" class="edge"><title>Node17&#45;&gt;Node10</title>
<path fill="none" stroke="#9a32cd" stroke-dasharray="5,2" d="M527.623,-152.133C610.478,-143.084 748.097,-127.123 866,-109 874.619,-107.675 883.761,-106.12 892.605,-104.538"/>
<polygon fill="#9a32cd" stroke="#9a32cd" points="527.109,-148.668 517.547,-153.228 527.866,-155.627 527.109,-148.668"/>
<text text-anchor="middle" x="666" y="-191" font-family="Helvetica,sans-Serif" font-size="10.00"> Thresholds_Raw</text>
<text text-anchor="middle" x="666" y="-180" font-family="Helvetica,sans-Serif" font-size="10.00">RelativeGains</text>
<text text-anchor="middle" x="666" y="-169" font-family="Helvetica,sans-Serif" font-size="10.00">Pedestals</text>
<text text-anchor="middle" x="666" y="-158" font-family="Helvetica,sans-Serif" font-size="10.00">Thresholds_MeV</text>
<text text-anchor="middle" x="666" y="-147" font-family="Helvetica,sans-Serif" font-size="10.00">Gains</text>
</g>
<!-- Node21 -->
<g id="node13" class="node"><title>Node21</title>
<polygon fill="white" stroke="#bfbfbf" points="598,-215 598,-245 734,-245 734,-215 598,-215"/>
<text text-anchor="start" x="606" y="-233" font-family="Helvetica,sans-Serif" font-size="10.00">std::vector&lt; ant::calibration</text>
<text text-anchor="middle" x="666" y="-222" font-family="Helvetica,sans-Serif" font-size="10.00">::CalibType *&gt;</text>
</g>
<!-- Node17&#45;&gt;Node21 -->
<g id="edge13" class="edge"><title>Node17&#45;&gt;Node21</title>
<path fill="none" stroke="#9a32cd" stroke-dasharray="5,2" d="M491.677,-172.771C527.625,-184.64 581.195,-202.329 619.252,-214.895"/>
<polygon fill="#9a32cd" stroke="#9a32cd" points="492.626,-169.398 482.033,-169.586 490.432,-176.045 492.626,-169.398"/>
<text text-anchor="middle" x="558" y="-204" font-family="Helvetica,sans-Serif" font-size="10.00"> elements</text>
</g>
<!-- Node18 -->
<g id="node10" class="node"><title>Node18</title>
<g id="a_node10"><a xlink:title="STL class. ">
<polygon fill="white" stroke="#bfbfbf" points="176,-118.5 176,-137.5 236,-137.5 236,-118.5 176,-118.5"/>
<text text-anchor="middle" x="206" y="-125.5" font-family="Helvetica,sans-Serif" font-size="10.00">std::string</text>
</a>
</g>
</g>
<!-- Node18&#45;&gt;Node17 -->
<g id="edge9" class="edge"><title>Node18&#45;&gt;Node17</title>
<path fill="none" stroke="#9a32cd" stroke-dasharray="5,2" d="M246.336,-128.718C279.071,-129.787 326.807,-132.436 368,-139 385.027,-141.713 403.665,-146.279 418.958,-150.462"/>
<polygon fill="#9a32cd" stroke="#9a32cd" points="246.361,-125.218 236.263,-128.424 246.156,-132.215 246.361,-125.218"/>
<text text-anchor="middle" x="332" y="-153" font-family="Helvetica,sans-Serif" font-size="10.00"> Name</text>
<text text-anchor="middle" x="332" y="-142" font-family="Helvetica,sans-Serif" font-size="10.00">HistogramName</text>
</g>
<!-- Node19 -->
<g id="node11" class="node"><title>Node19</title>
<g id="a_node11"><a xlink:title="STL class. ">
<polygon fill="white" stroke="#bfbfbf" points="0.5,-113 0.5,-143 95.5,-143 95.5,-113 0.5,-113"/>
<text text-anchor="start" x="8.5" y="-131" font-family="Helvetica,sans-Serif" font-size="10.00">std::basic_string&lt;</text>
<text text-anchor="middle" x="48" y="-120" font-family="Helvetica,sans-Serif" font-size="10.00"> char &gt;</text>
</a>
</g>
</g>
<!-- Node19&#45;&gt;Node18 -->
<g id="edge10" class="edge"><title>Node19&#45;&gt;Node18</title>
<path fill="none" stroke="midnightblue" d="M106.115,-128C129.821,-128 156.306,-128 175.895,-128"/>
<polygon fill="midnightblue" stroke="midnightblue" points="105.805,-124.5 95.8051,-128 105.805,-131.5 105.805,-124.5"/>
</g>
<!-- Node20 -->
<g id="node12" class="node"><title>Node20</title>
<polygon fill="white" stroke="#bfbfbf" points="151,-163.5 151,-182.5 261,-182.5 261,-163.5 151,-163.5"/>
<text text-anchor="middle" x="206" y="-170.5" font-family="Helvetica,sans-Serif" font-size="10.00">std::vector&lt; double &gt;</text>
</g>
<!-- Node20&#45;&gt;Node17 -->
<g id="edge11" class="edge"><title>Node20&#45;&gt;Node17</title>
<path fill="none" stroke="#9a32cd" stroke-dasharray="5,2" d="M271.382,-169.57C306.815,-167.682 350.665,-165.346 386.168,-163.454"/>
<polygon fill="#9a32cd" stroke="#9a32cd" points="270.951,-166.088 261.152,-170.115 271.324,-173.078 270.951,-166.088"/>
<text text-anchor="middle" x="332" y="-172" font-family="Helvetica,sans-Serif" font-size="10.00"> Values</text>
</g>
<!-- Node21&#45;&gt;Node10 -->
<g id="edge12" class="edge"><title>Node21&#45;&gt;Node10</title>
<path fill="none" stroke="#9a32cd" stroke-dasharray="5,2" d="M729.787,-211.839C770.096,-198.869 822.793,-179.416 866,-155 891.759,-140.444 918.021,-117.543 931.92,-104.652"/>
<polygon fill="#9a32cd" stroke="#9a32cd" points="728.556,-208.558 720.081,-214.915 730.671,-215.231 728.556,-208.558"/>
<text text-anchor="middle" x="809" y="-206" font-family="Helvetica,sans-Serif" font-size="10.00"> AllCalibrations</text>
</g>
<!-- Node22&#45;&gt;Node9 -->
<g id="edge14" class="edge"><title>Node22&#45;&gt;Node9</title>
<path fill="none" stroke="midnightblue" d="M875.602,-24.8053C925.7,-32.2932 993.75,-42.4644 1039.86,-49.3557"/>
<polygon fill="midnightblue" stroke="midnightblue" points="875.924,-21.3146 865.517,-23.2978 874.889,-28.2377 875.924,-21.3146"/>
</g>
</g>
</svg>
