<?xml version="1.0" encoding="UTF-8" standalone="no"?>
<!DOCTYPE svg PUBLIC "-//W3C//DTD SVG 1.1//EN"
 "http://www.w3.org/Graphics/SVG/1.1/DTD/svg11.dtd">
<!-- Generated by graphviz version 2.36.0 (20140111.2315)
 -->
<!-- Title: ant::analysis::physics::McTrue3Pi0 Pages: 1 -->
<svg width="550pt" height="217pt"
 viewBox="0.00 0.00 550.00 217.00" xmlns="http://www.w3.org/2000/svg" xmlns:xlink="http://www.w3.org/1999/xlink">
<g id="graph0" class="graph" transform="scale(1 1) rotate(0) translate(4 213)">
<title>ant::analysis::physics::McTrue3Pi0</title>
<polygon fill="white" stroke="none" points="-4,4 -4,-213 546,-213 546,4 -4,4"/>
<!-- Node2 -->
<g id="node1" class="node"><title>Node2</title>
<polygon fill="#bfbfbf" stroke="black" points="430,-88 430,-118 542,-118 542,-88 430,-88"/>
<text text-anchor="start" x="438" y="-106" font-family="Helvetica,sans-Serif" font-size="10.00">ant::analysis::physics</text>
<text text-anchor="middle" x="486" y="-95" font-family="Helvetica,sans-Serif" font-size="10.00">::McTrue3Pi0</text>
</g>
<!-- Node3 -->
<g id="node2" class="node"><title>Node3</title>
<g id="a_node2"><a xlink:href="classant_1_1analysis_1_1_physics.html" target="_top" xlink:title="ant::analysis::Physics">
<polygon fill="white" stroke="black" points="211.5,-184.5 211.5,-203.5 324.5,-203.5 324.5,-184.5 211.5,-184.5"/>
<text text-anchor="middle" x="268" y="-191.5" font-family="Helvetica,sans-Serif" font-size="10.00">ant::analysis::Physics</text>
</a>
</g>
</g>
<!-- Node3&#45;&gt;Node2 -->
<g id="edge1" class="edge"><title>Node3&#45;&gt;Node2</title>
<path fill="none" stroke="midnightblue" d="M334.721,-190.285C359.873,-186.903 388.212,-180.611 412,-169 436.874,-156.859 459.5,-133.654 472.762,-118.25"/>
<polygon fill="midnightblue" stroke="midnightblue" points="334.032,-186.843 324.527,-191.524 334.876,-193.792 334.032,-186.843"/>
</g>
<!-- Node4 -->
<g id="node3" class="node"><title>Node4</title>
<g id="a_node3"><a xlink:href="classant_1_1analysis_1_1_histogram_factory.html" target="_top" xlink:title="ant::analysis::Histogram\lFactory">
<polygon fill="white" stroke="black" points="0.5,-179 0.5,-209 123.5,-209 123.5,-179 0.5,-179"/>
<text text-anchor="start" x="8.5" y="-197" font-family="Helvetica,sans-Serif" font-size="10.00">ant::analysis::Histogram</text>
<text text-anchor="middle" x="62" y="-186" font-family="Helvetica,sans-Serif" font-size="10.00">Factory</text>
</a>
</g>
</g>
<!-- Node4&#45;&gt;Node3 -->
<g id="edge2" class="edge"><title>Node4&#45;&gt;Node3</title>
<path fill="none" stroke="#9a32cd" stroke-dasharray="5,2" d="M133.965,-194C159.347,-194 187.562,-194 211.453,-194"/>
<polygon fill="#9a32cd" stroke="#9a32cd" points="133.654,-190.5 123.654,-194 133.654,-197.5 133.654,-190.5"/>
<text text-anchor="middle" x="164" y="-197" font-family="Helvetica,sans-Serif" font-size="10.00"> HistFac</text>
</g>
<!-- Node5 -->
<g id="node4" class="node"><title>Node5</title>
<g id="a_node4"><a xlink:href="structant_1_1analysis_1_1utils_1_1_particle_vars.html" target="_top" xlink:title="ant::analysis::utils\l::ParticleVars">
<polygon fill="white" stroke="black" points="14,-119 14,-149 110,-149 110,-119 14,-119"/>
<text text-anchor="start" x="22" y="-137" font-family="Helvetica,sans-Serif" font-size="10.00">ant::analysis::utils</text>
<text text-anchor="middle" x="62" y="-126" font-family="Helvetica,sans-Serif" font-size="10.00">::ParticleVars</text>
</a>
</g>
</g>
<!-- Node5&#45;&gt;Node2 -->
<g id="edge3" class="edge"><title>Node5&#45;&gt;Node2</title>
<path fill="none" stroke="#9a32cd" stroke-dasharray="5,2" d="M120.412,-139.229C190.084,-144.192 310.803,-148.333 412,-129 424.554,-126.602 437.843,-122.403 449.593,-118.07"/>
<polygon fill="#9a32cd" stroke="#9a32cd" points="120.327,-135.713 110.095,-138.461 119.807,-142.694 120.327,-135.713"/>
<text text-anchor="middle" x="268" y="-147" font-family="Helvetica,sans-Serif" font-size="10.00"> proton</text>
</g>
<!-- Node6 -->
<g id="node5" class="node"><title>Node6</title>
<polygon fill="white" stroke="#bfbfbf" points="204,-88 204,-118 332,-118 332,-88 204,-88"/>
<text text-anchor="start" x="212" y="-106" font-family="Helvetica,sans-Serif" font-size="10.00">std::vector&lt; ant::analysis</text>
<text text-anchor="middle" x="268" y="-95" font-family="Helvetica,sans-Serif" font-size="10.00">::utils::ParticleVars &gt;</text>
</g>
<!-- Node5&#45;&gt;Node6 -->
<g id="edge5" class="edge"><title>Node5&#45;&gt;Node6</title>
<path fill="none" stroke="#9a32cd" stroke-dasharray="5,2" d="M120.163,-125.314C146.238,-121.351 177.194,-116.647 203.944,-112.582"/>
<polygon fill="#9a32cd" stroke="#9a32cd" points="119.419,-121.886 110.058,-126.849 120.47,-128.807 119.419,-121.886"/>
<text text-anchor="middle" x="164" y="-125" font-family="Helvetica,sans-Serif" font-size="10.00"> elements</text>
</g>
<!-- Node6&#45;&gt;Node2 -->
<g id="edge4" class="edge"><title>Node6&#45;&gt;Node2</title>
<path fill="none" stroke="#9a32cd" stroke-dasharray="5,2" d="M342.429,-103C371.075,-103 403.349,-103 429.936,-103"/>
<polygon fill="#9a32cd" stroke="#9a32cd" points="342.057,-99.5001 332.057,-103 342.057,-106.5 342.057,-99.5001"/>
<text text-anchor="middle" x="381" y="-117" font-family="Helvetica,sans-Serif" font-size="10.00"> pi0s</text>
<text text-anchor="middle" x="381" y="-106" font-family="Helvetica,sans-Serif" font-size="10.00">gammas</text>
</g>
<!-- Node7 -->
<g id="node6" class="node"><title>Node7</title>
<polygon fill="white" stroke="#bfbfbf" points="208.5,-39 208.5,-69 327.5,-69 327.5,-39 208.5,-39"/>
<text text-anchor="start" x="216.5" y="-57" font-family="Helvetica,sans-Serif" font-size="10.00">std::vector&lt; std::vector</text>
<text text-anchor="middle" x="268" y="-46" font-family="Helvetica,sans-Serif" font-size="10.00">&lt; unsigned &gt; &gt;</text>
</g>
<!-- Node7&#45;&gt;Node2 -->
<g id="edge6" class="edge"><title>Node7&#45;&gt;Node2</title>
<path fill="none" stroke="#9a32cd" stroke-dasharray="5,2" d="M337.653,-69.5741C367.461,-76.3362 401.902,-84.1491 429.987,-90.5202"/>
<polygon fill="#9a32cd" stroke="#9a32cd" points="338.264,-66.1238 327.738,-67.3247 336.716,-72.9504 338.264,-66.1238"/>
<text text-anchor="middle" x="381" y="-89" font-family="Helvetica,sans-Serif" font-size="10.00"> combinations</text>
</g>
<!-- Node8 -->
<g id="node7" class="node"><title>Node8</title>
<polygon fill="white" stroke="#bfbfbf" points="2,-44.5 2,-63.5 122,-63.5 122,-44.5 2,-44.5"/>
<text text-anchor="middle" x="62" y="-51.5" font-family="Helvetica,sans-Serif" font-size="10.00">std::vector&lt; unsigned &gt;</text>
</g>
<!-- Node8&#45;&gt;Node7 -->
<g id="edge7" class="edge"><title>Node8&#45;&gt;Node7</title>
<path fill="none" stroke="#9a32cd" stroke-dasharray="5,2" d="M132.082,-54C156.905,-54 184.641,-54 208.48,-54"/>
<polygon fill="#9a32cd" stroke="#9a32cd" points="132.005,-50.5001 122.005,-54 132.005,-57.5001 132.005,-50.5001"/>
<text text-anchor="middle" x="164" y="-57" font-family="Helvetica,sans-Serif" font-size="10.00"> elements</text>
</g>
<!-- Node9 -->
<g id="node8" class="node"><title>Node9</title>
<polygon fill="white" stroke="#bfbfbf" points="213,-0.5 213,-19.5 323,-19.5 323,-0.5 213,-0.5"/>
<text text-anchor="middle" x="268" y="-7.5" font-family="Helvetica,sans-Serif" font-size="10.00">std::vector&lt; double &gt;</text>
</g>
<!-- Node9&#45;&gt;Node2 -->
<g id="edge8" class="edge"><title>Node9&#45;&gt;Node2</title>
<path fill="none" stroke="#9a32cd" stroke-dasharray="5,2" d="M311.641,-22.5136C318.469,-24.617 325.443,-26.8247 332,-29 367.896,-40.909 377.947,-41.5466 412,-58 429.963,-66.6793 449.122,-78.6018 463.303,-87.9944"/>
<polygon fill="#9a32cd" stroke="#9a32cd" points="312.391,-19.0836 301.806,-19.5222 310.354,-25.7807 312.391,-19.0836"/>
<text text-anchor="middle" x="381" y="-61" font-family="Helvetica,sans-Serif" font-size="10.00"> popens</text>
</g>
</g>
</svg>
