<?xml version="1.0" encoding="UTF-8" standalone="no"?>
<!DOCTYPE svg PUBLIC "-//W3C//DTD SVG 1.1//EN"
 "http://www.w3.org/Graphics/SVG/1.1/DTD/svg11.dtd">
<!-- Generated by graphviz version 2.36.0 (20140111.2315)
 -->
<!-- Title: ant::UnpackerA2GeantConfig Pages: 1 -->
<svg width="690pt" height="665pt"
 viewBox="0.00 0.00 690.00 665.00" xmlns="http://www.w3.org/2000/svg" xmlns:xlink="http://www.w3.org/1999/xlink">
<g id="graph0" class="graph" transform="scale(1 1) rotate(0) translate(4 661)">
<title>ant::UnpackerA2GeantConfig</title>
<polygon fill="white" stroke="none" points="-4,4 -4,-661 686,-661 686,4 -4,4"/>
<!-- Node0 -->
<g id="node1" class="node"><title>Node0</title>
<polygon fill="#bfbfbf" stroke="black" points="0.5,-289.5 0.5,-308.5 145.5,-308.5 145.5,-289.5 0.5,-289.5"/>
<text text-anchor="middle" x="73" y="-296.5" font-family="Helvetica,sans-Serif" font-size="10.00">ant::UnpackerA2GeantConfig</text>
</g>
<!-- Node1 -->
<g id="node2" class="node"><title>Node1</title>
<g id="a_node2"><a xlink:href="classant_1_1expconfig_1_1_setup.html" target="_top" xlink:title="The Setup class serves as a base class for all known beamtime setup configurations. ">
<polygon fill="white" stroke="black" points="182,-289.5 182,-308.5 292,-308.5 292,-289.5 182,-289.5"/>
<text text-anchor="middle" x="237" y="-296.5" font-family="Helvetica,sans-Serif" font-size="10.00">ant::expconfig::Setup</text>
</a>
</g>
</g>
<!-- Node0&#45;&gt;Node1 -->
<g id="edge1" class="edge"><title>Node0&#45;&gt;Node1</title>
<path fill="none" stroke="midnightblue" d="M155.582,-299C164.504,-299 173.417,-299 181.887,-299"/>
<polygon fill="midnightblue" stroke="midnightblue" points="155.527,-295.5 145.527,-299 155.527,-302.5 155.527,-295.5"/>
</g>
<!-- Node2 -->
<g id="node3" class="node"><title>Node2</title>
<g id="a_node3"><a xlink:href="classant_1_1expconfig_1_1setup_1_1_setup__2007___base.html" target="_top" xlink:title="Common base class for all Setups of the 2014 Ent Point Tagger beam times. ">
<polygon fill="white" stroke="black" points="363,-578 363,-608 471,-608 471,-578 363,-578"/>
<text text-anchor="start" x="371" y="-596" font-family="Helvetica,sans-Serif" font-size="10.00">ant::expconfig::setup</text>
<text text-anchor="middle" x="417" y="-585" font-family="Helvetica,sans-Serif" font-size="10.00">::Setup_2007_Base</text>
</a>
</g>
</g>
<!-- Node1&#45;&gt;Node2 -->
<g id="edge2" class="edge"><title>Node1&#45;&gt;Node2</title>
<path fill="none" stroke="midnightblue" d="M238.616,-318.787C241.256,-368.277 255.144,-498.426 328,-568 337.534,-577.104 350.136,-582.933 362.814,-586.653"/>
<polygon fill="midnightblue" stroke="midnightblue" points="242.111,-318.597 238.182,-308.757 235.118,-318.9 242.111,-318.597"/>
</g>
<!-- Node5 -->
<g id="node6" class="node"><title>Node5</title>
<g id="a_node6"><a xlink:href="classant_1_1expconfig_1_1setup_1_1_setup__2010__03___base.html" target="_top" xlink:title="ant::expconfig::setup\l::Setup_2010_03_Base">
<polygon fill="white" stroke="black" points="358,-529 358,-559 476,-559 476,-529 358,-529"/>
<text text-anchor="start" x="366" y="-547" font-family="Helvetica,sans-Serif" font-size="10.00">ant::expconfig::setup</text>
<text text-anchor="middle" x="417" y="-536" font-family="Helvetica,sans-Serif" font-size="10.00">::Setup_2010_03_Base</text>
</a>
</g>
</g>
<!-- Node1&#45;&gt;Node5 -->
<g id="edge5" class="edge"><title>Node1&#45;&gt;Node5</title>
<path fill="none" stroke="midnightblue" d="M240.276,-318.593C246.316,-361.479 266.724,-464.203 328,-519 336.406,-526.517 346.918,-531.787 357.721,-535.479"/>
<polygon fill="midnightblue" stroke="midnightblue" points="243.738,-318.073 238.982,-308.606 236.796,-318.973 243.738,-318.073"/>
</g>
<!-- Node7 -->
<g id="node8" class="node"><title>Node7</title>
<g id="a_node8"><a xlink:href="classant_1_1expconfig_1_1setup_1_1_setup__2012__12___compton.html" target="_top" xlink:title="ant::expconfig::setup\l::Setup_2012_12_Compton">
<polygon fill="white" stroke="black" points="349.5,-480 349.5,-510 484.5,-510 484.5,-480 349.5,-480"/>
<text text-anchor="start" x="357.5" y="-498" font-family="Helvetica,sans-Serif" font-size="10.00">ant::expconfig::setup</text>
<text text-anchor="middle" x="417" y="-487" font-family="Helvetica,sans-Serif" font-size="10.00">::Setup_2012_12_Compton</text>
</a>
</g>
</g>
<!-- Node1&#45;&gt;Node7 -->
<g id="edge7" class="edge"><title>Node1&#45;&gt;Node7</title>
<path fill="none" stroke="midnightblue" d="M242.802,-318.544C252.573,-354.139 278.181,-429.585 328,-470 334.29,-475.103 341.567,-479.165 349.187,-482.398"/>
<polygon fill="midnightblue" stroke="midnightblue" points="246.186,-317.649 240.269,-308.86 239.414,-319.42 246.186,-317.649"/>
</g>
<!-- Node8 -->
<g id="node9" class="node"><title>Node8</title>
<g id="a_node9"><a xlink:href="classant_1_1expconfig_1_1setup_1_1_setup__2014___e_p_t.html" target="_top" xlink:title="Common base class for all Setups of the 2014 Ent Point Tagger beam times. ">
<polygon fill="white" stroke="black" points="363,-431 363,-461 471,-461 471,-431 363,-431"/>
<text text-anchor="start" x="371" y="-449" font-family="Helvetica,sans-Serif" font-size="10.00">ant::expconfig::setup</text>
<text text-anchor="middle" x="417" y="-438" font-family="Helvetica,sans-Serif" font-size="10.00">::Setup_2014_EPT</text>
</a>
</g>
</g>
<!-- Node1&#45;&gt;Node8 -->
<g id="edge8" class="edge"><title>Node1&#45;&gt;Node8</title>
<path fill="none" stroke="midnightblue" d="M246.79,-317.736C260.383,-344.661 289.059,-394.014 328,-421 338.313,-428.147 350.641,-433.263 362.758,-436.922"/>
<polygon fill="midnightblue" stroke="midnightblue" points="249.864,-316.056 242.328,-308.609 243.575,-319.13 249.864,-316.056"/>
</g>
<!-- Node12 -->
<g id="node13" class="node"><title>Node12</title>
<g id="a_node13"><a xlink:href="classant_1_1expconfig_1_1setup_1_1_setup__2015__01___pion.html" target="_top" xlink:title="Ant Setup for Rare Pion Test Beamtime in January 2015 &amp; MC studies. ">
<polygon fill="white" stroke="black" points="359.5,-382 359.5,-412 474.5,-412 474.5,-382 359.5,-382"/>
<text text-anchor="start" x="367.5" y="-400" font-family="Helvetica,sans-Serif" font-size="10.00">ant::expconfig::setup</text>
<text text-anchor="middle" x="417" y="-389" font-family="Helvetica,sans-Serif" font-size="10.00">::Setup_2015_01_Pion</text>
</a>
</g>
</g>
<!-- Node1&#45;&gt;Node12 -->
<g id="edge12" class="edge"><title>Node1&#45;&gt;Node12</title>
<path fill="none" stroke="midnightblue" d="M254.476,-315.885C271.475,-332.403 299.463,-357.174 328,-372 337.725,-377.052 348.6,-381.197 359.3,-384.557"/>
<polygon fill="midnightblue" stroke="midnightblue" points="256.621,-313.083 247.059,-308.52 251.688,-318.05 256.621,-313.083"/>
</g>
<!-- Node13 -->
<g id="node14" class="node"><title>Node13</title>
<g id="a_node14"><a xlink:href="classant_1_1expconfig_1_1setup_1_1_setup__2017__03.html" target="_top" xlink:title="Common base class for all Setups of the 2014 Ent Point Tagger beam times. ">
<polygon fill="white" stroke="black" points="363,-333 363,-363 471,-363 471,-333 363,-333"/>
<text text-anchor="start" x="371" y="-351" font-family="Helvetica,sans-Serif" font-size="10.00">ant::expconfig::setup</text>
<text text-anchor="middle" x="417" y="-340" font-family="Helvetica,sans-Serif" font-size="10.00">::Setup_2017_03</text>
</a>
</g>
</g>
<!-- Node1&#45;&gt;Node13 -->
<g id="edge13" class="edge"><title>Node1&#45;&gt;Node13</title>
<path fill="none" stroke="midnightblue" d="M282.44,-311.233C306.794,-317.938 337.149,-326.294 362.763,-333.345"/>
<polygon fill="midnightblue" stroke="midnightblue" points="283.313,-307.844 272.743,-308.564 281.455,-314.593 283.313,-307.844"/>
</g>
<!-- Node14 -->
<g id="node15" class="node"><title>Node14</title>
<g id="a_node15"><a xlink:href="classant_1_1expconfig_1_1setup_1_1_setup__2017__05.html" target="_top" xlink:title="Common base class for all Setups of the 2014 Ent Point Tagger beam times. ">
<polygon fill="white" stroke="black" points="363,-284 363,-314 471,-314 471,-284 363,-284"/>
<text text-anchor="start" x="371" y="-302" font-family="Helvetica,sans-Serif" font-size="10.00">ant::expconfig::setup</text>
<text text-anchor="middle" x="417" y="-291" font-family="Helvetica,sans-Serif" font-size="10.00">::Setup_2017_05</text>
</a>
</g>
</g>
<!-- Node1&#45;&gt;Node14 -->
<g id="edge14" class="edge"><title>Node1&#45;&gt;Node14</title>
<path fill="none" stroke="midnightblue" d="M302.55,-299C322.36,-299 343.922,-299 362.877,-299"/>
<polygon fill="midnightblue" stroke="midnightblue" points="302.373,-295.5 292.373,-299 302.373,-302.5 302.373,-295.5"/>
</g>
<!-- Node15 -->
<g id="node16" class="node"><title>Node15</title>
<g id="a_node16"><a xlink:href="classant_1_1expconfig_1_1setup_1_1_setup__2017_plus___new_tagger___base.html" target="_top" xlink:title="Common base class for all Setups starting end of 2017 using the new Tagger. ">
<polygon fill="white" stroke="black" points="328.5,-235 328.5,-265 505.5,-265 505.5,-235 328.5,-235"/>
<text text-anchor="start" x="336.5" y="-253" font-family="Helvetica,sans-Serif" font-size="10.00">ant::expconfig::setup</text>
<text text-anchor="middle" x="417" y="-242" font-family="Helvetica,sans-Serif" font-size="10.00">::Setup_2017Plus_NewTagger_Base</text>
</a>
</g>
</g>
<!-- Node1&#45;&gt;Node15 -->
<g id="edge15" class="edge"><title>Node1&#45;&gt;Node15</title>
<path fill="none" stroke="midnightblue" d="M282.6,-286.722C306.489,-280.146 336.115,-271.991 361.376,-265.037"/>
<polygon fill="midnightblue" stroke="midnightblue" points="281.455,-283.407 272.743,-289.436 283.313,-290.156 281.455,-283.407"/>
</g>
<!-- Node20 -->
<g id="node21" class="node"><title>Node20</title>
<g id="a_node21"><a xlink:href="classant_1_1expconfig_1_1setup_1_1_setup__2018__11.html" target="_top" xlink:title="ant::expconfig::setup\l::Setup_2018_11">
<polygon fill="white" stroke="black" points="363,-186 363,-216 471,-216 471,-186 363,-186"/>
<text text-anchor="start" x="371" y="-204" font-family="Helvetica,sans-Serif" font-size="10.00">ant::expconfig::setup</text>
<text text-anchor="middle" x="417" y="-193" font-family="Helvetica,sans-Serif" font-size="10.00">::Setup_2018_11</text>
</a>
</g>
</g>
<!-- Node1&#45;&gt;Node20 -->
<g id="edge20" class="edge"><title>Node1&#45;&gt;Node20</title>
<path fill="none" stroke="midnightblue" d="M254.476,-282.115C271.475,-265.597 299.463,-240.826 328,-226 338.711,-220.435 350.819,-215.971 362.549,-212.445"/>
<polygon fill="midnightblue" stroke="midnightblue" points="251.688,-279.95 247.059,-289.48 256.621,-284.917 251.688,-279.95"/>
</g>
<!-- Node21 -->
<g id="node22" class="node"><title>Node21</title>
<g id="a_node22"><a xlink:href="classant_1_1expconfig_1_1setup_1_1_setup__2019__01.html" target="_top" xlink:title="ant::expconfig::setup\l::Setup_2019_01">
<polygon fill="white" stroke="black" points="363,-137 363,-167 471,-167 471,-137 363,-137"/>
<text text-anchor="start" x="371" y="-155" font-family="Helvetica,sans-Serif" font-size="10.00">ant::expconfig::setup</text>
<text text-anchor="middle" x="417" y="-144" font-family="Helvetica,sans-Serif" font-size="10.00">::Setup_2019_01</text>
</a>
</g>
</g>
<!-- Node1&#45;&gt;Node21 -->
<g id="edge21" class="edge"><title>Node1&#45;&gt;Node21</title>
<path fill="none" stroke="midnightblue" d="M246.79,-280.264C260.383,-253.339 289.059,-203.986 328,-177 338.313,-169.853 350.641,-164.737 362.758,-161.078"/>
<polygon fill="midnightblue" stroke="midnightblue" points="243.575,-278.87 242.328,-289.391 249.864,-281.944 243.575,-278.87"/>
</g>
<!-- Node22 -->
<g id="node23" class="node"><title>Node22</title>
<g id="a_node23"><a xlink:href="classant_1_1expconfig_1_1setup_1_1_setup__2019__06.html" target="_top" xlink:title="ant::expconfig::setup\l::Setup_2019_06">
<polygon fill="white" stroke="black" points="363,-88 363,-118 471,-118 471,-88 363,-88"/>
<text text-anchor="start" x="371" y="-106" font-family="Helvetica,sans-Serif" font-size="10.00">ant::expconfig::setup</text>
<text text-anchor="middle" x="417" y="-95" font-family="Helvetica,sans-Serif" font-size="10.00">::Setup_2019_06</text>
</a>
</g>
</g>
<!-- Node1&#45;&gt;Node22 -->
<g id="edge22" class="edge"><title>Node1&#45;&gt;Node22</title>
<path fill="none" stroke="midnightblue" d="M242.802,-279.456C252.573,-243.861 278.181,-168.415 328,-128 337.991,-119.895 350.469,-114.416 362.861,-110.713"/>
<polygon fill="midnightblue" stroke="midnightblue" points="239.414,-278.58 240.269,-289.14 246.186,-280.351 239.414,-278.58"/>
</g>
<!-- Node23 -->
<g id="node24" class="node"><title>Node23</title>
<g id="a_node24"><a xlink:href="classant_1_1expconfig_1_1setup_1_1_setup___c_b_source_calib.html" target="_top" xlink:title="ant::expconfig::setup\l::Setup_CBSourceCalib">
<polygon fill="white" stroke="black" points="356.5,-39 356.5,-69 477.5,-69 477.5,-39 356.5,-39"/>
<text text-anchor="start" x="364.5" y="-57" font-family="Helvetica,sans-Serif" font-size="10.00">ant::expconfig::setup</text>
<text text-anchor="middle" x="417" y="-46" font-family="Helvetica,sans-Serif" font-size="10.00">::Setup_CBSourceCalib</text>
</a>
</g>
</g>
<!-- Node1&#45;&gt;Node23 -->
<g id="edge23" class="edge"><title>Node1&#45;&gt;Node23</title>
<path fill="none" stroke="midnightblue" d="M240.276,-279.407C246.316,-236.521 266.724,-133.797 328,-79 336.05,-71.8007 346.033,-66.6622 356.353,-62.9975"/>
<polygon fill="midnightblue" stroke="midnightblue" points="236.796,-279.027 238.982,-289.394 243.738,-279.927 236.796,-279.027"/>
</g>
<!-- Node24 -->
<g id="node25" class="node"><title>Node24</title>
<g id="a_node25"><a xlink:href="struct_fake_setup.html" target="_top" xlink:title="Empty fake setup that always matches. Used in case no real setup exists. ">
<polygon fill="white" stroke="black" points="385,-0.5 385,-19.5 449,-19.5 449,-0.5 385,-0.5"/>
<text text-anchor="middle" x="417" y="-7.5" font-family="Helvetica,sans-Serif" font-size="10.00">FakeSetup</text>
</a>
</g>
</g>
<!-- Node1&#45;&gt;Node24 -->
<g id="edge24" class="edge"><title>Node1&#45;&gt;Node24</title>
<path fill="none" stroke="midnightblue" d="M238.312,-279.194C240.233,-229.115 252.566,-96.6218 328,-29 343.362,-15.2286 366.279,-10.6074 384.875,-9.36171"/>
<polygon fill="midnightblue" stroke="midnightblue" points="234.809,-279.233 238.027,-289.327 241.806,-279.429 234.809,-279.233"/>
</g>
<!-- Node3 -->
<g id="node4" class="node"><title>Node3</title>
<g id="a_node4"><a xlink:href="classant_1_1expconfig_1_1setup_1_1_setup__2007__06.html" target="_top" xlink:title="Ant Setup for the Juni 2007 beam time. ">
<polygon fill="white" stroke="black" points="558,-627 558,-657 666,-657 666,-627 558,-627"/>
<text text-anchor="start" x="566" y="-645" font-family="Helvetica,sans-Serif" font-size="10.00">ant::expconfig::setup</text>
<text text-anchor="middle" x="612" y="-634" font-family="Helvetica,sans-Serif" font-size="10.00">::Setup_2007_06</text>
</a>
</g>
</g>
<!-- Node2&#45;&gt;Node3 -->
<g id="edge3" class="edge"><title>Node2&#45;&gt;Node3</title>
<path fill="none" stroke="midnightblue" d="M480.958,-608.984C505.835,-615.3 534.109,-622.479 557.925,-628.525"/>
<polygon fill="midnightblue" stroke="midnightblue" points="481.803,-605.588 471.249,-606.519 480.08,-612.372 481.803,-605.588"/>
</g>
<!-- Node4 -->
<g id="node5" class="node"><title>Node4</title>
<g id="a_node5"><a xlink:href="classant_1_1expconfig_1_1setup_1_1_setup__2007__07.html" target="_top" xlink:title="Ant Setup for the July 2007 beam time. ">
<polygon fill="white" stroke="black" points="558,-578 558,-608 666,-608 666,-578 558,-578"/>
<text text-anchor="start" x="566" y="-596" font-family="Helvetica,sans-Serif" font-size="10.00">ant::expconfig::setup</text>
<text text-anchor="middle" x="612" y="-585" font-family="Helvetica,sans-Serif" font-size="10.00">::Setup_2007_07</text>
</a>
</g>
</g>
<!-- Node2&#45;&gt;Node4 -->
<g id="edge4" class="edge"><title>Node2&#45;&gt;Node4</title>
<path fill="none" stroke="midnightblue" d="M481.288,-593C506.085,-593 534.215,-593 557.925,-593"/>
<polygon fill="midnightblue" stroke="midnightblue" points="481.249,-589.5 471.249,-593 481.249,-596.5 481.249,-589.5"/>
</g>
<!-- Node6 -->
<g id="node7" class="node"><title>Node6</title>
<g id="a_node7"><a xlink:href="classant_1_1expconfig_1_1setup_1_1_setup__2010__09___compton.html" target="_top" xlink:title="Ant Setup for the September 2010 beam time. ">
<polygon fill="white" stroke="black" points="544.5,-529 544.5,-559 679.5,-559 679.5,-529 544.5,-529"/>
<text text-anchor="start" x="552.5" y="-547" font-family="Helvetica,sans-Serif" font-size="10.00">ant::expconfig::setup</text>
<text text-anchor="middle" x="612" y="-536" font-family="Helvetica,sans-Serif" font-size="10.00">::Setup_2010_09_Compton</text>
</a>
</g>
</g>
<!-- Node5&#45;&gt;Node6 -->
<g id="edge6" class="edge"><title>Node5&#45;&gt;Node6</title>
<path fill="none" stroke="midnightblue" d="M486.202,-544C505.133,-544 525.658,-544 544.491,-544"/>
<polygon fill="midnightblue" stroke="midnightblue" points="486.168,-540.5 476.168,-544 486.168,-547.5 486.168,-540.5"/>
</g>
<!-- Node9 -->
<g id="node10" class="node"><title>Node9</title>
<g id="a_node10"><a xlink:href="classant_1_1expconfig_1_1setup_1_1_setup__2014__07___e_p_t___prod.html" target="_top" xlink:title="Ant Setup for the July 2014 End Point Tagger beam time. ">
<polygon fill="white" stroke="black" points="542,-480 542,-510 682,-510 682,-480 542,-480"/>
<text text-anchor="start" x="550" y="-498" font-family="Helvetica,sans-Serif" font-size="10.00">ant::expconfig::setup</text>
<text text-anchor="middle" x="612" y="-487" font-family="Helvetica,sans-Serif" font-size="10.00">::Setup_2014_07_EPT_Prod</text>
</a>
</g>
</g>
<!-- Node8&#45;&gt;Node9 -->
<g id="edge9" class="edge"><title>Node8&#45;&gt;Node9</title>
<path fill="none" stroke="midnightblue" d="M481.138,-462.03C503.874,-467.802 529.428,-474.29 551.815,-479.974"/>
<polygon fill="midnightblue" stroke="midnightblue" points="481.803,-458.588 471.249,-459.519 480.08,-465.372 481.803,-458.588"/>
</g>
<!-- Node10 -->
<g id="node11" class="node"><title>Node10</title>
<g id="a_node11"><a xlink:href="classant_1_1expconfig_1_1setup_1_1_setup__2014__10___e_p_t___prod.html" target="_top" xlink:title="Ant Setup for the October 2014 End Point Tagger beam time. ">
<polygon fill="white" stroke="black" points="542,-431 542,-461 682,-461 682,-431 542,-431"/>
<text text-anchor="start" x="550" y="-449" font-family="Helvetica,sans-Serif" font-size="10.00">ant::expconfig::setup</text>
<text text-anchor="middle" x="612" y="-438" font-family="Helvetica,sans-Serif" font-size="10.00">::Setup_2014_10_EPT_Prod</text>
</a>
</g>
</g>
<!-- Node8&#45;&gt;Node10 -->
<g id="edge10" class="edge"><title>Node8&#45;&gt;Node10</title>
<path fill="none" stroke="midnightblue" d="M481.482,-446C500.865,-446 522.269,-446 542,-446"/>
<polygon fill="midnightblue" stroke="midnightblue" points="481.249,-442.5 471.249,-446 481.249,-449.5 481.249,-442.5"/>
</g>
<!-- Node11 -->
<g id="node12" class="node"><title>Node11</title>
<g id="a_node12"><a xlink:href="classant_1_1expconfig_1_1setup_1_1_setup__2014__12___e_p_t___prod.html" target="_top" xlink:title="Ant Setup for the December 2014 End Point Tagger beam time. ">
<polygon fill="white" stroke="black" points="542,-382 542,-412 682,-412 682,-382 542,-382"/>
<text text-anchor="start" x="550" y="-400" font-family="Helvetica,sans-Serif" font-size="10.00">ant::expconfig::setup</text>
<text text-anchor="middle" x="612" y="-389" font-family="Helvetica,sans-Serif" font-size="10.00">::Setup_2014_12_EPT_Prod</text>
</a>
</g>
</g>
<!-- Node8&#45;&gt;Node11 -->
<g id="edge11" class="edge"><title>Node8&#45;&gt;Node11</title>
<path fill="none" stroke="midnightblue" d="M481.138,-429.97C503.874,-424.198 529.428,-417.71 551.815,-412.026"/>
<polygon fill="midnightblue" stroke="midnightblue" points="480.08,-426.628 471.249,-432.481 481.803,-433.412 480.08,-426.628"/>
</g>
<!-- Node16 -->
<g id="node17" class="node"><title>Node16</title>
<g id="a_node17"><a xlink:href="classant_1_1expconfig_1_1setup_1_1_setup__2017__12.html" target="_top" xlink:title="Ant Setup for the December 2017 beamtime using the new Tagger. ">
<polygon fill="white" stroke="black" points="558,-308 558,-338 666,-338 666,-308 558,-308"/>
<text text-anchor="start" x="566" y="-326" font-family="Helvetica,sans-Serif" font-size="10.00">ant::expconfig::setup</text>
<text text-anchor="middle" x="612" y="-315" font-family="Helvetica,sans-Serif" font-size="10.00">::Setup_2017_12</text>
</a>
</g>
</g>
<!-- Node15&#45;&gt;Node16 -->
<g id="edge16" class="edge"><title>Node15&#45;&gt;Node16</title>
<path fill="none" stroke="midnightblue" d="M489.476,-268.373C495.14,-270.412 500.711,-272.621 506,-275 523.316,-282.788 524.971,-289.604 542,-298 549.314,-301.606 557.283,-304.971 565.123,-307.991"/>
<polygon fill="midnightblue" stroke="midnightblue" points="490.482,-265.019 479.888,-265.102 488.222,-271.644 490.482,-265.019"/>
</g>
<!-- Node17 -->
<g id="node18" class="node"><title>Node17</title>
<g id="a_node18"><a xlink:href="classant_1_1expconfig_1_1setup_1_1_setup__2018__03.html" target="_top" xlink:title="Ant Setup for the March 2018 beamtime using the new Tagger. ">
<polygon fill="white" stroke="black" points="558,-259 558,-289 666,-289 666,-259 558,-259"/>
<text text-anchor="start" x="566" y="-277" font-family="Helvetica,sans-Serif" font-size="10.00">ant::expconfig::setup</text>
<text text-anchor="middle" x="612" y="-266" font-family="Helvetica,sans-Serif" font-size="10.00">::Setup_2018_03</text>
</a>
</g>
</g>
<!-- Node15&#45;&gt;Node17 -->
<g id="edge17" class="edge"><title>Node15&#45;&gt;Node17</title>
<path fill="none" stroke="midnightblue" d="M515.799,-262.162C530.333,-263.969 544.829,-265.771 557.965,-267.405"/>
<polygon fill="midnightblue" stroke="midnightblue" points="516.102,-258.672 505.747,-260.911 515.238,-265.619 516.102,-258.672"/>
</g>
<!-- Node18 -->
<g id="node19" class="node"><title>Node18</title>
<g id="a_node19"><a xlink:href="classant_1_1expconfig_1_1setup_1_1_setup__2018__05.html" target="_top" xlink:title="Ant Setup for the May 2018 beamtime using the new Tagger. ">
<polygon fill="white" stroke="black" points="558,-210 558,-240 666,-240 666,-210 558,-210"/>
<text text-anchor="start" x="566" y="-228" font-family="Helvetica,sans-Serif" font-size="10.00">ant::expconfig::setup</text>
<text text-anchor="middle" x="612" y="-217" font-family="Helvetica,sans-Serif" font-size="10.00">::Setup_2018_05</text>
</a>
</g>
</g>
<!-- Node15&#45;&gt;Node18 -->
<g id="edge18" class="edge"><title>Node15&#45;&gt;Node18</title>
<path fill="none" stroke="midnightblue" d="M515.799,-237.332C530.333,-235.449 544.829,-233.571 557.965,-231.87"/>
<polygon fill="midnightblue" stroke="midnightblue" points="515.214,-233.878 505.747,-238.634 516.113,-240.82 515.214,-233.878"/>
</g>
<!-- Node19 -->
<g id="node20" class="node"><title>Node19</title>
<g id="a_node20"><a xlink:href="classant_1_1expconfig_1_1setup_1_1_setup__2018__09.html" target="_top" xlink:title="Ant Setup for the Septmeber 2018 beamtime using the new Tagger. ">
<polygon fill="white" stroke="black" points="558,-161 558,-191 666,-191 666,-161 558,-161"/>
<text text-anchor="start" x="566" y="-179" font-family="Helvetica,sans-Serif" font-size="10.00">ant::expconfig::setup</text>
<text text-anchor="middle" x="612" y="-168" font-family="Helvetica,sans-Serif" font-size="10.00">::Setup_2018_09</text>
</a>
</g>
</g>
<!-- Node15&#45;&gt;Node19 -->
<g id="edge19" class="edge"><title>Node15&#45;&gt;Node19</title>
<path fill="none" stroke="midnightblue" d="M490.231,-231.482C495.641,-229.489 500.953,-227.329 506,-225 523.46,-216.942 524.836,-209.671 542,-201 549.165,-197.38 556.982,-194.028 564.696,-191.031"/>
<polygon fill="midnightblue" stroke="midnightblue" points="488.72,-228.302 480.423,-234.89 491.018,-234.914 488.72,-228.302"/>
</g>
</g>
</svg>
