<?xml version="1.0" encoding="UTF-8" standalone="no"?>
<!DOCTYPE svg PUBLIC "-//W3C//DTD SVG 1.1//EN"
 "http://www.w3.org/Graphics/SVG/1.1/DTD/svg11.dtd">
<!-- Generated by graphviz version 2.36.0 (20140111.2315)
 -->
<!-- Title: ant::calibration::gui::KnobsTF1::ReferenceParameterKnob Pages: 1 -->
<svg width="226pt" height="400pt"
 viewBox="0.00 0.00 226.00 400.00" xmlns="http://www.w3.org/2000/svg" xmlns:xlink="http://www.w3.org/1999/xlink">
<g id="graph0" class="graph" transform="scale(1 1) rotate(0) translate(4 396)">
<title>ant::calibration::gui::KnobsTF1::ReferenceParameterKnob</title>
<polygon fill="white" stroke="none" points="-4,4 -4,-396 222,-396 222,4 -4,4"/>
<!-- Node4 -->
<g id="node1" class="node"><title>Node4</title>
<polygon fill="#bfbfbf" stroke="black" points="28,-1 28,-31 214,-31 214,-1 28,-1"/>
<text text-anchor="start" x="36" y="-19" font-family="Helvetica,sans-Serif" font-size="10.00">ant::calibration::gui</text>
<text text-anchor="middle" x="121" y="-8" font-family="Helvetica,sans-Serif" font-size="10.00">::KnobsTF1::ReferenceParameterKnob</text>
</g>
<!-- Node5 -->
<g id="node2" class="node"><title>Node5</title>
<g id="a_node2"><a xlink:href="classant_1_1calibration_1_1gui_1_1_knobs_t_f1_1_1_transformed_parameter_knob.html" target="_top" xlink:title="ant::calibration::gui\l::KnobsTF1::TransformedParameterKnob">
<polygon fill="white" stroke="black" points="23,-71 23,-101 219,-101 219,-71 23,-71"/>
<text text-anchor="start" x="31" y="-89" font-family="Helvetica,sans-Serif" font-size="10.00">ant::calibration::gui</text>
<text text-anchor="middle" x="121" y="-78" font-family="Helvetica,sans-Serif" font-size="10.00">::KnobsTF1::TransformedParameterKnob</text>
</a>
</g>
</g>
<!-- Node5&#45;&gt;Node4 -->
<g id="edge1" class="edge"><title>Node5&#45;&gt;Node4</title>
<path fill="none" stroke="midnightblue" d="M121,-60.7688C121,-50.8141 121,-39.6384 121,-31.0716"/>
<polygon fill="midnightblue" stroke="midnightblue" points="117.5,-60.9103 121,-70.9104 124.5,-60.9104 117.5,-60.9103"/>
</g>
<!-- Node6 -->
<g id="node3" class="node"><title>Node6</title>
<g id="a_node3"><a xlink:href="classant_1_1calibration_1_1gui_1_1_knobs_t_f1_1_1_parameter_knob.html" target="_top" xlink:title="ant::calibration::gui\l::KnobsTF1::ParameterKnob">
<polygon fill="white" stroke="black" points="50.5,-141 50.5,-171 191.5,-171 191.5,-141 50.5,-141"/>
<text text-anchor="start" x="58.5" y="-159" font-family="Helvetica,sans-Serif" font-size="10.00">ant::calibration::gui</text>
<text text-anchor="middle" x="121" y="-148" font-family="Helvetica,sans-Serif" font-size="10.00">::KnobsTF1::ParameterKnob</text>
</a>
</g>
</g>
<!-- Node6&#45;&gt;Node5 -->
<g id="edge2" class="edge"><title>Node6&#45;&gt;Node5</title>
<path fill="none" stroke="midnightblue" d="M121,-130.769C121,-120.814 121,-109.638 121,-101.072"/>
<polygon fill="midnightblue" stroke="midnightblue" points="117.5,-130.91 121,-140.91 124.5,-130.91 117.5,-130.91"/>
</g>
<!-- Node7 -->
<g id="node4" class="node"><title>Node7</title>
<g id="a_node4"><a xlink:href="classant_1_1calibration_1_1gui_1_1_indicator_knob.html" target="_top" xlink:title="ant::calibration::gui\l::IndicatorKnob">
<polygon fill="white" stroke="black" points="71.5,-211 71.5,-241 170.5,-241 170.5,-211 71.5,-211"/>
<text text-anchor="start" x="79.5" y="-229" font-family="Helvetica,sans-Serif" font-size="10.00">ant::calibration::gui</text>
<text text-anchor="middle" x="121" y="-218" font-family="Helvetica,sans-Serif" font-size="10.00">::IndicatorKnob</text>
</a>
</g>
</g>
<!-- Node7&#45;&gt;Node6 -->
<g id="edge3" class="edge"><title>Node7&#45;&gt;Node6</title>
<path fill="none" stroke="midnightblue" d="M121,-200.769C121,-190.814 121,-179.638 121,-171.072"/>
<polygon fill="midnightblue" stroke="midnightblue" points="117.5,-200.91 121,-210.91 124.5,-200.91 117.5,-200.91"/>
</g>
<!-- Node8 -->
<g id="node5" class="node"><title>Node8</title>
<g id="a_node5"><a xlink:title="STL class. ">
<polygon fill="white" stroke="#bfbfbf" points="17,-296.5 17,-315.5 77,-315.5 77,-296.5 17,-296.5"/>
<text text-anchor="middle" x="47" y="-303.5" font-family="Helvetica,sans-Serif" font-size="10.00">std::string</text>
</a>
</g>
</g>
<!-- Node8&#45;&gt;Node7 -->
<g id="edge4" class="edge"><title>Node8&#45;&gt;Node7</title>
<path fill="none" stroke="#9a32cd" stroke-dasharray="5,2" d="M62.2812,-288.893C75.6021,-274.852 94.7369,-254.683 107.503,-241.227"/>
<polygon fill="#9a32cd" stroke="#9a32cd" points="59.5455,-286.691 55.202,-296.355 64.6238,-291.509 59.5455,-286.691"/>
<text text-anchor="middle" x="103" y="-263.5" font-family="Helvetica,sans-Serif" font-size="10.00"> name</text>
</g>
<!-- Node9 -->
<g id="node6" class="node"><title>Node9</title>
<g id="a_node6"><a xlink:title="STL class. ">
<polygon fill="white" stroke="#bfbfbf" points="-0.5,-361 -0.5,-391 94.5,-391 94.5,-361 -0.5,-361"/>
<text text-anchor="start" x="7.5" y="-379" font-family="Helvetica,sans-Serif" font-size="10.00">std::basic_string&lt;</text>
<text text-anchor="middle" x="47" y="-368" font-family="Helvetica,sans-Serif" font-size="10.00"> char &gt;</text>
</a>
</g>
</g>
<!-- Node9&#45;&gt;Node8 -->
<g id="edge5" class="edge"><title>Node9&#45;&gt;Node8</title>
<path fill="none" stroke="midnightblue" d="M47,-350.883C47,-338.733 47,-324.739 47,-315.883"/>
<polygon fill="midnightblue" stroke="midnightblue" points="43.5001,-350.91 47,-360.91 50.5001,-350.91 43.5001,-350.91"/>
</g>
<!-- Node10 -->
<g id="node7" class="node"><title>Node10</title>
<g id="a_node7"><a xlink:href="structant_1_1calibration_1_1gui_1_1_indicator_properties.html" target="_top" xlink:title="ant::calibration::gui\l::IndicatorProperties">
<polygon fill="white" stroke="black" points="95,-291 95,-321 199,-321 199,-291 95,-291"/>
<text text-anchor="start" x="103" y="-309" font-family="Helvetica,sans-Serif" font-size="10.00">ant::calibration::gui</text>
<text text-anchor="middle" x="147" y="-298" font-family="Helvetica,sans-Serif" font-size="10.00">::IndicatorProperties</text>
</a>
</g>
</g>
<!-- Node10&#45;&gt;Node7 -->
<g id="edge6" class="edge"><title>Node10&#45;&gt;Node7</title>
<path fill="none" stroke="#9a32cd" stroke-dasharray="5,2" d="M138.984,-280.952C134.645,-267.934 129.432,-252.296 125.739,-241.216"/>
<polygon fill="#9a32cd" stroke="#9a32cd" points="135.748,-282.314 142.231,-290.694 142.389,-280.1 135.748,-282.314"/>
<text text-anchor="middle" x="143" y="-263.5" font-family="Helvetica,sans-Serif" font-size="10.00"> gui</text>
</g>
</g>
</svg>
