<?xml version="1.0" encoding="UTF-8" standalone="no"?>
<!DOCTYPE svg PUBLIC "-//W3C//DTD SVG 1.1//EN"
 "http://www.w3.org/Graphics/SVG/1.1/DTD/svg11.dtd">
<!-- Generated by graphviz version 2.36.0 (20140111.2315)
 -->
<!-- Title: ant::BrowseHistogramsCanvas Pages: 1 -->
<svg width="373pt" height="178pt"
 viewBox="0.00 0.00 373.00 178.00" xmlns="http://www.w3.org/2000/svg" xmlns:xlink="http://www.w3.org/1999/xlink">
<g id="graph0" class="graph" transform="scale(1 1) rotate(0) translate(4 174)">
<title>ant::BrowseHistogramsCanvas</title>
<polygon fill="white" stroke="none" points="-4,4 -4,-174 369,-174 369,4 -4,4"/>
<!-- Node2 -->
<g id="node1" class="node"><title>Node2</title>
<polygon fill="#bfbfbf" stroke="black" points="78.5,-0.5 78.5,-19.5 231.5,-19.5 231.5,-0.5 78.5,-0.5"/>
<text text-anchor="middle" x="155" y="-7.5" font-family="Helvetica,sans-Serif" font-size="10.00">ant::BrowseHistogramsCanvas</text>
</g>
<!-- Node3 -->
<g id="node2" class="node"><title>Node3</title>
<polygon fill="white" stroke="#bfbfbf" points="0,-74.5 0,-93.5 56,-93.5 56,-74.5 0,-74.5"/>
<text text-anchor="middle" x="28" y="-81.5" font-family="Helvetica,sans-Serif" font-size="10.00">TCanvas</text>
</g>
<!-- Node3&#45;&gt;Node2 -->
<g id="edge1" class="edge"><title>Node3&#45;&gt;Node2</title>
<path fill="none" stroke="midnightblue" d="M51.8716,-69.4665C77.7303,-54.8064 118.195,-31.866 139.952,-19.531"/>
<polygon fill="midnightblue" stroke="midnightblue" points="50.0404,-66.4813 43.0673,-74.4579 53.4927,-72.5708 50.0404,-66.4813"/>
</g>
<!-- Node4 -->
<g id="node3" class="node"><title>Node4</title>
<polygon fill="white" stroke="#bfbfbf" points="74,-74.5 74,-93.5 166,-93.5 166,-74.5 74,-74.5"/>
<text text-anchor="middle" x="120" y="-81.5" font-family="Helvetica,sans-Serif" font-size="10.00">std::list&lt; TH1 * &gt;</text>
</g>
<!-- Node4&#45;&gt;Node2 -->
<g id="edge2" class="edge"><title>Node4&#45;&gt;Node2</title>
<path fill="none" stroke="#9a32cd" stroke-dasharray="5,2" d="M128.541,-65.4302C135.622,-50.8634 145.383,-30.784 150.853,-19.531"/>
<polygon fill="#9a32cd" stroke="#9a32cd" points="125.377,-63.934 124.152,-74.4579 131.672,-66.9944 125.377,-63.934"/>
<text text-anchor="middle" x="154.5" y="-41.5" font-family="Helvetica,sans-Serif" font-size="10.00"> hists</text>
</g>
<!-- Node5 -->
<g id="node4" class="node"><title>Node5</title>
<g id="a_node4"><a xlink:title="STL class. ">
<polygon fill="white" stroke="#bfbfbf" points="184,-74.5 184,-93.5 244,-93.5 244,-74.5 184,-74.5"/>
<text text-anchor="middle" x="214" y="-81.5" font-family="Helvetica,sans-Serif" font-size="10.00">std::string</text>
</a>
</g>
</g>
<!-- Node5&#45;&gt;Node2 -->
<g id="edge3" class="edge"><title>Node5&#45;&gt;Node2</title>
<path fill="none" stroke="#9a32cd" stroke-dasharray="5,2" d="M200.624,-66.6767C188.621,-52.0292 171.478,-31.1086 161.991,-19.531"/>
<polygon fill="#9a32cd" stroke="#9a32cd" points="197.955,-68.9415 207,-74.4579 203.369,-64.5047 197.955,-68.9415"/>
<text text-anchor="middle" x="215" y="-41.5" font-family="Helvetica,sans-Serif" font-size="10.00"> draw_option</text>
</g>
<!-- Node6 -->
<g id="node5" class="node"><title>Node6</title>
<g id="a_node5"><a xlink:title="STL class. ">
<polygon fill="white" stroke="#bfbfbf" points="166.5,-139 166.5,-169 261.5,-169 261.5,-139 166.5,-139"/>
<text text-anchor="start" x="174.5" y="-157" font-family="Helvetica,sans-Serif" font-size="10.00">std::basic_string&lt;</text>
<text text-anchor="middle" x="214" y="-146" font-family="Helvetica,sans-Serif" font-size="10.00"> char &gt;</text>
</a>
</g>
</g>
<!-- Node6&#45;&gt;Node5 -->
<g id="edge4" class="edge"><title>Node6&#45;&gt;Node5</title>
<path fill="none" stroke="midnightblue" d="M214,-128.883C214,-116.733 214,-102.739 214,-93.8833"/>
<polygon fill="midnightblue" stroke="midnightblue" points="210.5,-128.91 214,-138.91 217.5,-128.91 210.5,-128.91"/>
</g>
<!-- Node7 -->
<g id="node6" class="node"><title>Node7</title>
<g id="a_node6"><a xlink:title="STL iterator class. ">
<polygon fill="white" stroke="#bfbfbf" points="262.5,-69 262.5,-99 365.5,-99 365.5,-69 262.5,-69"/>
<text text-anchor="start" x="270.5" y="-87" font-family="Helvetica,sans-Serif" font-size="10.00">std::list&lt; T &gt;::const</text>
<text text-anchor="middle" x="314" y="-76" font-family="Helvetica,sans-Serif" font-size="10.00">_iterator</text>
</a>
</g>
</g>
<!-- Node7&#45;&gt;Node2 -->
<g id="edge5" class="edge"><title>Node7&#45;&gt;Node2</title>
<path fill="none" stroke="#9a32cd" stroke-dasharray="5,2" d="M288.204,-62.9602C276.19,-54.3555 261.394,-44.7494 247,-38 230.12,-30.0852 210.401,-23.9279 193.557,-19.5052"/>
<polygon fill="#9a32cd" stroke="#9a32cd" points="286.284,-65.8927 296.415,-68.9937 290.429,-60.2519 286.284,-65.8927"/>
<text text-anchor="middle" x="286" y="-41.5" font-family="Helvetica,sans-Serif" font-size="10.00"> current</text>
</g>
</g>
</svg>
