<?xml version="1.0" encoding="UTF-8" standalone="no"?>
<!DOCTYPE svg PUBLIC "-//W3C//DTD SVG 1.1//EN"
 "http://www.w3.org/Graphics/SVG/1.1/DTD/svg11.dtd">
<!-- Generated by graphviz version 2.36.0 (20140111.2315)
 -->
<!-- Title: ant::calibration::gui::VerticalIndicatorLine Pages: 1 -->
<svg width="170pt" height="244pt"
 viewBox="0.00 0.00 170.00 244.00" xmlns="http://www.w3.org/2000/svg" xmlns:xlink="http://www.w3.org/1999/xlink">
<g id="graph0" class="graph" transform="scale(1 1) rotate(0) translate(4 240)">
<title>ant::calibration::gui::VerticalIndicatorLine</title>
<polygon fill="white" stroke="none" points="-4,4 -4,-240 166,-240 166,4 -4,4"/>
<!-- Node0 -->
<g id="node1" class="node"><title>Node0</title>
<polygon fill="#bfbfbf" stroke="black" points="8.5,-1 8.5,-31 119.5,-31 119.5,-1 8.5,-1"/>
<text text-anchor="start" x="16.5" y="-19" font-family="Helvetica,sans-Serif" font-size="10.00">ant::calibration::gui</text>
<text text-anchor="middle" x="64" y="-8" font-family="Helvetica,sans-Serif" font-size="10.00">::VerticalIndicatorLine</text>
</g>
<!-- Node1 -->
<g id="node2" class="node"><title>Node1</title>
<g id="a_node2"><a xlink:href="classant_1_1calibration_1_1gui_1_1_indicator_line.html" target="_top" xlink:title="ant::calibration::gui\l::IndicatorLine">
<polygon fill="white" stroke="black" points="14.5,-69 14.5,-99 113.5,-99 113.5,-69 14.5,-69"/>
<text text-anchor="start" x="22.5" y="-87" font-family="Helvetica,sans-Serif" font-size="10.00">ant::calibration::gui</text>
<text text-anchor="middle" x="64" y="-76" font-family="Helvetica,sans-Serif" font-size="10.00">::IndicatorLine</text>
</a>
</g>
</g>
<!-- Node1&#45;&gt;Node0 -->
<g id="edge1" class="edge"><title>Node1&#45;&gt;Node0</title>
<path fill="none" stroke="midnightblue" d="M64,-58.5322C64,-49.3606 64,-39.2449 64,-31.2931"/>
<polygon fill="midnightblue" stroke="midnightblue" points="60.5001,-58.6789 64,-68.679 67.5001,-58.679 60.5001,-58.6789"/>
</g>
<!-- Node2 -->
<g id="node3" class="node"><title>Node2</title>
<polygon fill="white" stroke="#bfbfbf" points="-0.5,-142.5 -0.5,-161.5 40.5,-161.5 40.5,-142.5 -0.5,-142.5"/>
<text text-anchor="middle" x="20" y="-149.5" font-family="Helvetica,sans-Serif" font-size="10.00">TLine</text>
</g>
<!-- Node2&#45;&gt;Node1 -->
<g id="edge2" class="edge"><title>Node2&#45;&gt;Node1</title>
<path fill="none" stroke="midnightblue" d="M31.4482,-133.828C38.63,-123.055 47.7776,-109.334 54.5457,-99.1815"/>
<polygon fill="midnightblue" stroke="midnightblue" points="28.3871,-132.11 25.7522,-142.372 34.2115,-135.993 28.3871,-132.11"/>
</g>
<!-- Node3 -->
<g id="node4" class="node"><title>Node3</title>
<g id="a_node4"><a xlink:href="classant_1_1calibration_1_1gui_1_1_indicator.html" target="_top" xlink:title="ant::calibration::gui\l::Indicator">
<polygon fill="white" stroke="black" points="58.5,-137 58.5,-167 157.5,-167 157.5,-137 58.5,-137"/>
<text text-anchor="start" x="66.5" y="-155" font-family="Helvetica,sans-Serif" font-size="10.00">ant::calibration::gui</text>
<text text-anchor="middle" x="108" y="-144" font-family="Helvetica,sans-Serif" font-size="10.00">::Indicator</text>
</a>
</g>
</g>
<!-- Node3&#45;&gt;Node1 -->
<g id="edge3" class="edge"><title>Node3&#45;&gt;Node1</title>
<path fill="none" stroke="midnightblue" d="M92.8758,-128.314C86.4595,-118.689 79.1756,-107.763 73.5287,-99.2931"/>
<polygon fill="midnightblue" stroke="midnightblue" points="89.9934,-130.3 98.4527,-136.679 95.8178,-126.417 89.9934,-130.3"/>
</g>
<!-- Node4 -->
<g id="node5" class="node"><title>Node4</title>
<g id="a_node5"><a xlink:href="classant_1_1calibration_1_1gui_1_1update__notify__traits.html" target="_top" xlink:title="ant::calibration::gui\l::update_notify_traits">
<polygon fill="white" stroke="black" points="54,-205 54,-235 162,-235 162,-205 54,-205"/>
<text text-anchor="start" x="62" y="-223" font-family="Helvetica,sans-Serif" font-size="10.00">ant::calibration::gui</text>
<text text-anchor="middle" x="108" y="-212" font-family="Helvetica,sans-Serif" font-size="10.00">::update_notify_traits</text>
</a>
</g>
</g>
<!-- Node4&#45;&gt;Node3 -->
<g id="edge4" class="edge"><title>Node4&#45;&gt;Node3</title>
<path fill="none" stroke="midnightblue" d="M108,-194.532C108,-185.361 108,-175.245 108,-167.293"/>
<polygon fill="midnightblue" stroke="midnightblue" points="104.5,-194.679 108,-204.679 111.5,-194.679 104.5,-194.679"/>
</g>
</g>
</svg>
