<?xml version="1.0" encoding="UTF-8" standalone="no"?>
<!DOCTYPE svg PUBLIC "-//W3C//DTD SVG 1.1//EN"
 "http://www.w3.org/Graphics/SVG/1.1/DTD/svg11.dtd">
<!-- Generated by graphviz version 2.36.0 (20140111.2315)
 -->
<!-- Title: ant::analysis::physics::scratch_lheijken_checkcb Pages: 1 -->
<svg width="1134pt" height="247pt"
 viewBox="0.00 0.00 1134.00 247.00" xmlns="http://www.w3.org/2000/svg" xmlns:xlink="http://www.w3.org/1999/xlink">
<g id="graph0" class="graph" transform="scale(1 1) rotate(0) translate(4 243)">
<title>ant::analysis::physics::scratch_lheijken_checkcb</title>
<polygon fill="white" stroke="none" points="-4,4 -4,-243 1130,-243 1130,4 -4,4"/>
<!-- Node2 -->
<g id="node1" class="node"><title>Node2</title>
<polygon fill="#bfbfbf" stroke="black" points="990.5,-120 990.5,-150 1125.5,-150 1125.5,-120 990.5,-120"/>
<text text-anchor="start" x="998.5" y="-138" font-family="Helvetica,sans-Serif" font-size="10.00">ant::analysis::physics</text>
<text text-anchor="middle" x="1058" y="-127" font-family="Helvetica,sans-Serif" font-size="10.00">::scratch_lheijken_checkcb</text>
</g>
<!-- Node3 -->
<g id="node2" class="node"><title>Node3</title>
<g id="a_node2"><a xlink:href="classant_1_1analysis_1_1_physics.html" target="_top" xlink:title="ant::analysis::Physics">
<polygon fill="white" stroke="black" points="758.5,-211.5 758.5,-230.5 871.5,-230.5 871.5,-211.5 758.5,-211.5"/>
<text text-anchor="middle" x="815" y="-218.5" font-family="Helvetica,sans-Serif" font-size="10.00">ant::analysis::Physics</text>
</a>
</g>
</g>
<!-- Node3&#45;&gt;Node2 -->
<g id="edge1" class="edge"><title>Node3&#45;&gt;Node2</title>
<path fill="none" stroke="midnightblue" d="M882.027,-215.998C910.497,-212.225 943.687,-205.607 972,-194 997.929,-183.37 1023.82,-163.786 1040.09,-150.109"/>
<polygon fill="midnightblue" stroke="midnightblue" points="881.265,-212.566 871.769,-217.264 882.122,-219.513 881.265,-212.566"/>
</g>
<!-- Node4 -->
<g id="node3" class="node"><title>Node4</title>
<g id="a_node3"><a xlink:href="classant_1_1analysis_1_1_histogram_factory.html" target="_top" xlink:title="ant::analysis::Histogram\lFactory">
<polygon fill="white" stroke="black" points="514.5,-209 514.5,-239 637.5,-239 637.5,-209 514.5,-209"/>
<text text-anchor="start" x="522.5" y="-227" font-family="Helvetica,sans-Serif" font-size="10.00">ant::analysis::Histogram</text>
<text text-anchor="middle" x="576" y="-216" font-family="Helvetica,sans-Serif" font-size="10.00">Factory</text>
</a>
</g>
</g>
<!-- Node4&#45;&gt;Node3 -->
<g id="edge2" class="edge"><title>Node4&#45;&gt;Node3</title>
<path fill="none" stroke="#9a32cd" stroke-dasharray="5,2" d="M647.971,-223.102C683.286,-222.655 725.352,-222.122 758.305,-221.705"/>
<polygon fill="#9a32cd" stroke="#9a32cd" points="647.68,-219.605 637.726,-223.231 647.769,-226.604 647.68,-219.605"/>
<text text-anchor="middle" x="691" y="-225" font-family="Helvetica,sans-Serif" font-size="10.00"> HistFac</text>
</g>
<!-- Node5 -->
<g id="node4" class="node"><title>Node5</title>
<g id="a_node4"><a xlink:href="structant_1_1calibration_1_1converter_1_1_ge_si_ca___s_a_d_c.html" target="_top" xlink:title="ant::calibration::converter\l::GeSiCa_SADC">
<polygon fill="white" stroke="black" points="366.5,-204 366.5,-234 493.5,-234 493.5,-204 366.5,-204"/>
<text text-anchor="start" x="374.5" y="-222" font-family="Helvetica,sans-Serif" font-size="10.00">ant::calibration::converter</text>
<text text-anchor="middle" x="430" y="-211" font-family="Helvetica,sans-Serif" font-size="10.00">::GeSiCa_SADC</text>
</a>
</g>
</g>
<!-- Node5&#45;&gt;Node2 -->
<g id="edge3" class="edge"><title>Node5&#45;&gt;Node2</title>
<path fill="none" stroke="#9a32cd" stroke-dasharray="5,2" d="M501.476,-201.929C505.027,-201.238 508.55,-200.59 512,-200 714.707,-165.342 768.406,-178.996 972,-150 977.934,-149.155 984.089,-148.208 990.251,-147.211"/>
<polygon fill="#9a32cd" stroke="#9a32cd" points="500.532,-198.549 491.431,-203.974 501.929,-205.409 500.532,-198.549"/>
<text text-anchor="middle" x="691" y="-182" font-family="Helvetica,sans-Serif" font-size="10.00"> adc_converter</text>
</g>
<!-- Node6 -->
<g id="node5" class="node"><title>Node6</title>
<g id="a_node5"><a xlink:href="structant_1_1_calibration_1_1_converter.html" target="_top" xlink:title="The Converter struct handles the transition from raw bytes to somewhat meaningful values (not necessa...">
<polygon fill="white" stroke="black" points="0.5,-202.5 0.5,-221.5 131.5,-221.5 131.5,-202.5 0.5,-202.5"/>
<text text-anchor="middle" x="66" y="-209.5" font-family="Helvetica,sans-Serif" font-size="10.00">ant::Calibration::Converter</text>
</a>
</g>
</g>
<!-- Node6&#45;&gt;Node5 -->
<g id="edge4" class="edge"><title>Node6&#45;&gt;Node5</title>
<path fill="none" stroke="midnightblue" d="M141.842,-214.78C144.596,-214.859 147.322,-214.932 150,-215 224.336,-216.876 309.836,-217.94 366.386,-218.492"/>
<polygon fill="midnightblue" stroke="midnightblue" points="141.89,-211.28 131.79,-214.478 141.68,-218.277 141.89,-211.28"/>
</g>
<!-- Node9 -->
<g id="node8" class="node"><title>Node9</title>
<g id="a_node8"><a xlink:href="structant_1_1calibration_1_1converter_1_1_multi_hit.html" target="_top" xlink:title="ant::calibration::converter\l::MultiHit\&lt; std::uint16_t \&gt;">
<polygon fill="white" stroke="black" points="216,-175 216,-205 344,-205 344,-175 216,-175"/>
<text text-anchor="start" x="224" y="-193" font-family="Helvetica,sans-Serif" font-size="10.00">ant::calibration::converter</text>
<text text-anchor="middle" x="280" y="-182" font-family="Helvetica,sans-Serif" font-size="10.00">::MultiHit&lt; std::uint16_t &gt;</text>
</a>
</g>
</g>
<!-- Node6&#45;&gt;Node9 -->
<g id="edge8" class="edge"><title>Node6&#45;&gt;Node9</title>
<path fill="none" stroke="midnightblue" d="M141.936,-204.224C166.057,-201.72 192.533,-198.973 215.729,-196.566"/>
<polygon fill="midnightblue" stroke="midnightblue" points="141.344,-200.766 131.759,-205.28 142.067,-207.729 141.344,-200.766"/>
</g>
<!-- Node7 -->
<g id="node6" class="node"><title>Node7</title>
<g id="a_node6"><a xlink:href="structant_1_1calibration_1_1converter_1_1_c_a_t_c_h___t_d_c.html" target="_top" xlink:title="ant::calibration::converter\l::CATCH_TDC">
<polygon fill="white" stroke="black" points="751.5,-120 751.5,-150 878.5,-150 878.5,-120 751.5,-120"/>
<text text-anchor="start" x="759.5" y="-138" font-family="Helvetica,sans-Serif" font-size="10.00">ant::calibration::converter</text>
<text text-anchor="middle" x="815" y="-127" font-family="Helvetica,sans-Serif" font-size="10.00">::CATCH_TDC</text>
</a>
</g>
</g>
<!-- Node7&#45;&gt;Node2 -->
<g id="edge5" class="edge"><title>Node7&#45;&gt;Node2</title>
<path fill="none" stroke="#9a32cd" stroke-dasharray="5,2" d="M888.962,-135C921.229,-135 958.911,-135 990.405,-135"/>
<polygon fill="#9a32cd" stroke="#9a32cd" points="888.691,-131.5 878.691,-135 888.691,-138.5 888.691,-131.5"/>
<text text-anchor="middle" x="939" y="-138" font-family="Helvetica,sans-Serif" font-size="10.00"> tdc_converter</text>
</g>
<!-- Node8 -->
<g id="node7" class="node"><title>Node8</title>
<g id="a_node7"><a xlink:href="structant_1_1calibration_1_1converter_1_1_multi_hit_reference.html" target="_top" xlink:title="ant::calibration::converter\l::MultiHitReference\&lt; std\l::uint16_t \&gt;">
<polygon fill="white" stroke="black" points="512.5,-110.5 512.5,-151.5 639.5,-151.5 639.5,-110.5 512.5,-110.5"/>
<text text-anchor="start" x="520.5" y="-139.5" font-family="Helvetica,sans-Serif" font-size="10.00">ant::calibration::converter</text>
<text text-anchor="start" x="520.5" y="-128.5" font-family="Helvetica,sans-Serif" font-size="10.00">::MultiHitReference&lt; std</text>
<text text-anchor="middle" x="576" y="-117.5" font-family="Helvetica,sans-Serif" font-size="10.00">::uint16_t &gt;</text>
</a>
</g>
</g>
<!-- Node8&#45;&gt;Node7 -->
<g id="edge6" class="edge"><title>Node8&#45;&gt;Node7</title>
<path fill="none" stroke="midnightblue" d="M649.924,-132.231C682.418,-132.779 720.306,-133.419 751.482,-133.945"/>
<polygon fill="midnightblue" stroke="midnightblue" points="649.637,-128.726 639.579,-132.056 649.518,-135.725 649.637,-128.726"/>
</g>
<!-- Node9&#45;&gt;Node8 -->
<g id="edge7" class="edge"><title>Node9&#45;&gt;Node8</title>
<path fill="none" stroke="midnightblue" d="M354.01,-177.124C395.205,-169.65 447.576,-159.799 494,-150 499.936,-148.747 506.104,-147.394 512.269,-146.007"/>
<polygon fill="midnightblue" stroke="midnightblue" points="353.276,-173.7 344.058,-178.923 354.521,-180.588 353.276,-173.7"/>
</g>
<!-- Node10 -->
<g id="node9" class="node"><title>Node10</title>
<g id="a_node9"><a xlink:href="structant_1_1_reconstruct_hook_1_1_detector_read_hits.html" target="_top" xlink:title="The DetectorReadHits struct instances are applied before hit matching. ">
<polygon fill="white" stroke="black" points="223.5,-126 223.5,-156 336.5,-156 336.5,-126 223.5,-126"/>
<text text-anchor="start" x="231.5" y="-144" font-family="Helvetica,sans-Serif" font-size="10.00">ant::ReconstructHook</text>
<text text-anchor="middle" x="280" y="-133" font-family="Helvetica,sans-Serif" font-size="10.00">::DetectorReadHits</text>
</a>
</g>
</g>
<!-- Node10&#45;&gt;Node8 -->
<g id="edge9" class="edge"><title>Node10&#45;&gt;Node8</title>
<path fill="none" stroke="midnightblue" d="M346.925,-138.758C396.429,-137.074 463.786,-134.783 512.453,-133.127"/>
<polygon fill="midnightblue" stroke="midnightblue" points="346.52,-135.269 336.645,-139.107 346.758,-142.265 346.52,-135.269"/>
</g>
<!-- Node11 -->
<g id="node10" class="node"><title>Node11</title>
<g id="a_node10"><a xlink:href="structant_1_1_reconstruct_hook_1_1_base.html" target="_top" xlink:title="The Base struct just defines some useful types. ">
<polygon fill="white" stroke="black" points="9.5,-126 9.5,-156 122.5,-156 122.5,-126 9.5,-126"/>
<text text-anchor="start" x="17.5" y="-144" font-family="Helvetica,sans-Serif" font-size="10.00">ant::ReconstructHook</text>
<text text-anchor="middle" x="66" y="-133" font-family="Helvetica,sans-Serif" font-size="10.00">::Base</text>
</a>
</g>
</g>
<!-- Node11&#45;&gt;Node10 -->
<g id="edge10" class="edge"><title>Node11&#45;&gt;Node10</title>
<path fill="none" stroke="midnightblue" d="M132.753,-141C161.782,-141 195.54,-141 223.304,-141"/>
<polygon fill="midnightblue" stroke="midnightblue" points="132.701,-137.5 122.701,-141 132.7,-144.5 132.701,-137.5"/>
</g>
<!-- Node12 -->
<g id="node11" class="node"><title>Node12</title>
<g id="a_node11"><a xlink:href="structant_1_1_logical_channel__t.html" target="_top" xlink:title="The LogicalChannel_t struct uniquely identifies detector element within setup. ">
<polygon fill="white" stroke="black" points="224.5,-87.5 224.5,-106.5 335.5,-106.5 335.5,-87.5 224.5,-87.5"/>
<text text-anchor="middle" x="280" y="-94.5" font-family="Helvetica,sans-Serif" font-size="10.00">ant::LogicalChannel_t</text>
</a>
</g>
</g>
<!-- Node12&#45;&gt;Node8 -->
<g id="edge11" class="edge"><title>Node12&#45;&gt;Node8</title>
<path fill="none" stroke="#9a32cd" stroke-dasharray="5,2" d="M345.947,-102.958C388.182,-107.017 444.419,-112.77 494,-119 499.924,-119.744 506.085,-120.568 512.245,-121.424"/>
<polygon fill="#9a32cd" stroke="#9a32cd" points="346.085,-99.455 335.798,-101.989 345.42,-106.423 346.085,-99.455"/>
<text text-anchor="middle" x="430" y="-122" font-family="Helvetica,sans-Serif" font-size="10.00"> ReferenceChannel</text>
</g>
<!-- Node13 -->
<g id="node12" class="node"><title>Node13</title>
<polygon fill="white" stroke="#bfbfbf" points="212.5,-49.5 212.5,-68.5 347.5,-68.5 347.5,-49.5 212.5,-49.5"/>
<text text-anchor="middle" x="280" y="-56.5" font-family="Helvetica,sans-Serif" font-size="10.00">std::vector&lt; std::uint16_t &gt;</text>
</g>
<!-- Node13&#45;&gt;Node8 -->
<g id="edge12" class="edge"><title>Node13&#45;&gt;Node8</title>
<path fill="none" stroke="#9a32cd" stroke-dasharray="5,2" d="M357.869,-64.7553C398.954,-69.2685 449.995,-77.1989 494,-91 509.414,-95.8342 525.537,-103.254 539.303,-110.395"/>
<polygon fill="#9a32cd" stroke="#9a32cd" points="358.231,-61.2742 347.919,-63.7073 357.497,-68.2357 358.231,-61.2742"/>
<text text-anchor="middle" x="430" y="-94" font-family="Helvetica,sans-Serif" font-size="10.00"> ReferenceHits</text>
</g>
<!-- Node14 -->
<g id="node13" class="node"><title>Node14</title>
<g id="a_node13"><a xlink:href="classant_1_1analysis_1_1utils_1_1_trigger_simulation.html" target="_top" xlink:title="ant::analysis::utils\l::TriggerSimulation">
<polygon fill="white" stroke="black" points="766,-71 766,-101 864,-101 864,-71 766,-71"/>
<text text-anchor="start" x="774" y="-89" font-family="Helvetica,sans-Serif" font-size="10.00">ant::analysis::utils</text>
<text text-anchor="middle" x="815" y="-78" font-family="Helvetica,sans-Serif" font-size="10.00">::TriggerSimulation</text>
</a>
</g>
</g>
<!-- Node14&#45;&gt;Node2 -->
<g id="edge13" class="edge"><title>Node14&#45;&gt;Node2</title>
<path fill="none" stroke="#9a32cd" stroke-dasharray="5,2" d="M874.244,-97.8421C909.201,-104.95 953.796,-114.017 990.182,-121.415"/>
<polygon fill="#9a32cd" stroke="#9a32cd" points="874.688,-94.3608 864.191,-95.7981 873.293,-101.22 874.688,-94.3608"/>
<text text-anchor="middle" x="939" y="-120" font-family="Helvetica,sans-Serif" font-size="10.00"> triggersimu</text>
</g>
<!-- Node15 -->
<g id="node14" class="node"><title>Node15</title>
<g id="a_node14"><a xlink:href="classant_1_1analysis_1_1_prompt_random_1_1_switch.html" target="_top" xlink:title="ant::analysis::PromptRandom\l::Switch">
<polygon fill="white" stroke="black" points="742,-21 742,-51 888,-51 888,-21 742,-21"/>
<text text-anchor="start" x="750" y="-39" font-family="Helvetica,sans-Serif" font-size="10.00">ant::analysis::PromptRandom</text>
<text text-anchor="middle" x="815" y="-28" font-family="Helvetica,sans-Serif" font-size="10.00">::Switch</text>
</a>
</g>
</g>
<!-- Node15&#45;&gt;Node2 -->
<g id="edge14" class="edge"><title>Node15&#45;&gt;Node2</title>
<path fill="none" stroke="#9a32cd" stroke-dasharray="5,2" d="M875.308,-54.1503C904.789,-63.7695 940.711,-76.3981 972,-90 992.366,-98.8536 1014.51,-110.654 1031.09,-119.949"/>
<polygon fill="#9a32cd" stroke="#9a32cd" points="876.165,-50.7491 865.573,-51.0065 874.013,-57.4104 876.165,-50.7491"/>
<text text-anchor="middle" x="939" y="-93" font-family="Helvetica,sans-Serif" font-size="10.00"> promptrandom</text>
</g>
<!-- Node16 -->
<g id="node15" class="node"><title>Node16</title>
<g id="a_node15"><a xlink:href="classant_1_1_piecewise_interval.html" target="_top" xlink:title="ant::PiecewiseInterval\l\&lt; double \&gt;">
<polygon fill="white" stroke="black" points="519.5,-14 519.5,-44 632.5,-44 632.5,-14 519.5,-14"/>
<text text-anchor="start" x="527.5" y="-32" font-family="Helvetica,sans-Serif" font-size="10.00">ant::PiecewiseInterval</text>
<text text-anchor="middle" x="576" y="-21" font-family="Helvetica,sans-Serif" font-size="10.00">&lt; double &gt;</text>
</a>
</g>
</g>
<!-- Node16&#45;&gt;Node15 -->
<g id="edge15" class="edge"><title>Node16&#45;&gt;Node15</title>
<path fill="none" stroke="#9a32cd" stroke-dasharray="5,2" d="M642.748,-30.9419C673.491,-31.8499 710.185,-32.9337 741.708,-33.8648"/>
<polygon fill="#9a32cd" stroke="#9a32cd" points="642.665,-27.438 632.566,-30.6412 642.458,-34.435 642.665,-27.438"/>
<text text-anchor="middle" x="691" y="-48" font-family="Helvetica,sans-Serif" font-size="10.00"> promptw</text>
<text text-anchor="middle" x="691" y="-37" font-family="Helvetica,sans-Serif" font-size="10.00">randomw</text>
</g>
<!-- Node17 -->
<g id="node16" class="node"><title>Node17</title>
<g id="a_node16"><a xlink:title="STL class. ">
<polygon fill="white" stroke="#bfbfbf" points="228,-0 228,-30 332,-30 332,-0 228,-0"/>
<text text-anchor="start" x="236" y="-18" font-family="Helvetica,sans-Serif" font-size="10.00">std::vector&lt; interval</text>
<text text-anchor="middle" x="280" y="-7" font-family="Helvetica,sans-Serif" font-size="10.00">&lt; double &gt; &gt;</text>
</a>
</g>
</g>
<!-- Node17&#45;&gt;Node16 -->
<g id="edge16" class="edge"><title>Node17&#45;&gt;Node16</title>
<path fill="none" stroke="midnightblue" d="M342.343,-17.9211C394.545,-20.4069 468.881,-23.9467 519.377,-26.3513"/>
<polygon fill="midnightblue" stroke="midnightblue" points="342.366,-14.4183 332.211,-17.4386 342.033,-21.4104 342.366,-14.4183"/>
</g>
<!-- Node18 -->
<g id="node17" class="node"><title>Node18</title>
<polygon fill="white" stroke="#bfbfbf" points="51.5,-5.5 51.5,-24.5 80.5,-24.5 80.5,-5.5 51.5,-5.5"/>
<text text-anchor="middle" x="66" y="-12.5" font-family="Helvetica,sans-Serif" font-size="10.00">T</text>
</g>
<!-- Node18&#45;&gt;Node17 -->
<g id="edge17" class="edge"><title>Node18&#45;&gt;Node17</title>
<path fill="none" stroke="#9a32cd" stroke-dasharray="5,2" d="M90.6257,-15C123.546,-15 184.073,-15 227.645,-15"/>
<polygon fill="#9a32cd" stroke="#9a32cd" points="90.5841,-11.5001 80.5841,-15 90.584,-18.5001 90.5841,-11.5001"/>
<text text-anchor="middle" x="172" y="-18" font-family="Helvetica,sans-Serif" font-size="10.00"> elements</text>
</g>
</g>
</svg>
