<?xml version="1.0" encoding="UTF-8" standalone="no"?>
<!DOCTYPE svg PUBLIC "-//W3C//DTD SVG 1.1//EN"
 "http://www.w3.org/Graphics/SVG/1.1/DTD/svg11.dtd">
<!-- Generated by graphviz version 2.36.0 (20140111.2315)
 -->
<!-- Title: ant::Calibration::Module Pages: 1 -->
<svg width="272pt" height="152pt"
 viewBox="0.00 0.00 272.00 152.00" xmlns="http://www.w3.org/2000/svg" xmlns:xlink="http://www.w3.org/1999/xlink">
<g id="graph0" class="graph" transform="scale(1 1) rotate(0) translate(4 148)">
<title>ant::Calibration::Module</title>
<polygon fill="white" stroke="none" points="-4,4 -4,-148 268,-148 268,4 -4,4"/>
<!-- Node17 -->
<g id="node1" class="node"><title>Node17</title>
<polygon fill="#bfbfbf" stroke="black" points="79,-0.5 79,-19.5 199,-19.5 199,-0.5 79,-0.5"/>
<text text-anchor="middle" x="139" y="-7.5" font-family="Helvetica,sans-Serif" font-size="10.00">ant::Calibration::Module</text>
</g>
<!-- Node18 -->
<g id="node2" class="node"><title>Node18</title>
<g id="a_node2"><a xlink:href="classant_1_1_calibration_1_1_physics_module.html" target="_top" xlink:title="The PhysicsModule class gives the modules the ability to create histograms from events as well as fit...">
<polygon fill="white" stroke="black" points="9,-57 9,-87 133,-87 133,-57 9,-57"/>
<text text-anchor="start" x="17" y="-75" font-family="Helvetica,sans-Serif" font-size="10.00">ant::Calibration::Physics</text>
<text text-anchor="middle" x="71" y="-64" font-family="Helvetica,sans-Serif" font-size="10.00">Module</text>
</a>
</g>
</g>
<!-- Node18&#45;&gt;Node17 -->
<g id="edge1" class="edge"><title>Node18&#45;&gt;Node17</title>
<path fill="none" stroke="midnightblue" d="M94.8889,-49.9216C106.64,-39.5533 120.163,-27.6209 129.105,-19.7305"/>
<polygon fill="midnightblue" stroke="midnightblue" points="92.2978,-47.5401 87.1151,-56.7808 96.9291,-52.789 92.2978,-47.5401"/>
</g>
<!-- Node19 -->
<g id="node3" class="node"><title>Node19</title>
<g id="a_node3"><a xlink:href="classant_1_1_calibration_1_1_base_module.html" target="_top" xlink:title="The BaseModule class provides a name for identification. ">
<polygon fill="white" stroke="black" points="-0.5,-124.5 -0.5,-143.5 142.5,-143.5 142.5,-124.5 -0.5,-124.5"/>
<text text-anchor="middle" x="71" y="-131.5" font-family="Helvetica,sans-Serif" font-size="10.00">ant::Calibration::BaseModule</text>
</a>
</g>
</g>
<!-- Node19&#45;&gt;Node18 -->
<g id="edge2" class="edge"><title>Node19&#45;&gt;Node18</title>
<path fill="none" stroke="midnightblue" d="M71,-114.371C71,-105.585 71,-95.2721 71,-87.1408"/>
<polygon fill="midnightblue" stroke="midnightblue" points="67.5001,-114.403 71,-124.403 74.5001,-114.403 67.5001,-114.403"/>
</g>
<!-- Node20 -->
<g id="node4" class="node"><title>Node20</title>
<g id="a_node4"><a xlink:href="structant_1_1_updateable__traits.html" target="_top" xlink:title="The Updateable_traits class used by the UpdateableManager. ">
<polygon fill="white" stroke="black" points="151.5,-62.5 151.5,-81.5 264.5,-81.5 264.5,-62.5 151.5,-62.5"/>
<text text-anchor="middle" x="208" y="-69.5" font-family="Helvetica,sans-Serif" font-size="10.00">ant::Updateable_traits</text>
</a>
</g>
</g>
<!-- Node20&#45;&gt;Node17 -->
<g id="edge3" class="edge"><title>Node20&#45;&gt;Node17</title>
<path fill="none" stroke="midnightblue" d="M190.199,-55.5206C177.044,-44.0815 159.62,-28.9305 148.868,-19.5806"/>
<polygon fill="midnightblue" stroke="midnightblue" points="188.271,-58.4828 198.114,-62.4035 192.865,-53.2005 188.271,-58.4828"/>
</g>
</g>
</svg>
