<?xml version="1.0" encoding="UTF-8" standalone="no"?>
<!DOCTYPE svg PUBLIC "-//W3C//DTD SVG 1.1//EN"
 "http://www.w3.org/Graphics/SVG/1.1/DTD/svg11.dtd">
<!-- Generated by graphviz version 2.36.0 (20140111.2315)
 -->
<!-- Title: ant::analysis::physics::OmegaEtaG2::DebugCounter::Handle Pages: 1 -->
<svg width="158pt" height="130pt"
 viewBox="0.00 0.00 158.00 130.00" xmlns="http://www.w3.org/2000/svg" xmlns:xlink="http://www.w3.org/1999/xlink">
<g id="graph0" class="graph" transform="scale(1 1) rotate(0) translate(4 126)">
<title>ant::analysis::physics::OmegaEtaG2::DebugCounter::Handle</title>
<polygon fill="white" stroke="none" points="-4,4 -4,-126 154,-126 154,4 -4,4"/>
<!-- Node1 -->
<g id="node1" class="node"><title>Node1</title>
<polygon fill="#bfbfbf" stroke="black" points="-0.5,-0.5 -0.5,-41.5 150.5,-41.5 150.5,-0.5 -0.5,-0.5"/>
<text text-anchor="start" x="7.5" y="-29.5" font-family="Helvetica,sans-Serif" font-size="10.00">ant::analysis::physics</text>
<text text-anchor="start" x="7.5" y="-18.5" font-family="Helvetica,sans-Serif" font-size="10.00">::OmegaEtaG2::DebugCounter</text>
<text text-anchor="middle" x="75" y="-7.5" font-family="Helvetica,sans-Serif" font-size="10.00">::Handle</text>
</g>
<!-- Node2 -->
<g id="node2" class="node"><title>Node2</title>
<g id="a_node2"><a xlink:href="classant_1_1analysis_1_1physics_1_1_omega_eta_g2_1_1_debug_counter.html" target="_top" xlink:title="ant::analysis::physics\l::OmegaEtaG2::DebugCounter">
<polygon fill="white" stroke="black" points="-0.5,-91 -0.5,-121 150.5,-121 150.5,-91 -0.5,-91"/>
<text text-anchor="start" x="7.5" y="-109" font-family="Helvetica,sans-Serif" font-size="10.00">ant::analysis::physics</text>
<text text-anchor="middle" x="75" y="-98" font-family="Helvetica,sans-Serif" font-size="10.00">::OmegaEtaG2::DebugCounter</text>
</a>
</g>
</g>
<!-- Node2&#45;&gt;Node1 -->
<g id="edge1" class="edge"><title>Node2&#45;&gt;Node1</title>
<path fill="none" stroke="#9a32cd" stroke-dasharray="5,2" d="M75,-80.8051C75,-68.3941 75,-53.4676 75,-41.7587"/>
<polygon fill="#9a32cd" stroke="#9a32cd" points="71.5001,-80.9201 75,-90.9202 78.5001,-80.9202 71.5001,-80.9201"/>
<text text-anchor="middle" x="90.5" y="-63.5" font-family="Helvetica,sans-Serif" font-size="10.00"> parent</text>
</g>
</g>
</svg>
