<?xml version="1.0" encoding="UTF-8" standalone="no"?>
<!DOCTYPE svg PUBLIC "-//W3C//DTD SVG 1.1//EN"
 "http://www.w3.org/Graphics/SVG/1.1/DTD/svg11.dtd">
<!-- Generated by graphviz version 2.36.0 (20140111.2315)
 -->
<!-- Title: ant::analysis::physics::KinFitIMCheck Pages: 1 -->
<svg width="824pt" height="346pt"
 viewBox="0.00 0.00 824.00 346.00" xmlns="http://www.w3.org/2000/svg" xmlns:xlink="http://www.w3.org/1999/xlink">
<g id="graph0" class="graph" transform="scale(1 1) rotate(0) translate(4 342)">
<title>ant::analysis::physics::KinFitIMCheck</title>
<polygon fill="white" stroke="none" points="-4,4 -4,-342 820,-342 820,4 -4,4"/>
<!-- Node2 -->
<g id="node1" class="node"><title>Node2</title>
<polygon fill="#bfbfbf" stroke="black" points="704,-98 704,-128 816,-128 816,-98 704,-98"/>
<text text-anchor="start" x="712" y="-116" font-family="Helvetica,sans-Serif" font-size="10.00">ant::analysis::physics</text>
<text text-anchor="middle" x="760" y="-105" font-family="Helvetica,sans-Serif" font-size="10.00">::KinFitIMCheck</text>
</g>
<!-- Node3 -->
<g id="node2" class="node"><title>Node3</title>
<g id="a_node2"><a xlink:href="classant_1_1analysis_1_1_physics.html" target="_top" xlink:title="ant::analysis::Physics">
<polygon fill="white" stroke="black" points="472.5,-261.5 472.5,-280.5 585.5,-280.5 585.5,-261.5 472.5,-261.5"/>
<text text-anchor="middle" x="529" y="-268.5" font-family="Helvetica,sans-Serif" font-size="10.00">ant::analysis::Physics</text>
</a>
</g>
</g>
<!-- Node3&#45;&gt;Node2 -->
<g id="edge1" class="edge"><title>Node3&#45;&gt;Node2</title>
<path fill="none" stroke="midnightblue" d="M553.434,-255.602C584.108,-235.361 639.446,-198.551 686,-166 703.969,-153.435 724.117,-138.763 738.686,-128.045"/>
<polygon fill="midnightblue" stroke="midnightblue" points="551.168,-252.904 544.743,-261.329 555.019,-258.749 551.168,-252.904"/>
</g>
<!-- Node4 -->
<g id="node3" class="node"><title>Node4</title>
<g id="a_node3"><a xlink:href="classant_1_1analysis_1_1_histogram_factory.html" target="_top" xlink:title="ant::analysis::Histogram\lFactory">
<polygon fill="white" stroke="black" points="253.5,-308 253.5,-338 376.5,-338 376.5,-308 253.5,-308"/>
<text text-anchor="start" x="261.5" y="-326" font-family="Helvetica,sans-Serif" font-size="10.00">ant::analysis::Histogram</text>
<text text-anchor="middle" x="315" y="-315" font-family="Helvetica,sans-Serif" font-size="10.00">Factory</text>
</a>
</g>
</g>
<!-- Node4&#45;&gt;Node3 -->
<g id="edge2" class="edge"><title>Node4&#45;&gt;Node3</title>
<path fill="none" stroke="#9a32cd" stroke-dasharray="5,2" d="M386.672,-305.665C420.772,-297.301 460.38,-287.586 488.974,-280.572"/>
<polygon fill="#9a32cd" stroke="#9a32cd" points="385.629,-302.317 376.751,-308.099 387.297,-309.116 385.629,-302.317"/>
<text text-anchor="middle" x="417" y="-306" font-family="Helvetica,sans-Serif" font-size="10.00"> HistFac</text>
</g>
<!-- Node5 -->
<g id="node4" class="node"><title>Node5</title>
<g id="a_node4"><a xlink:href="classant_1_1analysis_1_1utils_1_1_kin_fitter.html" target="_top" xlink:title="ant::analysis::utils\l::KinFitter">
<polygon fill="white" stroke="black" points="481,-161 481,-191 577,-191 577,-161 481,-161"/>
<text text-anchor="start" x="489" y="-179" font-family="Helvetica,sans-Serif" font-size="10.00">ant::analysis::utils</text>
<text text-anchor="middle" x="529" y="-168" font-family="Helvetica,sans-Serif" font-size="10.00">::KinFitter</text>
</a>
</g>
</g>
<!-- Node5&#45;&gt;Node2 -->
<g id="edge3" class="edge"><title>Node5&#45;&gt;Node2</title>
<path fill="none" stroke="#9a32cd" stroke-dasharray="5,2" d="M586.994,-160.32C622.836,-150.46 668.832,-137.806 704.241,-128.065"/>
<polygon fill="#9a32cd" stroke="#9a32cd" points="585.885,-156.996 577.171,-163.023 587.741,-163.745 585.885,-156.996"/>
<text text-anchor="middle" x="653" y="-154" font-family="Helvetica,sans-Serif" font-size="10.00"> fitter</text>
</g>
<!-- Node6 -->
<g id="node5" class="node"><title>Node6</title>
<g id="a_node5"><a xlink:href="classant_1_1analysis_1_1utils_1_1_fitter.html" target="_top" xlink:title="ant::analysis::utils\l::Fitter">
<polygon fill="white" stroke="black" points="267,-259 267,-289 363,-289 363,-259 267,-259"/>
<text text-anchor="start" x="275" y="-277" font-family="Helvetica,sans-Serif" font-size="10.00">ant::analysis::utils</text>
<text text-anchor="middle" x="315" y="-266" font-family="Helvetica,sans-Serif" font-size="10.00">::Fitter</text>
</a>
</g>
</g>
<!-- Node6&#45;&gt;Node5 -->
<g id="edge4" class="edge"><title>Node6&#45;&gt;Node5</title>
<path fill="none" stroke="midnightblue" d="M363.513,-255.065C368.416,-253.044 373.316,-250.997 378,-249 404.899,-237.53 411.639,-234.658 438,-222 458.722,-212.049 481.803,-200.237 499.403,-191.074"/>
<polygon fill="midnightblue" stroke="midnightblue" points="362.065,-251.876 354.133,-258.9 364.714,-258.356 362.065,-251.876"/>
</g>
<!-- Node7 -->
<g id="node6" class="node"><title>Node7</title>
<g id="a_node6"><a xlink:href="structant_1_1analysis_1_1utils_1_1_kin_fitter_1_1_target__t.html" target="_top" xlink:title="ant::analysis::utils\l::KinFitter::Target_t">
<polygon fill="white" stroke="black" points="264.5,-210 264.5,-240 365.5,-240 365.5,-210 264.5,-210"/>
<text text-anchor="start" x="272.5" y="-228" font-family="Helvetica,sans-Serif" font-size="10.00">ant::analysis::utils</text>
<text text-anchor="middle" x="315" y="-217" font-family="Helvetica,sans-Serif" font-size="10.00">::KinFitter::Target_t</text>
</a>
</g>
</g>
<!-- Node7&#45;&gt;Node5 -->
<g id="edge5" class="edge"><title>Node7&#45;&gt;Node5</title>
<path fill="none" stroke="#9a32cd" stroke-dasharray="5,2" d="M375.761,-211.187C409.007,-203.503 449.801,-194.074 480.79,-186.912"/>
<polygon fill="#9a32cd" stroke="#9a32cd" points="374.66,-207.85 365.705,-213.512 376.236,-214.67 374.66,-207.85"/>
<text text-anchor="middle" x="417" y="-210" font-family="Helvetica,sans-Serif" font-size="10.00"> Target</text>
</g>
<!-- Node8 -->
<g id="node7" class="node"><title>Node8</title>
<g id="a_node7"><a xlink:href="structant_1_1analysis_1_1utils_1_1_kin_fitter_1_1_beam_e__t.html" target="_top" xlink:title="ant::analysis::utils\l::KinFitter::BeamE_t">
<polygon fill="white" stroke="black" points="262,-161 262,-191 368,-191 368,-161 262,-161"/>
<text text-anchor="start" x="270" y="-179" font-family="Helvetica,sans-Serif" font-size="10.00">ant::analysis::utils</text>
<text text-anchor="middle" x="315" y="-168" font-family="Helvetica,sans-Serif" font-size="10.00">::KinFitter::BeamE_t</text>
</a>
</g>
</g>
<!-- Node8&#45;&gt;Node5 -->
<g id="edge6" class="edge"><title>Node8&#45;&gt;Node5</title>
<path fill="none" stroke="#9a32cd" stroke-dasharray="5,2" d="M378.501,-176C411.223,-176 450.635,-176 480.776,-176"/>
<polygon fill="#9a32cd" stroke="#9a32cd" points="378.133,-172.5 368.133,-176 378.133,-179.5 378.133,-172.5"/>
<text text-anchor="middle" x="417" y="-179" font-family="Helvetica,sans-Serif" font-size="10.00"> BeamE</text>
</g>
<!-- Node9 -->
<g id="node8" class="node"><title>Node9</title>
<polygon fill="white" stroke="#bfbfbf" points="134,-166.5 134,-185.5 190,-185.5 190,-166.5 134,-166.5"/>
<text text-anchor="middle" x="162" y="-173.5" font-family="Helvetica,sans-Serif" font-size="10.00">V_S_P_t</text>
</g>
<!-- Node9&#45;&gt;Node8 -->
<g id="edge7" class="edge"><title>Node9&#45;&gt;Node8</title>
<path fill="none" stroke="midnightblue" d="M200.443,-176C218.963,-176 241.62,-176 261.811,-176"/>
<polygon fill="midnightblue" stroke="midnightblue" points="200.345,-172.5 190.345,-176 200.345,-179.5 200.345,-172.5"/>
</g>
<!-- Node10 -->
<g id="node9" class="node"><title>Node10</title>
<polygon fill="white" stroke="#bfbfbf" points="252.5,-122.5 252.5,-141.5 377.5,-141.5 377.5,-122.5 252.5,-122.5"/>
<text text-anchor="middle" x="315" y="-129.5" font-family="Helvetica,sans-Serif" font-size="10.00">std::vector&lt; FitParticle &gt;</text>
</g>
<!-- Node10&#45;&gt;Node5 -->
<g id="edge8" class="edge"><title>Node10&#45;&gt;Node5</title>
<path fill="none" stroke="#9a32cd" stroke-dasharray="5,2" d="M372.225,-143.669C406.148,-150.71 448.87,-159.577 480.989,-166.243"/>
<polygon fill="#9a32cd" stroke="#9a32cd" points="372.503,-140.153 362.001,-141.547 371.081,-147.007 372.503,-140.153"/>
<text text-anchor="middle" x="417" y="-160" font-family="Helvetica,sans-Serif" font-size="10.00"> Photons</text>
</g>
<!-- Node11 -->
<g id="node10" class="node"><title>Node11</title>
<g id="a_node10"><a xlink:href="structant_1_1analysis_1_1physics_1_1_kin_fit_i_m_check_1_1_tree__t.html" target="_top" xlink:title="ant::analysis::physics\l::KinFitIMCheck::Tree_t">
<polygon fill="white" stroke="black" points="468,-98 468,-128 590,-128 590,-98 468,-98"/>
<text text-anchor="start" x="476" y="-116" font-family="Helvetica,sans-Serif" font-size="10.00">ant::analysis::physics</text>
<text text-anchor="middle" x="529" y="-105" font-family="Helvetica,sans-Serif" font-size="10.00">::KinFitIMCheck::Tree_t</text>
</a>
</g>
</g>
<!-- Node11&#45;&gt;Node2 -->
<g id="edge9" class="edge"><title>Node11&#45;&gt;Node2</title>
<path fill="none" stroke="#9a32cd" stroke-dasharray="5,2" d="M600.301,-113C633.616,-113 672.828,-113 703.939,-113"/>
<polygon fill="#9a32cd" stroke="#9a32cd" points="600.167,-109.5 590.167,-113 600.167,-116.5 600.167,-109.5"/>
<text text-anchor="middle" x="653" y="-116" font-family="Helvetica,sans-Serif" font-size="10.00"> t</text>
</g>
<!-- Node12 -->
<g id="node11" class="node"><title>Node12</title>
<g id="a_node11"><a xlink:href="classant_1_1_wrap_t_tree.html" target="_top" xlink:title="The WrapTTree struct simplifies TTree handling in physics classes. ">
<polygon fill="white" stroke="black" points="272.5,-84.5 272.5,-103.5 357.5,-103.5 357.5,-84.5 272.5,-84.5"/>
<text text-anchor="middle" x="315" y="-91.5" font-family="Helvetica,sans-Serif" font-size="10.00">ant::WrapTTree</text>
</a>
</g>
</g>
<!-- Node12&#45;&gt;Node11 -->
<g id="edge10" class="edge"><title>Node12&#45;&gt;Node11</title>
<path fill="none" stroke="midnightblue" d="M367.931,-98.6542C398.056,-101.354 436.137,-104.767 467.597,-107.587"/>
<polygon fill="midnightblue" stroke="midnightblue" points="367.904,-95.1378 357.631,-97.7311 367.279,-102.11 367.904,-95.1378"/>
</g>
<!-- Node13 -->
<g id="node12" class="node"><title>Node13</title>
<g id="a_node12"><a xlink:href="classant_1_1analysis_1_1_prompt_random_1_1_switch.html" target="_top" xlink:title="ant::analysis::PromptRandom\l::Switch">
<polygon fill="white" stroke="black" points="456,-49 456,-79 602,-79 602,-49 456,-49"/>
<text text-anchor="start" x="464" y="-67" font-family="Helvetica,sans-Serif" font-size="10.00">ant::analysis::PromptRandom</text>
<text text-anchor="middle" x="529" y="-56" font-family="Helvetica,sans-Serif" font-size="10.00">::Switch</text>
</a>
</g>
</g>
<!-- Node13&#45;&gt;Node2 -->
<g id="edge11" class="edge"><title>Node13&#45;&gt;Node2</title>
<path fill="none" stroke="#9a32cd" stroke-dasharray="5,2" d="M610.164,-81.1531C641.097,-87.7718 675.713,-95.1788 703.772,-101.183"/>
<polygon fill="#9a32cd" stroke="#9a32cd" points="610.775,-77.7045 600.264,-79.0346 609.31,-84.5496 610.775,-77.7045"/>
<text text-anchor="middle" x="653" y="-101" font-family="Helvetica,sans-Serif" font-size="10.00"> promptrandom</text>
</g>
<!-- Node14 -->
<g id="node13" class="node"><title>Node14</title>
<g id="a_node13"><a xlink:href="classant_1_1_piecewise_interval.html" target="_top" xlink:title="ant::PiecewiseInterval\l\&lt; double \&gt;">
<polygon fill="white" stroke="black" points="258.5,-35 258.5,-65 371.5,-65 371.5,-35 258.5,-35"/>
<text text-anchor="start" x="266.5" y="-53" font-family="Helvetica,sans-Serif" font-size="10.00">ant::PiecewiseInterval</text>
<text text-anchor="middle" x="315" y="-42" font-family="Helvetica,sans-Serif" font-size="10.00">&lt; double &gt;</text>
</a>
</g>
</g>
<!-- Node14&#45;&gt;Node13 -->
<g id="edge12" class="edge"><title>Node14&#45;&gt;Node13</title>
<path fill="none" stroke="#9a32cd" stroke-dasharray="5,2" d="M381.796,-54.3013C400.002,-55.4951 419.768,-56.7945 438,-58 443.781,-58.3823 449.772,-58.7794 455.79,-59.179"/>
<polygon fill="#9a32cd" stroke="#9a32cd" points="381.779,-50.7928 371.572,-53.6313 381.322,-57.7778 381.779,-50.7928"/>
<text text-anchor="middle" x="417" y="-72" font-family="Helvetica,sans-Serif" font-size="10.00"> promptw</text>
<text text-anchor="middle" x="417" y="-61" font-family="Helvetica,sans-Serif" font-size="10.00">randomw</text>
</g>
<!-- Node15 -->
<g id="node14" class="node"><title>Node15</title>
<g id="a_node14"><a xlink:title="STL class. ">
<polygon fill="white" stroke="#bfbfbf" points="110,-35 110,-65 214,-65 214,-35 110,-35"/>
<text text-anchor="start" x="118" y="-53" font-family="Helvetica,sans-Serif" font-size="10.00">std::vector&lt; interval</text>
<text text-anchor="middle" x="162" y="-42" font-family="Helvetica,sans-Serif" font-size="10.00">&lt; double &gt; &gt;</text>
</a>
</g>
</g>
<!-- Node15&#45;&gt;Node14 -->
<g id="edge13" class="edge"><title>Node15&#45;&gt;Node14</title>
<path fill="none" stroke="midnightblue" d="M224.291,-50C235.529,-50 247.204,-50 258.269,-50"/>
<polygon fill="midnightblue" stroke="midnightblue" points="224.122,-46.5001 214.122,-50 224.122,-53.5001 224.122,-46.5001"/>
</g>
<!-- Node16 -->
<g id="node15" class="node"><title>Node16</title>
<polygon fill="white" stroke="#bfbfbf" points="0.5,-40.5 0.5,-59.5 29.5,-59.5 29.5,-40.5 0.5,-40.5"/>
<text text-anchor="middle" x="15" y="-47.5" font-family="Helvetica,sans-Serif" font-size="10.00">T</text>
</g>
<!-- Node16&#45;&gt;Node15 -->
<g id="edge14" class="edge"><title>Node16&#45;&gt;Node15</title>
<path fill="none" stroke="#9a32cd" stroke-dasharray="5,2" d="M39.7626,-50C58.7294,-50 85.9845,-50 109.851,-50"/>
<polygon fill="#9a32cd" stroke="#9a32cd" points="39.6413,-46.5001 29.6412,-50 39.6412,-53.5001 39.6413,-46.5001"/>
<text text-anchor="middle" x="70" y="-53" font-family="Helvetica,sans-Serif" font-size="10.00"> elements</text>
</g>
<!-- Node17 -->
<g id="node16" class="node"><title>Node17</title>
<g id="a_node16"><a xlink:href="classant_1_1analysis_1_1utils_1_1_trigger_simulation.html" target="_top" xlink:title="ant::analysis::utils\l::TriggerSimulation">
<polygon fill="white" stroke="black" points="480,-0 480,-30 578,-30 578,-0 480,-0"/>
<text text-anchor="start" x="488" y="-18" font-family="Helvetica,sans-Serif" font-size="10.00">ant::analysis::utils</text>
<text text-anchor="middle" x="529" y="-7" font-family="Helvetica,sans-Serif" font-size="10.00">::TriggerSimulation</text>
</a>
</g>
</g>
<!-- Node17&#45;&gt;Node2 -->
<g id="edge15" class="edge"><title>Node17&#45;&gt;Node2</title>
<path fill="none" stroke="#9a32cd" stroke-dasharray="5,2" d="M585.267,-33.2235C590.927,-35.1493 596.584,-37.0986 602,-39 639.548,-52.1826 650.046,-52.9444 686,-70 703.276,-78.1953 721.831,-89.1558 735.911,-97.9598"/>
<polygon fill="#9a32cd" stroke="#9a32cd" points="586.375,-29.9037 575.781,-30.0174 584.134,-36.5352 586.375,-29.9037"/>
<text text-anchor="middle" x="653" y="-73" font-family="Helvetica,sans-Serif" font-size="10.00"> triggersimu</text>
</g>
</g>
</svg>
