<?xml version="1.0" encoding="UTF-8" standalone="no"?>
<!DOCTYPE svg PUBLIC "-//W3C//DTD SVG 1.1//EN"
 "http://www.w3.org/Graphics/SVG/1.1/DTD/svg11.dtd">
<!-- Generated by graphviz version 2.36.0 (20140111.2315)
 -->
<!-- Title: ant::analysis::utils::scratch_collicott_CrossSection Pages: 1 -->
<svg width="554pt" height="197pt"
 viewBox="0.00 0.00 554.00 197.00" xmlns="http://www.w3.org/2000/svg" xmlns:xlink="http://www.w3.org/1999/xlink">
<g id="graph0" class="graph" transform="scale(1 1) rotate(0) translate(4 193)">
<title>ant::analysis::utils::scratch_collicott_CrossSection</title>
<polygon fill="white" stroke="none" points="-4,4 -4,-193 550,-193 550,4 -4,4"/>
<!-- Node1 -->
<g id="node1" class="node"><title>Node1</title>
<polygon fill="#bfbfbf" stroke="black" points="388,-68 388,-98 546,-98 546,-68 388,-68"/>
<text text-anchor="start" x="396" y="-86" font-family="Helvetica,sans-Serif" font-size="10.00">ant::analysis::utils</text>
<text text-anchor="middle" x="467" y="-75" font-family="Helvetica,sans-Serif" font-size="10.00">::scratch_collicott_CrossSection</text>
</g>
<!-- Node2 -->
<g id="node2" class="node"><title>Node2</title>
<g id="a_node2"><a xlink:href="structant_1_1analysis_1_1utils_1_1scratch__collicott___cross_section_1_1_scalers__t.html" target="_top" xlink:title="ant::analysis::utils\l::scratch_collicott_CrossSection\l::Scalers_t">
<polygon fill="white" stroke="black" points="134,-147.5 134,-188.5 292,-188.5 292,-147.5 134,-147.5"/>
<text text-anchor="start" x="142" y="-176.5" font-family="Helvetica,sans-Serif" font-size="10.00">ant::analysis::utils</text>
<text text-anchor="start" x="142" y="-165.5" font-family="Helvetica,sans-Serif" font-size="10.00">::scratch_collicott_CrossSection</text>
<text text-anchor="middle" x="213" y="-154.5" font-family="Helvetica,sans-Serif" font-size="10.00">::Scalers_t</text>
</a>
</g>
</g>
<!-- Node2&#45;&gt;Node1 -->
<g id="edge1" class="edge"><title>Node2&#45;&gt;Node1</title>
<path fill="none" stroke="#9a32cd" stroke-dasharray="5,2" d="M284.743,-144.138C328.567,-129.356 383.513,-110.823 421.356,-98.0586"/>
<polygon fill="#9a32cd" stroke="#9a32cd" points="283.359,-140.911 275.002,-147.424 285.596,-147.544 283.359,-140.911"/>
<text text-anchor="middle" x="340" y="-138" font-family="Helvetica,sans-Serif" font-size="10.00"> scalers</text>
</g>
<!-- Node3 -->
<g id="node3" class="node"><title>Node3</title>
<g id="a_node3"><a xlink:href="classant_1_1_wrap_t_tree.html" target="_top" xlink:title="The WrapTTree struct simplifies TTree handling in physics classes. ">
<polygon fill="white" stroke="black" points="5.5,-119.5 5.5,-138.5 90.5,-138.5 90.5,-119.5 5.5,-119.5"/>
<text text-anchor="middle" x="48" y="-126.5" font-family="Helvetica,sans-Serif" font-size="10.00">ant::WrapTTree</text>
</a>
</g>
</g>
<!-- Node3&#45;&gt;Node2 -->
<g id="edge2" class="edge"><title>Node3&#45;&gt;Node2</title>
<path fill="none" stroke="midnightblue" d="M98.8054,-140.917C109.938,-143.58 122.005,-146.467 133.971,-149.331"/>
<polygon fill="midnightblue" stroke="midnightblue" points="99.4142,-137.464 88.8743,-138.54 97.7853,-144.271 99.4142,-137.464"/>
</g>
<!-- Node4 -->
<g id="node4" class="node"><title>Node4</title>
<g id="a_node4"><a xlink:href="structant_1_1analysis_1_1utils_1_1scratch__collicott___cross_section_1_1_yield__t.html" target="_top" xlink:title="ant::analysis::utils\l::scratch_collicott_CrossSection\l::Yield_t">
<polygon fill="white" stroke="black" points="134,-87.5 134,-128.5 292,-128.5 292,-87.5 134,-87.5"/>
<text text-anchor="start" x="142" y="-116.5" font-family="Helvetica,sans-Serif" font-size="10.00">ant::analysis::utils</text>
<text text-anchor="start" x="142" y="-105.5" font-family="Helvetica,sans-Serif" font-size="10.00">::scratch_collicott_CrossSection</text>
<text text-anchor="middle" x="213" y="-94.5" font-family="Helvetica,sans-Serif" font-size="10.00">::Yield_t</text>
</a>
</g>
</g>
<!-- Node3&#45;&gt;Node4 -->
<g id="edge4" class="edge"><title>Node3&#45;&gt;Node4</title>
<path fill="none" stroke="midnightblue" d="M100.775,-122.33C111.281,-120.976 122.552,-119.524 133.741,-118.082"/>
<polygon fill="midnightblue" stroke="midnightblue" points="100.024,-118.897 90.5535,-123.646 100.919,-125.84 100.024,-118.897"/>
</g>
<!-- Node4&#45;&gt;Node1 -->
<g id="edge3" class="edge"><title>Node4&#45;&gt;Node1</title>
<path fill="none" stroke="#9a32cd" stroke-dasharray="5,2" d="M302.163,-99.2536C330.093,-96.4829 360.756,-93.4408 387.926,-90.7454"/>
<polygon fill="#9a32cd" stroke="#9a32cd" points="301.614,-95.7908 292.009,-100.261 302.305,-102.757 301.614,-95.7908"/>
<text text-anchor="middle" x="340" y="-102" font-family="Helvetica,sans-Serif" font-size="10.00"> yield</text>
</g>
<!-- Node5 -->
<g id="node5" class="node"><title>Node5</title>
<g id="a_node5"><a xlink:title="STL class. ">
<polygon fill="white" stroke="#bfbfbf" points="183,-49.5 183,-68.5 243,-68.5 243,-49.5 183,-49.5"/>
<text text-anchor="middle" x="213" y="-56.5" font-family="Helvetica,sans-Serif" font-size="10.00">std::string</text>
</a>
</g>
</g>
<!-- Node5&#45;&gt;Node1 -->
<g id="edge5" class="edge"><title>Node5&#45;&gt;Node1</title>
<path fill="none" stroke="#9a32cd" stroke-dasharray="5,2" d="M253.221,-61.4982C284.797,-63.6344 330.3,-66.9941 370,-71 375.849,-71.5902 381.893,-72.2433 387.97,-72.9311"/>
<polygon fill="#9a32cd" stroke="#9a32cd" points="253.286,-57.9949 243.076,-60.8215 252.82,-64.9794 253.286,-57.9949"/>
<text text-anchor="middle" x="340" y="-74" font-family="Helvetica,sans-Serif" font-size="10.00"> event_decay</text>
</g>
<!-- Node6 -->
<g id="node6" class="node"><title>Node6</title>
<g id="a_node6"><a xlink:title="STL class. ">
<polygon fill="white" stroke="#bfbfbf" points="0.5,-44 0.5,-74 95.5,-74 95.5,-44 0.5,-44"/>
<text text-anchor="start" x="8.5" y="-62" font-family="Helvetica,sans-Serif" font-size="10.00">std::basic_string&lt;</text>
<text text-anchor="middle" x="48" y="-51" font-family="Helvetica,sans-Serif" font-size="10.00"> char &gt;</text>
</a>
</g>
</g>
<!-- Node6&#45;&gt;Node5 -->
<g id="edge6" class="edge"><title>Node6&#45;&gt;Node5</title>
<path fill="none" stroke="midnightblue" d="M105.816,-59C131.753,-59 161.373,-59 182.728,-59"/>
<polygon fill="midnightblue" stroke="midnightblue" points="105.709,-55.5001 95.7093,-59 105.709,-62.5001 105.709,-55.5001"/>
</g>
<!-- Node7 -->
<g id="node7" class="node"><title>Node7</title>
<g id="a_node7"><a xlink:href="classant_1_1analysis_1_1_histogram_factory.html" target="_top" xlink:title="ant::analysis::Histogram\lFactory">
<polygon fill="white" stroke="black" points="151.5,-0 151.5,-30 274.5,-30 274.5,-0 151.5,-0"/>
<text text-anchor="start" x="159.5" y="-18" font-family="Helvetica,sans-Serif" font-size="10.00">ant::analysis::Histogram</text>
<text text-anchor="middle" x="213" y="-7" font-family="Helvetica,sans-Serif" font-size="10.00">Factory</text>
</a>
</g>
</g>
<!-- Node7&#45;&gt;Node1 -->
<g id="edge7" class="edge"><title>Node7&#45;&gt;Node1</title>
<path fill="none" stroke="#9a32cd" stroke-dasharray="5,2" d="M284.793,-29.8443C311.625,-35.8605 342.36,-43.2231 370,-51 387.757,-55.9962 407.098,-62.2773 423.736,-67.9487"/>
<polygon fill="#9a32cd" stroke="#9a32cd" points="285.237,-26.3575 274.716,-27.6064 283.719,-33.1911 285.237,-26.3575"/>
<text text-anchor="middle" x="340" y="-54" font-family="Helvetica,sans-Serif" font-size="10.00"> HistFac</text>
</g>
</g>
</svg>
