<?xml version="1.0" encoding="UTF-8" standalone="no"?>
<!DOCTYPE svg PUBLIC "-//W3C//DTD SVG 1.1//EN"
 "http://www.w3.org/Graphics/SVG/1.1/DTD/svg11.dtd">
<!-- Generated by graphviz version 2.36.0 (20140111.2315)
 -->
<!-- Title: ant::calibration::gui::IndicatorLine Pages: 1 -->
<svg width="606pt" height="212pt"
 viewBox="0.00 0.00 606.00 212.00" xmlns="http://www.w3.org/2000/svg" xmlns:xlink="http://www.w3.org/1999/xlink">
<g id="graph0" class="graph" transform="scale(1 1) rotate(0) translate(4 208)">
<title>ant::calibration::gui::IndicatorLine</title>
<polygon fill="white" stroke="none" points="-4,4 -4,-208 602,-208 602,4 -4,4"/>
<!-- Node6 -->
<g id="node1" class="node"><title>Node6</title>
<polygon fill="#bfbfbf" stroke="black" points="498.5,-88 498.5,-118 597.5,-118 597.5,-88 498.5,-88"/>
<text text-anchor="start" x="506.5" y="-106" font-family="Helvetica,sans-Serif" font-size="10.00">ant::calibration::gui</text>
<text text-anchor="middle" x="548" y="-95" font-family="Helvetica,sans-Serif" font-size="10.00">::IndicatorLine</text>
</g>
<!-- Node7 -->
<g id="node2" class="node"><title>Node7</title>
<polygon fill="white" stroke="#bfbfbf" points="350.5,-184.5 350.5,-203.5 391.5,-203.5 391.5,-184.5 350.5,-184.5"/>
<text text-anchor="middle" x="371" y="-191.5" font-family="Helvetica,sans-Serif" font-size="10.00">TLine</text>
</g>
<!-- Node7&#45;&gt;Node6 -->
<g id="edge1" class="edge"><title>Node7&#45;&gt;Node6</title>
<path fill="none" stroke="midnightblue" d="M401.903,-191.509C424.506,-188.608 455.686,-182.367 480,-169 503.179,-156.257 523.852,-133.212 535.909,-118.006"/>
<polygon fill="midnightblue" stroke="midnightblue" points="401.412,-188.042 391.872,-192.651 402.203,-194.997 401.412,-188.042"/>
</g>
<!-- Node8 -->
<g id="node3" class="node"><title>Node8</title>
<g id="a_node3"><a xlink:href="classant_1_1calibration_1_1gui_1_1_indicator.html" target="_top" xlink:title="ant::calibration::gui\l::Indicator">
<polygon fill="white" stroke="black" points="321.5,-88 321.5,-118 420.5,-118 420.5,-88 321.5,-88"/>
<text text-anchor="start" x="329.5" y="-106" font-family="Helvetica,sans-Serif" font-size="10.00">ant::calibration::gui</text>
<text text-anchor="middle" x="371" y="-95" font-family="Helvetica,sans-Serif" font-size="10.00">::Indicator</text>
</a>
</g>
</g>
<!-- Node8&#45;&gt;Node6 -->
<g id="edge2" class="edge"><title>Node8&#45;&gt;Node6</title>
<path fill="none" stroke="midnightblue" d="M430.913,-103C452.787,-103 477.339,-103 498.211,-103"/>
<polygon fill="midnightblue" stroke="midnightblue" points="430.747,-99.5001 420.747,-103 430.747,-106.5 430.747,-99.5001"/>
</g>
<!-- Node9 -->
<g id="node4" class="node"><title>Node9</title>
<g id="a_node4"><a xlink:href="classant_1_1calibration_1_1gui_1_1update__notify__traits.html" target="_top" xlink:title="ant::calibration::gui\l::update_notify_traits">
<polygon fill="white" stroke="black" points="134,-130 134,-160 242,-160 242,-130 134,-130"/>
<text text-anchor="start" x="142" y="-148" font-family="Helvetica,sans-Serif" font-size="10.00">ant::calibration::gui</text>
<text text-anchor="middle" x="188" y="-137" font-family="Helvetica,sans-Serif" font-size="10.00">::update_notify_traits</text>
</a>
</g>
</g>
<!-- Node9&#45;&gt;Node6 -->
<g id="edge8" class="edge"><title>Node9&#45;&gt;Node6</title>
<path fill="none" stroke="#9a32cd" stroke-dasharray="5,2" d="M252.449,-142.146C264.27,-141.515 276.514,-140.794 288,-140 353.874,-135.445 370.713,-136.886 436,-127 456.566,-123.886 479.033,-119.263 498.341,-114.903"/>
<polygon fill="#9a32cd" stroke="#9a32cd" points="252.004,-138.664 242.199,-142.677 252.366,-145.655 252.004,-138.664"/>
<text text-anchor="middle" x="371" y="-141" font-family="Helvetica,sans-Serif" font-size="10.00"> update</text>
</g>
<!-- Node9&#45;&gt;Node8 -->
<g id="edge3" class="edge"><title>Node9&#45;&gt;Node8</title>
<path fill="none" stroke="midnightblue" d="M252.213,-130.332C274.903,-125.067 300.117,-119.216 321.376,-114.283"/>
<polygon fill="midnightblue" stroke="midnightblue" points="251.277,-126.956 242.327,-132.626 252.859,-133.775 251.277,-126.956"/>
</g>
<!-- Node10 -->
<g id="node5" class="node"><title>Node10</title>
<g id="a_node5"><a xlink:href="classant_1_1calibration_1_1gui_1_1_indicator_knob.html" target="_top" xlink:title="ant::calibration::gui\l::IndicatorKnob">
<polygon fill="white" stroke="black" points="321.5,-39 321.5,-69 420.5,-69 420.5,-39 321.5,-39"/>
<text text-anchor="start" x="329.5" y="-57" font-family="Helvetica,sans-Serif" font-size="10.00">ant::calibration::gui</text>
<text text-anchor="middle" x="371" y="-46" font-family="Helvetica,sans-Serif" font-size="10.00">::IndicatorKnob</text>
</a>
</g>
</g>
<!-- Node10&#45;&gt;Node6 -->
<g id="edge4" class="edge"><title>Node10&#45;&gt;Node6</title>
<path fill="none" stroke="#9a32cd" stroke-dasharray="5,2" d="M430.616,-70.4126C452.565,-76.5583 477.245,-83.4686 498.211,-89.3391"/>
<polygon fill="#9a32cd" stroke="#9a32cd" points="431.321,-66.9752 420.747,-67.6492 429.433,-73.716 431.321,-66.9752"/>
<text text-anchor="middle" x="467" y="-86" font-family="Helvetica,sans-Serif" font-size="10.00"> knob</text>
</g>
<!-- Node11 -->
<g id="node6" class="node"><title>Node11</title>
<g id="a_node6"><a xlink:title="STL class. ">
<polygon fill="white" stroke="#bfbfbf" points="158,-82.5 158,-101.5 218,-101.5 218,-82.5 158,-82.5"/>
<text text-anchor="middle" x="188" y="-89.5" font-family="Helvetica,sans-Serif" font-size="10.00">std::string</text>
</a>
</g>
</g>
<!-- Node11&#45;&gt;Node10 -->
<g id="edge5" class="edge"><title>Node11&#45;&gt;Node10</title>
<path fill="none" stroke="#9a32cd" stroke-dasharray="5,2" d="M228.05,-83.8017C255.347,-78.0709 291.995,-70.3767 321.216,-64.2419"/>
<polygon fill="#9a32cd" stroke="#9a32cd" points="227.148,-80.4146 218.081,-85.8946 228.587,-87.2652 227.148,-80.4146"/>
<text text-anchor="middle" x="274" y="-80" font-family="Helvetica,sans-Serif" font-size="10.00"> name</text>
</g>
<!-- Node12 -->
<g id="node7" class="node"><title>Node12</title>
<g id="a_node7"><a xlink:title="STL class. ">
<polygon fill="white" stroke="#bfbfbf" points="0.5,-77 0.5,-107 95.5,-107 95.5,-77 0.5,-77"/>
<text text-anchor="start" x="8.5" y="-95" font-family="Helvetica,sans-Serif" font-size="10.00">std::basic_string&lt;</text>
<text text-anchor="middle" x="48" y="-84" font-family="Helvetica,sans-Serif" font-size="10.00"> char &gt;</text>
</a>
</g>
</g>
<!-- Node12&#45;&gt;Node11 -->
<g id="edge6" class="edge"><title>Node12&#45;&gt;Node11</title>
<path fill="none" stroke="midnightblue" d="M106.004,-92C123.746,-92 142.58,-92 157.618,-92"/>
<polygon fill="midnightblue" stroke="midnightblue" points="105.721,-88.5001 95.7205,-92 105.72,-95.5001 105.721,-88.5001"/>
</g>
<!-- Node13 -->
<g id="node8" class="node"><title>Node13</title>
<g id="a_node8"><a xlink:href="structant_1_1calibration_1_1gui_1_1_indicator_properties.html" target="_top" xlink:title="ant::calibration::gui\l::IndicatorProperties">
<polygon fill="white" stroke="black" points="136,-33 136,-63 240,-63 240,-33 136,-33"/>
<text text-anchor="start" x="144" y="-51" font-family="Helvetica,sans-Serif" font-size="10.00">ant::calibration::gui</text>
<text text-anchor="middle" x="188" y="-40" font-family="Helvetica,sans-Serif" font-size="10.00">::IndicatorProperties</text>
</a>
</g>
</g>
<!-- Node13&#45;&gt;Node10 -->
<g id="edge7" class="edge"><title>Node13&#45;&gt;Node10</title>
<path fill="none" stroke="#9a32cd" stroke-dasharray="5,2" d="M250.436,-50.0365C273.549,-50.8027 299.492,-51.6627 321.291,-52.3853"/>
<polygon fill="#9a32cd" stroke="#9a32cd" points="250.494,-46.5366 240.383,-49.7033 250.262,-53.5328 250.494,-46.5366"/>
<text text-anchor="middle" x="274" y="-55" font-family="Helvetica,sans-Serif" font-size="10.00"> gui</text>
</g>
<!-- Node14 -->
<g id="node9" class="node"><title>Node14</title>
<polygon fill="white" stroke="#bfbfbf" points="306.5,-0.5 306.5,-19.5 435.5,-19.5 435.5,-0.5 306.5,-0.5"/>
<text text-anchor="middle" x="371" y="-7.5" font-family="Helvetica,sans-Serif" font-size="10.00">std::unique_ptr&lt; TLatex &gt;</text>
</g>
<!-- Node14&#45;&gt;Node6 -->
<g id="edge9" class="edge"><title>Node14&#45;&gt;Node6</title>
<path fill="none" stroke="#9a32cd" stroke-dasharray="5,2" d="M420.5,-22.7062C425.817,-24.5959 431.081,-26.6943 436,-29 470.603,-45.2183 506.712,-71.2713 528.011,-87.7441"/>
<polygon fill="#9a32cd" stroke="#9a32cd" points="421.528,-19.3599 410.935,-19.5306 419.323,-26.0033 421.528,-19.3599"/>
<text text-anchor="middle" x="467" y="-56" font-family="Helvetica,sans-Serif" font-size="10.00"> label</text>
</g>
</g>
</svg>
