<?xml version="1.0" encoding="UTF-8" standalone="no"?>
<!DOCTYPE svg PUBLIC "-//W3C//DTD SVG 1.1//EN"
 "http://www.w3.org/Graphics/SVG/1.1/DTD/svg11.dtd">
<!-- Generated by graphviz version 2.36.0 (20140111.2315)
 -->
<!-- Title: ant::AxisSettings Pages: 1 -->
<svg width="235pt" height="166pt"
 viewBox="0.00 0.00 235.00 166.00" xmlns="http://www.w3.org/2000/svg" xmlns:xlink="http://www.w3.org/1999/xlink">
<g id="graph0" class="graph" transform="scale(1 1) rotate(0) translate(4 162)">
<title>ant::AxisSettings</title>
<polygon fill="white" stroke="none" points="-4,4 -4,-162 231,-162 231,4 -4,4"/>
<!-- Node3 -->
<g id="node1" class="node"><title>Node3</title>
<polygon fill="#bfbfbf" stroke="black" points="81,-0.5 81,-19.5 173,-19.5 173,-0.5 81,-0.5"/>
<text text-anchor="middle" x="127" y="-7.5" font-family="Helvetica,sans-Serif" font-size="10.00">ant::AxisSettings</text>
</g>
<!-- Node4 -->
<g id="node2" class="node"><title>Node4</title>
<g id="a_node2"><a xlink:href="classant_1_1_bin_settings.html" target="_top" xlink:title="ant::BinSettings">
<polygon fill="white" stroke="black" points="22,-68.5 22,-87.5 108,-87.5 108,-68.5 22,-68.5"/>
<text text-anchor="middle" x="65" y="-75.5" font-family="Helvetica,sans-Serif" font-size="10.00">ant::BinSettings</text>
</a>
</g>
</g>
<!-- Node4&#45;&gt;Node3 -->
<g id="edge1" class="edge"><title>Node4&#45;&gt;Node3</title>
<path fill="none" stroke="midnightblue" d="M79.9858,-61.0474C92.138,-48.1111 108.816,-30.3567 118.695,-19.8411"/>
<polygon fill="midnightblue" stroke="midnightblue" points="77.4012,-58.6868 73.1054,-68.3717 82.5032,-63.4795 77.4012,-58.6868"/>
</g>
<!-- Node5 -->
<g id="node3" class="node"><title>Node5</title>
<g id="a_node3"><a xlink:href="classant_1_1interval.html" target="_top" xlink:title="ant::interval\&lt; double \&gt;">
<polygon fill="white" stroke="black" points="0,-132.5 0,-151.5 114,-151.5 114,-132.5 0,-132.5"/>
<text text-anchor="middle" x="57" y="-139.5" font-family="Helvetica,sans-Serif" font-size="10.00">ant::interval&lt; double &gt;</text>
</a>
</g>
</g>
<!-- Node5&#45;&gt;Node4 -->
<g id="edge2" class="edge"><title>Node5&#45;&gt;Node4</title>
<path fill="none" stroke="midnightblue" d="M59.4005,-122.396C60.8936,-110.825 62.7426,-96.4949 63.8971,-87.5476"/>
<polygon fill="midnightblue" stroke="midnightblue" points="55.9209,-122.013 58.1124,-132.379 62.8634,-122.909 55.9209,-122.013"/>
</g>
<!-- Node6 -->
<g id="node4" class="node"><title>Node6</title>
<g id="a_node4"><a xlink:title="STL class. ">
<polygon fill="white" stroke="#bfbfbf" points="142,-68.5 142,-87.5 202,-87.5 202,-68.5 142,-68.5"/>
<text text-anchor="middle" x="172" y="-75.5" font-family="Helvetica,sans-Serif" font-size="10.00">std::string</text>
</a>
</g>
</g>
<!-- Node6&#45;&gt;Node3 -->
<g id="edge3" class="edge"><title>Node6&#45;&gt;Node3</title>
<path fill="none" stroke="#9a32cd" stroke-dasharray="5,2" d="M160.367,-59.9377C151.622,-47.112 139.995,-30.0591 133.028,-19.8411"/>
<polygon fill="#9a32cd" stroke="#9a32cd" points="157.592,-62.0811 166.117,-68.3717 163.375,-58.1377 157.592,-62.0811"/>
<text text-anchor="middle" x="166" y="-41.5" font-family="Helvetica,sans-Serif" font-size="10.00"> label</text>
</g>
<!-- Node7 -->
<g id="node5" class="node"><title>Node7</title>
<g id="a_node5"><a xlink:title="STL class. ">
<polygon fill="white" stroke="#bfbfbf" points="132.5,-127 132.5,-157 227.5,-157 227.5,-127 132.5,-127"/>
<text text-anchor="start" x="140.5" y="-145" font-family="Helvetica,sans-Serif" font-size="10.00">std::basic_string&lt;</text>
<text text-anchor="middle" x="180" y="-134" font-family="Helvetica,sans-Serif" font-size="10.00"> char &gt;</text>
</a>
</g>
</g>
<!-- Node7&#45;&gt;Node6 -->
<g id="edge4" class="edge"><title>Node7&#45;&gt;Node6</title>
<path fill="none" stroke="midnightblue" d="M176.887,-116.871C175.569,-106.663 174.117,-95.4077 173.141,-87.8419"/>
<polygon fill="midnightblue" stroke="midnightblue" points="173.434,-117.461 178.185,-126.931 180.376,-116.566 173.434,-117.461"/>
</g>
</g>
</svg>
