<?xml version="1.0" encoding="UTF-8" standalone="no"?>
<!DOCTYPE svg PUBLIC "-//W3C//DTD SVG 1.1//EN"
 "http://www.w3.org/Graphics/SVG/1.1/DTD/svg11.dtd">
<!-- Generated by graphviz version 2.36.0 (20140111.2315)
 -->
<!-- Title: ant::analysis::physics::DetectionEffciencyBase_t&lt; WrapTree &gt; Pages: 1 -->
<svg width="275pt" height="280pt"
 viewBox="0.00 0.00 275.00 280.00" xmlns="http://www.w3.org/2000/svg" xmlns:xlink="http://www.w3.org/1999/xlink">
<g id="graph0" class="graph" transform="scale(1 1) rotate(0) translate(4 276)">
<title>ant::analysis::physics::DetectionEffciencyBase_t&lt; WrapTree &gt;</title>
<polygon fill="white" stroke="none" points="-4,4 -4,-276 271,-276 271,4 -4,4"/>
<!-- Node3 -->
<g id="node1" class="node"><title>Node3</title>
<polygon fill="#bfbfbf" stroke="black" points="79,-0.5 79,-41.5 207,-41.5 207,-0.5 79,-0.5"/>
<text text-anchor="start" x="87" y="-29.5" font-family="Helvetica,sans-Serif" font-size="10.00">ant::analysis::physics</text>
<text text-anchor="start" x="87" y="-18.5" font-family="Helvetica,sans-Serif" font-size="10.00">::DetectionEffciencyBase</text>
<text text-anchor="middle" x="143" y="-7.5" font-family="Helvetica,sans-Serif" font-size="10.00">_t&lt; WrapTree &gt;</text>
</g>
<!-- Node4 -->
<g id="node2" class="node"><title>Node4</title>
<g id="a_node2"><a xlink:href="classant_1_1analysis_1_1physics_1_1_tree_plotter_base__t.html" target="_top" xlink:title="ant::analysis::physics\l::TreePlotterBase_t\&lt; WrapTree \&gt;">
<polygon fill="white" stroke="black" points="62,-81 62,-111 224,-111 224,-81 62,-81"/>
<text text-anchor="start" x="70" y="-99" font-family="Helvetica,sans-Serif" font-size="10.00">ant::analysis::physics</text>
<text text-anchor="middle" x="143" y="-88" font-family="Helvetica,sans-Serif" font-size="10.00">::TreePlotterBase_t&lt; WrapTree &gt;</text>
</a>
</g>
</g>
<!-- Node4&#45;&gt;Node3 -->
<g id="edge1" class="edge"><title>Node4&#45;&gt;Node3</title>
<path fill="none" stroke="midnightblue" d="M143,-70.8818C143,-61.3629 143,-50.5694 143,-41.5507"/>
<polygon fill="midnightblue" stroke="midnightblue" points="139.5,-70.9248 143,-80.9249 146.5,-70.9249 139.5,-70.9248"/>
</g>
<!-- Node5 -->
<g id="node3" class="node"><title>Node5</title>
<g id="a_node3"><a xlink:href="classant_1_1analysis_1_1_plotter.html" target="_top" xlink:title="ant::analysis::Plotter">
<polygon fill="white" stroke="black" points="7.5,-166.5 7.5,-185.5 114.5,-185.5 114.5,-166.5 7.5,-166.5"/>
<text text-anchor="middle" x="61" y="-173.5" font-family="Helvetica,sans-Serif" font-size="10.00">ant::analysis::Plotter</text>
</a>
</g>
</g>
<!-- Node5&#45;&gt;Node4 -->
<g id="edge2" class="edge"><title>Node5&#45;&gt;Node4</title>
<path fill="none" stroke="midnightblue" d="M77.5211,-159.285C92.2972,-145.229 113.765,-124.808 128.043,-111.227"/>
<polygon fill="midnightblue" stroke="midnightblue" points="74.9221,-156.926 70.0887,-166.355 79.7466,-161.998 74.9221,-156.926"/>
</g>
<!-- Node6 -->
<g id="node4" class="node"><title>Node6</title>
<g id="a_node4"><a xlink:href="classant_1_1analysis_1_1_histogram_factory.html" target="_top" xlink:title="ant::analysis::Histogram\lFactory">
<polygon fill="white" stroke="black" points="-0.5,-241 -0.5,-271 122.5,-271 122.5,-241 -0.5,-241"/>
<text text-anchor="start" x="7.5" y="-259" font-family="Helvetica,sans-Serif" font-size="10.00">ant::analysis::Histogram</text>
<text text-anchor="middle" x="61" y="-248" font-family="Helvetica,sans-Serif" font-size="10.00">Factory</text>
</a>
</g>
</g>
<!-- Node6&#45;&gt;Node5 -->
<g id="edge3" class="edge"><title>Node6&#45;&gt;Node5</title>
<path fill="none" stroke="#9a32cd" stroke-dasharray="5,2" d="M61,-230.394C61,-215.208 61,-196.635 61,-185.876"/>
<polygon fill="#9a32cd" stroke="#9a32cd" points="57.5001,-230.694 61,-240.694 64.5001,-230.694 57.5001,-230.694"/>
<text text-anchor="middle" x="80" y="-213.5" font-family="Helvetica,sans-Serif" font-size="10.00"> HistFac</text>
</g>
<!-- Node7 -->
<g id="node5" class="node"><title>Node7</title>
<g id="a_node5"><a xlink:href="structant_1_1analysis_1_1physics_1_1sigma_plus_1_1_pion_prod_tree.html" target="_top" xlink:title="ant::analysis::physics\l::sigmaPlus::PionProdTree">
<polygon fill="white" stroke="black" points="133,-161 133,-191 267,-191 267,-161 133,-161"/>
<text text-anchor="start" x="141" y="-179" font-family="Helvetica,sans-Serif" font-size="10.00">ant::analysis::physics</text>
<text text-anchor="middle" x="200" y="-168" font-family="Helvetica,sans-Serif" font-size="10.00">::sigmaPlus::PionProdTree</text>
</a>
</g>
</g>
<!-- Node7&#45;&gt;Node4 -->
<g id="edge4" class="edge"><title>Node7&#45;&gt;Node4</title>
<path fill="none" stroke="#9a32cd" stroke-dasharray="5,2" d="M183.547,-152.486C173.823,-139.179 161.806,-122.735 153.388,-111.216"/>
<polygon fill="#9a32cd" stroke="#9a32cd" points="180.819,-154.685 189.545,-160.694 186.471,-150.555 180.819,-154.685"/>
<text text-anchor="middle" x="185" y="-133.5" font-family="Helvetica,sans-Serif" font-size="10.00"> tree</text>
</g>
<!-- Node8 -->
<g id="node6" class="node"><title>Node8</title>
<g id="a_node6"><a xlink:href="classant_1_1_wrap_t_tree.html" target="_top" xlink:title="The WrapTTree struct simplifies TTree handling in physics classes. ">
<polygon fill="white" stroke="black" points="157.5,-246.5 157.5,-265.5 242.5,-265.5 242.5,-246.5 157.5,-246.5"/>
<text text-anchor="middle" x="200" y="-253.5" font-family="Helvetica,sans-Serif" font-size="10.00">ant::WrapTTree</text>
</a>
</g>
</g>
<!-- Node8&#45;&gt;Node7 -->
<g id="edge5" class="edge"><title>Node8&#45;&gt;Node7</title>
<path fill="none" stroke="midnightblue" d="M200,-236.062C200,-222.242 200,-203.802 200,-191.227"/>
<polygon fill="midnightblue" stroke="midnightblue" points="196.5,-236.355 200,-246.355 203.5,-236.355 196.5,-236.355"/>
</g>
</g>
</svg>
