<?xml version="1.0" encoding="UTF-8" standalone="no"?>
<!DOCTYPE svg PUBLIC "-//W3C//DTD SVG 1.1//EN"
 "http://www.w3.org/Graphics/SVG/1.1/DTD/svg11.dtd">
<!-- Generated by graphviz version 2.36.0 (20140111.2315)
 -->
<!-- Title: ant::analysis::physics::OmegaMCCrossSection Pages: 1 -->
<svg width="1250pt" height="272pt"
 viewBox="0.00 0.00 1250.00 272.02" xmlns="http://www.w3.org/2000/svg" xmlns:xlink="http://www.w3.org/1999/xlink">
<g id="graph0" class="graph" transform="scale(1 1) rotate(0) translate(4 268.017)">
<title>ant::analysis::physics::OmegaMCCrossSection</title>
<polygon fill="white" stroke="none" points="-4,4 -4,-268.017 1246,-268.017 1246,4 -4,4"/>
<!-- Node2 -->
<g id="node1" class="node"><title>Node2</title>
<polygon fill="#bfbfbf" stroke="black" points="1112.5,-149.017 1112.5,-179.017 1241.5,-179.017 1241.5,-149.017 1112.5,-149.017"/>
<text text-anchor="start" x="1120.5" y="-167.017" font-family="Helvetica,sans-Serif" font-size="10.00">ant::analysis::physics</text>
<text text-anchor="middle" x="1177" y="-156.017" font-family="Helvetica,sans-Serif" font-size="10.00">::OmegaMCCrossSection</text>
</g>
<!-- Node3 -->
<g id="node2" class="node"><title>Node3</title>
<g id="a_node2"><a xlink:href="classant_1_1analysis_1_1_physics.html" target="_top" xlink:title="ant::analysis::Physics">
<polygon fill="white" stroke="black" points="904.5,-154.517 904.5,-173.517 1017.5,-173.517 1017.5,-154.517 904.5,-154.517"/>
<text text-anchor="middle" x="961" y="-161.517" font-family="Helvetica,sans-Serif" font-size="10.00">ant::analysis::Physics</text>
</a>
</g>
</g>
<!-- Node3&#45;&gt;Node2 -->
<g id="edge1" class="edge"><title>Node3&#45;&gt;Node2</title>
<path fill="none" stroke="midnightblue" d="M1027.75,-164.017C1054.63,-164.017 1085.62,-164.017 1112.28,-164.017"/>
<polygon fill="midnightblue" stroke="midnightblue" points="1027.67,-160.517 1017.67,-164.017 1027.67,-167.517 1027.67,-160.517"/>
</g>
<!-- Node4 -->
<g id="node3" class="node"><title>Node4</title>
<g id="a_node3"><a xlink:href="classant_1_1analysis_1_1_histogram_factory.html" target="_top" xlink:title="ant::analysis::Histogram\lFactory">
<polygon fill="white" stroke="black" points="702.5,-136.017 702.5,-166.017 825.5,-166.017 825.5,-136.017 702.5,-136.017"/>
<text text-anchor="start" x="710.5" y="-154.017" font-family="Helvetica,sans-Serif" font-size="10.00">ant::analysis::Histogram</text>
<text text-anchor="middle" x="764" y="-143.017" font-family="Helvetica,sans-Serif" font-size="10.00">Factory</text>
</a>
</g>
</g>
<!-- Node4&#45;&gt;Node3 -->
<g id="edge2" class="edge"><title>Node4&#45;&gt;Node3</title>
<path fill="none" stroke="#9a32cd" stroke-dasharray="5,2" d="M835.837,-155.739C858.41,-157.244 883.049,-158.887 904.384,-160.309"/>
<polygon fill="#9a32cd" stroke="#9a32cd" points="835.841,-152.232 825.63,-155.059 835.375,-159.216 835.841,-152.232"/>
<text text-anchor="middle" x="865" y="-163.017" font-family="Helvetica,sans-Serif" font-size="10.00"> HistFac</text>
</g>
<!-- Node5 -->
<g id="node4" class="node"><title>Node5</title>
<g id="a_node4"><a xlink:href="classant_1_1analysis_1_1utils_1_1_m_c_weighting.html" target="_top" xlink:title="ant::analysis::utils\l::MCWeighting">
<polygon fill="white" stroke="black" points="913,-41.0167 913,-71.0167 1009,-71.0167 1009,-41.0167 913,-41.0167"/>
<text text-anchor="start" x="921" y="-59.0167" font-family="Helvetica,sans-Serif" font-size="10.00">ant::analysis::utils</text>
<text text-anchor="middle" x="961" y="-48.0167" font-family="Helvetica,sans-Serif" font-size="10.00">::MCWeighting</text>
</a>
</g>
</g>
<!-- Node4&#45;&gt;Node5 -->
<g id="edge16" class="edge"><title>Node4&#45;&gt;Node5</title>
<path fill="none" stroke="#9a32cd" stroke-dasharray="5,2" d="M835.038,-132.846C852.166,-127.218 870.124,-120.278 886,-112.017 907.438,-100.861 929.159,-83.5524 943.472,-71.1313"/>
<polygon fill="#9a32cd" stroke="#9a32cd" points="833.544,-129.648 825.07,-136.008 835.661,-136.32 833.544,-129.648"/>
<text text-anchor="middle" x="865" y="-133.017" font-family="Helvetica,sans-Serif" font-size="10.00"> HistFac</text>
</g>
<!-- Node5&#45;&gt;Node2 -->
<g id="edge3" class="edge"><title>Node5&#45;&gt;Node2</title>
<path fill="none" stroke="#9a32cd" stroke-dasharray="5,2" d="M1000.81,-75.6024C1042.61,-96.6968 1108.2,-129.802 1146.15,-148.954"/>
<polygon fill="#9a32cd" stroke="#9a32cd" points="1002.26,-72.4146 991.756,-71.0337 999.106,-78.6638 1002.26,-72.4146"/>
<text text-anchor="middle" x="1065" y="-123.017" font-family="Helvetica,sans-Serif" font-size="10.00"> mcweighting</text>
</g>
<!-- Node6 -->
<g id="node5" class="node"><title>Node6</title>
<g id="a_node5"><a xlink:href="structant_1_1analysis_1_1utils_1_1_m_c_weighting_1_1tree__t.html" target="_top" xlink:title="ant::analysis::utils\l::MCWeighting::tree_t">
<polygon fill="white" stroke="black" points="707.5,-18.0167 707.5,-48.0167 820.5,-48.0167 820.5,-18.0167 707.5,-18.0167"/>
<text text-anchor="start" x="715.5" y="-36.0167" font-family="Helvetica,sans-Serif" font-size="10.00">ant::analysis::utils</text>
<text text-anchor="middle" x="764" y="-25.0167" font-family="Helvetica,sans-Serif" font-size="10.00">::MCWeighting::tree_t</text>
</a>
</g>
</g>
<!-- Node6&#45;&gt;Node5 -->
<g id="edge4" class="edge"><title>Node6&#45;&gt;Node5</title>
<path fill="none" stroke="#9a32cd" stroke-dasharray="5,2" d="M830.7,-20.6555C848.759,-19.1324 868.252,-19.2388 886,-23.0167 902.51,-26.5312 919.802,-34.0019 933.515,-40.9475"/>
<polygon fill="#9a32cd" stroke="#9a32cd" points="830.14,-17.1943 820.547,-21.6904 830.85,-24.1582 830.14,-17.1943"/>
<text text-anchor="middle" x="865" y="-26.0167" font-family="Helvetica,sans-Serif" font-size="10.00"> t</text>
</g>
<!-- Node7 -->
<g id="node6" class="node"><title>Node7</title>
<g id="a_node6"><a xlink:href="classant_1_1_wrap_t_tree.html" target="_top" xlink:title="The WrapTTree struct simplifies TTree handling in physics classes. ">
<polygon fill="white" stroke="black" points="507.5,-23.5167 507.5,-42.5167 592.5,-42.5167 592.5,-23.5167 507.5,-23.5167"/>
<text text-anchor="middle" x="550" y="-30.5167" font-family="Helvetica,sans-Serif" font-size="10.00">ant::WrapTTree</text>
</a>
</g>
</g>
<!-- Node7&#45;&gt;Node6 -->
<g id="edge5" class="edge"><title>Node7&#45;&gt;Node6</title>
<path fill="none" stroke="midnightblue" d="M603.01,-33.0167C634.677,-33.0167 675.114,-33.0167 707.412,-33.0167"/>
<polygon fill="midnightblue" stroke="midnightblue" points="602.631,-29.5168 592.631,-33.0167 602.631,-36.5168 602.631,-29.5168"/>
</g>
<!-- Node8 -->
<g id="node7" class="node"><title>Node8</title>
<g id="a_node7"><a xlink:href="structant_1_1analysis_1_1utils_1_1_m_c_weighting_1_1item__t.html" target="_top" xlink:title="ant::analysis::utils\l::MCWeighting::item_t">
<polygon fill="white" stroke="black" points="706.5,-74.0167 706.5,-104.017 821.5,-104.017 821.5,-74.0167 706.5,-74.0167"/>
<text text-anchor="start" x="714.5" y="-92.0167" font-family="Helvetica,sans-Serif" font-size="10.00">ant::analysis::utils</text>
<text text-anchor="middle" x="764" y="-81.0167" font-family="Helvetica,sans-Serif" font-size="10.00">::MCWeighting::item_t</text>
</a>
</g>
</g>
<!-- Node8&#45;&gt;Node5 -->
<g id="edge6" class="edge"><title>Node8&#45;&gt;Node5</title>
<path fill="none" stroke="#9a32cd" stroke-dasharray="5,2" d="M803.788,-69.9291C816.316,-64.6906 830.47,-59.7136 844,-57.0167 866.319,-52.5681 891.536,-51.852 912.744,-52.44"/>
<polygon fill="#9a32cd" stroke="#9a32cd" points="802.329,-66.7469 794.562,-73.9526 805.127,-73.1633 802.329,-66.7469"/>
<text text-anchor="middle" x="865" y="-104.017" font-family="Helvetica,sans-Serif" font-size="10.00"> Item</text>
<text text-anchor="middle" x="865" y="-93.0167" font-family="Helvetica,sans-Serif" font-size="10.00">EtaPrime</text>
<text text-anchor="middle" x="865" y="-82.0167" font-family="Helvetica,sans-Serif" font-size="10.00">Pi0</text>
<text text-anchor="middle" x="865" y="-71.0167" font-family="Helvetica,sans-Serif" font-size="10.00">Omega</text>
<text text-anchor="middle" x="865" y="-60.0167" font-family="Helvetica,sans-Serif" font-size="10.00">Eta</text>
</g>
<!-- Node9 -->
<g id="node8" class="node"><title>Node9</title>
<polygon fill="white" stroke="#bfbfbf" points="480,-225.517 480,-244.517 620,-244.517 620,-225.517 480,-225.517"/>
<text text-anchor="middle" x="550" y="-232.517" font-family="Helvetica,sans-Serif" font-size="10.00">std::vector&lt; coefficients_t &gt;</text>
</g>
<!-- Node9&#45;&gt;Node8 -->
<g id="edge7" class="edge"><title>Node9&#45;&gt;Node8</title>
<path fill="none" stroke="#9a32cd" stroke-dasharray="5,2" d="M571.773,-219.211C600.545,-197.507 654.372,-157.579 702,-126.017 713.357,-118.49 726.217,-110.601 737.191,-104.049"/>
<polygon fill="#9a32cd" stroke="#9a32cd" points="569.546,-216.507 563.683,-225.332 573.769,-222.089 569.546,-216.507"/>
<text text-anchor="middle" x="661" y="-173.017" font-family="Helvetica,sans-Serif" font-size="10.00"> Database</text>
</g>
<!-- Node10 -->
<g id="node9" class="node"><title>Node10</title>
<polygon fill="white" stroke="#bfbfbf" points="246,-220.017 246,-250.017 392,-250.017 392,-220.017 246,-220.017"/>
<text text-anchor="start" x="254" y="-238.017" font-family="Helvetica,sans-Serif" font-size="10.00">ant::analysis::utils</text>
<text text-anchor="middle" x="319" y="-227.017" font-family="Helvetica,sans-Serif" font-size="10.00">::MCWeighting::coefficients_t</text>
</g>
<!-- Node10&#45;&gt;Node9 -->
<g id="edge8" class="edge"><title>Node10&#45;&gt;Node9</title>
<path fill="none" stroke="#9a32cd" stroke-dasharray="5,2" d="M402.156,-235.017C427.642,-235.017 455.456,-235.017 479.956,-235.017"/>
<polygon fill="#9a32cd" stroke="#9a32cd" points="402.143,-231.517 392.143,-235.017 402.143,-238.517 402.143,-231.517"/>
<text text-anchor="middle" x="436" y="-238.017" font-family="Helvetica,sans-Serif" font-size="10.00"> elements</text>
</g>
<!-- Node11 -->
<g id="node10" class="node"><title>Node11</title>
<g id="a_node10"><a xlink:href="classant_1_1interval.html" target="_top" xlink:title="ant::interval\&lt; double \&gt;">
<polygon fill="white" stroke="black" points="0,-206.517 0,-225.517 114,-225.517 114,-206.517 0,-206.517"/>
<text text-anchor="middle" x="57" y="-213.517" font-family="Helvetica,sans-Serif" font-size="10.00">ant::interval&lt; double &gt;</text>
</a>
</g>
</g>
<!-- Node11&#45;&gt;Node10 -->
<g id="edge9" class="edge"><title>Node11&#45;&gt;Node10</title>
<path fill="none" stroke="#9a32cd" stroke-dasharray="5,2" d="M124.4,-216.05C155.858,-216.556 193.923,-217.878 228,-221.017 233.826,-221.553 239.848,-222.227 245.888,-222.988"/>
<polygon fill="#9a32cd" stroke="#9a32cd" points="124.047,-212.545 114,-215.908 123.951,-219.544 124.047,-212.545"/>
<text text-anchor="middle" x="180" y="-224.017" font-family="Helvetica,sans-Serif" font-size="10.00"> BeamE</text>
</g>
<!-- Node12 -->
<g id="node11" class="node"><title>Node12</title>
<polygon fill="white" stroke="#bfbfbf" points="2,-244.517 2,-263.517 112,-263.517 112,-244.517 2,-244.517"/>
<text text-anchor="middle" x="57" y="-251.517" font-family="Helvetica,sans-Serif" font-size="10.00">std::vector&lt; double &gt;</text>
</g>
<!-- Node12&#45;&gt;Node10 -->
<g id="edge10" class="edge"><title>Node12&#45;&gt;Node10</title>
<path fill="none" stroke="#9a32cd" stroke-dasharray="5,2" d="M122.454,-249.307C159.825,-246.576 206.984,-243.129 245.627,-240.306"/>
<polygon fill="#9a32cd" stroke="#9a32cd" points="121.906,-245.837 112.188,-250.057 122.417,-252.819 121.906,-245.837"/>
<text text-anchor="middle" x="180" y="-251.017" font-family="Helvetica,sans-Serif" font-size="10.00"> LegendreCoefficients</text>
</g>
<!-- Node13 -->
<g id="node12" class="node"><title>Node13</title>
<g id="a_node12"><a xlink:href="classant_1_1_particle_type_database_1_1_type.html" target="_top" xlink:title="ant::ParticleTypeDatabase\l::Type">
<polygon fill="white" stroke="black" points="483.5,-74.0167 483.5,-104.017 616.5,-104.017 616.5,-74.0167 483.5,-74.0167"/>
<text text-anchor="start" x="491.5" y="-92.0167" font-family="Helvetica,sans-Serif" font-size="10.00">ant::ParticleTypeDatabase</text>
<text text-anchor="middle" x="550" y="-81.0167" font-family="Helvetica,sans-Serif" font-size="10.00">::Type</text>
</a>
</g>
</g>
<!-- Node13&#45;&gt;Node2 -->
<g id="edge17" class="edge"><title>Node13&#45;&gt;Node2</title>
<path fill="none" stroke="#9a32cd" stroke-dasharray="5,2" d="M578.978,-110.468C607.969,-131.311 655.474,-161.706 702,-175.017 844.054,-215.658 1019.94,-193.898 1112.37,-177.264"/>
<polygon fill="#9a32cd" stroke="#9a32cd" points="580.734,-107.416 570.597,-104.335 576.601,-113.065 580.734,-107.416"/>
<text text-anchor="middle" x="865" y="-202.017" font-family="Helvetica,sans-Serif" font-size="10.00"> meson</text>
</g>
<!-- Node13&#45;&gt;Node8 -->
<g id="edge11" class="edge"><title>Node13&#45;&gt;Node8</title>
<path fill="none" stroke="#9a32cd" stroke-dasharray="5,2" d="M626.89,-89.0167C653.061,-89.0167 681.902,-89.0167 706.273,-89.0167"/>
<polygon fill="#9a32cd" stroke="#9a32cd" points="626.626,-85.5168 616.626,-89.0167 626.626,-92.5168 626.626,-85.5168"/>
<text text-anchor="middle" x="661" y="-92.0167" font-family="Helvetica,sans-Serif" font-size="10.00"> Type</text>
</g>
<!-- Node13&#45;&gt;Node13 -->
<g id="edge14" class="edge"><title>Node13&#45;&gt;Node13</title>
<path fill="none" stroke="#9a32cd" stroke-dasharray="5,2" d="M530.746,-114.614C533.377,-118.987 539.795,-122.017 550,-122.017 567.188,-122.017 573.633,-113.423 569.336,-104.292"/>
<polygon fill="#9a32cd" stroke="#9a32cd" points="534.243,-114.264 530.664,-104.292 527.244,-114.32 534.243,-114.264"/>
<text text-anchor="middle" x="550" y="-125.017" font-family="Helvetica,sans-Serif" font-size="10.00"> sametype</text>
</g>
<!-- Node14 -->
<g id="node13" class="node"><title>Node14</title>
<g id="a_node13"><a xlink:title="STL class. ">
<polygon fill="white" stroke="#bfbfbf" points="289,-39.5167 289,-58.5167 349,-58.5167 349,-39.5167 289,-39.5167"/>
<text text-anchor="middle" x="319" y="-46.5167" font-family="Helvetica,sans-Serif" font-size="10.00">std::string</text>
</a>
</g>
</g>
<!-- Node14&#45;&gt;Node5 -->
<g id="edge15" class="edge"><title>Node14&#45;&gt;Node5</title>
<path fill="none" stroke="#9a32cd" stroke-dasharray="5,2" d="M359.108,-38.2987C391.286,-30.005 438.23,-19.1037 480,-14.0167 632.673,4.57667 672.537,2.16908 826,-8.01673 852.844,-9.79842 860.413,-7.70611 886,-16.0167 904.196,-21.9266 923.146,-32.2624 937.315,-40.9468"/>
<polygon fill="#9a32cd" stroke="#9a32cd" points="357.993,-34.9724 349.204,-40.8892 359.765,-41.7446 357.993,-34.9724"/>
<text text-anchor="middle" x="661" y="-4.01673" font-family="Helvetica,sans-Serif" font-size="10.00"> treeName</text>
</g>
<!-- Node14&#45;&gt;Node13 -->
<g id="edge12" class="edge"><title>Node14&#45;&gt;Node13</title>
<path fill="none" stroke="#9a32cd" stroke-dasharray="5,2" d="M359.019,-55.8323C393.045,-61.7757 443.11,-70.5206 483.304,-77.5414"/>
<polygon fill="#9a32cd" stroke="#9a32cd" points="359.456,-52.3557 349.003,-54.0828 358.252,-59.2513 359.456,-52.3557"/>
<text text-anchor="middle" x="436" y="-88.0167" font-family="Helvetica,sans-Serif" font-size="10.00"> print_name</text>
<text text-anchor="middle" x="436" y="-77.0167" font-family="Helvetica,sans-Serif" font-size="10.00">name</text>
</g>
<!-- Node15 -->
<g id="node14" class="node"><title>Node15</title>
<g id="a_node14"><a xlink:title="STL class. ">
<polygon fill="white" stroke="#bfbfbf" points="9.5,-34.0167 9.5,-64.0167 104.5,-64.0167 104.5,-34.0167 9.5,-34.0167"/>
<text text-anchor="start" x="17.5" y="-52.0167" font-family="Helvetica,sans-Serif" font-size="10.00">std::basic_string&lt;</text>
<text text-anchor="middle" x="57" y="-41.0167" font-family="Helvetica,sans-Serif" font-size="10.00"> char &gt;</text>
</a>
</g>
</g>
<!-- Node15&#45;&gt;Node14 -->
<g id="edge13" class="edge"><title>Node15&#45;&gt;Node14</title>
<path fill="none" stroke="midnightblue" d="M114.843,-49.0167C168.551,-49.0167 246.96,-49.0167 288.929,-49.0167"/>
<polygon fill="midnightblue" stroke="midnightblue" points="114.783,-45.5168 104.783,-49.0167 114.783,-52.5168 114.783,-45.5168"/>
</g>
</g>
</svg>
