<?xml version="1.0" encoding="UTF-8" standalone="no"?>
<!DOCTYPE svg PUBLIC "-//W3C//DTD SVG 1.1//EN"
 "http://www.w3.org/Graphics/SVG/1.1/DTD/svg11.dtd">
<!-- Generated by graphviz version 2.36.0 (20140111.2315)
 -->
<!-- Title: ant::calibration::CB_TimeWalk::TheGUI Pages: 1 -->
<svg width="1440pt" height="315pt"
 viewBox="0.00 0.00 1440.00 315.00" xmlns="http://www.w3.org/2000/svg" xmlns:xlink="http://www.w3.org/1999/xlink">
<g id="graph0" class="graph" transform="scale(1 1) rotate(0) translate(4 311)">
<title>ant::calibration::CB_TimeWalk::TheGUI</title>
<polygon fill="white" stroke="none" points="-4,4 -4,-311 1436,-311 1436,4 -4,4"/>
<!-- Node2 -->
<g id="node1" class="node"><title>Node2</title>
<polygon fill="#bfbfbf" stroke="black" points="1324.5,-125 1324.5,-155 1431.5,-155 1431.5,-125 1324.5,-125"/>
<text text-anchor="start" x="1332.5" y="-143" font-family="Helvetica,sans-Serif" font-size="10.00">ant::calibration::CB</text>
<text text-anchor="middle" x="1378" y="-132" font-family="Helvetica,sans-Serif" font-size="10.00">_TimeWalk::TheGUI</text>
</g>
<!-- Node3 -->
<g id="node2" class="node"><title>Node3</title>
<g id="a_node2"><a xlink:href="classant_1_1calibration_1_1gui_1_1_calib_module__traits.html" target="_top" xlink:title="ant::calibration::gui\l::CalibModule_traits">
<polygon fill="white" stroke="black" points="1113,-200 1113,-230 1217,-230 1217,-200 1113,-200"/>
<text text-anchor="start" x="1121" y="-218" font-family="Helvetica,sans-Serif" font-size="10.00">ant::calibration::gui</text>
<text text-anchor="middle" x="1165" y="-207" font-family="Helvetica,sans-Serif" font-size="10.00">::CalibModule_traits</text>
</a>
</g>
</g>
<!-- Node3&#45;&gt;Node2 -->
<g id="edge1" class="edge"><title>Node3&#45;&gt;Node2</title>
<path fill="none" stroke="midnightblue" d="M1227.17,-205.426C1252.17,-200.392 1281.02,-193.113 1306,-183 1323.9,-175.754 1342.51,-164.313 1356.19,-155.053"/>
<polygon fill="midnightblue" stroke="midnightblue" points="1226.23,-202.043 1217.08,-207.38 1227.56,-208.915 1226.23,-202.043"/>
</g>
<!-- Node4 -->
<g id="node3" class="node"><title>Node4</title>
<g id="a_node3"><a xlink:href="classant_1_1calibration_1_1gui_1_1_cal_canvas.html" target="_top" xlink:title="ant::calibration::gui\l::CalCanvas">
<polygon fill="white" stroke="black" points="1115.5,-151 1115.5,-181 1214.5,-181 1214.5,-151 1115.5,-151"/>
<text text-anchor="start" x="1123.5" y="-169" font-family="Helvetica,sans-Serif" font-size="10.00">ant::calibration::gui</text>
<text text-anchor="middle" x="1165" y="-158" font-family="Helvetica,sans-Serif" font-size="10.00">::CalCanvas</text>
</a>
</g>
</g>
<!-- Node4&#45;&gt;Node2 -->
<g id="edge2" class="edge"><title>Node4&#45;&gt;Node2</title>
<path fill="none" stroke="#9a32cd" stroke-dasharray="5,2" d="M1224.95,-158.736C1256.08,-154.9 1293.97,-150.231 1324.14,-146.514"/>
<polygon fill="#9a32cd" stroke="#9a32cd" points="1224.17,-155.306 1214.67,-160.002 1225.03,-162.253 1224.17,-155.306"/>
<text text-anchor="middle" x="1275" y="-171" font-family="Helvetica,sans-Serif" font-size="10.00"> c_fit</text>
<text text-anchor="middle" x="1275" y="-160" font-family="Helvetica,sans-Serif" font-size="10.00">c_extra</text>
</g>
<!-- Node5 -->
<g id="node4" class="node"><title>Node5</title>
<polygon fill="white" stroke="#bfbfbf" points="906,-287.5 906,-306.5 962,-306.5 962,-287.5 906,-287.5"/>
<text text-anchor="middle" x="934" y="-294.5" font-family="Helvetica,sans-Serif" font-size="10.00">TCanvas</text>
</g>
<!-- Node5&#45;&gt;Node4 -->
<g id="edge3" class="edge"><title>Node5&#45;&gt;Node4</title>
<path fill="none" stroke="midnightblue" d="M972.134,-301.884C1006.21,-304.15 1055.85,-301.51 1086,-273 1113.43,-247.066 1079.63,-218.823 1104,-190 1107.19,-186.231 1111.05,-183.048 1115.27,-180.362"/>
<polygon fill="midnightblue" stroke="midnightblue" points="972.352,-298.39 962.095,-301.046 971.77,-305.366 972.352,-298.39"/>
</g>
<!-- Node6 -->
<g id="node5" class="node"><title>Node6</title>
<g id="a_node5"><a xlink:href="classant_1_1calibration_1_1gui_1_1update__notify__traits.html" target="_top" xlink:title="ant::calibration::gui\l::update_notify_traits">
<polygon fill="white" stroke="black" points="464,-231 464,-261 572,-261 572,-231 464,-231"/>
<text text-anchor="start" x="472" y="-249" font-family="Helvetica,sans-Serif" font-size="10.00">ant::calibration::gui</text>
<text text-anchor="middle" x="518" y="-238" font-family="Helvetica,sans-Serif" font-size="10.00">::update_notify_traits</text>
</a>
</g>
</g>
<!-- Node6&#45;&gt;Node4 -->
<g id="edge4" class="edge"><title>Node6&#45;&gt;Node4</title>
<path fill="none" stroke="midnightblue" d="M582.324,-251.778C675.873,-258.812 856.113,-266.611 1006,-239 1043.19,-232.148 1054.63,-231.132 1086,-210 1095.92,-203.318 1094.19,-196.843 1104,-190 1108.78,-186.662 1114.1,-183.689 1119.54,-181.072"/>
<polygon fill="midnightblue" stroke="midnightblue" points="582.415,-248.274 572.175,-250.992 581.875,-255.253 582.415,-248.274"/>
</g>
<!-- Node8 -->
<g id="node7" class="node"><title>Node8</title>
<g id="a_node7"><a xlink:href="classant_1_1calibration_1_1gui_1_1_indicator.html" target="_top" xlink:title="ant::calibration::gui\l::Indicator">
<polygon fill="white" stroke="black" points="672.5,-200 672.5,-230 771.5,-230 771.5,-200 672.5,-200"/>
<text text-anchor="start" x="680.5" y="-218" font-family="Helvetica,sans-Serif" font-size="10.00">ant::calibration::gui</text>
<text text-anchor="middle" x="722" y="-207" font-family="Helvetica,sans-Serif" font-size="10.00">::Indicator</text>
</a>
</g>
</g>
<!-- Node6&#45;&gt;Node8 -->
<g id="edge7" class="edge"><title>Node6&#45;&gt;Node8</title>
<path fill="none" stroke="midnightblue" d="M582.155,-236.308C611.293,-231.836 645.343,-226.611 672.431,-222.454"/>
<polygon fill="midnightblue" stroke="midnightblue" points="581.426,-232.879 572.073,-237.855 582.488,-239.798 581.426,-232.879"/>
</g>
<!-- Node7 -->
<g id="node6" class="node"><title>Node7</title>
<polygon fill="white" stroke="#bfbfbf" points="873,-200 873,-230 995,-230 995,-200 873,-200"/>
<text text-anchor="start" x="881" y="-218" font-family="Helvetica,sans-Serif" font-size="10.00">std::list&lt; ant::calibration</text>
<text text-anchor="middle" x="934" y="-207" font-family="Helvetica,sans-Serif" font-size="10.00">::gui::Indicator *&gt;</text>
</g>
<!-- Node7&#45;&gt;Node4 -->
<g id="edge5" class="edge"><title>Node7&#45;&gt;Node4</title>
<path fill="none" stroke="#9a32cd" stroke-dasharray="5,2" d="M1005.05,-200.012C1040.76,-192.37 1083.31,-183.265 1115.4,-176.4"/>
<polygon fill="#9a32cd" stroke="#9a32cd" points="1004.21,-196.611 995.167,-202.126 1005.68,-203.456 1004.21,-196.611"/>
<text text-anchor="middle" x="1055" y="-198" font-family="Helvetica,sans-Serif" font-size="10.00"> indicators</text>
</g>
<!-- Node8&#45;&gt;Node7 -->
<g id="edge6" class="edge"><title>Node8&#45;&gt;Node7</title>
<path fill="none" stroke="#9a32cd" stroke-dasharray="5,2" d="M781.901,-215C810.319,-215 844.358,-215 872.928,-215"/>
<polygon fill="#9a32cd" stroke="#9a32cd" points="781.706,-211.5 771.706,-215 781.706,-218.5 781.706,-211.5"/>
<text text-anchor="middle" x="822" y="-218" font-family="Helvetica,sans-Serif" font-size="10.00"> elements</text>
</g>
<!-- Node9 -->
<g id="node8" class="node"><title>Node9</title>
<polygon fill="white" stroke="#bfbfbf" points="875,-151 875,-181 993,-181 993,-151 875,-151"/>
<text text-anchor="start" x="883" y="-169" font-family="Helvetica,sans-Serif" font-size="10.00">std::stack&lt; FitFunction</text>
<text text-anchor="middle" x="934" y="-158" font-family="Helvetica,sans-Serif" font-size="10.00">::SavedState_t &gt;</text>
</g>
<!-- Node9&#45;&gt;Node4 -->
<g id="edge8" class="edge"><title>Node9&#45;&gt;Node4</title>
<path fill="none" stroke="#9a32cd" stroke-dasharray="5,2" d="M1003.51,-166C1039.49,-166 1082.74,-166 1115.27,-166"/>
<polygon fill="#9a32cd" stroke="#9a32cd" points="1003.08,-162.5 993.082,-166 1003.08,-169.5 1003.08,-162.5"/>
<text text-anchor="middle" x="1055" y="-169" font-family="Helvetica,sans-Serif" font-size="10.00"> UndoStack</text>
</g>
<!-- Node10 -->
<g id="node9" class="node"><title>Node10</title>
<g id="a_node9"><a xlink:title="STL class. ">
<polygon fill="white" stroke="#bfbfbf" points="678.5,-156.5 678.5,-175.5 765.5,-175.5 765.5,-156.5 678.5,-156.5"/>
<text text-anchor="middle" x="722" y="-163.5" font-family="Helvetica,sans-Serif" font-size="10.00">std::vector&lt; T &gt;</text>
</a>
</g>
</g>
<!-- Node10&#45;&gt;Node9 -->
<g id="edge9" class="edge"><title>Node10&#45;&gt;Node9</title>
<path fill="none" stroke="#9a32cd" stroke-dasharray="5,2" d="M776.056,-166C806.158,-166 843.874,-166 874.788,-166"/>
<polygon fill="#9a32cd" stroke="#9a32cd" points="775.75,-162.5 765.75,-166 775.75,-169.5 775.75,-162.5"/>
<text text-anchor="middle" x="822" y="-169" font-family="Helvetica,sans-Serif" font-size="10.00"> elements</text>
</g>
<!-- Node11 -->
<g id="node10" class="node"><title>Node11</title>
<polygon fill="white" stroke="#bfbfbf" points="503.5,-156.5 503.5,-175.5 532.5,-175.5 532.5,-156.5 503.5,-156.5"/>
<text text-anchor="middle" x="518" y="-163.5" font-family="Helvetica,sans-Serif" font-size="10.00">T</text>
</g>
<!-- Node11&#45;&gt;Node10 -->
<g id="edge10" class="edge"><title>Node11&#45;&gt;Node10</title>
<path fill="none" stroke="#9a32cd" stroke-dasharray="5,2" d="M542.72,-166C576.005,-166 637.114,-166 678.396,-166"/>
<polygon fill="#9a32cd" stroke="#9a32cd" points="542.567,-162.5 532.567,-166 542.567,-169.5 542.567,-162.5"/>
<text text-anchor="middle" x="622" y="-169" font-family="Helvetica,sans-Serif" font-size="10.00"> elements</text>
</g>
<!-- Node12 -->
<g id="node11" class="node"><title>Node12</title>
<g id="a_node11"><a xlink:href="structant_1_1calibration_1_1gui_1_1_cal_canvas_1_1axis__settings__t.html" target="_top" xlink:title="ant::calibration::gui\l::CalCanvas::axis_settings_t">
<polygon fill="white" stroke="black" points="862.5,-102 862.5,-132 1005.5,-132 1005.5,-102 862.5,-102"/>
<text text-anchor="start" x="870.5" y="-120" font-family="Helvetica,sans-Serif" font-size="10.00">ant::calibration::gui</text>
<text text-anchor="middle" x="934" y="-109" font-family="Helvetica,sans-Serif" font-size="10.00">::CalCanvas::axis_settings_t</text>
</a>
</g>
</g>
<!-- Node12&#45;&gt;Node4 -->
<g id="edge11" class="edge"><title>Node12&#45;&gt;Node4</title>
<path fill="none" stroke="#9a32cd" stroke-dasharray="5,2" d="M1015.45,-134.214C1048.75,-141.339 1086.28,-149.369 1115.28,-155.576"/>
<polygon fill="#9a32cd" stroke="#9a32cd" points="1015.77,-130.705 1005.26,-132.035 1014.31,-137.55 1015.77,-130.705"/>
<text text-anchor="middle" x="1055" y="-152" font-family="Helvetica,sans-Serif" font-size="10.00"> axis_settings</text>
</g>
<!-- Node13 -->
<g id="node12" class="node"><title>Node13</title>
<g id="a_node12"><a xlink:href="classant_1_1calibration_1_1gui_1_1_fit_function.html" target="_top" xlink:title="ant::calibration::gui\l::FitFunction">
<polygon fill="white" stroke="black" points="884.5,-53 884.5,-83 983.5,-83 983.5,-53 884.5,-53"/>
<text text-anchor="start" x="892.5" y="-71" font-family="Helvetica,sans-Serif" font-size="10.00">ant::calibration::gui</text>
<text text-anchor="middle" x="934" y="-60" font-family="Helvetica,sans-Serif" font-size="10.00">::FitFunction</text>
</a>
</g>
</g>
<!-- Node13&#45;&gt;Node4 -->
<g id="edge12" class="edge"><title>Node13&#45;&gt;Node4</title>
<path fill="none" stroke="#9a32cd" stroke-dasharray="5,2" d="M990.172,-86.3857C995.531,-88.251 1000.88,-90.1428 1006,-92 1041.85,-104.997 1054.05,-102.181 1086,-123 1095.48,-129.177 1094.6,-134.705 1104,-141 1109.53,-144.705 1115.7,-148.03 1121.92,-150.953"/>
<polygon fill="#9a32cd" stroke="#9a32cd" points="991.149,-83.0206 980.554,-83.0698 988.867,-89.6383 991.149,-83.0206"/>
<text text-anchor="middle" x="1055" y="-126" font-family="Helvetica,sans-Serif" font-size="10.00"> func</text>
</g>
<!-- Node14 -->
<g id="node13" class="node"><title>Node14</title>
<polygon fill="white" stroke="#bfbfbf" points="662,-14 662,-44 782,-44 782,-14 662,-14"/>
<text text-anchor="start" x="670" y="-32" font-family="Helvetica,sans-Serif" font-size="10.00">std::list&lt; std::unique</text>
<text text-anchor="middle" x="722" y="-21" font-family="Helvetica,sans-Serif" font-size="10.00">_ptr&lt; IndicatorKnob &gt; &gt;</text>
</g>
<!-- Node14&#45;&gt;Node13 -->
<g id="edge13" class="edge"><title>Node14&#45;&gt;Node13</title>
<path fill="none" stroke="#9a32cd" stroke-dasharray="5,2" d="M792.007,-40.6362C809.021,-43.5988 827.184,-46.8409 844,-50 857.014,-52.4449 871.07,-55.2233 884.083,-57.8532"/>
<polygon fill="#9a32cd" stroke="#9a32cd" points="792.592,-37.1855 782.141,-38.9268 791.397,-44.0827 792.592,-37.1855"/>
<text text-anchor="middle" x="822" y="-53" font-family="Helvetica,sans-Serif" font-size="10.00"> knobs</text>
</g>
<!-- Node15 -->
<g id="node14" class="node"><title>Node15</title>
<polygon fill="white" stroke="#bfbfbf" points="454,-8 454,-38 582,-38 582,-8 454,-8"/>
<text text-anchor="start" x="462" y="-26" font-family="Helvetica,sans-Serif" font-size="10.00">std::unique_ptr&lt; Indicator</text>
<text text-anchor="middle" x="518" y="-15" font-family="Helvetica,sans-Serif" font-size="10.00">Knob &gt;</text>
</g>
<!-- Node15&#45;&gt;Node14 -->
<g id="edge14" class="edge"><title>Node15&#45;&gt;Node14</title>
<path fill="none" stroke="#9a32cd" stroke-dasharray="5,2" d="M592.102,-25.1714C615.017,-25.852 640.01,-26.5944 661.837,-27.2427"/>
<polygon fill="#9a32cd" stroke="#9a32cd" points="592.183,-21.6723 582.083,-24.8738 591.975,-28.6692 592.183,-21.6723"/>
<text text-anchor="middle" x="622" y="-30" font-family="Helvetica,sans-Serif" font-size="10.00"> elements</text>
</g>
<!-- Node16 -->
<g id="node15" class="node"><title>Node16</title>
<g id="a_node15"><a xlink:href="classant_1_1calibration_1_1gui_1_1_indicator_knob.html" target="_top" xlink:title="ant::calibration::gui\l::IndicatorKnob">
<polygon fill="white" stroke="black" points="302.5,-8 302.5,-38 401.5,-38 401.5,-8 302.5,-8"/>
<text text-anchor="start" x="310.5" y="-26" font-family="Helvetica,sans-Serif" font-size="10.00">ant::calibration::gui</text>
<text text-anchor="middle" x="352" y="-15" font-family="Helvetica,sans-Serif" font-size="10.00">::IndicatorKnob</text>
</a>
</g>
</g>
<!-- Node16&#45;&gt;Node15 -->
<g id="edge15" class="edge"><title>Node16&#45;&gt;Node15</title>
<path fill="none" stroke="#9a32cd" stroke-dasharray="5,2" d="M411.95,-23C425.544,-23 440.058,-23 453.823,-23"/>
<polygon fill="#9a32cd" stroke="#9a32cd" points="411.761,-19.5001 401.761,-23 411.761,-26.5001 411.761,-19.5001"/>
<text text-anchor="middle" x="428" y="-26" font-family="Helvetica,sans-Serif" font-size="10.00"> ptr</text>
</g>
<!-- Node17 -->
<g id="node16" class="node"><title>Node17</title>
<g id="a_node16"><a xlink:title="STL class. ">
<polygon fill="white" stroke="#bfbfbf" points="156,-57.5 156,-76.5 216,-76.5 216,-57.5 156,-57.5"/>
<text text-anchor="middle" x="186" y="-64.5" font-family="Helvetica,sans-Serif" font-size="10.00">std::string</text>
</a>
</g>
</g>
<!-- Node17&#45;&gt;Node13 -->
<g id="edge19" class="edge"><title>Node17&#45;&gt;Node13</title>
<path fill="none" stroke="#9a32cd" stroke-dasharray="5,2" d="M226.215,-69.9885C259.423,-72.2611 308.301,-75 351,-75 351,-75 351,-75 723,-75 778.265,-75 841.666,-72.5484 884.218,-70.547"/>
<polygon fill="#9a32cd" stroke="#9a32cd" points="226.232,-66.4812 216.011,-69.2711 225.741,-73.4639 226.232,-66.4812"/>
<text text-anchor="middle" x="518" y="-78" font-family="Helvetica,sans-Serif" font-size="10.00"> AdditionalFitArgs</text>
</g>
<!-- Node17&#45;&gt;Node16 -->
<g id="edge16" class="edge"><title>Node17&#45;&gt;Node16</title>
<path fill="none" stroke="#9a32cd" stroke-dasharray="5,2" d="M226.027,-56.5293C248.892,-50.3948 277.97,-42.5933 302.323,-36.0596"/>
<polygon fill="#9a32cd" stroke="#9a32cd" points="225.071,-53.1619 216.32,-59.1337 226.885,-59.9228 225.071,-53.1619"/>
<text text-anchor="middle" x="270" y="-51" font-family="Helvetica,sans-Serif" font-size="10.00"> name</text>
</g>
<!-- Node18 -->
<g id="node17" class="node"><title>Node18</title>
<g id="a_node17"><a xlink:title="STL class. ">
<polygon fill="white" stroke="#bfbfbf" points="0.5,-52 0.5,-82 95.5,-82 95.5,-52 0.5,-52"/>
<text text-anchor="start" x="8.5" y="-70" font-family="Helvetica,sans-Serif" font-size="10.00">std::basic_string&lt;</text>
<text text-anchor="middle" x="48" y="-59" font-family="Helvetica,sans-Serif" font-size="10.00"> char &gt;</text>
</a>
</g>
</g>
<!-- Node18&#45;&gt;Node17 -->
<g id="edge17" class="edge"><title>Node18&#45;&gt;Node17</title>
<path fill="none" stroke="midnightblue" d="M105.82,-67C123.086,-67 141.34,-67 155.965,-67"/>
<polygon fill="midnightblue" stroke="midnightblue" points="105.804,-63.5001 95.8035,-67 105.803,-70.5001 105.804,-63.5001"/>
</g>
<!-- Node19 -->
<g id="node18" class="node"><title>Node19</title>
<g id="a_node18"><a xlink:href="structant_1_1calibration_1_1gui_1_1_indicator_properties.html" target="_top" xlink:title="ant::calibration::gui\l::IndicatorProperties">
<polygon fill="white" stroke="black" points="134,-0 134,-30 238,-30 238,-0 134,-0"/>
<text text-anchor="start" x="142" y="-18" font-family="Helvetica,sans-Serif" font-size="10.00">ant::calibration::gui</text>
<text text-anchor="middle" x="186" y="-7" font-family="Helvetica,sans-Serif" font-size="10.00">::IndicatorProperties</text>
</a>
</g>
</g>
<!-- Node19&#45;&gt;Node16 -->
<g id="edge18" class="edge"><title>Node19&#45;&gt;Node16</title>
<path fill="none" stroke="#9a32cd" stroke-dasharray="5,2" d="M248.373,-14.7625C260.202,-14.9628 272.491,-15.3409 284,-16 289.955,-16.341 296.196,-16.824 302.373,-17.3788"/>
<polygon fill="#9a32cd" stroke="#9a32cd" points="248.171,-11.2597 238.127,-14.6297 248.081,-18.2591 248.171,-11.2597"/>
<text text-anchor="middle" x="270" y="-19" font-family="Helvetica,sans-Serif" font-size="10.00"> gui</text>
</g>
<!-- Node20 -->
<g id="node19" class="node"><title>Node20</title>
<polygon fill="white" stroke="#bfbfbf" points="1104,-102 1104,-132 1226,-132 1226,-102 1104,-102"/>
<text text-anchor="start" x="1112" y="-120" font-family="Helvetica,sans-Serif" font-size="10.00">std::map&lt; unsigned,</text>
<text text-anchor="middle" x="1165" y="-109" font-family="Helvetica,sans-Serif" font-size="10.00"> std::vector&lt; double &gt; &gt;</text>
</g>
<!-- Node20&#45;&gt;Node2 -->
<g id="edge20" class="edge"><title>Node20&#45;&gt;Node2</title>
<path fill="none" stroke="#9a32cd" stroke-dasharray="5,2" d="M1236.21,-119.715C1258.57,-121.061 1283.38,-123.056 1306,-126 1311.98,-126.778 1318.21,-127.757 1324.4,-128.834"/>
<polygon fill="#9a32cd" stroke="#9a32cd" points="1236.3,-116.215 1226.12,-119.142 1235.9,-123.204 1236.3,-116.215"/>
<text text-anchor="middle" x="1275" y="-129" font-family="Helvetica,sans-Serif" font-size="10.00"> fitParameters</text>
</g>
<!-- Node21 -->
<g id="node20" class="node"><title>Node21</title>
<polygon fill="white" stroke="#bfbfbf" points="879,-14.5 879,-33.5 989,-33.5 989,-14.5 879,-14.5"/>
<text text-anchor="middle" x="934" y="-21.5" font-family="Helvetica,sans-Serif" font-size="10.00">std::vector&lt; double &gt;</text>
</g>
<!-- Node21&#45;&gt;Node20 -->
<g id="edge21" class="edge"><title>Node21&#45;&gt;Node20</title>
<path fill="none" stroke="#9a32cd" stroke-dasharray="5,2" d="M999.347,-17.7094C1028.6,-18.2019 1061.95,-23.8725 1086,-43 1104.16,-57.4429 1087.95,-75.2478 1104,-92 1107.67,-95.8297 1112.01,-99.0958 1116.66,-101.876"/>
<polygon fill="#9a32cd" stroke="#9a32cd" points="999.185,-14.2097 989.195,-17.7375 999.204,-21.2097 999.185,-14.2097"/>
<text text-anchor="middle" x="1055" y="-46" font-family="Helvetica,sans-Serif" font-size="10.00"> elements</text>
</g>
<!-- Node22 -->
<g id="node21" class="node"><title>Node22</title>
<polygon fill="white" stroke="#bfbfbf" points="1104.5,-42.5 1104.5,-83.5 1225.5,-83.5 1225.5,-42.5 1104.5,-42.5"/>
<text text-anchor="start" x="1112.5" y="-71.5" font-family="Helvetica,sans-Serif" font-size="10.00">std::vector&lt; std::shared</text>
<text text-anchor="start" x="1112.5" y="-60.5" font-family="Helvetica,sans-Serif" font-size="10.00">_ptr&lt; ant::calibration</text>
<text text-anchor="middle" x="1165" y="-49.5" font-family="Helvetica,sans-Serif" font-size="10.00">::gui::FitTimewalk &gt; &gt;</text>
</g>
<!-- Node22&#45;&gt;Node2 -->
<g id="edge22" class="edge"><title>Node22&#45;&gt;Node2</title>
<path fill="none" stroke="#9a32cd" stroke-dasharray="5,2" d="M1235.19,-82.0296C1257.99,-88.8866 1283.31,-97.1383 1306,-106 1320.13,-111.518 1335.36,-118.643 1348.07,-124.944"/>
<polygon fill="#9a32cd" stroke="#9a32cd" points="1236.17,-78.67 1225.59,-79.1786 1234.18,-85.3804 1236.17,-78.67"/>
<text text-anchor="middle" x="1275" y="-109" font-family="Helvetica,sans-Serif" font-size="10.00"> timewalks</text>
</g>
</g>
</svg>
