<?xml version="1.0" encoding="UTF-8" standalone="no"?>
<!DOCTYPE svg PUBLIC "-//W3C//DTD SVG 1.1//EN"
 "http://www.w3.org/Graphics/SVG/1.1/DTD/svg11.dtd">
<!-- Generated by graphviz version 2.36.0 (20140111.2315)
 -->
<!-- Title: ant::calibration::gui::CalCanvas Pages: 1 -->
<svg width="1212pt" height="304pt"
 viewBox="0.00 0.00 1212.00 304.00" xmlns="http://www.w3.org/2000/svg" xmlns:xlink="http://www.w3.org/1999/xlink">
<g id="graph0" class="graph" transform="scale(1 1) rotate(0) translate(4 300)">
<title>ant::calibration::gui::CalCanvas</title>
<polygon fill="white" stroke="none" points="-4,4 -4,-300 1208,-300 1208,4 -4,4"/>
<!-- Node3 -->
<g id="node1" class="node"><title>Node3</title>
<polygon fill="#bfbfbf" stroke="black" points="1104.5,-163 1104.5,-193 1203.5,-193 1203.5,-163 1104.5,-163"/>
<text text-anchor="start" x="1112.5" y="-181" font-family="Helvetica,sans-Serif" font-size="10.00">ant::calibration::gui</text>
<text text-anchor="middle" x="1154" y="-170" font-family="Helvetica,sans-Serif" font-size="10.00">::CalCanvas</text>
</g>
<!-- Node4 -->
<g id="node2" class="node"><title>Node4</title>
<polygon fill="white" stroke="#bfbfbf" points="906,-276.5 906,-295.5 962,-295.5 962,-276.5 906,-276.5"/>
<text text-anchor="middle" x="934" y="-283.5" font-family="Helvetica,sans-Serif" font-size="10.00">TCanvas</text>
</g>
<!-- Node4&#45;&gt;Node3 -->
<g id="edge1" class="edge"><title>Node4&#45;&gt;Node3</title>
<path fill="none" stroke="midnightblue" d="M972.358,-287.391C1004.54,-286.954 1051.18,-282.29 1086,-262 1114.04,-245.66 1134.92,-212.726 1145.41,-193.304"/>
<polygon fill="midnightblue" stroke="midnightblue" points="972.035,-283.891 962.035,-287.393 972.036,-290.891 972.035,-283.891"/>
</g>
<!-- Node5 -->
<g id="node3" class="node"><title>Node5</title>
<g id="a_node3"><a xlink:href="classant_1_1calibration_1_1gui_1_1update__notify__traits.html" target="_top" xlink:title="ant::calibration::gui\l::update_notify_traits">
<polygon fill="white" stroke="black" points="464,-211 464,-241 572,-241 572,-211 464,-211"/>
<text text-anchor="start" x="472" y="-229" font-family="Helvetica,sans-Serif" font-size="10.00">ant::calibration::gui</text>
<text text-anchor="middle" x="518" y="-218" font-family="Helvetica,sans-Serif" font-size="10.00">::update_notify_traits</text>
</a>
</g>
</g>
<!-- Node5&#45;&gt;Node3 -->
<g id="edge2" class="edge"><title>Node5&#45;&gt;Node3</title>
<path fill="none" stroke="midnightblue" d="M582.346,-231.396C675.561,-238.176 854.975,-246.804 1006,-228 1042.37,-223.472 1051.36,-219.98 1086,-208 1098.17,-203.793 1111.16,-198.235 1122.44,-193.048"/>
<polygon fill="midnightblue" stroke="midnightblue" points="582.464,-227.895 572.232,-230.642 581.944,-234.876 582.464,-227.895"/>
</g>
<!-- Node7 -->
<g id="node5" class="node"><title>Node7</title>
<g id="a_node5"><a xlink:href="classant_1_1calibration_1_1gui_1_1_indicator.html" target="_top" xlink:title="ant::calibration::gui\l::Indicator">
<polygon fill="white" stroke="black" points="672.5,-189 672.5,-219 771.5,-219 771.5,-189 672.5,-189"/>
<text text-anchor="start" x="680.5" y="-207" font-family="Helvetica,sans-Serif" font-size="10.00">ant::calibration::gui</text>
<text text-anchor="middle" x="722" y="-196" font-family="Helvetica,sans-Serif" font-size="10.00">::Indicator</text>
</a>
</g>
</g>
<!-- Node5&#45;&gt;Node7 -->
<g id="edge5" class="edge"><title>Node5&#45;&gt;Node7</title>
<path fill="none" stroke="midnightblue" d="M582.155,-219.122C611.293,-215.948 645.343,-212.24 672.431,-209.29"/>
<polygon fill="midnightblue" stroke="midnightblue" points="581.635,-215.658 572.073,-220.22 582.393,-222.616 581.635,-215.658"/>
</g>
<!-- Node6 -->
<g id="node4" class="node"><title>Node6</title>
<polygon fill="white" stroke="#bfbfbf" points="873,-189 873,-219 995,-219 995,-189 873,-189"/>
<text text-anchor="start" x="881" y="-207" font-family="Helvetica,sans-Serif" font-size="10.00">std::list&lt; ant::calibration</text>
<text text-anchor="middle" x="934" y="-196" font-family="Helvetica,sans-Serif" font-size="10.00">::gui::Indicator *&gt;</text>
</g>
<!-- Node6&#45;&gt;Node3 -->
<g id="edge3" class="edge"><title>Node6&#45;&gt;Node3</title>
<path fill="none" stroke="#9a32cd" stroke-dasharray="5,2" d="M1005.44,-195.598C1037.77,-191.743 1075.3,-187.267 1104.41,-183.795"/>
<polygon fill="#9a32cd" stroke="#9a32cd" points="1004.66,-192.167 995.147,-196.827 1005.49,-199.118 1004.66,-192.167"/>
<text text-anchor="middle" x="1055" y="-196" font-family="Helvetica,sans-Serif" font-size="10.00"> indicators</text>
</g>
<!-- Node7&#45;&gt;Node6 -->
<g id="edge4" class="edge"><title>Node7&#45;&gt;Node6</title>
<path fill="none" stroke="#9a32cd" stroke-dasharray="5,2" d="M781.901,-204C810.319,-204 844.358,-204 872.928,-204"/>
<polygon fill="#9a32cd" stroke="#9a32cd" points="781.706,-200.5 771.706,-204 781.706,-207.5 781.706,-200.5"/>
<text text-anchor="middle" x="822" y="-207" font-family="Helvetica,sans-Serif" font-size="10.00"> elements</text>
</g>
<!-- Node8 -->
<g id="node6" class="node"><title>Node8</title>
<polygon fill="white" stroke="#bfbfbf" points="875,-140 875,-170 993,-170 993,-140 875,-140"/>
<text text-anchor="start" x="883" y="-158" font-family="Helvetica,sans-Serif" font-size="10.00">std::stack&lt; FitFunction</text>
<text text-anchor="middle" x="934" y="-147" font-family="Helvetica,sans-Serif" font-size="10.00">::SavedState_t &gt;</text>
</g>
<!-- Node8&#45;&gt;Node3 -->
<g id="edge6" class="edge"><title>Node8&#45;&gt;Node3</title>
<path fill="none" stroke="#9a32cd" stroke-dasharray="5,2" d="M1003.39,-156.954C1029.34,-158.251 1059.11,-160.409 1086,-164 1092.01,-164.802 1098.28,-165.84 1104.47,-166.989"/>
<polygon fill="#9a32cd" stroke="#9a32cd" points="1003.42,-153.452 993.272,-156.481 1003.1,-160.444 1003.42,-153.452"/>
<text text-anchor="middle" x="1055" y="-167" font-family="Helvetica,sans-Serif" font-size="10.00"> UndoStack</text>
</g>
<!-- Node9 -->
<g id="node7" class="node"><title>Node9</title>
<g id="a_node7"><a xlink:title="STL class. ">
<polygon fill="white" stroke="#bfbfbf" points="678.5,-145.5 678.5,-164.5 765.5,-164.5 765.5,-145.5 678.5,-145.5"/>
<text text-anchor="middle" x="722" y="-152.5" font-family="Helvetica,sans-Serif" font-size="10.00">std::vector&lt; T &gt;</text>
</a>
</g>
</g>
<!-- Node9&#45;&gt;Node8 -->
<g id="edge7" class="edge"><title>Node9&#45;&gt;Node8</title>
<path fill="none" stroke="#9a32cd" stroke-dasharray="5,2" d="M776.056,-155C806.158,-155 843.874,-155 874.788,-155"/>
<polygon fill="#9a32cd" stroke="#9a32cd" points="775.75,-151.5 765.75,-155 775.75,-158.5 775.75,-151.5"/>
<text text-anchor="middle" x="822" y="-158" font-family="Helvetica,sans-Serif" font-size="10.00"> elements</text>
</g>
<!-- Node10 -->
<g id="node8" class="node"><title>Node10</title>
<polygon fill="white" stroke="#bfbfbf" points="503.5,-145.5 503.5,-164.5 532.5,-164.5 532.5,-145.5 503.5,-145.5"/>
<text text-anchor="middle" x="518" y="-152.5" font-family="Helvetica,sans-Serif" font-size="10.00">T</text>
</g>
<!-- Node10&#45;&gt;Node9 -->
<g id="edge8" class="edge"><title>Node10&#45;&gt;Node9</title>
<path fill="none" stroke="#9a32cd" stroke-dasharray="5,2" d="M542.72,-155C576.005,-155 637.114,-155 678.396,-155"/>
<polygon fill="#9a32cd" stroke="#9a32cd" points="542.567,-151.5 532.567,-155 542.567,-158.5 542.567,-151.5"/>
<text text-anchor="middle" x="622" y="-158" font-family="Helvetica,sans-Serif" font-size="10.00"> elements</text>
</g>
<!-- Node11 -->
<g id="node9" class="node"><title>Node11</title>
<g id="a_node9"><a xlink:href="structant_1_1calibration_1_1gui_1_1_cal_canvas_1_1axis__settings__t.html" target="_top" xlink:title="ant::calibration::gui\l::CalCanvas::axis_settings_t">
<polygon fill="white" stroke="black" points="862.5,-91 862.5,-121 1005.5,-121 1005.5,-91 862.5,-91"/>
<text text-anchor="start" x="870.5" y="-109" font-family="Helvetica,sans-Serif" font-size="10.00">ant::calibration::gui</text>
<text text-anchor="middle" x="934" y="-98" font-family="Helvetica,sans-Serif" font-size="10.00">::CalCanvas::axis_settings_t</text>
</a>
</g>
</g>
<!-- Node11&#45;&gt;Node3 -->
<g id="edge9" class="edge"><title>Node11&#45;&gt;Node3</title>
<path fill="none" stroke="#9a32cd" stroke-dasharray="5,2" d="M1015.32,-122.687C1038.46,-128.436 1063.51,-135.586 1086,-144 1099.8,-149.166 1114.48,-156.396 1126.56,-162.861"/>
<polygon fill="#9a32cd" stroke="#9a32cd" points="1016.08,-119.269 1005.53,-120.309 1014.42,-126.071 1016.08,-119.269"/>
<text text-anchor="middle" x="1055" y="-147" font-family="Helvetica,sans-Serif" font-size="10.00"> axis_settings</text>
</g>
<!-- Node12 -->
<g id="node10" class="node"><title>Node12</title>
<g id="a_node10"><a xlink:href="classant_1_1calibration_1_1gui_1_1_fit_function.html" target="_top" xlink:title="ant::calibration::gui\l::FitFunction">
<polygon fill="white" stroke="black" points="884.5,-42 884.5,-72 983.5,-72 983.5,-42 884.5,-42"/>
<text text-anchor="start" x="892.5" y="-60" font-family="Helvetica,sans-Serif" font-size="10.00">ant::calibration::gui</text>
<text text-anchor="middle" x="934" y="-49" font-family="Helvetica,sans-Serif" font-size="10.00">::FitFunction</text>
</a>
</g>
</g>
<!-- Node12&#45;&gt;Node3 -->
<g id="edge10" class="edge"><title>Node12&#45;&gt;Node3</title>
<path fill="none" stroke="#9a32cd" stroke-dasharray="5,2" d="M993.501,-71.1289C1022.75,-79.8324 1057.82,-92.8537 1086,-111 1108.13,-125.249 1128.77,-147.859 1141.14,-162.812"/>
<polygon fill="#9a32cd" stroke="#9a32cd" points="994.402,-67.7462 983.824,-68.3416 992.465,-74.4727 994.402,-67.7462"/>
<text text-anchor="middle" x="1055" y="-114" font-family="Helvetica,sans-Serif" font-size="10.00"> func</text>
</g>
<!-- Node13 -->
<g id="node11" class="node"><title>Node13</title>
<polygon fill="white" stroke="#bfbfbf" points="662,-14 662,-44 782,-44 782,-14 662,-14"/>
<text text-anchor="start" x="670" y="-32" font-family="Helvetica,sans-Serif" font-size="10.00">std::list&lt; std::unique</text>
<text text-anchor="middle" x="722" y="-21" font-family="Helvetica,sans-Serif" font-size="10.00">_ptr&lt; IndicatorKnob &gt; &gt;</text>
</g>
<!-- Node13&#45;&gt;Node12 -->
<g id="edge11" class="edge"><title>Node13&#45;&gt;Node12</title>
<path fill="none" stroke="#9a32cd" stroke-dasharray="5,2" d="M792.094,-38.2125C822.252,-42.2336 856.903,-46.8537 884.296,-50.5061"/>
<polygon fill="#9a32cd" stroke="#9a32cd" points="792.43,-34.7265 782.056,-36.8741 791.505,-41.6651 792.43,-34.7265"/>
<text text-anchor="middle" x="822" y="-48" font-family="Helvetica,sans-Serif" font-size="10.00"> knobs</text>
</g>
<!-- Node14 -->
<g id="node12" class="node"><title>Node14</title>
<polygon fill="white" stroke="#bfbfbf" points="454,-8 454,-38 582,-38 582,-8 454,-8"/>
<text text-anchor="start" x="462" y="-26" font-family="Helvetica,sans-Serif" font-size="10.00">std::unique_ptr&lt; Indicator</text>
<text text-anchor="middle" x="518" y="-15" font-family="Helvetica,sans-Serif" font-size="10.00">Knob &gt;</text>
</g>
<!-- Node14&#45;&gt;Node13 -->
<g id="edge12" class="edge"><title>Node14&#45;&gt;Node13</title>
<path fill="none" stroke="#9a32cd" stroke-dasharray="5,2" d="M592.102,-25.1714C615.017,-25.852 640.01,-26.5944 661.837,-27.2427"/>
<polygon fill="#9a32cd" stroke="#9a32cd" points="592.183,-21.6723 582.083,-24.8738 591.975,-28.6692 592.183,-21.6723"/>
<text text-anchor="middle" x="622" y="-30" font-family="Helvetica,sans-Serif" font-size="10.00"> elements</text>
</g>
<!-- Node15 -->
<g id="node13" class="node"><title>Node15</title>
<g id="a_node13"><a xlink:href="classant_1_1calibration_1_1gui_1_1_indicator_knob.html" target="_top" xlink:title="ant::calibration::gui\l::IndicatorKnob">
<polygon fill="white" stroke="black" points="302.5,-8 302.5,-38 401.5,-38 401.5,-8 302.5,-8"/>
<text text-anchor="start" x="310.5" y="-26" font-family="Helvetica,sans-Serif" font-size="10.00">ant::calibration::gui</text>
<text text-anchor="middle" x="352" y="-15" font-family="Helvetica,sans-Serif" font-size="10.00">::IndicatorKnob</text>
</a>
</g>
</g>
<!-- Node15&#45;&gt;Node14 -->
<g id="edge13" class="edge"><title>Node15&#45;&gt;Node14</title>
<path fill="none" stroke="#9a32cd" stroke-dasharray="5,2" d="M411.95,-23C425.544,-23 440.058,-23 453.823,-23"/>
<polygon fill="#9a32cd" stroke="#9a32cd" points="411.761,-19.5001 401.761,-23 411.761,-26.5001 411.761,-19.5001"/>
<text text-anchor="middle" x="428" y="-26" font-family="Helvetica,sans-Serif" font-size="10.00"> ptr</text>
</g>
<!-- Node16 -->
<g id="node14" class="node"><title>Node16</title>
<g id="a_node14"><a xlink:title="STL class. ">
<polygon fill="white" stroke="#bfbfbf" points="156,-57.5 156,-76.5 216,-76.5 216,-57.5 156,-57.5"/>
<text text-anchor="middle" x="186" y="-64.5" font-family="Helvetica,sans-Serif" font-size="10.00">std::string</text>
</a>
</g>
</g>
<!-- Node16&#45;&gt;Node12 -->
<g id="edge17" class="edge"><title>Node16&#45;&gt;Node12</title>
<path fill="none" stroke="#9a32cd" stroke-dasharray="5,2" d="M226.215,-69.9885C259.423,-72.2611 308.301,-75 351,-75 351,-75 351,-75 723,-75 778.437,-75 841.806,-68.696 884.303,-63.5493"/>
<polygon fill="#9a32cd" stroke="#9a32cd" points="226.232,-66.4812 216.011,-69.2711 225.741,-73.4639 226.232,-66.4812"/>
<text text-anchor="middle" x="518" y="-78" font-family="Helvetica,sans-Serif" font-size="10.00"> AdditionalFitArgs</text>
</g>
<!-- Node16&#45;&gt;Node15 -->
<g id="edge14" class="edge"><title>Node16&#45;&gt;Node15</title>
<path fill="none" stroke="#9a32cd" stroke-dasharray="5,2" d="M226.027,-56.5293C248.892,-50.3948 277.97,-42.5933 302.323,-36.0596"/>
<polygon fill="#9a32cd" stroke="#9a32cd" points="225.071,-53.1619 216.32,-59.1337 226.885,-59.9228 225.071,-53.1619"/>
<text text-anchor="middle" x="270" y="-51" font-family="Helvetica,sans-Serif" font-size="10.00"> name</text>
</g>
<!-- Node17 -->
<g id="node15" class="node"><title>Node17</title>
<g id="a_node15"><a xlink:title="STL class. ">
<polygon fill="white" stroke="#bfbfbf" points="0.5,-52 0.5,-82 95.5,-82 95.5,-52 0.5,-52"/>
<text text-anchor="start" x="8.5" y="-70" font-family="Helvetica,sans-Serif" font-size="10.00">std::basic_string&lt;</text>
<text text-anchor="middle" x="48" y="-59" font-family="Helvetica,sans-Serif" font-size="10.00"> char &gt;</text>
</a>
</g>
</g>
<!-- Node17&#45;&gt;Node16 -->
<g id="edge15" class="edge"><title>Node17&#45;&gt;Node16</title>
<path fill="none" stroke="midnightblue" d="M105.82,-67C123.086,-67 141.34,-67 155.965,-67"/>
<polygon fill="midnightblue" stroke="midnightblue" points="105.804,-63.5001 95.8035,-67 105.803,-70.5001 105.804,-63.5001"/>
</g>
<!-- Node18 -->
<g id="node16" class="node"><title>Node18</title>
<g id="a_node16"><a xlink:href="structant_1_1calibration_1_1gui_1_1_indicator_properties.html" target="_top" xlink:title="ant::calibration::gui\l::IndicatorProperties">
<polygon fill="white" stroke="black" points="134,-0 134,-30 238,-30 238,-0 134,-0"/>
<text text-anchor="start" x="142" y="-18" font-family="Helvetica,sans-Serif" font-size="10.00">ant::calibration::gui</text>
<text text-anchor="middle" x="186" y="-7" font-family="Helvetica,sans-Serif" font-size="10.00">::IndicatorProperties</text>
</a>
</g>
</g>
<!-- Node18&#45;&gt;Node15 -->
<g id="edge16" class="edge"><title>Node18&#45;&gt;Node15</title>
<path fill="none" stroke="#9a32cd" stroke-dasharray="5,2" d="M248.373,-14.7625C260.202,-14.9628 272.491,-15.3409 284,-16 289.955,-16.341 296.196,-16.824 302.373,-17.3788"/>
<polygon fill="#9a32cd" stroke="#9a32cd" points="248.171,-11.2597 238.127,-14.6297 248.081,-18.2591 248.171,-11.2597"/>
<text text-anchor="middle" x="270" y="-19" font-family="Helvetica,sans-Serif" font-size="10.00"> gui</text>
</g>
</g>
</svg>
