<?xml version="1.0" encoding="UTF-8" standalone="no"?>
<!DOCTYPE svg PUBLIC "-//W3C//DTD SVG 1.1//EN"
 "http://www.w3.org/Graphics/SVG/1.1/DTD/svg11.dtd">
<!-- Generated by graphviz version 2.36.0 (20140111.2315)
 -->
<!-- Title: ant::calibration::TAPS_ToF Pages: 1 -->
<svg width="272pt" height="208pt"
 viewBox="0.00 0.00 272.00 208.00" xmlns="http://www.w3.org/2000/svg" xmlns:xlink="http://www.w3.org/1999/xlink">
<g id="graph0" class="graph" transform="scale(1 1) rotate(0) translate(4 204)">
<title>ant::calibration::TAPS_ToF</title>
<polygon fill="white" stroke="none" points="-4,4 -4,-204 268,-204 268,4 -4,4"/>
<!-- Node0 -->
<g id="node1" class="node"><title>Node0</title>
<polygon fill="#bfbfbf" stroke="black" points="71.5,-0.5 71.5,-19.5 206.5,-19.5 206.5,-0.5 71.5,-0.5"/>
<text text-anchor="middle" x="139" y="-7.5" font-family="Helvetica,sans-Serif" font-size="10.00">ant::calibration::TAPS_ToF</text>
</g>
<!-- Node1 -->
<g id="node2" class="node"><title>Node1</title>
<g id="a_node2"><a xlink:href="classant_1_1_calibration_1_1_module.html" target="_top" xlink:title="The Module class is typically used for calibrations. ">
<polygon fill="white" stroke="black" points="79,-56.5 79,-75.5 199,-75.5 199,-56.5 79,-56.5"/>
<text text-anchor="middle" x="139" y="-63.5" font-family="Helvetica,sans-Serif" font-size="10.00">ant::Calibration::Module</text>
</a>
</g>
</g>
<!-- Node1&#45;&gt;Node0 -->
<g id="edge1" class="edge"><title>Node1&#45;&gt;Node0</title>
<path fill="none" stroke="midnightblue" d="M139,-45.8045C139,-36.9102 139,-26.7798 139,-19.7511"/>
<polygon fill="midnightblue" stroke="midnightblue" points="135.5,-46.083 139,-56.083 142.5,-46.083 135.5,-46.083"/>
</g>
<!-- Node2 -->
<g id="node3" class="node"><title>Node2</title>
<g id="a_node3"><a xlink:href="classant_1_1_calibration_1_1_physics_module.html" target="_top" xlink:title="The PhysicsModule class gives the modules the ability to create histograms from events as well as fit...">
<polygon fill="white" stroke="black" points="9,-113 9,-143 133,-143 133,-113 9,-113"/>
<text text-anchor="start" x="17" y="-131" font-family="Helvetica,sans-Serif" font-size="10.00">ant::Calibration::Physics</text>
<text text-anchor="middle" x="71" y="-120" font-family="Helvetica,sans-Serif" font-size="10.00">Module</text>
</a>
</g>
</g>
<!-- Node2&#45;&gt;Node1 -->
<g id="edge2" class="edge"><title>Node2&#45;&gt;Node1</title>
<path fill="none" stroke="midnightblue" d="M94.8889,-105.922C106.64,-95.5533 120.163,-83.6209 129.105,-75.7305"/>
<polygon fill="midnightblue" stroke="midnightblue" points="92.2978,-103.54 87.1151,-112.781 96.9291,-108.789 92.2978,-103.54"/>
</g>
<!-- Node3 -->
<g id="node4" class="node"><title>Node3</title>
<g id="a_node4"><a xlink:href="classant_1_1_calibration_1_1_base_module.html" target="_top" xlink:title="The BaseModule class provides a name for identification. ">
<polygon fill="white" stroke="black" points="-0.5,-180.5 -0.5,-199.5 142.5,-199.5 142.5,-180.5 -0.5,-180.5"/>
<text text-anchor="middle" x="71" y="-187.5" font-family="Helvetica,sans-Serif" font-size="10.00">ant::Calibration::BaseModule</text>
</a>
</g>
</g>
<!-- Node3&#45;&gt;Node2 -->
<g id="edge3" class="edge"><title>Node3&#45;&gt;Node2</title>
<path fill="none" stroke="midnightblue" d="M71,-170.371C71,-161.585 71,-151.272 71,-143.141"/>
<polygon fill="midnightblue" stroke="midnightblue" points="67.5001,-170.403 71,-180.403 74.5001,-170.403 67.5001,-170.403"/>
</g>
<!-- Node4 -->
<g id="node5" class="node"><title>Node4</title>
<g id="a_node5"><a xlink:href="structant_1_1_updateable__traits.html" target="_top" xlink:title="The Updateable_traits class used by the UpdateableManager. ">
<polygon fill="white" stroke="black" points="151.5,-118.5 151.5,-137.5 264.5,-137.5 264.5,-118.5 151.5,-118.5"/>
<text text-anchor="middle" x="208" y="-125.5" font-family="Helvetica,sans-Serif" font-size="10.00">ant::Updateable_traits</text>
</a>
</g>
</g>
<!-- Node4&#45;&gt;Node1 -->
<g id="edge4" class="edge"><title>Node4&#45;&gt;Node1</title>
<path fill="none" stroke="midnightblue" d="M190.199,-111.521C177.044,-100.082 159.62,-84.9305 148.868,-75.5806"/>
<polygon fill="midnightblue" stroke="midnightblue" points="188.271,-114.483 198.114,-118.403 192.865,-109.201 188.271,-114.483"/>
</g>
</g>
</svg>
