<?xml version="1.0" encoding="UTF-8" standalone="no"?>
<!DOCTYPE svg PUBLIC "-//W3C//DTD SVG 1.1//EN"
 "http://www.w3.org/Graphics/SVG/1.1/DTD/svg11.dtd">
<!-- Generated by graphviz version 2.36.0 (20140111.2315)
 -->
<!-- Title: ant::analysis::physics::OmegaBase Pages: 1 -->
<svg width="250pt" height="164pt"
 viewBox="0.00 0.00 250.00 164.00" xmlns="http://www.w3.org/2000/svg" xmlns:xlink="http://www.w3.org/1999/xlink">
<g id="graph0" class="graph" transform="scale(1 1) rotate(0) translate(4 160)">
<title>ant::analysis::physics::OmegaBase</title>
<polygon fill="white" stroke="none" points="-4,4 -4,-160 246,-160 246,4 -4,4"/>
<!-- Node0 -->
<g id="node1" class="node"><title>Node0</title>
<polygon fill="#bfbfbf" stroke="black" points="65,-69 65,-99 177,-99 177,-69 65,-69"/>
<text text-anchor="start" x="73" y="-87" font-family="Helvetica,sans-Serif" font-size="10.00">ant::analysis::physics</text>
<text text-anchor="middle" x="121" y="-76" font-family="Helvetica,sans-Serif" font-size="10.00">::OmegaBase</text>
</g>
<!-- Node2 -->
<g id="node3" class="node"><title>Node2</title>
<g id="a_node3"><a xlink:href="classant_1_1analysis_1_1physics_1_1_omega_eta_g2.html" target="_top" xlink:title="ant::analysis::physics\l::OmegaEtaG2">
<polygon fill="white" stroke="black" points="0,-1 0,-31 112,-31 112,-1 0,-1"/>
<text text-anchor="start" x="8" y="-19" font-family="Helvetica,sans-Serif" font-size="10.00">ant::analysis::physics</text>
<text text-anchor="middle" x="56" y="-8" font-family="Helvetica,sans-Serif" font-size="10.00">::OmegaEtaG2</text>
</a>
</g>
</g>
<!-- Node0&#45;&gt;Node2 -->
<g id="edge2" class="edge"><title>Node0&#45;&gt;Node2</title>
<path fill="none" stroke="midnightblue" d="M99.8115,-61.4855C90.0612,-51.5852 78.759,-40.1092 70.0765,-31.2931"/>
<polygon fill="midnightblue" stroke="midnightblue" points="97.3853,-64.01 106.896,-68.679 102.373,-59.0982 97.3853,-64.01"/>
</g>
<!-- Node3 -->
<g id="node4" class="node"><title>Node3</title>
<g id="a_node4"><a xlink:href="classant_1_1analysis_1_1physics_1_1_pi0_eta.html" target="_top" xlink:title="ant::analysis::physics\l::Pi0Eta">
<polygon fill="white" stroke="black" points="130,-1 130,-31 242,-31 242,-1 130,-1"/>
<text text-anchor="start" x="138" y="-19" font-family="Helvetica,sans-Serif" font-size="10.00">ant::analysis::physics</text>
<text text-anchor="middle" x="186" y="-8" font-family="Helvetica,sans-Serif" font-size="10.00">::Pi0Eta</text>
</a>
</g>
</g>
<!-- Node0&#45;&gt;Node3 -->
<g id="edge3" class="edge"><title>Node0&#45;&gt;Node3</title>
<path fill="none" stroke="midnightblue" d="M142.189,-61.4855C151.939,-51.5852 163.241,-40.1092 171.923,-31.2931"/>
<polygon fill="midnightblue" stroke="midnightblue" points="139.627,-59.0982 135.104,-68.679 144.615,-64.01 139.627,-59.0982"/>
</g>
<!-- Node1 -->
<g id="node2" class="node"><title>Node1</title>
<g id="a_node2"><a xlink:href="classant_1_1analysis_1_1_physics.html" target="_top" xlink:title="ant::analysis::Physics">
<polygon fill="white" stroke="black" points="64.5,-136.5 64.5,-155.5 177.5,-155.5 177.5,-136.5 64.5,-136.5"/>
<text text-anchor="middle" x="121" y="-143.5" font-family="Helvetica,sans-Serif" font-size="10.00">ant::analysis::Physics</text>
</a>
</g>
</g>
<!-- Node1&#45;&gt;Node0 -->
<g id="edge1" class="edge"><title>Node1&#45;&gt;Node0</title>
<path fill="none" stroke="midnightblue" d="M121,-126.371C121,-117.585 121,-107.272 121,-99.1408"/>
<polygon fill="midnightblue" stroke="midnightblue" points="117.5,-126.403 121,-136.403 124.5,-126.403 117.5,-126.403"/>
</g>
</g>
</svg>
