<?xml version="1.0" encoding="UTF-8" standalone="no"?>
<!DOCTYPE svg PUBLIC "-//W3C//DTD SVG 1.1//EN"
 "http://www.w3.org/Graphics/SVG/1.1/DTD/svg11.dtd">
<!-- Generated by graphviz version 2.36.0 (20140111.2315)
 -->
<!-- Title: ant::analysis::physics::scratch_collicott_ppi0_2gamma Pages: 1 -->
<svg width="976pt" height="420pt"
 viewBox="0.00 0.00 976.00 420.00" xmlns="http://www.w3.org/2000/svg" xmlns:xlink="http://www.w3.org/1999/xlink">
<g id="graph0" class="graph" transform="scale(1 1) rotate(0) translate(4 416)">
<title>ant::analysis::physics::scratch_collicott_ppi0_2gamma</title>
<polygon fill="white" stroke="none" points="-4,4 -4,-416 972,-416 972,4 -4,4"/>
<!-- Node2 -->
<g id="node1" class="node"><title>Node2</title>
<polygon fill="#bfbfbf" stroke="black" points="850.5,-238.5 850.5,-279.5 967.5,-279.5 967.5,-238.5 850.5,-238.5"/>
<text text-anchor="start" x="858.5" y="-267.5" font-family="Helvetica,sans-Serif" font-size="10.00">ant::analysis::physics</text>
<text text-anchor="start" x="858.5" y="-256.5" font-family="Helvetica,sans-Serif" font-size="10.00">::scratch_collicott_ppi0</text>
<text text-anchor="middle" x="909" y="-245.5" font-family="Helvetica,sans-Serif" font-size="10.00">_2gamma</text>
</g>
<!-- Node3 -->
<g id="node2" class="node"><title>Node3</title>
<g id="a_node2"><a xlink:href="classant_1_1analysis_1_1_physics.html" target="_top" xlink:title="ant::analysis::Physics">
<polygon fill="white" stroke="black" points="586.5,-158.5 586.5,-177.5 699.5,-177.5 699.5,-158.5 586.5,-158.5"/>
<text text-anchor="middle" x="643" y="-165.5" font-family="Helvetica,sans-Serif" font-size="10.00">ant::analysis::Physics</text>
</a>
</g>
</g>
<!-- Node3&#45;&gt;Node2 -->
<g id="edge1" class="edge"><title>Node3&#45;&gt;Node2</title>
<path fill="none" stroke="midnightblue" d="M681.481,-180.92C725.509,-196.096 799.041,-221.442 850.343,-239.126"/>
<polygon fill="midnightblue" stroke="midnightblue" points="682.348,-177.517 671.754,-177.567 680.067,-184.134 682.348,-177.517"/>
</g>
<!-- Node4 -->
<g id="node3" class="node"><title>Node4</title>
<g id="a_node3"><a xlink:href="classant_1_1analysis_1_1_histogram_factory.html" target="_top" xlink:title="ant::analysis::Histogram\lFactory">
<polygon fill="white" stroke="black" points="269.5,-131 269.5,-161 392.5,-161 392.5,-131 269.5,-131"/>
<text text-anchor="start" x="277.5" y="-149" font-family="Helvetica,sans-Serif" font-size="10.00">ant::analysis::Histogram</text>
<text text-anchor="middle" x="331" y="-138" font-family="Helvetica,sans-Serif" font-size="10.00">Factory</text>
</a>
</g>
</g>
<!-- Node4&#45;&gt;Node3 -->
<g id="edge2" class="edge"><title>Node4&#45;&gt;Node3</title>
<path fill="none" stroke="#9a32cd" stroke-dasharray="5,2" d="M402.605,-146.735C444.378,-147.644 498.285,-149.642 546,-154 559.083,-155.195 573.106,-156.962 586.281,-158.84"/>
<polygon fill="#9a32cd" stroke="#9a32cd" points="402.598,-143.234 392.53,-146.531 402.457,-150.233 402.598,-143.234"/>
<text text-anchor="middle" x="487" y="-157" font-family="Helvetica,sans-Serif" font-size="10.00"> HistFac</text>
</g>
<!-- Node10 -->
<g id="node9" class="node"><title>Node10</title>
<g id="a_node9"><a xlink:href="classant_1_1analysis_1_1utils_1_1scratch__collicott___det_eff.html" target="_top" xlink:title="The DetEff class. ">
<polygon fill="white" stroke="black" points="579,-212 579,-242 707,-242 707,-212 579,-212"/>
<text text-anchor="start" x="587" y="-230" font-family="Helvetica,sans-Serif" font-size="10.00">ant::analysis::utils</text>
<text text-anchor="middle" x="643" y="-219" font-family="Helvetica,sans-Serif" font-size="10.00">::scratch_collicott_DetEff</text>
</a>
</g>
</g>
<!-- Node4&#45;&gt;Node10 -->
<g id="edge13" class="edge"><title>Node4&#45;&gt;Node10</title>
<path fill="none" stroke="#9a32cd" stroke-dasharray="5,2" d="M402.637,-160.073C411.18,-161.747 419.785,-163.421 428,-165 480.39,-175.068 494.873,-171.768 546,-187 568.149,-193.599 592.149,-203.599 610.612,-211.949"/>
<polygon fill="#9a32cd" stroke="#9a32cd" points="403.152,-156.607 392.665,-158.112 401.802,-163.476 403.152,-156.607"/>
<text text-anchor="middle" x="487" y="-190" font-family="Helvetica,sans-Serif" font-size="10.00"> HistFac</text>
</g>
<!-- Node17 -->
<g id="node16" class="node"><title>Node17</title>
<g id="a_node16"><a xlink:href="classant_1_1analysis_1_1utils_1_1scratch__collicott___cross_section.html" target="_top" xlink:title="The CrossSection class This class stores a yield tree... stored as (particle, tagger channel) pair Yi...">
<polygon fill="white" stroke="black" points="564,-70 564,-100 722,-100 722,-70 564,-70"/>
<text text-anchor="start" x="572" y="-88" font-family="Helvetica,sans-Serif" font-size="10.00">ant::analysis::utils</text>
<text text-anchor="middle" x="643" y="-77" font-family="Helvetica,sans-Serif" font-size="10.00">::scratch_collicott_CrossSection</text>
</a>
</g>
</g>
<!-- Node4&#45;&gt;Node17 -->
<g id="edge24" class="edge"><title>Node4&#45;&gt;Node17</title>
<path fill="none" stroke="#9a32cd" stroke-dasharray="5,2" d="M390.961,-126.467C397.749,-122.9 404.278,-118.765 410,-114 421.368,-104.533 415.032,-93.1195 428,-86 473.433,-61.0581 532.896,-63.002 577.608,-69.9367"/>
<polygon fill="#9a32cd" stroke="#9a32cd" points="389.081,-123.488 381.595,-130.985 392.122,-129.793 389.081,-123.488"/>
<text text-anchor="middle" x="487" y="-89" font-family="Helvetica,sans-Serif" font-size="10.00"> HistFac</text>
</g>
<!-- Node5 -->
<g id="node4" class="node"><title>Node5</title>
<g id="a_node4"><a xlink:href="classant_1_1analysis_1_1utils_1_1_trigger_simulation.html" target="_top" xlink:title="ant::analysis::utils\l::TriggerSimulation">
<polygon fill="white" stroke="black" points="594,-309 594,-339 692,-339 692,-309 594,-309"/>
<text text-anchor="start" x="602" y="-327" font-family="Helvetica,sans-Serif" font-size="10.00">ant::analysis::utils</text>
<text text-anchor="middle" x="643" y="-316" font-family="Helvetica,sans-Serif" font-size="10.00">::TriggerSimulation</text>
</a>
</g>
</g>
<!-- Node5&#45;&gt;Node2 -->
<g id="edge3" class="edge"><title>Node5&#45;&gt;Node2</title>
<path fill="none" stroke="#9a32cd" stroke-dasharray="5,2" d="M702.548,-318.275C740.097,-313.647 789.579,-305.754 832,-293 843.766,-289.463 856.098,-284.526 867.321,-279.509"/>
<polygon fill="#9a32cd" stroke="#9a32cd" points="701.807,-314.838 692.29,-319.495 702.634,-321.789 701.807,-314.838"/>
<text text-anchor="middle" x="786" y="-316" font-family="Helvetica,sans-Serif" font-size="10.00"> triggersimu</text>
</g>
<!-- Node6 -->
<g id="node5" class="node"><title>Node6</title>
<g id="a_node5"><a xlink:href="classant_1_1analysis_1_1_prompt_random_1_1_switch.html" target="_top" xlink:title="ant::analysis::PromptRandom\l::Switch">
<polygon fill="white" stroke="black" points="570,-370 570,-400 716,-400 716,-370 570,-370"/>
<text text-anchor="start" x="578" y="-388" font-family="Helvetica,sans-Serif" font-size="10.00">ant::analysis::PromptRandom</text>
<text text-anchor="middle" x="643" y="-377" font-family="Helvetica,sans-Serif" font-size="10.00">::Switch</text>
</a>
</g>
</g>
<!-- Node6&#45;&gt;Node2 -->
<g id="edge4" class="edge"><title>Node6&#45;&gt;Node2</title>
<path fill="none" stroke="#9a32cd" stroke-dasharray="5,2" d="M726.156,-368.503C760.297,-359.552 799.461,-346.449 832,-328 854.324,-315.343 875.58,-295.093 889.907,-279.797"/>
<polygon fill="#9a32cd" stroke="#9a32cd" points="725.033,-365.177 716.204,-371.034 726.758,-371.961 725.033,-365.177"/>
<text text-anchor="middle" x="786" y="-367" font-family="Helvetica,sans-Serif" font-size="10.00"> promptrandom</text>
</g>
<!-- Node7 -->
<g id="node6" class="node"><title>Node7</title>
<g id="a_node6"><a xlink:href="classant_1_1_piecewise_interval.html" target="_top" xlink:title="ant::PiecewiseInterval\l\&lt; double \&gt;">
<polygon fill="white" stroke="black" points="274.5,-377 274.5,-407 387.5,-407 387.5,-377 274.5,-377"/>
<text text-anchor="start" x="282.5" y="-395" font-family="Helvetica,sans-Serif" font-size="10.00">ant::PiecewiseInterval</text>
<text text-anchor="middle" x="331" y="-384" font-family="Helvetica,sans-Serif" font-size="10.00">&lt; double &gt;</text>
</a>
</g>
</g>
<!-- Node7&#45;&gt;Node6 -->
<g id="edge5" class="edge"><title>Node7&#45;&gt;Node6</title>
<path fill="none" stroke="#9a32cd" stroke-dasharray="5,2" d="M397.917,-390.512C448.334,-389.373 517.787,-387.805 569.719,-386.632"/>
<polygon fill="#9a32cd" stroke="#9a32cd" points="397.698,-387.016 387.78,-390.74 397.856,-394.014 397.698,-387.016"/>
<text text-anchor="middle" x="487" y="-404" font-family="Helvetica,sans-Serif" font-size="10.00"> promptw</text>
<text text-anchor="middle" x="487" y="-393" font-family="Helvetica,sans-Serif" font-size="10.00">randomw</text>
</g>
<!-- Node8 -->
<g id="node7" class="node"><title>Node8</title>
<g id="a_node7"><a xlink:title="STL class. ">
<polygon fill="white" stroke="#bfbfbf" points="110,-377 110,-407 214,-407 214,-377 110,-377"/>
<text text-anchor="start" x="118" y="-395" font-family="Helvetica,sans-Serif" font-size="10.00">std::vector&lt; interval</text>
<text text-anchor="middle" x="162" y="-384" font-family="Helvetica,sans-Serif" font-size="10.00">&lt; double &gt; &gt;</text>
</a>
</g>
</g>
<!-- Node8&#45;&gt;Node7 -->
<g id="edge6" class="edge"><title>Node8&#45;&gt;Node7</title>
<path fill="none" stroke="midnightblue" d="M224.068,-392C240.518,-392 258.222,-392 274.359,-392"/>
<polygon fill="midnightblue" stroke="midnightblue" points="224.013,-388.5 214.013,-392 224.013,-395.5 224.013,-388.5"/>
</g>
<!-- Node9 -->
<g id="node8" class="node"><title>Node9</title>
<polygon fill="white" stroke="#bfbfbf" points="0.5,-382.5 0.5,-401.5 29.5,-401.5 29.5,-382.5 0.5,-382.5"/>
<text text-anchor="middle" x="15" y="-389.5" font-family="Helvetica,sans-Serif" font-size="10.00">T</text>
</g>
<!-- Node9&#45;&gt;Node8 -->
<g id="edge7" class="edge"><title>Node9&#45;&gt;Node8</title>
<path fill="none" stroke="#9a32cd" stroke-dasharray="5,2" d="M39.7626,-392C58.7294,-392 85.9845,-392 109.851,-392"/>
<polygon fill="#9a32cd" stroke="#9a32cd" points="39.6413,-388.5 29.6412,-392 39.6412,-395.5 39.6413,-388.5"/>
<text text-anchor="middle" x="70" y="-395" font-family="Helvetica,sans-Serif" font-size="10.00"> elements</text>
</g>
<!-- Node10&#45;&gt;Node2 -->
<g id="edge8" class="edge"><title>Node10&#45;&gt;Node2</title>
<path fill="none" stroke="#9a32cd" stroke-dasharray="5,2" d="M717.397,-235.897C759.349,-240.982 811.209,-247.268 850.239,-251.999"/>
<polygon fill="#9a32cd" stroke="#9a32cd" points="717.583,-232.394 707.235,-234.665 716.741,-239.343 717.583,-232.394"/>
<text text-anchor="middle" x="786" y="-253" font-family="Helvetica,sans-Serif" font-size="10.00"> detection_efficiency</text>
</g>
<!-- Node11 -->
<g id="node10" class="node"><title>Node11</title>
<g id="a_node10"><a xlink:href="structant_1_1analysis_1_1utils_1_1scratch__collicott___det_eff_1_1_stats__t.html" target="_top" xlink:title="ant::analysis::utils\l::scratch_collicott_DetEff\l::Stats_t">
<polygon fill="white" stroke="black" points="267,-278.5 267,-319.5 395,-319.5 395,-278.5 267,-278.5"/>
<text text-anchor="start" x="275" y="-307.5" font-family="Helvetica,sans-Serif" font-size="10.00">ant::analysis::utils</text>
<text text-anchor="start" x="275" y="-296.5" font-family="Helvetica,sans-Serif" font-size="10.00">::scratch_collicott_DetEff</text>
<text text-anchor="middle" x="331" y="-285.5" font-family="Helvetica,sans-Serif" font-size="10.00">::Stats_t</text>
</a>
</g>
</g>
<!-- Node11&#45;&gt;Node10 -->
<g id="edge9" class="edge"><title>Node11&#45;&gt;Node10</title>
<path fill="none" stroke="#9a32cd" stroke-dasharray="5,2" d="M405.315,-301.714C448.152,-300.605 502.223,-294.426 546,-274 555.972,-269.347 554.689,-262.864 564,-257 573.208,-251.201 583.715,-246.226 593.97,-242.088"/>
<polygon fill="#9a32cd" stroke="#9a32cd" points="405.178,-298.216 395.24,-301.888 405.299,-305.215 405.178,-298.216"/>
<text text-anchor="middle" x="487" y="-304" font-family="Helvetica,sans-Serif" font-size="10.00"> stats</text>
</g>
<!-- Node12 -->
<g id="node11" class="node"><title>Node12</title>
<g id="a_node11"><a xlink:href="classant_1_1_wrap_t_tree.html" target="_top" xlink:title="The WrapTTree struct simplifies TTree handling in physics classes. ">
<polygon fill="white" stroke="black" points="119.5,-229.5 119.5,-248.5 204.5,-248.5 204.5,-229.5 119.5,-229.5"/>
<text text-anchor="middle" x="162" y="-236.5" font-family="Helvetica,sans-Serif" font-size="10.00">ant::WrapTTree</text>
</a>
</g>
</g>
<!-- Node12&#45;&gt;Node11 -->
<g id="edge10" class="edge"><title>Node12&#45;&gt;Node11</title>
<path fill="none" stroke="midnightblue" d="M198.884,-251.892C220.442,-259.638 248.359,-269.668 272.89,-278.482"/>
<polygon fill="midnightblue" stroke="midnightblue" points="200.056,-248.595 189.462,-248.507 197.689,-255.182 200.056,-248.595"/>
</g>
<!-- Node15 -->
<g id="node14" class="node"><title>Node15</title>
<g id="a_node14"><a xlink:href="structant_1_1analysis_1_1utils_1_1scratch__collicott___det_eff_1_1_det_eff__t.html" target="_top" xlink:title="ant::analysis::utils\l::scratch_collicott_DetEff\l::DetEff_t">
<polygon fill="white" stroke="black" points="267,-218.5 267,-259.5 395,-259.5 395,-218.5 267,-218.5"/>
<text text-anchor="start" x="275" y="-247.5" font-family="Helvetica,sans-Serif" font-size="10.00">ant::analysis::utils</text>
<text text-anchor="start" x="275" y="-236.5" font-family="Helvetica,sans-Serif" font-size="10.00">::scratch_collicott_DetEff</text>
<text text-anchor="middle" x="331" y="-225.5" font-family="Helvetica,sans-Serif" font-size="10.00">::DetEff_t</text>
</a>
</g>
</g>
<!-- Node12&#45;&gt;Node15 -->
<g id="edge15" class="edge"><title>Node12&#45;&gt;Node15</title>
<path fill="none" stroke="midnightblue" d="M215.148,-239C231.491,-239 249.709,-239 266.732,-239"/>
<polygon fill="midnightblue" stroke="midnightblue" points="214.71,-235.5 204.71,-239 214.71,-242.5 214.71,-235.5"/>
</g>
<!-- Node16 -->
<g id="node15" class="node"><title>Node16</title>
<g id="a_node15"><a xlink:href="structant_1_1analysis_1_1physics_1_1scratch__collicott__ppi0__2gamma_1_1steps__t.html" target="_top" xlink:title="ant::analysis::physics\l::scratch_collicott_ppi0\l_2gamma::steps_t">
<polygon fill="white" stroke="black" points="428.5,-327.5 428.5,-368.5 545.5,-368.5 545.5,-327.5 428.5,-327.5"/>
<text text-anchor="start" x="436.5" y="-356.5" font-family="Helvetica,sans-Serif" font-size="10.00">ant::analysis::physics</text>
<text text-anchor="start" x="436.5" y="-345.5" font-family="Helvetica,sans-Serif" font-size="10.00">::scratch_collicott_ppi0</text>
<text text-anchor="middle" x="487" y="-334.5" font-family="Helvetica,sans-Serif" font-size="10.00">_2gamma::steps_t</text>
</a>
</g>
</g>
<!-- Node12&#45;&gt;Node16 -->
<g id="edge17" class="edge"><title>Node12&#45;&gt;Node16</title>
<path fill="none" stroke="midnightblue" d="M175.017,-257.131C190.168,-278.282 218.344,-312.347 252,-328 307.825,-353.964 379.206,-356.257 428.37,-353.77"/>
<polygon fill="midnightblue" stroke="midnightblue" points="177.742,-254.919 169.17,-248.691 171.987,-258.904 177.742,-254.919"/>
</g>
<!-- Node18 -->
<g id="node17" class="node"><title>Node18</title>
<g id="a_node17"><a xlink:href="structant_1_1analysis_1_1utils_1_1scratch__collicott___cross_section_1_1_scalers__t.html" target="_top" xlink:title="ant::analysis::utils\l::scratch_collicott_CrossSection\l::Scalers_t">
<polygon fill="white" stroke="black" points="252,-64.5 252,-105.5 410,-105.5 410,-64.5 252,-64.5"/>
<text text-anchor="start" x="260" y="-93.5" font-family="Helvetica,sans-Serif" font-size="10.00">ant::analysis::utils</text>
<text text-anchor="start" x="260" y="-82.5" font-family="Helvetica,sans-Serif" font-size="10.00">::scratch_collicott_CrossSection</text>
<text text-anchor="middle" x="331" y="-71.5" font-family="Helvetica,sans-Serif" font-size="10.00">::Scalers_t</text>
</a>
</g>
</g>
<!-- Node12&#45;&gt;Node18 -->
<g id="edge20" class="edge"><title>Node12&#45;&gt;Node18</title>
<path fill="none" stroke="midnightblue" d="M200.617,-224.592C205.526,-221.609 210.171,-218.098 214,-214 244.483,-181.374 221.138,-153.268 252,-121 257.773,-114.964 264.753,-109.846 272.135,-105.534"/>
<polygon fill="midnightblue" stroke="midnightblue" points="198.784,-221.603 191.614,-229.402 202.083,-227.776 198.784,-221.603"/>
</g>
<!-- Node19 -->
<g id="node18" class="node"><title>Node19</title>
<g id="a_node18"><a xlink:href="structant_1_1analysis_1_1utils_1_1scratch__collicott___cross_section_1_1_yield__t.html" target="_top" xlink:title="ant::analysis::utils\l::scratch_collicott_CrossSection\l::Yield_t">
<polygon fill="white" stroke="black" points="252,-0.5 252,-41.5 410,-41.5 410,-0.5 252,-0.5"/>
<text text-anchor="start" x="260" y="-29.5" font-family="Helvetica,sans-Serif" font-size="10.00">ant::analysis::utils</text>
<text text-anchor="start" x="260" y="-18.5" font-family="Helvetica,sans-Serif" font-size="10.00">::scratch_collicott_CrossSection</text>
<text text-anchor="middle" x="331" y="-7.5" font-family="Helvetica,sans-Serif" font-size="10.00">::Yield_t</text>
</a>
</g>
</g>
<!-- Node12&#45;&gt;Node19 -->
<g id="edge22" class="edge"><title>Node12&#45;&gt;Node19</title>
<path fill="none" stroke="midnightblue" d="M202.184,-224.471C206.633,-221.545 210.734,-218.082 214,-214 236.696,-185.634 228.676,-82.8518 252,-55 256.363,-49.7903 261.676,-45.3551 267.458,-41.5842"/>
<polygon fill="midnightblue" stroke="midnightblue" points="200.323,-221.502 193.326,-229.457 203.757,-227.603 200.323,-221.502"/>
</g>
<!-- Node13 -->
<g id="node12" class="node"><title>Node13</title>
<g id="a_node12"><a xlink:title="STL class. ">
<polygon fill="white" stroke="#bfbfbf" points="301,-180.5 301,-199.5 361,-199.5 361,-180.5 301,-180.5"/>
<text text-anchor="middle" x="331" y="-187.5" font-family="Helvetica,sans-Serif" font-size="10.00">std::string</text>
</a>
</g>
</g>
<!-- Node13&#45;&gt;Node10 -->
<g id="edge11" class="edge"><title>Node13&#45;&gt;Node10</title>
<path fill="none" stroke="#9a32cd" stroke-dasharray="5,2" d="M371.363,-194.698C423.626,-200.936 516.545,-212.026 578.717,-219.447"/>
<polygon fill="#9a32cd" stroke="#9a32cd" points="371.508,-191.191 361.164,-193.481 370.679,-198.141 371.508,-191.191"/>
<text text-anchor="middle" x="487" y="-219" font-family="Helvetica,sans-Serif" font-size="10.00"> Decay</text>
</g>
<!-- Node13&#45;&gt;Node17 -->
<g id="edge23" class="edge"><title>Node13&#45;&gt;Node17</title>
<path fill="none" stroke="#9a32cd" stroke-dasharray="5,2" d="M371.365,-186.652C384.782,-183.865 399.125,-178.875 410,-170 424.168,-158.437 413.659,-144.346 428,-133 449.052,-116.345 511.833,-103.475 563.989,-95.2733"/>
<polygon fill="#9a32cd" stroke="#9a32cd" points="370.615,-183.23 361.357,-188.382 371.807,-190.127 370.615,-183.23"/>
<text text-anchor="middle" x="487" y="-136" font-family="Helvetica,sans-Serif" font-size="10.00"> event_decay</text>
</g>
<!-- Node14 -->
<g id="node13" class="node"><title>Node14</title>
<g id="a_node13"><a xlink:title="STL class. ">
<polygon fill="white" stroke="#bfbfbf" points="114.5,-175 114.5,-205 209.5,-205 209.5,-175 114.5,-175"/>
<text text-anchor="start" x="122.5" y="-193" font-family="Helvetica,sans-Serif" font-size="10.00">std::basic_string&lt;</text>
<text text-anchor="middle" x="162" y="-182" font-family="Helvetica,sans-Serif" font-size="10.00"> char &gt;</text>
</a>
</g>
</g>
<!-- Node14&#45;&gt;Node13 -->
<g id="edge12" class="edge"><title>Node14&#45;&gt;Node13</title>
<path fill="none" stroke="midnightblue" d="M219.721,-190C246.956,-190 278.442,-190 300.781,-190"/>
<polygon fill="midnightblue" stroke="midnightblue" points="219.519,-186.5 209.519,-190 219.519,-193.5 219.519,-186.5"/>
</g>
<!-- Node15&#45;&gt;Node10 -->
<g id="edge14" class="edge"><title>Node15&#45;&gt;Node10</title>
<path fill="none" stroke="#9a32cd" stroke-dasharray="5,2" d="M405.477,-237.564C446.782,-236.6 499.278,-235.114 546,-233 556.593,-232.521 567.838,-231.91 578.759,-231.262"/>
<polygon fill="#9a32cd" stroke="#9a32cd" points="405.145,-234.07 395.227,-237.798 405.304,-241.069 405.145,-234.07"/>
<text text-anchor="middle" x="487" y="-262" font-family="Helvetica,sans-Serif" font-size="10.00"> contamination</text>
<text text-anchor="middle" x="487" y="-251" font-family="Helvetica,sans-Serif" font-size="10.00">accepted</text>
<text text-anchor="middle" x="487" y="-240" font-family="Helvetica,sans-Serif" font-size="10.00">total</text>
</g>
<!-- Node16&#45;&gt;Node2 -->
<g id="edge16" class="edge"><title>Node16&#45;&gt;Node2</title>
<path fill="none" stroke="#9a32cd" stroke-dasharray="5,2" d="M539.363,-321.618C541.685,-319.825 543.913,-317.951 546,-316 556.806,-305.896 551.325,-295.629 564,-288 565.518,-287.086 752.789,-271.675 850.344,-263.7"/>
<polygon fill="#9a32cd" stroke="#9a32cd" points="537.324,-318.773 531.173,-327.4 541.361,-324.492 537.324,-318.773"/>
<text text-anchor="middle" x="643" y="-291" font-family="Helvetica,sans-Serif" font-size="10.00"> steps</text>
</g>
<!-- Node17&#45;&gt;Node2 -->
<g id="edge18" class="edge"><title>Node17&#45;&gt;Node2</title>
<path fill="none" stroke="#9a32cd" stroke-dasharray="5,2" d="M686.471,-104.464C725.797,-123.351 785.103,-154.072 832,-188 852.774,-203.029 873.885,-223.23 888.568,-238.242"/>
<polygon fill="#9a32cd" stroke="#9a32cd" points="687.948,-101.291 677.414,-100.154 684.94,-107.611 687.948,-101.291"/>
<text text-anchor="middle" x="786" y="-191" font-family="Helvetica,sans-Serif" font-size="10.00"> cross_section</text>
</g>
<!-- Node18&#45;&gt;Node17 -->
<g id="edge19" class="edge"><title>Node18&#45;&gt;Node17</title>
<path fill="none" stroke="#9a32cd" stroke-dasharray="5,2" d="M391.005,-61.3097C403.058,-57.4435 415.793,-54.0396 428,-52 479.727,-43.3575 494.273,-43.3575 546,-52 566.86,-55.4851 589.257,-62.9539 607.167,-69.9059"/>
<polygon fill="#9a32cd" stroke="#9a32cd" points="389.877,-57.9963 381.508,-64.4923 392.102,-64.6335 389.877,-57.9963"/>
<text text-anchor="middle" x="487" y="-55" font-family="Helvetica,sans-Serif" font-size="10.00"> scalers</text>
</g>
<!-- Node19&#45;&gt;Node17 -->
<g id="edge21" class="edge"><title>Node19&#45;&gt;Node17</title>
<path fill="none" stroke="#9a32cd" stroke-dasharray="5,2" d="M420.231,-16.0205C459.428,-16.1145 505.714,-19.4355 546,-31 574.305,-39.1253 603.296,-57.0163 621.905,-69.9832"/>
<polygon fill="#9a32cd" stroke="#9a32cd" points="420.148,-12.5207 410.164,-16.066 420.18,-19.5207 420.148,-12.5207"/>
<text text-anchor="middle" x="487" y="-34" font-family="Helvetica,sans-Serif" font-size="10.00"> yield</text>
</g>
</g>
</svg>
