<?xml version="1.0" encoding="UTF-8" standalone="no"?>
<!DOCTYPE svg PUBLIC "-//W3C//DTD SVG 1.1//EN"
 "http://www.w3.org/Graphics/SVG/1.1/DTD/svg11.dtd">
<!-- Generated by graphviz version 2.36.0 (20140111.2315)
 -->
<!-- Title: ant::Reconstruct Pages: 1 -->
<svg width="788pt" height="233pt"
 viewBox="0.00 0.00 788.00 233.00" xmlns="http://www.w3.org/2000/svg" xmlns:xlink="http://www.w3.org/1999/xlink">
<g id="graph0" class="graph" transform="scale(1 1) rotate(0) translate(4 229)">
<title>ant::Reconstruct</title>
<polygon fill="white" stroke="none" points="-4,4 -4,-229 784,-229 784,4 -4,4"/>
<!-- Node3 -->
<g id="node1" class="node"><title>Node3</title>
<polygon fill="#bfbfbf" stroke="black" points="690.5,-103.5 690.5,-122.5 779.5,-122.5 779.5,-103.5 690.5,-103.5"/>
<text text-anchor="middle" x="735" y="-110.5" font-family="Helvetica,sans-Serif" font-size="10.00">ant::Reconstruct</text>
</g>
<!-- Node4 -->
<g id="node2" class="node"><title>Node4</title>
<g id="a_node2"><a xlink:href="structant_1_1_reconstruct__traits.html" target="_top" xlink:title="ant::Reconstruct_traits">
<polygon fill="white" stroke="black" points="421,-205.5 421,-224.5 537,-224.5 537,-205.5 421,-205.5"/>
<text text-anchor="middle" x="479" y="-212.5" font-family="Helvetica,sans-Serif" font-size="10.00">ant::Reconstruct_traits</text>
</a>
</g>
</g>
<!-- Node4&#45;&gt;Node3 -->
<g id="edge1" class="edge"><title>Node4&#45;&gt;Node3</title>
<path fill="none" stroke="midnightblue" d="M547.392,-212.642C585.882,-208.858 633.908,-199.859 672,-179 697.096,-165.258 717.846,-137.697 727.744,-122.911"/>
<polygon fill="midnightblue" stroke="midnightblue" points="546.968,-209.166 537.316,-213.537 547.587,-216.139 546.968,-209.166"/>
</g>
<!-- Node5 -->
<g id="node3" class="node"><title>Node5</title>
<g id="a_node3"><a xlink:title="STL class. ">
<polygon fill="white" stroke="#bfbfbf" points="268.5,-155.5 268.5,-174.5 373.5,-174.5 373.5,-155.5 268.5,-155.5"/>
<text text-anchor="middle" x="321" y="-162.5" font-family="Helvetica,sans-Serif" font-size="10.00">std::unique_ptr&lt; T &gt;</text>
</a>
</g>
</g>
<!-- Node5&#45;&gt;Node3 -->
<g id="edge2" class="edge"><title>Node5&#45;&gt;Node3</title>
<path fill="none" stroke="#9a32cd" stroke-dasharray="5,2" d="M383.594,-160.961C453.77,-155.788 571.719,-145.353 672,-128 680.512,-126.527 689.592,-124.559 698.105,-122.535"/>
<polygon fill="#9a32cd" stroke="#9a32cd" points="383.315,-157.472 373.594,-161.687 383.821,-164.454 383.315,-157.472"/>
<text text-anchor="middle" x="479" y="-174" font-family="Helvetica,sans-Serif" font-size="10.00"> clustering</text>
<text text-anchor="middle" x="479" y="-163" font-family="Helvetica,sans-Serif" font-size="10.00">candidatebuilder</text>
</g>
<!-- Node6 -->
<g id="node4" class="node"><title>Node6</title>
<polygon fill="white" stroke="#bfbfbf" points="0.5,-140.5 0.5,-159.5 29.5,-159.5 29.5,-140.5 0.5,-140.5"/>
<text text-anchor="middle" x="15" y="-147.5" font-family="Helvetica,sans-Serif" font-size="10.00">T</text>
</g>
<!-- Node6&#45;&gt;Node5 -->
<g id="edge3" class="edge"><title>Node6&#45;&gt;Node5</title>
<path fill="none" stroke="#9a32cd" stroke-dasharray="5,2" d="M40.1269,-151.19C89.2632,-153.615 201.897,-159.173 268.328,-162.45"/>
<polygon fill="#9a32cd" stroke="#9a32cd" points="40.0126,-147.681 29.8522,-150.683 39.6675,-154.672 40.0126,-147.681"/>
<text text-anchor="middle" x="70" y="-156" font-family="Helvetica,sans-Serif" font-size="10.00"> ptr</text>
</g>
<!-- Node9 -->
<g id="node7" class="node"><title>Node9</title>
<g id="a_node7"><a xlink:title="STL class. ">
<polygon fill="white" stroke="#bfbfbf" points="129,-92.5 129,-133.5 231,-133.5 231,-92.5 129,-92.5"/>
<text text-anchor="start" x="137" y="-121.5" font-family="Helvetica,sans-Serif" font-size="10.00">std::map&lt; Detector</text>
<text text-anchor="start" x="137" y="-110.5" font-family="Helvetica,sans-Serif" font-size="10.00">_t::Type_t, detector</text>
<text text-anchor="middle" x="180" y="-99.5" font-family="Helvetica,sans-Serif" font-size="10.00">_ptr_t &gt;</text>
</a>
</g>
</g>
<!-- Node6&#45;&gt;Node9 -->
<g id="edge8" class="edge"><title>Node6&#45;&gt;Node9</title>
<path fill="none" stroke="#9a32cd" stroke-dasharray="5,2" d="M38.5982,-135.962C41.6791,-134.446 44.8624,-133.068 48,-132 73.8876,-123.185 104.014,-118.459 128.845,-115.926"/>
<polygon fill="#9a32cd" stroke="#9a32cd" points="36.9111,-132.895 29.8104,-140.758 40.2649,-139.039 36.9111,-132.895"/>
<text text-anchor="middle" x="70" y="-135" font-family="Helvetica,sans-Serif" font-size="10.00"> elements</text>
</g>
<!-- Node7 -->
<g id="node5" class="node"><title>Node7</title>
<g id="a_node5"><a xlink:href="structant_1_1std__ext_1_1mapped__vectors.html" target="_top" xlink:title="The mapped_vectors struct provides fast access to a collection of vectors. ">
<polygon fill="white" stroke="black" points="419,-49 419,-79 539,-79 539,-49 419,-49"/>
<text text-anchor="start" x="427" y="-67" font-family="Helvetica,sans-Serif" font-size="10.00">ant::std_ext::mapped</text>
<text text-anchor="middle" x="479" y="-56" font-family="Helvetica,sans-Serif" font-size="10.00">_vectors&lt; Key, Value &gt;</text>
</a>
</g>
</g>
<!-- Node7&#45;&gt;Node3 -->
<g id="edge4" class="edge"><title>Node7&#45;&gt;Node3</title>
<path fill="none" stroke="#9a32cd" stroke-dasharray="5,2" d="M549.084,-75.1667C585.715,-81.3566 631.416,-89.5058 672,-98 679.804,-99.6335 688.123,-101.535 696.05,-103.424"/>
<polygon fill="#9a32cd" stroke="#9a32cd" points="549.446,-71.6785 539.004,-73.4741 548.286,-78.5819 549.446,-71.6785"/>
<text text-anchor="middle" x="628" y="-101" font-family="Helvetica,sans-Serif" font-size="10.00"> sorted_readhits</text>
</g>
<!-- Node8 -->
<g id="node6" class="node"><title>Node8</title>
<g id="a_node6"><a xlink:href="structant_1_1_reconstruct_1_1sorted__detectors__t.html" target="_top" xlink:title="ant::Reconstruct::sorted\l_detectors_t">
<polygon fill="white" stroke="black" points="418,-98 418,-128 540,-128 540,-98 418,-98"/>
<text text-anchor="start" x="426" y="-116" font-family="Helvetica,sans-Serif" font-size="10.00">ant::Reconstruct::sorted</text>
<text text-anchor="middle" x="479" y="-105" font-family="Helvetica,sans-Serif" font-size="10.00">_detectors_t</text>
</a>
</g>
</g>
<!-- Node8&#45;&gt;Node3 -->
<g id="edge5" class="edge"><title>Node8&#45;&gt;Node3</title>
<path fill="none" stroke="#9a32cd" stroke-dasharray="5,2" d="M550.424,-113C595.176,-113 651.708,-113 690.133,-113"/>
<polygon fill="#9a32cd" stroke="#9a32cd" points="550.194,-109.5 540.194,-113 550.194,-116.5 550.194,-109.5"/>
<text text-anchor="middle" x="628" y="-116" font-family="Helvetica,sans-Serif" font-size="10.00"> sorted_detectors</text>
</g>
<!-- Node9&#45;&gt;Node8 -->
<g id="edge6" class="edge"><title>Node9&#45;&gt;Node8</title>
<path fill="none" stroke="midnightblue" d="M241.347,-113C292.782,-113 366.33,-113 417.739,-113"/>
<polygon fill="midnightblue" stroke="midnightblue" points="241.046,-109.5 231.046,-113 241.046,-116.5 241.046,-109.5"/>
</g>
<!-- Node10 -->
<g id="node8" class="node"><title>Node10</title>
<polygon fill="white" stroke="#bfbfbf" points="0.5,-87.5 0.5,-106.5 29.5,-106.5 29.5,-87.5 0.5,-87.5"/>
<text text-anchor="middle" x="15" y="-94.5" font-family="Helvetica,sans-Serif" font-size="10.00">K</text>
</g>
<!-- Node10&#45;&gt;Node9 -->
<g id="edge7" class="edge"><title>Node10&#45;&gt;Node9</title>
<path fill="none" stroke="#9a32cd" stroke-dasharray="5,2" d="M40.187,-96.349C55.145,-96.1865 74.7232,-96.407 92,-98 103.905,-99.0977 116.631,-100.919 128.574,-102.921"/>
<polygon fill="#9a32cd" stroke="#9a32cd" points="39.7009,-92.8569 29.7637,-96.5314 39.8235,-99.8558 39.7009,-92.8569"/>
<text text-anchor="middle" x="70" y="-101" font-family="Helvetica,sans-Serif" font-size="10.00"> keys</text>
</g>
<!-- Node11 -->
<g id="node9" class="node"><title>Node11</title>
<polygon fill="white" stroke="#bfbfbf" points="392.5,-0 392.5,-30 565.5,-30 565.5,-0 392.5,-0"/>
<text text-anchor="start" x="400.5" y="-18" font-family="Helvetica,sans-Serif" font-size="10.00">std::unique_ptr&lt; ant</text>
<text text-anchor="middle" x="479" y="-7" font-family="Helvetica,sans-Serif" font-size="10.00">::reconstruct::UpdateableManager &gt;</text>
</g>
<!-- Node11&#45;&gt;Node3 -->
<g id="edge9" class="edge"><title>Node11&#45;&gt;Node3</title>
<path fill="none" stroke="#9a32cd" stroke-dasharray="5,2" d="M571.802,-32.4689C604.402,-40.5719 640.74,-51.8457 672,-67 691.779,-76.5887 711.661,-92.7703 723.397,-103.162"/>
<polygon fill="#9a32cd" stroke="#9a32cd" points="572.357,-29.0024 561.814,-30.0552 570.712,-35.8065 572.357,-29.0024"/>
<text text-anchor="middle" x="628" y="-70" font-family="Helvetica,sans-Serif" font-size="10.00"> updateablemanager</text>
</g>
<!-- Node12 -->
<g id="node10" class="node"><title>Node12</title>
<g id="a_node10"><a xlink:href="classant_1_1reconstruct_1_1_updateable_manager.html" target="_top" xlink:title="ant::reconstruct::Updateable\lManager">
<polygon fill="white" stroke="black" points="110,-0 110,-30 250,-30 250,-0 110,-0"/>
<text text-anchor="start" x="118" y="-18" font-family="Helvetica,sans-Serif" font-size="10.00">ant::reconstruct::Updateable</text>
<text text-anchor="middle" x="180" y="-7" font-family="Helvetica,sans-Serif" font-size="10.00">Manager</text>
</a>
</g>
</g>
<!-- Node12&#45;&gt;Node11 -->
<g id="edge10" class="edge"><title>Node12&#45;&gt;Node11</title>
<path fill="none" stroke="#9a32cd" stroke-dasharray="5,2" d="M260.415,-15C301.159,-15 350.833,-15 392.426,-15"/>
<polygon fill="#9a32cd" stroke="#9a32cd" points="260.259,-11.5001 250.258,-15 260.258,-18.5001 260.259,-11.5001"/>
<text text-anchor="middle" x="321" y="-18" font-family="Helvetica,sans-Serif" font-size="10.00"> ptr</text>
</g>
</g>
</svg>
