<?xml version="1.0" encoding="UTF-8" standalone="no"?>
<!DOCTYPE svg PUBLIC "-//W3C//DTD SVG 1.1//EN"
 "http://www.w3.org/Graphics/SVG/1.1/DTD/svg11.dtd">
<!-- Generated by graphviz version 2.36.0 (20140111.2315)
 -->
<!-- Title: ant::analysis::physics::Etap2gMC Pages: 1 -->
<svg width="251pt" height="108pt"
 viewBox="0.00 0.00 251.00 108.00" xmlns="http://www.w3.org/2000/svg" xmlns:xlink="http://www.w3.org/1999/xlink">
<g id="graph0" class="graph" transform="scale(1 1) rotate(0) translate(4 104)">
<title>ant::analysis::physics::Etap2gMC</title>
<polygon fill="white" stroke="none" points="-4,4 -4,-104 247,-104 247,4 -4,4"/>
<!-- Node0 -->
<g id="node1" class="node"><title>Node0</title>
<polygon fill="#bfbfbf" stroke="black" points="65,-1 65,-31 177,-31 177,-1 65,-1"/>
<text text-anchor="start" x="73" y="-19" font-family="Helvetica,sans-Serif" font-size="10.00">ant::analysis::physics</text>
<text text-anchor="middle" x="121" y="-8" font-family="Helvetica,sans-Serif" font-size="10.00">::Etap2gMC</text>
</g>
<!-- Node1 -->
<g id="node2" class="node"><title>Node1</title>
<g id="a_node2"><a xlink:href="classant_1_1analysis_1_1_physics.html" target="_top" xlink:title="ant::analysis::Physics">
<polygon fill="white" stroke="black" points="-0.5,-74.5 -0.5,-93.5 112.5,-93.5 112.5,-74.5 -0.5,-74.5"/>
<text text-anchor="middle" x="56" y="-81.5" font-family="Helvetica,sans-Serif" font-size="10.00">ant::analysis::Physics</text>
</a>
</g>
</g>
<!-- Node1&#45;&gt;Node0 -->
<g id="edge1" class="edge"><title>Node1&#45;&gt;Node0</title>
<path fill="none" stroke="midnightblue" d="M71.6408,-67.1185C82.4239,-56.1696 96.6311,-41.7438 107.033,-31.1815"/>
<polygon fill="midnightblue" stroke="midnightblue" points="69.0208,-64.7909 64.4976,-74.3717 74.0082,-69.7027 69.0208,-64.7909"/>
</g>
<!-- Node2 -->
<g id="node3" class="node"><title>Node2</title>
<g id="a_node3"><a xlink:href="structant_1_1analysis_1_1physics_1_1_etap_dalitz_tools.html" target="_top" xlink:title="ant::analysis::physics\l::EtapDalitzTools">
<polygon fill="white" stroke="black" points="131,-69 131,-99 243,-99 243,-69 131,-69"/>
<text text-anchor="start" x="139" y="-87" font-family="Helvetica,sans-Serif" font-size="10.00">ant::analysis::physics</text>
<text text-anchor="middle" x="187" y="-76" font-family="Helvetica,sans-Serif" font-size="10.00">::EtapDalitzTools</text>
</a>
</g>
</g>
<!-- Node2&#45;&gt;Node0 -->
<g id="edge2" class="edge"><title>Node2&#45;&gt;Node0</title>
<path fill="none" stroke="midnightblue" d="M165.485,-61.4855C155.585,-51.5852 144.109,-40.1092 135.293,-31.2931"/>
<polygon fill="midnightblue" stroke="midnightblue" points="163.133,-64.0828 172.679,-68.679 168.083,-59.133 163.133,-64.0828"/>
</g>
</g>
</svg>
