<?xml version="1.0" encoding="UTF-8" standalone="no"?>
<!DOCTYPE svg PUBLIC "-//W3C//DTD SVG 1.1//EN"
 "http://www.w3.org/Graphics/SVG/1.1/DTD/svg11.dtd">
<!-- Generated by graphviz version 2.36.0 (20140111.2315)
 -->
<!-- Title: ant::analysis::physics::PID_Energy Pages: 1 -->
<svg width="982pt" height="321pt"
 viewBox="0.00 0.00 982.00 321.00" xmlns="http://www.w3.org/2000/svg" xmlns:xlink="http://www.w3.org/1999/xlink">
<g id="graph0" class="graph" transform="scale(1 1) rotate(0) translate(4 317)">
<title>ant::analysis::physics::PID_Energy</title>
<polygon fill="white" stroke="none" points="-4,4 -4,-317 978,-317 978,4 -4,4"/>
<!-- Node2 -->
<g id="node1" class="node"><title>Node2</title>
<polygon fill="#bfbfbf" stroke="black" points="862,-142 862,-172 974,-172 974,-142 862,-142"/>
<text text-anchor="start" x="870" y="-160" font-family="Helvetica,sans-Serif" font-size="10.00">ant::analysis::physics</text>
<text text-anchor="middle" x="918" y="-149" font-family="Helvetica,sans-Serif" font-size="10.00">::PID_Energy</text>
</g>
<!-- Node3 -->
<g id="node2" class="node"><title>Node3</title>
<g id="a_node2"><a xlink:href="classant_1_1analysis_1_1_physics.html" target="_top" xlink:title="ant::analysis::Physics">
<polygon fill="white" stroke="black" points="598.5,-282.5 598.5,-301.5 711.5,-301.5 711.5,-282.5 598.5,-282.5"/>
<text text-anchor="middle" x="655" y="-289.5" font-family="Helvetica,sans-Serif" font-size="10.00">ant::analysis::Physics</text>
</a>
</g>
</g>
<!-- Node3&#45;&gt;Node2 -->
<g id="edge1" class="edge"><title>Node3&#45;&gt;Node2</title>
<path fill="none" stroke="midnightblue" d="M721.919,-296.272C760.205,-295.723 807.859,-289.585 844,-267 880.152,-244.407 902.307,-196.576 911.72,-172.108"/>
<polygon fill="midnightblue" stroke="midnightblue" points="721.887,-292.772 711.894,-296.293 721.902,-299.772 721.887,-292.772"/>
</g>
<!-- Node4 -->
<g id="node3" class="node"><title>Node4</title>
<g id="a_node3"><a xlink:href="classant_1_1analysis_1_1_histogram_factory.html" target="_top" xlink:title="ant::analysis::Histogram\lFactory">
<polygon fill="white" stroke="black" points="347.5,-277 347.5,-307 470.5,-307 470.5,-277 347.5,-277"/>
<text text-anchor="start" x="355.5" y="-295" font-family="Helvetica,sans-Serif" font-size="10.00">ant::analysis::Histogram</text>
<text text-anchor="middle" x="409" y="-284" font-family="Helvetica,sans-Serif" font-size="10.00">Factory</text>
</a>
</g>
</g>
<!-- Node4&#45;&gt;Node3 -->
<g id="edge2" class="edge"><title>Node4&#45;&gt;Node3</title>
<path fill="none" stroke="#9a32cd" stroke-dasharray="5,2" d="M480.944,-292C518.306,-292 563.463,-292 598.279,-292"/>
<polygon fill="#9a32cd" stroke="#9a32cd" points="480.628,-288.5 470.628,-292 480.628,-295.5 480.628,-288.5"/>
<text text-anchor="middle" x="520" y="-295" font-family="Helvetica,sans-Serif" font-size="10.00"> HistFac</text>
</g>
<!-- Node5 -->
<g id="node4" class="node"><title>Node5</title>
<polygon fill="white" stroke="#bfbfbf" points="591,-186 591,-216 719,-216 719,-186 591,-186"/>
<text text-anchor="start" x="599" y="-204" font-family="Helvetica,sans-Serif" font-size="10.00">std::vector&lt; ant::analysis</text>
<text text-anchor="middle" x="655" y="-193" font-family="Helvetica,sans-Serif" font-size="10.00">::utils::KinFitter &gt;</text>
</g>
<!-- Node5&#45;&gt;Node2 -->
<g id="edge3" class="edge"><title>Node5&#45;&gt;Node2</title>
<path fill="none" stroke="#9a32cd" stroke-dasharray="5,2" d="M729.31,-190.554C764.127,-185.372 806.281,-178.78 844,-172 849.73,-170.97 855.702,-169.839 861.653,-168.673"/>
<polygon fill="#9a32cd" stroke="#9a32cd" points="728.606,-187.12 719.226,-192.046 729.63,-194.045 728.606,-187.12"/>
<text text-anchor="middle" x="806" y="-188" font-family="Helvetica,sans-Serif" font-size="10.00"> kinfits</text>
</g>
<!-- Node6 -->
<g id="node5" class="node"><title>Node6</title>
<g id="a_node5"><a xlink:href="classant_1_1analysis_1_1utils_1_1_kin_fitter.html" target="_top" xlink:title="ant::analysis::utils\l::KinFitter">
<polygon fill="white" stroke="black" points="361,-217 361,-247 457,-247 457,-217 361,-217"/>
<text text-anchor="start" x="369" y="-235" font-family="Helvetica,sans-Serif" font-size="10.00">ant::analysis::utils</text>
<text text-anchor="middle" x="409" y="-224" font-family="Helvetica,sans-Serif" font-size="10.00">::KinFitter</text>
</a>
</g>
</g>
<!-- Node6&#45;&gt;Node2 -->
<g id="edge10" class="edge"><title>Node6&#45;&gt;Node2</title>
<path fill="none" stroke="#9a32cd" stroke-dasharray="5,2" d="M467.153,-235.436C535.041,-238.456 651.5,-240.289 750,-225 792.719,-218.369 804.118,-216.68 844,-200 862.048,-192.452 881.046,-181.14 895.137,-172.013"/>
<polygon fill="#9a32cd" stroke="#9a32cd" points="467.244,-231.936 457.091,-234.963 466.916,-238.929 467.244,-231.936"/>
<text text-anchor="middle" x="655" y="-240" font-family="Helvetica,sans-Serif" font-size="10.00"> kinfit</text>
</g>
<!-- Node6&#45;&gt;Node5 -->
<g id="edge4" class="edge"><title>Node6&#45;&gt;Node5</title>
<path fill="none" stroke="#9a32cd" stroke-dasharray="5,2" d="M467.199,-224.733C504.319,-220.017 552.715,-213.868 590.946,-209.011"/>
<polygon fill="#9a32cd" stroke="#9a32cd" points="466.525,-221.29 457.046,-226.023 467.407,-228.235 466.525,-221.29"/>
<text text-anchor="middle" x="520" y="-223" font-family="Helvetica,sans-Serif" font-size="10.00"> elements</text>
</g>
<!-- Node7 -->
<g id="node6" class="node"><title>Node7</title>
<g id="a_node6"><a xlink:href="classant_1_1analysis_1_1utils_1_1_fitter.html" target="_top" xlink:title="ant::analysis::utils\l::Fitter">
<polygon fill="white" stroke="black" points="151,-283 151,-313 247,-313 247,-283 151,-283"/>
<text text-anchor="start" x="159" y="-301" font-family="Helvetica,sans-Serif" font-size="10.00">ant::analysis::utils</text>
<text text-anchor="middle" x="199" y="-290" font-family="Helvetica,sans-Serif" font-size="10.00">::Fitter</text>
</a>
</g>
</g>
<!-- Node7&#45;&gt;Node6 -->
<g id="edge5" class="edge"><title>Node7&#45;&gt;Node6</title>
<path fill="none" stroke="midnightblue" d="M257.062,-279.894C289.714,-269.533 330.178,-256.693 360.988,-246.917"/>
<polygon fill="midnightblue" stroke="midnightblue" points="255.671,-276.663 247.198,-283.024 257.789,-283.335 255.671,-276.663"/>
</g>
<!-- Node8 -->
<g id="node7" class="node"><title>Node8</title>
<g id="a_node7"><a xlink:href="structant_1_1analysis_1_1utils_1_1_kin_fitter_1_1_target__t.html" target="_top" xlink:title="ant::analysis::utils\l::KinFitter::Target_t">
<polygon fill="white" stroke="black" points="148.5,-234 148.5,-264 249.5,-264 249.5,-234 148.5,-234"/>
<text text-anchor="start" x="156.5" y="-252" font-family="Helvetica,sans-Serif" font-size="10.00">ant::analysis::utils</text>
<text text-anchor="middle" x="199" y="-241" font-family="Helvetica,sans-Serif" font-size="10.00">::KinFitter::Target_t</text>
</a>
</g>
</g>
<!-- Node8&#45;&gt;Node6 -->
<g id="edge6" class="edge"><title>Node8&#45;&gt;Node6</title>
<path fill="none" stroke="#9a32cd" stroke-dasharray="5,2" d="M259.734,-244.118C291.892,-241.49 330.993,-238.294 360.966,-235.844"/>
<polygon fill="#9a32cd" stroke="#9a32cd" points="259.239,-240.647 249.557,-244.95 259.809,-247.623 259.239,-240.647"/>
<text text-anchor="middle" x="300" y="-245" font-family="Helvetica,sans-Serif" font-size="10.00"> Target</text>
</g>
<!-- Node9 -->
<g id="node8" class="node"><title>Node9</title>
<g id="a_node8"><a xlink:href="structant_1_1analysis_1_1utils_1_1_kin_fitter_1_1_beam_e__t.html" target="_top" xlink:title="ant::analysis::utils\l::KinFitter::BeamE_t">
<polygon fill="white" stroke="black" points="146,-185 146,-215 252,-215 252,-185 146,-185"/>
<text text-anchor="start" x="154" y="-203" font-family="Helvetica,sans-Serif" font-size="10.00">ant::analysis::utils</text>
<text text-anchor="middle" x="199" y="-192" font-family="Helvetica,sans-Serif" font-size="10.00">::KinFitter::BeamE_t</text>
</a>
</g>
</g>
<!-- Node9&#45;&gt;Node6 -->
<g id="edge7" class="edge"><title>Node9&#45;&gt;Node6</title>
<path fill="none" stroke="#9a32cd" stroke-dasharray="5,2" d="M262.238,-209.575C293.824,-214.434 331.572,-220.242 360.739,-224.729"/>
<polygon fill="#9a32cd" stroke="#9a32cd" points="262.635,-206.095 252.219,-208.034 261.57,-213.014 262.635,-206.095"/>
<text text-anchor="middle" x="300" y="-220" font-family="Helvetica,sans-Serif" font-size="10.00"> BeamE</text>
</g>
<!-- Node10 -->
<g id="node9" class="node"><title>Node10</title>
<polygon fill="white" stroke="#bfbfbf" points="0,-190.5 0,-209.5 56,-209.5 56,-190.5 0,-190.5"/>
<text text-anchor="middle" x="28" y="-197.5" font-family="Helvetica,sans-Serif" font-size="10.00">V_S_P_t</text>
</g>
<!-- Node10&#45;&gt;Node9 -->
<g id="edge8" class="edge"><title>Node10&#45;&gt;Node9</title>
<path fill="none" stroke="midnightblue" d="M66.3244,-200C89.6335,-200 119.99,-200 145.681,-200"/>
<polygon fill="midnightblue" stroke="midnightblue" points="66.1528,-196.5 56.1528,-200 66.1527,-203.5 66.1528,-196.5"/>
</g>
<!-- Node11 -->
<g id="node10" class="node"><title>Node11</title>
<polygon fill="white" stroke="#bfbfbf" points="136.5,-146.5 136.5,-165.5 261.5,-165.5 261.5,-146.5 136.5,-146.5"/>
<text text-anchor="middle" x="199" y="-153.5" font-family="Helvetica,sans-Serif" font-size="10.00">std::vector&lt; FitParticle &gt;</text>
</g>
<!-- Node11&#45;&gt;Node6 -->
<g id="edge9" class="edge"><title>Node11&#45;&gt;Node6</title>
<path fill="none" stroke="#9a32cd" stroke-dasharray="5,2" d="M242.228,-168.477C248.871,-170.573 255.642,-172.788 262,-175 299.779,-188.143 342.311,-204.986 371.681,-216.947"/>
<polygon fill="#9a32cd" stroke="#9a32cd" points="243.236,-165.125 232.648,-165.505 241.162,-171.811 243.236,-165.125"/>
<text text-anchor="middle" x="300" y="-199" font-family="Helvetica,sans-Serif" font-size="10.00"> Photons</text>
</g>
<!-- Node12 -->
<g id="node11" class="node"><title>Node12</title>
<polygon fill="white" stroke="#bfbfbf" points="599.5,-147.5 599.5,-166.5 710.5,-166.5 710.5,-147.5 599.5,-147.5"/>
<text text-anchor="middle" x="655" y="-154.5" font-family="Helvetica,sans-Serif" font-size="10.00">std::vector&lt; TH2D *&gt;</text>
</g>
<!-- Node12&#45;&gt;Node2 -->
<g id="edge11" class="edge"><title>Node12&#45;&gt;Node2</title>
<path fill="none" stroke="#9a32cd" stroke-dasharray="5,2" d="M720.88,-157C764.26,-157 820.715,-157 861.909,-157"/>
<polygon fill="#9a32cd" stroke="#9a32cd" points="720.714,-153.5 710.714,-157 720.714,-160.5 720.714,-153.5"/>
<text text-anchor="middle" x="806" y="-160" font-family="Helvetica,sans-Serif" font-size="10.00"> dEvE_combined</text>
</g>
<!-- Node13 -->
<g id="node12" class="node"><title>Node13</title>
<g id="a_node12"><a xlink:href="classant_1_1analysis_1_1utils_1_1_trigger_simulation.html" target="_top" xlink:title="ant::analysis::utils\l::TriggerSimulation">
<polygon fill="white" stroke="black" points="606,-98 606,-128 704,-128 704,-98 606,-98"/>
<text text-anchor="start" x="614" y="-116" font-family="Helvetica,sans-Serif" font-size="10.00">ant::analysis::utils</text>
<text text-anchor="middle" x="655" y="-105" font-family="Helvetica,sans-Serif" font-size="10.00">::TriggerSimulation</text>
</a>
</g>
</g>
<!-- Node13&#45;&gt;Node2 -->
<g id="edge12" class="edge"><title>Node13&#45;&gt;Node2</title>
<path fill="none" stroke="#9a32cd" stroke-dasharray="5,2" d="M714.176,-121.214C751.38,-126.654 800.622,-134.203 844,-142 849.73,-143.03 855.702,-144.161 861.653,-145.327"/>
<polygon fill="#9a32cd" stroke="#9a32cd" points="714.417,-117.712 704.017,-119.737 713.409,-124.639 714.417,-117.712"/>
<text text-anchor="middle" x="806" y="-145" font-family="Helvetica,sans-Serif" font-size="10.00"> triggersimu</text>
</g>
<!-- Node14 -->
<g id="node13" class="node"><title>Node14</title>
<g id="a_node13"><a xlink:href="classant_1_1analysis_1_1_prompt_random_1_1_switch.html" target="_top" xlink:title="ant::analysis::PromptRandom\l::Switch">
<polygon fill="white" stroke="black" points="582,-49 582,-79 728,-79 728,-49 582,-49"/>
<text text-anchor="start" x="590" y="-67" font-family="Helvetica,sans-Serif" font-size="10.00">ant::analysis::PromptRandom</text>
<text text-anchor="middle" x="655" y="-56" font-family="Helvetica,sans-Serif" font-size="10.00">::Switch</text>
</a>
</g>
</g>
<!-- Node14&#45;&gt;Node2 -->
<g id="edge13" class="edge"><title>Node14&#45;&gt;Node2</title>
<path fill="none" stroke="#9a32cd" stroke-dasharray="5,2" d="M737.846,-81.0652C771.436,-89.3781 810.276,-100.706 844,-115 861.501,-122.418 880.052,-133.133 894.074,-141.883"/>
<polygon fill="#9a32cd" stroke="#9a32cd" points="738.606,-77.648 728.063,-78.6916 736.955,-84.4507 738.606,-77.648"/>
<text text-anchor="middle" x="806" y="-118" font-family="Helvetica,sans-Serif" font-size="10.00"> promptrandom</text>
</g>
<!-- Node15 -->
<g id="node14" class="node"><title>Node15</title>
<g id="a_node14"><a xlink:href="classant_1_1_piecewise_interval.html" target="_top" xlink:title="ant::PiecewiseInterval\l\&lt; double \&gt;">
<polygon fill="white" stroke="black" points="352.5,-49 352.5,-79 465.5,-79 465.5,-49 352.5,-49"/>
<text text-anchor="start" x="360.5" y="-67" font-family="Helvetica,sans-Serif" font-size="10.00">ant::PiecewiseInterval</text>
<text text-anchor="middle" x="409" y="-56" font-family="Helvetica,sans-Serif" font-size="10.00">&lt; double &gt;</text>
</a>
</g>
</g>
<!-- Node15&#45;&gt;Node14 -->
<g id="edge14" class="edge"><title>Node15&#45;&gt;Node14</title>
<path fill="none" stroke="#9a32cd" stroke-dasharray="5,2" d="M476.042,-64C508.773,-64 548.364,-64 581.885,-64"/>
<polygon fill="#9a32cd" stroke="#9a32cd" points="475.673,-60.5001 465.673,-64 475.673,-67.5001 475.673,-60.5001"/>
<text text-anchor="middle" x="520" y="-78" font-family="Helvetica,sans-Serif" font-size="10.00"> promptw</text>
<text text-anchor="middle" x="520" y="-67" font-family="Helvetica,sans-Serif" font-size="10.00">randomw</text>
</g>
<!-- Node16 -->
<g id="node15" class="node"><title>Node16</title>
<g id="a_node15"><a xlink:title="STL class. ">
<polygon fill="white" stroke="#bfbfbf" points="147,-49 147,-79 251,-79 251,-49 147,-49"/>
<text text-anchor="start" x="155" y="-67" font-family="Helvetica,sans-Serif" font-size="10.00">std::vector&lt; interval</text>
<text text-anchor="middle" x="199" y="-56" font-family="Helvetica,sans-Serif" font-size="10.00">&lt; double &gt; &gt;</text>
</a>
</g>
</g>
<!-- Node16&#45;&gt;Node15 -->
<g id="edge15" class="edge"><title>Node16&#45;&gt;Node15</title>
<path fill="none" stroke="midnightblue" d="M261.493,-64C290.269,-64 324.289,-64 352.3,-64"/>
<polygon fill="midnightblue" stroke="midnightblue" points="261.149,-60.5001 251.149,-64 261.149,-67.5001 261.149,-60.5001"/>
</g>
<!-- Node17 -->
<g id="node16" class="node"><title>Node17</title>
<polygon fill="white" stroke="#bfbfbf" points="13.5,-54.5 13.5,-73.5 42.5,-73.5 42.5,-54.5 13.5,-54.5"/>
<text text-anchor="middle" x="28" y="-61.5" font-family="Helvetica,sans-Serif" font-size="10.00">T</text>
</g>
<!-- Node17&#45;&gt;Node16 -->
<g id="edge16" class="edge"><title>Node17&#45;&gt;Node16</title>
<path fill="none" stroke="#9a32cd" stroke-dasharray="5,2" d="M52.6345,-64C76.961,-64 115.627,-64 146.967,-64"/>
<polygon fill="#9a32cd" stroke="#9a32cd" points="52.5443,-60.5001 42.5443,-64 52.5443,-67.5001 52.5443,-60.5001"/>
<text text-anchor="middle" x="96" y="-67" font-family="Helvetica,sans-Serif" font-size="10.00"> elements</text>
</g>
<!-- Node18 -->
<g id="node17" class="node"><title>Node18</title>
<polygon fill="white" stroke="#bfbfbf" points="560,-0 560,-30 750,-30 750,-0 560,-0"/>
<text text-anchor="start" x="568" y="-18" font-family="Helvetica,sans-Serif" font-size="10.00">std::vector&lt; ant::analysis</text>
<text text-anchor="middle" x="655" y="-7" font-family="Helvetica,sans-Serif" font-size="10.00">::physics::PID_Energy::PerChannel_t &gt;</text>
</g>
<!-- Node18&#45;&gt;Node2 -->
<g id="edge17" class="edge"><title>Node18&#45;&gt;Node2</title>
<path fill="none" stroke="#9a32cd" stroke-dasharray="5,2" d="M747.946,-32.7072C780.229,-41.8303 815.517,-55.3219 844,-75 870.659,-93.4177 894.103,-123.535 906.846,-141.691"/>
<polygon fill="#9a32cd" stroke="#9a32cd" points="748.602,-29.2587 738.034,-30.0142 746.766,-36.0138 748.602,-29.2587"/>
<text text-anchor="middle" x="806" y="-78" font-family="Helvetica,sans-Serif" font-size="10.00"> h_perChannel</text>
</g>
<!-- Node19 -->
<g id="node18" class="node"><title>Node19</title>
<g id="a_node18"><a xlink:href="structant_1_1analysis_1_1physics_1_1_p_i_d___energy_1_1_per_channel__t.html" target="_top" xlink:title="ant::analysis::physics\l::PID_Energy::PerChannel_t">
<polygon fill="white" stroke="black" points="338.5,-0 338.5,-30 479.5,-30 479.5,-0 338.5,-0"/>
<text text-anchor="start" x="346.5" y="-18" font-family="Helvetica,sans-Serif" font-size="10.00">ant::analysis::physics</text>
<text text-anchor="middle" x="409" y="-7" font-family="Helvetica,sans-Serif" font-size="10.00">::PID_Energy::PerChannel_t</text>
</a>
</g>
</g>
<!-- Node19&#45;&gt;Node18 -->
<g id="edge18" class="edge"><title>Node19&#45;&gt;Node18</title>
<path fill="none" stroke="#9a32cd" stroke-dasharray="5,2" d="M489.706,-15C512.073,-15 536.605,-15 559.733,-15"/>
<polygon fill="#9a32cd" stroke="#9a32cd" points="489.594,-11.5001 479.594,-15 489.594,-18.5001 489.594,-11.5001"/>
<text text-anchor="middle" x="520" y="-18" font-family="Helvetica,sans-Serif" font-size="10.00"> elements</text>
</g>
</g>
</svg>
