<?xml version="1.0" encoding="UTF-8" standalone="no"?>
<!DOCTYPE svg PUBLIC "-//W3C//DTD SVG 1.1//EN"
 "http://www.w3.org/Graphics/SVG/1.1/DTD/svg11.dtd">
<!-- Generated by graphviz version 2.36.0 (20140111.2315)
 -->
<!-- Title: ant::UnpackerAcquFileFormat Pages: 1 -->
<svg width="231pt" height="164pt"
 viewBox="0.00 0.00 231.00 164.00" xmlns="http://www.w3.org/2000/svg" xmlns:xlink="http://www.w3.org/1999/xlink">
<g id="graph0" class="graph" transform="scale(1 1) rotate(0) translate(4 160)">
<title>ant::UnpackerAcquFileFormat</title>
<polygon fill="white" stroke="none" points="-4,4 -4,-160 227,-160 227,4 -4,4"/>
<!-- Node0 -->
<g id="node1" class="node"><title>Node0</title>
<polygon fill="#bfbfbf" stroke="black" points="37.5,-136.5 37.5,-155.5 184.5,-155.5 184.5,-136.5 37.5,-136.5"/>
<text text-anchor="middle" x="111" y="-143.5" font-family="Helvetica,sans-Serif" font-size="10.00">ant::UnpackerAcquFileFormat</text>
</g>
<!-- Node1 -->
<g id="node2" class="node"><title>Node1</title>
<g id="a_node2"><a xlink:href="classant_1_1unpacker_1_1acqu_1_1_file_format_base.html" target="_top" xlink:title="ant::unpacker::acqu\l::FileFormatBase">
<polygon fill="white" stroke="black" points="59.5,-69 59.5,-99 162.5,-99 162.5,-69 59.5,-69"/>
<text text-anchor="start" x="67.5" y="-87" font-family="Helvetica,sans-Serif" font-size="10.00">ant::unpacker::acqu</text>
<text text-anchor="middle" x="111" y="-76" font-family="Helvetica,sans-Serif" font-size="10.00">::FileFormatBase</text>
</a>
</g>
</g>
<!-- Node0&#45;&gt;Node1 -->
<g id="edge1" class="edge"><title>Node0&#45;&gt;Node1</title>
<path fill="none" stroke="midnightblue" d="M111,-126.371C111,-117.585 111,-107.272 111,-99.1408"/>
<polygon fill="midnightblue" stroke="midnightblue" points="107.5,-126.403 111,-136.403 114.5,-126.403 107.5,-126.403"/>
</g>
<!-- Node2 -->
<g id="node3" class="node"><title>Node2</title>
<g id="a_node3"><a xlink:href="classant_1_1unpacker_1_1acqu_1_1_file_format_mk1.html" target="_top" xlink:title="ant::unpacker::acqu\l::FileFormatMk1">
<polygon fill="white" stroke="black" points="-0.5,-1 -0.5,-31 102.5,-31 102.5,-1 -0.5,-1"/>
<text text-anchor="start" x="7.5" y="-19" font-family="Helvetica,sans-Serif" font-size="10.00">ant::unpacker::acqu</text>
<text text-anchor="middle" x="51" y="-8" font-family="Helvetica,sans-Serif" font-size="10.00">::FileFormatMk1</text>
</a>
</g>
</g>
<!-- Node1&#45;&gt;Node2 -->
<g id="edge2" class="edge"><title>Node1&#45;&gt;Node2</title>
<path fill="none" stroke="midnightblue" d="M91.1762,-61.1939C82.2368,-51.3605 71.9298,-40.0228 63.9937,-31.2931"/>
<polygon fill="midnightblue" stroke="midnightblue" points="88.6643,-63.6339 97.9809,-68.679 93.8439,-58.9252 88.6643,-63.6339"/>
</g>
<!-- Node3 -->
<g id="node4" class="node"><title>Node3</title>
<g id="a_node4"><a xlink:href="classant_1_1unpacker_1_1acqu_1_1_file_format_mk2.html" target="_top" xlink:title="ant::unpacker::acqu\l::FileFormatMk2">
<polygon fill="white" stroke="black" points="120.5,-1 120.5,-31 223.5,-31 223.5,-1 120.5,-1"/>
<text text-anchor="start" x="128.5" y="-19" font-family="Helvetica,sans-Serif" font-size="10.00">ant::unpacker::acqu</text>
<text text-anchor="middle" x="172" y="-8" font-family="Helvetica,sans-Serif" font-size="10.00">::FileFormatMk2</text>
</a>
</g>
</g>
<!-- Node1&#45;&gt;Node3 -->
<g id="edge3" class="edge"><title>Node1&#45;&gt;Node3</title>
<path fill="none" stroke="midnightblue" d="M131.154,-61.1939C140.243,-51.3605 150.721,-40.0228 158.79,-31.2931"/>
<polygon fill="midnightblue" stroke="midnightblue" points="128.453,-58.9596 124.236,-68.679 133.594,-63.7108 128.453,-58.9596"/>
</g>
</g>
</svg>
