<?xml version="1.0" encoding="UTF-8" standalone="no"?>
<!DOCTYPE svg PUBLIC "-//W3C//DTD SVG 1.1//EN"
 "http://www.w3.org/Graphics/SVG/1.1/DTD/svg11.dtd">
<!-- Generated by graphviz version 2.36.0 (20140111.2315)
 -->
<!-- Title: ant::analysis::physics::TreePlotterBase_t&lt; WrapTree &gt; Pages: 1 -->
<svg width="275pt" height="200pt"
 viewBox="0.00 0.00 275.00 200.00" xmlns="http://www.w3.org/2000/svg" xmlns:xlink="http://www.w3.org/1999/xlink">
<g id="graph0" class="graph" transform="scale(1 1) rotate(0) translate(4 196)">
<title>ant::analysis::physics::TreePlotterBase_t&lt; WrapTree &gt;</title>
<polygon fill="white" stroke="none" points="-4,4 -4,-196 271,-196 271,4 -4,4"/>
<!-- Node5 -->
<g id="node1" class="node"><title>Node5</title>
<polygon fill="#bfbfbf" stroke="black" points="62,-1 62,-31 224,-31 224,-1 62,-1"/>
<text text-anchor="start" x="70" y="-19" font-family="Helvetica,sans-Serif" font-size="10.00">ant::analysis::physics</text>
<text text-anchor="middle" x="143" y="-8" font-family="Helvetica,sans-Serif" font-size="10.00">::TreePlotterBase_t&lt; WrapTree &gt;</text>
</g>
<!-- Node6 -->
<g id="node2" class="node"><title>Node6</title>
<g id="a_node2"><a xlink:href="classant_1_1analysis_1_1_plotter.html" target="_top" xlink:title="ant::analysis::Plotter">
<polygon fill="white" stroke="black" points="7.5,-86.5 7.5,-105.5 114.5,-105.5 114.5,-86.5 7.5,-86.5"/>
<text text-anchor="middle" x="61" y="-93.5" font-family="Helvetica,sans-Serif" font-size="10.00">ant::analysis::Plotter</text>
</a>
</g>
</g>
<!-- Node6&#45;&gt;Node5 -->
<g id="edge1" class="edge"><title>Node6&#45;&gt;Node5</title>
<path fill="none" stroke="midnightblue" d="M77.5211,-79.2848C92.2972,-65.2294 113.765,-44.8085 128.043,-31.227"/>
<polygon fill="midnightblue" stroke="midnightblue" points="74.9221,-76.9265 70.0887,-86.3546 79.7466,-81.9984 74.9221,-76.9265"/>
</g>
<!-- Node7 -->
<g id="node3" class="node"><title>Node7</title>
<g id="a_node3"><a xlink:href="classant_1_1analysis_1_1_histogram_factory.html" target="_top" xlink:title="ant::analysis::Histogram\lFactory">
<polygon fill="white" stroke="black" points="-0.5,-161 -0.5,-191 122.5,-191 122.5,-161 -0.5,-161"/>
<text text-anchor="start" x="7.5" y="-179" font-family="Helvetica,sans-Serif" font-size="10.00">ant::analysis::Histogram</text>
<text text-anchor="middle" x="61" y="-168" font-family="Helvetica,sans-Serif" font-size="10.00">Factory</text>
</a>
</g>
</g>
<!-- Node7&#45;&gt;Node6 -->
<g id="edge2" class="edge"><title>Node7&#45;&gt;Node6</title>
<path fill="none" stroke="#9a32cd" stroke-dasharray="5,2" d="M61,-150.394C61,-135.208 61,-116.635 61,-105.876"/>
<polygon fill="#9a32cd" stroke="#9a32cd" points="57.5001,-150.694 61,-160.694 64.5001,-150.694 57.5001,-150.694"/>
<text text-anchor="middle" x="80" y="-133.5" font-family="Helvetica,sans-Serif" font-size="10.00"> HistFac</text>
</g>
<!-- Node8 -->
<g id="node4" class="node"><title>Node8</title>
<g id="a_node4"><a xlink:href="structant_1_1analysis_1_1physics_1_1sigma_plus_1_1_pion_prod_tree.html" target="_top" xlink:title="ant::analysis::physics\l::sigmaPlus::PionProdTree">
<polygon fill="white" stroke="black" points="133,-81 133,-111 267,-111 267,-81 133,-81"/>
<text text-anchor="start" x="141" y="-99" font-family="Helvetica,sans-Serif" font-size="10.00">ant::analysis::physics</text>
<text text-anchor="middle" x="200" y="-88" font-family="Helvetica,sans-Serif" font-size="10.00">::sigmaPlus::PionProdTree</text>
</a>
</g>
</g>
<!-- Node8&#45;&gt;Node5 -->
<g id="edge3" class="edge"><title>Node8&#45;&gt;Node5</title>
<path fill="none" stroke="#9a32cd" stroke-dasharray="5,2" d="M183.547,-72.4858C173.823,-59.1793 161.806,-42.7348 153.388,-31.2157"/>
<polygon fill="#9a32cd" stroke="#9a32cd" points="180.819,-74.6847 189.545,-80.6936 186.471,-70.5546 180.819,-74.6847"/>
<text text-anchor="middle" x="185" y="-53.5" font-family="Helvetica,sans-Serif" font-size="10.00"> tree</text>
</g>
<!-- Node9 -->
<g id="node5" class="node"><title>Node9</title>
<g id="a_node5"><a xlink:href="classant_1_1_wrap_t_tree.html" target="_top" xlink:title="The WrapTTree struct simplifies TTree handling in physics classes. ">
<polygon fill="white" stroke="black" points="157.5,-166.5 157.5,-185.5 242.5,-185.5 242.5,-166.5 157.5,-166.5"/>
<text text-anchor="middle" x="200" y="-173.5" font-family="Helvetica,sans-Serif" font-size="10.00">ant::WrapTTree</text>
</a>
</g>
</g>
<!-- Node9&#45;&gt;Node8 -->
<g id="edge4" class="edge"><title>Node9&#45;&gt;Node8</title>
<path fill="none" stroke="midnightblue" d="M200,-156.062C200,-142.242 200,-123.802 200,-111.227"/>
<polygon fill="midnightblue" stroke="midnightblue" points="196.5,-156.355 200,-166.355 203.5,-156.355 196.5,-156.355"/>
</g>
</g>
</svg>
