<?xml version="1.0" encoding="UTF-8" standalone="no"?>
<!DOCTYPE svg PUBLIC "-//W3C//DTD SVG 1.1//EN"
 "http://www.w3.org/Graphics/SVG/1.1/DTD/svg11.dtd">
<!-- Generated by graphviz version 2.36.0 (20140111.2315)
 -->
<!-- Title: ant::calibration::ClusterCorrSmearing Pages: 1 -->
<svg width="1222pt" height="189pt"
 viewBox="0.00 0.00 1222.00 189.00" xmlns="http://www.w3.org/2000/svg" xmlns:xlink="http://www.w3.org/1999/xlink">
<g id="graph0" class="graph" transform="scale(1 1) rotate(0) translate(4 185)">
<title>ant::calibration::ClusterCorrSmearing</title>
<polygon fill="white" stroke="none" points="-4,4 -4,-185 1218,-185 1218,4 -4,4"/>
<!-- Node7 -->
<g id="node1" class="node"><title>Node7</title>
<polygon fill="#bfbfbf" stroke="black" points="1096,-100 1096,-130 1214,-130 1214,-100 1096,-100"/>
<text text-anchor="start" x="1104" y="-118" font-family="Helvetica,sans-Serif" font-size="10.00">ant::calibration::Cluster</text>
<text text-anchor="middle" x="1155" y="-107" font-family="Helvetica,sans-Serif" font-size="10.00">CorrSmearing</text>
</g>
<!-- Node8 -->
<g id="node2" class="node"><title>Node8</title>
<g id="a_node2"><a xlink:href="classant_1_1calibration_1_1_cluster_correction_manual.html" target="_top" xlink:title="ant::calibration::Cluster\lCorrectionManual">
<polygon fill="white" stroke="black" points="940,-100 940,-130 1058,-130 1058,-100 940,-100"/>
<text text-anchor="start" x="948" y="-118" font-family="Helvetica,sans-Serif" font-size="10.00">ant::calibration::Cluster</text>
<text text-anchor="middle" x="999" y="-107" font-family="Helvetica,sans-Serif" font-size="10.00">CorrectionManual</text>
</a>
</g>
</g>
<!-- Node8&#45;&gt;Node7 -->
<g id="edge1" class="edge"><title>Node8&#45;&gt;Node7</title>
<path fill="none" stroke="midnightblue" d="M1068.48,-115C1077.65,-115 1086.98,-115 1095.95,-115"/>
<polygon fill="midnightblue" stroke="midnightblue" points="1068.22,-111.5 1058.22,-115 1068.22,-118.5 1068.22,-111.5"/>
</g>
<!-- Node9 -->
<g id="node3" class="node"><title>Node9</title>
<g id="a_node3"><a xlink:href="classant_1_1calibration_1_1_cluster_correction.html" target="_top" xlink:title="ant::calibration::Cluster\lCorrection">
<polygon fill="white" stroke="black" points="784,-100 784,-130 902,-130 902,-100 784,-100"/>
<text text-anchor="start" x="792" y="-118" font-family="Helvetica,sans-Serif" font-size="10.00">ant::calibration::Cluster</text>
<text text-anchor="middle" x="843" y="-107" font-family="Helvetica,sans-Serif" font-size="10.00">Correction</text>
</a>
</g>
</g>
<!-- Node9&#45;&gt;Node8 -->
<g id="edge2" class="edge"><title>Node9&#45;&gt;Node8</title>
<path fill="none" stroke="midnightblue" d="M912.478,-115C921.649,-115 930.984,-115 939.952,-115"/>
<polygon fill="midnightblue" stroke="midnightblue" points="912.221,-111.5 902.221,-115 912.221,-118.5 912.221,-111.5"/>
</g>
<!-- Node10 -->
<g id="node4" class="node"><title>Node10</title>
<g id="a_node4"><a xlink:href="classant_1_1_calibration_1_1_base_module.html" target="_top" xlink:title="The BaseModule class provides a name for identification. ">
<polygon fill="white" stroke="black" points="549.5,-161.5 549.5,-180.5 692.5,-180.5 692.5,-161.5 549.5,-161.5"/>
<text text-anchor="middle" x="621" y="-168.5" font-family="Helvetica,sans-Serif" font-size="10.00">ant::Calibration::BaseModule</text>
</a>
</g>
</g>
<!-- Node10&#45;&gt;Node9 -->
<g id="edge3" class="edge"><title>Node10&#45;&gt;Node9</title>
<path fill="none" stroke="midnightblue" d="M674.735,-159.213C702.054,-152.939 735.907,-144.903 766,-137 774.237,-134.837 782.942,-132.431 791.405,-130.027"/>
<polygon fill="midnightblue" stroke="midnightblue" points="673.955,-155.801 664.986,-161.441 675.514,-162.625 673.955,-155.801"/>
</g>
<!-- Node11 -->
<g id="node5" class="node"><title>Node11</title>
<g id="a_node5"><a xlink:href="structant_1_1_updateable__traits.html" target="_top" xlink:title="The Updateable_traits class used by the UpdateableManager. ">
<polygon fill="white" stroke="black" points="564.5,-123.5 564.5,-142.5 677.5,-142.5 677.5,-123.5 564.5,-123.5"/>
<text text-anchor="middle" x="621" y="-130.5" font-family="Helvetica,sans-Serif" font-size="10.00">ant::Updateable_traits</text>
</a>
</g>
</g>
<!-- Node11&#45;&gt;Node9 -->
<g id="edge4" class="edge"><title>Node11&#45;&gt;Node9</title>
<path fill="none" stroke="midnightblue" d="M687.65,-127.629C718.205,-125.129 754.244,-122.18 783.811,-119.761"/>
<polygon fill="midnightblue" stroke="midnightblue" points="687.197,-124.154 677.515,-128.458 687.767,-131.131 687.197,-124.154"/>
</g>
<!-- Node12 -->
<g id="node6" class="node"><title>Node12</title>
<g id="a_node6"><a xlink:href="structant_1_1_reconstruct_hook_1_1_clusters.html" target="_top" xlink:title="The Clusters struct instances are applied before candidate matching and after clustering. ">
<polygon fill="white" stroke="black" points="564.5,-74 564.5,-104 677.5,-104 677.5,-74 564.5,-74"/>
<text text-anchor="start" x="572.5" y="-92" font-family="Helvetica,sans-Serif" font-size="10.00">ant::ReconstructHook</text>
<text text-anchor="middle" x="621" y="-81" font-family="Helvetica,sans-Serif" font-size="10.00">::Clusters</text>
</a>
</g>
</g>
<!-- Node12&#45;&gt;Node9 -->
<g id="edge5" class="edge"><title>Node12&#45;&gt;Node9</title>
<path fill="none" stroke="midnightblue" d="M687.65,-96.7586C718.205,-100.37 754.244,-104.629 783.811,-108.123"/>
<polygon fill="midnightblue" stroke="midnightblue" points="687.857,-93.2588 677.515,-95.5609 687.035,-100.21 687.857,-93.2588"/>
</g>
<!-- Node13 -->
<g id="node7" class="node"><title>Node13</title>
<g id="a_node7"><a xlink:href="structant_1_1_reconstruct_hook_1_1_base.html" target="_top" xlink:title="The Base struct just defines some useful types. ">
<polygon fill="white" stroke="black" points="378.5,-74 378.5,-104 491.5,-104 491.5,-74 378.5,-74"/>
<text text-anchor="start" x="386.5" y="-92" font-family="Helvetica,sans-Serif" font-size="10.00">ant::ReconstructHook</text>
<text text-anchor="middle" x="435" y="-81" font-family="Helvetica,sans-Serif" font-size="10.00">::Base</text>
</a>
</g>
</g>
<!-- Node13&#45;&gt;Node12 -->
<g id="edge6" class="edge"><title>Node13&#45;&gt;Node12</title>
<path fill="none" stroke="midnightblue" d="M501.909,-89C522.4,-89 544.775,-89 564.484,-89"/>
<polygon fill="midnightblue" stroke="midnightblue" points="501.705,-85.5001 491.705,-89 501.705,-92.5001 501.705,-85.5001"/>
</g>
<!-- Node14 -->
<g id="node8" class="node"><title>Node14</title>
<polygon fill="white" stroke="#bfbfbf" points="546,-25 546,-55 696,-55 696,-25 546,-25"/>
<text text-anchor="start" x="554" y="-43" font-family="Helvetica,sans-Serif" font-size="10.00">std::unique_ptr&lt; ant</text>
<text text-anchor="middle" x="621" y="-32" font-family="Helvetica,sans-Serif" font-size="10.00">::ClippedInterpolatorWrapper &gt;</text>
</g>
<!-- Node14&#45;&gt;Node9 -->
<g id="edge7" class="edge"><title>Node14&#45;&gt;Node9</title>
<path fill="none" stroke="#9a32cd" stroke-dasharray="5,2" d="M682.924,-57.9603C708.696,-65.8361 738.953,-75.4502 766,-85 778.975,-89.5812 793.028,-94.9978 805.48,-99.959"/>
<polygon fill="#9a32cd" stroke="#9a32cd" points="683.868,-54.5892 673.282,-55.0307 681.833,-61.2868 683.868,-54.5892"/>
<text text-anchor="middle" x="740" y="-88" font-family="Helvetica,sans-Serif" font-size="10.00"> interpolator</text>
</g>
<!-- Node15 -->
<g id="node9" class="node"><title>Node15</title>
<g id="a_node9"><a xlink:href="structant_1_1_clipped_interpolator_wrapper.html" target="_top" xlink:title="ant::ClippedInterpolator\lWrapper">
<polygon fill="white" stroke="black" points="376,-25 376,-55 494,-55 494,-25 376,-25"/>
<text text-anchor="start" x="384" y="-43" font-family="Helvetica,sans-Serif" font-size="10.00">ant::ClippedInterpolator</text>
<text text-anchor="middle" x="435" y="-32" font-family="Helvetica,sans-Serif" font-size="10.00">Wrapper</text>
</a>
</g>
</g>
<!-- Node15&#45;&gt;Node14 -->
<g id="edge8" class="edge"><title>Node15&#45;&gt;Node14</title>
<path fill="none" stroke="#9a32cd" stroke-dasharray="5,2" d="M504.413,-40C517.957,-40 532.234,-40 545.956,-40"/>
<polygon fill="#9a32cd" stroke="#9a32cd" points="504.219,-36.5001 494.219,-40 504.219,-43.5001 504.219,-36.5001"/>
<text text-anchor="middle" x="520" y="-43" font-family="Helvetica,sans-Serif" font-size="10.00"> ptr</text>
</g>
<!-- Node16 -->
<g id="node10" class="node"><title>Node16</title>
<polygon fill="white" stroke="#bfbfbf" points="185,-49 185,-79 299,-79 299,-49 185,-49"/>
<text text-anchor="start" x="193" y="-67" font-family="Helvetica,sans-Serif" font-size="10.00">std::unique_ptr&lt; const</text>
<text text-anchor="middle" x="242" y="-56" font-family="Helvetica,sans-Serif" font-size="10.00"> ant::Interpolator2D &gt;</text>
</g>
<!-- Node16&#45;&gt;Node15 -->
<g id="edge9" class="edge"><title>Node16&#45;&gt;Node15</title>
<path fill="none" stroke="#9a32cd" stroke-dasharray="5,2" d="M309.158,-55.6869C330.905,-52.9543 354.901,-49.9392 375.995,-47.2886"/>
<polygon fill="#9a32cd" stroke="#9a32cd" points="308.501,-52.2419 299.016,-56.9614 309.374,-59.1872 308.501,-52.2419"/>
<text text-anchor="middle" x="341" y="-57" font-family="Helvetica,sans-Serif" font-size="10.00"> interp</text>
</g>
<!-- Node17 -->
<g id="node11" class="node"><title>Node17</title>
<g id="a_node11"><a xlink:href="classant_1_1_interpolator2_d.html" target="_top" xlink:title="ant::Interpolator2D">
<polygon fill="white" stroke="black" points="8,-54.5 8,-73.5 106,-73.5 106,-54.5 8,-54.5"/>
<text text-anchor="middle" x="57" y="-61.5" font-family="Helvetica,sans-Serif" font-size="10.00">ant::Interpolator2D</text>
</a>
</g>
</g>
<!-- Node17&#45;&gt;Node16 -->
<g id="edge10" class="edge"><title>Node17&#45;&gt;Node16</title>
<path fill="none" stroke="#9a32cd" stroke-dasharray="5,2" d="M116.254,-64C138.185,-64 163.064,-64 184.804,-64"/>
<polygon fill="#9a32cd" stroke="#9a32cd" points="116.081,-60.5001 106.081,-64 116.081,-67.5001 116.081,-60.5001"/>
<text text-anchor="middle" x="146" y="-67" font-family="Helvetica,sans-Serif" font-size="10.00"> ptr</text>
</g>
<!-- Node18 -->
<g id="node12" class="node"><title>Node18</title>
<g id="a_node12"><a xlink:href="structant_1_1_clipped_interpolator_wrapper_1_1bounds_check__t.html" target="_top" xlink:title="ant::ClippedInterpolator\lWrapper::boundsCheck_t">
<polygon fill="white" stroke="black" points="178,-0 178,-30 306,-30 306,-0 178,-0"/>
<text text-anchor="start" x="186" y="-18" font-family="Helvetica,sans-Serif" font-size="10.00">ant::ClippedInterpolator</text>
<text text-anchor="middle" x="242" y="-7" font-family="Helvetica,sans-Serif" font-size="10.00">Wrapper::boundsCheck_t</text>
</a>
</g>
</g>
<!-- Node18&#45;&gt;Node15 -->
<g id="edge11" class="edge"><title>Node18&#45;&gt;Node15</title>
<path fill="none" stroke="#9a32cd" stroke-dasharray="5,2" d="M316.163,-19.297C330.09,-20.5187 344.521,-22.0621 358,-24 363.739,-24.8251 369.694,-25.8245 375.631,-26.9163"/>
<polygon fill="#9a32cd" stroke="#9a32cd" points="316.387,-15.8036 306.131,-18.4632 315.807,-22.7796 316.387,-15.8036"/>
<text text-anchor="middle" x="341" y="-38" font-family="Helvetica,sans-Serif" font-size="10.00"> yrange</text>
<text text-anchor="middle" x="341" y="-27" font-family="Helvetica,sans-Serif" font-size="10.00">xrange</text>
</g>
<!-- Node19 -->
<g id="node13" class="node"><title>Node19</title>
<g id="a_node13"><a xlink:href="classant_1_1interval.html" target="_top" xlink:title="ant::interval\&lt; double \&gt;">
<polygon fill="white" stroke="black" points="0,-5.5 0,-24.5 114,-24.5 114,-5.5 0,-5.5"/>
<text text-anchor="middle" x="57" y="-12.5" font-family="Helvetica,sans-Serif" font-size="10.00">ant::interval&lt; double &gt;</text>
</a>
</g>
</g>
<!-- Node19&#45;&gt;Node18 -->
<g id="edge12" class="edge"><title>Node19&#45;&gt;Node18</title>
<path fill="none" stroke="#9a32cd" stroke-dasharray="5,2" d="M124.465,-15C141.853,-15 160.548,-15 177.763,-15"/>
<polygon fill="#9a32cd" stroke="#9a32cd" points="124.399,-11.5001 114.399,-15 124.399,-18.5001 124.399,-11.5001"/>
<text text-anchor="middle" x="146" y="-18" font-family="Helvetica,sans-Serif" font-size="10.00"> range</text>
</g>
</g>
</svg>
