<?xml version="1.0" encoding="UTF-8" standalone="no"?>
<!DOCTYPE svg PUBLIC "-//W3C//DTD SVG 1.1//EN"
 "http://www.w3.org/Graphics/SVG/1.1/DTD/svg11.dtd">
<!-- Generated by graphviz version 2.36.0 (20140111.2315)
 -->
<!-- Title: ant::Calibration::BaseModule Pages: 1 -->
<svg width="840pt" height="422pt"
 viewBox="0.00 0.00 840.00 422.00" xmlns="http://www.w3.org/2000/svg" xmlns:xlink="http://www.w3.org/1999/xlink">
<g id="graph0" class="graph" transform="scale(1 1) rotate(0) translate(4 418)">
<title>ant::Calibration::BaseModule</title>
<polygon fill="white" stroke="none" points="-4,4 -4,-418 836,-418 836,4 -4,4"/>
<!-- Node0 -->
<g id="node1" class="node"><title>Node0</title>
<polygon fill="#bfbfbf" stroke="black" points="0.5,-193.5 0.5,-212.5 143.5,-212.5 143.5,-193.5 0.5,-193.5"/>
<text text-anchor="middle" x="72" y="-200.5" font-family="Helvetica,sans-Serif" font-size="10.00">ant::Calibration::BaseModule</text>
</g>
<!-- Node1 -->
<g id="node2" class="node"><title>Node1</title>
<g id="a_node2"><a xlink:href="classant_1_1calibration_1_1_cluster_correction.html" target="_top" xlink:title="ant::calibration::Cluster\lCorrection">
<polygon fill="white" stroke="black" points="183,-261 183,-291 301,-291 301,-261 183,-261"/>
<text text-anchor="start" x="191" y="-279" font-family="Helvetica,sans-Serif" font-size="10.00">ant::calibration::Cluster</text>
<text text-anchor="middle" x="242" y="-268" font-family="Helvetica,sans-Serif" font-size="10.00">Correction</text>
</a>
</g>
</g>
<!-- Node0&#45;&gt;Node1 -->
<g id="edge1" class="edge"><title>Node0&#45;&gt;Node1</title>
<path fill="none" stroke="midnightblue" d="M104.198,-216.556C133.133,-229.129 176.128,-247.811 206.171,-260.866"/>
<polygon fill="midnightblue" stroke="midnightblue" points="105.53,-213.319 94.9631,-212.543 102.74,-219.739 105.53,-213.319"/>
</g>
<!-- Node8 -->
<g id="node9" class="node"><title>Node8</title>
<g id="a_node9"><a xlink:href="classant_1_1_calibration_1_1_physics_module.html" target="_top" xlink:title="The PhysicsModule class gives the modules the ability to create histograms from events as well as fit...">
<polygon fill="white" stroke="black" points="180,-188 180,-218 304,-218 304,-188 180,-188"/>
<text text-anchor="start" x="188" y="-206" font-family="Helvetica,sans-Serif" font-size="10.00">ant::Calibration::Physics</text>
<text text-anchor="middle" x="242" y="-195" font-family="Helvetica,sans-Serif" font-size="10.00">Module</text>
</a>
</g>
</g>
<!-- Node0&#45;&gt;Node8 -->
<g id="edge8" class="edge"><title>Node0&#45;&gt;Node8</title>
<path fill="none" stroke="midnightblue" d="M153.964,-203C162.693,-203 171.466,-203 179.904,-203"/>
<polygon fill="midnightblue" stroke="midnightblue" points="153.76,-199.5 143.76,-203 153.76,-206.5 153.76,-199.5"/>
</g>
<!-- Node24 -->
<g id="node25" class="node"><title>Node24</title>
<g id="a_node25"><a xlink:href="classant_1_1calibration_1_1_tagg_eff.html" target="_top" xlink:title="ant::calibration::TaggEff">
<polygon fill="white" stroke="black" points="181.5,-149.5 181.5,-168.5 302.5,-168.5 302.5,-149.5 181.5,-149.5"/>
<text text-anchor="middle" x="242" y="-156.5" font-family="Helvetica,sans-Serif" font-size="10.00">ant::calibration::TaggEff</text>
</a>
</g>
</g>
<!-- Node0&#45;&gt;Node24 -->
<g id="edge24" class="edge"><title>Node0&#45;&gt;Node24</title>
<path fill="none" stroke="midnightblue" d="M119.409,-190.845C146.292,-183.805 179.647,-175.069 204.618,-168.529"/>
<polygon fill="midnightblue" stroke="midnightblue" points="118.24,-187.533 109.453,-193.453 120.014,-194.305 118.24,-187.533"/>
</g>
<!-- Node2 -->
<g id="node3" class="node"><title>Node2</title>
<g id="a_node3"><a xlink:href="classant_1_1calibration_1_1_cluster_correction_manual.html" target="_top" xlink:title="ant::calibration::Cluster\lCorrectionManual">
<polygon fill="white" stroke="black" points="341,-335 341,-365 459,-365 459,-335 341,-335"/>
<text text-anchor="start" x="349" y="-353" font-family="Helvetica,sans-Serif" font-size="10.00">ant::calibration::Cluster</text>
<text text-anchor="middle" x="400" y="-342" font-family="Helvetica,sans-Serif" font-size="10.00">CorrectionManual</text>
</a>
</g>
</g>
<!-- Node1&#45;&gt;Node2 -->
<g id="edge2" class="edge"><title>Node1&#45;&gt;Node2</title>
<path fill="none" stroke="midnightblue" d="M280.574,-295.718C298.439,-304.903 320.178,-315.806 340,-325 347.165,-328.323 354.894,-331.726 362.323,-334.909"/>
<polygon fill="midnightblue" stroke="midnightblue" points="282.106,-292.57 271.615,-291.089 278.893,-298.789 282.106,-292.57"/>
</g>
<!-- Node6 -->
<g id="node7" class="node"><title>Node6</title>
<g id="a_node7"><a xlink:href="classant_1_1calibration_1_1_cluster_e_corr.html" target="_top" xlink:title="Cluster energy correction based on energy and cluster size. ">
<polygon fill="white" stroke="black" points="341,-286 341,-316 459,-316 459,-286 341,-286"/>
<text text-anchor="start" x="349" y="-304" font-family="Helvetica,sans-Serif" font-size="10.00">ant::calibration::Cluster</text>
<text text-anchor="middle" x="400" y="-293" font-family="Helvetica,sans-Serif" font-size="10.00">ECorr</text>
</a>
</g>
</g>
<!-- Node1&#45;&gt;Node6 -->
<g id="edge6" class="edge"><title>Node1&#45;&gt;Node6</title>
<path fill="none" stroke="midnightblue" d="M311.269,-286.941C321.138,-288.522 331.217,-290.137 340.863,-291.683"/>
<polygon fill="midnightblue" stroke="midnightblue" points="311.517,-283.436 301.089,-285.309 310.409,-290.347 311.517,-283.436"/>
</g>
<!-- Node7 -->
<g id="node8" class="node"><title>Node7</title>
<g id="a_node8"><a xlink:href="classant_1_1calibration_1_1_cluster_smearing.html" target="_top" xlink:title="Cluster energy smearing based on energy and cos(theta) ">
<polygon fill="white" stroke="black" points="341,-237 341,-267 459,-267 459,-237 341,-237"/>
<text text-anchor="start" x="349" y="-255" font-family="Helvetica,sans-Serif" font-size="10.00">ant::calibration::Cluster</text>
<text text-anchor="middle" x="400" y="-244" font-family="Helvetica,sans-Serif" font-size="10.00">Smearing</text>
</a>
</g>
</g>
<!-- Node1&#45;&gt;Node7 -->
<g id="edge7" class="edge"><title>Node1&#45;&gt;Node7</title>
<path fill="none" stroke="midnightblue" d="M311.269,-265.497C321.138,-263.979 331.217,-262.428 340.863,-260.944"/>
<polygon fill="midnightblue" stroke="midnightblue" points="310.44,-262.083 301.089,-267.063 311.505,-269.002 310.44,-262.083"/>
</g>
<!-- Node3 -->
<g id="node4" class="node"><title>Node3</title>
<g id="a_node4"><a xlink:href="classant_1_1calibration_1_1_cluster_corr_factor.html" target="_top" xlink:title="Manually set additional cluster energy correction factor. ">
<polygon fill="white" stroke="black" points="505,-384 505,-414 623,-414 623,-384 505,-384"/>
<text text-anchor="start" x="513" y="-402" font-family="Helvetica,sans-Serif" font-size="10.00">ant::calibration::Cluster</text>
<text text-anchor="middle" x="564" y="-391" font-family="Helvetica,sans-Serif" font-size="10.00">CorrFactor</text>
</a>
</g>
</g>
<!-- Node2&#45;&gt;Node3 -->
<g id="edge3" class="edge"><title>Node2&#45;&gt;Node3</title>
<path fill="none" stroke="midnightblue" d="M460.884,-368.113C478.106,-373.322 496.698,-378.946 513.238,-383.948"/>
<polygon fill="midnightblue" stroke="midnightblue" points="461.512,-364.647 450.927,-365.101 459.486,-371.347 461.512,-364.647"/>
</g>
<!-- Node4 -->
<g id="node5" class="node"><title>Node4</title>
<g id="a_node5"><a xlink:href="classant_1_1calibration_1_1_cluster_corr_offset.html" target="_top" xlink:title="Manually set cluster energy offset. ">
<polygon fill="white" stroke="black" points="505,-335 505,-365 623,-365 623,-335 505,-335"/>
<text text-anchor="start" x="513" y="-353" font-family="Helvetica,sans-Serif" font-size="10.00">ant::calibration::Cluster</text>
<text text-anchor="middle" x="564" y="-342" font-family="Helvetica,sans-Serif" font-size="10.00">CorrOffset</text>
</a>
</g>
</g>
<!-- Node2&#45;&gt;Node4 -->
<g id="edge4" class="edge"><title>Node2&#45;&gt;Node4</title>
<path fill="none" stroke="midnightblue" d="M469.296,-350C481.118,-350 493.311,-350 504.833,-350"/>
<polygon fill="midnightblue" stroke="midnightblue" points="469.028,-346.5 459.028,-350 469.028,-353.5 469.028,-346.5"/>
</g>
<!-- Node5 -->
<g id="node6" class="node"><title>Node5</title>
<g id="a_node6"><a xlink:href="classant_1_1calibration_1_1_cluster_corr_smearing.html" target="_top" xlink:title="Manually add an additional cluster energy smearing. ">
<polygon fill="white" stroke="black" points="505,-286 505,-316 623,-316 623,-286 505,-286"/>
<text text-anchor="start" x="513" y="-304" font-family="Helvetica,sans-Serif" font-size="10.00">ant::calibration::Cluster</text>
<text text-anchor="middle" x="564" y="-293" font-family="Helvetica,sans-Serif" font-size="10.00">CorrSmearing</text>
</a>
</g>
</g>
<!-- Node2&#45;&gt;Node5 -->
<g id="edge5" class="edge"><title>Node2&#45;&gt;Node5</title>
<path fill="none" stroke="midnightblue" d="M460.884,-331.887C478.106,-326.678 496.698,-321.054 513.238,-316.052"/>
<polygon fill="midnightblue" stroke="midnightblue" points="459.486,-328.653 450.927,-334.899 461.512,-335.353 459.486,-328.653"/>
</g>
<!-- Node9 -->
<g id="node10" class="node"><title>Node9</title>
<g id="a_node10"><a xlink:href="classant_1_1calibration_1_1_c_b___source_calib.html" target="_top" xlink:title="ant::calibration::CB\l_SourceCalib">
<polygon fill="white" stroke="black" points="349.5,-188 349.5,-218 450.5,-218 450.5,-188 349.5,-188"/>
<text text-anchor="start" x="357.5" y="-206" font-family="Helvetica,sans-Serif" font-size="10.00">ant::calibration::CB</text>
<text text-anchor="middle" x="400" y="-195" font-family="Helvetica,sans-Serif" font-size="10.00">_SourceCalib</text>
</a>
</g>
</g>
<!-- Node8&#45;&gt;Node9 -->
<g id="edge9" class="edge"><title>Node8&#45;&gt;Node9</title>
<path fill="none" stroke="midnightblue" d="M314.407,-203C326.103,-203 337.997,-203 349.029,-203"/>
<polygon fill="midnightblue" stroke="midnightblue" points="314.208,-199.5 304.208,-203 314.208,-206.5 314.208,-199.5"/>
</g>
<!-- Node10 -->
<g id="node11" class="node"><title>Node10</title>
<g id="a_node11"><a xlink:href="classant_1_1_calibration_1_1_module.html" target="_top" xlink:title="The Module class is typically used for calibrations. ">
<polygon fill="white" stroke="black" points="340,-149.5 340,-168.5 460,-168.5 460,-149.5 340,-149.5"/>
<text text-anchor="middle" x="400" y="-156.5" font-family="Helvetica,sans-Serif" font-size="10.00">ant::Calibration::Module</text>
</a>
</g>
</g>
<!-- Node8&#45;&gt;Node10 -->
<g id="edge10" class="edge"><title>Node8&#45;&gt;Node10</title>
<path fill="none" stroke="midnightblue" d="M306.019,-185.226C326.196,-179.535 347.762,-173.452 365.041,-168.578"/>
<polygon fill="midnightblue" stroke="midnightblue" points="304.924,-181.898 296.25,-187.981 306.825,-188.635 304.924,-181.898"/>
</g>
<!-- Node11 -->
<g id="node12" class="node"><title>Node11</title>
<g id="a_node12"><a xlink:href="classant_1_1calibration_1_1_c_b___time_walk.html" target="_top" xlink:title="ant::calibration::CB\l_TimeWalk">
<polygon fill="white" stroke="black" points="513.5,-232 513.5,-262 614.5,-262 614.5,-232 513.5,-232"/>
<text text-anchor="start" x="521.5" y="-250" font-family="Helvetica,sans-Serif" font-size="10.00">ant::calibration::CB</text>
<text text-anchor="middle" x="564" y="-239" font-family="Helvetica,sans-Serif" font-size="10.00">_TimeWalk</text>
</a>
</g>
</g>
<!-- Node10&#45;&gt;Node11 -->
<g id="edge11" class="edge"><title>Node10&#45;&gt;Node11</title>
<path fill="none" stroke="midnightblue" d="M450.785,-172.657C454.006,-174.256 457.112,-176.031 460,-178 480.878,-192.231 475.452,-207.296 496,-222 501.351,-225.829 507.358,-229.144 513.521,-231.994"/>
<polygon fill="midnightblue" stroke="midnightblue" points="452.053,-169.391 441.487,-168.603 449.255,-175.808 452.053,-169.391"/>
</g>
<!-- Node12 -->
<g id="node13" class="node"><title>Node12</title>
<g id="a_node13"><a xlink:href="classant_1_1calibration_1_1_energy.html" target="_top" xlink:title="ant::calibration::Energy">
<polygon fill="white" stroke="black" points="505.5,-193.5 505.5,-212.5 622.5,-212.5 622.5,-193.5 505.5,-193.5"/>
<text text-anchor="middle" x="564" y="-200.5" font-family="Helvetica,sans-Serif" font-size="10.00">ant::calibration::Energy</text>
</a>
</g>
</g>
<!-- Node10&#45;&gt;Node12 -->
<g id="edge12" class="edge"><title>Node10&#45;&gt;Node12</title>
<path fill="none" stroke="midnightblue" d="M446.094,-171.248C471.958,-178.272 503.944,-186.96 527.917,-193.471"/>
<polygon fill="midnightblue" stroke="midnightblue" points="446.719,-167.791 436.152,-168.547 444.885,-174.546 446.719,-167.791"/>
</g>
<!-- Node18 -->
<g id="node19" class="node"><title>Node18</title>
<g id="a_node19"><a xlink:href="classant_1_1calibration_1_1_p_i_d___phi_angle.html" target="_top" xlink:title="ant::calibration::PID\l_PhiAngle">
<polygon fill="white" stroke="black" points="512,-144 512,-174 616,-174 616,-144 512,-144"/>
<text text-anchor="start" x="520" y="-162" font-family="Helvetica,sans-Serif" font-size="10.00">ant::calibration::PID</text>
<text text-anchor="middle" x="564" y="-151" font-family="Helvetica,sans-Serif" font-size="10.00">_PhiAngle</text>
</a>
</g>
</g>
<!-- Node10&#45;&gt;Node18 -->
<g id="edge18" class="edge"><title>Node10&#45;&gt;Node18</title>
<path fill="none" stroke="midnightblue" d="M470.428,-159C484.341,-159 498.72,-159 511.876,-159"/>
<polygon fill="midnightblue" stroke="midnightblue" points="470.403,-155.5 460.403,-159 470.403,-162.5 470.403,-155.5"/>
</g>
<!-- Node19 -->
<g id="node20" class="node"><title>Node19</title>
<g id="a_node20"><a xlink:href="classant_1_1calibration_1_1_t_a_p_s___to_f.html" target="_top" xlink:title="ant::calibration::TAPS_ToF">
<polygon fill="white" stroke="black" points="496.5,-105.5 496.5,-124.5 631.5,-124.5 631.5,-105.5 496.5,-105.5"/>
<text text-anchor="middle" x="564" y="-112.5" font-family="Helvetica,sans-Serif" font-size="10.00">ant::calibration::TAPS_ToF</text>
</a>
</g>
</g>
<!-- Node10&#45;&gt;Node19 -->
<g id="edge19" class="edge"><title>Node10&#45;&gt;Node19</title>
<path fill="none" stroke="midnightblue" d="M446.094,-146.752C471.958,-139.728 503.944,-131.04 527.917,-124.529"/>
<polygon fill="midnightblue" stroke="midnightblue" points="444.885,-143.454 436.152,-149.453 446.719,-150.209 444.885,-143.454"/>
</g>
<!-- Node20 -->
<g id="node21" class="node"><title>Node20</title>
<g id="a_node21"><a xlink:href="classant_1_1calibration_1_1_time.html" target="_top" xlink:title="ant::calibration::Time">
<polygon fill="white" stroke="black" points="510,-52.5 510,-71.5 618,-71.5 618,-52.5 510,-52.5"/>
<text text-anchor="middle" x="564" y="-59.5" font-family="Helvetica,sans-Serif" font-size="10.00">ant::calibration::Time</text>
</a>
</g>
</g>
<!-- Node10&#45;&gt;Node20 -->
<g id="edge20" class="edge"><title>Node10&#45;&gt;Node20</title>
<path fill="none" stroke="midnightblue" d="M422.776,-143.511C441.74,-130.279 470.168,-111.052 496,-96 511.328,-87.0689 529.279,-78.0314 542.74,-71.5212"/>
<polygon fill="midnightblue" stroke="midnightblue" points="420.697,-140.694 414.526,-149.307 424.721,-146.422 420.697,-140.694"/>
</g>
<!-- Node13 -->
<g id="node14" class="node"><title>Node13</title>
<g id="a_node14"><a xlink:href="classant_1_1calibration_1_1_c_b___energy.html" target="_top" xlink:title="ant::calibration::CB\l_Energy">
<polygon fill="white" stroke="black" points="699.5,-311 699.5,-341 800.5,-341 800.5,-311 699.5,-311"/>
<text text-anchor="start" x="707.5" y="-329" font-family="Helvetica,sans-Serif" font-size="10.00">ant::calibration::CB</text>
<text text-anchor="middle" x="750" y="-318" font-family="Helvetica,sans-Serif" font-size="10.00">_Energy</text>
</a>
</g>
</g>
<!-- Node12&#45;&gt;Node13 -->
<g id="edge13" class="edge"><title>Node12&#45;&gt;Node13</title>
<path fill="none" stroke="midnightblue" d="M623.818,-217.131C626.724,-218.866 629.478,-220.813 632,-223 660.849,-248.01 639.267,-275.856 668,-301 676.86,-308.753 688.093,-314.102 699.35,-317.792"/>
<polygon fill="midnightblue" stroke="midnightblue" points="625.226,-213.921 614.721,-212.539 622.071,-220.17 625.226,-213.921"/>
</g>
<!-- Node14 -->
<g id="node15" class="node"><title>Node14</title>
<g id="a_node15"><a xlink:href="classant_1_1calibration_1_1_p_i_d___energy.html" target="_top" xlink:title="ant::calibration::PID\l_Energy">
<polygon fill="white" stroke="black" points="698,-262 698,-292 802,-292 802,-262 698,-262"/>
<text text-anchor="start" x="706" y="-280" font-family="Helvetica,sans-Serif" font-size="10.00">ant::calibration::PID</text>
<text text-anchor="middle" x="750" y="-269" font-family="Helvetica,sans-Serif" font-size="10.00">_Energy</text>
</a>
</g>
</g>
<!-- Node12&#45;&gt;Node14 -->
<g id="edge14" class="edge"><title>Node12&#45;&gt;Node14</title>
<path fill="none" stroke="midnightblue" d="M615.587,-215.777C621.253,-217.885 626.838,-220.285 632,-223 650.185,-232.562 649.86,-242.353 668,-252 677.226,-256.906 687.565,-261.014 697.689,-264.389"/>
<polygon fill="midnightblue" stroke="midnightblue" points="616.627,-212.434 606.033,-212.501 614.357,-219.056 616.627,-212.434"/>
</g>
<!-- Node15 -->
<g id="node16" class="node"><title>Node15</title>
<g id="a_node16"><a xlink:href="classant_1_1calibration_1_1_t_a_p_s___energy.html" target="_top" xlink:title="ant::calibration::TAPS\l_Energy">
<polygon fill="white" stroke="black" points="693.5,-213 693.5,-243 806.5,-243 806.5,-213 693.5,-213"/>
<text text-anchor="start" x="701.5" y="-231" font-family="Helvetica,sans-Serif" font-size="10.00">ant::calibration::TAPS</text>
<text text-anchor="middle" x="750" y="-220" font-family="Helvetica,sans-Serif" font-size="10.00">_Energy</text>
</a>
</g>
</g>
<!-- Node12&#45;&gt;Node15 -->
<g id="edge15" class="edge"><title>Node12&#45;&gt;Node15</title>
<path fill="none" stroke="midnightblue" d="M632.674,-212.195C652.644,-214.908 674.26,-217.845 693.379,-220.443"/>
<polygon fill="midnightblue" stroke="midnightblue" points="633.094,-208.72 622.714,-210.842 632.152,-215.656 633.094,-208.72"/>
</g>
<!-- Node16 -->
<g id="node17" class="node"><title>Node16</title>
<g id="a_node17"><a xlink:href="classant_1_1calibration_1_1_t_a_p_s___short_energy.html" target="_top" xlink:title="ant::calibration::TAPS\l_ShortEnergy">
<polygon fill="white" stroke="black" points="693.5,-164 693.5,-194 806.5,-194 806.5,-164 693.5,-164"/>
<text text-anchor="start" x="701.5" y="-182" font-family="Helvetica,sans-Serif" font-size="10.00">ant::calibration::TAPS</text>
<text text-anchor="middle" x="750" y="-171" font-family="Helvetica,sans-Serif" font-size="10.00">_ShortEnergy</text>
</a>
</g>
</g>
<!-- Node12&#45;&gt;Node16 -->
<g id="edge16" class="edge"><title>Node12&#45;&gt;Node16</title>
<path fill="none" stroke="midnightblue" d="M632.674,-194.173C652.644,-191.568 674.26,-188.749 693.379,-186.255"/>
<polygon fill="midnightblue" stroke="midnightblue" points="632.177,-190.708 622.714,-195.472 633.083,-197.649 632.177,-190.708"/>
</g>
<!-- Node17 -->
<g id="node18" class="node"><title>Node17</title>
<g id="a_node18"><a xlink:href="classant_1_1calibration_1_1_t_a_p_s_veto___energy.html" target="_top" xlink:title="ant::calibration::TAPSVeto\l_Energy">
<polygon fill="white" stroke="black" points="683.5,-115 683.5,-145 816.5,-145 816.5,-115 683.5,-115"/>
<text text-anchor="start" x="691.5" y="-133" font-family="Helvetica,sans-Serif" font-size="10.00">ant::calibration::TAPSVeto</text>
<text text-anchor="middle" x="750" y="-122" font-family="Helvetica,sans-Serif" font-size="10.00">_Energy</text>
</a>
</g>
</g>
<!-- Node12&#45;&gt;Node17 -->
<g id="edge17" class="edge"><title>Node12&#45;&gt;Node17</title>
<path fill="none" stroke="midnightblue" d="M615.587,-190.223C621.253,-188.115 626.838,-185.715 632,-183 650.185,-173.438 649.805,-163.544 668,-154 674.364,-150.662 681.26,-147.722 688.25,-145.151"/>
<polygon fill="midnightblue" stroke="midnightblue" points="614.357,-186.944 606.033,-193.499 616.627,-193.566 614.357,-186.944"/>
</g>
<!-- Node21 -->
<g id="node22" class="node"><title>Node21</title>
<g id="a_node22"><a xlink:href="classant_1_1calibration_1_1_new_tagger___time.html" target="_top" xlink:title="ant::calibration::NewTagger_Time">
<polygon fill="white" stroke="black" points="668,-76.5 668,-95.5 832,-95.5 832,-76.5 668,-76.5"/>
<text text-anchor="middle" x="750" y="-83.5" font-family="Helvetica,sans-Serif" font-size="10.00">ant::calibration::NewTagger_Time</text>
</a>
</g>
</g>
<!-- Node20&#45;&gt;Node21 -->
<g id="edge21" class="edge"><title>Node20&#45;&gt;Node21</title>
<path fill="none" stroke="midnightblue" d="M628.162,-70.2385C643.586,-72.2503 660.212,-74.419 676.051,-76.4849"/>
<polygon fill="midnightblue" stroke="midnightblue" points="628.589,-66.7647 618.22,-68.9418 627.684,-73.7059 628.589,-66.7647"/>
</g>
<!-- Node22 -->
<g id="node23" class="node"><title>Node22</title>
<g id="a_node23"><a xlink:href="classant_1_1calibration_1_1_t_a_p_s___time.html" target="_top" xlink:title="ant::calibration::TAPS_Time">
<polygon fill="white" stroke="black" points="680,-38.5 680,-57.5 820,-57.5 820,-38.5 680,-38.5"/>
<text text-anchor="middle" x="750" y="-45.5" font-family="Helvetica,sans-Serif" font-size="10.00">ant::calibration::TAPS_Time</text>
</a>
</g>
</g>
<!-- Node20&#45;&gt;Node22 -->
<g id="edge22" class="edge"><title>Node20&#45;&gt;Node22</title>
<path fill="none" stroke="midnightblue" d="M628.349,-57.18C644.937,-55.9178 662.906,-54.5506 679.784,-53.2665"/>
<polygon fill="midnightblue" stroke="midnightblue" points="627.926,-53.7019 618.22,-57.9506 628.457,-60.6818 627.926,-53.7019"/>
</g>
<!-- Node23 -->
<g id="node24" class="node"><title>Node23</title>
<g id="a_node24"><a xlink:href="classant_1_1calibration_1_1_t_a_p_s_veto___time.html" target="_top" xlink:title="ant::calibration::TAPSVeto_Time">
<polygon fill="white" stroke="black" points="670,-0.5 670,-19.5 830,-19.5 830,-0.5 670,-0.5"/>
<text text-anchor="middle" x="750" y="-7.5" font-family="Helvetica,sans-Serif" font-size="10.00">ant::calibration::TAPSVeto_Time</text>
</a>
</g>
</g>
<!-- Node20&#45;&gt;Node23 -->
<g id="edge23" class="edge"><title>Node20&#45;&gt;Node23</title>
<path fill="none" stroke="midnightblue" d="M602.491,-49.1955C621.927,-42.7594 646.118,-35.0614 668,-29 680.11,-25.6454 693.345,-22.3764 705.54,-19.5224"/>
<polygon fill="midnightblue" stroke="midnightblue" points="601.175,-45.9447 592.798,-52.4308 603.391,-52.5847 601.175,-45.9447"/>
</g>
</g>
</svg>
