<?xml version="1.0" encoding="UTF-8" standalone="no"?>
<!DOCTYPE svg PUBLIC "-//W3C//DTD SVG 1.1//EN"
 "http://www.w3.org/Graphics/SVG/1.1/DTD/svg11.dtd">
<!-- Generated by graphviz version 2.36.0 (20140111.2315)
 -->
<!-- Title: ant::calibration::gui::FitWeibullLandauPol1 Pages: 1 -->
<svg width="124pt" height="176pt"
 viewBox="0.00 0.00 124.00 176.00" xmlns="http://www.w3.org/2000/svg" xmlns:xlink="http://www.w3.org/1999/xlink">
<g id="graph0" class="graph" transform="scale(1 1) rotate(0) translate(4 172)">
<title>ant::calibration::gui::FitWeibullLandauPol1</title>
<polygon fill="white" stroke="none" points="-4,4 -4,-172 120,-172 120,4 -4,4"/>
<!-- Node0 -->
<g id="node1" class="node"><title>Node0</title>
<polygon fill="#bfbfbf" stroke="black" points="-0.5,-1 -0.5,-31 116.5,-31 116.5,-1 -0.5,-1"/>
<text text-anchor="start" x="7.5" y="-19" font-family="Helvetica,sans-Serif" font-size="10.00">ant::calibration::gui</text>
<text text-anchor="middle" x="58" y="-8" font-family="Helvetica,sans-Serif" font-size="10.00">::FitWeibullLandauPol1</text>
</g>
<!-- Node1 -->
<g id="node2" class="node"><title>Node1</title>
<g id="a_node2"><a xlink:href="classant_1_1calibration_1_1gui_1_1_peaking_fit_function.html" target="_top" xlink:title="Fit functions describing peak shapes, like Gaus or Lorentz with optional background function...">
<polygon fill="white" stroke="black" points="4.5,-69 4.5,-99 111.5,-99 111.5,-69 4.5,-69"/>
<text text-anchor="start" x="12.5" y="-87" font-family="Helvetica,sans-Serif" font-size="10.00">ant::calibration::gui</text>
<text text-anchor="middle" x="58" y="-76" font-family="Helvetica,sans-Serif" font-size="10.00">::PeakingFitFunction</text>
</a>
</g>
</g>
<!-- Node1&#45;&gt;Node0 -->
<g id="edge1" class="edge"><title>Node1&#45;&gt;Node0</title>
<path fill="none" stroke="midnightblue" d="M58,-58.5322C58,-49.3606 58,-39.2449 58,-31.2931"/>
<polygon fill="midnightblue" stroke="midnightblue" points="54.5001,-58.6789 58,-68.679 61.5001,-58.679 54.5001,-58.6789"/>
</g>
<!-- Node2 -->
<g id="node3" class="node"><title>Node2</title>
<g id="a_node3"><a xlink:href="classant_1_1calibration_1_1gui_1_1_fit_function.html" target="_top" xlink:title="ant::calibration::gui\l::FitFunction">
<polygon fill="white" stroke="black" points="8.5,-137 8.5,-167 107.5,-167 107.5,-137 8.5,-137"/>
<text text-anchor="start" x="16.5" y="-155" font-family="Helvetica,sans-Serif" font-size="10.00">ant::calibration::gui</text>
<text text-anchor="middle" x="58" y="-144" font-family="Helvetica,sans-Serif" font-size="10.00">::FitFunction</text>
</a>
</g>
</g>
<!-- Node2&#45;&gt;Node1 -->
<g id="edge2" class="edge"><title>Node2&#45;&gt;Node1</title>
<path fill="none" stroke="midnightblue" d="M58,-126.532C58,-117.361 58,-107.245 58,-99.2931"/>
<polygon fill="midnightblue" stroke="midnightblue" points="54.5001,-126.679 58,-136.679 61.5001,-126.679 54.5001,-126.679"/>
</g>
</g>
</svg>
