<?xml version="1.0" encoding="UTF-8" standalone="no"?>
<!DOCTYPE svg PUBLIC "-//W3C//DTD SVG 1.1//EN"
 "http://www.w3.org/Graphics/SVG/1.1/DTD/svg11.dtd">
<!-- Generated by graphviz version 2.36.0 (20140111.2315)
 -->
<!-- Title: ant::analysis::physics::CB_SourceCalib Pages: 1 -->
<svg width="1048pt" height="231pt"
 viewBox="0.00 0.00 1048.00 231.00" xmlns="http://www.w3.org/2000/svg" xmlns:xlink="http://www.w3.org/1999/xlink">
<g id="graph0" class="graph" transform="scale(1 1) rotate(0) translate(4 227)">
<title>ant::analysis::physics::CB_SourceCalib</title>
<polygon fill="white" stroke="none" points="-4,4 -4,-227 1044,-227 1044,4 -4,4"/>
<!-- Node2 -->
<g id="node1" class="node"><title>Node2</title>
<polygon fill="#bfbfbf" stroke="black" points="928,-119 928,-149 1040,-149 1040,-119 928,-119"/>
<text text-anchor="start" x="936" y="-137" font-family="Helvetica,sans-Serif" font-size="10.00">ant::analysis::physics</text>
<text text-anchor="middle" x="984" y="-126" font-family="Helvetica,sans-Serif" font-size="10.00">::CB_SourceCalib</text>
</g>
<!-- Node3 -->
<g id="node2" class="node"><title>Node3</title>
<g id="a_node2"><a xlink:href="classant_1_1analysis_1_1_physics.html" target="_top" xlink:title="ant::analysis::Physics">
<polygon fill="white" stroke="black" points="707.5,-183.5 707.5,-202.5 820.5,-202.5 820.5,-183.5 707.5,-183.5"/>
<text text-anchor="middle" x="764" y="-190.5" font-family="Helvetica,sans-Serif" font-size="10.00">ant::analysis::Physics</text>
</a>
</g>
</g>
<!-- Node3&#45;&gt;Node2 -->
<g id="edge1" class="edge"><title>Node3&#45;&gt;Node2</title>
<path fill="none" stroke="midnightblue" d="M830.943,-183.998C856.005,-179.727 884.619,-173.813 910,-166 924.416,-161.563 939.79,-155.103 952.692,-149.147"/>
<polygon fill="midnightblue" stroke="midnightblue" points="830.101,-180.589 820.804,-185.671 831.24,-187.496 830.101,-180.589"/>
</g>
<!-- Node4 -->
<g id="node3" class="node"><title>Node4</title>
<g id="a_node3"><a xlink:href="classant_1_1analysis_1_1_histogram_factory.html" target="_top" xlink:title="ant::analysis::Histogram\lFactory">
<polygon fill="white" stroke="black" points="472.5,-181 472.5,-211 595.5,-211 595.5,-181 472.5,-181"/>
<text text-anchor="start" x="480.5" y="-199" font-family="Helvetica,sans-Serif" font-size="10.00">ant::analysis::Histogram</text>
<text text-anchor="middle" x="534" y="-188" font-family="Helvetica,sans-Serif" font-size="10.00">Factory</text>
</a>
</g>
</g>
<!-- Node4&#45;&gt;Node3 -->
<g id="edge2" class="edge"><title>Node4&#45;&gt;Node3</title>
<path fill="none" stroke="#9a32cd" stroke-dasharray="5,2" d="M605.894,-195.067C638.555,-194.637 676.752,-194.135 707.304,-193.733"/>
<polygon fill="#9a32cd" stroke="#9a32cd" points="605.454,-191.573 595.501,-195.204 605.546,-198.572 605.454,-191.573"/>
<text text-anchor="middle" x="649" y="-197" font-family="Helvetica,sans-Serif" font-size="10.00"> HistFac</text>
</g>
<!-- Node5 -->
<g id="node4" class="node"><title>Node5</title>
<g id="a_node4"><a xlink:href="structant_1_1calibration_1_1converter_1_1_ge_si_ca___s_a_d_c.html" target="_top" xlink:title="ant::calibration::converter\l::GeSiCa_SADC">
<polygon fill="white" stroke="black" points="324.5,-193 324.5,-223 451.5,-223 451.5,-193 324.5,-193"/>
<text text-anchor="start" x="332.5" y="-211" font-family="Helvetica,sans-Serif" font-size="10.00">ant::calibration::converter</text>
<text text-anchor="middle" x="388" y="-200" font-family="Helvetica,sans-Serif" font-size="10.00">::GeSiCa_SADC</text>
</a>
</g>
</g>
<!-- Node5&#45;&gt;Node2 -->
<g id="edge3" class="edge"><title>Node5&#45;&gt;Node2</title>
<path fill="none" stroke="#9a32cd" stroke-dasharray="5,2" d="M425.647,-188.506C439.216,-182.157 454.963,-175.777 470,-172 513.47,-161.081 804.227,-143.919 927.704,-137.02"/>
<polygon fill="#9a32cd" stroke="#9a32cd" points="424.115,-185.359 416.636,-192.864 427.163,-191.661 424.115,-185.359"/>
<text text-anchor="middle" x="649" y="-160" font-family="Helvetica,sans-Serif" font-size="10.00"> adc_converter</text>
</g>
<!-- Node6 -->
<g id="node5" class="node"><title>Node6</title>
<g id="a_node5"><a xlink:href="structant_1_1_calibration_1_1_converter.html" target="_top" xlink:title="The Converter struct handles the transition from raw bytes to somewhat meaningful values (not necessa...">
<polygon fill="white" stroke="black" points="0.5,-200.5 0.5,-219.5 131.5,-219.5 131.5,-200.5 0.5,-200.5"/>
<text text-anchor="middle" x="66" y="-207.5" font-family="Helvetica,sans-Serif" font-size="10.00">ant::Calibration::Converter</text>
</a>
</g>
</g>
<!-- Node6&#45;&gt;Node5 -->
<g id="edge4" class="edge"><title>Node6&#45;&gt;Node5</title>
<path fill="none" stroke="midnightblue" d="M141.872,-209.532C197.293,-209.186 271.94,-208.719 324.247,-208.392"/>
<polygon fill="midnightblue" stroke="midnightblue" points="141.735,-206.033 131.757,-209.595 141.778,-213.033 141.735,-206.033"/>
</g>
<!-- Node9 -->
<g id="node8" class="node"><title>Node9</title>
<g id="a_node8"><a xlink:href="structant_1_1calibration_1_1converter_1_1_multi_hit.html" target="_top" xlink:title="ant::calibration::converter\l::MultiHit\&lt; std::uint16_t \&gt;">
<polygon fill="white" stroke="black" points="174,-164 174,-194 302,-194 302,-164 174,-164"/>
<text text-anchor="start" x="182" y="-182" font-family="Helvetica,sans-Serif" font-size="10.00">ant::calibration::converter</text>
<text text-anchor="middle" x="238" y="-171" font-family="Helvetica,sans-Serif" font-size="10.00">::MultiHit&lt; std::uint16_t &gt;</text>
</a>
</g>
</g>
<!-- Node6&#45;&gt;Node9 -->
<g id="edge8" class="edge"><title>Node6&#45;&gt;Node9</title>
<path fill="none" stroke="midnightblue" d="M129.249,-198.649C143.738,-196.007 159.18,-193.191 173.713,-190.541"/>
<polygon fill="midnightblue" stroke="midnightblue" points="128.603,-195.209 119.393,-200.446 129.858,-202.095 128.603,-195.209"/>
</g>
<!-- Node7 -->
<g id="node6" class="node"><title>Node7</title>
<g id="a_node6"><a xlink:href="structant_1_1calibration_1_1converter_1_1_c_a_t_c_h___t_d_c.html" target="_top" xlink:title="ant::calibration::converter\l::CATCH_TDC">
<polygon fill="white" stroke="black" points="700.5,-92 700.5,-122 827.5,-122 827.5,-92 700.5,-92"/>
<text text-anchor="start" x="708.5" y="-110" font-family="Helvetica,sans-Serif" font-size="10.00">ant::calibration::converter</text>
<text text-anchor="middle" x="764" y="-99" font-family="Helvetica,sans-Serif" font-size="10.00">::CATCH_TDC</text>
</a>
</g>
</g>
<!-- Node7&#45;&gt;Node2 -->
<g id="edge5" class="edge"><title>Node7&#45;&gt;Node2</title>
<path fill="none" stroke="#9a32cd" stroke-dasharray="5,2" d="M837.947,-116.035C867.251,-119.664 900.472,-123.779 927.72,-127.153"/>
<polygon fill="#9a32cd" stroke="#9a32cd" points="838.117,-112.529 827.762,-114.773 837.256,-119.476 838.117,-112.529"/>
<text text-anchor="middle" x="878" y="-128" font-family="Helvetica,sans-Serif" font-size="10.00"> tdc_converter</text>
</g>
<!-- Node8 -->
<g id="node7" class="node"><title>Node8</title>
<g id="a_node7"><a xlink:href="structant_1_1calibration_1_1converter_1_1_multi_hit_reference.html" target="_top" xlink:title="ant::calibration::converter\l::MultiHitReference\&lt; std\l::uint16_t \&gt;">
<polygon fill="white" stroke="black" points="470.5,-82.5 470.5,-123.5 597.5,-123.5 597.5,-82.5 470.5,-82.5"/>
<text text-anchor="start" x="478.5" y="-111.5" font-family="Helvetica,sans-Serif" font-size="10.00">ant::calibration::converter</text>
<text text-anchor="start" x="478.5" y="-100.5" font-family="Helvetica,sans-Serif" font-size="10.00">::MultiHitReference&lt; std</text>
<text text-anchor="middle" x="534" y="-89.5" font-family="Helvetica,sans-Serif" font-size="10.00">::uint16_t &gt;</text>
</a>
</g>
</g>
<!-- Node8&#45;&gt;Node7 -->
<g id="edge6" class="edge"><title>Node8&#45;&gt;Node7</title>
<path fill="none" stroke="midnightblue" d="M607.909,-104.279C637.594,-104.8 671.57,-105.396 700.14,-105.897"/>
<polygon fill="midnightblue" stroke="midnightblue" points="607.663,-100.774 597.604,-104.098 607.541,-107.773 607.663,-100.774"/>
</g>
<!-- Node9&#45;&gt;Node8 -->
<g id="edge7" class="edge"><title>Node9&#45;&gt;Node8</title>
<path fill="none" stroke="midnightblue" d="M312.356,-164.572C353.66,-155.924 406.024,-144.083 452,-131 459.871,-128.76 468.099,-126.19 476.166,-123.536"/>
<polygon fill="midnightblue" stroke="midnightblue" points="311.454,-161.184 302.375,-166.645 312.878,-168.038 311.454,-161.184"/>
</g>
<!-- Node10 -->
<g id="node9" class="node"><title>Node10</title>
<g id="a_node9"><a xlink:href="structant_1_1_reconstruct_hook_1_1_detector_read_hits.html" target="_top" xlink:title="The DetectorReadHits struct instances are applied before hit matching. ">
<polygon fill="white" stroke="black" points="181.5,-115 181.5,-145 294.5,-145 294.5,-115 181.5,-115"/>
<text text-anchor="start" x="189.5" y="-133" font-family="Helvetica,sans-Serif" font-size="10.00">ant::ReconstructHook</text>
<text text-anchor="middle" x="238" y="-122" font-family="Helvetica,sans-Serif" font-size="10.00">::DetectorReadHits</text>
</a>
</g>
</g>
<!-- Node10&#45;&gt;Node8 -->
<g id="edge9" class="edge"><title>Node10&#45;&gt;Node8</title>
<path fill="none" stroke="midnightblue" d="M304.614,-123.974C354.148,-119.425 421.684,-113.223 470.453,-108.744"/>
<polygon fill="midnightblue" stroke="midnightblue" points="304.283,-120.49 294.645,-124.89 304.923,-127.46 304.283,-120.49"/>
</g>
<!-- Node11 -->
<g id="node10" class="node"><title>Node11</title>
<g id="a_node10"><a xlink:href="structant_1_1_reconstruct_hook_1_1_base.html" target="_top" xlink:title="The Base struct just defines some useful types. ">
<polygon fill="white" stroke="black" points="9.5,-115 9.5,-145 122.5,-145 122.5,-115 9.5,-115"/>
<text text-anchor="start" x="17.5" y="-133" font-family="Helvetica,sans-Serif" font-size="10.00">ant::ReconstructHook</text>
<text text-anchor="middle" x="66" y="-122" font-family="Helvetica,sans-Serif" font-size="10.00">::Base</text>
</a>
</g>
</g>
<!-- Node11&#45;&gt;Node10 -->
<g id="edge10" class="edge"><title>Node11&#45;&gt;Node10</title>
<path fill="none" stroke="midnightblue" d="M132.977,-130C148.914,-130 165.792,-130 181.211,-130"/>
<polygon fill="midnightblue" stroke="midnightblue" points="132.664,-126.5 122.664,-130 132.664,-133.5 132.664,-126.5"/>
</g>
<!-- Node12 -->
<g id="node11" class="node"><title>Node12</title>
<g id="a_node11"><a xlink:href="structant_1_1_logical_channel__t.html" target="_top" xlink:title="The LogicalChannel_t struct uniquely identifies detector element within setup. ">
<polygon fill="white" stroke="black" points="182.5,-76.5 182.5,-95.5 293.5,-95.5 293.5,-76.5 182.5,-76.5"/>
<text text-anchor="middle" x="238" y="-83.5" font-family="Helvetica,sans-Serif" font-size="10.00">ant::LogicalChannel_t</text>
</a>
</g>
</g>
<!-- Node12&#45;&gt;Node8 -->
<g id="edge11" class="edge"><title>Node12&#45;&gt;Node8</title>
<path fill="none" stroke="#9a32cd" stroke-dasharray="5,2" d="M303.9,-88.3847C346.115,-90.0993 402.349,-92.6904 452,-96 457.915,-96.3943 464.07,-96.8476 470.226,-97.33"/>
<polygon fill="#9a32cd" stroke="#9a32cd" points="303.887,-84.8815 293.755,-87.9786 303.607,-91.8759 303.887,-84.8815"/>
<text text-anchor="middle" x="388" y="-99" font-family="Helvetica,sans-Serif" font-size="10.00"> ReferenceChannel</text>
</g>
<!-- Node13 -->
<g id="node12" class="node"><title>Node13</title>
<polygon fill="white" stroke="#bfbfbf" points="170.5,-38.5 170.5,-57.5 305.5,-57.5 305.5,-38.5 170.5,-38.5"/>
<text text-anchor="middle" x="238" y="-45.5" font-family="Helvetica,sans-Serif" font-size="10.00">std::vector&lt; std::uint16_t &gt;</text>
</g>
<!-- Node13&#45;&gt;Node8 -->
<g id="edge12" class="edge"><title>Node13&#45;&gt;Node8</title>
<path fill="none" stroke="#9a32cd" stroke-dasharray="5,2" d="M315.974,-53.8856C356.762,-57.9739 407.495,-64.6051 452,-75 460.693,-77.0305 469.761,-79.6473 478.55,-82.464"/>
<polygon fill="#9a32cd" stroke="#9a32cd" points="316.121,-50.3834 305.829,-52.9003 315.444,-57.3507 316.121,-50.3834"/>
<text text-anchor="middle" x="388" y="-78" font-family="Helvetica,sans-Serif" font-size="10.00"> ReferenceHits</text>
</g>
<!-- Node14 -->
<g id="node13" class="node"><title>Node14</title>
<g id="a_node13"><a xlink:href="classant_1_1_t_h2_c_b.html" target="_top" xlink:title="The TH2CB class. ">
<polygon fill="white" stroke="black" points="729.5,-47.5 729.5,-66.5 798.5,-66.5 798.5,-47.5 729.5,-47.5"/>
<text text-anchor="middle" x="764" y="-54.5" font-family="Helvetica,sans-Serif" font-size="10.00">ant::TH2CB</text>
</a>
</g>
</g>
<!-- Node14&#45;&gt;Node2 -->
<g id="edge13" class="edge"><title>Node14&#45;&gt;Node2</title>
<path fill="none" stroke="#9a32cd" stroke-dasharray="5,2" d="M807.956,-69.4652C837.004,-78.1776 876.101,-90.4568 910,-103 923.043,-107.826 937.156,-113.669 949.466,-118.976"/>
<polygon fill="#9a32cd" stroke="#9a32cd" points="808.709,-66.0375 798.126,-66.5377 806.711,-72.7463 808.709,-66.0375"/>
<text text-anchor="middle" x="878" y="-106" font-family="Helvetica,sans-Serif" font-size="10.00"> h_cbdisplay</text>
</g>
<!-- Node15 -->
<g id="node14" class="node"><title>Node15</title>
<g id="a_node14"><a xlink:href="classant_1_1_t_h2_crystals.html" target="_top" xlink:title="Base class for A2 Calorimeter display classes. ">
<polygon fill="white" stroke="black" points="488,-31.5 488,-50.5 580,-50.5 580,-31.5 488,-31.5"/>
<text text-anchor="middle" x="534" y="-38.5" font-family="Helvetica,sans-Serif" font-size="10.00">ant::TH2Crystals</text>
</a>
</g>
</g>
<!-- Node15&#45;&gt;Node14 -->
<g id="edge14" class="edge"><title>Node15&#45;&gt;Node14</title>
<path fill="none" stroke="midnightblue" d="M590.153,-44.8704C633.516,-47.9134 692.53,-52.0547 729.17,-54.626"/>
<polygon fill="midnightblue" stroke="midnightblue" points="590.266,-41.3698 580.045,-44.1611 589.776,-48.3526 590.266,-41.3698"/>
</g>
<!-- Node16 -->
<g id="node15" class="node"><title>Node16</title>
<polygon fill="white" stroke="#bfbfbf" points="210.5,-0.5 210.5,-19.5 265.5,-19.5 265.5,-0.5 210.5,-0.5"/>
<text text-anchor="middle" x="238" y="-7.5" font-family="Helvetica,sans-Serif" font-size="10.00">TH2Poly</text>
</g>
<!-- Node16&#45;&gt;Node15 -->
<g id="edge15" class="edge"><title>Node16&#45;&gt;Node15</title>
<path fill="none" stroke="midnightblue" d="M275.819,-11.5553C318.379,-13.6331 390.468,-18.0153 452,-26 463.63,-27.5091 476.12,-29.5905 487.726,-31.7226"/>
<polygon fill="midnightblue" stroke="midnightblue" points="275.813,-8.05119 265.659,-11.0759 275.483,-15.0434 275.813,-8.05119"/>
</g>
</g>
</svg>
