<?xml version="1.0" encoding="UTF-8" standalone="no"?>
<!DOCTYPE svg PUBLIC "-//W3C//DTD SVG 1.1//EN"
 "http://www.w3.org/Graphics/SVG/1.1/DTD/svg11.dtd">
<!-- Generated by graphviz version 2.36.0 (20140111.2315)
 -->
<!-- Title: ant::analysis::physics::Time Pages: 1 -->
<svg width="241pt" height="200pt"
 viewBox="0.00 0.00 241.00 200.00" xmlns="http://www.w3.org/2000/svg" xmlns:xlink="http://www.w3.org/1999/xlink">
<g id="graph0" class="graph" transform="scale(1 1) rotate(0) translate(4 196)">
<title>ant::analysis::physics::Time</title>
<polygon fill="white" stroke="none" points="-4,4 -4,-196 237,-196 237,4 -4,4"/>
<!-- Node8 -->
<g id="node1" class="node"><title>Node8</title>
<polygon fill="#bfbfbf" stroke="black" points="98,-1 98,-31 210,-31 210,-1 98,-1"/>
<text text-anchor="start" x="106" y="-19" font-family="Helvetica,sans-Serif" font-size="10.00">ant::analysis::physics</text>
<text text-anchor="middle" x="154" y="-8" font-family="Helvetica,sans-Serif" font-size="10.00">::Time</text>
</g>
<!-- Node9 -->
<g id="node2" class="node"><title>Node9</title>
<g id="a_node2"><a xlink:href="classant_1_1analysis_1_1_physics.html" target="_top" xlink:title="ant::analysis::Physics">
<polygon fill="white" stroke="black" points="4.5,-86.5 4.5,-105.5 117.5,-105.5 117.5,-86.5 4.5,-86.5"/>
<text text-anchor="middle" x="61" y="-93.5" font-family="Helvetica,sans-Serif" font-size="10.00">ant::analysis::Physics</text>
</a>
</g>
</g>
<!-- Node9&#45;&gt;Node8 -->
<g id="edge1" class="edge"><title>Node9&#45;&gt;Node8</title>
<path fill="none" stroke="midnightblue" d="M79.2738,-79.6736C96.0441,-65.6082 120.694,-44.9342 137.037,-31.227"/>
<polygon fill="midnightblue" stroke="midnightblue" points="76.7207,-77.2468 71.308,-86.3546 81.2191,-82.6101 76.7207,-77.2468"/>
</g>
<!-- Node10 -->
<g id="node3" class="node"><title>Node10</title>
<g id="a_node3"><a xlink:href="classant_1_1analysis_1_1_histogram_factory.html" target="_top" xlink:title="ant::analysis::Histogram\lFactory">
<polygon fill="white" stroke="black" points="-0.5,-161 -0.5,-191 122.5,-191 122.5,-161 -0.5,-161"/>
<text text-anchor="start" x="7.5" y="-179" font-family="Helvetica,sans-Serif" font-size="10.00">ant::analysis::Histogram</text>
<text text-anchor="middle" x="61" y="-168" font-family="Helvetica,sans-Serif" font-size="10.00">Factory</text>
</a>
</g>
</g>
<!-- Node10&#45;&gt;Node9 -->
<g id="edge2" class="edge"><title>Node10&#45;&gt;Node9</title>
<path fill="none" stroke="#9a32cd" stroke-dasharray="5,2" d="M61,-150.394C61,-135.208 61,-116.635 61,-105.876"/>
<polygon fill="#9a32cd" stroke="#9a32cd" points="57.5001,-150.694 61,-160.694 64.5001,-150.694 57.5001,-150.694"/>
<text text-anchor="middle" x="80" y="-133.5" font-family="Helvetica,sans-Serif" font-size="10.00"> HistFac</text>
</g>
<!-- Node11 -->
<g id="node4" class="node"><title>Node11</title>
<g id="a_node4"><a xlink:href="classant_1_1analysis_1_1utils_1_1_trigger_simulation.html" target="_top" xlink:title="ant::analysis::utils\l::TriggerSimulation">
<polygon fill="white" stroke="black" points="136,-81 136,-111 234,-111 234,-81 136,-81"/>
<text text-anchor="start" x="144" y="-99" font-family="Helvetica,sans-Serif" font-size="10.00">ant::analysis::utils</text>
<text text-anchor="middle" x="185" y="-88" font-family="Helvetica,sans-Serif" font-size="10.00">::TriggerSimulation</text>
</a>
</g>
</g>
<!-- Node11&#45;&gt;Node8 -->
<g id="edge3" class="edge"><title>Node11&#45;&gt;Node8</title>
<path fill="none" stroke="#9a32cd" stroke-dasharray="5,2" d="M175.596,-71.3377C170.392,-58.2436 164.097,-42.4057 159.65,-31.2157"/>
<polygon fill="#9a32cd" stroke="#9a32cd" points="172.368,-72.6933 179.314,-80.6936 178.873,-70.1079 172.368,-72.6933"/>
<text text-anchor="middle" x="198" y="-53.5" font-family="Helvetica,sans-Serif" font-size="10.00"> triggersimu</text>
</g>
</g>
</svg>
