<?xml version="1.0" encoding="UTF-8" standalone="no"?>
<!DOCTYPE svg PUBLIC "-//W3C//DTD SVG 1.1//EN"
 "http://www.w3.org/Graphics/SVG/1.1/DTD/svg11.dtd">
<!-- Generated by graphviz version 2.36.0 (20140111.2315)
 -->
<!-- Title: ant::analysis::physics::TreePlotterBase_t&lt; WrapTree &gt; Pages: 1 -->
<svg width="478pt" height="126pt"
 viewBox="0.00 0.00 478.00 126.00" xmlns="http://www.w3.org/2000/svg" xmlns:xlink="http://www.w3.org/1999/xlink">
<g id="graph0" class="graph" transform="scale(1 1) rotate(0) translate(4 122)">
<title>ant::analysis::physics::TreePlotterBase_t&lt; WrapTree &gt;</title>
<polygon fill="white" stroke="none" points="-4,4 -4,-122 474,-122 474,4 -4,4"/>
<!-- Node0 -->
<g id="node1" class="node"><title>Node0</title>
<polygon fill="#bfbfbf" stroke="black" points="144,-33 144,-63 306,-63 306,-33 144,-33"/>
<text text-anchor="start" x="152" y="-51" font-family="Helvetica,sans-Serif" font-size="10.00">ant::analysis::physics</text>
<text text-anchor="middle" x="225" y="-40" font-family="Helvetica,sans-Serif" font-size="10.00">::TreePlotterBase_t&lt; WrapTree &gt;</text>
</g>
<!-- Node2 -->
<g id="node3" class="node"><title>Node2</title>
<g id="a_node3"><a xlink:href="classant_1_1analysis_1_1physics_1_1_detection_effciency_base__t.html" target="_top" xlink:title="ant::analysis::physics\l::DetectionEffciencyBase\l_t\&lt; WrapTree \&gt;">
<polygon fill="white" stroke="black" points="342,-76.5 342,-117.5 470,-117.5 470,-76.5 342,-76.5"/>
<text text-anchor="start" x="350" y="-105.5" font-family="Helvetica,sans-Serif" font-size="10.00">ant::analysis::physics</text>
<text text-anchor="start" x="350" y="-94.5" font-family="Helvetica,sans-Serif" font-size="10.00">::DetectionEffciencyBase</text>
<text text-anchor="middle" x="406" y="-83.5" font-family="Helvetica,sans-Serif" font-size="10.00">_t&lt; WrapTree &gt;</text>
</a>
</g>
</g>
<!-- Node0&#45;&gt;Node2 -->
<g id="edge2" class="edge"><title>Node0&#45;&gt;Node2</title>
<path fill="none" stroke="midnightblue" d="M291.269,-65.8671C307.778,-70.3862 325.476,-75.2309 341.877,-79.7204"/>
<polygon fill="midnightblue" stroke="midnightblue" points="291.736,-62.366 281.166,-63.1014 289.888,-69.1176 291.736,-62.366"/>
</g>
<!-- Node3 -->
<g id="node4" class="node"><title>Node3</title>
<g id="a_node4"><a xlink:href="classsigma_plus___test.html" target="_top" xlink:title="sigmaPlus_Test">
<polygon fill="white" stroke="black" points="362.5,-38.5 362.5,-57.5 449.5,-57.5 449.5,-38.5 362.5,-38.5"/>
<text text-anchor="middle" x="406" y="-45.5" font-family="Helvetica,sans-Serif" font-size="10.00">sigmaPlus_Test</text>
</a>
</g>
</g>
<!-- Node0&#45;&gt;Node3 -->
<g id="edge3" class="edge"><title>Node0&#45;&gt;Node3</title>
<path fill="none" stroke="midnightblue" d="M316.094,-48C332.207,-48 348.294,-48 362.267,-48"/>
<polygon fill="midnightblue" stroke="midnightblue" points="316.076,-44.5001 306.076,-48 316.076,-51.5001 316.076,-44.5001"/>
</g>
<!-- Node4 -->
<g id="node5" class="node"><title>Node4</title>
<g id="a_node5"><a xlink:href="classtriple_pi0___test.html" target="_top" xlink:title="triplePi0_Test">
<polygon fill="white" stroke="black" points="367.5,-0.5 367.5,-19.5 444.5,-19.5 444.5,-0.5 367.5,-0.5"/>
<text text-anchor="middle" x="406" y="-7.5" font-family="Helvetica,sans-Serif" font-size="10.00">triplePi0_Test</text>
</a>
</g>
</g>
<!-- Node0&#45;&gt;Node4 -->
<g id="edge4" class="edge"><title>Node0&#45;&gt;Node4</title>
<path fill="none" stroke="midnightblue" d="M306.693,-30.8697C327.773,-26.3946 349.511,-21.7798 367.169,-18.0312"/>
<polygon fill="midnightblue" stroke="midnightblue" points="305.801,-27.481 296.746,-32.9814 307.254,-34.3284 305.801,-27.481"/>
</g>
<!-- Node1 -->
<g id="node2" class="node"><title>Node1</title>
<g id="a_node2"><a xlink:href="classant_1_1analysis_1_1_plotter.html" target="_top" xlink:title="ant::analysis::Plotter">
<polygon fill="white" stroke="black" points="0.5,-38.5 0.5,-57.5 107.5,-57.5 107.5,-38.5 0.5,-38.5"/>
<text text-anchor="middle" x="54" y="-45.5" font-family="Helvetica,sans-Serif" font-size="10.00">ant::analysis::Plotter</text>
</a>
</g>
</g>
<!-- Node1&#45;&gt;Node0 -->
<g id="edge1" class="edge"><title>Node1&#45;&gt;Node0</title>
<path fill="none" stroke="midnightblue" d="M117.753,-48C126.271,-48 135.104,-48 143.875,-48"/>
<polygon fill="midnightblue" stroke="midnightblue" points="117.546,-44.5001 107.546,-48 117.546,-51.5001 117.546,-44.5001"/>
</g>
</g>
</svg>
