<?xml version="1.0" encoding="UTF-8" standalone="no"?>
<!DOCTYPE svg PUBLIC "-//W3C//DTD SVG 1.1//EN"
 "http://www.w3.org/Graphics/SVG/1.1/DTD/svg11.dtd">
<!-- Generated by graphviz version 2.36.0 (20140111.2315)
 -->
<!-- Title: ant::ExpConfig::Exception Pages: 1 -->
<svg width="287pt" height="208pt"
 viewBox="0.00 0.00 287.00 208.00" xmlns="http://www.w3.org/2000/svg" xmlns:xlink="http://www.w3.org/1999/xlink">
<g id="graph0" class="graph" transform="scale(1 1) rotate(0) translate(4 204)">
<title>ant::ExpConfig::Exception</title>
<polygon fill="white" stroke="none" points="-4,4 -4,-204 283,-204 283,4 -4,4"/>
<!-- Node0 -->
<g id="node1" class="node"><title>Node0</title>
<polygon fill="#bfbfbf" stroke="black" points="73.5,-68.5 73.5,-87.5 204.5,-87.5 204.5,-68.5 73.5,-68.5"/>
<text text-anchor="middle" x="139" y="-75.5" font-family="Helvetica,sans-Serif" font-size="10.00">ant::ExpConfig::Exception</text>
</g>
<!-- Node3 -->
<g id="node4" class="node"><title>Node3</title>
<g id="a_node4"><a xlink:href="classant_1_1_exp_config_1_1_exception_no_detector.html" target="_top" xlink:title="ant::ExpConfig::Exception\lNoDetector">
<polygon fill="white" stroke="black" points="-0.5,-1 -0.5,-31 130.5,-31 130.5,-1 -0.5,-1"/>
<text text-anchor="start" x="7.5" y="-19" font-family="Helvetica,sans-Serif" font-size="10.00">ant::ExpConfig::Exception</text>
<text text-anchor="middle" x="65" y="-8" font-family="Helvetica,sans-Serif" font-size="10.00">NoDetector</text>
</a>
</g>
</g>
<!-- Node0&#45;&gt;Node3 -->
<g id="edge3" class="edge"><title>Node0&#45;&gt;Node3</title>
<path fill="none" stroke="midnightblue" d="M120.588,-62.0711C108.919,-52.6097 93.9175,-40.4466 82.4403,-31.1408"/>
<polygon fill="midnightblue" stroke="midnightblue" points="118.426,-64.8241 128.398,-68.4035 122.834,-59.3868 118.426,-64.8241"/>
</g>
<!-- Node4 -->
<g id="node5" class="node"><title>Node4</title>
<g id="a_node5"><a xlink:href="classant_1_1_exp_config_1_1_exception_no_setup.html" target="_top" xlink:title="ant::ExpConfig::Exception\lNoSetup">
<polygon fill="white" stroke="black" points="148.5,-1 148.5,-31 279.5,-31 279.5,-1 148.5,-1"/>
<text text-anchor="start" x="156.5" y="-19" font-family="Helvetica,sans-Serif" font-size="10.00">ant::ExpConfig::Exception</text>
<text text-anchor="middle" x="214" y="-8" font-family="Helvetica,sans-Serif" font-size="10.00">NoSetup</text>
</a>
</g>
</g>
<!-- Node0&#45;&gt;Node4 -->
<g id="edge4" class="edge"><title>Node0&#45;&gt;Node4</title>
<path fill="none" stroke="midnightblue" d="M157.661,-62.0711C169.488,-52.6097 184.692,-40.4466 196.324,-31.1408"/>
<polygon fill="midnightblue" stroke="midnightblue" points="155.368,-59.4234 149.746,-68.4035 159.741,-64.8895 155.368,-59.4234"/>
</g>
<!-- Node1 -->
<g id="node2" class="node"><title>Node1</title>
<g id="a_node2"><a xlink:title="STL class. ">
<polygon fill="white" stroke="#bfbfbf" points="92.5,-124.5 92.5,-143.5 185.5,-143.5 185.5,-124.5 92.5,-124.5"/>
<text text-anchor="middle" x="139" y="-131.5" font-family="Helvetica,sans-Serif" font-size="10.00">std::runtime_error</text>
</a>
</g>
</g>
<!-- Node1&#45;&gt;Node0 -->
<g id="edge1" class="edge"><title>Node1&#45;&gt;Node0</title>
<path fill="none" stroke="midnightblue" d="M139,-113.805C139,-104.91 139,-94.7798 139,-87.7511"/>
<polygon fill="midnightblue" stroke="midnightblue" points="135.5,-114.083 139,-124.083 142.5,-114.083 135.5,-114.083"/>
</g>
<!-- Node2 -->
<g id="node3" class="node"><title>Node2</title>
<g id="a_node3"><a xlink:title="STL class. ">
<polygon fill="white" stroke="#bfbfbf" points="100,-180.5 100,-199.5 178,-199.5 178,-180.5 100,-180.5"/>
<text text-anchor="middle" x="139" y="-187.5" font-family="Helvetica,sans-Serif" font-size="10.00">std::exception</text>
</a>
</g>
</g>
<!-- Node2&#45;&gt;Node1 -->
<g id="edge2" class="edge"><title>Node2&#45;&gt;Node1</title>
<path fill="none" stroke="midnightblue" d="M139,-169.805C139,-160.91 139,-150.78 139,-143.751"/>
<polygon fill="midnightblue" stroke="midnightblue" points="135.5,-170.083 139,-180.083 142.5,-170.083 135.5,-170.083"/>
</g>
</g>
</svg>
