<?xml version="1.0" encoding="UTF-8" standalone="no"?>
<!DOCTYPE svg PUBLIC "-//W3C//DTD SVG 1.1//EN"
 "http://www.w3.org/Graphics/SVG/1.1/DTD/svg11.dtd">
<!-- Generated by graphviz version 2.36.0 (20140111.2315)
 -->
<!-- Title: ant::analysis::physics::MCClusteringCheck Pages: 1 -->
<svg width="864pt" height="133pt"
 viewBox="0.00 0.00 864.00 133.00" xmlns="http://www.w3.org/2000/svg" xmlns:xlink="http://www.w3.org/1999/xlink">
<g id="graph0" class="graph" transform="scale(1 1) rotate(0) translate(4 129)">
<title>ant::analysis::physics::MCClusteringCheck</title>
<polygon fill="white" stroke="none" points="-4,4 -4,-129 860,-129 860,4 -4,4"/>
<!-- Node2 -->
<g id="node1" class="node"><title>Node2</title>
<polygon fill="#bfbfbf" stroke="black" points="744,-44 744,-74 856,-74 856,-44 744,-44"/>
<text text-anchor="start" x="752" y="-62" font-family="Helvetica,sans-Serif" font-size="10.00">ant::analysis::physics</text>
<text text-anchor="middle" x="800" y="-51" font-family="Helvetica,sans-Serif" font-size="10.00">::MCClusteringCheck</text>
</g>
<!-- Node3 -->
<g id="node2" class="node"><title>Node3</title>
<g id="a_node2"><a xlink:href="classant_1_1analysis_1_1_physics.html" target="_top" xlink:title="ant::analysis::Physics">
<polygon fill="white" stroke="black" points="497.5,-99.5 497.5,-118.5 610.5,-118.5 610.5,-99.5 497.5,-99.5"/>
<text text-anchor="middle" x="554" y="-106.5" font-family="Helvetica,sans-Serif" font-size="10.00">ant::analysis::Physics</text>
</a>
</g>
</g>
<!-- Node3&#45;&gt;Node2 -->
<g id="edge1" class="edge"><title>Node3&#45;&gt;Node2</title>
<path fill="none" stroke="midnightblue" d="M611.82,-97.3816C645.096,-90.5744 687.933,-81.8067 726,-74 731.83,-72.8043 737.922,-71.554 743.994,-70.3074"/>
<polygon fill="midnightblue" stroke="midnightblue" points="610.911,-93.995 601.815,-99.428 612.314,-100.853 610.911,-93.995"/>
</g>
<!-- Node4 -->
<g id="node3" class="node"><title>Node4</title>
<g id="a_node3"><a xlink:href="classant_1_1analysis_1_1_histogram_factory.html" target="_top" xlink:title="ant::analysis::Histogram\lFactory">
<polygon fill="white" stroke="black" points="260.5,-95 260.5,-125 383.5,-125 383.5,-95 260.5,-95"/>
<text text-anchor="start" x="268.5" y="-113" font-family="Helvetica,sans-Serif" font-size="10.00">ant::analysis::Histogram</text>
<text text-anchor="middle" x="322" y="-102" font-family="Helvetica,sans-Serif" font-size="10.00">Factory</text>
</a>
</g>
</g>
<!-- Node4&#45;&gt;Node3 -->
<g id="edge2" class="edge"><title>Node4&#45;&gt;Node3</title>
<path fill="none" stroke="#9a32cd" stroke-dasharray="5,2" d="M393.868,-109.692C427.184,-109.547 466.325,-109.377 497.451,-109.242"/>
<polygon fill="#9a32cd" stroke="#9a32cd" points="393.715,-106.192 383.731,-109.736 393.746,-113.192 393.715,-106.192"/>
<text text-anchor="middle" x="438" y="-112" font-family="Helvetica,sans-Serif" font-size="10.00"> HistFac</text>
</g>
<!-- Node5 -->
<g id="node4" class="node"><title>Node5</title>
<polygon fill="white" stroke="#bfbfbf" points="478.5,-38.5 478.5,-79.5 629.5,-79.5 629.5,-38.5 478.5,-38.5"/>
<text text-anchor="start" x="486.5" y="-67.5" font-family="Helvetica,sans-Serif" font-size="10.00">std::vector&lt; ant::analysis</text>
<text text-anchor="start" x="486.5" y="-56.5" font-family="Helvetica,sans-Serif" font-size="10.00">::physics::MCClusteringCheck</text>
<text text-anchor="middle" x="554" y="-45.5" font-family="Helvetica,sans-Serif" font-size="10.00">::opening_angle_t &gt;</text>
</g>
<!-- Node5&#45;&gt;Node2 -->
<g id="edge3" class="edge"><title>Node5&#45;&gt;Node2</title>
<path fill="none" stroke="#9a32cd" stroke-dasharray="5,2" d="M639.622,-59C674.167,-59 713.136,-59 743.895,-59"/>
<polygon fill="#9a32cd" stroke="#9a32cd" points="639.534,-55.5001 629.534,-59 639.534,-62.5001 639.534,-55.5001"/>
<text text-anchor="middle" x="687" y="-62" font-family="Helvetica,sans-Serif" font-size="10.00"> opening_angles</text>
</g>
<!-- Node6 -->
<g id="node5" class="node"><title>Node6</title>
<g id="a_node5"><a xlink:href="structant_1_1analysis_1_1physics_1_1_m_c_clustering_check_1_1opening__angle__t.html" target="_top" xlink:title="ant::analysis::physics\l::MCClusteringCheck::opening\l_angle_t">
<polygon fill="white" stroke="black" points="246.5,-35.5 246.5,-76.5 397.5,-76.5 397.5,-35.5 246.5,-35.5"/>
<text text-anchor="start" x="254.5" y="-64.5" font-family="Helvetica,sans-Serif" font-size="10.00">ant::analysis::physics</text>
<text text-anchor="start" x="254.5" y="-53.5" font-family="Helvetica,sans-Serif" font-size="10.00">::MCClusteringCheck::opening</text>
<text text-anchor="middle" x="322" y="-42.5" font-family="Helvetica,sans-Serif" font-size="10.00">_angle_t</text>
</a>
</g>
</g>
<!-- Node6&#45;&gt;Node5 -->
<g id="edge4" class="edge"><title>Node6&#45;&gt;Node5</title>
<path fill="none" stroke="#9a32cd" stroke-dasharray="5,2" d="M407.809,-57.1062C430.927,-57.4077 455.796,-57.7321 478.307,-58.0257"/>
<polygon fill="#9a32cd" stroke="#9a32cd" points="407.719,-53.6048 397.674,-56.974 407.628,-60.6042 407.719,-53.6048"/>
<text text-anchor="middle" x="438" y="-61" font-family="Helvetica,sans-Serif" font-size="10.00"> elements</text>
</g>
<!-- Node7 -->
<g id="node6" class="node"><title>Node7</title>
<g id="a_node6"><a xlink:href="classant_1_1interval.html" target="_top" xlink:title="ant::interval\&lt; double \&gt;">
<polygon fill="white" stroke="black" points="0,-46.5 0,-65.5 114,-65.5 114,-46.5 0,-46.5"/>
<text text-anchor="middle" x="57" y="-53.5" font-family="Helvetica,sans-Serif" font-size="10.00">ant::interval&lt; double &gt;</text>
</a>
</g>
</g>
<!-- Node7&#45;&gt;Node6 -->
<g id="edge5" class="edge"><title>Node7&#45;&gt;Node6</title>
<path fill="none" stroke="#9a32cd" stroke-dasharray="5,2" d="M124.289,-56C161.344,-56 207.647,-56 246.02,-56"/>
<polygon fill="#9a32cd" stroke="#9a32cd" points="124.098,-52.5001 114.098,-56 124.097,-59.5001 124.098,-52.5001"/>
<text text-anchor="middle" x="180" y="-59" font-family="Helvetica,sans-Serif" font-size="10.00"> opening_angle_range</text>
</g>
<!-- Node8 -->
<g id="node7" class="node"><title>Node8</title>
<polygon fill="white" stroke="#bfbfbf" points="498.5,-0.5 498.5,-19.5 609.5,-19.5 609.5,-0.5 498.5,-0.5"/>
<text text-anchor="middle" x="554" y="-7.5" font-family="Helvetica,sans-Serif" font-size="10.00">std::vector&lt; TH1D *&gt;</text>
</g>
<!-- Node8&#45;&gt;Node2 -->
<g id="edge6" class="edge"><title>Node8&#45;&gt;Node2</title>
<path fill="none" stroke="#9a32cd" stroke-dasharray="5,2" d="M613.253,-21.4866C646.328,-28.0326 688.493,-36.4178 726,-44 731.707,-45.1537 737.663,-46.3652 743.604,-47.5787"/>
<polygon fill="#9a32cd" stroke="#9a32cd" points="613.784,-18.024 603.295,-19.5171 612.426,-24.891 613.784,-18.024"/>
<text text-anchor="middle" x="687" y="-47" font-family="Helvetica,sans-Serif" font-size="10.00"> h_Cands_OpAng</text>
</g>
</g>
</svg>
