<?xml version="1.0" encoding="UTF-8" standalone="no"?>
<!DOCTYPE svg PUBLIC "-//W3C//DTD SVG 1.1//EN"
 "http://www.w3.org/Graphics/SVG/1.1/DTD/svg11.dtd">
<!-- Generated by graphviz version 2.36.0 (20140111.2315)
 -->
<!-- Title: ant::analysis::physics::MCTrueAcceptance Pages: 1 -->
<svg width="275pt" height="222pt"
 viewBox="0.00 0.00 275.00 222.00" xmlns="http://www.w3.org/2000/svg" xmlns:xlink="http://www.w3.org/1999/xlink">
<g id="graph0" class="graph" transform="scale(1 1) rotate(0) translate(4 218)">
<title>ant::analysis::physics::MCTrueAcceptance</title>
<polygon fill="white" stroke="none" points="-4,4 -4,-218 271,-218 271,4 -4,4"/>
<!-- Node2 -->
<g id="node1" class="node"><title>Node2</title>
<polygon fill="#bfbfbf" stroke="black" points="86,-1 86,-31 198,-31 198,-1 86,-1"/>
<text text-anchor="start" x="94" y="-19" font-family="Helvetica,sans-Serif" font-size="10.00">ant::analysis::physics</text>
<text text-anchor="middle" x="142" y="-8" font-family="Helvetica,sans-Serif" font-size="10.00">::MCTrueAcceptance</text>
</g>
<!-- Node3 -->
<g id="node2" class="node"><title>Node3</title>
<g id="a_node2"><a xlink:href="classant_1_1analysis_1_1_physics.html" target="_top" xlink:title="ant::analysis::Physics">
<polygon fill="white" stroke="black" points="7.5,-86.5 7.5,-105.5 120.5,-105.5 120.5,-86.5 7.5,-86.5"/>
<text text-anchor="middle" x="64" y="-93.5" font-family="Helvetica,sans-Serif" font-size="10.00">ant::analysis::Physics</text>
</a>
</g>
</g>
<!-- Node3&#45;&gt;Node2 -->
<g id="edge1" class="edge"><title>Node3&#45;&gt;Node2</title>
<path fill="none" stroke="midnightblue" d="M80.1072,-78.8928C94.1481,-64.8519 114.317,-44.6827 127.773,-31.227"/>
<polygon fill="midnightblue" stroke="midnightblue" points="77.2416,-76.8086 72.6454,-86.3546 82.1914,-81.7584 77.2416,-76.8086"/>
</g>
<!-- Node4 -->
<g id="node3" class="node"><title>Node4</title>
<g id="a_node3"><a xlink:href="classant_1_1analysis_1_1_histogram_factory.html" target="_top" xlink:title="ant::analysis::Histogram\lFactory">
<polygon fill="white" stroke="black" points="-0.5,-183 -0.5,-213 122.5,-213 122.5,-183 -0.5,-183"/>
<text text-anchor="start" x="7.5" y="-201" font-family="Helvetica,sans-Serif" font-size="10.00">ant::analysis::Histogram</text>
<text text-anchor="middle" x="61" y="-190" font-family="Helvetica,sans-Serif" font-size="10.00">Factory</text>
</a>
</g>
</g>
<!-- Node4&#45;&gt;Node3 -->
<g id="edge2" class="edge"><title>Node4&#45;&gt;Node3</title>
<path fill="none" stroke="#9a32cd" stroke-dasharray="5,2" d="M61.7334,-172.554C62.3837,-150.876 63.297,-120.435 63.7394,-105.687"/>
<polygon fill="#9a32cd" stroke="#9a32cd" points="58.2314,-172.572 61.4298,-182.672 65.2282,-172.782 58.2314,-172.572"/>
<text text-anchor="middle" x="82" y="-144.5" font-family="Helvetica,sans-Serif" font-size="10.00"> HistFac</text>
</g>
<!-- Node5 -->
<g id="node4" class="node"><title>Node5</title>
<g id="a_node4"><a xlink:href="classant_1_1analysis_1_1utils_1_1_a2_simple_geometry.html" target="_top" xlink:title="ant::analysis::utils\l::A2SimpleGeometry">
<polygon fill="white" stroke="black" points="142.5,-81 142.5,-111 249.5,-111 249.5,-81 142.5,-81"/>
<text text-anchor="start" x="150.5" y="-99" font-family="Helvetica,sans-Serif" font-size="10.00">ant::analysis::utils</text>
<text text-anchor="middle" x="196" y="-88" font-family="Helvetica,sans-Serif" font-size="10.00">::A2SimpleGeometry</text>
</a>
</g>
</g>
<!-- Node5&#45;&gt;Node2 -->
<g id="edge3" class="edge"><title>Node5&#45;&gt;Node2</title>
<path fill="none" stroke="#9a32cd" stroke-dasharray="5,2" d="M180.149,-72.1048C170.985,-58.8665 159.74,-42.6251 151.842,-31.2157"/>
<polygon fill="#9a32cd" stroke="#9a32cd" points="177.526,-74.4639 186.096,-80.6936 183.281,-70.4794 177.526,-74.4639"/>
<text text-anchor="middle" x="182.5" y="-53.5" font-family="Helvetica,sans-Serif" font-size="10.00"> geo</text>
</g>
<!-- Node6 -->
<g id="node5" class="node"><title>Node6</title>
<g id="a_node5"><a xlink:href="classant_1_1interval.html" target="_top" xlink:title="ant::interval\&lt; double \&gt;">
<polygon fill="white" stroke="black" points="141,-188.5 141,-207.5 255,-207.5 255,-188.5 141,-188.5"/>
<text text-anchor="middle" x="198" y="-195.5" font-family="Helvetica,sans-Serif" font-size="10.00">ant::interval&lt; double &gt;</text>
</a>
</g>
</g>
<!-- Node6&#45;&gt;Node5 -->
<g id="edge4" class="edge"><title>Node6&#45;&gt;Node5</title>
<path fill="none" stroke="#9a32cd" stroke-dasharray="5,2" d="M197.629,-178.428C197.239,-158.972 196.637,-128.839 196.284,-111.201"/>
<polygon fill="#9a32cd" stroke="#9a32cd" points="194.13,-178.546 197.829,-188.474 201.129,-178.406 194.13,-178.546"/>
<text text-anchor="middle" x="232" y="-155.5" font-family="Helvetica,sans-Serif" font-size="10.00"> cb_phi_hem1</text>
<text text-anchor="middle" x="232" y="-144.5" font-family="Helvetica,sans-Serif" font-size="10.00">cb_theta_region</text>
<text text-anchor="middle" x="232" y="-133.5" font-family="Helvetica,sans-Serif" font-size="10.00">taps_region</text>
</g>
</g>
</svg>
