<?xml version="1.0" encoding="UTF-8" standalone="no"?>
<!DOCTYPE svg PUBLIC "-//W3C//DTD SVG 1.1//EN"
 "http://www.w3.org/Graphics/SVG/1.1/DTD/svg11.dtd">
<!-- Generated by graphviz version 2.36.0 (20140111.2315)
 -->
<!-- Title: ant::analysis::physics::CB_Energy Pages: 1 -->
<svg width="241pt" height="246pt"
 viewBox="0.00 0.00 241.00 246.00" xmlns="http://www.w3.org/2000/svg" xmlns:xlink="http://www.w3.org/1999/xlink">
<g id="graph0" class="graph" transform="scale(1 1) rotate(0) translate(4 242)">
<title>ant::analysis::physics::CB_Energy</title>
<polygon fill="white" stroke="none" points="-4,4 -4,-242 237,-242 237,4 -4,4"/>
<!-- Node2 -->
<g id="node1" class="node"><title>Node2</title>
<polygon fill="#bfbfbf" stroke="black" points="74,-1 74,-31 186,-31 186,-1 74,-1"/>
<text text-anchor="start" x="82" y="-19" font-family="Helvetica,sans-Serif" font-size="10.00">ant::analysis::physics</text>
<text text-anchor="middle" x="130" y="-8" font-family="Helvetica,sans-Serif" font-size="10.00">::CB_Energy</text>
</g>
<!-- Node3 -->
<g id="node2" class="node"><title>Node3</title>
<g id="a_node2"><a xlink:href="classant_1_1analysis_1_1_physics.html" target="_top" xlink:title="ant::analysis::Physics">
<polygon fill="white" stroke="black" points="8.5,-80.5 8.5,-99.5 121.5,-99.5 121.5,-80.5 8.5,-80.5"/>
<text text-anchor="middle" x="65" y="-87.5" font-family="Helvetica,sans-Serif" font-size="10.00">ant::analysis::Physics</text>
</a>
</g>
</g>
<!-- Node3&#45;&gt;Node2 -->
<g id="edge1" class="edge"><title>Node3&#45;&gt;Node2</title>
<path fill="none" stroke="midnightblue" d="M79.4245,-73.0221C90.7185,-60.5118 106.283,-43.2711 117.152,-31.2316"/>
<polygon fill="midnightblue" stroke="midnightblue" points="76.8147,-70.6898 72.7116,-80.4579 82.0106,-75.3806 76.8147,-70.6898"/>
</g>
<!-- Node4 -->
<g id="node3" class="node"><title>Node4</title>
<g id="a_node3"><a xlink:href="classant_1_1analysis_1_1_histogram_factory.html" target="_top" xlink:title="ant::analysis::Histogram\lFactory">
<polygon fill="white" stroke="black" points="-0.5,-149 -0.5,-179 122.5,-179 122.5,-149 -0.5,-149"/>
<text text-anchor="start" x="7.5" y="-167" font-family="Helvetica,sans-Serif" font-size="10.00">ant::analysis::Histogram</text>
<text text-anchor="middle" x="61" y="-156" font-family="Helvetica,sans-Serif" font-size="10.00">Factory</text>
</a>
</g>
</g>
<!-- Node4&#45;&gt;Node3 -->
<g id="edge2" class="edge"><title>Node4&#45;&gt;Node3</title>
<path fill="none" stroke="#9a32cd" stroke-dasharray="5,2" d="M62.3507,-138.688C63.0971,-125.253 63.9789,-109.38 64.5134,-99.7589"/>
<polygon fill="#9a32cd" stroke="#9a32cd" points="58.8505,-138.596 61.7903,-148.775 65.8397,-138.985 58.8505,-138.596"/>
<text text-anchor="middle" x="83" y="-121.5" font-family="Helvetica,sans-Serif" font-size="10.00"> HistFac</text>
</g>
<!-- Node5 -->
<g id="node4" class="node"><title>Node5</title>
<g id="a_node4"><a xlink:href="classant_1_1_t_h2_c_b.html" target="_top" xlink:title="The TH2CB class. ">
<polygon fill="white" stroke="black" points="141.5,-80.5 141.5,-99.5 210.5,-99.5 210.5,-80.5 141.5,-80.5"/>
<text text-anchor="middle" x="176" y="-87.5" font-family="Helvetica,sans-Serif" font-size="10.00">ant::TH2CB</text>
</a>
</g>
</g>
<!-- Node5&#45;&gt;Node2 -->
<g id="edge3" class="edge"><title>Node5&#45;&gt;Node2</title>
<path fill="none" stroke="#9a32cd" stroke-dasharray="5,2" d="M165.1,-71.9385C157.172,-59.5308 146.565,-42.9271 139.092,-31.2316"/>
<polygon fill="#9a32cd" stroke="#9a32cd" points="162.209,-73.9153 170.543,-80.4579 168.108,-70.1466 162.209,-73.9153"/>
<text text-anchor="middle" x="185.5" y="-53.5" font-family="Helvetica,sans-Serif" font-size="10.00"> h_cbdisplay</text>
</g>
<!-- Node6 -->
<g id="node5" class="node"><title>Node6</title>
<g id="a_node5"><a xlink:href="classant_1_1_t_h2_crystals.html" target="_top" xlink:title="Base class for A2 Calorimeter display classes. ">
<polygon fill="white" stroke="black" points="141,-154.5 141,-173.5 233,-173.5 233,-154.5 141,-154.5"/>
<text text-anchor="middle" x="187" y="-161.5" font-family="Helvetica,sans-Serif" font-size="10.00">ant::TH2Crystals</text>
</a>
</g>
</g>
<!-- Node6&#45;&gt;Node5 -->
<g id="edge4" class="edge"><title>Node6&#45;&gt;Node5</title>
<path fill="none" stroke="midnightblue" d="M184.121,-144.156C181.914,-129.712 178.973,-110.459 177.303,-99.531"/>
<polygon fill="midnightblue" stroke="midnightblue" points="180.725,-145.101 185.695,-154.458 187.644,-144.044 180.725,-145.101"/>
</g>
<!-- Node7 -->
<g id="node6" class="node"><title>Node7</title>
<polygon fill="white" stroke="#bfbfbf" points="159.5,-218.5 159.5,-237.5 214.5,-237.5 214.5,-218.5 159.5,-218.5"/>
<text text-anchor="middle" x="187" y="-225.5" font-family="Helvetica,sans-Serif" font-size="10.00">TH2Poly</text>
</g>
<!-- Node7&#45;&gt;Node6 -->
<g id="edge5" class="edge"><title>Node7&#45;&gt;Node6</title>
<path fill="none" stroke="midnightblue" d="M187,-208.037C187,-196.53 187,-182.403 187,-173.548"/>
<polygon fill="midnightblue" stroke="midnightblue" points="183.5,-208.379 187,-218.379 190.5,-208.379 183.5,-208.379"/>
</g>
</g>
</svg>
