<?xml version="1.0" encoding="UTF-8" standalone="no"?>
<!DOCTYPE svg PUBLIC "-//W3C//DTD SVG 1.1//EN"
 "http://www.w3.org/Graphics/SVG/1.1/DTD/svg11.dtd">
<!-- Generated by graphviz version 2.36.0 (20140111.2315)
 -->
<!-- Title: ant::analysis::physics::Pi0Eta Pages: 1 -->
<svg width="1800pt" height="703pt"
 viewBox="0.00 0.00 1800.00 703.00" xmlns="http://www.w3.org/2000/svg" xmlns:xlink="http://www.w3.org/1999/xlink">
<g id="graph0" class="graph" transform="scale(1 1) rotate(0) translate(4 699)">
<title>ant::analysis::physics::Pi0Eta</title>
<polygon fill="white" stroke="none" points="-4,4 -4,-699 1796,-699 1796,4 -4,4"/>
<!-- Node3 -->
<g id="node1" class="node"><title>Node3</title>
<polygon fill="#bfbfbf" stroke="black" points="1680,-196 1680,-226 1792,-226 1792,-196 1680,-196"/>
<text text-anchor="start" x="1688" y="-214" font-family="Helvetica,sans-Serif" font-size="10.00">ant::analysis::physics</text>
<text text-anchor="middle" x="1736" y="-203" font-family="Helvetica,sans-Serif" font-size="10.00">::Pi0Eta</text>
</g>
<!-- Node4 -->
<g id="node2" class="node"><title>Node4</title>
<g id="a_node2"><a xlink:href="classant_1_1analysis_1_1physics_1_1_omega_base.html" target="_top" xlink:title="ant::analysis::physics\l::OmegaBase">
<polygon fill="white" stroke="black" points="1427,-513 1427,-543 1539,-543 1539,-513 1427,-513"/>
<text text-anchor="start" x="1435" y="-531" font-family="Helvetica,sans-Serif" font-size="10.00">ant::analysis::physics</text>
<text text-anchor="middle" x="1483" y="-520" font-family="Helvetica,sans-Serif" font-size="10.00">::OmegaBase</text>
</a>
</g>
</g>
<!-- Node4&#45;&gt;Node3 -->
<g id="edge1" class="edge"><title>Node4&#45;&gt;Node3</title>
<path fill="none" stroke="midnightblue" d="M1549.68,-526.319C1587.23,-521.92 1632.58,-510.248 1662,-481 1734.83,-408.595 1737.15,-271.537 1735.75,-226.075"/>
<polygon fill="midnightblue" stroke="midnightblue" points="1548.9,-522.88 1539.31,-527.376 1549.61,-529.844 1548.9,-522.88"/>
</g>
<!-- Node5 -->
<g id="node3" class="node"><title>Node5</title>
<g id="a_node3"><a xlink:href="classant_1_1analysis_1_1_physics.html" target="_top" xlink:title="ant::analysis::Physics">
<polygon fill="white" stroke="black" points="1090.5,-495.5 1090.5,-514.5 1203.5,-514.5 1203.5,-495.5 1090.5,-495.5"/>
<text text-anchor="middle" x="1147" y="-502.5" font-family="Helvetica,sans-Serif" font-size="10.00">ant::analysis::Physics</text>
</a>
</g>
</g>
<!-- Node5&#45;&gt;Node4 -->
<g id="edge2" class="edge"><title>Node5&#45;&gt;Node4</title>
<path fill="none" stroke="midnightblue" d="M1213.63,-509.52C1275.89,-513.807 1368.37,-520.175 1426.89,-524.205"/>
<polygon fill="midnightblue" stroke="midnightblue" points="1213.75,-506.019 1203.53,-508.824 1213.26,-513.003 1213.75,-506.019"/>
</g>
<!-- Node6 -->
<g id="node4" class="node"><title>Node6</title>
<g id="a_node4"><a xlink:href="classant_1_1analysis_1_1_histogram_factory.html" target="_top" xlink:title="ant::analysis::Histogram\lFactory">
<polygon fill="white" stroke="black" points="817.5,-510 817.5,-540 940.5,-540 940.5,-510 817.5,-510"/>
<text text-anchor="start" x="825.5" y="-528" font-family="Helvetica,sans-Serif" font-size="10.00">ant::analysis::Histogram</text>
<text text-anchor="middle" x="879" y="-517" font-family="Helvetica,sans-Serif" font-size="10.00">Factory</text>
</a>
</g>
</g>
<!-- Node6&#45;&gt;Node5 -->
<g id="edge3" class="edge"><title>Node6&#45;&gt;Node5</title>
<path fill="none" stroke="#9a32cd" stroke-dasharray="5,2" d="M950.668,-519.687C994.31,-516.405 1049.52,-512.254 1090.11,-509.203"/>
<polygon fill="#9a32cd" stroke="#9a32cd" points="950.402,-516.197 940.692,-520.437 950.927,-523.177 950.402,-516.197"/>
<text text-anchor="middle" x="1015" y="-520" font-family="Helvetica,sans-Serif" font-size="10.00"> HistFac</text>
</g>
<!-- Node7 -->
<g id="node5" class="node"><title>Node7</title>
<g id="a_node5"><a xlink:href="classant_1_1analysis_1_1utils_1_1_a2_simple_geometry.html" target="_top" xlink:title="ant::analysis::utils\l::A2SimpleGeometry">
<polygon fill="white" stroke="black" points="1093.5,-534 1093.5,-564 1200.5,-564 1200.5,-534 1093.5,-534"/>
<text text-anchor="start" x="1101.5" y="-552" font-family="Helvetica,sans-Serif" font-size="10.00">ant::analysis::utils</text>
<text text-anchor="middle" x="1147" y="-541" font-family="Helvetica,sans-Serif" font-size="10.00">::A2SimpleGeometry</text>
</a>
</g>
</g>
<!-- Node7&#45;&gt;Node4 -->
<g id="edge4" class="edge"><title>Node7&#45;&gt;Node4</title>
<path fill="none" stroke="#9a32cd" stroke-dasharray="5,2" d="M1210.64,-545.061C1272.92,-541.146 1367.51,-535.198 1426.98,-531.46"/>
<polygon fill="#9a32cd" stroke="#9a32cd" points="1210.32,-541.575 1200.55,-545.696 1210.75,-548.561 1210.32,-541.575"/>
<text text-anchor="middle" x="1313" y="-545" font-family="Helvetica,sans-Serif" font-size="10.00"> geo</text>
</g>
<!-- Node8 -->
<g id="node6" class="node"><title>Node8</title>
<g id="a_node6"><a xlink:href="classant_1_1interval.html" target="_top" xlink:title="ant::interval\&lt; double \&gt;">
<polygon fill="white" stroke="black" points="822,-600.5 822,-619.5 936,-619.5 936,-600.5 822,-600.5"/>
<text text-anchor="middle" x="879" y="-607.5" font-family="Helvetica,sans-Serif" font-size="10.00">ant::interval&lt; double &gt;</text>
</a>
</g>
</g>
<!-- Node8&#45;&gt;Node3 -->
<g id="edge7" class="edge"><title>Node8&#45;&gt;Node3</title>
<path fill="none" stroke="#9a32cd" stroke-dasharray="5,2" d="M925.359,-621.991C1061.8,-655.011 1470.81,-731.096 1662,-514 1700.98,-469.738 1726.51,-281.137 1733.23,-226.121"/>
<polygon fill="#9a32cd" stroke="#9a32cd" points="925.806,-618.497 915.259,-619.504 924.132,-625.294 925.806,-618.497"/>
<text text-anchor="middle" x="1313" y="-687" font-family="Helvetica,sans-Serif" font-size="10.00"> photon_E_cb</text>
<text text-anchor="middle" x="1313" y="-676" font-family="Helvetica,sans-Serif" font-size="10.00">proton_theta</text>
<text text-anchor="middle" x="1313" y="-665" font-family="Helvetica,sans-Serif" font-size="10.00">photon_E_taps</text>
</g>
<!-- Node8&#45;&gt;Node7 -->
<g id="edge5" class="edge"><title>Node8&#45;&gt;Node7</title>
<path fill="none" stroke="#9a32cd" stroke-dasharray="5,2" d="M931.447,-598.202C978.021,-587.522 1046.33,-571.858 1093.29,-561.088"/>
<polygon fill="#9a32cd" stroke="#9a32cd" points="930.527,-594.822 921.562,-600.469 932.092,-601.645 930.527,-594.822"/>
<text text-anchor="middle" x="1015" y="-611" font-family="Helvetica,sans-Serif" font-size="10.00"> cb_phi_hem1</text>
<text text-anchor="middle" x="1015" y="-600" font-family="Helvetica,sans-Serif" font-size="10.00">cb_theta_region</text>
<text text-anchor="middle" x="1015" y="-589" font-family="Helvetica,sans-Serif" font-size="10.00">taps_region</text>
</g>
<!-- Node9 -->
<g id="node7" class="node"><title>Node9</title>
<g id="a_node7"><a xlink:href="classant_1_1analysis_1_1utils_1_1_trigger_simulation.html" target="_top" xlink:title="ant::analysis::utils\l::TriggerSimulation">
<polygon fill="white" stroke="black" points="1098,-583 1098,-613 1196,-613 1196,-583 1098,-583"/>
<text text-anchor="start" x="1106" y="-601" font-family="Helvetica,sans-Serif" font-size="10.00">ant::analysis::utils</text>
<text text-anchor="middle" x="1147" y="-590" font-family="Helvetica,sans-Serif" font-size="10.00">::TriggerSimulation</text>
</a>
</g>
</g>
<!-- Node9&#45;&gt;Node4 -->
<g id="edge6" class="edge"><title>Node9&#45;&gt;Node4</title>
<path fill="none" stroke="#9a32cd" stroke-dasharray="5,2" d="M1206.2,-590.014C1254.64,-582.881 1325.24,-571.354 1386,-557 1402.61,-553.077 1420.57,-547.908 1436.41,-543.022"/>
<polygon fill="#9a32cd" stroke="#9a32cd" points="1205.61,-586.564 1196.22,-591.469 1206.62,-593.491 1205.61,-586.564"/>
<text text-anchor="middle" x="1313" y="-587" font-family="Helvetica,sans-Serif" font-size="10.00"> triggersimu</text>
</g>
<!-- Node10 -->
<g id="node8" class="node"><title>Node10</title>
<g id="a_node8"><a xlink:href="structant_1_1analysis_1_1physics_1_1_pi0_eta_1_1_my_tree_fitter__t.html" target="_top" xlink:title="ant::analysis::physics\l::Pi0Eta::MyTreeFitter_t">
<polygon fill="white" stroke="black" points="1422,-240 1422,-270 1544,-270 1544,-240 1422,-240"/>
<text text-anchor="start" x="1430" y="-258" font-family="Helvetica,sans-Serif" font-size="10.00">ant::analysis::physics</text>
<text text-anchor="middle" x="1483" y="-247" font-family="Helvetica,sans-Serif" font-size="10.00">::Pi0Eta::MyTreeFitter_t</text>
</a>
</g>
</g>
<!-- Node10&#45;&gt;Node3 -->
<g id="edge8" class="edge"><title>Node10&#45;&gt;Node3</title>
<path fill="none" stroke="#9a32cd" stroke-dasharray="5,2" d="M1554.15,-243.551C1586.94,-238.103 1626.5,-231.394 1662,-225 1667.72,-223.971 1673.68,-222.87 1679.62,-221.756"/>
<polygon fill="#9a32cd" stroke="#9a32cd" points="1553.5,-240.111 1544.2,-245.199 1554.64,-247.017 1553.5,-240.111"/>
<text text-anchor="middle" x="1621" y="-242" font-family="Helvetica,sans-Serif" font-size="10.00"> treefitter</text>
</g>
<!-- Node11 -->
<g id="node9" class="node"><title>Node11</title>
<g id="a_node9"><a xlink:href="classant_1_1_tree.html" target="_top" xlink:title="ant::Tree\&lt; node_t \&gt;">
<polygon fill="white" stroke="black" points="1095.5,-242.5 1095.5,-261.5 1198.5,-261.5 1198.5,-242.5 1095.5,-242.5"/>
<text text-anchor="middle" x="1147" y="-249.5" font-family="Helvetica,sans-Serif" font-size="10.00">ant::Tree&lt; node_t &gt;</text>
</a>
</g>
</g>
<!-- Node11&#45;&gt;Node10 -->
<g id="edge9" class="edge"><title>Node11&#45;&gt;Node10</title>
<path fill="none" stroke="#9a32cd" stroke-dasharray="5,2" d="M1208.85,-251.977C1256.94,-252.026 1325.76,-252.246 1386,-253 1397.58,-253.145 1409.96,-253.359 1421.83,-253.593"/>
<polygon fill="#9a32cd" stroke="#9a32cd" points="1208.61,-248.477 1198.61,-251.969 1208.61,-255.477 1208.61,-248.477"/>
<text text-anchor="middle" x="1313" y="-311" font-family="Helvetica,sans-Serif" font-size="10.00"> fitted_eta_g1</text>
<text text-anchor="middle" x="1313" y="-300" font-family="Helvetica,sans-Serif" font-size="10.00">fitted_eta_g2</text>
<text text-anchor="middle" x="1313" y="-289" font-family="Helvetica,sans-Serif" font-size="10.00">fitted_eta</text>
<text text-anchor="middle" x="1313" y="-278" font-family="Helvetica,sans-Serif" font-size="10.00">fitted_pi0</text>
<text text-anchor="middle" x="1313" y="-267" font-family="Helvetica,sans-Serif" font-size="10.00">fitted_pi0_g1</text>
<text text-anchor="middle" x="1313" y="-256" font-family="Helvetica,sans-Serif" font-size="10.00">fitted_pi0_g2</text>
</g>
<!-- Node12 -->
<g id="node10" class="node"><title>Node12</title>
<polygon fill="white" stroke="#bfbfbf" points="397,-241.5 397,-260.5 493,-260.5 493,-241.5 397,-241.5"/>
<text text-anchor="middle" x="445" y="-248.5" font-family="Helvetica,sans-Serif" font-size="10.00">std::list&lt; node_t &gt;</text>
</g>
<!-- Node12&#45;&gt;Node11 -->
<g id="edge10" class="edge"><title>Node12&#45;&gt;Node11</title>
<path fill="none" stroke="#9a32cd" stroke-dasharray="5,2" d="M503.262,-254.15C511.559,-254.503 519.997,-254.805 528,-255 548.438,-255.498 553.556,-255.054 574,-255 766.655,-254.495 995.805,-253.032 1095.5,-252.354"/>
<polygon fill="#9a32cd" stroke="#9a32cd" points="503.397,-250.653 493.25,-253.699 503.082,-257.646 503.397,-250.653"/>
<text text-anchor="middle" x="759" y="-258" font-family="Helvetica,sans-Serif" font-size="10.00"> daughters</text>
</g>
<!-- Node14 -->
<g id="node12" class="node"><title>Node14</title>
<g id="a_node12"><a xlink:href="classant_1_1_tree.html" target="_top" xlink:title="ant::Tree\&lt; T \&gt;">
<polygon fill="white" stroke="black" points="615,-216.5 615,-235.5 695,-235.5 695,-216.5 615,-216.5"/>
<text text-anchor="middle" x="655" y="-223.5" font-family="Helvetica,sans-Serif" font-size="10.00">ant::Tree&lt; T &gt;</text>
</a>
</g>
</g>
<!-- Node12&#45;&gt;Node14 -->
<g id="edge13" class="edge"><title>Node12&#45;&gt;Node14</title>
<path fill="none" stroke="#9a32cd" stroke-dasharray="5,2" d="M503.392,-244.102C538.782,-239.848 583.251,-234.504 614.667,-230.728"/>
<polygon fill="#9a32cd" stroke="#9a32cd" points="502.709,-240.659 493.198,-245.327 503.545,-247.609 502.709,-240.659"/>
<text text-anchor="middle" x="551" y="-244" font-family="Helvetica,sans-Serif" font-size="10.00"> daughters</text>
</g>
<!-- Node13 -->
<g id="node11" class="node"><title>Node13</title>
<polygon fill="white" stroke="#bfbfbf" points="822.5,-210.5 822.5,-229.5 935.5,-229.5 935.5,-210.5 822.5,-210.5"/>
<text text-anchor="middle" x="879" y="-217.5" font-family="Helvetica,sans-Serif" font-size="10.00">std::weak_ptr&lt; Tree &gt;</text>
</g>
<!-- Node13&#45;&gt;Node11 -->
<g id="edge11" class="edge"><title>Node13&#45;&gt;Node11</title>
<path fill="none" stroke="#9a32cd" stroke-dasharray="5,2" d="M945.967,-216.075C978.667,-215.315 1018.63,-216.17 1054,-222 1066.68,-224.09 1097.07,-234.398 1119.46,-242.354"/>
<polygon fill="#9a32cd" stroke="#9a32cd" points="945.515,-212.587 935.62,-216.375 945.717,-219.584 945.515,-212.587"/>
<text text-anchor="middle" x="1015" y="-236" font-family="Helvetica,sans-Serif" font-size="10.00"> parent</text>
<text text-anchor="middle" x="1015" y="-225" font-family="Helvetica,sans-Serif" font-size="10.00">self</text>
</g>
<!-- Node13&#45;&gt;Node14 -->
<g id="edge14" class="edge"><title>Node13&#45;&gt;Node14</title>
<path fill="none" stroke="#9a32cd" stroke-dasharray="5,2" d="M836.329,-207.759C819.601,-203.441 800.041,-199.131 782,-197 761.697,-194.602 756.136,-193.463 736,-197 714.902,-200.706 692.039,-209.518 676.178,-216.462"/>
<polygon fill="#9a32cd" stroke="#9a32cd" points="835.775,-211.234 846.339,-210.43 837.579,-204.47 835.775,-211.234"/>
<text text-anchor="middle" x="759" y="-211" font-family="Helvetica,sans-Serif" font-size="10.00"> parent</text>
<text text-anchor="middle" x="759" y="-200" font-family="Helvetica,sans-Serif" font-size="10.00">self</text>
</g>
<!-- Node14&#45;&gt;Node13 -->
<g id="edge12" class="edge"><title>Node14&#45;&gt;Node13</title>
<path fill="none" stroke="#9a32cd" stroke-dasharray="5,2" d="M705.507,-224.662C740.071,-223.728 786.256,-222.48 822.138,-221.51"/>
<polygon fill="#9a32cd" stroke="#9a32cd" points="705.08,-221.172 695.178,-224.941 705.269,-228.17 705.08,-221.172"/>
<text text-anchor="middle" x="759" y="-227" font-family="Helvetica,sans-Serif" font-size="10.00"> ptr</text>
</g>
<!-- Node15 -->
<g id="node13" class="node"><title>Node15</title>
<polygon fill="white" stroke="#bfbfbf" points="430.5,-138.5 430.5,-157.5 459.5,-157.5 459.5,-138.5 430.5,-138.5"/>
<text text-anchor="middle" x="445" y="-145.5" font-family="Helvetica,sans-Serif" font-size="10.00">T</text>
</g>
<!-- Node15&#45;&gt;Node14 -->
<g id="edge15" class="edge"><title>Node15&#45;&gt;Node14</title>
<path fill="none" stroke="#9a32cd" stroke-dasharray="5,2" d="M469.147,-156.68C508.366,-171.387 587.586,-201.095 628.404,-216.401"/>
<polygon fill="#9a32cd" stroke="#9a32cd" points="470.24,-153.352 459.647,-153.118 467.782,-159.906 470.24,-153.352"/>
<text text-anchor="middle" x="551" y="-197" font-family="Helvetica,sans-Serif" font-size="10.00"> data</text>
</g>
<!-- Node31 -->
<g id="node29" class="node"><title>Node31</title>
<g id="a_node29"><a xlink:title="STL class. ">
<polygon fill="white" stroke="#bfbfbf" points="611.5,-138.5 611.5,-157.5 698.5,-157.5 698.5,-138.5 611.5,-138.5"/>
<text text-anchor="middle" x="655" y="-145.5" font-family="Helvetica,sans-Serif" font-size="10.00">std::vector&lt; T &gt;</text>
</a>
</g>
</g>
<!-- Node15&#45;&gt;Node31 -->
<g id="edge32" class="edge"><title>Node15&#45;&gt;Node31</title>
<path fill="none" stroke="#9a32cd" stroke-dasharray="5,2" d="M469.699,-148C504.099,-148 568.418,-148 611.233,-148"/>
<polygon fill="#9a32cd" stroke="#9a32cd" points="469.647,-144.5 459.647,-148 469.647,-151.5 469.647,-144.5"/>
<text text-anchor="middle" x="551" y="-151" font-family="Helvetica,sans-Serif" font-size="10.00"> elements</text>
</g>
<!-- Node38 -->
<g id="node36" class="node"><title>Node38</title>
<g id="a_node36"><a xlink:title="STL class. ">
<polygon fill="white" stroke="#bfbfbf" points="603,-82 603,-112 707,-112 707,-82 603,-82"/>
<text text-anchor="start" x="611" y="-100" font-family="Helvetica,sans-Serif" font-size="10.00">std::vector&lt; interval</text>
<text text-anchor="middle" x="655" y="-89" font-family="Helvetica,sans-Serif" font-size="10.00">&lt; double &gt; &gt;</text>
</a>
</g>
</g>
<!-- Node15&#45;&gt;Node38 -->
<g id="edge41" class="edge"><title>Node15&#45;&gt;Node38</title>
<path fill="none" stroke="#9a32cd" stroke-dasharray="5,2" d="M469.488,-142.241C501.68,-134.348 560.358,-119.96 602.918,-109.525"/>
<polygon fill="#9a32cd" stroke="#9a32cd" points="468.526,-138.873 459.647,-144.654 470.193,-145.672 468.526,-138.873"/>
<text text-anchor="middle" x="551" y="-131" font-family="Helvetica,sans-Serif" font-size="10.00"> elements</text>
</g>
<!-- Node16 -->
<g id="node14" class="node"><title>Node16</title>
<g id="a_node14"><a xlink:href="classant_1_1analysis_1_1utils_1_1_tree_fitter.html" target="_top" xlink:title="ant::analysis::utils\l::TreeFitter">
<polygon fill="white" stroke="black" points="1099,-326 1099,-356 1195,-356 1195,-326 1099,-326"/>
<text text-anchor="start" x="1107" y="-344" font-family="Helvetica,sans-Serif" font-size="10.00">ant::analysis::utils</text>
<text text-anchor="middle" x="1147" y="-333" font-family="Helvetica,sans-Serif" font-size="10.00">::TreeFitter</text>
</a>
</g>
</g>
<!-- Node16&#45;&gt;Node10 -->
<g id="edge16" class="edge"><title>Node16&#45;&gt;Node10</title>
<path fill="none" stroke="#9a32cd" stroke-dasharray="5,2" d="M1205.22,-343.48C1254.51,-343.812 1326.84,-339.935 1386,-319 1416.59,-308.176 1446.91,-285.422 1465.05,-270.172"/>
<polygon fill="#9a32cd" stroke="#9a32cd" points="1205.11,-339.978 1195.07,-343.35 1205.02,-346.978 1205.11,-339.978"/>
<text text-anchor="middle" x="1313" y="-346" font-family="Helvetica,sans-Serif" font-size="10.00"> treefitter</text>
</g>
<!-- Node17 -->
<g id="node15" class="node"><title>Node17</title>
<g id="a_node15"><a xlink:href="classant_1_1analysis_1_1utils_1_1_kin_fitter.html" target="_top" xlink:title="ant::analysis::utils\l::KinFitter">
<polygon fill="white" stroke="black" points="831,-461 831,-491 927,-491 927,-461 831,-461"/>
<text text-anchor="start" x="839" y="-479" font-family="Helvetica,sans-Serif" font-size="10.00">ant::analysis::utils</text>
<text text-anchor="middle" x="879" y="-468" font-family="Helvetica,sans-Serif" font-size="10.00">::KinFitter</text>
</a>
</g>
</g>
<!-- Node17&#45;&gt;Node3 -->
<g id="edge37" class="edge"><title>Node17&#45;&gt;Node3</title>
<path fill="none" stroke="#9a32cd" stroke-dasharray="5,2" d="M937.381,-468.316C971.438,-463.371 1015.37,-456.319 1054,-448 1331.29,-388.279 1406.14,-376.44 1662,-254 1679.12,-245.809 1697.52,-234.955 1711.56,-226.201"/>
<polygon fill="#9a32cd" stroke="#9a32cd" points="936.548,-464.9 927.145,-469.782 937.54,-471.829 936.548,-464.9"/>
<text text-anchor="middle" x="1313" y="-411" font-family="Helvetica,sans-Serif" font-size="10.00"> fitter</text>
</g>
<!-- Node17&#45;&gt;Node16 -->
<g id="edge17" class="edge"><title>Node17&#45;&gt;Node16</title>
<path fill="none" stroke="midnightblue" d="M937.183,-462.898C972.3,-453.434 1017.41,-438.661 1054,-418 1084.29,-400.899 1114.21,-373.342 1131.36,-356.248"/>
<polygon fill="midnightblue" stroke="midnightblue" points="935.877,-459.622 927.093,-465.547 937.654,-466.393 935.877,-459.622"/>
</g>
<!-- Node18 -->
<g id="node16" class="node"><title>Node18</title>
<g id="a_node16"><a xlink:href="classant_1_1analysis_1_1utils_1_1_fitter.html" target="_top" xlink:title="ant::analysis::utils\l::Fitter">
<polygon fill="white" stroke="black" points="607,-505 607,-535 703,-535 703,-505 607,-505"/>
<text text-anchor="start" x="615" y="-523" font-family="Helvetica,sans-Serif" font-size="10.00">ant::analysis::utils</text>
<text text-anchor="middle" x="655" y="-512" font-family="Helvetica,sans-Serif" font-size="10.00">::Fitter</text>
</a>
</g>
</g>
<!-- Node18&#45;&gt;Node17 -->
<g id="edge18" class="edge"><title>Node18&#45;&gt;Node17</title>
<path fill="none" stroke="midnightblue" d="M713.105,-508.682C749.681,-501.433 796.567,-492.14 830.987,-485.318"/>
<polygon fill="midnightblue" stroke="midnightblue" points="712.209,-505.291 703.08,-510.669 713.57,-512.158 712.209,-505.291"/>
</g>
<!-- Node19 -->
<g id="node17" class="node"><title>Node19</title>
<g id="a_node17"><a xlink:href="structant_1_1analysis_1_1utils_1_1_kin_fitter_1_1_target__t.html" target="_top" xlink:title="ant::analysis::utils\l::KinFitter::Target_t">
<polygon fill="white" stroke="black" points="604.5,-456 604.5,-486 705.5,-486 705.5,-456 604.5,-456"/>
<text text-anchor="start" x="612.5" y="-474" font-family="Helvetica,sans-Serif" font-size="10.00">ant::analysis::utils</text>
<text text-anchor="middle" x="655" y="-463" font-family="Helvetica,sans-Serif" font-size="10.00">::KinFitter::Target_t</text>
</a>
</g>
</g>
<!-- Node19&#45;&gt;Node17 -->
<g id="edge19" class="edge"><title>Node19&#45;&gt;Node17</title>
<path fill="none" stroke="#9a32cd" stroke-dasharray="5,2" d="M715.946,-472.35C752.048,-473.163 797.362,-474.184 830.887,-474.939"/>
<polygon fill="#9a32cd" stroke="#9a32cd" points="715.621,-468.842 705.545,-472.116 715.463,-475.84 715.621,-468.842"/>
<text text-anchor="middle" x="759" y="-477" font-family="Helvetica,sans-Serif" font-size="10.00"> Target</text>
</g>
<!-- Node20 -->
<g id="node18" class="node"><title>Node20</title>
<g id="a_node18"><a xlink:href="structant_1_1analysis_1_1utils_1_1_kin_fitter_1_1_beam_e__t.html" target="_top" xlink:title="ant::analysis::utils\l::KinFitter::BeamE_t">
<polygon fill="white" stroke="black" points="602,-554 602,-584 708,-584 708,-554 602,-554"/>
<text text-anchor="start" x="610" y="-572" font-family="Helvetica,sans-Serif" font-size="10.00">ant::analysis::utils</text>
<text text-anchor="middle" x="655" y="-561" font-family="Helvetica,sans-Serif" font-size="10.00">::KinFitter::BeamE_t</text>
</a>
</g>
</g>
<!-- Node20&#45;&gt;Node17 -->
<g id="edge20" class="edge"><title>Node20&#45;&gt;Node17</title>
<path fill="none" stroke="#9a32cd" stroke-dasharray="5,2" d="M704.146,-549.96C708.846,-547.99 713.527,-545.982 718,-544 746.895,-531.194 754.565,-528.691 782,-513 790.346,-508.226 791.339,-505.174 800,-501 809.736,-496.308 820.565,-492.199 830.981,-488.739"/>
<polygon fill="#9a32cd" stroke="#9a32cd" points="702.44,-546.878 694.535,-553.933 705.114,-553.348 702.44,-546.878"/>
<text text-anchor="middle" x="759" y="-538" font-family="Helvetica,sans-Serif" font-size="10.00"> BeamE</text>
</g>
<!-- Node21 -->
<g id="node19" class="node"><title>Node21</title>
<polygon fill="white" stroke="#bfbfbf" points="417,-559.5 417,-578.5 473,-578.5 473,-559.5 417,-559.5"/>
<text text-anchor="middle" x="445" y="-566.5" font-family="Helvetica,sans-Serif" font-size="10.00">V_S_P_t</text>
</g>
<!-- Node21&#45;&gt;Node20 -->
<g id="edge21" class="edge"><title>Node21&#45;&gt;Node20</title>
<path fill="none" stroke="midnightblue" d="M483.321,-569C516.299,-569 564.741,-569 601.601,-569"/>
<polygon fill="midnightblue" stroke="midnightblue" points="483.192,-565.5 473.192,-569 483.192,-572.5 483.192,-565.5"/>
</g>
<!-- Node22 -->
<g id="node20" class="node"><title>Node22</title>
<polygon fill="white" stroke="#bfbfbf" points="592.5,-417.5 592.5,-436.5 717.5,-436.5 717.5,-417.5 592.5,-417.5"/>
<text text-anchor="middle" x="655" y="-424.5" font-family="Helvetica,sans-Serif" font-size="10.00">std::vector&lt; FitParticle &gt;</text>
</g>
<!-- Node22&#45;&gt;Node17 -->
<g id="edge22" class="edge"><title>Node22&#45;&gt;Node17</title>
<path fill="none" stroke="#9a32cd" stroke-dasharray="5,2" d="M709.177,-438.737C746.218,-446.913 795.177,-457.719 830.828,-465.588"/>
<polygon fill="#9a32cd" stroke="#9a32cd" points="709.586,-435.243 699.067,-436.506 708.078,-442.079 709.586,-435.243"/>
<text text-anchor="middle" x="759" y="-458" font-family="Helvetica,sans-Serif" font-size="10.00"> Photons</text>
</g>
<!-- Node23 -->
<g id="node21" class="node"><title>Node23</title>
<polygon fill="white" stroke="#bfbfbf" points="826,-286.5 826,-305.5 932,-305.5 932,-286.5 826,-286.5"/>
<text text-anchor="middle" x="879" y="-293.5" font-family="Helvetica,sans-Serif" font-size="10.00">std::vector&lt; tree_t &gt;</text>
</g>
<!-- Node23&#45;&gt;Node16 -->
<g id="edge23" class="edge"><title>Node23&#45;&gt;Node16</title>
<path fill="none" stroke="#9a32cd" stroke-dasharray="5,2" d="M942.309,-304.458C975.536,-309.184 1017.07,-315.433 1054,-322 1068.61,-324.599 1084.46,-327.75 1098.82,-330.734"/>
<polygon fill="#9a32cd" stroke="#9a32cd" points="942.669,-300.975 932.278,-303.042 941.691,-307.906 942.669,-300.975"/>
<text text-anchor="middle" x="1015" y="-325" font-family="Helvetica,sans-Serif" font-size="10.00"> tree_leaves</text>
</g>
<!-- Node24 -->
<g id="node22" class="node"><title>Node24</title>
<polygon fill="white" stroke="#bfbfbf" points="806,-363 806,-393 952,-393 952,-363 806,-363"/>
<text text-anchor="start" x="814" y="-381" font-family="Helvetica,sans-Serif" font-size="10.00">std::list&lt; ant::analysis</text>
<text text-anchor="middle" x="879" y="-370" font-family="Helvetica,sans-Serif" font-size="10.00">::utils::TreeFitter::iteration_t &gt;</text>
</g>
<!-- Node24&#45;&gt;Node16 -->
<g id="edge24" class="edge"><title>Node24&#45;&gt;Node16</title>
<path fill="none" stroke="#9a32cd" stroke-dasharray="5,2" d="M962.344,-366.546C1007.19,-360.308 1061.07,-352.813 1098.84,-347.56"/>
<polygon fill="#9a32cd" stroke="#9a32cd" points="961.757,-363.094 952.334,-367.938 962.721,-370.027 961.757,-363.094"/>
<text text-anchor="middle" x="1015" y="-367" font-family="Helvetica,sans-Serif" font-size="10.00"> iterations</text>
</g>
<!-- Node25 -->
<g id="node23" class="node"><title>Node25</title>
<g id="a_node23"><a xlink:href="structant_1_1analysis_1_1utils_1_1_tree_fitter_1_1iteration__t.html" target="_top" xlink:title="ant::analysis::utils\l::TreeFitter::iteration_t">
<polygon fill="white" stroke="black" points="598.5,-363 598.5,-393 711.5,-393 711.5,-363 598.5,-363"/>
<text text-anchor="start" x="606.5" y="-381" font-family="Helvetica,sans-Serif" font-size="10.00">ant::analysis::utils</text>
<text text-anchor="middle" x="655" y="-370" font-family="Helvetica,sans-Serif" font-size="10.00">::TreeFitter::iteration_t</text>
</a>
</g>
</g>
<!-- Node25&#45;&gt;Node24 -->
<g id="edge25" class="edge"><title>Node25&#45;&gt;Node24</title>
<path fill="none" stroke="#9a32cd" stroke-dasharray="5,2" d="M722.009,-378C748.399,-378 778.873,-378 805.845,-378"/>
<polygon fill="#9a32cd" stroke="#9a32cd" points="721.733,-374.5 711.733,-378 721.733,-381.5 721.733,-374.5"/>
<text text-anchor="middle" x="759" y="-381" font-family="Helvetica,sans-Serif" font-size="10.00"> elements</text>
</g>
<!-- Node26 -->
<g id="node24" class="node"><title>Node26</title>
<polygon fill="white" stroke="#bfbfbf" points="380.5,-357.5 380.5,-398.5 509.5,-398.5 509.5,-357.5 380.5,-357.5"/>
<text text-anchor="start" x="388.5" y="-386.5" font-family="Helvetica,sans-Serif" font-size="10.00">std::vector&lt; ant::analysis</text>
<text text-anchor="start" x="388.5" y="-375.5" font-family="Helvetica,sans-Serif" font-size="10.00">::utils::TreeFitter::iteration</text>
<text text-anchor="middle" x="445" y="-364.5" font-family="Helvetica,sans-Serif" font-size="10.00">_t::photon_t &gt;</text>
</g>
<!-- Node26&#45;&gt;Node25 -->
<g id="edge26" class="edge"><title>Node26&#45;&gt;Node25</title>
<path fill="none" stroke="#9a32cd" stroke-dasharray="5,2" d="M519.67,-378C545.52,-378 574.111,-378 598.247,-378"/>
<polygon fill="#9a32cd" stroke="#9a32cd" points="519.537,-374.5 509.537,-378 519.537,-381.5 519.537,-374.5"/>
<text text-anchor="middle" x="551" y="-381" font-family="Helvetica,sans-Serif" font-size="10.00"> Photons</text>
</g>
<!-- Node27 -->
<g id="node25" class="node"><title>Node27</title>
<g id="a_node25"><a xlink:href="structant_1_1analysis_1_1utils_1_1_tree_fitter_1_1iteration__t_1_1photon__t.html" target="_top" xlink:title="ant::analysis::utils\l::TreeFitter::iteration\l_t::photon_t">
<polygon fill="white" stroke="black" points="194.5,-357.5 194.5,-398.5 299.5,-398.5 299.5,-357.5 194.5,-357.5"/>
<text text-anchor="start" x="202.5" y="-386.5" font-family="Helvetica,sans-Serif" font-size="10.00">ant::analysis::utils</text>
<text text-anchor="start" x="202.5" y="-375.5" font-family="Helvetica,sans-Serif" font-size="10.00">::TreeFitter::iteration</text>
<text text-anchor="middle" x="247" y="-364.5" font-family="Helvetica,sans-Serif" font-size="10.00">_t::photon_t</text>
</a>
</g>
</g>
<!-- Node27&#45;&gt;Node26 -->
<g id="edge27" class="edge"><title>Node27&#45;&gt;Node26</title>
<path fill="none" stroke="#9a32cd" stroke-dasharray="5,2" d="M309.853,-378C332.333,-378 357.764,-378 380.393,-378"/>
<polygon fill="#9a32cd" stroke="#9a32cd" points="309.753,-374.5 299.753,-378 309.753,-381.5 309.753,-374.5"/>
<text text-anchor="middle" x="340" y="-381" font-family="Helvetica,sans-Serif" font-size="10.00"> elements</text>
</g>
<!-- Node28 -->
<g id="node26" class="node"><title>Node28</title>
<g id="a_node26"><a xlink:href="structant_1_1std__ext_1_1cc__shared__ptr.html" target="_top" xlink:title="ant::std_ext::cc_shared\l_ptr\&lt; TParticle \&gt;">
<polygon fill="white" stroke="black" points="0.5,-363 0.5,-393 119.5,-393 119.5,-363 0.5,-363"/>
<text text-anchor="start" x="8.5" y="-381" font-family="Helvetica,sans-Serif" font-size="10.00">ant::std_ext::cc_shared</text>
<text text-anchor="middle" x="60" y="-370" font-family="Helvetica,sans-Serif" font-size="10.00">_ptr&lt; TParticle &gt;</text>
</a>
</g>
</g>
<!-- Node28&#45;&gt;Node27 -->
<g id="edge28" class="edge"><title>Node28&#45;&gt;Node27</title>
<path fill="none" stroke="#9a32cd" stroke-dasharray="5,2" d="M129.57,-378C151.026,-378 174.326,-378 194.406,-378"/>
<polygon fill="#9a32cd" stroke="#9a32cd" points="129.535,-374.5 119.535,-378 129.535,-381.5 129.535,-374.5"/>
<text text-anchor="middle" x="157" y="-381" font-family="Helvetica,sans-Serif" font-size="10.00"> Particle</text>
</g>
<!-- Node29 -->
<g id="node27" class="node"><title>Node29</title>
<polygon fill="white" stroke="#bfbfbf" points="816,-412 816,-442 942,-442 942,-412 816,-412"/>
<text text-anchor="start" x="824" y="-430" font-family="Helvetica,sans-Serif" font-size="10.00">std::vector&lt; std::function</text>
<text text-anchor="middle" x="879" y="-419" font-family="Helvetica,sans-Serif" font-size="10.00">&lt; void()&gt; &gt;</text>
</g>
<!-- Node29&#45;&gt;Node16 -->
<g id="edge29" class="edge"><title>Node29&#45;&gt;Node16</title>
<path fill="none" stroke="#9a32cd" stroke-dasharray="5,2" d="M951.808,-409.308C983.42,-400.978 1020.83,-390.376 1054,-379 1073.62,-372.272 1095.06,-363.502 1112.3,-356.082"/>
<polygon fill="#9a32cd" stroke="#9a32cd" points="950.552,-406.019 941.76,-411.931 952.32,-412.792 950.552,-406.019"/>
<text text-anchor="middle" x="1015" y="-406" font-family="Helvetica,sans-Serif" font-size="10.00"> sum_daughters</text>
</g>
<!-- Node30 -->
<g id="node28" class="node"><title>Node30</title>
<polygon fill="white" stroke="#bfbfbf" points="809,-170.5 809,-189.5 949,-189.5 949,-170.5 809,-170.5"/>
<text text-anchor="middle" x="879" y="-177.5" font-family="Helvetica,sans-Serif" font-size="10.00">std::vector&lt; permutation_t &gt;</text>
</g>
<!-- Node30&#45;&gt;Node16 -->
<g id="edge30" class="edge"><title>Node30&#45;&gt;Node16</title>
<path fill="none" stroke="#9a32cd" stroke-dasharray="5,2" d="M959.369,-171.147C992.208,-171.777 1028.49,-178.646 1054,-201 1078.16,-222.172 1055.69,-243.323 1072,-271 1085.2,-293.398 1107.64,-313.154 1124.35,-325.917"/>
<polygon fill="#9a32cd" stroke="#9a32cd" points="959.306,-167.647 949.304,-171.141 959.302,-174.647 959.306,-167.647"/>
<text text-anchor="middle" x="1015" y="-204" font-family="Helvetica,sans-Serif" font-size="10.00"> permutations</text>
</g>
<!-- Node31&#45;&gt;Node3 -->
<g id="edge47" class="edge"><title>Node31&#45;&gt;Node3</title>
<path fill="none" stroke="#9a32cd" stroke-dasharray="5,2" d="M708.574,-149.623C768.853,-151.633 870.614,-155.48 958,-161 1000.73,-163.699 1014.38,-152.764 1054,-169 1063.64,-172.949 1062.28,-180.256 1072,-184 1182.25,-226.474 1541.49,-218.217 1679.92,-213.257"/>
<polygon fill="#9a32cd" stroke="#9a32cd" points="708.65,-146.124 698.54,-149.293 708.419,-153.12 708.65,-146.124"/>
<text text-anchor="middle" x="1147" y="-213" font-family="Helvetica,sans-Serif" font-size="10.00"> combs</text>
</g>
<!-- Node31&#45;&gt;Node30 -->
<g id="edge31" class="edge"><title>Node31&#45;&gt;Node30</title>
<path fill="none" stroke="#9a32cd" stroke-dasharray="5,2" d="M708.69,-155.595C739.632,-160.055 779.016,-165.732 812.012,-170.488"/>
<polygon fill="#9a32cd" stroke="#9a32cd" points="708.938,-152.095 698.541,-154.132 707.939,-159.023 708.938,-152.095"/>
<text text-anchor="middle" x="759" y="-169" font-family="Helvetica,sans-Serif" font-size="10.00"> elements</text>
</g>
<!-- Node32 -->
<g id="node30" class="node"><title>Node32</title>
<polygon fill="white" stroke="#bfbfbf" points="800,-324.5 800,-343.5 958,-343.5 958,-324.5 800,-324.5"/>
<text text-anchor="middle" x="879" y="-331.5" font-family="Helvetica,sans-Serif" font-size="10.00">std::vector&lt; node_constraint_t &gt;</text>
</g>
<!-- Node32&#45;&gt;Node16 -->
<g id="edge33" class="edge"><title>Node32&#45;&gt;Node16</title>
<path fill="none" stroke="#9a32cd" stroke-dasharray="5,2" d="M968.07,-336.318C1011.73,-337.466 1062.7,-338.808 1098.87,-339.76"/>
<polygon fill="#9a32cd" stroke="#9a32cd" points="968.1,-332.817 958.011,-336.053 967.916,-339.815 968.1,-332.817"/>
<text text-anchor="middle" x="1015" y="-342" font-family="Helvetica,sans-Serif" font-size="10.00"> node_constraints</text>
</g>
<!-- Node33 -->
<g id="node31" class="node"><title>Node33</title>
<g id="a_node31"><a xlink:href="structant_1_1analysis_1_1physics_1_1_pi0_eta_1_1_pi0_eta_tree__t.html" target="_top" xlink:title="ant::analysis::physics\l::Pi0Eta::Pi0EtaTree_t">
<polygon fill="white" stroke="black" points="1425.5,-152 1425.5,-182 1540.5,-182 1540.5,-152 1425.5,-152"/>
<text text-anchor="start" x="1433.5" y="-170" font-family="Helvetica,sans-Serif" font-size="10.00">ant::analysis::physics</text>
<text text-anchor="middle" x="1483" y="-159" font-family="Helvetica,sans-Serif" font-size="10.00">::Pi0Eta::Pi0EtaTree_t</text>
</a>
</g>
</g>
<!-- Node33&#45;&gt;Node3 -->
<g id="edge34" class="edge"><title>Node33&#45;&gt;Node3</title>
<path fill="none" stroke="#9a32cd" stroke-dasharray="5,2" d="M1550.82,-170.581C1584.46,-173.279 1625.7,-177.954 1662,-186 1673.38,-188.522 1685.45,-192.218 1696.44,-195.997"/>
<polygon fill="#9a32cd" stroke="#9a32cd" points="1550.88,-167.075 1540.64,-169.806 1550.34,-174.055 1550.88,-167.075"/>
<text text-anchor="middle" x="1621" y="-189" font-family="Helvetica,sans-Serif" font-size="10.00"> t</text>
</g>
<!-- Node34 -->
<g id="node32" class="node"><title>Node34</title>
<g id="a_node32"><a xlink:href="classant_1_1_wrap_t_tree.html" target="_top" xlink:title="The WrapTTree struct simplifies TTree handling in physics classes. ">
<polygon fill="white" stroke="black" points="1104.5,-155.5 1104.5,-174.5 1189.5,-174.5 1189.5,-155.5 1104.5,-155.5"/>
<text text-anchor="middle" x="1147" y="-162.5" font-family="Helvetica,sans-Serif" font-size="10.00">ant::WrapTTree</text>
</a>
</g>
</g>
<!-- Node34&#45;&gt;Node33 -->
<g id="edge35" class="edge"><title>Node34&#45;&gt;Node33</title>
<path fill="none" stroke="midnightblue" d="M1199.81,-165.31C1260.92,-165.676 1362.16,-166.282 1425.31,-166.661"/>
<polygon fill="midnightblue" stroke="midnightblue" points="1199.65,-161.809 1189.63,-165.249 1199.6,-168.809 1199.65,-161.809"/>
</g>
<!-- Node35 -->
<g id="node33" class="node"><title>Node35</title>
<polygon fill="white" stroke="#bfbfbf" points="1430,-103 1430,-133 1536,-133 1536,-103 1430,-103"/>
<text text-anchor="start" x="1438" y="-121" font-family="Helvetica,sans-Serif" font-size="10.00">std::map&lt; unsigned,</text>
<text text-anchor="middle" x="1483" y="-110" font-family="Helvetica,sans-Serif" font-size="10.00"> TH1D *&gt;</text>
</g>
<!-- Node35&#45;&gt;Node3 -->
<g id="edge36" class="edge"><title>Node35&#45;&gt;Node3</title>
<path fill="none" stroke="#9a32cd" stroke-dasharray="5,2" d="M1546.47,-126.226C1581.51,-132.339 1625.41,-142.543 1662,-159 1682.86,-168.383 1703.83,-184.136 1717.91,-195.849"/>
<polygon fill="#9a32cd" stroke="#9a32cd" points="1546.81,-122.734 1536.36,-124.534 1545.65,-129.638 1546.81,-122.734"/>
<text text-anchor="middle" x="1621" y="-162" font-family="Helvetica,sans-Serif" font-size="10.00"> stephists</text>
</g>
<!-- Node36 -->
<g id="node34" class="node"><title>Node36</title>
<g id="a_node34"><a xlink:href="classant_1_1analysis_1_1_prompt_random_1_1_switch.html" target="_top" xlink:title="ant::analysis::PromptRandom\l::Switch">
<polygon fill="white" stroke="black" points="1240,-63 1240,-93 1386,-93 1386,-63 1240,-63"/>
<text text-anchor="start" x="1248" y="-81" font-family="Helvetica,sans-Serif" font-size="10.00">ant::analysis::PromptRandom</text>
<text text-anchor="middle" x="1313" y="-70" font-family="Helvetica,sans-Serif" font-size="10.00">::Switch</text>
</a>
</g>
</g>
<!-- Node36&#45;&gt;Node3 -->
<g id="edge38" class="edge"><title>Node36&#45;&gt;Node3</title>
<path fill="none" stroke="#9a32cd" stroke-dasharray="5,2" d="M1396.29,-70.5694C1445.09,-68.3173 1507.81,-69.2075 1562,-82 1609.98,-93.3267 1622.53,-100.463 1662,-130 1687.62,-149.168 1711.22,-178.328 1724.31,-195.935"/>
<polygon fill="#9a32cd" stroke="#9a32cd" points="1395.9,-67.0847 1386.09,-71.0945 1396.26,-74.0754 1395.9,-67.0847"/>
<text text-anchor="middle" x="1483" y="-85" font-family="Helvetica,sans-Serif" font-size="10.00"> promptrandom</text>
</g>
<!-- Node37 -->
<g id="node35" class="node"><title>Node37</title>
<g id="a_node35"><a xlink:href="classant_1_1_piecewise_interval.html" target="_top" xlink:title="ant::PiecewiseInterval\l\&lt; double \&gt;">
<polygon fill="white" stroke="black" points="822.5,-69 822.5,-99 935.5,-99 935.5,-69 822.5,-69"/>
<text text-anchor="start" x="830.5" y="-87" font-family="Helvetica,sans-Serif" font-size="10.00">ant::PiecewiseInterval</text>
<text text-anchor="middle" x="879" y="-76" font-family="Helvetica,sans-Serif" font-size="10.00">&lt; double &gt;</text>
</a>
</g>
</g>
<!-- Node37&#45;&gt;Node36 -->
<g id="edge39" class="edge"><title>Node37&#45;&gt;Node36</title>
<path fill="none" stroke="#9a32cd" stroke-dasharray="5,2" d="M945.935,-83.0842C1025.19,-81.9835 1157.73,-80.1426 1239.71,-79.004"/>
<polygon fill="#9a32cd" stroke="#9a32cd" points="945.542,-79.5893 935.592,-83.2279 945.64,-86.5886 945.542,-79.5893"/>
<text text-anchor="middle" x="1015" y="-97" font-family="Helvetica,sans-Serif" font-size="10.00"> promptw</text>
<text text-anchor="middle" x="1015" y="-86" font-family="Helvetica,sans-Serif" font-size="10.00">randomw</text>
</g>
<!-- Node38&#45;&gt;Node37 -->
<g id="edge40" class="edge"><title>Node38&#45;&gt;Node37</title>
<path fill="none" stroke="midnightblue" d="M717.595,-93.3931C750.426,-91.4706 790.501,-89.1238 822.381,-87.257"/>
<polygon fill="midnightblue" stroke="midnightblue" points="716.988,-89.9225 707.21,-94.0012 717.398,-96.9106 716.988,-89.9225"/>
</g>
<!-- Node39 -->
<g id="node37" class="node"><title>Node39</title>
<g id="a_node37"><a xlink:href="structant_1_1analysis_1_1physics_1_1_pi0_eta_1_1_reaction_channel_list__t.html" target="_top" xlink:title="ant::analysis::physics\l::Pi0Eta::ReactionChannelList_t">
<polygon fill="white" stroke="black" points="1404.5,-6 1404.5,-36 1561.5,-36 1561.5,-6 1404.5,-6"/>
<text text-anchor="start" x="1412.5" y="-24" font-family="Helvetica,sans-Serif" font-size="10.00">ant::analysis::physics</text>
<text text-anchor="middle" x="1483" y="-13" font-family="Helvetica,sans-Serif" font-size="10.00">::Pi0Eta::ReactionChannelList_t</text>
</a>
</g>
</g>
<!-- Node39&#45;&gt;Node3 -->
<g id="edge42" class="edge"><title>Node39&#45;&gt;Node3</title>
<path fill="none" stroke="#9a32cd" stroke-dasharray="5,2" d="M1571.81,-17.5715C1602.94,-20.4295 1636.52,-28.6237 1662,-48 1711.12,-85.3489 1727.98,-163.127 1733.06,-195.911"/>
<polygon fill="#9a32cd" stroke="#9a32cd" points="1572.04,-14.0789 1561.81,-16.8237 1571.52,-21.0594 1572.04,-14.0789"/>
<text text-anchor="middle" x="1621" y="-51" font-family="Helvetica,sans-Serif" font-size="10.00"> reaction_channels</text>
</g>
<!-- Node40 -->
<g id="node38" class="node"><title>Node40</title>
<polygon fill="white" stroke="#bfbfbf" points="1072,-0.5 1072,-41.5 1222,-41.5 1222,-0.5 1072,-0.5"/>
<text text-anchor="start" x="1080" y="-29.5" font-family="Helvetica,sans-Serif" font-size="10.00">std::map&lt; unsigned,</text>
<text text-anchor="start" x="1080" y="-18.5" font-family="Helvetica,sans-Serif" font-size="10.00"> ant::analysis::physics</text>
<text text-anchor="middle" x="1147" y="-7.5" font-family="Helvetica,sans-Serif" font-size="10.00">::Pi0Eta::ReactionChannel_t &gt;</text>
</g>
<!-- Node40&#45;&gt;Node39 -->
<g id="edge43" class="edge"><title>Node40&#45;&gt;Node39</title>
<path fill="none" stroke="#9a32cd" stroke-dasharray="5,2" d="M1232.15,-21C1285.02,-21 1352.72,-21 1404.31,-21"/>
<polygon fill="#9a32cd" stroke="#9a32cd" points="1232.13,-17.5001 1222.13,-21 1232.13,-24.5001 1232.13,-17.5001"/>
<text text-anchor="middle" x="1313" y="-24" font-family="Helvetica,sans-Serif" font-size="10.00"> channels</text>
</g>
<!-- Node41 -->
<g id="node39" class="node"><title>Node41</title>
<g id="a_node39"><a xlink:href="structant_1_1analysis_1_1physics_1_1_pi0_eta_1_1_reaction_channel__t.html" target="_top" xlink:title="ant::analysis::physics\l::Pi0Eta::ReactionChannel_t">
<polygon fill="white" stroke="black" points="808.5,-6 808.5,-36 949.5,-36 949.5,-6 808.5,-6"/>
<text text-anchor="start" x="816.5" y="-24" font-family="Helvetica,sans-Serif" font-size="10.00">ant::analysis::physics</text>
<text text-anchor="middle" x="879" y="-13" font-family="Helvetica,sans-Serif" font-size="10.00">::Pi0Eta::ReactionChannel_t</text>
</a>
</g>
</g>
<!-- Node41&#45;&gt;Node40 -->
<g id="edge44" class="edge"><title>Node41&#45;&gt;Node40</title>
<path fill="none" stroke="#9a32cd" stroke-dasharray="5,2" d="M959.866,-21C995.369,-21 1036.92,-21 1071.74,-21"/>
<polygon fill="#9a32cd" stroke="#9a32cd" points="959.541,-17.5001 949.541,-21 959.541,-24.5001 959.541,-17.5001"/>
<text text-anchor="middle" x="1015" y="-24" font-family="Helvetica,sans-Serif" font-size="10.00"> elements</text>
</g>
<!-- Node42 -->
<g id="node40" class="node"><title>Node42</title>
<g id="a_node40"><a xlink:title="STL class. ">
<polygon fill="white" stroke="#bfbfbf" points="625,-11.5 625,-30.5 685,-30.5 685,-11.5 625,-11.5"/>
<text text-anchor="middle" x="655" y="-18.5" font-family="Helvetica,sans-Serif" font-size="10.00">std::string</text>
</a>
</g>
</g>
<!-- Node42&#45;&gt;Node41 -->
<g id="edge45" class="edge"><title>Node42&#45;&gt;Node41</title>
<path fill="none" stroke="#9a32cd" stroke-dasharray="5,2" d="M695.085,-21C726.354,-21 770.992,-21 808.343,-21"/>
<polygon fill="#9a32cd" stroke="#9a32cd" points="695.023,-17.5001 685.023,-21 695.023,-24.5001 695.023,-17.5001"/>
<text text-anchor="middle" x="759" y="-24" font-family="Helvetica,sans-Serif" font-size="10.00"> name</text>
</g>
<!-- Node43 -->
<g id="node41" class="node"><title>Node43</title>
<g id="a_node41"><a xlink:title="STL class. ">
<polygon fill="white" stroke="#bfbfbf" points="397.5,-6 397.5,-36 492.5,-36 492.5,-6 397.5,-6"/>
<text text-anchor="start" x="405.5" y="-24" font-family="Helvetica,sans-Serif" font-size="10.00">std::basic_string&lt;</text>
<text text-anchor="middle" x="445" y="-13" font-family="Helvetica,sans-Serif" font-size="10.00"> char &gt;</text>
</a>
</g>
</g>
<!-- Node43&#45;&gt;Node42 -->
<g id="edge46" class="edge"><title>Node43&#45;&gt;Node42</title>
<path fill="none" stroke="midnightblue" d="M502.709,-21C542.199,-21 593.247,-21 624.796,-21"/>
<polygon fill="midnightblue" stroke="midnightblue" points="502.679,-17.5001 492.679,-21 502.679,-24.5001 502.679,-17.5001"/>
</g>
</g>
</svg>
