<?xml version="1.0" encoding="UTF-8" standalone="no"?>
<!DOCTYPE svg PUBLIC "-//W3C//DTD SVG 1.1//EN"
 "http://www.w3.org/Graphics/SVG/1.1/DTD/svg11.dtd">
<!-- Generated by graphviz version 2.36.0 (20140111.2315)
 -->
<!-- Title: ant::analysis::physics::Pi0EtaLostG Pages: 1 -->
<svg width="818pt" height="215pt"
 viewBox="0.00 0.00 818.00 215.00" xmlns="http://www.w3.org/2000/svg" xmlns:xlink="http://www.w3.org/1999/xlink">
<g id="graph0" class="graph" transform="scale(1 1) rotate(0) translate(4 211)">
<title>ant::analysis::physics::Pi0EtaLostG</title>
<polygon fill="white" stroke="none" points="-4,4 -4,-211 814,-211 814,4 -4,4"/>
<!-- Node2 -->
<g id="node1" class="node"><title>Node2</title>
<polygon fill="#bfbfbf" stroke="black" points="698,-133 698,-163 810,-163 810,-133 698,-133"/>
<text text-anchor="start" x="706" y="-151" font-family="Helvetica,sans-Serif" font-size="10.00">ant::analysis::physics</text>
<text text-anchor="middle" x="754" y="-140" font-family="Helvetica,sans-Serif" font-size="10.00">::Pi0EtaLostG</text>
</g>
<!-- Node3 -->
<g id="node2" class="node"><title>Node3</title>
<g id="a_node2"><a xlink:href="classant_1_1analysis_1_1_physics.html" target="_top" xlink:title="ant::analysis::Physics">
<polygon fill="white" stroke="black" points="501.5,-182.5 501.5,-201.5 614.5,-201.5 614.5,-182.5 501.5,-182.5"/>
<text text-anchor="middle" x="558" y="-189.5" font-family="Helvetica,sans-Serif" font-size="10.00">ant::analysis::Physics</text>
</a>
</g>
</g>
<!-- Node3&#45;&gt;Node2 -->
<g id="edge1" class="edge"><title>Node3&#45;&gt;Node2</title>
<path fill="none" stroke="midnightblue" d="M611.049,-180.195C637.832,-174.12 670.486,-166.714 697.72,-160.538"/>
<polygon fill="midnightblue" stroke="midnightblue" points="610.073,-176.827 601.095,-182.453 611.622,-183.654 610.073,-176.827"/>
</g>
<!-- Node4 -->
<g id="node3" class="node"><title>Node4</title>
<g id="a_node3"><a xlink:href="classant_1_1analysis_1_1_histogram_factory.html" target="_top" xlink:title="ant::analysis::Histogram\lFactory">
<polygon fill="white" stroke="black" points="287.5,-177 287.5,-207 410.5,-207 410.5,-177 287.5,-177"/>
<text text-anchor="start" x="295.5" y="-195" font-family="Helvetica,sans-Serif" font-size="10.00">ant::analysis::Histogram</text>
<text text-anchor="middle" x="349" y="-184" font-family="Helvetica,sans-Serif" font-size="10.00">Factory</text>
</a>
</g>
</g>
<!-- Node4&#45;&gt;Node3 -->
<g id="edge2" class="edge"><title>Node4&#45;&gt;Node3</title>
<path fill="none" stroke="#9a32cd" stroke-dasharray="5,2" d="M420.974,-192C447.211,-192 476.551,-192 501.247,-192"/>
<polygon fill="#9a32cd" stroke="#9a32cd" points="420.708,-188.5 410.708,-192 420.708,-195.5 420.708,-188.5"/>
<text text-anchor="middle" x="456" y="-195" font-family="Helvetica,sans-Serif" font-size="10.00"> HistFac</text>
</g>
<!-- Node5 -->
<g id="node4" class="node"><title>Node5</title>
<g id="a_node4"><a xlink:href="structant_1_1analysis_1_1physics_1_1_pi0_eta_lost_g_1_1_tree__t.html" target="_top" xlink:title="ant::analysis::physics\l::Pi0EtaLostG::Tree_t">
<polygon fill="white" stroke="black" points="502,-133 502,-163 614,-163 614,-133 502,-133"/>
<text text-anchor="start" x="510" y="-151" font-family="Helvetica,sans-Serif" font-size="10.00">ant::analysis::physics</text>
<text text-anchor="middle" x="558" y="-140" font-family="Helvetica,sans-Serif" font-size="10.00">::Pi0EtaLostG::Tree_t</text>
</a>
</g>
</g>
<!-- Node5&#45;&gt;Node2 -->
<g id="edge3" class="edge"><title>Node5&#45;&gt;Node2</title>
<path fill="none" stroke="#9a32cd" stroke-dasharray="5,2" d="M624.121,-148C648.026,-148 674.837,-148 697.789,-148"/>
<polygon fill="#9a32cd" stroke="#9a32cd" points="624.074,-144.5 614.074,-148 624.074,-151.5 624.074,-144.5"/>
<text text-anchor="middle" x="659" y="-151" font-family="Helvetica,sans-Serif" font-size="10.00"> t</text>
</g>
<!-- Node6 -->
<g id="node5" class="node"><title>Node6</title>
<g id="a_node5"><a xlink:href="classant_1_1_wrap_t_tree.html" target="_top" xlink:title="The WrapTTree struct simplifies TTree handling in physics classes. ">
<polygon fill="white" stroke="black" points="306.5,-138.5 306.5,-157.5 391.5,-157.5 391.5,-138.5 306.5,-138.5"/>
<text text-anchor="middle" x="349" y="-145.5" font-family="Helvetica,sans-Serif" font-size="10.00">ant::WrapTTree</text>
</a>
</g>
</g>
<!-- Node6&#45;&gt;Node5 -->
<g id="edge4" class="edge"><title>Node6&#45;&gt;Node5</title>
<path fill="none" stroke="midnightblue" d="M402.286,-148C432.677,-148 470.944,-148 501.817,-148"/>
<polygon fill="midnightblue" stroke="midnightblue" points="401.89,-144.5 391.89,-148 401.89,-151.5 401.89,-144.5"/>
</g>
<!-- Node7 -->
<g id="node6" class="node"><title>Node7</title>
<polygon fill="white" stroke="#bfbfbf" points="496,-50.5 496,-113.5 620,-113.5 620,-50.5 496,-50.5"/>
<text text-anchor="start" x="504" y="-101.5" font-family="Helvetica,sans-Serif" font-size="10.00">std::map&lt; const ant</text>
<text text-anchor="start" x="504" y="-90.5" font-family="Helvetica,sans-Serif" font-size="10.00">::ParticleTypeDatabase</text>
<text text-anchor="start" x="504" y="-79.5" font-family="Helvetica,sans-Serif" font-size="10.00">::Type *, ant::analysis</text>
<text text-anchor="start" x="504" y="-68.5" font-family="Helvetica,sans-Serif" font-size="10.00">::physics::Pi0EtaLostG::</text>
<text text-anchor="middle" x="558" y="-57.5" font-family="Helvetica,sans-Serif" font-size="10.00">lostCounter &gt;</text>
</g>
<!-- Node7&#45;&gt;Node2 -->
<g id="edge5" class="edge"><title>Node7&#45;&gt;Node2</title>
<path fill="none" stroke="#9a32cd" stroke-dasharray="5,2" d="M629.715,-106.058C656.158,-115.054 685.42,-125.009 708.798,-132.962"/>
<polygon fill="#9a32cd" stroke="#9a32cd" points="630.711,-102.7 620.117,-102.792 628.456,-109.327 630.711,-102.7"/>
<text text-anchor="middle" x="659" y="-126" font-family="Helvetica,sans-Serif" font-size="10.00"> counters</text>
</g>
<!-- Node8 -->
<g id="node7" class="node"><title>Node8</title>
<g id="a_node7"><a xlink:href="structant_1_1analysis_1_1physics_1_1_pi0_eta_lost_g_1_1lost_counter.html" target="_top" xlink:title="ant::analysis::physics\l::Pi0EtaLostG::lostCounter">
<polygon fill="white" stroke="black" points="282,-78 282,-108 416,-108 416,-78 282,-78"/>
<text text-anchor="start" x="290" y="-96" font-family="Helvetica,sans-Serif" font-size="10.00">ant::analysis::physics</text>
<text text-anchor="middle" x="349" y="-85" font-family="Helvetica,sans-Serif" font-size="10.00">::Pi0EtaLostG::lostCounter</text>
</a>
</g>
</g>
<!-- Node8&#45;&gt;Node7 -->
<g id="edge6" class="edge"><title>Node8&#45;&gt;Node7</title>
<path fill="none" stroke="#9a32cd" stroke-dasharray="5,2" d="M426.108,-88.9556C449.052,-87.7364 473.932,-86.4143 495.777,-85.2534"/>
<polygon fill="#9a32cd" stroke="#9a32cd" points="425.865,-85.4635 416.065,-89.4893 426.237,-92.4536 425.865,-85.4635"/>
<text text-anchor="middle" x="456" y="-92" font-family="Helvetica,sans-Serif" font-size="10.00"> elements</text>
</g>
<!-- Node9 -->
<g id="node8" class="node"><title>Node9</title>
<g id="a_node8"><a xlink:title="STL class. ">
<polygon fill="white" stroke="#bfbfbf" points="134,-35.5 134,-54.5 194,-54.5 194,-35.5 134,-35.5"/>
<text text-anchor="middle" x="164" y="-42.5" font-family="Helvetica,sans-Serif" font-size="10.00">std::string</text>
</a>
</g>
</g>
<!-- Node9&#45;&gt;Node8 -->
<g id="edge7" class="edge"><title>Node9&#45;&gt;Node8</title>
<path fill="none" stroke="#9a32cd" stroke-dasharray="5,2" d="M199.363,-57.977C203.594,-59.4123 207.879,-60.79 212,-62 234.539,-68.6177 259.523,-74.6711 281.863,-79.6377"/>
<polygon fill="#9a32cd" stroke="#9a32cd" points="200.286,-54.5914 189.691,-54.5754 197.964,-61.195 200.286,-54.5914"/>
<text text-anchor="middle" x="238" y="-79" font-family="Helvetica,sans-Serif" font-size="10.00"> prefix</text>
</g>
<!-- Node11 -->
<g id="node10" class="node"><title>Node11</title>
<g id="a_node10"><a xlink:href="classant_1_1_particle_type_database_1_1_type.html" target="_top" xlink:title="ant::ParticleTypeDatabase\l::Type">
<polygon fill="white" stroke="black" points="282.5,-0 282.5,-30 415.5,-30 415.5,-0 282.5,-0"/>
<text text-anchor="start" x="290.5" y="-18" font-family="Helvetica,sans-Serif" font-size="10.00">ant::ParticleTypeDatabase</text>
<text text-anchor="middle" x="349" y="-7" font-family="Helvetica,sans-Serif" font-size="10.00">::Type</text>
</a>
</g>
</g>
<!-- Node9&#45;&gt;Node11 -->
<g id="edge10" class="edge"><title>Node9&#45;&gt;Node11</title>
<path fill="none" stroke="#9a32cd" stroke-dasharray="5,2" d="M204.342,-38.5505C227.035,-34.8304 256.154,-30.0568 282.236,-25.781"/>
<polygon fill="#9a32cd" stroke="#9a32cd" points="203.704,-35.1083 194.402,-40.18 204.837,-42.016 203.704,-35.1083"/>
<text text-anchor="middle" x="238" y="-51" font-family="Helvetica,sans-Serif" font-size="10.00"> print_name</text>
<text text-anchor="middle" x="238" y="-40" font-family="Helvetica,sans-Serif" font-size="10.00">name</text>
</g>
<!-- Node10 -->
<g id="node9" class="node"><title>Node10</title>
<g id="a_node9"><a xlink:title="STL class. ">
<polygon fill="white" stroke="#bfbfbf" points="0.5,-30 0.5,-60 95.5,-60 95.5,-30 0.5,-30"/>
<text text-anchor="start" x="8.5" y="-48" font-family="Helvetica,sans-Serif" font-size="10.00">std::basic_string&lt;</text>
<text text-anchor="middle" x="48" y="-37" font-family="Helvetica,sans-Serif" font-size="10.00"> char &gt;</text>
</a>
</g>
</g>
<!-- Node10&#45;&gt;Node9 -->
<g id="edge8" class="edge"><title>Node10&#45;&gt;Node9</title>
<path fill="none" stroke="midnightblue" d="M105.782,-45C115.509,-45 125.243,-45 133.854,-45"/>
<polygon fill="midnightblue" stroke="midnightblue" points="105.697,-41.5001 95.6971,-45 105.697,-48.5001 105.697,-41.5001"/>
</g>
<!-- Node11&#45;&gt;Node7 -->
<g id="edge9" class="edge"><title>Node11&#45;&gt;Node7</title>
<path fill="none" stroke="#9a32cd" stroke-dasharray="5,2" d="M406.011,-33.1293C433.766,-42.1127 467.338,-52.9789 495.77,-62.1818"/>
<polygon fill="#9a32cd" stroke="#9a32cd" points="407.047,-29.7857 396.455,-30.0361 404.891,-36.4455 407.047,-29.7857"/>
<text text-anchor="middle" x="456" y="-58" font-family="Helvetica,sans-Serif" font-size="10.00"> keys</text>
</g>
<!-- Node11&#45;&gt;Node11 -->
<g id="edge11" class="edge"><title>Node11&#45;&gt;Node11</title>
<path fill="none" stroke="#9a32cd" stroke-dasharray="5,2" d="M330.446,-40.5975C332.981,-44.9704 339.166,-48 349,-48 365.562,-48 371.773,-39.4062 367.633,-30.2754"/>
<polygon fill="#9a32cd" stroke="#9a32cd" points="333.944,-40.2483 330.367,-30.2754 326.944,-40.3019 333.944,-40.2483"/>
<text text-anchor="middle" x="349" y="-51" font-family="Helvetica,sans-Serif" font-size="10.00"> sametype</text>
</g>
</g>
</svg>
