<?xml version="1.0" encoding="UTF-8" standalone="no"?>
<!DOCTYPE svg PUBLIC "-//W3C//DTD SVG 1.1//EN"
 "http://www.w3.org/Graphics/SVG/1.1/DTD/svg11.dtd">
<!-- Generated by graphviz version 2.36.0 (20140111.2315)
 -->
<!-- Title: ant::Unpacker::Module Pages: 1 -->
<svg width="243pt" height="84pt"
 viewBox="0.00 0.00 243.00 84.00" xmlns="http://www.w3.org/2000/svg" xmlns:xlink="http://www.w3.org/1999/xlink">
<g id="graph0" class="graph" transform="scale(1 1) rotate(0) translate(4 80)">
<title>ant::Unpacker::Module</title>
<polygon fill="white" stroke="none" points="-4,4 -4,-80 239,-80 239,4 -4,4"/>
<!-- Node0 -->
<g id="node1" class="node"><title>Node0</title>
<polygon fill="#bfbfbf" stroke="black" points="63,-56.5 63,-75.5 179,-75.5 179,-56.5 63,-56.5"/>
<text text-anchor="middle" x="121" y="-63.5" font-family="Helvetica,sans-Serif" font-size="10.00">ant::Unpacker::Module</text>
</g>
<!-- Node1 -->
<g id="node2" class="node"><title>Node1</title>
<g id="a_node2"><a xlink:href="classant_1_1_unpacker_a2_geant.html" target="_top" xlink:title="The UnpackerA2Geant class. ">
<polygon fill="white" stroke="black" points="0,-0.5 0,-19.5 116,-19.5 116,-0.5 0,-0.5"/>
<text text-anchor="middle" x="58" y="-7.5" font-family="Helvetica,sans-Serif" font-size="10.00">ant::UnpackerA2Geant</text>
</a>
</g>
</g>
<!-- Node0&#45;&gt;Node1 -->
<g id="edge1" class="edge"><title>Node0&#45;&gt;Node1</title>
<path fill="none" stroke="midnightblue" d="M102.96,-49.5372C91.7269,-39.9087 77.6809,-27.8694 68.3062,-19.8339"/>
<polygon fill="midnightblue" stroke="midnightblue" points="101.008,-52.4734 110.878,-56.324 105.563,-47.1586 101.008,-52.4734"/>
</g>
<!-- Node2 -->
<g id="node3" class="node"><title>Node2</title>
<g id="a_node3"><a xlink:href="classant_1_1_unpacker_acqu.html" target="_top" xlink:title="ant::UnpackerAcqu">
<polygon fill="white" stroke="black" points="134.5,-0.5 134.5,-19.5 235.5,-19.5 235.5,-0.5 134.5,-0.5"/>
<text text-anchor="middle" x="185" y="-7.5" font-family="Helvetica,sans-Serif" font-size="10.00">ant::UnpackerAcqu</text>
</a>
</g>
</g>
<!-- Node0&#45;&gt;Node2 -->
<g id="edge2" class="edge"><title>Node0&#45;&gt;Node2</title>
<path fill="none" stroke="midnightblue" d="M138.991,-49.8197C150.458,-40.1452 164.913,-27.9481 174.53,-19.8339"/>
<polygon fill="midnightblue" stroke="midnightblue" points="136.669,-47.2002 131.283,-56.324 141.183,-52.5502 136.669,-47.2002"/>
</g>
</g>
</svg>
