<?xml version="1.0" encoding="UTF-8" standalone="no"?>
<!DOCTYPE svg PUBLIC "-//W3C//DTD SVG 1.1//EN"
 "http://www.w3.org/Graphics/SVG/1.1/DTD/svg11.dtd">
<!-- Generated by graphviz version 2.36.0 (20140111.2315)
 -->
<!-- Title: ant::analysis::physics::scratch_lheijken_checktagger Pages: 1 -->
<svg width="868pt" height="190pt"
 viewBox="0.00 0.00 868.00 190.00" xmlns="http://www.w3.org/2000/svg" xmlns:xlink="http://www.w3.org/1999/xlink">
<g id="graph0" class="graph" transform="scale(1 1) rotate(0) translate(4 186)">
<title>ant::analysis::physics::scratch_lheijken_checktagger</title>
<polygon fill="white" stroke="none" points="-4,4 -4,-186 864,-186 864,4 -4,4"/>
<!-- Node2 -->
<g id="node1" class="node"><title>Node2</title>
<polygon fill="#bfbfbf" stroke="black" points="708,-71 708,-101 860,-101 860,-71 708,-71"/>
<text text-anchor="start" x="716" y="-89" font-family="Helvetica,sans-Serif" font-size="10.00">ant::analysis::physics</text>
<text text-anchor="middle" x="784" y="-78" font-family="Helvetica,sans-Serif" font-size="10.00">::scratch_lheijken_checktagger</text>
</g>
<!-- Node3 -->
<g id="node2" class="node"><title>Node3</title>
<g id="a_node2"><a xlink:href="classant_1_1analysis_1_1_physics.html" target="_top" xlink:title="ant::analysis::Physics">
<polygon fill="white" stroke="black" points="473.5,-157.5 473.5,-176.5 586.5,-176.5 586.5,-157.5 473.5,-157.5"/>
<text text-anchor="middle" x="530" y="-164.5" font-family="Helvetica,sans-Serif" font-size="10.00">ant::analysis::Physics</text>
</a>
</g>
</g>
<!-- Node3&#45;&gt;Node2 -->
<g id="edge1" class="edge"><title>Node3&#45;&gt;Node2</title>
<path fill="none" stroke="midnightblue" d="M577.982,-154.777C587.285,-152.271 596.966,-149.602 606,-147 643.555,-136.185 653.029,-133.666 690,-121 707.952,-114.85 727.647,-107.523 744.273,-101.166"/>
<polygon fill="midnightblue" stroke="midnightblue" points="576.841,-151.459 568.083,-157.422 578.648,-158.222 576.841,-151.459"/>
</g>
<!-- Node4 -->
<g id="node3" class="node"><title>Node4</title>
<g id="a_node3"><a xlink:href="classant_1_1analysis_1_1_histogram_factory.html" target="_top" xlink:title="ant::analysis::Histogram\lFactory">
<polygon fill="white" stroke="black" points="252.5,-152 252.5,-182 375.5,-182 375.5,-152 252.5,-152"/>
<text text-anchor="start" x="260.5" y="-170" font-family="Helvetica,sans-Serif" font-size="10.00">ant::analysis::Histogram</text>
<text text-anchor="middle" x="314" y="-159" font-family="Helvetica,sans-Serif" font-size="10.00">Factory</text>
</a>
</g>
</g>
<!-- Node4&#45;&gt;Node3 -->
<g id="edge2" class="edge"><title>Node4&#45;&gt;Node3</title>
<path fill="none" stroke="#9a32cd" stroke-dasharray="5,2" d="M386.014,-167C414.388,-167 446.582,-167 473.228,-167"/>
<polygon fill="#9a32cd" stroke="#9a32cd" points="385.751,-163.5 375.751,-167 385.751,-170.5 385.751,-163.5"/>
<text text-anchor="middle" x="415" y="-170" font-family="Helvetica,sans-Serif" font-size="10.00"> HistFac</text>
</g>
<!-- Node5 -->
<g id="node4" class="node"><title>Node5</title>
<g id="a_node4"><a xlink:href="structant_1_1analysis_1_1physics_1_1scratch__lheijken__checktagger_1_1_tagg_hit_tree__t.html" target="_top" xlink:title="ant::analysis::physics\l::scratch_lheijken_checktagger\l::TaggHitTree_t">
<polygon fill="white" stroke="black" points="454,-97.5 454,-138.5 606,-138.5 606,-97.5 454,-97.5"/>
<text text-anchor="start" x="462" y="-126.5" font-family="Helvetica,sans-Serif" font-size="10.00">ant::analysis::physics</text>
<text text-anchor="start" x="462" y="-115.5" font-family="Helvetica,sans-Serif" font-size="10.00">::scratch_lheijken_checktagger</text>
<text text-anchor="middle" x="530" y="-104.5" font-family="Helvetica,sans-Serif" font-size="10.00">::TaggHitTree_t</text>
</a>
</g>
</g>
<!-- Node5&#45;&gt;Node2 -->
<g id="edge3" class="edge"><title>Node5&#45;&gt;Node2</title>
<path fill="none" stroke="#9a32cd" stroke-dasharray="5,2" d="M616.572,-107.134C646.13,-103.38 679.01,-99.2051 707.686,-95.5637"/>
<polygon fill="#9a32cd" stroke="#9a32cd" points="615.746,-103.71 606.267,-108.442 616.628,-110.655 615.746,-103.71"/>
<text text-anchor="middle" x="657" y="-109" font-family="Helvetica,sans-Serif" font-size="10.00"> TaggHitTree</text>
</g>
<!-- Node6 -->
<g id="node5" class="node"><title>Node6</title>
<g id="a_node5"><a xlink:href="classant_1_1_wrap_t_tree.html" target="_top" xlink:title="The WrapTTree struct simplifies TTree handling in physics classes. ">
<polygon fill="white" stroke="black" points="271.5,-108.5 271.5,-127.5 356.5,-127.5 356.5,-108.5 271.5,-108.5"/>
<text text-anchor="middle" x="314" y="-115.5" font-family="Helvetica,sans-Serif" font-size="10.00">ant::WrapTTree</text>
</a>
</g>
</g>
<!-- Node6&#45;&gt;Node5 -->
<g id="edge4" class="edge"><title>Node6&#45;&gt;Node5</title>
<path fill="none" stroke="midnightblue" d="M366.582,-118C392.726,-118 424.966,-118 453.813,-118"/>
<polygon fill="midnightblue" stroke="midnightblue" points="366.515,-114.5 356.515,-118 366.515,-121.5 366.515,-114.5"/>
</g>
<!-- Node7 -->
<g id="node6" class="node"><title>Node7</title>
<g id="a_node6"><a xlink:href="classant_1_1analysis_1_1utils_1_1_trigger_simulation.html" target="_top" xlink:title="ant::analysis::utils\l::TriggerSimulation">
<polygon fill="white" stroke="black" points="481,-49 481,-79 579,-79 579,-49 481,-49"/>
<text text-anchor="start" x="489" y="-67" font-family="Helvetica,sans-Serif" font-size="10.00">ant::analysis::utils</text>
<text text-anchor="middle" x="530" y="-56" font-family="Helvetica,sans-Serif" font-size="10.00">::TriggerSimulation</text>
</a>
</g>
</g>
<!-- Node7&#45;&gt;Node2 -->
<g id="edge5" class="edge"><title>Node7&#45;&gt;Node2</title>
<path fill="none" stroke="#9a32cd" stroke-dasharray="5,2" d="M589.383,-67.3568C619.468,-69.2595 656.731,-71.8835 690,-75 695.828,-75.5459 701.855,-76.1558 707.911,-76.8009"/>
<polygon fill="#9a32cd" stroke="#9a32cd" points="589.257,-63.8423 579.059,-66.7143 588.822,-70.8288 589.257,-63.8423"/>
<text text-anchor="middle" x="657" y="-78" font-family="Helvetica,sans-Serif" font-size="10.00"> triggersimu</text>
</g>
<!-- Node8 -->
<g id="node7" class="node"><title>Node8</title>
<g id="a_node7"><a xlink:href="classant_1_1analysis_1_1_prompt_random_1_1_switch.html" target="_top" xlink:title="ant::analysis::PromptRandom\l::Switch">
<polygon fill="white" stroke="black" points="457,-0 457,-30 603,-30 603,-0 457,-0"/>
<text text-anchor="start" x="465" y="-18" font-family="Helvetica,sans-Serif" font-size="10.00">ant::analysis::PromptRandom</text>
<text text-anchor="middle" x="530" y="-7" font-family="Helvetica,sans-Serif" font-size="10.00">::Switch</text>
</a>
</g>
</g>
<!-- Node8&#45;&gt;Node2 -->
<g id="edge6" class="edge"><title>Node8&#45;&gt;Node2</title>
<path fill="none" stroke="#9a32cd" stroke-dasharray="5,2" d="M605.572,-32.5302C632.318,-39.1414 662.622,-47.0056 690,-55 706.5,-59.8181 724.457,-65.6598 740.152,-70.9673"/>
<polygon fill="#9a32cd" stroke="#9a32cd" points="606.055,-29.045 595.509,-30.0601 604.386,-35.8432 606.055,-29.045"/>
<text text-anchor="middle" x="657" y="-58" font-family="Helvetica,sans-Serif" font-size="10.00"> promptrandom</text>
</g>
<!-- Node9 -->
<g id="node8" class="node"><title>Node9</title>
<g id="a_node8"><a xlink:href="classant_1_1_piecewise_interval.html" target="_top" xlink:title="ant::PiecewiseInterval\l\&lt; double \&gt;">
<polygon fill="white" stroke="black" points="257.5,-0 257.5,-30 370.5,-30 370.5,-0 257.5,-0"/>
<text text-anchor="start" x="265.5" y="-18" font-family="Helvetica,sans-Serif" font-size="10.00">ant::PiecewiseInterval</text>
<text text-anchor="middle" x="314" y="-7" font-family="Helvetica,sans-Serif" font-size="10.00">&lt; double &gt;</text>
</a>
</g>
</g>
<!-- Node9&#45;&gt;Node8 -->
<g id="edge7" class="edge"><title>Node9&#45;&gt;Node8</title>
<path fill="none" stroke="#9a32cd" stroke-dasharray="5,2" d="M380.749,-15C404.781,-15 432.091,-15 456.666,-15"/>
<polygon fill="#9a32cd" stroke="#9a32cd" points="380.667,-11.5001 370.667,-15 380.667,-18.5001 380.667,-11.5001"/>
<text text-anchor="middle" x="415" y="-29" font-family="Helvetica,sans-Serif" font-size="10.00"> promptw</text>
<text text-anchor="middle" x="415" y="-18" font-family="Helvetica,sans-Serif" font-size="10.00">randomw</text>
</g>
<!-- Node10 -->
<g id="node9" class="node"><title>Node10</title>
<g id="a_node9"><a xlink:title="STL class. ">
<polygon fill="white" stroke="#bfbfbf" points="110,-0 110,-30 214,-30 214,-0 110,-0"/>
<text text-anchor="start" x="118" y="-18" font-family="Helvetica,sans-Serif" font-size="10.00">std::vector&lt; interval</text>
<text text-anchor="middle" x="162" y="-7" font-family="Helvetica,sans-Serif" font-size="10.00">&lt; double &gt; &gt;</text>
</a>
</g>
</g>
<!-- Node10&#45;&gt;Node9 -->
<g id="edge8" class="edge"><title>Node10&#45;&gt;Node9</title>
<path fill="none" stroke="midnightblue" d="M224.498,-15C235.396,-15 246.686,-15 257.409,-15"/>
<polygon fill="midnightblue" stroke="midnightblue" points="224.202,-11.5001 214.202,-15 224.202,-18.5001 224.202,-11.5001"/>
</g>
<!-- Node11 -->
<g id="node10" class="node"><title>Node11</title>
<polygon fill="white" stroke="#bfbfbf" points="0.5,-5.5 0.5,-24.5 29.5,-24.5 29.5,-5.5 0.5,-5.5"/>
<text text-anchor="middle" x="15" y="-12.5" font-family="Helvetica,sans-Serif" font-size="10.00">T</text>
</g>
<!-- Node11&#45;&gt;Node10 -->
<g id="edge9" class="edge"><title>Node11&#45;&gt;Node10</title>
<path fill="none" stroke="#9a32cd" stroke-dasharray="5,2" d="M39.7626,-15C58.7294,-15 85.9845,-15 109.851,-15"/>
<polygon fill="#9a32cd" stroke="#9a32cd" points="39.6413,-11.5001 29.6412,-15 39.6412,-18.5001 39.6413,-11.5001"/>
<text text-anchor="middle" x="70" y="-18" font-family="Helvetica,sans-Serif" font-size="10.00"> elements</text>
</g>
</g>
</svg>
