<?xml version="1.0" encoding="UTF-8" standalone="no"?>
<!DOCTYPE svg PUBLIC "-//W3C//DTD SVG 1.1//EN"
 "http://www.w3.org/Graphics/SVG/1.1/DTD/svg11.dtd">
<!-- Generated by graphviz version 2.36.0 (20140111.2315)
 -->
<!-- Title: ant::analysis::physics::ParticleIDCheck Pages: 1 -->
<svg width="550pt" height="153pt"
 viewBox="0.00 0.00 550.00 153.00" xmlns="http://www.w3.org/2000/svg" xmlns:xlink="http://www.w3.org/1999/xlink">
<g id="graph0" class="graph" transform="scale(1 1) rotate(0) translate(4 149)">
<title>ant::analysis::physics::ParticleIDCheck</title>
<polygon fill="white" stroke="none" points="-4,4 -4,-149 546,-149 546,4 -4,4"/>
<!-- Node2 -->
<g id="node1" class="node"><title>Node2</title>
<polygon fill="#bfbfbf" stroke="black" points="430,-71 430,-101 542,-101 542,-71 430,-71"/>
<text text-anchor="start" x="438" y="-89" font-family="Helvetica,sans-Serif" font-size="10.00">ant::analysis::physics</text>
<text text-anchor="middle" x="486" y="-78" font-family="Helvetica,sans-Serif" font-size="10.00">::ParticleIDCheck</text>
</g>
<!-- Node3 -->
<g id="node2" class="node"><title>Node3</title>
<g id="a_node2"><a xlink:href="classant_1_1analysis_1_1_physics.html" target="_top" xlink:title="ant::analysis::Physics">
<polygon fill="white" stroke="black" points="219.5,-120.5 219.5,-139.5 332.5,-139.5 332.5,-120.5 219.5,-120.5"/>
<text text-anchor="middle" x="276" y="-127.5" font-family="Helvetica,sans-Serif" font-size="10.00">ant::analysis::Physics</text>
</a>
</g>
</g>
<!-- Node3&#45;&gt;Node2 -->
<g id="edge1" class="edge"><title>Node3&#45;&gt;Node2</title>
<path fill="none" stroke="midnightblue" d="M342.658,-124.046C364.863,-121.293 389.679,-117.4 412,-112 423.769,-109.153 436.285,-105.094 447.569,-101.028"/>
<polygon fill="midnightblue" stroke="midnightblue" points="342.176,-120.579 332.658,-125.232 343,-127.53 342.176,-120.579"/>
</g>
<!-- Node4 -->
<g id="node3" class="node"><title>Node4</title>
<g id="a_node3"><a xlink:href="classant_1_1analysis_1_1_histogram_factory.html" target="_top" xlink:title="ant::analysis::Histogram\lFactory">
<polygon fill="white" stroke="black" points="0.5,-115 0.5,-145 123.5,-145 123.5,-115 0.5,-115"/>
<text text-anchor="start" x="8.5" y="-133" font-family="Helvetica,sans-Serif" font-size="10.00">ant::analysis::Histogram</text>
<text text-anchor="middle" x="62" y="-122" font-family="Helvetica,sans-Serif" font-size="10.00">Factory</text>
</a>
</g>
</g>
<!-- Node4&#45;&gt;Node3 -->
<g id="edge2" class="edge"><title>Node4&#45;&gt;Node3</title>
<path fill="none" stroke="#9a32cd" stroke-dasharray="5,2" d="M133.825,-130C161.665,-130 193.155,-130 219.319,-130"/>
<polygon fill="#9a32cd" stroke="#9a32cd" points="133.751,-126.5 123.751,-130 133.751,-133.5 133.751,-126.5"/>
<text text-anchor="middle" x="161" y="-133" font-family="Helvetica,sans-Serif" font-size="10.00"> HistFac</text>
</g>
<!-- Node5 -->
<g id="node4" class="node"><title>Node5</title>
<g id="a_node4"><a xlink:href="structant_1_1analysis_1_1physics_1_1_particle_i_d_check_1_1branch__hists.html" target="_top" xlink:title="ant::analysis::physics\l::ParticleIDCheck::branch_hists">
<polygon fill="white" stroke="black" points="198,-71 198,-101 354,-101 354,-71 198,-71"/>
<text text-anchor="start" x="206" y="-89" font-family="Helvetica,sans-Serif" font-size="10.00">ant::analysis::physics</text>
<text text-anchor="middle" x="276" y="-78" font-family="Helvetica,sans-Serif" font-size="10.00">::ParticleIDCheck::branch_hists</text>
</a>
</g>
</g>
<!-- Node5&#45;&gt;Node2 -->
<g id="edge3" class="edge"><title>Node5&#45;&gt;Node2</title>
<path fill="none" stroke="#9a32cd" stroke-dasharray="5,2" d="M364.255,-86C386.429,-86 409.646,-86 429.73,-86"/>
<polygon fill="#9a32cd" stroke="#9a32cd" points="364.156,-82.5001 354.156,-86 364.156,-89.5001 364.156,-82.5001"/>
<text text-anchor="middle" x="392" y="-100" font-family="Helvetica,sans-Serif" font-size="10.00"> mctrue</text>
<text text-anchor="middle" x="392" y="-89" font-family="Helvetica,sans-Serif" font-size="10.00">rec</text>
</g>
<!-- Node6 -->
<g id="node5" class="node"><title>Node6</title>
<polygon fill="white" stroke="#bfbfbf" points="216,-0 216,-52 336,-52 336,-0 216,-0"/>
<text text-anchor="start" x="224" y="-40" font-family="Helvetica,sans-Serif" font-size="10.00">std::vector&lt; std::tuple</text>
<text text-anchor="start" x="224" y="-29" font-family="Helvetica,sans-Serif" font-size="10.00">&lt; ant::interval&lt; double</text>
<text text-anchor="start" x="224" y="-18" font-family="Helvetica,sans-Serif" font-size="10.00"> &gt;, ant::interval&lt; double</text>
<text text-anchor="middle" x="276" y="-7" font-family="Helvetica,sans-Serif" font-size="10.00"> &gt;, TH2D *&gt; &gt;</text>
</g>
<!-- Node6&#45;&gt;Node2 -->
<g id="edge4" class="edge"><title>Node6&#45;&gt;Node2</title>
<path fill="none" stroke="#9a32cd" stroke-dasharray="5,2" d="M345.898,-45.8743C374.255,-54.0543 406.556,-63.372 432.89,-70.9683"/>
<polygon fill="#9a32cd" stroke="#9a32cd" points="346.626,-42.4419 336.048,-43.0331 344.686,-49.1677 346.626,-42.4419"/>
<text text-anchor="middle" x="392" y="-68" font-family="Helvetica,sans-Serif" font-size="10.00"> bananas</text>
</g>
</g>
</svg>
