<?xml version="1.0" encoding="UTF-8" standalone="no"?>
<!DOCTYPE svg PUBLIC "-//W3C//DTD SVG 1.1//EN"
 "http://www.w3.org/Graphics/SVG/1.1/DTD/svg11.dtd">
<!-- Generated by graphviz version 2.36.0 (20140111.2315)
 -->
<!-- Title: ant::ParticleTypeDatabase::Type Pages: 1 -->
<svg width="204pt" height="188pt"
 viewBox="0.00 0.00 204.00 188.00" xmlns="http://www.w3.org/2000/svg" xmlns:xlink="http://www.w3.org/1999/xlink">
<g id="graph0" class="graph" transform="scale(1 1) rotate(0) translate(4 184)">
<title>ant::ParticleTypeDatabase::Type</title>
<polygon fill="white" stroke="none" points="-4,4 -4,-184 200,-184 200,4 -4,4"/>
<!-- Node1 -->
<g id="node1" class="node"><title>Node1</title>
<polygon fill="#bfbfbf" stroke="black" points="-0.5,-1 -0.5,-31 132.5,-31 132.5,-1 -0.5,-1"/>
<text text-anchor="start" x="7.5" y="-19" font-family="Helvetica,sans-Serif" font-size="10.00">ant::ParticleTypeDatabase</text>
<text text-anchor="middle" x="66" y="-8" font-family="Helvetica,sans-Serif" font-size="10.00">::Type</text>
</g>
<!-- Node1&#45;&gt;Node1 -->
<g id="edge3" class="edge"><title>Node1&#45;&gt;Node1</title>
<path fill="none" stroke="#9a32cd" stroke-dasharray="5,2" d="M142.629,-21.7027C147.236,-20.3448 150,-18.4438 150,-16 150,-12.0898 142.924,-9.56963 132.545,-8.43935"/>
<polygon fill="#9a32cd" stroke="#9a32cd" points="141.745,-18.3066 132.545,-23.5607 143.014,-25.1907 141.745,-18.3066"/>
<text text-anchor="middle" x="173" y="-13.5" font-family="Helvetica,sans-Serif" font-size="10.00"> sametype</text>
</g>
<!-- Node2 -->
<g id="node2" class="node"><title>Node2</title>
<g id="a_node2"><a xlink:title="STL class. ">
<polygon fill="white" stroke="#bfbfbf" points="36,-90.5 36,-109.5 96,-109.5 96,-90.5 36,-90.5"/>
<text text-anchor="middle" x="66" y="-97.5" font-family="Helvetica,sans-Serif" font-size="10.00">std::string</text>
</a>
</g>
</g>
<!-- Node2&#45;&gt;Node1 -->
<g id="edge1" class="edge"><title>Node2&#45;&gt;Node1</title>
<path fill="none" stroke="#9a32cd" stroke-dasharray="5,2" d="M66,-80.1139C66,-65.2014 66,-44.7195 66,-31.1839"/>
<polygon fill="#9a32cd" stroke="#9a32cd" points="62.5001,-80.2245 66,-90.2246 69.5001,-80.2246 62.5001,-80.2245"/>
<text text-anchor="middle" x="92" y="-64" font-family="Helvetica,sans-Serif" font-size="10.00"> print_name</text>
<text text-anchor="middle" x="92" y="-53" font-family="Helvetica,sans-Serif" font-size="10.00">name</text>
</g>
<!-- Node3 -->
<g id="node3" class="node"><title>Node3</title>
<g id="a_node3"><a xlink:title="STL class. ">
<polygon fill="white" stroke="#bfbfbf" points="18.5,-149 18.5,-179 113.5,-179 113.5,-149 18.5,-149"/>
<text text-anchor="start" x="26.5" y="-167" font-family="Helvetica,sans-Serif" font-size="10.00">std::basic_string&lt;</text>
<text text-anchor="middle" x="66" y="-156" font-family="Helvetica,sans-Serif" font-size="10.00"> char &gt;</text>
</a>
</g>
</g>
<!-- Node3&#45;&gt;Node2 -->
<g id="edge2" class="edge"><title>Node3&#45;&gt;Node2</title>
<path fill="none" stroke="midnightblue" d="M66,-138.871C66,-128.663 66,-117.408 66,-109.842"/>
<polygon fill="midnightblue" stroke="midnightblue" points="62.5001,-138.931 66,-148.931 69.5001,-138.931 62.5001,-138.931"/>
</g>
</g>
</svg>
