<?xml version="1.0" encoding="UTF-8" standalone="no"?>
<!DOCTYPE svg PUBLIC "-//W3C//DTD SVG 1.1//EN"
 "http://www.w3.org/Graphics/SVG/1.1/DTD/svg11.dtd">
<!-- Generated by graphviz version 2.36.0 (20140111.2315)
 -->
<!-- Title: ant::calibration::gui::KnobsTF1::ParameterKnob Pages: 1 -->
<svg width="740pt" height="87pt"
 viewBox="0.00 0.00 740.00 87.00" xmlns="http://www.w3.org/2000/svg" xmlns:xlink="http://www.w3.org/1999/xlink">
<g id="graph0" class="graph" transform="scale(1 1) rotate(0) translate(4 83)">
<title>ant::calibration::gui::KnobsTF1::ParameterKnob</title>
<polygon fill="white" stroke="none" points="-4,4 -4,-83 736,-83 736,4 -4,4"/>
<!-- Node0 -->
<g id="node1" class="node"><title>Node0</title>
<polygon fill="#bfbfbf" stroke="black" points="136.5,-24 136.5,-54 277.5,-54 277.5,-24 136.5,-24"/>
<text text-anchor="start" x="144.5" y="-42" font-family="Helvetica,sans-Serif" font-size="10.00">ant::calibration::gui</text>
<text text-anchor="middle" x="207" y="-31" font-family="Helvetica,sans-Serif" font-size="10.00">::KnobsTF1::ParameterKnob</text>
</g>
<!-- Node2 -->
<g id="node3" class="node"><title>Node2</title>
<g id="a_node3"><a xlink:href="classant_1_1calibration_1_1gui_1_1_knobs_t_f1_1_1_ranged_parameter_knob.html" target="_top" xlink:title="ant::calibration::gui\l::KnobsTF1::RangedParameterKnob">
<polygon fill="white" stroke="black" points="324.5,-49 324.5,-79 499.5,-79 499.5,-49 324.5,-49"/>
<text text-anchor="start" x="332.5" y="-67" font-family="Helvetica,sans-Serif" font-size="10.00">ant::calibration::gui</text>
<text text-anchor="middle" x="412" y="-56" font-family="Helvetica,sans-Serif" font-size="10.00">::KnobsTF1::RangedParameterKnob</text>
</a>
</g>
</g>
<!-- Node0&#45;&gt;Node2 -->
<g id="edge2" class="edge"><title>Node0&#45;&gt;Node2</title>
<path fill="none" stroke="midnightblue" d="M287.578,-48.8002C299.623,-50.2836 312.101,-51.8203 324.288,-53.3212"/>
<polygon fill="midnightblue" stroke="midnightblue" points="287.93,-45.3172 277.577,-47.5686 287.074,-52.2647 287.93,-45.3172"/>
</g>
<!-- Node3 -->
<g id="node4" class="node"><title>Node3</title>
<g id="a_node4"><a xlink:href="classant_1_1calibration_1_1gui_1_1_knobs_t_f1_1_1_transformed_parameter_knob.html" target="_top" xlink:title="ant::calibration::gui\l::KnobsTF1::TransformedParameterKnob">
<polygon fill="white" stroke="black" points="314,-0 314,-30 510,-30 510,-0 314,-0"/>
<text text-anchor="start" x="322" y="-18" font-family="Helvetica,sans-Serif" font-size="10.00">ant::calibration::gui</text>
<text text-anchor="middle" x="412" y="-7" font-family="Helvetica,sans-Serif" font-size="10.00">::KnobsTF1::TransformedParameterKnob</text>
</a>
</g>
</g>
<!-- Node0&#45;&gt;Node3 -->
<g id="edge3" class="edge"><title>Node0&#45;&gt;Node3</title>
<path fill="none" stroke="midnightblue" d="M287.589,-29.5905C296.217,-28.5704 305.068,-27.524 313.874,-26.4828"/>
<polygon fill="midnightblue" stroke="midnightblue" points="287.097,-26.1242 277.577,-30.7741 287.919,-33.0758 287.097,-26.1242"/>
</g>
<!-- Node1 -->
<g id="node2" class="node"><title>Node1</title>
<g id="a_node2"><a xlink:href="classant_1_1calibration_1_1gui_1_1_indicator_knob.html" target="_top" xlink:title="ant::calibration::gui\l::IndicatorKnob">
<polygon fill="white" stroke="black" points="0.5,-24 0.5,-54 99.5,-54 99.5,-24 0.5,-24"/>
<text text-anchor="start" x="8.5" y="-42" font-family="Helvetica,sans-Serif" font-size="10.00">ant::calibration::gui</text>
<text text-anchor="middle" x="50" y="-31" font-family="Helvetica,sans-Serif" font-size="10.00">::IndicatorKnob</text>
</a>
</g>
</g>
<!-- Node1&#45;&gt;Node0 -->
<g id="edge1" class="edge"><title>Node1&#45;&gt;Node0</title>
<path fill="none" stroke="midnightblue" d="M109.643,-39C118.339,-39 127.372,-39 136.268,-39"/>
<polygon fill="midnightblue" stroke="midnightblue" points="109.618,-35.5001 99.6177,-39 109.618,-42.5001 109.618,-35.5001"/>
</g>
<!-- Node4 -->
<g id="node5" class="node"><title>Node4</title>
<g id="a_node5"><a xlink:href="classant_1_1calibration_1_1gui_1_1_knobs_t_f1_1_1_reference_parameter_knob.html" target="_top" xlink:title="ant::calibration::gui\l::KnobsTF1::ReferenceParameterKnob">
<polygon fill="white" stroke="black" points="546,-0 546,-30 732,-30 732,-0 546,-0"/>
<text text-anchor="start" x="554" y="-18" font-family="Helvetica,sans-Serif" font-size="10.00">ant::calibration::gui</text>
<text text-anchor="middle" x="639" y="-7" font-family="Helvetica,sans-Serif" font-size="10.00">::KnobsTF1::ReferenceParameterKnob</text>
</a>
</g>
</g>
<!-- Node3&#45;&gt;Node4 -->
<g id="edge4" class="edge"><title>Node3&#45;&gt;Node4</title>
<path fill="none" stroke="midnightblue" d="M520.132,-15C528.744,-15 537.399,-15 545.893,-15"/>
<polygon fill="midnightblue" stroke="midnightblue" points="520.053,-11.5001 510.053,-15 520.053,-18.5001 520.053,-11.5001"/>
</g>
</g>
</svg>
