<?xml version="1.0" encoding="UTF-8" standalone="no"?>
<!DOCTYPE svg PUBLIC "-//W3C//DTD SVG 1.1//EN"
 "http://www.w3.org/Graphics/SVG/1.1/DTD/svg11.dtd">
<!-- Generated by graphviz version 2.36.0 (20140111.2315)
 -->
<!-- Title: ant::calibration::gui::PeakingFitFunction Pages: 1 -->
<svg width="594pt" height="480pt"
 viewBox="0.00 0.00 594.00 480.00" xmlns="http://www.w3.org/2000/svg" xmlns:xlink="http://www.w3.org/1999/xlink">
<g id="graph0" class="graph" transform="scale(1 1) rotate(0) translate(4 476)">
<title>ant::calibration::gui::PeakingFitFunction</title>
<polygon fill="white" stroke="none" points="-4,4 -4,-476 590,-476 590,4 -4,4"/>
<!-- Node0 -->
<g id="node1" class="node"><title>Node0</title>
<polygon fill="#bfbfbf" stroke="black" points="136.5,-196 136.5,-226 243.5,-226 243.5,-196 136.5,-196"/>
<text text-anchor="start" x="144.5" y="-214" font-family="Helvetica,sans-Serif" font-size="10.00">ant::calibration::gui</text>
<text text-anchor="middle" x="190" y="-203" font-family="Helvetica,sans-Serif" font-size="10.00">::PeakingFitFunction</text>
</g>
<!-- Node2 -->
<g id="node3" class="node"><title>Node2</title>
<g id="a_node3"><a xlink:href="classant_1_1calibration_1_1gui_1_1_fit_gaus.html" target="_top" xlink:title="ant::calibration::gui\l::FitGaus">
<polygon fill="white" stroke="black" points="289.5,-392 289.5,-422 388.5,-422 388.5,-392 289.5,-392"/>
<text text-anchor="start" x="297.5" y="-410" font-family="Helvetica,sans-Serif" font-size="10.00">ant::calibration::gui</text>
<text text-anchor="middle" x="339" y="-399" font-family="Helvetica,sans-Serif" font-size="10.00">::FitGaus</text>
</a>
</g>
</g>
<!-- Node0&#45;&gt;Node2 -->
<g id="edge2" class="edge"><title>Node0&#45;&gt;Node2</title>
<path fill="none" stroke="midnightblue" d="M198.168,-236.291C209.741,-272.948 235.826,-340.935 280,-382 284.096,-385.807 288.862,-389.09 293.868,-391.906"/>
<polygon fill="midnightblue" stroke="midnightblue" points="201.42,-234.956 195.161,-226.407 194.723,-236.993 201.42,-234.956"/>
</g>
<!-- Node5 -->
<g id="node6" class="node"><title>Node5</title>
<g id="a_node6"><a xlink:href="classant_1_1calibration_1_1gui_1_1_fit_gausexpo.html" target="_top" xlink:title="ant::calibration::gui\l::FitGausexpo">
<polygon fill="white" stroke="black" points="289.5,-343 289.5,-373 388.5,-373 388.5,-343 289.5,-343"/>
<text text-anchor="start" x="297.5" y="-361" font-family="Helvetica,sans-Serif" font-size="10.00">ant::calibration::gui</text>
<text text-anchor="middle" x="339" y="-350" font-family="Helvetica,sans-Serif" font-size="10.00">::FitGausexpo</text>
</a>
</g>
</g>
<!-- Node0&#45;&gt;Node5 -->
<g id="edge5" class="edge"><title>Node0&#45;&gt;Node5</title>
<path fill="none" stroke="midnightblue" d="M203.507,-235.299C218.484,-262.325 245.877,-305.757 280,-333 284.713,-336.763 290.078,-340.063 295.597,-342.925"/>
<polygon fill="midnightblue" stroke="midnightblue" points="206.394,-233.279 198.561,-226.145 200.235,-236.606 206.394,-233.279"/>
</g>
<!-- Node6 -->
<g id="node7" class="node"><title>Node6</title>
<g id="a_node7"><a xlink:href="classant_1_1calibration_1_1gui_1_1_fit_gaus_pol0.html" target="_top" xlink:title="ant::calibration::gui\l::FitGausPol0">
<polygon fill="white" stroke="black" points="289.5,-294 289.5,-324 388.5,-324 388.5,-294 289.5,-294"/>
<text text-anchor="start" x="297.5" y="-312" font-family="Helvetica,sans-Serif" font-size="10.00">ant::calibration::gui</text>
<text text-anchor="middle" x="339" y="-301" font-family="Helvetica,sans-Serif" font-size="10.00">::FitGausPol0</text>
</a>
</g>
</g>
<!-- Node0&#45;&gt;Node6 -->
<g id="edge6" class="edge"><title>Node0&#45;&gt;Node6</title>
<path fill="none" stroke="midnightblue" d="M214.046,-232.97C231.256,-248.585 255.873,-269.308 280,-284 285.9,-287.593 292.409,-290.931 298.869,-293.923"/>
<polygon fill="midnightblue" stroke="midnightblue" points="216.415,-230.394 206.688,-226.195 211.673,-235.543 216.415,-230.394"/>
</g>
<!-- Node10 -->
<g id="node11" class="node"><title>Node10</title>
<g id="a_node11"><a xlink:href="classant_1_1calibration_1_1gui_1_1_fit_gaus_pol1.html" target="_top" xlink:title="ant::calibration::gui\l::FitGausPol1">
<polygon fill="white" stroke="black" points="289.5,-245 289.5,-275 388.5,-275 388.5,-245 289.5,-245"/>
<text text-anchor="start" x="297.5" y="-263" font-family="Helvetica,sans-Serif" font-size="10.00">ant::calibration::gui</text>
<text text-anchor="middle" x="339" y="-252" font-family="Helvetica,sans-Serif" font-size="10.00">::FitGausPol1</text>
</a>
</g>
</g>
<!-- Node0&#45;&gt;Node10 -->
<g id="edge10" class="edge"><title>Node0&#45;&gt;Node10</title>
<path fill="none" stroke="midnightblue" d="M246.216,-229.405C261.597,-234.532 278.118,-240.039 292.845,-244.948"/>
<polygon fill="midnightblue" stroke="midnightblue" points="246.898,-225.943 236.304,-226.101 244.684,-232.584 246.898,-225.943"/>
</g>
<!-- Node11 -->
<g id="node12" class="node"><title>Node11</title>
<g id="a_node12"><a xlink:href="classant_1_1calibration_1_1gui_1_1_fit_gaus_pol3.html" target="_top" xlink:title="ant::calibration::gui\l::FitGausPol3">
<polygon fill="white" stroke="black" points="289.5,-196 289.5,-226 388.5,-226 388.5,-196 289.5,-196"/>
<text text-anchor="start" x="297.5" y="-214" font-family="Helvetica,sans-Serif" font-size="10.00">ant::calibration::gui</text>
<text text-anchor="middle" x="339" y="-203" font-family="Helvetica,sans-Serif" font-size="10.00">::FitGausPol3</text>
</a>
</g>
</g>
<!-- Node0&#45;&gt;Node11 -->
<g id="edge11" class="edge"><title>Node0&#45;&gt;Node11</title>
<path fill="none" stroke="midnightblue" d="M253.893,-211C265.687,-211 277.854,-211 289.144,-211"/>
<polygon fill="midnightblue" stroke="midnightblue" points="253.655,-207.5 243.655,-211 253.655,-214.5 253.655,-207.5"/>
</g>
<!-- Node13 -->
<g id="node14" class="node"><title>Node13</title>
<g id="a_node14"><a xlink:href="classant_1_1calibration_1_1gui_1_1_fit_landau.html" target="_top" xlink:title="ant::calibration::gui\l::FitLandau">
<polygon fill="white" stroke="black" points="289.5,-147 289.5,-177 388.5,-177 388.5,-147 289.5,-147"/>
<text text-anchor="start" x="297.5" y="-165" font-family="Helvetica,sans-Serif" font-size="10.00">ant::calibration::gui</text>
<text text-anchor="middle" x="339" y="-154" font-family="Helvetica,sans-Serif" font-size="10.00">::FitLandau</text>
</a>
</g>
</g>
<!-- Node0&#45;&gt;Node13 -->
<g id="edge13" class="edge"><title>Node0&#45;&gt;Node13</title>
<path fill="none" stroke="midnightblue" d="M246.216,-192.595C261.597,-187.468 278.118,-181.961 292.845,-177.052"/>
<polygon fill="midnightblue" stroke="midnightblue" points="244.684,-189.416 236.304,-195.899 246.898,-196.057 244.684,-189.416"/>
</g>
<!-- Node14 -->
<g id="node15" class="node"><title>Node14</title>
<g id="a_node15"><a xlink:href="classant_1_1calibration_1_1gui_1_1_fit_landau_expo.html" target="_top" xlink:title="ant::calibration::gui\l::FitLandauExpo">
<polygon fill="white" stroke="black" points="289.5,-98 289.5,-128 388.5,-128 388.5,-98 289.5,-98"/>
<text text-anchor="start" x="297.5" y="-116" font-family="Helvetica,sans-Serif" font-size="10.00">ant::calibration::gui</text>
<text text-anchor="middle" x="339" y="-105" font-family="Helvetica,sans-Serif" font-size="10.00">::FitLandauExpo</text>
</a>
</g>
</g>
<!-- Node0&#45;&gt;Node14 -->
<g id="edge14" class="edge"><title>Node0&#45;&gt;Node14</title>
<path fill="none" stroke="midnightblue" d="M213.615,-188.891C230.782,-172.964 255.532,-151.766 280,-137 285.411,-133.734 291.348,-130.716 297.294,-128.002"/>
<polygon fill="midnightblue" stroke="midnightblue" points="211.166,-186.389 206.29,-195.795 215.967,-191.483 211.166,-186.389"/>
</g>
<!-- Node15 -->
<g id="node16" class="node"><title>Node15</title>
<g id="a_node16"><a xlink:href="classant_1_1calibration_1_1gui_1_1_fit_landau_pol0.html" target="_top" xlink:title="ant::calibration::gui\l::FitLandauPol0">
<polygon fill="white" stroke="black" points="289.5,-49 289.5,-79 388.5,-79 388.5,-49 289.5,-49"/>
<text text-anchor="start" x="297.5" y="-67" font-family="Helvetica,sans-Serif" font-size="10.00">ant::calibration::gui</text>
<text text-anchor="middle" x="339" y="-56" font-family="Helvetica,sans-Serif" font-size="10.00">::FitLandauPol0</text>
</a>
</g>
</g>
<!-- Node0&#45;&gt;Node15 -->
<g id="edge15" class="edge"><title>Node0&#45;&gt;Node15</title>
<path fill="none" stroke="midnightblue" d="M203.191,-186.765C218.014,-159.456 245.396,-115.324 280,-88 284.276,-84.6233 289.095,-81.6501 294.08,-79.0516"/>
<polygon fill="midnightblue" stroke="midnightblue" points="200.064,-185.191 198.481,-195.667 206.251,-188.465 200.064,-185.191"/>
</g>
<!-- Node16 -->
<g id="node17" class="node"><title>Node16</title>
<g id="a_node17"><a xlink:href="classant_1_1calibration_1_1gui_1_1_fit_weibull_landau_pol1.html" target="_top" xlink:title="ant::calibration::gui\l::FitWeibullLandauPol1">
<polygon fill="white" stroke="black" points="280.5,-0 280.5,-30 397.5,-30 397.5,-0 280.5,-0"/>
<text text-anchor="start" x="288.5" y="-18" font-family="Helvetica,sans-Serif" font-size="10.00">ant::calibration::gui</text>
<text text-anchor="middle" x="339" y="-7" font-family="Helvetica,sans-Serif" font-size="10.00">::FitWeibullLandauPol1</text>
</a>
</g>
</g>
<!-- Node0&#45;&gt;Node16 -->
<g id="edge16" class="edge"><title>Node0&#45;&gt;Node16</title>
<path fill="none" stroke="midnightblue" d="M197.876,-186.034C209.211,-149.191 235.146,-80.1882 280,-39 283.692,-35.6095 287.93,-32.6625 292.399,-30.1092"/>
<polygon fill="midnightblue" stroke="midnightblue" points="194.424,-185.364 194.942,-195.947 201.137,-187.351 194.424,-185.364"/>
</g>
<!-- Node1 -->
<g id="node2" class="node"><title>Node1</title>
<g id="a_node2"><a xlink:href="classant_1_1calibration_1_1gui_1_1_fit_function.html" target="_top" xlink:title="ant::calibration::gui\l::FitFunction">
<polygon fill="white" stroke="black" points="0.5,-196 0.5,-226 99.5,-226 99.5,-196 0.5,-196"/>
<text text-anchor="start" x="8.5" y="-214" font-family="Helvetica,sans-Serif" font-size="10.00">ant::calibration::gui</text>
<text text-anchor="middle" x="50" y="-203" font-family="Helvetica,sans-Serif" font-size="10.00">::FitFunction</text>
</a>
</g>
</g>
<!-- Node1&#45;&gt;Node0 -->
<g id="edge1" class="edge"><title>Node1&#45;&gt;Node0</title>
<path fill="none" stroke="midnightblue" d="M109.778,-211C118.519,-211 127.485,-211 136.096,-211"/>
<polygon fill="midnightblue" stroke="midnightblue" points="109.654,-207.5 99.6536,-211 109.654,-214.5 109.654,-207.5"/>
</g>
<!-- Node3 -->
<g id="node4" class="node"><title>Node3</title>
<g id="a_node4"><a xlink:href="classant_1_1calibration_1_1gui_1_1_c_b_peak_function.html" target="_top" xlink:title="ant::calibration::gui\l::CBPeakFunction">
<polygon fill="white" stroke="black" points="460.5,-441 460.5,-471 559.5,-471 559.5,-441 460.5,-441"/>
<text text-anchor="start" x="468.5" y="-459" font-family="Helvetica,sans-Serif" font-size="10.00">ant::calibration::gui</text>
<text text-anchor="middle" x="510" y="-448" font-family="Helvetica,sans-Serif" font-size="10.00">::CBPeakFunction</text>
</a>
</g>
</g>
<!-- Node2&#45;&gt;Node3 -->
<g id="edge3" class="edge"><title>Node2&#45;&gt;Node3</title>
<path fill="none" stroke="midnightblue" d="M398.561,-423.979C418.68,-429.812 440.971,-436.276 460.228,-441.859"/>
<polygon fill="midnightblue" stroke="midnightblue" points="399.461,-420.596 388.882,-421.173 397.512,-427.319 399.461,-420.596"/>
</g>
<!-- Node4 -->
<g id="node5" class="node"><title>Node4</title>
<g id="a_node5"><a xlink:href="class_p_i_d___phi_angle_1_1_the_g_u_i_1_1___fit_gauss.html" target="_top" xlink:title="The PID_PhiAngle::TheGUI::_FitGauss: override the SetDefaults for PID phi angle fits. ">
<polygon fill="white" stroke="black" points="434,-392 434,-422 586,-422 586,-392 434,-392"/>
<text text-anchor="start" x="442" y="-410" font-family="Helvetica,sans-Serif" font-size="10.00">ant::calibration::PID</text>
<text text-anchor="middle" x="510" y="-399" font-family="Helvetica,sans-Serif" font-size="10.00">_PhiAngle::TheGUI::_FitGauss</text>
</a>
</g>
</g>
<!-- Node2&#45;&gt;Node4 -->
<g id="edge4" class="edge"><title>Node2&#45;&gt;Node4</title>
<path fill="none" stroke="midnightblue" d="M398.991,-407C410.23,-407 422.133,-407 433.798,-407"/>
<polygon fill="midnightblue" stroke="midnightblue" points="398.882,-403.5 388.882,-407 398.882,-410.5 398.882,-403.5"/>
</g>
<!-- Node7 -->
<g id="node8" class="node"><title>Node7</title>
<g id="a_node8"><a xlink:href="structant_1_1expconfig_1_1setup_1_1_improved_time_fct2007.html" target="_top" xlink:title="ant::expconfig::setup\l::ImprovedTimeFct2007">
<polygon fill="white" stroke="black" points="450,-343 450,-373 570,-373 570,-343 450,-343"/>
<text text-anchor="start" x="458" y="-361" font-family="Helvetica,sans-Serif" font-size="10.00">ant::expconfig::setup</text>
<text text-anchor="middle" x="510" y="-350" font-family="Helvetica,sans-Serif" font-size="10.00">::ImprovedTimeFct2007</text>
</a>
</g>
</g>
<!-- Node6&#45;&gt;Node7 -->
<g id="edge7" class="edge"><title>Node6&#45;&gt;Node7</title>
<path fill="none" stroke="midnightblue" d="M398.611,-325.994C417.597,-331.499 438.513,-337.563 456.986,-342.919"/>
<polygon fill="midnightblue" stroke="midnightblue" points="399.461,-322.596 388.882,-323.173 397.512,-329.319 399.461,-322.596"/>
</g>
<!-- Node8 -->
<g id="node9" class="node"><title>Node8</title>
<g id="a_node9"><a xlink:href="structant_1_1expconfig_1_1setup_1_1_improved_time_fct2015.html" target="_top" xlink:title="Ant Setup for Rare Pion Test Beamtime in January 2015 &amp; MC studies totally work in progress! ...">
<polygon fill="white" stroke="black" points="450,-294 450,-324 570,-324 570,-294 450,-294"/>
<text text-anchor="start" x="458" y="-312" font-family="Helvetica,sans-Serif" font-size="10.00">ant::expconfig::setup</text>
<text text-anchor="middle" x="510" y="-301" font-family="Helvetica,sans-Serif" font-size="10.00">::ImprovedTimeFct2015</text>
</a>
</g>
</g>
<!-- Node6&#45;&gt;Node8 -->
<g id="edge8" class="edge"><title>Node6&#45;&gt;Node8</title>
<path fill="none" stroke="midnightblue" d="M398.919,-309C415.377,-309 433.264,-309 449.742,-309"/>
<polygon fill="midnightblue" stroke="midnightblue" points="398.882,-305.5 388.882,-309 398.882,-312.5 398.882,-305.5"/>
</g>
<!-- Node9 -->
<g id="node10" class="node"><title>Node9</title>
<g id="a_node10"><a xlink:href="class_t_a_p_s_time_function.html" target="_top" xlink:title="TAPSTimeFunction">
<polygon fill="white" stroke="black" points="459,-255.5 459,-274.5 561,-274.5 561,-255.5 459,-255.5"/>
<text text-anchor="middle" x="510" y="-262.5" font-family="Helvetica,sans-Serif" font-size="10.00">TAPSTimeFunction</text>
</a>
</g>
</g>
<!-- Node6&#45;&gt;Node9 -->
<g id="edge9" class="edge"><title>Node6&#45;&gt;Node9</title>
<path fill="none" stroke="midnightblue" d="M398.483,-293.331C410.237,-290.215 422.508,-286.984 434,-284 445.961,-280.894 459.011,-277.567 470.823,-274.579"/>
<polygon fill="midnightblue" stroke="midnightblue" points="397.525,-289.964 388.759,-295.915 399.322,-296.73 397.525,-289.964"/>
</g>
<!-- Node12 -->
<g id="node13" class="node"><title>Node12</title>
<g id="a_node13"><a xlink:href="struct_fit_t_a_p_s___energy.html" target="_top" xlink:title="FitTAPS_Energy">
<polygon fill="white" stroke="black" points="465,-201.5 465,-220.5 555,-220.5 555,-201.5 465,-201.5"/>
<text text-anchor="middle" x="510" y="-208.5" font-family="Helvetica,sans-Serif" font-size="10.00">FitTAPS_Energy</text>
</a>
</g>
</g>
<!-- Node11&#45;&gt;Node12 -->
<g id="edge12" class="edge"><title>Node11&#45;&gt;Node12</title>
<path fill="none" stroke="midnightblue" d="M398.955,-211C420.601,-211 444.716,-211 464.842,-211"/>
<polygon fill="midnightblue" stroke="midnightblue" points="398.882,-207.5 388.882,-211 398.882,-214.5 398.882,-207.5"/>
</g>
</g>
</svg>
