<?xml version="1.0" encoding="UTF-8" standalone="no"?>
<!DOCTYPE svg PUBLIC "-//W3C//DTD SVG 1.1//EN"
 "http://www.w3.org/Graphics/SVG/1.1/DTD/svg11.dtd">
<!-- Generated by graphviz version 2.36.0 (20140111.2315)
 -->
<!-- Title: ant::calibration::Time Pages: 1 -->
<svg width="728pt" height="271pt"
 viewBox="0.00 0.00 728.00 271.00" xmlns="http://www.w3.org/2000/svg" xmlns:xlink="http://www.w3.org/1999/xlink">
<g id="graph0" class="graph" transform="scale(1 1) rotate(0) translate(4 267)">
<title>ant::calibration::Time</title>
<polygon fill="white" stroke="none" points="-4,4 -4,-267 724,-267 724,4 -4,4"/>
<!-- Node10 -->
<g id="node1" class="node"><title>Node10</title>
<polygon fill="#bfbfbf" stroke="black" points="612,-101.5 612,-120.5 720,-120.5 720,-101.5 612,-101.5"/>
<text text-anchor="middle" x="666" y="-108.5" font-family="Helvetica,sans-Serif" font-size="10.00">ant::calibration::Time</text>
</g>
<!-- Node11 -->
<g id="node2" class="node"><title>Node11</title>
<g id="a_node2"><a xlink:href="classant_1_1_calibration_1_1_module.html" target="_top" xlink:title="The Module class is typically used for calibrations. ">
<polygon fill="white" stroke="black" points="388,-194.5 388,-213.5 508,-213.5 508,-194.5 388,-194.5"/>
<text text-anchor="middle" x="448" y="-201.5" font-family="Helvetica,sans-Serif" font-size="10.00">ant::Calibration::Module</text>
</a>
</g>
</g>
<!-- Node11&#45;&gt;Node10 -->
<g id="edge1" class="edge"><title>Node11&#45;&gt;Node10</title>
<path fill="none" stroke="midnightblue" d="M489.462,-191.225C496.347,-188.911 503.402,-186.452 510,-184 547.911,-169.911 557.461,-166.34 594,-149 612.946,-140.009 634.066,-128.508 648.307,-120.525"/>
<polygon fill="midnightblue" stroke="midnightblue" points="487.966,-188.033 479.569,-194.494 490.162,-194.68 487.966,-188.033"/>
</g>
<!-- Node12 -->
<g id="node3" class="node"><title>Node12</title>
<g id="a_node3"><a xlink:href="classant_1_1_calibration_1_1_physics_module.html" target="_top" xlink:title="The PhysicsModule class gives the modules the ability to create histograms from events as well as fit...">
<polygon fill="white" stroke="black" points="182,-233 182,-263 306,-263 306,-233 182,-233"/>
<text text-anchor="start" x="190" y="-251" font-family="Helvetica,sans-Serif" font-size="10.00">ant::Calibration::Physics</text>
<text text-anchor="middle" x="244" y="-240" font-family="Helvetica,sans-Serif" font-size="10.00">Module</text>
</a>
</g>
</g>
<!-- Node12&#45;&gt;Node11 -->
<g id="edge2" class="edge"><title>Node12&#45;&gt;Node11</title>
<path fill="none" stroke="midnightblue" d="M316.261,-232.478C345.307,-226.151 377.956,-219.039 403.361,-213.505"/>
<polygon fill="midnightblue" stroke="midnightblue" points="315.181,-229.131 306.155,-234.679 316.671,-235.971 315.181,-229.131"/>
</g>
<!-- Node13 -->
<g id="node4" class="node"><title>Node13</title>
<g id="a_node4"><a xlink:href="classant_1_1_calibration_1_1_base_module.html" target="_top" xlink:title="The BaseModule class provides a name for identification. ">
<polygon fill="white" stroke="black" points="0.5,-238.5 0.5,-257.5 143.5,-257.5 143.5,-238.5 0.5,-238.5"/>
<text text-anchor="middle" x="72" y="-245.5" font-family="Helvetica,sans-Serif" font-size="10.00">ant::Calibration::BaseModule</text>
</a>
</g>
</g>
<!-- Node13&#45;&gt;Node12 -->
<g id="edge3" class="edge"><title>Node13&#45;&gt;Node12</title>
<path fill="none" stroke="midnightblue" d="M153.794,-248C163.217,-248 172.709,-248 181.805,-248"/>
<polygon fill="midnightblue" stroke="midnightblue" points="153.618,-244.5 143.618,-248 153.618,-251.5 153.618,-244.5"/>
</g>
<!-- Node14 -->
<g id="node5" class="node"><title>Node14</title>
<g id="a_node5"><a xlink:href="structant_1_1_updateable__traits.html" target="_top" xlink:title="The Updateable_traits class used by the UpdateableManager. ">
<polygon fill="white" stroke="black" points="187.5,-194.5 187.5,-213.5 300.5,-213.5 300.5,-194.5 187.5,-194.5"/>
<text text-anchor="middle" x="244" y="-201.5" font-family="Helvetica,sans-Serif" font-size="10.00">ant::Updateable_traits</text>
</a>
</g>
</g>
<!-- Node14&#45;&gt;Node11 -->
<g id="edge4" class="edge"><title>Node14&#45;&gt;Node11</title>
<path fill="none" stroke="midnightblue" d="M310.797,-204C335.639,-204 363.73,-204 387.92,-204"/>
<polygon fill="midnightblue" stroke="midnightblue" points="310.732,-200.5 300.732,-204 310.732,-207.5 310.732,-200.5"/>
</g>
<!-- Node15 -->
<g id="node6" class="node"><title>Node15</title>
<g id="a_node6"><a xlink:href="structant_1_1_reconstruct_hook_1_1_detector_read_hits.html" target="_top" xlink:title="The DetectorReadHits struct instances are applied before hit matching. ">
<polygon fill="white" stroke="black" points="391.5,-145 391.5,-175 504.5,-175 504.5,-145 391.5,-145"/>
<text text-anchor="start" x="399.5" y="-163" font-family="Helvetica,sans-Serif" font-size="10.00">ant::ReconstructHook</text>
<text text-anchor="middle" x="448" y="-152" font-family="Helvetica,sans-Serif" font-size="10.00">::DetectorReadHits</text>
</a>
</g>
</g>
<!-- Node15&#45;&gt;Node10 -->
<g id="edge5" class="edge"><title>Node15&#45;&gt;Node10</title>
<path fill="none" stroke="midnightblue" d="M514.807,-145.072C549.945,-137.1 592.154,-127.525 622.866,-120.558"/>
<polygon fill="midnightblue" stroke="midnightblue" points="513.603,-141.756 504.625,-147.381 515.152,-148.582 513.603,-141.756"/>
</g>
<!-- Node16 -->
<g id="node7" class="node"><title>Node16</title>
<g id="a_node7"><a xlink:href="structant_1_1_reconstruct_hook_1_1_base.html" target="_top" xlink:title="The Base struct just defines some useful types. ">
<polygon fill="white" stroke="black" points="187.5,-145 187.5,-175 300.5,-175 300.5,-145 187.5,-145"/>
<text text-anchor="start" x="195.5" y="-163" font-family="Helvetica,sans-Serif" font-size="10.00">ant::ReconstructHook</text>
<text text-anchor="middle" x="244" y="-152" font-family="Helvetica,sans-Serif" font-size="10.00">::Base</text>
</a>
</g>
</g>
<!-- Node16&#45;&gt;Node15 -->
<g id="edge6" class="edge"><title>Node16&#45;&gt;Node15</title>
<path fill="none" stroke="midnightblue" d="M310.894,-160C336.931,-160 366.524,-160 391.45,-160"/>
<polygon fill="midnightblue" stroke="midnightblue" points="310.732,-156.5 300.732,-160 310.732,-163.5 310.732,-156.5"/>
</g>
<!-- Node17 -->
<g id="node8" class="node"><title>Node17</title>
<polygon fill="white" stroke="#bfbfbf" points="388.5,-96 388.5,-126 507.5,-126 507.5,-96 388.5,-96"/>
<text text-anchor="start" x="396.5" y="-114" font-family="Helvetica,sans-Serif" font-size="10.00">std::vector&lt; Calibration</text>
<text text-anchor="middle" x="448" y="-103" font-family="Helvetica,sans-Serif" font-size="10.00">::Converter::ptr_t &gt;</text>
</g>
<!-- Node17&#45;&gt;Node10 -->
<g id="edge7" class="edge"><title>Node17&#45;&gt;Node10</title>
<path fill="none" stroke="#9a32cd" stroke-dasharray="5,2" d="M517.851,-111C548.265,-111 583.469,-111 611.817,-111"/>
<polygon fill="#9a32cd" stroke="#9a32cd" points="517.738,-107.5 507.738,-111 517.738,-114.5 517.738,-107.5"/>
<text text-anchor="middle" x="561" y="-114" font-family="Helvetica,sans-Serif" font-size="10.00"> Converters</text>
</g>
<!-- Node18 -->
<g id="node9" class="node"><title>Node18</title>
<polygon fill="white" stroke="#bfbfbf" points="386.5,-47 386.5,-77 509.5,-77 509.5,-47 386.5,-47"/>
<text text-anchor="start" x="394.5" y="-65" font-family="Helvetica,sans-Serif" font-size="10.00">std::vector&lt; ant::interval</text>
<text text-anchor="middle" x="448" y="-54" font-family="Helvetica,sans-Serif" font-size="10.00">&lt; double &gt; &gt;</text>
</g>
<!-- Node18&#45;&gt;Node10 -->
<g id="edge8" class="edge"><title>Node18&#45;&gt;Node10</title>
<path fill="none" stroke="#9a32cd" stroke-dasharray="5,2" d="M519.659,-78.0291C553.756,-85.764 593.515,-94.7834 622.821,-101.432"/>
<polygon fill="#9a32cd" stroke="#9a32cd" points="520.269,-74.5787 509.743,-75.7796 518.721,-81.4053 520.269,-74.5787"/>
<text text-anchor="middle" x="561" y="-97" font-family="Helvetica,sans-Serif" font-size="10.00"> TimeWindows</text>
</g>
<!-- Node19 -->
<g id="node10" class="node"><title>Node19</title>
<g id="a_node10"><a xlink:href="classant_1_1interval.html" target="_top" xlink:title="ant::interval\&lt; double \&gt;">
<polygon fill="white" stroke="black" points="187,-52.5 187,-71.5 301,-71.5 301,-52.5 187,-52.5"/>
<text text-anchor="middle" x="244" y="-59.5" font-family="Helvetica,sans-Serif" font-size="10.00">ant::interval&lt; double &gt;</text>
</a>
</g>
</g>
<!-- Node19&#45;&gt;Node18 -->
<g id="edge9" class="edge"><title>Node19&#45;&gt;Node18</title>
<path fill="none" stroke="#9a32cd" stroke-dasharray="5,2" d="M311.164,-62C335.358,-62 362.591,-62 386.286,-62"/>
<polygon fill="#9a32cd" stroke="#9a32cd" points="311,-58.5001 301,-62 311,-65.5001 311,-58.5001"/>
<text text-anchor="middle" x="346" y="-65" font-family="Helvetica,sans-Serif" font-size="10.00"> elements</text>
</g>
<!-- Node20 -->
<g id="node11" class="node"><title>Node20</title>
<polygon fill="white" stroke="#bfbfbf" points="393,-0.5 393,-19.5 503,-19.5 503,-0.5 393,-0.5"/>
<text text-anchor="middle" x="448" y="-7.5" font-family="Helvetica,sans-Serif" font-size="10.00">std::vector&lt; double &gt;</text>
</g>
<!-- Node20&#45;&gt;Node10 -->
<g id="edge10" class="edge"><title>Node20&#45;&gt;Node10</title>
<path fill="none" stroke="#9a32cd" stroke-dasharray="5,2" d="M513.319,-10.9892C539.619,-13.6757 569.544,-19.8035 594,-33 624.619,-49.5221 648.898,-84.4849 659.381,-101.414"/>
<polygon fill="#9a32cd" stroke="#9a32cd" points="513.325,-7.47651 503.058,-10.0928 512.716,-14.45 513.325,-7.47651"/>
<text text-anchor="middle" x="561" y="-69" font-family="Helvetica,sans-Serif" font-size="10.00"> DefaultGains</text>
<text text-anchor="middle" x="561" y="-58" font-family="Helvetica,sans-Serif" font-size="10.00">DefaultOffsets</text>
<text text-anchor="middle" x="561" y="-47" font-family="Helvetica,sans-Serif" font-size="10.00">Offsets</text>
<text text-anchor="middle" x="561" y="-36" font-family="Helvetica,sans-Serif" font-size="10.00">Gains</text>
</g>
</g>
</svg>
