<?xml version="1.0" encoding="UTF-8" standalone="no"?>
<!DOCTYPE svg PUBLIC "-//W3C//DTD SVG 1.1//EN"
 "http://www.w3.org/Graphics/SVG/1.1/DTD/svg11.dtd">
<!-- Generated by graphviz version 2.36.0 (20140111.2315)
 -->
<!-- Title: ant::calibration::gui::FitGausPol0 Pages: 1 -->
<svg width="544pt" height="126pt"
 viewBox="0.00 0.00 544.00 126.00" xmlns="http://www.w3.org/2000/svg" xmlns:xlink="http://www.w3.org/1999/xlink">
<g id="graph0" class="graph" transform="scale(1 1) rotate(0) translate(4 122)">
<title>ant::calibration::gui::FitGausPol0</title>
<polygon fill="white" stroke="none" points="-4,4 -4,-122 540,-122 540,4 -4,4"/>
<!-- Node0 -->
<g id="node1" class="node"><title>Node0</title>
<polygon fill="#bfbfbf" stroke="black" points="280.5,-39 280.5,-69 379.5,-69 379.5,-39 280.5,-39"/>
<text text-anchor="start" x="288.5" y="-57" font-family="Helvetica,sans-Serif" font-size="10.00">ant::calibration::gui</text>
<text text-anchor="middle" x="330" y="-46" font-family="Helvetica,sans-Serif" font-size="10.00">::FitGausPol0</text>
</g>
<!-- Node3 -->
<g id="node4" class="node"><title>Node3</title>
<g id="a_node4"><a xlink:href="structant_1_1expconfig_1_1setup_1_1_improved_time_fct2007.html" target="_top" xlink:title="ant::expconfig::setup\l::ImprovedTimeFct2007">
<polygon fill="white" stroke="black" points="416,-88 416,-118 536,-118 536,-88 416,-88"/>
<text text-anchor="start" x="424" y="-106" font-family="Helvetica,sans-Serif" font-size="10.00">ant::expconfig::setup</text>
<text text-anchor="middle" x="476" y="-95" font-family="Helvetica,sans-Serif" font-size="10.00">::ImprovedTimeFct2007</text>
</a>
</g>
</g>
<!-- Node0&#45;&gt;Node3 -->
<g id="edge3" class="edge"><title>Node0&#45;&gt;Node3</title>
<path fill="none" stroke="midnightblue" d="M385.043,-72.3896C400.036,-77.4916 416.14,-82.9711 430.519,-87.8641"/>
<polygon fill="midnightblue" stroke="midnightblue" points="385.974,-69.0095 375.38,-69.1014 383.719,-75.6363 385.974,-69.0095"/>
</g>
<!-- Node4 -->
<g id="node5" class="node"><title>Node4</title>
<g id="a_node5"><a xlink:href="structant_1_1expconfig_1_1setup_1_1_improved_time_fct2015.html" target="_top" xlink:title="Ant Setup for Rare Pion Test Beamtime in January 2015 &amp; MC studies totally work in progress! ...">
<polygon fill="white" stroke="black" points="416,-39 416,-69 536,-69 536,-39 416,-39"/>
<text text-anchor="start" x="424" y="-57" font-family="Helvetica,sans-Serif" font-size="10.00">ant::expconfig::setup</text>
<text text-anchor="middle" x="476" y="-46" font-family="Helvetica,sans-Serif" font-size="10.00">::ImprovedTimeFct2015</text>
</a>
</g>
</g>
<!-- Node0&#45;&gt;Node4 -->
<g id="edge4" class="edge"><title>Node0&#45;&gt;Node4</title>
<path fill="none" stroke="midnightblue" d="M389.991,-54C398.515,-54 407.291,-54 415.819,-54"/>
<polygon fill="midnightblue" stroke="midnightblue" points="389.752,-50.5001 379.752,-54 389.752,-57.5001 389.752,-50.5001"/>
</g>
<!-- Node5 -->
<g id="node6" class="node"><title>Node5</title>
<g id="a_node6"><a xlink:href="class_t_a_p_s_time_function.html" target="_top" xlink:title="TAPSTimeFunction">
<polygon fill="white" stroke="black" points="425,-0.5 425,-19.5 527,-19.5 527,-0.5 425,-0.5"/>
<text text-anchor="middle" x="476" y="-7.5" font-family="Helvetica,sans-Serif" font-size="10.00">TAPSTimeFunction</text>
</a>
</g>
</g>
<!-- Node0&#45;&gt;Node5 -->
<g id="edge5" class="edge"><title>Node0&#45;&gt;Node5</title>
<path fill="none" stroke="midnightblue" d="M389.55,-36.1097C407.997,-30.4731 427.665,-24.4633 443.476,-19.6322"/>
<polygon fill="midnightblue" stroke="midnightblue" points="388.293,-32.8341 379.752,-39.1036 390.338,-39.5286 388.293,-32.8341"/>
</g>
<!-- Node1 -->
<g id="node2" class="node"><title>Node1</title>
<g id="a_node2"><a xlink:href="classant_1_1calibration_1_1gui_1_1_peaking_fit_function.html" target="_top" xlink:title="Fit functions describing peak shapes, like Gaus or Lorentz with optional background function...">
<polygon fill="white" stroke="black" points="136.5,-39 136.5,-69 243.5,-69 243.5,-39 136.5,-39"/>
<text text-anchor="start" x="144.5" y="-57" font-family="Helvetica,sans-Serif" font-size="10.00">ant::calibration::gui</text>
<text text-anchor="middle" x="190" y="-46" font-family="Helvetica,sans-Serif" font-size="10.00">::PeakingFitFunction</text>
</a>
</g>
</g>
<!-- Node1&#45;&gt;Node0 -->
<g id="edge1" class="edge"><title>Node1&#45;&gt;Node0</title>
<path fill="none" stroke="midnightblue" d="M253.853,-54C262.699,-54 271.681,-54 280.211,-54"/>
<polygon fill="midnightblue" stroke="midnightblue" points="253.566,-50.5001 243.566,-54 253.566,-57.5001 253.566,-50.5001"/>
</g>
<!-- Node2 -->
<g id="node3" class="node"><title>Node2</title>
<g id="a_node3"><a xlink:href="classant_1_1calibration_1_1gui_1_1_fit_function.html" target="_top" xlink:title="ant::calibration::gui\l::FitFunction">
<polygon fill="white" stroke="black" points="0.5,-39 0.5,-69 99.5,-69 99.5,-39 0.5,-39"/>
<text text-anchor="start" x="8.5" y="-57" font-family="Helvetica,sans-Serif" font-size="10.00">ant::calibration::gui</text>
<text text-anchor="middle" x="50" y="-46" font-family="Helvetica,sans-Serif" font-size="10.00">::FitFunction</text>
</a>
</g>
</g>
<!-- Node2&#45;&gt;Node1 -->
<g id="edge2" class="edge"><title>Node2&#45;&gt;Node1</title>
<path fill="none" stroke="midnightblue" d="M109.778,-54C118.519,-54 127.485,-54 136.096,-54"/>
<polygon fill="midnightblue" stroke="midnightblue" points="109.654,-50.5001 99.6536,-54 109.654,-57.5001 109.654,-50.5001"/>
</g>
</g>
</svg>
