<?xml version="1.0" encoding="UTF-8" standalone="no"?>
<!DOCTYPE svg PUBLIC "-//W3C//DTD SVG 1.1//EN"
 "http://www.w3.org/Graphics/SVG/1.1/DTD/svg11.dtd">
<!-- Generated by graphviz version 2.36.0 (20140111.2315)
 -->
<!-- Title: ant::WrapTFileInput Pages: 1 -->
<svg width="128pt" height="234pt"
 viewBox="0.00 0.00 128.00 234.00" xmlns="http://www.w3.org/2000/svg" xmlns:xlink="http://www.w3.org/1999/xlink">
<g id="graph0" class="graph" transform="scale(1 1) rotate(0) translate(4 230)">
<title>ant::WrapTFileInput</title>
<polygon fill="white" stroke="none" points="-4,4 -4,-230 124,-230 124,4 -4,4"/>
<!-- Node2 -->
<g id="node1" class="node"><title>Node2</title>
<polygon fill="#bfbfbf" stroke="black" points="8.5,-0.5 8.5,-19.5 111.5,-19.5 111.5,-0.5 8.5,-0.5"/>
<text text-anchor="middle" x="60" y="-7.5" font-family="Helvetica,sans-Serif" font-size="10.00">ant::WrapTFileInput</text>
</g>
<!-- Node3 -->
<g id="node2" class="node"><title>Node3</title>
<g id="a_node2"><a xlink:href="classant_1_1_wrap_t_file.html" target="_top" xlink:title="ant::WrapTFile">
<polygon fill="white" stroke="black" points="19.5,-58.5 19.5,-77.5 100.5,-77.5 100.5,-58.5 19.5,-58.5"/>
<text text-anchor="middle" x="60" y="-65.5" font-family="Helvetica,sans-Serif" font-size="10.00">ant::WrapTFile</text>
</a>
</g>
</g>
<!-- Node3&#45;&gt;Node2 -->
<g id="edge1" class="edge"><title>Node3&#45;&gt;Node2</title>
<path fill="none" stroke="midnightblue" d="M60,-47.953C60,-38.2875 60,-27.0312 60,-19.5052"/>
<polygon fill="midnightblue" stroke="midnightblue" points="56.5001,-48.25 60,-58.25 63.5001,-48.25 56.5001,-48.25"/>
</g>
<!-- Node4 -->
<g id="node3" class="node"><title>Node4</title>
<polygon fill="white" stroke="#bfbfbf" points="7,-127 7,-157 113,-157 113,-127 7,-127"/>
<text text-anchor="start" x="15" y="-145" font-family="Helvetica,sans-Serif" font-size="10.00">std::list&lt; std::unique</text>
<text text-anchor="middle" x="60" y="-134" font-family="Helvetica,sans-Serif" font-size="10.00">_ptr&lt; TFile &gt; &gt;</text>
</g>
<!-- Node4&#45;&gt;Node3 -->
<g id="edge2" class="edge"><title>Node4&#45;&gt;Node3</title>
<path fill="none" stroke="#9a32cd" stroke-dasharray="5,2" d="M60,-116.688C60,-103.253 60,-87.3805 60,-77.7589"/>
<polygon fill="#9a32cd" stroke="#9a32cd" points="56.5001,-116.775 60,-126.775 63.5001,-116.775 56.5001,-116.775"/>
<text text-anchor="middle" x="71" y="-99.5" font-family="Helvetica,sans-Serif" font-size="10.00"> files</text>
</g>
<!-- Node5 -->
<g id="node4" class="node"><title>Node5</title>
<polygon fill="white" stroke="#bfbfbf" points="-0.5,-206.5 -0.5,-225.5 120.5,-225.5 120.5,-206.5 -0.5,-206.5"/>
<text text-anchor="middle" x="60" y="-213.5" font-family="Helvetica,sans-Serif" font-size="10.00">std::unique_ptr&lt; TFile &gt;</text>
</g>
<!-- Node5&#45;&gt;Node4 -->
<g id="edge3" class="edge"><title>Node5&#45;&gt;Node4</title>
<path fill="none" stroke="#9a32cd" stroke-dasharray="5,2" d="M60,-196.085C60,-183.915 60,-168.354 60,-157.232"/>
<polygon fill="#9a32cd" stroke="#9a32cd" points="56.5001,-196.458 60,-206.458 63.5001,-196.458 56.5001,-196.458"/>
<text text-anchor="middle" x="81.5" y="-179.5" font-family="Helvetica,sans-Serif" font-size="10.00"> elements</text>
</g>
</g>
</svg>
