<?xml version="1.0" encoding="UTF-8" standalone="no"?>
<!DOCTYPE svg PUBLIC "-//W3C//DTD SVG 1.1//EN"
 "http://www.w3.org/Graphics/SVG/1.1/DTD/svg11.dtd">
<!-- Generated by graphviz version 2.36.0 (20140111.2315)
 -->
<!-- Title: ant::analysis::physics::DeltaPlusPhysics::Histogm Pages: 1 -->
<svg width="196pt" height="258pt"
 viewBox="0.00 0.00 196.00 258.00" xmlns="http://www.w3.org/2000/svg" xmlns:xlink="http://www.w3.org/1999/xlink">
<g id="graph0" class="graph" transform="scale(1 1) rotate(0) translate(4 254)">
<title>ant::analysis::physics::DeltaPlusPhysics::Histogm</title>
<polygon fill="white" stroke="none" points="-4,4 -4,-254 192,-254 192,4 -4,4"/>
<!-- Node1 -->
<g id="node1" class="node"><title>Node1</title>
<polygon fill="#bfbfbf" stroke="black" points="-0.5,-1 -0.5,-31 142.5,-31 142.5,-1 -0.5,-1"/>
<text text-anchor="start" x="7.5" y="-19" font-family="Helvetica,sans-Serif" font-size="10.00">ant::analysis::physics</text>
<text text-anchor="middle" x="71" y="-8" font-family="Helvetica,sans-Serif" font-size="10.00">::DeltaPlusPhysics::Histogm</text>
</g>
<!-- Node2 -->
<g id="node2" class="node"><title>Node2</title>
<g id="a_node2"><a xlink:title="STL class. ">
<polygon fill="white" stroke="#bfbfbf" points="26,-160.5 26,-179.5 86,-179.5 86,-160.5 26,-160.5"/>
<text text-anchor="middle" x="56" y="-167.5" font-family="Helvetica,sans-Serif" font-size="10.00">std::string</text>
</a>
</g>
</g>
<!-- Node2&#45;&gt;Node1 -->
<g id="edge1" class="edge"><title>Node2&#45;&gt;Node1</title>
<path fill="none" stroke="#9a32cd" stroke-dasharray="5,2" d="M51.9189,-150.532C48.5396,-132.449 44.9012,-104.17 49,-80 51.9442,-62.6384 59.148,-43.6837 64.5152,-31.1484"/>
<polygon fill="#9a32cd" stroke="#9a32cd" points="48.4924,-151.245 53.9181,-160.345 55.3515,-149.848 48.4924,-151.245"/>
<text text-anchor="middle" x="59" y="-93.5" font-family="Helvetica,sans-Serif" font-size="10.00"> pref</text>
</g>
<!-- Node4 -->
<g id="node4" class="node"><title>Node4</title>
<polygon fill="white" stroke="#bfbfbf" points="78,-81 78,-111 188,-111 188,-81 78,-81"/>
<text text-anchor="start" x="86" y="-99" font-family="Helvetica,sans-Serif" font-size="10.00">std::map&lt; std::string,</text>
<text text-anchor="middle" x="133" y="-88" font-family="Helvetica,sans-Serif" font-size="10.00"> TH1 * &gt;</text>
</g>
<!-- Node2&#45;&gt;Node4 -->
<g id="edge4" class="edge"><title>Node2&#45;&gt;Node4</title>
<path fill="none" stroke="#9a32cd" stroke-dasharray="5,2" d="M72.7066,-153.378C86.1149,-140.841 104.782,-123.386 117.78,-111.232"/>
<polygon fill="#9a32cd" stroke="#9a32cd" points="70.0491,-151.071 65.1353,-160.458 74.83,-156.184 70.0491,-151.071"/>
<text text-anchor="middle" x="108.5" y="-133.5" font-family="Helvetica,sans-Serif" font-size="10.00"> keys</text>
</g>
<!-- Node3 -->
<g id="node3" class="node"><title>Node3</title>
<g id="a_node3"><a xlink:title="STL class. ">
<polygon fill="white" stroke="#bfbfbf" points="8.5,-219 8.5,-249 103.5,-249 103.5,-219 8.5,-219"/>
<text text-anchor="start" x="16.5" y="-237" font-family="Helvetica,sans-Serif" font-size="10.00">std::basic_string&lt;</text>
<text text-anchor="middle" x="56" y="-226" font-family="Helvetica,sans-Serif" font-size="10.00"> char &gt;</text>
</a>
</g>
</g>
<!-- Node3&#45;&gt;Node2 -->
<g id="edge2" class="edge"><title>Node3&#45;&gt;Node2</title>
<path fill="none" stroke="midnightblue" d="M56,-208.871C56,-198.663 56,-187.408 56,-179.842"/>
<polygon fill="midnightblue" stroke="midnightblue" points="52.5001,-208.931 56,-218.931 59.5001,-208.931 52.5001,-208.931"/>
</g>
<!-- Node4&#45;&gt;Node1 -->
<g id="edge3" class="edge"><title>Node4&#45;&gt;Node1</title>
<path fill="none" stroke="#9a32cd" stroke-dasharray="5,2" d="M115.406,-72.8651C104.776,-59.493 91.5431,-42.8445 82.2997,-31.2157"/>
<polygon fill="#9a32cd" stroke="#9a32cd" points="112.666,-75.0432 121.628,-80.6936 118.146,-70.6875 112.666,-75.0432"/>
<text text-anchor="middle" x="109.5" y="-53.5" font-family="Helvetica,sans-Serif" font-size="10.00"> h</text>
</g>
</g>
</svg>
