<?xml version="1.0" encoding="UTF-8" standalone="no"?>
<!DOCTYPE svg PUBLIC "-//W3C//DTD SVG 1.1//EN"
 "http://www.w3.org/Graphics/SVG/1.1/DTD/svg11.dtd">
<!-- Generated by graphviz version 2.36.0 (20140111.2315)
 -->
<!-- Title: ant::expconfig::setup::Setup_CBSourceCalib Pages: 1 -->
<svg width="428pt" height="164pt"
 viewBox="0.00 0.00 428.00 164.00" xmlns="http://www.w3.org/2000/svg" xmlns:xlink="http://www.w3.org/1999/xlink">
<g id="graph0" class="graph" transform="scale(1 1) rotate(0) translate(4 160)">
<title>ant::expconfig::setup::Setup_CBSourceCalib</title>
<polygon fill="white" stroke="none" points="-4,4 -4,-160 424,-160 424,4 -4,4"/>
<!-- Node0 -->
<g id="node1" class="node"><title>Node0</title>
<polygon fill="#bfbfbf" stroke="black" points="132.5,-1 132.5,-31 253.5,-31 253.5,-1 132.5,-1"/>
<text text-anchor="start" x="140.5" y="-19" font-family="Helvetica,sans-Serif" font-size="10.00">ant::expconfig::setup</text>
<text text-anchor="middle" x="193" y="-8" font-family="Helvetica,sans-Serif" font-size="10.00">::Setup_CBSourceCalib</text>
</g>
<!-- Node1 -->
<g id="node2" class="node"><title>Node1</title>
<g id="a_node2"><a xlink:href="classant_1_1expconfig_1_1_setup.html" target="_top" xlink:title="The Setup class serves as a base class for all known beamtime setup configurations. ">
<polygon fill="white" stroke="black" points="138,-68.5 138,-87.5 248,-87.5 248,-68.5 138,-68.5"/>
<text text-anchor="middle" x="193" y="-75.5" font-family="Helvetica,sans-Serif" font-size="10.00">ant::expconfig::Setup</text>
</a>
</g>
</g>
<!-- Node1&#45;&gt;Node0 -->
<g id="edge1" class="edge"><title>Node1&#45;&gt;Node0</title>
<path fill="none" stroke="midnightblue" d="M193,-58.3707C193,-49.5849 193,-39.2721 193,-31.1408"/>
<polygon fill="midnightblue" stroke="midnightblue" points="189.5,-58.4034 193,-68.4035 196.5,-58.4035 189.5,-58.4034"/>
</g>
<!-- Node2 -->
<g id="node3" class="node"><title>Node2</title>
<g id="a_node3"><a xlink:href="classant_1_1expconfig_1_1_setup__traits.html" target="_top" xlink:title="The Setup_traits class is the interface to the &quot;static&quot; experimental information. ...">
<polygon fill="white" stroke="black" points="0,-125 0,-155 110,-155 110,-125 0,-125"/>
<text text-anchor="start" x="8" y="-143" font-family="Helvetica,sans-Serif" font-size="10.00">ant::expconfig::Setup</text>
<text text-anchor="middle" x="55" y="-132" font-family="Helvetica,sans-Serif" font-size="10.00">_traits</text>
</a>
</g>
</g>
<!-- Node2&#45;&gt;Node1 -->
<g id="edge2" class="edge"><title>Node2&#45;&gt;Node1</title>
<path fill="none" stroke="midnightblue" d="M96.7559,-120.845C122.127,-109.815 153.352,-96.2384 173.22,-87.6"/>
<polygon fill="midnightblue" stroke="midnightblue" points="95.13,-117.736 87.3549,-124.933 97.9211,-124.155 95.13,-117.736"/>
</g>
<!-- Node3 -->
<g id="node4" class="node"><title>Node3</title>
<g id="a_node4"><a xlink:href="classant_1_1_unpacker_acqu_config.html" target="_top" xlink:title="ant::UnpackerAcquConfig">
<polygon fill="white" stroke="black" points="128.5,-130.5 128.5,-149.5 257.5,-149.5 257.5,-130.5 128.5,-130.5"/>
<text text-anchor="middle" x="193" y="-137.5" font-family="Helvetica,sans-Serif" font-size="10.00">ant::UnpackerAcquConfig</text>
</a>
</g>
</g>
<!-- Node3&#45;&gt;Node1 -->
<g id="edge3" class="edge"><title>Node3&#45;&gt;Node1</title>
<path fill="none" stroke="midnightblue" d="M193,-120.16C193,-109.248 193,-96.04 193,-87.5806"/>
<polygon fill="midnightblue" stroke="midnightblue" points="189.5,-120.403 193,-130.403 196.5,-120.403 189.5,-120.403"/>
</g>
<!-- Node4 -->
<g id="node5" class="node"><title>Node4</title>
<g id="a_node5"><a xlink:href="classant_1_1_unpacker_a2_geant_config.html" target="_top" xlink:title="The UnpackerA2GeantConfig class provides stuff the A2Geant unpacker needs. ">
<polygon fill="white" stroke="black" points="275.5,-130.5 275.5,-149.5 420.5,-149.5 420.5,-130.5 275.5,-130.5"/>
<text text-anchor="middle" x="348" y="-137.5" font-family="Helvetica,sans-Serif" font-size="10.00">ant::UnpackerA2GeantConfig</text>
</a>
</g>
</g>
<!-- Node4&#45;&gt;Node1 -->
<g id="edge4" class="edge"><title>Node4&#45;&gt;Node1</title>
<path fill="none" stroke="midnightblue" d="M316.173,-126.68C286.052,-115.02 241.621,-97.8209 215.167,-87.5806"/>
<polygon fill="midnightblue" stroke="midnightblue" points="315.203,-130.057 325.792,-130.403 317.73,-123.529 315.203,-130.057"/>
</g>
</g>
</svg>
