<?xml version="1.0" encoding="UTF-8" standalone="no"?>
<!DOCTYPE svg PUBLIC "-//W3C//DTD SVG 1.1//EN"
 "http://www.w3.org/Graphics/SVG/1.1/DTD/svg11.dtd">
<!-- Generated by graphviz version 2.36.0 (20140111.2315)
 -->
<!-- Title: ant::expconfig::setup::Setup_2017Plus_NewTagger_Base Pages: 1 -->
<svg width="658pt" height="185pt"
 viewBox="0.00 0.00 658.00 185.00" xmlns="http://www.w3.org/2000/svg" xmlns:xlink="http://www.w3.org/1999/xlink">
<g id="graph0" class="graph" transform="scale(1 1) rotate(0) translate(4 181)">
<title>ant::expconfig::setup::Setup_2017Plus_NewTagger_Base</title>
<polygon fill="white" stroke="none" points="-4,4 -4,-181 654,-181 654,4 -4,4"/>
<!-- Node0 -->
<g id="node1" class="node"><title>Node0</title>
<polygon fill="#bfbfbf" stroke="black" points="328.5,-73 328.5,-103 505.5,-103 505.5,-73 328.5,-73"/>
<text text-anchor="start" x="336.5" y="-91" font-family="Helvetica,sans-Serif" font-size="10.00">ant::expconfig::setup</text>
<text text-anchor="middle" x="417" y="-80" font-family="Helvetica,sans-Serif" font-size="10.00">::Setup_2017Plus_NewTagger_Base</text>
</g>
<!-- Node5 -->
<g id="node6" class="node"><title>Node5</title>
<g id="a_node6"><a xlink:href="classant_1_1expconfig_1_1setup_1_1_setup__2017__12.html" target="_top" xlink:title="Ant Setup for the December 2017 beamtime using the new Tagger. ">
<polygon fill="white" stroke="black" points="542,-147 542,-177 650,-177 650,-147 542,-147"/>
<text text-anchor="start" x="550" y="-165" font-family="Helvetica,sans-Serif" font-size="10.00">ant::expconfig::setup</text>
<text text-anchor="middle" x="596" y="-154" font-family="Helvetica,sans-Serif" font-size="10.00">::Setup_2017_12</text>
</a>
</g>
</g>
<!-- Node0&#45;&gt;Node5 -->
<g id="edge5" class="edge"><title>Node0&#45;&gt;Node5</title>
<path fill="none" stroke="midnightblue" d="M463.572,-107.053C493.295,-119.479 531.543,-135.47 559.106,-146.993"/>
<polygon fill="midnightblue" stroke="midnightblue" points="464.822,-103.782 454.246,-103.154 462.122,-110.24 464.822,-103.782"/>
</g>
<!-- Node6 -->
<g id="node7" class="node"><title>Node6</title>
<g id="a_node7"><a xlink:href="classant_1_1expconfig_1_1setup_1_1_setup__2018__03.html" target="_top" xlink:title="Ant Setup for the March 2018 beamtime using the new Tagger. ">
<polygon fill="white" stroke="black" points="542,-98 542,-128 650,-128 650,-98 542,-98"/>
<text text-anchor="start" x="550" y="-116" font-family="Helvetica,sans-Serif" font-size="10.00">ant::expconfig::setup</text>
<text text-anchor="middle" x="596" y="-105" font-family="Helvetica,sans-Serif" font-size="10.00">::Setup_2018_03</text>
</a>
</g>
</g>
<!-- Node0&#45;&gt;Node6 -->
<g id="edge6" class="edge"><title>Node0&#45;&gt;Node6</title>
<path fill="none" stroke="midnightblue" d="M515.833,-101.818C524.757,-103.079 533.554,-104.321 541.854,-105.493"/>
<polygon fill="midnightblue" stroke="midnightblue" points="516.113,-98.3232 505.722,-100.39 515.134,-105.254 516.113,-98.3232"/>
</g>
<!-- Node7 -->
<g id="node8" class="node"><title>Node7</title>
<g id="a_node8"><a xlink:href="classant_1_1expconfig_1_1setup_1_1_setup__2018__05.html" target="_top" xlink:title="Ant Setup for the May 2018 beamtime using the new Tagger. ">
<polygon fill="white" stroke="black" points="542,-49 542,-79 650,-79 650,-49 542,-49"/>
<text text-anchor="start" x="550" y="-67" font-family="Helvetica,sans-Serif" font-size="10.00">ant::expconfig::setup</text>
<text text-anchor="middle" x="596" y="-56" font-family="Helvetica,sans-Serif" font-size="10.00">::Setup_2018_05</text>
</a>
</g>
</g>
<!-- Node0&#45;&gt;Node7 -->
<g id="edge7" class="edge"><title>Node0&#45;&gt;Node7</title>
<path fill="none" stroke="midnightblue" d="M515.833,-74.7345C524.757,-73.5244 533.554,-72.3317 541.854,-71.2063"/>
<polygon fill="midnightblue" stroke="midnightblue" points="515.161,-71.2935 505.722,-76.1055 516.102,-78.23 515.161,-71.2935"/>
</g>
<!-- Node8 -->
<g id="node9" class="node"><title>Node8</title>
<g id="a_node9"><a xlink:href="classant_1_1expconfig_1_1setup_1_1_setup__2018__09.html" target="_top" xlink:title="Ant Setup for the Septmeber 2018 beamtime using the new Tagger. ">
<polygon fill="white" stroke="black" points="542,-0 542,-30 650,-30 650,-0 542,-0"/>
<text text-anchor="start" x="550" y="-18" font-family="Helvetica,sans-Serif" font-size="10.00">ant::expconfig::setup</text>
<text text-anchor="middle" x="596" y="-7" font-family="Helvetica,sans-Serif" font-size="10.00">::Setup_2018_09</text>
</a>
</g>
</g>
<!-- Node0&#45;&gt;Node8 -->
<g id="edge8" class="edge"><title>Node0&#45;&gt;Node8</title>
<path fill="none" stroke="midnightblue" d="M464.293,-68.9074C493.648,-56.8007 531.092,-41.3576 558.372,-30.1063"/>
<polygon fill="midnightblue" stroke="midnightblue" points="462.585,-65.8259 454.675,-72.8744 465.254,-72.2972 462.585,-65.8259"/>
</g>
<!-- Node1 -->
<g id="node2" class="node"><title>Node1</title>
<g id="a_node2"><a xlink:href="classant_1_1expconfig_1_1_setup.html" target="_top" xlink:title="The Setup class serves as a base class for all known beamtime setup configurations. ">
<polygon fill="white" stroke="black" points="182,-78.5 182,-97.5 292,-97.5 292,-78.5 182,-78.5"/>
<text text-anchor="middle" x="237" y="-85.5" font-family="Helvetica,sans-Serif" font-size="10.00">ant::expconfig::Setup</text>
</a>
</g>
</g>
<!-- Node1&#45;&gt;Node0 -->
<g id="edge1" class="edge"><title>Node1&#45;&gt;Node0</title>
<path fill="none" stroke="midnightblue" d="M302.507,-88C310.964,-88 319.742,-88 328.499,-88"/>
<polygon fill="midnightblue" stroke="midnightblue" points="302.373,-84.5001 292.373,-88 302.373,-91.5001 302.373,-84.5001"/>
</g>
<!-- Node2 -->
<g id="node3" class="node"><title>Node2</title>
<g id="a_node3"><a xlink:href="classant_1_1expconfig_1_1_setup__traits.html" target="_top" xlink:title="The Setup_traits class is the interface to the &quot;static&quot; experimental information. ...">
<polygon fill="white" stroke="black" points="18,-117 18,-147 128,-147 128,-117 18,-117"/>
<text text-anchor="start" x="26" y="-135" font-family="Helvetica,sans-Serif" font-size="10.00">ant::expconfig::Setup</text>
<text text-anchor="middle" x="73" y="-124" font-family="Helvetica,sans-Serif" font-size="10.00">_traits</text>
</a>
</g>
</g>
<!-- Node2&#45;&gt;Node1 -->
<g id="edge2" class="edge"><title>Node2&#45;&gt;Node1</title>
<path fill="none" stroke="midnightblue" d="M138.078,-114.596C159.455,-108.79 182.479,-102.537 200.827,-97.5533"/>
<polygon fill="midnightblue" stroke="midnightblue" points="137.127,-111.227 128.394,-117.226 138.962,-117.983 137.127,-111.227"/>
</g>
<!-- Node3 -->
<g id="node4" class="node"><title>Node3</title>
<g id="a_node4"><a xlink:href="classant_1_1_unpacker_acqu_config.html" target="_top" xlink:title="ant::UnpackerAcquConfig">
<polygon fill="white" stroke="black" points="8.5,-78.5 8.5,-97.5 137.5,-97.5 137.5,-78.5 8.5,-78.5"/>
<text text-anchor="middle" x="73" y="-85.5" font-family="Helvetica,sans-Serif" font-size="10.00">ant::UnpackerAcquConfig</text>
</a>
</g>
</g>
<!-- Node3&#45;&gt;Node1 -->
<g id="edge3" class="edge"><title>Node3&#45;&gt;Node1</title>
<path fill="none" stroke="midnightblue" d="M147.602,-88C159.113,-88 170.824,-88 181.797,-88"/>
<polygon fill="midnightblue" stroke="midnightblue" points="147.562,-84.5001 137.562,-88 147.562,-91.5001 147.562,-84.5001"/>
</g>
<!-- Node4 -->
<g id="node5" class="node"><title>Node4</title>
<g id="a_node5"><a xlink:href="classant_1_1_unpacker_a2_geant_config.html" target="_top" xlink:title="The UnpackerA2GeantConfig class provides stuff the A2Geant unpacker needs. ">
<polygon fill="white" stroke="black" points="0.5,-40.5 0.5,-59.5 145.5,-59.5 145.5,-40.5 0.5,-40.5"/>
<text text-anchor="middle" x="73" y="-47.5" font-family="Helvetica,sans-Serif" font-size="10.00">ant::UnpackerA2GeantConfig</text>
</a>
</g>
</g>
<!-- Node4&#45;&gt;Node1 -->
<g id="edge4" class="edge"><title>Node4&#45;&gt;Node1</title>
<path fill="none" stroke="midnightblue" d="M124.715,-61.8961C147.486,-67.2374 173.987,-73.4537 195.415,-78.4799"/>
<polygon fill="midnightblue" stroke="midnightblue" points="125.415,-58.4653 114.879,-59.589 123.816,-65.2803 125.415,-58.4653"/>
</g>
</g>
</svg>
