<?xml version="1.0" encoding="UTF-8" standalone="no"?>
<!DOCTYPE svg PUBLIC "-//W3C//DTD SVG 1.1//EN"
 "http://www.w3.org/Graphics/SVG/1.1/DTD/svg11.dtd">
<!-- Generated by graphviz version 2.36.0 (20140111.2315)
 -->
<!-- Title: ant::calibration::PID_PhiAngle::TheGUI::_FitGauss Pages: 1 -->
<svg width="274pt" height="640pt"
 viewBox="0.00 0.00 274.00 640.00" xmlns="http://www.w3.org/2000/svg" xmlns:xlink="http://www.w3.org/1999/xlink">
<g id="graph0" class="graph" transform="scale(1 1) rotate(0) translate(4 636)">
<title>ant::calibration::PID_PhiAngle::TheGUI::_FitGauss</title>
<polygon fill="white" stroke="none" points="-4,4 -4,-636 270,-636 270,4 -4,4"/>
<!-- Node4 -->
<g id="node1" class="node"><title>Node4</title>
<polygon fill="#bfbfbf" stroke="black" points="0,-1 0,-31 152,-31 152,-1 0,-1"/>
<text text-anchor="start" x="8" y="-19" font-family="Helvetica,sans-Serif" font-size="10.00">ant::calibration::PID</text>
<text text-anchor="middle" x="76" y="-8" font-family="Helvetica,sans-Serif" font-size="10.00">_PhiAngle::TheGUI::_FitGauss</text>
</g>
<!-- Node5 -->
<g id="node2" class="node"><title>Node5</title>
<g id="a_node2"><a xlink:href="classant_1_1calibration_1_1gui_1_1_fit_gaus.html" target="_top" xlink:title="ant::calibration::gui\l::FitGaus">
<polygon fill="white" stroke="black" points="26.5,-71 26.5,-101 125.5,-101 125.5,-71 26.5,-71"/>
<text text-anchor="start" x="34.5" y="-89" font-family="Helvetica,sans-Serif" font-size="10.00">ant::calibration::gui</text>
<text text-anchor="middle" x="76" y="-78" font-family="Helvetica,sans-Serif" font-size="10.00">::FitGaus</text>
</a>
</g>
</g>
<!-- Node5&#45;&gt;Node4 -->
<g id="edge1" class="edge"><title>Node5&#45;&gt;Node4</title>
<path fill="none" stroke="midnightblue" d="M76,-60.7688C76,-50.8141 76,-39.6384 76,-31.0716"/>
<polygon fill="midnightblue" stroke="midnightblue" points="72.5001,-60.9103 76,-70.9104 79.5001,-60.9104 72.5001,-60.9103"/>
</g>
<!-- Node6 -->
<g id="node3" class="node"><title>Node6</title>
<g id="a_node3"><a xlink:href="classant_1_1calibration_1_1gui_1_1_peaking_fit_function.html" target="_top" xlink:title="Fit functions describing peak shapes, like Gaus or Lorentz with optional background function...">
<polygon fill="white" stroke="black" points="22.5,-141 22.5,-171 129.5,-171 129.5,-141 22.5,-141"/>
<text text-anchor="start" x="30.5" y="-159" font-family="Helvetica,sans-Serif" font-size="10.00">ant::calibration::gui</text>
<text text-anchor="middle" x="76" y="-148" font-family="Helvetica,sans-Serif" font-size="10.00">::PeakingFitFunction</text>
</a>
</g>
</g>
<!-- Node6&#45;&gt;Node5 -->
<g id="edge2" class="edge"><title>Node6&#45;&gt;Node5</title>
<path fill="none" stroke="midnightblue" d="M76,-130.769C76,-120.814 76,-109.638 76,-101.072"/>
<polygon fill="midnightblue" stroke="midnightblue" points="72.5001,-130.91 76,-140.91 79.5001,-130.91 72.5001,-130.91"/>
</g>
<!-- Node7 -->
<g id="node4" class="node"><title>Node7</title>
<g id="a_node4"><a xlink:href="classant_1_1calibration_1_1gui_1_1_fit_function.html" target="_top" xlink:title="ant::calibration::gui\l::FitFunction">
<polygon fill="white" stroke="black" points="26.5,-211 26.5,-241 125.5,-241 125.5,-211 26.5,-211"/>
<text text-anchor="start" x="34.5" y="-229" font-family="Helvetica,sans-Serif" font-size="10.00">ant::calibration::gui</text>
<text text-anchor="middle" x="76" y="-218" font-family="Helvetica,sans-Serif" font-size="10.00">::FitFunction</text>
</a>
</g>
</g>
<!-- Node7&#45;&gt;Node6 -->
<g id="edge3" class="edge"><title>Node7&#45;&gt;Node6</title>
<path fill="none" stroke="midnightblue" d="M76,-200.769C76,-190.814 76,-179.638 76,-171.072"/>
<polygon fill="midnightblue" stroke="midnightblue" points="72.5001,-200.91 76,-210.91 79.5001,-200.91 72.5001,-200.91"/>
</g>
<!-- Node8 -->
<g id="node5" class="node"><title>Node8</title>
<polygon fill="white" stroke="#bfbfbf" points="88,-291 88,-321 208,-321 208,-291 88,-291"/>
<text text-anchor="start" x="96" y="-309" font-family="Helvetica,sans-Serif" font-size="10.00">std::list&lt; std::unique</text>
<text text-anchor="middle" x="148" y="-298" font-family="Helvetica,sans-Serif" font-size="10.00">_ptr&lt; IndicatorKnob &gt; &gt;</text>
</g>
<!-- Node8&#45;&gt;Node7 -->
<g id="edge4" class="edge"><title>Node8&#45;&gt;Node7</title>
<path fill="none" stroke="#9a32cd" stroke-dasharray="5,2" d="M127.916,-283.243C115.515,-269.808 99.9577,-252.954 89.1222,-241.216"/>
<polygon fill="#9a32cd" stroke="#9a32cd" points="125.439,-285.72 134.794,-290.694 130.583,-280.972 125.439,-285.72"/>
<text text-anchor="middle" x="132" y="-263.5" font-family="Helvetica,sans-Serif" font-size="10.00"> knobs</text>
</g>
<!-- Node9 -->
<g id="node6" class="node"><title>Node9</title>
<polygon fill="white" stroke="#bfbfbf" points="138,-371 138,-401 266,-401 266,-371 138,-371"/>
<text text-anchor="start" x="146" y="-389" font-family="Helvetica,sans-Serif" font-size="10.00">std::unique_ptr&lt; Indicator</text>
<text text-anchor="middle" x="202" y="-378" font-family="Helvetica,sans-Serif" font-size="10.00">Knob &gt;</text>
</g>
<!-- Node9&#45;&gt;Node8 -->
<g id="edge5" class="edge"><title>Node9&#45;&gt;Node8</title>
<path fill="none" stroke="#9a32cd" stroke-dasharray="5,2" d="M186.149,-362.105C176.985,-348.867 165.74,-332.625 157.842,-321.216"/>
<polygon fill="#9a32cd" stroke="#9a32cd" points="183.526,-364.464 192.096,-370.694 189.281,-360.479 183.526,-364.464"/>
<text text-anchor="middle" x="200.5" y="-343.5" font-family="Helvetica,sans-Serif" font-size="10.00"> elements</text>
</g>
<!-- Node10 -->
<g id="node7" class="node"><title>Node10</title>
<g id="a_node7"><a xlink:href="classant_1_1calibration_1_1gui_1_1_indicator_knob.html" target="_top" xlink:title="ant::calibration::gui\l::IndicatorKnob">
<polygon fill="white" stroke="black" points="132.5,-451 132.5,-481 231.5,-481 231.5,-451 132.5,-451"/>
<text text-anchor="start" x="140.5" y="-469" font-family="Helvetica,sans-Serif" font-size="10.00">ant::calibration::gui</text>
<text text-anchor="middle" x="182" y="-458" font-family="Helvetica,sans-Serif" font-size="10.00">::IndicatorKnob</text>
</a>
</g>
</g>
<!-- Node10&#45;&gt;Node9 -->
<g id="edge6" class="edge"><title>Node10&#45;&gt;Node9</title>
<path fill="none" stroke="#9a32cd" stroke-dasharray="5,2" d="M188.166,-440.952C191.504,-427.934 195.514,-412.296 198.355,-401.216"/>
<polygon fill="#9a32cd" stroke="#9a32cd" points="184.762,-440.138 185.668,-450.694 191.542,-441.876 184.762,-440.138"/>
<text text-anchor="middle" x="200.5" y="-423.5" font-family="Helvetica,sans-Serif" font-size="10.00"> ptr</text>
</g>
<!-- Node11 -->
<g id="node8" class="node"><title>Node11</title>
<g id="a_node8"><a xlink:title="STL class. ">
<polygon fill="white" stroke="#bfbfbf" points="32,-536.5 32,-555.5 92,-555.5 92,-536.5 32,-536.5"/>
<text text-anchor="middle" x="62" y="-543.5" font-family="Helvetica,sans-Serif" font-size="10.00">std::string</text>
</a>
</g>
</g>
<!-- Node11&#45;&gt;Node7 -->
<g id="edge10" class="edge"><title>Node11&#45;&gt;Node7</title>
<path fill="none" stroke="#9a32cd" stroke-dasharray="5,2" d="M54.4958,-526.585C48.8208,-510.99 42,-487.9 42,-467 42,-467 42,-467 42,-305 42,-281.069 55.6154,-256.19 65.6141,-241.147"/>
<polygon fill="#9a32cd" stroke="#9a32cd" points="51.2859,-527.989 58.1438,-536.065 57.8189,-525.475 51.2859,-527.989"/>
<text text-anchor="middle" x="81" y="-383.5" font-family="Helvetica,sans-Serif" font-size="10.00"> AdditionalFitArgs</text>
</g>
<!-- Node11&#45;&gt;Node10 -->
<g id="edge7" class="edge"><title>Node11&#45;&gt;Node10</title>
<path fill="none" stroke="#9a32cd" stroke-dasharray="5,2" d="M83.8159,-530.82C105.459,-516.751 138.444,-495.311 160.112,-481.227"/>
<polygon fill="#9a32cd" stroke="#9a32cd" points="81.7776,-527.97 75.3006,-536.355 85.5925,-533.839 81.7776,-527.97"/>
<text text-anchor="middle" x="144" y="-503.5" font-family="Helvetica,sans-Serif" font-size="10.00"> name</text>
</g>
<!-- Node12 -->
<g id="node9" class="node"><title>Node12</title>
<g id="a_node9"><a xlink:title="STL class. ">
<polygon fill="white" stroke="#bfbfbf" points="14.5,-601 14.5,-631 109.5,-631 109.5,-601 14.5,-601"/>
<text text-anchor="start" x="22.5" y="-619" font-family="Helvetica,sans-Serif" font-size="10.00">std::basic_string&lt;</text>
<text text-anchor="middle" x="62" y="-608" font-family="Helvetica,sans-Serif" font-size="10.00"> char &gt;</text>
</a>
</g>
</g>
<!-- Node12&#45;&gt;Node11 -->
<g id="edge8" class="edge"><title>Node12&#45;&gt;Node11</title>
<path fill="none" stroke="midnightblue" d="M62,-590.883C62,-578.733 62,-564.739 62,-555.883"/>
<polygon fill="midnightblue" stroke="midnightblue" points="58.5001,-590.91 62,-600.91 65.5001,-590.91 58.5001,-590.91"/>
</g>
<!-- Node13 -->
<g id="node10" class="node"><title>Node13</title>
<g id="a_node10"><a xlink:href="structant_1_1calibration_1_1gui_1_1_indicator_properties.html" target="_top" xlink:title="ant::calibration::gui\l::IndicatorProperties">
<polygon fill="white" stroke="black" points="130,-531 130,-561 234,-561 234,-531 130,-531"/>
<text text-anchor="start" x="138" y="-549" font-family="Helvetica,sans-Serif" font-size="10.00">ant::calibration::gui</text>
<text text-anchor="middle" x="182" y="-538" font-family="Helvetica,sans-Serif" font-size="10.00">::IndicatorProperties</text>
</a>
</g>
</g>
<!-- Node13&#45;&gt;Node10 -->
<g id="edge9" class="edge"><title>Node13&#45;&gt;Node10</title>
<path fill="none" stroke="#9a32cd" stroke-dasharray="5,2" d="M182,-520.564C182,-507.624 182,-492.186 182,-481.216"/>
<polygon fill="#9a32cd" stroke="#9a32cd" points="178.5,-520.694 182,-530.694 185.5,-520.694 178.5,-520.694"/>
<text text-anchor="middle" x="190" y="-503.5" font-family="Helvetica,sans-Serif" font-size="10.00"> gui</text>
</g>
</g>
</svg>
