<?xml version="1.0" encoding="UTF-8" standalone="no"?>
<!DOCTYPE svg PUBLIC "-//W3C//DTD SVG 1.1//EN"
 "http://www.w3.org/Graphics/SVG/1.1/DTD/svg11.dtd">
<!-- Generated by graphviz version 2.36.0 (20140111.2315)
 -->
<!-- Title: ant::calibration::gui::KnobsTF1::ParameterKnob Pages: 1 -->
<svg width="207pt" height="260pt"
 viewBox="0.00 0.00 207.00 260.00" xmlns="http://www.w3.org/2000/svg" xmlns:xlink="http://www.w3.org/1999/xlink">
<g id="graph0" class="graph" transform="scale(1 1) rotate(0) translate(4 256)">
<title>ant::calibration::gui::KnobsTF1::ParameterKnob</title>
<polygon fill="white" stroke="none" points="-4,4 -4,-256 203,-256 203,4 -4,4"/>
<!-- Node5 -->
<g id="node1" class="node"><title>Node5</title>
<polygon fill="#bfbfbf" stroke="black" points="50.5,-1 50.5,-31 191.5,-31 191.5,-1 50.5,-1"/>
<text text-anchor="start" x="58.5" y="-19" font-family="Helvetica,sans-Serif" font-size="10.00">ant::calibration::gui</text>
<text text-anchor="middle" x="121" y="-8" font-family="Helvetica,sans-Serif" font-size="10.00">::KnobsTF1::ParameterKnob</text>
</g>
<!-- Node6 -->
<g id="node2" class="node"><title>Node6</title>
<g id="a_node2"><a xlink:href="classant_1_1calibration_1_1gui_1_1_indicator_knob.html" target="_top" xlink:title="ant::calibration::gui\l::IndicatorKnob">
<polygon fill="white" stroke="black" points="71.5,-71 71.5,-101 170.5,-101 170.5,-71 71.5,-71"/>
<text text-anchor="start" x="79.5" y="-89" font-family="Helvetica,sans-Serif" font-size="10.00">ant::calibration::gui</text>
<text text-anchor="middle" x="121" y="-78" font-family="Helvetica,sans-Serif" font-size="10.00">::IndicatorKnob</text>
</a>
</g>
</g>
<!-- Node6&#45;&gt;Node5 -->
<g id="edge1" class="edge"><title>Node6&#45;&gt;Node5</title>
<path fill="none" stroke="midnightblue" d="M121,-60.7688C121,-50.8141 121,-39.6384 121,-31.0716"/>
<polygon fill="midnightblue" stroke="midnightblue" points="117.5,-60.9103 121,-70.9104 124.5,-60.9104 117.5,-60.9103"/>
</g>
<!-- Node7 -->
<g id="node3" class="node"><title>Node7</title>
<g id="a_node3"><a xlink:title="STL class. ">
<polygon fill="white" stroke="#bfbfbf" points="17,-156.5 17,-175.5 77,-175.5 77,-156.5 17,-156.5"/>
<text text-anchor="middle" x="47" y="-163.5" font-family="Helvetica,sans-Serif" font-size="10.00">std::string</text>
</a>
</g>
</g>
<!-- Node7&#45;&gt;Node6 -->
<g id="edge2" class="edge"><title>Node7&#45;&gt;Node6</title>
<path fill="none" stroke="#9a32cd" stroke-dasharray="5,2" d="M62.2812,-148.893C75.6021,-134.852 94.7369,-114.683 107.503,-101.227"/>
<polygon fill="#9a32cd" stroke="#9a32cd" points="59.5455,-146.691 55.202,-156.355 64.6238,-151.509 59.5455,-146.691"/>
<text text-anchor="middle" x="103" y="-123.5" font-family="Helvetica,sans-Serif" font-size="10.00"> name</text>
</g>
<!-- Node8 -->
<g id="node4" class="node"><title>Node8</title>
<g id="a_node4"><a xlink:title="STL class. ">
<polygon fill="white" stroke="#bfbfbf" points="-0.5,-221 -0.5,-251 94.5,-251 94.5,-221 -0.5,-221"/>
<text text-anchor="start" x="7.5" y="-239" font-family="Helvetica,sans-Serif" font-size="10.00">std::basic_string&lt;</text>
<text text-anchor="middle" x="47" y="-228" font-family="Helvetica,sans-Serif" font-size="10.00"> char &gt;</text>
</a>
</g>
</g>
<!-- Node8&#45;&gt;Node7 -->
<g id="edge3" class="edge"><title>Node8&#45;&gt;Node7</title>
<path fill="none" stroke="midnightblue" d="M47,-210.883C47,-198.733 47,-184.739 47,-175.883"/>
<polygon fill="midnightblue" stroke="midnightblue" points="43.5001,-210.91 47,-220.91 50.5001,-210.91 43.5001,-210.91"/>
</g>
<!-- Node9 -->
<g id="node5" class="node"><title>Node9</title>
<g id="a_node5"><a xlink:href="structant_1_1calibration_1_1gui_1_1_indicator_properties.html" target="_top" xlink:title="ant::calibration::gui\l::IndicatorProperties">
<polygon fill="white" stroke="black" points="95,-151 95,-181 199,-181 199,-151 95,-151"/>
<text text-anchor="start" x="103" y="-169" font-family="Helvetica,sans-Serif" font-size="10.00">ant::calibration::gui</text>
<text text-anchor="middle" x="147" y="-158" font-family="Helvetica,sans-Serif" font-size="10.00">::IndicatorProperties</text>
</a>
</g>
</g>
<!-- Node9&#45;&gt;Node6 -->
<g id="edge4" class="edge"><title>Node9&#45;&gt;Node6</title>
<path fill="none" stroke="#9a32cd" stroke-dasharray="5,2" d="M138.984,-140.952C134.645,-127.934 129.432,-112.296 125.739,-101.216"/>
<polygon fill="#9a32cd" stroke="#9a32cd" points="135.748,-142.314 142.231,-150.694 142.389,-140.1 135.748,-142.314"/>
<text text-anchor="middle" x="143" y="-123.5" font-family="Helvetica,sans-Serif" font-size="10.00"> gui</text>
</g>
</g>
</svg>
