<?xml version="1.0" encoding="UTF-8" standalone="no"?>
<!DOCTYPE svg PUBLIC "-//W3C//DTD SVG 1.1//EN"
 "http://www.w3.org/Graphics/SVG/1.1/DTD/svg11.dtd">
<!-- Generated by graphviz version 2.36.0 (20140111.2315)
 -->
<!-- Title: ant::calibration::gui::FitFunction Pages: 1 -->
<svg width="259pt" height="430pt"
 viewBox="0.00 0.00 259.00 430.00" xmlns="http://www.w3.org/2000/svg" xmlns:xlink="http://www.w3.org/1999/xlink">
<g id="graph0" class="graph" transform="scale(1 1) rotate(0) translate(4 426)">
<title>ant::calibration::gui::FitFunction</title>
<polygon fill="white" stroke="none" points="-4,4 -4,-426 255,-426 255,4 -4,4"/>
<!-- Node19 -->
<g id="node1" class="node"><title>Node19</title>
<polygon fill="#bfbfbf" stroke="black" points="11.5,-1 11.5,-31 110.5,-31 110.5,-1 11.5,-1"/>
<text text-anchor="start" x="19.5" y="-19" font-family="Helvetica,sans-Serif" font-size="10.00">ant::calibration::gui</text>
<text text-anchor="middle" x="61" y="-8" font-family="Helvetica,sans-Serif" font-size="10.00">::FitFunction</text>
</g>
<!-- Node20 -->
<g id="node2" class="node"><title>Node20</title>
<polygon fill="white" stroke="#bfbfbf" points="73,-81 73,-111 193,-111 193,-81 73,-81"/>
<text text-anchor="start" x="81" y="-99" font-family="Helvetica,sans-Serif" font-size="10.00">std::list&lt; std::unique</text>
<text text-anchor="middle" x="133" y="-88" font-family="Helvetica,sans-Serif" font-size="10.00">_ptr&lt; IndicatorKnob &gt; &gt;</text>
</g>
<!-- Node20&#45;&gt;Node19 -->
<g id="edge1" class="edge"><title>Node20&#45;&gt;Node19</title>
<path fill="none" stroke="#9a32cd" stroke-dasharray="5,2" d="M112.916,-73.2427C100.515,-59.8075 84.9577,-42.9542 74.1222,-31.2157"/>
<polygon fill="#9a32cd" stroke="#9a32cd" points="110.439,-75.7195 119.794,-80.6936 115.583,-70.9715 110.439,-75.7195"/>
<text text-anchor="middle" x="117" y="-53.5" font-family="Helvetica,sans-Serif" font-size="10.00"> knobs</text>
</g>
<!-- Node21 -->
<g id="node3" class="node"><title>Node21</title>
<polygon fill="white" stroke="#bfbfbf" points="123,-161 123,-191 251,-191 251,-161 123,-161"/>
<text text-anchor="start" x="131" y="-179" font-family="Helvetica,sans-Serif" font-size="10.00">std::unique_ptr&lt; Indicator</text>
<text text-anchor="middle" x="187" y="-168" font-family="Helvetica,sans-Serif" font-size="10.00">Knob &gt;</text>
</g>
<!-- Node21&#45;&gt;Node20 -->
<g id="edge2" class="edge"><title>Node21&#45;&gt;Node20</title>
<path fill="none" stroke="#9a32cd" stroke-dasharray="5,2" d="M171.149,-152.105C161.985,-138.867 150.74,-122.625 142.842,-111.216"/>
<polygon fill="#9a32cd" stroke="#9a32cd" points="168.526,-154.464 177.096,-160.694 174.281,-150.479 168.526,-154.464"/>
<text text-anchor="middle" x="185.5" y="-133.5" font-family="Helvetica,sans-Serif" font-size="10.00"> elements</text>
</g>
<!-- Node22 -->
<g id="node4" class="node"><title>Node22</title>
<g id="a_node4"><a xlink:href="classant_1_1calibration_1_1gui_1_1_indicator_knob.html" target="_top" xlink:title="ant::calibration::gui\l::IndicatorKnob">
<polygon fill="white" stroke="black" points="117.5,-241 117.5,-271 216.5,-271 216.5,-241 117.5,-241"/>
<text text-anchor="start" x="125.5" y="-259" font-family="Helvetica,sans-Serif" font-size="10.00">ant::calibration::gui</text>
<text text-anchor="middle" x="167" y="-248" font-family="Helvetica,sans-Serif" font-size="10.00">::IndicatorKnob</text>
</a>
</g>
</g>
<!-- Node22&#45;&gt;Node21 -->
<g id="edge3" class="edge"><title>Node22&#45;&gt;Node21</title>
<path fill="none" stroke="#9a32cd" stroke-dasharray="5,2" d="M173.166,-230.952C176.504,-217.934 180.514,-202.296 183.355,-191.216"/>
<polygon fill="#9a32cd" stroke="#9a32cd" points="169.762,-230.138 170.668,-240.694 176.542,-231.876 169.762,-230.138"/>
<text text-anchor="middle" x="185.5" y="-213.5" font-family="Helvetica,sans-Serif" font-size="10.00"> ptr</text>
</g>
<!-- Node23 -->
<g id="node5" class="node"><title>Node23</title>
<g id="a_node5"><a xlink:title="STL class. ">
<polygon fill="white" stroke="#bfbfbf" points="17,-326.5 17,-345.5 77,-345.5 77,-326.5 17,-326.5"/>
<text text-anchor="middle" x="47" y="-333.5" font-family="Helvetica,sans-Serif" font-size="10.00">std::string</text>
</a>
</g>
</g>
<!-- Node23&#45;&gt;Node19 -->
<g id="edge7" class="edge"><title>Node23&#45;&gt;Node19</title>
<path fill="none" stroke="#9a32cd" stroke-dasharray="5,2" d="M39.4958,-316.585C33.8208,-300.99 27,-277.9 27,-257 27,-257 27,-257 27,-95 27,-71.0689 40.6154,-46.1904 50.6141,-31.1468"/>
<polygon fill="#9a32cd" stroke="#9a32cd" points="36.2859,-317.989 43.1438,-326.065 42.8189,-315.475 36.2859,-317.989"/>
<text text-anchor="middle" x="66" y="-173.5" font-family="Helvetica,sans-Serif" font-size="10.00"> AdditionalFitArgs</text>
</g>
<!-- Node23&#45;&gt;Node22 -->
<g id="edge4" class="edge"><title>Node23&#45;&gt;Node22</title>
<path fill="none" stroke="#9a32cd" stroke-dasharray="5,2" d="M68.8159,-320.82C90.4592,-306.751 123.444,-285.311 145.112,-271.227"/>
<polygon fill="#9a32cd" stroke="#9a32cd" points="66.7776,-317.97 60.3006,-326.355 70.5925,-323.839 66.7776,-317.97"/>
<text text-anchor="middle" x="129" y="-293.5" font-family="Helvetica,sans-Serif" font-size="10.00"> name</text>
</g>
<!-- Node24 -->
<g id="node6" class="node"><title>Node24</title>
<g id="a_node6"><a xlink:title="STL class. ">
<polygon fill="white" stroke="#bfbfbf" points="-0.5,-391 -0.5,-421 94.5,-421 94.5,-391 -0.5,-391"/>
<text text-anchor="start" x="7.5" y="-409" font-family="Helvetica,sans-Serif" font-size="10.00">std::basic_string&lt;</text>
<text text-anchor="middle" x="47" y="-398" font-family="Helvetica,sans-Serif" font-size="10.00"> char &gt;</text>
</a>
</g>
</g>
<!-- Node24&#45;&gt;Node23 -->
<g id="edge5" class="edge"><title>Node24&#45;&gt;Node23</title>
<path fill="none" stroke="midnightblue" d="M47,-380.883C47,-368.733 47,-354.739 47,-345.883"/>
<polygon fill="midnightblue" stroke="midnightblue" points="43.5001,-380.91 47,-390.91 50.5001,-380.91 43.5001,-380.91"/>
</g>
<!-- Node25 -->
<g id="node7" class="node"><title>Node25</title>
<g id="a_node7"><a xlink:href="structant_1_1calibration_1_1gui_1_1_indicator_properties.html" target="_top" xlink:title="ant::calibration::gui\l::IndicatorProperties">
<polygon fill="white" stroke="black" points="115,-321 115,-351 219,-351 219,-321 115,-321"/>
<text text-anchor="start" x="123" y="-339" font-family="Helvetica,sans-Serif" font-size="10.00">ant::calibration::gui</text>
<text text-anchor="middle" x="167" y="-328" font-family="Helvetica,sans-Serif" font-size="10.00">::IndicatorProperties</text>
</a>
</g>
</g>
<!-- Node25&#45;&gt;Node22 -->
<g id="edge6" class="edge"><title>Node25&#45;&gt;Node22</title>
<path fill="none" stroke="#9a32cd" stroke-dasharray="5,2" d="M167,-310.564C167,-297.624 167,-282.186 167,-271.216"/>
<polygon fill="#9a32cd" stroke="#9a32cd" points="163.5,-310.694 167,-320.694 170.5,-310.694 163.5,-310.694"/>
<text text-anchor="middle" x="175" y="-293.5" font-family="Helvetica,sans-Serif" font-size="10.00"> gui</text>
</g>
</g>
</svg>
