<?xml version="1.0" encoding="UTF-8" standalone="no"?>
<!DOCTYPE svg PUBLIC "-//W3C//DTD SVG 1.1//EN"
 "http://www.w3.org/Graphics/SVG/1.1/DTD/svg11.dtd">
<!-- Generated by graphviz version 2.36.0 (20140111.2315)
 -->
<!-- Title: ant::ParticleTypeTreeDatabase::const_iterator Pages: 1 -->
<svg width="160pt" height="108pt"
 viewBox="0.00 0.00 160.00 108.00" xmlns="http://www.w3.org/2000/svg" xmlns:xlink="http://www.w3.org/1999/xlink">
<g id="graph0" class="graph" transform="scale(1 1) rotate(0) translate(4 104)">
<title>ant::ParticleTypeTreeDatabase::const_iterator</title>
<polygon fill="white" stroke="none" points="-4,4 -4,-104 156,-104 156,4 -4,4"/>
<!-- Node2 -->
<g id="node1" class="node"><title>Node2</title>
<polygon fill="#bfbfbf" stroke="black" points="0,-1 0,-31 152,-31 152,-1 0,-1"/>
<text text-anchor="start" x="8" y="-19" font-family="Helvetica,sans-Serif" font-size="10.00">ant::ParticleTypeTreeDatabase</text>
<text text-anchor="middle" x="76" y="-8" font-family="Helvetica,sans-Serif" font-size="10.00">::const_iterator</text>
</g>
<!-- Node3 -->
<g id="node2" class="node"><title>Node3</title>
<g id="a_node2"><a xlink:title="STL iterator class. ">
<polygon fill="white" stroke="#bfbfbf" points="15,-69 15,-99 137,-99 137,-69 15,-69"/>
<text text-anchor="start" x="23" y="-87" font-family="Helvetica,sans-Serif" font-size="10.00">std::map&lt; K, T &gt;::const</text>
<text text-anchor="middle" x="76" y="-76" font-family="Helvetica,sans-Serif" font-size="10.00">_iterator</text>
</a>
</g>
</g>
<!-- Node3&#45;&gt;Node2 -->
<g id="edge1" class="edge"><title>Node3&#45;&gt;Node2</title>
<path fill="none" stroke="midnightblue" d="M76,-58.5322C76,-49.3606 76,-39.2449 76,-31.2931"/>
<polygon fill="midnightblue" stroke="midnightblue" points="72.5001,-58.6789 76,-68.679 79.5001,-58.679 72.5001,-58.6789"/>
</g>
</g>
</svg>
