<?xml version="1.0" encoding="UTF-8" standalone="no"?>
<!DOCTYPE svg PUBLIC "-//W3C//DTD SVG 1.1//EN"
 "http://www.w3.org/Graphics/SVG/1.1/DTD/svg11.dtd">
<!-- Generated by graphviz version 2.36.0 (20140111.2315)
 -->
<!-- Title: ant::calibration::CB_TimeWalk Pages: 1 -->
<svg width="674pt" height="225pt"
 viewBox="0.00 0.00 674.00 225.00" xmlns="http://www.w3.org/2000/svg" xmlns:xlink="http://www.w3.org/1999/xlink">
<g id="graph0" class="graph" transform="scale(1 1) rotate(0) translate(4 221)">
<title>ant::calibration::CB_TimeWalk</title>
<polygon fill="white" stroke="none" points="-4,4 -4,-221 670,-221 670,4 -4,4"/>
<!-- Node7 -->
<g id="node1" class="node"><title>Node7</title>
<polygon fill="#bfbfbf" stroke="black" points="564.5,-72 564.5,-102 665.5,-102 665.5,-72 564.5,-72"/>
<text text-anchor="start" x="572.5" y="-90" font-family="Helvetica,sans-Serif" font-size="10.00">ant::calibration::CB</text>
<text text-anchor="middle" x="615" y="-79" font-family="Helvetica,sans-Serif" font-size="10.00">_TimeWalk</text>
</g>
<!-- Node8 -->
<g id="node2" class="node"><title>Node8</title>
<g id="a_node2"><a xlink:href="classant_1_1_calibration_1_1_module.html" target="_top" xlink:title="The Module class is typically used for calibrations. ">
<polygon fill="white" stroke="black" points="345,-148.5 345,-167.5 465,-167.5 465,-148.5 345,-148.5"/>
<text text-anchor="middle" x="405" y="-155.5" font-family="Helvetica,sans-Serif" font-size="10.00">ant::Calibration::Module</text>
</a>
</g>
</g>
<!-- Node8&#45;&gt;Node7 -->
<g id="edge1" class="edge"><title>Node8&#45;&gt;Node7</title>
<path fill="none" stroke="midnightblue" d="M450.041,-145.61C477.787,-137.525 514.239,-126.389 546,-115 556.936,-111.078 568.69,-106.407 579.298,-102.014"/>
<polygon fill="midnightblue" stroke="midnightblue" points="448.872,-142.305 440.238,-148.445 450.817,-149.029 448.872,-142.305"/>
</g>
<!-- Node9 -->
<g id="node3" class="node"><title>Node9</title>
<g id="a_node3"><a xlink:href="classant_1_1_calibration_1_1_physics_module.html" target="_top" xlink:title="The PhysicsModule class gives the modules the ability to create histograms from events as well as fit...">
<polygon fill="white" stroke="black" points="182,-187 182,-217 306,-217 306,-187 182,-187"/>
<text text-anchor="start" x="190" y="-205" font-family="Helvetica,sans-Serif" font-size="10.00">ant::Calibration::Physics</text>
<text text-anchor="middle" x="244" y="-194" font-family="Helvetica,sans-Serif" font-size="10.00">Module</text>
</a>
</g>
</g>
<!-- Node9&#45;&gt;Node8 -->
<g id="edge2" class="edge"><title>Node9&#45;&gt;Node8</title>
<path fill="none" stroke="midnightblue" d="M308.95,-184.303C329.596,-178.59 351.697,-172.474 369.388,-167.578"/>
<polygon fill="midnightblue" stroke="midnightblue" points="307.978,-180.94 299.274,-186.981 309.845,-187.687 307.978,-180.94"/>
</g>
<!-- Node10 -->
<g id="node4" class="node"><title>Node10</title>
<g id="a_node4"><a xlink:href="classant_1_1_calibration_1_1_base_module.html" target="_top" xlink:title="The BaseModule class provides a name for identification. ">
<polygon fill="white" stroke="black" points="0.5,-192.5 0.5,-211.5 143.5,-211.5 143.5,-192.5 0.5,-192.5"/>
<text text-anchor="middle" x="72" y="-199.5" font-family="Helvetica,sans-Serif" font-size="10.00">ant::Calibration::BaseModule</text>
</a>
</g>
</g>
<!-- Node10&#45;&gt;Node9 -->
<g id="edge3" class="edge"><title>Node10&#45;&gt;Node9</title>
<path fill="none" stroke="midnightblue" d="M153.794,-202C163.217,-202 172.709,-202 181.805,-202"/>
<polygon fill="midnightblue" stroke="midnightblue" points="153.618,-198.5 143.618,-202 153.618,-205.5 153.618,-198.5"/>
</g>
<!-- Node11 -->
<g id="node5" class="node"><title>Node11</title>
<g id="a_node5"><a xlink:href="structant_1_1_updateable__traits.html" target="_top" xlink:title="The Updateable_traits class used by the UpdateableManager. ">
<polygon fill="white" stroke="black" points="187.5,-148.5 187.5,-167.5 300.5,-167.5 300.5,-148.5 187.5,-148.5"/>
<text text-anchor="middle" x="244" y="-155.5" font-family="Helvetica,sans-Serif" font-size="10.00">ant::Updateable_traits</text>
</a>
</g>
</g>
<!-- Node11&#45;&gt;Node8 -->
<g id="edge4" class="edge"><title>Node11&#45;&gt;Node8</title>
<path fill="none" stroke="midnightblue" d="M310.846,-158C322.137,-158 333.807,-158 344.907,-158"/>
<polygon fill="midnightblue" stroke="midnightblue" points="310.611,-154.5 300.61,-158 310.61,-161.5 310.611,-154.5"/>
</g>
<!-- Node12 -->
<g id="node6" class="node"><title>Node12</title>
<g id="a_node6"><a xlink:href="structant_1_1_reconstruct_hook_1_1_cluster_hits.html" target="_top" xlink:title="The ClusterHits struct instances are applied before clustering and after hit matching. ">
<polygon fill="white" stroke="black" points="348.5,-99 348.5,-129 461.5,-129 461.5,-99 348.5,-99"/>
<text text-anchor="start" x="356.5" y="-117" font-family="Helvetica,sans-Serif" font-size="10.00">ant::ReconstructHook</text>
<text text-anchor="middle" x="405" y="-106" font-family="Helvetica,sans-Serif" font-size="10.00">::ClusterHits</text>
</a>
</g>
</g>
<!-- Node12&#45;&gt;Node7 -->
<g id="edge5" class="edge"><title>Node12&#45;&gt;Node7</title>
<path fill="none" stroke="midnightblue" d="M471.718,-105.469C501.751,-101.571 536.734,-97.0297 564.497,-93.4259"/>
<polygon fill="midnightblue" stroke="midnightblue" points="471.206,-102.006 461.74,-106.764 472.108,-108.948 471.206,-102.006"/>
</g>
<!-- Node13 -->
<g id="node7" class="node"><title>Node13</title>
<g id="a_node7"><a xlink:href="structant_1_1_reconstruct_hook_1_1_base.html" target="_top" xlink:title="The Base struct just defines some useful types. ">
<polygon fill="white" stroke="black" points="187.5,-99 187.5,-129 300.5,-129 300.5,-99 187.5,-99"/>
<text text-anchor="start" x="195.5" y="-117" font-family="Helvetica,sans-Serif" font-size="10.00">ant::ReconstructHook</text>
<text text-anchor="middle" x="244" y="-106" font-family="Helvetica,sans-Serif" font-size="10.00">::Base</text>
</a>
</g>
</g>
<!-- Node13&#45;&gt;Node12 -->
<g id="edge6" class="edge"><title>Node13&#45;&gt;Node12</title>
<path fill="none" stroke="midnightblue" d="M310.941,-114C323.401,-114 336.319,-114 348.421,-114"/>
<polygon fill="midnightblue" stroke="midnightblue" points="310.611,-110.5 300.61,-114 310.61,-117.5 310.611,-110.5"/>
</g>
<!-- Node14 -->
<g id="node8" class="node"><title>Node14</title>
<g id="a_node8"><a xlink:href="classant_1_1interval.html" target="_top" xlink:title="ant::interval\&lt; double \&gt;">
<polygon fill="white" stroke="black" points="348,-60.5 348,-79.5 462,-79.5 462,-60.5 348,-60.5"/>
<text text-anchor="middle" x="405" y="-67.5" font-family="Helvetica,sans-Serif" font-size="10.00">ant::interval&lt; double &gt;</text>
</a>
</g>
</g>
<!-- Node14&#45;&gt;Node7 -->
<g id="edge7" class="edge"><title>Node14&#45;&gt;Node7</title>
<path fill="none" stroke="#9a32cd" stroke-dasharray="5,2" d="M472.357,-74.313C495.655,-75.9403 521.999,-77.908 546,-80 551.912,-80.5153 558.108,-81.0963 564.252,-81.6977"/>
<polygon fill="#9a32cd" stroke="#9a32cd" points="472.45,-70.8111 462.232,-73.6136 471.967,-77.7945 472.45,-70.8111"/>
<text text-anchor="middle" x="515" y="-83" font-family="Helvetica,sans-Serif" font-size="10.00"> TimeWindow</text>
</g>
<!-- Node15 -->
<g id="node9" class="node"><title>Node15</title>
<polygon fill="white" stroke="#bfbfbf" points="344.5,-0.5 344.5,-41.5 465.5,-41.5 465.5,-0.5 344.5,-0.5"/>
<text text-anchor="start" x="352.5" y="-29.5" font-family="Helvetica,sans-Serif" font-size="10.00">std::vector&lt; std::shared</text>
<text text-anchor="start" x="352.5" y="-18.5" font-family="Helvetica,sans-Serif" font-size="10.00">_ptr&lt; ant::calibration</text>
<text text-anchor="middle" x="405" y="-7.5" font-family="Helvetica,sans-Serif" font-size="10.00">::gui::FitTimewalk &gt; &gt;</text>
</g>
<!-- Node15&#45;&gt;Node7 -->
<g id="edge8" class="edge"><title>Node15&#45;&gt;Node7</title>
<path fill="none" stroke="#9a32cd" stroke-dasharray="5,2" d="M475.475,-39.5625C498.092,-45.9478 523.23,-53.4101 546,-61 555.952,-64.3174 566.599,-68.2167 576.444,-71.9719"/>
<polygon fill="#9a32cd" stroke="#9a32cd" points="476.188,-36.1278 465.615,-36.8016 474.301,-42.8685 476.188,-36.1278"/>
<text text-anchor="middle" x="515" y="-64" font-family="Helvetica,sans-Serif" font-size="10.00"> timewalks</text>
</g>
</g>
</svg>
