<?xml version="1.0" encoding="UTF-8" standalone="no"?>
<!DOCTYPE svg PUBLIC "-//W3C//DTD SVG 1.1//EN"
 "http://www.w3.org/Graphics/SVG/1.1/DTD/svg11.dtd">
<!-- Generated by graphviz version 2.36.0 (20140111.2315)
 -->
<!-- Title: ant::unpacker::acqu::FileFormatMk1 Pages: 1 -->
<svg width="154pt" height="164pt"
 viewBox="0.00 0.00 154.00 164.00" xmlns="http://www.w3.org/2000/svg" xmlns:xlink="http://www.w3.org/1999/xlink">
<g id="graph0" class="graph" transform="scale(1 1) rotate(0) translate(4 160)">
<title>ant::unpacker::acqu::FileFormatMk1</title>
<polygon fill="white" stroke="none" points="-4,4 -4,-160 150,-160 150,4 -4,4"/>
<!-- Node0 -->
<g id="node1" class="node"><title>Node0</title>
<polygon fill="#bfbfbf" stroke="black" points="21.5,-1 21.5,-31 124.5,-31 124.5,-1 21.5,-1"/>
<text text-anchor="start" x="29.5" y="-19" font-family="Helvetica,sans-Serif" font-size="10.00">ant::unpacker::acqu</text>
<text text-anchor="middle" x="73" y="-8" font-family="Helvetica,sans-Serif" font-size="10.00">::FileFormatMk1</text>
</g>
<!-- Node1 -->
<g id="node2" class="node"><title>Node1</title>
<g id="a_node2"><a xlink:href="classant_1_1unpacker_1_1acqu_1_1_file_format_base.html" target="_top" xlink:title="ant::unpacker::acqu\l::FileFormatBase">
<polygon fill="white" stroke="black" points="21.5,-69 21.5,-99 124.5,-99 124.5,-69 21.5,-69"/>
<text text-anchor="start" x="29.5" y="-87" font-family="Helvetica,sans-Serif" font-size="10.00">ant::unpacker::acqu</text>
<text text-anchor="middle" x="73" y="-76" font-family="Helvetica,sans-Serif" font-size="10.00">::FileFormatBase</text>
</a>
</g>
</g>
<!-- Node1&#45;&gt;Node0 -->
<g id="edge1" class="edge"><title>Node1&#45;&gt;Node0</title>
<path fill="none" stroke="midnightblue" d="M73,-58.5322C73,-49.3606 73,-39.2449 73,-31.2931"/>
<polygon fill="midnightblue" stroke="midnightblue" points="69.5001,-58.6789 73,-68.679 76.5001,-58.679 69.5001,-58.6789"/>
</g>
<!-- Node2 -->
<g id="node3" class="node"><title>Node2</title>
<g id="a_node3"><a xlink:href="classant_1_1_unpacker_acqu_file_format.html" target="_top" xlink:title="ant::UnpackerAcquFileFormat">
<polygon fill="white" stroke="black" points="-0.5,-136.5 -0.5,-155.5 146.5,-155.5 146.5,-136.5 -0.5,-136.5"/>
<text text-anchor="middle" x="73" y="-143.5" font-family="Helvetica,sans-Serif" font-size="10.00">ant::UnpackerAcquFileFormat</text>
</a>
</g>
</g>
<!-- Node2&#45;&gt;Node1 -->
<g id="edge2" class="edge"><title>Node2&#45;&gt;Node1</title>
<path fill="none" stroke="midnightblue" d="M73,-126.371C73,-117.585 73,-107.272 73,-99.1408"/>
<polygon fill="midnightblue" stroke="midnightblue" points="69.5001,-126.403 73,-136.403 76.5001,-126.403 69.5001,-126.403"/>
</g>
</g>
</svg>
