<?xml version="1.0" encoding="UTF-8" standalone="no"?>
<!DOCTYPE svg PUBLIC "-//W3C//DTD SVG 1.1//EN"
 "http://www.w3.org/Graphics/SVG/1.1/DTD/svg11.dtd">
<!-- Generated by graphviz version 2.36.0 (20140111.2315)
 -->
<!-- Title: ant::analysis::physics::JustPi0 Pages: 1 -->
<svg width="2210pt" height="477pt"
 viewBox="0.00 0.00 2210.00 477.00" xmlns="http://www.w3.org/2000/svg" xmlns:xlink="http://www.w3.org/1999/xlink">
<g id="graph0" class="graph" transform="scale(1 1) rotate(0) translate(4 473)">
<title>ant::analysis::physics::JustPi0</title>
<polygon fill="white" stroke="none" points="-4,4 -4,-473 2206,-473 2206,4 -4,4"/>
<!-- Node2 -->
<g id="node1" class="node"><title>Node2</title>
<polygon fill="#bfbfbf" stroke="black" points="2090,-183 2090,-213 2202,-213 2202,-183 2090,-183"/>
<text text-anchor="start" x="2098" y="-201" font-family="Helvetica,sans-Serif" font-size="10.00">ant::analysis::physics</text>
<text text-anchor="middle" x="2146" y="-190" font-family="Helvetica,sans-Serif" font-size="10.00">::JustPi0</text>
</g>
<!-- Node3 -->
<g id="node2" class="node"><title>Node3</title>
<g id="a_node2"><a xlink:href="classant_1_1analysis_1_1_physics.html" target="_top" xlink:title="ant::analysis::Physics">
<polygon fill="white" stroke="black" points="1560.5,-368.5 1560.5,-387.5 1673.5,-387.5 1673.5,-368.5 1560.5,-368.5"/>
<text text-anchor="middle" x="1617" y="-375.5" font-family="Helvetica,sans-Serif" font-size="10.00">ant::analysis::Physics</text>
</a>
</g>
</g>
<!-- Node3&#45;&gt;Node2 -->
<g id="edge1" class="edge"><title>Node3&#45;&gt;Node2</title>
<path fill="none" stroke="midnightblue" d="M1655.43,-365.217C1750.16,-332.859 1999.13,-247.824 2100.8,-213.098"/>
<polygon fill="midnightblue" stroke="midnightblue" points="1654.29,-361.905 1645.96,-368.45 1656.56,-368.529 1654.29,-361.905"/>
</g>
<!-- Node4 -->
<g id="node3" class="node"><title>Node4</title>
<g id="a_node3"><a xlink:href="classant_1_1analysis_1_1_histogram_factory.html" target="_top" xlink:title="ant::analysis::Histogram\lFactory">
<polygon fill="white" stroke="black" points="1181.5,-383 1181.5,-413 1304.5,-413 1304.5,-383 1181.5,-383"/>
<text text-anchor="start" x="1189.5" y="-401" font-family="Helvetica,sans-Serif" font-size="10.00">ant::analysis::Histogram</text>
<text text-anchor="middle" x="1243" y="-390" font-family="Helvetica,sans-Serif" font-size="10.00">Factory</text>
</a>
</g>
</g>
<!-- Node4&#45;&gt;Node3 -->
<g id="edge2" class="edge"><title>Node4&#45;&gt;Node3</title>
<path fill="none" stroke="#9a32cd" stroke-dasharray="5,2" d="M1314.85,-394.191C1386.21,-390.354 1494.86,-384.513 1560.3,-380.995"/>
<polygon fill="#9a32cd" stroke="#9a32cd" points="1314.39,-390.71 1304.6,-394.742 1314.77,-397.7 1314.39,-390.71"/>
<text text-anchor="middle" x="1376" y="-395" font-family="Helvetica,sans-Serif" font-size="10.00"> HistFac</text>
</g>
<!-- Node7 -->
<g id="node6" class="node"><title>Node7</title>
<g id="a_node6"><a xlink:href="structant_1_1analysis_1_1physics_1_1_just_pi0_1_1_multi_pi0.html" target="_top" xlink:title="ant::analysis::physics\l::JustPi0::MultiPi0">
<polygon fill="white" stroke="black" points="1430,-183 1430,-213 1542,-213 1542,-183 1430,-183"/>
<text text-anchor="start" x="1438" y="-201" font-family="Helvetica,sans-Serif" font-size="10.00">ant::analysis::physics</text>
<text text-anchor="middle" x="1486" y="-190" font-family="Helvetica,sans-Serif" font-size="10.00">::JustPi0::MultiPi0</text>
</a>
</g>
</g>
<!-- Node4&#45;&gt;Node7 -->
<g id="edge35" class="edge"><title>Node4&#45;&gt;Node7</title>
<path fill="none" stroke="#9a32cd" stroke-dasharray="5,2" d="M1314.59,-382.03C1356.94,-371.941 1404.1,-359.602 1412,-353 1456.73,-315.613 1475.76,-244.617 1482.22,-213.391"/>
<polygon fill="#9a32cd" stroke="#9a32cd" points="1313.73,-378.637 1304.8,-384.343 1315.34,-385.449 1313.73,-378.637"/>
<text text-anchor="middle" x="1376" y="-378" font-family="Helvetica,sans-Serif" font-size="10.00"> HistFac</text>
</g>
<!-- Node5 -->
<g id="node4" class="node"><title>Node5</title>
<polygon fill="white" stroke="#bfbfbf" points="1876.5,-177.5 1876.5,-218.5 2013.5,-218.5 2013.5,-177.5 1876.5,-177.5"/>
<text text-anchor="start" x="1884.5" y="-206.5" font-family="Helvetica,sans-Serif" font-size="10.00">std::vector&lt; std::unique</text>
<text text-anchor="start" x="1884.5" y="-195.5" font-family="Helvetica,sans-Serif" font-size="10.00">_ptr&lt; ant::analysis::physics</text>
<text text-anchor="middle" x="1945" y="-184.5" font-family="Helvetica,sans-Serif" font-size="10.00">::JustPi0::MultiPi0 &gt; &gt;</text>
</g>
<!-- Node5&#45;&gt;Node2 -->
<g id="edge3" class="edge"><title>Node5&#45;&gt;Node2</title>
<path fill="none" stroke="#9a32cd" stroke-dasharray="5,2" d="M2023.67,-198C2045.73,-198 2069.31,-198 2089.75,-198"/>
<polygon fill="#9a32cd" stroke="#9a32cd" points="2023.65,-194.5 2013.65,-198 2023.65,-201.5 2023.65,-194.5"/>
<text text-anchor="middle" x="2052" y="-201" font-family="Helvetica,sans-Serif" font-size="10.00"> multiPi0</text>
</g>
<!-- Node6 -->
<g id="node5" class="node"><title>Node6</title>
<polygon fill="white" stroke="#bfbfbf" points="1692,-177.5 1692,-218.5 1796,-218.5 1796,-177.5 1692,-177.5"/>
<text text-anchor="start" x="1700" y="-206.5" font-family="Helvetica,sans-Serif" font-size="10.00">std::unique_ptr&lt; ant</text>
<text text-anchor="start" x="1700" y="-195.5" font-family="Helvetica,sans-Serif" font-size="10.00">::analysis::physics::</text>
<text text-anchor="middle" x="1744" y="-184.5" font-family="Helvetica,sans-Serif" font-size="10.00">JustPi0::MultiPi0 &gt;</text>
</g>
<!-- Node6&#45;&gt;Node5 -->
<g id="edge4" class="edge"><title>Node6&#45;&gt;Node5</title>
<path fill="none" stroke="#9a32cd" stroke-dasharray="5,2" d="M1806.53,-198C1828.67,-198 1853.77,-198 1876.41,-198"/>
<polygon fill="#9a32cd" stroke="#9a32cd" points="1806.25,-194.5 1796.25,-198 1806.25,-201.5 1806.25,-194.5"/>
<text text-anchor="middle" x="1836" y="-201" font-family="Helvetica,sans-Serif" font-size="10.00"> elements</text>
</g>
<!-- Node7&#45;&gt;Node6 -->
<g id="edge5" class="edge"><title>Node7&#45;&gt;Node6</title>
<path fill="none" stroke="#9a32cd" stroke-dasharray="5,2" d="M1552.39,-198C1595.7,-198 1651.71,-198 1691.78,-198"/>
<polygon fill="#9a32cd" stroke="#9a32cd" points="1552.23,-194.5 1542.23,-198 1552.23,-201.5 1552.23,-194.5"/>
<text text-anchor="middle" x="1617" y="-201" font-family="Helvetica,sans-Serif" font-size="10.00"> ptr</text>
</g>
<!-- Node8 -->
<g id="node7" class="node"><title>Node8</title>
<polygon fill="white" stroke="#bfbfbf" points="1170,-154.5 1170,-195.5 1316,-195.5 1316,-154.5 1170,-154.5"/>
<text text-anchor="start" x="1178" y="-183.5" font-family="Helvetica,sans-Serif" font-size="10.00">std::vector&lt; std::pair</text>
<text text-anchor="start" x="1178" y="-172.5" font-family="Helvetica,sans-Serif" font-size="10.00">&lt; utils::TreeFitter::tree</text>
<text text-anchor="middle" x="1243" y="-161.5" font-family="Helvetica,sans-Serif" font-size="10.00">_t, utils::TreeFitter::tree_t &gt; &gt;</text>
</g>
<!-- Node8&#45;&gt;Node7 -->
<g id="edge6" class="edge"><title>Node8&#45;&gt;Node7</title>
<path fill="none" stroke="#9a32cd" stroke-dasharray="5,2" d="M1326.35,-179.591C1353.65,-181.457 1384.17,-183.914 1412,-187 1417.73,-187.636 1423.71,-188.388 1429.66,-189.196"/>
<polygon fill="#9a32cd" stroke="#9a32cd" points="1326.27,-176.078 1316.06,-178.905 1325.8,-183.063 1326.27,-176.078"/>
<text text-anchor="middle" x="1376" y="-190" font-family="Helvetica,sans-Serif" font-size="10.00"> pions</text>
</g>
<!-- Node9 -->
<g id="node8" class="node"><title>Node9</title>
<g id="a_node8"><a xlink:href="structant_1_1analysis_1_1_prompt_random_1_1_hist1.html" target="_top" xlink:title="ant::analysis::PromptRandom\l::Hist1">
<polygon fill="white" stroke="black" points="1170,-58 1170,-88 1316,-88 1316,-58 1170,-58"/>
<text text-anchor="start" x="1178" y="-76" font-family="Helvetica,sans-Serif" font-size="10.00">ant::analysis::PromptRandom</text>
<text text-anchor="middle" x="1243" y="-65" font-family="Helvetica,sans-Serif" font-size="10.00">::Hist1</text>
</a>
</g>
</g>
<!-- Node9&#45;&gt;Node7 -->
<g id="edge7" class="edge"><title>Node9&#45;&gt;Node7</title>
<path fill="none" stroke="#9a32cd" stroke-dasharray="5,2" d="M1326.42,-57.4767C1355.16,-56.0706 1386.56,-59.3559 1412,-74 1453.35,-97.805 1473.63,-155.114 1481.27,-182.681"/>
<polygon fill="#9a32cd" stroke="#9a32cd" points="1326.12,-53.9891 1316.38,-58.1588 1326.59,-60.973 1326.12,-53.9891"/>
<text text-anchor="middle" x="1376" y="-121" font-family="Helvetica,sans-Serif" font-size="10.00"> h_missingmass</text>
<text text-anchor="middle" x="1376" y="-110" font-family="Helvetica,sans-Serif" font-size="10.00">h_fitprobability</text>
<text text-anchor="middle" x="1376" y="-99" font-family="Helvetica,sans-Serif" font-size="10.00">IM_2g_fitted</text>
<text text-anchor="middle" x="1376" y="-88" font-family="Helvetica,sans-Serif" font-size="10.00">IM_2g_byMM</text>
<text text-anchor="middle" x="1376" y="-77" font-family="Helvetica,sans-Serif" font-size="10.00">IM_2g_byFit</text>
</g>
<!-- Node10 -->
<g id="node9" class="node"><title>Node10</title>
<g id="a_node9"><a xlink:href="classant_1_1analysis_1_1_prompt_random_1_1_switch.html" target="_top" xlink:title="ant::analysis::PromptRandom\l::Switch">
<polygon fill="white" stroke="black" points="898,-75 898,-105 1044,-105 1044,-75 898,-75"/>
<text text-anchor="start" x="906" y="-93" font-family="Helvetica,sans-Serif" font-size="10.00">ant::analysis::PromptRandom</text>
<text text-anchor="middle" x="971" y="-82" font-family="Helvetica,sans-Serif" font-size="10.00">::Switch</text>
</a>
</g>
</g>
<!-- Node10&#45;&gt;Node7 -->
<g id="edge33" class="edge"><title>Node10&#45;&gt;Node7</title>
<path fill="none" stroke="#9a32cd" stroke-dasharray="5,2" d="M1054.34,-97.962C1141.46,-106.812 1272.98,-121.504 1322,-134 1369.28,-146.053 1421.35,-168.149 1453.61,-182.958"/>
<polygon fill="#9a32cd" stroke="#9a32cd" points="1054.51,-94.4614 1044.21,-96.9388 1053.81,-101.426 1054.51,-94.4614"/>
<text text-anchor="middle" x="1243" y="-137" font-family="Helvetica,sans-Serif" font-size="10.00"> promptrandom</text>
</g>
<!-- Node10&#45;&gt;Node9 -->
<g id="edge8" class="edge"><title>Node10&#45;&gt;Node9</title>
<path fill="none" stroke="#9a32cd" stroke-dasharray="5,2" d="M1054.22,-84.8234C1091.06,-82.5034 1134.14,-79.7913 1169.73,-77.5502"/>
<polygon fill="#9a32cd" stroke="#9a32cd" points="1053.76,-81.3451 1044,-85.4666 1054.2,-88.3312 1053.76,-81.3451"/>
<text text-anchor="middle" x="1107" y="-87" font-family="Helvetica,sans-Serif" font-size="10.00"> d</text>
</g>
<!-- Node11 -->
<g id="node10" class="node"><title>Node11</title>
<g id="a_node10"><a xlink:href="classant_1_1_piecewise_interval.html" target="_top" xlink:title="ant::PiecewiseInterval\l\&lt; double \&gt;">
<polygon fill="white" stroke="black" points="596.5,-101 596.5,-131 709.5,-131 709.5,-101 596.5,-101"/>
<text text-anchor="start" x="604.5" y="-119" font-family="Helvetica,sans-Serif" font-size="10.00">ant::PiecewiseInterval</text>
<text text-anchor="middle" x="653" y="-108" font-family="Helvetica,sans-Serif" font-size="10.00">&lt; double &gt;</text>
</a>
</g>
</g>
<!-- Node11&#45;&gt;Node10 -->
<g id="edge9" class="edge"><title>Node11&#45;&gt;Node10</title>
<path fill="none" stroke="#9a32cd" stroke-dasharray="5,2" d="M719.88,-110.579C771.866,-106.302 844.299,-100.342 897.844,-95.9369"/>
<polygon fill="#9a32cd" stroke="#9a32cd" points="719.446,-107.103 709.767,-111.412 720.02,-114.08 719.446,-107.103"/>
<text text-anchor="middle" x="804" y="-124" font-family="Helvetica,sans-Serif" font-size="10.00"> promptw</text>
<text text-anchor="middle" x="804" y="-113" font-family="Helvetica,sans-Serif" font-size="10.00">randomw</text>
</g>
<!-- Node12 -->
<g id="node11" class="node"><title>Node12</title>
<g id="a_node11"><a xlink:title="STL class. ">
<polygon fill="white" stroke="#bfbfbf" points="393,-105 393,-135 497,-135 497,-105 393,-105"/>
<text text-anchor="start" x="401" y="-123" font-family="Helvetica,sans-Serif" font-size="10.00">std::vector&lt; interval</text>
<text text-anchor="middle" x="445" y="-112" font-family="Helvetica,sans-Serif" font-size="10.00">&lt; double &gt; &gt;</text>
</a>
</g>
</g>
<!-- Node12&#45;&gt;Node11 -->
<g id="edge10" class="edge"><title>Node12&#45;&gt;Node11</title>
<path fill="none" stroke="midnightblue" d="M507.346,-118.809C535.593,-118.26 568.867,-117.614 596.376,-117.08"/>
<polygon fill="midnightblue" stroke="midnightblue" points="507.116,-115.313 497.186,-119.006 507.252,-122.311 507.116,-115.313"/>
</g>
<!-- Node13 -->
<g id="node12" class="node"><title>Node13</title>
<polygon fill="white" stroke="#bfbfbf" points="232.5,-132.5 232.5,-151.5 261.5,-151.5 261.5,-132.5 232.5,-132.5"/>
<text text-anchor="middle" x="247" y="-139.5" font-family="Helvetica,sans-Serif" font-size="10.00">T</text>
</g>
<!-- Node13&#45;&gt;Node12 -->
<g id="edge11" class="edge"><title>Node13&#45;&gt;Node12</title>
<path fill="none" stroke="#9a32cd" stroke-dasharray="5,2" d="M271.48,-136.013C284.995,-132.808 302.351,-129.098 318,-127 342.537,-123.71 369.962,-121.96 392.945,-121.033"/>
<polygon fill="#9a32cd" stroke="#9a32cd" points="270.454,-132.661 261.571,-138.435 272.116,-139.461 270.454,-132.661"/>
<text text-anchor="middle" x="340" y="-130" font-family="Helvetica,sans-Serif" font-size="10.00"> elements</text>
</g>
<!-- Node31 -->
<g id="node30" class="node"><title>Node31</title>
<g id="a_node30"><a xlink:title="STL class. ">
<polygon fill="white" stroke="#bfbfbf" points="401.5,-155.5 401.5,-174.5 488.5,-174.5 488.5,-155.5 401.5,-155.5"/>
<text text-anchor="middle" x="445" y="-162.5" font-family="Helvetica,sans-Serif" font-size="10.00">std::vector&lt; T &gt;</text>
</a>
</g>
</g>
<!-- Node13&#45;&gt;Node31 -->
<g id="edge30" class="edge"><title>Node13&#45;&gt;Node31</title>
<path fill="none" stroke="#9a32cd" stroke-dasharray="5,2" d="M272.028,-144.82C304.192,-148.594 361.777,-155.351 401.388,-160"/>
<polygon fill="#9a32cd" stroke="#9a32cd" points="272.122,-141.307 261.782,-143.617 271.306,-148.259 272.122,-141.307"/>
<text text-anchor="middle" x="340" y="-158" font-family="Helvetica,sans-Serif" font-size="10.00"> elements</text>
</g>
<!-- Node14 -->
<g id="node13" class="node"><title>Node14</title>
<g id="a_node13"><a xlink:href="structant_1_1analysis_1_1physics_1_1_just_pi0_1_1_multi_pi0_1_1_multi_pi0_tree.html" target="_top" xlink:title="ant::analysis::physics\l::JustPi0::MultiPi0::MultiPi0Tree">
<polygon fill="white" stroke="black" points="1164,-214 1164,-244 1322,-244 1322,-214 1164,-214"/>
<text text-anchor="start" x="1172" y="-232" font-family="Helvetica,sans-Serif" font-size="10.00">ant::analysis::physics</text>
<text text-anchor="middle" x="1243" y="-221" font-family="Helvetica,sans-Serif" font-size="10.00">::JustPi0::MultiPi0::MultiPi0Tree</text>
</a>
</g>
</g>
<!-- Node14&#45;&gt;Node7 -->
<g id="edge12" class="edge"><title>Node14&#45;&gt;Node7</title>
<path fill="none" stroke="#9a32cd" stroke-dasharray="5,2" d="M1332.24,-217.65C1364.81,-213.46 1400.79,-208.832 1429.64,-205.121"/>
<polygon fill="#9a32cd" stroke="#9a32cd" points="1331.72,-214.188 1322.25,-218.935 1332.61,-221.131 1331.72,-214.188"/>
<text text-anchor="middle" x="1376" y="-220" font-family="Helvetica,sans-Serif" font-size="10.00"> t</text>
</g>
<!-- Node15 -->
<g id="node14" class="node"><title>Node15</title>
<g id="a_node14"><a xlink:href="classant_1_1_wrap_t_tree.html" target="_top" xlink:title="The WrapTTree struct simplifies TTree handling in physics classes. ">
<polygon fill="white" stroke="black" points="928.5,-124.5 928.5,-143.5 1013.5,-143.5 1013.5,-124.5 928.5,-124.5"/>
<text text-anchor="middle" x="971" y="-131.5" font-family="Helvetica,sans-Serif" font-size="10.00">ant::WrapTTree</text>
</a>
</g>
</g>
<!-- Node15&#45;&gt;Node14 -->
<g id="edge13" class="edge"><title>Node15&#45;&gt;Node14</title>
<path fill="none" stroke="midnightblue" d="M1023.57,-137.57C1067.81,-141.573 1127.29,-149.497 1146,-164 1161.41,-175.942 1149.46,-191.013 1164,-204 1168.35,-207.884 1173.3,-211.165 1178.56,-213.937"/>
<polygon fill="midnightblue" stroke="midnightblue" points="1023.8,-134.077 1013.54,-136.704 1023.2,-141.051 1023.8,-134.077"/>
</g>
<!-- Node16 -->
<g id="node15" class="node"><title>Node16</title>
<g id="a_node15"><a xlink:href="classant_1_1analysis_1_1utils_1_1_tree_fitter.html" target="_top" xlink:title="ant::analysis::utils\l::TreeFitter">
<polygon fill="white" stroke="black" points="1195,-263 1195,-293 1291,-293 1291,-263 1195,-263"/>
<text text-anchor="start" x="1203" y="-281" font-family="Helvetica,sans-Serif" font-size="10.00">ant::analysis::utils</text>
<text text-anchor="middle" x="1243" y="-270" font-family="Helvetica,sans-Serif" font-size="10.00">::TreeFitter</text>
</a>
</g>
</g>
<!-- Node16&#45;&gt;Node7 -->
<g id="edge14" class="edge"><title>Node16&#45;&gt;Node7</title>
<path fill="none" stroke="#9a32cd" stroke-dasharray="5,2" d="M1300.91,-264.955C1333.8,-256.79 1375.72,-245.307 1412,-232 1426.7,-226.608 1442.51,-219.426 1455.65,-213.052"/>
<polygon fill="#9a32cd" stroke="#9a32cd" points="1299.89,-261.602 1291.01,-267.381 1301.56,-268.401 1299.89,-261.602"/>
<text text-anchor="middle" x="1376" y="-257" font-family="Helvetica,sans-Serif" font-size="10.00"> treefitter</text>
</g>
<!-- Node17 -->
<g id="node16" class="node"><title>Node17</title>
<g id="a_node16"><a xlink:href="classant_1_1analysis_1_1utils_1_1_kin_fitter.html" target="_top" xlink:title="ant::analysis::utils\l::KinFitter">
<polygon fill="white" stroke="black" points="923,-335 923,-365 1019,-365 1019,-335 923,-335"/>
<text text-anchor="start" x="931" y="-353" font-family="Helvetica,sans-Serif" font-size="10.00">ant::analysis::utils</text>
<text text-anchor="middle" x="971" y="-342" font-family="Helvetica,sans-Serif" font-size="10.00">::KinFitter</text>
</a>
</g>
</g>
<!-- Node17&#45;&gt;Node7 -->
<g id="edge32" class="edge"><title>Node17&#45;&gt;Node7</title>
<path fill="none" stroke="#9a32cd" stroke-dasharray="5,2" d="M1029.22,-352.454C1118.08,-353.577 1291.52,-344.782 1412,-269 1436.39,-253.657 1459.32,-229.068 1472.76,-213.228"/>
<polygon fill="#9a32cd" stroke="#9a32cd" points="1029.13,-348.952 1019.08,-352.278 1029.01,-355.951 1029.13,-348.952"/>
<text text-anchor="middle" x="1243" y="-348" font-family="Helvetica,sans-Serif" font-size="10.00"> fitter</text>
</g>
<!-- Node17&#45;&gt;Node16 -->
<g id="edge15" class="edge"><title>Node17&#45;&gt;Node16</title>
<path fill="none" stroke="midnightblue" d="M1028.88,-334.831C1078.09,-321.71 1148.39,-302.961 1194.6,-290.639"/>
<polygon fill="midnightblue" stroke="midnightblue" points="1027.79,-331.5 1019.03,-337.459 1029.59,-338.264 1027.79,-331.5"/>
</g>
<!-- Node18 -->
<g id="node17" class="node"><title>Node18</title>
<g id="a_node17"><a xlink:href="classant_1_1analysis_1_1utils_1_1_fitter.html" target="_top" xlink:title="ant::analysis::utils\l::Fitter">
<polygon fill="white" stroke="black" points="605,-384 605,-414 701,-414 701,-384 605,-384"/>
<text text-anchor="start" x="613" y="-402" font-family="Helvetica,sans-Serif" font-size="10.00">ant::analysis::utils</text>
<text text-anchor="middle" x="653" y="-391" font-family="Helvetica,sans-Serif" font-size="10.00">::Fitter</text>
</a>
</g>
</g>
<!-- Node18&#45;&gt;Node17 -->
<g id="edge16" class="edge"><title>Node18&#45;&gt;Node17</title>
<path fill="none" stroke="midnightblue" d="M711.234,-390.181C755.639,-383.333 818.73,-373.589 874,-365 889.835,-362.539 907.138,-359.839 922.639,-357.416"/>
<polygon fill="midnightblue" stroke="midnightblue" points="710.56,-386.744 701.21,-391.727 711.627,-393.662 710.56,-386.744"/>
</g>
<!-- Node19 -->
<g id="node18" class="node"><title>Node19</title>
<g id="a_node18"><a xlink:href="structant_1_1analysis_1_1utils_1_1_kin_fitter_1_1_target__t.html" target="_top" xlink:title="ant::analysis::utils\l::KinFitter::Target_t">
<polygon fill="white" stroke="black" points="602.5,-335 602.5,-365 703.5,-365 703.5,-335 602.5,-335"/>
<text text-anchor="start" x="610.5" y="-353" font-family="Helvetica,sans-Serif" font-size="10.00">ant::analysis::utils</text>
<text text-anchor="middle" x="653" y="-342" font-family="Helvetica,sans-Serif" font-size="10.00">::KinFitter::Target_t</text>
</a>
</g>
</g>
<!-- Node19&#45;&gt;Node17 -->
<g id="edge17" class="edge"><title>Node19&#45;&gt;Node17</title>
<path fill="none" stroke="#9a32cd" stroke-dasharray="5,2" d="M713.922,-350C774.615,-350 867.25,-350 922.888,-350"/>
<polygon fill="#9a32cd" stroke="#9a32cd" points="713.723,-346.5 703.723,-350 713.723,-353.5 713.723,-346.5"/>
<text text-anchor="middle" x="804" y="-353" font-family="Helvetica,sans-Serif" font-size="10.00"> Target</text>
</g>
<!-- Node20 -->
<g id="node19" class="node"><title>Node20</title>
<g id="a_node19"><a xlink:href="structant_1_1analysis_1_1utils_1_1_kin_fitter_1_1_beam_e__t.html" target="_top" xlink:title="ant::analysis::utils\l::KinFitter::BeamE_t">
<polygon fill="white" stroke="black" points="600,-286 600,-316 706,-316 706,-286 600,-286"/>
<text text-anchor="start" x="608" y="-304" font-family="Helvetica,sans-Serif" font-size="10.00">ant::analysis::utils</text>
<text text-anchor="middle" x="653" y="-293" font-family="Helvetica,sans-Serif" font-size="10.00">::KinFitter::BeamE_t</text>
</a>
</g>
</g>
<!-- Node20&#45;&gt;Node17 -->
<g id="edge18" class="edge"><title>Node20&#45;&gt;Node17</title>
<path fill="none" stroke="#9a32cd" stroke-dasharray="5,2" d="M715.999,-310.554C760.078,-317.352 820.678,-326.714 874,-335 889.835,-337.461 907.138,-340.161 922.639,-342.584"/>
<polygon fill="#9a32cd" stroke="#9a32cd" points="716.428,-307.078 706.011,-309.013 715.361,-313.997 716.428,-307.078"/>
<text text-anchor="middle" x="804" y="-338" font-family="Helvetica,sans-Serif" font-size="10.00"> BeamE</text>
</g>
<!-- Node21 -->
<g id="node20" class="node"><title>Node21</title>
<polygon fill="white" stroke="#bfbfbf" points="417,-291.5 417,-310.5 473,-310.5 473,-291.5 417,-291.5"/>
<text text-anchor="middle" x="445" y="-298.5" font-family="Helvetica,sans-Serif" font-size="10.00">V_S_P_t</text>
</g>
<!-- Node21&#45;&gt;Node20 -->
<g id="edge19" class="edge"><title>Node21&#45;&gt;Node20</title>
<path fill="none" stroke="midnightblue" d="M483.377,-301C515.972,-301 563.592,-301 599.92,-301"/>
<polygon fill="midnightblue" stroke="midnightblue" points="483.355,-297.5 473.355,-301 483.355,-304.5 483.355,-297.5"/>
</g>
<!-- Node22 -->
<g id="node21" class="node"><title>Node22</title>
<polygon fill="white" stroke="#bfbfbf" points="590.5,-247.5 590.5,-266.5 715.5,-266.5 715.5,-247.5 590.5,-247.5"/>
<text text-anchor="middle" x="653" y="-254.5" font-family="Helvetica,sans-Serif" font-size="10.00">std::vector&lt; FitParticle &gt;</text>
</g>
<!-- Node22&#45;&gt;Node17 -->
<g id="edge20" class="edge"><title>Node22&#45;&gt;Node17</title>
<path fill="none" stroke="#9a32cd" stroke-dasharray="5,2" d="M725.697,-257.102C771.399,-260.282 830.067,-270.408 874,-299 885.78,-306.666 880.708,-316.633 892,-325 901.026,-331.688 911.909,-336.629 922.644,-340.265"/>
<polygon fill="#9a32cd" stroke="#9a32cd" points="725.754,-253.599 715.562,-256.495 725.335,-260.587 725.754,-253.599"/>
<text text-anchor="middle" x="804" y="-302" font-family="Helvetica,sans-Serif" font-size="10.00"> Photons</text>
</g>
<!-- Node23 -->
<g id="node22" class="node"><title>Node23</title>
<polygon fill="white" stroke="#bfbfbf" points="918,-162.5 918,-181.5 1024,-181.5 1024,-162.5 918,-162.5"/>
<text text-anchor="middle" x="971" y="-169.5" font-family="Helvetica,sans-Serif" font-size="10.00">std::vector&lt; tree_t &gt;</text>
</g>
<!-- Node23&#45;&gt;Node16 -->
<g id="edge21" class="edge"><title>Node23&#45;&gt;Node16</title>
<path fill="none" stroke="#9a32cd" stroke-dasharray="5,2" d="M1034.37,-163.761C1070.86,-162.454 1115.57,-167.386 1146,-193 1167.3,-210.93 1144.5,-233.13 1164,-253 1172.27,-261.424 1183.37,-267.013 1194.61,-270.72"/>
<polygon fill="#9a32cd" stroke="#9a32cd" points="1034.13,-160.269 1024.32,-164.284 1034.49,-167.26 1034.13,-160.269"/>
<text text-anchor="middle" x="1107" y="-196" font-family="Helvetica,sans-Serif" font-size="10.00"> tree_leaves</text>
</g>
<!-- Node24 -->
<g id="node23" class="node"><title>Node24</title>
<polygon fill="white" stroke="#bfbfbf" points="898,-407 898,-437 1044,-437 1044,-407 898,-407"/>
<text text-anchor="start" x="906" y="-425" font-family="Helvetica,sans-Serif" font-size="10.00">std::list&lt; ant::analysis</text>
<text text-anchor="middle" x="971" y="-414" font-family="Helvetica,sans-Serif" font-size="10.00">::utils::TreeFitter::iteration_t &gt;</text>
</g>
<!-- Node24&#45;&gt;Node16 -->
<g id="edge22" class="edge"><title>Node24&#45;&gt;Node16</title>
<path fill="none" stroke="#9a32cd" stroke-dasharray="5,2" d="M1009.12,-402.203C1063.68,-373.102 1164.38,-319.395 1213.53,-293.186"/>
<polygon fill="#9a32cd" stroke="#9a32cd" points="1007.31,-399.203 1000.13,-406.997 1010.6,-405.379 1007.31,-399.203"/>
<text text-anchor="middle" x="1107" y="-370" font-family="Helvetica,sans-Serif" font-size="10.00"> iterations</text>
</g>
<!-- Node25 -->
<g id="node24" class="node"><title>Node25</title>
<g id="a_node24"><a xlink:href="structant_1_1analysis_1_1utils_1_1_tree_fitter_1_1iteration__t.html" target="_top" xlink:title="ant::analysis::utils\l::TreeFitter::iteration_t">
<polygon fill="white" stroke="black" points="596.5,-433 596.5,-463 709.5,-463 709.5,-433 596.5,-433"/>
<text text-anchor="start" x="604.5" y="-451" font-family="Helvetica,sans-Serif" font-size="10.00">ant::analysis::utils</text>
<text text-anchor="middle" x="653" y="-440" font-family="Helvetica,sans-Serif" font-size="10.00">::TreeFitter::iteration_t</text>
</a>
</g>
</g>
<!-- Node25&#45;&gt;Node24 -->
<g id="edge23" class="edge"><title>Node25&#45;&gt;Node24</title>
<path fill="none" stroke="#9a32cd" stroke-dasharray="5,2" d="M719.88,-442.579C771.866,-438.302 844.299,-432.342 897.844,-427.937"/>
<polygon fill="#9a32cd" stroke="#9a32cd" points="719.446,-439.103 709.767,-443.412 720.02,-446.08 719.446,-439.103"/>
<text text-anchor="middle" x="804" y="-444" font-family="Helvetica,sans-Serif" font-size="10.00"> elements</text>
</g>
<!-- Node26 -->
<g id="node25" class="node"><title>Node26</title>
<polygon fill="white" stroke="#bfbfbf" points="380.5,-427.5 380.5,-468.5 509.5,-468.5 509.5,-427.5 380.5,-427.5"/>
<text text-anchor="start" x="388.5" y="-456.5" font-family="Helvetica,sans-Serif" font-size="10.00">std::vector&lt; ant::analysis</text>
<text text-anchor="start" x="388.5" y="-445.5" font-family="Helvetica,sans-Serif" font-size="10.00">::utils::TreeFitter::iteration</text>
<text text-anchor="middle" x="445" y="-434.5" font-family="Helvetica,sans-Serif" font-size="10.00">_t::photon_t &gt;</text>
</g>
<!-- Node26&#45;&gt;Node25 -->
<g id="edge24" class="edge"><title>Node26&#45;&gt;Node25</title>
<path fill="none" stroke="#9a32cd" stroke-dasharray="5,2" d="M519.991,-448C545.111,-448 572.737,-448 596.195,-448"/>
<polygon fill="#9a32cd" stroke="#9a32cd" points="519.769,-444.5 509.769,-448 519.769,-451.5 519.769,-444.5"/>
<text text-anchor="middle" x="550" y="-451" font-family="Helvetica,sans-Serif" font-size="10.00"> Photons</text>
</g>
<!-- Node27 -->
<g id="node26" class="node"><title>Node27</title>
<g id="a_node26"><a xlink:href="structant_1_1analysis_1_1utils_1_1_tree_fitter_1_1iteration__t_1_1photon__t.html" target="_top" xlink:title="ant::analysis::utils\l::TreeFitter::iteration\l_t::photon_t">
<polygon fill="white" stroke="black" points="194.5,-427.5 194.5,-468.5 299.5,-468.5 299.5,-427.5 194.5,-427.5"/>
<text text-anchor="start" x="202.5" y="-456.5" font-family="Helvetica,sans-Serif" font-size="10.00">ant::analysis::utils</text>
<text text-anchor="start" x="202.5" y="-445.5" font-family="Helvetica,sans-Serif" font-size="10.00">::TreeFitter::iteration</text>
<text text-anchor="middle" x="247" y="-434.5" font-family="Helvetica,sans-Serif" font-size="10.00">_t::photon_t</text>
</a>
</g>
</g>
<!-- Node27&#45;&gt;Node26 -->
<g id="edge25" class="edge"><title>Node27&#45;&gt;Node26</title>
<path fill="none" stroke="#9a32cd" stroke-dasharray="5,2" d="M309.853,-448C332.333,-448 357.764,-448 380.393,-448"/>
<polygon fill="#9a32cd" stroke="#9a32cd" points="309.753,-444.5 299.753,-448 309.753,-451.5 309.753,-444.5"/>
<text text-anchor="middle" x="340" y="-451" font-family="Helvetica,sans-Serif" font-size="10.00"> elements</text>
</g>
<!-- Node28 -->
<g id="node27" class="node"><title>Node28</title>
<g id="a_node27"><a xlink:href="structant_1_1std__ext_1_1cc__shared__ptr.html" target="_top" xlink:title="ant::std_ext::cc_shared\l_ptr\&lt; TParticle \&gt;">
<polygon fill="white" stroke="black" points="0.5,-433 0.5,-463 119.5,-463 119.5,-433 0.5,-433"/>
<text text-anchor="start" x="8.5" y="-451" font-family="Helvetica,sans-Serif" font-size="10.00">ant::std_ext::cc_shared</text>
<text text-anchor="middle" x="60" y="-440" font-family="Helvetica,sans-Serif" font-size="10.00">_ptr&lt; TParticle &gt;</text>
</a>
</g>
</g>
<!-- Node28&#45;&gt;Node27 -->
<g id="edge26" class="edge"><title>Node28&#45;&gt;Node27</title>
<path fill="none" stroke="#9a32cd" stroke-dasharray="5,2" d="M129.57,-448C151.026,-448 174.326,-448 194.406,-448"/>
<polygon fill="#9a32cd" stroke="#9a32cd" points="129.535,-444.5 119.535,-448 129.535,-451.5 129.535,-444.5"/>
<text text-anchor="middle" x="157" y="-451" font-family="Helvetica,sans-Serif" font-size="10.00"> Particle</text>
</g>
<!-- Node29 -->
<g id="node28" class="node"><title>Node29</title>
<polygon fill="white" stroke="#bfbfbf" points="908,-286 908,-316 1034,-316 1034,-286 908,-286"/>
<text text-anchor="start" x="916" y="-304" font-family="Helvetica,sans-Serif" font-size="10.00">std::vector&lt; std::function</text>
<text text-anchor="middle" x="971" y="-293" font-family="Helvetica,sans-Serif" font-size="10.00">&lt; void()&gt; &gt;</text>
</g>
<!-- Node29&#45;&gt;Node16 -->
<g id="edge27" class="edge"><title>Node29&#45;&gt;Node16</title>
<path fill="none" stroke="#9a32cd" stroke-dasharray="5,2" d="M1044.3,-294.119C1052.3,-293.389 1060.32,-292.669 1068,-292 1110.87,-288.266 1159.72,-284.367 1194.72,-281.635"/>
<polygon fill="#9a32cd" stroke="#9a32cd" points="1043.85,-290.645 1034.22,-295.047 1044.49,-297.616 1043.85,-290.645"/>
<text text-anchor="middle" x="1107" y="-295" font-family="Helvetica,sans-Serif" font-size="10.00"> sum_daughters</text>
</g>
<!-- Node30 -->
<g id="node29" class="node"><title>Node30</title>
<polygon fill="white" stroke="#bfbfbf" points="734,-166.5 734,-185.5 874,-185.5 874,-166.5 734,-166.5"/>
<text text-anchor="middle" x="804" y="-173.5" font-family="Helvetica,sans-Serif" font-size="10.00">std::vector&lt; permutation_t &gt;</text>
</g>
<!-- Node30&#45;&gt;Node16 -->
<g id="edge28" class="edge"><title>Node30&#45;&gt;Node16</title>
<path fill="none" stroke="#9a32cd" stroke-dasharray="5,2" d="M863.866,-187.571C913.584,-197.507 986.607,-212.484 1050,-227 1092.87,-236.817 1103.49,-239.712 1146,-251 1161.9,-255.222 1179.22,-260.028 1194.71,-264.404"/>
<polygon fill="#9a32cd" stroke="#9a32cd" points="864.424,-184.113 853.933,-185.591 863.056,-190.978 864.424,-184.113"/>
<text text-anchor="middle" x="971" y="-230" font-family="Helvetica,sans-Serif" font-size="10.00"> permutations</text>
</g>
<!-- Node31&#45;&gt;Node30 -->
<g id="edge29" class="edge"><title>Node31&#45;&gt;Node30</title>
<path fill="none" stroke="#9a32cd" stroke-dasharray="5,2" d="M498.726,-166.625C561.107,-168.547 665.154,-171.753 733.922,-173.872"/>
<polygon fill="#9a32cd" stroke="#9a32cd" points="498.811,-163.126 488.708,-166.316 498.595,-170.122 498.811,-163.126"/>
<text text-anchor="middle" x="550" y="-172" font-family="Helvetica,sans-Serif" font-size="10.00"> elements</text>
</g>
<!-- Node32 -->
<g id="node31" class="node"><title>Node32</title>
<polygon fill="white" stroke="#bfbfbf" points="892,-247.5 892,-266.5 1050,-266.5 1050,-247.5 892,-247.5"/>
<text text-anchor="middle" x="971" y="-254.5" font-family="Helvetica,sans-Serif" font-size="10.00">std::vector&lt; node_constraint_t &gt;</text>
</g>
<!-- Node32&#45;&gt;Node16 -->
<g id="edge31" class="edge"><title>Node32&#45;&gt;Node16</title>
<path fill="none" stroke="#9a32cd" stroke-dasharray="5,2" d="M1060.15,-254.099C1087.71,-254.106 1118.17,-255.052 1146,-258 1162.08,-259.704 1179.45,-262.898 1194.93,-266.241"/>
<polygon fill="#9a32cd" stroke="#9a32cd" points="1060.13,-250.599 1050.14,-254.138 1060.15,-257.599 1060.13,-250.599"/>
<text text-anchor="middle" x="1107" y="-261" font-family="Helvetica,sans-Serif" font-size="10.00"> node_constraints</text>
</g>
<!-- Node33 -->
<g id="node32" class="node"><title>Node33</title>
<g id="a_node32"><a xlink:href="classant_1_1analysis_1_1utils_1_1_trigger_simulation.html" target="_top" xlink:title="ant::analysis::utils\l::TriggerSimulation">
<polygon fill="white" stroke="black" points="1194,-0 1194,-30 1292,-30 1292,-0 1194,-0"/>
<text text-anchor="start" x="1202" y="-18" font-family="Helvetica,sans-Serif" font-size="10.00">ant::analysis::utils</text>
<text text-anchor="middle" x="1243" y="-7" font-family="Helvetica,sans-Serif" font-size="10.00">::TriggerSimulation</text>
</a>
</g>
</g>
<!-- Node33&#45;&gt;Node2 -->
<g id="edge36" class="edge"><title>Node33&#45;&gt;Node2</title>
<path fill="none" stroke="#9a32cd" stroke-dasharray="5,2" d="M1302.51,-11.5928C1351.3,-9.04509 1422.65,-6 1485,-6 1485,-6 1485,-6 1946,-6 2047.78,-6 2117.46,-137.672 2138.4,-182.934"/>
<polygon fill="#9a32cd" stroke="#9a32cd" points="1302.25,-8.10142 1292.45,-12.1276 1302.62,-15.0915 1302.25,-8.10142"/>
<text text-anchor="middle" x="1744" y="-9" font-family="Helvetica,sans-Serif" font-size="10.00"> triggersimu</text>
</g>
<!-- Node33&#45;&gt;Node7 -->
<g id="edge34" class="edge"><title>Node33&#45;&gt;Node7</title>
<path fill="none" stroke="#9a32cd" stroke-dasharray="5,2" d="M1302.09,-18.9641C1343.58,-22.8399 1394.96,-30.0998 1412,-43 1458.72,-78.364 1476.77,-151.088 1482.6,-182.731"/>
<polygon fill="#9a32cd" stroke="#9a32cd" points="1302.32,-15.4711 1292.05,-18.0731 1301.7,-22.4437 1302.32,-15.4711"/>
<text text-anchor="middle" x="1376" y="-46" font-family="Helvetica,sans-Serif" font-size="10.00"> triggersimu</text>
</g>
</g>
</svg>
