<?xml version="1.0" encoding="UTF-8" standalone="no"?>
<!DOCTYPE svg PUBLIC "-//W3C//DTD SVG 1.1//EN"
 "http://www.w3.org/Graphics/SVG/1.1/DTD/svg11.dtd">
<!-- Generated by graphviz version 2.36.0 (20140111.2315)
 -->
<!-- Title: ant::expconfig::setup::Setup_2014_07_EPT_Prod Pages: 1 -->
<svg width="708pt" height="284pt"
 viewBox="0.00 0.00 708.00 284.00" xmlns="http://www.w3.org/2000/svg" xmlns:xlink="http://www.w3.org/1999/xlink">
<g id="graph0" class="graph" transform="scale(1 1) rotate(0) translate(4 280)">
<title>ant::expconfig::setup::Setup_2014_07_EPT_Prod</title>
<polygon fill="white" stroke="none" points="-4,4 -4,-280 704,-280 704,4 -4,4"/>
<!-- Node6 -->
<g id="node1" class="node"><title>Node6</title>
<polygon fill="#bfbfbf" stroke="black" points="560,-142 560,-172 700,-172 700,-142 560,-142"/>
<text text-anchor="start" x="568" y="-160" font-family="Helvetica,sans-Serif" font-size="10.00">ant::expconfig::setup</text>
<text text-anchor="middle" x="630" y="-149" font-family="Helvetica,sans-Serif" font-size="10.00">::Setup_2014_07_EPT_Prod</text>
</g>
<!-- Node7 -->
<g id="node2" class="node"><title>Node7</title>
<g id="a_node2"><a xlink:href="classant_1_1expconfig_1_1setup_1_1_setup__2014___e_p_t.html" target="_top" xlink:title="Common base class for all Setups of the 2014 Ent Point Tagger beam times. ">
<polygon fill="white" stroke="black" points="414,-142 414,-172 522,-172 522,-142 414,-142"/>
<text text-anchor="start" x="422" y="-160" font-family="Helvetica,sans-Serif" font-size="10.00">ant::expconfig::setup</text>
<text text-anchor="middle" x="468" y="-149" font-family="Helvetica,sans-Serif" font-size="10.00">::Setup_2014_EPT</text>
</a>
</g>
</g>
<!-- Node7&#45;&gt;Node6 -->
<g id="edge1" class="edge"><title>Node7&#45;&gt;Node6</title>
<path fill="none" stroke="midnightblue" d="M532.299,-157C541.308,-157 550.614,-157 559.73,-157"/>
<polygon fill="midnightblue" stroke="midnightblue" points="532.278,-153.5 522.278,-157 532.278,-160.5 532.278,-153.5"/>
</g>
<!-- Node8 -->
<g id="node3" class="node"><title>Node8</title>
<g id="a_node3"><a xlink:href="classant_1_1expconfig_1_1_setup.html" target="_top" xlink:title="The Setup class serves as a base class for all known beamtime setup configurations. ">
<polygon fill="white" stroke="black" points="266,-147.5 266,-166.5 376,-166.5 376,-147.5 266,-147.5"/>
<text text-anchor="middle" x="321" y="-154.5" font-family="Helvetica,sans-Serif" font-size="10.00">ant::expconfig::Setup</text>
</a>
</g>
</g>
<!-- Node8&#45;&gt;Node7 -->
<g id="edge2" class="edge"><title>Node8&#45;&gt;Node7</title>
<path fill="none" stroke="midnightblue" d="M386.558,-157C395.642,-157 404.894,-157 413.734,-157"/>
<polygon fill="midnightblue" stroke="midnightblue" points="386.405,-153.5 376.405,-157 386.405,-160.5 386.405,-153.5"/>
</g>
<!-- Node9 -->
<g id="node4" class="node"><title>Node9</title>
<g id="a_node4"><a xlink:href="classant_1_1expconfig_1_1_setup__traits.html" target="_top" xlink:title="The Setup_traits class is the interface to the &quot;static&quot; experimental information. ...">
<polygon fill="white" stroke="black" points="18,-246 18,-276 128,-276 128,-246 18,-246"/>
<text text-anchor="start" x="26" y="-264" font-family="Helvetica,sans-Serif" font-size="10.00">ant::expconfig::Setup</text>
<text text-anchor="middle" x="73" y="-253" font-family="Helvetica,sans-Serif" font-size="10.00">_traits</text>
</a>
</g>
</g>
<!-- Node9&#45;&gt;Node8 -->
<g id="edge3" class="edge"><title>Node9&#45;&gt;Node8</title>
<path fill="none" stroke="midnightblue" d="M138.032,-244.389C171.599,-234.605 212.917,-220.837 248,-204 270.206,-193.343 293.697,-176.899 307.592,-166.555"/>
<polygon fill="midnightblue" stroke="midnightblue" points="136.98,-241.05 128.331,-247.17 138.908,-247.779 136.98,-241.05"/>
</g>
<!-- Node10 -->
<g id="node5" class="node"><title>Node10</title>
<g id="a_node5"><a xlink:href="classant_1_1_unpacker_acqu_config.html" target="_top" xlink:title="ant::UnpackerAcquConfig">
<polygon fill="white" stroke="black" points="8.5,-207.5 8.5,-226.5 137.5,-226.5 137.5,-207.5 8.5,-207.5"/>
<text text-anchor="middle" x="73" y="-214.5" font-family="Helvetica,sans-Serif" font-size="10.00">ant::UnpackerAcquConfig</text>
</a>
</g>
</g>
<!-- Node10&#45;&gt;Node8 -->
<g id="edge4" class="edge"><title>Node10&#45;&gt;Node8</title>
<path fill="none" stroke="midnightblue" d="M138.444,-205.543C171.429,-199.206 212.096,-190.662 248,-181 263.395,-176.857 280.322,-171.269 293.894,-166.527"/>
<polygon fill="midnightblue" stroke="midnightblue" points="137.639,-202.134 128.467,-207.438 138.945,-209.011 137.639,-202.134"/>
</g>
<!-- Node11 -->
<g id="node6" class="node"><title>Node11</title>
<g id="a_node6"><a xlink:href="classant_1_1_unpacker_a2_geant_config.html" target="_top" xlink:title="The UnpackerA2GeantConfig class provides stuff the A2Geant unpacker needs. ">
<polygon fill="white" stroke="black" points="0.5,-169.5 0.5,-188.5 145.5,-188.5 145.5,-169.5 0.5,-169.5"/>
<text text-anchor="middle" x="73" y="-176.5" font-family="Helvetica,sans-Serif" font-size="10.00">ant::UnpackerA2GeantConfig</text>
</a>
</g>
</g>
<!-- Node11&#45;&gt;Node8 -->
<g id="edge5" class="edge"><title>Node11&#45;&gt;Node8</title>
<path fill="none" stroke="midnightblue" d="M155.853,-171.68C191.989,-168.448 233.481,-164.738 265.707,-161.855"/>
<polygon fill="midnightblue" stroke="midnightblue" points="155.463,-168.201 145.815,-172.578 156.087,-175.173 155.463,-168.201"/>
</g>
<!-- Node12 -->
<g id="node7" class="node"><title>Node12</title>
<polygon fill="white" stroke="#bfbfbf" points="10.5,-120 10.5,-150 135.5,-150 135.5,-120 10.5,-120"/>
<text text-anchor="start" x="18.5" y="-138" font-family="Helvetica,sans-Serif" font-size="10.00">std::list&lt; std::shared</text>
<text text-anchor="middle" x="73" y="-127" font-family="Helvetica,sans-Serif" font-size="10.00">_ptr&lt; ant::Detector_t &gt; &gt;</text>
</g>
<!-- Node12&#45;&gt;Node8 -->
<g id="edge6" class="edge"><title>Node12&#45;&gt;Node8</title>
<path fill="none" stroke="#9a32cd" stroke-dasharray="5,2" d="M145.629,-140.271C177.059,-142.711 214.381,-145.781 248,-149 253.759,-149.552 259.773,-150.163 265.765,-150.795"/>
<polygon fill="#9a32cd" stroke="#9a32cd" points="145.883,-136.78 135.644,-139.502 145.345,-143.76 145.883,-136.78"/>
<text text-anchor="middle" x="206" y="-152" font-family="Helvetica,sans-Serif" font-size="10.00"> detectors</text>
</g>
<!-- Node13 -->
<g id="node8" class="node"><title>Node13</title>
<polygon fill="white" stroke="#bfbfbf" points="19,-60.5 19,-101.5 127,-101.5 127,-60.5 19,-60.5"/>
<text text-anchor="start" x="27" y="-89.5" font-family="Helvetica,sans-Serif" font-size="10.00">std::list&lt; std::shared</text>
<text text-anchor="start" x="27" y="-78.5" font-family="Helvetica,sans-Serif" font-size="10.00">_ptr&lt; ant::Calibration</text>
<text text-anchor="middle" x="73" y="-67.5" font-family="Helvetica,sans-Serif" font-size="10.00">::BaseModule &gt; &gt;</text>
</g>
<!-- Node13&#45;&gt;Node8 -->
<g id="edge7" class="edge"><title>Node13&#45;&gt;Node8</title>
<path fill="none" stroke="#9a32cd" stroke-dasharray="5,2" d="M137.155,-95.4937C170.453,-103.687 211.793,-114.735 248,-127 265.571,-132.952 284.956,-141.126 299.181,-147.438"/>
<polygon fill="#9a32cd" stroke="#9a32cd" points="137.638,-92.0091 127.094,-93.0445 135.982,-98.8105 137.638,-92.0091"/>
<text text-anchor="middle" x="206" y="-130" font-family="Helvetica,sans-Serif" font-size="10.00"> calibrations</text>
</g>
<!-- Node14 -->
<g id="node9" class="node"><title>Node14</title>
<polygon fill="white" stroke="#bfbfbf" points="4,-0.5 4,-41.5 142,-41.5 142,-0.5 4,-0.5"/>
<text text-anchor="start" x="12" y="-29.5" font-family="Helvetica,sans-Serif" font-size="10.00">std::list&lt; std::shared</text>
<text text-anchor="start" x="12" y="-18.5" font-family="Helvetica,sans-Serif" font-size="10.00">_ptr&lt; ant::ReconstructHook</text>
<text text-anchor="middle" x="73" y="-7.5" font-family="Helvetica,sans-Serif" font-size="10.00">::Base &gt; &gt;</text>
</g>
<!-- Node14&#45;&gt;Node8 -->
<g id="edge8" class="edge"><title>Node14&#45;&gt;Node8</title>
<path fill="none" stroke="#9a32cd" stroke-dasharray="5,2" d="M151.691,-44.1564C182.921,-55.2665 218.453,-70.2817 248,-89 274.434,-105.746 299.673,-133.051 312.056,-147.437"/>
<polygon fill="#9a32cd" stroke="#9a32cd" points="152.743,-40.8167 142.148,-40.834 150.442,-47.4275 152.743,-40.8167"/>
<text text-anchor="middle" x="206" y="-92" font-family="Helvetica,sans-Serif" font-size="10.00"> reconstruct_hooks</text>
</g>
</g>
</svg>
