<?xml version="1.0" encoding="UTF-8" standalone="no"?>
<!DOCTYPE svg PUBLIC "-//W3C//DTD SVG 1.1//EN"
 "http://www.w3.org/Graphics/SVG/1.1/DTD/svg11.dtd">
<!-- Generated by graphviz version 2.36.0 (20140111.2315)
 -->
<!-- Title: singlePi0_Plot Pages: 1 -->
<svg width="732pt" height="223pt"
 viewBox="0.00 0.00 732.00 223.01" xmlns="http://www.w3.org/2000/svg" xmlns:xlink="http://www.w3.org/1999/xlink">
<g id="graph0" class="graph" transform="scale(1 1) rotate(0) translate(4 219.011)">
<title>singlePi0_Plot</title>
<polygon fill="white" stroke="none" points="-4,4 -4,-219.011 728,-219.011 728,4 -4,4"/>
<!-- Node2 -->
<g id="node1" class="node"><title>Node2</title>
<polygon fill="#bfbfbf" stroke="black" points="644.5,-97.5115 644.5,-116.511 723.5,-116.511 723.5,-97.5115 644.5,-97.5115"/>
<text text-anchor="middle" x="684" y="-104.511" font-family="Helvetica,sans-Serif" font-size="10.00">singlePi0_Plot</text>
</g>
<!-- Node3 -->
<g id="node2" class="node"><title>Node3</title>
<g id="a_node2"><a xlink:href="classant_1_1analysis_1_1_plotter.html" target="_top" xlink:title="ant::analysis::Plotter">
<polygon fill="white" stroke="black" points="420.5,-190.511 420.5,-209.511 527.5,-209.511 527.5,-190.511 420.5,-190.511"/>
<text text-anchor="middle" x="474" y="-197.511" font-family="Helvetica,sans-Serif" font-size="10.00">ant::analysis::Plotter</text>
</a>
</g>
</g>
<!-- Node3&#45;&gt;Node2 -->
<g id="edge1" class="edge"><title>Node3&#45;&gt;Node2</title>
<path fill="none" stroke="midnightblue" d="M535.162,-188.092C563.765,-180.947 597.789,-170.232 626,-155.011 644.9,-144.814 663.256,-127.659 673.827,-116.857"/>
<polygon fill="midnightblue" stroke="midnightblue" points="534.19,-184.726 525.289,-190.472 535.831,-191.531 534.19,-184.726"/>
</g>
<!-- Node4 -->
<g id="node3" class="node"><title>Node4</title>
<g id="a_node3"><a xlink:href="classant_1_1analysis_1_1_histogram_factory.html" target="_top" xlink:title="ant::analysis::Histogram\lFactory">
<polygon fill="white" stroke="black" points="124.5,-185.011 124.5,-215.011 247.5,-215.011 247.5,-185.011 124.5,-185.011"/>
<text text-anchor="start" x="132.5" y="-203.011" font-family="Helvetica,sans-Serif" font-size="10.00">ant::analysis::Histogram</text>
<text text-anchor="middle" x="186" y="-192.011" font-family="Helvetica,sans-Serif" font-size="10.00">Factory</text>
</a>
</g>
</g>
<!-- Node4&#45;&gt;Node3 -->
<g id="edge2" class="edge"><title>Node4&#45;&gt;Node3</title>
<path fill="none" stroke="#9a32cd" stroke-dasharray="5,2" d="M257.799,-200.011C308.058,-200.011 374.448,-200.011 420.126,-200.011"/>
<polygon fill="#9a32cd" stroke="#9a32cd" points="257.653,-196.512 247.653,-200.011 257.653,-203.512 257.653,-196.512"/>
<text text-anchor="middle" x="333" y="-203.011" font-family="Helvetica,sans-Serif" font-size="10.00"> HistFac</text>
</g>
<!-- Node5 -->
<g id="node4" class="node"><title>Node5</title>
<g id="a_node4"><a xlink:href="structant_1_1analysis_1_1physics_1_1single_pi0_1_1_seen_tree.html" target="_top" xlink:title="ant::analysis::physics\l::singlePi0::SeenTree">
<polygon fill="white" stroke="black" points="418,-141.011 418,-171.011 530,-171.011 530,-141.011 418,-141.011"/>
<text text-anchor="start" x="426" y="-159.011" font-family="Helvetica,sans-Serif" font-size="10.00">ant::analysis::physics</text>
<text text-anchor="middle" x="474" y="-148.011" font-family="Helvetica,sans-Serif" font-size="10.00">::singlePi0::SeenTree</text>
</a>
</g>
</g>
<!-- Node5&#45;&gt;Node2 -->
<g id="edge3" class="edge"><title>Node5&#45;&gt;Node2</title>
<path fill="none" stroke="#9a32cd" stroke-dasharray="5,2" d="M540.308,-141.843C566.936,-135.926 597.991,-128.848 626,-122.011 632.959,-120.313 640.374,-118.422 647.475,-116.57"/>
<polygon fill="#9a32cd" stroke="#9a32cd" points="539.342,-138.472 530.335,-144.05 540.855,-145.306 539.342,-138.472"/>
<text text-anchor="middle" x="587" y="-143.011" font-family="Helvetica,sans-Serif" font-size="10.00"> seenTree</text>
</g>
<!-- Node6 -->
<g id="node5" class="node"><title>Node6</title>
<g id="a_node5"><a xlink:href="structant_1_1analysis_1_1physics_1_1single_pi0_1_1eff_tree__t.html" target="_top" xlink:title="ant::analysis::physics\l::singlePi0::effTree_t">
<polygon fill="white" stroke="black" points="130,-92.0115 130,-122.011 242,-122.011 242,-92.0115 130,-92.0115"/>
<text text-anchor="start" x="138" y="-110.011" font-family="Helvetica,sans-Serif" font-size="10.00">ant::analysis::physics</text>
<text text-anchor="middle" x="186" y="-99.0115" font-family="Helvetica,sans-Serif" font-size="10.00">::singlePi0::effTree_t</text>
</a>
</g>
</g>
<!-- Node6&#45;&gt;Node5 -->
<g id="edge4" class="edge"><title>Node6&#45;&gt;Node5</title>
<path fill="none" stroke="midnightblue" d="M252.357,-118.635C256.974,-119.443 261.557,-120.242 266,-121.011 317.356,-129.904 375.927,-139.782 417.629,-146.771"/>
<polygon fill="midnightblue" stroke="midnightblue" points="252.695,-115.141 242.24,-116.858 251.484,-122.035 252.695,-115.141"/>
</g>
<!-- Node8 -->
<g id="node7" class="node"><title>Node8</title>
<g id="a_node7"><a xlink:href="structant_1_1analysis_1_1physics_1_1single_pi0_1_1_rec_tree.html" target="_top" xlink:title="ant::analysis::physics\l::singlePi0::RecTree">
<polygon fill="white" stroke="black" points="418,-92.0115 418,-122.011 530,-122.011 530,-92.0115 418,-92.0115"/>
<text text-anchor="start" x="426" y="-110.011" font-family="Helvetica,sans-Serif" font-size="10.00">ant::analysis::physics</text>
<text text-anchor="middle" x="474" y="-99.0115" font-family="Helvetica,sans-Serif" font-size="10.00">::singlePi0::RecTree</text>
</a>
</g>
</g>
<!-- Node6&#45;&gt;Node8 -->
<g id="edge7" class="edge"><title>Node6&#45;&gt;Node8</title>
<path fill="none" stroke="midnightblue" d="M252.189,-107.011C302.109,-107.011 370.217,-107.011 417.538,-107.011"/>
<polygon fill="midnightblue" stroke="midnightblue" points="252.144,-103.512 242.144,-107.011 252.144,-110.512 252.144,-103.512"/>
</g>
<!-- Node7 -->
<g id="node6" class="node"><title>Node7</title>
<g id="a_node6"><a xlink:href="classant_1_1_wrap_t_tree.html" target="_top" xlink:title="The WrapTTree struct simplifies TTree handling in physics classes. ">
<polygon fill="white" stroke="black" points="0.5,-69.5115 0.5,-88.5115 85.5,-88.5115 85.5,-69.5115 0.5,-69.5115"/>
<text text-anchor="middle" x="43" y="-76.5115" font-family="Helvetica,sans-Serif" font-size="10.00">ant::WrapTTree</text>
</a>
</g>
</g>
<!-- Node7&#45;&gt;Node6 -->
<g id="edge5" class="edge"><title>Node7&#45;&gt;Node6</title>
<path fill="none" stroke="midnightblue" d="M95.5727,-89.2528C106.743,-91.4711 118.599,-93.8253 129.899,-96.0694"/>
<polygon fill="midnightblue" stroke="midnightblue" points="96.0323,-85.7758 85.542,-87.2609 94.6688,-92.6418 96.0323,-85.7758"/>
</g>
<!-- Node9 -->
<g id="node8" class="node"><title>Node9</title>
<g id="a_node8"><a xlink:href="structant_1_1analysis_1_1physics_1_1sigma_plus_1_1_pion_prod_tree.html" target="_top" xlink:title="ant::analysis::physics\l::sigmaPlus::PionProdTree">
<polygon fill="white" stroke="black" points="266,-47.0115 266,-77.0115 400,-77.0115 400,-47.0115 266,-47.0115"/>
<text text-anchor="start" x="274" y="-65.0115" font-family="Helvetica,sans-Serif" font-size="10.00">ant::analysis::physics</text>
<text text-anchor="middle" x="333" y="-54.0115" font-family="Helvetica,sans-Serif" font-size="10.00">::sigmaPlus::PionProdTree</text>
</a>
</g>
</g>
<!-- Node7&#45;&gt;Node9 -->
<g id="edge9" class="edge"><title>Node7&#45;&gt;Node9</title>
<path fill="none" stroke="midnightblue" d="M95.6596,-75.9621C143.281,-73.1511 214.205,-68.9646 265.931,-65.9114"/>
<polygon fill="midnightblue" stroke="midnightblue" points="95.3464,-72.4744 85.5701,-76.5577 95.759,-79.4622 95.3464,-72.4744"/>
</g>
<!-- Node8&#45;&gt;Node2 -->
<g id="edge6" class="edge"><title>Node8&#45;&gt;Node2</title>
<path fill="none" stroke="#9a32cd" stroke-dasharray="5,2" d="M540.561,-107.011C574.695,-107.011 615.257,-107.011 644.35,-107.011"/>
<polygon fill="#9a32cd" stroke="#9a32cd" points="540.194,-103.512 530.194,-107.011 540.194,-110.512 540.194,-103.512"/>
<text text-anchor="middle" x="587" y="-110.011" font-family="Helvetica,sans-Serif" font-size="10.00"> recTree</text>
</g>
<!-- Node9&#45;&gt;Node2 -->
<g id="edge8" class="edge"><title>Node9&#45;&gt;Node2</title>
<path fill="none" stroke="#9a32cd" stroke-dasharray="5,2" d="M410.118,-62.2351C446.541,-63.1754 490.681,-65.5312 530,-71.0115 572.026,-76.8691 619.448,-88.8932 650.205,-97.4313"/>
<polygon fill="#9a32cd" stroke="#9a32cd" points="410.137,-58.7347 400.06,-62.006 409.978,-65.7329 410.137,-58.7347"/>
<text text-anchor="middle" x="474" y="-74.0115" font-family="Helvetica,sans-Serif" font-size="10.00"> tree</text>
</g>
<!-- Node10 -->
<g id="node9" class="node"><title>Node10</title>
<g id="a_node9"><a xlink:href="classant_1_1_bin_settings.html" target="_top" xlink:title="ant::BinSettings">
<polygon fill="white" stroke="black" points="431,-4.51145 431,-23.5115 517,-23.5115 517,-4.51145 431,-4.51145"/>
<text text-anchor="middle" x="474" y="-11.5115" font-family="Helvetica,sans-Serif" font-size="10.00">ant::BinSettings</text>
</a>
</g>
</g>
<!-- Node10&#45;&gt;Node2 -->
<g id="edge10" class="edge"><title>Node10&#45;&gt;Node2</title>
<path fill="none" stroke="#9a32cd" stroke-dasharray="5,2" d="M523.79,-2.83931C554.972,1.64128 595.19,2.27801 626,-15.0115 658.28,-33.1255 674.633,-77.8413 680.456,-97.4904"/>
<polygon fill="#9a32cd" stroke="#9a32cd" points="522.903,0.56288 513.588,-4.48583 524.018,-6.34769 522.903,0.56288"/>
<text text-anchor="middle" x="587" y="-40.0115" font-family="Helvetica,sans-Serif" font-size="10.00"> taggerBins</text>
<text text-anchor="middle" x="587" y="-29.0115" font-family="Helvetica,sans-Serif" font-size="10.00">eff_cosThetaBins</text>
<text text-anchor="middle" x="587" y="-18.0115" font-family="Helvetica,sans-Serif" font-size="10.00">eff_ThetaBins</text>
</g>
<!-- Node11 -->
<g id="node10" class="node"><title>Node11</title>
<g id="a_node10"><a xlink:href="classant_1_1interval.html" target="_top" xlink:title="ant::interval\&lt; double \&gt;">
<polygon fill="white" stroke="black" points="129,-4.51145 129,-23.5115 243,-23.5115 243,-4.51145 129,-4.51145"/>
<text text-anchor="middle" x="186" y="-11.5115" font-family="Helvetica,sans-Serif" font-size="10.00">ant::interval&lt; double &gt;</text>
</a>
</g>
</g>
<!-- Node11&#45;&gt;Node10 -->
<g id="edge11" class="edge"><title>Node11&#45;&gt;Node10</title>
<path fill="none" stroke="midnightblue" d="M253.472,-14.0115C308.225,-14.0115 384.199,-14.0115 430.9,-14.0115"/>
<polygon fill="midnightblue" stroke="midnightblue" points="253.163,-10.5115 243.163,-14.0115 253.163,-17.5115 253.163,-10.5115"/>
</g>
</g>
</svg>
