<?xml version="1.0" encoding="UTF-8" standalone="no"?>
<!DOCTYPE svg PUBLIC "-//W3C//DTD SVG 1.1//EN"
 "http://www.w3.org/Graphics/SVG/1.1/DTD/svg11.dtd">
<!-- Generated by graphviz version 2.36.0 (20140111.2315)
 -->
<!-- Title: test Pages: 1 -->
<svg width="726pt" height="132pt"
 viewBox="0.00 0.00 726.00 132.00" xmlns="http://www.w3.org/2000/svg" xmlns:xlink="http://www.w3.org/1999/xlink">
<g id="graph0" class="graph" transform="scale(1 1) rotate(0) translate(4 128)">
<title>test</title>
<polygon fill="white" stroke="none" points="-4,4 -4,-128 722,-128 722,4 -4,4"/>
<g id="clust1" class="cluster"><title>clusterdir_13e138d54eb8818da29c3992edef070a</title>
<g id="a_clust1"><a xlink:href="dir_13e138d54eb8818da29c3992edef070a.html" target="_top">
<polygon fill="#eeeeff" stroke="black" points="8,-64 8,-116 710,-116 710,-64 8,-64"/>
</a>
</g>
</g>
<!-- dir_13e138d54eb8818da29c3992edef070a -->
<g id="node1" class="node"><title>dir_13e138d54eb8818da29c3992edef070a</title>
<text text-anchor="middle" x="675" y="-87.5" font-family="Helvetica,sans-Serif" font-size="10.00">test</text>
</g>
<!-- dir_667b72108da97c6489be6002f32efa39 -->
<g id="node2" class="node"><title>dir_667b72108da97c6489be6002f32efa39</title>
<g id="a_node2"><a xlink:href="dir_667b72108da97c6489be6002f32efa39.html" target="_top" xlink:title="analysis">
<polygon fill="white" stroke="black" points="630,-108 576,-108 576,-72 630,-72 630,-108"/>
<text text-anchor="middle" x="603" y="-87.5" font-family="Helvetica,sans-Serif" font-size="10.00">analysis</text>
</a>
</g>
</g>
<!-- dir_68267d1309a1af8e8297ef4c3efbcdba -->
<g id="node10" class="node"><title>dir_68267d1309a1af8e8297ef4c3efbcdba</title>
<g id="a_node10"><a xlink:href="dir_68267d1309a1af8e8297ef4c3efbcdba.html" target="_top" xlink:title="src">
<polygon fill="white" stroke="red" points="341,-36 287,-36 287,-0 341,-0 341,-36"/>
<text text-anchor="middle" x="314" y="-15.5" font-family="Helvetica,sans-Serif" font-size="10.00">src</text>
</a>
</g>
</g>
<!-- dir_667b72108da97c6489be6002f32efa39&#45;&gt;dir_68267d1309a1af8e8297ef4c3efbcdba -->
<g id="edge3" class="edge"><title>dir_667b72108da97c6489be6002f32efa39&#45;&gt;dir_68267d1309a1af8e8297ef4c3efbcdba</title>
<path fill="none" stroke="black" d="M580.75,-71.8167C576.074,-68.8341 571.029,-66.0404 566,-64 493.528,-34.594 401.61,-24.3519 351.228,-20.8222"/>
<polygon fill="black" stroke="black" points="351.336,-17.3219 341.13,-20.1664 350.882,-24.3071 351.336,-17.3219"/>
<g id="a_edge3&#45;headlabel"><a xlink:href="dir_000063_000002.html" target="_top" xlink:title="69">
<text text-anchor="middle" x="355.107" y="-12.2214" font-family="Helvetica,sans-Serif" font-size="10.00">69</text>
</a>
</g>
</g>
<!-- dir_b237cd20fd2bd5dd71675b4573f46992 -->
<g id="node3" class="node"><title>dir_b237cd20fd2bd5dd71675b4573f46992</title>
<g id="a_node3"><a xlink:href="dir_b237cd20fd2bd5dd71675b4573f46992.html" target="_top" xlink:title="analysis_codes">
<polygon fill="white" stroke="black" points="557.5,-108 474.5,-108 474.5,-72 557.5,-72 557.5,-108"/>
<text text-anchor="middle" x="516" y="-87.5" font-family="Helvetica,sans-Serif" font-size="10.00">analysis_codes</text>
</a>
</g>
</g>
<!-- dir_b237cd20fd2bd5dd71675b4573f46992&#45;&gt;dir_68267d1309a1af8e8297ef4c3efbcdba -->
<g id="edge2" class="edge"><title>dir_b237cd20fd2bd5dd71675b4573f46992&#45;&gt;dir_68267d1309a1af8e8297ef4c3efbcdba</title>
<path fill="none" stroke="black" d="M483.163,-71.9142C477.195,-69.0943 470.969,-66.3339 465,-64 427.004,-49.1444 382.03,-36.325 351.104,-28.2112"/>
<polygon fill="black" stroke="black" points="351.744,-24.7614 341.186,-25.6439 349.989,-31.5381 351.744,-24.7614"/>
<g id="a_edge2&#45;headlabel"><a xlink:href="dir_000064_000002.html" target="_top" xlink:title="4">
<text text-anchor="middle" x="355.935" y="-20.4134" font-family="Helvetica,sans-Serif" font-size="10.00">4</text>
</a>
</g>
</g>
<!-- dir_97ec6ad9cb3c1a5ff31df96ef5b3749a -->
<g id="node4" class="node"><title>dir_97ec6ad9cb3c1a5ff31df96ef5b3749a</title>
<g id="a_node4"><a xlink:href="dir_97ec6ad9cb3c1a5ff31df96ef5b3749a.html" target="_top" xlink:title="base">
<polygon fill="white" stroke="black" points="456,-108 402,-108 402,-72 456,-72 456,-108"/>
<text text-anchor="middle" x="429" y="-87.5" font-family="Helvetica,sans-Serif" font-size="10.00">base</text>
</a>
</g>
</g>
<!-- dir_97ec6ad9cb3c1a5ff31df96ef5b3749a&#45;&gt;dir_68267d1309a1af8e8297ef4c3efbcdba -->
<g id="edge6" class="edge"><title>dir_97ec6ad9cb3c1a5ff31df96ef5b3749a&#45;&gt;dir_68267d1309a1af8e8297ef4c3efbcdba</title>
<path fill="none" stroke="black" d="M404.081,-71.8125C400.072,-69.1491 395.944,-66.4659 392,-64 378.537,-55.5827 363.479,-46.7615 350.212,-39.1816"/>
<polygon fill="black" stroke="black" points="351.778,-36.0463 341.354,-34.1526 348.322,-42.1336 351.778,-36.0463"/>
<g id="a_edge6&#45;headlabel"><a xlink:href="dir_000065_000002.html" target="_top" xlink:title="44">
<text text-anchor="middle" x="356.306" y="-32.8519" font-family="Helvetica,sans-Serif" font-size="10.00">44</text>
</a>
</g>
</g>
<!-- dir_d35cb250f796e1503cd2deed01fdf2c1 -->
<g id="node5" class="node"><title>dir_d35cb250f796e1503cd2deed01fdf2c1</title>
<g id="a_node5"><a xlink:href="dir_d35cb250f796e1503cd2deed01fdf2c1.html" target="_top" xlink:title="calibration">
<polygon fill="white" stroke="black" points="383.25,-108 322.75,-108 322.75,-72 383.25,-72 383.25,-108"/>
<text text-anchor="middle" x="353" y="-87.5" font-family="Helvetica,sans-Serif" font-size="10.00">calibration</text>
</a>
</g>
</g>
<!-- dir_d35cb250f796e1503cd2deed01fdf2c1&#45;&gt;dir_68267d1309a1af8e8297ef4c3efbcdba -->
<g id="edge1" class="edge"><title>dir_d35cb250f796e1503cd2deed01fdf2c1&#45;&gt;dir_68267d1309a1af8e8297ef4c3efbcdba</title>
<path fill="none" stroke="black" d="M343.36,-71.6966C338.873,-63.6436 333.441,-53.8945 328.476,-44.9824"/>
<polygon fill="black" stroke="black" points="331.454,-43.1366 323.53,-36.1043 325.339,-46.5435 331.454,-43.1366"/>
<g id="a_edge1&#45;headlabel"><a xlink:href="dir_000066_000002.html" target="_top" xlink:title="28">
<text text-anchor="middle" x="335.684" y="-42.3948" font-family="Helvetica,sans-Serif" font-size="10.00">28</text>
</a>
</g>
</g>
<!-- dir_305d9cee7b10148d7f1de92e7b87bbc6 -->
<g id="node6" class="node"><title>dir_305d9cee7b10148d7f1de92e7b87bbc6</title>
<g id="a_node6"><a xlink:href="dir_305d9cee7b10148d7f1de92e7b87bbc6.html" target="_top" xlink:title="expconfig">
<polygon fill="white" stroke="black" points="304.25,-108 245.75,-108 245.75,-72 304.25,-72 304.25,-108"/>
<text text-anchor="middle" x="275" y="-87.5" font-family="Helvetica,sans-Serif" font-size="10.00">expconfig</text>
</a>
</g>
</g>
<!-- dir_305d9cee7b10148d7f1de92e7b87bbc6&#45;&gt;dir_68267d1309a1af8e8297ef4c3efbcdba -->
<g id="edge5" class="edge"><title>dir_305d9cee7b10148d7f1de92e7b87bbc6&#45;&gt;dir_68267d1309a1af8e8297ef4c3efbcdba</title>
<path fill="none" stroke="black" d="M284.64,-71.6966C289.127,-63.6436 294.559,-53.8945 299.524,-44.9824"/>
<polygon fill="black" stroke="black" points="302.661,-46.5435 304.47,-36.1043 296.546,-43.1366 302.661,-46.5435"/>
<g id="a_edge5&#45;headlabel"><a xlink:href="dir_000067_000002.html" target="_top" xlink:title="9">
<text text-anchor="middle" x="303.392" y="-48.5655" font-family="Helvetica,sans-Serif" font-size="10.00">9</text>
</a>
</g>
</g>
<!-- dir_f40f162875297943759074a3f33f2c21 -->
<g id="node7" class="node"><title>dir_f40f162875297943759074a3f33f2c21</title>
<g id="a_node7"><a xlink:href="dir_f40f162875297943759074a3f33f2c21.html" target="_top" xlink:title="reconstruct">
<polygon fill="white" stroke="black" points="227.25,-108 162.75,-108 162.75,-72 227.25,-72 227.25,-108"/>
<text text-anchor="middle" x="195" y="-87.5" font-family="Helvetica,sans-Serif" font-size="10.00">reconstruct</text>
</a>
</g>
</g>
<!-- dir_f40f162875297943759074a3f33f2c21&#45;&gt;dir_68267d1309a1af8e8297ef4c3efbcdba -->
<g id="edge7" class="edge"><title>dir_f40f162875297943759074a3f33f2c21&#45;&gt;dir_68267d1309a1af8e8297ef4c3efbcdba</title>
<path fill="none" stroke="black" d="M223.901,-71.7555C228.287,-69.151 232.761,-66.5004 237,-64 250.437,-56.0749 265.223,-47.4179 278.216,-39.8325"/>
<polygon fill="black" stroke="black" points="280.012,-42.8368 286.886,-34.7745 276.485,-36.7905 280.012,-42.8368"/>
<g id="a_edge7&#45;headlabel"><a xlink:href="dir_000068_000002.html" target="_top" xlink:title="23">
<text text-anchor="middle" x="278.338" y="-44.6006" font-family="Helvetica,sans-Serif" font-size="10.00">23</text>
</a>
</g>
</g>
<!-- dir_8d0139d482f31cca8590f543c7e76ac7 -->
<g id="node8" class="node"><title>dir_8d0139d482f31cca8590f543c7e76ac7</title>
<g id="a_node8"><a xlink:href="dir_8d0139d482f31cca8590f543c7e76ac7.html" target="_top" xlink:title="tree">
<polygon fill="white" stroke="black" points="144,-108 90,-108 90,-72 144,-72 144,-108"/>
<text text-anchor="middle" x="117" y="-87.5" font-family="Helvetica,sans-Serif" font-size="10.00">tree</text>
</a>
</g>
</g>
<!-- dir_8d0139d482f31cca8590f543c7e76ac7&#45;&gt;dir_68267d1309a1af8e8297ef4c3efbcdba -->
<g id="edge4" class="edge"><title>dir_8d0139d482f31cca8590f543c7e76ac7&#45;&gt;dir_68267d1309a1af8e8297ef4c3efbcdba</title>
<path fill="none" stroke="black" d="M139.817,-71.9427C144.365,-69.0211 149.217,-66.2177 154,-64 194.039,-45.434 243.347,-32.9899 276.556,-25.9797"/>
<polygon fill="black" stroke="black" points="277.646,-29.3292 286.741,-23.8938 276.242,-22.4715 277.646,-29.3292"/>
<g id="a_edge4&#45;headlabel"><a xlink:href="dir_000069_000002.html" target="_top" xlink:title="12">
<text text-anchor="middle" x="274.695" y="-30.3319" font-family="Helvetica,sans-Serif" font-size="10.00">12</text>
</a>
</g>
</g>
<!-- dir_d57a8c586049227f21125b8de73278be -->
<g id="node9" class="node"><title>dir_d57a8c586049227f21125b8de73278be</title>
<g id="a_node9"><a xlink:href="dir_d57a8c586049227f21125b8de73278be.html" target="_top" xlink:title="unpacker">
<polygon fill="white" stroke="black" points="71.5,-108 16.5,-108 16.5,-72 71.5,-72 71.5,-108"/>
<text text-anchor="middle" x="44" y="-87.5" font-family="Helvetica,sans-Serif" font-size="10.00">unpacker</text>
</a>
</g>
</g>
<!-- dir_d57a8c586049227f21125b8de73278be&#45;&gt;dir_68267d1309a1af8e8297ef4c3efbcdba -->
<g id="edge8" class="edge"><title>dir_d57a8c586049227f21125b8de73278be&#45;&gt;dir_68267d1309a1af8e8297ef4c3efbcdba</title>
<path fill="none" stroke="black" d="M66.273,-71.8727C70.9475,-68.8855 75.9859,-66.0757 81,-64 146.647,-36.8233 229.586,-25.8405 276.728,-21.5665"/>
<polygon fill="black" stroke="black" points="277.12,-25.0458 286.786,-20.7078 276.525,-18.0712 277.12,-25.0458"/>
<g id="a_edge8&#45;headlabel"><a xlink:href="dir_000070_000002.html" target="_top" xlink:title="21">
<text text-anchor="middle" x="273.78" y="-25.6805" font-family="Helvetica,sans-Serif" font-size="10.00">21</text>
</a>
</g>
</g>
</g>
</svg>
