<?xml version="1.0" encoding="UTF-8" standalone="no"?>
<!DOCTYPE svg PUBLIC "-//W3C//DTD SVG 1.1//EN"
 "http://www.w3.org/Graphics/SVG/1.1/DTD/svg11.dtd">
<!-- Generated by graphviz version 2.36.0 (20140111.2315)
 -->
<!-- Title: src/analysis/physics/scratch/collicott Pages: 1 -->
<svg width="273pt" height="367pt"
 viewBox="0.00 0.00 272.78 367.00" xmlns="http://www.w3.org/2000/svg" xmlns:xlink="http://www.w3.org/1999/xlink">
<g id="graph0" class="graph" transform="scale(1 1) rotate(0) translate(4 363)">
<title>src/analysis/physics/scratch/collicott</title>
<polygon fill="white" stroke="none" points="-4,4 -4,-363 268.78,-363 268.78,4 -4,4"/>
<g id="clust1" class="cluster"><title>clusterdir_15cb7383784026d829002226dc1288d7</title>
<g id="a_clust1"><a xlink:href="dir_15cb7383784026d829002226dc1288d7.html" target="_top" xlink:title="scratch">
<polygon fill="#ddddee" stroke="black" points="59.7801,-280 59.7801,-351 129.78,-351 129.78,-280 59.7801,-280"/>
<text text-anchor="middle" x="94.7801" y="-339" font-family="Helvetica,sans-Serif" font-size="10.00">scratch</text>
</a>
</g>
</g>
<!-- dir_c0012d398dc023eb3dc9a68dc92160cd -->
<g id="node1" class="node"><title>dir_c0012d398dc023eb3dc9a68dc92160cd</title>
<g id="a_node1"><a xlink:href="dir_c0012d398dc023eb3dc9a68dc92160cd.html" target="_top" xlink:title="collicott">
<polygon fill="#eeeeff" stroke="black" points="121.78,-324 67.7801,-324 67.7801,-288 121.78,-288 121.78,-324"/>
<text text-anchor="middle" x="94.7801" y="-303.5" font-family="Helvetica,sans-Serif" font-size="10.00">collicott</text>
</a>
</g>
</g>
<!-- dir_0a0aa297e888439a92fbcfd5e567f128 -->
<g id="node2" class="node"><title>dir_0a0aa297e888439a92fbcfd5e567f128</title>
<g id="a_node2"><a xlink:href="dir_0a0aa297e888439a92fbcfd5e567f128.html" target="_top" xlink:title="utils">
<polygon fill="white" stroke="red" points="121.78,-252 67.7801,-252 67.7801,-216 121.78,-216 121.78,-252"/>
<text text-anchor="middle" x="94.7801" y="-231.5" font-family="Helvetica,sans-Serif" font-size="10.00">utils</text>
</a>
</g>
</g>
<!-- dir_c0012d398dc023eb3dc9a68dc92160cd&#45;&gt;dir_0a0aa297e888439a92fbcfd5e567f128 -->
<g id="edge9" class="edge"><title>dir_c0012d398dc023eb3dc9a68dc92160cd&#45;&gt;dir_0a0aa297e888439a92fbcfd5e567f128</title>
<path fill="none" stroke="black" d="M94.7801,-287.697C94.7801,-279.983 94.7801,-270.712 94.7801,-262.112"/>
<polygon fill="black" stroke="black" points="98.2802,-262.104 94.7801,-252.104 91.2802,-262.104 98.2802,-262.104"/>
<g id="a_edge9&#45;headlabel"><a xlink:href="dir_000028_000035.html" target="_top" xlink:title="8">
<text text-anchor="middle" x="101.119" y="-263.199" font-family="Helvetica,sans-Serif" font-size="10.00">8</text>
</a>
</g>
</g>
<!-- dir_0af1587c8378955de40f48b4bd1869f0 -->
<g id="node3" class="node"><title>dir_0af1587c8378955de40f48b4bd1869f0</title>
<g id="a_node3"><a xlink:href="dir_0af1587c8378955de40f48b4bd1869f0.html" target="_top" xlink:title="base">
<polygon fill="white" stroke="red" points="121.78,-36 67.7801,-36 67.7801,-0 121.78,-0 121.78,-36"/>
<text text-anchor="middle" x="94.7801" y="-15.5" font-family="Helvetica,sans-Serif" font-size="10.00">base</text>
</a>
</g>
</g>
<!-- dir_c0012d398dc023eb3dc9a68dc92160cd&#45;&gt;dir_0af1587c8378955de40f48b4bd1869f0 -->
<g id="edge10" class="edge"><title>dir_c0012d398dc023eb3dc9a68dc92160cd&#45;&gt;dir_0af1587c8378955de40f48b4bd1869f0</title>
<path fill="none" stroke="black" d="M73.6834,-287.98C41.4086,-259.728 -14.6517,-200.635 3.78008,-144 16.6172,-104.556 47.1148,-67.1841 69.2743,-43.7557"/>
<polygon fill="black" stroke="black" points="71.9911,-45.9813 76.432,-36.3621 66.9618,-41.1124 71.9911,-45.9813"/>
<g id="a_edge10&#45;headlabel"><a xlink:href="dir_000028_000018.html" target="_top" xlink:title="11">
<text text-anchor="middle" x="71.5308" y="-48.0387" font-family="Helvetica,sans-Serif" font-size="10.00">11</text>
</a>
</g>
</g>
<!-- dir_c4f4646ab0f4a2967be5b6215a500c22 -->
<g id="node4" class="node"><title>dir_c4f4646ab0f4a2967be5b6215a500c22</title>
<g id="a_node4"><a xlink:href="dir_c4f4646ab0f4a2967be5b6215a500c22.html" target="_top" xlink:title="expconfig">
<polygon fill="white" stroke="red" points="182.03,-108 123.53,-108 123.53,-72 182.03,-72 182.03,-108"/>
<text text-anchor="middle" x="152.78" y="-87.5" font-family="Helvetica,sans-Serif" font-size="10.00">expconfig</text>
</a>
</g>
</g>
<!-- dir_c0012d398dc023eb3dc9a68dc92160cd&#45;&gt;dir_c4f4646ab0f4a2967be5b6215a500c22 -->
<g id="edge11" class="edge"><title>dir_c0012d398dc023eb3dc9a68dc92160cd&#45;&gt;dir_c4f4646ab0f4a2967be5b6215a500c22</title>
<path fill="none" stroke="black" d="M109.684,-287.53C117.24,-277.715 125.841,-264.878 130.78,-252 147.934,-207.273 152.011,-151.046 152.812,-118.254"/>
<polygon fill="black" stroke="black" points="156.314,-118.135 152.972,-108.082 149.315,-118.025 156.314,-118.135"/>
<g id="a_edge11&#45;headlabel"><a xlink:href="dir_000028_000039.html" target="_top" xlink:title="3">
<text text-anchor="middle" x="159.096" y="-119.274" font-family="Helvetica,sans-Serif" font-size="10.00">3</text>
</a>
</g>
</g>
<!-- dir_8f68c37b22d514b4289e3a1255795d80 -->
<g id="node5" class="node"><title>dir_8f68c37b22d514b4289e3a1255795d80</title>
<g id="a_node5"><a xlink:href="dir_8f68c37b22d514b4289e3a1255795d80.html" target="_top" xlink:title="plot">
<polygon fill="none" stroke="black" points="66.7801,-180 12.7801,-180 12.7801,-144 66.7801,-144 66.7801,-180"/>
<text text-anchor="middle" x="39.7801" y="-159.5" font-family="Helvetica,sans-Serif" font-size="10.00">plot</text>
</a>
</g>
</g>
<!-- dir_c0012d398dc023eb3dc9a68dc92160cd&#45;&gt;dir_8f68c37b22d514b4289e3a1255795d80 -->
<g id="edge12" class="edge"><title>dir_c0012d398dc023eb3dc9a68dc92160cd&#45;&gt;dir_8f68c37b22d514b4289e3a1255795d80</title>
<path fill="none" stroke="black" d="M80.6154,-287.851C73.0899,-277.93 64.283,-264.89 58.7801,-252 50.3669,-232.293 45.5354,-208.488 42.8518,-190.458"/>
<polygon fill="black" stroke="black" points="46.2898,-189.764 41.4773,-180.326 39.3533,-190.705 46.2898,-189.764"/>
<g id="a_edge12&#45;headlabel"><a xlink:href="dir_000028_000036.html" target="_top" xlink:title="7">
<text text-anchor="middle" x="49.5864" y="-190.445" font-family="Helvetica,sans-Serif" font-size="10.00">7</text>
</a>
</g>
</g>
<!-- dir_f7cc278301683119f8719a92f4ffdd26 -->
<g id="node6" class="node"><title>dir_f7cc278301683119f8719a92f4ffdd26</title>
<g id="a_node6"><a xlink:href="dir_f7cc278301683119f8719a92f4ffdd26.html" target="_top" xlink:title="slowcontrol">
<polygon fill="white" stroke="red" points="264.78,-180 198.78,-180 198.78,-144 264.78,-144 264.78,-180"/>
<text text-anchor="middle" x="231.78" y="-159.5" font-family="Helvetica,sans-Serif" font-size="10.00">slowcontrol</text>
</a>
</g>
</g>
<!-- dir_c0012d398dc023eb3dc9a68dc92160cd&#45;&gt;dir_f7cc278301683119f8719a92f4ffdd26 -->
<g id="edge13" class="edge"><title>dir_c0012d398dc023eb3dc9a68dc92160cd&#45;&gt;dir_f7cc278301683119f8719a92f4ffdd26</title>
<path fill="none" stroke="black" d="M121.849,-293.91C141.253,-284.894 167,-270.624 184.78,-252 201.939,-234.026 214.538,-208.557 222.348,-189.467"/>
<polygon fill="black" stroke="black" points="225.613,-190.726 225.994,-180.138 219.094,-188.178 225.613,-190.726"/>
<g id="a_edge13&#45;headlabel"><a xlink:href="dir_000028_000011.html" target="_top" xlink:title="2">
<text text-anchor="middle" x="226.949" y="-192.608" font-family="Helvetica,sans-Serif" font-size="10.00">2</text>
</a>
</g>
</g>
<!-- dir_0a0aa297e888439a92fbcfd5e567f128&#45;&gt;dir_0af1587c8378955de40f48b4bd1869f0 -->
<g id="edge1" class="edge"><title>dir_0a0aa297e888439a92fbcfd5e567f128&#45;&gt;dir_0af1587c8378955de40f48b4bd1869f0</title>
<path fill="none" stroke="black" d="M94.7801,-215.849C94.7801,-178.832 94.7801,-91.1809 94.7801,-46.3863"/>
<polygon fill="black" stroke="black" points="98.2802,-46.2324 94.7801,-36.2325 91.2802,-46.2325 98.2802,-46.2324"/>
<g id="a_edge1&#45;headlabel"><a xlink:href="dir_000035_000018.html" target="_top" xlink:title="60">
<text text-anchor="middle" x="101.119" y="-47.3271" font-family="Helvetica,sans-Serif" font-size="10.00">60</text>
</a>
</g>
</g>
<!-- dir_0a0aa297e888439a92fbcfd5e567f128&#45;&gt;dir_c4f4646ab0f4a2967be5b6215a500c22 -->
<g id="edge2" class="edge"><title>dir_0a0aa297e888439a92fbcfd5e567f128&#45;&gt;dir_c4f4646ab0f4a2967be5b6215a500c22</title>
<path fill="none" stroke="black" d="M101.776,-215.871C111.748,-191.457 130.141,-146.426 141.901,-117.635"/>
<polygon fill="black" stroke="black" points="145.218,-118.77 145.759,-108.189 138.738,-116.123 145.218,-118.77"/>
<g id="a_edge2&#45;headlabel"><a xlink:href="dir_000035_000039.html" target="_top" xlink:title="19">
<text text-anchor="middle" x="146.487" y="-120.672" font-family="Helvetica,sans-Serif" font-size="10.00">19</text>
</a>
</g>
</g>
<!-- dir_0a0aa297e888439a92fbcfd5e567f128&#45;&gt;dir_8f68c37b22d514b4289e3a1255795d80 -->
<g id="edge3" class="edge"><title>dir_0a0aa297e888439a92fbcfd5e567f128&#45;&gt;dir_8f68c37b22d514b4289e3a1255795d80</title>
<path fill="none" stroke="black" d="M81.1846,-215.697C74.6574,-207.389 66.712,-197.277 59.5335,-188.141"/>
<polygon fill="black" stroke="black" points="62.1496,-185.805 53.2192,-180.104 56.6453,-190.13 62.1496,-185.805"/>
<g id="a_edge3&#45;headlabel"><a xlink:href="dir_000035_000036.html" target="_top" xlink:title="2">
<text text-anchor="middle" x="66.6029" y="-184.377" font-family="Helvetica,sans-Serif" font-size="10.00">2</text>
</a>
</g>
</g>
<!-- dir_c4f4646ab0f4a2967be5b6215a500c22&#45;&gt;dir_0af1587c8378955de40f48b4bd1869f0 -->
<g id="edge4" class="edge"><title>dir_c4f4646ab0f4a2967be5b6215a500c22&#45;&gt;dir_0af1587c8378955de40f48b4bd1869f0</title>
<path fill="none" stroke="black" d="M138.443,-71.6966C131.49,-63.3046 123.01,-53.0705 115.379,-43.8613"/>
<polygon fill="black" stroke="black" points="118.028,-41.5715 108.952,-36.1043 112.637,-46.0376 118.028,-41.5715"/>
<g id="a_edge4&#45;headlabel"><a xlink:href="dir_000039_000018.html" target="_top" xlink:title="43">
<text text-anchor="middle" x="122.507" y="-40.0279" font-family="Helvetica,sans-Serif" font-size="10.00">43</text>
</a>
</g>
</g>
<!-- dir_8f68c37b22d514b4289e3a1255795d80&#45;&gt;dir_0af1587c8378955de40f48b4bd1869f0 -->
<g id="edge5" class="edge"><title>dir_8f68c37b22d514b4289e3a1255795d80&#45;&gt;dir_0af1587c8378955de40f48b4bd1869f0</title>
<path fill="none" stroke="black" d="M46.4144,-143.871C55.8707,-119.457 73.3123,-74.4258 84.4636,-45.6351"/>
<polygon fill="black" stroke="black" points="87.7742,-46.7784 88.1223,-36.1893 81.2467,-44.2501 87.7742,-46.7784"/>
<g id="a_edge5&#45;headlabel"><a xlink:href="dir_000036_000018.html" target="_top" xlink:title="10">
<text text-anchor="middle" x="89.1235" y="-48.6558" font-family="Helvetica,sans-Serif" font-size="10.00">10</text>
</a>
</g>
</g>
<!-- dir_8f68c37b22d514b4289e3a1255795d80&#45;&gt;dir_c4f4646ab0f4a2967be5b6215a500c22 -->
<g id="edge6" class="edge"><title>dir_8f68c37b22d514b4289e3a1255795d80&#45;&gt;dir_c4f4646ab0f4a2967be5b6215a500c22</title>
<path fill="none" stroke="black" d="M66.8464,-144.233C81.721,-135.019 100.372,-123.465 116.493,-113.479"/>
<polygon fill="black" stroke="black" points="118.492,-116.358 125.15,-108.116 114.805,-110.407 118.492,-116.358"/>
<g id="a_edge6&#45;headlabel"><a xlink:href="dir_000036_000039.html" target="_top" xlink:title="1">
<text text-anchor="middle" x="116.931" y="-118.164" font-family="Helvetica,sans-Serif" font-size="10.00">1</text>
</a>
</g>
</g>
<!-- dir_f7cc278301683119f8719a92f4ffdd26&#45;&gt;dir_0af1587c8378955de40f48b4bd1869f0 -->
<g id="edge7" class="edge"><title>dir_f7cc278301683119f8719a92f4ffdd26&#45;&gt;dir_0af1587c8378955de40f48b4bd1869f0</title>
<path fill="none" stroke="black" d="M227.374,-143.753C221.679,-124.341 210.125,-92.8063 190.78,-72 174.404,-54.3867 150.813,-41.2505 131.115,-32.4619"/>
<polygon fill="black" stroke="black" points="132.379,-29.1958 121.807,-28.4961 129.635,-35.6357 132.379,-29.1958"/>
<g id="a_edge7&#45;headlabel"><a xlink:href="dir_000011_000018.html" target="_top" xlink:title="13">
<text text-anchor="middle" x="136.799" y="-25.4926" font-family="Helvetica,sans-Serif" font-size="10.00">13</text>
</a>
</g>
</g>
<!-- dir_f7cc278301683119f8719a92f4ffdd26&#45;&gt;dir_c4f4646ab0f4a2967be5b6215a500c22 -->
<g id="edge8" class="edge"><title>dir_f7cc278301683119f8719a92f4ffdd26&#45;&gt;dir_c4f4646ab0f4a2967be5b6215a500c22</title>
<path fill="none" stroke="black" d="M212.252,-143.697C202.398,-134.965 190.294,-124.24 179.584,-114.75"/>
<polygon fill="black" stroke="black" points="181.889,-112.117 172.084,-108.104 177.247,-117.356 181.889,-112.117"/>
<g id="a_edge8&#45;headlabel"><a xlink:href="dir_000011_000039.html" target="_top" xlink:title="12">
<text text-anchor="middle" x="186.463" y="-109.875" font-family="Helvetica,sans-Serif" font-size="10.00">12</text>
</a>
</g>
</g>
</g>
</svg>
