<?xml version="1.0" encoding="UTF-8" standalone="no"?>
<!DOCTYPE svg PUBLIC "-//W3C//DTD SVG 1.1//EN"
 "http://www.w3.org/Graphics/SVG/1.1/DTD/svg11.dtd">
<!-- Generated by graphviz version 2.36.0 (20140111.2315)
 -->
<!-- Title: src/unpacker/detail Pages: 1 -->
<svg width="139pt" height="295pt"
 viewBox="0.00 0.00 139.00 295.00" xmlns="http://www.w3.org/2000/svg" xmlns:xlink="http://www.w3.org/1999/xlink">
<g id="graph0" class="graph" transform="scale(1 1) rotate(0) translate(4 291)">
<title>src/unpacker/detail</title>
<polygon fill="white" stroke="none" points="-4,4 -4,-291 135,-291 135,4 -4,4"/>
<g id="clust1" class="cluster"><title>clusterdir_da9e88029a658bab9ad39bb8696ef9bc</title>
<g id="a_clust1"><a xlink:href="dir_da9e88029a658bab9ad39bb8696ef9bc.html" target="_top" xlink:title="unpacker">
<polygon fill="#ddddee" stroke="black" points="8,-208 8,-279 78,-279 78,-208 8,-208"/>
<text text-anchor="middle" x="43" y="-267" font-family="Helvetica,sans-Serif" font-size="10.00">unpacker</text>
</a>
</g>
</g>
<!-- dir_567e523e8ffcef81078570749a0749e1 -->
<g id="node1" class="node"><title>dir_567e523e8ffcef81078570749a0749e1</title>
<g id="a_node1"><a xlink:href="dir_567e523e8ffcef81078570749a0749e1.html" target="_top" xlink:title="detail">
<polygon fill="#eeeeff" stroke="black" points="70,-252 16,-252 16,-216 70,-216 70,-252"/>
<text text-anchor="middle" x="43" y="-231.5" font-family="Helvetica,sans-Serif" font-size="10.00">detail</text>
</a>
</g>
</g>
<!-- dir_0af1587c8378955de40f48b4bd1869f0 -->
<g id="node2" class="node"><title>dir_0af1587c8378955de40f48b4bd1869f0</title>
<g id="a_node2"><a xlink:href="dir_0af1587c8378955de40f48b4bd1869f0.html" target="_top" xlink:title="base">
<polygon fill="white" stroke="red" points="80,-36 26,-36 26,-0 80,-0 80,-36"/>
<text text-anchor="middle" x="53" y="-15.5" font-family="Helvetica,sans-Serif" font-size="10.00">base</text>
</a>
</g>
</g>
<!-- dir_567e523e8ffcef81078570749a0749e1&#45;&gt;dir_0af1587c8378955de40f48b4bd1869f0 -->
<g id="edge4" class="edge"><title>dir_567e523e8ffcef81078570749a0749e1&#45;&gt;dir_0af1587c8378955de40f48b4bd1869f0</title>
<path fill="none" stroke="black" d="M35.1595,-215.725C22.7103,-185.857 1.35457,-122.878 17,-72 20.0089,-62.2153 25.507,-52.6161 31.3157,-44.3336"/>
<polygon fill="black" stroke="black" points="34.1948,-46.3279 37.3901,-36.2264 28.5928,-42.1306 34.1948,-46.3279"/>
<g id="a_edge4&#45;headlabel"><a xlink:href="dir_000061_000018.html" target="_top" xlink:title="5">
<text text-anchor="middle" x="34.3117" y="-48.4071" font-family="Helvetica,sans-Serif" font-size="10.00">5</text>
</a>
</g>
</g>
<!-- dir_c44c95bf3b41c3321c6014770d618ac8 -->
<g id="node3" class="node"><title>dir_c44c95bf3b41c3321c6014770d618ac8</title>
<g id="a_node3"><a xlink:href="dir_c44c95bf3b41c3321c6014770d618ac8.html" target="_top" xlink:title="tree">
<polygon fill="none" stroke="black" points="80,-108 26,-108 26,-72 80,-72 80,-108"/>
<text text-anchor="middle" x="53" y="-87.5" font-family="Helvetica,sans-Serif" font-size="10.00">tree</text>
</a>
</g>
</g>
<!-- dir_567e523e8ffcef81078570749a0749e1&#45;&gt;dir_c44c95bf3b41c3321c6014770d618ac8 -->
<g id="edge5" class="edge"><title>dir_567e523e8ffcef81078570749a0749e1&#45;&gt;dir_c44c95bf3b41c3321c6014770d618ac8</title>
<path fill="none" stroke="black" d="M44.2062,-215.871C45.9105,-191.67 49.0415,-147.211 51.0709,-118.393"/>
<polygon fill="black" stroke="black" points="54.5783,-118.41 51.7895,-108.189 47.5956,-117.919 54.5783,-118.41"/>
<g id="a_edge5&#45;headlabel"><a xlink:href="dir_000061_000059.html" target="_top" xlink:title="7">
<text text-anchor="middle" x="57.1581" y="-119.696" font-family="Helvetica,sans-Serif" font-size="10.00">7</text>
</a>
</g>
</g>
<!-- dir_c4f4646ab0f4a2967be5b6215a500c22 -->
<g id="node4" class="node"><title>dir_c4f4646ab0f4a2967be5b6215a500c22</title>
<g id="a_node4"><a xlink:href="dir_c4f4646ab0f4a2967be5b6215a500c22.html" target="_top" xlink:title="expconfig">
<polygon fill="white" stroke="red" points="130.25,-180 71.75,-180 71.75,-144 130.25,-144 130.25,-180"/>
<text text-anchor="middle" x="101" y="-159.5" font-family="Helvetica,sans-Serif" font-size="10.00">expconfig</text>
</a>
</g>
</g>
<!-- dir_567e523e8ffcef81078570749a0749e1&#45;&gt;dir_c4f4646ab0f4a2967be5b6215a500c22 -->
<g id="edge6" class="edge"><title>dir_567e523e8ffcef81078570749a0749e1&#45;&gt;dir_c4f4646ab0f4a2967be5b6215a500c22</title>
<path fill="none" stroke="black" d="M57.3371,-215.697C64.2905,-207.305 72.7702,-197.07 80.4006,-187.861"/>
<polygon fill="black" stroke="black" points="83.1427,-190.038 86.8278,-180.104 77.7525,-185.571 83.1427,-190.038"/>
<g id="a_edge6&#45;headlabel"><a xlink:href="dir_000061_000039.html" target="_top" xlink:title="1">
<text text-anchor="middle" x="83.0356" y="-192.117" font-family="Helvetica,sans-Serif" font-size="10.00">1</text>
</a>
</g>
</g>
<!-- dir_c44c95bf3b41c3321c6014770d618ac8&#45;&gt;dir_0af1587c8378955de40f48b4bd1869f0 -->
<g id="edge1" class="edge"><title>dir_c44c95bf3b41c3321c6014770d618ac8&#45;&gt;dir_0af1587c8378955de40f48b4bd1869f0</title>
<path fill="none" stroke="black" d="M53,-71.6966C53,-63.9827 53,-54.7125 53,-46.1124"/>
<polygon fill="black" stroke="black" points="56.5001,-46.1043 53,-36.1043 49.5001,-46.1044 56.5001,-46.1043"/>
<g id="a_edge1&#45;headlabel"><a xlink:href="dir_000059_000018.html" target="_top" xlink:title="25">
<text text-anchor="middle" x="59.3393" y="-47.199" font-family="Helvetica,sans-Serif" font-size="10.00">25</text>
</a>
</g>
</g>
<!-- dir_c4f4646ab0f4a2967be5b6215a500c22&#45;&gt;dir_0af1587c8378955de40f48b4bd1869f0 -->
<g id="edge2" class="edge"><title>dir_c4f4646ab0f4a2967be5b6215a500c22&#45;&gt;dir_0af1587c8378955de40f48b4bd1869f0</title>
<path fill="none" stroke="black" d="M100.994,-143.695C100.462,-125.328 98.0795,-95.7364 89,-72 85.3427,-62.4387 79.6624,-52.9023 73.8863,-44.6086"/>
<polygon fill="black" stroke="black" points="76.6503,-42.4591 67.913,-36.4665 71.0062,-46.5998 76.6503,-42.4591"/>
<g id="a_edge2&#45;headlabel"><a xlink:href="dir_000039_000018.html" target="_top" xlink:title="43">
<text text-anchor="middle" x="81.0658" y="-41.178" font-family="Helvetica,sans-Serif" font-size="10.00">43</text>
</a>
</g>
</g>
<!-- dir_c4f4646ab0f4a2967be5b6215a500c22&#45;&gt;dir_c44c95bf3b41c3321c6014770d618ac8 -->
<g id="edge3" class="edge"><title>dir_c4f4646ab0f4a2967be5b6215a500c22&#45;&gt;dir_c44c95bf3b41c3321c6014770d618ac8</title>
<path fill="none" stroke="black" d="M89.1348,-143.697C83.4965,-135.474 76.6457,-125.483 70.4313,-116.421"/>
<polygon fill="black" stroke="black" points="73.2706,-114.372 64.7287,-108.104 67.4975,-118.331 73.2706,-114.372"/>
<g id="a_edge3&#45;headlabel"><a xlink:href="dir_000039_000059.html" target="_top" xlink:title="10">
<text text-anchor="middle" x="77.645" y="-113.231" font-family="Helvetica,sans-Serif" font-size="10.00">10</text>
</a>
</g>
</g>
</g>
</svg>
