<?xml version="1.0" encoding="UTF-8" standalone="no"?>
<!DOCTYPE svg PUBLIC "-//W3C//DTD SVG 1.1//EN"
 "http://www.w3.org/Graphics/SVG/1.1/DTD/svg11.dtd">
<!-- Generated by graphviz version 2.36.0 (20140111.2315)
 -->
<!-- Title: src/base/math_functions Pages: 1 -->
<svg width="124pt" height="151pt"
 viewBox="0.00 0.00 124.00 151.00" xmlns="http://www.w3.org/2000/svg" xmlns:xlink="http://www.w3.org/1999/xlink">
<g id="graph0" class="graph" transform="scale(1 1) rotate(0) translate(4 147)">
<title>src/base/math_functions</title>
<polygon fill="white" stroke="none" points="-4,4 -4,-147 120,-147 120,4 -4,4"/>
<g id="clust1" class="cluster"><title>clusterdir_0af1587c8378955de40f48b4bd1869f0</title>
<g id="a_clust1"><a xlink:href="dir_0af1587c8378955de40f48b4bd1869f0.html" target="_top" xlink:title="base">
<polygon fill="#ddddee" stroke="black" points="8,-64 8,-135 108,-135 108,-64 8,-64"/>
<text text-anchor="middle" x="58" y="-123" font-family="Helvetica,sans-Serif" font-size="10.00">base</text>
</a>
</g>
</g>
<!-- dir_1dcc89ce9e65763eefd0d2df6658684c -->
<g id="node1" class="node"><title>dir_1dcc89ce9e65763eefd0d2df6658684c</title>
<g id="a_node1"><a xlink:href="dir_1dcc89ce9e65763eefd0d2df6658684c.html" target="_top" xlink:title="math_functions">
<polygon fill="#eeeeff" stroke="black" points="99.25,-108 16.75,-108 16.75,-72 99.25,-72 99.25,-108"/>
<text text-anchor="middle" x="58" y="-87.5" font-family="Helvetica,sans-Serif" font-size="10.00">math_functions</text>
</a>
</g>
</g>
<!-- dir_51a458f6079ce8ac5ea64f4b81b15b20 -->
<g id="node2" class="node"><title>dir_51a458f6079ce8ac5ea64f4b81b15b20</title>
<g id="a_node2"><a xlink:href="dir_51a458f6079ce8ac5ea64f4b81b15b20.html" target="_top" xlink:title="vec">
<polygon fill="none" stroke="black" points="85,-36 31,-36 31,-0 85,-0 85,-36"/>
<text text-anchor="middle" x="58" y="-15.5" font-family="Helvetica,sans-Serif" font-size="10.00">vec</text>
</a>
</g>
</g>
<!-- dir_1dcc89ce9e65763eefd0d2df6658684c&#45;&gt;dir_51a458f6079ce8ac5ea64f4b81b15b20 -->
<g id="edge1" class="edge"><title>dir_1dcc89ce9e65763eefd0d2df6658684c&#45;&gt;dir_51a458f6079ce8ac5ea64f4b81b15b20</title>
<path fill="none" stroke="black" d="M58,-71.6966C58,-63.9827 58,-54.7125 58,-46.1124"/>
<polygon fill="black" stroke="black" points="61.5001,-46.1043 58,-36.1043 54.5001,-46.1044 61.5001,-46.1043"/>
<g id="a_edge1&#45;headlabel"><a xlink:href="dir_000043_000044.html" target="_top" xlink:title="1">
<text text-anchor="middle" x="64.3393" y="-47.199" font-family="Helvetica,sans-Serif" font-size="10.00">1</text>
</a>
</g>
</g>
</g>
</svg>
