<?xml version="1.0" encoding="UTF-8" standalone="no"?>
<!DOCTYPE svg PUBLIC "-//W3C//DTD SVG 1.1//EN"
 "http://www.w3.org/Graphics/SVG/1.1/DTD/svg11.dtd">
<!-- Generated by graphviz version 2.36.0 (20140111.2315)
 -->
<!-- Title: src/analysis/physics/pi0 Pages: 1 -->
<svg width="280pt" height="439pt"
 viewBox="0.00 0.00 280.10 439.00" xmlns="http://www.w3.org/2000/svg" xmlns:xlink="http://www.w3.org/1999/xlink">
<g id="graph0" class="graph" transform="scale(1 1) rotate(0) translate(4 435)">
<title>src/analysis/physics/pi0</title>
<polygon fill="white" stroke="none" points="-4,4 -4,-435 276.104,-435 276.104,4 -4,4"/>
<g id="clust1" class="cluster"><title>clusterdir_a21a804d6482c442bcd1b39e4dfcc179</title>
<g id="a_clust1"><a xlink:href="dir_a21a804d6482c442bcd1b39e4dfcc179.html" target="_top" xlink:title="physics">
<polygon fill="#ddddee" stroke="black" points="89.104,-352 89.104,-423 159.104,-423 159.104,-352 89.104,-352"/>
<text text-anchor="middle" x="124.104" y="-411" font-family="Helvetica,sans-Serif" font-size="10.00">physics</text>
</a>
</g>
</g>
<!-- dir_65711b33b2c758e7771d2f7398e776f1 -->
<g id="node1" class="node"><title>dir_65711b33b2c758e7771d2f7398e776f1</title>
<g id="a_node1"><a xlink:href="dir_65711b33b2c758e7771d2f7398e776f1.html" target="_top" xlink:title="pi0">
<polygon fill="#eeeeff" stroke="black" points="151.104,-396 97.104,-396 97.104,-360 151.104,-360 151.104,-396"/>
<text text-anchor="middle" x="124.104" y="-375.5" font-family="Helvetica,sans-Serif" font-size="10.00">pi0</text>
</a>
</g>
</g>
<!-- dir_0a0aa297e888439a92fbcfd5e567f128 -->
<g id="node2" class="node"><title>dir_0a0aa297e888439a92fbcfd5e567f128</title>
<g id="a_node2"><a xlink:href="dir_0a0aa297e888439a92fbcfd5e567f128.html" target="_top" xlink:title="utils">
<polygon fill="white" stroke="red" points="151.104,-324 97.104,-324 97.104,-288 151.104,-288 151.104,-324"/>
<text text-anchor="middle" x="124.104" y="-303.5" font-family="Helvetica,sans-Serif" font-size="10.00">utils</text>
</a>
</g>
</g>
<!-- dir_65711b33b2c758e7771d2f7398e776f1&#45;&gt;dir_0a0aa297e888439a92fbcfd5e567f128 -->
<g id="edge10" class="edge"><title>dir_65711b33b2c758e7771d2f7398e776f1&#45;&gt;dir_0a0aa297e888439a92fbcfd5e567f128</title>
<path fill="none" stroke="black" d="M124.104,-359.697C124.104,-351.983 124.104,-342.712 124.104,-334.112"/>
<polygon fill="black" stroke="black" points="127.604,-334.104 124.104,-324.104 120.604,-334.104 127.604,-334.104"/>
<g id="a_edge10&#45;headlabel"><a xlink:href="dir_000026_000035.html" target="_top" xlink:title="12">
<text text-anchor="middle" x="130.443" y="-335.199" font-family="Helvetica,sans-Serif" font-size="10.00">12</text>
</a>
</g>
</g>
<!-- dir_0af1587c8378955de40f48b4bd1869f0 -->
<g id="node3" class="node"><title>dir_0af1587c8378955de40f48b4bd1869f0</title>
<g id="a_node3"><a xlink:href="dir_0af1587c8378955de40f48b4bd1869f0.html" target="_top" xlink:title="base">
<polygon fill="white" stroke="red" points="141.104,-36 87.104,-36 87.104,-0 141.104,-0 141.104,-36"/>
<text text-anchor="middle" x="114.104" y="-15.5" font-family="Helvetica,sans-Serif" font-size="10.00">base</text>
</a>
</g>
</g>
<!-- dir_65711b33b2c758e7771d2f7398e776f1&#45;&gt;dir_0af1587c8378955de40f48b4bd1869f0 -->
<g id="edge11" class="edge"><title>dir_65711b33b2c758e7771d2f7398e776f1&#45;&gt;dir_0af1587c8378955de40f48b4bd1869f0</title>
<path fill="none" stroke="black" d="M96.8917,-361.9C60.3903,-339.41 0.104044,-293.422 0.104044,-235 0.104044,-235 0.104044,-235 0.104044,-161 0.104044,-120.145 -1.56066,-104.57 23.104,-72 36.8898,-53.7959 58.8847,-40.7392 77.7971,-32.1403"/>
<polygon fill="black" stroke="black" points="79.257,-35.3225 87.0644,-28.1603 76.4947,-28.8905 79.257,-35.3225"/>
<g id="a_edge11&#45;headlabel"><a xlink:href="dir_000026_000018.html" target="_top" xlink:title="9">
<text text-anchor="middle" x="77.0745" y="-36.8497" font-family="Helvetica,sans-Serif" font-size="10.00">9</text>
</a>
</g>
</g>
<!-- dir_c44c95bf3b41c3321c6014770d618ac8 -->
<g id="node4" class="node"><title>dir_c44c95bf3b41c3321c6014770d618ac8</title>
<g id="a_node4"><a xlink:href="dir_c44c95bf3b41c3321c6014770d618ac8.html" target="_top" xlink:title="tree">
<polygon fill="none" stroke="black" points="86.104,-108 32.104,-108 32.104,-72 86.104,-72 86.104,-108"/>
<text text-anchor="middle" x="59.104" y="-87.5" font-family="Helvetica,sans-Serif" font-size="10.00">tree</text>
</a>
</g>
</g>
<!-- dir_65711b33b2c758e7771d2f7398e776f1&#45;&gt;dir_c44c95bf3b41c3321c6014770d618ac8 -->
<g id="edge12" class="edge"><title>dir_65711b33b2c758e7771d2f7398e776f1&#45;&gt;dir_c44c95bf3b41c3321c6014770d618ac8</title>
<path fill="none" stroke="black" d="M109.61,-359.985C101.982,-350.106 93.1818,-337.063 88.104,-324 60.6801,-253.449 57.7822,-162.658 58.2591,-118.108"/>
<polygon fill="black" stroke="black" points="61.7592,-118.128 58.434,-108.068 54.7602,-118.006 61.7592,-118.128"/>
<g id="a_edge12&#45;headlabel"><a xlink:href="dir_000026_000059.html" target="_top" xlink:title="3">
<text text-anchor="middle" x="64.5355" y="-119.271" font-family="Helvetica,sans-Serif" font-size="10.00">3</text>
</a>
</g>
</g>
<!-- dir_c4f4646ab0f4a2967be5b6215a500c22 -->
<g id="node5" class="node"><title>dir_c4f4646ab0f4a2967be5b6215a500c22</title>
<g id="a_node5"><a xlink:href="dir_c4f4646ab0f4a2967be5b6215a500c22.html" target="_top" xlink:title="expconfig">
<polygon fill="white" stroke="red" points="201.354,-180 142.854,-180 142.854,-144 201.354,-144 201.354,-180"/>
<text text-anchor="middle" x="172.104" y="-159.5" font-family="Helvetica,sans-Serif" font-size="10.00">expconfig</text>
</a>
</g>
</g>
<!-- dir_65711b33b2c758e7771d2f7398e776f1&#45;&gt;dir_c4f4646ab0f4a2967be5b6215a500c22 -->
<g id="edge13" class="edge"><title>dir_65711b33b2c758e7771d2f7398e776f1&#45;&gt;dir_c4f4646ab0f4a2967be5b6215a500c22</title>
<path fill="none" stroke="black" d="M139.325,-359.646C146.974,-349.866 155.562,-337.024 160.104,-324 175.775,-279.06 175.937,-222.903 174.269,-190.181"/>
<polygon fill="black" stroke="black" points="177.752,-189.802 173.653,-180.033 170.765,-190.226 177.752,-189.802"/>
<g id="a_edge13&#45;headlabel"><a xlink:href="dir_000026_000039.html" target="_top" xlink:title="1">
<text text-anchor="middle" x="180.804" y="-190.718" font-family="Helvetica,sans-Serif" font-size="10.00">1</text>
</a>
</g>
</g>
<!-- dir_8f68c37b22d514b4289e3a1255795d80 -->
<g id="node6" class="node"><title>dir_8f68c37b22d514b4289e3a1255795d80</title>
<g id="a_node6"><a xlink:href="dir_8f68c37b22d514b4289e3a1255795d80.html" target="_top" xlink:title="plot">
<polygon fill="none" stroke="black" points="272.104,-252 218.104,-252 218.104,-216 272.104,-216 272.104,-252"/>
<text text-anchor="middle" x="245.104" y="-231.5" font-family="Helvetica,sans-Serif" font-size="10.00">plot</text>
</a>
</g>
</g>
<!-- dir_65711b33b2c758e7771d2f7398e776f1&#45;&gt;dir_8f68c37b22d514b4289e3a1255795d80 -->
<g id="edge14" class="edge"><title>dir_65711b33b2c758e7771d2f7398e776f1&#45;&gt;dir_8f68c37b22d514b4289e3a1255795d80</title>
<path fill="none" stroke="black" d="M151.394,-363.91C168.336,-354.676 189.574,-340.949 204.104,-324 219.684,-305.826 230.523,-280.742 237.127,-261.835"/>
<polygon fill="black" stroke="black" points="240.458,-262.909 240.28,-252.316 233.813,-260.708 240.458,-262.909"/>
<g id="a_edge14&#45;headlabel"><a xlink:href="dir_000026_000036.html" target="_top" xlink:title="1">
<text text-anchor="middle" x="242.023" y="-264.714" font-family="Helvetica,sans-Serif" font-size="10.00">1</text>
</a>
</g>
</g>
<!-- dir_0a0aa297e888439a92fbcfd5e567f128&#45;&gt;dir_0af1587c8378955de40f48b4bd1869f0 -->
<g id="edge1" class="edge"><title>dir_0a0aa297e888439a92fbcfd5e567f128&#45;&gt;dir_0af1587c8378955de40f48b4bd1869f0</title>
<path fill="none" stroke="black" d="M123.508,-287.966C121.841,-240.291 117.117,-105.185 115.07,-46.63"/>
<polygon fill="black" stroke="black" points="118.557,-46.178 114.709,-36.3065 111.561,-46.4227 118.557,-46.178"/>
<g id="a_edge1&#45;headlabel"><a xlink:href="dir_000035_000018.html" target="_top" xlink:title="60">
<text text-anchor="middle" x="121.52" y="-47.1713" font-family="Helvetica,sans-Serif" font-size="10.00">60</text>
</a>
</g>
</g>
<!-- dir_0a0aa297e888439a92fbcfd5e567f128&#45;&gt;dir_c44c95bf3b41c3321c6014770d618ac8 -->
<g id="edge2" class="edge"><title>dir_0a0aa297e888439a92fbcfd5e567f128&#45;&gt;dir_c44c95bf3b41c3321c6014770d618ac8</title>
<path fill="none" stroke="black" d="M115.313,-287.65C110.383,-277.451 104.383,-264.201 100.104,-252 83.982,-206.026 71.286,-150.632 64.5135,-118.261"/>
<polygon fill="black" stroke="black" points="67.8898,-117.303 62.4474,-108.213 61.0332,-118.713 67.8898,-117.303"/>
<g id="a_edge2&#45;headlabel"><a xlink:href="dir_000035_000059.html" target="_top" xlink:title="19">
<text text-anchor="middle" x="71.3947" y="-117.752" font-family="Helvetica,sans-Serif" font-size="10.00">19</text>
</a>
</g>
</g>
<!-- dir_0a0aa297e888439a92fbcfd5e567f128&#45;&gt;dir_c4f4646ab0f4a2967be5b6215a500c22 -->
<g id="edge3" class="edge"><title>dir_0a0aa297e888439a92fbcfd5e567f128&#45;&gt;dir_c4f4646ab0f4a2967be5b6215a500c22</title>
<path fill="none" stroke="black" d="M129.894,-287.871C138.111,-263.564 153.236,-218.819 162.973,-190.013"/>
<polygon fill="black" stroke="black" points="166.407,-190.783 166.294,-180.189 159.776,-188.542 166.407,-190.783"/>
<g id="a_edge3&#45;headlabel"><a xlink:href="dir_000035_000039.html" target="_top" xlink:title="19">
<text text-anchor="middle" x="167.946" y="-192.598" font-family="Helvetica,sans-Serif" font-size="10.00">19</text>
</a>
</g>
</g>
<!-- dir_0a0aa297e888439a92fbcfd5e567f128&#45;&gt;dir_8f68c37b22d514b4289e3a1255795d80 -->
<g id="edge4" class="edge"><title>dir_0a0aa297e888439a92fbcfd5e567f128&#45;&gt;dir_8f68c37b22d514b4289e3a1255795d80</title>
<path fill="none" stroke="black" d="M151.259,-289.291C168.384,-279.383 190.693,-266.477 209.263,-255.734"/>
<polygon fill="black" stroke="black" points="211.137,-258.694 218.04,-250.657 207.631,-252.635 211.137,-258.694"/>
<g id="a_edge4&#45;headlabel"><a xlink:href="dir_000035_000036.html" target="_top" xlink:title="2">
<text text-anchor="middle" x="209.447" y="-260.452" font-family="Helvetica,sans-Serif" font-size="10.00">2</text>
</a>
</g>
</g>
<!-- dir_c44c95bf3b41c3321c6014770d618ac8&#45;&gt;dir_0af1587c8378955de40f48b4bd1869f0 -->
<g id="edge5" class="edge"><title>dir_c44c95bf3b41c3321c6014770d618ac8&#45;&gt;dir_0af1587c8378955de40f48b4bd1869f0</title>
<path fill="none" stroke="black" d="M72.6996,-71.6966C79.2267,-63.3893 87.1721,-53.2771 94.3506,-44.1407"/>
<polygon fill="black" stroke="black" points="97.2388,-46.1299 100.665,-36.1043 91.7346,-41.8051 97.2388,-46.1299"/>
<g id="a_edge5&#45;headlabel"><a xlink:href="dir_000059_000018.html" target="_top" xlink:title="25">
<text text-anchor="middle" x="97.2506" y="-48.2106" font-family="Helvetica,sans-Serif" font-size="10.00">25</text>
</a>
</g>
</g>
<!-- dir_c4f4646ab0f4a2967be5b6215a500c22&#45;&gt;dir_0af1587c8378955de40f48b4bd1869f0 -->
<g id="edge6" class="edge"><title>dir_c4f4646ab0f4a2967be5b6215a500c22&#45;&gt;dir_0af1587c8378955de40f48b4bd1869f0</title>
<path fill="none" stroke="black" d="M165.108,-143.871C155.136,-119.457 136.743,-74.4258 124.983,-45.6351"/>
<polygon fill="black" stroke="black" points="128.146,-44.1234 121.125,-36.1893 121.666,-46.7703 128.146,-44.1234"/>
<g id="a_edge6&#45;headlabel"><a xlink:href="dir_000039_000018.html" target="_top" xlink:title="43">
<text text-anchor="middle" x="132.134" y="-43.8775" font-family="Helvetica,sans-Serif" font-size="10.00">43</text>
</a>
</g>
</g>
<!-- dir_c4f4646ab0f4a2967be5b6215a500c22&#45;&gt;dir_c44c95bf3b41c3321c6014770d618ac8 -->
<g id="edge7" class="edge"><title>dir_c4f4646ab0f4a2967be5b6215a500c22&#45;&gt;dir_c44c95bf3b41c3321c6014770d618ac8</title>
<path fill="none" stroke="black" d="M144.461,-143.876C129.576,-134.655 111.038,-123.172 95.0454,-113.265"/>
<polygon fill="black" stroke="black" points="96.8058,-110.238 86.4616,-107.947 93.1195,-116.189 96.8058,-110.238"/>
<g id="a_edge7&#45;headlabel"><a xlink:href="dir_000039_000059.html" target="_top" xlink:title="10">
<text text-anchor="middle" x="101.357" y="-107.217" font-family="Helvetica,sans-Serif" font-size="10.00">10</text>
</a>
</g>
</g>
<!-- dir_8f68c37b22d514b4289e3a1255795d80&#45;&gt;dir_0af1587c8378955de40f48b4bd1869f0 -->
<g id="edge8" class="edge"><title>dir_8f68c37b22d514b4289e3a1255795d80&#45;&gt;dir_0af1587c8378955de40f48b4bd1869f0</title>
<path fill="none" stroke="black" d="M239.783,-215.676C233.8,-197.294 223.188,-167.69 210.104,-144 190.893,-109.218 181.406,-103.437 157.104,-72 149.965,-62.7647 141.952,-52.7885 134.796,-44.0094"/>
<polygon fill="black" stroke="black" points="137.298,-41.5404 128.254,-36.0223 131.883,-45.9761 137.298,-41.5404"/>
<g id="a_edge8&#45;headlabel"><a xlink:href="dir_000036_000018.html" target="_top" xlink:title="10">
<text text-anchor="middle" x="141.772" y="-40.022" font-family="Helvetica,sans-Serif" font-size="10.00">10</text>
</a>
</g>
</g>
<!-- dir_8f68c37b22d514b4289e3a1255795d80&#45;&gt;dir_c4f4646ab0f4a2967be5b6215a500c22 -->
<g id="edge9" class="edge"><title>dir_8f68c37b22d514b4289e3a1255795d80&#45;&gt;dir_c4f4646ab0f4a2967be5b6215a500c22</title>
<path fill="none" stroke="black" d="M227.059,-215.697C218.042,-207.05 206.986,-196.449 197.161,-187.027"/>
<polygon fill="black" stroke="black" points="199.582,-184.499 189.941,-180.104 194.737,-189.552 199.582,-184.499"/>
<g id="a_edge9&#45;headlabel"><a xlink:href="dir_000036_000039.html" target="_top" xlink:title="1">
<text text-anchor="middle" x="204.141" y="-182.438" font-family="Helvetica,sans-Serif" font-size="10.00">1</text>
</a>
</g>
</g>
</g>
</svg>
