<?xml version="1.0" encoding="UTF-8" standalone="no"?>
<!DOCTYPE svg PUBLIC "-//W3C//DTD SVG 1.1//EN"
 "http://www.w3.org/Graphics/SVG/1.1/DTD/svg11.dtd">
<!-- Generated by graphviz version 2.36.0 (20140111.2315)
 -->
<!-- Title: src/analysis/input/ant Pages: 1 -->
<svg width="199pt" height="295pt"
 viewBox="0.00 0.00 199.37 295.00" xmlns="http://www.w3.org/2000/svg" xmlns:xlink="http://www.w3.org/1999/xlink">
<g id="graph0" class="graph" transform="scale(1 1) rotate(0) translate(4 291)">
<title>src/analysis/input/ant</title>
<polygon fill="white" stroke="none" points="-4,4 -4,-291 195.37,-291 195.37,4 -4,4"/>
<g id="clust1" class="cluster"><title>clusterdir_4d4314fec0337faafb4fd99dc7917bfa</title>
<g id="a_clust1"><a xlink:href="dir_4d4314fec0337faafb4fd99dc7917bfa.html" target="_top" xlink:title="input">
<polygon fill="#ddddee" stroke="black" points="34.3695,-208 34.3695,-279 104.37,-279 104.37,-208 34.3695,-208"/>
<text text-anchor="middle" x="69.3695" y="-267" font-family="Helvetica,sans-Serif" font-size="10.00">input</text>
</a>
</g>
</g>
<!-- dir_0dfa530d699612f2413b2376f341aa41 -->
<g id="node1" class="node"><title>dir_0dfa530d699612f2413b2376f341aa41</title>
<g id="a_node1"><a xlink:href="dir_0dfa530d699612f2413b2376f341aa41.html" target="_top" xlink:title="ant">
<polygon fill="#eeeeff" stroke="black" points="96.3695,-252 42.3695,-252 42.3695,-216 96.3695,-216 96.3695,-252"/>
<text text-anchor="middle" x="69.3695" y="-231.5" font-family="Helvetica,sans-Serif" font-size="10.00">ant</text>
</a>
</g>
</g>
<!-- dir_0af1587c8378955de40f48b4bd1869f0 -->
<g id="node2" class="node"><title>dir_0af1587c8378955de40f48b4bd1869f0</title>
<g id="a_node2"><a xlink:href="dir_0af1587c8378955de40f48b4bd1869f0.html" target="_top" xlink:title="base">
<polygon fill="white" stroke="red" points="95.3695,-36 41.3695,-36 41.3695,-0 95.3695,-0 95.3695,-36"/>
<text text-anchor="middle" x="68.3695" y="-15.5" font-family="Helvetica,sans-Serif" font-size="10.00">base</text>
</a>
</g>
</g>
<!-- dir_0dfa530d699612f2413b2376f341aa41&#45;&gt;dir_0af1587c8378955de40f48b4bd1869f0 -->
<g id="edge1" class="edge"><title>dir_0dfa530d699612f2413b2376f341aa41&#45;&gt;dir_0af1587c8378955de40f48b4bd1869f0</title>
<path fill="none" stroke="black" d="M42.1965,-218.7C28.109,-209.671 12.2399,-196.572 4.3695,-180 -2.49431,-165.547 0.619112,-159.554 4.3695,-144 13.2374,-107.221 34.8698,-69.1019 50.5339,-44.7804"/>
<polygon fill="black" stroke="black" points="53.6298,-46.4429 56.206,-36.1661 47.7834,-42.5933 53.6298,-46.4429"/>
<g id="a_edge1&#45;headlabel"><a xlink:href="dir_000010_000018.html" target="_top" xlink:title="3">
<text text-anchor="middle" x="54.0244" y="-48.5066" font-family="Helvetica,sans-Serif" font-size="10.00">3</text>
</a>
</g>
</g>
<!-- dir_c44c95bf3b41c3321c6014770d618ac8 -->
<g id="node3" class="node"><title>dir_c44c95bf3b41c3321c6014770d618ac8</title>
<g id="a_node3"><a xlink:href="dir_c44c95bf3b41c3321c6014770d618ac8.html" target="_top" xlink:title="tree">
<polygon fill="none" stroke="black" points="123.37,-108 69.3695,-108 69.3695,-72 123.37,-72 123.37,-108"/>
<text text-anchor="middle" x="96.3695" y="-87.5" font-family="Helvetica,sans-Serif" font-size="10.00">tree</text>
</a>
</g>
</g>
<!-- dir_0dfa530d699612f2413b2376f341aa41&#45;&gt;dir_c44c95bf3b41c3321c6014770d618ac8 -->
<g id="edge2" class="edge"><title>dir_0dfa530d699612f2413b2376f341aa41&#45;&gt;dir_c44c95bf3b41c3321c6014770d618ac8</title>
<path fill="none" stroke="black" d="M72.6263,-215.871C77.228,-191.67 85.6815,-147.211 91.1609,-118.393"/>
<polygon fill="black" stroke="black" points="94.6715,-118.667 93.1011,-108.189 87.7947,-117.359 94.6715,-118.667"/>
<g id="a_edge2&#45;headlabel"><a xlink:href="dir_000010_000059.html" target="_top" xlink:title="2">
<text text-anchor="middle" x="96.7894" y="-120.229" font-family="Helvetica,sans-Serif" font-size="10.00">2</text>
</a>
</g>
</g>
<!-- dir_da9e88029a658bab9ad39bb8696ef9bc -->
<g id="node4" class="node"><title>dir_da9e88029a658bab9ad39bb8696ef9bc</title>
<g id="a_node4"><a xlink:href="dir_da9e88029a658bab9ad39bb8696ef9bc.html" target="_top" xlink:title="unpacker">
<polygon fill="white" stroke="red" points="68.8695,-180 13.8695,-180 13.8695,-144 68.8695,-144 68.8695,-180"/>
<text text-anchor="middle" x="41.3695" y="-159.5" font-family="Helvetica,sans-Serif" font-size="10.00">unpacker</text>
</a>
</g>
</g>
<!-- dir_0dfa530d699612f2413b2376f341aa41&#45;&gt;dir_da9e88029a658bab9ad39bb8696ef9bc -->
<g id="edge3" class="edge"><title>dir_0dfa530d699612f2413b2376f341aa41&#45;&gt;dir_da9e88029a658bab9ad39bb8696ef9bc</title>
<path fill="none" stroke="black" d="M62.4482,-215.697C59.2948,-207.813 55.4912,-198.304 51.9881,-189.546"/>
<polygon fill="black" stroke="black" points="55.1749,-188.089 48.2112,-180.104 48.6755,-190.689 55.1749,-188.089"/>
<g id="a_edge3&#45;headlabel"><a xlink:href="dir_000010_000060.html" target="_top" xlink:title="1">
<text text-anchor="middle" x="59.146" y="-187.872" font-family="Helvetica,sans-Serif" font-size="10.00">1</text>
</a>
</g>
</g>
<!-- dir_5eb03804bf445589bf35c6aa84fb9a34 -->
<g id="node5" class="node"><title>dir_5eb03804bf445589bf35c6aa84fb9a34</title>
<g id="a_node5"><a xlink:href="dir_5eb03804bf445589bf35c6aa84fb9a34.html" target="_top" xlink:title="reconstruct">
<polygon fill="white" stroke="red" points="190.62,-180 126.12,-180 126.12,-144 190.62,-144 190.62,-180"/>
<text text-anchor="middle" x="158.37" y="-159.5" font-family="Helvetica,sans-Serif" font-size="10.00">reconstruct</text>
</a>
</g>
</g>
<!-- dir_0dfa530d699612f2413b2376f341aa41&#45;&gt;dir_5eb03804bf445589bf35c6aa84fb9a34 -->
<g id="edge4" class="edge"><title>dir_0dfa530d699612f2413b2376f341aa41&#45;&gt;dir_5eb03804bf445589bf35c6aa84fb9a34</title>
<path fill="none" stroke="black" d="M91.3695,-215.697C102.578,-206.881 116.372,-196.032 128.524,-186.474"/>
<polygon fill="black" stroke="black" points="130.926,-189.038 136.623,-180.104 126.599,-183.535 130.926,-189.038"/>
<g id="a_edge4&#45;headlabel"><a xlink:href="dir_000010_000056.html" target="_top" xlink:title="1">
<text text-anchor="middle" x="129.856" y="-190.991" font-family="Helvetica,sans-Serif" font-size="10.00">1</text>
</a>
</g>
</g>
<!-- dir_c44c95bf3b41c3321c6014770d618ac8&#45;&gt;dir_0af1587c8378955de40f48b4bd1869f0 -->
<g id="edge5" class="edge"><title>dir_c44c95bf3b41c3321c6014770d618ac8&#45;&gt;dir_0af1587c8378955de40f48b4bd1869f0</title>
<path fill="none" stroke="black" d="M89.4482,-71.6966C86.2948,-63.8132 82.4912,-54.3042 78.9881,-45.5464"/>
<polygon fill="black" stroke="black" points="82.1749,-44.0892 75.2112,-36.1043 75.6755,-46.689 82.1749,-44.0892"/>
<g id="a_edge5&#45;headlabel"><a xlink:href="dir_000059_000018.html" target="_top" xlink:title="25">
<text text-anchor="middle" x="86.146" y="-43.8723" font-family="Helvetica,sans-Serif" font-size="10.00">25</text>
</a>
</g>
</g>
<!-- dir_da9e88029a658bab9ad39bb8696ef9bc&#45;&gt;dir_0af1587c8378955de40f48b4bd1869f0 -->
<g id="edge6" class="edge"><title>dir_da9e88029a658bab9ad39bb8696ef9bc&#45;&gt;dir_0af1587c8378955de40f48b4bd1869f0</title>
<path fill="none" stroke="black" d="M44.6263,-143.871C49.228,-119.67 57.6815,-75.2108 63.1609,-46.3932"/>
<polygon fill="black" stroke="black" points="66.6715,-46.6671 65.1011,-36.1893 59.7947,-45.3594 66.6715,-46.6671"/>
<g id="a_edge6&#45;headlabel"><a xlink:href="dir_000060_000018.html" target="_top" xlink:title="15">
<text text-anchor="middle" x="68.7894" y="-48.2287" font-family="Helvetica,sans-Serif" font-size="10.00">15</text>
</a>
</g>
</g>
<!-- dir_da9e88029a658bab9ad39bb8696ef9bc&#45;&gt;dir_c44c95bf3b41c3321c6014770d618ac8 -->
<g id="edge7" class="edge"><title>dir_da9e88029a658bab9ad39bb8696ef9bc&#45;&gt;dir_c44c95bf3b41c3321c6014770d618ac8</title>
<path fill="none" stroke="black" d="M54.965,-143.697C61.4922,-135.389 69.4375,-125.277 76.6161,-116.141"/>
<polygon fill="black" stroke="black" points="79.5043,-118.13 82.9304,-108.104 74,-113.805 79.5043,-118.13"/>
<g id="a_edge7&#45;headlabel"><a xlink:href="dir_000060_000059.html" target="_top" xlink:title="10">
<text text-anchor="middle" x="79.516" y="-120.211" font-family="Helvetica,sans-Serif" font-size="10.00">10</text>
</a>
</g>
</g>
<!-- dir_5eb03804bf445589bf35c6aa84fb9a34&#45;&gt;dir_0af1587c8378955de40f48b4bd1869f0 -->
<g id="edge8" class="edge"><title>dir_5eb03804bf445589bf35c6aa84fb9a34&#45;&gt;dir_0af1587c8378955de40f48b4bd1869f0</title>
<path fill="none" stroke="black" d="M156.381,-143.67C153.545,-124.75 146.963,-94.1923 132.37,-72 124.927,-60.6816 114.334,-50.5358 103.902,-42.2251"/>
<polygon fill="black" stroke="black" points="105.72,-39.2116 95.6349,-35.9662 101.495,-44.7927 105.72,-39.2116"/>
<g id="a_edge8&#45;headlabel"><a xlink:href="dir_000056_000018.html" target="_top" xlink:title="11">
<text text-anchor="middle" x="110.3" y="-36.6175" font-family="Helvetica,sans-Serif" font-size="10.00">11</text>
</a>
</g>
</g>
<!-- dir_5eb03804bf445589bf35c6aa84fb9a34&#45;&gt;dir_c44c95bf3b41c3321c6014770d618ac8 -->
<g id="edge9" class="edge"><title>dir_5eb03804bf445589bf35c6aa84fb9a34&#45;&gt;dir_c44c95bf3b41c3321c6014770d618ac8</title>
<path fill="none" stroke="black" d="M143.044,-143.697C135.611,-135.305 126.546,-125.07 118.39,-115.861"/>
<polygon fill="black" stroke="black" points="120.77,-113.27 111.519,-108.104 115.529,-117.911 120.77,-113.27"/>
<g id="a_edge9&#45;headlabel"><a xlink:href="dir_000056_000059.html" target="_top" xlink:title="7">
<text text-anchor="middle" x="125.278" y="-111.578" font-family="Helvetica,sans-Serif" font-size="10.00">7</text>
</a>
</g>
</g>
</g>
</svg>
