<?xml version="1.0" encoding="UTF-8" standalone="no"?>
<!DOCTYPE svg PUBLIC "-//W3C//DTD SVG 1.1//EN"
 "http://www.w3.org/Graphics/SVG/1.1/DTD/svg11.dtd">
<!-- Generated by graphviz version 2.36.0 (20140111.2315)
 -->
<!-- Title: src/analysis Pages: 1 -->
<svg width="866pt" height="663pt"
 viewBox="0.00 0.00 866.00 663.00" xmlns="http://www.w3.org/2000/svg" xmlns:xlink="http://www.w3.org/1999/xlink">
<g id="graph0" class="graph" transform="scale(1 1) rotate(0) translate(4 659)">
<title>src/analysis</title>
<polygon fill="white" stroke="none" points="-4,4 -4,-659 862,-659 862,4 -4,4"/>
<g id="clust1" class="cluster"><title>clusterdir_68267d1309a1af8e8297ef4c3efbcdba</title>
<g id="a_clust1"><a xlink:href="dir_68267d1309a1af8e8297ef4c3efbcdba.html" target="_top" xlink:title="src">
<polygon fill="#ddddee" stroke="black" points="358,-272 358,-647 516,-647 516,-272 358,-272"/>
<text text-anchor="middle" x="437" y="-635" font-family="Helvetica,sans-Serif" font-size="10.00">src</text>
</a>
</g>
</g>
<g id="clust2" class="cluster"><title>clusterdir_2eec376824a17f48dc36b4bd0c810e01</title>
<g id="a_clust2"><a xlink:href="dir_2eec376824a17f48dc36b4bd0c810e01.html" target="_top">
<polygon fill="#eeeeff" stroke="black" points="366,-280 366,-620 508,-620 508,-280 366,-280"/>
</a>
</g>
</g>
<!-- dir_2eec376824a17f48dc36b4bd0c810e01 -->
<g id="node1" class="node"><title>dir_2eec376824a17f48dc36b4bd0c810e01</title>
<text text-anchor="middle" x="473" y="-591.5" font-family="Helvetica,sans-Serif" font-size="10.00">analysis</text>
</g>
<!-- dir_4d4314fec0337faafb4fd99dc7917bfa -->
<g id="node2" class="node"><title>dir_4d4314fec0337faafb4fd99dc7917bfa</title>
<g id="a_node2"><a xlink:href="dir_4d4314fec0337faafb4fd99dc7917bfa.html" target="_top" xlink:title="input">
<polygon fill="white" stroke="red" points="428,-468 374,-468 374,-432 428,-432 428,-468"/>
<text text-anchor="middle" x="401" y="-447.5" font-family="Helvetica,sans-Serif" font-size="10.00">input</text>
</a>
</g>
</g>
<!-- dir_0a0aa297e888439a92fbcfd5e567f128 -->
<g id="node6" class="node"><title>dir_0a0aa297e888439a92fbcfd5e567f128</title>
<g id="a_node6"><a xlink:href="dir_0a0aa297e888439a92fbcfd5e567f128.html" target="_top" xlink:title="utils">
<polygon fill="white" stroke="red" points="428,-396 374,-396 374,-360 428,-360 428,-396"/>
<text text-anchor="middle" x="401" y="-375.5" font-family="Helvetica,sans-Serif" font-size="10.00">utils</text>
</a>
</g>
</g>
<!-- dir_4d4314fec0337faafb4fd99dc7917bfa&#45;&gt;dir_0a0aa297e888439a92fbcfd5e567f128 -->
<g id="edge42" class="edge"><title>dir_4d4314fec0337faafb4fd99dc7917bfa&#45;&gt;dir_0a0aa297e888439a92fbcfd5e567f128</title>
<path fill="none" stroke="black" d="M401,-431.697C401,-423.983 401,-414.712 401,-406.112"/>
<polygon fill="black" stroke="black" points="404.5,-406.104 401,-396.104 397.5,-406.104 404.5,-406.104"/>
<g id="a_edge42&#45;headlabel"><a xlink:href="dir_000009_000035.html" target="_top" xlink:title="2">
<text text-anchor="middle" x="407.339" y="-407.199" font-family="Helvetica,sans-Serif" font-size="10.00">2</text>
</a>
</g>
</g>
<!-- dir_0af1587c8378955de40f48b4bd1869f0 -->
<g id="node7" class="node"><title>dir_0af1587c8378955de40f48b4bd1869f0</title>
<g id="a_node7"><a xlink:href="dir_0af1587c8378955de40f48b4bd1869f0.html" target="_top" xlink:title="base">
<polygon fill="white" stroke="red" points="523,-36 469,-36 469,-0 523,-0 523,-36"/>
<text text-anchor="middle" x="496" y="-15.5" font-family="Helvetica,sans-Serif" font-size="10.00">base</text>
</a>
</g>
</g>
<!-- dir_4d4314fec0337faafb4fd99dc7917bfa&#45;&gt;dir_0af1587c8378955de40f48b4bd1869f0 -->
<g id="edge43" class="edge"><title>dir_4d4314fec0337faafb4fd99dc7917bfa&#45;&gt;dir_0af1587c8378955de40f48b4bd1869f0</title>
<path fill="none" stroke="black" d="M373.879,-439.922C309.343,-417.498 152,-357.636 152,-307 152,-307 152,-307 152,-161 152,-95.1991 369.77,-44.2132 458.774,-26.1227"/>
<polygon fill="black" stroke="black" points="459.602,-29.5265 468.719,-24.1297 458.227,-22.663 459.602,-29.5265"/>
<g id="a_edge43&#45;headlabel"><a xlink:href="dir_000009_000018.html" target="_top" xlink:title="17">
<text text-anchor="middle" x="456.635" y="-30.5167" font-family="Helvetica,sans-Serif" font-size="10.00">17</text>
</a>
</g>
</g>
<!-- dir_c44c95bf3b41c3321c6014770d618ac8 -->
<g id="node8" class="node"><title>dir_c44c95bf3b41c3321c6014770d618ac8</title>
<g id="a_node8"><a xlink:href="dir_c44c95bf3b41c3321c6014770d618ac8.html" target="_top" xlink:title="tree">
<polygon fill="none" stroke="black" points="468,-108 414,-108 414,-72 468,-72 468,-108"/>
<text text-anchor="middle" x="441" y="-87.5" font-family="Helvetica,sans-Serif" font-size="10.00">tree</text>
</a>
</g>
</g>
<!-- dir_4d4314fec0337faafb4fd99dc7917bfa&#45;&gt;dir_c44c95bf3b41c3321c6014770d618ac8 -->
<g id="edge44" class="edge"><title>dir_4d4314fec0337faafb4fd99dc7917bfa&#45;&gt;dir_c44c95bf3b41c3321c6014770d618ac8</title>
<path fill="none" stroke="black" d="M378.707,-431.995C340.364,-401.882 266,-339.315 266,-307 266,-307 266,-307 266,-233 266,-162.427 352.878,-120.809 404.208,-102.378"/>
<polygon fill="black" stroke="black" points="405.355,-105.685 413.656,-99.1022 403.061,-99.0713 405.355,-105.685"/>
<g id="a_edge44&#45;headlabel"><a xlink:href="dir_000009_000059.html" target="_top" xlink:title="9">
<text text-anchor="middle" x="402.888" y="-107.045" font-family="Helvetica,sans-Serif" font-size="10.00">9</text>
</a>
</g>
</g>
<!-- dir_da9e88029a658bab9ad39bb8696ef9bc -->
<g id="node10" class="node"><title>dir_da9e88029a658bab9ad39bb8696ef9bc</title>
<g id="a_node10"><a xlink:href="dir_da9e88029a658bab9ad39bb8696ef9bc.html" target="_top" xlink:title="unpacker">
<polygon fill="white" stroke="red" points="523.5,-180 468.5,-180 468.5,-144 523.5,-144 523.5,-180"/>
<text text-anchor="middle" x="496" y="-159.5" font-family="Helvetica,sans-Serif" font-size="10.00">unpacker</text>
</a>
</g>
</g>
<!-- dir_4d4314fec0337faafb4fd99dc7917bfa&#45;&gt;dir_da9e88029a658bab9ad39bb8696ef9bc -->
<g id="edge45" class="edge"><title>dir_4d4314fec0337faafb4fd99dc7917bfa&#45;&gt;dir_da9e88029a658bab9ad39bb8696ef9bc</title>
<path fill="none" stroke="black" d="M381.961,-431.837C372.824,-422.3 362.832,-409.624 358,-396 347.631,-366.761 365.049,-282.888 371,-272 391.648,-234.219 430.822,-203.386 459.835,-184.274"/>
<polygon fill="black" stroke="black" points="461.957,-187.071 468.482,-178.724 458.175,-181.18 461.957,-187.071"/>
<g id="a_edge45&#45;headlabel"><a xlink:href="dir_000009_000060.html" target="_top" xlink:title="1">
<text text-anchor="middle" x="460.465" y="-188.902" font-family="Helvetica,sans-Serif" font-size="10.00">1</text>
</a>
</g>
</g>
<!-- dir_c4f4646ab0f4a2967be5b6215a500c22 -->
<g id="node12" class="node"><title>dir_c4f4646ab0f4a2967be5b6215a500c22</title>
<g id="a_node12"><a xlink:href="dir_c4f4646ab0f4a2967be5b6215a500c22.html" target="_top" xlink:title="expconfig">
<polygon fill="white" stroke="red" points="525.25,-252 466.75,-252 466.75,-216 525.25,-216 525.25,-252"/>
<text text-anchor="middle" x="496" y="-231.5" font-family="Helvetica,sans-Serif" font-size="10.00">expconfig</text>
</a>
</g>
</g>
<!-- dir_4d4314fec0337faafb4fd99dc7917bfa&#45;&gt;dir_c4f4646ab0f4a2967be5b6215a500c22 -->
<g id="edge46" class="edge"><title>dir_4d4314fec0337faafb4fd99dc7917bfa&#45;&gt;dir_c4f4646ab0f4a2967be5b6215a500c22</title>
<path fill="none" stroke="black" d="M385.39,-431.774C377.627,-422.03 369.054,-409.184 365,-396 360.297,-380.707 361.395,-375.589 365,-360 374.808,-317.589 376.362,-301.899 408,-272 421.466,-259.274 439.954,-250.606 456.509,-244.88"/>
<polygon fill="black" stroke="black" points="458.045,-248.063 466.504,-241.684 455.913,-241.396 458.045,-248.063"/>
<g id="a_edge46&#45;headlabel"><a xlink:href="dir_000009_000039.html" target="_top" xlink:title="3">
<text text-anchor="middle" x="455.486" y="-249.362" font-family="Helvetica,sans-Serif" font-size="10.00">3</text>
</a>
</g>
</g>
<!-- dir_5eb03804bf445589bf35c6aa84fb9a34 -->
<g id="node13" class="node"><title>dir_5eb03804bf445589bf35c6aa84fb9a34</title>
<g id="a_node13"><a xlink:href="dir_5eb03804bf445589bf35c6aa84fb9a34.html" target="_top" xlink:title="reconstruct">
<polygon fill="white" stroke="red" points="715.25,-324 650.75,-324 650.75,-288 715.25,-288 715.25,-324"/>
<text text-anchor="middle" x="683" y="-303.5" font-family="Helvetica,sans-Serif" font-size="10.00">reconstruct</text>
</a>
</g>
</g>
<!-- dir_4d4314fec0337faafb4fd99dc7917bfa&#45;&gt;dir_5eb03804bf445589bf35c6aa84fb9a34 -->
<g id="edge47" class="edge"><title>dir_4d4314fec0337faafb4fd99dc7917bfa&#45;&gt;dir_5eb03804bf445589bf35c6aa84fb9a34</title>
<path fill="none" stroke="black" d="M428.039,-435.384C477.503,-410.477 582.852,-357.429 641.467,-327.914"/>
<polygon fill="black" stroke="black" points="643.1,-331.01 650.457,-323.387 639.952,-324.758 643.1,-331.01"/>
<g id="a_edge47&#45;headlabel"><a xlink:href="dir_000009_000056.html" target="_top" xlink:title="1">
<text text-anchor="middle" x="641.166" y="-332.663" font-family="Helvetica,sans-Serif" font-size="10.00">1</text>
</a>
</g>
</g>
<!-- dir_a21a804d6482c442bcd1b39e4dfcc179 -->
<g id="node3" class="node"><title>dir_a21a804d6482c442bcd1b39e4dfcc179</title>
<g id="a_node3"><a xlink:href="dir_a21a804d6482c442bcd1b39e4dfcc179.html" target="_top" xlink:title="physics">
<polygon fill="white" stroke="red" points="428,-612 374,-612 374,-576 428,-576 428,-612"/>
<text text-anchor="middle" x="401" y="-591.5" font-family="Helvetica,sans-Serif" font-size="10.00">physics</text>
</a>
</g>
</g>
<!-- dir_a21a804d6482c442bcd1b39e4dfcc179&#45;&gt;dir_4d4314fec0337faafb4fd99dc7917bfa -->
<g id="edge8" class="edge"><title>dir_a21a804d6482c442bcd1b39e4dfcc179&#45;&gt;dir_4d4314fec0337faafb4fd99dc7917bfa</title>
<path fill="none" stroke="black" d="M422.71,-575.787C432.759,-566.414 443.641,-553.9 449,-540 454.756,-525.071 454.756,-518.929 449,-504 444.897,-493.358 437.557,-483.528 429.831,-475.298"/>
<polygon fill="black" stroke="black" points="432.267,-472.785 422.71,-468.213 427.33,-477.747 432.267,-472.785"/>
<g id="a_edge8&#45;headlabel"><a xlink:href="dir_000004_000009.html" target="_top" xlink:title="3">
<text text-anchor="middle" x="436.818" y="-470.807" font-family="Helvetica,sans-Serif" font-size="10.00">3</text>
</a>
</g>
</g>
<!-- dir_8f68c37b22d514b4289e3a1255795d80 -->
<g id="node4" class="node"><title>dir_8f68c37b22d514b4289e3a1255795d80</title>
<g id="a_node4"><a xlink:href="dir_8f68c37b22d514b4289e3a1255795d80.html" target="_top" xlink:title="plot">
<polygon fill="white" stroke="black" points="500,-324 446,-324 446,-288 500,-288 500,-324"/>
<text text-anchor="middle" x="473" y="-303.5" font-family="Helvetica,sans-Serif" font-size="10.00">plot</text>
</a>
</g>
</g>
<!-- dir_a21a804d6482c442bcd1b39e4dfcc179&#45;&gt;dir_8f68c37b22d514b4289e3a1255795d80 -->
<g id="edge7" class="edge"><title>dir_a21a804d6482c442bcd1b39e4dfcc179&#45;&gt;dir_8f68c37b22d514b4289e3a1255795d80</title>
<path fill="none" stroke="black" d="M428.315,-578.39C442.26,-569.341 457.946,-556.322 466,-540 499.406,-472.299 487.844,-379.544 479.111,-334.196"/>
<polygon fill="black" stroke="black" points="482.509,-333.345 477.09,-324.241 475.649,-334.738 482.509,-333.345"/>
<g id="a_edge7&#45;headlabel"><a xlink:href="dir_000004_000036.html" target="_top" xlink:title="66">
<text text-anchor="middle" x="486.007" y="-333.803" font-family="Helvetica,sans-Serif" font-size="10.00">66</text>
</a>
</g>
</g>
<!-- dir_f7cc278301683119f8719a92f4ffdd26 -->
<g id="node5" class="node"><title>dir_f7cc278301683119f8719a92f4ffdd26</title>
<g id="a_node5"><a xlink:href="dir_f7cc278301683119f8719a92f4ffdd26.html" target="_top" xlink:title="slowcontrol">
<polygon fill="white" stroke="red" points="440,-540 374,-540 374,-504 440,-504 440,-540"/>
<text text-anchor="middle" x="407" y="-519.5" font-family="Helvetica,sans-Serif" font-size="10.00">slowcontrol</text>
</a>
</g>
</g>
<!-- dir_a21a804d6482c442bcd1b39e4dfcc179&#45;&gt;dir_f7cc278301683119f8719a92f4ffdd26 -->
<g id="edge9" class="edge"><title>dir_a21a804d6482c442bcd1b39e4dfcc179&#45;&gt;dir_f7cc278301683119f8719a92f4ffdd26</title>
<path fill="none" stroke="black" d="M396.567,-575.697C396.433,-567.983 397.001,-558.712 398.081,-550.112"/>
<polygon fill="black" stroke="black" points="401.559,-550.524 399.639,-540.104 394.642,-549.447 401.559,-550.524"/>
<g id="a_edge9&#45;headlabel"><a xlink:href="dir_000004_000011.html" target="_top" xlink:title="13">
<text text-anchor="middle" x="403.811" y="-552.012" font-family="Helvetica,sans-Serif" font-size="10.00">13</text>
</a>
</g>
</g>
<!-- dir_a21a804d6482c442bcd1b39e4dfcc179&#45;&gt;dir_0a0aa297e888439a92fbcfd5e567f128 -->
<g id="edge1" class="edge"><title>dir_a21a804d6482c442bcd1b39e4dfcc179&#45;&gt;dir_0a0aa297e888439a92fbcfd5e567f128</title>
<path fill="none" stroke="black" d="M427.124,-575.816C438.579,-566.692 450.808,-554.386 457,-540 477.106,-493.288 444.986,-436.742 421.695,-404.613"/>
<polygon fill="black" stroke="black" points="424.208,-402.13 415.41,-396.227 418.606,-406.328 424.208,-402.13"/>
<g id="a_edge1&#45;headlabel"><a xlink:href="dir_000004_000035.html" target="_top" xlink:title="259">
<text text-anchor="middle" x="428.636" y="-400.804" font-family="Helvetica,sans-Serif" font-size="10.00">259</text>
</a>
</g>
</g>
<!-- dir_a21a804d6482c442bcd1b39e4dfcc179&#45;&gt;dir_0af1587c8378955de40f48b4bd1869f0 -->
<g id="edge2" class="edge"><title>dir_a21a804d6482c442bcd1b39e4dfcc179&#45;&gt;dir_0af1587c8378955de40f48b4bd1869f0</title>
<path fill="none" stroke="black" d="M373.925,-593.708C317.74,-594.076 185.745,-589.155 90,-540 39.9548,-514.307 0,-507.255 0,-451 0,-451 0,-451 0,-161 0,-107.215 34.2141,-96.685 82,-72 147.422,-38.2049 369.901,-24.665 458.829,-20.5193"/>
<polygon fill="black" stroke="black" points="459.16,-24.008 468.992,-20.0596 458.844,-17.0152 459.16,-24.008"/>
<g id="a_edge2&#45;headlabel"><a xlink:href="dir_000004_000018.html" target="_top" xlink:title="244">
<text text-anchor="middle" x="455.698" y="-24.5067" font-family="Helvetica,sans-Serif" font-size="10.00">244</text>
</a>
</g>
</g>
<!-- dir_a21a804d6482c442bcd1b39e4dfcc179&#45;&gt;dir_c44c95bf3b41c3321c6014770d618ac8 -->
<g id="edge3" class="edge"><title>dir_a21a804d6482c442bcd1b39e4dfcc179&#45;&gt;dir_c44c95bf3b41c3321c6014770d618ac8</title>
<path fill="none" stroke="black" d="M373.85,-593.421C295.739,-593.083 76,-580.614 76,-451 76,-451 76,-451 76,-233 76,-163.191 310.825,-114.012 403.771,-97.281"/>
<polygon fill="black" stroke="black" points="404.628,-100.684 413.864,-95.4918 403.406,-93.7912 404.628,-100.684"/>
<g id="a_edge3&#45;headlabel"><a xlink:href="dir_000004_000059.html" target="_top" xlink:title="24">
<text text-anchor="middle" x="401.585" y="-101.607" font-family="Helvetica,sans-Serif" font-size="10.00">24</text>
</a>
</g>
</g>
<!-- dir_f1b881a94df93d2a183c4d8f47373448 -->
<g id="node9" class="node"><title>dir_f1b881a94df93d2a183c4d8f47373448</title>
<g id="a_node9"><a xlink:href="dir_f1b881a94df93d2a183c4d8f47373448.html" target="_top" xlink:title="calibration">
<polygon fill="white" stroke="red" points="650.25,-468 589.75,-468 589.75,-432 650.25,-432 650.25,-468"/>
<text text-anchor="middle" x="620" y="-447.5" font-family="Helvetica,sans-Serif" font-size="10.00">calibration</text>
</a>
</g>
</g>
<!-- dir_a21a804d6482c442bcd1b39e4dfcc179&#45;&gt;dir_f1b881a94df93d2a183c4d8f47373448 -->
<g id="edge4" class="edge"><title>dir_a21a804d6482c442bcd1b39e4dfcc179&#45;&gt;dir_f1b881a94df93d2a183c4d8f47373448</title>
<path fill="none" stroke="black" d="M428.312,-579.519C431.217,-578.261 434.15,-577.062 437,-576 492.778,-555.217 518.57,-575.966 566,-540 586.943,-524.119 601.518,-497.559 610.202,-477.579"/>
<polygon fill="black" stroke="black" points="613.534,-478.678 614.101,-468.099 607.06,-476.016 613.534,-478.678"/>
<g id="a_edge4&#45;headlabel"><a xlink:href="dir_000004_000016.html" target="_top" xlink:title="6">
<text text-anchor="middle" x="614.793" y="-480.583" font-family="Helvetica,sans-Serif" font-size="10.00">6</text>
</a>
</g>
</g>
<!-- dir_ebac6f698c8ed4b70faacb8ef35cbe0d -->
<g id="node11" class="node"><title>dir_ebac6f698c8ed4b70faacb8ef35cbe0d</title>
<g id="a_node11"><a xlink:href="dir_ebac6f698c8ed4b70faacb8ef35cbe0d.html" target="_top" xlink:title="root&#45;addons">
<polygon fill="white" stroke="red" points="742,-396 674,-396 674,-360 742,-360 742,-396"/>
<text text-anchor="middle" x="708" y="-375.5" font-family="Helvetica,sans-Serif" font-size="10.00">root&#45;addons</text>
</a>
</g>
</g>
<!-- dir_a21a804d6482c442bcd1b39e4dfcc179&#45;&gt;dir_ebac6f698c8ed4b70faacb8ef35cbe0d -->
<g id="edge5" class="edge"><title>dir_a21a804d6482c442bcd1b39e4dfcc179&#45;&gt;dir_ebac6f698c8ed4b70faacb8ef35cbe0d</title>
<path fill="none" stroke="black" d="M428.261,-579.377C431.176,-578.147 434.125,-576.993 437,-576 505.075,-552.485 533.008,-576.663 595,-540 647.525,-508.935 681.782,-442.79 697.68,-405.676"/>
<polygon fill="black" stroke="black" points="701.082,-406.61 701.678,-396.032 694.616,-403.929 701.082,-406.61"/>
<g id="a_edge5&#45;headlabel"><a xlink:href="dir_000004_000022.html" target="_top" xlink:title="18">
<text text-anchor="middle" x="702.329" y="-408.517" font-family="Helvetica,sans-Serif" font-size="10.00">18</text>
</a>
</g>
</g>
<!-- dir_a21a804d6482c442bcd1b39e4dfcc179&#45;&gt;dir_c4f4646ab0f4a2967be5b6215a500c22 -->
<g id="edge6" class="edge"><title>dir_a21a804d6482c442bcd1b39e4dfcc179&#45;&gt;dir_c4f4646ab0f4a2967be5b6215a500c22</title>
<path fill="none" stroke="black" d="M428.216,-580.9C445.122,-571.986 465.871,-558.245 478,-540 497.609,-510.503 507.299,-354.714 509,-324 510.278,-300.924 512.886,-294.782 509,-272 508.439,-268.711 507.617,-265.326 506.653,-262.002"/>
<polygon fill="black" stroke="black" points="509.929,-260.76 503.461,-252.368 503.284,-262.962 509.929,-260.76"/>
<g id="a_edge6&#45;headlabel"><a xlink:href="dir_000004_000039.html" target="_top" xlink:title="86">
<text text-anchor="middle" x="513.755" y="-260.779" font-family="Helvetica,sans-Serif" font-size="10.00">86</text>
</a>
</g>
</g>
<!-- dir_8f68c37b22d514b4289e3a1255795d80&#45;&gt;dir_0af1587c8378955de40f48b4bd1869f0 -->
<g id="edge39" class="edge"><title>dir_8f68c37b22d514b4289e3a1255795d80&#45;&gt;dir_0af1587c8378955de40f48b4bd1869f0</title>
<path fill="none" stroke="black" d="M499.766,-287.849C512.01,-278.656 525.625,-266.28 534,-252 550.536,-223.804 545.649,-212.515 549,-180 553.934,-132.122 560.066,-116.194 541,-72 536.579,-61.7532 529.482,-51.9951 522.219,-43.709"/>
<polygon fill="black" stroke="black" points="524.657,-41.1909 515.286,-36.2478 519.529,-45.9559 524.657,-41.1909"/>
<g id="a_edge39&#45;headlabel"><a xlink:href="dir_000036_000018.html" target="_top" xlink:title="10">
<text text-anchor="middle" x="529.184" y="-39.3915" font-family="Helvetica,sans-Serif" font-size="10.00">10</text>
</a>
</g>
</g>
<!-- dir_8f68c37b22d514b4289e3a1255795d80&#45;&gt;dir_ebac6f698c8ed4b70faacb8ef35cbe0d -->
<g id="edge40" class="edge"><title>dir_8f68c37b22d514b4289e3a1255795d80&#45;&gt;dir_ebac6f698c8ed4b70faacb8ef35cbe0d</title>
<path fill="none" stroke="black" d="M500.045,-316.485C540.236,-329.194 615.772,-351.73 663.969,-365.424"/>
<polygon fill="black" stroke="black" points="663.242,-368.856 673.817,-368.205 665.144,-362.119 663.242,-368.856"/>
<g id="a_edge40&#45;headlabel"><a xlink:href="dir_000036_000022.html" target="_top" xlink:title="1">
<text text-anchor="middle" x="659.011" y="-368.111" font-family="Helvetica,sans-Serif" font-size="10.00">1</text>
</a>
</g>
</g>
<!-- dir_8f68c37b22d514b4289e3a1255795d80&#45;&gt;dir_c4f4646ab0f4a2967be5b6215a500c22 -->
<g id="edge41" class="edge"><title>dir_8f68c37b22d514b4289e3a1255795d80&#45;&gt;dir_c4f4646ab0f4a2967be5b6215a500c22</title>
<path fill="none" stroke="black" d="M478.685,-287.697C481.248,-279.898 484.333,-270.509 487.185,-261.829"/>
<polygon fill="black" stroke="black" points="490.584,-262.697 490.38,-252.104 483.933,-260.512 490.584,-262.697"/>
<g id="a_edge41&#45;headlabel"><a xlink:href="dir_000036_000039.html" target="_top" xlink:title="1">
<text text-anchor="middle" x="492.159" y="-264.498" font-family="Helvetica,sans-Serif" font-size="10.00">1</text>
</a>
</g>
</g>
<!-- dir_f7cc278301683119f8719a92f4ffdd26&#45;&gt;dir_4d4314fec0337faafb4fd99dc7917bfa -->
<g id="edge53" class="edge"><title>dir_f7cc278301683119f8719a92f4ffdd26&#45;&gt;dir_4d4314fec0337faafb4fd99dc7917bfa</title>
<path fill="none" stroke="black" d="M405.517,-503.697C404.856,-495.983 404.061,-486.712 403.324,-478.112"/>
<polygon fill="black" stroke="black" points="406.807,-477.769 402.466,-468.104 399.833,-478.367 406.807,-477.769"/>
<g id="a_edge53&#45;headlabel"><a xlink:href="dir_000011_000009.html" target="_top" xlink:title="3">
<text text-anchor="middle" x="409.943" y="-478.608" font-family="Helvetica,sans-Serif" font-size="10.00">3</text>
</a>
</g>
</g>
<!-- dir_f7cc278301683119f8719a92f4ffdd26&#45;&gt;dir_a21a804d6482c442bcd1b39e4dfcc179 -->
<g id="edge48" class="edge"><title>dir_f7cc278301683119f8719a92f4ffdd26&#45;&gt;dir_a21a804d6482c442bcd1b39e4dfcc179</title>
<path fill="none" stroke="black" d="M411.429,-540.104C411.576,-547.791 411.018,-557.054 409.947,-565.665"/>
<polygon fill="black" stroke="black" points="406.465,-565.28 408.399,-575.697 413.383,-566.347 406.465,-565.28"/>
<g id="a_edge48&#45;headlabel"><a xlink:href="dir_000011_000004.html" target="_top" xlink:title="1">
<text text-anchor="middle" x="404.207" y="-558.794" font-family="Helvetica,sans-Serif" font-size="10.00">1</text>
</a>
</g>
</g>
<!-- dir_f7cc278301683119f8719a92f4ffdd26&#45;&gt;dir_0af1587c8378955de40f48b4bd1869f0 -->
<g id="edge49" class="edge"><title>dir_f7cc278301683119f8719a92f4ffdd26&#45;&gt;dir_0af1587c8378955de40f48b4bd1869f0</title>
<path fill="none" stroke="black" d="M373.929,-515.596C283.358,-499.867 38,-450.645 38,-379 38,-379 38,-379 38,-161 38,-73.184 349.061,-33.6672 458.48,-22.4832"/>
<polygon fill="black" stroke="black" points="459.119,-25.9369 468.722,-21.4595 458.423,-18.9716 459.119,-25.9369"/>
<g id="a_edge49&#45;headlabel"><a xlink:href="dir_000011_000018.html" target="_top" xlink:title="13">
<text text-anchor="middle" x="455.825" y="-26.6195" font-family="Helvetica,sans-Serif" font-size="10.00">13</text>
</a>
</g>
</g>
<!-- dir_f7cc278301683119f8719a92f4ffdd26&#45;&gt;dir_c44c95bf3b41c3321c6014770d618ac8 -->
<g id="edge50" class="edge"><title>dir_f7cc278301683119f8719a92f4ffdd26&#45;&gt;dir_c44c95bf3b41c3321c6014770d618ac8</title>
<path fill="none" stroke="black" d="M383.546,-503.806C371.74,-494.261 357.877,-481.588 348,-468 277.528,-371.056 229.194,-333.662 252,-216 258.564,-182.132 255.85,-167.613 281,-144 298.984,-127.115 362.678,-109.483 404.074,-99.4107"/>
<polygon fill="black" stroke="black" points="404.909,-102.81 413.82,-97.0782 403.28,-96.0018 404.909,-102.81"/>
<g id="a_edge50&#45;headlabel"><a xlink:href="dir_000011_000059.html" target="_top" xlink:title="6">
<text text-anchor="middle" x="402.074" y="-103.907" font-family="Helvetica,sans-Serif" font-size="10.00">6</text>
</a>
</g>
</g>
<!-- dir_f7cc278301683119f8719a92f4ffdd26&#45;&gt;dir_f1b881a94df93d2a183c4d8f47373448 -->
<g id="edge51" class="edge"><title>dir_f7cc278301683119f8719a92f4ffdd26&#45;&gt;dir_f1b881a94df93d2a183c4d8f47373448</title>
<path fill="none" stroke="black" d="M440.281,-510.062C478.113,-497.629 539.838,-477.344 580.189,-464.084"/>
<polygon fill="black" stroke="black" points="581.301,-467.402 589.708,-460.955 579.116,-460.752 581.301,-467.402"/>
<g id="a_edge51&#45;headlabel"><a xlink:href="dir_000011_000016.html" target="_top" xlink:title="1">
<text text-anchor="middle" x="578.773" y="-468.722" font-family="Helvetica,sans-Serif" font-size="10.00">1</text>
</a>
</g>
</g>
<!-- dir_f7cc278301683119f8719a92f4ffdd26&#45;&gt;dir_c4f4646ab0f4a2967be5b6215a500c22 -->
<g id="edge52" class="edge"><title>dir_f7cc278301683119f8719a92f4ffdd26&#45;&gt;dir_c4f4646ab0f4a2967be5b6215a500c22</title>
<path fill="none" stroke="black" d="M388.93,-503.556C380.149,-493.942 370.36,-481.283 365,-468 332.389,-387.179 313.872,-337.817 371,-272 392.113,-247.675 428.384,-238.961 456.434,-236.018"/>
<polygon fill="black" stroke="black" points="457.061,-239.478 466.733,-235.153 456.475,-232.503 457.061,-239.478"/>
<g id="a_edge52&#45;headlabel"><a xlink:href="dir_000011_000039.html" target="_top" xlink:title="12">
<text text-anchor="middle" x="453.717" y="-240.108" font-family="Helvetica,sans-Serif" font-size="10.00">12</text>
</a>
</g>
</g>
<!-- dir_0a0aa297e888439a92fbcfd5e567f128&#45;&gt;dir_8f68c37b22d514b4289e3a1255795d80 -->
<g id="edge13" class="edge"><title>dir_0a0aa297e888439a92fbcfd5e567f128&#45;&gt;dir_8f68c37b22d514b4289e3a1255795d80</title>
<path fill="none" stroke="black" d="M418.798,-359.697C427.604,-351.135 438.382,-340.656 448.001,-331.304"/>
<polygon fill="black" stroke="black" points="450.677,-333.585 455.407,-324.104 445.797,-328.566 450.677,-333.585"/>
<g id="a_edge13&#45;headlabel"><a xlink:href="dir_000035_000036.html" target="_top" xlink:title="2">
<text text-anchor="middle" x="450.079" y="-335.626" font-family="Helvetica,sans-Serif" font-size="10.00">2</text>
</a>
</g>
</g>
<!-- dir_0a0aa297e888439a92fbcfd5e567f128&#45;&gt;dir_0af1587c8378955de40f48b4bd1869f0 -->
<g id="edge10" class="edge"><title>dir_0a0aa297e888439a92fbcfd5e567f128&#45;&gt;dir_0af1587c8378955de40f48b4bd1869f0</title>
<path fill="none" stroke="black" d="M379.771,-359.753C334.388,-320.721 235.618,-222.879 281,-144 319.273,-77.4763 408.053,-43.0688 458.748,-28.2503"/>
<polygon fill="black" stroke="black" points="459.977,-31.5406 468.655,-25.4624 458.08,-24.8023 459.977,-31.5406"/>
<g id="a_edge10&#45;headlabel"><a xlink:href="dir_000035_000018.html" target="_top" xlink:title="60">
<text text-anchor="middle" x="457.286" y="-32.7474" font-family="Helvetica,sans-Serif" font-size="10.00">60</text>
</a>
</g>
</g>
<!-- dir_0a0aa297e888439a92fbcfd5e567f128&#45;&gt;dir_c44c95bf3b41c3321c6014770d618ac8 -->
<g id="edge11" class="edge"><title>dir_0a0aa297e888439a92fbcfd5e567f128&#45;&gt;dir_c44c95bf3b41c3321c6014770d618ac8</title>
<path fill="none" stroke="black" d="M401.544,-359.848C402.344,-339.011 404.175,-302.822 408,-272 414.826,-216.988 427.563,-153.381 435.06,-118.114"/>
<polygon fill="black" stroke="black" points="438.528,-118.632 437.206,-108.12 431.684,-117.162 438.528,-118.632"/>
<g id="a_edge11&#45;headlabel"><a xlink:href="dir_000035_000059.html" target="_top" xlink:title="19">
<text text-anchor="middle" x="440.55" y="-120.242" font-family="Helvetica,sans-Serif" font-size="10.00">19</text>
</a>
</g>
</g>
<!-- dir_0a0aa297e888439a92fbcfd5e567f128&#45;&gt;dir_c4f4646ab0f4a2967be5b6215a500c22 -->
<g id="edge12" class="edge"><title>dir_0a0aa297e888439a92fbcfd5e567f128&#45;&gt;dir_c4f4646ab0f4a2967be5b6215a500c22</title>
<path fill="none" stroke="black" d="M403.302,-359.669C407.021,-337.338 416.165,-298.272 437,-272 442.616,-264.919 449.982,-258.818 457.598,-253.729"/>
<polygon fill="black" stroke="black" points="459.875,-256.439 466.564,-248.222 456.211,-250.474 459.875,-256.439"/>
<g id="a_edge12&#45;headlabel"><a xlink:href="dir_000035_000039.html" target="_top" xlink:title="19">
<text text-anchor="middle" x="458.298" y="-258.239" font-family="Helvetica,sans-Serif" font-size="10.00">19</text>
</a>
</g>
</g>
<!-- dir_c44c95bf3b41c3321c6014770d618ac8&#45;&gt;dir_0af1587c8378955de40f48b4bd1869f0 -->
<g id="edge14" class="edge"><title>dir_c44c95bf3b41c3321c6014770d618ac8&#45;&gt;dir_0af1587c8378955de40f48b4bd1869f0</title>
<path fill="none" stroke="black" d="M454.596,-71.6966C461.123,-63.3893 469.068,-53.2771 476.247,-44.1407"/>
<polygon fill="black" stroke="black" points="479.135,-46.1299 482.561,-36.1043 473.631,-41.8051 479.135,-46.1299"/>
<g id="a_edge14&#45;headlabel"><a xlink:href="dir_000059_000018.html" target="_top" xlink:title="25">
<text text-anchor="middle" x="479.147" y="-48.2106" font-family="Helvetica,sans-Serif" font-size="10.00">25</text>
</a>
</g>
</g>
<!-- dir_f1b881a94df93d2a183c4d8f47373448&#45;&gt;dir_8f68c37b22d514b4289e3a1255795d80 -->
<g id="edge20" class="edge"><title>dir_f1b881a94df93d2a183c4d8f47373448&#45;&gt;dir_8f68c37b22d514b4289e3a1255795d80</title>
<path fill="none" stroke="black" d="M602.268,-431.871C576.332,-406.817 527.92,-360.052 498.266,-331.406"/>
<polygon fill="black" stroke="black" points="500.419,-328.62 490.795,-324.189 495.555,-333.654 500.419,-328.62"/>
<g id="a_edge20&#45;headlabel"><a xlink:href="dir_000016_000036.html" target="_top" xlink:title="1">
<text text-anchor="middle" x="504.977" y="-326.575" font-family="Helvetica,sans-Serif" font-size="10.00">1</text>
</a>
</g>
</g>
<!-- dir_f1b881a94df93d2a183c4d8f47373448&#45;&gt;dir_0af1587c8378955de40f48b4bd1869f0 -->
<g id="edge15" class="edge"><title>dir_f1b881a94df93d2a183c4d8f47373448&#45;&gt;dir_0af1587c8378955de40f48b4bd1869f0</title>
<path fill="none" stroke="black" d="M650.627,-445.182C714.907,-435.279 858,-402.508 858,-307 858,-307 858,-307 858,-161 858,-101.834 811.869,-98.5609 759,-72 684.823,-34.7344 586.46,-23.6686 533.538,-20.3845"/>
<polygon fill="black" stroke="black" points="533.449,-16.8741 523.27,-19.8105 533.059,-23.8632 533.449,-16.8741"/>
<g id="a_edge15&#45;headlabel"><a xlink:href="dir_000016_000018.html" target="_top" xlink:title="111">
<text text-anchor="middle" x="537.197" y="-11.7398" font-family="Helvetica,sans-Serif" font-size="10.00">111</text>
</a>
</g>
</g>
<!-- dir_f1b881a94df93d2a183c4d8f47373448&#45;&gt;dir_c44c95bf3b41c3321c6014770d618ac8 -->
<g id="edge16" class="edge"><title>dir_f1b881a94df93d2a183c4d8f47373448&#45;&gt;dir_c44c95bf3b41c3321c6014770d618ac8</title>
<path fill="none" stroke="black" d="M650.454,-446.226C681.649,-441.579 728.646,-429.159 751,-396 763.547,-377.389 761.681,-307.264 743,-272 688.157,-168.474 546.157,-118.51 478.246,-99.9341"/>
<polygon fill="black" stroke="black" points="478.958,-96.502 468.395,-97.3186 477.162,-103.268 478.958,-96.502"/>
<g id="a_edge16&#45;headlabel"><a xlink:href="dir_000016_000059.html" target="_top" xlink:title="30">
<text text-anchor="middle" x="483.161" y="-92.1802" font-family="Helvetica,sans-Serif" font-size="10.00">30</text>
</a>
</g>
</g>
<!-- dir_f1b881a94df93d2a183c4d8f47373448&#45;&gt;dir_ebac6f698c8ed4b70faacb8ef35cbe0d -->
<g id="edge17" class="edge"><title>dir_f1b881a94df93d2a183c4d8f47373448&#45;&gt;dir_ebac6f698c8ed4b70faacb8ef35cbe0d</title>
<path fill="none" stroke="black" d="M635.837,-431.697C646.108,-422.796 659.742,-411.823 672.439,-402.199"/>
<polygon fill="black" stroke="black" points="674.683,-404.891 680.602,-396.104 670.495,-399.282 674.683,-404.891"/>
<g id="a_edge17&#45;headlabel"><a xlink:href="dir_000016_000022.html" target="_top" xlink:title="4">
<text text-anchor="middle" x="673.501" y="-406.817" font-family="Helvetica,sans-Serif" font-size="10.00">4</text>
</a>
</g>
</g>
<!-- dir_f1b881a94df93d2a183c4d8f47373448&#45;&gt;dir_c4f4646ab0f4a2967be5b6215a500c22 -->
<g id="edge18" class="edge"><title>dir_f1b881a94df93d2a183c4d8f47373448&#45;&gt;dir_c4f4646ab0f4a2967be5b6215a500c22</title>
<path fill="none" stroke="black" d="M610.384,-431.979C596.997,-398.687 572.645,-323.694 533,-272 529.492,-267.425 525.304,-263.075 521.001,-259.071"/>
<polygon fill="black" stroke="black" points="523.075,-256.233 513.252,-252.264 518.455,-261.493 523.075,-256.233"/>
<g id="a_edge18&#45;headlabel"><a xlink:href="dir_000016_000039.html" target="_top" xlink:title="12">
<text text-anchor="middle" x="527.649" y="-253.973" font-family="Helvetica,sans-Serif" font-size="10.00">12</text>
</a>
</g>
</g>
<!-- dir_f1b881a94df93d2a183c4d8f47373448&#45;&gt;dir_5eb03804bf445589bf35c6aa84fb9a34 -->
<g id="edge19" class="edge"><title>dir_f1b881a94df93d2a183c4d8f47373448&#45;&gt;dir_5eb03804bf445589bf35c6aa84fb9a34</title>
<path fill="none" stroke="black" d="M627.599,-431.871C638.431,-407.457 658.41,-362.426 671.183,-333.635"/>
<polygon fill="black" stroke="black" points="674.518,-334.749 675.374,-324.189 668.119,-331.911 674.518,-334.749"/>
<g id="a_edge19&#45;headlabel"><a xlink:href="dir_000016_000056.html" target="_top" xlink:title="3">
<text text-anchor="middle" x="675.655" y="-336.687" font-family="Helvetica,sans-Serif" font-size="10.00">3</text>
</a>
</g>
</g>
<!-- dir_da9e88029a658bab9ad39bb8696ef9bc&#45;&gt;dir_0af1587c8378955de40f48b4bd1869f0 -->
<g id="edge21" class="edge"><title>dir_da9e88029a658bab9ad39bb8696ef9bc&#45;&gt;dir_0af1587c8378955de40f48b4bd1869f0</title>
<path fill="none" stroke="black" d="M496,-143.871C496,-119.67 496,-75.2108 496,-46.3932"/>
<polygon fill="black" stroke="black" points="499.5,-46.1892 496,-36.1893 492.5,-46.1893 499.5,-46.1892"/>
<g id="a_edge21&#45;headlabel"><a xlink:href="dir_000060_000018.html" target="_top" xlink:title="15">
<text text-anchor="middle" x="502.339" y="-47.2839" font-family="Helvetica,sans-Serif" font-size="10.00">15</text>
</a>
</g>
</g>
<!-- dir_da9e88029a658bab9ad39bb8696ef9bc&#45;&gt;dir_c44c95bf3b41c3321c6014770d618ac8 -->
<g id="edge22" class="edge"><title>dir_da9e88029a658bab9ad39bb8696ef9bc&#45;&gt;dir_c44c95bf3b41c3321c6014770d618ac8</title>
<path fill="none" stroke="black" d="M482.404,-143.697C475.877,-135.389 467.932,-125.277 460.753,-116.141"/>
<polygon fill="black" stroke="black" points="463.369,-113.805 454.439,-108.104 457.865,-118.13 463.369,-113.805"/>
<g id="a_edge22&#45;headlabel"><a xlink:href="dir_000060_000059.html" target="_top" xlink:title="10">
<text text-anchor="middle" x="467.823" y="-112.377" font-family="Helvetica,sans-Serif" font-size="10.00">10</text>
</a>
</g>
</g>
<!-- dir_da9e88029a658bab9ad39bb8696ef9bc&#45;&gt;dir_c4f4646ab0f4a2967be5b6215a500c22 -->
<g id="edge23" class="edge"><title>dir_da9e88029a658bab9ad39bb8696ef9bc&#45;&gt;dir_c4f4646ab0f4a2967be5b6215a500c22</title>
<path fill="none" stroke="black" d="M501.895,-180.104C502.701,-187.791 502.937,-197.054 502.604,-205.665"/>
<polygon fill="black" stroke="black" points="499.109,-205.48 501.916,-215.697 506.092,-205.96 499.109,-205.48"/>
<g id="a_edge23&#45;headlabel"><a xlink:href="dir_000060_000039.html" target="_top" xlink:title="4">
<text text-anchor="middle" x="496.522" y="-199.2" font-family="Helvetica,sans-Serif" font-size="10.00">4</text>
</a>
</g>
</g>
<!-- dir_ebac6f698c8ed4b70faacb8ef35cbe0d&#45;&gt;dir_8f68c37b22d514b4289e3a1255795d80 -->
<g id="edge30" class="edge"><title>dir_ebac6f698c8ed4b70faacb8ef35cbe0d&#45;&gt;dir_8f68c37b22d514b4289e3a1255795d80</title>
<path fill="none" stroke="black" d="M673.858,-365.284C630.138,-351.606 554.947,-329.247 509.93,-316.567"/>
<polygon fill="black" stroke="black" points="510.833,-313.185 500.26,-313.864 508.949,-319.927 510.833,-313.185"/>
<g id="a_edge30&#45;headlabel"><a xlink:href="dir_000022_000036.html" target="_top" xlink:title="23">
<text text-anchor="middle" x="515.06" y="-308.918" font-family="Helvetica,sans-Serif" font-size="10.00">23</text>
</a>
</g>
</g>
<!-- dir_ebac6f698c8ed4b70faacb8ef35cbe0d&#45;&gt;dir_0a0aa297e888439a92fbcfd5e567f128 -->
<g id="edge24" class="edge"><title>dir_ebac6f698c8ed4b70faacb8ef35cbe0d&#45;&gt;dir_0a0aa297e888439a92fbcfd5e567f128</title>
<path fill="none" stroke="black" d="M673.855,-378C595.355,-378 516.855,-378 438.355,-378"/>
<polygon fill="black" stroke="black" points="438.282,-374.5 428.282,-378 438.282,-381.5 438.282,-374.5"/>
<g id="a_edge24&#45;headlabel"><a xlink:href="dir_000022_000035.html" target="_top" xlink:title="6">
<text text-anchor="middle" x="441.877" y="-369.161" font-family="Helvetica,sans-Serif" font-size="10.00">6</text>
</a>
</g>
</g>
<!-- dir_ebac6f698c8ed4b70faacb8ef35cbe0d&#45;&gt;dir_0af1587c8378955de40f48b4bd1869f0 -->
<g id="edge25" class="edge"><title>dir_ebac6f698c8ed4b70faacb8ef35cbe0d&#45;&gt;dir_0af1587c8378955de40f48b4bd1869f0</title>
<path fill="none" stroke="black" d="M724.057,-359.694C745.821,-334.359 782,-284.761 782,-235 782,-235 782,-235 782,-161 782,-51.2699 611.017,-26.3334 533.46,-20.6665"/>
<polygon fill="black" stroke="black" points="533.373,-17.1532 523.164,-19.988 532.912,-24.1381 533.373,-17.1532"/>
<g id="a_edge25&#45;headlabel"><a xlink:href="dir_000022_000018.html" target="_top" xlink:title="66">
<text text-anchor="middle" x="537.146" y="-12.0564" font-family="Helvetica,sans-Serif" font-size="10.00">66</text>
</a>
</g>
</g>
<!-- dir_ebac6f698c8ed4b70faacb8ef35cbe0d&#45;&gt;dir_c44c95bf3b41c3321c6014770d618ac8 -->
<g id="edge26" class="edge"><title>dir_ebac6f698c8ed4b70faacb8ef35cbe0d&#45;&gt;dir_c44c95bf3b41c3321c6014770d618ac8</title>
<path fill="none" stroke="black" d="M717.745,-359.764C729.066,-337.181 743.821,-297.464 724,-272 701.753,-243.419 675.541,-271.469 645,-252 592.79,-218.717 605.996,-181.856 557,-144 533.131,-125.558 501.817,-111.735 477.74,-102.838"/>
<polygon fill="black" stroke="black" points="478.834,-99.5118 468.239,-99.4414 476.477,-106.103 478.834,-99.5118"/>
<g id="a_edge26&#45;headlabel"><a xlink:href="dir_000022_000059.html" target="_top" xlink:title="11">
<text text-anchor="middle" x="483.174" y="-95.5481" font-family="Helvetica,sans-Serif" font-size="10.00">11</text>
</a>
</g>
</g>
<!-- dir_ebac6f698c8ed4b70faacb8ef35cbe0d&#45;&gt;dir_f1b881a94df93d2a183c4d8f47373448 -->
<g id="edge27" class="edge"><title>dir_ebac6f698c8ed4b70faacb8ef35cbe0d&#45;&gt;dir_f1b881a94df93d2a183c4d8f47373448</title>
<path fill="none" stroke="black" d="M692.392,-396.104C682.172,-404.974 668.556,-415.941 655.846,-425.585"/>
<polygon fill="black" stroke="black" points="653.583,-422.907 647.669,-431.697 657.774,-428.514 653.583,-422.907"/>
<g id="a_edge27&#45;headlabel"><a xlink:href="dir_000022_000016.html" target="_top" xlink:title="1">
<text text-anchor="middle" x="654.763" y="-415.98" font-family="Helvetica,sans-Serif" font-size="10.00">1</text>
</a>
</g>
</g>
<!-- dir_ebac6f698c8ed4b70faacb8ef35cbe0d&#45;&gt;dir_c4f4646ab0f4a2967be5b6215a500c22 -->
<g id="edge28" class="edge"><title>dir_ebac6f698c8ed4b70faacb8ef35cbe0d&#45;&gt;dir_c4f4646ab0f4a2967be5b6215a500c22</title>
<path fill="none" stroke="black" d="M684.048,-359.99C670.796,-350.113 654.357,-337.07 641,-324 619.566,-303.026 622.65,-289.08 598,-272 575.587,-256.47 565.611,-261.36 540,-252 538.361,-251.401 536.689,-250.784 535.003,-250.156"/>
<polygon fill="black" stroke="black" points="535.883,-246.747 525.292,-246.489 533.411,-253.296 535.883,-246.747"/>
<g id="a_edge28&#45;headlabel"><a xlink:href="dir_000022_000039.html" target="_top" xlink:title="6">
<text text-anchor="middle" x="540.249" y="-242.86" font-family="Helvetica,sans-Serif" font-size="10.00">6</text>
</a>
</g>
</g>
<!-- dir_ebac6f698c8ed4b70faacb8ef35cbe0d&#45;&gt;dir_5eb03804bf445589bf35c6aa84fb9a34 -->
<g id="edge29" class="edge"><title>dir_ebac6f698c8ed4b70faacb8ef35cbe0d&#45;&gt;dir_5eb03804bf445589bf35c6aa84fb9a34</title>
<path fill="none" stroke="black" d="M701.82,-359.697C699.005,-351.813 695.609,-342.304 692.481,-333.546"/>
<polygon fill="black" stroke="black" points="695.768,-332.345 689.109,-324.104 689.176,-334.699 695.768,-332.345"/>
<g id="a_edge29&#45;headlabel"><a xlink:href="dir_000022_000056.html" target="_top" xlink:title="1">
<text text-anchor="middle" x="699.651" y="-332.275" font-family="Helvetica,sans-Serif" font-size="10.00">1</text>
</a>
</g>
</g>
<!-- dir_c4f4646ab0f4a2967be5b6215a500c22&#45;&gt;dir_0af1587c8378955de40f48b4bd1869f0 -->
<g id="edge31" class="edge"><title>dir_c4f4646ab0f4a2967be5b6215a500c22&#45;&gt;dir_0af1587c8378955de40f48b4bd1869f0</title>
<path fill="none" stroke="black" d="M511.61,-215.774C519.373,-206.03 527.946,-193.184 532,-180 546.343,-133.357 525.649,-77.4874 510.202,-45.3315"/>
<polygon fill="black" stroke="black" points="513.217,-43.5354 505.621,-36.1499 506.953,-46.6606 513.217,-43.5354"/>
<g id="a_edge31&#45;headlabel"><a xlink:href="dir_000039_000018.html" target="_top" xlink:title="43">
<text text-anchor="middle" x="517.363" y="-42.9843" font-family="Helvetica,sans-Serif" font-size="10.00">43</text>
</a>
</g>
</g>
<!-- dir_c4f4646ab0f4a2967be5b6215a500c22&#45;&gt;dir_c44c95bf3b41c3321c6014770d618ac8 -->
<g id="edge32" class="edge"><title>dir_c4f4646ab0f4a2967be5b6215a500c22&#45;&gt;dir_c44c95bf3b41c3321c6014770d618ac8</title>
<path fill="none" stroke="black" d="M481.371,-215.935C473.615,-206.041 464.565,-192.998 459,-180 450.534,-160.225 445.979,-136.245 443.571,-118.161"/>
<polygon fill="black" stroke="black" points="447.021,-117.528 442.361,-108.013 440.07,-118.357 447.021,-117.528"/>
<g id="a_edge32&#45;headlabel"><a xlink:href="dir_000039_000059.html" target="_top" xlink:title="10">
<text text-anchor="middle" x="450.266" y="-118.261" font-family="Helvetica,sans-Serif" font-size="10.00">10</text>
</a>
</g>
</g>
<!-- dir_c4f4646ab0f4a2967be5b6215a500c22&#45;&gt;dir_f1b881a94df93d2a183c4d8f47373448 -->
<g id="edge33" class="edge"><title>dir_c4f4646ab0f4a2967be5b6215a500c22&#45;&gt;dir_f1b881a94df93d2a183c4d8f47373448</title>
<path fill="none" stroke="black" d="M525.411,-248.647C534.681,-254.965 544.139,-263.054 551,-272 587.083,-319.05 610.498,-385.4 618.601,-422.043"/>
<polygon fill="black" stroke="black" points="615.19,-422.84 620.55,-431.979 622.059,-421.493 615.19,-422.84"/>
<g id="a_edge33&#45;headlabel"><a xlink:href="dir_000039_000016.html" target="_top" xlink:title="241">
<text text-anchor="middle" x="611.712" y="-417.36" font-family="Helvetica,sans-Serif" font-size="10.00">241</text>
</a>
</g>
</g>
<!-- dir_c4f4646ab0f4a2967be5b6215a500c22&#45;&gt;dir_da9e88029a658bab9ad39bb8696ef9bc -->
<g id="edge34" class="edge"><title>dir_c4f4646ab0f4a2967be5b6215a500c22&#45;&gt;dir_da9e88029a658bab9ad39bb8696ef9bc</title>
<path fill="none" stroke="black" d="M490.084,-215.697C489.289,-207.983 489.062,-198.712 489.405,-190.112"/>
<polygon fill="black" stroke="black" points="492.898,-190.324 490.105,-180.104 485.915,-189.836 492.898,-190.324"/>
<g id="a_edge34&#45;headlabel"><a xlink:href="dir_000039_000060.html" target="_top" xlink:title="12">
<text text-anchor="middle" x="495.48" y="-191.608" font-family="Helvetica,sans-Serif" font-size="10.00">12</text>
</a>
</g>
</g>
<!-- dir_c4f4646ab0f4a2967be5b6215a500c22&#45;&gt;dir_5eb03804bf445589bf35c6aa84fb9a34 -->
<g id="edge35" class="edge"><title>dir_c4f4646ab0f4a2967be5b6215a500c22&#45;&gt;dir_5eb03804bf445589bf35c6aa84fb9a34</title>
<path fill="none" stroke="black" d="M525.292,-243.837C533.051,-246.704 541.303,-249.728 549,-252 590.8,-264.339 605.008,-254.677 645,-272 651.124,-274.653 657.259,-278.174 662.819,-281.929"/>
<polygon fill="black" stroke="black" points="660.866,-284.838 671,-287.93 665.007,-279.193 660.866,-284.838"/>
<g id="a_edge35&#45;headlabel"><a xlink:href="dir_000039_000056.html" target="_top" xlink:title="2">
<text text-anchor="middle" x="656.289" y="-282.501" font-family="Helvetica,sans-Serif" font-size="10.00">2</text>
</a>
</g>
</g>
<!-- dir_5eb03804bf445589bf35c6aa84fb9a34&#45;&gt;dir_0af1587c8378955de40f48b4bd1869f0 -->
<g id="edge36" class="edge"><title>dir_5eb03804bf445589bf35c6aa84fb9a34&#45;&gt;dir_0af1587c8378955de40f48b4bd1869f0</title>
<path fill="none" stroke="black" d="M676.79,-287.81C661.564,-247.215 619.323,-143.455 561,-72 552.049,-61.0336 540.522,-50.7528 529.667,-42.2185"/>
<polygon fill="black" stroke="black" points="531.63,-39.3144 521.551,-36.0503 527.395,-44.8876 531.63,-39.3144"/>
<g id="a_edge36&#45;headlabel"><a xlink:href="dir_000056_000018.html" target="_top" xlink:title="11">
<text text-anchor="middle" x="536.21" y="-36.7288" font-family="Helvetica,sans-Serif" font-size="10.00">11</text>
</a>
</g>
</g>
<!-- dir_5eb03804bf445589bf35c6aa84fb9a34&#45;&gt;dir_c44c95bf3b41c3321c6014770d618ac8 -->
<g id="edge37" class="edge"><title>dir_5eb03804bf445589bf35c6aa84fb9a34&#45;&gt;dir_c44c95bf3b41c3321c6014770d618ac8</title>
<path fill="none" stroke="black" d="M659.622,-287.987C651.683,-282.556 642.634,-276.733 634,-272 614.451,-261.284 604.292,-267.217 588,-252 548.486,-215.094 569.284,-183.158 532,-144 516.648,-127.876 495.311,-115.099 477.156,-106.134"/>
<polygon fill="black" stroke="black" points="478.536,-102.915 468.001,-101.796 475.539,-109.241 478.536,-102.915"/>
<g id="a_edge37&#45;headlabel"><a xlink:href="dir_000056_000059.html" target="_top" xlink:title="7">
<text text-anchor="middle" x="483.001" y="-99.3886" font-family="Helvetica,sans-Serif" font-size="10.00">7</text>
</a>
</g>
</g>
<!-- dir_5eb03804bf445589bf35c6aa84fb9a34&#45;&gt;dir_c4f4646ab0f4a2967be5b6215a500c22 -->
<g id="edge38" class="edge"><title>dir_5eb03804bf445589bf35c6aa84fb9a34&#45;&gt;dir_c4f4646ab0f4a2967be5b6215a500c22</title>
<path fill="none" stroke="black" d="M654.138,-287.93C645.689,-282.102 636.332,-276.042 627,-272 589.898,-255.928 574.988,-263.084 535.079,-252.919"/>
<polygon fill="black" stroke="black" points="535.846,-249.5 525.275,-250.209 533.981,-256.247 535.846,-249.5"/>
<g id="a_edge38&#45;headlabel"><a xlink:href="dir_000056_000039.html" target="_top" xlink:title="7">
<text text-anchor="middle" x="540.068" y="-245.221" font-family="Helvetica,sans-Serif" font-size="10.00">7</text>
</a>
</g>
</g>
</g>
</svg>
