<?xml version="1.0" encoding="UTF-8" standalone="no"?>
<!DOCTYPE svg PUBLIC "-//W3C//DTD SVG 1.1//EN"
 "http://www.w3.org/Graphics/SVG/1.1/DTD/svg11.dtd">
<!-- Generated by graphviz version 2.36.0 (20140111.2315)
 -->
<!-- Title: src/analysis/plot Pages: 1 -->
<svg width="133pt" height="295pt"
 viewBox="0.00 0.00 133.42 295.00" xmlns="http://www.w3.org/2000/svg" xmlns:xlink="http://www.w3.org/1999/xlink">
<g id="graph0" class="graph" transform="scale(1 1) rotate(0) translate(4 291)">
<title>src/analysis/plot</title>
<polygon fill="white" stroke="none" points="-4,4 -4,-291 129.421,-291 129.421,4 -4,4"/>
<g id="clust1" class="cluster"><title>clusterdir_2eec376824a17f48dc36b4bd0c810e01</title>
<g id="a_clust1"><a xlink:href="dir_2eec376824a17f48dc36b4bd0c810e01.html" target="_top" xlink:title="analysis">
<polygon fill="#ddddee" stroke="black" points="14.4206,-208 14.4206,-279 84.4206,-279 84.4206,-208 14.4206,-208"/>
<text text-anchor="middle" x="49.4206" y="-267" font-family="Helvetica,sans-Serif" font-size="10.00">analysis</text>
</a>
</g>
</g>
<!-- dir_8f68c37b22d514b4289e3a1255795d80 -->
<g id="node1" class="node"><title>dir_8f68c37b22d514b4289e3a1255795d80</title>
<g id="a_node1"><a xlink:href="dir_8f68c37b22d514b4289e3a1255795d80.html" target="_top" xlink:title="plot">
<polygon fill="#eeeeff" stroke="black" points="76.4206,-252 22.4206,-252 22.4206,-216 76.4206,-216 76.4206,-252"/>
<text text-anchor="middle" x="49.4206" y="-231.5" font-family="Helvetica,sans-Serif" font-size="10.00">plot</text>
</a>
</g>
</g>
<!-- dir_0af1587c8378955de40f48b4bd1869f0 -->
<g id="node2" class="node"><title>dir_0af1587c8378955de40f48b4bd1869f0</title>
<g id="a_node2"><a xlink:href="dir_0af1587c8378955de40f48b4bd1869f0.html" target="_top" xlink:title="base">
<polygon fill="white" stroke="red" points="64.4206,-36 10.4206,-36 10.4206,-0 64.4206,-0 64.4206,-36"/>
<text text-anchor="middle" x="37.4206" y="-15.5" font-family="Helvetica,sans-Serif" font-size="10.00">base</text>
</a>
</g>
</g>
<!-- dir_8f68c37b22d514b4289e3a1255795d80&#45;&gt;dir_0af1587c8378955de40f48b4bd1869f0 -->
<g id="edge4" class="edge"><title>dir_8f68c37b22d514b4289e3a1255795d80&#45;&gt;dir_0af1587c8378955de40f48b4bd1869f0</title>
<path fill="none" stroke="black" d="M30.3815,-215.837C21.2446,-206.3 11.2524,-193.624 6.42065,-180 -9.78916,-134.292 9.3079,-78.1129 23.8962,-45.6453"/>
<polygon fill="black" stroke="black" points="27.1689,-46.9093 28.2348,-36.3683 20.828,-43.9439 27.1689,-46.9093"/>
<g id="a_edge4&#45;headlabel"><a xlink:href="dir_000036_000018.html" target="_top" xlink:title="10">
<text text-anchor="middle" x="28.218" y="-48.8682" font-family="Helvetica,sans-Serif" font-size="10.00">10</text>
</a>
</g>
</g>
<!-- dir_ebac6f698c8ed4b70faacb8ef35cbe0d -->
<g id="node3" class="node"><title>dir_ebac6f698c8ed4b70faacb8ef35cbe0d</title>
<g id="a_node3"><a xlink:href="dir_ebac6f698c8ed4b70faacb8ef35cbe0d.html" target="_top" xlink:title="root&#45;addons">
<polygon fill="white" stroke="red" points="83.4206,-180 15.4206,-180 15.4206,-144 83.4206,-144 83.4206,-180"/>
<text text-anchor="middle" x="49.4206" y="-159.5" font-family="Helvetica,sans-Serif" font-size="10.00">root&#45;addons</text>
</a>
</g>
</g>
<!-- dir_8f68c37b22d514b4289e3a1255795d80&#45;&gt;dir_ebac6f698c8ed4b70faacb8ef35cbe0d -->
<g id="edge5" class="edge"><title>dir_8f68c37b22d514b4289e3a1255795d80&#45;&gt;dir_ebac6f698c8ed4b70faacb8ef35cbe0d</title>
<path fill="none" stroke="black" d="M49.4206,-215.697C49.4206,-207.983 49.4206,-198.712 49.4206,-190.112"/>
<polygon fill="black" stroke="black" points="52.9207,-190.104 49.4206,-180.104 45.9207,-190.104 52.9207,-190.104"/>
<g id="a_edge5&#45;headlabel"><a xlink:href="dir_000036_000022.html" target="_top" xlink:title="1">
<text text-anchor="middle" x="55.7599" y="-191.199" font-family="Helvetica,sans-Serif" font-size="10.00">1</text>
</a>
</g>
</g>
<!-- dir_c4f4646ab0f4a2967be5b6215a500c22 -->
<g id="node4" class="node"><title>dir_c4f4646ab0f4a2967be5b6215a500c22</title>
<g id="a_node4"><a xlink:href="dir_c4f4646ab0f4a2967be5b6215a500c22.html" target="_top" xlink:title="expconfig">
<polygon fill="white" stroke="red" points="124.671,-108 66.1706,-108 66.1706,-72 124.671,-72 124.671,-108"/>
<text text-anchor="middle" x="95.4206" y="-87.5" font-family="Helvetica,sans-Serif" font-size="10.00">expconfig</text>
</a>
</g>
</g>
<!-- dir_8f68c37b22d514b4289e3a1255795d80&#45;&gt;dir_c4f4646ab0f4a2967be5b6215a500c22 -->
<g id="edge6" class="edge"><title>dir_8f68c37b22d514b4289e3a1255795d80&#45;&gt;dir_c4f4646ab0f4a2967be5b6215a500c22</title>
<path fill="none" stroke="black" d="M68.2717,-215.768C77.3571,-206.213 87.3601,-193.541 92.4206,-180 99.8058,-160.239 100.17,-136.258 98.9004,-118.17"/>
<polygon fill="black" stroke="black" points="102.369,-117.661 97.9758,-108.019 95.3975,-118.296 102.369,-117.661"/>
<g id="a_edge6&#45;headlabel"><a xlink:href="dir_000036_000039.html" target="_top" xlink:title="1">
<text text-anchor="middle" x="105.522" y="-118.483" font-family="Helvetica,sans-Serif" font-size="10.00">1</text>
</a>
</g>
</g>
<!-- dir_ebac6f698c8ed4b70faacb8ef35cbe0d&#45;&gt;dir_0af1587c8378955de40f48b4bd1869f0 -->
<g id="edge1" class="edge"><title>dir_ebac6f698c8ed4b70faacb8ef35cbe0d&#45;&gt;dir_0af1587c8378955de40f48b4bd1869f0</title>
<path fill="none" stroke="black" d="M47.9732,-143.871C45.928,-119.67 42.1709,-75.2108 39.7356,-46.3932"/>
<polygon fill="black" stroke="black" points="43.203,-45.859 38.8733,-36.1893 36.2278,-46.4485 43.203,-45.859"/>
<g id="a_edge1&#45;headlabel"><a xlink:href="dir_000022_000018.html" target="_top" xlink:title="66">
<text text-anchor="middle" x="46.3348" y="-46.7018" font-family="Helvetica,sans-Serif" font-size="10.00">66</text>
</a>
</g>
</g>
<!-- dir_ebac6f698c8ed4b70faacb8ef35cbe0d&#45;&gt;dir_c4f4646ab0f4a2967be5b6215a500c22 -->
<g id="edge2" class="edge"><title>dir_ebac6f698c8ed4b70faacb8ef35cbe0d&#45;&gt;dir_c4f4646ab0f4a2967be5b6215a500c22</title>
<path fill="none" stroke="black" d="M60.7914,-143.697C66.1391,-135.559 72.625,-125.689 78.5312,-116.701"/>
<polygon fill="black" stroke="black" points="81.6138,-118.384 84.1807,-108.104 75.7639,-114.539 81.6138,-118.384"/>
<g id="a_edge2&#45;headlabel"><a xlink:href="dir_000022_000039.html" target="_top" xlink:title="6">
<text text-anchor="middle" x="82.0126" y="-120.447" font-family="Helvetica,sans-Serif" font-size="10.00">6</text>
</a>
</g>
</g>
<!-- dir_c4f4646ab0f4a2967be5b6215a500c22&#45;&gt;dir_0af1587c8378955de40f48b4bd1869f0 -->
<g id="edge3" class="edge"><title>dir_c4f4646ab0f4a2967be5b6215a500c22&#45;&gt;dir_0af1587c8378955de40f48b4bd1869f0</title>
<path fill="none" stroke="black" d="M81.0836,-71.6966C74.1301,-63.3046 65.6505,-53.0705 58.02,-43.8613"/>
<polygon fill="black" stroke="black" points="60.6681,-41.5715 51.5928,-36.1043 55.2779,-46.0376 60.6681,-41.5715"/>
<g id="a_edge3&#45;headlabel"><a xlink:href="dir_000039_000018.html" target="_top" xlink:title="43">
<text text-anchor="middle" x="65.1478" y="-40.0279" font-family="Helvetica,sans-Serif" font-size="10.00">43</text>
</a>
</g>
</g>
</g>
</svg>
