<?xml version="1.0" encoding="UTF-8" standalone="no"?>
<!DOCTYPE svg PUBLIC "-//W3C//DTD SVG 1.1//EN"
 "http://www.w3.org/Graphics/SVG/1.1/DTD/svg11.dtd">
<!-- Generated by graphviz version 2.36.0 (20140111.2315)
 -->
<!-- Title: src/expconfig/setups Pages: 1 -->
<svg width="285pt" height="439pt"
 viewBox="0.00 0.00 285.33 439.00" xmlns="http://www.w3.org/2000/svg" xmlns:xlink="http://www.w3.org/1999/xlink">
<g id="graph0" class="graph" transform="scale(1 1) rotate(0) translate(4 435)">
<title>src/expconfig/setups</title>
<polygon fill="white" stroke="none" points="-4,4 -4,-435 281.328,-435 281.328,4 -4,4"/>
<g id="clust1" class="cluster"><title>clusterdir_c4f4646ab0f4a2967be5b6215a500c22</title>
<g id="a_clust1"><a xlink:href="dir_c4f4646ab0f4a2967be5b6215a500c22.html" target="_top" xlink:title="expconfig">
<polygon fill="#ddddee" stroke="black" points="84.3275,-352 84.3275,-423 154.328,-423 154.328,-352 84.3275,-352"/>
<text text-anchor="middle" x="119.328" y="-411" font-family="Helvetica,sans-Serif" font-size="10.00">expconfig</text>
</a>
</g>
</g>
<!-- dir_3d468596428ffb12814829a3f430a3ed -->
<g id="node1" class="node"><title>dir_3d468596428ffb12814829a3f430a3ed</title>
<g id="a_node1"><a xlink:href="dir_3d468596428ffb12814829a3f430a3ed.html" target="_top" xlink:title="setups">
<polygon fill="#eeeeff" stroke="black" points="146.328,-396 92.3275,-396 92.3275,-360 146.328,-360 146.328,-396"/>
<text text-anchor="middle" x="119.328" y="-375.5" font-family="Helvetica,sans-Serif" font-size="10.00">setups</text>
</a>
</g>
</g>
<!-- dir_f0b5461fe6d76f238177302312df4359 -->
<g id="node2" class="node"><title>dir_f0b5461fe6d76f238177302312df4359</title>
<g id="a_node2"><a xlink:href="dir_f0b5461fe6d76f238177302312df4359.html" target="_top" xlink:title="detectors">
<polygon fill="white" stroke="red" points="202.578,-252 146.078,-252 146.078,-216 202.578,-216 202.578,-252"/>
<text text-anchor="middle" x="174.328" y="-231.5" font-family="Helvetica,sans-Serif" font-size="10.00">detectors</text>
</a>
</g>
</g>
<!-- dir_3d468596428ffb12814829a3f430a3ed&#45;&gt;dir_f0b5461fe6d76f238177302312df4359 -->
<g id="edge1" class="edge"><title>dir_3d468596428ffb12814829a3f430a3ed&#45;&gt;dir_f0b5461fe6d76f238177302312df4359</title>
<path fill="none" stroke="black" d="M125.962,-359.871C135.418,-335.457 152.86,-290.426 164.011,-261.635"/>
<polygon fill="black" stroke="black" points="167.322,-262.778 167.67,-252.189 160.794,-260.25 167.322,-262.778"/>
<g id="a_edge1&#45;headlabel"><a xlink:href="dir_000050_000040.html" target="_top" xlink:title="70">
<text text-anchor="middle" x="168.671" y="-264.656" font-family="Helvetica,sans-Serif" font-size="10.00">70</text>
</a>
</g>
</g>
<!-- dir_0af1587c8378955de40f48b4bd1869f0 -->
<g id="node3" class="node"><title>dir_0af1587c8378955de40f48b4bd1869f0</title>
<g id="a_node3"><a xlink:href="dir_0af1587c8378955de40f48b4bd1869f0.html" target="_top" xlink:title="base">
<polygon fill="white" stroke="red" points="154.328,-36 100.328,-36 100.328,-0 154.328,-0 154.328,-36"/>
<text text-anchor="middle" x="127.328" y="-15.5" font-family="Helvetica,sans-Serif" font-size="10.00">base</text>
</a>
</g>
</g>
<!-- dir_3d468596428ffb12814829a3f430a3ed&#45;&gt;dir_0af1587c8378955de40f48b4bd1869f0 -->
<g id="edge2" class="edge"><title>dir_3d468596428ffb12814829a3f430a3ed&#45;&gt;dir_0af1587c8378955de40f48b4bd1869f0</title>
<path fill="none" stroke="black" d="M91.9553,-369.44C69.2853,-361.74 38.021,-347.528 20.3275,-324 -3.98252,-291.674 1.32751,-275.447 1.32751,-235 1.32751,-235 1.32751,-235 1.32751,-161 1.32751,-106.23 54.4204,-62.7311 91.6776,-38.9489"/>
<polygon fill="black" stroke="black" points="93.6364,-41.8528 100.297,-33.6137 89.9523,-35.9007 93.6364,-41.8528"/>
<g id="a_edge2&#45;headlabel"><a xlink:href="dir_000050_000018.html" target="_top" xlink:title="29">
<text text-anchor="middle" x="92.0742" y="-43.6588" font-family="Helvetica,sans-Serif" font-size="10.00">29</text>
</a>
</g>
</g>
<!-- dir_c44c95bf3b41c3321c6014770d618ac8 -->
<g id="node4" class="node"><title>dir_c44c95bf3b41c3321c6014770d618ac8</title>
<g id="a_node4"><a xlink:href="dir_c44c95bf3b41c3321c6014770d618ac8.html" target="_top" xlink:title="tree">
<polygon fill="none" stroke="black" points="154.328,-108 100.328,-108 100.328,-72 154.328,-72 154.328,-108"/>
<text text-anchor="middle" x="127.328" y="-87.5" font-family="Helvetica,sans-Serif" font-size="10.00">tree</text>
</a>
</g>
</g>
<!-- dir_3d468596428ffb12814829a3f430a3ed&#45;&gt;dir_c44c95bf3b41c3321c6014770d618ac8 -->
<g id="edge3" class="edge"><title>dir_3d468596428ffb12814829a3f430a3ed&#45;&gt;dir_c44c95bf3b41c3321c6014770d618ac8</title>
<path fill="none" stroke="black" d="M119.804,-359.966C121.138,-312.291 124.917,-177.185 126.555,-118.63"/>
<polygon fill="black" stroke="black" points="130.062,-118.4 126.843,-108.306 123.065,-118.205 130.062,-118.4"/>
<g id="a_edge3&#45;headlabel"><a xlink:href="dir_000050_000059.html" target="_top" xlink:title="1">
<text text-anchor="middle" x="132.8" y="-119.573" font-family="Helvetica,sans-Serif" font-size="10.00">1</text>
</a>
</g>
</g>
<!-- dir_f1b881a94df93d2a183c4d8f47373448 -->
<g id="node5" class="node"><title>dir_f1b881a94df93d2a183c4d8f47373448</title>
<g id="a_node5"><a xlink:href="dir_f1b881a94df93d2a183c4d8f47373448.html" target="_top" xlink:title="calibration">
<polygon fill="white" stroke="red" points="90.5775,-324 30.0775,-324 30.0775,-288 90.5775,-288 90.5775,-324"/>
<text text-anchor="middle" x="60.3275" y="-303.5" font-family="Helvetica,sans-Serif" font-size="10.00">calibration</text>
</a>
</g>
</g>
<!-- dir_3d468596428ffb12814829a3f430a3ed&#45;&gt;dir_f1b881a94df93d2a183c4d8f47373448 -->
<g id="edge4" class="edge"><title>dir_3d468596428ffb12814829a3f430a3ed&#45;&gt;dir_f1b881a94df93d2a183c4d8f47373448</title>
<path fill="none" stroke="black" d="M104.743,-359.697C97.6699,-351.305 89.0441,-341.07 81.2821,-331.861"/>
<polygon fill="black" stroke="black" points="83.865,-329.495 74.744,-324.104 78.5126,-334.006 83.865,-329.495"/>
<g id="a_edge4&#45;headlabel"><a xlink:href="dir_000050_000016.html" target="_top" xlink:title="240">
<text text-anchor="middle" x="88.3526" y="-327.914" font-family="Helvetica,sans-Serif" font-size="10.00">240</text>
</a>
</g>
</g>
<!-- dir_da9e88029a658bab9ad39bb8696ef9bc -->
<g id="node6" class="node"><title>dir_da9e88029a658bab9ad39bb8696ef9bc</title>
<g id="a_node6"><a xlink:href="dir_da9e88029a658bab9ad39bb8696ef9bc.html" target="_top" xlink:title="unpacker">
<polygon fill="white" stroke="red" points="276.828,-180 221.828,-180 221.828,-144 276.828,-144 276.828,-180"/>
<text text-anchor="middle" x="249.328" y="-159.5" font-family="Helvetica,sans-Serif" font-size="10.00">unpacker</text>
</a>
</g>
</g>
<!-- dir_3d468596428ffb12814829a3f430a3ed&#45;&gt;dir_da9e88029a658bab9ad39bb8696ef9bc -->
<g id="edge5" class="edge"><title>dir_3d468596428ffb12814829a3f430a3ed&#45;&gt;dir_da9e88029a658bab9ad39bb8696ef9bc</title>
<path fill="none" stroke="black" d="M133.61,-359.55C141.871,-349.316 152.371,-336.066 161.328,-324 184.549,-292.717 192.47,-286.091 211.328,-252 222.46,-231.874 232.553,-207.823 239.534,-189.8"/>
<polygon fill="black" stroke="black" points="242.896,-190.806 243.174,-180.215 236.352,-188.321 242.896,-190.806"/>
<g id="a_edge5&#45;headlabel"><a xlink:href="dir_000050_000060.html" target="_top" xlink:title="2">
<text text-anchor="middle" x="244.274" y="-192.675" font-family="Helvetica,sans-Serif" font-size="10.00">2</text>
</a>
</g>
</g>
<!-- dir_f0b5461fe6d76f238177302312df4359&#45;&gt;dir_0af1587c8378955de40f48b4bd1869f0 -->
<g id="edge6" class="edge"><title>dir_f0b5461fe6d76f238177302312df4359&#45;&gt;dir_0af1587c8378955de40f48b4bd1869f0</title>
<path fill="none" stroke="black" d="M176.013,-215.974C178.368,-185.954 180.608,-122.052 163.328,-72 159.987,-62.3236 154.395,-52.7548 148.603,-44.4669"/>
<polygon fill="black" stroke="black" points="151.348,-42.2917 142.581,-36.3428 145.724,-46.4605 151.348,-42.2917"/>
<g id="a_edge6&#45;headlabel"><a xlink:href="dir_000040_000018.html" target="_top" xlink:title="11">
<text text-anchor="middle" x="155.769" y="-40.9885" font-family="Helvetica,sans-Serif" font-size="10.00">11</text>
</a>
</g>
</g>
<!-- dir_f0b5461fe6d76f238177302312df4359&#45;&gt;dir_c44c95bf3b41c3321c6014770d618ac8 -->
<g id="edge7" class="edge"><title>dir_f0b5461fe6d76f238177302312df4359&#45;&gt;dir_c44c95bf3b41c3321c6014770d618ac8</title>
<path fill="none" stroke="black" d="M168.658,-215.871C160.613,-191.564 145.803,-146.819 136.269,-118.013"/>
<polygon fill="black" stroke="black" points="139.482,-116.583 133.017,-108.189 132.836,-118.783 139.482,-116.583"/>
<g id="a_edge7&#45;headlabel"><a xlink:href="dir_000040_000059.html" target="_top" xlink:title="8">
<text text-anchor="middle" x="143.307" y="-116.603" font-family="Helvetica,sans-Serif" font-size="10.00">8</text>
</a>
</g>
</g>
<!-- dir_f0b5461fe6d76f238177302312df4359&#45;&gt;dir_da9e88029a658bab9ad39bb8696ef9bc -->
<g id="edge8" class="edge"><title>dir_f0b5461fe6d76f238177302312df4359&#45;&gt;dir_da9e88029a658bab9ad39bb8696ef9bc</title>
<path fill="none" stroke="black" d="M192.867,-215.697C202.131,-207.05 213.49,-196.449 223.584,-187.027"/>
<polygon fill="black" stroke="black" points="226.079,-189.486 231.001,-180.104 221.303,-184.369 226.079,-189.486"/>
<g id="a_edge8&#45;headlabel"><a xlink:href="dir_000040_000060.html" target="_top" xlink:title="8">
<text text-anchor="middle" x="225.388" y="-191.515" font-family="Helvetica,sans-Serif" font-size="10.00">8</text>
</a>
</g>
</g>
<!-- dir_c44c95bf3b41c3321c6014770d618ac8&#45;&gt;dir_0af1587c8378955de40f48b4bd1869f0 -->
<g id="edge9" class="edge"><title>dir_c44c95bf3b41c3321c6014770d618ac8&#45;&gt;dir_0af1587c8378955de40f48b4bd1869f0</title>
<path fill="none" stroke="black" d="M127.328,-71.6966C127.328,-63.9827 127.328,-54.7125 127.328,-46.1124"/>
<polygon fill="black" stroke="black" points="130.828,-46.1043 127.328,-36.1043 123.828,-46.1044 130.828,-46.1043"/>
<g id="a_edge9&#45;headlabel"><a xlink:href="dir_000059_000018.html" target="_top" xlink:title="25">
<text text-anchor="middle" x="133.667" y="-47.199" font-family="Helvetica,sans-Serif" font-size="10.00">25</text>
</a>
</g>
</g>
<!-- dir_f1b881a94df93d2a183c4d8f47373448&#45;&gt;dir_f0b5461fe6d76f238177302312df4359 -->
<g id="edge10" class="edge"><title>dir_f1b881a94df93d2a183c4d8f47373448&#45;&gt;dir_f0b5461fe6d76f238177302312df4359</title>
<path fill="none" stroke="black" d="M88.215,-287.876C103.121,-278.724 121.657,-267.342 137.709,-257.485"/>
<polygon fill="black" stroke="black" points="139.642,-260.405 146.333,-252.19 135.98,-254.44 139.642,-260.405"/>
<g id="a_edge10&#45;headlabel"><a xlink:href="dir_000016_000040.html" target="_top" xlink:title="12">
<text text-anchor="middle" x="138.065" y="-262.205" font-family="Helvetica,sans-Serif" font-size="10.00">12</text>
</a>
</g>
</g>
<!-- dir_f1b881a94df93d2a183c4d8f47373448&#45;&gt;dir_0af1587c8378955de40f48b4bd1869f0 -->
<g id="edge11" class="edge"><title>dir_f1b881a94df93d2a183c4d8f47373448&#45;&gt;dir_0af1587c8378955de40f48b4bd1869f0</title>
<path fill="none" stroke="black" d="M59.8543,-287.929C59.3362,-248.444 61.3506,-148.35 91.3275,-72 95.1291,-62.3175 100.957,-52.6366 106.824,-44.2482"/>
<polygon fill="black" stroke="black" points="109.764,-46.1583 112.868,-36.0285 104.124,-42.0113 109.764,-46.1583"/>
<g id="a_edge11&#45;headlabel"><a xlink:href="dir_000016_000018.html" target="_top" xlink:title="111">
<text text-anchor="middle" x="109.922" y="-48.2362" font-family="Helvetica,sans-Serif" font-size="10.00">111</text>
</a>
</g>
</g>
<!-- dir_f1b881a94df93d2a183c4d8f47373448&#45;&gt;dir_c44c95bf3b41c3321c6014770d618ac8 -->
<g id="edge12" class="edge"><title>dir_f1b881a94df93d2a183c4d8f47373448&#45;&gt;dir_c44c95bf3b41c3321c6014770d618ac8</title>
<path fill="none" stroke="black" d="M63.9446,-287.798C70.4169,-258.039 85.0303,-195.221 103.328,-144 106.454,-135.249 110.432,-125.943 114.247,-117.61"/>
<polygon fill="black" stroke="black" points="117.505,-118.908 118.59,-108.368 111.169,-115.931 117.505,-118.908"/>
<g id="a_edge12&#45;headlabel"><a xlink:href="dir_000016_000059.html" target="_top" xlink:title="30">
<text text-anchor="middle" x="118.546" y="-120.868" font-family="Helvetica,sans-Serif" font-size="10.00">30</text>
</a>
</g>
</g>
<!-- dir_da9e88029a658bab9ad39bb8696ef9bc&#45;&gt;dir_0af1587c8378955de40f48b4bd1869f0 -->
<g id="edge13" class="edge"><title>dir_da9e88029a658bab9ad39bb8696ef9bc&#45;&gt;dir_0af1587c8378955de40f48b4bd1869f0</title>
<path fill="none" stroke="black" d="M244.286,-143.687C238.036,-124.502 225.886,-93.4474 207.328,-72 195.23,-58.0195 178.589,-46.2007 163.616,-37.2965"/>
<polygon fill="black" stroke="black" points="164.985,-34.0482 154.564,-32.1357 161.518,-40.1292 164.985,-34.0482"/>
<g id="a_edge13&#45;headlabel"><a xlink:href="dir_000060_000018.html" target="_top" xlink:title="15">
<text text-anchor="middle" x="169.514" y="-30.862" font-family="Helvetica,sans-Serif" font-size="10.00">15</text>
</a>
</g>
</g>
<!-- dir_da9e88029a658bab9ad39bb8696ef9bc&#45;&gt;dir_c44c95bf3b41c3321c6014770d618ac8 -->
<g id="edge14" class="edge"><title>dir_da9e88029a658bab9ad39bb8696ef9bc&#45;&gt;dir_c44c95bf3b41c3321c6014770d618ac8</title>
<path fill="none" stroke="black" d="M221.644,-145.116C204.365,-135.202 181.941,-122.335 163.293,-111.636"/>
<polygon fill="black" stroke="black" points="164.897,-108.521 154.481,-106.58 161.413,-114.593 164.897,-108.521"/>
<g id="a_edge14&#45;headlabel"><a xlink:href="dir_000060_000059.html" target="_top" xlink:title="10">
<text text-anchor="middle" x="169.428" y="-105.347" font-family="Helvetica,sans-Serif" font-size="10.00">10</text>
</a>
</g>
</g>
</g>
</svg>
