<?xml version="1.0" encoding="UTF-8" standalone="no"?>
<!DOCTYPE svg PUBLIC "-//W3C//DTD SVG 1.1//EN"
 "http://www.w3.org/Graphics/SVG/1.1/DTD/svg11.dtd">
<!-- Generated by graphviz version 2.36.0 (20140111.2315)
 -->
<!-- Title: src/mc Pages: 1 -->
<svg width="182pt" height="375pt"
 viewBox="0.00 0.00 182.00 375.00" xmlns="http://www.w3.org/2000/svg" xmlns:xlink="http://www.w3.org/1999/xlink">
<g id="graph0" class="graph" transform="scale(1 1) rotate(0) translate(4 371)">
<title>src/mc</title>
<polygon fill="white" stroke="none" points="-4,4 -4,-371 178,-371 178,4 -4,4"/>
<g id="clust1" class="cluster"><title>clusterdir_68267d1309a1af8e8297ef4c3efbcdba</title>
<g id="a_clust1"><a xlink:href="dir_68267d1309a1af8e8297ef4c3efbcdba.html" target="_top" xlink:title="src">
<polygon fill="#ddddee" stroke="black" points="8,-200 8,-359 166,-359 166,-200 8,-200"/>
<text text-anchor="middle" x="87" y="-347" font-family="Helvetica,sans-Serif" font-size="10.00">src</text>
</a>
</g>
</g>
<g id="clust2" class="cluster"><title>clusterdir_23ddac1b85988572e153cbc2f1d45e89</title>
<g id="a_clust2"><a xlink:href="dir_23ddac1b85988572e153cbc2f1d45e89.html" target="_top">
<polygon fill="#eeeeff" stroke="black" points="16,-208 16,-332 158,-332 158,-208 16,-208"/>
</a>
</g>
</g>
<!-- dir_23ddac1b85988572e153cbc2f1d45e89 -->
<g id="node1" class="node"><title>dir_23ddac1b85988572e153cbc2f1d45e89</title>
<text text-anchor="middle" x="123" y="-303.5" font-family="Helvetica,sans-Serif" font-size="10.00">mc</text>
</g>
<!-- dir_d3257a9dc10c94c91caec5e6c2201c68 -->
<g id="node2" class="node"><title>dir_d3257a9dc10c94c91caec5e6c2201c68</title>
<g id="a_node2"><a xlink:href="dir_d3257a9dc10c94c91caec5e6c2201c68.html" target="_top" xlink:title="database">
<polygon fill="white" stroke="red" points="79.5,-252 24.5,-252 24.5,-216 79.5,-216 79.5,-252"/>
<text text-anchor="middle" x="52" y="-231.5" font-family="Helvetica,sans-Serif" font-size="10.00">database</text>
</a>
</g>
</g>
<!-- dir_0af1587c8378955de40f48b4bd1869f0 -->
<g id="node4" class="node"><title>dir_0af1587c8378955de40f48b4bd1869f0</title>
<g id="a_node4"><a xlink:href="dir_0af1587c8378955de40f48b4bd1869f0.html" target="_top" xlink:title="base">
<polygon fill="white" stroke="red" points="90,-36 36,-36 36,-0 90,-0 90,-36"/>
<text text-anchor="middle" x="63" y="-15.5" font-family="Helvetica,sans-Serif" font-size="10.00">base</text>
</a>
</g>
</g>
<!-- dir_d3257a9dc10c94c91caec5e6c2201c68&#45;&gt;dir_0af1587c8378955de40f48b4bd1869f0 -->
<g id="edge7" class="edge"><title>dir_d3257a9dc10c94c91caec5e6c2201c68&#45;&gt;dir_0af1587c8378955de40f48b4bd1869f0</title>
<path fill="none" stroke="black" d="M36.8175,-215.703C29.2683,-205.939 20.9337,-193.095 17,-180 12.3969,-164.676 14.1936,-159.752 17,-144 23.3019,-108.628 38.8991,-70.1467 50.1869,-45.3605"/>
<polygon fill="black" stroke="black" points="53.379,-46.7965 54.4224,-36.2531 47.0318,-43.8446 53.379,-46.7965"/>
<g id="a_edge7&#45;headlabel"><a xlink:href="dir_000052_000018.html" target="_top" xlink:title="4">
<text text-anchor="middle" x="54.4377" y="-48.7531" font-family="Helvetica,sans-Serif" font-size="10.00">4</text>
</a>
</g>
</g>
<!-- dir_2eec376824a17f48dc36b4bd0c810e01 -->
<g id="node6" class="node"><title>dir_2eec376824a17f48dc36b4bd0c810e01</title>
<g id="a_node6"><a xlink:href="dir_2eec376824a17f48dc36b4bd0c810e01.html" target="_top" xlink:title="analysis">
<polygon fill="white" stroke="red" points="80,-180 26,-180 26,-144 80,-144 80,-180"/>
<text text-anchor="middle" x="53" y="-159.5" font-family="Helvetica,sans-Serif" font-size="10.00">analysis</text>
</a>
</g>
</g>
<!-- dir_d3257a9dc10c94c91caec5e6c2201c68&#45;&gt;dir_2eec376824a17f48dc36b4bd0c810e01 -->
<g id="edge8" class="edge"><title>dir_d3257a9dc10c94c91caec5e6c2201c68&#45;&gt;dir_2eec376824a17f48dc36b4bd0c810e01</title>
<path fill="none" stroke="black" d="M52.2472,-215.697C52.3574,-207.983 52.4898,-198.712 52.6127,-190.112"/>
<polygon fill="black" stroke="black" points="56.1124,-190.153 52.7557,-180.104 49.1131,-190.053 56.1124,-190.153"/>
<g id="a_edge8&#45;headlabel"><a xlink:href="dir_000052_000003.html" target="_top" xlink:title="1">
<text text-anchor="middle" x="58.9001" y="-191.288" font-family="Helvetica,sans-Serif" font-size="10.00">1</text>
</a>
</g>
</g>
<!-- dir_d1811c65c1b162f25a62e035dae64b7f -->
<g id="node3" class="node"><title>dir_d1811c65c1b162f25a62e035dae64b7f</title>
<g id="a_node3"><a xlink:href="dir_d1811c65c1b162f25a62e035dae64b7f.html" target="_top" xlink:title="pluto">
<polygon fill="white" stroke="red" points="78,-324 24,-324 24,-288 78,-288 78,-324"/>
<text text-anchor="middle" x="51" y="-303.5" font-family="Helvetica,sans-Serif" font-size="10.00">pluto</text>
</a>
</g>
</g>
<!-- dir_d1811c65c1b162f25a62e035dae64b7f&#45;&gt;dir_d3257a9dc10c94c91caec5e6c2201c68 -->
<g id="edge4" class="edge"><title>dir_d1811c65c1b162f25a62e035dae64b7f&#45;&gt;dir_d3257a9dc10c94c91caec5e6c2201c68</title>
<path fill="none" stroke="black" d="M51.2472,-287.697C51.3574,-279.983 51.4898,-270.712 51.6127,-262.112"/>
<polygon fill="black" stroke="black" points="55.1124,-262.153 51.7557,-252.104 48.1131,-262.053 55.1124,-262.153"/>
<g id="a_edge4&#45;headlabel"><a xlink:href="dir_000054_000052.html" target="_top" xlink:title="2">
<text text-anchor="middle" x="57.9001" y="-263.288" font-family="Helvetica,sans-Serif" font-size="10.00">2</text>
</a>
</g>
</g>
<!-- dir_d1811c65c1b162f25a62e035dae64b7f&#45;&gt;dir_0af1587c8378955de40f48b4bd1869f0 -->
<g id="edge2" class="edge"><title>dir_d1811c65c1b162f25a62e035dae64b7f&#45;&gt;dir_0af1587c8378955de40f48b4bd1869f0</title>
<path fill="none" stroke="black" d="M75.6834,-287.878C87.0952,-278.611 99.7083,-266.163 107,-252 136.577,-194.553 122.545,-172.461 127,-108 128.103,-92.0381 133.809,-86.479 127,-72 120.825,-58.8685 109.622,-47.8739 98.2955,-39.3642"/>
<polygon fill="black" stroke="black" points="100.293,-36.4901 90.0964,-33.612 96.2725,-42.2205 100.293,-36.4901"/>
<g id="a_edge2&#45;headlabel"><a xlink:href="dir_000054_000018.html" target="_top" xlink:title="6">
<text text-anchor="middle" x="104.866" y="-33.7302" font-family="Helvetica,sans-Serif" font-size="10.00">6</text>
</a>
</g>
</g>
<!-- dir_c44c95bf3b41c3321c6014770d618ac8 -->
<g id="node5" class="node"><title>dir_c44c95bf3b41c3321c6014770d618ac8</title>
<g id="a_node5"><a xlink:href="dir_c44c95bf3b41c3321c6014770d618ac8.html" target="_top" xlink:title="tree">
<polygon fill="none" stroke="black" points="118,-108 64,-108 64,-72 118,-72 118,-108"/>
<text text-anchor="middle" x="91" y="-87.5" font-family="Helvetica,sans-Serif" font-size="10.00">tree</text>
</a>
</g>
</g>
<!-- dir_d1811c65c1b162f25a62e035dae64b7f&#45;&gt;dir_c44c95bf3b41c3321c6014770d618ac8 -->
<g id="edge3" class="edge"><title>dir_d1811c65c1b162f25a62e035dae64b7f&#45;&gt;dir_c44c95bf3b41c3321c6014770d618ac8</title>
<path fill="none" stroke="black" d="M66.9384,-287.814C74.8863,-278.083 83.7015,-265.234 88,-252 102.587,-207.09 99.231,-151.355 95.2595,-118.63"/>
<polygon fill="black" stroke="black" points="98.6958,-117.918 93.914,-108.463 91.7563,-118.836 98.6958,-117.918"/>
<g id="a_edge3&#45;headlabel"><a xlink:href="dir_000054_000059.html" target="_top" xlink:title="1">
<text text-anchor="middle" x="101.982" y="-118.609" font-family="Helvetica,sans-Serif" font-size="10.00">1</text>
</a>
</g>
</g>
<!-- dir_c44c95bf3b41c3321c6014770d618ac8&#45;&gt;dir_0af1587c8378955de40f48b4bd1869f0 -->
<g id="edge1" class="edge"><title>dir_c44c95bf3b41c3321c6014770d618ac8&#45;&gt;dir_0af1587c8378955de40f48b4bd1869f0</title>
<path fill="none" stroke="black" d="M84.0786,-71.6966C80.9253,-63.8132 77.1217,-54.3042 73.6186,-45.5464"/>
<polygon fill="black" stroke="black" points="76.8054,-44.0892 69.8417,-36.1043 70.306,-46.689 76.8054,-44.0892"/>
<g id="a_edge1&#45;headlabel"><a xlink:href="dir_000059_000018.html" target="_top" xlink:title="25">
<text text-anchor="middle" x="80.7765" y="-43.8723" font-family="Helvetica,sans-Serif" font-size="10.00">25</text>
</a>
</g>
</g>
<!-- dir_2eec376824a17f48dc36b4bd0c810e01&#45;&gt;dir_0af1587c8378955de40f48b4bd1869f0 -->
<g id="edge5" class="edge"><title>dir_2eec376824a17f48dc36b4bd0c810e01&#45;&gt;dir_0af1587c8378955de40f48b4bd1869f0</title>
<path fill="none" stroke="black" d="M52.7397,-143.903C52.6172,-125.959 52.8459,-96.9447 55,-72 55.7318,-63.5256 56.9609,-54.346 58.2389,-46.0451"/>
<polygon fill="black" stroke="black" points="61.7025,-46.5515 59.8501,-36.1199 54.7929,-45.4298 61.7025,-46.5515"/>
<g id="a_edge5&#45;headlabel"><a xlink:href="dir_000003_000018.html" target="_top" xlink:title="344">
<text text-anchor="middle" x="63.9291" y="-48.0546" font-family="Helvetica,sans-Serif" font-size="10.00">344</text>
</a>
</g>
</g>
<!-- dir_2eec376824a17f48dc36b4bd0c810e01&#45;&gt;dir_c44c95bf3b41c3321c6014770d618ac8 -->
<g id="edge6" class="edge"><title>dir_2eec376824a17f48dc36b4bd0c810e01&#45;&gt;dir_c44c95bf3b41c3321c6014770d618ac8</title>
<path fill="none" stroke="black" d="M62.3933,-143.697C66.7649,-135.644 72.0573,-125.894 76.8953,-116.982"/>
<polygon fill="black" stroke="black" points="80.0198,-118.563 81.7148,-108.104 73.8678,-115.223 80.0198,-118.563"/>
<g id="a_edge6&#45;headlabel"><a xlink:href="dir_000003_000059.html" target="_top" xlink:title="58">
<text text-anchor="middle" x="80.8002" y="-120.576" font-family="Helvetica,sans-Serif" font-size="10.00">58</text>
</a>
</g>
</g>
</g>
</svg>
