<?xml version="1.0" encoding="UTF-8" standalone="no"?>
<!DOCTYPE svg PUBLIC "-//W3C//DTD SVG 1.1//EN"
 "http://www.w3.org/Graphics/SVG/1.1/DTD/svg11.dtd">
<!-- Generated by graphviz version 2.36.0 (20140111.2315)
 -->
<!-- Title: src/analysis/slowcontrol/variables Pages: 1 -->
<svg width="199pt" height="295pt"
 viewBox="0.00 0.00 199.02 295.00" xmlns="http://www.w3.org/2000/svg" xmlns:xlink="http://www.w3.org/1999/xlink">
<g id="graph0" class="graph" transform="scale(1 1) rotate(0) translate(4 291)">
<title>src/analysis/slowcontrol/variables</title>
<polygon fill="white" stroke="none" points="-4,4 -4,-291 195.02,-291 195.02,4 -4,4"/>
<g id="clust1" class="cluster"><title>clusterdir_f7cc278301683119f8719a92f4ffdd26</title>
<g id="a_clust1"><a xlink:href="dir_f7cc278301683119f8719a92f4ffdd26.html" target="_top" xlink:title="slowcontrol">
<polygon fill="#ddddee" stroke="black" points="84,-208 84,-279 156,-279 156,-208 84,-208"/>
<text text-anchor="middle" x="120" y="-267" font-family="Helvetica,sans-Serif" font-size="10.00">slowcontrol</text>
</a>
</g>
</g>
<!-- dir_97d7ae7e922b766f0c3724741ecf7645 -->
<g id="node1" class="node"><title>dir_97d7ae7e922b766f0c3724741ecf7645</title>
<g id="a_node1"><a xlink:href="dir_97d7ae7e922b766f0c3724741ecf7645.html" target="_top" xlink:title="variables">
<polygon fill="#eeeeff" stroke="black" points="147.5,-252 92.5,-252 92.5,-216 147.5,-216 147.5,-252"/>
<text text-anchor="middle" x="120" y="-231.5" font-family="Helvetica,sans-Serif" font-size="10.00">variables</text>
</a>
</g>
</g>
<!-- dir_4454ae6065d7630381486b11e7157943 -->
<g id="node2" class="node"><title>dir_4454ae6065d7630381486b11e7157943</title>
<g id="a_node2"><a xlink:href="dir_4454ae6065d7630381486b11e7157943.html" target="_top" xlink:title="processors">
<polygon fill="none" stroke="black" points="64.25,-180 -0.25,-180 -0.25,-144 64.25,-144 64.25,-180"/>
<text text-anchor="middle" x="32" y="-159.5" font-family="Helvetica,sans-Serif" font-size="10.00">processors</text>
</a>
</g>
</g>
<!-- dir_97d7ae7e922b766f0c3724741ecf7645&#45;&gt;dir_4454ae6065d7630381486b11e7157943 -->
<g id="edge4" class="edge"><title>dir_97d7ae7e922b766f0c3724741ecf7645&#45;&gt;dir_4454ae6065d7630381486b11e7157943</title>
<path fill="none" stroke="black" d="M98.2472,-215.697C87.1643,-206.881 73.526,-196.032 61.5104,-186.474"/>
<polygon fill="black" stroke="black" points="63.5075,-183.59 53.5026,-180.104 59.1498,-189.069 63.5075,-183.59"/>
<g id="a_edge4&#45;headlabel"><a xlink:href="dir_000038_000037.html" target="_top" xlink:title="1">
<text text-anchor="middle" x="68.0881" y="-181.106" font-family="Helvetica,sans-Serif" font-size="10.00">1</text>
</a>
</g>
</g>
<!-- dir_0af1587c8378955de40f48b4bd1869f0 -->
<g id="node3" class="node"><title>dir_0af1587c8378955de40f48b4bd1869f0</title>
<g id="a_node3"><a xlink:href="dir_0af1587c8378955de40f48b4bd1869f0.html" target="_top" xlink:title="base">
<polygon fill="white" stroke="red" points="148,-36 94,-36 94,-0 148,-0 148,-36"/>
<text text-anchor="middle" x="121" y="-15.5" font-family="Helvetica,sans-Serif" font-size="10.00">base</text>
</a>
</g>
</g>
<!-- dir_97d7ae7e922b766f0c3724741ecf7645&#45;&gt;dir_0af1587c8378955de40f48b4bd1869f0 -->
<g id="edge5" class="edge"><title>dir_97d7ae7e922b766f0c3724741ecf7645&#45;&gt;dir_0af1587c8378955de40f48b4bd1869f0</title>
<path fill="none" stroke="black" d="M147.76,-217.951C161.379,-208.92 176.449,-196.058 184,-180 206.043,-133.125 169.736,-76.2825 143.732,-44.2141"/>
<polygon fill="black" stroke="black" points="146.158,-41.6592 137.057,-36.2353 140.789,-46.151 146.158,-41.6592"/>
<g id="a_edge5&#45;headlabel"><a xlink:href="dir_000038_000018.html" target="_top" xlink:title="10">
<text text-anchor="middle" x="150.642" y="-40.0942" font-family="Helvetica,sans-Serif" font-size="10.00">10</text>
</a>
</g>
</g>
<!-- dir_c4f4646ab0f4a2967be5b6215a500c22 -->
<g id="node4" class="node"><title>dir_c4f4646ab0f4a2967be5b6215a500c22</title>
<g id="a_node4"><a xlink:href="dir_c4f4646ab0f4a2967be5b6215a500c22.html" target="_top" xlink:title="expconfig">
<polygon fill="white" stroke="red" points="121.25,-108 62.75,-108 62.75,-72 121.25,-72 121.25,-108"/>
<text text-anchor="middle" x="92" y="-87.5" font-family="Helvetica,sans-Serif" font-size="10.00">expconfig</text>
</a>
</g>
</g>
<!-- dir_97d7ae7e922b766f0c3724741ecf7645&#45;&gt;dir_c4f4646ab0f4a2967be5b6215a500c22 -->
<g id="edge6" class="edge"><title>dir_97d7ae7e922b766f0c3724741ecf7645&#45;&gt;dir_c4f4646ab0f4a2967be5b6215a500c22</title>
<path fill="none" stroke="black" d="M116.623,-215.871C111.829,-191.564 103.007,-146.819 97.3266,-118.013"/>
<polygon fill="black" stroke="black" points="100.758,-117.323 95.3894,-108.189 93.8902,-118.677 100.758,-117.323"/>
<g id="a_edge6&#45;headlabel"><a xlink:href="dir_000038_000039.html" target="_top" xlink:title="5">
<text text-anchor="middle" x="104.239" y="-117.801" font-family="Helvetica,sans-Serif" font-size="10.00">5</text>
</a>
</g>
</g>
<!-- dir_4d4314fec0337faafb4fd99dc7917bfa -->
<g id="node5" class="node"><title>dir_4d4314fec0337faafb4fd99dc7917bfa</title>
<g id="a_node5"><a xlink:href="dir_4d4314fec0337faafb4fd99dc7917bfa.html" target="_top" xlink:title="input">
<polygon fill="white" stroke="red" points="175,-180 121,-180 121,-144 175,-144 175,-180"/>
<text text-anchor="middle" x="148" y="-159.5" font-family="Helvetica,sans-Serif" font-size="10.00">input</text>
</a>
</g>
</g>
<!-- dir_97d7ae7e922b766f0c3724741ecf7645&#45;&gt;dir_4d4314fec0337faafb4fd99dc7917bfa -->
<g id="edge7" class="edge"><title>dir_97d7ae7e922b766f0c3724741ecf7645&#45;&gt;dir_4d4314fec0337faafb4fd99dc7917bfa</title>
<path fill="none" stroke="black" d="M126.921,-215.697C130.075,-207.813 133.878,-198.304 137.381,-189.546"/>
<polygon fill="black" stroke="black" points="140.694,-190.689 141.158,-180.104 134.195,-188.089 140.694,-190.689"/>
<g id="a_edge7&#45;headlabel"><a xlink:href="dir_000038_000009.html" target="_top" xlink:title="1">
<text text-anchor="middle" x="141.995" y="-192.581" font-family="Helvetica,sans-Serif" font-size="10.00">1</text>
</a>
</g>
</g>
<!-- dir_4454ae6065d7630381486b11e7157943&#45;&gt;dir_0af1587c8378955de40f48b4bd1869f0 -->
<g id="edge1" class="edge"><title>dir_4454ae6065d7630381486b11e7157943&#45;&gt;dir_0af1587c8378955de40f48b4bd1869f0</title>
<path fill="none" stroke="black" d="M32.6866,-143.96C34.1672,-125.02 38.7737,-94.1839 53,-72 61.1273,-59.3266 73.3659,-48.43 85.2303,-39.8706"/>
<polygon fill="black" stroke="black" points="87.4554,-42.5894 93.7391,-34.0591 83.5074,-36.809 87.4554,-42.5894"/>
<g id="a_edge1&#45;headlabel"><a xlink:href="dir_000037_000018.html" target="_top" xlink:title="2">
<text text-anchor="middle" x="86.0884" y="-44.4613" font-family="Helvetica,sans-Serif" font-size="10.00">2</text>
</a>
</g>
</g>
<!-- dir_4454ae6065d7630381486b11e7157943&#45;&gt;dir_c4f4646ab0f4a2967be5b6215a500c22 -->
<g id="edge2" class="edge"><title>dir_4454ae6065d7630381486b11e7157943&#45;&gt;dir_c4f4646ab0f4a2967be5b6215a500c22</title>
<path fill="none" stroke="black" d="M46.8315,-143.697C54.0247,-135.305 62.7967,-125.07 70.6903,-115.861"/>
<polygon fill="black" stroke="black" points="73.4886,-117.975 77.3391,-108.104 68.1738,-113.419 73.4886,-117.975"/>
<g id="a_edge2&#45;headlabel"><a xlink:href="dir_000037_000039.html" target="_top" xlink:title="7">
<text text-anchor="middle" x="73.305" y="-120.052" font-family="Helvetica,sans-Serif" font-size="10.00">7</text>
</a>
</g>
</g>
<!-- dir_c4f4646ab0f4a2967be5b6215a500c22&#45;&gt;dir_0af1587c8378955de40f48b4bd1869f0 -->
<g id="edge3" class="edge"><title>dir_c4f4646ab0f4a2967be5b6215a500c22&#45;&gt;dir_0af1587c8378955de40f48b4bd1869f0</title>
<path fill="none" stroke="black" d="M99.1685,-71.6966C102.435,-63.8132 106.374,-54.3042 110.002,-45.5464"/>
<polygon fill="black" stroke="black" points="113.32,-46.6825 113.914,-36.1043 106.853,-44.0033 113.32,-46.6825"/>
<g id="a_edge3&#45;headlabel"><a xlink:href="dir_000039_000018.html" target="_top" xlink:title="43">
<text text-anchor="middle" x="114.567" y="-48.5901" font-family="Helvetica,sans-Serif" font-size="10.00">43</text>
</a>
</g>
</g>
<!-- dir_4d4314fec0337faafb4fd99dc7917bfa&#45;&gt;dir_0af1587c8378955de40f48b4bd1869f0 -->
<g id="edge8" class="edge"><title>dir_4d4314fec0337faafb4fd99dc7917bfa&#45;&gt;dir_0af1587c8378955de40f48b4bd1869f0</title>
<path fill="none" stroke="black" d="M144.743,-143.871C140.142,-119.67 131.688,-75.2108 126.209,-46.3932"/>
<polygon fill="black" stroke="black" points="129.575,-45.3594 124.268,-36.1893 122.698,-46.6671 129.575,-45.3594"/>
<g id="a_edge8&#45;headlabel"><a xlink:href="dir_000009_000018.html" target="_top" xlink:title="17">
<text text-anchor="middle" x="133.035" y="-45.8605" font-family="Helvetica,sans-Serif" font-size="10.00">17</text>
</a>
</g>
</g>
<!-- dir_4d4314fec0337faafb4fd99dc7917bfa&#45;&gt;dir_c4f4646ab0f4a2967be5b6215a500c22 -->
<g id="edge9" class="edge"><title>dir_4d4314fec0337faafb4fd99dc7917bfa&#45;&gt;dir_c4f4646ab0f4a2967be5b6215a500c22</title>
<path fill="none" stroke="black" d="M134.157,-143.697C127.511,-135.389 119.422,-125.277 112.113,-116.141"/>
<polygon fill="black" stroke="black" points="114.664,-113.727 105.683,-108.104 109.197,-118.099 114.664,-113.727"/>
<g id="a_edge9&#45;headlabel"><a xlink:href="dir_000009_000039.html" target="_top" xlink:title="3">
<text text-anchor="middle" x="119.126" y="-112.26" font-family="Helvetica,sans-Serif" font-size="10.00">3</text>
</a>
</g>
</g>
</g>
</svg>
