<?xml version="1.0" encoding="UTF-8" standalone="no"?>
<!DOCTYPE svg PUBLIC "-//W3C//DTD SVG 1.1//EN"
 "http://www.w3.org/Graphics/SVG/1.1/DTD/svg11.dtd">
<!-- Generated by graphviz version 2.36.0 (20140111.2315)
 -->
<!-- Title: src/expconfig Pages: 1 -->
<svg width="350pt" height="447pt"
 viewBox="0.00 0.00 349.82 447.00" xmlns="http://www.w3.org/2000/svg" xmlns:xlink="http://www.w3.org/1999/xlink">
<g id="graph0" class="graph" transform="scale(1 1) rotate(0) translate(4 443)">
<title>src/expconfig</title>
<polygon fill="white" stroke="none" points="-4,4 -4,-443 345.816,-443 345.816,4 -4,4"/>
<g id="clust1" class="cluster"><title>clusterdir_68267d1309a1af8e8297ef4c3efbcdba</title>
<g id="a_clust1"><a xlink:href="dir_68267d1309a1af8e8297ef4c3efbcdba.html" target="_top" xlink:title="src">
<polygon fill="#ddddee" stroke="black" points="70.8162,-200 70.8162,-431 162.816,-431 162.816,-200 70.8162,-200"/>
<text text-anchor="middle" x="116.816" y="-419" font-family="Helvetica,sans-Serif" font-size="10.00">src</text>
</a>
</g>
</g>
<g id="clust2" class="cluster"><title>clusterdir_c4f4646ab0f4a2967be5b6215a500c22</title>
<g id="a_clust2"><a xlink:href="dir_c4f4646ab0f4a2967be5b6215a500c22.html" target="_top">
<polygon fill="#eeeeff" stroke="black" points="78.8162,-208 78.8162,-404 154.816,-404 154.816,-208 78.8162,-208"/>
</a>
</g>
</g>
<!-- dir_c4f4646ab0f4a2967be5b6215a500c22 -->
<g id="node1" class="node"><title>dir_c4f4646ab0f4a2967be5b6215a500c22</title>
<text text-anchor="middle" x="116.816" y="-375.5" font-family="Helvetica,sans-Serif" font-size="10.00">expconfig</text>
</g>
<!-- dir_3d468596428ffb12814829a3f430a3ed -->
<g id="node3" class="node"><title>dir_3d468596428ffb12814829a3f430a3ed</title>
<g id="a_node3"><a xlink:href="dir_3d468596428ffb12814829a3f430a3ed.html" target="_top" xlink:title="setups">
<polygon fill="white" stroke="black" points="142.816,-324 88.8162,-324 88.8162,-288 142.816,-288 142.816,-324"/>
<text text-anchor="middle" x="115.816" y="-303.5" font-family="Helvetica,sans-Serif" font-size="10.00">setups</text>
</a>
</g>
</g>
<!-- dir_c4f4646ab0f4a2967be5b6215a500c22&#45;&gt;dir_3d468596428ffb12814829a3f430a3ed -->
<g id="edge17" class="edge"><title>dir_c4f4646ab0f4a2967be5b6215a500c22&#45;&gt;dir_3d468596428ffb12814829a3f430a3ed</title>
<path fill="none" stroke="black" d="M116.569,-359.697C116.459,-351.983 116.326,-342.712 116.204,-334.112"/>
<polygon fill="black" stroke="black" points="119.703,-334.053 116.061,-324.104 112.704,-334.153 119.703,-334.053"/>
<g id="a_edge17&#45;headlabel"><a xlink:href="dir_000039_000050.html" target="_top" xlink:title="1">
<text text-anchor="middle" x="122.593" y="-335.107" font-family="Helvetica,sans-Serif" font-size="10.00">1</text>
</a>
</g>
</g>
<!-- dir_f1b881a94df93d2a183c4d8f47373448 -->
<g id="node6" class="node"><title>dir_f1b881a94df93d2a183c4d8f47373448</title>
<g id="a_node6"><a xlink:href="dir_f1b881a94df93d2a183c4d8f47373448.html" target="_top" xlink:title="calibration">
<polygon fill="white" stroke="red" points="241.066,-324 180.566,-324 180.566,-288 241.066,-288 241.066,-324"/>
<text text-anchor="middle" x="210.816" y="-303.5" font-family="Helvetica,sans-Serif" font-size="10.00">calibration</text>
</a>
</g>
</g>
<!-- dir_c4f4646ab0f4a2967be5b6215a500c22&#45;&gt;dir_f1b881a94df93d2a183c4d8f47373448 -->
<g id="edge18" class="edge"><title>dir_c4f4646ab0f4a2967be5b6215a500c22&#45;&gt;dir_f1b881a94df93d2a183c4d8f47373448</title>
<path fill="none" stroke="black" d="M140.052,-359.697C152.004,-350.796 166.739,-339.823 179.663,-330.199"/>
<polygon fill="black" stroke="black" points="181.918,-332.884 187.848,-324.104 177.737,-327.27 181.918,-332.884"/>
<g id="a_edge18&#45;headlabel"><a xlink:href="dir_000039_000016.html" target="_top" xlink:title="241">
<text text-anchor="middle" x="180.73" y="-334.808" font-family="Helvetica,sans-Serif" font-size="10.00">241</text>
</a>
</g>
</g>
<!-- dir_f0b5461fe6d76f238177302312df4359 -->
<g id="node2" class="node"><title>dir_f0b5461fe6d76f238177302312df4359</title>
<g id="a_node2"><a xlink:href="dir_f0b5461fe6d76f238177302312df4359.html" target="_top" xlink:title="detectors">
<polygon fill="white" stroke="red" points="144.066,-252 87.5662,-252 87.5662,-216 144.066,-216 144.066,-252"/>
<text text-anchor="middle" x="115.816" y="-231.5" font-family="Helvetica,sans-Serif" font-size="10.00">detectors</text>
</a>
</g>
</g>
<!-- dir_0af1587c8378955de40f48b4bd1869f0 -->
<g id="node4" class="node"><title>dir_0af1587c8378955de40f48b4bd1869f0</title>
<g id="a_node4"><a xlink:href="dir_0af1587c8378955de40f48b4bd1869f0.html" target="_top" xlink:title="base">
<polygon fill="white" stroke="red" points="156.816,-36 102.816,-36 102.816,-0 156.816,-0 156.816,-36"/>
<text text-anchor="middle" x="129.816" y="-15.5" font-family="Helvetica,sans-Serif" font-size="10.00">base</text>
</a>
</g>
</g>
<!-- dir_f0b5461fe6d76f238177302312df4359&#45;&gt;dir_0af1587c8378955de40f48b4bd1869f0 -->
<g id="edge6" class="edge"><title>dir_f0b5461fe6d76f238177302312df4359&#45;&gt;dir_0af1587c8378955de40f48b4bd1869f0</title>
<path fill="none" stroke="black" d="M116.938,-215.849C119.36,-178.832 125.094,-91.1809 128.025,-46.3863"/>
<polygon fill="black" stroke="black" points="131.528,-46.4396 128.689,-36.2325 124.543,-45.9826 131.528,-46.4396"/>
<g id="a_edge6&#45;headlabel"><a xlink:href="dir_000040_000018.html" target="_top" xlink:title="11">
<text text-anchor="middle" x="134.127" y="-47.7119" font-family="Helvetica,sans-Serif" font-size="10.00">11</text>
</a>
</g>
</g>
<!-- dir_c44c95bf3b41c3321c6014770d618ac8 -->
<g id="node5" class="node"><title>dir_c44c95bf3b41c3321c6014770d618ac8</title>
<g id="a_node5"><a xlink:href="dir_c44c95bf3b41c3321c6014770d618ac8.html" target="_top" xlink:title="tree">
<polygon fill="none" stroke="black" points="189.816,-108 135.816,-108 135.816,-72 189.816,-72 189.816,-108"/>
<text text-anchor="middle" x="162.816" y="-87.5" font-family="Helvetica,sans-Serif" font-size="10.00">tree</text>
</a>
</g>
</g>
<!-- dir_f0b5461fe6d76f238177302312df4359&#45;&gt;dir_c44c95bf3b41c3321c6014770d618ac8 -->
<g id="edge7" class="edge"><title>dir_f0b5461fe6d76f238177302312df4359&#45;&gt;dir_c44c95bf3b41c3321c6014770d618ac8</title>
<path fill="none" stroke="black" d="M121.486,-215.871C129.531,-191.564 144.341,-146.819 153.875,-118.013"/>
<polygon fill="black" stroke="black" points="157.307,-118.783 157.127,-108.189 150.662,-116.583 157.307,-118.783"/>
<g id="a_edge7&#45;headlabel"><a xlink:href="dir_000040_000059.html" target="_top" xlink:title="8">
<text text-anchor="middle" x="158.873" y="-120.587" font-family="Helvetica,sans-Serif" font-size="10.00">8</text>
</a>
</g>
</g>
<!-- dir_da9e88029a658bab9ad39bb8696ef9bc -->
<g id="node7" class="node"><title>dir_da9e88029a658bab9ad39bb8696ef9bc</title>
<g id="a_node7"><a xlink:href="dir_da9e88029a658bab9ad39bb8696ef9bc.html" target="_top" xlink:title="unpacker">
<polygon fill="white" stroke="red" points="68.3162,-180 13.3162,-180 13.3162,-144 68.3162,-144 68.3162,-180"/>
<text text-anchor="middle" x="40.8162" y="-159.5" font-family="Helvetica,sans-Serif" font-size="10.00">unpacker</text>
</a>
</g>
</g>
<!-- dir_f0b5461fe6d76f238177302312df4359&#45;&gt;dir_da9e88029a658bab9ad39bb8696ef9bc -->
<g id="edge8" class="edge"><title>dir_f0b5461fe6d76f238177302312df4359&#45;&gt;dir_da9e88029a658bab9ad39bb8696ef9bc</title>
<path fill="none" stroke="black" d="M97.2769,-215.697C88.0129,-207.05 76.6539,-196.449 66.5595,-187.027"/>
<polygon fill="black" stroke="black" points="68.841,-184.369 59.1423,-180.104 64.0647,-189.486 68.841,-184.369"/>
<g id="a_edge8&#45;headlabel"><a xlink:href="dir_000040_000060.html" target="_top" xlink:title="8">
<text text-anchor="middle" x="73.4061" y="-182.246" font-family="Helvetica,sans-Serif" font-size="10.00">8</text>
</a>
</g>
</g>
<!-- dir_5eb03804bf445589bf35c6aa84fb9a34 -->
<g id="node8" class="node"><title>dir_5eb03804bf445589bf35c6aa84fb9a34</title>
<g id="a_node8"><a xlink:href="dir_5eb03804bf445589bf35c6aa84fb9a34.html" target="_top" xlink:title="reconstruct">
<polygon fill="white" stroke="red" points="342.066,-252 277.566,-252 277.566,-216 342.066,-216 342.066,-252"/>
<text text-anchor="middle" x="309.816" y="-231.5" font-family="Helvetica,sans-Serif" font-size="10.00">reconstruct</text>
</a>
</g>
</g>
<!-- dir_f0b5461fe6d76f238177302312df4359&#45;&gt;dir_5eb03804bf445589bf35c6aa84fb9a34 -->
<g id="edge9" class="edge"><title>dir_f0b5461fe6d76f238177302312df4359&#45;&gt;dir_5eb03804bf445589bf35c6aa84fb9a34</title>
<path fill="none" stroke="black" d="M144.234,-234C185.265,-234 226.296,-234 267.327,-234"/>
<polygon fill="black" stroke="black" points="267.476,-237.5 277.476,-234 267.476,-230.5 267.476,-237.5"/>
<g id="a_edge9&#45;headlabel"><a xlink:href="dir_000040_000056.html" target="_top" xlink:title="1">
<text text-anchor="middle" x="263.881" y="-237.839" font-family="Helvetica,sans-Serif" font-size="10.00">1</text>
</a>
</g>
</g>
<!-- dir_3d468596428ffb12814829a3f430a3ed&#45;&gt;dir_f0b5461fe6d76f238177302312df4359 -->
<g id="edge1" class="edge"><title>dir_3d468596428ffb12814829a3f430a3ed&#45;&gt;dir_f0b5461fe6d76f238177302312df4359</title>
<path fill="none" stroke="black" d="M115.816,-287.697C115.816,-279.983 115.816,-270.712 115.816,-262.112"/>
<polygon fill="black" stroke="black" points="119.316,-262.104 115.816,-252.104 112.316,-262.104 119.316,-262.104"/>
<g id="a_edge1&#45;headlabel"><a xlink:href="dir_000050_000040.html" target="_top" xlink:title="70">
<text text-anchor="middle" x="122.155" y="-263.199" font-family="Helvetica,sans-Serif" font-size="10.00">70</text>
</a>
</g>
</g>
<!-- dir_3d468596428ffb12814829a3f430a3ed&#45;&gt;dir_0af1587c8378955de40f48b4bd1869f0 -->
<g id="edge2" class="edge"><title>dir_3d468596428ffb12814829a3f430a3ed&#45;&gt;dir_0af1587c8378955de40f48b4bd1869f0</title>
<path fill="none" stroke="black" d="M89.0766,-287.795C49.8764,-260.195 -16.4611,-203.099 3.81621,-144 19.4011,-98.5773 62.7077,-62.1328 94.2072,-40.5693"/>
<polygon fill="black" stroke="black" points="96.3599,-43.3409 102.746,-34.8868 92.4816,-37.5135 96.3599,-43.3409"/>
<g id="a_edge2&#45;headlabel"><a xlink:href="dir_000050_000018.html" target="_top" xlink:title="29">
<text text-anchor="middle" x="94.9405" y="-45.1961" font-family="Helvetica,sans-Serif" font-size="10.00">29</text>
</a>
</g>
</g>
<!-- dir_3d468596428ffb12814829a3f430a3ed&#45;&gt;dir_c44c95bf3b41c3321c6014770d618ac8 -->
<g id="edge3" class="edge"><title>dir_3d468596428ffb12814829a3f430a3ed&#45;&gt;dir_c44c95bf3b41c3321c6014770d618ac8</title>
<path fill="none" stroke="black" d="M131.526,-287.737C139.407,-277.983 148.232,-265.138 152.816,-252 168.484,-207.101 167.767,-150.93 165.507,-118.195"/>
<polygon fill="black" stroke="black" points="168.982,-117.735 164.703,-108.042 162.004,-118.287 168.982,-117.735"/>
<g id="a_edge3&#45;headlabel"><a xlink:href="dir_000050_000059.html" target="_top" xlink:title="1">
<text text-anchor="middle" x="172.096" y="-118.594" font-family="Helvetica,sans-Serif" font-size="10.00">1</text>
</a>
</g>
</g>
<!-- dir_3d468596428ffb12814829a3f430a3ed&#45;&gt;dir_f1b881a94df93d2a183c4d8f47373448 -->
<g id="edge4" class="edge"><title>dir_3d468596428ffb12814829a3f430a3ed&#45;&gt;dir_f1b881a94df93d2a183c4d8f47373448</title>
<path fill="none" stroke="black" d="M142.906,-306C151.965,-306 161.023,-306 170.082,-306"/>
<polygon fill="black" stroke="black" points="170.31,-309.5 180.31,-306 170.31,-302.5 170.31,-309.5"/>
<g id="a_edge4&#45;headlabel"><a xlink:href="dir_000050_000016.html" target="_top" xlink:title="240">
<text text-anchor="middle" x="166.715" y="-309.839" font-family="Helvetica,sans-Serif" font-size="10.00">240</text>
</a>
</g>
</g>
<!-- dir_3d468596428ffb12814829a3f430a3ed&#45;&gt;dir_da9e88029a658bab9ad39bb8696ef9bc -->
<g id="edge5" class="edge"><title>dir_3d468596428ffb12814829a3f430a3ed&#45;&gt;dir_da9e88029a658bab9ad39bb8696ef9bc</title>
<path fill="none" stroke="black" d="M102.103,-287.997C94.3658,-277.912 84.8658,-264.662 77.8162,-252 66.6732,-231.986 56.8673,-207.927 50.1549,-189.872"/>
<polygon fill="black" stroke="black" points="53.3697,-188.471 46.6644,-180.268 46.7907,-190.862 53.3697,-188.471"/>
<g id="a_edge5&#45;headlabel"><a xlink:href="dir_000050_000060.html" target="_top" xlink:title="2">
<text text-anchor="middle" x="57.2659" y="-188.379" font-family="Helvetica,sans-Serif" font-size="10.00">2</text>
</a>
</g>
</g>
<!-- dir_c44c95bf3b41c3321c6014770d618ac8&#45;&gt;dir_0af1587c8378955de40f48b4bd1869f0 -->
<g id="edge10" class="edge"><title>dir_c44c95bf3b41c3321c6014770d618ac8&#45;&gt;dir_0af1587c8378955de40f48b4bd1869f0</title>
<path fill="none" stroke="black" d="M154.659,-71.6966C150.902,-63.7284 146.363,-54.0995 142.198,-45.2641"/>
<polygon fill="black" stroke="black" points="145.31,-43.6571 137.88,-36.1043 138.978,-46.6421 145.31,-43.6571"/>
<g id="a_edge10&#45;headlabel"><a xlink:href="dir_000059_000018.html" target="_top" xlink:title="25">
<text text-anchor="middle" x="149.411" y="-43.1978" font-family="Helvetica,sans-Serif" font-size="10.00">25</text>
</a>
</g>
</g>
<!-- dir_f1b881a94df93d2a183c4d8f47373448&#45;&gt;dir_f0b5461fe6d76f238177302312df4359 -->
<g id="edge11" class="edge"><title>dir_f1b881a94df93d2a183c4d8f47373448&#45;&gt;dir_f0b5461fe6d76f238177302312df4359</title>
<path fill="none" stroke="black" d="M187.333,-287.697C175.254,-278.796 160.362,-267.823 147.3,-258.199"/>
<polygon fill="black" stroke="black" points="149.156,-255.219 139.029,-252.104 145.004,-260.854 149.156,-255.219"/>
<g id="a_edge11&#45;headlabel"><a xlink:href="dir_000016_000040.html" target="_top" xlink:title="12">
<text text-anchor="middle" x="153.734" y="-252.565" font-family="Helvetica,sans-Serif" font-size="10.00">12</text>
</a>
</g>
</g>
<!-- dir_f1b881a94df93d2a183c4d8f47373448&#45;&gt;dir_0af1587c8378955de40f48b4bd1869f0 -->
<g id="edge12" class="edge"><title>dir_f1b881a94df93d2a183c4d8f47373448&#45;&gt;dir_0af1587c8378955de40f48b4bd1869f0</title>
<path fill="none" stroke="black" d="M214.794,-287.791C223.21,-247.156 238.928,-143.313 198.816,-72 191.055,-58.201 178.082,-46.817 165.467,-38.1836"/>
<polygon fill="black" stroke="black" points="167.163,-35.1133 156.859,-32.6502 163.378,-41.0017 167.163,-35.1133"/>
<g id="a_edge12&#45;headlabel"><a xlink:href="dir_000016_000018.html" target="_top" xlink:title="111">
<text text-anchor="middle" x="171.722" y="-32.1686" font-family="Helvetica,sans-Serif" font-size="10.00">111</text>
</a>
</g>
</g>
<!-- dir_f1b881a94df93d2a183c4d8f47373448&#45;&gt;dir_c44c95bf3b41c3321c6014770d618ac8 -->
<g id="edge13" class="edge"><title>dir_f1b881a94df93d2a183c4d8f47373448&#45;&gt;dir_c44c95bf3b41c3321c6014770d618ac8</title>
<path fill="none" stroke="black" d="M208.454,-287.902C204.181,-258.301 194.341,-195.714 180.816,-144 178.579,-135.445 175.657,-126.275 172.821,-118.008"/>
<polygon fill="black" stroke="black" points="176.085,-116.739 169.456,-108.475 169.484,-119.07 176.085,-116.739"/>
<g id="a_edge13&#45;headlabel"><a xlink:href="dir_000016_000059.html" target="_top" xlink:title="30">
<text text-anchor="middle" x="179.959" y="-116.684" font-family="Helvetica,sans-Serif" font-size="10.00">30</text>
</a>
</g>
</g>
<!-- dir_f1b881a94df93d2a183c4d8f47373448&#45;&gt;dir_5eb03804bf445589bf35c6aa84fb9a34 -->
<g id="edge14" class="edge"><title>dir_f1b881a94df93d2a183c4d8f47373448&#45;&gt;dir_5eb03804bf445589bf35c6aa84fb9a34</title>
<path fill="none" stroke="black" d="M235.034,-287.876C247.739,-278.893 263.481,-267.763 277.239,-258.034"/>
<polygon fill="black" stroke="black" points="279.361,-260.821 285.505,-252.19 275.319,-255.105 279.361,-260.821"/>
<g id="a_edge14&#45;headlabel"><a xlink:href="dir_000016_000056.html" target="_top" xlink:title="3">
<text text-anchor="middle" x="278.065" y="-262.714" font-family="Helvetica,sans-Serif" font-size="10.00">3</text>
</a>
</g>
</g>
<!-- dir_da9e88029a658bab9ad39bb8696ef9bc&#45;&gt;dir_0af1587c8378955de40f48b4bd1869f0 -->
<g id="edge15" class="edge"><title>dir_da9e88029a658bab9ad39bb8696ef9bc&#45;&gt;dir_0af1587c8378955de40f48b4bd1869f0</title>
<path fill="none" stroke="black" d="M47.2118,-143.84C54.4887,-125.336 67.3856,-95.3886 82.8162,-72 89.3496,-62.0971 97.6331,-52.1315 105.42,-43.5568"/>
<polygon fill="black" stroke="black" points="108.102,-45.813 112.367,-36.1147 102.985,-41.0364 108.102,-45.813"/>
<g id="a_edge15&#45;headlabel"><a xlink:href="dir_000060_000018.html" target="_top" xlink:title="15">
<text text-anchor="middle" x="107.724" y="-47.8781" font-family="Helvetica,sans-Serif" font-size="10.00">15</text>
</a>
</g>
</g>
<!-- dir_da9e88029a658bab9ad39bb8696ef9bc&#45;&gt;dir_c44c95bf3b41c3321c6014770d618ac8 -->
<g id="edge16" class="edge"><title>dir_da9e88029a658bab9ad39bb8696ef9bc&#45;&gt;dir_c44c95bf3b41c3321c6014770d618ac8</title>
<path fill="none" stroke="black" d="M68.4999,-145.116C85.779,-135.202 108.203,-122.335 126.851,-111.636"/>
<polygon fill="black" stroke="black" points="128.731,-114.593 135.662,-106.58 125.247,-108.521 128.731,-114.593"/>
<g id="a_edge16&#45;headlabel"><a xlink:href="dir_000060_000059.html" target="_top" xlink:title="10">
<text text-anchor="middle" x="127.026" y="-116.344" font-family="Helvetica,sans-Serif" font-size="10.00">10</text>
</a>
</g>
</g>
<!-- dir_5eb03804bf445589bf35c6aa84fb9a34&#45;&gt;dir_c4f4646ab0f4a2967be5b6215a500c22 -->
<g id="edge22" class="edge"><title>dir_5eb03804bf445589bf35c6aa84fb9a34&#45;&gt;dir_c4f4646ab0f4a2967be5b6215a500c22</title>
<path fill="none" stroke="black" d="M302.233,-252.003C292.63,-271.78 274.335,-304.236 249.816,-324 222.326,-346.159 184.391,-360.045 156.069,-368.017"/>
<polygon fill="black" stroke="black" points="154.857,-364.718 146.106,-370.691 156.672,-371.479 154.857,-364.718"/>
<g id="a_edge22&#45;headlabel"><a xlink:href="dir_000056_000039.html" target="_top" xlink:title="7">
<text text-anchor="middle" x="157.593" y="-358.544" font-family="Helvetica,sans-Serif" font-size="10.00">7</text>
</a>
</g>
</g>
<!-- dir_5eb03804bf445589bf35c6aa84fb9a34&#45;&gt;dir_f0b5461fe6d76f238177302312df4359 -->
<g id="edge19" class="edge"><title>dir_5eb03804bf445589bf35c6aa84fb9a34&#45;&gt;dir_f0b5461fe6d76f238177302312df4359</title>
<path fill="none" stroke="black" d="M277.476,-234C236.445,-234 195.414,-234 154.383,-234"/>
<polygon fill="black" stroke="black" points="154.234,-230.5 144.234,-234 154.234,-237.5 154.234,-230.5"/>
<g id="a_edge19&#45;headlabel"><a xlink:href="dir_000056_000040.html" target="_top" xlink:title="4">
<text text-anchor="middle" x="157.829" y="-225.161" font-family="Helvetica,sans-Serif" font-size="10.00">4</text>
</a>
</g>
</g>
<!-- dir_5eb03804bf445589bf35c6aa84fb9a34&#45;&gt;dir_0af1587c8378955de40f48b4bd1869f0 -->
<g id="edge20" class="edge"><title>dir_5eb03804bf445589bf35c6aa84fb9a34&#45;&gt;dir_0af1587c8378955de40f48b4bd1869f0</title>
<path fill="none" stroke="black" d="M309.524,-215.6C308.057,-183.246 300.423,-113.368 262.816,-72 237.914,-44.6069 196.969,-31.1484 167.078,-24.6825"/>
<polygon fill="black" stroke="black" points="167.501,-21.1982 157.01,-22.6757 166.133,-28.0631 167.501,-21.1982"/>
<g id="a_edge20&#45;headlabel"><a xlink:href="dir_000056_000018.html" target="_top" xlink:title="11">
<text text-anchor="middle" x="171.582" y="-16.6163" font-family="Helvetica,sans-Serif" font-size="10.00">11</text>
</a>
</g>
</g>
<!-- dir_5eb03804bf445589bf35c6aa84fb9a34&#45;&gt;dir_c44c95bf3b41c3321c6014770d618ac8 -->
<g id="edge21" class="edge"><title>dir_5eb03804bf445589bf35c6aa84fb9a34&#45;&gt;dir_c44c95bf3b41c3321c6014770d618ac8</title>
<path fill="none" stroke="black" d="M294.328,-215.775C277.655,-197.474 250.112,-167.938 224.816,-144 214.325,-134.072 202.352,-123.641 191.742,-114.685"/>
<polygon fill="black" stroke="black" points="193.857,-111.891 183.942,-108.156 189.364,-117.258 193.857,-111.891"/>
<g id="a_edge21&#45;headlabel"><a xlink:href="dir_000056_000059.html" target="_top" xlink:title="7">
<text text-anchor="middle" x="198.436" y="-109.521" font-family="Helvetica,sans-Serif" font-size="10.00">7</text>
</a>
</g>
</g>
</g>
</svg>
