<?xml version="1.0" encoding="UTF-8" standalone="no"?>
<!DOCTYPE svg PUBLIC "-//W3C//DTD SVG 1.1//EN"
 "http://www.w3.org/Graphics/SVG/1.1/DTD/svg11.dtd">
<!-- Generated by graphviz version 2.36.0 (20140111.2315)
 -->
<!-- Title: src/analysis/physics/etaprime/etaprime_dalitz.h Pages: 1 -->
<svg width="548pt" height="186pt"
 viewBox="0.00 0.00 548.00 186.00" xmlns="http://www.w3.org/2000/svg" xmlns:xlink="http://www.w3.org/1999/xlink">
<g id="graph0" class="graph" transform="scale(1 1) rotate(0) translate(4 182)">
<title>src/analysis/physics/etaprime/etaprime_dalitz.h</title>
<polygon fill="white" stroke="none" points="-4,4 -4,-182 544,-182 544,4 -4,4"/>
<!-- Node108 -->
<g id="node1" class="node"><title>Node108</title>
<polygon fill="#bfbfbf" stroke="black" points="152,-147 152,-177 286,-177 286,-147 152,-147"/>
<text text-anchor="start" x="160" y="-165" font-family="Helvetica,sans-Serif" font-size="10.00">src/analysis/physics</text>
<text text-anchor="middle" x="219" y="-154" font-family="Helvetica,sans-Serif" font-size="10.00">/etaprime/etaprime_dalitz.h</text>
</g>
<!-- Node109 -->
<g id="node2" class="node"><title>Node109</title>
<g id="a_node2"><a xlink:href="_p_c_a_8cc.html" target="_top" xlink:title="Tool to perform a Principal Component Analysis, based on ROOTs TPrincipal class, to create principal ...">
<polygon fill="white" stroke="black" points="0,-79.5 0,-98.5 78,-98.5 78,-79.5 0,-79.5"/>
<text text-anchor="middle" x="39" y="-86.5" font-family="Helvetica,sans-Serif" font-size="10.00">progs/PCA.cc</text>
</a>
</g>
</g>
<!-- Node108&#45;&gt;Node109 -->
<g id="edge1" class="edge"><title>Node108&#45;&gt;Node109</title>
<path fill="none" stroke="midnightblue" d="M172.543,-143.39C147.196,-133.697 115.303,-121.362 87,-110 77.9518,-106.368 67.9951,-102.241 59.5068,-98.6827"/>
<polygon fill="midnightblue" stroke="midnightblue" points="171.324,-146.671 181.915,-146.968 173.821,-140.132 171.324,-146.671"/>
</g>
<!-- Node110 -->
<g id="node3" class="node"><title>Node110</title>
<g id="a_node3"><a xlink:href="_etap_dalitz__plot_8cc.html" target="_top" xlink:title="src/analysis/physics\l/etaprime/EtapDalitz\l_plot.cc">
<polygon fill="white" stroke="black" points="96,-68.5 96,-109.5 202,-109.5 202,-68.5 96,-68.5"/>
<text text-anchor="start" x="104" y="-97.5" font-family="Helvetica,sans-Serif" font-size="10.00">src/analysis/physics</text>
<text text-anchor="start" x="104" y="-86.5" font-family="Helvetica,sans-Serif" font-size="10.00">/etaprime/EtapDalitz</text>
<text text-anchor="middle" x="149" y="-75.5" font-family="Helvetica,sans-Serif" font-size="10.00">_plot.cc</text>
</a>
</g>
</g>
<!-- Node108&#45;&gt;Node110 -->
<g id="edge2" class="edge"><title>Node108&#45;&gt;Node110</title>
<path fill="none" stroke="midnightblue" d="M198.034,-139.735C188.62,-130.186 177.582,-118.991 168.365,-109.642"/>
<polygon fill="midnightblue" stroke="midnightblue" points="195.657,-142.309 205.17,-146.973 200.642,-137.394 195.657,-142.309"/>
</g>
<!-- Node111 -->
<g id="node4" class="node"><title>Node111</title>
<g id="a_node4"><a xlink:href="etaprime__dalitz_8cc.html" target="_top" xlink:title="src/analysis/physics\l/etaprime/etaprime_dalitz.cc">
<polygon fill="white" stroke="black" points="220,-74 220,-104 360,-104 360,-74 220,-74"/>
<text text-anchor="start" x="228" y="-92" font-family="Helvetica,sans-Serif" font-size="10.00">src/analysis/physics</text>
<text text-anchor="middle" x="290" y="-81" font-family="Helvetica,sans-Serif" font-size="10.00">/etaprime/etaprime_dalitz.cc</text>
</a>
</g>
</g>
<!-- Node108&#45;&gt;Node111 -->
<g id="edge3" class="edge"><title>Node108&#45;&gt;Node111</title>
<path fill="none" stroke="midnightblue" d="M240.119,-139.881C251.53,-128.47 265.326,-114.674 275.514,-104.486"/>
<polygon fill="midnightblue" stroke="midnightblue" points="237.624,-137.427 233.027,-146.973 242.573,-142.376 237.624,-137.427"/>
</g>
<!-- Node112 -->
<g id="node5" class="node"><title>Node112</title>
<g id="a_node5"><a xlink:href="_etap_dalitz_m_c_8h.html" target="_top" xlink:title="src/analysis/physics\l/scratch/wagner/EtapDalitzMC.h">
<polygon fill="white" stroke="black" points="378.5,-74 378.5,-104 537.5,-104 537.5,-74 378.5,-74"/>
<text text-anchor="start" x="386.5" y="-92" font-family="Helvetica,sans-Serif" font-size="10.00">src/analysis/physics</text>
<text text-anchor="middle" x="458" y="-81" font-family="Helvetica,sans-Serif" font-size="10.00">/scratch/wagner/EtapDalitzMC.h</text>
</a>
</g>
</g>
<!-- Node108&#45;&gt;Node112 -->
<g id="edge4" class="edge"><title>Node108&#45;&gt;Node112</title>
<path fill="none" stroke="midnightblue" d="M275.814,-144.122C316.879,-131.923 371.72,-115.631 410.471,-104.12"/>
<polygon fill="midnightblue" stroke="midnightblue" points="274.808,-140.77 266.219,-146.973 276.801,-147.48 274.808,-140.77"/>
</g>
<!-- Node113 -->
<g id="node6" class="node"><title>Node113</title>
<g id="a_node6"><a xlink:href="_etap_dalitz_m_c_8cc.html" target="_top" xlink:title="src/analysis/physics\l/scratch/wagner/EtapDalitzMC.cc">
<polygon fill="white" stroke="black" points="376,-1 376,-31 540,-31 540,-1 376,-1"/>
<text text-anchor="start" x="384" y="-19" font-family="Helvetica,sans-Serif" font-size="10.00">src/analysis/physics</text>
<text text-anchor="middle" x="458" y="-8" font-family="Helvetica,sans-Serif" font-size="10.00">/scratch/wagner/EtapDalitzMC.cc</text>
</a>
</g>
</g>
<!-- Node112&#45;&gt;Node113 -->
<g id="edge5" class="edge"><title>Node112&#45;&gt;Node113</title>
<path fill="none" stroke="midnightblue" d="M458,-63.8976C458,-53.1314 458,-40.8005 458,-31.4856"/>
<polygon fill="midnightblue" stroke="midnightblue" points="454.5,-63.9727 458,-73.9727 461.5,-63.9727 454.5,-63.9727"/>
</g>
</g>
</svg>
