<?xml version="1.0" encoding="UTF-8" standalone="no"?>
<!DOCTYPE svg PUBLIC "-//W3C//DTD SVG 1.1//EN"
 "http://www.w3.org/Graphics/SVG/1.1/DTD/svg11.dtd">
<!-- Generated by graphviz version 2.36.0 (20140111.2315)
 -->
<!-- Title: src/analysis/physics/scratch/collicott/gp_pi0[2g]p.h Pages: 1 -->
<svg width="112pt" height="128pt"
 viewBox="0.00 0.00 112.00 128.00" xmlns="http://www.w3.org/2000/svg" xmlns:xlink="http://www.w3.org/1999/xlink">
<g id="graph0" class="graph" transform="scale(1 1) rotate(0) translate(4 124)">
<title>src/analysis/physics/scratch/collicott/gp_pi0[2g]p.h</title>
<polygon fill="white" stroke="none" points="-4,4 -4,-124 108,-124 108,4 -4,4"/>
<!-- Node91 -->
<g id="node1" class="node"><title>Node91</title>
<polygon fill="#bfbfbf" stroke="black" points="-1,-78.5 -1,-119.5 105,-119.5 105,-78.5 -1,-78.5"/>
<text text-anchor="start" x="7" y="-107.5" font-family="Helvetica,sans-Serif" font-size="10.00">src/analysis/physics</text>
<text text-anchor="start" x="7" y="-96.5" font-family="Helvetica,sans-Serif" font-size="10.00">/scratch/collicott/gp</text>
<text text-anchor="middle" x="52" y="-85.5" font-family="Helvetica,sans-Serif" font-size="10.00">_pi0[2g]p.h</text>
</g>
<!-- Node92 -->
<g id="node2" class="node"><title>Node92</title>
<g id="a_node2"><a xlink:href="gp__pi0[2g]p_8cc.html" target="_top" xlink:title="src/analysis/physics\l/scratch/collicott/gp\l_pi0[2g]p.cc">
<polygon fill="white" stroke="black" points="-1,-0.5 -1,-41.5 105,-41.5 105,-0.5 -1,-0.5"/>
<text text-anchor="start" x="7" y="-29.5" font-family="Helvetica,sans-Serif" font-size="10.00">src/analysis/physics</text>
<text text-anchor="start" x="7" y="-18.5" font-family="Helvetica,sans-Serif" font-size="10.00">/scratch/collicott/gp</text>
<text text-anchor="middle" x="52" y="-7.5" font-family="Helvetica,sans-Serif" font-size="10.00">_pi0[2g]p.cc</text>
</a>
</g>
</g>
<!-- Node91&#45;&gt;Node92 -->
<g id="edge1" class="edge"><title>Node91&#45;&gt;Node92</title>
<path fill="none" stroke="midnightblue" d="M52,-68.2965C52,-59.3009 52,-49.6532 52,-41.5056"/>
<polygon fill="midnightblue" stroke="midnightblue" points="48.5001,-68.4281 52,-78.4281 55.5001,-68.4281 48.5001,-68.4281"/>
</g>
</g>
</svg>
