<?xml version="1.0" encoding="UTF-8" standalone="no"?>
<!DOCTYPE svg PUBLIC "-//W3C//DTD SVG 1.1//EN"
 "http://www.w3.org/Graphics/SVG/1.1/DTD/svg11.dtd">
<!-- Generated by graphviz version 2.36.0 (20140111.2315)
 -->
<!-- Title: src/mc/database/detail/gp_nPiP.h Pages: 1 -->
<svg width="1091pt" height="320pt"
 viewBox="0.00 0.00 1091.00 320.00" xmlns="http://www.w3.org/2000/svg" xmlns:xlink="http://www.w3.org/1999/xlink">
<g id="graph0" class="graph" transform="scale(1 1) rotate(0) translate(4 316)">
<title>src/mc/database/detail/gp_nPiP.h</title>
<polygon fill="white" stroke="none" points="-4,4 -4,-316 1087,-316 1087,4 -4,4"/>
<!-- Node0 -->
<g id="node1" class="node"><title>Node0</title>
<polygon fill="#bfbfbf" stroke="black" points="387,-281 387,-311 503,-311 503,-281 387,-281"/>
<text text-anchor="start" x="395" y="-299" font-family="Helvetica,sans-Serif" font-size="10.00">src/mc/database/detail</text>
<text text-anchor="middle" x="445" y="-288" font-family="Helvetica,sans-Serif" font-size="10.00">/gp_nPiP.h</text>
</g>
<!-- Node1 -->
<g id="node2" class="node"><title>Node1</title>
<g id="a_node2"><a xlink:href="_production_data_base_8h.html" target="_top" xlink:title="ProductionDataBase.h">
<polygon fill="white" stroke="black" points="387.5,-224.5 387.5,-243.5 502.5,-243.5 502.5,-224.5 387.5,-224.5"/>
<text text-anchor="middle" x="445" y="-231.5" font-family="Helvetica,sans-Serif" font-size="10.00">ProductionDataBase.h</text>
</a>
</g>
</g>
<!-- Node0&#45;&gt;Node1 -->
<g id="edge1" class="edge"><title>Node0&#45;&gt;Node1</title>
<path fill="none" stroke="midnightblue" d="M445,-280.781C445,-272.781 445,-262.689 445,-254.017"/>
<polygon fill="midnightblue" stroke="midnightblue" points="448.5,-253.73 445,-243.731 441.5,-253.731 448.5,-253.73"/>
</g>
<!-- Node2 -->
<g id="node3" class="node"><title>Node2</title>
<polygon fill="white" stroke="#bfbfbf" points="442,-56.5 442,-75.5 486,-75.5 486,-56.5 442,-56.5"/>
<text text-anchor="middle" x="464" y="-63.5" font-family="Helvetica,sans-Serif" font-size="10.00">vector</text>
</g>
<!-- Node1&#45;&gt;Node2 -->
<g id="edge2" class="edge"><title>Node1&#45;&gt;Node2</title>
<path fill="none" stroke="midnightblue" d="M446.022,-224.075C449.012,-197.945 457.795,-121.211 461.874,-85.577"/>
<polygon fill="midnightblue" stroke="midnightblue" points="465.359,-85.9013 463.019,-75.5681 458.405,-85.1052 465.359,-85.9013"/>
</g>
<!-- Node3 -->
<g id="node4" class="node"><title>Node3</title>
<g id="a_node4"><a xlink:href="_particle_type_tree_8h.html" target="_top" xlink:title="base/ParticleTypeTree.h">
<polygon fill="white" stroke="black" points="256.5,-168.5 256.5,-187.5 379.5,-187.5 379.5,-168.5 256.5,-168.5"/>
<text text-anchor="middle" x="318" y="-175.5" font-family="Helvetica,sans-Serif" font-size="10.00">base/ParticleTypeTree.h</text>
</a>
</g>
</g>
<!-- Node1&#45;&gt;Node3 -->
<g id="edge3" class="edge"><title>Node1&#45;&gt;Node3</title>
<path fill="none" stroke="midnightblue" d="M424.876,-224.444C403.976,-215.557 371.065,-201.563 347.284,-191.451"/>
<polygon fill="midnightblue" stroke="midnightblue" points="348.602,-188.208 338.029,-187.516 345.862,-194.65 348.602,-188.208"/>
</g>
<!-- Node27 -->
<g id="node28" class="node"><title>Node27</title>
<polygon fill="white" stroke="#bfbfbf" points="473,-168.5 473,-187.5 571,-187.5 571,-168.5 473,-168.5"/>
<text text-anchor="middle" x="522" y="-175.5" font-family="Helvetica,sans-Serif" font-size="10.00">Math/Interpolator.h</text>
</g>
<!-- Node1&#45;&gt;Node27 -->
<g id="edge32" class="edge"><title>Node1&#45;&gt;Node27</title>
<path fill="none" stroke="midnightblue" d="M457.371,-224.324C469.158,-216.058 487.132,-203.453 501.136,-193.632"/>
<polygon fill="midnightblue" stroke="midnightblue" points="503.482,-196.262 509.659,-187.655 499.462,-190.531 503.482,-196.262"/>
</g>
<!-- Node4 -->
<g id="node5" class="node"><title>Node4</title>
<g id="a_node5"><a xlink:href="_particle_type_8h.html" target="_top" xlink:title="ParticleType.h">
<polygon fill="white" stroke="black" points="259,-112.5 259,-131.5 339,-131.5 339,-112.5 259,-112.5"/>
<text text-anchor="middle" x="299" y="-119.5" font-family="Helvetica,sans-Serif" font-size="10.00">ParticleType.h</text>
</a>
</g>
</g>
<!-- Node3&#45;&gt;Node4 -->
<g id="edge4" class="edge"><title>Node3&#45;&gt;Node4</title>
<path fill="none" stroke="midnightblue" d="M314.863,-168.083C312.317,-160.849 308.644,-150.409 305.473,-141.397"/>
<polygon fill="midnightblue" stroke="midnightblue" points="308.7,-140.023 302.079,-131.751 302.097,-142.346 308.7,-140.023"/>
</g>
<!-- Node15 -->
<g id="node16" class="node"><title>Node15</title>
<polygon fill="white" stroke="#bfbfbf" points="56.5,-56.5 56.5,-75.5 91.5,-75.5 91.5,-56.5 56.5,-56.5"/>
<text text-anchor="middle" x="74" y="-63.5" font-family="Helvetica,sans-Serif" font-size="10.00">map</text>
</g>
<!-- Node3&#45;&gt;Node15 -->
<g id="edge31" class="edge"><title>Node3&#45;&gt;Node15</title>
<path fill="none" stroke="midnightblue" d="M298.854,-168.368C255.671,-148.901 150.598,-101.532 100.899,-79.1266"/>
<polygon fill="midnightblue" stroke="midnightblue" points="102.287,-75.9132 91.7321,-74.994 99.4101,-82.2947 102.287,-75.9132"/>
</g>
<!-- Node17 -->
<g id="node18" class="node"><title>Node17</title>
<g id="a_node18"><a xlink:href="_tree_8h.html" target="_top" xlink:title="Tree.h">
<polygon fill="white" stroke="black" points="658,-112.5 658,-131.5 702,-131.5 702,-112.5 658,-112.5"/>
<text text-anchor="middle" x="680" y="-119.5" font-family="Helvetica,sans-Serif" font-size="10.00">Tree.h</text>
</a>
</g>
</g>
<!-- Node3&#45;&gt;Node17 -->
<g id="edge19" class="edge"><title>Node3&#45;&gt;Node17</title>
<path fill="none" stroke="midnightblue" d="M375.36,-168.444C452.281,-156.969 586.27,-136.982 647.634,-127.828"/>
<polygon fill="midnightblue" stroke="midnightblue" points="648.5,-131.238 657.874,-126.301 647.467,-124.314 648.5,-131.238"/>
</g>
<!-- Node4&#45;&gt;Node2 -->
<g id="edge18" class="edge"><title>Node4&#45;&gt;Node2</title>
<path fill="none" stroke="midnightblue" d="M325.145,-112.444C354.253,-102.917 401.291,-87.5228 432.43,-77.3321"/>
<polygon fill="midnightblue" stroke="midnightblue" points="433.523,-80.6572 441.938,-74.2203 431.345,-74.0044 433.523,-80.6572"/>
</g>
<!-- Node5 -->
<g id="node6" class="node"><title>Node5</title>
<g id="a_node6"><a xlink:href="types_8h.html" target="_top" xlink:title="base/types.h">
<polygon fill="white" stroke="black" points="-0.5,-0.5 -0.5,-19.5 72.5,-19.5 72.5,-0.5 -0.5,-0.5"/>
<text text-anchor="middle" x="36" y="-7.5" font-family="Helvetica,sans-Serif" font-size="10.00">base/types.h</text>
</a>
</g>
</g>
<!-- Node4&#45;&gt;Node5 -->
<g id="edge5" class="edge"><title>Node4&#45;&gt;Node5</title>
<path fill="none" stroke="midnightblue" d="M258.766,-113.072C225.72,-105.769 178.151,-93.4163 139,-76 108.006,-62.2123 75.4075,-40.1783 55.388,-25.6484"/>
<polygon fill="midnightblue" stroke="midnightblue" points="57.2518,-22.6742 47.1259,-19.5571 53.0979,-28.3084 57.2518,-22.6742"/>
</g>
<!-- Node6 -->
<g id="node7" class="node"><title>Node6</title>
<g id="a_node7"><a xlink:href="interval_8h.html" target="_top" xlink:title="base/interval.h">
<polygon fill="white" stroke="black" points="148,-56.5 148,-75.5 228,-75.5 228,-56.5 148,-56.5"/>
<text text-anchor="middle" x="188" y="-63.5" font-family="Helvetica,sans-Serif" font-size="10.00">base/interval.h</text>
</a>
</g>
</g>
<!-- Node4&#45;&gt;Node6 -->
<g id="edge6" class="edge"><title>Node4&#45;&gt;Node6</title>
<path fill="none" stroke="midnightblue" d="M281.166,-112.324C263.284,-103.625 235.525,-90.1202 214.954,-80.113"/>
<polygon fill="midnightblue" stroke="midnightblue" points="216.313,-76.8819 205.79,-75.6545 213.251,-83.1765 216.313,-76.8819"/>
</g>
<!-- Node13 -->
<g id="node14" class="node"><title>Node13</title>
<polygon fill="white" stroke="#bfbfbf" points="246.5,-56.5 246.5,-75.5 287.5,-75.5 287.5,-56.5 246.5,-56.5"/>
<text text-anchor="middle" x="267" y="-63.5" font-family="Helvetica,sans-Serif" font-size="10.00">string</text>
</g>
<!-- Node4&#45;&gt;Node13 -->
<g id="edge14" class="edge"><title>Node4&#45;&gt;Node13</title>
<path fill="none" stroke="midnightblue" d="M293.716,-112.083C289.289,-104.613 282.837,-93.7244 277.382,-84.5199"/>
<polygon fill="midnightblue" stroke="midnightblue" points="280.295,-82.5697 272.186,-75.7511 274.273,-86.1383 280.295,-82.5697"/>
</g>
<!-- Node14 -->
<g id="node15" class="node"><title>Node14</title>
<polygon fill="white" stroke="#bfbfbf" points="306,-56.5 306,-75.5 358,-75.5 358,-56.5 306,-56.5"/>
<text text-anchor="middle" x="332" y="-63.5" font-family="Helvetica,sans-Serif" font-size="10.00">ostream</text>
</g>
<!-- Node4&#45;&gt;Node14 -->
<g id="edge15" class="edge"><title>Node4&#45;&gt;Node14</title>
<path fill="none" stroke="midnightblue" d="M304.449,-112.083C309.014,-104.613 315.668,-93.7244 321.293,-84.5199"/>
<polygon fill="midnightblue" stroke="midnightblue" points="324.424,-86.109 326.652,-75.7511 318.451,-82.4588 324.424,-86.109"/>
</g>
<!-- Node4&#45;&gt;Node15 -->
<g id="edge16" class="edge"><title>Node4&#45;&gt;Node15</title>
<path fill="none" stroke="midnightblue" d="M260.059,-112.462C220.99,-103.769 159.149,-89.6628 106,-76 104.533,-75.6228 103.03,-75.2284 101.514,-74.8242"/>
<polygon fill="midnightblue" stroke="midnightblue" points="102.136,-71.3655 91.5668,-72.0944 100.284,-78.116 102.136,-71.3655"/>
</g>
<!-- Node16 -->
<g id="node17" class="node"><title>Node16</title>
<polygon fill="white" stroke="#bfbfbf" points="376.5,-56.5 376.5,-75.5 423.5,-75.5 423.5,-56.5 376.5,-56.5"/>
<text text-anchor="middle" x="400" y="-63.5" font-family="Helvetica,sans-Serif" font-size="10.00">iterator</text>
</g>
<!-- Node4&#45;&gt;Node16 -->
<g id="edge17" class="edge"><title>Node4&#45;&gt;Node16</title>
<path fill="none" stroke="midnightblue" d="M315.227,-112.324C331.351,-103.703 356.3,-90.3643 374.964,-80.3855"/>
<polygon fill="midnightblue" stroke="midnightblue" points="376.644,-83.456 383.813,-75.6545 373.344,-77.283 376.644,-83.456"/>
</g>
<!-- Node6&#45;&gt;Node5 -->
<g id="edge7" class="edge"><title>Node6&#45;&gt;Node5</title>
<path fill="none" stroke="midnightblue" d="M163.915,-56.4435C138.455,-47.3986 98.1062,-33.064 69.5409,-22.9158"/>
<polygon fill="midnightblue" stroke="midnightblue" points="70.5669,-19.5661 59.9722,-19.5164 68.2235,-26.1622 70.5669,-19.5661"/>
</g>
<!-- Node7 -->
<g id="node8" class="node"><title>Node7</title>
<polygon fill="white" stroke="#bfbfbf" points="588,-0.5 588,-19.5 644,-19.5 644,-0.5 588,-0.5"/>
<text text-anchor="middle" x="616" y="-7.5" font-family="Helvetica,sans-Serif" font-size="10.00">algorithm</text>
</g>
<!-- Node6&#45;&gt;Node7 -->
<g id="edge8" class="edge"><title>Node6&#45;&gt;Node7</title>
<path fill="none" stroke="midnightblue" d="M228.077,-57.425C231.093,-56.9205 234.092,-56.4392 237,-56 361.07,-37.2595 508.97,-21.621 577.555,-14.7499"/>
<polygon fill="midnightblue" stroke="midnightblue" points="578.262,-18.1969 587.866,-13.7232 577.568,-11.2313 578.262,-18.1969"/>
</g>
<!-- Node8 -->
<g id="node9" class="node"><title>Node8</title>
<polygon fill="white" stroke="#bfbfbf" points="90.5,-0.5 90.5,-19.5 149.5,-19.5 149.5,-0.5 90.5,-0.5"/>
<text text-anchor="middle" x="120" y="-7.5" font-family="Helvetica,sans-Serif" font-size="10.00">stdexcept</text>
</g>
<!-- Node6&#45;&gt;Node8 -->
<g id="edge9" class="edge"><title>Node6&#45;&gt;Node8</title>
<path fill="none" stroke="midnightblue" d="M177.075,-56.324C166.825,-48.1849 151.279,-35.8395 138.999,-26.0874"/>
<polygon fill="midnightblue" stroke="midnightblue" points="141.132,-23.3119 131.124,-19.8339 136.779,-28.7937 141.132,-23.3119"/>
</g>
<!-- Node9 -->
<g id="node10" class="node"><title>Node9</title>
<polygon fill="white" stroke="#bfbfbf" points="168,-0.5 168,-19.5 208,-19.5 208,-0.5 168,-0.5"/>
<text text-anchor="middle" x="188" y="-7.5" font-family="Helvetica,sans-Serif" font-size="10.00">limits</text>
</g>
<!-- Node6&#45;&gt;Node9 -->
<g id="edge10" class="edge"><title>Node6&#45;&gt;Node9</title>
<path fill="none" stroke="midnightblue" d="M188,-56.083C188,-49.0059 188,-38.8611 188,-29.9865"/>
<polygon fill="midnightblue" stroke="midnightblue" points="191.5,-29.751 188,-19.7511 184.5,-29.7511 191.5,-29.751"/>
</g>
<!-- Node10 -->
<g id="node11" class="node"><title>Node10</title>
<polygon fill="white" stroke="#bfbfbf" points="226.5,-0.5 226.5,-19.5 275.5,-19.5 275.5,-0.5 226.5,-0.5"/>
<text text-anchor="middle" x="251" y="-7.5" font-family="Helvetica,sans-Serif" font-size="10.00">istream</text>
</g>
<!-- Node6&#45;&gt;Node10 -->
<g id="edge11" class="edge"><title>Node6&#45;&gt;Node10</title>
<path fill="none" stroke="midnightblue" d="M198.122,-56.324C207.526,-48.2631 221.744,-36.0765 233.069,-26.3695"/>
<polygon fill="midnightblue" stroke="midnightblue" points="235.379,-28.9993 240.694,-19.8339 230.823,-23.6844 235.379,-28.9993"/>
</g>
<!-- Node11 -->
<g id="node12" class="node"><title>Node11</title>
<polygon fill="white" stroke="#bfbfbf" points="294,-0.5 294,-19.5 346,-19.5 346,-0.5 294,-0.5"/>
<text text-anchor="middle" x="320" y="-7.5" font-family="Helvetica,sans-Serif" font-size="10.00">sstream</text>
</g>
<!-- Node6&#45;&gt;Node11 -->
<g id="edge12" class="edge"><title>Node6&#45;&gt;Node11</title>
<path fill="none" stroke="midnightblue" d="M208.916,-56.4435C230.736,-47.5171 265.15,-33.4387 289.892,-23.3168"/>
<polygon fill="midnightblue" stroke="midnightblue" points="291.252,-26.5422 299.182,-19.5164 288.601,-20.0634 291.252,-26.5422"/>
</g>
<!-- Node12 -->
<g id="node13" class="node"><title>Node12</title>
<polygon fill="white" stroke="#bfbfbf" points="364,-0.5 364,-19.5 408,-19.5 408,-0.5 364,-0.5"/>
<text text-anchor="middle" x="386" y="-7.5" font-family="Helvetica,sans-Serif" font-size="10.00">cmath</text>
</g>
<!-- Node6&#45;&gt;Node12 -->
<g id="edge13" class="edge"><title>Node6&#45;&gt;Node12</title>
<path fill="none" stroke="midnightblue" d="M220.378,-56.4741C252.086,-48.0806 302.015,-34.7483 354.228,-20.1782"/>
<polygon fill="midnightblue" stroke="midnightblue" points="355.312,-23.5092 364,-17.4442 353.426,-16.768 355.312,-23.5092"/>
</g>
<!-- Node17&#45;&gt;Node2 -->
<g id="edge26" class="edge"><title>Node17&#45;&gt;Node2</title>
<path fill="none" stroke="midnightblue" d="M657.855,-116.05C624.604,-108.531 559.603,-93.4963 496.019,-76.4576"/>
<polygon fill="midnightblue" stroke="midnightblue" points="496.809,-73.0457 486.242,-73.8185 494.984,-79.8038 496.809,-73.0457"/>
</g>
<!-- Node17&#45;&gt;Node7 -->
<g id="edge27" class="edge"><title>Node17&#45;&gt;Node7</title>
<path fill="none" stroke="midnightblue" d="M702.205,-113.577C730.967,-102.747 775.369,-81.1447 757,-56 733.68,-24.0783 687.464,-14.2722 654.295,-11.529"/>
<polygon fill="midnightblue" stroke="midnightblue" points="654.234,-8.01795 644.03,-10.8675 653.784,-15.0035 654.234,-8.01795"/>
</g>
<!-- Node18 -->
<g id="node19" class="node"><title>Node18</title>
<polygon fill="white" stroke="#bfbfbf" points="805,-56.5 805,-75.5 901,-75.5 901,-56.5 805,-56.5"/>
<text text-anchor="middle" x="853" y="-63.5" font-family="Helvetica,sans-Serif" font-size="10.00">cereal/access.hpp</text>
</g>
<!-- Node17&#45;&gt;Node18 -->
<g id="edge20" class="edge"><title>Node17&#45;&gt;Node18</title>
<path fill="none" stroke="midnightblue" d="M702.263,-114.051C731.001,-105.081 781.413,-89.3452 815.964,-78.5603"/>
<polygon fill="midnightblue" stroke="midnightblue" points="817.194,-81.8432 825.697,-75.5225 815.108,-75.1611 817.194,-81.8432"/>
</g>
<!-- Node19 -->
<g id="node20" class="node"><title>Node19</title>
<g id="a_node20"><a xlink:href="variadic_8h.html" target="_top" xlink:title="std_ext/variadic.h">
<polygon fill="white" stroke="black" points="919,-56.5 919,-75.5 1013,-75.5 1013,-56.5 919,-56.5"/>
<text text-anchor="middle" x="966" y="-63.5" font-family="Helvetica,sans-Serif" font-size="10.00">std_ext/variadic.h</text>
</a>
</g>
</g>
<!-- Node17&#45;&gt;Node19 -->
<g id="edge21" class="edge"><title>Node17&#45;&gt;Node19</title>
<path fill="none" stroke="midnightblue" d="M702.442,-116.763C746.911,-108.366 847.376,-89.3975 910.624,-77.4555"/>
<polygon fill="midnightblue" stroke="midnightblue" points="911.648,-80.8241 920.825,-75.5295 910.35,-73.9456 911.648,-80.8241"/>
</g>
<!-- Node22 -->
<g id="node23" class="node"><title>Node22</title>
<polygon fill="white" stroke="#bfbfbf" points="1031,-56.5 1031,-75.5 1083,-75.5 1083,-56.5 1031,-56.5"/>
<text text-anchor="middle" x="1057" y="-63.5" font-family="Helvetica,sans-Serif" font-size="10.00">memory</text>
</g>
<!-- Node17&#45;&gt;Node22 -->
<g id="edge24" class="edge"><title>Node17&#45;&gt;Node22</title>
<path fill="none" stroke="midnightblue" d="M702.155,-119.022C755.375,-114.072 894.741,-99.939 1020.52,-76.0846"/>
<polygon fill="midnightblue" stroke="midnightblue" points="1021.55,-79.4511 1030.7,-74.1251 1020.22,-72.5771 1021.55,-79.4511"/>
</g>
<!-- Node23 -->
<g id="node24" class="node"><title>Node23</title>
<polygon fill="white" stroke="#bfbfbf" points="503.5,-56.5 503.5,-75.5 532.5,-75.5 532.5,-56.5 503.5,-56.5"/>
<text text-anchor="middle" x="518" y="-63.5" font-family="Helvetica,sans-Serif" font-size="10.00">list</text>
</g>
<!-- Node17&#45;&gt;Node23 -->
<g id="edge25" class="edge"><title>Node17&#45;&gt;Node23</title>
<path fill="none" stroke="midnightblue" d="M657.714,-114.236C631.921,-106.312 587.987,-92.5176 542.065,-76.2434"/>
<polygon fill="midnightblue" stroke="midnightblue" points="543.146,-72.9128 532.551,-72.8456 540.791,-79.505 543.146,-72.9128"/>
</g>
<!-- Node24 -->
<g id="node25" class="node"><title>Node24</title>
<polygon fill="white" stroke="#bfbfbf" points="550.5,-56.5 550.5,-75.5 599.5,-75.5 599.5,-56.5 550.5,-56.5"/>
<text text-anchor="middle" x="575" y="-63.5" font-family="Helvetica,sans-Serif" font-size="10.00">cassert</text>
</g>
<!-- Node17&#45;&gt;Node24 -->
<g id="edge28" class="edge"><title>Node17&#45;&gt;Node24</title>
<path fill="none" stroke="midnightblue" d="M663.13,-112.324C646.291,-103.664 620.193,-90.2424 600.762,-80.249"/>
<polygon fill="midnightblue" stroke="midnightblue" points="602.322,-77.1155 591.828,-75.6545 599.12,-83.3405 602.322,-77.1155"/>
</g>
<!-- Node25 -->
<g id="node26" class="node"><title>Node25</title>
<polygon fill="white" stroke="#bfbfbf" points="617.5,-56.5 617.5,-75.5 668.5,-75.5 668.5,-56.5 617.5,-56.5"/>
<text text-anchor="middle" x="643" y="-63.5" font-family="Helvetica,sans-Serif" font-size="10.00">numeric</text>
</g>
<!-- Node17&#45;&gt;Node25 -->
<g id="edge29" class="edge"><title>Node17&#45;&gt;Node25</title>
<path fill="none" stroke="midnightblue" d="M673.89,-112.083C668.718,-104.534 661.154,-93.4948 654.806,-84.2298"/>
<polygon fill="midnightblue" stroke="midnightblue" points="657.536,-82.0221 648.996,-75.7511 651.761,-85.9787 657.536,-82.0221"/>
</g>
<!-- Node26 -->
<g id="node27" class="node"><title>Node26</title>
<polygon fill="white" stroke="#bfbfbf" points="687,-56.5 687,-75.5 749,-75.5 749,-56.5 687,-56.5"/>
<text text-anchor="middle" x="718" y="-63.5" font-family="Helvetica,sans-Serif" font-size="10.00">type_traits</text>
</g>
<!-- Node17&#45;&gt;Node26 -->
<g id="edge30" class="edge"><title>Node17&#45;&gt;Node26</title>
<path fill="none" stroke="midnightblue" d="M686.275,-112.083C691.642,-104.455 699.518,-93.2645 706.079,-83.9408"/>
<polygon fill="midnightblue" stroke="midnightblue" points="708.949,-85.9434 711.842,-75.7511 703.225,-81.9149 708.949,-85.9434"/>
</g>
<!-- Node20 -->
<g id="node21" class="node"><title>Node20</title>
<polygon fill="white" stroke="#bfbfbf" points="910.5,-0.5 910.5,-19.5 959.5,-19.5 959.5,-0.5 910.5,-0.5"/>
<text text-anchor="middle" x="935" y="-7.5" font-family="Helvetica,sans-Serif" font-size="10.00">cstddef</text>
</g>
<!-- Node19&#45;&gt;Node20 -->
<g id="edge22" class="edge"><title>Node19&#45;&gt;Node20</title>
<path fill="none" stroke="midnightblue" d="M960.881,-56.083C956.592,-48.6127 950.342,-37.7244 945.058,-28.5199"/>
<polygon fill="midnightblue" stroke="midnightblue" points="948.038,-26.6811 940.024,-19.7511 941.967,-30.1662 948.038,-26.6811"/>
</g>
<!-- Node21 -->
<g id="node22" class="node"><title>Node21</title>
<polygon fill="white" stroke="#bfbfbf" points="978,-0.5 978,-19.5 1016,-19.5 1016,-0.5 978,-0.5"/>
<text text-anchor="middle" x="997" y="-7.5" font-family="Helvetica,sans-Serif" font-size="10.00">tuple</text>
</g>
<!-- Node19&#45;&gt;Node21 -->
<g id="edge23" class="edge"><title>Node19&#45;&gt;Node21</title>
<path fill="none" stroke="midnightblue" d="M971.119,-56.083C975.408,-48.6127 981.658,-37.7244 986.942,-28.5199"/>
<polygon fill="midnightblue" stroke="midnightblue" points="990.033,-30.1662 991.976,-19.7511 983.962,-26.6811 990.033,-30.1662"/>
</g>
</g>
</svg>
