<?xml version="1.0" encoding="UTF-8" standalone="no"?>
<!DOCTYPE svg PUBLIC "-//W3C//DTD SVG 1.1//EN"
 "http://www.w3.org/Graphics/SVG/1.1/DTD/svg11.dtd">
<!-- Generated by graphviz version 2.36.0 (20140111.2315)
 -->
<!-- Title: src/root&#45;addons/analysis_codes/hadd.h Pages: 1 -->
<svg width="211pt" height="96pt"
 viewBox="0.00 0.00 211.00 96.00" xmlns="http://www.w3.org/2000/svg" xmlns:xlink="http://www.w3.org/1999/xlink">
<g id="graph0" class="graph" transform="scale(1 1) rotate(0) translate(4 92)">
<title>src/root&#45;addons/analysis_codes/hadd.h</title>
<polygon fill="white" stroke="none" points="-4,4 -4,-92 207,-92 207,4 -4,4"/>
<!-- Node0 -->
<g id="node1" class="node"><title>Node0</title>
<polygon fill="#bfbfbf" stroke="black" points="53.5,-57 53.5,-87 176.5,-87 176.5,-57 53.5,-57"/>
<text text-anchor="start" x="61.5" y="-75" font-family="Helvetica,sans-Serif" font-size="10.00">src/root&#45;addons/analysis</text>
<text text-anchor="middle" x="115" y="-64" font-family="Helvetica,sans-Serif" font-size="10.00">_codes/hadd.h</text>
</g>
<!-- Node1 -->
<g id="node2" class="node"><title>Node1</title>
<polygon fill="white" stroke="#bfbfbf" points="-0.5,-0.5 -0.5,-19.5 70.5,-19.5 70.5,-0.5 -0.5,-0.5"/>
<text text-anchor="middle" x="35" y="-7.5" font-family="Helvetica,sans-Serif" font-size="10.00">TDirectory.h</text>
</g>
<!-- Node0&#45;&gt;Node1 -->
<g id="edge1" class="edge"><title>Node0&#45;&gt;Node1</title>
<path fill="none" stroke="midnightblue" d="M96.0411,-56.7808C83.5773,-47.4329 67.3031,-35.2273 54.6933,-25.77"/>
<polygon fill="midnightblue" stroke="midnightblue" points="56.7407,-22.9306 46.6407,-19.7305 52.5407,-28.5306 56.7407,-22.9306"/>
</g>
<!-- Node2 -->
<g id="node3" class="node"><title>Node2</title>
<polygon fill="white" stroke="#bfbfbf" points="89,-0.5 89,-19.5 141,-19.5 141,-0.5 89,-0.5"/>
<text text-anchor="middle" x="115" y="-7.5" font-family="Helvetica,sans-Serif" font-size="10.00">memory</text>
</g>
<!-- Node0&#45;&gt;Node2 -->
<g id="edge2" class="edge"><title>Node0&#45;&gt;Node2</title>
<path fill="none" stroke="midnightblue" d="M115,-56.7808C115,-48.7812 115,-38.6887 115,-30.0168"/>
<polygon fill="midnightblue" stroke="midnightblue" points="118.5,-29.7305 115,-19.7305 111.5,-29.7306 118.5,-29.7305"/>
</g>
<!-- Node3 -->
<g id="node4" class="node"><title>Node3</title>
<polygon fill="white" stroke="#bfbfbf" points="159,-0.5 159,-19.5 203,-19.5 203,-0.5 159,-0.5"/>
<text text-anchor="middle" x="181" y="-7.5" font-family="Helvetica,sans-Serif" font-size="10.00">vector</text>
</g>
<!-- Node0&#45;&gt;Node3 -->
<g id="edge3" class="edge"><title>Node0&#45;&gt;Node3</title>
<path fill="none" stroke="midnightblue" d="M130.641,-56.7808C140.627,-47.7026 153.578,-35.9291 163.845,-26.5951"/>
<polygon fill="midnightblue" stroke="midnightblue" points="166.351,-29.0471 171.396,-19.7305 161.643,-23.8675 166.351,-29.0471"/>
</g>
</g>
</svg>
