<?xml version="1.0" encoding="UTF-8" standalone="no"?>
<!DOCTYPE svg PUBLIC "-//W3C//DTD SVG 1.1//EN"
 "http://www.w3.org/Graphics/SVG/1.1/DTD/svg11.dtd">
<!-- Generated by graphviz version 2.36.0 (20140111.2315)
 -->
<!-- Title: src/root&#45;addons/analysis_codes/hadd.cc Pages: 1 -->
<svg width="1745pt" height="320pt"
 viewBox="0.00 0.00 1745.00 320.00" xmlns="http://www.w3.org/2000/svg" xmlns:xlink="http://www.w3.org/1999/xlink">
<g id="graph0" class="graph" transform="scale(1 1) rotate(0) translate(4 316)">
<title>src/root&#45;addons/analysis_codes/hadd.cc</title>
<polygon fill="white" stroke="none" points="-4,4 -4,-316 1741,-316 1741,4 -4,4"/>
<!-- Node0 -->
<g id="node1" class="node"><title>Node0</title>
<polygon fill="#bfbfbf" stroke="black" points="1250.5,-281 1250.5,-311 1373.5,-311 1373.5,-281 1250.5,-281"/>
<text text-anchor="start" x="1258.5" y="-299" font-family="Helvetica,sans-Serif" font-size="10.00">src/root&#45;addons/analysis</text>
<text text-anchor="middle" x="1312" y="-288" font-family="Helvetica,sans-Serif" font-size="10.00">_codes/hadd.cc</text>
</g>
<!-- Node1 -->
<g id="node2" class="node"><title>Node1</title>
<g id="a_node2"><a xlink:href="hadd_8h.html" target="_top" xlink:title="hadd.h">
<polygon fill="white" stroke="black" points="158,-224.5 158,-243.5 204,-243.5 204,-224.5 158,-224.5"/>
<text text-anchor="middle" x="181" y="-231.5" font-family="Helvetica,sans-Serif" font-size="10.00">hadd.h</text>
</a>
</g>
</g>
<!-- Node0&#45;&gt;Node1 -->
<g id="edge1" class="edge"><title>Node0&#45;&gt;Node1</title>
<path fill="none" stroke="midnightblue" d="M1250.39,-291.732C1042.66,-280.711 372.154,-245.141 214.44,-236.774"/>
<polygon fill="midnightblue" stroke="midnightblue" points="214.564,-233.276 204.392,-236.241 214.193,-240.266 214.564,-233.276"/>
</g>
<!-- Node2 -->
<g id="node3" class="node"><title>Node2</title>
<polygon fill="white" stroke="#bfbfbf" points="-0.5,-168.5 -0.5,-187.5 70.5,-187.5 70.5,-168.5 -0.5,-168.5"/>
<text text-anchor="middle" x="35" y="-175.5" font-family="Helvetica,sans-Serif" font-size="10.00">TDirectory.h</text>
</g>
<!-- Node0&#45;&gt;Node2 -->
<g id="edge70" class="edge"><title>Node0&#45;&gt;Node2</title>
<path fill="none" stroke="midnightblue" d="M1250.12,-293.988C1024.66,-290.069 254.887,-274.564 149,-244 112.801,-233.551 75.7973,-209.477 54.1349,-193.742"/>
<polygon fill="midnightblue" stroke="midnightblue" points="55.9507,-190.73 45.8373,-187.572 51.7741,-196.348 55.9507,-190.73"/>
</g>
<!-- Node5 -->
<g id="node6" class="node"><title>Node5</title>
<g id="a_node6"><a xlink:href="hstack_8h.html" target="_top" xlink:title="hstack.h">
<polygon fill="white" stroke="black" points="482,-224.5 482,-243.5 536,-243.5 536,-224.5 482,-224.5"/>
<text text-anchor="middle" x="509" y="-231.5" font-family="Helvetica,sans-Serif" font-size="10.00">hstack.h</text>
</a>
</g>
</g>
<!-- Node0&#45;&gt;Node5 -->
<g id="edge5" class="edge"><title>Node0&#45;&gt;Node5</title>
<path fill="none" stroke="midnightblue" d="M1250.32,-290.392C1091.72,-278.541 673.259,-247.273 546.144,-237.775"/>
<polygon fill="midnightblue" stroke="midnightblue" points="546.36,-234.282 536.127,-237.027 545.838,-241.262 546.36,-234.282"/>
</g>
<!-- Node15 -->
<g id="node16" class="node"><title>Node15</title>
<polygon fill="white" stroke="#bfbfbf" points="700,-0.5 700,-19.5 756,-19.5 756,-0.5 700,-0.5"/>
<text text-anchor="middle" x="728" y="-7.5" font-family="Helvetica,sans-Serif" font-size="10.00">algorithm</text>
</g>
<!-- Node0&#45;&gt;Node15 -->
<g id="edge77" class="edge"><title>Node0&#45;&gt;Node15</title>
<path fill="none" stroke="midnightblue" d="M1309.87,-280.75C1308.46,-270.544 1306.73,-256.46 1306,-244 1305.48,-235.126 1304.91,-232.822 1306,-224 1311.15,-182.168 1323.85,-173.832 1329,-132 1330.09,-123.178 1334.6,-118.9 1329,-112 1293.12,-67.8115 892.865,-26.5431 766.196,-14.5113"/>
<polygon fill="midnightblue" stroke="midnightblue" points="766.461,-11.0208 756.176,-13.5665 765.804,-17.9899 766.461,-11.0208"/>
</g>
<!-- Node25 -->
<g id="node26" class="node"><title>Node25</title>
<g id="a_node26"><a xlink:href="_t_ant_header_8h.html" target="_top" xlink:title="tree/TAntHeader.h">
<polygon fill="white" stroke="black" points="1160.5,-224.5 1160.5,-243.5 1257.5,-243.5 1257.5,-224.5 1160.5,-224.5"/>
<text text-anchor="middle" x="1209" y="-231.5" font-family="Helvetica,sans-Serif" font-size="10.00">tree/TAntHeader.h</text>
</a>
</g>
</g>
<!-- Node0&#45;&gt;Node25 -->
<g id="edge42" class="edge"><title>Node0&#45;&gt;Node25</title>
<path fill="none" stroke="midnightblue" d="M1287.85,-280.933C1271.25,-271.262 1249.31,-258.479 1232.78,-248.855"/>
<polygon fill="midnightblue" stroke="midnightblue" points="1234.17,-245.609 1223.76,-243.6 1230.64,-251.658 1234.17,-245.609"/>
</g>
<!-- Node36 -->
<g id="node37" class="node"><title>Node36</title>
<g id="a_node37"><a xlink:href="_progress_counter_8h.html" target="_top" xlink:title="base/ProgressCounter.h">
<polygon fill="white" stroke="black" points="980,-224.5 980,-243.5 1102,-243.5 1102,-224.5 980,-224.5"/>
<text text-anchor="middle" x="1041" y="-231.5" font-family="Helvetica,sans-Serif" font-size="10.00">base/ProgressCounter.h</text>
</a>
</g>
</g>
<!-- Node0&#45;&gt;Node36 -->
<g id="edge62" class="edge"><title>Node0&#45;&gt;Node36</title>
<path fill="none" stroke="midnightblue" d="M1250.17,-281.31C1201.37,-270.506 1134.26,-255.647 1089.34,-245.703"/>
<polygon fill="midnightblue" stroke="midnightblue" points="1090.07,-242.279 1079.55,-243.535 1088.56,-249.114 1090.07,-242.279"/>
</g>
<!-- Node39 -->
<g id="node40" class="node"><title>Node39</title>
<polygon fill="white" stroke="#bfbfbf" points="1314.5,-224.5 1314.5,-243.5 1361.5,-243.5 1361.5,-224.5 1314.5,-224.5"/>
<text text-anchor="middle" x="1338" y="-231.5" font-family="Helvetica,sans-Serif" font-size="10.00">TFile.h</text>
</g>
<!-- Node0&#45;&gt;Node39 -->
<g id="edge71" class="edge"><title>Node0&#45;&gt;Node39</title>
<path fill="none" stroke="midnightblue" d="M1318.16,-280.781C1321.74,-272.512 1326.3,-262.006 1330.14,-253.145"/>
<polygon fill="midnightblue" stroke="midnightblue" points="1333.45,-254.298 1334.22,-243.731 1327.03,-251.514 1333.45,-254.298"/>
</g>
<!-- Node40 -->
<g id="node41" class="node"><title>Node40</title>
<polygon fill="white" stroke="#bfbfbf" points="1379.5,-224.5 1379.5,-243.5 1426.5,-243.5 1426.5,-224.5 1379.5,-224.5"/>
<text text-anchor="middle" x="1403" y="-231.5" font-family="Helvetica,sans-Serif" font-size="10.00">TList.h</text>
</g>
<!-- Node0&#45;&gt;Node40 -->
<g id="edge72" class="edge"><title>Node0&#45;&gt;Node40</title>
<path fill="none" stroke="midnightblue" d="M1333.57,-280.781C1347.97,-271.286 1366.84,-258.843 1381.27,-249.327"/>
<polygon fill="midnightblue" stroke="midnightblue" points="1383.6,-251.982 1390.02,-243.556 1379.75,-246.138 1383.6,-251.982"/>
</g>
<!-- Node41 -->
<g id="node42" class="node"><title>Node41</title>
<polygon fill="white" stroke="#bfbfbf" points="1445,-224.5 1445,-243.5 1493,-243.5 1493,-224.5 1445,-224.5"/>
<text text-anchor="middle" x="1469" y="-231.5" font-family="Helvetica,sans-Serif" font-size="10.00">TKey.h</text>
</g>
<!-- Node0&#45;&gt;Node41 -->
<g id="edge73" class="edge"><title>Node0&#45;&gt;Node41</title>
<path fill="none" stroke="midnightblue" d="M1348.81,-280.933C1375.53,-270.72 1411.34,-257.036 1436.9,-247.266"/>
<polygon fill="midnightblue" stroke="midnightblue" points="1438.4,-250.439 1446.5,-243.6 1435.91,-243.901 1438.4,-250.439"/>
</g>
<!-- Node42 -->
<g id="node43" class="node"><title>Node42</title>
<polygon fill="white" stroke="#bfbfbf" points="1511,-224.5 1511,-243.5 1567,-243.5 1567,-224.5 1511,-224.5"/>
<text text-anchor="middle" x="1539" y="-231.5" font-family="Helvetica,sans-Serif" font-size="10.00">TClass.h</text>
</g>
<!-- Node0&#45;&gt;Node42 -->
<g id="edge74" class="edge"><title>Node0&#45;&gt;Node42</title>
<path fill="none" stroke="midnightblue" d="M1365.22,-280.933C1406.91,-269.915 1463.87,-254.858 1501.04,-245.033"/>
<polygon fill="midnightblue" stroke="midnightblue" points="1502.2,-248.348 1510.97,-242.409 1500.41,-241.581 1502.2,-248.348"/>
</g>
<!-- Node43 -->
<g id="node44" class="node"><title>Node43</title>
<polygon fill="white" stroke="#bfbfbf" points="1585,-224.5 1585,-243.5 1629,-243.5 1629,-224.5 1585,-224.5"/>
<text text-anchor="middle" x="1607" y="-231.5" font-family="Helvetica,sans-Serif" font-size="10.00">TH1.h</text>
</g>
<!-- Node0&#45;&gt;Node43 -->
<g id="edge75" class="edge"><title>Node0&#45;&gt;Node43</title>
<path fill="none" stroke="midnightblue" d="M1373.68,-284.525C1424.88,-275.492 1499.78,-261.499 1574.61,-243.92"/>
<polygon fill="midnightblue" stroke="midnightblue" points="1575.76,-247.244 1584.68,-241.531 1574.14,-240.433 1575.76,-247.244"/>
</g>
<!-- Node44 -->
<g id="node45" class="node"><title>Node44</title>
<polygon fill="white" stroke="#bfbfbf" points="1647,-224.5 1647,-243.5 1737,-243.5 1737,-224.5 1647,-224.5"/>
<text text-anchor="middle" x="1692" y="-231.5" font-family="Helvetica,sans-Serif" font-size="10.00">TFileMergeInfo.h</text>
</g>
<!-- Node0&#45;&gt;Node44 -->
<g id="edge76" class="edge"><title>Node0&#45;&gt;Node44</title>
<path fill="none" stroke="midnightblue" d="M1373.72,-285.438C1439.11,-275.278 1545.36,-258.688 1637,-244 1637.1,-243.984 1637.2,-243.967 1637.3,-243.951"/>
<polygon fill="midnightblue" stroke="midnightblue" points="1637.67,-247.438 1646.98,-242.391 1636.55,-240.527 1637.67,-247.438"/>
</g>
<!-- Node1&#45;&gt;Node2 -->
<g id="edge2" class="edge"><title>Node1&#45;&gt;Node2</title>
<path fill="none" stroke="midnightblue" d="M157.866,-224.444C133.518,-215.438 94.9929,-201.189 67.577,-191.049"/>
<polygon fill="midnightblue" stroke="midnightblue" points="68.6191,-187.703 58.0259,-187.516 66.1908,-194.268 68.6191,-187.703"/>
</g>
<!-- Node3 -->
<g id="node4" class="node"><title>Node3</title>
<polygon fill="white" stroke="#bfbfbf" points="279,-112.5 279,-131.5 331,-131.5 331,-112.5 279,-112.5"/>
<text text-anchor="middle" x="305" y="-119.5" font-family="Helvetica,sans-Serif" font-size="10.00">memory</text>
</g>
<!-- Node1&#45;&gt;Node3 -->
<g id="edge3" class="edge"><title>Node1&#45;&gt;Node3</title>
<path fill="none" stroke="midnightblue" d="M190.73,-224.368C211.646,-205.814 261.135,-161.913 287.598,-138.438"/>
<polygon fill="midnightblue" stroke="midnightblue" points="290.157,-140.846 295.315,-131.591 285.512,-135.609 290.157,-140.846"/>
</g>
<!-- Node4 -->
<g id="node5" class="node"><title>Node4</title>
<polygon fill="white" stroke="#bfbfbf" points="186,-0.5 186,-19.5 230,-19.5 230,-0.5 186,-0.5"/>
<text text-anchor="middle" x="208" y="-7.5" font-family="Helvetica,sans-Serif" font-size="10.00">vector</text>
</g>
<!-- Node1&#45;&gt;Node4 -->
<g id="edge4" class="edge"><title>Node1&#45;&gt;Node4</title>
<path fill="none" stroke="midnightblue" d="M162.611,-224.471C148.899,-216.997 131.185,-204.71 123,-188 97.1932,-135.314 92.7394,-106.26 123,-56 134.515,-36.8752 157.185,-25.4528 176.219,-18.9038"/>
<polygon fill="midnightblue" stroke="midnightblue" points="177.27,-22.2424 185.763,-15.9083 175.174,-15.5637 177.27,-22.2424"/>
</g>
<!-- Node5&#45;&gt;Node3 -->
<g id="edge39" class="edge"><title>Node5&#45;&gt;Node3</title>
<path fill="none" stroke="midnightblue" d="M481.54,-225.13C456.757,-217.45 419.733,-204.522 390,-188 364.556,-173.862 338.416,-152.68 321.964,-138.374"/>
<polygon fill="midnightblue" stroke="midnightblue" points="324.107,-135.597 314.298,-131.593 319.469,-140.84 324.107,-135.597"/>
</g>
<!-- Node5&#45;&gt;Node4 -->
<g id="edge9" class="edge"><title>Node5&#45;&gt;Node4</title>
<path fill="none" stroke="midnightblue" d="M481.884,-231.947C421.448,-229.056 278.244,-219.025 243,-188 197.386,-147.846 200.806,-66.8999 205.138,-30.0492"/>
<polygon fill="midnightblue" stroke="midnightblue" points="208.66,-30.1172 206.516,-19.7417 201.722,-29.1899 208.66,-30.1172"/>
</g>
<!-- Node6 -->
<g id="node7" class="node"><title>Node6</title>
<polygon fill="white" stroke="#bfbfbf" points="597,-112.5 597,-131.5 653,-131.5 653,-112.5 597,-112.5"/>
<text text-anchor="middle" x="625" y="-119.5" font-family="Helvetica,sans-Serif" font-size="10.00">Rtypes.h</text>
</g>
<!-- Node5&#45;&gt;Node6 -->
<g id="edge6" class="edge"><title>Node5&#45;&gt;Node6</title>
<path fill="none" stroke="midnightblue" d="M517.249,-224.416C529.434,-211.813 553.064,-187.669 574,-168 584.758,-157.894 597.169,-146.928 607.054,-138.352"/>
<polygon fill="midnightblue" stroke="midnightblue" points="609.386,-140.963 614.672,-131.781 604.814,-135.662 609.386,-140.963"/>
</g>
<!-- Node7 -->
<g id="node8" class="node"><title>Node7</title>
<polygon fill="white" stroke="#bfbfbf" points="279,-168.5 279,-187.5 343,-187.5 343,-168.5 279,-168.5"/>
<text text-anchor="middle" x="311" y="-175.5" font-family="Helvetica,sans-Serif" font-size="10.00">THStack.h</text>
</g>
<!-- Node5&#45;&gt;Node7 -->
<g id="edge7" class="edge"><title>Node5&#45;&gt;Node7</title>
<path fill="none" stroke="midnightblue" d="M481.884,-225.605C448.439,-216.483 391.246,-200.885 352.321,-190.269"/>
<polygon fill="midnightblue" stroke="midnightblue" points="352.922,-186.805 342.353,-187.551 351.08,-193.559 352.922,-186.805"/>
</g>
<!-- Node8 -->
<g id="node9" class="node"><title>Node8</title>
<polygon fill="white" stroke="#bfbfbf" points="837.5,-0.5 837.5,-19.5 878.5,-19.5 878.5,-0.5 837.5,-0.5"/>
<text text-anchor="middle" x="858" y="-7.5" font-family="Helvetica,sans-Serif" font-size="10.00">string</text>
</g>
<!-- Node5&#45;&gt;Node8 -->
<g id="edge8" class="edge"><title>Node5&#45;&gt;Node8</title>
<path fill="none" stroke="midnightblue" d="M536.181,-232.084C623.754,-228.857 894.336,-216.628 920,-188 934.264,-172.09 902.73,-133.696 902,-132 886.605,-96.2087 871.776,-53.0614 863.879,-29.1679"/>
<polygon fill="midnightblue" stroke="midnightblue" points="867.198,-28.0559 860.762,-19.6402 860.545,-30.2329 867.198,-28.0559"/>
</g>
<!-- Node9 -->
<g id="node10" class="node"><title>Node9</title>
<g id="a_node10"><a xlink:href="_root_draw_8h.html" target="_top" xlink:title="analysis/plot/RootDraw.h">
<polygon fill="white" stroke="black" points="399.5,-168.5 399.5,-187.5 526.5,-187.5 526.5,-168.5 399.5,-168.5"/>
<text text-anchor="middle" x="463" y="-175.5" font-family="Helvetica,sans-Serif" font-size="10.00">analysis/plot/RootDraw.h</text>
</a>
</g>
</g>
<!-- Node5&#45;&gt;Node9 -->
<g id="edge10" class="edge"><title>Node5&#45;&gt;Node9</title>
<path fill="none" stroke="midnightblue" d="M501.404,-224.083C494.773,-216.298 484.979,-204.801 476.942,-195.367"/>
<polygon fill="midnightblue" stroke="midnightblue" points="479.604,-193.094 470.455,-187.751 474.275,-197.633 479.604,-193.094"/>
</g>
<!-- Node11 -->
<g id="node12" class="node"><title>Node11</title>
<polygon fill="white" stroke="#bfbfbf" points="709.5,-112.5 709.5,-131.5 768.5,-131.5 768.5,-112.5 709.5,-112.5"/>
<text text-anchor="middle" x="739" y="-119.5" font-family="Helvetica,sans-Serif" font-size="10.00">functional</text>
</g>
<!-- Node5&#45;&gt;Node11 -->
<g id="edge41" class="edge"><title>Node5&#45;&gt;Node11</title>
<path fill="none" stroke="midnightblue" d="M536.088,-232.509C596.357,-230.784 738.547,-223.012 768,-188 780.102,-173.614 767.577,-153.369 755.423,-139.311"/>
<polygon fill="midnightblue" stroke="midnightblue" points="757.862,-136.795 748.498,-131.84 752.728,-141.553 757.862,-136.795"/>
</g>
<!-- Node13 -->
<g id="node14" class="node"><title>Node13</title>
<g id="a_node14"><a xlink:href="interval_8h.html" target="_top" xlink:title="base/interval.h">
<polygon fill="white" stroke="black" points="379,-56.5 379,-75.5 459,-75.5 459,-56.5 379,-56.5"/>
<text text-anchor="middle" x="419" y="-63.5" font-family="Helvetica,sans-Serif" font-size="10.00">base/interval.h</text>
</a>
</g>
</g>
<!-- Node5&#45;&gt;Node13 -->
<g id="edge34" class="edge"><title>Node5&#45;&gt;Node13</title>
<path fill="none" stroke="midnightblue" d="M481.864,-232.072C425.062,-229.499 296.683,-220.176 270,-188 248.438,-162 249.862,-139.118 270,-112 276.363,-103.432 331.611,-88.3026 372.99,-77.9723"/>
<polygon fill="midnightblue" stroke="midnightblue" points="374.038,-81.3184 382.907,-75.5213 372.359,-74.5229 374.038,-81.3184"/>
</g>
<!-- Node22 -->
<g id="node23" class="node"><title>Node22</title>
<g id="a_node23"><a xlink:href="_hist_style_8h.html" target="_top" xlink:title="analysis/plot/HistStyle.h">
<polygon fill="white" stroke="black" points="583.5,-168.5 583.5,-187.5 706.5,-187.5 706.5,-168.5 583.5,-168.5"/>
<text text-anchor="middle" x="645" y="-175.5" font-family="Helvetica,sans-Serif" font-size="10.00">analysis/plot/HistStyle.h</text>
</a>
</g>
</g>
<!-- Node5&#45;&gt;Node22 -->
<g id="edge30" class="edge"><title>Node5&#45;&gt;Node22</title>
<path fill="none" stroke="midnightblue" d="M530.55,-224.444C553.031,-215.517 588.488,-201.439 613.98,-191.317"/>
<polygon fill="midnightblue" stroke="midnightblue" points="615.549,-194.46 623.551,-187.516 612.965,-187.954 615.549,-194.46"/>
</g>
<!-- Node23 -->
<g id="node24" class="node"><title>Node23</title>
<g id="a_node24"><a xlink:href="base_2std__ext_2math_8h.html" target="_top" xlink:title="base/std_ext/math.h">
<polygon fill="white" stroke="black" points="255,-56.5 255,-75.5 361,-75.5 361,-56.5 255,-56.5"/>
<text text-anchor="middle" x="308" y="-63.5" font-family="Helvetica,sans-Serif" font-size="10.00">base/std_ext/math.h</text>
</a>
</g>
</g>
<!-- Node5&#45;&gt;Node23 -->
<g id="edge35" class="edge"><title>Node5&#45;&gt;Node23</title>
<path fill="none" stroke="midnightblue" d="M481.88,-232.426C422.281,-230.533 282.894,-222.439 254,-188 247.083,-179.755 237.121,-149.747 255,-112 261.034,-99.2605 272.592,-88.7796 283.379,-81.1477"/>
<polygon fill="midnightblue" stroke="midnightblue" points="285.31,-84.0668 291.744,-75.6491 281.465,-78.2174 285.31,-84.0668"/>
</g>
<!-- Node24 -->
<g id="node25" class="node"><title>Node24</title>
<polygon fill="white" stroke="#bfbfbf" points="724.5,-168.5 724.5,-187.5 759.5,-187.5 759.5,-168.5 724.5,-168.5"/>
<text text-anchor="middle" x="742" y="-175.5" font-family="Helvetica,sans-Serif" font-size="10.00">map</text>
</g>
<!-- Node5&#45;&gt;Node24 -->
<g id="edge40" class="edge"><title>Node5&#45;&gt;Node24</title>
<path fill="none" stroke="midnightblue" d="M536.219,-228.015C574.075,-220.875 644.907,-206.769 714.549,-187.876"/>
<polygon fill="midnightblue" stroke="midnightblue" points="715.649,-191.203 724.364,-185.179 713.794,-184.454 715.649,-191.203"/>
</g>
<!-- Node9&#45;&gt;Node3 -->
<g id="edge14" class="edge"><title>Node9&#45;&gt;Node3</title>
<path fill="none" stroke="midnightblue" d="M437.964,-168.444C411.384,-159.359 369.191,-144.939 339.477,-134.783"/>
<polygon fill="midnightblue" stroke="midnightblue" points="340.513,-131.439 329.918,-131.516 338.249,-138.062 340.513,-131.439"/>
</g>
<!-- Node9&#45;&gt;Node4 -->
<g id="edge13" class="edge"><title>Node9&#45;&gt;Node4</title>
<path fill="none" stroke="midnightblue" d="M448.657,-168.293C426.134,-154.881 380.821,-128.948 340,-112 290.145,-91.3005 261.017,-115.29 224,-76 212.43,-63.7189 208.837,-44.461 207.895,-30.0901"/>
<polygon fill="midnightblue" stroke="midnightblue" points="211.386,-29.7365 207.605,-19.8392 204.389,-29.934 211.386,-29.7365"/>
</g>
<!-- Node9&#45;&gt;Node6 -->
<g id="edge29" class="edge"><title>Node9&#45;&gt;Node6</title>
<path fill="none" stroke="midnightblue" d="M488.669,-168.444C515.923,-159.359 559.184,-144.939 589.651,-134.783"/>
<polygon fill="midnightblue" stroke="midnightblue" points="591.071,-137.999 599.451,-131.516 588.857,-131.358 591.071,-137.999"/>
</g>
<!-- Node9&#45;&gt;Node8 -->
<g id="edge11" class="edge"><title>Node9&#45;&gt;Node8</title>
<path fill="none" stroke="midnightblue" d="M476.284,-168.417C498.503,-154.455 545.009,-126.888 588,-112 669.215,-83.8743 700.05,-112.202 778,-76 803.472,-64.1703 827.778,-42.4168 842.776,-27.3525"/>
<polygon fill="midnightblue" stroke="midnightblue" points="845.665,-29.3998 850.098,-19.7772 840.632,-24.5347 845.665,-29.3998"/>
</g>
<!-- Node10 -->
<g id="node11" class="node"><title>Node10</title>
<polygon fill="white" stroke="#bfbfbf" points="786.5,-112.5 786.5,-131.5 815.5,-131.5 815.5,-112.5 786.5,-112.5"/>
<text text-anchor="middle" x="801" y="-119.5" font-family="Helvetica,sans-Serif" font-size="10.00">list</text>
</g>
<!-- Node9&#45;&gt;Node10 -->
<g id="edge12" class="edge"><title>Node9&#45;&gt;Node10</title>
<path fill="none" stroke="midnightblue" d="M526.64,-171.95C588.451,-166.132 684.901,-154.634 776.71,-131.53"/>
<polygon fill="midnightblue" stroke="midnightblue" points="777.622,-134.91 786.438,-129.034 775.882,-128.129 777.622,-134.91"/>
</g>
<!-- Node9&#45;&gt;Node11 -->
<g id="edge15" class="edge"><title>Node9&#45;&gt;Node11</title>
<path fill="none" stroke="midnightblue" d="M506.733,-168.444C559.775,-158.066 648.408,-140.724 699.478,-130.733"/>
<polygon fill="midnightblue" stroke="midnightblue" points="700.333,-134.132 709.474,-128.777 698.988,-127.262 700.333,-134.132"/>
</g>
<!-- Node12 -->
<g id="node13" class="node"><title>Node12</title>
<g id="a_node13"><a xlink:href="_bin_settings_8h.html" target="_top" xlink:title="base/BinSettings.h">
<polygon fill="white" stroke="black" points="427.5,-112.5 427.5,-131.5 526.5,-131.5 526.5,-112.5 427.5,-112.5"/>
<text text-anchor="middle" x="477" y="-119.5" font-family="Helvetica,sans-Serif" font-size="10.00">base/BinSettings.h</text>
</a>
</g>
</g>
<!-- Node9&#45;&gt;Node12 -->
<g id="edge16" class="edge"><title>Node9&#45;&gt;Node12</title>
<path fill="none" stroke="midnightblue" d="M465.312,-168.083C467.167,-160.927 469.835,-150.635 472.154,-141.691"/>
<polygon fill="midnightblue" stroke="midnightblue" points="475.609,-142.309 474.731,-131.751 468.834,-140.553 475.609,-142.309"/>
</g>
<!-- Node12&#45;&gt;Node4 -->
<g id="edge25" class="edge"><title>Node12&#45;&gt;Node4</title>
<path fill="none" stroke="midnightblue" d="M427.451,-116.155C368.535,-109.58 274.574,-96.2737 246,-76 230.044,-64.6788 219.756,-44.3772 213.963,-29.4659"/>
<polygon fill="midnightblue" stroke="midnightblue" points="217.164,-28.0207 210.522,-19.7663 210.567,-30.361 217.164,-28.0207"/>
</g>
<!-- Node12&#45;&gt;Node13 -->
<g id="edge17" class="edge"><title>Node12&#45;&gt;Node13</title>
<path fill="none" stroke="midnightblue" d="M467.681,-112.324C459.107,-104.341 446.188,-92.3128 435.812,-82.6529"/>
<polygon fill="midnightblue" stroke="midnightblue" points="438.192,-80.0865 428.488,-75.8339 433.422,-85.2098 438.192,-80.0865"/>
</g>
<!-- Node16 -->
<g id="node17" class="node"><title>Node16</title>
<polygon fill="white" stroke="#bfbfbf" points="552.5,-0.5 552.5,-19.5 611.5,-19.5 611.5,-0.5 552.5,-0.5"/>
<text text-anchor="middle" x="582" y="-7.5" font-family="Helvetica,sans-Serif" font-size="10.00">stdexcept</text>
</g>
<!-- Node12&#45;&gt;Node16 -->
<g id="edge26" class="edge"><title>Node12&#45;&gt;Node16</title>
<path fill="none" stroke="midnightblue" d="M518.754,-112.428C539.353,-105.962 562.598,-94.8485 576,-76 585.431,-62.7364 586.169,-43.8989 584.999,-29.9151"/>
<polygon fill="midnightblue" stroke="midnightblue" points="588.468,-29.4424 583.782,-19.9401 581.519,-30.2905 588.468,-29.4424"/>
</g>
<!-- Node18 -->
<g id="node19" class="node"><title>Node18</title>
<polygon fill="white" stroke="#bfbfbf" points="462.5,-0.5 462.5,-19.5 511.5,-19.5 511.5,-0.5 462.5,-0.5"/>
<text text-anchor="middle" x="487" y="-7.5" font-family="Helvetica,sans-Serif" font-size="10.00">istream</text>
</g>
<!-- Node12&#45;&gt;Node18 -->
<g id="edge27" class="edge"><title>Node12&#45;&gt;Node18</title>
<path fill="none" stroke="midnightblue" d="M477.785,-112.368C479.398,-94.617 483.121,-53.6664 485.309,-29.5974"/>
<polygon fill="midnightblue" stroke="midnightblue" points="488.799,-29.8673 486.219,-19.5914 481.828,-29.2334 488.799,-29.8673"/>
</g>
<!-- Node21 -->
<g id="node22" class="node"><title>Node21</title>
<polygon fill="white" stroke="#bfbfbf" points="515,-56.5 515,-75.5 567,-75.5 567,-56.5 515,-56.5"/>
<text text-anchor="middle" x="541" y="-63.5" font-family="Helvetica,sans-Serif" font-size="10.00">ostream</text>
</g>
<!-- Node12&#45;&gt;Node21 -->
<g id="edge28" class="edge"><title>Node12&#45;&gt;Node21</title>
<path fill="none" stroke="midnightblue" d="M487.283,-112.324C496.836,-104.263 511.28,-92.0765 522.784,-82.3695"/>
<polygon fill="midnightblue" stroke="midnightblue" points="525.144,-84.9577 530.53,-75.8339 520.63,-79.6076 525.144,-84.9577"/>
</g>
<!-- Node14 -->
<g id="node15" class="node"><title>Node14</title>
<g id="a_node15"><a xlink:href="types_8h.html" target="_top" xlink:title="types.h">
<polygon fill="white" stroke="black" points="395.5,-0.5 395.5,-19.5 444.5,-19.5 444.5,-0.5 395.5,-0.5"/>
<text text-anchor="middle" x="420" y="-7.5" font-family="Helvetica,sans-Serif" font-size="10.00">types.h</text>
</a>
</g>
</g>
<!-- Node13&#45;&gt;Node14 -->
<g id="edge18" class="edge"><title>Node13&#45;&gt;Node14</title>
<path fill="none" stroke="midnightblue" d="M419.165,-56.083C419.296,-49.0059 419.484,-38.8611 419.648,-29.9865"/>
<polygon fill="midnightblue" stroke="midnightblue" points="423.152,-29.8142 419.838,-19.7511 416.153,-29.6845 423.152,-29.8142"/>
</g>
<!-- Node13&#45;&gt;Node15 -->
<g id="edge19" class="edge"><title>Node13&#45;&gt;Node15</title>
<path fill="none" stroke="midnightblue" d="M459.268,-59.2987C510.589,-51.821 602.236,-37.7618 689.924,-20.0988"/>
<polygon fill="midnightblue" stroke="midnightblue" points="690.665,-23.5199 699.767,-18.0973 689.27,-16.6603 690.665,-23.5199"/>
</g>
<!-- Node13&#45;&gt;Node16 -->
<g id="edge20" class="edge"><title>Node13&#45;&gt;Node16</title>
<path fill="none" stroke="midnightblue" d="M444.828,-56.4435C472.249,-47.3591 515.777,-32.9388 546.432,-22.7831"/>
<polygon fill="midnightblue" stroke="midnightblue" points="547.901,-25.9837 556.293,-19.5164 545.7,-19.3389 547.901,-25.9837"/>
</g>
<!-- Node17 -->
<g id="node18" class="node"><title>Node17</title>
<polygon fill="white" stroke="#bfbfbf" points="275,-0.5 275,-19.5 315,-19.5 315,-0.5 275,-0.5"/>
<text text-anchor="middle" x="295" y="-7.5" font-family="Helvetica,sans-Serif" font-size="10.00">limits</text>
</g>
<!-- Node13&#45;&gt;Node17 -->
<g id="edge21" class="edge"><title>Node13&#45;&gt;Node17</title>
<path fill="none" stroke="midnightblue" d="M399.352,-56.4435C379.035,-47.5961 347.097,-33.6875 323.902,-23.5865"/>
<polygon fill="midnightblue" stroke="midnightblue" points="325.122,-20.3002 314.556,-19.5164 322.327,-26.7181 325.122,-20.3002"/>
</g>
<!-- Node13&#45;&gt;Node18 -->
<g id="edge22" class="edge"><title>Node13&#45;&gt;Node18</title>
<path fill="none" stroke="midnightblue" d="M429.925,-56.324C440.175,-48.1849 455.721,-35.8395 468.001,-26.0874"/>
<polygon fill="midnightblue" stroke="midnightblue" points="470.221,-28.7937 475.876,-19.8339 465.868,-23.3119 470.221,-28.7937"/>
</g>
<!-- Node19 -->
<g id="node20" class="node"><title>Node19</title>
<polygon fill="white" stroke="#bfbfbf" points="630,-0.5 630,-19.5 682,-19.5 682,-0.5 630,-0.5"/>
<text text-anchor="middle" x="656" y="-7.5" font-family="Helvetica,sans-Serif" font-size="10.00">sstream</text>
</g>
<!-- Node13&#45;&gt;Node19 -->
<g id="edge23" class="edge"><title>Node13&#45;&gt;Node19</title>
<path fill="none" stroke="midnightblue" d="M458.351,-56.4914C496.861,-48.0978 557.433,-34.7177 619.672,-20.0297"/>
<polygon fill="midnightblue" stroke="midnightblue" points="620.748,-23.3718 629.672,-17.6617 619.135,-16.5602 620.748,-23.3718"/>
</g>
<!-- Node20 -->
<g id="node21" class="node"><title>Node20</title>
<polygon fill="white" stroke="#bfbfbf" points="333,-0.5 333,-19.5 377,-19.5 377,-0.5 333,-0.5"/>
<text text-anchor="middle" x="355" y="-7.5" font-family="Helvetica,sans-Serif" font-size="10.00">cmath</text>
</g>
<!-- Node13&#45;&gt;Node20 -->
<g id="edge24" class="edge"><title>Node13&#45;&gt;Node20</title>
<path fill="none" stroke="midnightblue" d="M408.717,-56.324C399.164,-48.2631 384.72,-36.0765 373.216,-26.3695"/>
<polygon fill="midnightblue" stroke="midnightblue" points="375.37,-23.6076 365.47,-19.8339 370.856,-28.9577 375.37,-23.6076"/>
</g>
<!-- Node22&#45;&gt;Node6 -->
<g id="edge31" class="edge"><title>Node22&#45;&gt;Node6</title>
<path fill="none" stroke="midnightblue" d="M641.697,-168.083C639.018,-160.849 635.151,-150.409 631.814,-141.397"/>
<polygon fill="midnightblue" stroke="midnightblue" points="634.996,-139.913 628.241,-131.751 628.432,-142.344 634.996,-139.913"/>
</g>
<!-- Node22&#45;&gt;Node8 -->
<g id="edge32" class="edge"><title>Node22&#45;&gt;Node8</title>
<path fill="none" stroke="midnightblue" d="M650.245,-168.064C658.883,-154.105 677.415,-127.157 700,-112 743.064,-83.0989 769.068,-106.521 811,-76 828.015,-63.6152 841.32,-43.2007 849.366,-28.5529"/>
<polygon fill="midnightblue" stroke="midnightblue" points="852.564,-29.9893 854.077,-19.503 846.355,-26.7571 852.564,-29.9893"/>
</g>
<!-- Node22&#45;&gt;Node11 -->
<g id="edge33" class="edge"><title>Node22&#45;&gt;Node11</title>
<path fill="none" stroke="midnightblue" d="M660.103,-168.324C674.903,-159.822 697.694,-146.729 714.982,-136.797"/>
<polygon fill="midnightblue" stroke="midnightblue" points="717.007,-139.671 723.935,-131.655 713.52,-133.601 717.007,-139.671"/>
</g>
<!-- Node23&#45;&gt;Node4 -->
<g id="edge38" class="edge"><title>Node23&#45;&gt;Node4</title>
<path fill="none" stroke="midnightblue" d="M291.933,-56.324C276.042,-47.7428 251.493,-34.486 233.042,-24.5224"/>
<polygon fill="midnightblue" stroke="midnightblue" points="234.489,-21.3264 224.027,-19.6545 231.163,-27.4857 234.489,-21.3264"/>
</g>
<!-- Node23&#45;&gt;Node17 -->
<g id="edge37" class="edge"><title>Node23&#45;&gt;Node17</title>
<path fill="none" stroke="midnightblue" d="M305.853,-56.083C304.131,-48.9272 301.653,-38.6353 299.5,-29.6911"/>
<polygon fill="midnightblue" stroke="midnightblue" points="302.85,-28.6541 297.107,-19.7511 296.045,-30.2925 302.85,-28.6541"/>
</g>
<!-- Node23&#45;&gt;Node20 -->
<g id="edge36" class="edge"><title>Node23&#45;&gt;Node20</title>
<path fill="none" stroke="midnightblue" d="M315.761,-56.083C322.537,-48.2982 332.543,-36.8015 340.755,-27.3665"/>
<polygon fill="midnightblue" stroke="midnightblue" points="343.458,-29.592 347.383,-19.7511 338.178,-24.9963 343.458,-29.592"/>
</g>
<!-- Node25&#45;&gt;Node8 -->
<g id="edge61" class="edge"><title>Node25&#45;&gt;Node8</title>
<path fill="none" stroke="midnightblue" d="M1257.69,-224.944C1281.97,-218.63 1310.11,-207.496 1329,-188 1353.23,-162.994 1365.2,-142.271 1348,-112 1323.97,-69.7201 1300.08,-71.5379 1254,-56 1123.62,-12.0356 956.842,-9.22053 888.89,-10.1541"/>
<polygon fill="midnightblue" stroke="midnightblue" points="888.791,-6.65517 878.854,-10.3303 888.914,-13.6541 888.791,-6.65517"/>
</g>
<!-- Node26 -->
<g id="node27" class="node"><title>Node26</title>
<g id="a_node27"><a xlink:href="_t_i_d_8h.html" target="_top" xlink:title="TID.h">
<polygon fill="white" stroke="black" points="1188.5,-168.5 1188.5,-187.5 1229.5,-187.5 1229.5,-168.5 1188.5,-168.5"/>
<text text-anchor="middle" x="1209" y="-175.5" font-family="Helvetica,sans-Serif" font-size="10.00">TID.h</text>
</a>
</g>
</g>
<!-- Node25&#45;&gt;Node26 -->
<g id="edge43" class="edge"><title>Node25&#45;&gt;Node26</title>
<path fill="none" stroke="midnightblue" d="M1209,-224.083C1209,-217.006 1209,-206.861 1209,-197.986"/>
<polygon fill="midnightblue" stroke="midnightblue" points="1212.5,-197.751 1209,-187.751 1205.5,-197.751 1212.5,-197.751"/>
</g>
<!-- Node35 -->
<g id="node36" class="node"><title>Node35</title>
<polygon fill="white" stroke="#bfbfbf" points="1108,-168.5 1108,-187.5 1170,-187.5 1170,-168.5 1108,-168.5"/>
<text text-anchor="middle" x="1139" y="-175.5" font-family="Helvetica,sans-Serif" font-size="10.00">TNamed.h</text>
</g>
<!-- Node25&#45;&gt;Node35 -->
<g id="edge60" class="edge"><title>Node25&#45;&gt;Node35</title>
<path fill="none" stroke="midnightblue" d="M1197.75,-224.324C1187.2,-216.185 1171.2,-203.839 1158.56,-194.087"/>
<polygon fill="midnightblue" stroke="midnightblue" points="1160.51,-191.171 1150.45,-187.834 1156.23,-196.713 1160.51,-191.171"/>
</g>
<!-- Node26&#45;&gt;Node6 -->
<g id="edge44" class="edge"><title>Node26&#45;&gt;Node6</title>
<path fill="none" stroke="midnightblue" d="M1188.46,-170.393C1185,-169.465 1181.42,-168.618 1178,-168 968.353,-130.097 912.038,-152.697 700,-132 687.987,-130.827 674.917,-129.335 663.104,-127.903"/>
<polygon fill="midnightblue" stroke="midnightblue" points="663.457,-124.421 653.104,-126.671 662.601,-131.368 663.457,-124.421"/>
</g>
<!-- Node26&#45;&gt;Node10 -->
<g id="edge57" class="edge"><title>Node26&#45;&gt;Node10</title>
<path fill="none" stroke="midnightblue" d="M1188.45,-170.475C1184.99,-169.537 1181.41,-168.666 1178,-168 1025.39,-138.204 982.33,-163.196 830,-132 828.515,-131.696 826.998,-131.347 825.475,-130.966"/>
<polygon fill="midnightblue" stroke="midnightblue" points="826.183,-127.528 815.606,-128.15 824.262,-134.26 826.183,-127.528"/>
</g>
<!-- Node26&#45;&gt;Node16 -->
<g id="edge56" class="edge"><title>Node26&#45;&gt;Node16</title>
<path fill="none" stroke="midnightblue" d="M1188.43,-170.553C1184.97,-169.606 1181.4,-168.711 1178,-168 1056.91,-142.681 1023.47,-155.406 902,-132 866.858,-125.229 858.857,-120.112 824,-112 747.932,-94.2964 721.37,-111.882 652,-76 629.097,-64.1533 608.192,-42.7194 595.308,-27.7141"/>
<polygon fill="midnightblue" stroke="midnightblue" points="597.773,-25.2039 588.694,-19.7432 592.386,-29.6739 597.773,-25.2039"/>
</g>
<!-- Node27 -->
<g id="node28" class="node"><title>Node27</title>
<g id="a_node28"><a xlink:href="base_2std__ext_2_time_8h.html" target="_top" xlink:title="base/std_ext/time.h">
<polygon fill="white" stroke="black" points="910.5,-112.5 910.5,-131.5 1013.5,-131.5 1013.5,-112.5 910.5,-112.5"/>
<text text-anchor="middle" x="962" y="-119.5" font-family="Helvetica,sans-Serif" font-size="10.00">base/std_ext/time.h</text>
</a>
</g>
</g>
<!-- Node26&#45;&gt;Node27 -->
<g id="edge45" class="edge"><title>Node26&#45;&gt;Node27</title>
<path fill="none" stroke="midnightblue" d="M1188.38,-170.774C1184.93,-169.8 1181.37,-168.839 1178,-168 1124.03,-154.565 1061.8,-141.895 1018.04,-133.443"/>
<polygon fill="midnightblue" stroke="midnightblue" points="1018.64,-129.995 1008.16,-131.547 1017.32,-136.87 1018.64,-129.995"/>
</g>
<!-- Node30 -->
<g id="node31" class="node"><title>Node30</title>
<polygon fill="white" stroke="#bfbfbf" points="1012.5,-56.5 1012.5,-75.5 1053.5,-75.5 1053.5,-56.5 1012.5,-56.5"/>
<text text-anchor="middle" x="1033" y="-63.5" font-family="Helvetica,sans-Serif" font-size="10.00">ctime</text>
</g>
<!-- Node26&#45;&gt;Node30 -->
<g id="edge59" class="edge"><title>Node26&#45;&gt;Node30</title>
<path fill="none" stroke="midnightblue" d="M1188.21,-170.924C1148.03,-159.149 1063.44,-134.182 1061,-132 1047.42,-119.86 1040.18,-99.9888 1036.49,-85.408"/>
<polygon fill="midnightblue" stroke="midnightblue" points="1039.88,-84.5203 1034.31,-75.5049 1033.04,-86.0232 1039.88,-84.5203"/>
</g>
<!-- Node31 -->
<g id="node32" class="node"><title>Node31</title>
<polygon fill="white" stroke="#bfbfbf" points="1070,-112.5 1070,-131.5 1132,-131.5 1132,-112.5 1070,-112.5"/>
<text text-anchor="middle" x="1101" y="-119.5" font-family="Helvetica,sans-Serif" font-size="10.00">type_traits</text>
</g>
<!-- Node26&#45;&gt;Node31 -->
<g id="edge53" class="edge"><title>Node26&#45;&gt;Node31</title>
<path fill="none" stroke="midnightblue" d="M1191.65,-168.324C1174.33,-159.664 1147.48,-146.242 1127.5,-136.249"/>
<polygon fill="midnightblue" stroke="midnightblue" points="1128.82,-132.996 1118.31,-131.655 1125.69,-139.257 1128.82,-132.996"/>
</g>
<!-- Node32 -->
<g id="node33" class="node"><title>Node32</title>
<polygon fill="white" stroke="#bfbfbf" points="1150,-112.5 1150,-131.5 1188,-131.5 1188,-112.5 1150,-112.5"/>
<text text-anchor="middle" x="1169" y="-119.5" font-family="Helvetica,sans-Serif" font-size="10.00">tuple</text>
</g>
<!-- Node26&#45;&gt;Node32 -->
<g id="edge54" class="edge"><title>Node26&#45;&gt;Node32</title>
<path fill="none" stroke="midnightblue" d="M1202.39,-168.083C1196.74,-160.455 1188.46,-149.264 1181.55,-139.941"/>
<polygon fill="midnightblue" stroke="midnightblue" points="1184.25,-137.703 1175.48,-131.751 1178.62,-141.87 1184.25,-137.703"/>
</g>
<!-- Node33 -->
<g id="node34" class="node"><title>Node33</title>
<polygon fill="white" stroke="#bfbfbf" points="1206,-112.5 1206,-131.5 1252,-131.5 1252,-112.5 1206,-112.5"/>
<text text-anchor="middle" x="1229" y="-119.5" font-family="Helvetica,sans-Serif" font-size="10.00">cstdint</text>
</g>
<!-- Node26&#45;&gt;Node33 -->
<g id="edge55" class="edge"><title>Node26&#45;&gt;Node33</title>
<path fill="none" stroke="midnightblue" d="M1212.3,-168.083C1214.98,-160.849 1218.85,-150.409 1222.19,-141.397"/>
<polygon fill="midnightblue" stroke="midnightblue" points="1225.57,-142.344 1225.76,-131.751 1219,-139.913 1225.57,-142.344"/>
</g>
<!-- Node34 -->
<g id="node35" class="node"><title>Node34</title>
<polygon fill="white" stroke="#bfbfbf" points="1270,-112.5 1270,-131.5 1320,-131.5 1320,-112.5 1270,-112.5"/>
<text text-anchor="middle" x="1295" y="-119.5" font-family="Helvetica,sans-Serif" font-size="10.00">iomanip</text>
</g>
<!-- Node26&#45;&gt;Node34 -->
<g id="edge58" class="edge"><title>Node26&#45;&gt;Node34</title>
<path fill="none" stroke="midnightblue" d="M1222.82,-168.324C1236.23,-159.9 1256.82,-146.971 1272.59,-137.074"/>
<polygon fill="midnightblue" stroke="midnightblue" points="1274.61,-139.936 1281.22,-131.655 1270.89,-134.008 1274.61,-139.936"/>
</g>
<!-- Node28 -->
<g id="node29" class="node"><title>Node28</title>
<g id="a_node29"><a xlink:href="string_8h.html" target="_top" xlink:title="base/std_ext/string.h">
<polygon fill="white" stroke="black" points="661,-56.5 661,-75.5 769,-75.5 769,-56.5 661,-56.5"/>
<text text-anchor="middle" x="715" y="-63.5" font-family="Helvetica,sans-Serif" font-size="10.00">base/std_ext/string.h</text>
</a>
</g>
</g>
<!-- Node27&#45;&gt;Node28 -->
<g id="edge46" class="edge"><title>Node27&#45;&gt;Node28</title>
<path fill="none" stroke="midnightblue" d="M922.862,-112.444C879.774,-103.023 810.441,-87.8656 763.829,-77.6752"/>
<polygon fill="midnightblue" stroke="midnightblue" points="764.472,-74.2331 753.955,-75.5164 762.976,-81.0715 764.472,-74.2331"/>
</g>
<!-- Node29 -->
<g id="node30" class="node"><title>Node29</title>
<polygon fill="white" stroke="#bfbfbf" points="939,-56.5 939,-75.5 985,-75.5 985,-56.5 939,-56.5"/>
<text text-anchor="middle" x="962" y="-63.5" font-family="Helvetica,sans-Serif" font-size="10.00">cstring</text>
</g>
<!-- Node27&#45;&gt;Node29 -->
<g id="edge51" class="edge"><title>Node27&#45;&gt;Node29</title>
<path fill="none" stroke="midnightblue" d="M962,-112.083C962,-105.006 962,-94.8611 962,-85.9865"/>
<polygon fill="midnightblue" stroke="midnightblue" points="965.5,-85.751 962,-75.7511 958.5,-85.7511 965.5,-85.751"/>
</g>
<!-- Node27&#45;&gt;Node30 -->
<g id="edge52" class="edge"><title>Node27&#45;&gt;Node30</title>
<path fill="none" stroke="midnightblue" d="M973.407,-112.324C984.109,-104.185 1000.34,-91.8395 1013.16,-82.0874"/>
<polygon fill="midnightblue" stroke="midnightblue" points="1015.54,-84.6734 1021.39,-75.8339 1011.31,-79.1018 1015.54,-84.6734"/>
</g>
<!-- Node28&#45;&gt;Node4 -->
<g id="edge50" class="edge"><title>Node28&#45;&gt;Node4</title>
<path fill="none" stroke="midnightblue" d="M660.984,-60.5362C576.545,-53.3444 408.213,-38.1467 266,-20 257.685,-18.9389 248.724,-17.6304 240.392,-16.3431"/>
<polygon fill="midnightblue" stroke="midnightblue" points="240.693,-12.8473 230.269,-14.744 239.601,-19.7616 240.693,-12.8473"/>
</g>
<!-- Node28&#45;&gt;Node8 -->
<g id="edge47" class="edge"><title>Node28&#45;&gt;Node8</title>
<path fill="none" stroke="midnightblue" d="M737.659,-56.4435C761.961,-47.2666 800.682,-32.6446 827.614,-22.4744"/>
<polygon fill="midnightblue" stroke="midnightblue" points="829.186,-25.6222 837.304,-18.8151 826.713,-19.0736 829.186,-25.6222"/>
</g>
<!-- Node28&#45;&gt;Node15 -->
<g id="edge49" class="edge"><title>Node28&#45;&gt;Node15</title>
<path fill="none" stroke="midnightblue" d="M717.147,-56.083C718.869,-48.9272 721.347,-38.6353 723.5,-29.6911"/>
<polygon fill="midnightblue" stroke="midnightblue" points="726.955,-30.2925 725.893,-19.7511 720.15,-28.6541 726.955,-30.2925"/>
</g>
<!-- Node28&#45;&gt;Node19 -->
<g id="edge48" class="edge"><title>Node28&#45;&gt;Node19</title>
<path fill="none" stroke="midnightblue" d="M705.521,-56.324C696.799,-48.3414 683.657,-36.3128 673.102,-26.6529"/>
<polygon fill="midnightblue" stroke="midnightblue" points="675.392,-24.0036 665.652,-19.8339 670.666,-29.1674 675.392,-24.0036"/>
</g>
<!-- Node36&#45;&gt;Node8 -->
<g id="edge68" class="edge"><title>Node36&#45;&gt;Node8</title>
<path fill="none" stroke="midnightblue" d="M1102.28,-228.927C1204.76,-219.826 1393.61,-191.928 1329,-112 1273.06,-42.798 984.675,-18.8558 888.934,-12.7459"/>
<polygon fill="midnightblue" stroke="midnightblue" points="888.944,-9.23991 878.747,-12.1173 888.512,-16.2266 888.944,-9.23991"/>
</g>
<!-- Node36&#45;&gt;Node10 -->
<g id="edge69" class="edge"><title>Node36&#45;&gt;Node10</title>
<path fill="none" stroke="midnightblue" d="M1036.97,-224.268C1029.96,-210.091 1014.1,-182.223 992,-168 929.974,-128.09 901.281,-150.947 830,-132 828.535,-131.611 827.034,-131.195 825.522,-130.765"/>
<polygon fill="midnightblue" stroke="midnightblue" points="826.269,-127.335 815.685,-127.814 824.258,-134.04 826.269,-127.335"/>
</g>
<!-- Node36&#45;&gt;Node11 -->
<g id="edge67" class="edge"><title>Node36&#45;&gt;Node11</title>
<path fill="none" stroke="midnightblue" d="M1027.74,-224.439C1006.02,-210.755 961.157,-183.884 920,-168 906.851,-162.925 827.86,-143.937 778.673,-132.309"/>
<polygon fill="midnightblue" stroke="midnightblue" points="779.2,-128.838 768.663,-129.947 777.592,-135.65 779.2,-128.838"/>
</g>
<!-- Node37 -->
<g id="node38" class="node"><title>Node37</title>
<g id="a_node38"><a xlink:href="memory_8h.html" target="_top" xlink:title="std_ext/memory.h">
<polygon fill="white" stroke="black" points="816.5,-168.5 816.5,-187.5 911.5,-187.5 911.5,-168.5 816.5,-168.5"/>
<text text-anchor="middle" x="864" y="-175.5" font-family="Helvetica,sans-Serif" font-size="10.00">std_ext/memory.h</text>
</a>
</g>
</g>
<!-- Node36&#45;&gt;Node37 -->
<g id="edge63" class="edge"><title>Node36&#45;&gt;Node37</title>
<path fill="none" stroke="midnightblue" d="M1012.95,-224.444C982.918,-215.28 935.087,-200.688 901.757,-190.519"/>
<polygon fill="midnightblue" stroke="midnightblue" points="902.501,-187.087 891.915,-187.516 900.458,-193.782 902.501,-187.087"/>
</g>
<!-- Node38 -->
<g id="node39" class="node"><title>Node38</title>
<polygon fill="white" stroke="#bfbfbf" points="1044,-168.5 1044,-187.5 1090,-187.5 1090,-168.5 1044,-168.5"/>
<text text-anchor="middle" x="1067" y="-175.5" font-family="Helvetica,sans-Serif" font-size="10.00">chrono</text>
</g>
<!-- Node36&#45;&gt;Node38 -->
<g id="edge66" class="edge"><title>Node36&#45;&gt;Node38</title>
<path fill="none" stroke="midnightblue" d="M1045.29,-224.083C1048.85,-216.691 1054.02,-205.953 1058.42,-196.811"/>
<polygon fill="midnightblue" stroke="midnightblue" points="1061.6,-198.279 1062.79,-187.751 1055.29,-195.243 1061.6,-198.279"/>
</g>
<!-- Node37&#45;&gt;Node3 -->
<g id="edge64" class="edge"><title>Node37&#45;&gt;Node3</title>
<path fill="none" stroke="midnightblue" d="M816.34,-172.396C706.783,-161.813 438.951,-135.94 341.346,-126.511"/>
<polygon fill="midnightblue" stroke="midnightblue" points="341.395,-123 331.104,-125.522 340.721,-129.967 341.395,-123"/>
</g>
<!-- Node37&#45;&gt;Node10 -->
<g id="edge65" class="edge"><title>Node37&#45;&gt;Node10</title>
<path fill="none" stroke="midnightblue" d="M853.878,-168.324C844.474,-160.263 830.256,-148.077 818.931,-138.369"/>
<polygon fill="midnightblue" stroke="midnightblue" points="821.177,-135.684 811.306,-131.834 816.621,-140.999 821.177,-135.684"/>
</g>
</g>
</svg>
