<?xml version="1.0" encoding="UTF-8" standalone="no"?>
<!DOCTYPE svg PUBLIC "-//W3C//DTD SVG 1.1//EN"
 "http://www.w3.org/Graphics/SVG/1.1/DTD/svg11.dtd">
<!-- Generated by graphviz version 2.36.0 (20140111.2315)
 -->
<!-- Title: src/root&#45;addons/analysis_codes/hadd.h Pages: 1 -->
<svg width="368pt" height="108pt"
 viewBox="0.00 0.00 368.00 108.00" xmlns="http://www.w3.org/2000/svg" xmlns:xlink="http://www.w3.org/1999/xlink">
<g id="graph0" class="graph" transform="scale(1 1) rotate(0) translate(4 104)">
<title>src/root&#45;addons/analysis_codes/hadd.h</title>
<polygon fill="white" stroke="none" points="-4,4 -4,-104 364,-104 364,4 -4,4"/>
<!-- Node4 -->
<g id="node1" class="node"><title>Node4</title>
<polygon fill="#bfbfbf" stroke="black" points="114.5,-69 114.5,-99 237.5,-99 237.5,-69 114.5,-69"/>
<text text-anchor="start" x="122.5" y="-87" font-family="Helvetica,sans-Serif" font-size="10.00">src/root&#45;addons/analysis</text>
<text text-anchor="middle" x="176" y="-76" font-family="Helvetica,sans-Serif" font-size="10.00">_codes/hadd.h</text>
</g>
<!-- Node5 -->
<g id="node2" class="node"><title>Node5</title>
<g id="a_node2"><a xlink:href="_ant-hadd_8cc.html" target="_top" xlink:title="progs/Ant&#45;hadd.cc">
<polygon fill="white" stroke="black" points="0,-6.5 0,-25.5 96,-25.5 96,-6.5 0,-6.5"/>
<text text-anchor="middle" x="48" y="-13.5" font-family="Helvetica,sans-Serif" font-size="10.00">progs/Ant&#45;hadd.cc</text>
</a>
</g>
</g>
<!-- Node4&#45;&gt;Node5 -->
<g id="edge1" class="edge"><title>Node4&#45;&gt;Node5</title>
<path fill="none" stroke="midnightblue" d="M139.498,-64.1784C114.947,-51.5196 83.731,-35.4238 64.8376,-25.6819"/>
<polygon fill="midnightblue" stroke="midnightblue" points="138.049,-67.3692 148.541,-68.8413 141.257,-61.1476 138.049,-67.3692"/>
</g>
<!-- Node6 -->
<g id="node3" class="node"><title>Node6</title>
<g id="a_node3"><a xlink:href="hadd_8cc.html" target="_top" xlink:title="src/root&#45;addons/analysis\l_codes/hadd.cc">
<polygon fill="white" stroke="black" points="114.5,-1 114.5,-31 237.5,-31 237.5,-1 114.5,-1"/>
<text text-anchor="start" x="122.5" y="-19" font-family="Helvetica,sans-Serif" font-size="10.00">src/root&#45;addons/analysis</text>
<text text-anchor="middle" x="176" y="-8" font-family="Helvetica,sans-Serif" font-size="10.00">_codes/hadd.cc</text>
</a>
</g>
</g>
<!-- Node4&#45;&gt;Node6 -->
<g id="edge2" class="edge"><title>Node4&#45;&gt;Node6</title>
<path fill="none" stroke="midnightblue" d="M176,-58.5322C176,-49.3606 176,-39.2449 176,-31.2931"/>
<polygon fill="midnightblue" stroke="midnightblue" points="172.5,-58.6789 176,-68.679 179.5,-58.679 172.5,-58.6789"/>
</g>
<!-- Node7 -->
<g id="node4" class="node"><title>Node7</title>
<g id="a_node4"><a xlink:href="_test_hadd_8cc.html" target="_top" xlink:title="test/analysis_codes\l/TestHadd.cc">
<polygon fill="white" stroke="black" points="256,-1 256,-31 360,-31 360,-1 256,-1"/>
<text text-anchor="start" x="264" y="-19" font-family="Helvetica,sans-Serif" font-size="10.00">test/analysis_codes</text>
<text text-anchor="middle" x="308" y="-8" font-family="Helvetica,sans-Serif" font-size="10.00">/TestHadd.cc</text>
</a>
</g>
</g>
<!-- Node4&#45;&gt;Node7 -->
<g id="edge3" class="edge"><title>Node4&#45;&gt;Node7</title>
<path fill="none" stroke="midnightblue" d="M213.322,-64.3388C234.407,-53.7964 260.339,-40.8303 279.73,-31.1352"/>
<polygon fill="midnightblue" stroke="midnightblue" points="211.696,-61.2387 204.317,-68.8413 214.827,-67.4997 211.696,-61.2387"/>
</g>
</g>
</svg>
