<?xml version="1.0" encoding="UTF-8" standalone="no"?>
<!DOCTYPE svg PUBLIC "-//W3C//DTD SVG 1.1//EN"
 "http://www.w3.org/Graphics/SVG/1.1/DTD/svg11.dtd">
<!-- Generated by graphviz version 2.36.0 (20140111.2315)
 -->
<!-- Title: src/root&#45;addons/analysis_codes/histtools.h Pages: 1 -->
<svg width="285pt" height="108pt"
 viewBox="0.00 0.00 285.00 108.00" xmlns="http://www.w3.org/2000/svg" xmlns:xlink="http://www.w3.org/1999/xlink">
<g id="graph0" class="graph" transform="scale(1 1) rotate(0) translate(4 104)">
<title>src/root&#45;addons/analysis_codes/histtools.h</title>
<polygon fill="white" stroke="none" points="-4,4 -4,-104 281,-104 281,4 -4,4"/>
<!-- Node2 -->
<g id="node1" class="node"><title>Node2</title>
<polygon fill="#bfbfbf" stroke="black" points="73.5,-69 73.5,-99 196.5,-99 196.5,-69 73.5,-69"/>
<text text-anchor="start" x="81.5" y="-87" font-family="Helvetica,sans-Serif" font-size="10.00">src/root&#45;addons/analysis</text>
<text text-anchor="middle" x="135" y="-76" font-family="Helvetica,sans-Serif" font-size="10.00">_codes/histtools.h</text>
</g>
<!-- Node3 -->
<g id="node2" class="node"><title>Node3</title>
<g id="a_node2"><a xlink:href="histtools_8cc.html" target="_top" xlink:title="src/root&#45;addons/analysis\l_codes/histtools.cc">
<polygon fill="white" stroke="black" points="-0.5,-1 -0.5,-31 122.5,-31 122.5,-1 -0.5,-1"/>
<text text-anchor="start" x="7.5" y="-19" font-family="Helvetica,sans-Serif" font-size="10.00">src/root&#45;addons/analysis</text>
<text text-anchor="middle" x="61" y="-8" font-family="Helvetica,sans-Serif" font-size="10.00">_codes/histtools.cc</text>
</a>
</g>
</g>
<!-- Node2&#45;&gt;Node3 -->
<g id="edge1" class="edge"><title>Node2&#45;&gt;Node3</title>
<path fill="none" stroke="midnightblue" d="M111.475,-62.0184C100.147,-51.9145 86.8659,-40.0696 76.7713,-31.0663"/>
<polygon fill="midnightblue" stroke="midnightblue" points="109.15,-64.6348 118.943,-68.679 113.81,-59.4108 109.15,-64.6348"/>
</g>
<!-- Node4 -->
<g id="node3" class="node"><title>Node4</title>
<g id="a_node3"><a xlink:href="_theta_c_b_toy_m_c_8cc.html" target="_top" xlink:title="src/root&#45;addons/analysis\l_codes/ThetaCBToyMC.cc">
<polygon fill="white" stroke="black" points="141,-1 141,-31 277,-31 277,-1 141,-1"/>
<text text-anchor="start" x="149" y="-19" font-family="Helvetica,sans-Serif" font-size="10.00">src/root&#45;addons/analysis</text>
<text text-anchor="middle" x="209" y="-8" font-family="Helvetica,sans-Serif" font-size="10.00">_codes/ThetaCBToyMC.cc</text>
</a>
</g>
</g>
<!-- Node2&#45;&gt;Node4 -->
<g id="edge2" class="edge"><title>Node2&#45;&gt;Node4</title>
<path fill="none" stroke="midnightblue" d="M158.525,-62.0184C169.853,-51.9145 183.134,-40.0696 193.229,-31.0663"/>
<polygon fill="midnightblue" stroke="midnightblue" points="156.19,-59.4108 151.057,-68.679 160.85,-64.6348 156.19,-59.4108"/>
</g>
</g>
</svg>
