<?xml version="1.0" encoding="UTF-8" standalone="no"?>
<!DOCTYPE svg PUBLIC "-//W3C//DTD SVG 1.1//EN"
 "http://www.w3.org/Graphics/SVG/1.1/DTD/svg11.dtd">
<!-- Generated by graphviz version 2.36.0 (20140111.2315)
 -->
<!-- Title: src/root&#45;addons/analysis_codes/hstack.h Pages: 1 -->
<svg width="718pt" height="264pt"
 viewBox="0.00 0.00 717.94 264.00" xmlns="http://www.w3.org/2000/svg" xmlns:xlink="http://www.w3.org/1999/xlink">
<g id="graph0" class="graph" transform="scale(1 1) rotate(0) translate(4 260)">
<title>src/root&#45;addons/analysis_codes/hstack.h</title>
<polygon fill="white" stroke="none" points="-4,4 -4,-260 713.943,-260 713.943,4 -4,4"/>
<!-- Node0 -->
<g id="node1" class="node"><title>Node0</title>
<polygon fill="#bfbfbf" stroke="black" points="316.443,-225 316.443,-255 439.443,-255 439.443,-225 316.443,-225"/>
<text text-anchor="start" x="324.443" y="-243" font-family="Helvetica,sans-Serif" font-size="10.00">src/root&#45;addons/analysis</text>
<text text-anchor="middle" x="377.943" y="-232" font-family="Helvetica,sans-Serif" font-size="10.00">_codes/hstack.h</text>
</g>
<!-- Node1 -->
<g id="node2" class="node"><title>Node1</title>
<polygon fill="white" stroke="#bfbfbf" points="31.9426,-112.5 31.9426,-131.5 87.9426,-131.5 87.9426,-112.5 31.9426,-112.5"/>
<text text-anchor="middle" x="59.9426" y="-119.5" font-family="Helvetica,sans-Serif" font-size="10.00">Rtypes.h</text>
</g>
<!-- Node0&#45;&gt;Node1 -->
<g id="edge1" class="edge"><title>Node0&#45;&gt;Node1</title>
<path fill="none" stroke="midnightblue" d="M316.183,-239.919C220.827,-239.867 44.5841,-233.43 4.94258,-188 -10.2798,-170.555 13.712,-150.125 34.6322,-136.893"/>
<polygon fill="midnightblue" stroke="midnightblue" points="36.5179,-139.844 43.2867,-131.693 32.9124,-133.843 36.5179,-139.844"/>
</g>
<!-- Node2 -->
<g id="node3" class="node"><title>Node2</title>
<polygon fill="white" stroke="#bfbfbf" points="13.9426,-168.5 13.9426,-187.5 77.9426,-187.5 77.9426,-168.5 13.9426,-168.5"/>
<text text-anchor="middle" x="45.9426" y="-175.5" font-family="Helvetica,sans-Serif" font-size="10.00">THStack.h</text>
</g>
<!-- Node0&#45;&gt;Node2 -->
<g id="edge2" class="edge"><title>Node0&#45;&gt;Node2</title>
<path fill="none" stroke="midnightblue" d="M316.241,-228.305C258.281,-218.185 169.159,-202.437 91.9426,-188 90.6828,-187.764 89.4038,-187.524 88.1129,-187.28"/>
<polygon fill="midnightblue" stroke="midnightblue" points="88.5798,-183.806 78.1001,-185.363 87.2637,-190.681 88.5798,-183.806"/>
</g>
<!-- Node3 -->
<g id="node4" class="node"><title>Node3</title>
<polygon fill="white" stroke="#bfbfbf" points="106.443,-112.5 106.443,-131.5 147.443,-131.5 147.443,-112.5 106.443,-112.5"/>
<text text-anchor="middle" x="126.943" y="-119.5" font-family="Helvetica,sans-Serif" font-size="10.00">string</text>
</g>
<!-- Node0&#45;&gt;Node3 -->
<g id="edge3" class="edge"><title>Node0&#45;&gt;Node3</title>
<path fill="none" stroke="midnightblue" d="M316.361,-235.316C249.386,-229.872 148.676,-216.995 124.943,-188 114.457,-175.19 116.639,-155.731 120.417,-141.442"/>
<polygon fill="midnightblue" stroke="midnightblue" points="123.814,-142.306 123.434,-131.718 117.128,-140.231 123.814,-142.306"/>
</g>
<!-- Node4 -->
<g id="node5" class="node"><title>Node4</title>
<polygon fill="white" stroke="#bfbfbf" points="540.943,-56.5 540.943,-75.5 584.943,-75.5 584.943,-56.5 540.943,-56.5"/>
<text text-anchor="middle" x="562.943" y="-63.5" font-family="Helvetica,sans-Serif" font-size="10.00">vector</text>
</g>
<!-- Node0&#45;&gt;Node4 -->
<g id="edge4" class="edge"><title>Node0&#45;&gt;Node4</title>
<path fill="none" stroke="midnightblue" d="M427.933,-224.935C450.05,-216.842 475.229,-204.861 493.943,-188 526.168,-158.964 547.11,-111.212 556.759,-85.2278"/>
<polygon fill="midnightblue" stroke="midnightblue" points="560.151,-86.137 560.203,-75.5423 553.555,-83.7918 560.151,-86.137"/>
</g>
<!-- Node5 -->
<g id="node6" class="node"><title>Node5</title>
<g id="a_node6"><a xlink:href="_root_draw_8h.html" target="_top" xlink:title="analysis/plot/RootDraw.h">
<polygon fill="white" stroke="black" points="314.443,-168.5 314.443,-187.5 441.443,-187.5 441.443,-168.5 314.443,-168.5"/>
<text text-anchor="middle" x="377.943" y="-175.5" font-family="Helvetica,sans-Serif" font-size="10.00">analysis/plot/RootDraw.h</text>
</a>
</g>
</g>
<!-- Node0&#45;&gt;Node5 -->
<g id="edge5" class="edge"><title>Node0&#45;&gt;Node5</title>
<path fill="none" stroke="midnightblue" d="M377.943,-224.781C377.943,-216.781 377.943,-206.689 377.943,-198.017"/>
<polygon fill="midnightblue" stroke="midnightblue" points="381.443,-197.73 377.943,-187.731 374.443,-197.731 381.443,-197.73"/>
</g>
<!-- Node7 -->
<g id="node8" class="node"><title>Node7</title>
<polygon fill="white" stroke="#bfbfbf" points="444.943,-112.5 444.943,-131.5 496.943,-131.5 496.943,-112.5 444.943,-112.5"/>
<text text-anchor="middle" x="470.943" y="-119.5" font-family="Helvetica,sans-Serif" font-size="10.00">memory</text>
</g>
<!-- Node0&#45;&gt;Node7 -->
<g id="edge34" class="edge"><title>Node0&#45;&gt;Node7</title>
<path fill="none" stroke="midnightblue" d="M405.947,-224.937C420.897,-216.154 438.517,-203.556 449.943,-188 460.024,-174.274 465.403,-155.493 468.183,-141.648"/>
<polygon fill="midnightblue" stroke="midnightblue" points="471.632,-142.245 469.896,-131.793 464.735,-141.046 471.632,-142.245"/>
</g>
<!-- Node8 -->
<g id="node9" class="node"><title>Node8</title>
<polygon fill="white" stroke="#bfbfbf" points="165.443,-112.5 165.443,-131.5 224.443,-131.5 224.443,-112.5 165.443,-112.5"/>
<text text-anchor="middle" x="194.943" y="-119.5" font-family="Helvetica,sans-Serif" font-size="10.00">functional</text>
</g>
<!-- Node0&#45;&gt;Node8 -->
<g id="edge36" class="edge"><title>Node0&#45;&gt;Node8</title>
<path fill="none" stroke="midnightblue" d="M355.503,-224.776C320.283,-202.451 252.425,-159.437 217.272,-137.154"/>
<polygon fill="midnightblue" stroke="midnightblue" points="218.999,-134.105 208.679,-131.707 215.251,-140.017 218.999,-134.105"/>
</g>
<!-- Node10 -->
<g id="node11" class="node"><title>Node10</title>
<g id="a_node11"><a xlink:href="interval_8h.html" target="_top" xlink:title="base/interval.h">
<polygon fill="white" stroke="black" points="442.943,-56.5 442.943,-75.5 522.943,-75.5 522.943,-56.5 442.943,-56.5"/>
<text text-anchor="middle" x="482.943" y="-63.5" font-family="Helvetica,sans-Serif" font-size="10.00">base/interval.h</text>
</a>
</g>
</g>
<!-- Node0&#45;&gt;Node10 -->
<g id="edge29" class="edge"><title>Node0&#45;&gt;Node10</title>
<path fill="none" stroke="midnightblue" d="M412.473,-224.864C430.959,-216.132 453.284,-203.607 469.943,-188 491.535,-167.771 497.605,-160.389 505.943,-132 510.774,-115.549 502.999,-97.1588 495.212,-84.1493"/>
<polygon fill="midnightblue" stroke="midnightblue" points="498.115,-82.1941 489.719,-75.732 492.253,-86.0194 498.115,-82.1941"/>
</g>
<!-- Node19 -->
<g id="node20" class="node"><title>Node19</title>
<g id="a_node20"><a xlink:href="_hist_style_8h.html" target="_top" xlink:title="analysis/plot/HistStyle.h">
<polygon fill="white" stroke="black" points="134.443,-168.5 134.443,-187.5 257.443,-187.5 257.443,-168.5 134.443,-168.5"/>
<text text-anchor="middle" x="195.943" y="-175.5" font-family="Helvetica,sans-Serif" font-size="10.00">analysis/plot/HistStyle.h</text>
</a>
</g>
</g>
<!-- Node0&#45;&gt;Node19 -->
<g id="edge25" class="edge"><title>Node0&#45;&gt;Node19</title>
<path fill="none" stroke="midnightblue" d="M335.272,-224.933C303.649,-214.508 261.058,-200.467 231.322,-190.663"/>
<polygon fill="midnightblue" stroke="midnightblue" points="232.357,-187.32 221.764,-187.513 230.166,-193.968 232.357,-187.32"/>
</g>
<!-- Node20 -->
<g id="node21" class="node"><title>Node20</title>
<g id="a_node21"><a xlink:href="base_2std__ext_2math_8h.html" target="_top" xlink:title="base/std_ext/math.h">
<polygon fill="white" stroke="black" points="590.943,-112.5 590.943,-131.5 696.943,-131.5 696.943,-112.5 590.943,-112.5"/>
<text text-anchor="middle" x="643.943" y="-119.5" font-family="Helvetica,sans-Serif" font-size="10.00">base/std_ext/math.h</text>
</a>
</g>
</g>
<!-- Node0&#45;&gt;Node20 -->
<g id="edge30" class="edge"><title>Node0&#45;&gt;Node20</title>
<path fill="none" stroke="midnightblue" d="M439.781,-231.588C480.712,-224.71 534.468,-211.79 576.943,-188 598.927,-175.686 618.922,-154.353 631.234,-139.498"/>
<polygon fill="midnightblue" stroke="midnightblue" points="634.028,-141.609 637.553,-131.618 628.567,-137.23 634.028,-141.609"/>
</g>
<!-- Node21 -->
<g id="node22" class="node"><title>Node21</title>
<polygon fill="white" stroke="#bfbfbf" points="629.443,-168.5 629.443,-187.5 664.443,-187.5 664.443,-168.5 629.443,-168.5"/>
<text text-anchor="middle" x="646.943" y="-175.5" font-family="Helvetica,sans-Serif" font-size="10.00">map</text>
</g>
<!-- Node0&#45;&gt;Node21 -->
<g id="edge35" class="edge"><title>Node0&#45;&gt;Node21</title>
<path fill="none" stroke="midnightblue" d="M439.566,-226.834C487.543,-217.099 555.709,-202.688 614.943,-188 616.413,-187.635 617.918,-187.251 619.436,-186.855"/>
<polygon fill="midnightblue" stroke="midnightblue" points="620.658,-190.149 629.39,-184.149 618.822,-183.395 620.658,-190.149"/>
</g>
<!-- Node5&#45;&gt;Node1 -->
<g id="edge24" class="edge"><title>Node5&#45;&gt;Node1</title>
<path fill="none" stroke="midnightblue" d="M315.741,-168.493C260.861,-160.657 178.514,-148.097 97.9824,-132.082"/>
<polygon fill="midnightblue" stroke="midnightblue" points="98.6659,-128.65 88.1725,-130.112 97.2876,-135.513 98.6659,-128.65"/>
</g>
<!-- Node5&#45;&gt;Node3 -->
<g id="edge6" class="edge"><title>Node5&#45;&gt;Node3</title>
<path fill="none" stroke="midnightblue" d="M328.68,-168.489C285.685,-160.73 221.455,-148.343 157.336,-132.17"/>
<polygon fill="midnightblue" stroke="midnightblue" points="158.02,-128.733 147.465,-129.65 156.288,-135.515 158.02,-128.733"/>
</g>
<!-- Node5&#45;&gt;Node4 -->
<g id="edge8" class="edge"><title>Node5&#45;&gt;Node4</title>
<path fill="none" stroke="midnightblue" d="M383.643,-168.149C392.985,-154.306 412.84,-127.515 435.943,-112 451.757,-101.38 498.855,-86.0581 531.029,-76.3162"/>
<polygon fill="midnightblue" stroke="midnightblue" points="532.317,-79.5842 540.892,-73.3623 530.309,-72.8785 532.317,-79.5842"/>
</g>
<!-- Node6 -->
<g id="node7" class="node"><title>Node6</title>
<polygon fill="white" stroke="#bfbfbf" points="242.443,-112.5 242.443,-131.5 271.443,-131.5 271.443,-112.5 242.443,-112.5"/>
<text text-anchor="middle" x="256.943" y="-119.5" font-family="Helvetica,sans-Serif" font-size="10.00">list</text>
</g>
<!-- Node5&#45;&gt;Node6 -->
<g id="edge7" class="edge"><title>Node5&#45;&gt;Node6</title>
<path fill="none" stroke="midnightblue" d="M358.77,-168.444C337.64,-159.014 303.628,-143.835 280.794,-133.644"/>
<polygon fill="midnightblue" stroke="midnightblue" points="282.027,-130.362 271.468,-129.483 279.174,-136.754 282.027,-130.362"/>
</g>
<!-- Node5&#45;&gt;Node7 -->
<g id="edge9" class="edge"><title>Node5&#45;&gt;Node7</title>
<path fill="none" stroke="midnightblue" d="M392.885,-168.324C407.528,-159.822 430.076,-146.729 447.18,-136.797"/>
<polygon fill="midnightblue" stroke="midnightblue" points="449.147,-139.703 456.038,-131.655 445.632,-133.649 449.147,-139.703"/>
</g>
<!-- Node5&#45;&gt;Node8 -->
<g id="edge10" class="edge"><title>Node5&#45;&gt;Node8</title>
<path fill="none" stroke="midnightblue" d="M348.946,-168.444C317.758,-159.241 268.013,-144.562 233.535,-134.388"/>
<polygon fill="midnightblue" stroke="midnightblue" points="234.386,-130.99 223.804,-131.516 232.404,-137.704 234.386,-130.99"/>
</g>
<!-- Node9 -->
<g id="node10" class="node"><title>Node9</title>
<g id="a_node10"><a xlink:href="_bin_settings_8h.html" target="_top" xlink:title="base/BinSettings.h">
<polygon fill="white" stroke="black" points="289.443,-112.5 289.443,-131.5 388.443,-131.5 388.443,-112.5 289.443,-112.5"/>
<text text-anchor="middle" x="338.943" y="-119.5" font-family="Helvetica,sans-Serif" font-size="10.00">base/BinSettings.h</text>
</a>
</g>
</g>
<!-- Node5&#45;&gt;Node9 -->
<g id="edge11" class="edge"><title>Node5&#45;&gt;Node9</title>
<path fill="none" stroke="midnightblue" d="M371.503,-168.083C365.994,-160.455 357.911,-149.264 351.178,-139.941"/>
<polygon fill="midnightblue" stroke="midnightblue" points="353.955,-137.809 345.263,-131.751 348.28,-141.907 353.955,-137.809"/>
</g>
<!-- Node9&#45;&gt;Node4 -->
<g id="edge20" class="edge"><title>Node9&#45;&gt;Node4</title>
<path fill="none" stroke="midnightblue" d="M378.276,-112.476C415.322,-104.304 472.58,-91.3044 530.887,-76.1777"/>
<polygon fill="midnightblue" stroke="midnightblue" points="531.84,-79.5461 540.631,-73.6321 530.071,-72.7734 531.84,-79.5461"/>
</g>
<!-- Node9&#45;&gt;Node10 -->
<g id="edge12" class="edge"><title>Node9&#45;&gt;Node10</title>
<path fill="none" stroke="midnightblue" d="M361.76,-112.444C385.774,-103.438 423.772,-89.1891 450.812,-79.049"/>
<polygon fill="midnightblue" stroke="midnightblue" points="452.098,-82.3049 460.232,-75.5164 449.64,-75.7506 452.098,-82.3049"/>
</g>
<!-- Node13 -->
<g id="node14" class="node"><title>Node13</title>
<polygon fill="white" stroke="#bfbfbf" points="252.443,-0.5 252.443,-19.5 311.443,-19.5 311.443,-0.5 252.443,-0.5"/>
<text text-anchor="middle" x="281.943" y="-7.5" font-family="Helvetica,sans-Serif" font-size="10.00">stdexcept</text>
</g>
<!-- Node9&#45;&gt;Node13 -->
<g id="edge21" class="edge"><title>Node9&#45;&gt;Node13</title>
<path fill="none" stroke="midnightblue" d="M334.47,-112.368C325.147,-94.376 303.473,-52.5503 291.076,-28.6267"/>
<polygon fill="midnightblue" stroke="midnightblue" points="294.103,-26.8599 286.394,-19.5914 287.888,-30.0805 294.103,-26.8599"/>
</g>
<!-- Node15 -->
<g id="node16" class="node"><title>Node15</title>
<polygon fill="white" stroke="#bfbfbf" points="329.443,-0.5 329.443,-19.5 378.443,-19.5 378.443,-0.5 329.443,-0.5"/>
<text text-anchor="middle" x="353.943" y="-7.5" font-family="Helvetica,sans-Serif" font-size="10.00">istream</text>
</g>
<!-- Node9&#45;&gt;Node15 -->
<g id="edge22" class="edge"><title>Node9&#45;&gt;Node15</title>
<path fill="none" stroke="midnightblue" d="M340.12,-112.368C342.54,-94.617 348.124,-53.6664 351.407,-29.5974"/>
<polygon fill="midnightblue" stroke="midnightblue" points="354.888,-29.9726 352.771,-19.5914 347.952,-29.0268 354.888,-29.9726"/>
</g>
<!-- Node18 -->
<g id="node19" class="node"><title>Node18</title>
<polygon fill="white" stroke="#bfbfbf" points="235.943,-56.5 235.943,-75.5 287.943,-75.5 287.943,-56.5 235.943,-56.5"/>
<text text-anchor="middle" x="261.943" y="-63.5" font-family="Helvetica,sans-Serif" font-size="10.00">ostream</text>
</g>
<!-- Node9&#45;&gt;Node18 -->
<g id="edge23" class="edge"><title>Node9&#45;&gt;Node18</title>
<path fill="none" stroke="midnightblue" d="M326.571,-112.324C314.784,-104.058 296.81,-91.4527 282.807,-81.6322"/>
<polygon fill="midnightblue" stroke="midnightblue" points="284.48,-78.5307 274.283,-75.6545 280.461,-84.2619 284.48,-78.5307"/>
</g>
<!-- Node11 -->
<g id="node12" class="node"><title>Node11</title>
<g id="a_node12"><a xlink:href="types_8h.html" target="_top" xlink:title="types.h">
<polygon fill="white" stroke="black" points="396.443,-0.5 396.443,-19.5 445.443,-19.5 445.443,-0.5 396.443,-0.5"/>
<text text-anchor="middle" x="420.943" y="-7.5" font-family="Helvetica,sans-Serif" font-size="10.00">types.h</text>
</a>
</g>
</g>
<!-- Node10&#45;&gt;Node11 -->
<g id="edge13" class="edge"><title>Node10&#45;&gt;Node11</title>
<path fill="none" stroke="midnightblue" d="M472.981,-56.324C463.816,-48.3414 450.005,-36.3128 438.914,-26.6529"/>
<polygon fill="midnightblue" stroke="midnightblue" points="440.925,-23.7624 431.085,-19.8339 436.327,-29.041 440.925,-23.7624"/>
</g>
<!-- Node12 -->
<g id="node13" class="node"><title>Node12</title>
<polygon fill="white" stroke="#bfbfbf" points="463.943,-0.5 463.943,-19.5 519.943,-19.5 519.943,-0.5 463.943,-0.5"/>
<text text-anchor="middle" x="491.943" y="-7.5" font-family="Helvetica,sans-Serif" font-size="10.00">algorithm</text>
</g>
<!-- Node10&#45;&gt;Node12 -->
<g id="edge14" class="edge"><title>Node10&#45;&gt;Node12</title>
<path fill="none" stroke="midnightblue" d="M484.429,-56.083C485.621,-48.9272 487.337,-38.6353 488.827,-29.6911"/>
<polygon fill="midnightblue" stroke="midnightblue" points="492.292,-30.1904 490.484,-19.7511 485.388,-29.0396 492.292,-30.1904"/>
</g>
<!-- Node10&#45;&gt;Node13 -->
<g id="edge15" class="edge"><title>Node10&#45;&gt;Node13</title>
<path fill="none" stroke="midnightblue" d="M451.094,-56.4435C415.934,-46.9978 359.303,-31.7833 321.37,-21.5923"/>
<polygon fill="midnightblue" stroke="midnightblue" points="322.243,-18.2028 311.677,-18.9883 320.426,-24.9631 322.243,-18.2028"/>
</g>
<!-- Node14 -->
<g id="node15" class="node"><title>Node14</title>
<polygon fill="white" stroke="#bfbfbf" points="669.943,-0.5 669.943,-19.5 709.943,-19.5 709.943,-0.5 669.943,-0.5"/>
<text text-anchor="middle" x="689.943" y="-7.5" font-family="Helvetica,sans-Serif" font-size="10.00">limits</text>
</g>
<!-- Node10&#45;&gt;Node14 -->
<g id="edge16" class="edge"><title>Node10&#45;&gt;Node14</title>
<path fill="none" stroke="midnightblue" d="M518.321,-56.4746C554.134,-47.7344 611.053,-33.5417 659.943,-20 660.041,-19.9728 660.139,-19.9455 660.238,-19.9181"/>
<polygon fill="midnightblue" stroke="midnightblue" points="660.998,-23.3414 669.643,-17.2171 659.066,-16.6134 660.998,-23.3414"/>
</g>
<!-- Node10&#45;&gt;Node15 -->
<g id="edge17" class="edge"><title>Node10&#45;&gt;Node15</title>
<path fill="none" stroke="midnightblue" d="M462.502,-56.4435C441.272,-47.5566 407.844,-33.5632 383.688,-23.4514"/>
<polygon fill="midnightblue" stroke="midnightblue" points="384.863,-20.1493 374.287,-19.5164 382.16,-26.6064 384.863,-20.1493"/>
</g>
<!-- Node16 -->
<g id="node17" class="node"><title>Node16</title>
<polygon fill="white" stroke="#bfbfbf" points="537.943,-0.5 537.943,-19.5 589.943,-19.5 589.943,-0.5 537.943,-0.5"/>
<text text-anchor="middle" x="563.943" y="-7.5" font-family="Helvetica,sans-Serif" font-size="10.00">sstream</text>
</g>
<!-- Node10&#45;&gt;Node16 -->
<g id="edge18" class="edge"><title>Node10&#45;&gt;Node16</title>
<path fill="none" stroke="midnightblue" d="M495.957,-56.324C508.474,-47.979 527.624,-35.2122 542.414,-25.3524"/>
<polygon fill="midnightblue" stroke="midnightblue" points="544.582,-28.1137 550.961,-19.6545 540.699,-22.2894 544.582,-28.1137"/>
</g>
<!-- Node17 -->
<g id="node18" class="node"><title>Node17</title>
<polygon fill="white" stroke="#bfbfbf" points="607.943,-0.5 607.943,-19.5 651.943,-19.5 651.943,-0.5 607.943,-0.5"/>
<text text-anchor="middle" x="629.943" y="-7.5" font-family="Helvetica,sans-Serif" font-size="10.00">cmath</text>
</g>
<!-- Node10&#45;&gt;Node17 -->
<g id="edge19" class="edge"><title>Node10&#45;&gt;Node17</title>
<path fill="none" stroke="midnightblue" d="M506.235,-56.4435C531.038,-47.3322 570.453,-32.8531 598.112,-22.6929"/>
<polygon fill="midnightblue" stroke="midnightblue" points="599.541,-25.8965 607.721,-19.1629 597.128,-19.3258 599.541,-25.8965"/>
</g>
<!-- Node19&#45;&gt;Node1 -->
<g id="edge26" class="edge"><title>Node19&#45;&gt;Node1</title>
<path fill="none" stroke="midnightblue" d="M174.393,-168.444C151.912,-159.517 116.455,-145.439 90.9627,-135.317"/>
<polygon fill="midnightblue" stroke="midnightblue" points="91.9772,-131.954 81.3914,-131.516 89.3939,-138.46 91.9772,-131.954"/>
</g>
<!-- Node19&#45;&gt;Node3 -->
<g id="edge27" class="edge"><title>Node19&#45;&gt;Node3</title>
<path fill="none" stroke="midnightblue" d="M184.857,-168.324C174.457,-160.185 158.682,-147.839 146.221,-138.087"/>
<polygon fill="midnightblue" stroke="midnightblue" points="148.263,-135.241 138.23,-131.834 143.948,-140.753 148.263,-135.241"/>
</g>
<!-- Node19&#45;&gt;Node8 -->
<g id="edge28" class="edge"><title>Node19&#45;&gt;Node8</title>
<path fill="none" stroke="midnightblue" d="M195.777,-168.083C195.646,-161.006 195.459,-150.861 195.294,-141.986"/>
<polygon fill="midnightblue" stroke="midnightblue" points="198.789,-141.685 195.105,-131.751 191.79,-141.814 198.789,-141.685"/>
</g>
<!-- Node20&#45;&gt;Node4 -->
<g id="edge33" class="edge"><title>Node20&#45;&gt;Node4</title>
<path fill="none" stroke="midnightblue" d="M630.929,-112.324C618.411,-103.979 599.261,-91.2122 584.471,-81.3524"/>
<polygon fill="midnightblue" stroke="midnightblue" points="586.186,-78.2894 575.924,-75.6545 582.303,-84.1137 586.186,-78.2894"/>
</g>
<!-- Node20&#45;&gt;Node14 -->
<g id="edge32" class="edge"><title>Node20&#45;&gt;Node14</title>
<path fill="none" stroke="midnightblue" d="M647.552,-112.368C655.043,-94.4563 672.411,-52.9233 682.437,-28.9482"/>
<polygon fill="midnightblue" stroke="midnightblue" points="685.721,-30.1676 686.35,-19.5914 679.263,-27.4669 685.721,-30.1676"/>
</g>
<!-- Node20&#45;&gt;Node17 -->
<g id="edge31" class="edge"><title>Node20&#45;&gt;Node17</title>
<path fill="none" stroke="midnightblue" d="M642.844,-112.368C640.585,-94.617 635.373,-53.6664 632.31,-29.5974"/>
<polygon fill="midnightblue" stroke="midnightblue" points="635.771,-29.0695 631.036,-19.5914 628.827,-29.9533 635.771,-29.0695"/>
</g>
</g>
</svg>
