<?xml version="1.0" encoding="UTF-8" standalone="no"?>
<!DOCTYPE svg PUBLIC "-//W3C//DTD SVG 1.1//EN"
 "http://www.w3.org/Graphics/SVG/1.1/DTD/svg11.dtd">
<!-- Generated by graphviz version 2.36.0 (20140111.2315)
 -->
<!-- Title: Graphical Class Hierarchy Pages: 1 -->
<svg width="212pt" height="77pt"
 viewBox="0.00 0.00 212.00 77.00" xmlns="http://www.w3.org/2000/svg" xmlns:xlink="http://www.w3.org/1999/xlink">
<g id="graph0" class="graph" transform="scale(1 1) rotate(0) translate(4 73)">
<title>Graphical Class Hierarchy</title>
<polygon fill="white" stroke="none" points="-4,4 -4,-73 208,-73 208,4 -4,4"/>
<!-- Node0 -->
<g id="node1" class="node"><title>Node0</title>
<g id="a_node1"><a xlink:href="structant_1_1_t_event.html" target="_top" xlink:title="ant::TEvent">
<polygon fill="white" stroke="black" points="0,-22.5 0,-41.5 68,-41.5 68,-22.5 0,-22.5"/>
<text text-anchor="middle" x="34" y="-29.5" font-family="Helvetica,sans-Serif" font-size="10.00">ant::TEvent</text>
</a>
</g>
</g>
<!-- Node1 -->
<g id="node2" class="node"><title>Node1</title>
<g id="a_node2"><a xlink:href="structant_1_1analysis_1_1input_1_1event__t.html" target="_top" xlink:title="ant::analysis::input\l::event_t">
<polygon fill="white" stroke="black" points="104.5,-39 104.5,-69 203.5,-69 203.5,-39 104.5,-39"/>
<text text-anchor="start" x="112.5" y="-57" font-family="Helvetica,sans-Serif" font-size="10.00">ant::analysis::input</text>
<text text-anchor="middle" x="154" y="-46" font-family="Helvetica,sans-Serif" font-size="10.00">::event_t</text>
</a>
</g>
</g>
<!-- Node0&#45;&gt;Node1 -->
<g id="edge1" class="edge"><title>Node0&#45;&gt;Node1</title>
<path fill="none" stroke="midnightblue" d="M78.2128,-40.0566C86.667,-41.6328 95.588,-43.2961 104.209,-44.9034"/>
<polygon fill="midnightblue" stroke="midnightblue" points="78.6557,-36.579 68.1836,-38.1868 77.3727,-43.4604 78.6557,-36.579"/>
</g>
<!-- Node2 -->
<g id="node3" class="node"><title>Node2</title>
<g id="a_node3"><a xlink:href="structinspect___t_event.html" target="_top" xlink:title="inspect_TEvent">
<polygon fill="white" stroke="black" points="111.5,-0.5 111.5,-19.5 196.5,-19.5 196.5,-0.5 111.5,-0.5"/>
<text text-anchor="middle" x="154" y="-7.5" font-family="Helvetica,sans-Serif" font-size="10.00">inspect_TEvent</text>
</a>
</g>
</g>
<!-- Node0&#45;&gt;Node2 -->
<g id="edge2" class="edge"><title>Node0&#45;&gt;Node2</title>
<path fill="none" stroke="midnightblue" d="M78.2264,-23.9408C88.997,-21.9328 100.525,-19.7836 111.224,-17.7888"/>
<polygon fill="midnightblue" stroke="midnightblue" points="77.3727,-20.5396 68.1836,-25.8132 78.6557,-27.421 77.3727,-20.5396"/>
</g>
</g>
</svg>
