<?xml version="1.0" encoding="UTF-8" standalone="no"?>
<!DOCTYPE svg PUBLIC "-//W3C//DTD SVG 1.1//EN"
 "http://www.w3.org/Graphics/SVG/1.1/DTD/svg11.dtd">
<!-- Generated by graphviz version 2.36.0 (20140111.2315)
 -->
<!-- Title: Graphical Class Hierarchy Pages: 1 -->
<svg width="300pt" height="311pt"
 viewBox="0.00 0.00 300.00 311.00" xmlns="http://www.w3.org/2000/svg" xmlns:xlink="http://www.w3.org/1999/xlink">
<g id="graph0" class="graph" transform="scale(1 1) rotate(0) translate(4 307)">
<title>Graphical Class Hierarchy</title>
<polygon fill="white" stroke="none" points="-4,4 -4,-307 296,-307 296,4 -4,4"/>
<!-- Node0 -->
<g id="node1" class="node"><title>Node0</title>
<g id="a_node1"><a xlink:href="structant_1_1analysis_1_1plot_1_1cuttree_1_1_stacked_hists__t.html" target="_top" xlink:title="ant::analysis::plot\l::cuttree::StackedHists\l_t\&lt; Hist_t \&gt;">
<polygon fill="white" stroke="black" points="0,-141.5 0,-182.5 118,-182.5 118,-141.5 0,-141.5"/>
<text text-anchor="start" x="8" y="-170.5" font-family="Helvetica,sans-Serif" font-size="10.00">ant::analysis::plot</text>
<text text-anchor="start" x="8" y="-159.5" font-family="Helvetica,sans-Serif" font-size="10.00">::cuttree::StackedHists</text>
<text text-anchor="middle" x="59" y="-148.5" font-family="Helvetica,sans-Serif" font-size="10.00">_t&lt; Hist_t &gt;</text>
</a>
</g>
</g>
<!-- Node1 -->
<g id="node2" class="node"><title>Node1</title>
<g id="a_node2"><a xlink:href="struct_data_m_c___splitter.html" target="_top" xlink:title="DataMC_Splitter">
<polygon fill="white" stroke="black" points="178.5,-283.5 178.5,-302.5 267.5,-302.5 267.5,-283.5 178.5,-283.5"/>
<text text-anchor="middle" x="223" y="-290.5" font-family="Helvetica,sans-Serif" font-size="10.00">DataMC_Splitter</text>
</a>
</g>
</g>
<!-- Node0&#45;&gt;Node1 -->
<g id="edge1" class="edge"><title>Node0&#45;&gt;Node1</title>
<path fill="none" stroke="midnightblue" d="M77.2724,-191.156C93.8484,-216.659 121.17,-252.841 154,-274 161.315,-278.715 169.803,-282.276 178.251,-284.96"/>
<polygon fill="midnightblue" stroke="midnightblue" points="80.1745,-189.196 71.866,-182.622 74.2613,-192.943 80.1745,-189.196"/>
</g>
<!-- Node2 -->
<g id="node3" class="node"><title>Node2</title>
<g id="a_node3"><a xlink:href="struct_m_c_true___splitter.html" target="_top" xlink:title="MCTrue_Splitter\&lt; Hist_t \&gt;">
<polygon fill="white" stroke="black" points="157,-245.5 157,-264.5 289,-264.5 289,-245.5 157,-245.5"/>
<text text-anchor="middle" x="223" y="-252.5" font-family="Helvetica,sans-Serif" font-size="10.00">MCTrue_Splitter&lt; Hist_t &gt;</text>
</a>
</g>
</g>
<!-- Node0&#45;&gt;Node2 -->
<g id="edge2" class="edge"><title>Node0&#45;&gt;Node2</title>
<path fill="none" stroke="midnightblue" d="M89.2016,-189.338C106.832,-204.599 130.395,-222.915 154,-235 162.215,-239.206 171.453,-242.664 180.41,-245.452"/>
<polygon fill="midnightblue" stroke="midnightblue" points="91.353,-186.568 81.54,-182.574 86.7203,-191.816 91.353,-186.568"/>
</g>
<!-- Node3 -->
<g id="node4" class="node"><title>Node3</title>
<g id="a_node4"><a xlink:href="struct_omega_eta_g___plot_1_1_m_c_true___splitter.html" target="_top" xlink:title="OmegaEtaG_Plot::MCTrue\l_Splitter\&lt; Hist_t \&gt;">
<polygon fill="white" stroke="black" points="156,-196 156,-226 290,-226 290,-196 156,-196"/>
<text text-anchor="start" x="164" y="-214" font-family="Helvetica,sans-Serif" font-size="10.00">OmegaEtaG_Plot::MCTrue</text>
<text text-anchor="middle" x="223" y="-203" font-family="Helvetica,sans-Serif" font-size="10.00">_Splitter&lt; Hist_t &gt;</text>
</a>
</g>
</g>
<!-- Node0&#45;&gt;Node3 -->
<g id="edge3" class="edge"><title>Node0&#45;&gt;Node3</title>
<path fill="none" stroke="midnightblue" d="M127.755,-182.494C142.725,-187.022 158.317,-191.738 172.408,-196"/>
<polygon fill="midnightblue" stroke="midnightblue" points="128.613,-179.097 118.028,-179.552 126.587,-185.797 128.613,-179.097"/>
</g>
<!-- Node4 -->
<g id="node5" class="node"><title>Node4</title>
<g id="a_node5"><a xlink:href="structsigma_plus___final_plot_1_1_m_c_true___splitter.html" target="_top" xlink:title="sigmaPlus_FinalPlot\l::MCTrue_Splitter\&lt; Hist_t \&gt;">
<polygon fill="white" stroke="black" points="154,-147 154,-177 292,-177 292,-147 154,-147"/>
<text text-anchor="start" x="162" y="-165" font-family="Helvetica,sans-Serif" font-size="10.00">sigmaPlus_FinalPlot</text>
<text text-anchor="middle" x="223" y="-154" font-family="Helvetica,sans-Serif" font-size="10.00">::MCTrue_Splitter&lt; Hist_t &gt;</text>
</a>
</g>
</g>
<!-- Node0&#45;&gt;Node4 -->
<g id="edge4" class="edge"><title>Node0&#45;&gt;Node4</title>
<path fill="none" stroke="midnightblue" d="M128.252,-162C136.733,-162 145.405,-162 153.884,-162"/>
<polygon fill="midnightblue" stroke="midnightblue" points="128.028,-158.5 118.028,-162 128.028,-165.5 128.028,-158.5"/>
</g>
<!-- Node5 -->
<g id="node6" class="node"><title>Node5</title>
<g id="a_node6"><a xlink:href="structsigma_plus___plot_1_1_m_c_true___splitter.html" target="_top" xlink:title="sigmaPlus_Plot::MCTrue\l_Splitter\&lt; Hist_t \&gt;">
<polygon fill="white" stroke="black" points="160,-98 160,-128 286,-128 286,-98 160,-98"/>
<text text-anchor="start" x="168" y="-116" font-family="Helvetica,sans-Serif" font-size="10.00">sigmaPlus_Plot::MCTrue</text>
<text text-anchor="middle" x="223" y="-105" font-family="Helvetica,sans-Serif" font-size="10.00">_Splitter&lt; Hist_t &gt;</text>
</a>
</g>
</g>
<!-- Node0&#45;&gt;Node5 -->
<g id="edge5" class="edge"><title>Node0&#45;&gt;Node5</title>
<path fill="none" stroke="midnightblue" d="M127.755,-141.506C142.725,-136.978 158.317,-132.262 172.408,-128"/>
<polygon fill="midnightblue" stroke="midnightblue" points="126.587,-138.203 118.028,-144.448 128.613,-144.903 126.587,-138.203"/>
</g>
<!-- Node6 -->
<g id="node7" class="node"><title>Node6</title>
<g id="a_node7"><a xlink:href="structsingle_pi0___plot_1_1_m_c_true___splitter.html" target="_top" xlink:title="singlePi0_Plot::MCTrue\l_Splitter\&lt; Hist_t \&gt;">
<polygon fill="white" stroke="black" points="163,-49 163,-79 283,-79 283,-49 163,-49"/>
<text text-anchor="start" x="171" y="-67" font-family="Helvetica,sans-Serif" font-size="10.00">singlePi0_Plot::MCTrue</text>
<text text-anchor="middle" x="223" y="-56" font-family="Helvetica,sans-Serif" font-size="10.00">_Splitter&lt; Hist_t &gt;</text>
</a>
</g>
</g>
<!-- Node0&#45;&gt;Node6 -->
<g id="edge6" class="edge"><title>Node0&#45;&gt;Node6</title>
<path fill="none" stroke="midnightblue" d="M90.232,-134.628C107.881,-119.68 131.121,-101.687 154,-89 160.6,-85.3401 167.842,-82.0225 175.062,-79.0878"/>
<polygon fill="midnightblue" stroke="midnightblue" points="87.8331,-132.075 82.5381,-141.252 92.4001,-137.38 87.8331,-132.075"/>
</g>
<!-- Node7 -->
<g id="node8" class="node"><title>Node7</title>
<g id="a_node8"><a xlink:href="structtriple_pi0___plot_1_1_m_c_true___splitter.html" target="_top" xlink:title="triplePi0_Plot::MCTrue\l_Splitter\&lt; Hist_t \&gt;">
<polygon fill="white" stroke="black" points="165,-0 165,-30 281,-30 281,-0 165,-0"/>
<text text-anchor="start" x="173" y="-18" font-family="Helvetica,sans-Serif" font-size="10.00">triplePi0_Plot::MCTrue</text>
<text text-anchor="middle" x="223" y="-7" font-family="Helvetica,sans-Serif" font-size="10.00">_Splitter&lt; Hist_t &gt;</text>
</a>
</g>
</g>
<!-- Node0&#45;&gt;Node7 -->
<g id="edge7" class="edge"><title>Node0&#45;&gt;Node7</title>
<path fill="none" stroke="midnightblue" d="M76.0482,-132.641C92.3935,-105.217 120.113,-64.8798 154,-40 159.171,-36.2036 164.98,-32.9276 170.968,-30.1154"/>
<polygon fill="midnightblue" stroke="midnightblue" points="72.9528,-131.001 70.9485,-141.405 79.0031,-134.522 72.9528,-131.001"/>
</g>
</g>
</svg>
