<?xml version="1.0" encoding="UTF-8" standalone="no"?>
<!DOCTYPE svg PUBLIC "-//W3C//DTD SVG 1.1//EN"
 "http://www.w3.org/Graphics/SVG/1.1/DTD/svg11.dtd">
<!-- Generated by graphviz version 2.36.0 (20140111.2315)
 -->
<!-- Title: Graphical Class Hierarchy Pages: 1 -->
<svg width="276pt" height="66pt"
 viewBox="0.00 0.00 276.00 66.00" xmlns="http://www.w3.org/2000/svg" xmlns:xlink="http://www.w3.org/1999/xlink">
<g id="graph0" class="graph" transform="scale(1 1) rotate(0) translate(4 62)">
<title>Graphical Class Hierarchy</title>
<polygon fill="white" stroke="none" points="-4,4 -4,-62 272,-62 272,4 -4,4"/>
<!-- Node0 -->
<g id="node1" class="node"><title>Node0</title>
<g id="a_node1"><a xlink:href="classant_1_1_unpacker_1_1_module.html" target="_top" xlink:title="The Module interface is used by Unpacker::Get, it represents a source for TEvent&#39;s. ">
<polygon fill="white" stroke="black" points="0,-19.5 0,-38.5 116,-38.5 116,-19.5 0,-19.5"/>
<text text-anchor="middle" x="58" y="-26.5" font-family="Helvetica,sans-Serif" font-size="10.00">ant::Unpacker::Module</text>
</a>
</g>
</g>
<!-- Node1 -->
<g id="node2" class="node"><title>Node1</title>
<g id="a_node2"><a xlink:href="classant_1_1_unpacker_a2_geant.html" target="_top" xlink:title="The UnpackerA2Geant class. ">
<polygon fill="white" stroke="black" points="152,-38.5 152,-57.5 268,-57.5 268,-38.5 152,-38.5"/>
<text text-anchor="middle" x="210" y="-45.5" font-family="Helvetica,sans-Serif" font-size="10.00">ant::UnpackerA2Geant</text>
</a>
</g>
</g>
<!-- Node0&#45;&gt;Node1 -->
<g id="edge1" class="edge"><title>Node0&#45;&gt;Node1</title>
<path fill="none" stroke="midnightblue" d="M126.311,-37.526C134.728,-38.5923 143.277,-39.6751 151.525,-40.7199"/>
<polygon fill="midnightblue" stroke="midnightblue" points="126.497,-34.0217 116.136,-36.2373 125.617,-40.9663 126.497,-34.0217"/>
</g>
<!-- Node2 -->
<g id="node3" class="node"><title>Node2</title>
<g id="a_node3"><a xlink:href="classant_1_1_unpacker_acqu.html" target="_top" xlink:title="ant::UnpackerAcqu">
<polygon fill="white" stroke="black" points="159.5,-0.5 159.5,-19.5 260.5,-19.5 260.5,-0.5 159.5,-0.5"/>
<text text-anchor="middle" x="210" y="-7.5" font-family="Helvetica,sans-Serif" font-size="10.00">ant::UnpackerAcqu</text>
</a>
</g>
</g>
<!-- Node0&#45;&gt;Node2 -->
<g id="edge2" class="edge"><title>Node0&#45;&gt;Node2</title>
<path fill="none" stroke="midnightblue" d="M126.271,-20.479C137.408,-19.0683 148.774,-17.6286 159.374,-16.2859"/>
<polygon fill="midnightblue" stroke="midnightblue" points="125.617,-17.0337 116.136,-21.7627 126.497,-23.9783 125.617,-17.0337"/>
</g>
</g>
</svg>
