<?xml version="1.0" encoding="UTF-8" standalone="no"?>
<!DOCTYPE svg PUBLIC "-//W3C//DTD SVG 1.1//EN"
 "http://www.w3.org/Graphics/SVG/1.1/DTD/svg11.dtd">
<!-- Generated by graphviz version 2.36.0 (20140111.2315)
 -->
<!-- Title: Graphical Class Hierarchy Pages: 1 -->
<svg width="436pt" height="87pt"
 viewBox="0.00 0.00 436.00 87.00" xmlns="http://www.w3.org/2000/svg" xmlns:xlink="http://www.w3.org/1999/xlink">
<g id="graph0" class="graph" transform="scale(1 1) rotate(0) translate(4 83)">
<title>Graphical Class Hierarchy</title>
<polygon fill="white" stroke="none" points="-4,4 -4,-83 432,-83 432,4 -4,4"/>
<!-- Node0 -->
<g id="node1" class="node"><title>Node0</title>
<g id="a_node1"><a xlink:href="classant_1_1_unpacker_acqu_file_format.html" target="_top" xlink:title="ant::UnpackerAcquFileFormat">
<polygon fill="white" stroke="black" points="0.5,-29.5 0.5,-48.5 147.5,-48.5 147.5,-29.5 0.5,-29.5"/>
<text text-anchor="middle" x="74" y="-36.5" font-family="Helvetica,sans-Serif" font-size="10.00">ant::UnpackerAcquFileFormat</text>
</a>
</g>
</g>
<!-- Node1 -->
<g id="node2" class="node"><title>Node1</title>
<g id="a_node2"><a xlink:href="classant_1_1unpacker_1_1acqu_1_1_file_format_base.html" target="_top" xlink:title="ant::unpacker::acqu\l::FileFormatBase">
<polygon fill="white" stroke="black" points="184.5,-24 184.5,-54 287.5,-54 287.5,-24 184.5,-24"/>
<text text-anchor="start" x="192.5" y="-42" font-family="Helvetica,sans-Serif" font-size="10.00">ant::unpacker::acqu</text>
<text text-anchor="middle" x="236" y="-31" font-family="Helvetica,sans-Serif" font-size="10.00">::FileFormatBase</text>
</a>
</g>
</g>
<!-- Node0&#45;&gt;Node1 -->
<g id="edge1" class="edge"><title>Node0&#45;&gt;Node1</title>
<path fill="none" stroke="midnightblue" d="M157.713,-39C166.755,-39 175.751,-39 184.238,-39"/>
<polygon fill="midnightblue" stroke="midnightblue" points="157.51,-35.5001 147.51,-39 157.51,-42.5001 157.51,-35.5001"/>
</g>
<!-- Node2 -->
<g id="node3" class="node"><title>Node2</title>
<g id="a_node3"><a xlink:href="classant_1_1unpacker_1_1acqu_1_1_file_format_mk1.html" target="_top" xlink:title="ant::unpacker::acqu\l::FileFormatMk1">
<polygon fill="white" stroke="black" points="324.5,-49 324.5,-79 427.5,-79 427.5,-49 324.5,-49"/>
<text text-anchor="start" x="332.5" y="-67" font-family="Helvetica,sans-Serif" font-size="10.00">ant::unpacker::acqu</text>
<text text-anchor="middle" x="376" y="-56" font-family="Helvetica,sans-Serif" font-size="10.00">::FileFormatMk1</text>
</a>
</g>
</g>
<!-- Node1&#45;&gt;Node2 -->
<g id="edge2" class="edge"><title>Node1&#45;&gt;Node2</title>
<path fill="none" stroke="midnightblue" d="M297.593,-49.977C306.543,-51.5984 315.685,-53.2545 324.404,-54.834"/>
<polygon fill="midnightblue" stroke="midnightblue" points="298.066,-46.5058 287.603,-48.1671 296.818,-53.3937 298.066,-46.5058"/>
</g>
<!-- Node3 -->
<g id="node4" class="node"><title>Node3</title>
<g id="a_node4"><a xlink:href="classant_1_1unpacker_1_1acqu_1_1_file_format_mk2.html" target="_top" xlink:title="ant::unpacker::acqu\l::FileFormatMk2">
<polygon fill="white" stroke="black" points="324.5,-0 324.5,-30 427.5,-30 427.5,-0 324.5,-0"/>
<text text-anchor="start" x="332.5" y="-18" font-family="Helvetica,sans-Serif" font-size="10.00">ant::unpacker::acqu</text>
<text text-anchor="middle" x="376" y="-7" font-family="Helvetica,sans-Serif" font-size="10.00">::FileFormatMk2</text>
</a>
</g>
</g>
<!-- Node1&#45;&gt;Node3 -->
<g id="edge3" class="edge"><title>Node1&#45;&gt;Node3</title>
<path fill="none" stroke="midnightblue" d="M297.593,-28.462C306.543,-26.9055 315.685,-25.3157 324.404,-23.7994"/>
<polygon fill="midnightblue" stroke="midnightblue" points="296.855,-25.0378 287.603,-30.1996 298.054,-31.9343 296.855,-25.0378"/>
</g>
</g>
</svg>
