<?xml version="1.0" encoding="UTF-8" standalone="no"?>
<!DOCTYPE svg PUBLIC "-//W3C//DTD SVG 1.1//EN"
 "http://www.w3.org/Graphics/SVG/1.1/DTD/svg11.dtd">
<!-- Generated by graphviz version 2.36.0 (20140111.2315)
 -->
<!-- Title: Graphical Class Hierarchy Pages: 1 -->
<svg width="310pt" height="66pt"
 viewBox="0.00 0.00 310.00 66.00" xmlns="http://www.w3.org/2000/svg" xmlns:xlink="http://www.w3.org/1999/xlink">
<g id="graph0" class="graph" transform="scale(1 1) rotate(0) translate(4 62)">
<title>Graphical Class Hierarchy</title>
<polygon fill="white" stroke="none" points="-4,4 -4,-62 306,-62 306,4 -4,4"/>
<!-- Node313 -->
<g id="node1" class="node"><title>Node313</title>
<polygon fill="white" stroke="#bfbfbf" points="0.5,-19.5 0.5,-38.5 55.5,-38.5 55.5,-19.5 0.5,-19.5"/>
<text text-anchor="middle" x="28" y="-26.5" font-family="Helvetica,sans-Serif" font-size="10.00">TH2Poly</text>
</g>
<!-- Node0 -->
<g id="node2" class="node"><title>Node0</title>
<g id="a_node2"><a xlink:href="classant_1_1_t_h2_crystals.html" target="_top" xlink:title="Base class for A2 Calorimeter display classes. ">
<polygon fill="white" stroke="black" points="92,-19.5 92,-38.5 184,-38.5 184,-19.5 92,-19.5"/>
<text text-anchor="middle" x="138" y="-26.5" font-family="Helvetica,sans-Serif" font-size="10.00">ant::TH2Crystals</text>
</a>
</g>
</g>
<!-- Node313&#45;&gt;Node0 -->
<g id="edge1" class="edge"><title>Node313&#45;&gt;Node0</title>
<path fill="none" stroke="midnightblue" d="M65.8377,-29C74.1538,-29 83.0759,-29 91.6946,-29"/>
<polygon fill="midnightblue" stroke="midnightblue" points="65.6967,-25.5001 55.6966,-29 65.6966,-32.5001 65.6967,-25.5001"/>
</g>
<!-- Node1 -->
<g id="node3" class="node"><title>Node1</title>
<g id="a_node3"><a xlink:href="classant_1_1_t_h2_c_b.html" target="_top" xlink:title="The TH2CB class. ">
<polygon fill="white" stroke="black" points="226.5,-38.5 226.5,-57.5 295.5,-57.5 295.5,-38.5 226.5,-38.5"/>
<text text-anchor="middle" x="261" y="-45.5" font-family="Helvetica,sans-Serif" font-size="10.00">ant::TH2CB</text>
</a>
</g>
</g>
<!-- Node0&#45;&gt;Node1 -->
<g id="edge2" class="edge"><title>Node0&#45;&gt;Node1</title>
<path fill="none" stroke="midnightblue" d="M194.035,-37.6418C205.021,-39.3669 216.249,-41.13 226.255,-42.7011"/>
<polygon fill="midnightblue" stroke="midnightblue" points="194.478,-34.1686 184.056,-36.0749 193.392,-41.0839 194.478,-34.1686"/>
</g>
<!-- Node2 -->
<g id="node4" class="node"><title>Node2</title>
<g id="a_node4"><a xlink:href="classant_1_1_t_h2_t_a_p_s.html" target="_top" xlink:title="ant::TH2TAPS">
<polygon fill="white" stroke="black" points="220.5,-0.5 220.5,-19.5 301.5,-19.5 301.5,-0.5 220.5,-0.5"/>
<text text-anchor="middle" x="261" y="-7.5" font-family="Helvetica,sans-Serif" font-size="10.00">ant::TH2TAPS</text>
</a>
</g>
</g>
<!-- Node0&#45;&gt;Node2 -->
<g id="edge3" class="edge"><title>Node0&#45;&gt;Node2</title>
<path fill="none" stroke="midnightblue" d="M194.019,-20.3607C202.94,-18.9598 212.022,-17.5337 220.48,-16.2057"/>
<polygon fill="midnightblue" stroke="midnightblue" points="193.392,-16.9161 184.056,-21.9251 194.478,-23.8314 193.392,-16.9161"/>
</g>
</g>
</svg>
