<?xml version="1.0" encoding="UTF-8" standalone="no"?>
<!DOCTYPE svg PUBLIC "-//W3C//DTD SVG 1.1//EN"
 "http://www.w3.org/Graphics/SVG/1.1/DTD/svg11.dtd">
<!-- Generated by graphviz version 2.36.0 (20140111.2315)
 -->
<!-- Title: Graphical Class Hierarchy Pages: 1 -->
<svg width="386pt" height="88pt"
 viewBox="0.00 0.00 386.00 88.00" xmlns="http://www.w3.org/2000/svg" xmlns:xlink="http://www.w3.org/1999/xlink">
<g id="graph0" class="graph" transform="scale(1 1) rotate(0) translate(4 84)">
<title>Graphical Class Hierarchy</title>
<polygon fill="white" stroke="none" points="-4,4 -4,-84 382,-84 382,4 -4,4"/>
<!-- Node0 -->
<g id="node1" class="node"><title>Node0</title>
<g id="a_node1"><a xlink:href="struct_common_hist__t_1_1_fill__t.html" target="_top" xlink:title="CommonHist_t::Fill_t">
<polygon fill="white" stroke="black" points="0,-41.5 0,-60.5 110,-60.5 110,-41.5 0,-41.5"/>
<text text-anchor="middle" x="55" y="-48.5" font-family="Helvetica,sans-Serif" font-size="10.00">CommonHist_t::Fill_t</text>
</a>
</g>
</g>
<!-- Node1 -->
<g id="node2" class="node"><title>Node1</title>
<g id="a_node2"><a xlink:href="struct_ref_hist__t_1_1_fill__t.html" target="_top" xlink:title="RefHist_t::Fill_t">
<polygon fill="white" stroke="black" points="146,-60.5 146,-79.5 232,-79.5 232,-60.5 146,-60.5"/>
<text text-anchor="middle" x="189" y="-67.5" font-family="Helvetica,sans-Serif" font-size="10.00">RefHist_t::Fill_t</text>
</a>
</g>
</g>
<!-- Node0&#45;&gt;Node1 -->
<g id="edge1" class="edge"><title>Node0&#45;&gt;Node1</title>
<path fill="none" stroke="midnightblue" d="M119.97,-60.2078C128.786,-61.4768 137.651,-62.7528 145.934,-63.945"/>
<polygon fill="midnightblue" stroke="midnightblue" points="120.467,-56.7433 110.07,-58.7828 119.47,-63.6719 120.467,-56.7433"/>
</g>
<!-- Node2 -->
<g id="node3" class="node"><title>Node2</title>
<g id="a_node3"><a xlink:href="struct_sig_hist__t_1_1_fill__t.html" target="_top" xlink:title="SigHist_t::Fill_t">
<polygon fill="white" stroke="black" points="147,-22.5 147,-41.5 231,-41.5 231,-22.5 147,-22.5"/>
<text text-anchor="middle" x="189" y="-29.5" font-family="Helvetica,sans-Serif" font-size="10.00">SigHist_t::Fill_t</text>
</a>
</g>
</g>
<!-- Node0&#45;&gt;Node2 -->
<g id="edge2" class="edge"><title>Node0&#45;&gt;Node2</title>
<path fill="none" stroke="midnightblue" d="M120.207,-41.7581C129.234,-40.4587 138.306,-39.1529 146.746,-37.938"/>
<polygon fill="midnightblue" stroke="midnightblue" points="119.47,-38.3281 110.07,-43.2172 120.467,-45.2567 119.47,-38.3281"/>
</g>
<!-- Node3 -->
<g id="node4" class="node"><title>Node3</title>
<g id="a_node4"><a xlink:href="struct_sig_omega_pi0_hist__t_1_1_fill__t.html" target="_top" xlink:title="SigOmegaPi0Hist_t::\lFill_t">
<polygon fill="white" stroke="black" points="268.5,-39 268.5,-69 377.5,-69 377.5,-39 268.5,-39"/>
<text text-anchor="start" x="276.5" y="-57" font-family="Helvetica,sans-Serif" font-size="10.00">SigOmegaPi0Hist_t::</text>
<text text-anchor="middle" x="323" y="-46" font-family="Helvetica,sans-Serif" font-size="10.00">Fill_t</text>
</a>
</g>
</g>
<!-- Node2&#45;&gt;Node3 -->
<g id="edge3" class="edge"><title>Node2&#45;&gt;Node3</title>
<path fill="none" stroke="midnightblue" d="M240.969,-40.4949C249.943,-41.9905 259.308,-43.5513 268.352,-45.0587"/>
<polygon fill="midnightblue" stroke="midnightblue" points="241.481,-37.032 231.042,-38.8403 240.331,-43.9368 241.481,-37.032"/>
</g>
<!-- Node4 -->
<g id="node5" class="node"><title>Node4</title>
<g id="a_node5"><a xlink:href="struct_sig_pi0_hist__t_1_1_fill__t.html" target="_top" xlink:title="SigPi0Hist_t::Fill_t">
<polygon fill="white" stroke="black" points="274,-0.5 274,-19.5 372,-19.5 372,-0.5 274,-0.5"/>
<text text-anchor="middle" x="323" y="-7.5" font-family="Helvetica,sans-Serif" font-size="10.00">SigPi0Hist_t::Fill_t</text>
</a>
</g>
</g>
<!-- Node2&#45;&gt;Node4 -->
<g id="edge4" class="edge"><title>Node2&#45;&gt;Node4</title>
<path fill="none" stroke="midnightblue" d="M241.077,-23.4872C251.76,-21.7067 262.994,-19.8344 273.577,-18.0705"/>
<polygon fill="midnightblue" stroke="midnightblue" points="240.331,-20.0632 231.042,-25.1597 241.481,-26.968 240.331,-20.0632"/>
</g>
</g>
</svg>
