<?xml version="1.0" encoding="UTF-8" standalone="no"?>
<!DOCTYPE svg PUBLIC "-//W3C//DTD SVG 1.1//EN"
 "http://www.w3.org/Graphics/SVG/1.1/DTD/svg11.dtd">
<!-- Generated by graphviz version 2.36.0 (20140111.2315)
 -->
<!-- Title: Graphical Class Hierarchy Pages: 1 -->
<svg width="364pt" height="98pt"
 viewBox="0.00 0.00 364.00 98.00" xmlns="http://www.w3.org/2000/svg" xmlns:xlink="http://www.w3.org/1999/xlink">
<g id="graph0" class="graph" transform="scale(1 1) rotate(0) translate(4 94)">
<title>Graphical Class Hierarchy</title>
<polygon fill="white" stroke="none" points="-4,4 -4,-94 360,-94 360,4 -4,4"/>
<!-- Node0 -->
<g id="node1" class="node"><title>Node0</title>
<g id="a_node1"><a xlink:href="classant_1_1calibration_1_1gui_1_1_avg_buffer__traits.html" target="_top" xlink:title="ant::calibration::gui\l::AvgBuffer_traits\&lt; AvgBuffer\lItem \&gt;">
<polygon fill="white" stroke="black" points="0,-21.5 0,-62.5 146,-62.5 146,-21.5 0,-21.5"/>
<text text-anchor="start" x="8" y="-50.5" font-family="Helvetica,sans-Serif" font-size="10.00">ant::calibration::gui</text>
<text text-anchor="start" x="8" y="-39.5" font-family="Helvetica,sans-Serif" font-size="10.00">::AvgBuffer_traits&lt; AvgBuffer</text>
<text text-anchor="middle" x="73" y="-28.5" font-family="Helvetica,sans-Serif" font-size="10.00">Item &gt;</text>
</a>
</g>
</g>
<!-- Node1 -->
<g id="node2" class="node"><title>Node1</title>
<g id="a_node2"><a xlink:href="classant_1_1calibration_1_1gui_1_1_avg_buffer___savitzky_golay.html" target="_top" xlink:title="ant::calibration::gui\l::AvgBuffer_SavitzkyGolay\l\&lt; AvgBufferItem \&gt;">
<polygon fill="white" stroke="black" points="201.5,-48.5 201.5,-89.5 336.5,-89.5 336.5,-48.5 201.5,-48.5"/>
<text text-anchor="start" x="209.5" y="-77.5" font-family="Helvetica,sans-Serif" font-size="10.00">ant::calibration::gui</text>
<text text-anchor="start" x="209.5" y="-66.5" font-family="Helvetica,sans-Serif" font-size="10.00">::AvgBuffer_SavitzkyGolay</text>
<text text-anchor="middle" x="269" y="-55.5" font-family="Helvetica,sans-Serif" font-size="10.00">&lt; AvgBufferItem &gt;</text>
</a>
</g>
</g>
<!-- Node0&#45;&gt;Node1 -->
<g id="edge1" class="edge"><title>Node0&#45;&gt;Node1</title>
<path fill="none" stroke="midnightblue" d="M156.531,-53.4862C171.532,-55.5741 187.006,-57.7277 201.474,-59.7412"/>
<polygon fill="midnightblue" stroke="midnightblue" points="156.625,-49.9658 146.238,-52.0538 155.66,-56.8989 156.625,-49.9658"/>
</g>
<!-- Node2 -->
<g id="node3" class="node"><title>Node2</title>
<g id="a_node3"><a xlink:href="classant_1_1calibration_1_1gui_1_1_avg_buffer___sum.html" target="_top" xlink:title="ant::calibration::gui\l::AvgBuffer_Sum\&lt; AvgBufferItem \&gt;">
<polygon fill="white" stroke="black" points="182.5,-0 182.5,-30 355.5,-30 355.5,-0 182.5,-0"/>
<text text-anchor="start" x="190.5" y="-18" font-family="Helvetica,sans-Serif" font-size="10.00">ant::calibration::gui</text>
<text text-anchor="middle" x="269" y="-7" font-family="Helvetica,sans-Serif" font-size="10.00">::AvgBuffer_Sum&lt; AvgBufferItem &gt;</text>
</a>
</g>
</g>
<!-- Node0&#45;&gt;Node2 -->
<g id="edge2" class="edge"><title>Node0&#45;&gt;Node2</title>
<path fill="none" stroke="midnightblue" d="M156.252,-30.5525C164.859,-29.3546 173.625,-28.1347 182.269,-26.9316"/>
<polygon fill="midnightblue" stroke="midnightblue" points="155.66,-27.1011 146.238,-31.9462 156.625,-34.0342 155.66,-27.1011"/>
</g>
</g>
</svg>
