<?xml version="1.0" encoding="UTF-8" standalone="no"?>
<!DOCTYPE svg PUBLIC "-//W3C//DTD SVG 1.1//EN"
 "http://www.w3.org/Graphics/SVG/1.1/DTD/svg11.dtd">
<!-- Generated by graphviz version 2.36.0 (20140111.2315)
 -->
<!-- Title: Graphical Class Hierarchy Pages: 1 -->
<svg width="214pt" height="109pt"
 viewBox="0.00 0.00 214.00 109.00" xmlns="http://www.w3.org/2000/svg" xmlns:xlink="http://www.w3.org/1999/xlink">
<g id="graph0" class="graph" transform="scale(1 1) rotate(0) translate(4 105)">
<title>Graphical Class Hierarchy</title>
<polygon fill="white" stroke="none" points="-4,4 -4,-105 210,-105 210,4 -4,4"/>
<!-- Node758 -->
<g id="node1" class="node"><title>Node758</title>
<polygon fill="white" stroke="#bfbfbf" points="0.5,-40.5 0.5,-59.5 47.5,-59.5 47.5,-40.5 0.5,-40.5"/>
<text text-anchor="middle" x="24" y="-47.5" font-family="Helvetica,sans-Serif" font-size="10.00">iterator</text>
</g>
<!-- Node0 -->
<g id="node2" class="node"><title>Node0</title>
<g id="a_node2"><a xlink:href="classant_1_1analysis_1_1utils_1_1_nchoose_k_1_1const__iterator.html" target="_top" xlink:title="Iterator over the elements of a combination. Used to iterate over the current combination. ">
<polygon fill="white" stroke="black" points="84,-59.5 84,-100.5 206,-100.5 206,-59.5 84,-59.5"/>
<text text-anchor="start" x="92" y="-88.5" font-family="Helvetica,sans-Serif" font-size="10.00">ant::analysis::utils</text>
<text text-anchor="start" x="92" y="-77.5" font-family="Helvetica,sans-Serif" font-size="10.00">::NchooseK&lt; T &gt;::const</text>
<text text-anchor="middle" x="145" y="-66.5" font-family="Helvetica,sans-Serif" font-size="10.00">_iterator</text>
</a>
</g>
</g>
<!-- Node758&#45;&gt;Node0 -->
<g id="edge1" class="edge"><title>Node758&#45;&gt;Node0</title>
<path fill="none" stroke="midnightblue" d="M57.5014,-58.1936C65.6836,-60.2564 74.7303,-62.537 83.7987,-64.8232"/>
<polygon fill="midnightblue" stroke="midnightblue" points="58.2153,-54.7642 47.6631,-55.7134 56.5041,-61.5518 58.2153,-54.7642"/>
</g>
<!-- Node760 -->
<g id="node3" class="node"><title>Node760</title>
<g id="a_node3"><a xlink:href="classant_1_1std__ext_1_1mapped__vectors_1_1const__iterator.html" target="_top" xlink:title="ant::std_ext::mapped\l_vectors\&lt; Key, Value\l \&gt;::const_iterator">
<polygon fill="white" stroke="black" points="89.5,0.5 89.5,-40.5 200.5,-40.5 200.5,0.5 89.5,0.5"/>
<text text-anchor="start" x="97.5" y="-28.5" font-family="Helvetica,sans-Serif" font-size="10.00">ant::std_ext::mapped</text>
<text text-anchor="start" x="97.5" y="-17.5" font-family="Helvetica,sans-Serif" font-size="10.00">_vectors&lt; Key, Value</text>
<text text-anchor="middle" x="145" y="-6.5" font-family="Helvetica,sans-Serif" font-size="10.00"> &gt;::const_iterator</text>
</a>
</g>
</g>
<!-- Node758&#45;&gt;Node760 -->
<g id="edge2" class="edge"><title>Node758&#45;&gt;Node760</title>
<path fill="none" stroke="midnightblue" d="M57.4235,-41.826C67.2875,-39.3393 78.4134,-36.5344 89.3217,-33.7845"/>
<polygon fill="midnightblue" stroke="midnightblue" points="56.5041,-38.4482 47.6631,-44.2866 58.2153,-45.2358 56.5041,-38.4482"/>
</g>
</g>
</svg>
