<?xml version="1.0" encoding="UTF-8" standalone="no"?>
<!DOCTYPE svg PUBLIC "-//W3C//DTD SVG 1.1//EN"
 "http://www.w3.org/Graphics/SVG/1.1/DTD/svg11.dtd">
<!-- Generated by graphviz version 2.36.0 (20140111.2315)
 -->
<!-- Title: Graphical Class Hierarchy Pages: 1 -->
<svg width="274pt" height="48pt"
 viewBox="0.00 0.00 274.00 48.00" xmlns="http://www.w3.org/2000/svg" xmlns:xlink="http://www.w3.org/1999/xlink">
<g id="graph0" class="graph" transform="scale(1 1) rotate(0) translate(4 44)">
<title>Graphical Class Hierarchy</title>
<polygon fill="white" stroke="none" points="-4,4 -4,-44 270,-44 270,4 -4,4"/>
<!-- Node1116 -->
<g id="node1" class="node"><title>Node1116</title>
<polygon fill="white" stroke="#bfbfbf" points="0.5,-10.5 0.5,-29.5 83.5,-29.5 83.5,-10.5 0.5,-10.5"/>
<text text-anchor="middle" x="42" y="-17.5" font-family="Helvetica,sans-Serif" font-size="10.00">AddWrapTTree</text>
</g>
<!-- Node0 -->
<g id="node2" class="node"><title>Node0</title>
<g id="a_node2"><a xlink:href="structant_1_1analysis_1_1utils_1_1_pulls_writer_1_1_pull_tree__t.html" target="_top" xlink:title="ant::analysis::utils\l::PullsWriter\&lt; AddWrapTTree\l \&gt;::PullTree_t">
<polygon fill="white" stroke="black" points="120,0.5 120,-40.5 266,-40.5 266,0.5 120,0.5"/>
<text text-anchor="start" x="128" y="-28.5" font-family="Helvetica,sans-Serif" font-size="10.00">ant::analysis::utils</text>
<text text-anchor="start" x="128" y="-17.5" font-family="Helvetica,sans-Serif" font-size="10.00">::PullsWriter&lt; AddWrapTTree</text>
<text text-anchor="middle" x="193" y="-6.5" font-family="Helvetica,sans-Serif" font-size="10.00"> &gt;::PullTree_t</text>
</a>
</g>
</g>
<!-- Node1116&#45;&gt;Node0 -->
<g id="edge1" class="edge"><title>Node1116&#45;&gt;Node0</title>
<path fill="none" stroke="midnightblue" d="M93.7194,-20C102.132,-20 110.997,-20 119.819,-20"/>
<polygon fill="midnightblue" stroke="midnightblue" points="93.7149,-16.5001 83.7149,-20 93.7149,-23.5001 93.7149,-16.5001"/>
</g>
</g>
</svg>
