<?xml version="1.0" encoding="UTF-8" standalone="no"?>
<!DOCTYPE svg PUBLIC "-//W3C//DTD SVG 1.1//EN"
 "http://www.w3.org/Graphics/SVG/1.1/DTD/svg11.dtd">
<!-- Generated by graphviz version 2.36.0 (20140111.2315)
 -->
<!-- Title: Graphical Class Hierarchy Pages: 1 -->
<svg width="170pt" height="66pt"
 viewBox="0.00 0.00 170.00 66.00" xmlns="http://www.w3.org/2000/svg" xmlns:xlink="http://www.w3.org/1999/xlink">
<g id="graph0" class="graph" transform="scale(1 1) rotate(0) translate(4 62)">
<title>Graphical Class Hierarchy</title>
<polygon fill="white" stroke="none" points="-4,4 -4,-62 166,-62 166,4 -4,4"/>
<!-- Node0 -->
<g id="node1" class="node"><title>Node0</title>
<g id="a_node1"><a xlink:href="struct_mc_action.html" target="_top" xlink:title="McAction">
<polygon fill="white" stroke="black" points="0,-19.5 0,-38.5 58,-38.5 58,-19.5 0,-19.5"/>
<text text-anchor="middle" x="29" y="-26.5" font-family="Helvetica,sans-Serif" font-size="10.00">McAction</text>
</a>
</g>
</g>
<!-- Node1 -->
<g id="node2" class="node"><title>Node1</title>
<g id="a_node2"><a xlink:href="struct_gun_action.html" target="_top" xlink:title="GunAction">
<polygon fill="white" stroke="black" points="97,-38.5 97,-57.5 159,-57.5 159,-38.5 97,-38.5"/>
<text text-anchor="middle" x="128" y="-45.5" font-family="Helvetica,sans-Serif" font-size="10.00">GunAction</text>
</a>
</g>
</g>
<!-- Node0&#45;&gt;Node1 -->
<g id="edge1" class="edge"><title>Node0&#45;&gt;Node1</title>
<path fill="none" stroke="midnightblue" d="M68.1483,-36.4723C77.722,-38.3476 87.8603,-40.3335 96.975,-42.1188"/>
<polygon fill="midnightblue" stroke="midnightblue" points="68.5427,-32.9832 58.0564,-34.4956 67.1971,-39.8526 68.5427,-32.9832"/>
</g>
<!-- Node2 -->
<g id="node3" class="node"><title>Node2</title>
<g id="a_node3"><a xlink:href="struct_pluto_action.html" target="_top" xlink:title="PlutoAction">
<polygon fill="white" stroke="black" points="94.5,-0.5 94.5,-19.5 161.5,-19.5 161.5,-0.5 94.5,-0.5"/>
<text text-anchor="middle" x="128" y="-7.5" font-family="Helvetica,sans-Serif" font-size="10.00">PlutoAction</text>
</a>
</g>
</g>
<!-- Node0&#45;&gt;Node2 -->
<g id="edge2" class="edge"><title>Node0&#45;&gt;Node2</title>
<path fill="none" stroke="midnightblue" d="M67.9521,-21.5661C76.6274,-19.8668 85.7759,-18.0748 94.2131,-16.4222"/>
<polygon fill="midnightblue" stroke="midnightblue" points="67.1971,-18.1474 58.0564,-23.5044 68.5427,-25.0168 67.1971,-18.1474"/>
</g>
</g>
</svg>
