<?xml version="1.0" encoding="UTF-8" standalone="no"?>
<!DOCTYPE svg PUBLIC "-//W3C//DTD SVG 1.1//EN"
 "http://www.w3.org/Graphics/SVG/1.1/DTD/svg11.dtd">
<!-- Generated by graphviz version 2.36.0 (20140111.2315)
 -->
<!-- Title: Graphical Class Hierarchy Pages: 1 -->
<svg width="212pt" height="97pt"
 viewBox="0.00 0.00 212.00 97.00" xmlns="http://www.w3.org/2000/svg" xmlns:xlink="http://www.w3.org/1999/xlink">
<g id="graph0" class="graph" transform="scale(1 1) rotate(0) translate(4 93)">
<title>Graphical Class Hierarchy</title>
<polygon fill="white" stroke="none" points="-4,4 -4,-93 208,-93 208,4 -4,4"/>
<!-- Node854 -->
<g id="node1" class="node"><title>Node854</title>
<polygon fill="white" stroke="#bfbfbf" points="0.5,-37.5 0.5,-56.5 51.5,-56.5 51.5,-37.5 0.5,-37.5"/>
<text text-anchor="middle" x="26" y="-44.5" font-family="Helvetica,sans-Serif" font-size="10.00">function</text>
</g>
<!-- Node0 -->
<g id="node2" class="node"><title>Node0</title>
<g id="a_node2"><a xlink:href="structant_1_1analysis_1_1plot_1_1histstyle_1_1_mod__t.html" target="_top" xlink:title="ant::analysis::plot\l::histstyle::Mod_t">
<polygon fill="white" stroke="black" points="99,-59 99,-89 193,-89 193,-59 99,-59"/>
<text text-anchor="start" x="107" y="-77" font-family="Helvetica,sans-Serif" font-size="10.00">ant::analysis::plot</text>
<text text-anchor="middle" x="146" y="-66" font-family="Helvetica,sans-Serif" font-size="10.00">::histstyle::Mod_t</text>
</a>
</g>
</g>
<!-- Node854&#45;&gt;Node0 -->
<g id="edge1" class="edge"><title>Node854&#45;&gt;Node0</title>
<path fill="none" stroke="midnightblue" d="M61.5329,-54.9016C73.2022,-57.5717 86.4234,-60.5969 98.846,-63.4393"/>
<polygon fill="midnightblue" stroke="midnightblue" points="62.2654,-51.4788 51.7367,-52.6601 60.704,-58.3025 62.2654,-51.4788"/>
</g>
<!-- Node856 -->
<g id="node3" class="node"><title>Node856</title>
<g id="a_node3"><a xlink:href="structant_1_1analysis_1_1utils_1_1_tree_fitter_1_1nodesetup__t_1_1getter.html" target="_top" xlink:title="ant::analysis::utils\l::TreeFitter::nodesetup\l_t::getter">
<polygon fill="white" stroke="black" points="88,0.5 88,-40.5 204,-40.5 204,0.5 88,0.5"/>
<text text-anchor="start" x="96" y="-28.5" font-family="Helvetica,sans-Serif" font-size="10.00">ant::analysis::utils</text>
<text text-anchor="start" x="96" y="-17.5" font-family="Helvetica,sans-Serif" font-size="10.00">::TreeFitter::nodesetup</text>
<text text-anchor="middle" x="146" y="-6.5" font-family="Helvetica,sans-Serif" font-size="10.00">_t::getter</text>
</a>
</g>
</g>
<!-- Node854&#45;&gt;Node856 -->
<g id="edge2" class="edge"><title>Node854&#45;&gt;Node856</title>
<path fill="none" stroke="midnightblue" d="M61.6555,-39.0703C69.8558,-37.194 78.817,-35.1436 87.7256,-33.1052"/>
<polygon fill="midnightblue" stroke="midnightblue" points="60.704,-35.6975 51.7367,-41.3399 62.2654,-42.5212 60.704,-35.6975"/>
</g>
</g>
</svg>
