<?xml version="1.0" encoding="UTF-8" standalone="no"?>
<!DOCTYPE svg PUBLIC "-//W3C//DTD SVG 1.1//EN"
 "http://www.w3.org/Graphics/SVG/1.1/DTD/svg11.dtd">
<!-- Generated by graphviz version 2.36.0 (20140111.2315)
 -->
<!-- Title: Graphical Class Hierarchy Pages: 1 -->
<svg width="256pt" height="66pt"
 viewBox="0.00 0.00 256.00 66.00" xmlns="http://www.w3.org/2000/svg" xmlns:xlink="http://www.w3.org/1999/xlink">
<g id="graph0" class="graph" transform="scale(1 1) rotate(0) translate(4 62)">
<title>Graphical Class Hierarchy</title>
<polygon fill="white" stroke="none" points="-4,4 -4,-62 252,-62 252,4 -4,4"/>
<!-- Node658 -->
<g id="node1" class="node"><title>Node658</title>
<polygon fill="white" stroke="#bfbfbf" points="0.5,-19.5 0.5,-38.5 75.5,-38.5 75.5,-19.5 0.5,-19.5"/>
<text text-anchor="middle" x="38" y="-26.5" font-family="Helvetica,sans-Serif" font-size="10.00">padmodifier_t</text>
</g>
<!-- Node0 -->
<g id="node2" class="node"><title>Node0</title>
<g id="a_node2"><a xlink:href="structant_1_1padoption.html" target="_top" xlink:title="ant::padoption">
<polygon fill="white" stroke="black" points="141,-38.5 141,-57.5 219,-57.5 219,-38.5 141,-38.5"/>
<text text-anchor="middle" x="180" y="-45.5" font-family="Helvetica,sans-Serif" font-size="10.00">ant::padoption</text>
</a>
</g>
</g>
<!-- Node658&#45;&gt;Node0 -->
<g id="edge1" class="edge"><title>Node658&#45;&gt;Node0</title>
<path fill="none" stroke="midnightblue" d="M85.7642,-35.3466C103.716,-37.7829 123.967,-40.5313 140.999,-42.8427"/>
<polygon fill="midnightblue" stroke="midnightblue" points="86.1632,-31.8687 75.7834,-33.992 85.2218,-38.8051 86.1632,-31.8687"/>
</g>
<!-- Node660 -->
<g id="node3" class="node"><title>Node660</title>
<g id="a_node3"><a xlink:href="structant_1_1padoption_1_1_set_fill_color.html" target="_top" xlink:title="ant::padoption::SetFillColor">
<polygon fill="white" stroke="black" points="112.5,-0.5 112.5,-19.5 247.5,-19.5 247.5,-0.5 112.5,-0.5"/>
<text text-anchor="middle" x="180" y="-7.5" font-family="Helvetica,sans-Serif" font-size="10.00">ant::padoption::SetFillColor</text>
</a>
</g>
</g>
<!-- Node658&#45;&gt;Node660 -->
<g id="edge2" class="edge"><title>Node658&#45;&gt;Node660</title>
<path fill="none" stroke="midnightblue" d="M85.8834,-22.6372C94.4055,-21.4807 103.443,-20.2542 112.405,-19.0379"/>
<polygon fill="midnightblue" stroke="midnightblue" points="85.2218,-19.1949 75.7834,-24.008 86.1632,-26.1313 85.2218,-19.1949"/>
</g>
</g>
</svg>
