<?xml version="1.0" encoding="UTF-8" standalone="no"?>
<!DOCTYPE svg PUBLIC "-//W3C//DTD SVG 1.1//EN"
 "http://www.w3.org/Graphics/SVG/1.1/DTD/svg11.dtd">
<!-- Generated by graphviz version 2.36.0 (20140111.2315)
 -->
<!-- Title: Graphical Class Hierarchy Pages: 1 -->
<svg width="328pt" height="48pt"
 viewBox="0.00 0.00 328.00 48.00" xmlns="http://www.w3.org/2000/svg" xmlns:xlink="http://www.w3.org/1999/xlink">
<g id="graph0" class="graph" transform="scale(1 1) rotate(0) translate(4 44)">
<title>Graphical Class Hierarchy</title>
<polygon fill="white" stroke="none" points="-4,4 -4,-44 324,-44 324,4 -4,4"/>
<!-- Node0 -->
<g id="node1" class="node"><title>Node0</title>
<g id="a_node1"><a xlink:href="structant_1_1std__ext_1_1shared__ptr__container_1_1iterator__list__base.html" target="_top" xlink:title="ant::std_ext::shared\l_ptr_container\&lt; T, Container\l \&gt;::iterator_list_base">
<polygon fill="white" stroke="black" points="0.5,0.5 0.5,-40.5 141.5,-40.5 141.5,0.5 0.5,0.5"/>
<text text-anchor="start" x="8.5" y="-28.5" font-family="Helvetica,sans-Serif" font-size="10.00">ant::std_ext::shared</text>
<text text-anchor="start" x="8.5" y="-17.5" font-family="Helvetica,sans-Serif" font-size="10.00">_ptr_container&lt; T, Container</text>
<text text-anchor="middle" x="71" y="-6.5" font-family="Helvetica,sans-Serif" font-size="10.00"> &gt;::iterator_list_base</text>
</a>
</g>
</g>
<!-- Node1 -->
<g id="node2" class="node"><title>Node1</title>
<g id="a_node2"><a xlink:href="structant_1_1std__ext_1_1shared__ptr__container_1_1iterator__list.html" target="_top" xlink:title="ant::std_ext::shared\l_ptr_container\&lt; T, Container\l \&gt;::iterator_list\&lt; filter_t \&gt;">
<polygon fill="white" stroke="black" points="178.5,0.5 178.5,-40.5 319.5,-40.5 319.5,0.5 178.5,0.5"/>
<text text-anchor="start" x="186.5" y="-28.5" font-family="Helvetica,sans-Serif" font-size="10.00">ant::std_ext::shared</text>
<text text-anchor="start" x="186.5" y="-17.5" font-family="Helvetica,sans-Serif" font-size="10.00">_ptr_container&lt; T, Container</text>
<text text-anchor="middle" x="249" y="-6.5" font-family="Helvetica,sans-Serif" font-size="10.00"> &gt;::iterator_list&lt; filter_t &gt;</text>
</a>
</g>
</g>
<!-- Node0&#45;&gt;Node1 -->
<g id="edge1" class="edge"><title>Node0&#45;&gt;Node1</title>
<path fill="none" stroke="midnightblue" d="M151.581,-20C160.518,-20 169.571,-20 178.369,-20"/>
<polygon fill="midnightblue" stroke="midnightblue" points="151.56,-16.5001 141.56,-20 151.56,-23.5001 151.56,-16.5001"/>
</g>
</g>
</svg>
