<?xml version="1.0" encoding="UTF-8" standalone="no"?>
<!DOCTYPE svg PUBLIC "-//W3C//DTD SVG 1.1//EN"
 "http://www.w3.org/Graphics/SVG/1.1/DTD/svg11.dtd">
<!-- Generated by graphviz version 2.36.0 (20140111.2315)
 -->
<!-- Title: Graphical Class Hierarchy Pages: 1 -->
<svg width="382pt" height="175pt"
 viewBox="0.00 0.00 382.00 175.00" xmlns="http://www.w3.org/2000/svg" xmlns:xlink="http://www.w3.org/1999/xlink">
<g id="graph0" class="graph" transform="scale(1 1) rotate(0) translate(4 171)">
<title>Graphical Class Hierarchy</title>
<polygon fill="white" stroke="none" points="-4,4 -4,-171 378,-171 378,4 -4,4"/>
<!-- Node1024 -->
<g id="node1" class="node"><title>Node1024</title>
<g id="a_node1"><a xlink:href="struct_common_hist__t.html" target="_top" xlink:title="CommonHist_t">
<polygon fill="white" stroke="black" points="27.5,-98.5 27.5,-117.5 110.5,-117.5 110.5,-98.5 27.5,-98.5"/>
<text text-anchor="middle" x="69" y="-105.5" font-family="Helvetica,sans-Serif" font-size="10.00">CommonHist_t</text>
</a>
</g>
</g>
<!-- Node826 -->
<g id="node2" class="node"><title>Node826</title>
<g id="a_node2"><a xlink:href="struct_ref_hist__t.html" target="_top" xlink:title="RefHist_t">
<polygon fill="white" stroke="black" points="174.5,-120.5 174.5,-139.5 233.5,-139.5 233.5,-120.5 174.5,-120.5"/>
<text text-anchor="middle" x="204" y="-127.5" font-family="Helvetica,sans-Serif" font-size="10.00">RefHist_t</text>
</a>
</g>
</g>
<!-- Node1024&#45;&gt;Node826 -->
<g id="edge1" class="edge"><title>Node1024&#45;&gt;Node826</title>
<path fill="none" stroke="midnightblue" d="M120.546,-116.361C138.783,-119.378 158.721,-122.676 174.422,-125.273"/>
<polygon fill="midnightblue" stroke="midnightblue" points="121.064,-112.899 110.627,-114.72 119.922,-119.805 121.064,-112.899"/>
</g>
<!-- Node1 -->
<g id="node3" class="node"><title>Node1</title>
<g id="a_node3"><a xlink:href="struct_sig_hist__t.html" target="_top" xlink:title="SigHist_t">
<polygon fill="white" stroke="black" points="175.5,-54.5 175.5,-73.5 232.5,-73.5 232.5,-54.5 175.5,-54.5"/>
<text text-anchor="middle" x="204" y="-61.5" font-family="Helvetica,sans-Serif" font-size="10.00">SigHist_t</text>
</a>
</g>
</g>
<!-- Node1024&#45;&gt;Node1 -->
<g id="edge2" class="edge"><title>Node1024&#45;&gt;Node1</title>
<path fill="none" stroke="midnightblue" d="M113.729,-95.6133C121.829,-93.1846 130.194,-90.5859 138,-88 151.475,-83.5365 166.337,-78.0887 178.446,-73.5123"/>
<polygon fill="midnightblue" stroke="midnightblue" points="112.634,-92.2873 104.037,-98.479 114.619,-99.0001 112.634,-92.2873"/>
</g>
<!-- Node2 -->
<g id="node4" class="node"><title>Node2</title>
<g id="a_node4"><a xlink:href="struct_sig_omega_pi0_hist__t.html" target="_top" xlink:title="SigOmegaPi0Hist_t">
<polygon fill="white" stroke="black" points="270.5,-73.5 270.5,-92.5 373.5,-92.5 373.5,-73.5 270.5,-73.5"/>
<text text-anchor="middle" x="322" y="-80.5" font-family="Helvetica,sans-Serif" font-size="10.00">SigOmegaPi0Hist_t</text>
</a>
</g>
</g>
<!-- Node1&#45;&gt;Node2 -->
<g id="edge3" class="edge"><title>Node1&#45;&gt;Node2</title>
<path fill="none" stroke="midnightblue" d="M242.728,-70.1797C251.527,-71.6207 261.037,-73.1784 270.295,-74.6948"/>
<polygon fill="midnightblue" stroke="midnightblue" points="243.219,-66.7135 232.785,-68.551 242.088,-73.6214 243.219,-66.7135"/>
</g>
<!-- Node3 -->
<g id="node5" class="node"><title>Node3</title>
<g id="a_node5"><a xlink:href="struct_sig_pi0_hist__t.html" target="_top" xlink:title="SigPi0Hist_t">
<polygon fill="white" stroke="black" points="286.5,-35.5 286.5,-54.5 357.5,-54.5 357.5,-35.5 286.5,-35.5"/>
<text text-anchor="middle" x="322" y="-42.5" font-family="Helvetica,sans-Serif" font-size="10.00">SigPi0Hist_t</text>
</a>
</g>
</g>
<!-- Node1&#45;&gt;Node3 -->
<g id="edge4" class="edge"><title>Node1&#45;&gt;Node3</title>
<path fill="none" stroke="midnightblue" d="M243.057,-57.7666C257.019,-55.4796 272.738,-52.905 286.383,-50.6701"/>
<polygon fill="midnightblue" stroke="midnightblue" points="242.088,-54.3786 232.785,-59.449 243.219,-61.2865 242.088,-54.3786"/>
</g>
<!-- Node825 -->
<g id="node6" class="node"><title>Node825</title>
<g id="a_node6"><a xlink:href="struct_hist__t.html" target="_top" xlink:title="Hist_t\&lt; physics::EtapDalitz\l::RefTree_t \&gt;">
<polygon fill="white" stroke="black" points="0.5,-137 0.5,-167 137.5,-167 137.5,-137 0.5,-137"/>
<text text-anchor="start" x="8.5" y="-155" font-family="Helvetica,sans-Serif" font-size="10.00">Hist_t&lt; physics::EtapDalitz</text>
<text text-anchor="middle" x="69" y="-144" font-family="Helvetica,sans-Serif" font-size="10.00">::RefTree_t &gt;</text>
</a>
</g>
</g>
<!-- Node825&#45;&gt;Node826 -->
<g id="edge5" class="edge"><title>Node825&#45;&gt;Node826</title>
<path fill="none" stroke="midnightblue" d="M147.649,-139.156C157.15,-137.584 166.338,-136.064 174.408,-134.729"/>
<polygon fill="midnightblue" stroke="midnightblue" points="146.964,-135.722 137.669,-140.807 148.106,-142.628 146.964,-135.722"/>
</g>
<!-- Node824 -->
<g id="node7" class="node"><title>Node824</title>
<g id="a_node7"><a xlink:href="struct_hist__t.html" target="_top" xlink:title="Hist_t\&lt; physics::EtapDalitz\l::SigTree_t \&gt;">
<polygon fill="white" stroke="black" points="0.5,-49 0.5,-79 137.5,-79 137.5,-49 0.5,-49"/>
<text text-anchor="start" x="8.5" y="-67" font-family="Helvetica,sans-Serif" font-size="10.00">Hist_t&lt; physics::EtapDalitz</text>
<text text-anchor="middle" x="69" y="-56" font-family="Helvetica,sans-Serif" font-size="10.00">::SigTree_t &gt;</text>
</a>
</g>
</g>
<!-- Node824&#45;&gt;Node1 -->
<g id="edge6" class="edge"><title>Node824&#45;&gt;Node1</title>
<path fill="none" stroke="midnightblue" d="M147.943,-64C157.719,-64 167.155,-64 175.372,-64"/>
<polygon fill="midnightblue" stroke="midnightblue" points="147.669,-60.5001 137.669,-64 147.669,-67.5001 147.669,-60.5001"/>
</g>
<!-- Node0 -->
<g id="node8" class="node"><title>Node0</title>
<g id="a_node8"><a xlink:href="structq2_hist__var__t.html" target="_top" xlink:title="q2Hist_var_t\&lt; physics\l::EtapDalitz::SigTree_t \&gt;">
<polygon fill="white" stroke="black" points="6.5,-0 6.5,-30 131.5,-30 131.5,-0 6.5,-0"/>
<text text-anchor="start" x="14.5" y="-18" font-family="Helvetica,sans-Serif" font-size="10.00">q2Hist_var_t&lt; physics</text>
<text text-anchor="middle" x="69" y="-7" font-family="Helvetica,sans-Serif" font-size="10.00">::EtapDalitz::SigTree_t &gt;</text>
</a>
</g>
</g>
<!-- Node0&#45;&gt;Node1 -->
<g id="edge7" class="edge"><title>Node0&#45;&gt;Node1</title>
<path fill="none" stroke="midnightblue" d="M120.724,-33.6396C126.55,-35.7833 132.405,-37.9385 138,-40 150.868,-44.741 165.165,-50.0189 177.067,-54.4152"/>
<polygon fill="midnightblue" stroke="midnightblue" points="121.59,-30.2289 110.996,-30.0616 119.173,-36.7986 121.59,-30.2289"/>
</g>
</g>
</svg>
