<?xml version="1.0" encoding="UTF-8" standalone="no"?>
<!DOCTYPE svg PUBLIC "-//W3C//DTD SVG 1.1//EN"
 "http://www.w3.org/Graphics/SVG/1.1/DTD/svg11.dtd">
<!-- Generated by graphviz version 2.36.0 (20140111.2315)
 -->
<!-- Title: src/analysis/input/event_t.h Pages: 1 -->
<svg width="211pt" height="152pt"
 viewBox="0.00 0.00 211.00 152.00" xmlns="http://www.w3.org/2000/svg" xmlns:xlink="http://www.w3.org/1999/xlink">
<g id="graph0" class="graph" transform="scale(1 1) rotate(0) translate(4 148)">
<title>src/analysis/input/event_t.h</title>
<polygon fill="white" stroke="none" points="-4,4 -4,-148 207,-148 207,4 -4,4"/>
<!-- Node0 -->
<g id="node1" class="node"><title>Node0</title>
<polygon fill="#bfbfbf" stroke="black" points="53.5,-113 53.5,-143 146.5,-143 146.5,-113 53.5,-113"/>
<text text-anchor="start" x="61.5" y="-131" font-family="Helvetica,sans-Serif" font-size="10.00">src/analysis/input</text>
<text text-anchor="middle" x="100" y="-120" font-family="Helvetica,sans-Serif" font-size="10.00">/event_t.h</text>
</g>
<!-- Node1 -->
<g id="node2" class="node"><title>Node1</title>
<g id="a_node2"><a xlink:href="_t_event_8h.html" target="_top" xlink:title="tree/TEvent.h">
<polygon fill="white" stroke="black" points="62,-56.5 62,-75.5 138,-75.5 138,-56.5 62,-56.5"/>
<text text-anchor="middle" x="100" y="-63.5" font-family="Helvetica,sans-Serif" font-size="10.00">tree/TEvent.h</text>
</a>
</g>
</g>
<!-- Node0&#45;&gt;Node1 -->
<g id="edge1" class="edge"><title>Node0&#45;&gt;Node1</title>
<path fill="none" stroke="midnightblue" d="M100,-112.781C100,-104.781 100,-94.6887 100,-86.0168"/>
<polygon fill="midnightblue" stroke="midnightblue" points="103.5,-85.7305 100,-75.7305 96.5001,-85.7306 103.5,-85.7305"/>
</g>
<!-- Node2 -->
<g id="node3" class="node"><title>Node2</title>
<polygon fill="white" stroke="#bfbfbf" points="0,-0.5 0,-19.5 56,-19.5 56,-0.5 0,-0.5"/>
<text text-anchor="middle" x="28" y="-7.5" font-family="Helvetica,sans-Serif" font-size="10.00">Rtypes.h</text>
</g>
<!-- Node1&#45;&gt;Node2 -->
<g id="edge2" class="edge"><title>Node1&#45;&gt;Node2</title>
<path fill="none" stroke="midnightblue" d="M88.432,-56.324C77.5798,-48.1849 61.1193,-35.8395 48.1166,-26.0874"/>
<polygon fill="midnightblue" stroke="midnightblue" points="49.8786,-23.0339 39.7785,-19.8339 45.6785,-28.6339 49.8786,-23.0339"/>
</g>
<!-- Node3 -->
<g id="node4" class="node"><title>Node3</title>
<polygon fill="white" stroke="#bfbfbf" points="74,-0.5 74,-19.5 126,-19.5 126,-0.5 74,-0.5"/>
<text text-anchor="middle" x="100" y="-7.5" font-family="Helvetica,sans-Serif" font-size="10.00">memory</text>
</g>
<!-- Node1&#45;&gt;Node3 -->
<g id="edge3" class="edge"><title>Node1&#45;&gt;Node3</title>
<path fill="none" stroke="midnightblue" d="M100,-56.083C100,-49.0059 100,-38.8611 100,-29.9865"/>
<polygon fill="midnightblue" stroke="midnightblue" points="103.5,-29.751 100,-19.7511 96.5001,-29.7511 103.5,-29.751"/>
</g>
<!-- Node4 -->
<g id="node5" class="node"><title>Node4</title>
<polygon fill="white" stroke="#bfbfbf" points="144.5,-0.5 144.5,-19.5 203.5,-19.5 203.5,-0.5 144.5,-0.5"/>
<text text-anchor="middle" x="174" y="-7.5" font-family="Helvetica,sans-Serif" font-size="10.00">stdexcept</text>
</g>
<!-- Node1&#45;&gt;Node4 -->
<g id="edge4" class="edge"><title>Node1&#45;&gt;Node4</title>
<path fill="none" stroke="midnightblue" d="M111.889,-56.324C123.15,-48.1066 140.287,-35.6017 153.709,-25.8069"/>
<polygon fill="midnightblue" stroke="midnightblue" points="155.88,-28.5559 161.894,-19.8339 151.753,-22.9014 155.88,-28.5559"/>
</g>
</g>
</svg>
