<?xml version="1.0" encoding="UTF-8" standalone="no"?>
<!DOCTYPE svg PUBLIC "-//W3C//DTD SVG 1.1//EN"
 "http://www.w3.org/Graphics/SVG/1.1/DTD/svg11.dtd">
<!-- Generated by graphviz version 2.36.0 (20140111.2315)
 -->
<!-- Title: src/base/std_ext/iterators.h Pages: 1 -->
<svg width="844pt" height="96pt"
 viewBox="0.00 0.00 844.00 96.00" xmlns="http://www.w3.org/2000/svg" xmlns:xlink="http://www.w3.org/1999/xlink">
<g id="graph0" class="graph" transform="scale(1 1) rotate(0) translate(4 92)">
<title>src/base/std_ext/iterators.h</title>
<polygon fill="white" stroke="none" points="-4,4 -4,-92 840,-92 840,4 -4,4"/>
<!-- Node2 -->
<g id="node1" class="node"><title>Node2</title>
<polygon fill="#bfbfbf" stroke="black" points="348,-68.5 348,-87.5 484,-87.5 484,-68.5 348,-68.5"/>
<text text-anchor="middle" x="416" y="-75.5" font-family="Helvetica,sans-Serif" font-size="10.00">src/base/std_ext/iterators.h</text>
</g>
<!-- Node3 -->
<g id="node2" class="node"><title>Node3</title>
<g id="a_node2"><a xlink:href="_ant-calib-viewer_8cc.html" target="_top" xlink:title="progs/Ant&#45;calib&#45;viewer.cc">
<polygon fill="white" stroke="black" points="-0.5,-6.5 -0.5,-25.5 126.5,-25.5 126.5,-6.5 -0.5,-6.5"/>
<text text-anchor="middle" x="63" y="-13.5" font-family="Helvetica,sans-Serif" font-size="10.00">progs/Ant&#45;calib&#45;viewer.cc</text>
</a>
</g>
</g>
<!-- Node2&#45;&gt;Node3 -->
<g id="edge1" class="edge"><title>Node2&#45;&gt;Node3</title>
<path fill="none" stroke="midnightblue" d="M347.768,-66.9829C290.769,-58.397 207.423,-45.3356 135,-32 124.326,-30.0346 112.803,-27.7207 102.171,-25.5064"/>
<polygon fill="midnightblue" stroke="midnightblue" points="347.333,-70.4568 357.742,-68.4801 348.372,-63.5343 347.333,-70.4568"/>
</g>
<!-- Node4 -->
<g id="node3" class="node"><title>Node4</title>
<g id="a_node3"><a xlink:href="_ant-mcdatabase-viewer_8cc.html" target="_top" xlink:title="progs/Ant&#45;mcdatabase\l&#45;viewer.cc">
<polygon fill="white" stroke="black" points="144.5,-1 144.5,-31 259.5,-31 259.5,-1 144.5,-1"/>
<text text-anchor="start" x="152.5" y="-19" font-family="Helvetica,sans-Serif" font-size="10.00">progs/Ant&#45;mcdatabase</text>
<text text-anchor="middle" x="202" y="-8" font-family="Helvetica,sans-Serif" font-size="10.00">&#45;viewer.cc</text>
</a>
</g>
</g>
<!-- Node2&#45;&gt;Node4 -->
<g id="edge2" class="edge"><title>Node2&#45;&gt;Node4</title>
<path fill="none" stroke="midnightblue" d="M375.447,-65.6299C340.394,-55.802 289.593,-41.5589 252.024,-31.0253"/>
<polygon fill="midnightblue" stroke="midnightblue" points="374.765,-69.0738 385.339,-68.4035 376.655,-62.3337 374.765,-69.0738"/>
</g>
<!-- Node5 -->
<g id="node4" class="node"><title>Node5</title>
<g id="a_node4"><a xlink:href="process_etap_tree_8cc.html" target="_top" xlink:title="progs/processEtapTree.cc">
<polygon fill="white" stroke="black" points="277.5,-6.5 277.5,-25.5 408.5,-25.5 408.5,-6.5 277.5,-6.5"/>
<text text-anchor="middle" x="343" y="-13.5" font-family="Helvetica,sans-Serif" font-size="10.00">progs/processEtapTree.cc</text>
</a>
</g>
</g>
<!-- Node2&#45;&gt;Node5 -->
<g id="edge3" class="edge"><title>Node2&#45;&gt;Node5</title>
<path fill="none" stroke="midnightblue" d="M397.563,-61.8464C383.601,-50.3706 364.924,-35.0195 353.44,-25.5806"/>
<polygon fill="midnightblue" stroke="midnightblue" points="395.593,-64.7577 405.541,-68.4035 400.038,-59.3499 395.593,-64.7577"/>
</g>
<!-- Node6 -->
<g id="node5" class="node"><title>Node6</title>
<g id="a_node5"><a xlink:href="_omega___eta_g_8cc.html" target="_top" xlink:title="src/analysis/physics\l/omega/Omega_EtaG.cc">
<polygon fill="white" stroke="black" points="426.5,-1 426.5,-31 551.5,-31 551.5,-1 426.5,-1"/>
<text text-anchor="start" x="434.5" y="-19" font-family="Helvetica,sans-Serif" font-size="10.00">src/analysis/physics</text>
<text text-anchor="middle" x="489" y="-8" font-family="Helvetica,sans-Serif" font-size="10.00">/omega/Omega_EtaG.cc</text>
</a>
</g>
</g>
<!-- Node2&#45;&gt;Node6 -->
<g id="edge4" class="edge"><title>Node2&#45;&gt;Node6</title>
<path fill="none" stroke="midnightblue" d="M434.5,-61.7947C445.962,-52.3738 460.583,-40.3562 471.795,-31.1408"/>
<polygon fill="midnightblue" stroke="midnightblue" points="431.962,-59.3499 426.459,-68.4035 436.407,-64.7577 431.962,-59.3499"/>
</g>
<!-- Node7 -->
<g id="node6" class="node"><title>Node7</title>
<g id="a_node6"><a xlink:href="pi0eta_8cc.html" target="_top" xlink:title="src/analysis/physics\l/omega/pi0eta.cc">
<polygon fill="white" stroke="black" points="570,-1 570,-31 676,-31 676,-1 570,-1"/>
<text text-anchor="start" x="578" y="-19" font-family="Helvetica,sans-Serif" font-size="10.00">src/analysis/physics</text>
<text text-anchor="middle" x="623" y="-8" font-family="Helvetica,sans-Serif" font-size="10.00">/omega/pi0eta.cc</text>
</a>
</g>
</g>
<!-- Node2&#45;&gt;Node7 -->
<g id="edge5" class="edge"><title>Node2&#45;&gt;Node7</title>
<path fill="none" stroke="midnightblue" d="M455.664,-65.5031C489.555,-55.6798 538.428,-41.5137 574.613,-31.0253"/>
<polygon fill="midnightblue" stroke="midnightblue" points="454.288,-62.2578 445.658,-68.4035 456.237,-68.9811 454.288,-62.2578"/>
</g>
<!-- Node8 -->
<g id="node7" class="node"><title>Node8</title>
<g id="a_node7"><a xlink:href="_test_wrap_t_tree_8cc.html" target="_top" xlink:title="test/base/TestWrapTTree.cc">
<polygon fill="white" stroke="black" points="694,-6.5 694,-25.5 836,-25.5 836,-6.5 694,-6.5"/>
<text text-anchor="middle" x="765" y="-13.5" font-family="Helvetica,sans-Serif" font-size="10.00">test/base/TestWrapTTree.cc</text>
</a>
</g>
</g>
<!-- Node2&#45;&gt;Node8 -->
<g id="edge6" class="edge"><title>Node2&#45;&gt;Node8</title>
<path fill="none" stroke="midnightblue" d="M478.593,-66.7944C532.94,-57.8605 613.727,-44.4056 684,-32 695.549,-29.9612 708.01,-27.6896 719.614,-25.5434"/>
<polygon fill="midnightblue" stroke="midnightblue" points="477.726,-63.3899 468.425,-68.4638 478.86,-70.2974 477.726,-63.3899"/>
</g>
</g>
</svg>
