<?xml version="1.0" encoding="UTF-8" standalone="no"?>
<!DOCTYPE svg PUBLIC "-//W3C//DTD SVG 1.1//EN"
 "http://www.w3.org/Graphics/SVG/1.1/DTD/svg11.dtd">
<!-- Generated by graphviz version 2.36.0 (20140111.2315)
 -->
<!-- Title: src/base/std_ext/map.h Pages: 1 -->
<svg width="365pt" height="96pt"
 viewBox="0.00 0.00 365.00 96.00" xmlns="http://www.w3.org/2000/svg" xmlns:xlink="http://www.w3.org/1999/xlink">
<g id="graph0" class="graph" transform="scale(1 1) rotate(0) translate(4 92)">
<title>src/base/std_ext/map.h</title>
<polygon fill="white" stroke="none" points="-4,4 -4,-92 361,-92 361,4 -4,4"/>
<!-- Node7 -->
<g id="node1" class="node"><title>Node7</title>
<polygon fill="#bfbfbf" stroke="black" points="103.5,-68.5 103.5,-87.5 222.5,-87.5 222.5,-68.5 103.5,-68.5"/>
<text text-anchor="middle" x="163" y="-75.5" font-family="Helvetica,sans-Serif" font-size="10.00">src/base/std_ext/map.h</text>
</g>
<!-- Node8 -->
<g id="node2" class="node"><title>Node8</title>
<g id="a_node2"><a xlink:href="_kin_fitter_8cc.html" target="_top" xlink:title="src/analysis/utils\l/fitter/KinFitter.cc">
<polygon fill="white" stroke="black" points="0,-1 0,-31 92,-31 92,-1 0,-1"/>
<text text-anchor="start" x="8" y="-19" font-family="Helvetica,sans-Serif" font-size="10.00">src/analysis/utils</text>
<text text-anchor="middle" x="46" y="-8" font-family="Helvetica,sans-Serif" font-size="10.00">/fitter/KinFitter.cc</text>
</a>
</g>
</g>
<!-- Node7&#45;&gt;Node8 -->
<g id="edge1" class="edge"><title>Node7&#45;&gt;Node8</title>
<path fill="none" stroke="midnightblue" d="M137.316,-63.8286C118.455,-54.1562 92.866,-41.0338 73.5746,-31.1408"/>
<polygon fill="midnightblue" stroke="midnightblue" points="135.741,-66.9546 146.237,-68.4035 138.936,-60.7259 135.741,-66.9546"/>
</g>
<!-- Node9 -->
<g id="node3" class="node"><title>Node9</title>
<g id="a_node3"><a xlink:href="_sigma_fitter_8cc.html" target="_top" xlink:title="src/analysis/utils\l/fitter/SigmaFitter.cc">
<polygon fill="white" stroke="black" points="110,-1 110,-31 216,-31 216,-1 110,-1"/>
<text text-anchor="start" x="118" y="-19" font-family="Helvetica,sans-Serif" font-size="10.00">src/analysis/utils</text>
<text text-anchor="middle" x="163" y="-8" font-family="Helvetica,sans-Serif" font-size="10.00">/fitter/SigmaFitter.cc</text>
</a>
</g>
</g>
<!-- Node7&#45;&gt;Node9 -->
<g id="edge2" class="edge"><title>Node7&#45;&gt;Node9</title>
<path fill="none" stroke="midnightblue" d="M163,-58.3707C163,-49.5849 163,-39.2721 163,-31.1408"/>
<polygon fill="midnightblue" stroke="midnightblue" points="159.5,-58.4034 163,-68.4035 166.5,-58.4035 159.5,-58.4034"/>
</g>
<!-- Node10 -->
<g id="node4" class="node"><title>Node10</title>
<g id="a_node4"><a xlink:href="_test_std_ext_8cc.html" target="_top" xlink:title="test/base/TestStdExt.cc">
<polygon fill="white" stroke="black" points="234.5,-6.5 234.5,-25.5 357.5,-25.5 357.5,-6.5 234.5,-6.5"/>
<text text-anchor="middle" x="296" y="-13.5" font-family="Helvetica,sans-Serif" font-size="10.00">test/base/TestStdExt.cc</text>
</a>
</g>
</g>
<!-- Node7&#45;&gt;Node10 -->
<g id="edge3" class="edge"><title>Node7&#45;&gt;Node10</title>
<path fill="none" stroke="midnightblue" d="M191.327,-64.2207C217.147,-52.5726 254.576,-35.6874 276.98,-25.5806"/>
<polygon fill="midnightblue" stroke="midnightblue" points="189.732,-61.1008 182.056,-68.4035 192.61,-67.4816 189.732,-61.1008"/>
</g>
</g>
</svg>
