<?xml version="1.0" encoding="UTF-8" standalone="no"?>
<!DOCTYPE svg PUBLIC "-//W3C//DTD SVG 1.1//EN"
 "http://www.w3.org/Graphics/SVG/1.1/DTD/svg11.dtd">
<!-- Generated by graphviz version 2.36.0 (20140111.2315)
 -->
<!-- Title: src/base/std_ext/map.h Pages: 1 -->
<svg width="257pt" height="140pt"
 viewBox="0.00 0.00 257.00 140.00" xmlns="http://www.w3.org/2000/svg" xmlns:xlink="http://www.w3.org/1999/xlink">
<g id="graph0" class="graph" transform="scale(1 1) rotate(0) translate(4 136)">
<title>src/base/std_ext/map.h</title>
<polygon fill="white" stroke="none" points="-4,4 -4,-136 253,-136 253,4 -4,4"/>
<!-- Node0 -->
<g id="node1" class="node"><title>Node0</title>
<polygon fill="#bfbfbf" stroke="black" points="23.5,-112.5 23.5,-131.5 142.5,-131.5 142.5,-112.5 23.5,-112.5"/>
<text text-anchor="middle" x="83" y="-119.5" font-family="Helvetica,sans-Serif" font-size="10.00">src/base/std_ext/map.h</text>
</g>
<!-- Node1 -->
<g id="node2" class="node"><title>Node1</title>
<polygon fill="white" stroke="#bfbfbf" points="0,-0.5 0,-19.5 56,-19.5 56,-0.5 0,-0.5"/>
<text text-anchor="middle" x="28" y="-7.5" font-family="Helvetica,sans-Serif" font-size="10.00">algorithm</text>
</g>
<!-- Node0&#45;&gt;Node1 -->
<g id="edge1" class="edge"><title>Node0&#45;&gt;Node1</title>
<path fill="none" stroke="midnightblue" d="M72.883,-112.397C63.6992,-104.029 50.4824,-90.4882 43,-76 35.5268,-61.5296 31.7377,-43.3432 29.8402,-29.8898"/>
<polygon fill="midnightblue" stroke="midnightblue" points="33.3073,-29.4047 28.6519,-19.8875 26.3562,-30.2306 33.3073,-29.4047"/>
</g>
<!-- Node2 -->
<g id="node3" class="node"><title>Node2</title>
<polygon fill="white" stroke="#bfbfbf" points="52,-56.5 52,-75.5 114,-75.5 114,-56.5 52,-56.5"/>
<text text-anchor="middle" x="83" y="-63.5" font-family="Helvetica,sans-Serif" font-size="10.00">type_traits</text>
</g>
<!-- Node0&#45;&gt;Node2 -->
<g id="edge2" class="edge"><title>Node0&#45;&gt;Node2</title>
<path fill="none" stroke="midnightblue" d="M83,-112.083C83,-105.006 83,-94.8611 83,-85.9865"/>
<polygon fill="midnightblue" stroke="midnightblue" points="86.5001,-85.751 83,-75.7511 79.5001,-85.7511 86.5001,-85.751"/>
</g>
<!-- Node3 -->
<g id="node4" class="node"><title>Node3</title>
<g id="a_node4"><a xlink:href="container_8h.html" target="_top" xlink:title="container.h">
<polygon fill="white" stroke="black" points="132.5,-56.5 132.5,-75.5 197.5,-75.5 197.5,-56.5 132.5,-56.5"/>
<text text-anchor="middle" x="165" y="-63.5" font-family="Helvetica,sans-Serif" font-size="10.00">container.h</text>
</a>
</g>
</g>
<!-- Node0&#45;&gt;Node3 -->
<g id="edge3" class="edge"><title>Node0&#45;&gt;Node3</title>
<path fill="none" stroke="midnightblue" d="M96.1747,-112.324C108.847,-103.979 128.233,-91.2122 143.206,-81.3524"/>
<polygon fill="midnightblue" stroke="midnightblue" points="145.431,-84.0776 151.858,-75.6545 141.581,-78.2313 145.431,-84.0776"/>
</g>
<!-- Node3&#45;&gt;Node1 -->
<g id="edge5" class="edge"><title>Node3&#45;&gt;Node1</title>
<path fill="none" stroke="midnightblue" d="M143.292,-56.4435C120.645,-47.5171 84.9279,-33.4387 59.2482,-23.3168"/>
<polygon fill="midnightblue" stroke="midnightblue" points="60.1934,-19.9273 49.6065,-19.5164 57.6264,-26.4397 60.1934,-19.9273"/>
</g>
<!-- Node4 -->
<g id="node5" class="node"><title>Node4</title>
<polygon fill="white" stroke="#bfbfbf" points="77,-0.5 77,-19.5 121,-19.5 121,-0.5 77,-0.5"/>
<text text-anchor="middle" x="99" y="-7.5" font-family="Helvetica,sans-Serif" font-size="10.00">vector</text>
</g>
<!-- Node3&#45;&gt;Node4 -->
<g id="edge4" class="edge"><title>Node3&#45;&gt;Node4</title>
<path fill="none" stroke="midnightblue" d="M154.396,-56.324C144.544,-48.2631 129.649,-36.0765 117.785,-26.3695"/>
<polygon fill="midnightblue" stroke="midnightblue" points="119.753,-23.4575 109.797,-19.8339 115.32,-28.8752 119.753,-23.4575"/>
</g>
<!-- Node5 -->
<g id="node6" class="node"><title>Node5</title>
<polygon fill="white" stroke="#bfbfbf" points="139.5,-0.5 139.5,-19.5 190.5,-19.5 190.5,-0.5 139.5,-0.5"/>
<text text-anchor="middle" x="165" y="-7.5" font-family="Helvetica,sans-Serif" font-size="10.00">numeric</text>
</g>
<!-- Node3&#45;&gt;Node5 -->
<g id="edge6" class="edge"><title>Node3&#45;&gt;Node5</title>
<path fill="none" stroke="midnightblue" d="M165,-56.083C165,-49.0059 165,-38.8611 165,-29.9865"/>
<polygon fill="midnightblue" stroke="midnightblue" points="168.5,-29.751 165,-19.7511 161.5,-29.7511 168.5,-29.751"/>
</g>
<!-- Node6 -->
<g id="node7" class="node"><title>Node6</title>
<polygon fill="white" stroke="#bfbfbf" points="208.5,-0.5 208.5,-19.5 249.5,-19.5 249.5,-0.5 208.5,-0.5"/>
<text text-anchor="middle" x="229" y="-7.5" font-family="Helvetica,sans-Serif" font-size="10.00">string</text>
</g>
<!-- Node3&#45;&gt;Node6 -->
<g id="edge7" class="edge"><title>Node3&#45;&gt;Node6</title>
<path fill="none" stroke="midnightblue" d="M175.283,-56.324C184.836,-48.2631 199.28,-36.0765 210.784,-26.3695"/>
<polygon fill="midnightblue" stroke="midnightblue" points="213.144,-28.9577 218.53,-19.8339 208.63,-23.6076 213.144,-28.9577"/>
</g>
</g>
</svg>
