<?xml version="1.0" encoding="UTF-8" standalone="no"?>
<!DOCTYPE svg PUBLIC "-//W3C//DTD SVG 1.1//EN"
 "http://www.w3.org/Graphics/SVG/1.1/DTD/svg11.dtd">
<!-- Generated by graphviz version 2.36.0 (20140111.2315)
 -->
<!-- Title: src/base/std_ext/mapped_vectors.h Pages: 1 -->
<svg width="309pt" height="152pt"
 viewBox="0.00 0.00 309.00 152.00" xmlns="http://www.w3.org/2000/svg" xmlns:xlink="http://www.w3.org/1999/xlink">
<g id="graph0" class="graph" transform="scale(1 1) rotate(0) translate(4 148)">
<title>src/base/std_ext/mapped_vectors.h</title>
<polygon fill="white" stroke="none" points="-4,4 -4,-148 305,-148 305,4 -4,4"/>
<!-- Node0 -->
<g id="node1" class="node"><title>Node0</title>
<polygon fill="#bfbfbf" stroke="black" points="85.5,-113 85.5,-143 212.5,-143 212.5,-113 85.5,-113"/>
<text text-anchor="start" x="93.5" y="-131" font-family="Helvetica,sans-Serif" font-size="10.00">src/base/std_ext/mapped</text>
<text text-anchor="middle" x="149" y="-120" font-family="Helvetica,sans-Serif" font-size="10.00">_vectors.h</text>
</g>
<!-- Node1 -->
<g id="node2" class="node"><title>Node1</title>
<g id="a_node2"><a xlink:href="memory_8h.html" target="_top" xlink:title="base/std_ext/memory.h">
<polygon fill="white" stroke="black" points="39.5,-56.5 39.5,-75.5 158.5,-75.5 158.5,-56.5 39.5,-56.5"/>
<text text-anchor="middle" x="99" y="-63.5" font-family="Helvetica,sans-Serif" font-size="10.00">base/std_ext/memory.h</text>
</a>
</g>
</g>
<!-- Node0&#45;&gt;Node1 -->
<g id="edge1" class="edge"><title>Node0&#45;&gt;Node1</title>
<path fill="none" stroke="midnightblue" d="M137.151,-112.781C129.81,-103.972 120.355,-92.6262 112.694,-83.4332"/>
<polygon fill="midnightblue" stroke="midnightblue" points="115.366,-81.1721 106.275,-75.7305 109.989,-85.6534 115.366,-81.1721"/>
</g>
<!-- Node2 -->
<g id="node3" class="node"><title>Node2</title>
<polygon fill="white" stroke="#bfbfbf" points="0,-0.5 0,-19.5 52,-19.5 52,-0.5 0,-0.5"/>
<text text-anchor="middle" x="26" y="-7.5" font-family="Helvetica,sans-Serif" font-size="10.00">memory</text>
</g>
<!-- Node0&#45;&gt;Node2 -->
<g id="edge5" class="edge"><title>Node0&#45;&gt;Node2</title>
<path fill="none" stroke="midnightblue" d="M85.3311,-113.963C64.3543,-106.413 43.0736,-94.5595 30,-76 20.6496,-62.7261 20.5311,-43.8898 22.2293,-29.9091"/>
<polygon fill="midnightblue" stroke="midnightblue" points="25.7006,-30.3668 23.839,-19.9368 18.7901,-29.2513 25.7006,-30.3668"/>
</g>
<!-- Node4 -->
<g id="node5" class="node"><title>Node4</title>
<polygon fill="white" stroke="#bfbfbf" points="177,-56.5 177,-75.5 221,-75.5 221,-56.5 177,-56.5"/>
<text text-anchor="middle" x="199" y="-63.5" font-family="Helvetica,sans-Serif" font-size="10.00">vector</text>
</g>
<!-- Node0&#45;&gt;Node4 -->
<g id="edge4" class="edge"><title>Node0&#45;&gt;Node4</title>
<path fill="none" stroke="midnightblue" d="M160.849,-112.781C168.19,-103.972 177.645,-92.6262 185.306,-83.4332"/>
<polygon fill="midnightblue" stroke="midnightblue" points="188.011,-85.6534 191.725,-75.7305 182.634,-81.1721 188.011,-85.6534"/>
</g>
<!-- Node5 -->
<g id="node6" class="node"><title>Node5</title>
<polygon fill="white" stroke="#bfbfbf" points="239,-56.5 239,-75.5 301,-75.5 301,-56.5 239,-56.5"/>
<text text-anchor="middle" x="270" y="-63.5" font-family="Helvetica,sans-Serif" font-size="10.00">type_traits</text>
</g>
<!-- Node0&#45;&gt;Node5 -->
<g id="edge6" class="edge"><title>Node0&#45;&gt;Node5</title>
<path fill="none" stroke="midnightblue" d="M177.369,-112.933C197.419,-102.991 224.101,-89.7601 243.677,-80.0526"/>
<polygon fill="midnightblue" stroke="midnightblue" points="245.252,-83.1782 252.657,-75.6 242.143,-76.9069 245.252,-83.1782"/>
</g>
<!-- Node1&#45;&gt;Node2 -->
<g id="edge2" class="edge"><title>Node1&#45;&gt;Node2</title>
<path fill="none" stroke="midnightblue" d="M87.2713,-56.324C76.1626,-48.1066 59.2578,-35.6017 46.0167,-25.8069"/>
<polygon fill="midnightblue" stroke="midnightblue" points="48.0631,-22.9671 37.9421,-19.8339 43.9001,-28.5948 48.0631,-22.9671"/>
</g>
<!-- Node3 -->
<g id="node4" class="node"><title>Node3</title>
<polygon fill="white" stroke="#bfbfbf" points="84.5,-0.5 84.5,-19.5 113.5,-19.5 113.5,-0.5 84.5,-0.5"/>
<text text-anchor="middle" x="99" y="-7.5" font-family="Helvetica,sans-Serif" font-size="10.00">list</text>
</g>
<!-- Node1&#45;&gt;Node3 -->
<g id="edge3" class="edge"><title>Node1&#45;&gt;Node3</title>
<path fill="none" stroke="midnightblue" d="M99,-56.083C99,-49.0059 99,-38.8611 99,-29.9865"/>
<polygon fill="midnightblue" stroke="midnightblue" points="102.5,-29.751 99,-19.7511 95.5001,-29.7511 102.5,-29.751"/>
</g>
</g>
</svg>
