<?xml version="1.0" encoding="UTF-8" standalone="no"?>
<!DOCTYPE svg PUBLIC "-//W3C//DTD SVG 1.1//EN"
 "http://www.w3.org/Graphics/SVG/1.1/DTD/svg11.dtd">
<!-- Generated by graphviz version 2.36.0 (20140111.2315)
 -->
<!-- Title: src/base/piecewise_interval.h Pages: 1 -->
<svg width="676pt" height="208pt"
 viewBox="0.00 0.00 675.83 208.00" xmlns="http://www.w3.org/2000/svg" xmlns:xlink="http://www.w3.org/1999/xlink">
<g id="graph0" class="graph" transform="scale(1 1) rotate(0) translate(4 204)">
<title>src/base/piecewise_interval.h</title>
<polygon fill="white" stroke="none" points="-4,4 -4,-204 671.833,-204 671.833,4 -4,4"/>
<!-- Node0 -->
<g id="node1" class="node"><title>Node0</title>
<polygon fill="#bfbfbf" stroke="black" points="505.5,-169 505.5,-199 606.5,-199 606.5,-169 505.5,-169"/>
<text text-anchor="start" x="513.5" y="-187" font-family="Helvetica,sans-Serif" font-size="10.00">src/base/piecewise</text>
<text text-anchor="middle" x="556" y="-176" font-family="Helvetica,sans-Serif" font-size="10.00">_interval.h</text>
</g>
<!-- Node1 -->
<g id="node2" class="node"><title>Node1</title>
<g id="a_node2"><a xlink:href="interval_8h.html" target="_top" xlink:title="interval.h">
<polygon fill="white" stroke="black" points="207,-112.5 207,-131.5 263,-131.5 263,-112.5 207,-112.5"/>
<text text-anchor="middle" x="235" y="-119.5" font-family="Helvetica,sans-Serif" font-size="10.00">interval.h</text>
</a>
</g>
</g>
<!-- Node0&#45;&gt;Node1 -->
<g id="edge1" class="edge"><title>Node0&#45;&gt;Node1</title>
<path fill="none" stroke="midnightblue" d="M505.491,-173.559C441.033,-161.511 330.971,-140.938 273.113,-130.124"/>
<polygon fill="midnightblue" stroke="midnightblue" points="273.75,-126.682 263.277,-128.285 272.464,-133.563 273.75,-126.682"/>
</g>
<!-- Node9 -->
<g id="node10" class="node"><title>Node9</title>
<g id="a_node10"><a xlink:href="printable_8h.html" target="_top" xlink:title="base/std_ext/printable.h">
<polygon fill="white" stroke="black" points="495.5,-112.5 495.5,-131.5 616.5,-131.5 616.5,-112.5 495.5,-112.5"/>
<text text-anchor="middle" x="556" y="-119.5" font-family="Helvetica,sans-Serif" font-size="10.00">base/std_ext/printable.h</text>
</a>
</g>
</g>
<!-- Node0&#45;&gt;Node9 -->
<g id="edge9" class="edge"><title>Node0&#45;&gt;Node9</title>
<path fill="none" stroke="midnightblue" d="M556,-168.781C556,-160.781 556,-150.689 556,-142.017"/>
<polygon fill="midnightblue" stroke="midnightblue" points="559.5,-141.73 556,-131.731 552.5,-141.731 559.5,-141.73"/>
</g>
<!-- Node11 -->
<g id="node12" class="node"><title>Node11</title>
<polygon fill="white" stroke="#bfbfbf" points="620,-0.5 620,-19.5 664,-19.5 664,-0.5 620,-0.5"/>
<text text-anchor="middle" x="642" y="-7.5" font-family="Helvetica,sans-Serif" font-size="10.00">vector</text>
</g>
<!-- Node0&#45;&gt;Node11 -->
<g id="edge17" class="edge"><title>Node0&#45;&gt;Node11</title>
<path fill="none" stroke="midnightblue" d="M581.127,-168.843C609.065,-151.329 652.091,-118.542 666,-76 671.354,-59.6229 663.204,-41.2237 654.985,-28.1922"/>
<polygon fill="midnightblue" stroke="midnightblue" points="657.732,-26.0108 649.18,-19.7575 651.966,-29.9794 657.732,-26.0108"/>
</g>
<!-- Node2 -->
<g id="node3" class="node"><title>Node2</title>
<g id="a_node3"><a xlink:href="types_8h.html" target="_top" xlink:title="types.h">
<polygon fill="white" stroke="black" points="-0.5,-56.5 -0.5,-75.5 48.5,-75.5 48.5,-56.5 -0.5,-56.5"/>
<text text-anchor="middle" x="24" y="-63.5" font-family="Helvetica,sans-Serif" font-size="10.00">types.h</text>
</a>
</g>
</g>
<!-- Node1&#45;&gt;Node2 -->
<g id="edge2" class="edge"><title>Node1&#45;&gt;Node2</title>
<path fill="none" stroke="midnightblue" d="M206.981,-113.829C168.64,-104.017 99.8724,-86.4176 58.4365,-75.8131"/>
<polygon fill="midnightblue" stroke="midnightblue" points="59.0815,-72.3655 48.526,-73.2768 57.3459,-79.1469 59.0815,-72.3655"/>
</g>
<!-- Node3 -->
<g id="node4" class="node"><title>Node3</title>
<polygon fill="white" stroke="#bfbfbf" points="212,-0.5 212,-19.5 268,-19.5 268,-0.5 212,-0.5"/>
<text text-anchor="middle" x="240" y="-7.5" font-family="Helvetica,sans-Serif" font-size="10.00">algorithm</text>
</g>
<!-- Node1&#45;&gt;Node3 -->
<g id="edge3" class="edge"><title>Node1&#45;&gt;Node3</title>
<path fill="none" stroke="midnightblue" d="M206.838,-118.485C158.07,-113.001 65.8604,-96.9957 96,-56 120.113,-23.2015 168.024,-13.6415 201.949,-11.1922"/>
<polygon fill="midnightblue" stroke="midnightblue" points="202.193,-14.6842 211.987,-10.6425 201.81,-7.69464 202.193,-14.6842"/>
</g>
<!-- Node4 -->
<g id="node5" class="node"><title>Node4</title>
<polygon fill="white" stroke="#bfbfbf" points="105.5,-56.5 105.5,-75.5 164.5,-75.5 164.5,-56.5 105.5,-56.5"/>
<text text-anchor="middle" x="135" y="-63.5" font-family="Helvetica,sans-Serif" font-size="10.00">stdexcept</text>
</g>
<!-- Node1&#45;&gt;Node4 -->
<g id="edge4" class="edge"><title>Node1&#45;&gt;Node4</title>
<path fill="none" stroke="midnightblue" d="M218.933,-112.324C203.042,-103.743 178.493,-90.486 160.042,-80.5224"/>
<polygon fill="midnightblue" stroke="midnightblue" points="161.489,-77.3264 151.027,-75.6545 158.163,-83.4857 161.489,-77.3264"/>
</g>
<!-- Node5 -->
<g id="node6" class="node"><title>Node5</title>
<polygon fill="white" stroke="#bfbfbf" points="183,-56.5 183,-75.5 223,-75.5 223,-56.5 183,-56.5"/>
<text text-anchor="middle" x="203" y="-63.5" font-family="Helvetica,sans-Serif" font-size="10.00">limits</text>
</g>
<!-- Node1&#45;&gt;Node5 -->
<g id="edge5" class="edge"><title>Node1&#45;&gt;Node5</title>
<path fill="none" stroke="midnightblue" d="M229.716,-112.083C225.289,-104.613 218.837,-93.7244 213.382,-84.5199"/>
<polygon fill="midnightblue" stroke="midnightblue" points="216.295,-82.5697 208.186,-75.7511 210.273,-86.1383 216.295,-82.5697"/>
</g>
<!-- Node6 -->
<g id="node7" class="node"><title>Node6</title>
<polygon fill="white" stroke="#bfbfbf" points="241.5,-56.5 241.5,-75.5 290.5,-75.5 290.5,-56.5 241.5,-56.5"/>
<text text-anchor="middle" x="266" y="-63.5" font-family="Helvetica,sans-Serif" font-size="10.00">istream</text>
</g>
<!-- Node1&#45;&gt;Node6 -->
<g id="edge6" class="edge"><title>Node1&#45;&gt;Node6</title>
<path fill="none" stroke="midnightblue" d="M240.119,-112.083C244.408,-104.613 250.658,-93.7244 255.942,-84.5199"/>
<polygon fill="midnightblue" stroke="midnightblue" points="259.033,-86.1662 260.976,-75.7511 252.962,-82.6811 259.033,-86.1662"/>
</g>
<!-- Node7 -->
<g id="node8" class="node"><title>Node7</title>
<polygon fill="white" stroke="#bfbfbf" points="309,-56.5 309,-75.5 361,-75.5 361,-56.5 309,-56.5"/>
<text text-anchor="middle" x="335" y="-63.5" font-family="Helvetica,sans-Serif" font-size="10.00">sstream</text>
</g>
<!-- Node1&#45;&gt;Node7 -->
<g id="edge7" class="edge"><title>Node1&#45;&gt;Node7</title>
<path fill="none" stroke="midnightblue" d="M251.067,-112.324C266.958,-103.743 291.507,-90.486 309.958,-80.5224"/>
<polygon fill="midnightblue" stroke="midnightblue" points="311.837,-83.4857 318.973,-75.6545 308.511,-77.3264 311.837,-83.4857"/>
</g>
<!-- Node8 -->
<g id="node9" class="node"><title>Node8</title>
<polygon fill="white" stroke="#bfbfbf" points="379,-56.5 379,-75.5 423,-75.5 423,-56.5 379,-56.5"/>
<text text-anchor="middle" x="401" y="-63.5" font-family="Helvetica,sans-Serif" font-size="10.00">cmath</text>
</g>
<!-- Node1&#45;&gt;Node8 -->
<g id="edge8" class="edge"><title>Node1&#45;&gt;Node8</title>
<path fill="none" stroke="midnightblue" d="M261.303,-112.444C290.588,-102.917 337.911,-87.5228 369.238,-77.3321"/>
<polygon fill="midnightblue" stroke="midnightblue" points="370.377,-80.6422 378.804,-74.2203 368.212,-73.9855 370.377,-80.6422"/>
</g>
<!-- Node10 -->
<g id="node11" class="node"><title>Node10</title>
<g id="a_node11"><a xlink:href="container_8h.html" target="_top" xlink:title="container.h">
<polygon fill="white" stroke="black" points="441.5,-56.5 441.5,-75.5 506.5,-75.5 506.5,-56.5 441.5,-56.5"/>
<text text-anchor="middle" x="474" y="-63.5" font-family="Helvetica,sans-Serif" font-size="10.00">container.h</text>
</a>
</g>
</g>
<!-- Node9&#45;&gt;Node10 -->
<g id="edge10" class="edge"><title>Node9&#45;&gt;Node10</title>
<path fill="none" stroke="midnightblue" d="M542.825,-112.324C530.153,-103.979 510.767,-91.2122 495.794,-81.3524"/>
<polygon fill="midnightblue" stroke="midnightblue" points="497.419,-78.2313 487.142,-75.6545 493.569,-84.0776 497.419,-78.2313"/>
</g>
<!-- Node14 -->
<g id="node15" class="node"><title>Node14</title>
<polygon fill="white" stroke="#bfbfbf" points="525,-56.5 525,-75.5 587,-75.5 587,-56.5 525,-56.5"/>
<text text-anchor="middle" x="556" y="-63.5" font-family="Helvetica,sans-Serif" font-size="10.00">type_traits</text>
</g>
<!-- Node9&#45;&gt;Node14 -->
<g id="edge15" class="edge"><title>Node9&#45;&gt;Node14</title>
<path fill="none" stroke="midnightblue" d="M556,-112.083C556,-105.006 556,-94.8611 556,-85.9865"/>
<polygon fill="midnightblue" stroke="midnightblue" points="559.5,-85.751 556,-75.7511 552.5,-85.7511 559.5,-85.751"/>
</g>
<!-- Node15 -->
<g id="node16" class="node"><title>Node15</title>
<polygon fill="white" stroke="#bfbfbf" points="605,-56.5 605,-75.5 657,-75.5 657,-56.5 605,-56.5"/>
<text text-anchor="middle" x="631" y="-63.5" font-family="Helvetica,sans-Serif" font-size="10.00">ostream</text>
</g>
<!-- Node9&#45;&gt;Node15 -->
<g id="edge16" class="edge"><title>Node9&#45;&gt;Node15</title>
<path fill="none" stroke="midnightblue" d="M568.05,-112.324C579.463,-104.107 596.831,-91.6017 610.435,-81.8069"/>
<polygon fill="midnightblue" stroke="midnightblue" points="612.66,-84.5174 618.731,-75.8339 608.57,-78.8366 612.66,-84.5174"/>
</g>
<!-- Node10&#45;&gt;Node3 -->
<g id="edge12" class="edge"><title>Node10&#45;&gt;Node3</title>
<path fill="none" stroke="midnightblue" d="M441.463,-57.4915C398.616,-47.6037 323.409,-30.2481 277.998,-19.7688"/>
<polygon fill="midnightblue" stroke="midnightblue" points="278.764,-16.3536 268.233,-17.5153 277.19,-23.1744 278.764,-16.3536"/>
</g>
<!-- Node10&#45;&gt;Node11 -->
<g id="edge11" class="edge"><title>Node10&#45;&gt;Node11</title>
<path fill="none" stroke="midnightblue" d="M500.62,-56.4435C530.341,-46.8902 578.421,-31.436 610.123,-21.2461"/>
<polygon fill="midnightblue" stroke="midnightblue" points="611.347,-24.5291 619.797,-18.1368 609.205,-17.8649 611.347,-24.5291"/>
</g>
<!-- Node12 -->
<g id="node13" class="node"><title>Node12</title>
<polygon fill="white" stroke="#bfbfbf" points="416.5,-0.5 416.5,-19.5 467.5,-19.5 467.5,-0.5 416.5,-0.5"/>
<text text-anchor="middle" x="442" y="-7.5" font-family="Helvetica,sans-Serif" font-size="10.00">numeric</text>
</g>
<!-- Node10&#45;&gt;Node12 -->
<g id="edge13" class="edge"><title>Node10&#45;&gt;Node12</title>
<path fill="none" stroke="midnightblue" d="M468.716,-56.083C464.289,-48.6127 457.837,-37.7244 452.382,-28.5199"/>
<polygon fill="midnightblue" stroke="midnightblue" points="455.295,-26.5697 447.186,-19.7511 449.273,-30.1383 455.295,-26.5697"/>
</g>
<!-- Node13 -->
<g id="node14" class="node"><title>Node13</title>
<polygon fill="white" stroke="#bfbfbf" points="485.5,-0.5 485.5,-19.5 526.5,-19.5 526.5,-0.5 485.5,-0.5"/>
<text text-anchor="middle" x="506" y="-7.5" font-family="Helvetica,sans-Serif" font-size="10.00">string</text>
</g>
<!-- Node10&#45;&gt;Node13 -->
<g id="edge14" class="edge"><title>Node10&#45;&gt;Node13</title>
<path fill="none" stroke="midnightblue" d="M479.284,-56.083C483.711,-48.6127 490.163,-37.7244 495.618,-28.5199"/>
<polygon fill="midnightblue" stroke="midnightblue" points="498.727,-30.1383 500.814,-19.7511 492.705,-26.5697 498.727,-30.1383"/>
</g>
</g>
</svg>
