<?xml version="1.0" encoding="UTF-8" standalone="no"?>
<!DOCTYPE svg PUBLIC "-//W3C//DTD SVG 1.1//EN"
 "http://www.w3.org/Graphics/SVG/1.1/DTD/svg11.dtd">
<!-- Generated by graphviz version 2.36.0 (20140111.2315)
 -->
<!-- Title: progs/detail/tools.h Pages: 1 -->
<svg width="742pt" height="84pt"
 viewBox="0.00 0.00 742.00 84.00" xmlns="http://www.w3.org/2000/svg" xmlns:xlink="http://www.w3.org/1999/xlink">
<g id="graph0" class="graph" transform="scale(1 1) rotate(0) translate(4 80)">
<title>progs/detail/tools.h</title>
<polygon fill="white" stroke="none" points="-4,4 -4,-80 738,-80 738,4 -4,4"/>
<!-- Node18 -->
<g id="node1" class="node"><title>Node18</title>
<polygon fill="#bfbfbf" stroke="black" points="297.5,-56.5 297.5,-75.5 396.5,-75.5 396.5,-56.5 297.5,-56.5"/>
<text text-anchor="middle" x="347" y="-63.5" font-family="Helvetica,sans-Serif" font-size="10.00">progs/detail/tools.h</text>
</g>
<!-- Node19 -->
<g id="node2" class="node"><title>Node19</title>
<g id="a_node2"><a xlink:href="_ant-calib-dump_8cc.html" target="_top" xlink:title="progs/Ant&#45;calib&#45;dump.cc">
<polygon fill="white" stroke="black" points="0,-0.5 0,-19.5 122,-19.5 122,-0.5 0,-0.5"/>
<text text-anchor="middle" x="61" y="-7.5" font-family="Helvetica,sans-Serif" font-size="10.00">progs/Ant&#45;calib&#45;dump.cc</text>
</a>
</g>
</g>
<!-- Node18&#45;&gt;Node19 -->
<g id="edge1" class="edge"><title>Node18&#45;&gt;Node19</title>
<path fill="none" stroke="midnightblue" d="M291.586,-54.5371C237.534,-44.3316 156.329,-28.9992 106.106,-19.5164"/>
<polygon fill="midnightblue" stroke="midnightblue" points="291.207,-58.0274 301.682,-56.4435 292.505,-51.1489 291.207,-58.0274"/>
</g>
<!-- Node20 -->
<g id="node3" class="node"><title>Node20</title>
<g id="a_node3"><a xlink:href="_ant-calib-smooth_8cc.html" target="_top" xlink:title="progs/Ant&#45;calib&#45;smooth.cc">
<polygon fill="white" stroke="black" points="140.5,-0.5 140.5,-19.5 271.5,-19.5 271.5,-0.5 140.5,-0.5"/>
<text text-anchor="middle" x="206" y="-7.5" font-family="Helvetica,sans-Serif" font-size="10.00">progs/Ant&#45;calib&#45;smooth.cc</text>
</a>
</g>
</g>
<!-- Node18&#45;&gt;Node20 -->
<g id="edge2" class="edge"><title>Node18&#45;&gt;Node20</title>
<path fill="none" stroke="midnightblue" d="M315.071,-52.772C288.586,-42.6287 251.608,-28.4669 228.237,-19.5164"/>
<polygon fill="midnightblue" stroke="midnightblue" points="314.068,-56.1355 324.658,-56.4435 316.571,-49.5985 314.068,-56.1355"/>
</g>
<!-- Node21 -->
<g id="node4" class="node"><title>Node21</title>
<g id="a_node4"><a xlink:href="_ant-rawdump_8cc.html" target="_top" xlink:title="progs/Ant&#45;rawdump.cc">
<polygon fill="white" stroke="black" points="289.5,-0.5 289.5,-19.5 404.5,-19.5 404.5,-0.5 289.5,-0.5"/>
<text text-anchor="middle" x="347" y="-7.5" font-family="Helvetica,sans-Serif" font-size="10.00">progs/Ant&#45;rawdump.cc</text>
</a>
</g>
</g>
<!-- Node18&#45;&gt;Node21 -->
<g id="edge3" class="edge"><title>Node18&#45;&gt;Node21</title>
<path fill="none" stroke="midnightblue" d="M347,-45.8045C347,-36.9102 347,-26.7798 347,-19.7511"/>
<polygon fill="midnightblue" stroke="midnightblue" points="343.5,-46.083 347,-56.083 350.5,-46.083 343.5,-46.083"/>
</g>
<!-- Node22 -->
<g id="node5" class="node"><title>Node22</title>
<g id="a_node5"><a xlink:href="_ant-smooth_tagg_eff_8cc.html" target="_top" xlink:title="progs/Ant&#45;smoothTaggEff.cc">
<polygon fill="white" stroke="black" points="423,-0.5 423,-19.5 565,-19.5 565,-0.5 423,-0.5"/>
<text text-anchor="middle" x="494" y="-7.5" font-family="Helvetica,sans-Serif" font-size="10.00">progs/Ant&#45;smoothTaggEff.cc</text>
</a>
</g>
</g>
<!-- Node18&#45;&gt;Node22 -->
<g id="edge4" class="edge"><title>Node18&#45;&gt;Node22</title>
<path fill="none" stroke="midnightblue" d="M379.923,-52.9058C407.56,-42.7536 446.344,-28.5063 470.816,-19.5164"/>
<polygon fill="midnightblue" stroke="midnightblue" points="378.472,-49.71 370.293,-56.4435 380.886,-56.2806 378.472,-49.71"/>
</g>
<!-- Node23 -->
<g id="node6" class="node"><title>Node23</title>
<g id="a_node6"><a xlink:href="tagg_eff_classes_8cc.html" target="_top" xlink:title="progs/detail/taggEffClasses.cc">
<polygon fill="white" stroke="black" points="583.5,-0.5 583.5,-19.5 734.5,-19.5 734.5,-0.5 583.5,-0.5"/>
<text text-anchor="middle" x="659" y="-7.5" font-family="Helvetica,sans-Serif" font-size="10.00">progs/detail/taggEffClasses.cc</text>
</a>
</g>
</g>
<!-- Node18&#45;&gt;Node23 -->
<g id="edge5" class="edge"><title>Node18&#45;&gt;Node23</title>
<path fill="none" stroke="midnightblue" d="M406.352,-54.7275C465.311,-44.523 554.663,-29.0583 609.794,-19.5164"/>
<polygon fill="midnightblue" stroke="midnightblue" points="405.694,-51.2893 396.437,-56.4435 406.888,-58.1868 405.694,-51.2893"/>
</g>
</g>
</svg>
