<?xml version="1.0" encoding="UTF-8" standalone="no"?>
<!DOCTYPE svg PUBLIC "-//W3C//DTD SVG 1.1//EN"
 "http://www.w3.org/Graphics/SVG/1.1/DTD/svg11.dtd">
<!-- Generated by graphviz version 2.36.0 (20140111.2315)
 -->
<!-- Title: src/root&#45;addons/analysis_codes/Math.cc Pages: 1 -->
<svg width="947pt" height="332pt"
 viewBox="0.00 0.00 947.00 332.00" xmlns="http://www.w3.org/2000/svg" xmlns:xlink="http://www.w3.org/1999/xlink">
<g id="graph0" class="graph" transform="scale(1 1) rotate(0) translate(4 328)">
<title>src/root&#45;addons/analysis_codes/Math.cc</title>
<polygon fill="white" stroke="none" points="-4,4 -4,-328 943,-328 943,4 -4,4"/>
<!-- Node0 -->
<g id="node1" class="node"><title>Node0</title>
<polygon fill="#bfbfbf" stroke="black" points="699.5,-293 699.5,-323 822.5,-323 822.5,-293 699.5,-293"/>
<text text-anchor="start" x="707.5" y="-311" font-family="Helvetica,sans-Serif" font-size="10.00">src/root&#45;addons/analysis</text>
<text text-anchor="middle" x="761" y="-300" font-family="Helvetica,sans-Serif" font-size="10.00">_codes/Math.cc</text>
</g>
<!-- Node1 -->
<g id="node2" class="node"><title>Node1</title>
<g id="a_node2"><a xlink:href="root-addons_2analysis__codes_2math_8h.html" target="_top" xlink:title="Math.h">
<polygon fill="white" stroke="black" points="580.5,-230.5 580.5,-249.5 627.5,-249.5 627.5,-230.5 580.5,-230.5"/>
<text text-anchor="middle" x="604" y="-237.5" font-family="Helvetica,sans-Serif" font-size="10.00">Math.h</text>
</a>
</g>
</g>
<!-- Node0&#45;&gt;Node1 -->
<g id="edge1" class="edge"><title>Node0&#45;&gt;Node1</title>
<path fill="none" stroke="midnightblue" d="M725.237,-292.97C700.129,-282.984 665.842,-269.072 636,-256 634.416,-255.306 632.793,-254.583 631.158,-253.846"/>
<polygon fill="midnightblue" stroke="midnightblue" points="632.414,-250.571 621.867,-249.571 629.488,-256.931 632.414,-250.571"/>
</g>
<!-- Node25 -->
<g id="node26" class="node"><title>Node25</title>
<g id="a_node26"><a xlink:href="_asym_gaus_8h.html" target="_top" xlink:title="base/math_functions\l/AsymGaus.h">
<polygon fill="white" stroke="black" points="645.5,-225 645.5,-255 752.5,-255 752.5,-225 645.5,-225"/>
<text text-anchor="start" x="653.5" y="-243" font-family="Helvetica,sans-Serif" font-size="10.00">base/math_functions</text>
<text text-anchor="middle" x="699" y="-232" font-family="Helvetica,sans-Serif" font-size="10.00">/AsymGaus.h</text>
</a>
</g>
</g>
<!-- Node0&#45;&gt;Node25 -->
<g id="edge36" class="edge"><title>Node0&#45;&gt;Node25</title>
<path fill="none" stroke="midnightblue" d="M747.547,-292.679C739.341,-283.944 728.689,-272.605 719.455,-262.775"/>
<polygon fill="midnightblue" stroke="midnightblue" points="721.825,-260.185 712.427,-255.293 716.723,-264.978 721.825,-260.185"/>
</g>
<!-- Node26 -->
<g id="node27" class="node"><title>Node26</title>
<g id="a_node27"><a xlink:href="_crystal_ball_8h.html" target="_top" xlink:title="base/math_functions\l/CrystalBall.h">
<polygon fill="white" stroke="black" points="770.5,-225 770.5,-255 877.5,-255 877.5,-225 770.5,-225"/>
<text text-anchor="start" x="778.5" y="-243" font-family="Helvetica,sans-Serif" font-size="10.00">base/math_functions</text>
<text text-anchor="middle" x="824" y="-232" font-family="Helvetica,sans-Serif" font-size="10.00">/CrystalBall.h</text>
</a>
</g>
</g>
<!-- Node0&#45;&gt;Node26 -->
<g id="edge37" class="edge"><title>Node0&#45;&gt;Node26</title>
<path fill="none" stroke="midnightblue" d="M774.67,-292.679C783.008,-283.944 793.832,-272.605 803.215,-262.775"/>
<polygon fill="midnightblue" stroke="midnightblue" points="805.984,-264.943 810.357,-255.293 800.92,-260.11 805.984,-264.943"/>
</g>
<!-- Node27 -->
<g id="node28" class="node"><title>Node27</title>
<polygon fill="white" stroke="#bfbfbf" points="895,-230.5 895,-249.5 939,-249.5 939,-230.5 895,-230.5"/>
<text text-anchor="middle" x="917" y="-237.5" font-family="Helvetica,sans-Serif" font-size="10.00">TH1.h</text>
</g>
<!-- Node0&#45;&gt;Node27 -->
<g id="edge38" class="edge"><title>Node0&#45;&gt;Node27</title>
<path fill="none" stroke="midnightblue" d="M797.086,-292.978C822.192,-283.052 856.347,-269.208 886,-256 887.4,-255.377 888.83,-254.728 890.27,-254.065"/>
<polygon fill="midnightblue" stroke="midnightblue" points="892.164,-257.041 899.711,-249.604 889.174,-250.711 892.164,-257.041"/>
</g>
<!-- Node2 -->
<g id="node3" class="node"><title>Node2</title>
<polygon fill="white" stroke="#bfbfbf" points="605.5,-112.5 605.5,-131.5 634.5,-131.5 634.5,-112.5 605.5,-112.5"/>
<text text-anchor="middle" x="620" y="-119.5" font-family="Helvetica,sans-Serif" font-size="10.00">list</text>
</g>
<!-- Node1&#45;&gt;Node2 -->
<g id="edge2" class="edge"><title>Node1&#45;&gt;Node2</title>
<path fill="none" stroke="midnightblue" d="M605.203,-230.281C607.787,-211.547 613.918,-167.098 617.423,-141.682"/>
<polygon fill="midnightblue" stroke="midnightblue" points="620.928,-141.889 618.827,-131.505 613.993,-140.933 620.928,-141.889"/>
</g>
<!-- Node3 -->
<g id="node4" class="node"><title>Node3</title>
<g id="a_node4"><a xlink:href="interval_8h.html" target="_top" xlink:title="base/interval.h">
<polygon fill="white" stroke="black" points="177,-56.5 177,-75.5 257,-75.5 257,-56.5 177,-56.5"/>
<text text-anchor="middle" x="217" y="-63.5" font-family="Helvetica,sans-Serif" font-size="10.00">base/interval.h</text>
</a>
</g>
</g>
<!-- Node1&#45;&gt;Node3 -->
<g id="edge3" class="edge"><title>Node1&#45;&gt;Node3</title>
<path fill="none" stroke="midnightblue" d="M580.436,-236.976C521.297,-230.849 364.047,-207.979 262,-132 245.363,-119.613 232.686,-99.1988 225.092,-84.5517"/>
<polygon fill="midnightblue" stroke="midnightblue" points="228.202,-82.9439 220.661,-75.5023 221.916,-86.0226 228.202,-82.9439"/>
</g>
<!-- Node11 -->
<g id="node12" class="node"><title>Node11</title>
<g id="a_node12"><a xlink:href="piecewise__interval_8h.html" target="_top" xlink:title="base/piecewise_interval.h">
<polygon fill="white" stroke="black" points="443.5,-168.5 443.5,-187.5 572.5,-187.5 572.5,-168.5 443.5,-168.5"/>
<text text-anchor="middle" x="508" y="-175.5" font-family="Helvetica,sans-Serif" font-size="10.00">base/piecewise_interval.h</text>
</a>
</g>
</g>
<!-- Node1&#45;&gt;Node11 -->
<g id="edge11" class="edge"><title>Node1&#45;&gt;Node11</title>
<path fill="none" stroke="midnightblue" d="M590.246,-230.403C574.634,-220.646 548.937,-204.585 530.417,-193.011"/>
<polygon fill="midnightblue" stroke="midnightblue" points="532.064,-189.913 521.729,-187.581 528.354,-195.849 532.064,-189.913"/>
</g>
<!-- Node19 -->
<g id="node20" class="node"><title>Node19</title>
<g id="a_node20"><a xlink:href="_root_draw_8h.html" target="_top" xlink:title="analysis/plot/RootDraw.h">
<polygon fill="white" stroke="black" points="632.5,-168.5 632.5,-187.5 759.5,-187.5 759.5,-168.5 632.5,-168.5"/>
<text text-anchor="middle" x="696" y="-175.5" font-family="Helvetica,sans-Serif" font-size="10.00">analysis/plot/RootDraw.h</text>
</a>
</g>
</g>
<!-- Node1&#45;&gt;Node19 -->
<g id="edge22" class="edge"><title>Node1&#45;&gt;Node19</title>
<path fill="none" stroke="midnightblue" d="M617.181,-230.403C632.074,-220.691 656.544,-204.732 674.273,-193.17"/>
<polygon fill="midnightblue" stroke="midnightblue" points="676.379,-195.975 682.843,-187.581 672.555,-190.112 676.379,-195.975"/>
</g>
<!-- Node24 -->
<g id="node25" class="node"><title>Node24</title>
<polygon fill="white" stroke="#bfbfbf" points="778,-168.5 778,-187.5 820,-187.5 820,-168.5 778,-168.5"/>
<text text-anchor="middle" x="799" y="-175.5" font-family="Helvetica,sans-Serif" font-size="10.00">TF1.h</text>
</g>
<!-- Node1&#45;&gt;Node24 -->
<g id="edge35" class="edge"><title>Node1&#45;&gt;Node24</title>
<path fill="none" stroke="midnightblue" d="M621.04,-230.35C625.811,-228.111 631.047,-225.821 636,-224 693.075,-203.018 709.466,-204.478 768,-188 768.098,-187.972 768.196,-187.945 768.294,-187.917"/>
<polygon fill="midnightblue" stroke="midnightblue" points="769.012,-191.352 777.668,-185.243 767.091,-184.621 769.012,-191.352"/>
</g>
<!-- Node4 -->
<g id="node5" class="node"><title>Node4</title>
<g id="a_node5"><a xlink:href="types_8h.html" target="_top" xlink:title="types.h">
<polygon fill="white" stroke="black" points="132.5,-0.5 132.5,-19.5 181.5,-19.5 181.5,-0.5 132.5,-0.5"/>
<text text-anchor="middle" x="157" y="-7.5" font-family="Helvetica,sans-Serif" font-size="10.00">types.h</text>
</a>
</g>
</g>
<!-- Node3&#45;&gt;Node4 -->
<g id="edge4" class="edge"><title>Node3&#45;&gt;Node4</title>
<path fill="none" stroke="midnightblue" d="M207.36,-56.324C198.49,-48.3414 185.125,-36.3128 174.392,-26.6529"/>
<polygon fill="midnightblue" stroke="midnightblue" points="176.59,-23.922 166.815,-19.8339 171.907,-29.1251 176.59,-23.922"/>
</g>
<!-- Node5 -->
<g id="node6" class="node"><title>Node5</title>
<polygon fill="white" stroke="#bfbfbf" points="435,-0.5 435,-19.5 491,-19.5 491,-0.5 435,-0.5"/>
<text text-anchor="middle" x="463" y="-7.5" font-family="Helvetica,sans-Serif" font-size="10.00">algorithm</text>
</g>
<!-- Node3&#45;&gt;Node5 -->
<g id="edge5" class="edge"><title>Node3&#45;&gt;Node5</title>
<path fill="none" stroke="midnightblue" d="M255.979,-56.4435C302.33,-46.269 379.173,-29.401 425.062,-19.3279"/>
<polygon fill="midnightblue" stroke="midnightblue" points="425.899,-22.7276 434.915,-17.1649 424.398,-15.8904 425.899,-22.7276"/>
</g>
<!-- Node6 -->
<g id="node7" class="node"><title>Node6</title>
<polygon fill="white" stroke="#bfbfbf" points="325.5,-0.5 325.5,-19.5 384.5,-19.5 384.5,-0.5 325.5,-0.5"/>
<text text-anchor="middle" x="355" y="-7.5" font-family="Helvetica,sans-Serif" font-size="10.00">stdexcept</text>
</g>
<!-- Node3&#45;&gt;Node6 -->
<g id="edge6" class="edge"><title>Node3&#45;&gt;Node6</title>
<path fill="none" stroke="midnightblue" d="M238.867,-56.4435C261.779,-47.4776 297.975,-33.314 323.866,-23.1827"/>
<polygon fill="midnightblue" stroke="midnightblue" points="325.199,-26.4198 333.236,-19.5164 322.648,-19.9011 325.199,-26.4198"/>
</g>
<!-- Node7 -->
<g id="node8" class="node"><title>Node7</title>
<polygon fill="white" stroke="#bfbfbf" points="200,-0.5 200,-19.5 240,-19.5 240,-0.5 200,-0.5"/>
<text text-anchor="middle" x="220" y="-7.5" font-family="Helvetica,sans-Serif" font-size="10.00">limits</text>
</g>
<!-- Node3&#45;&gt;Node7 -->
<g id="edge7" class="edge"><title>Node3&#45;&gt;Node7</title>
<path fill="none" stroke="midnightblue" d="M217.495,-56.083C217.889,-49.0059 218.452,-38.8611 218.945,-29.9865"/>
<polygon fill="midnightblue" stroke="midnightblue" points="222.454,-29.9299 219.514,-19.7511 215.464,-29.5415 222.454,-29.9299"/>
</g>
<!-- Node8 -->
<g id="node9" class="node"><title>Node8</title>
<polygon fill="white" stroke="#bfbfbf" points="258.5,-0.5 258.5,-19.5 307.5,-19.5 307.5,-0.5 258.5,-0.5"/>
<text text-anchor="middle" x="283" y="-7.5" font-family="Helvetica,sans-Serif" font-size="10.00">istream</text>
</g>
<!-- Node3&#45;&gt;Node8 -->
<g id="edge8" class="edge"><title>Node3&#45;&gt;Node8</title>
<path fill="none" stroke="midnightblue" d="M227.604,-56.324C237.456,-48.2631 252.351,-36.0765 264.215,-26.3695"/>
<polygon fill="midnightblue" stroke="midnightblue" points="266.68,-28.8752 272.203,-19.8339 262.247,-23.4575 266.68,-28.8752"/>
</g>
<!-- Node9 -->
<g id="node10" class="node"><title>Node9</title>
<polygon fill="white" stroke="#bfbfbf" points="0,-0.5 0,-19.5 52,-19.5 52,-0.5 0,-0.5"/>
<text text-anchor="middle" x="26" y="-7.5" font-family="Helvetica,sans-Serif" font-size="10.00">sstream</text>
</g>
<!-- Node3&#45;&gt;Node9 -->
<g id="edge9" class="edge"><title>Node3&#45;&gt;Node9</title>
<path fill="none" stroke="midnightblue" d="M186.735,-56.4435C152.795,-46.8477 97.796,-31.2984 61.7608,-21.1104"/>
<polygon fill="midnightblue" stroke="midnightblue" points="62.7081,-17.7411 52.1331,-18.3884 60.8037,-24.4771 62.7081,-17.7411"/>
</g>
<!-- Node10 -->
<g id="node11" class="node"><title>Node10</title>
<polygon fill="white" stroke="#bfbfbf" points="70,-0.5 70,-19.5 114,-19.5 114,-0.5 70,-0.5"/>
<text text-anchor="middle" x="92" y="-7.5" font-family="Helvetica,sans-Serif" font-size="10.00">cmath</text>
</g>
<!-- Node3&#45;&gt;Node10 -->
<g id="edge10" class="edge"><title>Node3&#45;&gt;Node10</title>
<path fill="none" stroke="midnightblue" d="M197.193,-56.4435C176.713,-47.5961 144.517,-33.6875 121.135,-23.5865"/>
<polygon fill="midnightblue" stroke="midnightblue" points="122.282,-20.2692 111.714,-19.5164 119.506,-26.6953 122.282,-20.2692"/>
</g>
<!-- Node11&#45;&gt;Node3 -->
<g id="edge12" class="edge"><title>Node11&#45;&gt;Node3</title>
<path fill="none" stroke="midnightblue" d="M443.143,-171.161C400.047,-165.393 343.121,-154.064 297,-132 271.665,-119.88 247.328,-98.192 232.286,-83.222"/>
<polygon fill="midnightblue" stroke="midnightblue" points="234.43,-80.4079 224.938,-75.7 229.422,-85.2992 234.43,-80.4079"/>
</g>
<!-- Node12 -->
<g id="node13" class="node"><title>Node12</title>
<g id="a_node13"><a xlink:href="printable_8h.html" target="_top" xlink:title="base/std_ext/printable.h">
<polygon fill="white" stroke="black" points="427.5,-112.5 427.5,-131.5 548.5,-131.5 548.5,-112.5 427.5,-112.5"/>
<text text-anchor="middle" x="488" y="-119.5" font-family="Helvetica,sans-Serif" font-size="10.00">base/std_ext/printable.h</text>
</a>
</g>
</g>
<!-- Node11&#45;&gt;Node12 -->
<g id="edge13" class="edge"><title>Node11&#45;&gt;Node12</title>
<path fill="none" stroke="midnightblue" d="M504.697,-168.083C502.018,-160.849 498.151,-150.409 494.814,-141.397"/>
<polygon fill="midnightblue" stroke="midnightblue" points="497.996,-139.913 491.241,-131.751 491.432,-142.344 497.996,-139.913"/>
</g>
<!-- Node14 -->
<g id="node15" class="node"><title>Node14</title>
<polygon fill="white" stroke="#bfbfbf" points="611,-0.5 611,-19.5 655,-19.5 655,-0.5 611,-0.5"/>
<text text-anchor="middle" x="633" y="-7.5" font-family="Helvetica,sans-Serif" font-size="10.00">vector</text>
</g>
<!-- Node11&#45;&gt;Node14 -->
<g id="edge21" class="edge"><title>Node11&#45;&gt;Node14</title>
<path fill="none" stroke="midnightblue" d="M520.745,-168.283C542.862,-152.488 588.342,-116.955 613,-76 621.659,-61.6178 626.869,-43.16 629.79,-29.5907"/>
<polygon fill="midnightblue" stroke="midnightblue" points="633.272,-30.0213 631.731,-19.539 626.399,-28.6942 633.272,-30.0213"/>
</g>
<!-- Node13 -->
<g id="node14" class="node"><title>Node13</title>
<g id="a_node14"><a xlink:href="container_8h.html" target="_top" xlink:title="container.h">
<polygon fill="white" stroke="black" points="539.5,-56.5 539.5,-75.5 604.5,-75.5 604.5,-56.5 539.5,-56.5"/>
<text text-anchor="middle" x="572" y="-63.5" font-family="Helvetica,sans-Serif" font-size="10.00">container.h</text>
</a>
</g>
</g>
<!-- Node12&#45;&gt;Node13 -->
<g id="edge14" class="edge"><title>Node12&#45;&gt;Node13</title>
<path fill="none" stroke="midnightblue" d="M501.496,-112.324C514.6,-103.9 534.712,-90.9709 550.107,-81.0741"/>
<polygon fill="midnightblue" stroke="midnightblue" points="552.018,-84.0063 558.537,-75.6545 548.233,-78.118 552.018,-84.0063"/>
</g>
<!-- Node17 -->
<g id="node18" class="node"><title>Node17</title>
<polygon fill="white" stroke="#bfbfbf" points="459,-56.5 459,-75.5 521,-75.5 521,-56.5 459,-56.5"/>
<text text-anchor="middle" x="490" y="-63.5" font-family="Helvetica,sans-Serif" font-size="10.00">type_traits</text>
</g>
<!-- Node12&#45;&gt;Node17 -->
<g id="edge19" class="edge"><title>Node12&#45;&gt;Node17</title>
<path fill="none" stroke="midnightblue" d="M488.33,-112.083C488.592,-105.006 488.968,-94.8611 489.297,-85.9865"/>
<polygon fill="midnightblue" stroke="midnightblue" points="492.803,-85.8738 489.676,-75.7511 485.808,-85.6147 492.803,-85.8738"/>
</g>
<!-- Node18 -->
<g id="node19" class="node"><title>Node18</title>
<polygon fill="white" stroke="#bfbfbf" points="389,-56.5 389,-75.5 441,-75.5 441,-56.5 389,-56.5"/>
<text text-anchor="middle" x="415" y="-63.5" font-family="Helvetica,sans-Serif" font-size="10.00">ostream</text>
</g>
<!-- Node12&#45;&gt;Node18 -->
<g id="edge20" class="edge"><title>Node12&#45;&gt;Node18</title>
<path fill="none" stroke="midnightblue" d="M476.271,-112.324C465.163,-104.107 448.258,-91.6017 435.017,-81.8069"/>
<polygon fill="midnightblue" stroke="midnightblue" points="437.063,-78.9671 426.942,-75.8339 432.9,-84.5948 437.063,-78.9671"/>
</g>
<!-- Node13&#45;&gt;Node5 -->
<g id="edge16" class="edge"><title>Node13&#45;&gt;Node5</title>
<path fill="none" stroke="midnightblue" d="M554.487,-56.324C536.928,-47.6247 509.669,-34.1202 489.469,-24.113"/>
<polygon fill="midnightblue" stroke="midnightblue" points="490.984,-20.9575 480.469,-19.6545 487.876,-27.23 490.984,-20.9575"/>
</g>
<!-- Node13&#45;&gt;Node14 -->
<g id="edge15" class="edge"><title>Node13&#45;&gt;Node14</title>
<path fill="none" stroke="midnightblue" d="M581.801,-56.324C590.818,-48.3414 604.406,-36.3128 615.318,-26.6529"/>
<polygon fill="midnightblue" stroke="midnightblue" points="617.853,-29.083 623.021,-19.8339 613.213,-23.8416 617.853,-29.083"/>
</g>
<!-- Node15 -->
<g id="node16" class="node"><title>Node15</title>
<polygon fill="white" stroke="#bfbfbf" points="541.5,-0.5 541.5,-19.5 592.5,-19.5 592.5,-0.5 541.5,-0.5"/>
<text text-anchor="middle" x="567" y="-7.5" font-family="Helvetica,sans-Serif" font-size="10.00">numeric</text>
</g>
<!-- Node13&#45;&gt;Node15 -->
<g id="edge17" class="edge"><title>Node13&#45;&gt;Node15</title>
<path fill="none" stroke="midnightblue" d="M571.174,-56.083C570.519,-49.0059 569.58,-38.8611 568.758,-29.9865"/>
<polygon fill="midnightblue" stroke="midnightblue" points="572.217,-29.3858 567.81,-19.7511 565.247,-30.0312 572.217,-29.3858"/>
</g>
<!-- Node16 -->
<g id="node17" class="node"><title>Node16</title>
<polygon fill="white" stroke="#bfbfbf" points="787.5,-0.5 787.5,-19.5 828.5,-19.5 828.5,-0.5 787.5,-0.5"/>
<text text-anchor="middle" x="808" y="-7.5" font-family="Helvetica,sans-Serif" font-size="10.00">string</text>
</g>
<!-- Node13&#45;&gt;Node16 -->
<g id="edge18" class="edge"><title>Node13&#45;&gt;Node16</title>
<path fill="none" stroke="midnightblue" d="M604.815,-57.4915C650.543,-47.0282 732.819,-28.2025 777.356,-18.0117"/>
<polygon fill="midnightblue" stroke="midnightblue" points="778.335,-21.3784 787.302,-15.736 776.773,-14.5547 778.335,-21.3784"/>
</g>
<!-- Node19&#45;&gt;Node2 -->
<g id="edge24" class="edge"><title>Node19&#45;&gt;Node2</title>
<path fill="none" stroke="midnightblue" d="M683.789,-168.324C672.224,-160.107 654.625,-147.602 640.839,-137.807"/>
<polygon fill="midnightblue" stroke="midnightblue" points="642.612,-134.773 632.433,-131.834 638.557,-140.479 642.612,-134.773"/>
</g>
<!-- Node19&#45;&gt;Node14 -->
<g id="edge25" class="edge"><title>Node19&#45;&gt;Node14</title>
<path fill="none" stroke="midnightblue" d="M702.412,-168.085C710.649,-155.482 723.087,-131.785 716,-112 703.22,-76.3192 671.796,-44.2118 651.489,-26.1984"/>
<polygon fill="midnightblue" stroke="midnightblue" points="653.668,-23.456 643.806,-19.583 649.1,-28.7604 653.668,-23.456"/>
</g>
<!-- Node19&#45;&gt;Node16 -->
<g id="edge23" class="edge"><title>Node19&#45;&gt;Node16</title>
<path fill="none" stroke="midnightblue" d="M751.732,-168.485C809.44,-159.102 892.516,-143.78 902,-132 932.912,-93.6066 869.827,-47.3997 832.623,-24.805"/>
<polygon fill="midnightblue" stroke="midnightblue" points="834.185,-21.6625 823.795,-19.5884 830.624,-27.689 834.185,-21.6625"/>
</g>
<!-- Node20 -->
<g id="node21" class="node"><title>Node20</title>
<polygon fill="white" stroke="#bfbfbf" points="764,-112.5 764,-131.5 816,-131.5 816,-112.5 764,-112.5"/>
<text text-anchor="middle" x="790" y="-119.5" font-family="Helvetica,sans-Serif" font-size="10.00">memory</text>
</g>
<!-- Node19&#45;&gt;Node20 -->
<g id="edge26" class="edge"><title>Node19&#45;&gt;Node20</title>
<path fill="none" stroke="midnightblue" d="M711.103,-168.324C725.903,-159.822 748.694,-146.729 765.982,-136.797"/>
<polygon fill="midnightblue" stroke="midnightblue" points="768.007,-139.671 774.935,-131.655 764.52,-133.601 768.007,-139.671"/>
</g>
<!-- Node21 -->
<g id="node22" class="node"><title>Node21</title>
<polygon fill="white" stroke="#bfbfbf" points="834.5,-112.5 834.5,-131.5 893.5,-131.5 893.5,-112.5 834.5,-112.5"/>
<text text-anchor="middle" x="864" y="-119.5" font-family="Helvetica,sans-Serif" font-size="10.00">functional</text>
</g>
<!-- Node19&#45;&gt;Node21 -->
<g id="edge27" class="edge"><title>Node19&#45;&gt;Node21</title>
<path fill="none" stroke="midnightblue" d="M722.62,-168.444C751.006,-159.32 796.137,-144.813 827.753,-134.651"/>
<polygon fill="midnightblue" stroke="midnightblue" points="829.055,-137.909 837.504,-131.516 826.913,-131.244 829.055,-137.909"/>
</g>
<!-- Node22 -->
<g id="node23" class="node"><title>Node22</title>
<g id="a_node23"><a xlink:href="_bin_settings_8h.html" target="_top" xlink:title="base/BinSettings.h">
<polygon fill="white" stroke="black" points="306.5,-112.5 306.5,-131.5 405.5,-131.5 405.5,-112.5 306.5,-112.5"/>
<text text-anchor="middle" x="356" y="-119.5" font-family="Helvetica,sans-Serif" font-size="10.00">base/BinSettings.h</text>
</a>
</g>
</g>
<!-- Node19&#45;&gt;Node22 -->
<g id="edge28" class="edge"><title>Node19&#45;&gt;Node22</title>
<path fill="none" stroke="midnightblue" d="M642.126,-168.444C580.451,-158.648 479.713,-142.649 415.698,-132.481"/>
<polygon fill="midnightblue" stroke="midnightblue" points="416.176,-129.014 405.75,-130.902 415.078,-135.927 416.176,-129.014"/>
</g>
<!-- Node23 -->
<g id="node24" class="node"><title>Node23</title>
<polygon fill="white" stroke="#bfbfbf" points="652,-112.5 652,-131.5 708,-131.5 708,-112.5 652,-112.5"/>
<text text-anchor="middle" x="680" y="-119.5" font-family="Helvetica,sans-Serif" font-size="10.00">Rtypes.h</text>
</g>
<!-- Node19&#45;&gt;Node23 -->
<g id="edge34" class="edge"><title>Node19&#45;&gt;Node23</title>
<path fill="none" stroke="midnightblue" d="M693.358,-168.083C691.214,-160.849 688.121,-150.409 685.451,-141.397"/>
<polygon fill="midnightblue" stroke="midnightblue" points="688.79,-140.345 682.593,-131.751 682.078,-142.333 688.79,-140.345"/>
</g>
<!-- Node22&#45;&gt;Node3 -->
<g id="edge29" class="edge"><title>Node22&#45;&gt;Node3</title>
<path fill="none" stroke="midnightblue" d="M333.975,-112.444C310.896,-103.478 274.438,-89.314 248.359,-79.1827"/>
<polygon fill="midnightblue" stroke="midnightblue" points="249.511,-75.8753 238.922,-75.5164 246.976,-82.4002 249.511,-75.8753"/>
</g>
<!-- Node22&#45;&gt;Node6 -->
<g id="edge31" class="edge"><title>Node22&#45;&gt;Node6</title>
<path fill="none" stroke="midnightblue" d="M353.765,-112.449C351.538,-103.453 348.272,-88.8441 347,-76 345.458,-60.4231 347.888,-42.8016 350.464,-29.8395"/>
<polygon fill="midnightblue" stroke="midnightblue" points="353.939,-30.3351 352.669,-19.8166 347.102,-28.8309 353.939,-30.3351"/>
</g>
<!-- Node22&#45;&gt;Node8 -->
<g id="edge32" class="edge"><title>Node22&#45;&gt;Node8</title>
<path fill="none" stroke="midnightblue" d="M350.272,-112.368C338.225,-94.2153 310.077,-51.8015 294.275,-27.9902"/>
<polygon fill="midnightblue" stroke="midnightblue" points="297.147,-25.9882 288.702,-19.5914 291.315,-29.8589 297.147,-25.9882"/>
</g>
<!-- Node22&#45;&gt;Node14 -->
<g id="edge30" class="edge"><title>Node22&#45;&gt;Node14</title>
<path fill="none" stroke="midnightblue" d="M356.529,-112.27C357.888,-98.0951 362.733,-70.23 380,-56 454.397,5.31346 500.866,-38.5656 600.855,-19.6498"/>
<polygon fill="midnightblue" stroke="midnightblue" points="601.616,-23.0668 610.702,-17.6176 600.201,-16.2113 601.616,-23.0668"/>
</g>
<!-- Node22&#45;&gt;Node18 -->
<g id="edge33" class="edge"><title>Node22&#45;&gt;Node18</title>
<path fill="none" stroke="midnightblue" d="M365.479,-112.324C374.201,-104.341 387.343,-92.3128 397.898,-82.6529"/>
<polygon fill="midnightblue" stroke="midnightblue" points="400.334,-85.1674 405.348,-75.8339 395.608,-80.0036 400.334,-85.1674"/>
</g>
</g>
</svg>
