<?xml version="1.0" encoding="UTF-8" standalone="no"?>
<!DOCTYPE svg PUBLIC "-//W3C//DTD SVG 1.1//EN"
 "http://www.w3.org/Graphics/SVG/1.1/DTD/svg11.dtd">
<!-- Generated by graphviz version 2.36.0 (20140111.2315)
 -->
<!-- Title: src/root&#45;addons/analysis_codes/InterpolatedPulls.h Pages: 1 -->
<svg width="184pt" height="96pt"
 viewBox="0.00 0.00 184.00 96.00" xmlns="http://www.w3.org/2000/svg" xmlns:xlink="http://www.w3.org/1999/xlink">
<g id="graph0" class="graph" transform="scale(1 1) rotate(0) translate(4 92)">
<title>src/root&#45;addons/analysis_codes/InterpolatedPulls.h</title>
<polygon fill="white" stroke="none" points="-4,4 -4,-92 180,-92 180,4 -4,4"/>
<!-- Node0 -->
<g id="node1" class="node"><title>Node0</title>
<polygon fill="#bfbfbf" stroke="black" points="7,-57 7,-87 139,-87 139,-57 7,-57"/>
<text text-anchor="start" x="15" y="-75" font-family="Helvetica,sans-Serif" font-size="10.00">src/root&#45;addons/analysis</text>
<text text-anchor="middle" x="73" y="-64" font-family="Helvetica,sans-Serif" font-size="10.00">_codes/InterpolatedPulls.h</text>
</g>
<!-- Node1 -->
<g id="node2" class="node"><title>Node1</title>
<polygon fill="white" stroke="#bfbfbf" points="-0.5,-0.5 -0.5,-19.5 40.5,-19.5 40.5,-0.5 -0.5,-0.5"/>
<text text-anchor="middle" x="20" y="-7.5" font-family="Helvetica,sans-Serif" font-size="10.00">string</text>
</g>
<!-- Node0&#45;&gt;Node1 -->
<g id="edge1" class="edge"><title>Node0&#45;&gt;Node1</title>
<path fill="none" stroke="midnightblue" d="M60.4397,-56.7808C52.6588,-47.9722 42.6364,-36.6262 34.516,-27.4332"/>
<polygon fill="midnightblue" stroke="midnightblue" points="36.9555,-24.9082 27.712,-19.7305 31.7092,-29.5424 36.9555,-24.9082"/>
</g>
<!-- Node2 -->
<g id="node3" class="node"><title>Node2</title>
<polygon fill="white" stroke="#bfbfbf" points="58.5,-0.5 58.5,-19.5 87.5,-19.5 87.5,-0.5 58.5,-0.5"/>
<text text-anchor="middle" x="73" y="-7.5" font-family="Helvetica,sans-Serif" font-size="10.00">list</text>
</g>
<!-- Node0&#45;&gt;Node2 -->
<g id="edge2" class="edge"><title>Node0&#45;&gt;Node2</title>
<path fill="none" stroke="midnightblue" d="M73,-56.7808C73,-48.7812 73,-38.6887 73,-30.0168"/>
<polygon fill="midnightblue" stroke="midnightblue" points="76.5001,-29.7305 73,-19.7305 69.5001,-29.7306 76.5001,-29.7305"/>
</g>
<!-- Node3 -->
<g id="node4" class="node"><title>Node3</title>
<polygon fill="white" stroke="#bfbfbf" points="105.5,-0.5 105.5,-19.5 176.5,-19.5 176.5,-0.5 105.5,-0.5"/>
<text text-anchor="middle" x="141" y="-7.5" font-family="Helvetica,sans-Serif" font-size="10.00">TDirectory.h</text>
</g>
<!-- Node0&#45;&gt;Node3 -->
<g id="edge3" class="edge"><title>Node0&#45;&gt;Node3</title>
<path fill="none" stroke="midnightblue" d="M89.1151,-56.7808C99.4037,-47.7026 112.747,-35.9291 123.326,-26.5951"/>
<polygon fill="midnightblue" stroke="midnightblue" points="125.923,-28.9712 131.105,-19.7305 121.291,-23.7223 125.923,-28.9712"/>
</g>
</g>
</svg>
