<?xml version="1.0" encoding="UTF-8" standalone="no"?>
<!DOCTYPE svg PUBLIC "-//W3C//DTD SVG 1.1//EN"
 "http://www.w3.org/Graphics/SVG/1.1/DTD/svg11.dtd">
<!-- Generated by graphviz version 2.36.0 (20140111.2315)
 -->
<!-- Title: src/analysis/physics/production/sigmaPlus.h Pages: 1 -->
<svg width="301pt" height="108pt"
 viewBox="0.00 0.00 301.00 108.00" xmlns="http://www.w3.org/2000/svg" xmlns:xlink="http://www.w3.org/1999/xlink">
<g id="graph0" class="graph" transform="scale(1 1) rotate(0) translate(4 104)">
<title>src/analysis/physics/production/sigmaPlus.h</title>
<polygon fill="white" stroke="none" points="-4,4 -4,-104 297,-104 297,4 -4,4"/>
<!-- Node105 -->
<g id="node1" class="node"><title>Node105</title>
<polygon fill="#bfbfbf" stroke="black" points="80,-69 80,-99 202,-99 202,-69 80,-69"/>
<text text-anchor="start" x="88" y="-87" font-family="Helvetica,sans-Serif" font-size="10.00">src/analysis/physics</text>
<text text-anchor="middle" x="141" y="-76" font-family="Helvetica,sans-Serif" font-size="10.00">/production/sigmaPlus.h</text>
</g>
<!-- Node106 -->
<g id="node2" class="node"><title>Node106</title>
<g id="a_node2"><a xlink:href="sigma_plus_8cc.html" target="_top" xlink:title="src/analysis/physics\l/production/sigmaPlus.cc">
<polygon fill="white" stroke="black" points="-0.5,-1 -0.5,-31 126.5,-31 126.5,-1 -0.5,-1"/>
<text text-anchor="start" x="7.5" y="-19" font-family="Helvetica,sans-Serif" font-size="10.00">src/analysis/physics</text>
<text text-anchor="middle" x="63" y="-8" font-family="Helvetica,sans-Serif" font-size="10.00">/production/sigmaPlus.cc</text>
</a>
</g>
</g>
<!-- Node105&#45;&gt;Node106 -->
<g id="edge1" class="edge"><title>Node105&#45;&gt;Node106</title>
<path fill="none" stroke="midnightblue" d="M116.204,-62.0184C104.263,-51.9145 90.2641,-40.0696 79.6238,-31.0663"/>
<polygon fill="midnightblue" stroke="midnightblue" points="114.18,-64.8914 124.075,-68.679 118.702,-59.5477 114.18,-64.8914"/>
</g>
<!-- Node107 -->
<g id="node3" class="node"><title>Node107</title>
<g id="a_node3"><a xlink:href="sigma_plus_plots_8cc.html" target="_top" xlink:title="src/analysis/physics\l/production/sigmaPlusPlots.cc">
<polygon fill="white" stroke="black" points="144.5,-1 144.5,-31 293.5,-31 293.5,-1 144.5,-1"/>
<text text-anchor="start" x="152.5" y="-19" font-family="Helvetica,sans-Serif" font-size="10.00">src/analysis/physics</text>
<text text-anchor="middle" x="219" y="-8" font-family="Helvetica,sans-Serif" font-size="10.00">/production/sigmaPlusPlots.cc</text>
</a>
</g>
</g>
<!-- Node105&#45;&gt;Node107 -->
<g id="edge2" class="edge"><title>Node105&#45;&gt;Node107</title>
<path fill="none" stroke="midnightblue" d="M165.796,-62.0184C177.737,-51.9145 191.736,-40.0696 202.376,-31.0663"/>
<polygon fill="midnightblue" stroke="midnightblue" points="163.298,-59.5477 157.925,-68.679 167.82,-64.8914 163.298,-59.5477"/>
</g>
</g>
</svg>
