<?xml version="1.0" encoding="UTF-8" standalone="no"?>
<!DOCTYPE svg PUBLIC "-//W3C//DTD SVG 1.1//EN"
 "http://www.w3.org/Graphics/SVG/1.1/DTD/svg11.dtd">
<!-- Generated by graphviz version 2.36.0 (20140111.2315)
 -->
<!-- Title: src/tree/stream_TBuffer.h Pages: 1 -->
<svg width="247pt" height="96pt"
 viewBox="0.00 0.00 247.00 96.00" xmlns="http://www.w3.org/2000/svg" xmlns:xlink="http://www.w3.org/1999/xlink">
<g id="graph0" class="graph" transform="scale(1 1) rotate(0) translate(4 92)">
<title>src/tree/stream_TBuffer.h</title>
<polygon fill="white" stroke="none" points="-4,4 -4,-92 243,-92 243,4 -4,4"/>
<!-- Node11 -->
<g id="node1" class="node"><title>Node11</title>
<polygon fill="#bfbfbf" stroke="black" points="61,-68.5 61,-87.5 189,-87.5 189,-68.5 61,-68.5"/>
<text text-anchor="middle" x="125" y="-75.5" font-family="Helvetica,sans-Serif" font-size="10.00">src/tree/stream_TBuffer.h</text>
</g>
<!-- Node12 -->
<g id="node2" class="node"><title>Node12</title>
<g id="a_node2"><a xlink:href="hstack_8cc.html" target="_top" xlink:title="src/root&#45;addons/analysis\l_codes/hstack.cc">
<polygon fill="white" stroke="black" points="-0.5,-1 -0.5,-31 122.5,-31 122.5,-1 -0.5,-1"/>
<text text-anchor="start" x="7.5" y="-19" font-family="Helvetica,sans-Serif" font-size="10.00">src/root&#45;addons/analysis</text>
<text text-anchor="middle" x="61" y="-8" font-family="Helvetica,sans-Serif" font-size="10.00">_codes/hstack.cc</text>
</a>
</g>
</g>
<!-- Node11&#45;&gt;Node12 -->
<g id="edge1" class="edge"><title>Node11&#45;&gt;Node12</title>
<path fill="none" stroke="midnightblue" d="M108.485,-61.5169C98.481,-52.1384 85.8169,-40.2659 76.0835,-31.1408"/>
<polygon fill="midnightblue" stroke="midnightblue" points="106.141,-64.1174 115.83,-68.4035 110.929,-59.0106 106.141,-64.1174"/>
</g>
<!-- Node13 -->
<g id="node3" class="node"><title>Node13</title>
<g id="a_node3"><a xlink:href="_t_event_8cc.html" target="_top" xlink:title="src/tree/TEvent.cc">
<polygon fill="white" stroke="black" points="141,-6.5 141,-25.5 239,-25.5 239,-6.5 141,-6.5"/>
<text text-anchor="middle" x="190" y="-13.5" font-family="Helvetica,sans-Serif" font-size="10.00">src/tree/TEvent.cc</text>
</a>
</g>
</g>
<!-- Node11&#45;&gt;Node13 -->
<g id="edge2" class="edge"><title>Node11&#45;&gt;Node13</title>
<path fill="none" stroke="midnightblue" d="M141.769,-61.5206C154.162,-50.0815 170.575,-34.9305 180.704,-25.5806"/>
<polygon fill="midnightblue" stroke="midnightblue" points="139.287,-59.0488 134.313,-68.4035 144.035,-64.1925 139.287,-59.0488"/>
</g>
</g>
</svg>
