<?xml version="1.0" encoding="UTF-8" standalone="no"?>
<!DOCTYPE svg PUBLIC "-//W3C//DTD SVG 1.1//EN"
 "http://www.w3.org/Graphics/SVG/1.1/DTD/svg11.dtd">
<!-- Generated by graphviz version 2.36.0 (20140111.2315)
 -->
<!-- Title: src/tree/stream_TBuffer.h Pages: 1 -->
<svg width="1239pt" height="84pt"
 viewBox="0.00 0.00 1239.00 84.00" xmlns="http://www.w3.org/2000/svg" xmlns:xlink="http://www.w3.org/1999/xlink">
<g id="graph0" class="graph" transform="scale(1 1) rotate(0) translate(4 80)">
<title>src/tree/stream_TBuffer.h</title>
<polygon fill="white" stroke="none" points="-4,4 -4,-80 1235,-80 1235,4 -4,4"/>
<!-- Node0 -->
<g id="node1" class="node"><title>Node0</title>
<polygon fill="#bfbfbf" stroke="black" points="612,-56.5 612,-75.5 740,-75.5 740,-56.5 612,-56.5"/>
<text text-anchor="middle" x="676" y="-63.5" font-family="Helvetica,sans-Serif" font-size="10.00">src/tree/stream_TBuffer.h</text>
</g>
<!-- Node1 -->
<g id="node2" class="node"><title>Node1</title>
<polygon fill="white" stroke="#bfbfbf" points="-0.5,-0.5 -0.5,-19.5 90.5,-19.5 90.5,-0.5 -0.5,-0.5"/>
<text text-anchor="middle" x="45" y="-7.5" font-family="Helvetica,sans-Serif" font-size="10.00">cereal/cereal.hpp</text>
</g>
<!-- Node0&#45;&gt;Node1 -->
<g id="edge1" class="edge"><title>Node0&#45;&gt;Node1</title>
<path fill="none" stroke="midnightblue" d="M611.899,-61.7594C507.181,-56.0765 292.714,-42.8132 100.577,-19.962"/>
<polygon fill="midnightblue" stroke="midnightblue" points="100.922,-16.4783 90.5764,-18.7614 100.088,-23.4284 100.922,-16.4783"/>
</g>
<!-- Node2 -->
<g id="node3" class="node"><title>Node2</title>
<polygon fill="white" stroke="#bfbfbf" points="109,-0.5 109,-19.5 253,-19.5 253,-0.5 109,-0.5"/>
<text text-anchor="middle" x="181" y="-7.5" font-family="Helvetica,sans-Serif" font-size="10.00">cereal/types/polymorphic.hpp</text>
</g>
<!-- Node0&#45;&gt;Node2 -->
<g id="edge2" class="edge"><title>Node0&#45;&gt;Node2</title>
<path fill="none" stroke="midnightblue" d="M611.811,-58.0709C532.491,-49.4977 393.093,-34.3961 263.528,-20.1659"/>
<polygon fill="midnightblue" stroke="midnightblue" points="263.745,-16.6688 253.423,-19.0556 262.98,-23.6269 263.745,-16.6688"/>
</g>
<!-- Node3 -->
<g id="node4" class="node"><title>Node3</title>
<polygon fill="white" stroke="#bfbfbf" points="271.5,-0.5 271.5,-19.5 398.5,-19.5 398.5,-0.5 271.5,-0.5"/>
<text text-anchor="middle" x="335" y="-7.5" font-family="Helvetica,sans-Serif" font-size="10.00">cereal/types/memory.hpp</text>
</g>
<!-- Node0&#45;&gt;Node3 -->
<g id="edge3" class="edge"><title>Node0&#45;&gt;Node3</title>
<path fill="none" stroke="midnightblue" d="M621.968,-56.4435C561.359,-46.8456 463.138,-31.2916 398.803,-21.1037"/>
<polygon fill="midnightblue" stroke="midnightblue" points="399.204,-17.6237 388.78,-19.5164 398.109,-24.5375 399.204,-17.6237"/>
</g>
<!-- Node4 -->
<g id="node5" class="node"><title>Node4</title>
<polygon fill="white" stroke="#bfbfbf" points="417,-0.5 417,-19.5 533,-19.5 533,-0.5 417,-0.5"/>
<text text-anchor="middle" x="475" y="-7.5" font-family="Helvetica,sans-Serif" font-size="10.00">cereal/types/string.hpp</text>
</g>
<!-- Node0&#45;&gt;Node4 -->
<g id="edge4" class="edge"><title>Node0&#45;&gt;Node4</title>
<path fill="none" stroke="midnightblue" d="M644.151,-56.4435C609.602,-47.1616 554.318,-32.3093 516.417,-22.127"/>
<polygon fill="midnightblue" stroke="midnightblue" points="517.266,-18.7309 506.7,-19.5164 515.449,-25.4912 517.266,-18.7309"/>
</g>
<!-- Node5 -->
<g id="node6" class="node"><title>Node5</title>
<polygon fill="white" stroke="#bfbfbf" points="551.5,-0.5 551.5,-19.5 670.5,-19.5 670.5,-0.5 551.5,-0.5"/>
<text text-anchor="middle" x="611" y="-7.5" font-family="Helvetica,sans-Serif" font-size="10.00">cereal/types/vector.hpp</text>
</g>
<!-- Node0&#45;&gt;Node5 -->
<g id="edge5" class="edge"><title>Node0&#45;&gt;Node5</title>
<path fill="none" stroke="midnightblue" d="M665.557,-56.324C655.854,-48.2631 641.185,-36.0765 629.5,-26.3695"/>
<polygon fill="midnightblue" stroke="midnightblue" points="631.562,-23.532 621.633,-19.8339 627.089,-28.9163 631.562,-23.532"/>
</g>
<!-- Node6 -->
<g id="node7" class="node"><title>Node6</title>
<polygon fill="white" stroke="#bfbfbf" points="689,-0.5 689,-19.5 793,-19.5 793,-0.5 689,-0.5"/>
<text text-anchor="middle" x="741" y="-7.5" font-family="Helvetica,sans-Serif" font-size="10.00">cereal/types/list.hpp</text>
</g>
<!-- Node0&#45;&gt;Node6 -->
<g id="edge6" class="edge"><title>Node0&#45;&gt;Node6</title>
<path fill="none" stroke="midnightblue" d="M686.443,-56.324C696.146,-48.2631 710.815,-36.0765 722.5,-26.3695"/>
<polygon fill="midnightblue" stroke="midnightblue" points="724.911,-28.9163 730.367,-19.8339 720.438,-23.532 724.911,-28.9163"/>
</g>
<!-- Node7 -->
<g id="node8" class="node"><title>Node7</title>
<polygon fill="white" stroke="#bfbfbf" points="811.5,-0.5 811.5,-19.5 942.5,-19.5 942.5,-0.5 811.5,-0.5"/>
<text text-anchor="middle" x="877" y="-7.5" font-family="Helvetica,sans-Serif" font-size="10.00">cereal/archives/binary.hpp</text>
</g>
<!-- Node0&#45;&gt;Node7 -->
<g id="edge7" class="edge"><title>Node0&#45;&gt;Node7</title>
<path fill="none" stroke="midnightblue" d="M707.849,-56.4435C742.398,-47.1616 797.682,-32.3093 835.583,-22.127"/>
<polygon fill="midnightblue" stroke="midnightblue" points="836.551,-25.4912 845.3,-19.5164 834.734,-18.7309 836.551,-25.4912"/>
</g>
<!-- Node8 -->
<g id="node9" class="node"><title>Node8</title>
<polygon fill="white" stroke="#bfbfbf" points="961,-0.5 961,-19.5 1077,-19.5 1077,-0.5 961,-0.5"/>
<text text-anchor="middle" x="1019" y="-7.5" font-family="Helvetica,sans-Serif" font-size="10.00">cereal/types/bitset.hpp</text>
</g>
<!-- Node0&#45;&gt;Node8 -->
<g id="edge8" class="edge"><title>Node0&#45;&gt;Node8</title>
<path fill="none" stroke="midnightblue" d="M730.349,-56.4435C791.314,-46.8456 890.111,-31.2916 954.823,-21.1037"/>
<polygon fill="midnightblue" stroke="midnightblue" points="955.571,-24.5291 964.905,-19.5164 954.482,-17.6143 955.571,-24.5291"/>
</g>
<!-- Node9 -->
<g id="node10" class="node"><title>Node9</title>
<polygon fill="white" stroke="#bfbfbf" points="1095.5,-0.5 1095.5,-19.5 1152.5,-19.5 1152.5,-0.5 1095.5,-0.5"/>
<text text-anchor="middle" x="1124" y="-7.5" font-family="Helvetica,sans-Serif" font-size="10.00">TBuffer.h</text>
</g>
<!-- Node0&#45;&gt;Node9 -->
<g id="edge9" class="edge"><title>Node0&#45;&gt;Node9</title>
<path fill="none" stroke="midnightblue" d="M740.082,-60.2881C820.876,-53.8116 963.865,-40.5682 1085,-20 1085.1,-19.9826 1085.21,-19.965 1085.31,-19.9473"/>
<polygon fill="midnightblue" stroke="midnightblue" points="1085.95,-23.3879 1095.11,-18.0636 1084.63,-16.5137 1085.95,-23.3879"/>
</g>
<!-- Node10 -->
<g id="node11" class="node"><title>Node10</title>
<polygon fill="white" stroke="#bfbfbf" points="1171,-0.5 1171,-19.5 1231,-19.5 1231,-0.5 1171,-0.5"/>
<text text-anchor="middle" x="1201" y="-7.5" font-family="Helvetica,sans-Serif" font-size="10.00">streambuf</text>
</g>
<!-- Node0&#45;&gt;Node10 -->
<g id="edge10" class="edge"><title>Node0&#45;&gt;Node10</title>
<path fill="none" stroke="midnightblue" d="M740.27,-61.6785C833.446,-56.2657 1011.28,-43.6878 1161,-20 1161.1,-19.984 1161.2,-19.9679 1161.3,-19.9517"/>
<polygon fill="midnightblue" stroke="midnightblue" points="1161.73,-23.4323 1170.94,-18.1997 1160.47,-16.5452 1161.73,-23.4323"/>
</g>
</g>
</svg>
