<?xml version="1.0" encoding="UTF-8" standalone="no"?>
<!DOCTYPE svg PUBLIC "-//W3C//DTD SVG 1.1//EN"
 "http://www.w3.org/Graphics/SVG/1.1/DTD/svg11.dtd">
<!-- Generated by graphviz version 2.36.0 (20140111.2315)
 -->
<!-- Title: src/base/std_ext/string.h Pages: 1 -->
<svg width="255pt" height="84pt"
 viewBox="0.00 0.00 255.00 84.00" xmlns="http://www.w3.org/2000/svg" xmlns:xlink="http://www.w3.org/1999/xlink">
<g id="graph0" class="graph" transform="scale(1 1) rotate(0) translate(4 80)">
<title>src/base/std_ext/string.h</title>
<polygon fill="white" stroke="none" points="-4,4 -4,-80 251,-80 251,4 -4,4"/>
<!-- Node0 -->
<g id="node1" class="node"><title>Node0</title>
<polygon fill="#bfbfbf" stroke="black" points="58.5,-56.5 58.5,-75.5 183.5,-75.5 183.5,-56.5 58.5,-56.5"/>
<text text-anchor="middle" x="121" y="-63.5" font-family="Helvetica,sans-Serif" font-size="10.00">src/base/std_ext/string.h</text>
</g>
<!-- Node1 -->
<g id="node2" class="node"><title>Node1</title>
<polygon fill="white" stroke="#bfbfbf" points="-0.5,-0.5 -0.5,-19.5 40.5,-19.5 40.5,-0.5 -0.5,-0.5"/>
<text text-anchor="middle" x="20" y="-7.5" font-family="Helvetica,sans-Serif" font-size="10.00">string</text>
</g>
<!-- Node0&#45;&gt;Node1 -->
<g id="edge1" class="edge"><title>Node0&#45;&gt;Node1</title>
<path fill="none" stroke="midnightblue" d="M104.773,-56.324C88.649,-47.7034 63.6998,-34.3643 45.0359,-24.3855"/>
<polygon fill="midnightblue" stroke="midnightblue" points="46.6561,-21.283 36.1871,-19.6545 43.3556,-27.456 46.6561,-21.283"/>
</g>
<!-- Node2 -->
<g id="node3" class="node"><title>Node2</title>
<polygon fill="white" stroke="#bfbfbf" points="59,-0.5 59,-19.5 111,-19.5 111,-0.5 59,-0.5"/>
<text text-anchor="middle" x="85" y="-7.5" font-family="Helvetica,sans-Serif" font-size="10.00">sstream</text>
</g>
<!-- Node0&#45;&gt;Node2 -->
<g id="edge2" class="edge"><title>Node0&#45;&gt;Node2</title>
<path fill="none" stroke="midnightblue" d="M115.055,-56.083C110.023,-48.5341 102.663,-37.4948 96.4865,-28.2298"/>
<polygon fill="midnightblue" stroke="midnightblue" points="99.2933,-26.1301 90.8341,-19.7511 93.4689,-30.0131 99.2933,-26.1301"/>
</g>
<!-- Node3 -->
<g id="node4" class="node"><title>Node3</title>
<polygon fill="white" stroke="#bfbfbf" points="129,-0.5 129,-19.5 185,-19.5 185,-0.5 129,-0.5"/>
<text text-anchor="middle" x="157" y="-7.5" font-family="Helvetica,sans-Serif" font-size="10.00">algorithm</text>
</g>
<!-- Node0&#45;&gt;Node3 -->
<g id="edge3" class="edge"><title>Node0&#45;&gt;Node3</title>
<path fill="none" stroke="midnightblue" d="M126.945,-56.083C131.977,-48.5341 139.337,-37.4948 145.513,-28.2298"/>
<polygon fill="midnightblue" stroke="midnightblue" points="148.531,-30.0131 151.166,-19.7511 142.707,-26.1301 148.531,-30.0131"/>
</g>
<!-- Node4 -->
<g id="node5" class="node"><title>Node4</title>
<polygon fill="white" stroke="#bfbfbf" points="203,-0.5 203,-19.5 247,-19.5 247,-0.5 203,-0.5"/>
<text text-anchor="middle" x="225" y="-7.5" font-family="Helvetica,sans-Serif" font-size="10.00">vector</text>
</g>
<!-- Node0&#45;&gt;Node4 -->
<g id="edge4" class="edge"><title>Node0&#45;&gt;Node4</title>
<path fill="none" stroke="midnightblue" d="M137.709,-56.324C154.312,-47.7034 180.002,-34.3643 199.22,-24.3855"/>
<polygon fill="midnightblue" stroke="midnightblue" points="201.07,-27.3689 208.332,-19.6545 197.844,-21.1565 201.07,-27.3689"/>
</g>
</g>
</svg>
