<?xml version="1.0" encoding="UTF-8" standalone="no"?>
<!DOCTYPE svg PUBLIC "-//W3C//DTD SVG 1.1//EN"
 "http://www.w3.org/Graphics/SVG/1.1/DTD/svg11.dtd">
<!-- Generated by graphviz version 2.36.0 (20140111.2315)
 -->
<!-- Title: ant::UnpackerAcquConfig::scaler_mapping_t::entry_t Pages: 1 -->
<svg width="166pt" height="120pt"
 viewBox="0.00 0.00 166.00 120.00" xmlns="http://www.w3.org/2000/svg" xmlns:xlink="http://www.w3.org/1999/xlink">
<g id="graph0" class="graph" transform="scale(1 1) rotate(0) translate(4 116)">
<title>ant::UnpackerAcquConfig::scaler_mapping_t::entry_t</title>
<polygon fill="white" stroke="none" points="-4,4 -4,-116 162,-116 162,4 -4,4"/>
<!-- Node1 -->
<g id="node1" class="node"><title>Node1</title>
<polygon fill="#bfbfbf" stroke="black" points="11.5,-1 11.5,-31 146.5,-31 146.5,-1 11.5,-1"/>
<text text-anchor="start" x="19.5" y="-19" font-family="Helvetica,sans-Serif" font-size="10.00">ant::UnpackerAcquConfig</text>
<text text-anchor="middle" x="79" y="-8" font-family="Helvetica,sans-Serif" font-size="10.00">::scaler_mapping_t::entry_t</text>
</g>
<!-- Node2 -->
<g id="node2" class="node"><title>Node2</title>
<g id="a_node2"><a xlink:href="structant_1_1_unpacker_acqu_config_1_1_raw_channel__t.html" target="_top" xlink:title="ant::UnpackerAcquConfig\l::RawChannel_t\&lt; std::uint32_t \&gt;">
<polygon fill="white" stroke="black" points="-0.5,-81 -0.5,-111 158.5,-111 158.5,-81 -0.5,-81"/>
<text text-anchor="start" x="7.5" y="-99" font-family="Helvetica,sans-Serif" font-size="10.00">ant::UnpackerAcquConfig</text>
<text text-anchor="middle" x="79" y="-88" font-family="Helvetica,sans-Serif" font-size="10.00">::RawChannel_t&lt; std::uint32_t &gt;</text>
</a>
</g>
</g>
<!-- Node2&#45;&gt;Node1 -->
<g id="edge1" class="edge"><title>Node2&#45;&gt;Node1</title>
<path fill="none" stroke="#9a32cd" stroke-dasharray="5,2" d="M79,-70.5644C79,-57.6243 79,-42.1862 79,-31.2157"/>
<polygon fill="#9a32cd" stroke="#9a32cd" points="75.5001,-70.6936 79,-80.6936 82.5001,-70.6936 75.5001,-70.6936"/>
<text text-anchor="middle" x="109" y="-53.5" font-family="Helvetica,sans-Serif" font-size="10.00"> RawChannel</text>
</g>
</g>
</svg>
