<?xml version="1.0" encoding="UTF-8" standalone="no"?>
<!DOCTYPE svg PUBLIC "-//W3C//DTD SVG 1.1//EN"
 "http://www.w3.org/Graphics/SVG/1.1/DTD/svg11.dtd">
<!-- Generated by graphviz version 2.36.0 (20140111.2315)
 -->
<!-- Title: Hist_t&lt; Tree_t &gt; Pages: 1 -->
<svg width="582pt" height="271pt"
 viewBox="0.00 0.00 582.00 271.00" xmlns="http://www.w3.org/2000/svg" xmlns:xlink="http://www.w3.org/1999/xlink">
<g id="graph0" class="graph" transform="scale(1 1) rotate(0) translate(4 267)">
<title>Hist_t&lt; Tree_t &gt;</title>
<polygon fill="white" stroke="none" points="-4,4 -4,-267 578,-267 578,4 -4,4"/>
<!-- Node1 -->
<g id="node1" class="node"><title>Node1</title>
<polygon fill="#bfbfbf" stroke="black" points="484.5,-163.5 484.5,-182.5 573.5,-182.5 573.5,-163.5 484.5,-163.5"/>
<text text-anchor="middle" x="529" y="-170.5" font-family="Helvetica,sans-Serif" font-size="10.00">Hist_t&lt; Tree_t &gt;</text>
</g>
<!-- Node2 -->
<g id="node2" class="node"><title>Node2</title>
<g id="a_node2"><a xlink:href="struct_hist__t_1_1_hist_mgr.html" target="_top" xlink:title="Hist_t\&lt; Tree_t \&gt;::HistMgr\l\&lt; TH1D \&gt;">
<polygon fill="white" stroke="black" points="262.5,-233 262.5,-263 391.5,-263 391.5,-233 262.5,-233"/>
<text text-anchor="start" x="270.5" y="-251" font-family="Helvetica,sans-Serif" font-size="10.00">Hist_t&lt; Tree_t &gt;::HistMgr</text>
<text text-anchor="middle" x="327" y="-240" font-family="Helvetica,sans-Serif" font-size="10.00">&lt; TH1D &gt;</text>
</a>
</g>
</g>
<!-- Node2&#45;&gt;Node1 -->
<g id="edge1" class="edge"><title>Node2&#45;&gt;Node1</title>
<path fill="none" stroke="#9a32cd" stroke-dasharray="5,2" d="M389.458,-229.922C413.584,-222.317 441.347,-212.931 466,-203 481.085,-196.924 497.64,-188.837 509.846,-182.59"/>
<polygon fill="#9a32cd" stroke="#9a32cd" points="388.216,-226.642 379.711,-232.96 390.3,-233.325 388.216,-226.642"/>
<text text-anchor="middle" x="438" y="-225" font-family="Helvetica,sans-Serif" font-size="10.00"> h1</text>
</g>
<!-- Node3 -->
<g id="node3" class="node"><title>Node3</title>
<g id="a_node3"><a xlink:title="STL class. ">
<polygon fill="white" stroke="#bfbfbf" points="118.5,-233 118.5,-263 215.5,-263 215.5,-233 118.5,-233"/>
<text text-anchor="start" x="126.5" y="-251" font-family="Helvetica,sans-Serif" font-size="10.00">std::list&lt; HistFiller</text>
<text text-anchor="middle" x="167" y="-240" font-family="Helvetica,sans-Serif" font-size="10.00">_t&lt; TH1D &gt; &gt;</text>
</a>
</g>
</g>
<!-- Node3&#45;&gt;Node2 -->
<g id="edge2" class="edge"><title>Node3&#45;&gt;Node2</title>
<path fill="none" stroke="midnightblue" d="M226.005,-241.466C237.81,-241.218 250.29,-241.183 262.281,-241.364"/>
<polygon fill="midnightblue" stroke="midnightblue" points="225.736,-237.972 215.834,-241.74 225.925,-244.97 225.736,-237.972"/>
</g>
<!-- Node3&#45;&gt;Node2 -->
<g id="edge4" class="edge"><title>Node3&#45;&gt;Node2</title>
<path fill="none" stroke="midnightblue" d="M226.005,-254.534C237.81,-254.782 250.29,-254.817 262.281,-254.636"/>
<polygon fill="midnightblue" stroke="midnightblue" points="225.925,-251.03 215.834,-254.26 225.736,-258.028 225.925,-251.03"/>
</g>
<!-- Node4 -->
<g id="node4" class="node"><title>Node4</title>
<polygon fill="white" stroke="#bfbfbf" points="0.5,-215.5 0.5,-234.5 29.5,-234.5 29.5,-215.5 0.5,-215.5"/>
<text text-anchor="middle" x="15" y="-222.5" font-family="Helvetica,sans-Serif" font-size="10.00">T</text>
</g>
<!-- Node4&#45;&gt;Node3 -->
<g id="edge3" class="edge"><title>Node4&#45;&gt;Node3</title>
<path fill="none" stroke="#9a32cd" stroke-dasharray="5,2" d="M39.5586,-228.612C60.629,-231.843 92.1528,-236.677 118.452,-240.709"/>
<polygon fill="#9a32cd" stroke="#9a32cd" points="39.991,-225.138 29.5761,-227.082 38.93,-232.057 39.991,-225.138"/>
<text text-anchor="middle" x="70" y="-239" font-family="Helvetica,sans-Serif" font-size="10.00"> elements</text>
</g>
<!-- Node6 -->
<g id="node6" class="node"><title>Node6</title>
<g id="a_node6"><a xlink:title="STL class. ">
<polygon fill="white" stroke="#bfbfbf" points="118.5,-184 118.5,-214 215.5,-214 215.5,-184 118.5,-184"/>
<text text-anchor="start" x="126.5" y="-202" font-family="Helvetica,sans-Serif" font-size="10.00">std::list&lt; HistFiller</text>
<text text-anchor="middle" x="167" y="-191" font-family="Helvetica,sans-Serif" font-size="10.00">_t&lt; TH2D &gt; &gt;</text>
</a>
</g>
</g>
<!-- Node4&#45;&gt;Node6 -->
<g id="edge7" class="edge"><title>Node4&#45;&gt;Node6</title>
<path fill="none" stroke="#9a32cd" stroke-dasharray="5,2" d="M39.1481,-216.423C42.1011,-215.512 45.1035,-214.674 48,-214 70.8282,-208.685 96.6092,-205.134 118.237,-202.828"/>
<polygon fill="#9a32cd" stroke="#9a32cd" points="37.8834,-213.155 29.5236,-219.664 40.1177,-219.789 37.8834,-213.155"/>
<text text-anchor="middle" x="70" y="-217" font-family="Helvetica,sans-Serif" font-size="10.00"> elements</text>
</g>
<!-- Node5 -->
<g id="node5" class="node"><title>Node5</title>
<g id="a_node5"><a xlink:href="struct_hist__t_1_1_hist_mgr.html" target="_top" xlink:title="Hist_t\&lt; Tree_t \&gt;::HistMgr\l\&lt; TH2D \&gt;">
<polygon fill="white" stroke="black" points="262.5,-184 262.5,-214 391.5,-214 391.5,-184 262.5,-184"/>
<text text-anchor="start" x="270.5" y="-202" font-family="Helvetica,sans-Serif" font-size="10.00">Hist_t&lt; Tree_t &gt;::HistMgr</text>
<text text-anchor="middle" x="327" y="-191" font-family="Helvetica,sans-Serif" font-size="10.00">&lt; TH2D &gt;</text>
</a>
</g>
</g>
<!-- Node5&#45;&gt;Node1 -->
<g id="edge5" class="edge"><title>Node5&#45;&gt;Node1</title>
<path fill="none" stroke="#9a32cd" stroke-dasharray="5,2" d="M401.631,-189.428C429.384,-185.82 460.054,-181.833 484.229,-178.69"/>
<polygon fill="#9a32cd" stroke="#9a32cd" points="401.021,-185.978 391.556,-190.738 401.924,-192.919 401.021,-185.978"/>
<text text-anchor="middle" x="438" y="-191" font-family="Helvetica,sans-Serif" font-size="10.00"> h2</text>
</g>
<!-- Node6&#45;&gt;Node5 -->
<g id="edge6" class="edge"><title>Node6&#45;&gt;Node5</title>
<path fill="none" stroke="midnightblue" d="M226.005,-192.466C237.81,-192.218 250.29,-192.183 262.281,-192.364"/>
<polygon fill="midnightblue" stroke="midnightblue" points="225.736,-188.972 215.834,-192.74 225.925,-195.97 225.736,-188.972"/>
</g>
<!-- Node6&#45;&gt;Node5 -->
<g id="edge8" class="edge"><title>Node6&#45;&gt;Node5</title>
<path fill="none" stroke="midnightblue" d="M226.005,-205.534C237.81,-205.782 250.29,-205.817 262.281,-205.636"/>
<polygon fill="midnightblue" stroke="midnightblue" points="225.925,-202.03 215.834,-205.26 225.736,-209.028 225.925,-202.03"/>
</g>
<!-- Node7 -->
<g id="node7" class="node"><title>Node7</title>
<g id="a_node7"><a xlink:href="classant_1_1analysis_1_1_histogram_factory.html" target="_top" xlink:title="ant::analysis::Histogram\lFactory">
<polygon fill="white" stroke="black" points="265.5,-135 265.5,-165 388.5,-165 388.5,-135 265.5,-135"/>
<text text-anchor="start" x="273.5" y="-153" font-family="Helvetica,sans-Serif" font-size="10.00">ant::analysis::Histogram</text>
<text text-anchor="middle" x="327" y="-142" font-family="Helvetica,sans-Serif" font-size="10.00">Factory</text>
</a>
</g>
</g>
<!-- Node7&#45;&gt;Node1 -->
<g id="edge9" class="edge"><title>Node7&#45;&gt;Node1</title>
<path fill="none" stroke="#9a32cd" stroke-dasharray="5,2" d="M398.776,-152.478C420.424,-153.809 444.256,-155.856 466,-159 473.863,-160.137 482.208,-161.742 490.141,-163.462"/>
<polygon fill="#9a32cd" stroke="#9a32cd" points="398.856,-148.977 388.671,-151.897 398.454,-155.965 398.856,-148.977"/>
<text text-anchor="middle" x="438" y="-162" font-family="Helvetica,sans-Serif" font-size="10.00"> HistFac</text>
</g>
<!-- Node8 -->
<g id="node8" class="node"><title>Node8</title>
<g id="a_node8"><a xlink:href="classant_1_1_bin_settings.html" target="_top" xlink:title="ant::BinSettings">
<polygon fill="white" stroke="black" points="284,-0.5 284,-19.5 370,-19.5 370,-0.5 284,-0.5"/>
<text text-anchor="middle" x="327" y="-7.5" font-family="Helvetica,sans-Serif" font-size="10.00">ant::BinSettings</text>
</a>
</g>
</g>
<!-- Node8&#45;&gt;Node1 -->
<g id="edge10" class="edge"><title>Node8&#45;&gt;Node1</title>
<path fill="none" stroke="#9a32cd" stroke-dasharray="5,2" d="M380.125,-4.99123C408.149,-5.00296 441.813,-9.6809 466,-28 511.396,-62.3827 523.953,-136.616 527.066,-163.245"/>
<polygon fill="#9a32cd" stroke="#9a32cd" points="380.016,-1.49258 370.084,-5.18141 380.148,-8.49133 380.016,-1.49258"/>
<text text-anchor="middle" x="438" y="-141" font-family="Helvetica,sans-Serif" font-size="10.00"> vetoEbins</text>
<text text-anchor="middle" x="438" y="-130" font-family="Helvetica,sans-Serif" font-size="10.00">TaggTime</text>
<text text-anchor="middle" x="438" y="-119" font-family="Helvetica,sans-Serif" font-size="10.00">pEbins</text>
<text text-anchor="middle" x="438" y="-108" font-family="Helvetica,sans-Serif" font-size="10.00">Chi2Bins</text>
<text text-anchor="middle" x="438" y="-97" font-family="Helvetica,sans-Serif" font-size="10.00">pThetaBins</text>
<text text-anchor="middle" x="438" y="-86" font-family="Helvetica,sans-Serif" font-size="10.00">CoplBins</text>
<text text-anchor="middle" x="438" y="-75" font-family="Helvetica,sans-Serif" font-size="10.00">MMbins</text>
<text text-anchor="middle" x="438" y="-64" font-family="Helvetica,sans-Serif" font-size="10.00">zVertex</text>
<text text-anchor="middle" x="438" y="-53" font-family="Helvetica,sans-Serif" font-size="10.00">TaggChBins</text>
<text text-anchor="middle" x="438" y="-42" font-family="Helvetica,sans-Serif" font-size="10.00">PSARBins</text>
<text text-anchor="middle" x="438" y="-31" font-family="Helvetica,sans-Serif" font-size="10.00">...</text>
</g>
<!-- Node9 -->
<g id="node9" class="node"><title>Node9</title>
<g id="a_node9"><a xlink:href="classant_1_1interval.html" target="_top" xlink:title="ant::interval\&lt; double \&gt;">
<polygon fill="white" stroke="black" points="110,-0.5 110,-19.5 224,-19.5 224,-0.5 110,-0.5"/>
<text text-anchor="middle" x="167" y="-7.5" font-family="Helvetica,sans-Serif" font-size="10.00">ant::interval&lt; double &gt;</text>
</a>
</g>
</g>
<!-- Node9&#45;&gt;Node8 -->
<g id="edge11" class="edge"><title>Node9&#45;&gt;Node8</title>
<path fill="none" stroke="midnightblue" d="M234.459,-10C251.221,-10 268.756,-10 283.941,-10"/>
<polygon fill="midnightblue" stroke="midnightblue" points="234.15,-6.5001 224.15,-10 234.15,-13.5001 234.15,-6.5001"/>
</g>
</g>
</svg>
