<?xml version="1.0" encoding="UTF-8" standalone="no"?>
<!DOCTYPE svg PUBLIC "-//W3C//DTD SVG 1.1//EN"
 "http://www.w3.org/Graphics/SVG/1.1/DTD/svg11.dtd">
<!-- Generated by graphviz version 2.36.0 (20140111.2315)
 -->
<!-- Title: ant::analysis::physics::EtapDalitz::ReactionChannelList_t Pages: 1 -->
<svg width="174pt" height="358pt"
 viewBox="0.00 0.00 174.00 358.00" xmlns="http://www.w3.org/2000/svg" xmlns:xlink="http://www.w3.org/1999/xlink">
<g id="graph0" class="graph" transform="scale(1 1) rotate(0) translate(4 354)">
<title>ant::analysis::physics::EtapDalitz::ReactionChannelList_t</title>
<polygon fill="white" stroke="none" points="-4,4 -4,-354 170,-354 170,4 -4,4"/>
<!-- Node1 -->
<g id="node1" class="node"><title>Node1</title>
<polygon fill="#bfbfbf" stroke="black" points="8.5,-0.5 8.5,-41.5 157.5,-41.5 157.5,-0.5 8.5,-0.5"/>
<text text-anchor="start" x="16.5" y="-29.5" font-family="Helvetica,sans-Serif" font-size="10.00">ant::analysis::physics</text>
<text text-anchor="start" x="16.5" y="-18.5" font-family="Helvetica,sans-Serif" font-size="10.00">::EtapDalitz::ReactionChannel</text>
<text text-anchor="middle" x="83" y="-7.5" font-family="Helvetica,sans-Serif" font-size="10.00">List_t</text>
</g>
<!-- Node2 -->
<g id="node2" class="node"><title>Node2</title>
<polygon fill="white" stroke="#bfbfbf" points="-0.5,-90.5 -0.5,-131.5 166.5,-131.5 166.5,-90.5 -0.5,-90.5"/>
<text text-anchor="start" x="7.5" y="-119.5" font-family="Helvetica,sans-Serif" font-size="10.00">std::map&lt; unsigned,</text>
<text text-anchor="start" x="7.5" y="-108.5" font-family="Helvetica,sans-Serif" font-size="10.00"> ant::analysis::physics</text>
<text text-anchor="middle" x="83" y="-97.5" font-family="Helvetica,sans-Serif" font-size="10.00">::EtapDalitz::ReactionChannel_t &gt;</text>
</g>
<!-- Node2&#45;&gt;Node1 -->
<g id="edge1" class="edge"><title>Node2&#45;&gt;Node1</title>
<path fill="none" stroke="#9a32cd" stroke-dasharray="5,2" d="M83,-80.3298C83,-67.6289 83,-53.1399 83,-41.7798"/>
<polygon fill="#9a32cd" stroke="#9a32cd" points="79.5001,-80.4699 83,-90.4699 86.5001,-80.47 79.5001,-80.4699"/>
<text text-anchor="middle" x="104.5" y="-63.5" font-family="Helvetica,sans-Serif" font-size="10.00"> channels</text>
</g>
<!-- Node3 -->
<g id="node3" class="node"><title>Node3</title>
<g id="a_node3"><a xlink:href="structant_1_1analysis_1_1physics_1_1_etap_dalitz_1_1_reaction_channel__t.html" target="_top" xlink:title="ant::analysis::physics\l::EtapDalitz::ReactionChannel_t">
<polygon fill="white" stroke="black" points="4,-181 4,-211 162,-211 162,-181 4,-181"/>
<text text-anchor="start" x="12" y="-199" font-family="Helvetica,sans-Serif" font-size="10.00">ant::analysis::physics</text>
<text text-anchor="middle" x="83" y="-188" font-family="Helvetica,sans-Serif" font-size="10.00">::EtapDalitz::ReactionChannel_t</text>
</a>
</g>
</g>
<!-- Node3&#45;&gt;Node2 -->
<g id="edge2" class="edge"><title>Node3&#45;&gt;Node2</title>
<path fill="none" stroke="#9a32cd" stroke-dasharray="5,2" d="M83,-170.805C83,-158.394 83,-143.468 83,-131.759"/>
<polygon fill="#9a32cd" stroke="#9a32cd" points="79.5001,-170.92 83,-180.92 86.5001,-170.92 79.5001,-170.92"/>
<text text-anchor="middle" x="104.5" y="-153.5" font-family="Helvetica,sans-Serif" font-size="10.00"> elements</text>
</g>
<!-- Node4 -->
<g id="node4" class="node"><title>Node4</title>
<g id="a_node4"><a xlink:title="STL class. ">
<polygon fill="white" stroke="#bfbfbf" points="53,-260.5 53,-279.5 113,-279.5 113,-260.5 53,-260.5"/>
<text text-anchor="middle" x="83" y="-267.5" font-family="Helvetica,sans-Serif" font-size="10.00">std::string</text>
</a>
</g>
</g>
<!-- Node4&#45;&gt;Node3 -->
<g id="edge3" class="edge"><title>Node4&#45;&gt;Node3</title>
<path fill="none" stroke="#9a32cd" stroke-dasharray="5,2" d="M83,-250.085C83,-237.915 83,-222.354 83,-211.232"/>
<polygon fill="#9a32cd" stroke="#9a32cd" points="79.5001,-250.458 83,-260.458 86.5001,-250.458 79.5001,-250.458"/>
<text text-anchor="middle" x="97" y="-233.5" font-family="Helvetica,sans-Serif" font-size="10.00"> name</text>
</g>
<!-- Node5 -->
<g id="node5" class="node"><title>Node5</title>
<g id="a_node5"><a xlink:title="STL class. ">
<polygon fill="white" stroke="#bfbfbf" points="35.5,-319 35.5,-349 130.5,-349 130.5,-319 35.5,-319"/>
<text text-anchor="start" x="43.5" y="-337" font-family="Helvetica,sans-Serif" font-size="10.00">std::basic_string&lt;</text>
<text text-anchor="middle" x="83" y="-326" font-family="Helvetica,sans-Serif" font-size="10.00"> char &gt;</text>
</a>
</g>
</g>
<!-- Node5&#45;&gt;Node4 -->
<g id="edge4" class="edge"><title>Node5&#45;&gt;Node4</title>
<path fill="none" stroke="midnightblue" d="M83,-308.871C83,-298.663 83,-287.408 83,-279.842"/>
<polygon fill="midnightblue" stroke="midnightblue" points="79.5001,-308.931 83,-318.931 86.5001,-308.931 79.5001,-308.931"/>
</g>
</g>
</svg>
