<?xml version="1.0" encoding="UTF-8" standalone="no"?>
<!DOCTYPE svg PUBLIC "-//W3C//DTD SVG 1.1//EN"
 "http://www.w3.org/Graphics/SVG/1.1/DTD/svg11.dtd">
<!-- Generated by graphviz version 2.36.0 (20140111.2315)
 -->
<!-- Title: ant::analysis::plot::cuttree::Node_t&lt; Hist_t &gt; Pages: 1 -->
<svg width="774pt" height="266pt"
 viewBox="0.00 0.00 774.00 266.00" xmlns="http://www.w3.org/2000/svg" xmlns:xlink="http://www.w3.org/1999/xlink">
<g id="graph0" class="graph" transform="scale(1 1) rotate(0) translate(4 262)">
<title>ant::analysis::plot::cuttree::Node_t&lt; Hist_t &gt;</title>
<polygon fill="white" stroke="none" points="-4,4 -4,-262 770,-262 770,4 -4,4"/>
<!-- Node1 -->
<g id="node1" class="node"><title>Node1</title>
<polygon fill="#bfbfbf" stroke="black" points="632,-24 632,-54 766,-54 766,-24 632,-24"/>
<text text-anchor="start" x="640" y="-42" font-family="Helvetica,sans-Serif" font-size="10.00">ant::analysis::plot</text>
<text text-anchor="middle" x="699" y="-31" font-family="Helvetica,sans-Serif" font-size="10.00">::cuttree::Node_t&lt; Hist_t &gt;</text>
</g>
<!-- Node2 -->
<g id="node2" class="node"><title>Node2</title>
<g id="a_node2"><a xlink:href="struct_hist__t.html" target="_top" xlink:title="Hist_t\&lt; Tree_t \&gt;">
<polygon fill="white" stroke="black" points="484.5,-71.5 484.5,-90.5 573.5,-90.5 573.5,-71.5 484.5,-71.5"/>
<text text-anchor="middle" x="529" y="-78.5" font-family="Helvetica,sans-Serif" font-size="10.00">Hist_t&lt; Tree_t &gt;</text>
</a>
</g>
</g>
<!-- Node2&#45;&gt;Node1 -->
<g id="edge1" class="edge"><title>Node2&#45;&gt;Node1</title>
<path fill="none" stroke="#9a32cd" stroke-dasharray="5,2" d="M577.888,-69.0279C596.584,-64.3539 618.228,-58.9429 637.95,-54.0124"/>
<polygon fill="#9a32cd" stroke="#9a32cd" points="576.974,-65.6486 568.122,-71.4695 578.672,-72.4396 576.974,-65.6486"/>
<text text-anchor="middle" x="603" y="-68" font-family="Helvetica,sans-Serif" font-size="10.00"> Hist</text>
</g>
<!-- Node3 -->
<g id="node3" class="node"><title>Node3</title>
<g id="a_node3"><a xlink:href="struct_hist__t_1_1_hist_mgr.html" target="_top" xlink:title="Hist_t\&lt; Tree_t \&gt;::HistMgr\l\&lt; TH1D \&gt;">
<polygon fill="white" stroke="black" points="262.5,-100 262.5,-130 391.5,-130 391.5,-100 262.5,-100"/>
<text text-anchor="start" x="270.5" y="-118" font-family="Helvetica,sans-Serif" font-size="10.00">Hist_t&lt; Tree_t &gt;::HistMgr</text>
<text text-anchor="middle" x="327" y="-107" font-family="Helvetica,sans-Serif" font-size="10.00">&lt; TH1D &gt;</text>
</a>
</g>
</g>
<!-- Node3&#45;&gt;Node2 -->
<g id="edge2" class="edge"><title>Node3&#45;&gt;Node2</title>
<path fill="none" stroke="#9a32cd" stroke-dasharray="5,2" d="M401.629,-102.875C422.448,-99.4065 445.12,-95.5921 466,-92 471.926,-90.9806 478.167,-89.8915 484.314,-88.8096"/>
<polygon fill="#9a32cd" stroke="#9a32cd" points="400.864,-99.4539 391.573,-104.547 402.012,-106.359 400.864,-99.4539"/>
<text text-anchor="middle" x="438" y="-104" font-family="Helvetica,sans-Serif" font-size="10.00"> h1</text>
</g>
<!-- Node4 -->
<g id="node4" class="node"><title>Node4</title>
<g id="a_node4"><a xlink:title="STL class. ">
<polygon fill="white" stroke="#bfbfbf" points="118.5,-100 118.5,-130 215.5,-130 215.5,-100 118.5,-100"/>
<text text-anchor="start" x="126.5" y="-118" font-family="Helvetica,sans-Serif" font-size="10.00">std::list&lt; HistFiller</text>
<text text-anchor="middle" x="167" y="-107" font-family="Helvetica,sans-Serif" font-size="10.00">_t&lt; TH1D &gt; &gt;</text>
</a>
</g>
</g>
<!-- Node4&#45;&gt;Node3 -->
<g id="edge3" class="edge"><title>Node4&#45;&gt;Node3</title>
<path fill="none" stroke="midnightblue" d="M226.005,-108.466C237.81,-108.218 250.29,-108.183 262.281,-108.364"/>
<polygon fill="midnightblue" stroke="midnightblue" points="225.736,-104.972 215.834,-108.74 225.925,-111.97 225.736,-104.972"/>
</g>
<!-- Node4&#45;&gt;Node3 -->
<g id="edge5" class="edge"><title>Node4&#45;&gt;Node3</title>
<path fill="none" stroke="midnightblue" d="M226.005,-121.534C237.81,-121.782 250.29,-121.817 262.281,-121.636"/>
<polygon fill="midnightblue" stroke="midnightblue" points="225.925,-118.03 215.834,-121.26 225.736,-125.028 225.925,-118.03"/>
</g>
<!-- Node5 -->
<g id="node5" class="node"><title>Node5</title>
<polygon fill="white" stroke="#bfbfbf" points="0.5,-82.5 0.5,-101.5 29.5,-101.5 29.5,-82.5 0.5,-82.5"/>
<text text-anchor="middle" x="15" y="-89.5" font-family="Helvetica,sans-Serif" font-size="10.00">T</text>
</g>
<!-- Node5&#45;&gt;Node4 -->
<g id="edge4" class="edge"><title>Node5&#45;&gt;Node4</title>
<path fill="none" stroke="#9a32cd" stroke-dasharray="5,2" d="M39.5586,-95.6123C60.629,-98.8431 92.1528,-103.677 118.452,-107.709"/>
<polygon fill="#9a32cd" stroke="#9a32cd" points="39.991,-92.1378 29.5761,-94.0817 38.93,-99.0569 39.991,-92.1378"/>
<text text-anchor="middle" x="70" y="-107" font-family="Helvetica,sans-Serif" font-size="10.00"> elements</text>
</g>
<!-- Node7 -->
<g id="node7" class="node"><title>Node7</title>
<g id="a_node7"><a xlink:title="STL class. ">
<polygon fill="white" stroke="#bfbfbf" points="118.5,-51 118.5,-81 215.5,-81 215.5,-51 118.5,-51"/>
<text text-anchor="start" x="126.5" y="-69" font-family="Helvetica,sans-Serif" font-size="10.00">std::list&lt; HistFiller</text>
<text text-anchor="middle" x="167" y="-58" font-family="Helvetica,sans-Serif" font-size="10.00">_t&lt; TH2D &gt; &gt;</text>
</a>
</g>
</g>
<!-- Node5&#45;&gt;Node7 -->
<g id="edge8" class="edge"><title>Node5&#45;&gt;Node7</title>
<path fill="none" stroke="#9a32cd" stroke-dasharray="5,2" d="M39.187,-84.2536C42.1335,-83.4174 45.1236,-82.6397 48,-82 70.9049,-76.9062 96.6946,-73.1841 118.309,-70.6186"/>
<polygon fill="#9a32cd" stroke="#9a32cd" points="38.0998,-80.9261 29.5668,-87.206 40.1536,-87.618 38.0998,-80.9261"/>
<text text-anchor="middle" x="70" y="-85" font-family="Helvetica,sans-Serif" font-size="10.00"> elements</text>
</g>
<!-- Node6 -->
<g id="node6" class="node"><title>Node6</title>
<g id="a_node6"><a xlink:href="struct_hist__t_1_1_hist_mgr.html" target="_top" xlink:title="Hist_t\&lt; Tree_t \&gt;::HistMgr\l\&lt; TH2D \&gt;">
<polygon fill="white" stroke="black" points="262.5,-51 262.5,-81 391.5,-81 391.5,-51 262.5,-51"/>
<text text-anchor="start" x="270.5" y="-69" font-family="Helvetica,sans-Serif" font-size="10.00">Hist_t&lt; Tree_t &gt;::HistMgr</text>
<text text-anchor="middle" x="327" y="-58" font-family="Helvetica,sans-Serif" font-size="10.00">&lt; TH2D &gt;</text>
</a>
</g>
</g>
<!-- Node6&#45;&gt;Node2 -->
<g id="edge6" class="edge"><title>Node6&#45;&gt;Node2</title>
<path fill="none" stroke="#9a32cd" stroke-dasharray="5,2" d="M401.631,-71.5223C429.384,-73.6038 460.054,-75.904 484.229,-77.7172"/>
<polygon fill="#9a32cd" stroke="#9a32cd" points="401.79,-68.0245 391.556,-70.7667 401.266,-75.0049 401.79,-68.0245"/>
<text text-anchor="middle" x="438" y="-80" font-family="Helvetica,sans-Serif" font-size="10.00"> h2</text>
</g>
<!-- Node7&#45;&gt;Node6 -->
<g id="edge7" class="edge"><title>Node7&#45;&gt;Node6</title>
<path fill="none" stroke="midnightblue" d="M226.005,-59.4665C237.81,-59.2177 250.29,-59.1833 262.281,-59.3635"/>
<polygon fill="midnightblue" stroke="midnightblue" points="225.736,-55.9724 215.834,-59.7404 225.925,-62.9698 225.736,-55.9724"/>
</g>
<!-- Node7&#45;&gt;Node6 -->
<g id="edge9" class="edge"><title>Node7&#45;&gt;Node6</title>
<path fill="none" stroke="midnightblue" d="M226.005,-72.5335C237.81,-72.7823 250.29,-72.8167 262.281,-72.6365"/>
<polygon fill="midnightblue" stroke="midnightblue" points="225.925,-69.0302 215.834,-72.2596 225.736,-76.0276 225.925,-69.0302"/>
</g>
<!-- Node8 -->
<g id="node8" class="node"><title>Node8</title>
<g id="a_node8"><a xlink:href="classant_1_1analysis_1_1_histogram_factory.html" target="_top" xlink:title="ant::analysis::Histogram\lFactory">
<polygon fill="white" stroke="black" points="265.5,-0 265.5,-30 388.5,-30 388.5,-0 265.5,-0"/>
<text text-anchor="start" x="273.5" y="-18" font-family="Helvetica,sans-Serif" font-size="10.00">ant::analysis::Histogram</text>
<text text-anchor="middle" x="327" y="-7" font-family="Helvetica,sans-Serif" font-size="10.00">Factory</text>
</a>
</g>
</g>
<!-- Node8&#45;&gt;Node1 -->
<g id="edge13" class="edge"><title>Node8&#45;&gt;Node1</title>
<path fill="none" stroke="#9a32cd" stroke-dasharray="5,2" d="M398.769,-19.5904C466.013,-23.9522 566.342,-30.46 631.974,-34.7172"/>
<polygon fill="#9a32cd" stroke="#9a32cd" points="398.889,-16.091 388.684,-18.9362 398.436,-23.0763 398.889,-16.091"/>
<text text-anchor="middle" x="529" y="-34" font-family="Helvetica,sans-Serif" font-size="10.00"> HistFac</text>
</g>
<!-- Node8&#45;&gt;Node2 -->
<g id="edge10" class="edge"><title>Node8&#45;&gt;Node2</title>
<path fill="none" stroke="#9a32cd" stroke-dasharray="5,2" d="M388.445,-33.0726C412.653,-40.5086 440.741,-49.3864 466,-58 478.279,-62.1872 491.798,-67.1592 503.07,-71.4074"/>
<polygon fill="#9a32cd" stroke="#9a32cd" points="389.265,-29.6632 378.678,-30.0857 387.217,-36.3572 389.265,-29.6632"/>
<text text-anchor="middle" x="438" y="-61" font-family="Helvetica,sans-Serif" font-size="10.00"> HistFac</text>
</g>
<!-- Node9 -->
<g id="node9" class="node"><title>Node9</title>
<g id="a_node9"><a xlink:href="classant_1_1_bin_settings.html" target="_top" xlink:title="ant::BinSettings">
<polygon fill="white" stroke="black" points="284,-149.5 284,-168.5 370,-168.5 370,-149.5 284,-149.5"/>
<text text-anchor="middle" x="327" y="-156.5" font-family="Helvetica,sans-Serif" font-size="10.00">ant::BinSettings</text>
</a>
</g>
</g>
<!-- Node9&#45;&gt;Node2 -->
<g id="edge11" class="edge"><title>Node9&#45;&gt;Node2</title>
<path fill="none" stroke="#9a32cd" stroke-dasharray="5,2" d="M376.219,-146.686C403.139,-139.144 436.996,-128.537 466,-116 482.792,-108.742 500.891,-98.1778 513.172,-90.5564"/>
<polygon fill="#9a32cd" stroke="#9a32cd" points="374.979,-143.397 366.266,-149.424 376.836,-150.146 374.979,-143.397"/>
<text text-anchor="middle" x="438" y="-250" font-family="Helvetica,sans-Serif" font-size="10.00"> vetoEbins</text>
<text text-anchor="middle" x="438" y="-239" font-family="Helvetica,sans-Serif" font-size="10.00">TaggTime</text>
<text text-anchor="middle" x="438" y="-228" font-family="Helvetica,sans-Serif" font-size="10.00">pEbins</text>
<text text-anchor="middle" x="438" y="-217" font-family="Helvetica,sans-Serif" font-size="10.00">Chi2Bins</text>
<text text-anchor="middle" x="438" y="-206" font-family="Helvetica,sans-Serif" font-size="10.00">pThetaBins</text>
<text text-anchor="middle" x="438" y="-195" font-family="Helvetica,sans-Serif" font-size="10.00">CoplBins</text>
<text text-anchor="middle" x="438" y="-184" font-family="Helvetica,sans-Serif" font-size="10.00">MMbins</text>
<text text-anchor="middle" x="438" y="-173" font-family="Helvetica,sans-Serif" font-size="10.00">zVertex</text>
<text text-anchor="middle" x="438" y="-162" font-family="Helvetica,sans-Serif" font-size="10.00">TaggChBins</text>
<text text-anchor="middle" x="438" y="-151" font-family="Helvetica,sans-Serif" font-size="10.00">PSARBins</text>
<text text-anchor="middle" x="438" y="-140" font-family="Helvetica,sans-Serif" font-size="10.00">...</text>
</g>
<!-- Node10 -->
<g id="node10" class="node"><title>Node10</title>
<g id="a_node10"><a xlink:href="classant_1_1interval.html" target="_top" xlink:title="ant::interval\&lt; double \&gt;">
<polygon fill="white" stroke="black" points="110,-149.5 110,-168.5 224,-168.5 224,-149.5 110,-149.5"/>
<text text-anchor="middle" x="167" y="-156.5" font-family="Helvetica,sans-Serif" font-size="10.00">ant::interval&lt; double &gt;</text>
</a>
</g>
</g>
<!-- Node10&#45;&gt;Node9 -->
<g id="edge12" class="edge"><title>Node10&#45;&gt;Node9</title>
<path fill="none" stroke="midnightblue" d="M234.459,-159C251.221,-159 268.756,-159 283.941,-159"/>
<polygon fill="midnightblue" stroke="midnightblue" points="234.15,-155.5 224.15,-159 234.15,-162.5 234.15,-155.5"/>
</g>
</g>
</svg>
