<?xml version="1.0" encoding="UTF-8" standalone="no"?>
<!DOCTYPE svg PUBLIC "-//W3C//DTD SVG 1.1//EN"
 "http://www.w3.org/Graphics/SVG/1.1/DTD/svg11.dtd">
<!-- Generated by graphviz version 2.36.0 (20140111.2315)
 -->
<!-- Title: triplePi0_Plot::MCTrue_Splitter&lt; Hist_t &gt; Pages: 1 -->
<svg width="126pt" height="118pt"
 viewBox="0.00 0.00 126.00 118.00" xmlns="http://www.w3.org/2000/svg" xmlns:xlink="http://www.w3.org/1999/xlink">
<g id="graph0" class="graph" transform="scale(1 1) rotate(0) translate(4 114)">
<title>triplePi0_Plot::MCTrue_Splitter&lt; Hist_t &gt;</title>
<polygon fill="white" stroke="none" points="-4,4 -4,-114 122,-114 122,4 -4,4"/>
<!-- Node2 -->
<g id="node1" class="node"><title>Node2</title>
<polygon fill="#bfbfbf" stroke="black" points="1,-1 1,-31 117,-31 117,-1 1,-1"/>
<text text-anchor="start" x="9" y="-19" font-family="Helvetica,sans-Serif" font-size="10.00">triplePi0_Plot::MCTrue</text>
<text text-anchor="middle" x="59" y="-8" font-family="Helvetica,sans-Serif" font-size="10.00">_Splitter&lt; Hist_t &gt;</text>
</g>
<!-- Node3 -->
<g id="node2" class="node"><title>Node3</title>
<g id="a_node2"><a xlink:href="structant_1_1analysis_1_1plot_1_1cuttree_1_1_stacked_hists__t.html" target="_top" xlink:title="ant::analysis::plot\l::cuttree::StackedHists\l_t\&lt; Hist_t \&gt;">
<polygon fill="white" stroke="black" points="0,-68.5 0,-109.5 118,-109.5 118,-68.5 0,-68.5"/>
<text text-anchor="start" x="8" y="-97.5" font-family="Helvetica,sans-Serif" font-size="10.00">ant::analysis::plot</text>
<text text-anchor="start" x="8" y="-86.5" font-family="Helvetica,sans-Serif" font-size="10.00">::cuttree::StackedHists</text>
<text text-anchor="middle" x="59" y="-75.5" font-family="Helvetica,sans-Serif" font-size="10.00">_t&lt; Hist_t &gt;</text>
</a>
</g>
</g>
<!-- Node3&#45;&gt;Node2 -->
<g id="edge1" class="edge"><title>Node3&#45;&gt;Node2</title>
<path fill="none" stroke="midnightblue" d="M59,-58.0188C59,-48.6567 59,-38.7696 59,-31.0485"/>
<polygon fill="midnightblue" stroke="midnightblue" points="55.5001,-58.2225 59,-68.2225 62.5001,-58.2226 55.5001,-58.2225"/>
</g>
</g>
</svg>
