<?xml version="1.0" encoding="UTF-8" standalone="no"?>
<!DOCTYPE svg PUBLIC "-//W3C//DTD SVG 1.1//EN"
 "http://www.w3.org/Graphics/SVG/1.1/DTD/svg11.dtd">
<!-- Generated by graphviz version 2.36.0 (20140111.2315)
 -->
<!-- Title: Data_t&lt; Tree_t &gt;::VariableManager_t&lt; Variable_t &gt; Pages: 1 -->
<svg width="285pt" height="188pt"
 viewBox="0.00 0.00 285.00 188.00" xmlns="http://www.w3.org/2000/svg" xmlns:xlink="http://www.w3.org/1999/xlink">
<g id="graph0" class="graph" transform="scale(1 1) rotate(0) translate(4 184)">
<title>Data_t&lt; Tree_t &gt;::VariableManager_t&lt; Variable_t &gt;</title>
<polygon fill="white" stroke="none" points="-4,4 -4,-184 281,-184 281,4 -4,4"/>
<!-- Node2 -->
<g id="node1" class="node"><title>Node2</title>
<polygon fill="#bfbfbf" stroke="black" points="111.5,-1 111.5,-31 244.5,-31 244.5,-1 111.5,-1"/>
<text text-anchor="start" x="119.5" y="-19" font-family="Helvetica,sans-Serif" font-size="10.00">Data_t&lt; Tree_t &gt;::Variable</text>
<text text-anchor="middle" x="178" y="-8" font-family="Helvetica,sans-Serif" font-size="10.00">Manager_t&lt; Variable_t &gt;</text>
</g>
<!-- Node3 -->
<g id="node2" class="node"><title>Node3</title>
<g id="a_node2"><a xlink:title="STL class. ">
<polygon fill="white" stroke="#bfbfbf" points="0,-81 0,-111 134,-111 134,-81 0,-81"/>
<text text-anchor="start" x="8" y="-99" font-family="Helvetica,sans-Serif" font-size="10.00">std::vector&lt; VariableGetter</text>
<text text-anchor="middle" x="67" y="-88" font-family="Helvetica,sans-Serif" font-size="10.00">_t&lt; Variable_t &gt; &gt;</text>
</a>
</g>
</g>
<!-- Node3&#45;&gt;Node2 -->
<g id="edge1" class="edge"><title>Node3&#45;&gt;Node2</title>
<path fill="none" stroke="midnightblue" d="M95.366,-75.0671C114.972,-61.2898 140.571,-43.3017 158.048,-31.0201"/>
<polygon fill="midnightblue" stroke="midnightblue" points="93.2709,-72.2616 87.1013,-80.8748 97.2955,-77.989 93.2709,-72.2616"/>
</g>
<!-- Node4 -->
<g id="node3" class="node"><title>Node4</title>
<polygon fill="white" stroke="#bfbfbf" points="52.5,-160.5 52.5,-179.5 81.5,-179.5 81.5,-160.5 52.5,-160.5"/>
<text text-anchor="middle" x="67" y="-167.5" font-family="Helvetica,sans-Serif" font-size="10.00">T</text>
</g>
<!-- Node4&#45;&gt;Node3 -->
<g id="edge2" class="edge"><title>Node4&#45;&gt;Node3</title>
<path fill="none" stroke="#9a32cd" stroke-dasharray="5,2" d="M67,-150.085C67,-137.915 67,-122.354 67,-111.232"/>
<polygon fill="#9a32cd" stroke="#9a32cd" points="63.5001,-150.458 67,-160.458 70.5001,-150.458 63.5001,-150.458"/>
<text text-anchor="middle" x="88.5" y="-133.5" font-family="Helvetica,sans-Serif" font-size="10.00"> elements</text>
</g>
<!-- Node5 -->
<g id="node4" class="node"><title>Node5</title>
<polygon fill="white" stroke="#bfbfbf" points="152.5,-86.5 152.5,-105.5 277.5,-105.5 277.5,-86.5 152.5,-86.5"/>
<text text-anchor="middle" x="215" y="-93.5" font-family="Helvetica,sans-Serif" font-size="10.00">std::vector&lt; Variable_t &gt;</text>
</g>
<!-- Node5&#45;&gt;Node2 -->
<g id="edge3" class="edge"><title>Node5&#45;&gt;Node2</title>
<path fill="none" stroke="#9a32cd" stroke-dasharray="5,2" d="M206.601,-77.2931C199.988,-63.3533 190.893,-44.1797 184.749,-31.227"/>
<polygon fill="#9a32cd" stroke="#9a32cd" points="203.451,-78.8196 210.899,-86.3546 209.775,-75.8195 203.451,-78.8196"/>
<text text-anchor="middle" x="215" y="-53.5" font-family="Helvetica,sans-Serif" font-size="10.00"> values</text>
</g>
</g>
</svg>
