<?xml version="1.0" encoding="UTF-8" standalone="no"?>
<!DOCTYPE svg PUBLIC "-//W3C//DTD SVG 1.1//EN"
 "http://www.w3.org/Graphics/SVG/1.1/DTD/svg11.dtd">
<!-- Generated by graphviz version 2.36.0 (20140111.2315)
 -->
<!-- Title: SigOmegaPi0Hist_t Pages: 1 -->
<svg width="886pt" height="392pt"
 viewBox="0.00 0.00 886.00 392.00" xmlns="http://www.w3.org/2000/svg" xmlns:xlink="http://www.w3.org/1999/xlink">
<g id="graph0" class="graph" transform="scale(1 1) rotate(0) translate(4 388)">
<title>SigOmegaPi0Hist_t</title>
<polygon fill="white" stroke="none" points="-4,4 -4,-388 882,-388 882,4 -4,4"/>
<!-- Node5 -->
<g id="node1" class="node"><title>Node5</title>
<polygon fill="#bfbfbf" stroke="black" points="774.5,-96.5 774.5,-115.5 877.5,-115.5 877.5,-96.5 774.5,-96.5"/>
<text text-anchor="middle" x="826" y="-103.5" font-family="Helvetica,sans-Serif" font-size="10.00">SigOmegaPi0Hist_t</text>
</g>
<!-- Node6 -->
<g id="node2" class="node"><title>Node6</title>
<g id="a_node2"><a xlink:href="struct_sig_hist__t.html" target="_top" xlink:title="SigHist_t">
<polygon fill="white" stroke="black" points="678.5,-96.5 678.5,-115.5 735.5,-115.5 735.5,-96.5 678.5,-96.5"/>
<text text-anchor="middle" x="707" y="-103.5" font-family="Helvetica,sans-Serif" font-size="10.00">SigHist_t</text>
</a>
</g>
</g>
<!-- Node6&#45;&gt;Node5 -->
<g id="edge1" class="edge"><title>Node6&#45;&gt;Node5</title>
<path fill="none" stroke="midnightblue" d="M745.885,-106C754.881,-106 764.622,-106 774.094,-106"/>
<polygon fill="midnightblue" stroke="midnightblue" points="745.727,-102.5 735.727,-106 745.727,-109.5 745.727,-102.5"/>
</g>
<!-- Node7 -->
<g id="node3" class="node"><title>Node7</title>
<g id="a_node3"><a xlink:href="struct_common_hist__t.html" target="_top" xlink:title="CommonHist_t">
<polygon fill="white" stroke="black" points="529.5,-0.5 529.5,-19.5 612.5,-19.5 612.5,-0.5 529.5,-0.5"/>
<text text-anchor="middle" x="571" y="-7.5" font-family="Helvetica,sans-Serif" font-size="10.00">CommonHist_t</text>
</a>
</g>
</g>
<!-- Node7&#45;&gt;Node6 -->
<g id="edge2" class="edge"><title>Node7&#45;&gt;Node6</title>
<path fill="none" stroke="midnightblue" d="M622.65,-22.3155C635.678,-27.0551 649.084,-33.4571 660,-42 679.396,-57.1798 694.258,-82.6536 701.373,-96.4409"/>
<polygon fill="midnightblue" stroke="midnightblue" points="623.404,-18.8763 612.81,-19.0072 621.173,-25.5114 623.404,-18.8763"/>
</g>
<!-- Node8 -->
<g id="node4" class="node"><title>Node8</title>
<g id="a_node4"><a xlink:href="classant_1_1_bin_settings.html" target="_top" xlink:title="ant::BinSettings">
<polygon fill="white" stroke="black" points="284,-46.5 284,-65.5 370,-65.5 370,-46.5 284,-46.5"/>
<text text-anchor="middle" x="327" y="-53.5" font-family="Helvetica,sans-Serif" font-size="10.00">ant::BinSettings</text>
</a>
</g>
</g>
<!-- Node8&#45;&gt;Node6 -->
<g id="edge20" class="edge"><title>Node8&#45;&gt;Node6</title>
<path fill="none" stroke="#9a32cd" stroke-dasharray="5,2" d="M380.365,-58.1509C442.713,-61.4123 549.754,-69.2297 640,-87 652.752,-89.511 666.61,-93.3282 678.32,-96.8841"/>
<polygon fill="#9a32cd" stroke="#9a32cd" points="380.169,-54.6367 370.005,-57.6296 379.817,-61.6278 380.169,-54.6367"/>
<text text-anchor="middle" x="571" y="-200" font-family="Helvetica,sans-Serif" font-size="10.00"> bins_IM_Etap</text>
<text text-anchor="middle" x="571" y="-189" font-family="Helvetica,sans-Serif" font-size="10.00">TaggTime</text>
<text text-anchor="middle" x="571" y="-178" font-family="Helvetica,sans-Serif" font-size="10.00">Chi2Bins</text>
<text text-anchor="middle" x="571" y="-167" font-family="Helvetica,sans-Serif" font-size="10.00">bins_ZVertex</text>
<text text-anchor="middle" x="571" y="-156" font-family="Helvetica,sans-Serif" font-size="10.00">bins_IM_Omega</text>
<text text-anchor="middle" x="571" y="-145" font-family="Helvetica,sans-Serif" font-size="10.00">CoplBins</text>
<text text-anchor="middle" x="571" y="-134" font-family="Helvetica,sans-Serif" font-size="10.00">free_vz</text>
<text text-anchor="middle" x="571" y="-123" font-family="Helvetica,sans-Serif" font-size="10.00">MMbins</text>
<text text-anchor="middle" x="571" y="-112" font-family="Helvetica,sans-Serif" font-size="10.00">zVertex</text>
<text text-anchor="middle" x="571" y="-101" font-family="Helvetica,sans-Serif" font-size="10.00">TaggChBins</text>
<text text-anchor="middle" x="571" y="-90" font-family="Helvetica,sans-Serif" font-size="10.00">...</text>
</g>
<!-- Node8&#45;&gt;Node7 -->
<g id="edge3" class="edge"><title>Node8&#45;&gt;Node7</title>
<path fill="none" stroke="#9a32cd" stroke-dasharray="5,2" d="M354.06,-41.7372C369.78,-33.8603 390.481,-24.7364 410,-20 449.759,-10.3522 496.614,-8.48704 529.305,-8.64777"/>
<polygon fill="#9a32cd" stroke="#9a32cd" points="352.251,-38.7322 344.972,-46.4302 355.463,-44.952 352.251,-38.7322"/>
<text text-anchor="middle" x="447" y="-34" font-family="Helvetica,sans-Serif" font-size="10.00"> bins_LogFitProb</text>
<text text-anchor="middle" x="447" y="-23" font-family="Helvetica,sans-Serif" font-size="10.00">bins_FitProb</text>
</g>
<!-- Node10 -->
<g id="node6" class="node"><title>Node10</title>
<g id="a_node6"><a xlink:href="struct_hist__t.html" target="_top" xlink:title="Hist_t\&lt; physics::EtapDalitz\l::SigTree_t \&gt;">
<polygon fill="white" stroke="black" points="502.5,-218 502.5,-248 639.5,-248 639.5,-218 502.5,-218"/>
<text text-anchor="start" x="510.5" y="-236" font-family="Helvetica,sans-Serif" font-size="10.00">Hist_t&lt; physics::EtapDalitz</text>
<text text-anchor="middle" x="571" y="-225" font-family="Helvetica,sans-Serif" font-size="10.00">::SigTree_t &gt;</text>
</a>
</g>
</g>
<!-- Node8&#45;&gt;Node10 -->
<g id="edge15" class="edge"><title>Node8&#45;&gt;Node10</title>
<path fill="none" stroke="#9a32cd" stroke-dasharray="5,2" d="M379.892,-65.0952C419.507,-73.0779 469.655,-85.7749 484,-101 508.992,-127.526 482.345,-150.31 502,-181 511.859,-196.394 527.942,-208.999 541.992,-217.942"/>
<polygon fill="#9a32cd" stroke="#9a32cd" points="380.563,-61.6601 370.076,-63.1686 379.214,-68.5291 380.563,-61.6601"/>
<text text-anchor="middle" x="447" y="-214" font-family="Helvetica,sans-Serif" font-size="10.00"> vetoEbins</text>
<text text-anchor="middle" x="447" y="-203" font-family="Helvetica,sans-Serif" font-size="10.00">TaggTime</text>
<text text-anchor="middle" x="447" y="-192" font-family="Helvetica,sans-Serif" font-size="10.00">pEbins</text>
<text text-anchor="middle" x="447" y="-181" font-family="Helvetica,sans-Serif" font-size="10.00">Chi2Bins</text>
<text text-anchor="middle" x="447" y="-170" font-family="Helvetica,sans-Serif" font-size="10.00">pThetaBins</text>
<text text-anchor="middle" x="447" y="-159" font-family="Helvetica,sans-Serif" font-size="10.00">CoplBins</text>
<text text-anchor="middle" x="447" y="-148" font-family="Helvetica,sans-Serif" font-size="10.00">MMbins</text>
<text text-anchor="middle" x="447" y="-137" font-family="Helvetica,sans-Serif" font-size="10.00">zVertex</text>
<text text-anchor="middle" x="447" y="-126" font-family="Helvetica,sans-Serif" font-size="10.00">TaggChBins</text>
<text text-anchor="middle" x="447" y="-115" font-family="Helvetica,sans-Serif" font-size="10.00">PSARBins</text>
<text text-anchor="middle" x="447" y="-104" font-family="Helvetica,sans-Serif" font-size="10.00">...</text>
</g>
<!-- Node9 -->
<g id="node5" class="node"><title>Node9</title>
<g id="a_node5"><a xlink:href="classant_1_1interval.html" target="_top" xlink:title="ant::interval\&lt; double \&gt;">
<polygon fill="white" stroke="black" points="110,-46.5 110,-65.5 224,-65.5 224,-46.5 110,-46.5"/>
<text text-anchor="middle" x="167" y="-53.5" font-family="Helvetica,sans-Serif" font-size="10.00">ant::interval&lt; double &gt;</text>
</a>
</g>
</g>
<!-- Node9&#45;&gt;Node8 -->
<g id="edge4" class="edge"><title>Node9&#45;&gt;Node8</title>
<path fill="none" stroke="midnightblue" d="M234.459,-56C251.221,-56 268.756,-56 283.941,-56"/>
<polygon fill="midnightblue" stroke="midnightblue" points="234.15,-52.5001 224.15,-56 234.15,-59.5001 234.15,-52.5001"/>
</g>
<!-- Node10&#45;&gt;Node6 -->
<g id="edge5" class="edge"><title>Node10&#45;&gt;Node6</title>
<path fill="none" stroke="midnightblue" d="M602.118,-211.953C614.315,-202.931 628.26,-191.959 640,-181 663.076,-159.46 686.699,-130.64 698.428,-115.778"/>
<polygon fill="midnightblue" stroke="midnightblue" points="600.025,-209.148 594.002,-217.864 604.146,-214.806 600.025,-209.148"/>
</g>
<!-- Node11 -->
<g id="node7" class="node"><title>Node11</title>
<g id="a_node7"><a xlink:href="struct_hist__t_1_1_hist_mgr.html" target="_top" xlink:title="Hist_t\&lt; Tree_t \&gt;::HistMgr\l\&lt; TH1D \&gt;">
<polygon fill="white" stroke="black" points="262.5,-256 262.5,-286 391.5,-286 391.5,-256 262.5,-256"/>
<text text-anchor="start" x="270.5" y="-274" font-family="Helvetica,sans-Serif" font-size="10.00">Hist_t&lt; Tree_t &gt;::HistMgr</text>
<text text-anchor="middle" x="327" y="-263" font-family="Helvetica,sans-Serif" font-size="10.00">&lt; TH1D &gt;</text>
</a>
</g>
</g>
<!-- Node11&#45;&gt;Node10 -->
<g id="edge6" class="edge"><title>Node11&#45;&gt;Node10</title>
<path fill="none" stroke="#9a32cd" stroke-dasharray="5,2" d="M401.764,-259.417C433.73,-254.398 470.914,-248.559 502.182,-243.649"/>
<polygon fill="#9a32cd" stroke="#9a32cd" points="400.919,-256.007 391.583,-261.016 402.005,-262.922 400.919,-256.007"/>
<text text-anchor="middle" x="447" y="-261" font-family="Helvetica,sans-Serif" font-size="10.00"> h1</text>
</g>
<!-- Node12 -->
<g id="node8" class="node"><title>Node12</title>
<g id="a_node8"><a xlink:title="STL class. ">
<polygon fill="white" stroke="#bfbfbf" points="118.5,-256 118.5,-286 215.5,-286 215.5,-256 118.5,-256"/>
<text text-anchor="start" x="126.5" y="-274" font-family="Helvetica,sans-Serif" font-size="10.00">std::list&lt; HistFiller</text>
<text text-anchor="middle" x="167" y="-263" font-family="Helvetica,sans-Serif" font-size="10.00">_t&lt; TH1D &gt; &gt;</text>
</a>
</g>
</g>
<!-- Node12&#45;&gt;Node11 -->
<g id="edge7" class="edge"><title>Node12&#45;&gt;Node11</title>
<path fill="none" stroke="midnightblue" d="M226.005,-264.466C237.81,-264.218 250.29,-264.183 262.281,-264.364"/>
<polygon fill="midnightblue" stroke="midnightblue" points="225.736,-260.972 215.834,-264.74 225.925,-267.97 225.736,-260.972"/>
</g>
<!-- Node12&#45;&gt;Node11 -->
<g id="edge9" class="edge"><title>Node12&#45;&gt;Node11</title>
<path fill="none" stroke="midnightblue" d="M226.005,-277.534C237.81,-277.782 250.29,-277.817 262.281,-277.636"/>
<polygon fill="midnightblue" stroke="midnightblue" points="225.925,-274.03 215.834,-277.26 225.736,-281.028 225.925,-274.03"/>
</g>
<!-- Node18 -->
<g id="node14" class="node"><title>Node18</title>
<g id="a_node14"><a xlink:href="structq2_hist__var__t_1_1q2_hist_mgr.html" target="_top" xlink:title="q2Hist_var_t\&lt; Tree\l_t \&gt;::q2HistMgr\&lt; TH1D \&gt;">
<polygon fill="white" stroke="black" points="262.5,-354 262.5,-384 391.5,-384 391.5,-354 262.5,-354"/>
<text text-anchor="start" x="270.5" y="-372" font-family="Helvetica,sans-Serif" font-size="10.00">q2Hist_var_t&lt; Tree</text>
<text text-anchor="middle" x="327" y="-361" font-family="Helvetica,sans-Serif" font-size="10.00">_t &gt;::q2HistMgr&lt; TH1D &gt;</text>
</a>
</g>
</g>
<!-- Node12&#45;&gt;Node18 -->
<g id="edge18" class="edge"><title>Node12&#45;&gt;Node18</title>
<path fill="none" stroke="midnightblue" d="M192.056,-292.845C210.273,-308.574 236.445,-329.492 262,-344 268.432,-347.651 275.502,-351.001 282.524,-353.98"/>
<polygon fill="midnightblue" stroke="midnightblue" points="194.104,-289.986 184.277,-286.025 189.489,-295.249 194.104,-289.986"/>
</g>
<!-- Node13 -->
<g id="node9" class="node"><title>Node13</title>
<polygon fill="white" stroke="#bfbfbf" points="0.5,-238.5 0.5,-257.5 29.5,-257.5 29.5,-238.5 0.5,-238.5"/>
<text text-anchor="middle" x="15" y="-245.5" font-family="Helvetica,sans-Serif" font-size="10.00">T</text>
</g>
<!-- Node13&#45;&gt;Node12 -->
<g id="edge8" class="edge"><title>Node13&#45;&gt;Node12</title>
<path fill="none" stroke="#9a32cd" stroke-dasharray="5,2" d="M39.5586,-251.612C60.629,-254.843 92.1528,-259.677 118.452,-263.709"/>
<polygon fill="#9a32cd" stroke="#9a32cd" points="39.991,-248.138 29.5761,-250.082 38.93,-255.057 39.991,-248.138"/>
<text text-anchor="middle" x="70" y="-263" font-family="Helvetica,sans-Serif" font-size="10.00"> elements</text>
</g>
<!-- Node15 -->
<g id="node11" class="node"><title>Node15</title>
<g id="a_node11"><a xlink:title="STL class. ">
<polygon fill="white" stroke="#bfbfbf" points="118.5,-207 118.5,-237 215.5,-237 215.5,-207 118.5,-207"/>
<text text-anchor="start" x="126.5" y="-225" font-family="Helvetica,sans-Serif" font-size="10.00">std::list&lt; HistFiller</text>
<text text-anchor="middle" x="167" y="-214" font-family="Helvetica,sans-Serif" font-size="10.00">_t&lt; TH2D &gt; &gt;</text>
</a>
</g>
</g>
<!-- Node13&#45;&gt;Node15 -->
<g id="edge12" class="edge"><title>Node13&#45;&gt;Node15</title>
<path fill="none" stroke="#9a32cd" stroke-dasharray="5,2" d="M39.187,-240.254C42.1335,-239.417 45.1236,-238.64 48,-238 70.9049,-232.906 96.6946,-229.184 118.309,-226.619"/>
<polygon fill="#9a32cd" stroke="#9a32cd" points="38.0998,-236.926 29.5668,-243.206 40.1536,-243.618 38.0998,-236.926"/>
<text text-anchor="middle" x="70" y="-241" font-family="Helvetica,sans-Serif" font-size="10.00"> elements</text>
</g>
<!-- Node14 -->
<g id="node10" class="node"><title>Node14</title>
<g id="a_node10"><a xlink:href="struct_hist__t_1_1_hist_mgr.html" target="_top" xlink:title="Hist_t\&lt; Tree_t \&gt;::HistMgr\l\&lt; TH2D \&gt;">
<polygon fill="white" stroke="black" points="262.5,-207 262.5,-237 391.5,-237 391.5,-207 262.5,-207"/>
<text text-anchor="start" x="270.5" y="-225" font-family="Helvetica,sans-Serif" font-size="10.00">Hist_t&lt; Tree_t &gt;::HistMgr</text>
<text text-anchor="middle" x="327" y="-214" font-family="Helvetica,sans-Serif" font-size="10.00">&lt; TH2D &gt;</text>
</a>
</g>
</g>
<!-- Node14&#45;&gt;Node10 -->
<g id="edge10" class="edge"><title>Node14&#45;&gt;Node10</title>
<path fill="none" stroke="#9a32cd" stroke-dasharray="5,2" d="M401.764,-225.353C433.73,-226.806 470.914,-228.496 502.182,-229.917"/>
<polygon fill="#9a32cd" stroke="#9a32cd" points="401.731,-221.848 391.583,-224.89 401.413,-228.841 401.731,-221.848"/>
<text text-anchor="middle" x="447" y="-232" font-family="Helvetica,sans-Serif" font-size="10.00"> h2</text>
</g>
<!-- Node15&#45;&gt;Node14 -->
<g id="edge11" class="edge"><title>Node15&#45;&gt;Node14</title>
<path fill="none" stroke="midnightblue" d="M226.005,-215.466C237.81,-215.218 250.29,-215.183 262.281,-215.364"/>
<polygon fill="midnightblue" stroke="midnightblue" points="225.736,-211.972 215.834,-215.74 225.925,-218.97 225.736,-211.972"/>
</g>
<!-- Node15&#45;&gt;Node14 -->
<g id="edge13" class="edge"><title>Node15&#45;&gt;Node14</title>
<path fill="none" stroke="midnightblue" d="M226.005,-228.534C237.81,-228.782 250.29,-228.817 262.281,-228.636"/>
<polygon fill="midnightblue" stroke="midnightblue" points="225.925,-225.03 215.834,-228.26 225.736,-232.028 225.925,-225.03"/>
</g>
<!-- Node16 -->
<g id="node12" class="node"><title>Node16</title>
<g id="a_node12"><a xlink:href="classant_1_1analysis_1_1_histogram_factory.html" target="_top" xlink:title="ant::analysis::Histogram\lFactory">
<polygon fill="white" stroke="black" points="265.5,-305 265.5,-335 388.5,-335 388.5,-305 265.5,-305"/>
<text text-anchor="start" x="273.5" y="-323" font-family="Helvetica,sans-Serif" font-size="10.00">ant::analysis::Histogram</text>
<text text-anchor="middle" x="327" y="-312" font-family="Helvetica,sans-Serif" font-size="10.00">Factory</text>
</a>
</g>
</g>
<!-- Node16&#45;&gt;Node10 -->
<g id="edge14" class="edge"><title>Node16&#45;&gt;Node10</title>
<path fill="none" stroke="#9a32cd" stroke-dasharray="5,2" d="M394.638,-302.193C422.551,-294.151 455.153,-283.99 484,-273 503.081,-265.731 523.854,-256.119 540.204,-248.139"/>
<polygon fill="#9a32cd" stroke="#9a32cd" points="393.632,-298.84 384.974,-304.947 395.55,-305.572 393.632,-298.84"/>
<text text-anchor="middle" x="447" y="-301" font-family="Helvetica,sans-Serif" font-size="10.00"> HistFac</text>
</g>
<!-- Node17 -->
<g id="node13" class="node"><title>Node17</title>
<g id="a_node13"><a xlink:href="structq2_hist__var__t.html" target="_top" xlink:title="q2Hist_var_t\&lt; physics\l::EtapDalitz::SigTree_t \&gt;">
<polygon fill="white" stroke="black" points="508.5,-320 508.5,-350 633.5,-350 633.5,-320 508.5,-320"/>
<text text-anchor="start" x="516.5" y="-338" font-family="Helvetica,sans-Serif" font-size="10.00">q2Hist_var_t&lt; physics</text>
<text text-anchor="middle" x="571" y="-327" font-family="Helvetica,sans-Serif" font-size="10.00">::EtapDalitz::SigTree_t &gt;</text>
</a>
</g>
</g>
<!-- Node16&#45;&gt;Node17 -->
<g id="edge19" class="edge"><title>Node16&#45;&gt;Node17</title>
<path fill="none" stroke="#9a32cd" stroke-dasharray="5,2" d="M398.828,-324.39C433.554,-326.543 474.979,-329.11 508.379,-331.18"/>
<polygon fill="#9a32cd" stroke="#9a32cd" points="398.952,-320.891 388.754,-323.766 398.519,-327.878 398.952,-320.891"/>
<text text-anchor="middle" x="447" y="-332" font-family="Helvetica,sans-Serif" font-size="10.00"> q2_hf</text>
</g>
<!-- Node17&#45;&gt;Node6 -->
<g id="edge16" class="edge"><title>Node17&#45;&gt;Node6</title>
<path fill="none" stroke="midnightblue" d="M594.933,-312.496C609.175,-297.663 627.149,-277.292 640,-257 671.38,-207.45 694.825,-140.429 702.922,-115.691"/>
<polygon fill="midnightblue" stroke="midnightblue" points="592.36,-310.121 587.873,-319.718 597.366,-315.014 592.36,-310.121"/>
</g>
<!-- Node18&#45;&gt;Node17 -->
<g id="edge17" class="edge"><title>Node18&#45;&gt;Node17</title>
<path fill="none" stroke="#9a32cd" stroke-dasharray="5,2" d="M401.923,-358.614C435.895,-353.841 475.734,-348.244 508.096,-343.697"/>
<polygon fill="#9a32cd" stroke="#9a32cd" points="400.998,-355.21 391.583,-360.067 401.972,-362.141 400.998,-355.21"/>
<text text-anchor="middle" x="447" y="-360" font-family="Helvetica,sans-Serif" font-size="10.00"> q2_hists</text>
</g>
</g>
</svg>
