<?xml version="1.0" encoding="UTF-8" standalone="no"?>
<!DOCTYPE svg PUBLIC "-//W3C//DTD SVG 1.1//EN"
 "http://www.w3.org/Graphics/SVG/1.1/DTD/svg11.dtd">
<!-- Generated by graphviz version 2.36.0 (20140111.2315)
 -->
<!-- Title: ClusteringTester Pages: 1 -->
<svg width="142pt" height="164pt"
 viewBox="0.00 0.00 142.00 164.00" xmlns="http://www.w3.org/2000/svg" xmlns:xlink="http://www.w3.org/1999/xlink">
<g id="graph0" class="graph" transform="scale(1 1) rotate(0) translate(4 160)">
<title>ClusteringTester</title>
<polygon fill="white" stroke="none" points="-4,4 -4,-160 138,-160 138,4 -4,4"/>
<!-- Node3 -->
<g id="node1" class="node"><title>Node3</title>
<polygon fill="#bfbfbf" stroke="black" points="22.5,-0.5 22.5,-19.5 111.5,-19.5 111.5,-0.5 22.5,-0.5"/>
<text text-anchor="middle" x="67" y="-7.5" font-family="Helvetica,sans-Serif" font-size="10.00">ClusteringTester</text>
</g>
<!-- Node4 -->
<g id="node2" class="node"><title>Node4</title>
<g id="a_node2"><a xlink:href="classant_1_1reconstruct_1_1_clustering___next_gen.html" target="_top" xlink:title="ant::reconstruct::Clustering\l_NextGen">
<polygon fill="white" stroke="black" points="-0.5,-57 -0.5,-87 134.5,-87 134.5,-57 -0.5,-57"/>
<text text-anchor="start" x="7.5" y="-75" font-family="Helvetica,sans-Serif" font-size="10.00">ant::reconstruct::Clustering</text>
<text text-anchor="middle" x="67" y="-64" font-family="Helvetica,sans-Serif" font-size="10.00">_NextGen</text>
</a>
</g>
</g>
<!-- Node4&#45;&gt;Node3 -->
<g id="edge1" class="edge"><title>Node4&#45;&gt;Node3</title>
<path fill="none" stroke="midnightblue" d="M67,-46.5858C67,-37.0743 67,-26.7864 67,-19.7305"/>
<polygon fill="midnightblue" stroke="midnightblue" points="63.5001,-46.7808 67,-56.7808 70.5001,-46.7809 63.5001,-46.7808"/>
</g>
<!-- Node5 -->
<g id="node3" class="node"><title>Node5</title>
<g id="a_node3"><a xlink:href="structant_1_1reconstruct_1_1_clustering__traits.html" target="_top" xlink:title="ant::reconstruct::Clustering\l_traits">
<polygon fill="white" stroke="black" points="-0.5,-125 -0.5,-155 134.5,-155 134.5,-125 -0.5,-125"/>
<text text-anchor="start" x="7.5" y="-143" font-family="Helvetica,sans-Serif" font-size="10.00">ant::reconstruct::Clustering</text>
<text text-anchor="middle" x="67" y="-132" font-family="Helvetica,sans-Serif" font-size="10.00">_traits</text>
</a>
</g>
</g>
<!-- Node5&#45;&gt;Node4 -->
<g id="edge2" class="edge"><title>Node5&#45;&gt;Node4</title>
<path fill="none" stroke="midnightblue" d="M67,-114.532C67,-105.361 67,-95.2449 67,-87.2931"/>
<polygon fill="midnightblue" stroke="midnightblue" points="63.5001,-114.679 67,-124.679 70.5001,-114.679 63.5001,-114.679"/>
</g>
</g>
</svg>
