<?xml version="1.0" encoding="UTF-8" standalone="no"?>
<!DOCTYPE svg PUBLIC "-//W3C//DTD SVG 1.1//EN"
 "http://www.w3.org/Graphics/SVG/1.1/DTD/svg11.dtd">
<!-- Generated by graphviz version 2.36.0 (20140111.2315)
 -->
<!-- Title: SigHist_t::Fill_t Pages: 1 -->
<svg width="1596pt" height="439pt"
 viewBox="0.00 0.00 1596.00 438.52" xmlns="http://www.w3.org/2000/svg" xmlns:xlink="http://www.w3.org/1999/xlink">
<g id="graph0" class="graph" transform="scale(1 1) rotate(0) translate(4 434.519)">
<title>SigHist_t::Fill_t</title>
<polygon fill="white" stroke="none" points="-4,4 -4,-434.519 1592,-434.519 1592,4 -4,4"/>
<!-- Node4 -->
<g id="node1" class="node"><title>Node4</title>
<polygon fill="#bfbfbf" stroke="black" points="1504,-315.5 1504,-334.5 1588,-334.5 1588,-315.5 1504,-315.5"/>
<text text-anchor="middle" x="1546" y="-322.5" font-family="Helvetica,sans-Serif" font-size="10.00">SigHist_t::Fill_t</text>
</g>
<!-- Node5 -->
<g id="node2" class="node"><title>Node5</title>
<g id="a_node2"><a xlink:href="struct_common_hist__t_1_1_fill__t.html" target="_top" xlink:title="CommonHist_t::Fill_t">
<polygon fill="white" stroke="black" points="1331,-315.5 1331,-334.5 1441,-334.5 1441,-315.5 1331,-315.5"/>
<text text-anchor="middle" x="1386" y="-322.5" font-family="Helvetica,sans-Serif" font-size="10.00">CommonHist_t::Fill_t</text>
</a>
</g>
</g>
<!-- Node5&#45;&gt;Node4 -->
<g id="edge1" class="edge"><title>Node5&#45;&gt;Node4</title>
<path fill="none" stroke="midnightblue" d="M1451.56,-325C1469.1,-325 1487.62,-325 1503.51,-325"/>
<polygon fill="midnightblue" stroke="midnightblue" points="1451.37,-321.5 1441.37,-325 1451.37,-328.5 1451.37,-321.5"/>
</g>
<!-- Node6 -->
<g id="node3" class="node"><title>Node6</title>
<g id="a_node3"><a xlink:href="structant_1_1analysis_1_1physics_1_1_etap_omega_g_1_1_proton_photon_tree__t.html" target="_top" xlink:title="ant::analysis::physics\l::EtapOmegaG::ProtonPhotonTree_t">
<polygon fill="white" stroke="black" points="940.5,-359 940.5,-389 1115.5,-389 1115.5,-359 940.5,-359"/>
<text text-anchor="start" x="948.5" y="-377" font-family="Helvetica,sans-Serif" font-size="10.00">ant::analysis::physics</text>
<text text-anchor="middle" x="1028" y="-366" font-family="Helvetica,sans-Serif" font-size="10.00">::EtapOmegaG::ProtonPhotonTree_t</text>
</a>
</g>
</g>
<!-- Node6&#45;&gt;Node5 -->
<g id="edge2" class="edge"><title>Node6&#45;&gt;Node5</title>
<path fill="none" stroke="#9a32cd" stroke-dasharray="5,2" d="M1125.61,-364.169C1179.93,-358.175 1248.91,-349.791 1310,-340 1319.83,-338.424 1330.34,-336.484 1340.29,-334.529"/>
<polygon fill="#9a32cd" stroke="#9a32cd" points="1125.2,-360.692 1115.64,-365.26 1125.96,-367.651 1125.2,-360.692"/>
<text text-anchor="middle" x="1222" y="-366" font-family="Helvetica,sans-Serif" font-size="10.00"> ProtonPhoton</text>
</g>
<!-- Node7 -->
<g id="node4" class="node"><title>Node7</title>
<g id="a_node4"><a xlink:href="classant_1_1_wrap_t_tree.html" target="_top" xlink:title="The WrapTTree struct simplifies TTree handling in physics classes. ">
<polygon fill="white" stroke="black" points="803.5,-217.5 803.5,-236.5 888.5,-236.5 888.5,-217.5 803.5,-217.5"/>
<text text-anchor="middle" x="846" y="-224.5" font-family="Helvetica,sans-Serif" font-size="10.00">ant::WrapTTree</text>
</a>
</g>
</g>
<!-- Node7&#45;&gt;Node6 -->
<g id="edge3" class="edge"><title>Node7&#45;&gt;Node6</title>
<path fill="none" stroke="midnightblue" d="M856.258,-245.718C870.523,-272.619 900.424,-321.945 940,-349 945.708,-352.902 952.025,-356.202 958.571,-358.99"/>
<polygon fill="midnightblue" stroke="midnightblue" points="859.255,-243.892 851.569,-236.599 853.029,-247.093 859.255,-243.892"/>
</g>
<!-- Node8 -->
<g id="node5" class="node"><title>Node8</title>
<g id="a_node5"><a xlink:href="structant_1_1analysis_1_1utils_1_1_m_c_weighting_1_1tree__t.html" target="_top" xlink:title="ant::analysis::utils\l::MCWeighting::tree_t">
<polygon fill="white" stroke="black" points="971.5,-310 971.5,-340 1084.5,-340 1084.5,-310 971.5,-310"/>
<text text-anchor="start" x="979.5" y="-328" font-family="Helvetica,sans-Serif" font-size="10.00">ant::analysis::utils</text>
<text text-anchor="middle" x="1028" y="-317" font-family="Helvetica,sans-Serif" font-size="10.00">::MCWeighting::tree_t</text>
</a>
</g>
</g>
<!-- Node7&#45;&gt;Node8 -->
<g id="edge5" class="edge"><title>Node7&#45;&gt;Node8</title>
<path fill="none" stroke="midnightblue" d="M863.948,-243.658C881.586,-260.138 910.681,-285.009 940,-300 949.795,-305.008 960.738,-309.147 971.469,-312.517"/>
<polygon fill="midnightblue" stroke="midnightblue" points="866.345,-241.107 856.691,-236.742 861.515,-246.174 866.345,-241.107"/>
</g>
<!-- Node9 -->
<g id="node6" class="node"><title>Node9</title>
<g id="a_node6"><a xlink:href="structant_1_1analysis_1_1physics_1_1_etap_omega_g_1_1_tree_common.html" target="_top" xlink:title="ant::analysis::physics\l::EtapOmegaG::TreeCommon">
<polygon fill="white" stroke="black" points="954.5,-261 954.5,-291 1101.5,-291 1101.5,-261 954.5,-261"/>
<text text-anchor="start" x="962.5" y="-279" font-family="Helvetica,sans-Serif" font-size="10.00">ant::analysis::physics</text>
<text text-anchor="middle" x="1028" y="-268" font-family="Helvetica,sans-Serif" font-size="10.00">::EtapOmegaG::TreeCommon</text>
</a>
</g>
</g>
<!-- Node7&#45;&gt;Node9 -->
<g id="edge7" class="edge"><title>Node7&#45;&gt;Node9</title>
<path fill="none" stroke="midnightblue" d="M892.101,-239.278C916.258,-245.854 946.218,-254.009 971.762,-260.963"/>
<polygon fill="midnightblue" stroke="midnightblue" points="892.701,-235.814 882.133,-236.564 890.863,-242.568 892.701,-235.814"/>
</g>
<!-- Node11 -->
<g id="node8" class="node"><title>Node11</title>
<g id="a_node8"><a xlink:href="structant_1_1analysis_1_1physics_1_1_etap_dalitz_1_1common__tree.html" target="_top" xlink:title="ant::analysis::physics\l::EtapDalitz::common_tree">
<polygon fill="white" stroke="black" points="961,-212 961,-242 1095,-242 1095,-212 961,-212"/>
<text text-anchor="start" x="969" y="-230" font-family="Helvetica,sans-Serif" font-size="10.00">ant::analysis::physics</text>
<text text-anchor="middle" x="1028" y="-219" font-family="Helvetica,sans-Serif" font-size="10.00">::EtapDalitz::common_tree</text>
</a>
</g>
</g>
<!-- Node7&#45;&gt;Node11 -->
<g id="edge10" class="edge"><title>Node7&#45;&gt;Node11</title>
<path fill="none" stroke="midnightblue" d="M898.859,-227C918.177,-227 940.373,-227 960.805,-227"/>
<polygon fill="midnightblue" stroke="midnightblue" points="898.748,-223.5 888.748,-227 898.748,-230.5 898.748,-223.5"/>
</g>
<!-- Node12 -->
<g id="node9" class="node"><title>Node12</title>
<g id="a_node9"><a xlink:href="structant_1_1analysis_1_1physics_1_1_etap_dalitz_1_1proton__tree.html" target="_top" xlink:title="ant::analysis::physics\l::EtapDalitz::proton_tree">
<polygon fill="white" stroke="black" points="966.5,-163 966.5,-193 1089.5,-193 1089.5,-163 966.5,-163"/>
<text text-anchor="start" x="974.5" y="-181" font-family="Helvetica,sans-Serif" font-size="10.00">ant::analysis::physics</text>
<text text-anchor="middle" x="1028" y="-170" font-family="Helvetica,sans-Serif" font-size="10.00">::EtapDalitz::proton_tree</text>
</a>
</g>
</g>
<!-- Node7&#45;&gt;Node12 -->
<g id="edge12" class="edge"><title>Node7&#45;&gt;Node12</title>
<path fill="none" stroke="midnightblue" d="M892.101,-214.722C916.258,-208.146 946.218,-199.991 971.762,-193.037"/>
<polygon fill="midnightblue" stroke="midnightblue" points="890.863,-211.432 882.133,-217.436 892.701,-218.186 890.863,-211.432"/>
</g>
<!-- Node13 -->
<g id="node10" class="node"><title>Node13</title>
<g id="a_node10"><a xlink:href="structant_1_1analysis_1_1physics_1_1_etap_dalitz_1_1photon__tree.html" target="_top" xlink:title="ant::analysis::physics\l::EtapDalitz::photon_tree\&lt; 3 \&gt;">
<polygon fill="white" stroke="black" points="953.5,-6 953.5,-36 1102.5,-36 1102.5,-6 953.5,-6"/>
<text text-anchor="start" x="961.5" y="-24" font-family="Helvetica,sans-Serif" font-size="10.00">ant::analysis::physics</text>
<text text-anchor="middle" x="1028" y="-13" font-family="Helvetica,sans-Serif" font-size="10.00">::EtapDalitz::photon_tree&lt; 3 &gt;</text>
</a>
</g>
</g>
<!-- Node7&#45;&gt;Node13 -->
<g id="edge14" class="edge"><title>Node7&#45;&gt;Node13</title>
<path fill="none" stroke="midnightblue" d="M851.475,-207.237C861.004,-169.764 886.904,-88.2697 940,-45 944.251,-41.5356 948.966,-38.57 953.938,-36.0314"/>
<polygon fill="midnightblue" stroke="midnightblue" points="847.975,-206.82 849.031,-217.362 854.78,-208.462 847.975,-206.82"/>
</g>
<!-- Node19 -->
<g id="node16" class="node"><title>Node19</title>
<g id="a_node16"><a xlink:href="structant_1_1analysis_1_1physics_1_1_etap_dalitz_1_1fit__tree.html" target="_top" xlink:title="ant::analysis::physics\l::EtapDalitz::fit_tree\&lt; 3 \&gt;">
<polygon fill="white" stroke="black" points="964,-114 964,-144 1092,-144 1092,-114 964,-114"/>
<text text-anchor="start" x="972" y="-132" font-family="Helvetica,sans-Serif" font-size="10.00">ant::analysis::physics</text>
<text text-anchor="middle" x="1028" y="-121" font-family="Helvetica,sans-Serif" font-size="10.00">::EtapDalitz::fit_tree&lt; 3 &gt;</text>
</a>
</g>
</g>
<!-- Node7&#45;&gt;Node19 -->
<g id="edge21" class="edge"><title>Node7&#45;&gt;Node19</title>
<path fill="none" stroke="midnightblue" d="M863.587,-210.308C881.134,-193.543 910.337,-168.092 940,-153 947.401,-149.234 955.467,-145.999 963.605,-143.236"/>
<polygon fill="midnightblue" stroke="midnightblue" points="861.101,-207.843 856.385,-217.331 865.988,-212.855 861.101,-207.843"/>
</g>
<!-- Node20 -->
<g id="node17" class="node"><title>Node20</title>
<g id="a_node17"><a xlink:href="structant_1_1analysis_1_1physics_1_1_etap_dalitz_1_1fit__free_z__tree.html" target="_top" xlink:title="ant::analysis::physics\l::EtapDalitz::fit_freeZ\l_tree\&lt; 3 \&gt;">
<polygon fill="white" stroke="black" points="972,-54.5 972,-95.5 1084,-95.5 1084,-54.5 972,-54.5"/>
<text text-anchor="start" x="980" y="-83.5" font-family="Helvetica,sans-Serif" font-size="10.00">ant::analysis::physics</text>
<text text-anchor="start" x="980" y="-72.5" font-family="Helvetica,sans-Serif" font-size="10.00">::EtapDalitz::fit_freeZ</text>
<text text-anchor="middle" x="1028" y="-61.5" font-family="Helvetica,sans-Serif" font-size="10.00">_tree&lt; 3 &gt;</text>
</a>
</g>
</g>
<!-- Node7&#45;&gt;Node20 -->
<g id="edge23" class="edge"><title>Node7&#45;&gt;Node20</title>
<path fill="none" stroke="midnightblue" d="M856.371,-208.346C870.778,-181.496 900.852,-132.1 940,-104 949.442,-97.2226 960.573,-91.9523 971.663,-87.8807"/>
<polygon fill="midnightblue" stroke="midnightblue" points="853.149,-206.956 851.631,-217.442 859.357,-210.192 853.149,-206.956"/>
</g>
<!-- Node21 -->
<g id="node18" class="node"><title>Node21</title>
<g id="a_node18"><a xlink:href="structant_1_1analysis_1_1physics_1_1_etap_omega_g_1_1_sig__t_1_1_shared_tree__t.html" target="_top" xlink:title="ant::analysis::physics\l::EtapOmegaG::Sig_t::SharedTree_t">
<polygon fill="white" stroke="black" points="1134.5,-393 1134.5,-423 1309.5,-423 1309.5,-393 1134.5,-393"/>
<text text-anchor="start" x="1142.5" y="-411" font-family="Helvetica,sans-Serif" font-size="10.00">ant::analysis::physics</text>
<text text-anchor="middle" x="1222" y="-400" font-family="Helvetica,sans-Serif" font-size="10.00">::EtapOmegaG::Sig_t::SharedTree_t</text>
</a>
</g>
</g>
<!-- Node7&#45;&gt;Node21 -->
<g id="edge25" class="edge"><title>Node7&#45;&gt;Node21</title>
<path fill="none" stroke="midnightblue" d="M851.044,-246.718C859.835,-283.89 884.528,-363.674 940,-398 1004.65,-438.007 1094.65,-433.035 1155.22,-423.006"/>
<polygon fill="midnightblue" stroke="midnightblue" points="854.392,-245.651 848.809,-236.647 847.558,-247.168 854.392,-245.651"/>
</g>
<!-- Node8&#45;&gt;Node5 -->
<g id="edge4" class="edge"><title>Node8&#45;&gt;Node5</title>
<path fill="none" stroke="#9a32cd" stroke-dasharray="5,2" d="M1094.79,-325C1162.77,-325 1267.62,-325 1330.93,-325"/>
<polygon fill="#9a32cd" stroke="#9a32cd" points="1094.63,-321.5 1084.62,-325 1094.62,-328.5 1094.63,-321.5"/>
<text text-anchor="middle" x="1222" y="-328" font-family="Helvetica,sans-Serif" font-size="10.00"> MCWeighting</text>
</g>
<!-- Node9&#45;&gt;Node5 -->
<g id="edge6" class="edge"><title>Node9&#45;&gt;Node5</title>
<path fill="none" stroke="#9a32cd" stroke-dasharray="5,2" d="M1111.94,-284.339C1168.01,-290.393 1243.65,-299.367 1310,-310 1319.83,-311.576 1330.34,-313.516 1340.29,-315.471"/>
<polygon fill="#9a32cd" stroke="#9a32cd" points="1112.01,-280.828 1101.7,-283.243 1111.27,-287.788 1112.01,-280.828"/>
<text text-anchor="middle" x="1222" y="-313" font-family="Helvetica,sans-Serif" font-size="10.00"> Common</text>
</g>
<!-- Node10 -->
<g id="node7" class="node"><title>Node10</title>
<g id="a_node7"><a xlink:href="structant_1_1analysis_1_1physics_1_1_etap_dalitz_1_1_sig_tree__t.html" target="_top" xlink:title="ant::analysis::physics\l::EtapDalitz::SigTree_t">
<polygon fill="white" stroke="black" points="1328,-135 1328,-165 1444,-165 1444,-135 1328,-135"/>
<text text-anchor="start" x="1336" y="-153" font-family="Helvetica,sans-Serif" font-size="10.00">ant::analysis::physics</text>
<text text-anchor="middle" x="1386" y="-142" font-family="Helvetica,sans-Serif" font-size="10.00">::EtapDalitz::SigTree_t</text>
</a>
</g>
</g>
<!-- Node10&#45;&gt;Node4 -->
<g id="edge8" class="edge"><title>Node10&#45;&gt;Node4</title>
<path fill="none" stroke="#9a32cd" stroke-dasharray="5,2" d="M1407.63,-172.854C1442.49,-211.46 1511.62,-288.034 1536.13,-315.178"/>
<polygon fill="#9a32cd" stroke="#9a32cd" points="1410.04,-170.301 1400.75,-165.224 1404.85,-174.992 1410.04,-170.301"/>
<text text-anchor="middle" x="1474" y="-262" font-family="Helvetica,sans-Serif" font-size="10.00"> Tree</text>
</g>
<!-- Node11&#45;&gt;Node10 -->
<g id="edge9" class="edge"><title>Node11&#45;&gt;Node10</title>
<path fill="none" stroke="midnightblue" d="M1105.28,-217C1162.23,-208.673 1241.69,-195.232 1310,-177 1322.3,-173.717 1335.45,-169.306 1347.24,-165.003"/>
<polygon fill="midnightblue" stroke="midnightblue" points="1104.67,-213.552 1095.27,-218.444 1105.67,-220.48 1104.67,-213.552"/>
</g>
<!-- Node12&#45;&gt;Node10 -->
<g id="edge11" class="edge"><title>Node12&#45;&gt;Node10</title>
<path fill="none" stroke="midnightblue" d="M1099.84,-172.428C1166.8,-167.162 1265.99,-159.361 1327.99,-154.484"/>
<polygon fill="midnightblue" stroke="midnightblue" points="1099.49,-168.945 1089.79,-173.218 1100.04,-175.923 1099.49,-168.945"/>
</g>
<!-- Node13&#45;&gt;Node10 -->
<g id="edge13" class="edge"><title>Node13&#45;&gt;Node10</title>
<path fill="none" stroke="midnightblue" d="M1112.72,-32.8837C1170.3,-43.2429 1247.36,-61.5203 1310,-92 1332.79,-103.091 1355.3,-121.827 1369.62,-134.997"/>
<polygon fill="midnightblue" stroke="midnightblue" points="1113.03,-29.3834 1102.57,-31.1025 1111.82,-36.2781 1113.03,-29.3834"/>
</g>
<!-- Node14 -->
<g id="node11" class="node"><title>Node14</title>
<g id="a_node11"><a xlink:href="structant_1_1analysis_1_1physics_1_1_etap_dalitz_tools.html" target="_top" xlink:title="ant::analysis::physics\l::EtapDalitzTools">
<polygon fill="white" stroke="black" points="790,-6 790,-36 902,-36 902,-6 790,-6"/>
<text text-anchor="start" x="798" y="-24" font-family="Helvetica,sans-Serif" font-size="10.00">ant::analysis::physics</text>
<text text-anchor="middle" x="846" y="-13" font-family="Helvetica,sans-Serif" font-size="10.00">::EtapDalitzTools</text>
</a>
</g>
</g>
<!-- Node14&#45;&gt;Node13 -->
<g id="edge15" class="edge"><title>Node14&#45;&gt;Node13</title>
<path fill="none" stroke="midnightblue" d="M912.488,-21C925.809,-21 939.905,-21 953.483,-21"/>
<polygon fill="midnightblue" stroke="midnightblue" points="912.475,-17.5001 902.475,-21 912.475,-24.5001 912.475,-17.5001"/>
</g>
<!-- Node15 -->
<g id="node12" class="node"><title>Node15</title>
<g id="a_node12"><a xlink:href="structant_1_1analysis_1_1utils_1_1_cluster_tools.html" target="_top" xlink:title="ant::analysis::utils\l::ClusterTools">
<polygon fill="white" stroke="black" points="604,-6 604,-36 700,-36 700,-6 604,-6"/>
<text text-anchor="start" x="612" y="-24" font-family="Helvetica,sans-Serif" font-size="10.00">ant::analysis::utils</text>
<text text-anchor="middle" x="652" y="-13" font-family="Helvetica,sans-Serif" font-size="10.00">::ClusterTools</text>
</a>
</g>
</g>
<!-- Node15&#45;&gt;Node14 -->
<g id="edge16" class="edge"><title>Node15&#45;&gt;Node14</title>
<path fill="none" stroke="#9a32cd" stroke-dasharray="5,2" d="M710.589,-21C735.729,-21 765.077,-21 789.924,-21"/>
<polygon fill="#9a32cd" stroke="#9a32cd" points="710.461,-17.5001 700.461,-21 710.461,-24.5001 710.461,-17.5001"/>
<text text-anchor="middle" x="745" y="-24" font-family="Helvetica,sans-Serif" font-size="10.00"> clustertools</text>
</g>
<!-- Node16 -->
<g id="node13" class="node"><title>Node16</title>
<polygon fill="white" stroke="#bfbfbf" points="348.5,-0.5 348.5,-41.5 487.5,-41.5 487.5,-0.5 348.5,-0.5"/>
<text text-anchor="start" x="356.5" y="-29.5" font-family="Helvetica,sans-Serif" font-size="10.00">std::map&lt; Detector</text>
<text text-anchor="start" x="356.5" y="-18.5" font-family="Helvetica,sans-Serif" font-size="10.00">_t::Type_t, ant::analysis</text>
<text text-anchor="middle" x="418" y="-7.5" font-family="Helvetica,sans-Serif" font-size="10.00">::utils::ClusterTools::det_t &gt;</text>
</g>
<!-- Node16&#45;&gt;Node15 -->
<g id="edge17" class="edge"><title>Node16&#45;&gt;Node15</title>
<path fill="none" stroke="#9a32cd" stroke-dasharray="5,2" d="M497.927,-21C533.129,-21 573.421,-21 603.829,-21"/>
<polygon fill="#9a32cd" stroke="#9a32cd" points="497.666,-17.5001 487.666,-21 497.666,-24.5001 497.666,-17.5001"/>
<text text-anchor="middle" x="546" y="-24" font-family="Helvetica,sans-Serif" font-size="10.00"> cluster_detectors</text>
</g>
<!-- Node17 -->
<g id="node14" class="node"><title>Node17</title>
<g id="a_node14"><a xlink:href="structant_1_1analysis_1_1utils_1_1_cluster_tools_1_1det__t.html" target="_top" xlink:title="ant::analysis::utils\l::ClusterTools::det_t">
<polygon fill="white" stroke="black" points="162,-6 162,-36 268,-36 268,-6 162,-6"/>
<text text-anchor="start" x="170" y="-24" font-family="Helvetica,sans-Serif" font-size="10.00">ant::analysis::utils</text>
<text text-anchor="middle" x="215" y="-13" font-family="Helvetica,sans-Serif" font-size="10.00">::ClusterTools::det_t</text>
</a>
</g>
</g>
<!-- Node17&#45;&gt;Node16 -->
<g id="edge18" class="edge"><title>Node17&#45;&gt;Node16</title>
<path fill="none" stroke="#9a32cd" stroke-dasharray="5,2" d="M278.304,-21C300.444,-21 325.49,-21 348.147,-21"/>
<polygon fill="#9a32cd" stroke="#9a32cd" points="278.024,-17.5001 268.024,-21 278.024,-24.5001 278.024,-17.5001"/>
<text text-anchor="middle" x="308" y="-24" font-family="Helvetica,sans-Serif" font-size="10.00"> elements</text>
</g>
<!-- Node18 -->
<g id="node15" class="node"><title>Node18</title>
<polygon fill="white" stroke="#bfbfbf" points="0,-11.5 0,-30.5 110,-30.5 110,-11.5 0,-11.5"/>
<text text-anchor="middle" x="55" y="-18.5" font-family="Helvetica,sans-Serif" font-size="10.00">std::vector&lt; double &gt;</text>
</g>
<!-- Node18&#45;&gt;Node17 -->
<g id="edge19" class="edge"><title>Node18&#45;&gt;Node17</title>
<path fill="none" stroke="#9a32cd" stroke-dasharray="5,2" d="M120.72,-21C134.437,-21 148.748,-21 161.925,-21"/>
<polygon fill="#9a32cd" stroke="#9a32cd" points="120.375,-17.5001 110.375,-21 120.375,-24.5001 120.375,-17.5001"/>
<text text-anchor="middle" x="136" y="-24" font-family="Helvetica,sans-Serif" font-size="10.00"> R0</text>
</g>
<!-- Node19&#45;&gt;Node10 -->
<g id="edge20" class="edge"><title>Node19&#45;&gt;Node10</title>
<path fill="none" stroke="midnightblue" d="M1102.29,-133.323C1169.18,-137.269 1266.68,-143.02 1327.94,-146.634"/>
<polygon fill="midnightblue" stroke="midnightblue" points="1102.42,-129.825 1092.24,-132.73 1102.01,-136.813 1102.42,-129.825"/>
</g>
<!-- Node20&#45;&gt;Node10 -->
<g id="edge22" class="edge"><title>Node20&#45;&gt;Node10</title>
<path fill="none" stroke="midnightblue" d="M1094,-87.5082C1151.05,-98.6458 1236.18,-115.661 1310,-132 1315.75,-133.273 1321.74,-134.641 1327.72,-136.032"/>
<polygon fill="midnightblue" stroke="midnightblue" points="1094.53,-84.0443 1084.04,-85.5671 1093.19,-90.9151 1094.53,-84.0443"/>
</g>
<!-- Node21&#45;&gt;Node4 -->
<g id="edge24" class="edge"><title>Node21&#45;&gt;Node4</title>
<path fill="none" stroke="#9a32cd" stroke-dasharray="5,2" d="M1291.22,-390.416C1357.24,-373.398 1454.86,-348.235 1507.72,-334.61"/>
<polygon fill="#9a32cd" stroke="#9a32cd" points="1290.12,-387.084 1281.31,-392.969 1291.87,-393.862 1290.12,-387.084"/>
<text text-anchor="middle" x="1386" y="-384" font-family="Helvetica,sans-Serif" font-size="10.00"> Shared</text>
</g>
</g>
</svg>
