<?xml version="1.0" encoding="UTF-8" standalone="no"?>
<!DOCTYPE svg PUBLIC "-//W3C//DTD SVG 1.1//EN"
 "http://www.w3.org/Graphics/SVG/1.1/DTD/svg11.dtd">
<!-- Generated by graphviz version 2.36.0 (20140111.2315)
 -->
<!-- Title: ant::expconfig::detector::TAPSVeto::PbWO4_Element_t Pages: 1 -->
<svg width="217pt" height="258pt"
 viewBox="0.00 0.00 217.00 258.00" xmlns="http://www.w3.org/2000/svg" xmlns:xlink="http://www.w3.org/1999/xlink">
<g id="graph0" class="graph" transform="scale(1 1) rotate(0) translate(4 254)">
<title>ant::expconfig::detector::TAPSVeto::PbWO4_Element_t</title>
<polygon fill="white" stroke="none" points="-4,4 -4,-254 213,-254 213,4 -4,4"/>
<!-- Node2 -->
<g id="node1" class="node"><title>Node2</title>
<polygon fill="#bfbfbf" stroke="black" points="-0.5,-1 -0.5,-31 158.5,-31 158.5,-1 -0.5,-1"/>
<text text-anchor="start" x="7.5" y="-19" font-family="Helvetica,sans-Serif" font-size="10.00">ant::expconfig::detector</text>
<text text-anchor="middle" x="79" y="-8" font-family="Helvetica,sans-Serif" font-size="10.00">::TAPSVeto::PbWO4_Element_t</text>
</g>
<!-- Node3 -->
<g id="node2" class="node"><title>Node3</title>
<g id="a_node2"><a xlink:href="structant_1_1_detector__t_1_1_element__t.html" target="_top" xlink:title="TAPSVeto_Element_t">
<polygon fill="white" stroke="black" points="22.5,-70.5 22.5,-89.5 135.5,-89.5 135.5,-70.5 22.5,-70.5"/>
<text text-anchor="middle" x="79" y="-77.5" font-family="Helvetica,sans-Serif" font-size="10.00">TAPSVeto_Element_t</text>
</a>
</g>
</g>
<!-- Node3&#45;&gt;Node2 -->
<g id="edge1" class="edge"><title>Node3&#45;&gt;Node2</title>
<path fill="none" stroke="midnightblue" d="M79,-60.1826C79,-50.8859 79,-39.8507 79,-31.263"/>
<polygon fill="midnightblue" stroke="midnightblue" points="75.5001,-60.3791 79,-70.3792 82.5001,-60.3792 75.5001,-60.3791"/>
</g>
<!-- Node4 -->
<g id="node3" class="node"><title>Node4</title>
<g id="a_node3"><a xlink:href="structant_1_1vec3.html" target="_top" xlink:title="ant::vec3">
<polygon fill="white" stroke="black" points="7.5,-144.5 7.5,-163.5 64.5,-163.5 64.5,-144.5 7.5,-144.5"/>
<text text-anchor="middle" x="36" y="-151.5" font-family="Helvetica,sans-Serif" font-size="10.00">ant::vec3</text>
</a>
</g>
</g>
<!-- Node4&#45;&gt;Node3 -->
<g id="edge2" class="edge"><title>Node4&#45;&gt;Node3</title>
<path fill="none" stroke="#9a32cd" stroke-dasharray="5,2" d="M45.3588,-135.381C49.9213,-126.997 55.5825,-116.885 61,-108 64.7541,-101.843 69.2541,-95.0931 72.8156,-89.8824"/>
<polygon fill="#9a32cd" stroke="#9a32cd" points="42.2413,-133.789 40.588,-144.254 48.4065,-137.104 42.2413,-133.789"/>
<text text-anchor="middle" x="80.5" y="-111.5" font-family="Helvetica,sans-Serif" font-size="10.00"> Position</text>
</g>
<!-- Node5 -->
<g id="node4" class="node"><title>Node5</title>
<g id="a_node4"><a xlink:href="classant_1_1bitflag.html" target="_top" xlink:title="ant::bitflag\&lt; ElementFlag\l_t, 16 \&gt;">
<polygon fill="white" stroke="black" points="83,-139 83,-169 209,-169 209,-139 83,-139"/>
<text text-anchor="start" x="91" y="-157" font-family="Helvetica,sans-Serif" font-size="10.00">ant::bitflag&lt; ElementFlag</text>
<text text-anchor="middle" x="146" y="-146" font-family="Helvetica,sans-Serif" font-size="10.00">_t, 16 &gt;</text>
</a>
</g>
</g>
<!-- Node5&#45;&gt;Node3 -->
<g id="edge3" class="edge"><title>Node5&#45;&gt;Node3</title>
<path fill="none" stroke="#9a32cd" stroke-dasharray="5,2" d="M125.941,-131.444C112.949,-117.483 96.7246,-100.047 87.1506,-89.7589"/>
<polygon fill="#9a32cd" stroke="#9a32cd" points="123.388,-133.839 132.763,-138.775 128.513,-129.07 123.388,-133.839"/>
<text text-anchor="middle" x="128" y="-111.5" font-family="Helvetica,sans-Serif" font-size="10.00"> Flags</text>
</g>
<!-- Node6 -->
<g id="node5" class="node"><title>Node6</title>
<polygon fill="white" stroke="#bfbfbf" points="95.5,-219 95.5,-249 196.5,-249 196.5,-219 95.5,-219"/>
<text text-anchor="start" x="103.5" y="-237" font-family="Helvetica,sans-Serif" font-size="10.00">std::bitset&lt; number</text>
<text text-anchor="middle" x="146" y="-226" font-family="Helvetica,sans-Serif" font-size="10.00">_of_bits &gt;</text>
</g>
<!-- Node6&#45;&gt;Node5 -->
<g id="edge4" class="edge"><title>Node6&#45;&gt;Node5</title>
<path fill="none" stroke="#9a32cd" stroke-dasharray="5,2" d="M146,-208.564C146,-195.624 146,-180.186 146,-169.216"/>
<polygon fill="#9a32cd" stroke="#9a32cd" points="142.5,-208.694 146,-218.694 149.5,-208.694 142.5,-208.694"/>
<text text-anchor="middle" x="155.5" y="-191.5" font-family="Helvetica,sans-Serif" font-size="10.00"> bits</text>
</g>
</g>
</svg>
