<?xml version="1.0" encoding="UTF-8" standalone="no"?>
<!DOCTYPE svg PUBLIC "-//W3C//DTD SVG 1.1//EN"
 "http://www.w3.org/Graphics/SVG/1.1/DTD/svg11.dtd">
<!-- Generated by graphviz version 2.36.0 (20140111.2315)
 -->
<!-- Title: ant::analysis::SlowControlManager::processor_t Pages: 1 -->
<svg width="154pt" height="176pt"
 viewBox="0.00 0.00 154.00 176.00" xmlns="http://www.w3.org/2000/svg" xmlns:xlink="http://www.w3.org/1999/xlink">
<g id="graph0" class="graph" transform="scale(1 1) rotate(0) translate(4 172)">
<title>ant::analysis::SlowControlManager::processor_t</title>
<polygon fill="white" stroke="none" points="-4,4 -4,-172 150,-172 150,4 -4,4"/>
<!-- Node1 -->
<g id="node1" class="node"><title>Node1</title>
<polygon fill="#bfbfbf" stroke="black" points="-0.5,-1 -0.5,-31 130.5,-31 130.5,-1 -0.5,-1"/>
<text text-anchor="start" x="7.5" y="-19" font-family="Helvetica,sans-Serif" font-size="10.00">ant::analysis::SlowControl</text>
<text text-anchor="middle" x="65" y="-8" font-family="Helvetica,sans-Serif" font-size="10.00">Manager::processor_t</text>
</g>
<!-- Node2 -->
<g id="node2" class="node"><title>Node2</title>
<polygon fill="white" stroke="#bfbfbf" points="13.5,-80.5 13.5,-99.5 116.5,-99.5 116.5,-80.5 13.5,-80.5"/>
<text text-anchor="middle" x="65" y="-87.5" font-family="Helvetica,sans-Serif" font-size="10.00">std::list&lt; ant::TID &gt;</text>
</g>
<!-- Node2&#45;&gt;Node1 -->
<g id="edge1" class="edge"><title>Node2&#45;&gt;Node1</title>
<path fill="none" stroke="#9a32cd" stroke-dasharray="5,2" d="M65,-70.0846C65,-57.9148 65,-42.3538 65,-31.2316"/>
<polygon fill="#9a32cd" stroke="#9a32cd" points="61.5001,-70.4579 65,-80.4579 68.5001,-70.4579 61.5001,-70.4579"/>
<text text-anchor="middle" x="105.5" y="-53.5" font-family="Helvetica,sans-Serif" font-size="10.00"> CompletionPoints</text>
</g>
<!-- Node3 -->
<g id="node3" class="node"><title>Node3</title>
<g id="a_node3"><a xlink:href="structant_1_1_t_i_d.html" target="_top" xlink:title="ant::TID">
<polygon fill="white" stroke="black" points="38.5,-148.5 38.5,-167.5 91.5,-167.5 91.5,-148.5 38.5,-148.5"/>
<text text-anchor="middle" x="65" y="-155.5" font-family="Helvetica,sans-Serif" font-size="10.00">ant::TID</text>
</a>
</g>
</g>
<!-- Node3&#45;&gt;Node2 -->
<g id="edge2" class="edge"><title>Node3&#45;&gt;Node2</title>
<path fill="none" stroke="#9a32cd" stroke-dasharray="5,2" d="M65,-138.041C65,-125.472 65,-109.563 65,-99.8411"/>
<polygon fill="#9a32cd" stroke="#9a32cd" points="61.5001,-138.372 65,-148.372 68.5001,-138.372 61.5001,-138.372"/>
<text text-anchor="middle" x="86.5" y="-121.5" font-family="Helvetica,sans-Serif" font-size="10.00"> elements</text>
</g>
</g>
</svg>
