<?xml version="1.0" encoding="UTF-8" standalone="no"?>
<!DOCTYPE svg PUBLIC "-//W3C//DTD SVG 1.1//EN"
 "http://www.w3.org/Graphics/SVG/1.1/DTD/svg11.dtd">
<!-- Generated by graphviz version 2.36.0 (20140111.2315)
 -->
<!-- Title: ant::canvas::pad_t Pages: 1 -->
<svg width="272pt" height="314pt"
 viewBox="0.00 0.00 272.00 314.00" xmlns="http://www.w3.org/2000/svg" xmlns:xlink="http://www.w3.org/1999/xlink">
<g id="graph0" class="graph" transform="scale(1 1) rotate(0) translate(4 310)">
<title>ant::canvas::pad_t</title>
<polygon fill="white" stroke="none" points="-4,4 -4,-310 268,-310 268,4 -4,4"/>
<!-- Node1 -->
<g id="node1" class="node"><title>Node1</title>
<polygon fill="#bfbfbf" stroke="black" points="66,-0.5 66,-19.5 164,-19.5 164,-0.5 66,-0.5"/>
<text text-anchor="middle" x="115" y="-7.5" font-family="Helvetica,sans-Serif" font-size="10.00">ant::canvas::pad_t</text>
</g>
<!-- Node2 -->
<g id="node2" class="node"><title>Node2</title>
<polygon fill="white" stroke="#bfbfbf" points="-0.5,-74.5 -0.5,-93.5 124.5,-93.5 124.5,-74.5 -0.5,-74.5"/>
<text text-anchor="middle" x="62" y="-81.5" font-family="Helvetica,sans-Serif" font-size="10.00">std::list&lt; padmodifier_t &gt;</text>
</g>
<!-- Node2&#45;&gt;Node1 -->
<g id="edge1" class="edge"><title>Node2&#45;&gt;Node1</title>
<path fill="none" stroke="#9a32cd" stroke-dasharray="5,2" d="M72.2584,-65.732C77.5561,-57.1779 84.3017,-46.8194 91,-38 95.8554,-31.6071 101.855,-24.8571 106.642,-19.7053"/>
<polygon fill="#9a32cd" stroke="#9a32cd" points="69.167,-64.08 66.9721,-74.445 75.1516,-67.711 69.167,-64.08"/>
<text text-anchor="middle" x="118.5" y="-41.5" font-family="Helvetica,sans-Serif" font-size="10.00"> PadOptions</text>
</g>
<!-- Node3 -->
<g id="node3" class="node"><title>Node3</title>
<polygon fill="white" stroke="#bfbfbf" points="142.5,-69 142.5,-99 251.5,-99 251.5,-69 142.5,-69"/>
<text text-anchor="start" x="150.5" y="-87" font-family="Helvetica,sans-Serif" font-size="10.00">std::list&lt; ant::canvas</text>
<text text-anchor="middle" x="197" y="-76" font-family="Helvetica,sans-Serif" font-size="10.00">::DrawableItem &gt;</text>
</g>
<!-- Node3&#45;&gt;Node1 -->
<g id="edge2" class="edge"><title>Node3&#45;&gt;Node1</title>
<path fill="none" stroke="#9a32cd" stroke-dasharray="5,2" d="M173.43,-62.1468C164.81,-54.5353 154.974,-45.8667 146,-38 139.023,-31.8838 131.138,-25.0167 125.066,-19.7387"/>
<polygon fill="#9a32cd" stroke="#9a32cd" points="171.133,-64.7878 180.945,-68.7864 175.768,-59.5421 171.133,-64.7878"/>
<text text-anchor="middle" x="193" y="-41.5" font-family="Helvetica,sans-Serif" font-size="10.00"> DrawableItems</text>
</g>
<!-- Node4 -->
<g id="node4" class="node"><title>Node4</title>
<g id="a_node4"><a xlink:href="structant_1_1canvas_1_1_drawable_item.html" target="_top" xlink:title="ant::canvas::DrawableItem">
<polygon fill="white" stroke="black" points="130,-148.5 130,-167.5 264,-167.5 264,-148.5 130,-148.5"/>
<text text-anchor="middle" x="197" y="-155.5" font-family="Helvetica,sans-Serif" font-size="10.00">ant::canvas::DrawableItem</text>
</a>
</g>
</g>
<!-- Node4&#45;&gt;Node3 -->
<g id="edge3" class="edge"><title>Node4&#45;&gt;Node3</title>
<path fill="none" stroke="#9a32cd" stroke-dasharray="5,2" d="M197,-138.085C197,-125.915 197,-110.354 197,-99.2316"/>
<polygon fill="#9a32cd" stroke="#9a32cd" points="193.5,-138.458 197,-148.458 200.5,-138.458 193.5,-138.458"/>
<text text-anchor="middle" x="218.5" y="-121.5" font-family="Helvetica,sans-Serif" font-size="10.00"> elements</text>
</g>
<!-- Node5 -->
<g id="node5" class="node"><title>Node5</title>
<g id="a_node5"><a xlink:title="STL class. ">
<polygon fill="white" stroke="#bfbfbf" points="167,-216.5 167,-235.5 227,-235.5 227,-216.5 167,-216.5"/>
<text text-anchor="middle" x="197" y="-223.5" font-family="Helvetica,sans-Serif" font-size="10.00">std::string</text>
</a>
</g>
</g>
<!-- Node5&#45;&gt;Node4 -->
<g id="edge4" class="edge"><title>Node5&#45;&gt;Node4</title>
<path fill="none" stroke="#9a32cd" stroke-dasharray="5,2" d="M197,-206.041C197,-193.472 197,-177.563 197,-167.841"/>
<polygon fill="#9a32cd" stroke="#9a32cd" points="193.5,-206.372 197,-216.372 200.5,-206.372 193.5,-206.372"/>
<text text-anchor="middle" x="213" y="-189.5" font-family="Helvetica,sans-Serif" font-size="10.00"> Option</text>
</g>
<!-- Node6 -->
<g id="node6" class="node"><title>Node6</title>
<g id="a_node6"><a xlink:title="STL class. ">
<polygon fill="white" stroke="#bfbfbf" points="149.5,-275 149.5,-305 244.5,-305 244.5,-275 149.5,-275"/>
<text text-anchor="start" x="157.5" y="-293" font-family="Helvetica,sans-Serif" font-size="10.00">std::basic_string&lt;</text>
<text text-anchor="middle" x="197" y="-282" font-family="Helvetica,sans-Serif" font-size="10.00"> char &gt;</text>
</a>
</g>
</g>
<!-- Node6&#45;&gt;Node5 -->
<g id="edge5" class="edge"><title>Node6&#45;&gt;Node5</title>
<path fill="none" stroke="midnightblue" d="M197,-264.871C197,-254.663 197,-243.408 197,-235.842"/>
<polygon fill="midnightblue" stroke="midnightblue" points="193.5,-264.931 197,-274.931 200.5,-264.931 193.5,-264.931"/>
</g>
</g>
</svg>
