<?xml version="1.0" encoding="UTF-8" standalone="no"?>
<!DOCTYPE svg PUBLIC "-//W3C//DTD SVG 1.1//EN"
 "http://www.w3.org/Graphics/SVG/1.1/DTD/svg11.dtd">
<!-- Generated by graphviz version 2.36.0 (20140111.2315)
 -->
<!-- Title: ant::Array2D Pages: 1 -->
<svg width="231pt" height="96pt"
 viewBox="0.00 0.00 231.00 96.00" xmlns="http://www.w3.org/2000/svg" xmlns:xlink="http://www.w3.org/1999/xlink">
<g id="graph0" class="graph" transform="scale(1 1) rotate(0) translate(4 92)">
<title>ant::Array2D</title>
<polygon fill="white" stroke="none" points="-4,4 -4,-92 227,-92 227,4 -4,4"/>
<!-- Node2 -->
<g id="node1" class="node"><title>Node2</title>
<polygon fill="#bfbfbf" stroke="black" points="71,-0.5 71,-19.5 143,-19.5 143,-0.5 71,-0.5"/>
<text text-anchor="middle" x="107" y="-7.5" font-family="Helvetica,sans-Serif" font-size="10.00">ant::Array2D</text>
</g>
<!-- Node3 -->
<g id="node2" class="node"><title>Node3</title>
<g id="a_node2"><a xlink:href="structant_1_1_array2_d_base.html" target="_top" xlink:title="ant::Array2DBase">
<polygon fill="white" stroke="black" points="-0.5,-68.5 -0.5,-87.5 94.5,-87.5 94.5,-68.5 -0.5,-68.5"/>
<text text-anchor="middle" x="47" y="-75.5" font-family="Helvetica,sans-Serif" font-size="10.00">ant::Array2DBase</text>
</a>
</g>
</g>
<!-- Node3&#45;&gt;Node2 -->
<g id="edge1" class="edge"><title>Node3&#45;&gt;Node2</title>
<path fill="none" stroke="midnightblue" d="M61.8364,-60.68C73.5666,-47.7768 89.4932,-30.2575 98.9626,-19.8411"/>
<polygon fill="midnightblue" stroke="midnightblue" points="58.9809,-58.6179 54.844,-68.3717 64.1605,-63.3266 58.9809,-58.6179"/>
</g>
<!-- Node4 -->
<g id="node3" class="node"><title>Node4</title>
<polygon fill="white" stroke="#bfbfbf" points="113,-68.5 113,-87.5 223,-87.5 223,-68.5 113,-68.5"/>
<text text-anchor="middle" x="168" y="-75.5" font-family="Helvetica,sans-Serif" font-size="10.00">std::vector&lt; double &gt;</text>
</g>
<!-- Node4&#45;&gt;Node2 -->
<g id="edge2" class="edge"><title>Node4&#45;&gt;Node2</title>
<path fill="none" stroke="#9a32cd" stroke-dasharray="5,2" d="M152.916,-60.68C140.991,-47.7768 124.799,-30.2575 115.171,-19.8411"/>
<polygon fill="#9a32cd" stroke="#9a32cd" points="150.668,-63.4035 160.025,-68.3717 155.808,-58.6523 150.668,-63.4035"/>
<text text-anchor="middle" x="154" y="-41.5" font-family="Helvetica,sans-Serif" font-size="10.00"> data</text>
</g>
</g>
</svg>
