<?xml version="1.0" encoding="UTF-8" standalone="no"?>
<!DOCTYPE svg PUBLIC "-//W3C//DTD SVG 1.1//EN"
 "http://www.w3.org/Graphics/SVG/1.1/DTD/svg11.dtd">
<!-- Generated by graphviz version 2.36.0 (20140111.2315)
 -->
<!-- Title: ant::Detector_t::Element_t Pages: 1 -->
<svg width="209pt" height="188pt"
 viewBox="0.00 0.00 209.00 188.00" xmlns="http://www.w3.org/2000/svg" xmlns:xlink="http://www.w3.org/1999/xlink">
<g id="graph0" class="graph" transform="scale(1 1) rotate(0) translate(4 184)">
<title>ant::Detector_t::Element_t</title>
<polygon fill="white" stroke="none" points="-4,4 -4,-184 205,-184 205,4 -4,4"/>
<!-- Node10 -->
<g id="node1" class="node"><title>Node10</title>
<polygon fill="#bfbfbf" stroke="black" points="5,-0.5 5,-19.5 137,-19.5 137,-0.5 5,-0.5"/>
<text text-anchor="middle" x="71" y="-7.5" font-family="Helvetica,sans-Serif" font-size="10.00">ant::Detector_t::Element_t</text>
</g>
<!-- Node11 -->
<g id="node2" class="node"><title>Node11</title>
<g id="a_node2"><a xlink:href="structant_1_1vec3.html" target="_top" xlink:title="ant::vec3">
<polygon fill="white" stroke="black" points="-0.5,-74.5 -0.5,-93.5 56.5,-93.5 56.5,-74.5 -0.5,-74.5"/>
<text text-anchor="middle" x="28" y="-81.5" font-family="Helvetica,sans-Serif" font-size="10.00">ant::vec3</text>
</a>
</g>
</g>
<!-- Node11&#45;&gt;Node10 -->
<g id="edge1" class="edge"><title>Node11&#45;&gt;Node10</title>
<path fill="none" stroke="#9a32cd" stroke-dasharray="5,2" d="M37.3588,-65.3815C41.9213,-56.9968 47.5825,-46.8849 53,-38 56.7541,-31.8431 61.2541,-25.0931 64.8156,-19.8824"/>
<polygon fill="#9a32cd" stroke="#9a32cd" points="34.2413,-63.7889 32.588,-74.254 40.4065,-67.1041 34.2413,-63.7889"/>
<text text-anchor="middle" x="72.5" y="-41.5" font-family="Helvetica,sans-Serif" font-size="10.00"> Position</text>
</g>
<!-- Node12 -->
<g id="node3" class="node"><title>Node12</title>
<g id="a_node3"><a xlink:href="classant_1_1bitflag.html" target="_top" xlink:title="ant::bitflag\&lt; ElementFlag\l_t, 16 \&gt;">
<polygon fill="white" stroke="black" points="75,-69 75,-99 201,-99 201,-69 75,-69"/>
<text text-anchor="start" x="83" y="-87" font-family="Helvetica,sans-Serif" font-size="10.00">ant::bitflag&lt; ElementFlag</text>
<text text-anchor="middle" x="138" y="-76" font-family="Helvetica,sans-Serif" font-size="10.00">_t, 16 &gt;</text>
</a>
</g>
</g>
<!-- Node12&#45;&gt;Node10 -->
<g id="edge2" class="edge"><title>Node12&#45;&gt;Node10</title>
<path fill="none" stroke="#9a32cd" stroke-dasharray="5,2" d="M117.941,-61.4438C104.949,-47.4827 88.7246,-30.0473 79.1506,-19.7589"/>
<polygon fill="#9a32cd" stroke="#9a32cd" points="115.388,-63.8387 124.763,-68.7751 120.513,-59.0701 115.388,-63.8387"/>
<text text-anchor="middle" x="120" y="-41.5" font-family="Helvetica,sans-Serif" font-size="10.00"> Flags</text>
</g>
<!-- Node13 -->
<g id="node4" class="node"><title>Node13</title>
<polygon fill="white" stroke="#bfbfbf" points="87.5,-149 87.5,-179 188.5,-179 188.5,-149 87.5,-149"/>
<text text-anchor="start" x="95.5" y="-167" font-family="Helvetica,sans-Serif" font-size="10.00">std::bitset&lt; number</text>
<text text-anchor="middle" x="138" y="-156" font-family="Helvetica,sans-Serif" font-size="10.00">_of_bits &gt;</text>
</g>
<!-- Node13&#45;&gt;Node12 -->
<g id="edge3" class="edge"><title>Node13&#45;&gt;Node12</title>
<path fill="none" stroke="#9a32cd" stroke-dasharray="5,2" d="M138,-138.564C138,-125.624 138,-110.186 138,-99.2157"/>
<polygon fill="#9a32cd" stroke="#9a32cd" points="134.5,-138.694 138,-148.694 141.5,-138.694 134.5,-138.694"/>
<text text-anchor="middle" x="147.5" y="-121.5" font-family="Helvetica,sans-Serif" font-size="10.00"> bits</text>
</g>
</g>
</svg>
