<?xml version="1.0" encoding="UTF-8" standalone="no"?>
<!DOCTYPE svg PUBLIC "-//W3C//DTD SVG 1.1//EN"
 "http://www.w3.org/Graphics/SVG/1.1/DTD/svg11.dtd">
<!-- Generated by graphviz version 2.36.0 (20140111.2315)
 -->
<!-- Title: ant::reconstruct::clustering::bump_t Pages: 1 -->
<svg width="193pt" height="108pt"
 viewBox="0.00 0.00 193.00 108.00" xmlns="http://www.w3.org/2000/svg" xmlns:xlink="http://www.w3.org/1999/xlink">
<g id="graph0" class="graph" transform="scale(1 1) rotate(0) translate(4 104)">
<title>ant::reconstruct::clustering::bump_t</title>
<polygon fill="white" stroke="none" points="-4,4 -4,-104 189,-104 189,4 -4,4"/>
<!-- Node1 -->
<g id="node1" class="node"><title>Node1</title>
<polygon fill="#bfbfbf" stroke="black" points="12.5,-1 12.5,-31 145.5,-31 145.5,-1 12.5,-1"/>
<text text-anchor="start" x="20.5" y="-19" font-family="Helvetica,sans-Serif" font-size="10.00">ant::reconstruct::clustering</text>
<text text-anchor="middle" x="79" y="-8" font-family="Helvetica,sans-Serif" font-size="10.00">::bump_t</text>
</g>
<!-- Node2 -->
<g id="node2" class="node"><title>Node2</title>
<g id="a_node2"><a xlink:href="structant_1_1vec3.html" target="_top" xlink:title="ant::vec3">
<polygon fill="white" stroke="black" points="-0.5,-80.5 -0.5,-99.5 56.5,-99.5 56.5,-80.5 -0.5,-80.5"/>
<text text-anchor="middle" x="28" y="-87.5" font-family="Helvetica,sans-Serif" font-size="10.00">ant::vec3</text>
</a>
</g>
</g>
<!-- Node2&#45;&gt;Node1 -->
<g id="edge1" class="edge"><title>Node2&#45;&gt;Node1</title>
<path fill="none" stroke="#9a32cd" stroke-dasharray="5,2" d="M40.0853,-71.9385C48.874,-59.5308 60.6349,-42.9271 68.9193,-31.2316"/>
<polygon fill="#9a32cd" stroke="#9a32cd" points="36.9748,-70.2746 34.0506,-80.4579 42.6869,-74.3207 36.9748,-70.2746"/>
<text text-anchor="middle" x="75.5" y="-53.5" font-family="Helvetica,sans-Serif" font-size="10.00"> Position</text>
</g>
<!-- Node3 -->
<g id="node3" class="node"><title>Node3</title>
<polygon fill="white" stroke="#bfbfbf" points="75,-80.5 75,-99.5 185,-99.5 185,-80.5 75,-80.5"/>
<text text-anchor="middle" x="130" y="-87.5" font-family="Helvetica,sans-Serif" font-size="10.00">std::vector&lt; double &gt;</text>
</g>
<!-- Node3&#45;&gt;Node1 -->
<g id="edge2" class="edge"><title>Node3&#45;&gt;Node1</title>
<path fill="none" stroke="#9a32cd" stroke-dasharray="5,2" d="M117.915,-71.9385C109.126,-59.5308 97.3651,-42.9271 89.0807,-31.2316"/>
<polygon fill="#9a32cd" stroke="#9a32cd" points="115.313,-74.3207 123.949,-80.4579 121.025,-70.2746 115.313,-74.3207"/>
<text text-anchor="middle" x="131" y="-53.5" font-family="Helvetica,sans-Serif" font-size="10.00"> Weights</text>
</g>
</g>
</svg>
