<?xml version="1.0" encoding="UTF-8" standalone="no"?>
<!DOCTYPE svg PUBLIC "-//W3C//DTD SVG 1.1//EN"
 "http://www.w3.org/Graphics/SVG/1.1/DTD/svg11.dtd">
<!-- Generated by graphviz version 2.36.0 (20140111.2315)
 -->
<!-- Title: ant::TUnpackerMessage Pages: 1 -->
<svg width="213pt" height="166pt"
 viewBox="0.00 0.00 213.00 166.00" xmlns="http://www.w3.org/2000/svg" xmlns:xlink="http://www.w3.org/1999/xlink">
<g id="graph0" class="graph" transform="scale(1 1) rotate(0) translate(4 162)">
<title>ant::TUnpackerMessage</title>
<polygon fill="white" stroke="none" points="-4,4 -4,-162 209,-162 209,4 -4,4"/>
<!-- Node1 -->
<g id="node1" class="node"><title>Node1</title>
<polygon fill="#bfbfbf" stroke="black" points="54,-0.5 54,-19.5 178,-19.5 178,-0.5 54,-0.5"/>
<text text-anchor="middle" x="116" y="-7.5" font-family="Helvetica,sans-Serif" font-size="10.00">ant::TUnpackerMessage</text>
</g>
<!-- Node2 -->
<g id="node2" class="node"><title>Node2</title>
<g id="a_node2"><a xlink:title="STL class. ">
<polygon fill="white" stroke="#bfbfbf" points="17,-68.5 17,-87.5 77,-87.5 77,-68.5 17,-68.5"/>
<text text-anchor="middle" x="47" y="-75.5" font-family="Helvetica,sans-Serif" font-size="10.00">std::string</text>
</a>
</g>
</g>
<!-- Node2&#45;&gt;Node1 -->
<g id="edge1" class="edge"><title>Node2&#45;&gt;Node1</title>
<path fill="none" stroke="#9a32cd" stroke-dasharray="5,2" d="M60.7013,-60.5168C66.9377,-53.3412 74.573,-44.9924 82,-38 89.0247,-31.3863 97.5247,-24.6363 104.268,-19.5398"/>
<polygon fill="#9a32cd" stroke="#9a32cd" points="57.9356,-58.3662 54.1192,-68.2498 63.2662,-62.9033 57.9356,-58.3662"/>
<text text-anchor="middle" x="103.5" y="-41.5" font-family="Helvetica,sans-Serif" font-size="10.00"> Message</text>
</g>
<!-- Node3 -->
<g id="node3" class="node"><title>Node3</title>
<g id="a_node3"><a xlink:title="STL class. ">
<polygon fill="white" stroke="#bfbfbf" points="-0.5,-127 -0.5,-157 94.5,-157 94.5,-127 -0.5,-127"/>
<text text-anchor="start" x="7.5" y="-145" font-family="Helvetica,sans-Serif" font-size="10.00">std::basic_string&lt;</text>
<text text-anchor="middle" x="47" y="-134" font-family="Helvetica,sans-Serif" font-size="10.00"> char &gt;</text>
</a>
</g>
</g>
<!-- Node3&#45;&gt;Node2 -->
<g id="edge2" class="edge"><title>Node3&#45;&gt;Node2</title>
<path fill="none" stroke="midnightblue" d="M47,-116.871C47,-106.663 47,-95.4077 47,-87.8419"/>
<polygon fill="midnightblue" stroke="midnightblue" points="43.5001,-116.931 47,-126.931 50.5001,-116.931 43.5001,-116.931"/>
</g>
<!-- Node4 -->
<g id="node4" class="node"><title>Node4</title>
<polygon fill="white" stroke="#bfbfbf" points="95,-68.5 95,-87.5 205,-87.5 205,-68.5 95,-68.5"/>
<text text-anchor="middle" x="150" y="-75.5" font-family="Helvetica,sans-Serif" font-size="10.00">std::vector&lt; double &gt;</text>
</g>
<!-- Node4&#45;&gt;Node1 -->
<g id="edge3" class="edge"><title>Node4&#45;&gt;Node1</title>
<path fill="none" stroke="#9a32cd" stroke-dasharray="5,2" d="M140.823,-59.1859C134.263,-46.4523 125.716,-29.8607 120.555,-19.8411"/>
<polygon fill="#9a32cd" stroke="#9a32cd" points="137.864,-61.0848 145.555,-68.3717 144.087,-57.879 137.864,-61.0848"/>
<text text-anchor="middle" x="155.5" y="-41.5" font-family="Helvetica,sans-Serif" font-size="10.00"> Payload</text>
</g>
</g>
</svg>
