<?xml version="1.0" encoding="UTF-8" standalone="no"?>
<!DOCTYPE svg PUBLIC "-//W3C//DTD SVG 1.1//EN"
 "http://www.w3.org/Graphics/SVG/1.1/DTD/svg11.dtd">
<!-- Generated by graphviz version 2.36.0 (20140111.2315)
 -->
<!-- Title: SigHist_t::Fill_t Pages: 1 -->
<svg width="233pt" height="152pt"
 viewBox="0.00 0.00 233.00 152.00" xmlns="http://www.w3.org/2000/svg" xmlns:xlink="http://www.w3.org/1999/xlink">
<g id="graph0" class="graph" transform="scale(1 1) rotate(0) translate(4 148)">
<title>SigHist_t::Fill_t</title>
<polygon fill="white" stroke="none" points="-4,4 -4,-148 229,-148 229,4 -4,4"/>
<!-- Node0 -->
<g id="node1" class="node"><title>Node0</title>
<polygon fill="#bfbfbf" stroke="black" points="73,-68.5 73,-87.5 157,-87.5 157,-68.5 73,-68.5"/>
<text text-anchor="middle" x="115" y="-75.5" font-family="Helvetica,sans-Serif" font-size="10.00">SigHist_t::Fill_t</text>
</g>
<!-- Node2 -->
<g id="node3" class="node"><title>Node2</title>
<g id="a_node3"><a xlink:href="struct_sig_omega_pi0_hist__t_1_1_fill__t.html" target="_top" xlink:title="SigOmegaPi0Hist_t::\lFill_t">
<polygon fill="white" stroke="black" points="-0.5,-1 -0.5,-31 108.5,-31 108.5,-1 -0.5,-1"/>
<text text-anchor="start" x="7.5" y="-19" font-family="Helvetica,sans-Serif" font-size="10.00">SigOmegaPi0Hist_t::</text>
<text text-anchor="middle" x="54" y="-8" font-family="Helvetica,sans-Serif" font-size="10.00">Fill_t</text>
</a>
</g>
</g>
<!-- Node0&#45;&gt;Node2 -->
<g id="edge2" class="edge"><title>Node0&#45;&gt;Node2</title>
<path fill="none" stroke="midnightblue" d="M98.9749,-61.2376C89.4853,-51.9036 77.5618,-40.1755 68.3765,-31.1408"/>
<polygon fill="midnightblue" stroke="midnightblue" points="96.6765,-63.8863 106.26,-68.4035 101.585,-58.8958 96.6765,-63.8863"/>
</g>
<!-- Node3 -->
<g id="node4" class="node"><title>Node3</title>
<g id="a_node4"><a xlink:href="struct_sig_pi0_hist__t_1_1_fill__t.html" target="_top" xlink:title="SigPi0Hist_t::Fill_t">
<polygon fill="white" stroke="black" points="127,-6.5 127,-25.5 225,-25.5 225,-6.5 127,-6.5"/>
<text text-anchor="middle" x="176" y="-13.5" font-family="Helvetica,sans-Serif" font-size="10.00">SigPi0Hist_t::Fill_t</text>
</a>
</g>
</g>
<!-- Node0&#45;&gt;Node3 -->
<g id="edge3" class="edge"><title>Node0&#45;&gt;Node3</title>
<path fill="none" stroke="midnightblue" d="M131.071,-61.1928C142.66,-49.7935 157.861,-34.8414 167.276,-25.5806"/>
<polygon fill="midnightblue" stroke="midnightblue" points="128.415,-58.8958 123.74,-68.4035 133.323,-63.8863 128.415,-58.8958"/>
</g>
<!-- Node1 -->
<g id="node2" class="node"><title>Node1</title>
<g id="a_node2"><a xlink:href="struct_common_hist__t_1_1_fill__t.html" target="_top" xlink:title="CommonHist_t::Fill_t">
<polygon fill="white" stroke="black" points="60,-124.5 60,-143.5 170,-143.5 170,-124.5 60,-124.5"/>
<text text-anchor="middle" x="115" y="-131.5" font-family="Helvetica,sans-Serif" font-size="10.00">CommonHist_t::Fill_t</text>
</a>
</g>
</g>
<!-- Node1&#45;&gt;Node0 -->
<g id="edge1" class="edge"><title>Node1&#45;&gt;Node0</title>
<path fill="none" stroke="midnightblue" d="M115,-113.805C115,-104.91 115,-94.7798 115,-87.7511"/>
<polygon fill="midnightblue" stroke="midnightblue" points="111.5,-114.083 115,-124.083 118.5,-114.083 111.5,-114.083"/>
</g>
</g>
</svg>
