<?xml version="1.0" encoding="UTF-8" standalone="no"?>
<!DOCTYPE svg PUBLIC "-//W3C//DTD SVG 1.1//EN"
 "http://www.w3.org/Graphics/SVG/1.1/DTD/svg11.dtd">
<!-- Generated by graphviz version 2.36.0 (20140111.2315)
 -->
<!-- Title: ant::WrapTFile::Exception Pages: 1 -->
<svg width="329pt" height="196pt"
 viewBox="0.00 0.00 329.00 196.00" xmlns="http://www.w3.org/2000/svg" xmlns:xlink="http://www.w3.org/1999/xlink">
<g id="graph0" class="graph" transform="scale(1 1) rotate(0) translate(4 192)">
<title>ant::WrapTFile::Exception</title>
<polygon fill="white" stroke="none" points="-4,4 -4,-192 325,-192 325,4 -4,4"/>
<!-- Node0 -->
<g id="node1" class="node"><title>Node0</title>
<polygon fill="#bfbfbf" stroke="black" points="95.5,-56.5 95.5,-75.5 226.5,-75.5 226.5,-56.5 95.5,-56.5"/>
<text text-anchor="middle" x="161" y="-63.5" font-family="Helvetica,sans-Serif" font-size="10.00">ant::WrapTFile::Exception</text>
</g>
<!-- Node3 -->
<g id="node4" class="node"><title>Node3</title>
<g id="a_node4"><a xlink:href="structant_1_1_wrap_t_file_1_1_e_not_a_root_file.html" target="_top" xlink:title="ant::WrapTFile::ENotARootFile">
<polygon fill="white" stroke="black" points="-0.5,-0.5 -0.5,-19.5 152.5,-19.5 152.5,-0.5 -0.5,-0.5"/>
<text text-anchor="middle" x="76" y="-7.5" font-family="Helvetica,sans-Serif" font-size="10.00">ant::WrapTFile::ENotARootFile</text>
</a>
</g>
</g>
<!-- Node0&#45;&gt;Node3 -->
<g id="edge3" class="edge"><title>Node0&#45;&gt;Node3</title>
<path fill="none" stroke="midnightblue" d="M138.806,-50.9005C123.22,-40.9986 102.87,-28.0705 89.6228,-19.6545"/>
<polygon fill="midnightblue" stroke="midnightblue" points="137.026,-53.9158 147.343,-56.324 140.779,-48.0073 137.026,-53.9158"/>
</g>
<!-- Node4 -->
<g id="node5" class="node"><title>Node4</title>
<g id="a_node5"><a xlink:href="structant_1_1_wrap_t_file_1_1_e_not_readable.html" target="_top" xlink:title="ant::WrapTFile::ENotReadable">
<polygon fill="white" stroke="black" points="170.5,-0.5 170.5,-19.5 321.5,-19.5 321.5,-0.5 170.5,-0.5"/>
<text text-anchor="middle" x="246" y="-7.5" font-family="Helvetica,sans-Serif" font-size="10.00">ant::WrapTFile::ENotReadable</text>
</a>
</g>
</g>
<!-- Node0&#45;&gt;Node4 -->
<g id="edge4" class="edge"><title>Node0&#45;&gt;Node4</title>
<path fill="none" stroke="midnightblue" d="M183.194,-50.9005C198.78,-40.9986 219.13,-28.0705 232.377,-19.6545"/>
<polygon fill="midnightblue" stroke="midnightblue" points="181.221,-48.0073 174.657,-56.324 184.974,-53.9158 181.221,-48.0073"/>
</g>
<!-- Node1 -->
<g id="node2" class="node"><title>Node1</title>
<g id="a_node2"><a xlink:title="STL class. ">
<polygon fill="white" stroke="#bfbfbf" points="114.5,-112.5 114.5,-131.5 207.5,-131.5 207.5,-112.5 114.5,-112.5"/>
<text text-anchor="middle" x="161" y="-119.5" font-family="Helvetica,sans-Serif" font-size="10.00">std::runtime_error</text>
</a>
</g>
</g>
<!-- Node1&#45;&gt;Node0 -->
<g id="edge1" class="edge"><title>Node1&#45;&gt;Node0</title>
<path fill="none" stroke="midnightblue" d="M161,-101.805C161,-92.9102 161,-82.7798 161,-75.7511"/>
<polygon fill="midnightblue" stroke="midnightblue" points="157.5,-102.083 161,-112.083 164.5,-102.083 157.5,-102.083"/>
</g>
<!-- Node2 -->
<g id="node3" class="node"><title>Node2</title>
<g id="a_node3"><a xlink:title="STL class. ">
<polygon fill="white" stroke="#bfbfbf" points="122,-168.5 122,-187.5 200,-187.5 200,-168.5 122,-168.5"/>
<text text-anchor="middle" x="161" y="-175.5" font-family="Helvetica,sans-Serif" font-size="10.00">std::exception</text>
</a>
</g>
</g>
<!-- Node2&#45;&gt;Node1 -->
<g id="edge2" class="edge"><title>Node2&#45;&gt;Node1</title>
<path fill="none" stroke="midnightblue" d="M161,-157.805C161,-148.91 161,-138.78 161,-131.751"/>
<polygon fill="midnightblue" stroke="midnightblue" points="157.5,-158.083 161,-168.083 164.5,-158.083 157.5,-158.083"/>
</g>
</g>
</svg>
