<?xml version="1.0" encoding="UTF-8" standalone="no"?>
<!DOCTYPE svg PUBLIC "-//W3C//DTD SVG 1.1//EN"
 "http://www.w3.org/Graphics/SVG/1.1/DTD/svg11.dtd">
<!-- Generated by graphviz version 2.36.0 (20140111.2315)
 -->
<!-- Title: ant::expconfig::detector::TAPS_2009_03 Pages: 1 -->
<svg width="267pt" height="220pt"
 viewBox="0.00 0.00 267.00 220.00" xmlns="http://www.w3.org/2000/svg" xmlns:xlink="http://www.w3.org/1999/xlink">
<g id="graph0" class="graph" transform="scale(1 1) rotate(0) translate(4 216)">
<title>ant::expconfig::detector::TAPS_2009_03</title>
<polygon fill="white" stroke="none" points="-4,4 -4,-216 263,-216 263,4 -4,4"/>
<!-- Node0 -->
<g id="node1" class="node"><title>Node0</title>
<polygon fill="#bfbfbf" stroke="black" points="65.5,-1 65.5,-31 184.5,-31 184.5,-1 65.5,-1"/>
<text text-anchor="start" x="73.5" y="-19" font-family="Helvetica,sans-Serif" font-size="10.00">ant::expconfig::detector</text>
<text text-anchor="middle" x="125" y="-8" font-family="Helvetica,sans-Serif" font-size="10.00">::TAPS_2009_03</text>
</g>
<!-- Node1 -->
<g id="node2" class="node"><title>Node1</title>
<g id="a_node2"><a xlink:href="structant_1_1expconfig_1_1detector_1_1_t_a_p_s.html" target="_top" xlink:title="ant::expconfig::detector\l::TAPS">
<polygon fill="white" stroke="black" points="65.5,-69 65.5,-99 184.5,-99 184.5,-69 65.5,-69"/>
<text text-anchor="start" x="73.5" y="-87" font-family="Helvetica,sans-Serif" font-size="10.00">ant::expconfig::detector</text>
<text text-anchor="middle" x="125" y="-76" font-family="Helvetica,sans-Serif" font-size="10.00">::TAPS</text>
</a>
</g>
</g>
<!-- Node1&#45;&gt;Node0 -->
<g id="edge1" class="edge"><title>Node1&#45;&gt;Node0</title>
<path fill="none" stroke="midnightblue" d="M125,-58.5322C125,-49.3606 125,-39.2449 125,-31.2931"/>
<polygon fill="midnightblue" stroke="midnightblue" points="121.5,-58.6789 125,-68.679 128.5,-58.679 121.5,-58.6789"/>
</g>
<!-- Node2 -->
<g id="node3" class="node"><title>Node2</title>
<g id="a_node3"><a xlink:href="structant_1_1_cluster_detector__t.html" target="_top" xlink:title="ant::ClusterDetector_t">
<polygon fill="white" stroke="black" points="-0.5,-136.5 -0.5,-155.5 112.5,-155.5 112.5,-136.5 -0.5,-136.5"/>
<text text-anchor="middle" x="56" y="-143.5" font-family="Helvetica,sans-Serif" font-size="10.00">ant::ClusterDetector_t</text>
</a>
</g>
</g>
<!-- Node2&#45;&gt;Node1 -->
<g id="edge2" class="edge"><title>Node2&#45;&gt;Node1</title>
<path fill="none" stroke="midnightblue" d="M73.486,-129.795C84.3201,-120.374 98.1403,-108.356 108.738,-99.1408"/>
<polygon fill="midnightblue" stroke="midnightblue" points="71.1355,-127.201 65.886,-136.403 75.7287,-132.483 71.1355,-127.201"/>
</g>
<!-- Node3 -->
<g id="node4" class="node"><title>Node3</title>
<g id="a_node4"><a xlink:href="structant_1_1_detector__t.html" target="_top" xlink:title="The Detector_t struct is the minimal base class for all detectors. ">
<polygon fill="white" stroke="black" points="15,-192.5 15,-211.5 97,-211.5 97,-192.5 15,-192.5"/>
<text text-anchor="middle" x="56" y="-199.5" font-family="Helvetica,sans-Serif" font-size="10.00">ant::Detector_t</text>
</a>
</g>
</g>
<!-- Node3&#45;&gt;Node2 -->
<g id="edge3" class="edge"><title>Node3&#45;&gt;Node2</title>
<path fill="none" stroke="midnightblue" d="M56,-181.805C56,-172.91 56,-162.78 56,-155.751"/>
<polygon fill="midnightblue" stroke="midnightblue" points="52.5001,-182.083 56,-192.083 59.5001,-182.083 52.5001,-182.083"/>
</g>
<!-- Node4 -->
<g id="node5" class="node"><title>Node4</title>
<g id="a_node5"><a xlink:href="classant_1_1_unpacker_acqu_config.html" target="_top" xlink:title="ant::UnpackerAcquConfig">
<polygon fill="white" stroke="black" points="130.5,-136.5 130.5,-155.5 259.5,-155.5 259.5,-136.5 130.5,-136.5"/>
<text text-anchor="middle" x="195" y="-143.5" font-family="Helvetica,sans-Serif" font-size="10.00">ant::UnpackerAcquConfig</text>
</a>
</g>
</g>
<!-- Node4&#45;&gt;Node1 -->
<g id="edge4" class="edge"><title>Node4&#45;&gt;Node1</title>
<path fill="none" stroke="midnightblue" d="M177.261,-129.795C166.269,-120.374 152.249,-108.356 141.498,-99.1408"/>
<polygon fill="midnightblue" stroke="midnightblue" points="175.1,-132.553 184.971,-136.403 179.656,-127.238 175.1,-132.553"/>
</g>
</g>
</svg>
