<?xml version="1.0" encoding="UTF-8" standalone="no"?>
<!DOCTYPE svg PUBLIC "-//W3C//DTD SVG 1.1//EN"
 "http://www.w3.org/Graphics/SVG/1.1/DTD/svg11.dtd">
<!-- Generated by graphviz version 2.36.0 (20140111.2315)
 -->
<!-- Title: SIGMA::CrossSectionDataPoint Pages: 1 -->
<svg width="199pt" height="178pt"
 viewBox="0.00 0.00 199.00 178.00" xmlns="http://www.w3.org/2000/svg" xmlns:xlink="http://www.w3.org/1999/xlink">
<g id="graph0" class="graph" transform="scale(1 1) rotate(0) translate(4 174)">
<title>SIGMA::CrossSectionDataPoint</title>
<polygon fill="white" stroke="none" points="-4,4 -4,-174 195,-174 195,4 -4,4"/>
<!-- Node1 -->
<g id="node1" class="node"><title>Node1</title>
<polygon fill="#bfbfbf" stroke="black" points="5,-0.5 5,-19.5 163,-19.5 163,-0.5 5,-0.5"/>
<text text-anchor="middle" x="84" y="-7.5" font-family="Helvetica,sans-Serif" font-size="10.00">SIGMA::CrossSectionDataPoint</text>
</g>
<!-- Node2 -->
<g id="node2" class="node"><title>Node2</title>
<g id="a_node2"><a xlink:href="structant_1_1analysis_1_1utils_1_1_val_error.html" target="_top" xlink:title="ant::analysis::utils\l::ValError">
<polygon fill="white" stroke="black" points="0,-69 0,-99 96,-99 96,-69 0,-69"/>
<text text-anchor="start" x="8" y="-87" font-family="Helvetica,sans-Serif" font-size="10.00">ant::analysis::utils</text>
<text text-anchor="middle" x="48" y="-76" font-family="Helvetica,sans-Serif" font-size="10.00">::ValError</text>
</a>
</g>
</g>
<!-- Node2&#45;&gt;Node1 -->
<g id="edge1" class="edge"><title>Node2&#45;&gt;Node1</title>
<path fill="none" stroke="#9a32cd" stroke-dasharray="5,2" d="M59.7582,-59.4835C66.5582,-45.8836 74.7145,-29.571 79.6206,-19.7589"/>
<polygon fill="#9a32cd" stroke="#9a32cd" points="56.4541,-58.2656 55.1124,-68.7751 62.7151,-61.3961 56.4541,-58.2656"/>
<text text-anchor="middle" x="82.5" y="-41.5" font-family="Helvetica,sans-Serif" font-size="10.00"> Data</text>
</g>
<!-- Node3 -->
<g id="node3" class="node"><title>Node3</title>
<g id="a_node3"><a xlink:title="STL class. ">
<polygon fill="white" stroke="#bfbfbf" points="114,-74.5 114,-93.5 174,-93.5 174,-74.5 114,-74.5"/>
<text text-anchor="middle" x="144" y="-81.5" font-family="Helvetica,sans-Serif" font-size="10.00">std::string</text>
</a>
</g>
</g>
<!-- Node3&#45;&gt;Node1 -->
<g id="edge2" class="edge"><title>Node3&#45;&gt;Node1</title>
<path fill="none" stroke="#9a32cd" stroke-dasharray="5,2" d="M130.397,-66.6767C118.191,-52.0292 100.757,-31.1086 91.1091,-19.531"/>
<polygon fill="#9a32cd" stroke="#9a32cd" points="127.791,-69.0163 136.882,-74.4579 133.168,-64.535 127.791,-69.0163"/>
<text text-anchor="middle" x="126" y="-41.5" font-family="Helvetica,sans-Serif" font-size="10.00"> Unit</text>
</g>
<!-- Node4 -->
<g id="node4" class="node"><title>Node4</title>
<g id="a_node4"><a xlink:title="STL class. ">
<polygon fill="white" stroke="#bfbfbf" points="96.5,-139 96.5,-169 191.5,-169 191.5,-139 96.5,-139"/>
<text text-anchor="start" x="104.5" y="-157" font-family="Helvetica,sans-Serif" font-size="10.00">std::basic_string&lt;</text>
<text text-anchor="middle" x="144" y="-146" font-family="Helvetica,sans-Serif" font-size="10.00"> char &gt;</text>
</a>
</g>
</g>
<!-- Node4&#45;&gt;Node3 -->
<g id="edge3" class="edge"><title>Node4&#45;&gt;Node3</title>
<path fill="none" stroke="midnightblue" d="M144,-128.883C144,-116.733 144,-102.739 144,-93.8833"/>
<polygon fill="midnightblue" stroke="midnightblue" points="140.5,-128.91 144,-138.91 147.5,-128.91 140.5,-128.91"/>
</g>
</g>
</svg>
