<?xml version="1.0" encoding="UTF-8" standalone="no"?>
<!DOCTYPE svg PUBLIC "-//W3C//DTD SVG 1.1//EN"
 "http://www.w3.org/Graphics/SVG/1.1/DTD/svg11.dtd">
<!-- Generated by graphviz version 2.36.0 (20140111.2315)
 -->
<!-- Title: ant::ReconstructHook::ClusterHits Pages: 1 -->
<svg width="120pt" height="176pt"
 viewBox="0.00 0.00 120.00 176.00" xmlns="http://www.w3.org/2000/svg" xmlns:xlink="http://www.w3.org/1999/xlink">
<g id="graph0" class="graph" transform="scale(1 1) rotate(0) translate(4 172)">
<title>ant::ReconstructHook::ClusterHits</title>
<polygon fill="white" stroke="none" points="-4,4 -4,-172 116,-172 116,4 -4,4"/>
<!-- Node0 -->
<g id="node1" class="node"><title>Node0</title>
<polygon fill="#bfbfbf" stroke="black" points="-0.5,-69 -0.5,-99 112.5,-99 112.5,-69 -0.5,-69"/>
<text text-anchor="start" x="7.5" y="-87" font-family="Helvetica,sans-Serif" font-size="10.00">ant::ReconstructHook</text>
<text text-anchor="middle" x="56" y="-76" font-family="Helvetica,sans-Serif" font-size="10.00">::ClusterHits</text>
</g>
<!-- Node2 -->
<g id="node3" class="node"><title>Node2</title>
<g id="a_node3"><a xlink:href="classant_1_1calibration_1_1_c_b___time_walk.html" target="_top" xlink:title="ant::calibration::CB\l_TimeWalk">
<polygon fill="white" stroke="black" points="5.5,-1 5.5,-31 106.5,-31 106.5,-1 5.5,-1"/>
<text text-anchor="start" x="13.5" y="-19" font-family="Helvetica,sans-Serif" font-size="10.00">ant::calibration::CB</text>
<text text-anchor="middle" x="56" y="-8" font-family="Helvetica,sans-Serif" font-size="10.00">_TimeWalk</text>
</a>
</g>
</g>
<!-- Node0&#45;&gt;Node2 -->
<g id="edge2" class="edge"><title>Node0&#45;&gt;Node2</title>
<path fill="none" stroke="midnightblue" d="M56,-58.5322C56,-49.3606 56,-39.2449 56,-31.2931"/>
<polygon fill="midnightblue" stroke="midnightblue" points="52.5001,-58.6789 56,-68.679 59.5001,-58.679 52.5001,-58.6789"/>
</g>
<!-- Node1 -->
<g id="node2" class="node"><title>Node1</title>
<g id="a_node2"><a xlink:href="structant_1_1_reconstruct_hook_1_1_base.html" target="_top" xlink:title="The Base struct just defines some useful types. ">
<polygon fill="white" stroke="black" points="-0.5,-137 -0.5,-167 112.5,-167 112.5,-137 -0.5,-137"/>
<text text-anchor="start" x="7.5" y="-155" font-family="Helvetica,sans-Serif" font-size="10.00">ant::ReconstructHook</text>
<text text-anchor="middle" x="56" y="-144" font-family="Helvetica,sans-Serif" font-size="10.00">::Base</text>
</a>
</g>
</g>
<!-- Node1&#45;&gt;Node0 -->
<g id="edge1" class="edge"><title>Node1&#45;&gt;Node0</title>
<path fill="none" stroke="midnightblue" d="M56,-126.532C56,-117.361 56,-107.245 56,-99.2931"/>
<polygon fill="midnightblue" stroke="midnightblue" points="52.5001,-126.679 56,-136.679 59.5001,-126.679 52.5001,-126.679"/>
</g>
</g>
</svg>
