<?xml version="1.0" encoding="UTF-8" standalone="no"?>
<!DOCTYPE svg PUBLIC "-//W3C//DTD SVG 1.1//EN"
 "http://www.w3.org/Graphics/SVG/1.1/DTD/svg11.dtd">
<!-- Generated by graphviz version 2.36.0 (20140111.2315)
 -->
<!-- Title: ant::reconstruct::clustering::cluster_t Pages: 1 -->
<svg width="140pt" height="166pt"
 viewBox="0.00 0.00 140.00 166.00" xmlns="http://www.w3.org/2000/svg" xmlns:xlink="http://www.w3.org/1999/xlink">
<g id="graph0" class="graph" transform="scale(1 1) rotate(0) translate(4 162)">
<title>ant::reconstruct::clustering::cluster_t</title>
<polygon fill="white" stroke="none" points="-4,4 -4,-162 136,-162 136,4 -4,4"/>
<!-- Node2 -->
<g id="node1" class="node"><title>Node2</title>
<polygon fill="#bfbfbf" stroke="black" points="-0.5,-1 -0.5,-31 132.5,-31 132.5,-1 -0.5,-1"/>
<text text-anchor="start" x="7.5" y="-19" font-family="Helvetica,sans-Serif" font-size="10.00">ant::reconstruct::clustering</text>
<text text-anchor="middle" x="66" y="-8" font-family="Helvetica,sans-Serif" font-size="10.00">::cluster_t</text>
</g>
<!-- Node3 -->
<g id="node2" class="node"><title>Node3</title>
<g id="a_node2"><a xlink:title="STL class. ">
<polygon fill="white" stroke="#bfbfbf" points="6.5,-70.5 6.5,-89.5 125.5,-89.5 125.5,-70.5 6.5,-70.5"/>
<text text-anchor="middle" x="66" y="-77.5" font-family="Helvetica,sans-Serif" font-size="10.00">std::vector&lt; crystal_t &gt;</text>
</a>
</g>
</g>
<!-- Node3&#45;&gt;Node2 -->
<g id="edge1" class="edge"><title>Node3&#45;&gt;Node2</title>
<path fill="none" stroke="midnightblue" d="M66,-60.1826C66,-50.8859 66,-39.8507 66,-31.263"/>
<polygon fill="midnightblue" stroke="midnightblue" points="62.5001,-60.3791 66,-70.3792 69.5001,-60.3792 62.5001,-60.3791"/>
</g>
<!-- Node4 -->
<g id="node3" class="node"><title>Node4</title>
<polygon fill="white" stroke="#bfbfbf" points="51.5,-138.5 51.5,-157.5 80.5,-157.5 80.5,-138.5 51.5,-138.5"/>
<text text-anchor="middle" x="66" y="-145.5" font-family="Helvetica,sans-Serif" font-size="10.00">T</text>
</g>
<!-- Node4&#45;&gt;Node3 -->
<g id="edge2" class="edge"><title>Node4&#45;&gt;Node3</title>
<path fill="none" stroke="#9a32cd" stroke-dasharray="5,2" d="M66,-128.041C66,-115.472 66,-99.5631 66,-89.8411"/>
<polygon fill="#9a32cd" stroke="#9a32cd" points="62.5001,-128.372 66,-138.372 69.5001,-128.372 62.5001,-128.372"/>
<text text-anchor="middle" x="87.5" y="-111.5" font-family="Helvetica,sans-Serif" font-size="10.00"> elements</text>
</g>
</g>
</svg>
