<?xml version="1.0" encoding="UTF-8" standalone="no"?>
<!DOCTYPE svg PUBLIC "-//W3C//DTD SVG 1.1//EN"
 "http://www.w3.org/Graphics/SVG/1.1/DTD/svg11.dtd">
<!-- Generated by graphviz version 2.36.0 (20140111.2315)
 -->
<!-- Title: sigmaPlus_FinalPlot::SigmaK0Hist_t Pages: 1 -->
<svg width="249pt" height="266pt"
 viewBox="0.00 0.00 249.00 266.00" xmlns="http://www.w3.org/2000/svg" xmlns:xlink="http://www.w3.org/1999/xlink">
<g id="graph0" class="graph" transform="scale(1 1) rotate(0) translate(4 262)">
<title>sigmaPlus_FinalPlot::SigmaK0Hist_t</title>
<polygon fill="white" stroke="none" points="-4,4 -4,-262 245,-262 245,4 -4,4"/>
<!-- Node1 -->
<g id="node1" class="node"><title>Node1</title>
<polygon fill="#bfbfbf" stroke="black" points="54,-1 54,-31 160,-31 160,-1 54,-1"/>
<text text-anchor="start" x="62" y="-19" font-family="Helvetica,sans-Serif" font-size="10.00">sigmaPlus_FinalPlot</text>
<text text-anchor="middle" x="107" y="-8" font-family="Helvetica,sans-Serif" font-size="10.00">::SigmaK0Hist_t</text>
</g>
<!-- Node2 -->
<g id="node2" class="node"><title>Node2</title>
<g id="a_node2"><a xlink:href="classant_1_1analysis_1_1_histogram_factory.html" target="_top" xlink:title="ant::analysis::Histogram\lFactory">
<polygon fill="white" stroke="black" points="-0.5,-169 -0.5,-199 122.5,-199 122.5,-169 -0.5,-169"/>
<text text-anchor="start" x="7.5" y="-187" font-family="Helvetica,sans-Serif" font-size="10.00">ant::analysis::Histogram</text>
<text text-anchor="middle" x="61" y="-176" font-family="Helvetica,sans-Serif" font-size="10.00">Factory</text>
</a>
</g>
</g>
<!-- Node2&#45;&gt;Node1 -->
<g id="edge1" class="edge"><title>Node2&#45;&gt;Node1</title>
<path fill="none" stroke="#9a32cd" stroke-dasharray="5,2" d="M65.5789,-158.752C70.9505,-131.834 80.7053,-87.2661 93,-50 95.0668,-43.7353 97.8223,-37.0008 100.342,-31.2596"/>
<polygon fill="#9a32cd" stroke="#9a32cd" points="62.0967,-158.322 63.613,-168.808 68.9667,-159.665 62.0967,-158.322"/>
<text text-anchor="middle" x="112" y="-97.5" font-family="Helvetica,sans-Serif" font-size="10.00"> HistFac</text>
</g>
<!-- Node3 -->
<g id="node3" class="node"><title>Node3</title>
<g id="a_node3"><a xlink:href="classant_1_1_bin_settings.html" target="_top" xlink:title="ant::BinSettings">
<polygon fill="white" stroke="black" points="141,-174.5 141,-193.5 227,-193.5 227,-174.5 141,-174.5"/>
<text text-anchor="middle" x="184" y="-181.5" font-family="Helvetica,sans-Serif" font-size="10.00">ant::BinSettings</text>
</a>
</g>
</g>
<!-- Node3&#45;&gt;Node1 -->
<g id="edge2" class="edge"><title>Node3&#45;&gt;Node1</title>
<path fill="none" stroke="#9a32cd" stroke-dasharray="5,2" d="M178.26,-164.495C169.741,-138.185 152.427,-88.8513 131,-50 127.442,-43.5486 122.814,-36.8927 118.572,-31.2632"/>
<polygon fill="#9a32cd" stroke="#9a32cd" points="174.999,-165.789 181.359,-174.263 181.671,-163.672 174.999,-165.789"/>
<text text-anchor="middle" x="203" y="-141.5" font-family="Helvetica,sans-Serif" font-size="10.00"> pEbins</text>
<text text-anchor="middle" x="203" y="-130.5" font-family="Helvetica,sans-Serif" font-size="10.00">Chi2Bins</text>
<text text-anchor="middle" x="203" y="-119.5" font-family="Helvetica,sans-Serif" font-size="10.00">taggerBins</text>
<text text-anchor="middle" x="203" y="-108.5" font-family="Helvetica,sans-Serif" font-size="10.00">pThetaBins</text>
<text text-anchor="middle" x="203" y="-97.5" font-family="Helvetica,sans-Serif" font-size="10.00">IM2g</text>
<text text-anchor="middle" x="203" y="-86.5" font-family="Helvetica,sans-Serif" font-size="10.00">IMProtonBins</text>
<text text-anchor="middle" x="203" y="-75.5" font-family="Helvetica,sans-Serif" font-size="10.00">Ebins</text>
<text text-anchor="middle" x="203" y="-64.5" font-family="Helvetica,sans-Serif" font-size="10.00">probbins</text>
<text text-anchor="middle" x="203" y="-53.5" font-family="Helvetica,sans-Serif" font-size="10.00">IMbins</text>
</g>
<!-- Node4 -->
<g id="node4" class="node"><title>Node4</title>
<g id="a_node4"><a xlink:href="classant_1_1interval.html" target="_top" xlink:title="ant::interval\&lt; double \&gt;">
<polygon fill="white" stroke="black" points="127,-238.5 127,-257.5 241,-257.5 241,-238.5 127,-238.5"/>
<text text-anchor="middle" x="184" y="-245.5" font-family="Helvetica,sans-Serif" font-size="10.00">ant::interval&lt; double &gt;</text>
</a>
</g>
</g>
<!-- Node4&#45;&gt;Node3 -->
<g id="edge3" class="edge"><title>Node4&#45;&gt;Node3</title>
<path fill="none" stroke="midnightblue" d="M184,-228.037C184,-216.53 184,-202.403 184,-193.548"/>
<polygon fill="midnightblue" stroke="midnightblue" points="180.5,-228.379 184,-238.379 187.5,-228.379 180.5,-228.379"/>
</g>
</g>
</svg>
