<?xml version="1.0" encoding="UTF-8" standalone="no"?>
<!DOCTYPE svg PUBLIC "-//W3C//DTD SVG 1.1//EN"
 "http://www.w3.org/Graphics/SVG/1.1/DTD/svg11.dtd">
<!-- Generated by graphviz version 2.36.0 (20140111.2315)
 -->
<!-- Title: CommonHist_t::Fill_t Pages: 1 -->
<svg width="264pt" height="152pt"
 viewBox="0.00 0.00 264.00 152.00" xmlns="http://www.w3.org/2000/svg" xmlns:xlink="http://www.w3.org/1999/xlink">
<g id="graph0" class="graph" transform="scale(1 1) rotate(0) translate(4 148)">
<title>CommonHist_t::Fill_t</title>
<polygon fill="white" stroke="none" points="-4,4 -4,-148 260,-148 260,4 -4,4"/>
<!-- Node0 -->
<g id="node1" class="node"><title>Node0</title>
<polygon fill="#bfbfbf" stroke="black" points="39,-124.5 39,-143.5 149,-143.5 149,-124.5 39,-124.5"/>
<text text-anchor="middle" x="94" y="-131.5" font-family="Helvetica,sans-Serif" font-size="10.00">CommonHist_t::Fill_t</text>
</g>
<!-- Node1 -->
<g id="node2" class="node"><title>Node1</title>
<g id="a_node2"><a xlink:href="struct_ref_hist__t_1_1_fill__t.html" target="_top" xlink:title="RefHist_t::Fill_t">
<polygon fill="white" stroke="black" points="0,-68.5 0,-87.5 86,-87.5 86,-68.5 0,-68.5"/>
<text text-anchor="middle" x="43" y="-75.5" font-family="Helvetica,sans-Serif" font-size="10.00">RefHist_t::Fill_t</text>
</a>
</g>
</g>
<!-- Node0&#45;&gt;Node1 -->
<g id="edge1" class="edge"><title>Node0&#45;&gt;Node1</title>
<path fill="none" stroke="midnightblue" d="M78.6221,-116.718C69.6331,-107.2 58.6408,-95.5608 51.2649,-87.7511"/>
<polygon fill="midnightblue" stroke="midnightblue" points="76.1676,-119.216 85.5784,-124.083 81.2567,-114.41 76.1676,-119.216"/>
</g>
<!-- Node2 -->
<g id="node3" class="node"><title>Node2</title>
<g id="a_node3"><a xlink:href="struct_sig_hist__t_1_1_fill__t.html" target="_top" xlink:title="SigHist_t::Fill_t">
<polygon fill="white" stroke="black" points="104,-68.5 104,-87.5 188,-87.5 188,-68.5 104,-68.5"/>
<text text-anchor="middle" x="146" y="-75.5" font-family="Helvetica,sans-Serif" font-size="10.00">SigHist_t::Fill_t</text>
</a>
</g>
</g>
<!-- Node0&#45;&gt;Node2 -->
<g id="edge2" class="edge"><title>Node0&#45;&gt;Node2</title>
<path fill="none" stroke="midnightblue" d="M109.679,-116.718C118.845,-107.2 130.053,-95.5608 137.573,-87.7511"/>
<polygon fill="midnightblue" stroke="midnightblue" points="107.002,-114.452 102.587,-124.083 112.044,-119.308 107.002,-114.452"/>
</g>
<!-- Node3 -->
<g id="node4" class="node"><title>Node3</title>
<g id="a_node4"><a xlink:href="struct_sig_omega_pi0_hist__t_1_1_fill__t.html" target="_top" xlink:title="SigOmegaPi0Hist_t::\lFill_t">
<polygon fill="white" stroke="black" points="30.5,-1 30.5,-31 139.5,-31 139.5,-1 30.5,-1"/>
<text text-anchor="start" x="38.5" y="-19" font-family="Helvetica,sans-Serif" font-size="10.00">SigOmegaPi0Hist_t::</text>
<text text-anchor="middle" x="85" y="-8" font-family="Helvetica,sans-Serif" font-size="10.00">Fill_t</text>
</a>
</g>
</g>
<!-- Node2&#45;&gt;Node3 -->
<g id="edge3" class="edge"><title>Node2&#45;&gt;Node3</title>
<path fill="none" stroke="midnightblue" d="M129.975,-61.2376C120.485,-51.9036 108.562,-40.1755 99.3765,-31.1408"/>
<polygon fill="midnightblue" stroke="midnightblue" points="127.677,-63.8863 137.26,-68.4035 132.585,-58.8958 127.677,-63.8863"/>
</g>
<!-- Node4 -->
<g id="node5" class="node"><title>Node4</title>
<g id="a_node5"><a xlink:href="struct_sig_pi0_hist__t_1_1_fill__t.html" target="_top" xlink:title="SigPi0Hist_t::Fill_t">
<polygon fill="white" stroke="black" points="158,-6.5 158,-25.5 256,-25.5 256,-6.5 158,-6.5"/>
<text text-anchor="middle" x="207" y="-13.5" font-family="Helvetica,sans-Serif" font-size="10.00">SigPi0Hist_t::Fill_t</text>
</a>
</g>
</g>
<!-- Node2&#45;&gt;Node4 -->
<g id="edge4" class="edge"><title>Node2&#45;&gt;Node4</title>
<path fill="none" stroke="midnightblue" d="M162.071,-61.1928C173.66,-49.7935 188.861,-34.8414 198.276,-25.5806"/>
<polygon fill="midnightblue" stroke="midnightblue" points="159.415,-58.8958 154.74,-68.4035 164.323,-63.8863 159.415,-58.8958"/>
</g>
</g>
</svg>
