<?xml version="1.0" encoding="UTF-8" standalone="no"?>
<!DOCTYPE svg PUBLIC "-//W3C//DTD SVG 1.1//EN"
 "http://www.w3.org/Graphics/SVG/1.1/DTD/svg11.dtd">
<!-- Generated by graphviz version 2.36.0 (20140111.2315)
 -->
<!-- Title: ant::analysis::physics::triplePi0 Pages: 1 -->
<svg width="1552pt" height="857pt"
 viewBox="0.00 0.00 1552.00 857.00" xmlns="http://www.w3.org/2000/svg" xmlns:xlink="http://www.w3.org/1999/xlink">
<g id="graph0" class="graph" transform="scale(1 1) rotate(0) translate(4 853)">
<title>ant::analysis::physics::triplePi0</title>
<polygon fill="white" stroke="none" points="-4,4 -4,-853 1548,-853 1548,4 -4,4"/>
<!-- Node2 -->
<g id="node1" class="node"><title>Node2</title>
<polygon fill="#bfbfbf" stroke="black" points="1432,-500 1432,-530 1544,-530 1544,-500 1432,-500"/>
<text text-anchor="start" x="1440" y="-518" font-family="Helvetica,sans-Serif" font-size="10.00">ant::analysis::physics</text>
<text text-anchor="middle" x="1488" y="-507" font-family="Helvetica,sans-Serif" font-size="10.00">::triplePi0</text>
</g>
<!-- Node3 -->
<g id="node2" class="node"><title>Node3</title>
<g id="a_node2"><a xlink:href="classant_1_1analysis_1_1_physics.html" target="_top" xlink:title="ant::analysis::Physics">
<polygon fill="white" stroke="black" points="1168.5,-822.5 1168.5,-841.5 1281.5,-841.5 1281.5,-822.5 1168.5,-822.5"/>
<text text-anchor="middle" x="1225" y="-829.5" font-family="Helvetica,sans-Serif" font-size="10.00">ant::analysis::Physics</text>
</a>
</g>
</g>
<!-- Node3&#45;&gt;Node2 -->
<g id="edge1" class="edge"><title>Node3&#45;&gt;Node2</title>
<path fill="none" stroke="midnightblue" d="M1292.02,-839.217C1332.04,-839.851 1381.48,-833.435 1414,-804 1455.73,-766.235 1479.24,-584.03 1485.37,-530.081"/>
<polygon fill="midnightblue" stroke="midnightblue" points="1291.91,-835.712 1281.81,-838.902 1291.69,-842.709 1291.91,-835.712"/>
</g>
<!-- Node4 -->
<g id="node3" class="node"><title>Node4</title>
<g id="a_node3"><a xlink:href="classant_1_1analysis_1_1_histogram_factory.html" target="_top" xlink:title="ant::analysis::Histogram\lFactory">
<polygon fill="white" stroke="black" points="851.5,-819 851.5,-849 974.5,-849 974.5,-819 851.5,-819"/>
<text text-anchor="start" x="859.5" y="-837" font-family="Helvetica,sans-Serif" font-size="10.00">ant::analysis::Histogram</text>
<text text-anchor="middle" x="913" y="-826" font-family="Helvetica,sans-Serif" font-size="10.00">Factory</text>
</a>
</g>
</g>
<!-- Node4&#45;&gt;Node3 -->
<g id="edge2" class="edge"><title>Node4&#45;&gt;Node3</title>
<path fill="none" stroke="#9a32cd" stroke-dasharray="5,2" d="M984.652,-833.544C1040.35,-833.185 1116.93,-832.691 1168.33,-832.359"/>
<polygon fill="#9a32cd" stroke="#9a32cd" points="984.484,-830.045 974.507,-833.61 984.529,-837.045 984.484,-830.045"/>
<text text-anchor="middle" x="1072" y="-836" font-family="Helvetica,sans-Serif" font-size="10.00"> HistFac</text>
</g>
<!-- Node5 -->
<g id="node4" class="node"><title>Node5</title>
<g id="a_node4"><a xlink:href="structant_1_1analysis_1_1physics_1_1triple_pi0_1_1settings__t.html" target="_top" xlink:title="ant::analysis::physics\l::triplePi0::settings_t">
<polygon fill="white" stroke="black" points="857,-710 857,-740 969,-740 969,-710 857,-710"/>
<text text-anchor="start" x="865" y="-728" font-family="Helvetica,sans-Serif" font-size="10.00">ant::analysis::physics</text>
<text text-anchor="middle" x="913" y="-717" font-family="Helvetica,sans-Serif" font-size="10.00">::triplePi0::settings_t</text>
</a>
</g>
</g>
<!-- Node5&#45;&gt;Node2 -->
<g id="edge3" class="edge"><title>Node5&#45;&gt;Node2</title>
<path fill="none" stroke="#9a32cd" stroke-dasharray="5,2" d="M979.195,-729.473C1099.22,-736.303 1348.83,-743.521 1414,-691 1465.77,-649.276 1481.25,-564.573 1485.51,-530.103"/>
<polygon fill="#9a32cd" stroke="#9a32cd" points="979.226,-725.969 969.039,-728.879 978.817,-732.957 979.226,-725.969"/>
<text text-anchor="middle" x="1225" y="-738" font-family="Helvetica,sans-Serif" font-size="10.00"> phSettings</text>
</g>
<!-- Node6 -->
<g id="node5" class="node"><title>Node6</title>
<polygon fill="white" stroke="#bfbfbf" points="603,-768 603,-798 707,-798 707,-768 603,-768"/>
<text text-anchor="start" x="611" y="-786" font-family="Helvetica,sans-Serif" font-size="10.00">std::vector&lt; interval</text>
<text text-anchor="middle" x="655" y="-775" font-family="Helvetica,sans-Serif" font-size="10.00">&lt; double &gt; &gt;</text>
</g>
<!-- Node6&#45;&gt;Node5 -->
<g id="edge4" class="edge"><title>Node6&#45;&gt;Node5</title>
<path fill="none" stroke="#9a32cd" stroke-dasharray="5,2" d="M717.076,-769.936C746.934,-763.474 783.379,-755.475 816,-748 829.281,-744.957 843.571,-741.586 856.963,-738.384"/>
<polygon fill="#9a32cd" stroke="#9a32cd" points="716.254,-766.533 707.218,-772.066 717.732,-773.375 716.254,-766.533"/>
<text text-anchor="middle" x="776" y="-769" font-family="Helvetica,sans-Serif" font-size="10.00"> Ranges_Random</text>
</g>
<!-- Node40 -->
<g id="node39" class="node"><title>Node40</title>
<g id="a_node39"><a xlink:href="classant_1_1_piecewise_interval.html" target="_top" xlink:title="ant::PiecewiseInterval\l\&lt; double \&gt;">
<polygon fill="white" stroke="black" points="856.5,-770 856.5,-800 969.5,-800 969.5,-770 856.5,-770"/>
<text text-anchor="start" x="864.5" y="-788" font-family="Helvetica,sans-Serif" font-size="10.00">ant::PiecewiseInterval</text>
<text text-anchor="middle" x="913" y="-777" font-family="Helvetica,sans-Serif" font-size="10.00">&lt; double &gt;</text>
</a>
</g>
</g>
<!-- Node6&#45;&gt;Node40 -->
<g id="edge46" class="edge"><title>Node6&#45;&gt;Node40</title>
<path fill="none" stroke="midnightblue" d="M717.366,-783.479C759.68,-783.81 815.465,-784.246 856.462,-784.566"/>
<polygon fill="midnightblue" stroke="midnightblue" points="717.217,-779.978 707.19,-783.4 717.162,-786.978 717.217,-779.978"/>
</g>
<!-- Node7 -->
<g id="node6" class="node"><title>Node7</title>
<g id="a_node6"><a xlink:href="classant_1_1interval.html" target="_top" xlink:title="ant::interval\&lt; double \&gt;">
<polygon fill="white" stroke="black" points="388,-662.5 388,-681.5 502,-681.5 502,-662.5 388,-662.5"/>
<text text-anchor="middle" x="445" y="-669.5" font-family="Helvetica,sans-Serif" font-size="10.00">ant::interval&lt; double &gt;</text>
</a>
</g>
</g>
<!-- Node7&#45;&gt;Node5 -->
<g id="edge6" class="edge"><title>Node7&#45;&gt;Node5</title>
<path fill="none" stroke="#9a32cd" stroke-dasharray="5,2" d="M512.237,-668.152C537.225,-666.877 565.912,-665.625 592,-665 647.984,-663.659 662.629,-656.633 718,-665 774.297,-673.507 836.772,-695.16 875.225,-709.986"/>
<polygon fill="#9a32cd" stroke="#9a32cd" points="511.939,-664.663 502.135,-668.679 512.304,-671.653 511.939,-664.663"/>
<text text-anchor="middle" x="655" y="-712" font-family="Helvetica,sans-Serif" font-size="10.00"> Range_Prompt</text>
<text text-anchor="middle" x="655" y="-701" font-family="Helvetica,sans-Serif" font-size="10.00">Cut_EMB_prob</text>
<text text-anchor="middle" x="655" y="-690" font-family="Helvetica,sans-Serif" font-size="10.00">Cut_MMAngle</text>
<text text-anchor="middle" x="655" y="-679" font-family="Helvetica,sans-Serif" font-size="10.00">Cut_MM</text>
<text text-anchor="middle" x="655" y="-668" font-family="Helvetica,sans-Serif" font-size="10.00">Cut_ProtonCopl</text>
</g>
<!-- Node7&#45;&gt;Node6 -->
<g id="edge5" class="edge"><title>Node7&#45;&gt;Node6</title>
<path fill="none" stroke="#9a32cd" stroke-dasharray="5,2" d="M469.269,-687.175C497.591,-705.296 547.191,-735.922 592,-758 599.079,-761.488 606.772,-764.887 614.253,-767.998"/>
<polygon fill="#9a32cd" stroke="#9a32cd" points="470.821,-684.011 460.518,-681.539 467.031,-689.896 470.821,-684.011"/>
<text text-anchor="middle" x="551" y="-751" font-family="Helvetica,sans-Serif" font-size="10.00"> elements</text>
</g>
<!-- Node8 -->
<g id="node7" class="node"><title>Node8</title>
<g id="a_node7"><a xlink:title="STL class. ">
<polygon fill="white" stroke="#bfbfbf" points="625,-593.5 625,-612.5 685,-612.5 685,-593.5 625,-593.5"/>
<text text-anchor="middle" x="655" y="-600.5" font-family="Helvetica,sans-Serif" font-size="10.00">std::string</text>
</a>
</g>
</g>
<!-- Node8&#45;&gt;Node5 -->
<g id="edge7" class="edge"><title>Node8&#45;&gt;Node5</title>
<path fill="none" stroke="#9a32cd" stroke-dasharray="5,2" d="M695.356,-607.182C735.734,-611.948 795.458,-620.46 816,-631 853.149,-650.061 885.283,-688.423 901.252,-709.777"/>
<polygon fill="#9a32cd" stroke="#9a32cd" points="695.625,-603.69 685.29,-606.023 694.824,-610.644 695.625,-603.69"/>
<text text-anchor="middle" x="776" y="-634" font-family="Helvetica,sans-Serif" font-size="10.00"> Tree_Name</text>
</g>
<!-- Node43 -->
<g id="node42" class="node"><title>Node43</title>
<g id="a_node42"><a xlink:href="structant_1_1analysis_1_1physics_1_1triple_pi0_1_1named__channel__t.html" target="_top" xlink:title="ant::analysis::physics\l::triplePi0::named_channel_t">
<polygon fill="white" stroke="black" points="843,-581 843,-611 983,-611 983,-581 843,-581"/>
<text text-anchor="start" x="851" y="-599" font-family="Helvetica,sans-Serif" font-size="10.00">ant::analysis::physics</text>
<text text-anchor="middle" x="913" y="-588" font-family="Helvetica,sans-Serif" font-size="10.00">::triplePi0::named_channel_t</text>
</a>
</g>
</g>
<!-- Node8&#45;&gt;Node43 -->
<g id="edge50" class="edge"><title>Node8&#45;&gt;Node43</title>
<path fill="none" stroke="#9a32cd" stroke-dasharray="5,2" d="M695.244,-599.513C708.209,-598.506 722.713,-597.535 736,-597 771.111,-595.585 810.193,-595.24 842.594,-595.288"/>
<polygon fill="#9a32cd" stroke="#9a32cd" points="694.916,-596.028 685.23,-600.32 695.479,-603.005 694.916,-596.028"/>
<text text-anchor="middle" x="776" y="-600" font-family="Helvetica,sans-Serif" font-size="10.00"> Name</text>
</g>
<!-- Node9 -->
<g id="node8" class="node"><title>Node9</title>
<g id="a_node8"><a xlink:title="STL class. ">
<polygon fill="white" stroke="#bfbfbf" points="397.5,-588 397.5,-618 492.5,-618 492.5,-588 397.5,-588"/>
<text text-anchor="start" x="405.5" y="-606" font-family="Helvetica,sans-Serif" font-size="10.00">std::basic_string&lt;</text>
<text text-anchor="middle" x="445" y="-595" font-family="Helvetica,sans-Serif" font-size="10.00"> char &gt;</text>
</a>
</g>
</g>
<!-- Node9&#45;&gt;Node8 -->
<g id="edge8" class="edge"><title>Node9&#45;&gt;Node8</title>
<path fill="none" stroke="midnightblue" d="M502.709,-603C542.199,-603 593.247,-603 624.796,-603"/>
<polygon fill="midnightblue" stroke="midnightblue" points="502.679,-599.5 492.679,-603 502.679,-606.5 502.679,-599.5"/>
</g>
<!-- Node10 -->
<g id="node9" class="node"><title>Node10</title>
<g id="a_node9"><a xlink:href="classant_1_1interval.html" target="_top" xlink:title="ant::interval\&lt; size_t \&gt;">
<polygon fill="white" stroke="black" points="599,-729.5 599,-748.5 711,-748.5 711,-729.5 599,-729.5"/>
<text text-anchor="middle" x="655" y="-736.5" font-family="Helvetica,sans-Serif" font-size="10.00">ant::interval&lt; size_t &gt;</text>
</a>
</g>
</g>
<!-- Node10&#45;&gt;Node5 -->
<g id="edge9" class="edge"><title>Node10&#45;&gt;Node5</title>
<path fill="none" stroke="#9a32cd" stroke-dasharray="5,2" d="M717.043,-728.079C723.427,-727.237 729.835,-726.515 736,-726 776.346,-722.628 822.076,-722.479 856.808,-723.119"/>
<polygon fill="#9a32cd" stroke="#9a32cd" points="716.479,-724.624 707.067,-729.489 717.458,-731.555 716.479,-724.624"/>
<text text-anchor="middle" x="776" y="-740" font-family="Helvetica,sans-Serif" font-size="10.00"> Cut_NCands</text>
<text text-anchor="middle" x="776" y="-729" font-family="Helvetica,sans-Serif" font-size="10.00">Cut_NNeutr</text>
</g>
<!-- Node11 -->
<g id="node10" class="node"><title>Node11</title>
<g id="a_node10"><a xlink:href="structant_1_1analysis_1_1physics_1_1triple_pi0_1_1_pion_prod_tree.html" target="_top" xlink:title="ant::analysis::physics\l::triplePi0::PionProdTree">
<polygon fill="white" stroke="black" points="1010.5,-498 1010.5,-528 1133.5,-528 1133.5,-498 1010.5,-498"/>
<text text-anchor="start" x="1018.5" y="-516" font-family="Helvetica,sans-Serif" font-size="10.00">ant::analysis::physics</text>
<text text-anchor="middle" x="1072" y="-505" font-family="Helvetica,sans-Serif" font-size="10.00">::triplePi0::PionProdTree</text>
</a>
</g>
</g>
<!-- Node11&#45;&gt;Node2 -->
<g id="edge10" class="edge"><title>Node11&#45;&gt;Node2</title>
<path fill="none" stroke="#9a32cd" stroke-dasharray="5,2" d="M1143.82,-513.342C1225.35,-513.736 1357.55,-514.375 1431.82,-514.733"/>
<polygon fill="#9a32cd" stroke="#9a32cd" points="1143.66,-509.841 1133.64,-513.293 1143.63,-516.841 1143.66,-509.841"/>
<text text-anchor="middle" x="1225" y="-518" font-family="Helvetica,sans-Serif" font-size="10.00"> tree</text>
</g>
<!-- Node12 -->
<g id="node11" class="node"><title>Node12</title>
<g id="a_node11"><a xlink:href="classant_1_1_wrap_t_tree.html" target="_top" xlink:title="The WrapTTree struct simplifies TTree handling in physics classes. ">
<polygon fill="white" stroke="black" points="612.5,-483.5 612.5,-502.5 697.5,-502.5 697.5,-483.5 612.5,-483.5"/>
<text text-anchor="middle" x="655" y="-490.5" font-family="Helvetica,sans-Serif" font-size="10.00">ant::WrapTTree</text>
</a>
</g>
</g>
<!-- Node12&#45;&gt;Node11 -->
<g id="edge11" class="edge"><title>Node12&#45;&gt;Node11</title>
<path fill="none" stroke="midnightblue" d="M708.092,-495.51C785.035,-499.219 928.736,-506.144 1010.33,-510.076"/>
<polygon fill="midnightblue" stroke="midnightblue" points="707.849,-491.995 697.692,-495.009 707.512,-498.987 707.849,-491.995"/>
</g>
<!-- Node37 -->
<g id="node36" class="node"><title>Node37</title>
<g id="a_node36"><a xlink:href="structant_1_1analysis_1_1physics_1_1triple_pi0_1_1eff_tree__t.html" target="_top" xlink:title="ant::analysis::physics\l::triplePi0::effTree_t">
<polygon fill="white" stroke="black" points="857,-450 857,-480 969,-480 969,-450 857,-450"/>
<text text-anchor="start" x="865" y="-468" font-family="Helvetica,sans-Serif" font-size="10.00">ant::analysis::physics</text>
<text text-anchor="middle" x="913" y="-457" font-family="Helvetica,sans-Serif" font-size="10.00">::triplePi0::effTree_t</text>
</a>
</g>
</g>
<!-- Node12&#45;&gt;Node37 -->
<g id="edge41" class="edge"><title>Node12&#45;&gt;Node37</title>
<path fill="none" stroke="midnightblue" d="M707.744,-487.341C751.048,-482.604 812.679,-475.863 856.897,-471.027"/>
<polygon fill="midnightblue" stroke="midnightblue" points="707.261,-483.872 697.701,-488.439 708.022,-490.831 707.261,-483.872"/>
</g>
<!-- Node13 -->
<g id="node12" class="node"><title>Node13</title>
<g id="a_node12"><a xlink:href="classant_1_1_tree.html" target="_top" xlink:title="ant::Tree\&lt; node_t \&gt;">
<polygon fill="white" stroke="black" points="1173.5,-360.5 1173.5,-379.5 1276.5,-379.5 1276.5,-360.5 1173.5,-360.5"/>
<text text-anchor="middle" x="1225" y="-367.5" font-family="Helvetica,sans-Serif" font-size="10.00">ant::Tree&lt; node_t &gt;</text>
</a>
</g>
</g>
<!-- Node13&#45;&gt;Node2 -->
<g id="edge12" class="edge"><title>Node13&#45;&gt;Node2</title>
<path fill="none" stroke="#9a32cd" stroke-dasharray="5,2" d="M1286.94,-368.185C1326.15,-369.799 1376.57,-377.324 1414,-402 1450.27,-425.913 1472.37,-474.729 1481.75,-499.638"/>
<polygon fill="#9a32cd" stroke="#9a32cd" points="1286.81,-364.68 1276.71,-367.886 1286.61,-371.677 1286.81,-364.68"/>
<text text-anchor="middle" x="1365" y="-416" font-family="Helvetica,sans-Serif" font-size="10.00"> kaonFitterSigmaPlus</text>
<text text-anchor="middle" x="1365" y="-405" font-family="Helvetica,sans-Serif" font-size="10.00">sigmaFitterSigmaPlus</text>
</g>
<!-- Node14 -->
<g id="node13" class="node"><title>Node14</title>
<polygon fill="white" stroke="#bfbfbf" points="397,-391.5 397,-410.5 493,-410.5 493,-391.5 397,-391.5"/>
<text text-anchor="middle" x="445" y="-398.5" font-family="Helvetica,sans-Serif" font-size="10.00">std::list&lt; node_t &gt;</text>
</g>
<!-- Node14&#45;&gt;Node13 -->
<g id="edge13" class="edge"><title>Node14&#45;&gt;Node13</title>
<path fill="none" stroke="#9a32cd" stroke-dasharray="5,2" d="M503.33,-401.109C525.418,-401.123 550.883,-401.103 574,-401 822.896,-399.889 889.576,-442.985 1134,-396 1142.43,-394.38 1143.84,-391.655 1152,-389 1162.45,-385.601 1173.9,-382.365 1184.53,-379.558"/>
<polygon fill="#9a32cd" stroke="#9a32cd" points="503.116,-397.609 493.113,-401.1 503.11,-404.609 503.116,-397.609"/>
<text text-anchor="middle" x="776" y="-416" font-family="Helvetica,sans-Serif" font-size="10.00"> daughters</text>
</g>
<!-- Node16 -->
<g id="node15" class="node"><title>Node16</title>
<g id="a_node15"><a xlink:href="classant_1_1_tree.html" target="_top" xlink:title="ant::Tree\&lt; T \&gt;">
<polygon fill="white" stroke="black" points="615,-353.5 615,-372.5 695,-372.5 695,-353.5 615,-353.5"/>
<text text-anchor="middle" x="655" y="-360.5" font-family="Helvetica,sans-Serif" font-size="10.00">ant::Tree&lt; T &gt;</text>
</a>
</g>
</g>
<!-- Node14&#45;&gt;Node16 -->
<g id="edge16" class="edge"><title>Node14&#45;&gt;Node16</title>
<path fill="none" stroke="#9a32cd" stroke-dasharray="5,2" d="M503.392,-390.515C538.782,-384.049 583.251,-375.925 614.667,-370.186"/>
<polygon fill="#9a32cd" stroke="#9a32cd" points="502.407,-387.137 493.198,-392.377 503.665,-394.023 502.407,-387.137"/>
<text text-anchor="middle" x="551" y="-389" font-family="Helvetica,sans-Serif" font-size="10.00"> daughters</text>
</g>
<!-- Node15 -->
<g id="node14" class="node"><title>Node15</title>
<polygon fill="white" stroke="#bfbfbf" points="856.5,-360.5 856.5,-379.5 969.5,-379.5 969.5,-360.5 856.5,-360.5"/>
<text text-anchor="middle" x="913" y="-367.5" font-family="Helvetica,sans-Serif" font-size="10.00">std::weak_ptr&lt; Tree &gt;</text>
</g>
<!-- Node15&#45;&gt;Node13 -->
<g id="edge14" class="edge"><title>Node15&#45;&gt;Node13</title>
<path fill="none" stroke="#9a32cd" stroke-dasharray="5,2" d="M979.908,-370C1037.71,-370 1120.53,-370 1173.29,-370"/>
<polygon fill="#9a32cd" stroke="#9a32cd" points="979.78,-366.5 969.78,-370 979.78,-373.5 979.78,-366.5"/>
<text text-anchor="middle" x="1072" y="-384" font-family="Helvetica,sans-Serif" font-size="10.00"> parent</text>
<text text-anchor="middle" x="1072" y="-373" font-family="Helvetica,sans-Serif" font-size="10.00">self</text>
</g>
<!-- Node15&#45;&gt;Node16 -->
<g id="edge17" class="edge"><title>Node15&#45;&gt;Node16</title>
<path fill="none" stroke="#9a32cd" stroke-dasharray="5,2" d="M845.973,-368.195C798.19,-366.888 735.22,-365.166 695.16,-364.071"/>
<polygon fill="#9a32cd" stroke="#9a32cd" points="846.139,-371.7 856.23,-368.475 846.33,-364.703 846.139,-371.7"/>
<text text-anchor="middle" x="776" y="-382" font-family="Helvetica,sans-Serif" font-size="10.00"> parent</text>
<text text-anchor="middle" x="776" y="-371" font-family="Helvetica,sans-Serif" font-size="10.00">self</text>
</g>
<!-- Node16&#45;&gt;Node15 -->
<g id="edge15" class="edge"><title>Node16&#45;&gt;Node15</title>
<path fill="none" stroke="#9a32cd" stroke-dasharray="5,2" d="M688.392,-349.91C702.726,-344.791 719.944,-339.544 736,-337 771.118,-331.437 782.369,-325.461 816,-337 825.586,-340.289 824.874,-346.592 834,-351 841.907,-354.819 850.646,-357.909 859.328,-360.398"/>
<polygon fill="#9a32cd" stroke="#9a32cd" points="687.139,-346.641 678.978,-353.398 689.571,-353.205 687.139,-346.641"/>
<text text-anchor="middle" x="776" y="-340" font-family="Helvetica,sans-Serif" font-size="10.00"> ptr</text>
</g>
<!-- Node17 -->
<g id="node16" class="node"><title>Node17</title>
<polygon fill="white" stroke="#bfbfbf" points="430.5,-316.5 430.5,-335.5 459.5,-335.5 459.5,-316.5 430.5,-316.5"/>
<text text-anchor="middle" x="445" y="-323.5" font-family="Helvetica,sans-Serif" font-size="10.00">T</text>
</g>
<!-- Node17&#45;&gt;Node16 -->
<g id="edge18" class="edge"><title>Node17&#45;&gt;Node16</title>
<path fill="none" stroke="#9a32cd" stroke-dasharray="5,2" d="M469.541,-330.188C504.922,-336.481 572.211,-348.451 614.999,-356.062"/>
<polygon fill="#9a32cd" stroke="#9a32cd" points="470.106,-326.733 459.647,-328.428 468.88,-333.625 470.106,-326.733"/>
<text text-anchor="middle" x="551" y="-351" font-family="Helvetica,sans-Serif" font-size="10.00"> data</text>
</g>
<!-- Node34 -->
<g id="node33" class="node"><title>Node34</title>
<g id="a_node33"><a xlink:title="STL class. ">
<polygon fill="white" stroke="#bfbfbf" points="611.5,-301.5 611.5,-320.5 698.5,-320.5 698.5,-301.5 611.5,-301.5"/>
<text text-anchor="middle" x="655" y="-308.5" font-family="Helvetica,sans-Serif" font-size="10.00">std::vector&lt; T &gt;</text>
</a>
</g>
</g>
<!-- Node17&#45;&gt;Node34 -->
<g id="edge36" class="edge"><title>Node17&#45;&gt;Node34</title>
<path fill="none" stroke="#9a32cd" stroke-dasharray="5,2" d="M469.859,-322.148C486.183,-319.673 508.344,-316.626 528,-315 555.701,-312.708 586.927,-311.706 611.363,-311.278"/>
<polygon fill="#9a32cd" stroke="#9a32cd" points="468.935,-318.749 459.592,-323.746 470.012,-325.666 468.935,-318.749"/>
<text text-anchor="middle" x="551" y="-318" font-family="Helvetica,sans-Serif" font-size="10.00"> elements</text>
</g>
<!-- Node18 -->
<g id="node17" class="node"><title>Node18</title>
<polygon fill="white" stroke="#bfbfbf" points="1173,-614 1173,-644 1277,-644 1277,-614 1173,-614"/>
<text text-anchor="start" x="1181" y="-632" font-family="Helvetica,sans-Serif" font-size="10.00">std::vector&lt; utils</text>
<text text-anchor="middle" x="1225" y="-621" font-family="Helvetica,sans-Serif" font-size="10.00">::TreeFitter::tree_t &gt;</text>
</g>
<!-- Node18&#45;&gt;Node2 -->
<g id="edge19" class="edge"><title>Node18&#45;&gt;Node2</title>
<path fill="none" stroke="#9a32cd" stroke-dasharray="5,2" d="M1287.17,-618.561C1325.18,-610.456 1374.21,-596.988 1414,-576 1436.79,-563.978 1458.91,-543.956 1472.72,-530.149"/>
<polygon fill="#9a32cd" stroke="#9a32cd" points="1286.35,-615.158 1277.26,-620.607 1287.76,-622.014 1286.35,-615.158"/>
<text text-anchor="middle" x="1365" y="-625" font-family="Helvetica,sans-Serif" font-size="10.00"> pionsFitterSigmaPlus</text>
<text text-anchor="middle" x="1365" y="-614" font-family="Helvetica,sans-Serif" font-size="10.00">pionsFitterSig</text>
</g>
<!-- Node19 -->
<g id="node18" class="node"><title>Node19</title>
<g id="a_node18"><a xlink:href="classant_1_1analysis_1_1utils_1_1_tree_fitter.html" target="_top" xlink:title="ant::analysis::utils\l::TreeFitter">
<polygon fill="white" stroke="black" points="1177,-235 1177,-265 1273,-265 1273,-235 1177,-235"/>
<text text-anchor="start" x="1185" y="-253" font-family="Helvetica,sans-Serif" font-size="10.00">ant::analysis::utils</text>
<text text-anchor="middle" x="1225" y="-242" font-family="Helvetica,sans-Serif" font-size="10.00">::TreeFitter</text>
</a>
</g>
</g>
<!-- Node19&#45;&gt;Node2 -->
<g id="edge20" class="edge"><title>Node19&#45;&gt;Node2</title>
<path fill="none" stroke="#9a32cd" stroke-dasharray="5,2" d="M1283.41,-250.688C1324.6,-254.183 1378.83,-265.361 1414,-298 1474.02,-353.701 1484.71,-460.271 1486.6,-499.774"/>
<polygon fill="#9a32cd" stroke="#9a32cd" points="1283.46,-247.183 1273.24,-249.957 1282.96,-254.165 1283.46,-247.183"/>
<text text-anchor="middle" x="1365" y="-312" font-family="Helvetica,sans-Serif" font-size="10.00"> fitterSigmaPlus</text>
<text text-anchor="middle" x="1365" y="-301" font-family="Helvetica,sans-Serif" font-size="10.00">fitterSig</text>
</g>
<!-- Node20 -->
<g id="node19" class="node"><title>Node20</title>
<g id="a_node19"><a xlink:href="classant_1_1analysis_1_1utils_1_1_kin_fitter.html" target="_top" xlink:title="ant::analysis::utils\l::KinFitter">
<polygon fill="white" stroke="black" points="865,-98 865,-128 961,-128 961,-98 865,-98"/>
<text text-anchor="start" x="873" y="-116" font-family="Helvetica,sans-Serif" font-size="10.00">ant::analysis::utils</text>
<text text-anchor="middle" x="913" y="-105" font-family="Helvetica,sans-Serif" font-size="10.00">::KinFitter</text>
</a>
</g>
</g>
<!-- Node20&#45;&gt;Node2 -->
<g id="edge38" class="edge"><title>Node20&#45;&gt;Node2</title>
<path fill="none" stroke="#9a32cd" stroke-dasharray="5,2" d="M971.191,-110.135C1076.64,-108.284 1301.21,-121.002 1414,-252 1478.93,-327.411 1486.46,-456.077 1487.07,-499.881"/>
<polygon fill="#9a32cd" stroke="#9a32cd" points="970.98,-106.639 961.062,-110.364 971.138,-113.637 970.98,-106.639"/>
<text text-anchor="middle" x="1225" y="-171" font-family="Helvetica,sans-Serif" font-size="10.00"> fitterEMB</text>
</g>
<!-- Node20&#45;&gt;Node19 -->
<g id="edge21" class="edge"><title>Node20&#45;&gt;Node19</title>
<path fill="none" stroke="midnightblue" d="M971.217,-119.044C1017.36,-125.75 1082.78,-139.495 1134,-167 1166.4,-184.397 1196.11,-216.185 1211.97,-234.969"/>
<polygon fill="midnightblue" stroke="midnightblue" points="971.478,-115.547 961.092,-117.641 970.517,-122.481 971.478,-115.547"/>
</g>
<!-- Node21 -->
<g id="node20" class="node"><title>Node21</title>
<g id="a_node20"><a xlink:href="classant_1_1analysis_1_1utils_1_1_fitter.html" target="_top" xlink:title="ant::analysis::utils\l::Fitter">
<polygon fill="white" stroke="black" points="607,-98 607,-128 703,-128 703,-98 607,-98"/>
<text text-anchor="start" x="615" y="-116" font-family="Helvetica,sans-Serif" font-size="10.00">ant::analysis::utils</text>
<text text-anchor="middle" x="655" y="-105" font-family="Helvetica,sans-Serif" font-size="10.00">::Fitter</text>
</a>
</g>
</g>
<!-- Node21&#45;&gt;Node20 -->
<g id="edge22" class="edge"><title>Node21&#45;&gt;Node20</title>
<path fill="none" stroke="midnightblue" d="M713.275,-113C758.838,-113 821.828,-113 864.59,-113"/>
<polygon fill="midnightblue" stroke="midnightblue" points="713.253,-109.5 703.253,-113 713.253,-116.5 713.253,-109.5"/>
</g>
<!-- Node22 -->
<g id="node21" class="node"><title>Node22</title>
<g id="a_node21"><a xlink:href="structant_1_1analysis_1_1utils_1_1_kin_fitter_1_1_target__t.html" target="_top" xlink:title="ant::analysis::utils\l::KinFitter::Target_t">
<polygon fill="white" stroke="black" points="604.5,-49 604.5,-79 705.5,-79 705.5,-49 604.5,-49"/>
<text text-anchor="start" x="612.5" y="-67" font-family="Helvetica,sans-Serif" font-size="10.00">ant::analysis::utils</text>
<text text-anchor="middle" x="655" y="-56" font-family="Helvetica,sans-Serif" font-size="10.00">::KinFitter::Target_t</text>
</a>
</g>
</g>
<!-- Node22&#45;&gt;Node20 -->
<g id="edge23" class="edge"><title>Node22&#45;&gt;Node20</title>
<path fill="none" stroke="#9a32cd" stroke-dasharray="5,2" d="M715.664,-75.4201C761.037,-84.1047 822.617,-95.8916 864.638,-103.935"/>
<polygon fill="#9a32cd" stroke="#9a32cd" points="716.143,-71.9482 705.663,-73.5058 714.827,-78.8234 716.143,-71.9482"/>
<text text-anchor="middle" x="776" y="-98" font-family="Helvetica,sans-Serif" font-size="10.00"> Target</text>
</g>
<!-- Node23 -->
<g id="node22" class="node"><title>Node23</title>
<g id="a_node22"><a xlink:href="structant_1_1analysis_1_1utils_1_1_kin_fitter_1_1_beam_e__t.html" target="_top" xlink:title="ant::analysis::utils\l::KinFitter::BeamE_t">
<polygon fill="white" stroke="black" points="602,-0 602,-30 708,-30 708,-0 602,-0"/>
<text text-anchor="start" x="610" y="-18" font-family="Helvetica,sans-Serif" font-size="10.00">ant::analysis::utils</text>
<text text-anchor="middle" x="655" y="-7" font-family="Helvetica,sans-Serif" font-size="10.00">::KinFitter::BeamE_t</text>
</a>
</g>
</g>
<!-- Node23&#45;&gt;Node20 -->
<g id="edge24" class="edge"><title>Node23&#45;&gt;Node20</title>
<path fill="none" stroke="#9a32cd" stroke-dasharray="5,2" d="M718.168,-31.8977C748.134,-40.6803 784.354,-52.2402 816,-65 839.849,-74.6161 865.882,-87.8131 884.815,-97.936"/>
<polygon fill="#9a32cd" stroke="#9a32cd" points="718.84,-28.4485 708.261,-29.028 716.892,-35.1721 718.84,-28.4485"/>
<text text-anchor="middle" x="776" y="-68" font-family="Helvetica,sans-Serif" font-size="10.00"> BeamE</text>
</g>
<!-- Node24 -->
<g id="node23" class="node"><title>Node24</title>
<polygon fill="white" stroke="#bfbfbf" points="417,-5.5 417,-24.5 473,-24.5 473,-5.5 417,-5.5"/>
<text text-anchor="middle" x="445" y="-12.5" font-family="Helvetica,sans-Serif" font-size="10.00">V_S_P_t</text>
</g>
<!-- Node24&#45;&gt;Node23 -->
<g id="edge25" class="edge"><title>Node24&#45;&gt;Node23</title>
<path fill="none" stroke="midnightblue" d="M483.321,-15C516.299,-15 564.741,-15 601.601,-15"/>
<polygon fill="midnightblue" stroke="midnightblue" points="483.192,-11.5001 473.192,-15 483.192,-18.5001 483.192,-11.5001"/>
</g>
<!-- Node25 -->
<g id="node24" class="node"><title>Node25</title>
<polygon fill="white" stroke="#bfbfbf" points="592.5,-147.5 592.5,-166.5 717.5,-166.5 717.5,-147.5 592.5,-147.5"/>
<text text-anchor="middle" x="655" y="-154.5" font-family="Helvetica,sans-Serif" font-size="10.00">std::vector&lt; FitParticle &gt;</text>
</g>
<!-- Node25&#45;&gt;Node20 -->
<g id="edge26" class="edge"><title>Node25&#45;&gt;Node20</title>
<path fill="none" stroke="#9a32cd" stroke-dasharray="5,2" d="M721.454,-145.75C766.198,-138.06 824.46,-128.046 864.722,-121.126"/>
<polygon fill="#9a32cd" stroke="#9a32cd" points="720.811,-142.309 711.548,-147.453 721.997,-149.208 720.811,-142.309"/>
<text text-anchor="middle" x="776" y="-146" font-family="Helvetica,sans-Serif" font-size="10.00"> Photons</text>
</g>
<!-- Node26 -->
<g id="node25" class="node"><title>Node26</title>
<polygon fill="white" stroke="#bfbfbf" points="860,-284.5 860,-303.5 966,-303.5 966,-284.5 860,-284.5"/>
<text text-anchor="middle" x="913" y="-291.5" font-family="Helvetica,sans-Serif" font-size="10.00">std::vector&lt; tree_t &gt;</text>
</g>
<!-- Node26&#45;&gt;Node19 -->
<g id="edge27" class="edge"><title>Node26&#45;&gt;Node19</title>
<path fill="none" stroke="#9a32cd" stroke-dasharray="5,2" d="M976.074,-286.391C1020.19,-280.843 1080.8,-272.937 1134,-265 1147.94,-262.92 1163.07,-260.473 1176.87,-258.166"/>
<polygon fill="#9a32cd" stroke="#9a32cd" points="975.565,-282.927 966.077,-287.643 976.435,-289.873 975.565,-282.927"/>
<text text-anchor="middle" x="1072" y="-285" font-family="Helvetica,sans-Serif" font-size="10.00"> tree_leaves</text>
</g>
<!-- Node27 -->
<g id="node26" class="node"><title>Node27</title>
<polygon fill="white" stroke="#bfbfbf" points="840,-186 840,-216 986,-216 986,-186 840,-186"/>
<text text-anchor="start" x="848" y="-204" font-family="Helvetica,sans-Serif" font-size="10.00">std::list&lt; ant::analysis</text>
<text text-anchor="middle" x="913" y="-193" font-family="Helvetica,sans-Serif" font-size="10.00">::utils::TreeFitter::iteration_t &gt;</text>
</g>
<!-- Node27&#45;&gt;Node19 -->
<g id="edge28" class="edge"><title>Node27&#45;&gt;Node19</title>
<path fill="none" stroke="#9a32cd" stroke-dasharray="5,2" d="M996.387,-213.497C1037.71,-219.825 1088.52,-227.697 1134,-235 1147.92,-237.236 1163.04,-239.73 1176.84,-242.032"/>
<polygon fill="#9a32cd" stroke="#9a32cd" points="996.781,-210.016 986.367,-211.964 995.723,-216.936 996.781,-210.016"/>
<text text-anchor="middle" x="1072" y="-238" font-family="Helvetica,sans-Serif" font-size="10.00"> iterations</text>
</g>
<!-- Node28 -->
<g id="node27" class="node"><title>Node28</title>
<g id="a_node27"><a xlink:href="structant_1_1analysis_1_1utils_1_1_tree_fitter_1_1iteration__t.html" target="_top" xlink:title="ant::analysis::utils\l::TreeFitter::iteration_t">
<polygon fill="white" stroke="black" points="598.5,-186 598.5,-216 711.5,-216 711.5,-186 598.5,-186"/>
<text text-anchor="start" x="606.5" y="-204" font-family="Helvetica,sans-Serif" font-size="10.00">ant::analysis::utils</text>
<text text-anchor="middle" x="655" y="-193" font-family="Helvetica,sans-Serif" font-size="10.00">::TreeFitter::iteration_t</text>
</a>
</g>
</g>
<!-- Node28&#45;&gt;Node27 -->
<g id="edge29" class="edge"><title>Node28&#45;&gt;Node27</title>
<path fill="none" stroke="#9a32cd" stroke-dasharray="5,2" d="M721.939,-201C757.933,-201 802.565,-201 839.531,-201"/>
<polygon fill="#9a32cd" stroke="#9a32cd" points="721.548,-197.5 711.548,-201 721.548,-204.5 721.548,-197.5"/>
<text text-anchor="middle" x="776" y="-204" font-family="Helvetica,sans-Serif" font-size="10.00"> elements</text>
</g>
<!-- Node29 -->
<g id="node28" class="node"><title>Node29</title>
<polygon fill="white" stroke="#bfbfbf" points="380.5,-180.5 380.5,-221.5 509.5,-221.5 509.5,-180.5 380.5,-180.5"/>
<text text-anchor="start" x="388.5" y="-209.5" font-family="Helvetica,sans-Serif" font-size="10.00">std::vector&lt; ant::analysis</text>
<text text-anchor="start" x="388.5" y="-198.5" font-family="Helvetica,sans-Serif" font-size="10.00">::utils::TreeFitter::iteration</text>
<text text-anchor="middle" x="445" y="-187.5" font-family="Helvetica,sans-Serif" font-size="10.00">_t::photon_t &gt;</text>
</g>
<!-- Node29&#45;&gt;Node28 -->
<g id="edge30" class="edge"><title>Node29&#45;&gt;Node28</title>
<path fill="none" stroke="#9a32cd" stroke-dasharray="5,2" d="M519.67,-201C545.52,-201 574.111,-201 598.247,-201"/>
<polygon fill="#9a32cd" stroke="#9a32cd" points="519.537,-197.5 509.537,-201 519.537,-204.5 519.537,-197.5"/>
<text text-anchor="middle" x="551" y="-204" font-family="Helvetica,sans-Serif" font-size="10.00"> Photons</text>
</g>
<!-- Node30 -->
<g id="node29" class="node"><title>Node30</title>
<g id="a_node29"><a xlink:href="structant_1_1analysis_1_1utils_1_1_tree_fitter_1_1iteration__t_1_1photon__t.html" target="_top" xlink:title="ant::analysis::utils\l::TreeFitter::iteration\l_t::photon_t">
<polygon fill="white" stroke="black" points="194.5,-180.5 194.5,-221.5 299.5,-221.5 299.5,-180.5 194.5,-180.5"/>
<text text-anchor="start" x="202.5" y="-209.5" font-family="Helvetica,sans-Serif" font-size="10.00">ant::analysis::utils</text>
<text text-anchor="start" x="202.5" y="-198.5" font-family="Helvetica,sans-Serif" font-size="10.00">::TreeFitter::iteration</text>
<text text-anchor="middle" x="247" y="-187.5" font-family="Helvetica,sans-Serif" font-size="10.00">_t::photon_t</text>
</a>
</g>
</g>
<!-- Node30&#45;&gt;Node29 -->
<g id="edge31" class="edge"><title>Node30&#45;&gt;Node29</title>
<path fill="none" stroke="#9a32cd" stroke-dasharray="5,2" d="M309.853,-201C332.333,-201 357.764,-201 380.393,-201"/>
<polygon fill="#9a32cd" stroke="#9a32cd" points="309.753,-197.5 299.753,-201 309.753,-204.5 309.753,-197.5"/>
<text text-anchor="middle" x="340" y="-204" font-family="Helvetica,sans-Serif" font-size="10.00"> elements</text>
</g>
<!-- Node31 -->
<g id="node30" class="node"><title>Node31</title>
<g id="a_node30"><a xlink:href="structant_1_1std__ext_1_1cc__shared__ptr.html" target="_top" xlink:title="ant::std_ext::cc_shared\l_ptr\&lt; TParticle \&gt;">
<polygon fill="white" stroke="black" points="0.5,-186 0.5,-216 119.5,-216 119.5,-186 0.5,-186"/>
<text text-anchor="start" x="8.5" y="-204" font-family="Helvetica,sans-Serif" font-size="10.00">ant::std_ext::cc_shared</text>
<text text-anchor="middle" x="60" y="-193" font-family="Helvetica,sans-Serif" font-size="10.00">_ptr&lt; TParticle &gt;</text>
</a>
</g>
</g>
<!-- Node31&#45;&gt;Node30 -->
<g id="edge32" class="edge"><title>Node31&#45;&gt;Node30</title>
<path fill="none" stroke="#9a32cd" stroke-dasharray="5,2" d="M129.57,-201C151.026,-201 174.326,-201 194.406,-201"/>
<polygon fill="#9a32cd" stroke="#9a32cd" points="129.535,-197.5 119.535,-201 129.535,-204.5 129.535,-197.5"/>
<text text-anchor="middle" x="157" y="-204" font-family="Helvetica,sans-Serif" font-size="10.00"> Particle</text>
</g>
<!-- Node32 -->
<g id="node31" class="node"><title>Node32</title>
<polygon fill="white" stroke="#bfbfbf" points="850,-235 850,-265 976,-265 976,-235 850,-235"/>
<text text-anchor="start" x="858" y="-253" font-family="Helvetica,sans-Serif" font-size="10.00">std::vector&lt; std::function</text>
<text text-anchor="middle" x="913" y="-242" font-family="Helvetica,sans-Serif" font-size="10.00">&lt; void()&gt; &gt;</text>
</g>
<!-- Node32&#45;&gt;Node19 -->
<g id="edge33" class="edge"><title>Node32&#45;&gt;Node19</title>
<path fill="none" stroke="#9a32cd" stroke-dasharray="5,2" d="M986.688,-250C1045.42,-250 1126.36,-250 1176.91,-250"/>
<polygon fill="#9a32cd" stroke="#9a32cd" points="986.36,-246.5 976.36,-250 986.36,-253.5 986.36,-246.5"/>
<text text-anchor="middle" x="1072" y="-253" font-family="Helvetica,sans-Serif" font-size="10.00"> sum_daughters</text>
</g>
<!-- Node33 -->
<g id="node32" class="node"><title>Node33</title>
<polygon fill="white" stroke="#bfbfbf" points="843,-322.5 843,-341.5 983,-341.5 983,-322.5 843,-322.5"/>
<text text-anchor="middle" x="913" y="-329.5" font-family="Helvetica,sans-Serif" font-size="10.00">std::vector&lt; permutation_t &gt;</text>
</g>
<!-- Node33&#45;&gt;Node19 -->
<g id="edge34" class="edge"><title>Node33&#45;&gt;Node19</title>
<path fill="none" stroke="#9a32cd" stroke-dasharray="5,2" d="M993.261,-325.646C1035.78,-320.689 1088.62,-312.014 1134,-297 1157.6,-289.193 1182.5,-275.728 1200.12,-265.206"/>
<polygon fill="#9a32cd" stroke="#9a32cd" points="992.791,-322.176 983.243,-326.768 993.57,-329.133 992.791,-322.176"/>
<text text-anchor="middle" x="1072" y="-327" font-family="Helvetica,sans-Serif" font-size="10.00"> permutations</text>
</g>
<!-- Node34&#45;&gt;Node33 -->
<g id="edge35" class="edge"><title>Node34&#45;&gt;Node33</title>
<path fill="none" stroke="#9a32cd" stroke-dasharray="5,2" d="M708.774,-310.876C740.02,-311.245 780.342,-312.487 816,-316 831.134,-317.491 847.492,-319.911 862.343,-322.423"/>
<polygon fill="#9a32cd" stroke="#9a32cd" points="708.578,-307.375 698.546,-310.783 708.514,-314.374 708.578,-307.375"/>
<text text-anchor="middle" x="776" y="-319" font-family="Helvetica,sans-Serif" font-size="10.00"> elements</text>
</g>
<!-- Node35 -->
<g id="node34" class="node"><title>Node35</title>
<polygon fill="white" stroke="#bfbfbf" points="834,-147.5 834,-166.5 992,-166.5 992,-147.5 834,-147.5"/>
<text text-anchor="middle" x="913" y="-154.5" font-family="Helvetica,sans-Serif" font-size="10.00">std::vector&lt; node_constraint_t &gt;</text>
</g>
<!-- Node35&#45;&gt;Node19 -->
<g id="edge37" class="edge"><title>Node35&#45;&gt;Node19</title>
<path fill="none" stroke="#9a32cd" stroke-dasharray="5,2" d="M996.909,-168.157C1038.8,-175.24 1089.94,-186.125 1134,-202 1157.66,-210.525 1182.76,-224.361 1200.43,-234.993"/>
<polygon fill="#9a32cd" stroke="#9a32cd" points="997.459,-164.701 987.022,-166.527 996.32,-171.608 997.459,-164.701"/>
<text text-anchor="middle" x="1072" y="-205" font-family="Helvetica,sans-Serif" font-size="10.00"> node_constraints</text>
</g>
<!-- Node36 -->
<g id="node35" class="node"><title>Node36</title>
<g id="a_node35"><a xlink:href="structant_1_1analysis_1_1physics_1_1triple_pi0_1_1_seen_tree.html" target="_top" xlink:title="ant::analysis::physics\l::triplePi0::SeenTree">
<polygon fill="white" stroke="black" points="1169,-399 1169,-429 1281,-429 1281,-399 1169,-399"/>
<text text-anchor="start" x="1177" y="-417" font-family="Helvetica,sans-Serif" font-size="10.00">ant::analysis::physics</text>
<text text-anchor="middle" x="1225" y="-406" font-family="Helvetica,sans-Serif" font-size="10.00">::triplePi0::SeenTree</text>
</a>
</g>
</g>
<!-- Node36&#45;&gt;Node2 -->
<g id="edge39" class="edge"><title>Node36&#45;&gt;Node2</title>
<path fill="none" stroke="#9a32cd" stroke-dasharray="5,2" d="M1291.4,-422.18C1328.66,-428.559 1375.45,-439.546 1414,-458 1436.19,-468.621 1457.93,-486.907 1471.83,-499.902"/>
<polygon fill="#9a32cd" stroke="#9a32cd" points="1291.6,-418.665 1281.16,-420.5 1290.46,-425.573 1291.6,-418.665"/>
<text text-anchor="middle" x="1365" y="-461" font-family="Helvetica,sans-Serif" font-size="10.00"> seenSignal</text>
</g>
<!-- Node37&#45;&gt;Node36 -->
<g id="edge40" class="edge"><title>Node37&#45;&gt;Node36</title>
<path fill="none" stroke="midnightblue" d="M979.278,-454.261C1035.54,-445.005 1115.86,-431.792 1168.93,-423.06"/>
<polygon fill="midnightblue" stroke="midnightblue" points="978.364,-450.864 969.065,-455.941 979.5,-457.771 978.364,-450.864"/>
</g>
<!-- Node38 -->
<g id="node37" class="node"><title>Node38</title>
<g id="a_node37"><a xlink:href="structant_1_1analysis_1_1physics_1_1triple_pi0_1_1_rec_tree.html" target="_top" xlink:title="ant::analysis::physics\l::triplePi0::RecTree">
<polygon fill="white" stroke="black" points="1169,-448 1169,-478 1281,-478 1281,-448 1169,-448"/>
<text text-anchor="start" x="1177" y="-466" font-family="Helvetica,sans-Serif" font-size="10.00">ant::analysis::physics</text>
<text text-anchor="middle" x="1225" y="-455" font-family="Helvetica,sans-Serif" font-size="10.00">::triplePi0::RecTree</text>
</a>
</g>
</g>
<!-- Node37&#45;&gt;Node38 -->
<g id="edge43" class="edge"><title>Node37&#45;&gt;Node38</title>
<path fill="none" stroke="midnightblue" d="M979.278,-464.579C1035.54,-464.216 1115.86,-463.698 1168.93,-463.355"/>
<polygon fill="midnightblue" stroke="midnightblue" points="979.042,-461.08 969.065,-464.645 979.087,-468.08 979.042,-461.08"/>
</g>
<!-- Node38&#45;&gt;Node2 -->
<g id="edge42" class="edge"><title>Node38&#45;&gt;Node2</title>
<path fill="none" stroke="#9a32cd" stroke-dasharray="5,2" d="M1291.23,-469.324C1327.67,-473.615 1373.71,-480.298 1414,-490 1424.94,-492.634 1436.56,-496.231 1447.24,-499.876"/>
<polygon fill="#9a32cd" stroke="#9a32cd" points="1291.55,-465.839 1281.22,-468.177 1290.76,-472.793 1291.55,-465.839"/>
<text text-anchor="middle" x="1365" y="-493" font-family="Helvetica,sans-Serif" font-size="10.00"> recSignal</text>
</g>
<!-- Node39 -->
<g id="node38" class="node"><title>Node39</title>
<g id="a_node38"><a xlink:href="classant_1_1analysis_1_1_prompt_random_1_1_switch.html" target="_top" xlink:title="ant::analysis::PromptRandom\l::Switch">
<polygon fill="white" stroke="black" points="1152,-770 1152,-800 1298,-800 1298,-770 1152,-770"/>
<text text-anchor="start" x="1160" y="-788" font-family="Helvetica,sans-Serif" font-size="10.00">ant::analysis::PromptRandom</text>
<text text-anchor="middle" x="1225" y="-777" font-family="Helvetica,sans-Serif" font-size="10.00">::Switch</text>
</a>
</g>
</g>
<!-- Node39&#45;&gt;Node2 -->
<g id="edge44" class="edge"><title>Node39&#45;&gt;Node2</title>
<path fill="none" stroke="#9a32cd" stroke-dasharray="5,2" d="M1308.49,-789.931C1344.73,-787.809 1385.44,-778.99 1414,-754 1482.24,-694.286 1487.71,-572.776 1487.42,-530.171"/>
<polygon fill="#9a32cd" stroke="#9a32cd" points="1308.24,-786.438 1298.4,-790.359 1308.54,-793.432 1308.24,-786.438"/>
<text text-anchor="middle" x="1365" y="-792" font-family="Helvetica,sans-Serif" font-size="10.00"> promptrandom</text>
</g>
<!-- Node40&#45;&gt;Node39 -->
<g id="edge45" class="edge"><title>Node40&#45;&gt;Node39</title>
<path fill="none" stroke="#9a32cd" stroke-dasharray="5,2" d="M979.917,-785C1030.33,-785 1099.79,-785 1151.72,-785"/>
<polygon fill="#9a32cd" stroke="#9a32cd" points="979.78,-781.5 969.78,-785 979.78,-788.5 979.78,-781.5"/>
<text text-anchor="middle" x="1072" y="-799" font-family="Helvetica,sans-Serif" font-size="10.00"> promptw</text>
<text text-anchor="middle" x="1072" y="-788" font-family="Helvetica,sans-Serif" font-size="10.00">randomw</text>
</g>
<!-- Node41 -->
<g id="node40" class="node"><title>Node41</title>
<g id="a_node40"><a xlink:href="classant_1_1analysis_1_1utils_1_1_trigger_simulation.html" target="_top" xlink:title="ant::analysis::utils\l::TriggerSimulation">
<polygon fill="white" stroke="black" points="1176,-311 1176,-341 1274,-341 1274,-311 1176,-311"/>
<text text-anchor="start" x="1184" y="-329" font-family="Helvetica,sans-Serif" font-size="10.00">ant::analysis::utils</text>
<text text-anchor="middle" x="1225" y="-318" font-family="Helvetica,sans-Serif" font-size="10.00">::TriggerSimulation</text>
</a>
</g>
</g>
<!-- Node41&#45;&gt;Node2 -->
<g id="edge47" class="edge"><title>Node41&#45;&gt;Node2</title>
<path fill="none" stroke="#9a32cd" stroke-dasharray="5,2" d="M1284.27,-321.663C1324.5,-321.688 1377.19,-328.056 1414,-356 1461.9,-392.364 1479.37,-467.592 1484.83,-499.813"/>
<polygon fill="#9a32cd" stroke="#9a32cd" points="1284.02,-318.166 1274.06,-321.791 1284.1,-325.165 1284.02,-318.166"/>
<text text-anchor="middle" x="1365" y="-359" font-family="Helvetica,sans-Serif" font-size="10.00"> triggersimu</text>
</g>
<!-- Node42 -->
<g id="node41" class="node"><title>Node42</title>
<polygon fill="white" stroke="#bfbfbf" points="1158.5,-662.5 1158.5,-703.5 1291.5,-703.5 1291.5,-662.5 1158.5,-662.5"/>
<text text-anchor="start" x="1166.5" y="-691.5" font-family="Helvetica,sans-Serif" font-size="10.00">std::vector&lt; ant::analysis</text>
<text text-anchor="start" x="1166.5" y="-680.5" font-family="Helvetica,sans-Serif" font-size="10.00">::physics::triplePi0::named</text>
<text text-anchor="middle" x="1225" y="-669.5" font-family="Helvetica,sans-Serif" font-size="10.00">_channel_t &gt;</text>
</g>
<!-- Node42&#45;&gt;Node2 -->
<g id="edge48" class="edge"><title>Node42&#45;&gt;Node2</title>
<path fill="none" stroke="#9a32cd" stroke-dasharray="5,2" d="M1301.99,-678.019C1338.74,-672.408 1381.75,-660.801 1414,-637 1451.54,-609.299 1473.44,-556.003 1482.33,-530.003"/>
<polygon fill="#9a32cd" stroke="#9a32cd" points="1301.23,-674.592 1291.81,-679.447 1302.2,-681.524 1301.23,-674.592"/>
<text text-anchor="middle" x="1365" y="-679" font-family="Helvetica,sans-Serif" font-size="10.00"> otherBackgrounds</text>
</g>
<!-- Node43&#45;&gt;Node2 -->
<g id="edge51" class="edge"><title>Node43&#45;&gt;Node2</title>
<path fill="none" stroke="#9a32cd" stroke-dasharray="5,2" d="M993.541,-586.743C1092.36,-574.92 1266.02,-553.086 1414,-529 1419.73,-528.067 1425.7,-527.03 1431.66,-525.953"/>
<polygon fill="#9a32cd" stroke="#9a32cd" points="992.851,-583.3 983.336,-587.96 993.68,-590.251 992.851,-583.3"/>
<text text-anchor="middle" x="1225" y="-592" font-family="Helvetica,sans-Serif" font-size="10.00"> signal</text>
<text text-anchor="middle" x="1225" y="-581" font-family="Helvetica,sans-Serif" font-size="10.00">mainBackground</text>
<text text-anchor="middle" x="1225" y="-570" font-family="Helvetica,sans-Serif" font-size="10.00">sigmaBackground</text>
</g>
<!-- Node43&#45;&gt;Node42 -->
<g id="edge49" class="edge"><title>Node43&#45;&gt;Node42</title>
<path fill="none" stroke="#9a32cd" stroke-dasharray="5,2" d="M977.558,-613.837C1030.31,-628.641 1105.05,-649.618 1158.37,-664.581"/>
<polygon fill="#9a32cd" stroke="#9a32cd" points="978.218,-610.387 967.644,-611.055 976.326,-617.127 978.218,-610.387"/>
<text text-anchor="middle" x="1072" y="-661" font-family="Helvetica,sans-Serif" font-size="10.00"> elements</text>
</g>
</g>
</svg>
