<?xml version="1.0" encoding="UTF-8" standalone="no"?>
<!DOCTYPE svg PUBLIC "-//W3C//DTD SVG 1.1//EN"
 "http://www.w3.org/Graphics/SVG/1.1/DTD/svg11.dtd">
<!-- Generated by graphviz version 2.36.0 (20140111.2315)
 -->
<!-- Title: q2Hist_t&lt; Tree_t &gt;::q2HistMgr&lt; Hist &gt; Pages: 1 -->
<svg width="112pt" height="178pt"
 viewBox="0.00 0.00 112.00 178.00" xmlns="http://www.w3.org/2000/svg" xmlns:xlink="http://www.w3.org/1999/xlink">
<g id="graph0" class="graph" transform="scale(1 1) rotate(0) translate(4 174)">
<title>q2Hist_t&lt; Tree_t &gt;::q2HistMgr&lt; Hist &gt;</title>
<polygon fill="white" stroke="none" points="-4,4 -4,-174 108,-174 108,4 -4,4"/>
<!-- Node2 -->
<g id="node1" class="node"><title>Node2</title>
<polygon fill="#bfbfbf" stroke="black" points="0,-1 0,-31 104,-31 104,-1 0,-1"/>
<text text-anchor="start" x="8" y="-19" font-family="Helvetica,sans-Serif" font-size="10.00">q2Hist_t&lt; Tree_t &gt;</text>
<text text-anchor="middle" x="52" y="-8" font-family="Helvetica,sans-Serif" font-size="10.00">::q2HistMgr&lt; Hist &gt;</text>
</g>
<!-- Node3 -->
<g id="node2" class="node"><title>Node3</title>
<g id="a_node2"><a xlink:title="STL class. ">
<polygon fill="white" stroke="#bfbfbf" points="3.5,-71 3.5,-101 100.5,-101 100.5,-71 3.5,-71"/>
<text text-anchor="start" x="11.5" y="-89" font-family="Helvetica,sans-Serif" font-size="10.00">std::list&lt; HistFiller</text>
<text text-anchor="middle" x="52" y="-78" font-family="Helvetica,sans-Serif" font-size="10.00">_t&lt; Hist &gt; &gt;</text>
</a>
</g>
</g>
<!-- Node3&#45;&gt;Node2 -->
<g id="edge1" class="edge"><title>Node3&#45;&gt;Node2</title>
<path fill="none" stroke="midnightblue" d="M52,-60.7688C52,-50.8141 52,-39.6384 52,-31.0716"/>
<polygon fill="midnightblue" stroke="midnightblue" points="48.5001,-60.9103 52,-70.9104 55.5001,-60.9104 48.5001,-60.9103"/>
</g>
<!-- Node4 -->
<g id="node3" class="node"><title>Node4</title>
<polygon fill="white" stroke="#bfbfbf" points="37.5,-150.5 37.5,-169.5 66.5,-169.5 66.5,-150.5 37.5,-150.5"/>
<text text-anchor="middle" x="52" y="-157.5" font-family="Helvetica,sans-Serif" font-size="10.00">T</text>
</g>
<!-- Node4&#45;&gt;Node3 -->
<g id="edge2" class="edge"><title>Node4&#45;&gt;Node3</title>
<path fill="none" stroke="#9a32cd" stroke-dasharray="5,2" d="M52,-140.085C52,-127.915 52,-112.354 52,-101.232"/>
<polygon fill="#9a32cd" stroke="#9a32cd" points="48.5001,-140.458 52,-150.458 55.5001,-140.458 48.5001,-140.458"/>
<text text-anchor="middle" x="73.5" y="-123.5" font-family="Helvetica,sans-Serif" font-size="10.00"> elements</text>
</g>
</g>
</svg>
