<?xml version="1.0" encoding="UTF-8" standalone="no"?>
<!DOCTYPE svg PUBLIC "-//W3C//DTD SVG 1.1//EN"
 "http://www.w3.org/Graphics/SVG/1.1/DTD/svg11.dtd">
<!-- Generated by graphviz version 2.36.0 (20140111.2315)
 -->
<!-- Title: ant::expconfig::detector::Tagger Pages: 1 -->
<svg width="718pt" height="157pt"
 viewBox="0.00 0.00 718.00 157.00" xmlns="http://www.w3.org/2000/svg" xmlns:xlink="http://www.w3.org/1999/xlink">
<g id="graph0" class="graph" transform="scale(1 1) rotate(0) translate(4 153)">
<title>ant::expconfig::detector::Tagger</title>
<polygon fill="white" stroke="none" points="-4,4 -4,-153 714,-153 714,4 -4,4"/>
<!-- Node12 -->
<g id="node1" class="node"><title>Node12</title>
<polygon fill="#bfbfbf" stroke="black" points="590.5,-70 590.5,-100 709.5,-100 709.5,-70 590.5,-70"/>
<text text-anchor="start" x="598.5" y="-88" font-family="Helvetica,sans-Serif" font-size="10.00">ant::expconfig::detector</text>
<text text-anchor="middle" x="650" y="-77" font-family="Helvetica,sans-Serif" font-size="10.00">::Tagger</text>
</g>
<!-- Node13 -->
<g id="node2" class="node"><title>Node13</title>
<g id="a_node2"><a xlink:href="structant_1_1_tagger_detector__t.html" target="_top" xlink:title="ant::TaggerDetector_t">
<polygon fill="white" stroke="black" points="363,-129.5 363,-148.5 475,-148.5 475,-129.5 363,-129.5"/>
<text text-anchor="middle" x="419" y="-136.5" font-family="Helvetica,sans-Serif" font-size="10.00">ant::TaggerDetector_t</text>
</a>
</g>
</g>
<!-- Node13&#45;&gt;Node12 -->
<g id="edge1" class="edge"><title>Node13&#45;&gt;Node12</title>
<path fill="none" stroke="midnightblue" d="M479.898,-127.409C507.97,-121.716 541.81,-114.481 572,-107 580.502,-104.893 589.482,-102.491 598.191,-100.067"/>
<polygon fill="midnightblue" stroke="midnightblue" points="478.946,-124.03 469.833,-129.434 480.327,-130.893 478.946,-124.03"/>
</g>
<!-- Node14 -->
<g id="node3" class="node"><title>Node14</title>
<g id="a_node3"><a xlink:href="structant_1_1_detector__t.html" target="_top" xlink:title="The Detector_t struct is the minimal base class for all detectors. ">
<polygon fill="white" stroke="black" points="161,-129.5 161,-148.5 243,-148.5 243,-129.5 161,-129.5"/>
<text text-anchor="middle" x="202" y="-136.5" font-family="Helvetica,sans-Serif" font-size="10.00">ant::Detector_t</text>
</a>
</g>
</g>
<!-- Node14&#45;&gt;Node13 -->
<g id="edge2" class="edge"><title>Node14&#45;&gt;Node13</title>
<path fill="none" stroke="midnightblue" d="M253.449,-139C286.203,-139 328.907,-139 362.602,-139"/>
<polygon fill="midnightblue" stroke="midnightblue" points="253.188,-135.5 243.188,-139 253.188,-142.5 253.188,-135.5"/>
</g>
<!-- Node15 -->
<g id="node4" class="node"><title>Node15</title>
<g id="a_node4"><a xlink:href="classant_1_1_unpacker_acqu_config.html" target="_top" xlink:title="ant::UnpackerAcquConfig">
<polygon fill="white" stroke="black" points="354.5,-91.5 354.5,-110.5 483.5,-110.5 483.5,-91.5 354.5,-91.5"/>
<text text-anchor="middle" x="419" y="-98.5" font-family="Helvetica,sans-Serif" font-size="10.00">ant::UnpackerAcquConfig</text>
</a>
</g>
</g>
<!-- Node15&#45;&gt;Node12 -->
<g id="edge3" class="edge"><title>Node15&#45;&gt;Node12</title>
<path fill="none" stroke="midnightblue" d="M494.157,-95.8187C525.293,-93.6433 560.991,-91.1491 590.259,-89.1042"/>
<polygon fill="midnightblue" stroke="midnightblue" points="493.521,-92.3545 483.789,-96.5431 494.009,-99.3375 493.521,-92.3545"/>
</g>
<!-- Node16 -->
<g id="node5" class="node"><title>Node16</title>
<g id="a_node5"><a xlink:title="STL class. ">
<polygon fill="white" stroke="#bfbfbf" points="389,-53.5 389,-72.5 449,-72.5 449,-53.5 389,-53.5"/>
<text text-anchor="middle" x="419" y="-60.5" font-family="Helvetica,sans-Serif" font-size="10.00">std::string</text>
</a>
</g>
</g>
<!-- Node16&#45;&gt;Node12 -->
<g id="edge4" class="edge"><title>Node16&#45;&gt;Node12</title>
<path fill="none" stroke="#9a32cd" stroke-dasharray="5,2" d="M459.453,-66.0366C490.154,-68.4812 533.814,-72.1364 572,-76 577.892,-76.5961 584.033,-77.2532 590.164,-77.9327"/>
<polygon fill="#9a32cd" stroke="#9a32cd" points="459.409,-62.5223 449.164,-65.224 458.858,-69.5006 459.409,-62.5223"/>
<text text-anchor="middle" x="543" y="-79" font-family="Helvetica,sans-Serif" font-size="10.00"> ScalerName</text>
</g>
<!-- Node17 -->
<g id="node6" class="node"><title>Node17</title>
<g id="a_node6"><a xlink:title="STL class. ">
<polygon fill="white" stroke="#bfbfbf" points="154.5,-49 154.5,-79 249.5,-79 249.5,-49 154.5,-49"/>
<text text-anchor="start" x="162.5" y="-67" font-family="Helvetica,sans-Serif" font-size="10.00">std::basic_string&lt;</text>
<text text-anchor="middle" x="202" y="-56" font-family="Helvetica,sans-Serif" font-size="10.00"> char &gt;</text>
</a>
</g>
</g>
<!-- Node17&#45;&gt;Node16 -->
<g id="edge5" class="edge"><title>Node17&#45;&gt;Node16</title>
<path fill="none" stroke="midnightblue" d="M259.903,-63.7353C301.414,-63.5423 355.964,-63.2885 388.929,-63.1352"/>
<polygon fill="midnightblue" stroke="midnightblue" points="259.635,-60.2364 249.652,-63.783 259.668,-67.2364 259.635,-60.2364"/>
</g>
<!-- Node18 -->
<g id="node7" class="node"><title>Node18</title>
<polygon fill="white" stroke="#bfbfbf" points="342.5,-3 342.5,-33 495.5,-33 495.5,-3 342.5,-3"/>
<text text-anchor="start" x="350.5" y="-21" font-family="Helvetica,sans-Serif" font-size="10.00">std::vector&lt; ant::expconfig</text>
<text text-anchor="middle" x="419" y="-10" font-family="Helvetica,sans-Serif" font-size="10.00">::detector::Tagger::Element_t &gt;</text>
</g>
<!-- Node18&#45;&gt;Node12 -->
<g id="edge6" class="edge"><title>Node18&#45;&gt;Node12</title>
<path fill="none" stroke="#9a32cd" stroke-dasharray="5,2" d="M496.898,-35.399C521.095,-41.3606 547.81,-48.4485 572,-56 585.09,-60.0864 599.191,-65.1862 611.704,-69.9646"/>
<polygon fill="#9a32cd" stroke="#9a32cd" points="497.597,-31.967 487.053,-33.0007 495.94,-38.7682 497.597,-31.967"/>
<text text-anchor="middle" x="543" y="-59" font-family="Helvetica,sans-Serif" font-size="10.00"> elements</text>
</g>
<!-- Node19 -->
<g id="node8" class="node"><title>Node19</title>
<g id="a_node8"><a xlink:href="structant_1_1expconfig_1_1detector_1_1_tagger_1_1_element__t.html" target="_top" xlink:title="ant::expconfig::detector\l::Tagger::Element_t">
<polygon fill="white" stroke="black" points="142.5,-0 142.5,-30 261.5,-30 261.5,-0 142.5,-0"/>
<text text-anchor="start" x="150.5" y="-18" font-family="Helvetica,sans-Serif" font-size="10.00">ant::expconfig::detector</text>
<text text-anchor="middle" x="202" y="-7" font-family="Helvetica,sans-Serif" font-size="10.00">::Tagger::Element_t</text>
</a>
</g>
</g>
<!-- Node19&#45;&gt;Node18 -->
<g id="edge7" class="edge"><title>Node19&#45;&gt;Node18</title>
<path fill="none" stroke="#9a32cd" stroke-dasharray="5,2" d="M271.874,-15.961C294.344,-16.2746 319.411,-16.6243 342.35,-16.9444"/>
<polygon fill="#9a32cd" stroke="#9a32cd" points="271.798,-12.4597 261.75,-15.8198 271.7,-19.459 271.798,-12.4597"/>
<text text-anchor="middle" x="302" y="-20" font-family="Helvetica,sans-Serif" font-size="10.00"> elements</text>
</g>
<!-- Node20 -->
<g id="node9" class="node"><title>Node20</title>
<g id="a_node9"><a xlink:href="structant_1_1_tagger_detector__t_1_1_element__t.html" target="_top" xlink:title="ant::TaggerDetector\l_t::Element_t">
<polygon fill="white" stroke="black" points="0,-0 0,-30 104,-30 104,-0 0,-0"/>
<text text-anchor="start" x="8" y="-18" font-family="Helvetica,sans-Serif" font-size="10.00">ant::TaggerDetector</text>
<text text-anchor="middle" x="52" y="-7" font-family="Helvetica,sans-Serif" font-size="10.00">_t::Element_t</text>
</a>
</g>
</g>
<!-- Node20&#45;&gt;Node19 -->
<g id="edge8" class="edge"><title>Node20&#45;&gt;Node19</title>
<path fill="none" stroke="midnightblue" d="M114.59,-15C123.789,-15 133.251,-15 142.386,-15"/>
<polygon fill="midnightblue" stroke="midnightblue" points="114.348,-11.5001 104.348,-15 114.348,-18.5001 114.348,-11.5001"/>
</g>
</g>
</svg>
