<?xml version="1.0" encoding="UTF-8" standalone="no"?>
<!DOCTYPE svg PUBLIC "-//W3C//DTD SVG 1.1//EN"
 "http://www.w3.org/Graphics/SVG/1.1/DTD/svg11.dtd">
<!-- Generated by graphviz version 2.36.0 (20140111.2315)
 -->
<!-- Title: ant::expconfig::detector::TAPS Pages: 1 -->
<svg width="267pt" height="152pt"
 viewBox="0.00 0.00 267.00 152.00" xmlns="http://www.w3.org/2000/svg" xmlns:xlink="http://www.w3.org/1999/xlink">
<g id="graph0" class="graph" transform="scale(1 1) rotate(0) translate(4 148)">
<title>ant::expconfig::detector::TAPS</title>
<polygon fill="white" stroke="none" points="-4,4 -4,-148 263,-148 263,4 -4,4"/>
<!-- Node7 -->
<g id="node1" class="node"><title>Node7</title>
<polygon fill="#bfbfbf" stroke="black" points="65.5,-1 65.5,-31 184.5,-31 184.5,-1 65.5,-1"/>
<text text-anchor="start" x="73.5" y="-19" font-family="Helvetica,sans-Serif" font-size="10.00">ant::expconfig::detector</text>
<text text-anchor="middle" x="125" y="-8" font-family="Helvetica,sans-Serif" font-size="10.00">::TAPS</text>
</g>
<!-- Node8 -->
<g id="node2" class="node"><title>Node8</title>
<g id="a_node2"><a xlink:href="structant_1_1_cluster_detector__t.html" target="_top" xlink:title="ant::ClusterDetector_t">
<polygon fill="white" stroke="black" points="-0.5,-68.5 -0.5,-87.5 112.5,-87.5 112.5,-68.5 -0.5,-68.5"/>
<text text-anchor="middle" x="56" y="-75.5" font-family="Helvetica,sans-Serif" font-size="10.00">ant::ClusterDetector_t</text>
</a>
</g>
</g>
<!-- Node8&#45;&gt;Node7 -->
<g id="edge1" class="edge"><title>Node8&#45;&gt;Node7</title>
<path fill="none" stroke="midnightblue" d="M73.486,-61.7947C84.3201,-52.3738 98.1403,-40.3562 108.738,-31.1408"/>
<polygon fill="midnightblue" stroke="midnightblue" points="71.1355,-59.2005 65.886,-68.4035 75.7287,-64.4828 71.1355,-59.2005"/>
</g>
<!-- Node9 -->
<g id="node3" class="node"><title>Node9</title>
<g id="a_node3"><a xlink:href="structant_1_1_detector__t.html" target="_top" xlink:title="The Detector_t struct is the minimal base class for all detectors. ">
<polygon fill="white" stroke="black" points="15,-124.5 15,-143.5 97,-143.5 97,-124.5 15,-124.5"/>
<text text-anchor="middle" x="56" y="-131.5" font-family="Helvetica,sans-Serif" font-size="10.00">ant::Detector_t</text>
</a>
</g>
</g>
<!-- Node9&#45;&gt;Node8 -->
<g id="edge2" class="edge"><title>Node9&#45;&gt;Node8</title>
<path fill="none" stroke="midnightblue" d="M56,-113.805C56,-104.91 56,-94.7798 56,-87.7511"/>
<polygon fill="midnightblue" stroke="midnightblue" points="52.5001,-114.083 56,-124.083 59.5001,-114.083 52.5001,-114.083"/>
</g>
<!-- Node10 -->
<g id="node4" class="node"><title>Node10</title>
<g id="a_node4"><a xlink:href="classant_1_1_unpacker_acqu_config.html" target="_top" xlink:title="ant::UnpackerAcquConfig">
<polygon fill="white" stroke="black" points="130.5,-68.5 130.5,-87.5 259.5,-87.5 259.5,-68.5 130.5,-68.5"/>
<text text-anchor="middle" x="195" y="-75.5" font-family="Helvetica,sans-Serif" font-size="10.00">ant::UnpackerAcquConfig</text>
</a>
</g>
</g>
<!-- Node10&#45;&gt;Node7 -->
<g id="edge3" class="edge"><title>Node10&#45;&gt;Node7</title>
<path fill="none" stroke="midnightblue" d="M177.261,-61.7947C166.269,-52.3738 152.249,-40.3562 141.498,-31.1408"/>
<polygon fill="midnightblue" stroke="midnightblue" points="175.1,-64.5529 184.971,-68.4035 179.656,-59.2381 175.1,-64.5529"/>
</g>
</g>
</svg>
