<?xml version="1.0" encoding="UTF-8" standalone="no"?>
<!DOCTYPE svg PUBLIC "-//W3C//DTD SVG 1.1//EN"
 "http://www.w3.org/Graphics/SVG/1.1/DTD/svg11.dtd">
<!-- Generated by graphviz version 2.36.0 (20140111.2315)
 -->
<!-- Title: ant::progs::taggeff::taggEff_t Pages: 1 -->
<svg width="267pt" height="200pt"
 viewBox="0.00 0.00 267.00 200.00" xmlns="http://www.w3.org/2000/svg" xmlns:xlink="http://www.w3.org/1999/xlink">
<g id="graph0" class="graph" transform="scale(1 1) rotate(0) translate(4 196)">
<title>ant::progs::taggeff::taggEff_t</title>
<polygon fill="white" stroke="none" points="-4,4 -4,-196 263,-196 263,4 -4,4"/>
<!-- Node1 -->
<g id="node1" class="node"><title>Node1</title>
<polygon fill="#bfbfbf" stroke="black" points="53,-1 53,-31 149,-31 149,-1 53,-1"/>
<text text-anchor="start" x="61" y="-19" font-family="Helvetica,sans-Serif" font-size="10.00">ant::progs::taggeff</text>
<text text-anchor="middle" x="101" y="-8" font-family="Helvetica,sans-Serif" font-size="10.00">::taggEff_t</text>
</g>
<!-- Node2 -->
<g id="node2" class="node"><title>Node2</title>
<g id="a_node2"><a xlink:href="structant_1_1_t_i_d.html" target="_top" xlink:title="ant::TID">
<polygon fill="white" stroke="black" points="-0.5,-102.5 -0.5,-121.5 52.5,-121.5 52.5,-102.5 -0.5,-102.5"/>
<text text-anchor="middle" x="26" y="-109.5" font-family="Helvetica,sans-Serif" font-size="10.00">ant::TID</text>
</a>
</g>
</g>
<!-- Node2&#45;&gt;Node1 -->
<g id="edge1" class="edge"><title>Node2&#45;&gt;Node1</title>
<path fill="none" stroke="#9a32cd" stroke-dasharray="5,2" d="M34.9554,-93.0658C41.7401,-80.3682 51.7865,-63.3005 63,-50 68.7447,-43.1861 75.9442,-36.5632 82.5272,-31.0608"/>
<polygon fill="#9a32cd" stroke="#9a32cd" points="31.7388,-91.6664 30.2536,-102.157 37.9565,-94.8822 31.7388,-91.6664"/>
<text text-anchor="middle" x="80" y="-64.5" font-family="Helvetica,sans-Serif" font-size="10.00"> FirstID</text>
</g>
<!-- Node3 -->
<g id="node3" class="node"><title>Node3</title>
<g id="a_node3"><a xlink:title="STL class. ">
<polygon fill="white" stroke="#bfbfbf" points="71,-102.5 71,-121.5 131,-121.5 131,-102.5 71,-102.5"/>
<text text-anchor="middle" x="101" y="-109.5" font-family="Helvetica,sans-Serif" font-size="10.00">std::string</text>
</a>
</g>
</g>
<!-- Node3&#45;&gt;Node1 -->
<g id="edge2" class="edge"><title>Node3&#45;&gt;Node1</title>
<path fill="none" stroke="#9a32cd" stroke-dasharray="5,2" d="M101,-92.1742C101,-74.1467 101,-47.3541 101,-31.0982"/>
<polygon fill="#9a32cd" stroke="#9a32cd" points="97.5001,-92.3252 101,-102.325 104.5,-92.3252 97.5001,-92.3252"/>
<text text-anchor="middle" x="115.5" y="-64.5" font-family="Helvetica,sans-Serif" font-size="10.00"> Setup</text>
</g>
<!-- Node4 -->
<g id="node4" class="node"><title>Node4</title>
<g id="a_node4"><a xlink:title="STL class. ">
<polygon fill="white" stroke="#bfbfbf" points="53.5,-161 53.5,-191 148.5,-191 148.5,-161 53.5,-161"/>
<text text-anchor="start" x="61.5" y="-179" font-family="Helvetica,sans-Serif" font-size="10.00">std::basic_string&lt;</text>
<text text-anchor="middle" x="101" y="-168" font-family="Helvetica,sans-Serif" font-size="10.00"> char &gt;</text>
</a>
</g>
</g>
<!-- Node4&#45;&gt;Node3 -->
<g id="edge3" class="edge"><title>Node4&#45;&gt;Node3</title>
<path fill="none" stroke="midnightblue" d="M101,-150.871C101,-140.663 101,-129.408 101,-121.842"/>
<polygon fill="midnightblue" stroke="midnightblue" points="97.5001,-150.931 101,-160.931 104.5,-150.931 97.5001,-150.931"/>
</g>
<!-- Node5 -->
<g id="node5" class="node"><title>Node5</title>
<polygon fill="white" stroke="#bfbfbf" points="149,-102.5 149,-121.5 259,-121.5 259,-102.5 149,-102.5"/>
<text text-anchor="middle" x="204" y="-109.5" font-family="Helvetica,sans-Serif" font-size="10.00">std::vector&lt; double &gt;</text>
</g>
<!-- Node5&#45;&gt;Node1 -->
<g id="edge4" class="edge"><title>Node5&#45;&gt;Node1</title>
<path fill="none" stroke="#9a32cd" stroke-dasharray="5,2" d="M186.909,-95.402C167.28,-77.4881 135.358,-48.3556 116.448,-31.0982"/>
<polygon fill="#9a32cd" stroke="#9a32cd" points="184.749,-98.1694 194.495,-102.325 189.468,-92.9989 184.749,-98.1694"/>
<text text-anchor="middle" x="204.5" y="-75.5" font-family="Helvetica,sans-Serif" font-size="10.00"> BkgFitChi2</text>
<text text-anchor="middle" x="204.5" y="-64.5" font-family="Helvetica,sans-Serif" font-size="10.00">TaggEffErrors</text>
<text text-anchor="middle" x="204.5" y="-53.5" font-family="Helvetica,sans-Serif" font-size="10.00">TaggEffs</text>
</g>
</g>
</svg>
