<?xml version="1.0" encoding="UTF-8" standalone="no"?>
<!DOCTYPE svg PUBLIC "-//W3C//DTD SVG 1.1//EN"
 "http://www.w3.org/Graphics/SVG/1.1/DTD/svg11.dtd">
<!-- Generated by graphviz version 2.36.0 (20140111.2315)
 -->
<!-- Title: ant::padoption::permanent Pages: 1 -->
<svg width="253pt" height="84pt"
 viewBox="0.00 0.00 253.00 84.00" xmlns="http://www.w3.org/2000/svg" xmlns:xlink="http://www.w3.org/1999/xlink">
<g id="graph0" class="graph" transform="scale(1 1) rotate(0) translate(4 80)">
<title>ant::padoption::permanent</title>
<polygon fill="white" stroke="none" points="-4,4 -4,-80 249,-80 249,4 -4,4"/>
<!-- Node0 -->
<g id="node1" class="node"><title>Node0</title>
<polygon fill="#bfbfbf" stroke="black" points="58,-56.5 58,-75.5 188,-75.5 188,-56.5 58,-56.5"/>
<text text-anchor="middle" x="123" y="-63.5" font-family="Helvetica,sans-Serif" font-size="10.00">ant::padoption::permanent</text>
</g>
<!-- Node1 -->
<g id="node2" class="node"><title>Node1</title>
<g id="a_node2"><a xlink:href="structant_1_1padoption_1_1disable.html" target="_top" xlink:title="ant::padoption::disable">
<polygon fill="white" stroke="black" points="-0.5,-0.5 -0.5,-19.5 114.5,-19.5 114.5,-0.5 -0.5,-0.5"/>
<text text-anchor="middle" x="57" y="-7.5" font-family="Helvetica,sans-Serif" font-size="10.00">ant::padoption::disable</text>
</a>
</g>
</g>
<!-- Node0&#45;&gt;Node1 -->
<g id="edge1" class="edge"><title>Node0&#45;&gt;Node1</title>
<path fill="none" stroke="midnightblue" d="M104.446,-49.8197C92.6219,-40.1452 77.7144,-27.9481 67.797,-19.8339"/>
<polygon fill="midnightblue" stroke="midnightblue" points="102.44,-52.7004 112.396,-56.324 106.873,-47.2827 102.44,-52.7004"/>
</g>
<!-- Node2 -->
<g id="node3" class="node"><title>Node2</title>
<g id="a_node3"><a xlink:href="structant_1_1padoption_1_1enable.html" target="_top" xlink:title="ant::padoption::enable">
<polygon fill="white" stroke="black" points="132.5,-0.5 132.5,-19.5 245.5,-19.5 245.5,-0.5 132.5,-0.5"/>
<text text-anchor="middle" x="189" y="-7.5" font-family="Helvetica,sans-Serif" font-size="10.00">ant::padoption::enable</text>
</a>
</g>
</g>
<!-- Node0&#45;&gt;Node2 -->
<g id="edge2" class="edge"><title>Node0&#45;&gt;Node2</title>
<path fill="none" stroke="midnightblue" d="M141.554,-49.8197C153.378,-40.1452 168.286,-27.9481 178.203,-19.8339"/>
<polygon fill="midnightblue" stroke="midnightblue" points="139.127,-47.2827 133.604,-56.324 143.56,-52.7004 139.127,-47.2827"/>
</g>
</g>
</svg>
