<?xml version="1.0" encoding="UTF-8" standalone="no"?>
<!DOCTYPE svg PUBLIC "-//W3C//DTD SVG 1.1//EN"
 "http://www.w3.org/Graphics/SVG/1.1/DTD/svg11.dtd">
<!-- Generated by graphviz version 2.36.0 (20140111.2315)
 -->
<!-- Title: ant::unpacker::acqu::FileFormatBase::Info Pages: 1 -->
<svg width="806pt" height="98pt"
 viewBox="0.00 0.00 806.00 98.00" xmlns="http://www.w3.org/2000/svg" xmlns:xlink="http://www.w3.org/1999/xlink">
<g id="graph0" class="graph" transform="scale(1 1) rotate(0) translate(4 94)">
<title>ant::unpacker::acqu::FileFormatBase::Info</title>
<polygon fill="white" stroke="none" points="-4,4 -4,-94 802,-94 802,4 -4,4"/>
<!-- Node1 -->
<g id="node1" class="node"><title>Node1</title>
<polygon fill="#bfbfbf" stroke="black" points="684,-36 684,-66 798,-66 798,-36 684,-36"/>
<text text-anchor="start" x="692" y="-54" font-family="Helvetica,sans-Serif" font-size="10.00">ant::unpacker::acqu</text>
<text text-anchor="middle" x="741" y="-43" font-family="Helvetica,sans-Serif" font-size="10.00">::FileFormatBase::Info</text>
</g>
<!-- Node2 -->
<g id="node2" class="node"><title>Node2</title>
<polygon fill="white" stroke="#bfbfbf" points="476.5,-0.5 476.5,-41.5 607.5,-41.5 607.5,-0.5 476.5,-0.5"/>
<text text-anchor="start" x="484.5" y="-29.5" font-family="Helvetica,sans-Serif" font-size="10.00">std::vector&lt; ant::unpacker</text>
<text text-anchor="start" x="484.5" y="-18.5" font-family="Helvetica,sans-Serif" font-size="10.00">::acqu::FileFormatBase::</text>
<text text-anchor="middle" x="542" y="-7.5" font-family="Helvetica,sans-Serif" font-size="10.00">Info::HardwareModule &gt;</text>
</g>
<!-- Node2&#45;&gt;Node1 -->
<g id="edge1" class="edge"><title>Node2&#45;&gt;Node1</title>
<path fill="none" stroke="#9a32cd" stroke-dasharray="5,2" d="M617.496,-32.3446C639.54,-35.7015 663.292,-39.3186 683.959,-42.4659"/>
<polygon fill="#9a32cd" stroke="#9a32cd" points="617.918,-28.8686 607.505,-30.8231 616.864,-35.7888 617.918,-28.8686"/>
<text text-anchor="middle" x="646" y="-43" font-family="Helvetica,sans-Serif" font-size="10.00"> Modules</text>
</g>
<!-- Node3 -->
<g id="node3" class="node"><title>Node3</title>
<g id="a_node3"><a xlink:href="structant_1_1unpacker_1_1acqu_1_1_file_format_base_1_1_info_1_1_hardware_module.html" target="_top" xlink:title="ant::unpacker::acqu\l::FileFormatBase::Info\l::HardwareModule">
<polygon fill="white" stroke="black" points="272,-0.5 272,-41.5 386,-41.5 386,-0.5 272,-0.5"/>
<text text-anchor="start" x="280" y="-29.5" font-family="Helvetica,sans-Serif" font-size="10.00">ant::unpacker::acqu</text>
<text text-anchor="start" x="280" y="-18.5" font-family="Helvetica,sans-Serif" font-size="10.00">::FileFormatBase::Info</text>
<text text-anchor="middle" x="329" y="-7.5" font-family="Helvetica,sans-Serif" font-size="10.00">::HardwareModule</text>
</a>
</g>
</g>
<!-- Node3&#45;&gt;Node2 -->
<g id="edge2" class="edge"><title>Node3&#45;&gt;Node2</title>
<path fill="none" stroke="#9a32cd" stroke-dasharray="5,2" d="M396.573,-21C422.036,-21 451.018,-21 476.303,-21"/>
<polygon fill="#9a32cd" stroke="#9a32cd" points="396.267,-17.5001 386.267,-21 396.267,-24.5001 396.267,-17.5001"/>
<text text-anchor="middle" x="431" y="-24" font-family="Helvetica,sans-Serif" font-size="10.00"> elements</text>
</g>
<!-- Node4 -->
<g id="node4" class="node"><title>Node4</title>
<g id="a_node4"><a xlink:title="STL class. ">
<polygon fill="white" stroke="#bfbfbf" points="134,-46.5 134,-65.5 194,-65.5 194,-46.5 134,-46.5"/>
<text text-anchor="middle" x="164" y="-53.5" font-family="Helvetica,sans-Serif" font-size="10.00">std::string</text>
</a>
</g>
</g>
<!-- Node4&#45;&gt;Node1 -->
<g id="edge5" class="edge"><title>Node4&#45;&gt;Node1</title>
<path fill="none" stroke="#9a32cd" stroke-dasharray="5,2" d="M204.514,-56.0206C219.952,-56.0232 237.805,-56.0197 254,-56 437.112,-55.7778 482.961,-60.1657 666,-55 671.787,-54.8367 677.827,-54.6072 683.85,-54.3398"/>
<polygon fill="#9a32cd" stroke="#9a32cd" points="204.263,-52.5206 194.262,-56.0179 204.261,-59.5206 204.263,-52.5206"/>
<text text-anchor="middle" x="431" y="-82" font-family="Helvetica,sans-Serif" font-size="10.00"> Description</text>
<text text-anchor="middle" x="431" y="-71" font-family="Helvetica,sans-Serif" font-size="10.00">OutFile</text>
<text text-anchor="middle" x="431" y="-60" font-family="Helvetica,sans-Serif" font-size="10.00">RunNote</text>
</g>
<!-- Node4&#45;&gt;Node3 -->
<g id="edge3" class="edge"><title>Node4&#45;&gt;Node3</title>
<path fill="none" stroke="#9a32cd" stroke-dasharray="5,2" d="M203.922,-46.8085C206.654,-46.1886 209.367,-45.5804 212,-45 231.481,-40.7058 252.853,-36.2202 271.886,-32.3046"/>
<polygon fill="#9a32cd" stroke="#9a32cd" points="203.018,-43.4247 194.056,-49.0756 204.586,-50.2469 203.018,-43.4247"/>
<text text-anchor="middle" x="233" y="-48" font-family="Helvetica,sans-Serif" font-size="10.00"> Identifier</text>
</g>
<!-- Node5 -->
<g id="node5" class="node"><title>Node5</title>
<g id="a_node5"><a xlink:title="STL class. ">
<polygon fill="white" stroke="#bfbfbf" points="0.5,-41 0.5,-71 95.5,-71 95.5,-41 0.5,-41"/>
<text text-anchor="start" x="8.5" y="-59" font-family="Helvetica,sans-Serif" font-size="10.00">std::basic_string&lt;</text>
<text text-anchor="middle" x="48" y="-48" font-family="Helvetica,sans-Serif" font-size="10.00"> char &gt;</text>
</a>
</g>
</g>
<!-- Node5&#45;&gt;Node4 -->
<g id="edge4" class="edge"><title>Node5&#45;&gt;Node4</title>
<path fill="none" stroke="midnightblue" d="M105.782,-56C115.509,-56 125.243,-56 133.854,-56"/>
<polygon fill="midnightblue" stroke="midnightblue" points="105.697,-52.5001 95.6971,-56 105.697,-59.5001 105.697,-52.5001"/>
</g>
</g>
</svg>
