<?xml version="1.0" encoding="UTF-8" standalone="no"?>
<!DOCTYPE svg PUBLIC "-//W3C//DTD SVG 1.1//EN"
 "http://www.w3.org/Graphics/SVG/1.1/DTD/svg11.dtd">
<!-- Generated by graphviz version 2.36.0 (20140111.2315)
 -->
<!-- Title: ant::ClippedInterpolatorWrapper::boundsCheck_t Pages: 1 -->
<svg width="136pt" height="108pt"
 viewBox="0.00 0.00 136.00 108.00" xmlns="http://www.w3.org/2000/svg" xmlns:xlink="http://www.w3.org/1999/xlink">
<g id="graph0" class="graph" transform="scale(1 1) rotate(0) translate(4 104)">
<title>ant::ClippedInterpolatorWrapper::boundsCheck_t</title>
<polygon fill="white" stroke="none" points="-4,4 -4,-104 132,-104 132,4 -4,4"/>
<!-- Node1 -->
<g id="node1" class="node"><title>Node1</title>
<polygon fill="#bfbfbf" stroke="black" points="0,-1 0,-31 128,-31 128,-1 0,-1"/>
<text text-anchor="start" x="8" y="-19" font-family="Helvetica,sans-Serif" font-size="10.00">ant::ClippedInterpolator</text>
<text text-anchor="middle" x="64" y="-8" font-family="Helvetica,sans-Serif" font-size="10.00">Wrapper::boundsCheck_t</text>
</g>
<!-- Node2 -->
<g id="node2" class="node"><title>Node2</title>
<g id="a_node2"><a xlink:href="classant_1_1interval.html" target="_top" xlink:title="ant::interval\&lt; double \&gt;">
<polygon fill="white" stroke="black" points="7,-80.5 7,-99.5 121,-99.5 121,-80.5 7,-80.5"/>
<text text-anchor="middle" x="64" y="-87.5" font-family="Helvetica,sans-Serif" font-size="10.00">ant::interval&lt; double &gt;</text>
</a>
</g>
</g>
<!-- Node2&#45;&gt;Node1 -->
<g id="edge1" class="edge"><title>Node2&#45;&gt;Node1</title>
<path fill="none" stroke="#9a32cd" stroke-dasharray="5,2" d="M64,-70.0846C64,-57.9148 64,-42.3538 64,-31.2316"/>
<polygon fill="#9a32cd" stroke="#9a32cd" points="60.5001,-70.4579 64,-80.4579 67.5001,-70.4579 60.5001,-70.4579"/>
<text text-anchor="middle" x="78" y="-53.5" font-family="Helvetica,sans-Serif" font-size="10.00"> range</text>
</g>
</g>
</svg>
