<?xml version="1.0" encoding="UTF-8" standalone="no"?>
<!DOCTYPE svg PUBLIC "-//W3C//DTD SVG 1.1//EN"
 "http://www.w3.org/Graphics/SVG/1.1/DTD/svg11.dtd">
<!-- Generated by graphviz version 2.36.0 (20140111.2315)
 -->
<!-- Title: ant::expconfig::detector::EPT_2014 Pages: 1 -->
<svg width="267pt" height="208pt"
 viewBox="0.00 0.00 267.00 208.00" xmlns="http://www.w3.org/2000/svg" xmlns:xlink="http://www.w3.org/1999/xlink">
<g id="graph0" class="graph" transform="scale(1 1) rotate(0) translate(4 204)">
<title>ant::expconfig::detector::EPT_2014</title>
<polygon fill="white" stroke="none" points="-4,4 -4,-204 263,-204 263,4 -4,4"/>
<!-- Node0 -->
<g id="node1" class="node"><title>Node0</title>
<polygon fill="#bfbfbf" stroke="black" points="65.5,-1 65.5,-31 184.5,-31 184.5,-1 65.5,-1"/>
<text text-anchor="start" x="73.5" y="-19" font-family="Helvetica,sans-Serif" font-size="10.00">ant::expconfig::detector</text>
<text text-anchor="middle" x="125" y="-8" font-family="Helvetica,sans-Serif" font-size="10.00">::EPT_2014</text>
</g>
<!-- Node1 -->
<g id="node2" class="node"><title>Node1</title>
<g id="a_node2"><a xlink:href="structant_1_1expconfig_1_1detector_1_1_e_p_t.html" target="_top" xlink:title="ant::expconfig::detector::EPT">
<polygon fill="white" stroke="black" points="52.5,-68.5 52.5,-87.5 197.5,-87.5 197.5,-68.5 52.5,-68.5"/>
<text text-anchor="middle" x="125" y="-75.5" font-family="Helvetica,sans-Serif" font-size="10.00">ant::expconfig::detector::EPT</text>
</a>
</g>
</g>
<!-- Node1&#45;&gt;Node0 -->
<g id="edge1" class="edge"><title>Node1&#45;&gt;Node0</title>
<path fill="none" stroke="midnightblue" d="M125,-58.3707C125,-49.5849 125,-39.2721 125,-31.1408"/>
<polygon fill="midnightblue" stroke="midnightblue" points="121.5,-58.4034 125,-68.4035 128.5,-58.4035 121.5,-58.4034"/>
</g>
<!-- Node2 -->
<g id="node3" class="node"><title>Node2</title>
<g id="a_node3"><a xlink:href="structant_1_1_tagger_detector__t.html" target="_top" xlink:title="ant::TaggerDetector_t">
<polygon fill="white" stroke="black" points="0,-124.5 0,-143.5 112,-143.5 112,-124.5 0,-124.5"/>
<text text-anchor="middle" x="56" y="-131.5" font-family="Helvetica,sans-Serif" font-size="10.00">ant::TaggerDetector_t</text>
</a>
</g>
</g>
<!-- Node2&#45;&gt;Node1 -->
<g id="edge2" class="edge"><title>Node2&#45;&gt;Node1</title>
<path fill="none" stroke="midnightblue" d="M75.0379,-118.101C87.4558,-108.382 103.243,-96.0269 113.712,-87.8339"/>
<polygon fill="midnightblue" stroke="midnightblue" points="72.804,-115.405 67.086,-124.324 77.1182,-120.917 72.804,-115.405"/>
</g>
<!-- Node3 -->
<g id="node4" class="node"><title>Node3</title>
<g id="a_node4"><a xlink:href="structant_1_1_detector__t.html" target="_top" xlink:title="The Detector_t struct is the minimal base class for all detectors. ">
<polygon fill="white" stroke="black" points="15,-180.5 15,-199.5 97,-199.5 97,-180.5 15,-180.5"/>
<text text-anchor="middle" x="56" y="-187.5" font-family="Helvetica,sans-Serif" font-size="10.00">ant::Detector_t</text>
</a>
</g>
</g>
<!-- Node3&#45;&gt;Node2 -->
<g id="edge3" class="edge"><title>Node3&#45;&gt;Node2</title>
<path fill="none" stroke="midnightblue" d="M56,-169.805C56,-160.91 56,-150.78 56,-143.751"/>
<polygon fill="midnightblue" stroke="midnightblue" points="52.5001,-170.083 56,-180.083 59.5001,-170.083 52.5001,-170.083"/>
</g>
<!-- Node4 -->
<g id="node5" class="node"><title>Node4</title>
<g id="a_node5"><a xlink:href="classant_1_1_unpacker_acqu_config.html" target="_top" xlink:title="ant::UnpackerAcquConfig">
<polygon fill="white" stroke="black" points="130.5,-124.5 130.5,-143.5 259.5,-143.5 259.5,-124.5 130.5,-124.5"/>
<text text-anchor="middle" x="195" y="-131.5" font-family="Helvetica,sans-Serif" font-size="10.00">ant::UnpackerAcquConfig</text>
</a>
</g>
</g>
<!-- Node4&#45;&gt;Node1 -->
<g id="edge4" class="edge"><title>Node4&#45;&gt;Node1</title>
<path fill="none" stroke="midnightblue" d="M175.686,-118.101C163.088,-108.382 147.072,-96.0269 136.451,-87.8339"/>
<polygon fill="midnightblue" stroke="midnightblue" points="173.698,-120.987 183.753,-124.324 177.973,-115.445 173.698,-120.987"/>
</g>
</g>
</svg>
