<?xml version="1.0" encoding="UTF-8" standalone="no"?>
<!DOCTYPE svg PUBLIC "-//W3C//DTD SVG 1.1//EN"
 "http://www.w3.org/Graphics/SVG/1.1/DTD/svg11.dtd">
<!-- Generated by graphviz version 2.36.0 (20140111.2315)
 -->
<!-- Title: ant::WrapTTree::Branch_t&lt; T &gt; Pages: 1 -->
<svg width="130pt" height="108pt"
 viewBox="0.00 0.00 130.00 108.00" xmlns="http://www.w3.org/2000/svg" xmlns:xlink="http://www.w3.org/1999/xlink">
<g id="graph0" class="graph" transform="scale(1 1) rotate(0) translate(4 104)">
<title>ant::WrapTTree::Branch_t&lt; T &gt;</title>
<polygon fill="white" stroke="none" points="-4,4 -4,-104 126,-104 126,4 -4,4"/>
<!-- Node0 -->
<g id="node1" class="node"><title>Node0</title>
<polygon fill="#bfbfbf" stroke="black" points="0,-69 0,-99 122,-99 122,-69 0,-69"/>
<text text-anchor="start" x="8" y="-87" font-family="Helvetica,sans-Serif" font-size="10.00">ant::WrapTTree::Branch</text>
<text text-anchor="middle" x="61" y="-76" font-family="Helvetica,sans-Serif" font-size="10.00">_t&lt; T &gt;</text>
</g>
<!-- Node1 -->
<g id="node2" class="node"><title>Node1</title>
<g id="a_node2"><a xlink:href="structant_1_1_wrap_t_tree_1_1_branch___opt__t.html" target="_top" xlink:title="ant::WrapTTree::Branch\l_Opt_t\&lt; T \&gt;">
<polygon fill="white" stroke="black" points="0,-1 0,-31 122,-31 122,-1 0,-1"/>
<text text-anchor="start" x="8" y="-19" font-family="Helvetica,sans-Serif" font-size="10.00">ant::WrapTTree::Branch</text>
<text text-anchor="middle" x="61" y="-8" font-family="Helvetica,sans-Serif" font-size="10.00">_Opt_t&lt; T &gt;</text>
</a>
</g>
</g>
<!-- Node0&#45;&gt;Node1 -->
<g id="edge1" class="edge"><title>Node0&#45;&gt;Node1</title>
<path fill="none" stroke="midnightblue" d="M61,-58.5322C61,-49.3606 61,-39.2449 61,-31.2931"/>
<polygon fill="midnightblue" stroke="midnightblue" points="57.5001,-58.6789 61,-68.679 64.5001,-58.679 57.5001,-58.6789"/>
</g>
</g>
</svg>
