<?xml version="1.0" encoding="UTF-8" standalone="no"?>
<!DOCTYPE svg PUBLIC "-//W3C//DTD SVG 1.1//EN"
 "http://www.w3.org/Graphics/SVG/1.1/DTD/svg11.dtd">
<!-- Generated by graphviz version 2.36.0 (20140111.2315)
 -->
<!-- Title: ant::TTaggerHit Pages: 1 -->
<svg width="142pt" height="176pt"
 viewBox="0.00 0.00 142.00 176.00" xmlns="http://www.w3.org/2000/svg" xmlns:xlink="http://www.w3.org/1999/xlink">
<g id="graph0" class="graph" transform="scale(1 1) rotate(0) translate(4 172)">
<title>ant::TTaggerHit</title>
<polygon fill="white" stroke="none" points="-4,4 -4,-172 138,-172 138,4 -4,4"/>
<!-- Node1 -->
<g id="node1" class="node"><title>Node1</title>
<polygon fill="#bfbfbf" stroke="black" points="24.5,-0.5 24.5,-19.5 109.5,-19.5 109.5,-0.5 24.5,-0.5"/>
<text text-anchor="middle" x="67" y="-7.5" font-family="Helvetica,sans-Serif" font-size="10.00">ant::TTaggerHit</text>
</g>
<!-- Node2 -->
<g id="node2" class="node"><title>Node2</title>
<polygon fill="white" stroke="#bfbfbf" points="3,-69 3,-99 131,-99 131,-69 3,-69"/>
<text text-anchor="start" x="11" y="-87" font-family="Helvetica,sans-Serif" font-size="10.00">std::vector&lt; ant::TTagger</text>
<text text-anchor="middle" x="67" y="-76" font-family="Helvetica,sans-Serif" font-size="10.00">Hit::Electron_t &gt;</text>
</g>
<!-- Node2&#45;&gt;Node1 -->
<g id="edge1" class="edge"><title>Node2&#45;&gt;Node1</title>
<path fill="none" stroke="#9a32cd" stroke-dasharray="5,2" d="M67,-58.6883C67,-45.2526 67,-29.3805 67,-19.7589"/>
<polygon fill="#9a32cd" stroke="#9a32cd" points="63.5001,-58.7751 67,-68.7751 70.5001,-58.7752 63.5001,-58.7751"/>
<text text-anchor="middle" x="89.5" y="-41.5" font-family="Helvetica,sans-Serif" font-size="10.00"> Electrons</text>
</g>
<!-- Node3 -->
<g id="node3" class="node"><title>Node3</title>
<g id="a_node3"><a xlink:href="structant_1_1_t_tagger_hit_1_1_electron__t.html" target="_top" xlink:title="ant::TTaggerHit::Electron_t">
<polygon fill="white" stroke="black" points="-0.5,-148.5 -0.5,-167.5 134.5,-167.5 134.5,-148.5 -0.5,-148.5"/>
<text text-anchor="middle" x="67" y="-155.5" font-family="Helvetica,sans-Serif" font-size="10.00">ant::TTaggerHit::Electron_t</text>
</a>
</g>
</g>
<!-- Node3&#45;&gt;Node2 -->
<g id="edge2" class="edge"><title>Node3&#45;&gt;Node2</title>
<path fill="none" stroke="#9a32cd" stroke-dasharray="5,2" d="M67,-138.085C67,-125.915 67,-110.354 67,-99.2316"/>
<polygon fill="#9a32cd" stroke="#9a32cd" points="63.5001,-138.458 67,-148.458 70.5001,-138.458 63.5001,-138.458"/>
<text text-anchor="middle" x="88.5" y="-121.5" font-family="Helvetica,sans-Serif" font-size="10.00"> elements</text>
</g>
</g>
</svg>
