<?xml version="1.0" encoding="UTF-8" standalone="no"?>
<!DOCTYPE svg PUBLIC "-//W3C//DTD SVG 1.1//EN"
 "http://www.w3.org/Graphics/SVG/1.1/DTD/svg11.dtd">
<!-- Generated by graphviz version 2.36.0 (20140111.2315)
 -->
<!-- Title: ant::analysis::slowcontrol::processor::EPT_Or Pages: 1 -->
<svg width="156pt" height="244pt"
 viewBox="0.00 0.00 156.00 244.00" xmlns="http://www.w3.org/2000/svg" xmlns:xlink="http://www.w3.org/1999/xlink">
<g id="graph0" class="graph" transform="scale(1 1) rotate(0) translate(4 240)">
<title>ant::analysis::slowcontrol::processor::EPT_Or</title>
<polygon fill="white" stroke="none" points="-4,4 -4,-240 152,-240 152,4 -4,4"/>
<!-- Node4 -->
<g id="node1" class="node"><title>Node4</title>
<polygon fill="#bfbfbf" stroke="black" points="10,-1 10,-31 138,-31 138,-1 10,-1"/>
<text text-anchor="start" x="18" y="-19" font-family="Helvetica,sans-Serif" font-size="10.00">ant::analysis::slowcontrol</text>
<text text-anchor="middle" x="74" y="-8" font-family="Helvetica,sans-Serif" font-size="10.00">::processor::EPT_Or</text>
</g>
<!-- Node5 -->
<g id="node2" class="node"><title>Node5</title>
<g id="a_node2"><a xlink:href="structant_1_1analysis_1_1slowcontrol_1_1processor_1_1_acqu_scaler_scalar.html" target="_top" xlink:title="ant::analysis::slowcontrol\l::processor::AcquScalerScalar">
<polygon fill="white" stroke="black" points="-0.5,-69 -0.5,-99 148.5,-99 148.5,-69 -0.5,-69"/>
<text text-anchor="start" x="7.5" y="-87" font-family="Helvetica,sans-Serif" font-size="10.00">ant::analysis::slowcontrol</text>
<text text-anchor="middle" x="74" y="-76" font-family="Helvetica,sans-Serif" font-size="10.00">::processor::AcquScalerScalar</text>
</a>
</g>
</g>
<!-- Node5&#45;&gt;Node4 -->
<g id="edge1" class="edge"><title>Node5&#45;&gt;Node4</title>
<path fill="none" stroke="midnightblue" d="M74,-58.5322C74,-49.3606 74,-39.2449 74,-31.2931"/>
<polygon fill="midnightblue" stroke="midnightblue" points="70.5001,-58.6789 74,-68.679 77.5001,-58.679 70.5001,-58.6789"/>
</g>
<!-- Node6 -->
<g id="node3" class="node"><title>Node6</title>
<g id="a_node3"><a xlink:href="structant_1_1analysis_1_1slowcontrol_1_1processor_1_1_acqu_scaler_vector.html" target="_top" xlink:title="ant::analysis::slowcontrol\l::processor::AcquScalerVector">
<polygon fill="white" stroke="black" points="-1,-137 -1,-167 149,-167 149,-137 -1,-137"/>
<text text-anchor="start" x="7" y="-155" font-family="Helvetica,sans-Serif" font-size="10.00">ant::analysis::slowcontrol</text>
<text text-anchor="middle" x="74" y="-144" font-family="Helvetica,sans-Serif" font-size="10.00">::processor::AcquScalerVector</text>
</a>
</g>
</g>
<!-- Node6&#45;&gt;Node5 -->
<g id="edge2" class="edge"><title>Node6&#45;&gt;Node5</title>
<path fill="none" stroke="midnightblue" d="M74,-126.532C74,-117.361 74,-107.245 74,-99.2931"/>
<polygon fill="midnightblue" stroke="midnightblue" points="70.5001,-126.679 74,-136.679 77.5001,-126.679 70.5001,-126.679"/>
</g>
<!-- Node7 -->
<g id="node4" class="node"><title>Node7</title>
<g id="a_node4"><a xlink:href="structant_1_1analysis_1_1slowcontrol_1_1_processor.html" target="_top" xlink:title="ant::analysis::slowcontrol\l::Processor">
<polygon fill="white" stroke="black" points="10,-205 10,-235 138,-235 138,-205 10,-205"/>
<text text-anchor="start" x="18" y="-223" font-family="Helvetica,sans-Serif" font-size="10.00">ant::analysis::slowcontrol</text>
<text text-anchor="middle" x="74" y="-212" font-family="Helvetica,sans-Serif" font-size="10.00">::Processor</text>
</a>
</g>
</g>
<!-- Node7&#45;&gt;Node6 -->
<g id="edge3" class="edge"><title>Node7&#45;&gt;Node6</title>
<path fill="none" stroke="midnightblue" d="M74,-194.532C74,-185.361 74,-175.245 74,-167.293"/>
<polygon fill="midnightblue" stroke="midnightblue" points="70.5001,-194.679 74,-204.679 77.5001,-194.679 70.5001,-194.679"/>
</g>
</g>
</svg>
