<?xml version="1.0" encoding="UTF-8" standalone="no"?>
<!DOCTYPE svg PUBLIC "-//W3C//DTD SVG 1.1//EN"
 "http://www.w3.org/Graphics/SVG/1.1/DTD/svg11.dtd">
<!-- Generated by graphviz version 2.36.0 (20140111.2315)
 -->
<!-- Title: ant::analysis::physics::EtapOmegaG::Sig_t::Fit_t::BaseTree_t Pages: 1 -->
<svg width="668pt" height="110pt"
 viewBox="0.00 0.00 668.00 110.00" xmlns="http://www.w3.org/2000/svg" xmlns:xlink="http://www.w3.org/1999/xlink">
<g id="graph0" class="graph" transform="scale(1 1) rotate(0) translate(4 106)">
<title>ant::analysis::physics::EtapOmegaG::Sig_t::Fit_t::BaseTree_t</title>
<polygon fill="white" stroke="none" points="-4,4 -4,-106 664,-106 664,4 -4,4"/>
<!-- Node0 -->
<g id="node1" class="node"><title>Node0</title>
<polygon fill="#bfbfbf" stroke="black" points="334,-30.5 334,-71.5 462,-71.5 462,-30.5 334,-30.5"/>
<text text-anchor="start" x="342" y="-59.5" font-family="Helvetica,sans-Serif" font-size="10.00">ant::analysis::physics</text>
<text text-anchor="start" x="342" y="-48.5" font-family="Helvetica,sans-Serif" font-size="10.00">::EtapOmegaG::Sig_t::Fit</text>
<text text-anchor="middle" x="398" y="-37.5" font-family="Helvetica,sans-Serif" font-size="10.00">_t::BaseTree_t</text>
</g>
<!-- Node3 -->
<g id="node4" class="node"><title>Node3</title>
<g id="a_node4"><a xlink:href="structant_1_1analysis_1_1physics_1_1_etap_omega_g_1_1_sig__t_1_1_omega_pi0__t_1_1_tree__t.html" target="_top" xlink:title="ant::analysis::physics\l::EtapOmegaG::Sig_t::OmegaPi0\l_t::Tree_t">
<polygon fill="white" stroke="black" points="498,-60.5 498,-101.5 660,-101.5 660,-60.5 498,-60.5"/>
<text text-anchor="start" x="506" y="-89.5" font-family="Helvetica,sans-Serif" font-size="10.00">ant::analysis::physics</text>
<text text-anchor="start" x="506" y="-78.5" font-family="Helvetica,sans-Serif" font-size="10.00">::EtapOmegaG::Sig_t::OmegaPi0</text>
<text text-anchor="middle" x="579" y="-67.5" font-family="Helvetica,sans-Serif" font-size="10.00">_t::Tree_t</text>
</a>
</g>
</g>
<!-- Node0&#45;&gt;Node3 -->
<g id="edge3" class="edge"><title>Node0&#45;&gt;Node3</title>
<path fill="none" stroke="midnightblue" d="M472.009,-63.2362C480.541,-64.6661 489.279,-66.1306 497.9,-67.5755"/>
<polygon fill="midnightblue" stroke="midnightblue" points="472.55,-59.778 462.109,-61.5769 471.393,-66.6817 472.55,-59.778"/>
</g>
<!-- Node4 -->
<g id="node5" class="node"><title>Node4</title>
<g id="a_node5"><a xlink:href="structant_1_1analysis_1_1physics_1_1_etap_omega_g_1_1_sig__t_1_1_pi0__t_1_1_tree__t.html" target="_top" xlink:title="ant::analysis::physics\l::EtapOmegaG::Sig_t::Pi0\l_t::Tree_t">
<polygon fill="white" stroke="black" points="513.5,-0.5 513.5,-41.5 644.5,-41.5 644.5,-0.5 513.5,-0.5"/>
<text text-anchor="start" x="521.5" y="-29.5" font-family="Helvetica,sans-Serif" font-size="10.00">ant::analysis::physics</text>
<text text-anchor="start" x="521.5" y="-18.5" font-family="Helvetica,sans-Serif" font-size="10.00">::EtapOmegaG::Sig_t::Pi0</text>
<text text-anchor="middle" x="579" y="-7.5" font-family="Helvetica,sans-Serif" font-size="10.00">_t::Tree_t</text>
</a>
</g>
</g>
<!-- Node0&#45;&gt;Node4 -->
<g id="edge4" class="edge"><title>Node0&#45;&gt;Node4</title>
<path fill="none" stroke="midnightblue" d="M471.973,-38.7699C485.677,-36.4732 499.916,-34.0868 513.344,-31.8362"/>
<polygon fill="midnightblue" stroke="midnightblue" points="471.393,-35.3183 462.109,-40.4231 472.55,-42.222 471.393,-35.3183"/>
</g>
<!-- Node1 -->
<g id="node2" class="node"><title>Node1</title>
<g id="a_node2"><a xlink:href="structant_1_1analysis_1_1physics_1_1_etap_omega_g_1_1_proton_photon_tree__t.html" target="_top" xlink:title="ant::analysis::physics\l::EtapOmegaG::ProtonPhotonTree_t">
<polygon fill="white" stroke="black" points="122.5,-36 122.5,-66 297.5,-66 297.5,-36 122.5,-36"/>
<text text-anchor="start" x="130.5" y="-54" font-family="Helvetica,sans-Serif" font-size="10.00">ant::analysis::physics</text>
<text text-anchor="middle" x="210" y="-43" font-family="Helvetica,sans-Serif" font-size="10.00">::EtapOmegaG::ProtonPhotonTree_t</text>
</a>
</g>
</g>
<!-- Node1&#45;&gt;Node0 -->
<g id="edge1" class="edge"><title>Node1&#45;&gt;Node0</title>
<path fill="none" stroke="midnightblue" d="M307.775,-51C316.663,-51 325.505,-51 333.976,-51"/>
<polygon fill="midnightblue" stroke="midnightblue" points="307.738,-47.5001 297.738,-51 307.738,-54.5001 307.738,-47.5001"/>
</g>
<!-- Node2 -->
<g id="node3" class="node"><title>Node2</title>
<g id="a_node3"><a xlink:href="classant_1_1_wrap_t_tree.html" target="_top" xlink:title="The WrapTTree struct simplifies TTree handling in physics classes. ">
<polygon fill="white" stroke="black" points="0.5,-41.5 0.5,-60.5 85.5,-60.5 85.5,-41.5 0.5,-41.5"/>
<text text-anchor="middle" x="43" y="-48.5" font-family="Helvetica,sans-Serif" font-size="10.00">ant::WrapTTree</text>
</a>
</g>
</g>
<!-- Node2&#45;&gt;Node1 -->
<g id="edge2" class="edge"><title>Node2&#45;&gt;Node1</title>
<path fill="none" stroke="midnightblue" d="M95.7169,-51C104.212,-51 113.215,-51 122.287,-51"/>
<polygon fill="midnightblue" stroke="midnightblue" points="95.6365,-47.5001 85.6365,-51 95.6364,-54.5001 95.6365,-47.5001"/>
</g>
</g>
</svg>
