<?xml version="1.0" encoding="UTF-8" standalone="no"?>
<!DOCTYPE svg PUBLIC "-//W3C//DTD SVG 1.1//EN"
 "http://www.w3.org/Graphics/SVG/1.1/DTD/svg11.dtd">
<!-- Generated by graphviz version 2.36.0 (20140111.2315)
 -->
<!-- Title: EtapOmegaG_plot_Ref Pages: 1 -->
<svg width="1570pt" height="327pt"
 viewBox="0.00 0.00 1570.00 327.00" xmlns="http://www.w3.org/2000/svg" xmlns:xlink="http://www.w3.org/1999/xlink">
<g id="graph0" class="graph" transform="scale(1 1) rotate(0) translate(4 323)">
<title>EtapOmegaG_plot_Ref</title>
<polygon fill="white" stroke="none" points="-4,4 -4,-323 1566,-323 1566,4 -4,4"/>
<!-- Node3 -->
<g id="node1" class="node"><title>Node3</title>
<polygon fill="#bfbfbf" stroke="black" points="1444,-152.5 1444,-171.5 1562,-171.5 1562,-152.5 1444,-152.5"/>
<text text-anchor="middle" x="1503" y="-159.5" font-family="Helvetica,sans-Serif" font-size="10.00">EtapOmegaG_plot_Ref</text>
</g>
<!-- Node4 -->
<g id="node2" class="node"><title>Node4</title>
<g id="a_node2"><a xlink:href="struct_etap_omega_g__plot.html" target="_top" xlink:title="EtapOmegaG_plot">
<polygon fill="white" stroke="black" points="1264.5,-68.5 1264.5,-87.5 1361.5,-87.5 1361.5,-68.5 1264.5,-68.5"/>
<text text-anchor="middle" x="1313" y="-75.5" font-family="Helvetica,sans-Serif" font-size="10.00">EtapOmegaG_plot</text>
</a>
</g>
</g>
<!-- Node4&#45;&gt;Node3 -->
<g id="edge1" class="edge"><title>Node4&#45;&gt;Node3</title>
<path fill="none" stroke="midnightblue" d="M1344.7,-91.7165C1382.98,-108.819 1447.41,-137.609 1480.69,-152.477"/>
<polygon fill="midnightblue" stroke="midnightblue" points="1346.12,-88.5198 1335.57,-87.6359 1343.27,-94.9109 1346.12,-88.5198"/>
</g>
<!-- Node5 -->
<g id="node3" class="node"><title>Node5</title>
<g id="a_node3"><a xlink:href="classant_1_1analysis_1_1_plotter.html" target="_top" xlink:title="ant::analysis::Plotter">
<polygon fill="white" stroke="black" points="1009.5,-5.5 1009.5,-24.5 1116.5,-24.5 1116.5,-5.5 1009.5,-5.5"/>
<text text-anchor="middle" x="1063" y="-12.5" font-family="Helvetica,sans-Serif" font-size="10.00">ant::analysis::Plotter</text>
</a>
</g>
</g>
<!-- Node5&#45;&gt;Node4 -->
<g id="edge2" class="edge"><title>Node5&#45;&gt;Node4</title>
<path fill="none" stroke="midnightblue" d="M1111.39,-27.0386C1158.8,-39.0812 1230.77,-57.3638 1274.39,-68.445"/>
<polygon fill="midnightblue" stroke="midnightblue" points="1112.22,-23.6383 1101.67,-24.5683 1110.5,-30.4228 1112.22,-23.6383"/>
</g>
<!-- Node6 -->
<g id="node4" class="node"><title>Node6</title>
<g id="a_node4"><a xlink:href="classant_1_1analysis_1_1_histogram_factory.html" target="_top" xlink:title="ant::analysis::Histogram\lFactory">
<polygon fill="white" stroke="black" points="790.5,-0 790.5,-30 913.5,-30 913.5,-0 790.5,-0"/>
<text text-anchor="start" x="798.5" y="-18" font-family="Helvetica,sans-Serif" font-size="10.00">ant::analysis::Histogram</text>
<text text-anchor="middle" x="852" y="-7" font-family="Helvetica,sans-Serif" font-size="10.00">Factory</text>
</a>
</g>
</g>
<!-- Node6&#45;&gt;Node5 -->
<g id="edge3" class="edge"><title>Node6&#45;&gt;Node5</title>
<path fill="none" stroke="#9a32cd" stroke-dasharray="5,2" d="M923.856,-15C951.822,-15 983.387,-15 1009.28,-15"/>
<polygon fill="#9a32cd" stroke="#9a32cd" points="923.732,-11.5001 913.732,-15 923.732,-18.5001 923.732,-11.5001"/>
<text text-anchor="middle" x="951" y="-18" font-family="Helvetica,sans-Serif" font-size="10.00"> HistFac</text>
</g>
<!-- Node7 -->
<g id="node5" class="node"><title>Node7</title>
<g id="a_node5"><a xlink:href="structant_1_1analysis_1_1utils_1_1_m_c_weighting_1_1tree__t.html" target="_top" xlink:title="ant::analysis::utils\l::MCWeighting::tree_t">
<polygon fill="white" stroke="black" points="1006.5,-93 1006.5,-123 1119.5,-123 1119.5,-93 1006.5,-93"/>
<text text-anchor="start" x="1014.5" y="-111" font-family="Helvetica,sans-Serif" font-size="10.00">ant::analysis::utils</text>
<text text-anchor="middle" x="1063" y="-100" font-family="Helvetica,sans-Serif" font-size="10.00">::MCWeighting::tree_t</text>
</a>
</g>
</g>
<!-- Node7&#45;&gt;Node4 -->
<g id="edge4" class="edge"><title>Node7&#45;&gt;Node4</title>
<path fill="none" stroke="#9a32cd" stroke-dasharray="5,2" d="M1129.61,-100.063C1172,-94.9349 1226.2,-88.3791 1264.46,-83.7506"/>
<polygon fill="#9a32cd" stroke="#9a32cd" points="1129.16,-96.5917 1119.66,-101.267 1130,-103.541 1129.16,-96.5917"/>
<text text-anchor="middle" x="1196" y="-100" font-family="Helvetica,sans-Serif" font-size="10.00"> treeMCWeighting</text>
</g>
<!-- Node8 -->
<g id="node6" class="node"><title>Node8</title>
<g id="a_node6"><a xlink:href="classant_1_1_wrap_t_tree.html" target="_top" xlink:title="The WrapTTree struct simplifies TTree handling in physics classes. ">
<polygon fill="white" stroke="black" points="809.5,-159.5 809.5,-178.5 894.5,-178.5 894.5,-159.5 809.5,-159.5"/>
<text text-anchor="middle" x="852" y="-166.5" font-family="Helvetica,sans-Serif" font-size="10.00">ant::WrapTTree</text>
</a>
</g>
</g>
<!-- Node8&#45;&gt;Node7 -->
<g id="edge5" class="edge"><title>Node8&#45;&gt;Node7</title>
<path fill="none" stroke="midnightblue" d="M895.526,-156.588C928.772,-146.885 975.119,-133.358 1010.47,-123.04"/>
<polygon fill="midnightblue" stroke="midnightblue" points="894.275,-153.307 885.656,-159.469 896.236,-160.027 894.275,-153.307"/>
</g>
<!-- Node9 -->
<g id="node7" class="node"><title>Node9</title>
<g id="a_node7"><a xlink:href="structant_1_1analysis_1_1physics_1_1_etap_omega_g_1_1_tree_common.html" target="_top" xlink:title="ant::analysis::physics\l::EtapOmegaG::TreeCommon">
<polygon fill="white" stroke="black" points="989.5,-44 989.5,-74 1136.5,-74 1136.5,-44 989.5,-44"/>
<text text-anchor="start" x="997.5" y="-62" font-family="Helvetica,sans-Serif" font-size="10.00">ant::analysis::physics</text>
<text text-anchor="middle" x="1063" y="-51" font-family="Helvetica,sans-Serif" font-size="10.00">::EtapOmegaG::TreeCommon</text>
</a>
</g>
</g>
<!-- Node8&#45;&gt;Node9 -->
<g id="edge7" class="edge"><title>Node8&#45;&gt;Node9</title>
<path fill="none" stroke="midnightblue" d="M874.019,-153.21C899.777,-134.441 945.276,-103.135 988,-83 994.964,-79.7181 1002.5,-76.7078 1010,-74.0109"/>
<polygon fill="midnightblue" stroke="midnightblue" points="871.745,-150.539 865.769,-159.287 875.896,-156.175 871.745,-150.539"/>
</g>
<!-- Node11 -->
<g id="node9" class="node"><title>Node11</title>
<g id="a_node9"><a xlink:href="structant_1_1analysis_1_1physics_1_1_etap_dalitz_1_1common__tree.html" target="_top" xlink:title="ant::analysis::physics\l::EtapDalitz::common_tree">
<polygon fill="white" stroke="black" points="996,-142 996,-172 1130,-172 1130,-142 996,-142"/>
<text text-anchor="start" x="1004" y="-160" font-family="Helvetica,sans-Serif" font-size="10.00">ant::analysis::physics</text>
<text text-anchor="middle" x="1063" y="-149" font-family="Helvetica,sans-Serif" font-size="10.00">::EtapDalitz::common_tree</text>
</a>
</g>
</g>
<!-- Node8&#45;&gt;Node11 -->
<g id="edge10" class="edge"><title>Node8&#45;&gt;Node11</title>
<path fill="none" stroke="midnightblue" d="M904.744,-166.029C932.271,-164.449 966.419,-162.488 995.854,-160.798"/>
<polygon fill="midnightblue" stroke="midnightblue" points="904.324,-162.547 894.542,-166.615 904.726,-169.536 904.324,-162.547"/>
</g>
<!-- Node12 -->
<g id="node10" class="node"><title>Node12</title>
<g id="a_node10"><a xlink:href="structant_1_1analysis_1_1physics_1_1_etap_dalitz_1_1proton__tree.html" target="_top" xlink:title="ant::analysis::physics\l::EtapDalitz::proton_tree">
<polygon fill="white" stroke="black" points="1001.5,-289 1001.5,-319 1124.5,-319 1124.5,-289 1001.5,-289"/>
<text text-anchor="start" x="1009.5" y="-307" font-family="Helvetica,sans-Serif" font-size="10.00">ant::analysis::physics</text>
<text text-anchor="middle" x="1063" y="-296" font-family="Helvetica,sans-Serif" font-size="10.00">::EtapDalitz::proton_tree</text>
</a>
</g>
</g>
<!-- Node8&#45;&gt;Node12 -->
<g id="edge12" class="edge"><title>Node8&#45;&gt;Node12</title>
<path fill="none" stroke="midnightblue" d="M869.522,-185.849C893.614,-209.579 940.688,-252.86 988,-279 994.766,-282.738 1002.19,-286.051 1009.64,-288.942"/>
<polygon fill="midnightblue" stroke="midnightblue" points="871.815,-183.193 862.266,-178.604 866.869,-188.147 871.815,-183.193"/>
</g>
<!-- Node13 -->
<g id="node11" class="node"><title>Node13</title>
<g id="a_node11"><a xlink:href="structant_1_1analysis_1_1physics_1_1_etap_dalitz_1_1photon__tree.html" target="_top" xlink:title="ant::analysis::physics\l::EtapDalitz::photon_tree\&lt; 2 \&gt;">
<polygon fill="white" stroke="black" points="988.5,-240 988.5,-270 1137.5,-270 1137.5,-240 988.5,-240"/>
<text text-anchor="start" x="996.5" y="-258" font-family="Helvetica,sans-Serif" font-size="10.00">ant::analysis::physics</text>
<text text-anchor="middle" x="1063" y="-247" font-family="Helvetica,sans-Serif" font-size="10.00">::EtapDalitz::photon_tree&lt; 2 &gt;</text>
</a>
</g>
</g>
<!-- Node8&#45;&gt;Node13 -->
<g id="edge14" class="edge"><title>Node8&#45;&gt;Node13</title>
<path fill="none" stroke="midnightblue" d="M884.768,-182.654C908.401,-192.925 941.378,-207.493 970,-221 978.089,-224.817 979.744,-226.56 988,-230 996.387,-233.494 1005.45,-236.871 1014.27,-239.954"/>
<polygon fill="midnightblue" stroke="midnightblue" points="886.135,-179.432 875.567,-178.668 883.352,-185.855 886.135,-179.432"/>
</g>
<!-- Node19 -->
<g id="node17" class="node"><title>Node19</title>
<g id="a_node17"><a xlink:href="structant_1_1analysis_1_1physics_1_1_etap_dalitz_1_1fit__tree.html" target="_top" xlink:title="ant::analysis::physics\l::EtapDalitz::fit_tree\&lt; 2 \&gt;">
<polygon fill="white" stroke="black" points="999,-191 999,-221 1127,-221 1127,-191 999,-191"/>
<text text-anchor="start" x="1007" y="-209" font-family="Helvetica,sans-Serif" font-size="10.00">ant::analysis::physics</text>
<text text-anchor="middle" x="1063" y="-198" font-family="Helvetica,sans-Serif" font-size="10.00">::EtapDalitz::fit_tree&lt; 2 &gt;</text>
</a>
</g>
</g>
<!-- Node8&#45;&gt;Node19 -->
<g id="edge21" class="edge"><title>Node8&#45;&gt;Node19</title>
<path fill="none" stroke="midnightblue" d="M904.674,-178.148C933.107,-183.182 968.62,-189.469 998.707,-194.795"/>
<polygon fill="midnightblue" stroke="midnightblue" points="904.999,-174.651 894.542,-176.354 903.778,-181.544 904.999,-174.651"/>
</g>
<!-- Node9&#45;&gt;Node4 -->
<g id="edge6" class="edge"><title>Node9&#45;&gt;Node4</title>
<path fill="none" stroke="#9a32cd" stroke-dasharray="5,2" d="M1147.05,-65.2204C1175.28,-67.3501 1207.02,-69.7605 1236,-72 1245.11,-72.7035 1254.82,-73.4637 1264.16,-74.1988"/>
<polygon fill="#9a32cd" stroke="#9a32cd" points="1147.05,-61.7108 1136.82,-64.4493 1146.52,-68.691 1147.05,-61.7108"/>
<text text-anchor="middle" x="1196" y="-75" font-family="Helvetica,sans-Serif" font-size="10.00"> treeCommon</text>
</g>
<!-- Node10 -->
<g id="node8" class="node"><title>Node10</title>
<g id="a_node8"><a xlink:href="structant_1_1analysis_1_1physics_1_1_etap_dalitz_1_1_ref_tree__t.html" target="_top" xlink:title="ant::analysis::physics\l::EtapDalitz::RefTree_t">
<polygon fill="white" stroke="black" points="1254,-191 1254,-221 1372,-221 1372,-191 1254,-191"/>
<text text-anchor="start" x="1262" y="-209" font-family="Helvetica,sans-Serif" font-size="10.00">ant::analysis::physics</text>
<text text-anchor="middle" x="1313" y="-198" font-family="Helvetica,sans-Serif" font-size="10.00">::EtapDalitz::RefTree_t</text>
</a>
</g>
</g>
<!-- Node10&#45;&gt;Node3 -->
<g id="edge8" class="edge"><title>Node10&#45;&gt;Node3</title>
<path fill="none" stroke="#9a32cd" stroke-dasharray="5,2" d="M1382.2,-190.037C1408.74,-183.826 1438.26,-176.918 1461.35,-171.514"/>
<polygon fill="#9a32cd" stroke="#9a32cd" points="1381.14,-186.693 1372.2,-192.379 1382.73,-193.508 1381.14,-186.693"/>
<text text-anchor="middle" x="1408" y="-191" font-family="Helvetica,sans-Serif" font-size="10.00"> treeRef</text>
</g>
<!-- Node11&#45;&gt;Node10 -->
<g id="edge9" class="edge"><title>Node11&#45;&gt;Node10</title>
<path fill="none" stroke="midnightblue" d="M1140.25,-172.065C1176.76,-179.28 1219.8,-187.783 1253.66,-194.472"/>
<polygon fill="midnightblue" stroke="midnightblue" points="1140.62,-168.572 1130.13,-170.067 1139.27,-175.439 1140.62,-168.572"/>
</g>
<!-- Node12&#45;&gt;Node10 -->
<g id="edge11" class="edge"><title>Node12&#45;&gt;Node10</title>
<path fill="none" stroke="midnightblue" d="M1118.57,-285.681C1125.13,-283.447 1131.72,-281.183 1138,-279 1181.69,-263.82 1193.46,-262.153 1236,-244 1252.15,-237.11 1269.7,-228.415 1283.87,-221.081"/>
<polygon fill="midnightblue" stroke="midnightblue" points="1117.39,-282.388 1109.05,-288.92 1119.64,-289.016 1117.39,-282.388"/>
</g>
<!-- Node13&#45;&gt;Node10 -->
<g id="edge13" class="edge"><title>Node13&#45;&gt;Node10</title>
<path fill="none" stroke="midnightblue" d="M1147.91,-238.422C1182.75,-231.537 1222.33,-223.717 1253.89,-217.482"/>
<polygon fill="midnightblue" stroke="midnightblue" points="1146.87,-235.059 1137.74,-240.431 1148.23,-241.926 1146.87,-235.059"/>
</g>
<!-- Node14 -->
<g id="node12" class="node"><title>Node14</title>
<g id="a_node12"><a xlink:href="structant_1_1analysis_1_1physics_1_1_etap_dalitz_tools.html" target="_top" xlink:title="ant::analysis::physics\l::EtapDalitzTools">
<polygon fill="white" stroke="black" points="796,-242 796,-272 908,-272 908,-242 796,-242"/>
<text text-anchor="start" x="804" y="-260" font-family="Helvetica,sans-Serif" font-size="10.00">ant::analysis::physics</text>
<text text-anchor="middle" x="852" y="-249" font-family="Helvetica,sans-Serif" font-size="10.00">::EtapDalitzTools</text>
</a>
</g>
</g>
<!-- Node14&#45;&gt;Node13 -->
<g id="edge15" class="edge"><title>Node14&#45;&gt;Node13</title>
<path fill="none" stroke="midnightblue" d="M918.199,-256.376C940.458,-256.163 965.502,-255.923 988.377,-255.705"/>
<polygon fill="midnightblue" stroke="midnightblue" points="918.152,-252.876 908.186,-256.472 918.219,-259.876 918.152,-252.876"/>
</g>
<!-- Node15 -->
<g id="node13" class="node"><title>Node15</title>
<g id="a_node13"><a xlink:href="structant_1_1analysis_1_1utils_1_1_cluster_tools.html" target="_top" xlink:title="ant::analysis::utils\l::ClusterTools">
<polygon fill="white" stroke="black" points="604,-242 604,-272 700,-272 700,-242 604,-242"/>
<text text-anchor="start" x="612" y="-260" font-family="Helvetica,sans-Serif" font-size="10.00">ant::analysis::utils</text>
<text text-anchor="middle" x="652" y="-249" font-family="Helvetica,sans-Serif" font-size="10.00">::ClusterTools</text>
</a>
</g>
</g>
<!-- Node15&#45;&gt;Node14 -->
<g id="edge16" class="edge"><title>Node15&#45;&gt;Node14</title>
<path fill="none" stroke="#9a32cd" stroke-dasharray="5,2" d="M710.222,-257C737.138,-257 769.099,-257 795.76,-257"/>
<polygon fill="#9a32cd" stroke="#9a32cd" points="710.174,-253.5 700.174,-257 710.174,-260.5 710.174,-253.5"/>
<text text-anchor="middle" x="745" y="-260" font-family="Helvetica,sans-Serif" font-size="10.00"> clustertools</text>
</g>
<!-- Node16 -->
<g id="node14" class="node"><title>Node16</title>
<polygon fill="white" stroke="#bfbfbf" points="348.5,-236.5 348.5,-277.5 487.5,-277.5 487.5,-236.5 348.5,-236.5"/>
<text text-anchor="start" x="356.5" y="-265.5" font-family="Helvetica,sans-Serif" font-size="10.00">std::map&lt; Detector</text>
<text text-anchor="start" x="356.5" y="-254.5" font-family="Helvetica,sans-Serif" font-size="10.00">_t::Type_t, ant::analysis</text>
<text text-anchor="middle" x="418" y="-243.5" font-family="Helvetica,sans-Serif" font-size="10.00">::utils::ClusterTools::det_t &gt;</text>
</g>
<!-- Node16&#45;&gt;Node15 -->
<g id="edge17" class="edge"><title>Node16&#45;&gt;Node15</title>
<path fill="none" stroke="#9a32cd" stroke-dasharray="5,2" d="M497.927,-257C533.129,-257 573.421,-257 603.829,-257"/>
<polygon fill="#9a32cd" stroke="#9a32cd" points="497.666,-253.5 487.666,-257 497.666,-260.5 497.666,-253.5"/>
<text text-anchor="middle" x="546" y="-260" font-family="Helvetica,sans-Serif" font-size="10.00"> cluster_detectors</text>
</g>
<!-- Node17 -->
<g id="node15" class="node"><title>Node17</title>
<g id="a_node15"><a xlink:href="structant_1_1analysis_1_1utils_1_1_cluster_tools_1_1det__t.html" target="_top" xlink:title="ant::analysis::utils\l::ClusterTools::det_t">
<polygon fill="white" stroke="black" points="162,-242 162,-272 268,-272 268,-242 162,-242"/>
<text text-anchor="start" x="170" y="-260" font-family="Helvetica,sans-Serif" font-size="10.00">ant::analysis::utils</text>
<text text-anchor="middle" x="215" y="-249" font-family="Helvetica,sans-Serif" font-size="10.00">::ClusterTools::det_t</text>
</a>
</g>
</g>
<!-- Node17&#45;&gt;Node16 -->
<g id="edge18" class="edge"><title>Node17&#45;&gt;Node16</title>
<path fill="none" stroke="#9a32cd" stroke-dasharray="5,2" d="M278.304,-257C300.444,-257 325.49,-257 348.147,-257"/>
<polygon fill="#9a32cd" stroke="#9a32cd" points="278.024,-253.5 268.024,-257 278.024,-260.5 278.024,-253.5"/>
<text text-anchor="middle" x="308" y="-260" font-family="Helvetica,sans-Serif" font-size="10.00"> elements</text>
</g>
<!-- Node18 -->
<g id="node16" class="node"><title>Node18</title>
<polygon fill="white" stroke="#bfbfbf" points="0,-247.5 0,-266.5 110,-266.5 110,-247.5 0,-247.5"/>
<text text-anchor="middle" x="55" y="-254.5" font-family="Helvetica,sans-Serif" font-size="10.00">std::vector&lt; double &gt;</text>
</g>
<!-- Node18&#45;&gt;Node17 -->
<g id="edge19" class="edge"><title>Node18&#45;&gt;Node17</title>
<path fill="none" stroke="#9a32cd" stroke-dasharray="5,2" d="M120.72,-257C134.437,-257 148.748,-257 161.925,-257"/>
<polygon fill="#9a32cd" stroke="#9a32cd" points="120.375,-253.5 110.375,-257 120.375,-260.5 120.375,-253.5"/>
<text text-anchor="middle" x="136" y="-260" font-family="Helvetica,sans-Serif" font-size="10.00"> R0</text>
</g>
<!-- Node19&#45;&gt;Node10 -->
<g id="edge20" class="edge"><title>Node19&#45;&gt;Node10</title>
<path fill="none" stroke="midnightblue" d="M1137.51,-206C1174.71,-206 1219.23,-206 1253.99,-206"/>
<polygon fill="midnightblue" stroke="midnightblue" points="1137.22,-202.5 1127.22,-206 1137.22,-209.5 1137.22,-202.5"/>
</g>
</g>
</svg>
