<?xml version="1.0" encoding="UTF-8" standalone="no"?>
<!DOCTYPE svg PUBLIC "-//W3C//DTD SVG 1.1//EN"
 "http://www.w3.org/Graphics/SVG/1.1/DTD/svg11.dtd">
<!-- Generated by graphviz version 2.36.0 (20140111.2315)
 -->
<!-- Title: sigmaPlus_FinalPlot::SigmaK0Hist_t::HistMgr&lt; Hist &gt; Pages: 1 -->
<svg width="136pt" height="188pt"
 viewBox="0.00 0.00 136.00 188.00" xmlns="http://www.w3.org/2000/svg" xmlns:xlink="http://www.w3.org/1999/xlink">
<g id="graph0" class="graph" transform="scale(1 1) rotate(0) translate(4 184)">
<title>sigmaPlus_FinalPlot::SigmaK0Hist_t::HistMgr&lt; Hist &gt;</title>
<polygon fill="white" stroke="none" points="-4,4 -4,-184 132,-184 132,4 -4,4"/>
<!-- Node2 -->
<g id="node1" class="node"><title>Node2</title>
<polygon fill="#bfbfbf" stroke="black" points="-0.5,-0.5 -0.5,-41.5 128.5,-41.5 128.5,-0.5 -0.5,-0.5"/>
<text text-anchor="start" x="7.5" y="-29.5" font-family="Helvetica,sans-Serif" font-size="10.00">sigmaPlus_FinalPlot</text>
<text text-anchor="start" x="7.5" y="-18.5" font-family="Helvetica,sans-Serif" font-size="10.00">::SigmaK0Hist_t::HistMgr</text>
<text text-anchor="middle" x="64" y="-7.5" font-family="Helvetica,sans-Serif" font-size="10.00">&lt; Hist &gt;</text>
</g>
<!-- Node3 -->
<g id="node2" class="node"><title>Node3</title>
<g id="a_node2"><a xlink:title="STL class. ">
<polygon fill="white" stroke="#bfbfbf" points="15.5,-81 15.5,-111 112.5,-111 112.5,-81 15.5,-81"/>
<text text-anchor="start" x="23.5" y="-99" font-family="Helvetica,sans-Serif" font-size="10.00">std::list&lt; HistFiller</text>
<text text-anchor="middle" x="64" y="-88" font-family="Helvetica,sans-Serif" font-size="10.00">_t&lt; Hist &gt; &gt;</text>
</a>
</g>
</g>
<!-- Node3&#45;&gt;Node2 -->
<g id="edge1" class="edge"><title>Node3&#45;&gt;Node2</title>
<path fill="none" stroke="midnightblue" d="M64,-70.8818C64,-61.3629 64,-50.5694 64,-41.5507"/>
<polygon fill="midnightblue" stroke="midnightblue" points="60.5001,-70.9248 64,-80.9249 67.5001,-70.9249 60.5001,-70.9248"/>
</g>
<!-- Node4 -->
<g id="node3" class="node"><title>Node4</title>
<polygon fill="white" stroke="#bfbfbf" points="49.5,-160.5 49.5,-179.5 78.5,-179.5 78.5,-160.5 49.5,-160.5"/>
<text text-anchor="middle" x="64" y="-167.5" font-family="Helvetica,sans-Serif" font-size="10.00">T</text>
</g>
<!-- Node4&#45;&gt;Node3 -->
<g id="edge2" class="edge"><title>Node4&#45;&gt;Node3</title>
<path fill="none" stroke="#9a32cd" stroke-dasharray="5,2" d="M64,-150.085C64,-137.915 64,-122.354 64,-111.232"/>
<polygon fill="#9a32cd" stroke="#9a32cd" points="60.5001,-150.458 64,-160.458 67.5001,-150.458 60.5001,-150.458"/>
<text text-anchor="middle" x="85.5" y="-133.5" font-family="Helvetica,sans-Serif" font-size="10.00"> elements</text>
</g>
</g>
</svg>
