<?xml version="1.0" encoding="UTF-8" standalone="no"?>
<!DOCTYPE svg PUBLIC "-//W3C//DTD SVG 1.1//EN"
 "http://www.w3.org/Graphics/SVG/1.1/DTD/svg11.dtd">
<!-- Generated by graphviz version 2.36.0 (20140111.2315)
 -->
<!-- Title: ant::TCandidate Pages: 1 -->
<svg width="370pt" height="268pt"
 viewBox="0.00 0.00 370.00 268.00" xmlns="http://www.w3.org/2000/svg" xmlns:xlink="http://www.w3.org/1999/xlink">
<g id="graph0" class="graph" transform="scale(1 1) rotate(0) translate(4 264)">
<title>ant::TCandidate</title>
<polygon fill="white" stroke="none" points="-4,4 -4,-264 366,-264 366,4 -4,4"/>
<!-- Node1 -->
<g id="node1" class="node"><title>Node1</title>
<polygon fill="#bfbfbf" stroke="black" points="75,-0.5 75,-19.5 161,-19.5 161,-0.5 75,-0.5"/>
<text text-anchor="middle" x="118" y="-7.5" font-family="Helvetica,sans-Serif" font-size="10.00">ant::TCandidate</text>
</g>
<!-- Node2 -->
<g id="node2" class="node"><title>Node2</title>
<g id="a_node2"><a xlink:href="classant_1_1std__ext_1_1shared__ptr__container.html" target="_top" xlink:title="ant::std_ext::shared\l_ptr_container\&lt; TCluster \&gt;">
<polygon fill="white" stroke="black" points="0,-86 0,-116 134,-116 134,-86 0,-86"/>
<text text-anchor="start" x="8" y="-104" font-family="Helvetica,sans-Serif" font-size="10.00">ant::std_ext::shared</text>
<text text-anchor="middle" x="67" y="-93" font-family="Helvetica,sans-Serif" font-size="10.00">_ptr_container&lt; TCluster &gt;</text>
</a>
</g>
</g>
<!-- Node2&#45;&gt;Node1 -->
<g id="edge1" class="edge"><title>Node2&#45;&gt;Node1</title>
<path fill="none" stroke="#9a32cd" stroke-dasharray="5,2" d="M80.2634,-76.854C91.0106,-58.0992 105.559,-32.7114 113.065,-19.612"/>
<polygon fill="#9a32cd" stroke="#9a32cd" points="77.1292,-75.284 75.194,-85.7006 83.2027,-78.7643 77.1292,-75.284"/>
<text text-anchor="middle" x="122" y="-41.5" font-family="Helvetica,sans-Serif" font-size="10.00"> Clusters</text>
</g>
<!-- Node3 -->
<g id="node3" class="node"><title>Node3</title>
<g id="a_node3"><a xlink:href="structant_1_1_detector__t_1_1_any__t.html" target="_top" xlink:title="ant::Detector_t::Any_t">
<polygon fill="white" stroke="black" points="152.5,-91.5 152.5,-110.5 265.5,-110.5 265.5,-91.5 152.5,-91.5"/>
<text text-anchor="middle" x="209" y="-98.5" font-family="Helvetica,sans-Serif" font-size="10.00">ant::Detector_t::Any_t</text>
</a>
</g>
</g>
<!-- Node3&#45;&gt;Node1 -->
<g id="edge2" class="edge"><title>Node3&#45;&gt;Node1</title>
<path fill="none" stroke="#9a32cd" stroke-dasharray="5,2" d="M192.925,-84.0909C180.22,-71.5397 162.021,-53.607 146,-38 139.808,-31.9684 132.808,-25.2184 127.356,-19.9763"/>
<polygon fill="#9a32cd" stroke="#9a32cd" points="190.484,-86.5997 200.056,-91.1415 195.405,-81.6218 190.484,-86.5997"/>
<text text-anchor="middle" x="178.5" y="-41.5" font-family="Helvetica,sans-Serif" font-size="10.00"> Detector</text>
</g>
<!-- Node3&#45;&gt;Node3 -->
<g id="edge5" class="edge"><title>Node3&#45;&gt;Node3</title>
<path fill="none" stroke="#9a32cd" stroke-dasharray="5,2" d="M258.014,-110.714C272.115,-110.345 283,-107.106 283,-101 283,-93.4844 266.511,-90.3137 247.833,-91.488"/>
<polygon fill="#9a32cd" stroke="#9a32cd" points="257.9,-107.211 247.833,-110.512 257.761,-114.21 257.9,-107.211"/>
<text text-anchor="middle" x="322.5" y="-126" font-family="Helvetica,sans-Serif" font-size="10.00"> TAPS_Apparatus</text>
<text text-anchor="middle" x="322.5" y="-115" font-family="Helvetica,sans-Serif" font-size="10.00">CB_Apparatus</text>
<text text-anchor="middle" x="322.5" y="-104" font-family="Helvetica,sans-Serif" font-size="10.00">None</text>
<text text-anchor="middle" x="322.5" y="-93" font-family="Helvetica,sans-Serif" font-size="10.00">Veto</text>
<text text-anchor="middle" x="322.5" y="-82" font-family="Helvetica,sans-Serif" font-size="10.00">Tracker</text>
<text text-anchor="middle" x="322.5" y="-71" font-family="Helvetica,sans-Serif" font-size="10.00">Calo</text>
</g>
<!-- Node4 -->
<g id="node4" class="node"><title>Node4</title>
<g id="a_node4"><a xlink:href="classant_1_1bitflag.html" target="_top" xlink:title="ant::bitflag\&lt; Type_t \&gt;">
<polygon fill="white" stroke="black" points="154,-172.5 154,-191.5 264,-191.5 264,-172.5 154,-172.5"/>
<text text-anchor="middle" x="209" y="-179.5" font-family="Helvetica,sans-Serif" font-size="10.00">ant::bitflag&lt; Type_t &gt;</text>
</a>
</g>
</g>
<!-- Node4&#45;&gt;Node3 -->
<g id="edge3" class="edge"><title>Node4&#45;&gt;Node3</title>
<path fill="none" stroke="midnightblue" d="M209,-162.178C209,-145.81 209,-122.843 209,-110.555"/>
<polygon fill="midnightblue" stroke="midnightblue" points="205.5,-162.244 209,-172.244 212.5,-162.244 205.5,-162.244"/>
</g>
<!-- Node5 -->
<g id="node5" class="node"><title>Node5</title>
<polygon fill="white" stroke="#bfbfbf" points="164.5,-240.5 164.5,-259.5 253.5,-259.5 253.5,-240.5 164.5,-240.5"/>
<text text-anchor="middle" x="209" y="-247.5" font-family="Helvetica,sans-Serif" font-size="10.00">std::bitset&lt; 32 &gt;</text>
</g>
<!-- Node5&#45;&gt;Node4 -->
<g id="edge4" class="edge"><title>Node5&#45;&gt;Node4</title>
<path fill="none" stroke="#9a32cd" stroke-dasharray="5,2" d="M209,-230.041C209,-217.472 209,-201.563 209,-191.841"/>
<polygon fill="#9a32cd" stroke="#9a32cd" points="205.5,-230.372 209,-240.372 212.5,-230.372 205.5,-230.372"/>
<text text-anchor="middle" x="218.5" y="-213.5" font-family="Helvetica,sans-Serif" font-size="10.00"> bits</text>
</g>
</g>
</svg>
