<?xml version="1.0" encoding="UTF-8" standalone="no"?>
<!DOCTYPE svg PUBLIC "-//W3C//DTD SVG 1.1//EN"
 "http://www.w3.org/Graphics/SVG/1.1/DTD/svg11.dtd">
<!-- Generated by graphviz version 2.36.0 (20140111.2315)
 -->
<!-- Title: ant::progs::taggeff::treeLoader_t Pages: 1 -->
<svg width="870pt" height="126pt"
 viewBox="0.00 0.00 870.00 126.00" xmlns="http://www.w3.org/2000/svg" xmlns:xlink="http://www.w3.org/1999/xlink">
<g id="graph0" class="graph" transform="scale(1 1) rotate(0) translate(4 122)">
<title>ant::progs::taggeff::treeLoader_t</title>
<polygon fill="white" stroke="none" points="-4,4 -4,-122 866,-122 866,4 -4,4"/>
<!-- Node1 -->
<g id="node1" class="node"><title>Node1</title>
<polygon fill="#bfbfbf" stroke="black" points="766,-44 766,-74 862,-74 862,-44 766,-44"/>
<text text-anchor="start" x="774" y="-62" font-family="Helvetica,sans-Serif" font-size="10.00">ant::progs::taggeff</text>
<text text-anchor="middle" x="814" y="-51" font-family="Helvetica,sans-Serif" font-size="10.00">::treeLoader_t</text>
</g>
<!-- Node2 -->
<g id="node2" class="node"><title>Node2</title>
<g id="a_node2"><a xlink:href="structant_1_1analysis_1_1physics_1_1_process_tagg_eff_1_1_tree_scalar_reads.html" target="_top" xlink:title="ant::analysis::physics\l::ProcessTaggEff::TreeScalarReads">
<polygon fill="white" stroke="black" points="500.5,-88 500.5,-118 675.5,-118 675.5,-88 500.5,-88"/>
<text text-anchor="start" x="508.5" y="-106" font-family="Helvetica,sans-Serif" font-size="10.00">ant::analysis::physics</text>
<text text-anchor="middle" x="588" y="-95" font-family="Helvetica,sans-Serif" font-size="10.00">::ProcessTaggEff::TreeScalarReads</text>
</a>
</g>
</g>
<!-- Node2&#45;&gt;Node1 -->
<g id="edge1" class="edge"><title>Node2&#45;&gt;Node1</title>
<path fill="none" stroke="#9a32cd" stroke-dasharray="5,2" d="M685.432,-86.1531C706.11,-82.3335 727.809,-78.1688 748,-74 753.784,-72.8057 759.844,-71.492 765.839,-70.1537"/>
<polygon fill="#9a32cd" stroke="#9a32cd" points="684.578,-82.7513 675.374,-87.999 685.841,-89.6363 684.578,-82.7513"/>
<text text-anchor="middle" x="721" y="-87" font-family="Helvetica,sans-Serif" font-size="10.00"> wrapTree</text>
</g>
<!-- Node3 -->
<g id="node3" class="node"><title>Node3</title>
<g id="a_node3"><a xlink:href="classant_1_1_wrap_t_tree.html" target="_top" xlink:title="The WrapTTree struct simplifies TTree handling in physics classes. ">
<polygon fill="white" stroke="black" points="371.5,-93.5 371.5,-112.5 456.5,-112.5 456.5,-93.5 371.5,-93.5"/>
<text text-anchor="middle" x="414" y="-100.5" font-family="Helvetica,sans-Serif" font-size="10.00">ant::WrapTTree</text>
</a>
</g>
</g>
<!-- Node3&#45;&gt;Node2 -->
<g id="edge2" class="edge"><title>Node3&#45;&gt;Node2</title>
<path fill="none" stroke="midnightblue" d="M466.885,-103C477.437,-103 488.805,-103 500.193,-103"/>
<polygon fill="midnightblue" stroke="midnightblue" points="466.636,-99.5001 456.636,-103 466.636,-106.5 466.636,-99.5001"/>
</g>
<!-- Node4 -->
<g id="node4" class="node"><title>Node4</title>
<g id="a_node4"><a xlink:title="STL class. ">
<polygon fill="white" stroke="#bfbfbf" points="558,-49.5 558,-68.5 618,-68.5 618,-49.5 558,-49.5"/>
<text text-anchor="middle" x="588" y="-56.5" font-family="Helvetica,sans-Serif" font-size="10.00">std::string</text>
</a>
</g>
</g>
<!-- Node4&#45;&gt;Node1 -->
<g id="edge3" class="edge"><title>Node4&#45;&gt;Node1</title>
<path fill="none" stroke="#9a32cd" stroke-dasharray="5,2" d="M628.533,-59C666.843,-59 724.977,-59 765.718,-59"/>
<polygon fill="#9a32cd" stroke="#9a32cd" points="628.284,-55.5001 618.284,-59 628.284,-62.5001 628.284,-55.5001"/>
<text text-anchor="middle" x="721" y="-62" font-family="Helvetica,sans-Serif" font-size="10.00"> setupName</text>
</g>
<!-- Node5 -->
<g id="node5" class="node"><title>Node5</title>
<g id="a_node5"><a xlink:title="STL class. ">
<polygon fill="white" stroke="#bfbfbf" points="366.5,-44 366.5,-74 461.5,-74 461.5,-44 366.5,-44"/>
<text text-anchor="start" x="374.5" y="-62" font-family="Helvetica,sans-Serif" font-size="10.00">std::basic_string&lt;</text>
<text text-anchor="middle" x="414" y="-51" font-family="Helvetica,sans-Serif" font-size="10.00"> char &gt;</text>
</a>
</g>
</g>
<!-- Node5&#45;&gt;Node4 -->
<g id="edge4" class="edge"><title>Node5&#45;&gt;Node4</title>
<path fill="none" stroke="midnightblue" d="M471.913,-59C500.736,-59 534.5,-59 557.972,-59"/>
<polygon fill="midnightblue" stroke="midnightblue" points="471.546,-55.5001 461.546,-59 471.546,-62.5001 471.546,-55.5001"/>
</g>
<!-- Node6 -->
<g id="node6" class="node"><title>Node6</title>
<g id="a_node6"><a xlink:href="classant_1_1_wrap_t_file_input.html" target="_top" xlink:title="ant::WrapTFileInput">
<polygon fill="white" stroke="black" points="536.5,-10.5 536.5,-29.5 639.5,-29.5 639.5,-10.5 536.5,-10.5"/>
<text text-anchor="middle" x="588" y="-17.5" font-family="Helvetica,sans-Serif" font-size="10.00">ant::WrapTFileInput</text>
</a>
</g>
</g>
<!-- Node6&#45;&gt;Node1 -->
<g id="edge5" class="edge"><title>Node6&#45;&gt;Node1</title>
<path fill="none" stroke="#9a32cd" stroke-dasharray="5,2" d="M649.867,-28.0673C679.558,-32.2875 715.742,-37.8527 748,-44 753.802,-45.1057 759.872,-46.3661 765.873,-47.6758"/>
<polygon fill="#9a32cd" stroke="#9a32cd" points="650.042,-24.5577 639.653,-26.6319 649.068,-31.4896 650.042,-24.5577"/>
<text text-anchor="middle" x="721" y="-47" font-family="Helvetica,sans-Serif" font-size="10.00"> wrapFile</text>
</g>
<!-- Node7 -->
<g id="node7" class="node"><title>Node7</title>
<g id="a_node7"><a xlink:href="classant_1_1_wrap_t_file.html" target="_top" xlink:title="ant::WrapTFile">
<polygon fill="white" stroke="black" points="373.5,-5.5 373.5,-24.5 454.5,-24.5 454.5,-5.5 373.5,-5.5"/>
<text text-anchor="middle" x="414" y="-12.5" font-family="Helvetica,sans-Serif" font-size="10.00">ant::WrapTFile</text>
</a>
</g>
</g>
<!-- Node7&#45;&gt;Node6 -->
<g id="edge6" class="edge"><title>Node7&#45;&gt;Node6</title>
<path fill="none" stroke="midnightblue" d="M465.182,-16.4588C487.525,-17.1083 513.795,-17.8719 536.209,-18.5235"/>
<polygon fill="midnightblue" stroke="midnightblue" points="464.99,-12.9518 454.893,-16.1597 464.787,-19.9489 464.99,-12.9518"/>
</g>
<!-- Node8 -->
<g id="node8" class="node"><title>Node8</title>
<polygon fill="white" stroke="#bfbfbf" points="202,-0 202,-30 308,-30 308,-0 202,-0"/>
<text text-anchor="start" x="210" y="-18" font-family="Helvetica,sans-Serif" font-size="10.00">std::list&lt; std::unique</text>
<text text-anchor="middle" x="255" y="-7" font-family="Helvetica,sans-Serif" font-size="10.00">_ptr&lt; TFile &gt; &gt;</text>
</g>
<!-- Node8&#45;&gt;Node7 -->
<g id="edge7" class="edge"><title>Node8&#45;&gt;Node7</title>
<path fill="none" stroke="#9a32cd" stroke-dasharray="5,2" d="M318.414,-15C336.94,-15 356.714,-15 373.366,-15"/>
<polygon fill="#9a32cd" stroke="#9a32cd" points="318.279,-11.5001 308.279,-15 318.279,-18.5001 318.279,-11.5001"/>
<text text-anchor="middle" x="337" y="-18" font-family="Helvetica,sans-Serif" font-size="10.00"> files</text>
</g>
<!-- Node9 -->
<g id="node9" class="node"><title>Node9</title>
<polygon fill="white" stroke="#bfbfbf" points="0.5,-5.5 0.5,-24.5 121.5,-24.5 121.5,-5.5 0.5,-5.5"/>
<text text-anchor="middle" x="61" y="-12.5" font-family="Helvetica,sans-Serif" font-size="10.00">std::unique_ptr&lt; TFile &gt;</text>
</g>
<!-- Node9&#45;&gt;Node8 -->
<g id="edge8" class="edge"><title>Node9&#45;&gt;Node8</title>
<path fill="none" stroke="#9a32cd" stroke-dasharray="5,2" d="M131.799,-15C154.922,-15 180.242,-15 201.807,-15"/>
<polygon fill="#9a32cd" stroke="#9a32cd" points="131.698,-11.5001 121.698,-15 131.697,-18.5001 131.698,-11.5001"/>
<text text-anchor="middle" x="162" y="-18" font-family="Helvetica,sans-Serif" font-size="10.00"> elements</text>
</g>
</g>
</svg>
