<?xml version="1.0" encoding="UTF-8" standalone="no"?>
<!DOCTYPE svg PUBLIC "-//W3C//DTD SVG 1.1//EN"
 "http://www.w3.org/Graphics/SVG/1.1/DTD/svg11.dtd">
<!-- Generated by graphviz version 2.36.0 (20140111.2315)
 -->
<!-- Title: ant::analysis::slowcontrol::processor::ExpTrigger Pages: 1 -->
<svg width="754pt" height="77pt"
 viewBox="0.00 0.00 754.00 77.00" xmlns="http://www.w3.org/2000/svg" xmlns:xlink="http://www.w3.org/1999/xlink">
<g id="graph0" class="graph" transform="scale(1 1) rotate(0) translate(4 73)">
<title>ant::analysis::slowcontrol::processor::ExpTrigger</title>
<polygon fill="white" stroke="none" points="-4,4 -4,-73 750,-73 750,4 -4,4"/>
<!-- Node2 -->
<g id="node1" class="node"><title>Node2</title>
<polygon fill="#bfbfbf" stroke="black" points="618,-27 618,-57 746,-57 746,-27 618,-27"/>
<text text-anchor="start" x="626" y="-45" font-family="Helvetica,sans-Serif" font-size="10.00">ant::analysis::slowcontrol</text>
<text text-anchor="middle" x="682" y="-34" font-family="Helvetica,sans-Serif" font-size="10.00">::processor::ExpTrigger</text>
</g>
<!-- Node3 -->
<g id="node2" class="node"><title>Node3</title>
<g id="a_node2"><a xlink:href="structant_1_1analysis_1_1slowcontrol_1_1_processor.html" target="_top" xlink:title="ant::analysis::slowcontrol\l::Processor">
<polygon fill="white" stroke="black" points="0,-39 0,-69 128,-69 128,-39 0,-39"/>
<text text-anchor="start" x="8" y="-57" font-family="Helvetica,sans-Serif" font-size="10.00">ant::analysis::slowcontrol</text>
<text text-anchor="middle" x="64" y="-46" font-family="Helvetica,sans-Serif" font-size="10.00">::Processor</text>
</a>
</g>
</g>
<!-- Node3&#45;&gt;Node2 -->
<g id="edge1" class="edge"><title>Node3&#45;&gt;Node2</title>
<path fill="none" stroke="midnightblue" d="M138.318,-54.9195C140.911,-54.9474 143.477,-54.9744 146,-55 313.108,-56.6982 354.885,-57.3333 522,-58 556.666,-58.1383 565.498,-61.375 600,-58 605.849,-57.4278 611.902,-56.6285 617.944,-55.6896"/>
<polygon fill="midnightblue" stroke="midnightblue" points="138.27,-51.4188 128.232,-54.8073 138.193,-58.4184 138.27,-51.4188"/>
</g>
<!-- Node5 -->
<g id="node4" class="node"><title>Node5</title>
<g id="a_node4"><a xlink:href="structant_1_1analysis_1_1slowcontrol_1_1processor_1_1_acqu_scaler_vector.html" target="_top" xlink:title="ant::analysis::slowcontrol\l::processor::AcquScalerVector">
<polygon fill="white" stroke="black" points="166,-11 166,-41 316,-41 316,-11 166,-11"/>
<text text-anchor="start" x="174" y="-29" font-family="Helvetica,sans-Serif" font-size="10.00">ant::analysis::slowcontrol</text>
<text text-anchor="middle" x="241" y="-18" font-family="Helvetica,sans-Serif" font-size="10.00">::processor::AcquScalerVector</text>
</a>
</g>
</g>
<!-- Node3&#45;&gt;Node5 -->
<g id="edge4" class="edge"><title>Node3&#45;&gt;Node5</title>
<path fill="none" stroke="midnightblue" d="M138.057,-42.3109C147.258,-40.8387 156.678,-39.3315 165.895,-37.8568"/>
<polygon fill="midnightblue" stroke="midnightblue" points="137.5,-38.8553 128.179,-43.8914 138.606,-45.7674 137.5,-38.8553"/>
</g>
<!-- Node4 -->
<g id="node3" class="node"><title>Node4</title>
<g id="a_node3"><a xlink:href="structant_1_1analysis_1_1slowcontrol_1_1processor_1_1_acqu_scaler_scalar.html" target="_top" xlink:title="ant::analysis::slowcontrol\l::processor::AcquScalerScalar">
<polygon fill="white" stroke="black" points="354.5,-0 354.5,-30 503.5,-30 503.5,-0 354.5,-0"/>
<text text-anchor="start" x="362.5" y="-18" font-family="Helvetica,sans-Serif" font-size="10.00">ant::analysis::slowcontrol</text>
<text text-anchor="middle" x="429" y="-7" font-family="Helvetica,sans-Serif" font-size="10.00">::processor::AcquScalerScalar</text>
</a>
</g>
</g>
<!-- Node4&#45;&gt;Node2 -->
<g id="edge2" class="edge"><title>Node4&#45;&gt;Node2</title>
<path fill="none" stroke="#9a32cd" stroke-dasharray="5,2" d="M513.689,-8.81211C541.332,-8.27957 572.133,-9.3193 600,-14 615.407,-16.5878 631.802,-21.7632 645.783,-26.9682"/>
<polygon fill="#9a32cd" stroke="#9a32cd" points="513.564,-5.31409 503.659,-9.07561 513.748,-12.3117 513.564,-5.31409"/>
<text text-anchor="middle" x="561" y="-50" font-family="Helvetica,sans-Serif" font-size="10.00"> L1Trigger</text>
<text text-anchor="middle" x="561" y="-39" font-family="Helvetica,sans-Serif" font-size="10.00">Trigger</text>
<text text-anchor="middle" x="561" y="-28" font-family="Helvetica,sans-Serif" font-size="10.00">LiveCounter</text>
<text text-anchor="middle" x="561" y="-17" font-family="Helvetica,sans-Serif" font-size="10.00">Reference_1MHz</text>
</g>
<!-- Node5&#45;&gt;Node4 -->
<g id="edge3" class="edge"><title>Node5&#45;&gt;Node4</title>
<path fill="none" stroke="midnightblue" d="M326.141,-21.0239C335.504,-20.4702 344.988,-19.9093 354.208,-19.364"/>
<polygon fill="midnightblue" stroke="midnightblue" points="325.822,-17.5365 316.047,-21.6209 326.236,-24.5243 325.822,-17.5365"/>
</g>
</g>
</svg>
