<?xml version="1.0" encoding="UTF-8" standalone="no"?>
<!DOCTYPE svg PUBLIC "-//W3C//DTD SVG 1.1//EN"
 "http://www.w3.org/Graphics/SVG/1.1/DTD/svg11.dtd">
<!-- Generated by graphviz version 2.36.0 (20140111.2315)
 -->
<!-- Title: PIDEfficiencyCheck_plot Pages: 1 -->
<svg width="259pt" height="198pt"
 viewBox="0.00 0.00 259.00 198.00" xmlns="http://www.w3.org/2000/svg" xmlns:xlink="http://www.w3.org/1999/xlink">
<g id="graph0" class="graph" transform="scale(1 1) rotate(0) translate(4 194)">
<title>PIDEfficiencyCheck_plot</title>
<polygon fill="white" stroke="none" points="-4,4 -4,-194 255,-194 255,4 -4,4"/>
<!-- Node2 -->
<g id="node1" class="node"><title>Node2</title>
<polygon fill="#bfbfbf" stroke="black" points="74.5,-0.5 74.5,-19.5 201.5,-19.5 201.5,-0.5 74.5,-0.5"/>
<text text-anchor="middle" x="138" y="-7.5" font-family="Helvetica,sans-Serif" font-size="10.00">PIDEfficiencyCheck_plot</text>
</g>
<!-- Node3 -->
<g id="node2" class="node"><title>Node3</title>
<g id="a_node2"><a xlink:href="classant_1_1analysis_1_1_plotter.html" target="_top" xlink:title="ant::analysis::Plotter">
<polygon fill="white" stroke="black" points="7.5,-79.5 7.5,-98.5 114.5,-98.5 114.5,-79.5 7.5,-79.5"/>
<text text-anchor="middle" x="61" y="-86.5" font-family="Helvetica,sans-Serif" font-size="10.00">ant::analysis::Plotter</text>
</a>
</g>
</g>
<!-- Node3&#45;&gt;Node2 -->
<g id="edge1" class="edge"><title>Node3&#45;&gt;Node2</title>
<path fill="none" stroke="midnightblue" d="M77.0026,-71.9974C92.8372,-56.1628 116.493,-32.5068 129.191,-19.8094"/>
<polygon fill="midnightblue" stroke="midnightblue" points="74.1308,-69.9195 69.5345,-79.4655 79.0805,-74.8692 74.1308,-69.9195"/>
</g>
<!-- Node4 -->
<g id="node3" class="node"><title>Node4</title>
<g id="a_node3"><a xlink:href="classant_1_1analysis_1_1_histogram_factory.html" target="_top" xlink:title="ant::analysis::Histogram\lFactory">
<polygon fill="white" stroke="black" points="-0.5,-159 -0.5,-189 122.5,-189 122.5,-159 -0.5,-159"/>
<text text-anchor="start" x="7.5" y="-177" font-family="Helvetica,sans-Serif" font-size="10.00">ant::analysis::Histogram</text>
<text text-anchor="middle" x="61" y="-166" font-family="Helvetica,sans-Serif" font-size="10.00">Factory</text>
</a>
</g>
</g>
<!-- Node4&#45;&gt;Node3 -->
<g id="edge2" class="edge"><title>Node4&#45;&gt;Node3</title>
<path fill="none" stroke="#9a32cd" stroke-dasharray="5,2" d="M61,-148.692C61,-131.902 61,-110.551 61,-98.7818"/>
<polygon fill="#9a32cd" stroke="#9a32cd" points="57.5001,-148.92 61,-158.92 64.5001,-148.92 57.5001,-148.92"/>
<text text-anchor="middle" x="80" y="-131.5" font-family="Helvetica,sans-Serif" font-size="10.00"> HistFac</text>
</g>
<!-- Node5 -->
<g id="node4" class="node"><title>Node5</title>
<g id="a_node4"><a xlink:href="structant_1_1analysis_1_1physics_1_1_p_i_d_efficiency_check_1_1_tree__t.html" target="_top" xlink:title="ant::analysis::physics\l::PIDEfficiencyCheck::\lTree_t">
<polygon fill="white" stroke="black" points="133,-68.5 133,-109.5 251,-109.5 251,-68.5 133,-68.5"/>
<text text-anchor="start" x="141" y="-97.5" font-family="Helvetica,sans-Serif" font-size="10.00">ant::analysis::physics</text>
<text text-anchor="start" x="141" y="-86.5" font-family="Helvetica,sans-Serif" font-size="10.00">::PIDEfficiencyCheck::</text>
<text text-anchor="middle" x="192" y="-75.5" font-family="Helvetica,sans-Serif" font-size="10.00">Tree_t</text>
</a>
</g>
</g>
<!-- Node5&#45;&gt;Node2 -->
<g id="edge3" class="edge"><title>Node5&#45;&gt;Node2</title>
<path fill="none" stroke="#9a32cd" stroke-dasharray="5,2" d="M172.136,-59.6753C162.193,-45.4981 150.86,-29.3378 144.076,-19.6646"/>
<polygon fill="#9a32cd" stroke="#9a32cd" points="169.486,-61.9929 178.094,-68.1706 175.217,-57.9736 169.486,-61.9929"/>
<text text-anchor="middle" x="175" y="-41.5" font-family="Helvetica,sans-Serif" font-size="10.00"> tree</text>
</g>
<!-- Node6 -->
<g id="node5" class="node"><title>Node6</title>
<g id="a_node5"><a xlink:href="classant_1_1_wrap_t_tree.html" target="_top" xlink:title="The WrapTTree struct simplifies TTree handling in physics classes. ">
<polygon fill="white" stroke="black" points="149.5,-164.5 149.5,-183.5 234.5,-183.5 234.5,-164.5 149.5,-164.5"/>
<text text-anchor="middle" x="192" y="-171.5" font-family="Helvetica,sans-Serif" font-size="10.00">ant::WrapTTree</text>
</a>
</g>
</g>
<!-- Node6&#45;&gt;Node5 -->
<g id="edge4" class="edge"><title>Node6&#45;&gt;Node5</title>
<path fill="none" stroke="midnightblue" d="M192,-154.116C192,-140.823 192,-123.072 192,-109.619"/>
<polygon fill="midnightblue" stroke="midnightblue" points="188.5,-154.43 192,-164.43 195.5,-154.43 188.5,-154.43"/>
</g>
</g>
</svg>
