<?xml version="1.0" encoding="UTF-8" standalone="no"?>
<!DOCTYPE svg PUBLIC "-//W3C//DTD SVG 1.1//EN"
 "http://www.w3.org/Graphics/SVG/1.1/DTD/svg11.dtd">
<!-- Generated by graphviz version 2.36.0 (20140111.2315)
 -->
<!-- Title: ant::expconfig::detector::EPT Pages: 1 -->
<svg width="734pt" height="161pt"
 viewBox="0.00 0.00 734.00 161.00" xmlns="http://www.w3.org/2000/svg" xmlns:xlink="http://www.w3.org/1999/xlink">
<g id="graph0" class="graph" transform="scale(1 1) rotate(0) translate(4 157)">
<title>ant::expconfig::detector::EPT</title>
<polygon fill="white" stroke="none" points="-4,4 -4,-157 730,-157 730,4 -4,4"/>
<!-- Node5 -->
<g id="node1" class="node"><title>Node5</title>
<polygon fill="#bfbfbf" stroke="black" points="580.5,-77.5 580.5,-96.5 725.5,-96.5 725.5,-77.5 580.5,-77.5"/>
<text text-anchor="middle" x="653" y="-84.5" font-family="Helvetica,sans-Serif" font-size="10.00">ant::expconfig::detector::EPT</text>
</g>
<!-- Node6 -->
<g id="node2" class="node"><title>Node6</title>
<g id="a_node2"><a xlink:href="structant_1_1_tagger_detector__t.html" target="_top" xlink:title="ant::TaggerDetector_t">
<polygon fill="white" stroke="black" points="358,-133.5 358,-152.5 470,-152.5 470,-133.5 358,-133.5"/>
<text text-anchor="middle" x="414" y="-140.5" font-family="Helvetica,sans-Serif" font-size="10.00">ant::TaggerDetector_t</text>
</a>
</g>
</g>
<!-- Node6&#45;&gt;Node5 -->
<g id="edge1" class="edge"><title>Node6&#45;&gt;Node5</title>
<path fill="none" stroke="midnightblue" d="M469.07,-131.26C496.884,-125.12 531.306,-117.365 562,-110 579.721,-105.748 599.333,-100.768 615.714,-96.5317"/>
<polygon fill="midnightblue" stroke="midnightblue" points="468.154,-127.878 459.14,-133.445 469.659,-134.714 468.154,-127.878"/>
</g>
<!-- Node7 -->
<g id="node3" class="node"><title>Node7</title>
<g id="a_node3"><a xlink:href="structant_1_1_detector__t.html" target="_top" xlink:title="The Detector_t struct is the minimal base class for all detectors. ">
<polygon fill="white" stroke="black" points="161,-133.5 161,-152.5 243,-152.5 243,-133.5 161,-133.5"/>
<text text-anchor="middle" x="202" y="-140.5" font-family="Helvetica,sans-Serif" font-size="10.00">ant::Detector_t</text>
</a>
</g>
</g>
<!-- Node7&#45;&gt;Node6 -->
<g id="edge2" class="edge"><title>Node7&#45;&gt;Node6</title>
<path fill="none" stroke="midnightblue" d="M253.797,-143C285.274,-143 325.705,-143 357.945,-143"/>
<polygon fill="midnightblue" stroke="midnightblue" points="253.49,-139.5 243.49,-143 253.49,-146.5 253.49,-139.5"/>
</g>
<!-- Node8 -->
<g id="node4" class="node"><title>Node8</title>
<g id="a_node4"><a xlink:href="classant_1_1_unpacker_acqu_config.html" target="_top" xlink:title="ant::UnpackerAcquConfig">
<polygon fill="white" stroke="black" points="349.5,-95.5 349.5,-114.5 478.5,-114.5 478.5,-95.5 349.5,-95.5"/>
<text text-anchor="middle" x="414" y="-102.5" font-family="Helvetica,sans-Serif" font-size="10.00">ant::UnpackerAcquConfig</text>
</a>
</g>
</g>
<!-- Node8&#45;&gt;Node5 -->
<g id="edge3" class="edge"><title>Node8&#45;&gt;Node5</title>
<path fill="none" stroke="midnightblue" d="M488.653,-99.4061C517.868,-97.1872 551.349,-94.6444 580.362,-92.4408"/>
<polygon fill="midnightblue" stroke="midnightblue" points="488.218,-95.929 478.512,-100.176 488.748,-102.909 488.218,-95.929"/>
</g>
<!-- Node9 -->
<g id="node5" class="node"><title>Node9</title>
<polygon fill="white" stroke="#bfbfbf" points="342.5,-46 342.5,-76 485.5,-76 485.5,-46 342.5,-46"/>
<text text-anchor="start" x="350.5" y="-64" font-family="Helvetica,sans-Serif" font-size="10.00">std::vector&lt; ant::expconfig</text>
<text text-anchor="middle" x="414" y="-53" font-family="Helvetica,sans-Serif" font-size="10.00">::detector::EPT::Element_t &gt;</text>
</g>
<!-- Node9&#45;&gt;Node5 -->
<g id="edge4" class="edge"><title>Node9&#45;&gt;Node5</title>
<path fill="none" stroke="#9a32cd" stroke-dasharray="5,2" d="M495.75,-69.8586C523.198,-72.8698 553.662,-76.2119 580.349,-79.1396"/>
<polygon fill="#9a32cd" stroke="#9a32cd" points="496.109,-66.3771 485.787,-68.7656 495.345,-73.3354 496.109,-66.3771"/>
<text text-anchor="middle" x="533" y="-81" font-family="Helvetica,sans-Serif" font-size="10.00"> elements</text>
</g>
<!-- Node10 -->
<g id="node6" class="node"><title>Node10</title>
<g id="a_node6"><a xlink:href="structant_1_1expconfig_1_1detector_1_1_e_p_t_1_1_element__t.html" target="_top" xlink:title="ant::expconfig::detector\l::EPT::Element_t">
<polygon fill="white" stroke="black" points="142.5,-49 142.5,-79 261.5,-79 261.5,-49 142.5,-49"/>
<text text-anchor="start" x="150.5" y="-67" font-family="Helvetica,sans-Serif" font-size="10.00">ant::expconfig::detector</text>
<text text-anchor="middle" x="202" y="-56" font-family="Helvetica,sans-Serif" font-size="10.00">::EPT::Element_t</text>
</a>
</g>
</g>
<!-- Node10&#45;&gt;Node9 -->
<g id="edge5" class="edge"><title>Node10&#45;&gt;Node9</title>
<path fill="none" stroke="#9a32cd" stroke-dasharray="5,2" d="M271.949,-63.015C294.515,-62.6926 319.609,-62.3342 342.303,-62.01"/>
<polygon fill="#9a32cd" stroke="#9a32cd" points="271.725,-59.5178 261.776,-63.1603 271.825,-66.517 271.725,-59.5178"/>
<text text-anchor="middle" x="302" y="-66" font-family="Helvetica,sans-Serif" font-size="10.00"> elements</text>
</g>
<!-- Node11 -->
<g id="node7" class="node"><title>Node11</title>
<g id="a_node7"><a xlink:href="structant_1_1_tagger_detector__t_1_1_element__t.html" target="_top" xlink:title="ant::TaggerDetector\l_t::Element_t">
<polygon fill="white" stroke="black" points="0,-49 0,-79 104,-79 104,-49 0,-49"/>
<text text-anchor="start" x="8" y="-67" font-family="Helvetica,sans-Serif" font-size="10.00">ant::TaggerDetector</text>
<text text-anchor="middle" x="52" y="-56" font-family="Helvetica,sans-Serif" font-size="10.00">_t::Element_t</text>
</a>
</g>
</g>
<!-- Node11&#45;&gt;Node10 -->
<g id="edge6" class="edge"><title>Node11&#45;&gt;Node10</title>
<path fill="none" stroke="midnightblue" d="M114.59,-64C123.789,-64 133.251,-64 142.386,-64"/>
<polygon fill="midnightblue" stroke="midnightblue" points="114.348,-60.5001 104.348,-64 114.348,-67.5001 114.348,-60.5001"/>
</g>
<!-- Node12 -->
<g id="node8" class="node"><title>Node12</title>
<g id="a_node8"><a xlink:title="STL class. ">
<polygon fill="white" stroke="#bfbfbf" points="384,-6.5 384,-25.5 444,-25.5 444,-6.5 384,-6.5"/>
<text text-anchor="middle" x="414" y="-13.5" font-family="Helvetica,sans-Serif" font-size="10.00">std::string</text>
</a>
</g>
</g>
<!-- Node12&#45;&gt;Node5 -->
<g id="edge7" class="edge"><title>Node12&#45;&gt;Node5</title>
<path fill="none" stroke="#9a32cd" stroke-dasharray="5,2" d="M454.154,-25.9025C483.888,-33.6038 525.708,-44.8255 562,-56 583.638,-62.6625 607.892,-71.0722 625.765,-77.451"/>
<polygon fill="#9a32cd" stroke="#9a32cd" points="454.727,-22.4359 444.17,-23.3312 452.982,-29.2147 454.727,-22.4359"/>
<text text-anchor="middle" x="533" y="-59" font-family="Helvetica,sans-Serif" font-size="10.00"> ScalerName</text>
</g>
<!-- Node13 -->
<g id="node9" class="node"><title>Node13</title>
<g id="a_node9"><a xlink:title="STL class. ">
<polygon fill="white" stroke="#bfbfbf" points="154.5,-0 154.5,-30 249.5,-30 249.5,-0 154.5,-0"/>
<text text-anchor="start" x="162.5" y="-18" font-family="Helvetica,sans-Serif" font-size="10.00">std::basic_string&lt;</text>
<text text-anchor="middle" x="202" y="-7" font-family="Helvetica,sans-Serif" font-size="10.00"> char &gt;</text>
</a>
</g>
</g>
<!-- Node13&#45;&gt;Node12 -->
<g id="edge8" class="edge"><title>Node13&#45;&gt;Node12</title>
<path fill="none" stroke="midnightblue" d="M259.791,-15.2704C299.918,-15.4615 352.043,-15.7097 383.98,-15.8618"/>
<polygon fill="midnightblue" stroke="midnightblue" points="259.622,-11.7697 249.606,-15.2219 259.589,-18.7696 259.622,-11.7697"/>
</g>
</g>
</svg>
