<?xml version="1.0" encoding="UTF-8" standalone="no"?>
<!DOCTYPE svg PUBLIC "-//W3C//DTD SVG 1.1//EN"
 "http://www.w3.org/Graphics/SVG/1.1/DTD/svg11.dtd">
<!-- Generated by graphviz version 2.36.0 (20140111.2315)
 -->
<!-- Title: canvas_tester Pages: 1 -->
<svg width="333pt" height="552pt"
 viewBox="0.00 0.00 333.00 552.00" xmlns="http://www.w3.org/2000/svg" xmlns:xlink="http://www.w3.org/1999/xlink">
<g id="graph0" class="graph" transform="scale(1 1) rotate(0) translate(4 548)">
<title>canvas_tester</title>
<polygon fill="white" stroke="none" points="-4,4 -4,-548 329,-548 329,4 -4,4"/>
<!-- Node2 -->
<g id="node1" class="node"><title>Node2</title>
<polygon fill="#bfbfbf" stroke="black" points="90,-0.5 90,-19.5 168,-19.5 168,-0.5 90,-0.5"/>
<text text-anchor="middle" x="129" y="-7.5" font-family="Helvetica,sans-Serif" font-size="10.00">canvas_tester</text>
</g>
<!-- Node3 -->
<g id="node2" class="node"><title>Node3</title>
<g id="a_node2"><a xlink:href="classant_1_1canvas.html" target="_top" xlink:title="The canvas class. ">
<polygon fill="white" stroke="black" points="95,-58.5 95,-77.5 163,-77.5 163,-58.5 95,-58.5"/>
<text text-anchor="middle" x="129" y="-65.5" font-family="Helvetica,sans-Serif" font-size="10.00">ant::canvas</text>
</a>
</g>
</g>
<!-- Node3&#45;&gt;Node2 -->
<g id="edge1" class="edge"><title>Node3&#45;&gt;Node2</title>
<path fill="none" stroke="midnightblue" d="M129,-47.953C129,-38.2875 129,-27.0312 129,-19.5052"/>
<polygon fill="midnightblue" stroke="midnightblue" points="125.5,-48.25 129,-58.25 132.5,-48.25 125.5,-48.25"/>
</g>
<!-- Node4 -->
<g id="node3" class="node"><title>Node4</title>
<polygon fill="white" stroke="#bfbfbf" points="63.5,-312.5 63.5,-331.5 188.5,-331.5 188.5,-312.5 63.5,-312.5"/>
<text text-anchor="middle" x="126" y="-319.5" font-family="Helvetica,sans-Serif" font-size="10.00">std::list&lt; padmodifier_t &gt;</text>
</g>
<!-- Node4&#45;&gt;Node3 -->
<g id="edge2" class="edge"><title>Node4&#45;&gt;Node3</title>
<path fill="none" stroke="#9a32cd" stroke-dasharray="5,2" d="M126.224,-302.154C126.828,-251.449 128.47,-113.54 128.897,-77.6379"/>
<polygon fill="#9a32cd" stroke="#9a32cd" points="122.723,-302.285 126.103,-312.326 129.722,-302.368 122.723,-302.285"/>
<text text-anchor="middle" x="173.5" y="-190" font-family="Helvetica,sans-Serif" font-size="10.00"> onetime_padoptions</text>
<text text-anchor="middle" x="173.5" y="-179" font-family="Helvetica,sans-Serif" font-size="10.00">global_padoptions</text>
</g>
<!-- Node6 -->
<g id="node5" class="node"><title>Node6</title>
<g id="a_node5"><a xlink:href="structant_1_1canvas_1_1pad__t.html" target="_top" xlink:title="ant::canvas::pad_t">
<polygon fill="white" stroke="black" points="194,-216.5 194,-235.5 292,-235.5 292,-216.5 194,-216.5"/>
<text text-anchor="middle" x="243" y="-223.5" font-family="Helvetica,sans-Serif" font-size="10.00">ant::canvas::pad_t</text>
</a>
</g>
</g>
<!-- Node4&#45;&gt;Node6 -->
<g id="edge5" class="edge"><title>Node4&#45;&gt;Node6</title>
<path fill="none" stroke="#9a32cd" stroke-dasharray="5,2" d="M139.304,-304.146C151.407,-289.583 170.336,-268.633 190,-254 199.941,-246.602 212.208,-240.207 222.436,-235.5"/>
<polygon fill="#9a32cd" stroke="#9a32cd" points="136.29,-302.305 132.705,-312.275 141.725,-306.717 136.29,-302.305"/>
<text text-anchor="middle" x="217.5" y="-268.5" font-family="Helvetica,sans-Serif" font-size="10.00"> PadOptions</text>
</g>
<!-- Node5 -->
<g id="node4" class="node"><title>Node5</title>
<polygon fill="white" stroke="#bfbfbf" points="172.5,-127 172.5,-157 281.5,-157 281.5,-127 172.5,-127"/>
<text text-anchor="start" x="180.5" y="-145" font-family="Helvetica,sans-Serif" font-size="10.00">std::list&lt; ant::canvas</text>
<text text-anchor="middle" x="227" y="-134" font-family="Helvetica,sans-Serif" font-size="10.00">::pad_t &gt;</text>
</g>
<!-- Node5&#45;&gt;Node3 -->
<g id="edge3" class="edge"><title>Node5&#45;&gt;Node3</title>
<path fill="none" stroke="#9a32cd" stroke-dasharray="5,2" d="M199.444,-120.755C180.04,-106.499 155.047,-88.1365 140.643,-77.5543"/>
<polygon fill="#9a32cd" stroke="#9a32cd" points="197.507,-123.675 207.638,-126.775 201.652,-118.034 197.507,-123.675"/>
<text text-anchor="middle" x="193.5" y="-99.5" font-family="Helvetica,sans-Serif" font-size="10.00"> pads</text>
</g>
<!-- Node6&#45;&gt;Node5 -->
<g id="edge4" class="edge"><title>Node6&#45;&gt;Node5</title>
<path fill="none" stroke="#9a32cd" stroke-dasharray="5,2" d="M239.315,-206.114C236.405,-191.201 232.409,-170.72 229.768,-157.184"/>
<polygon fill="#9a32cd" stroke="#9a32cd" points="235.937,-207.08 241.288,-216.225 242.808,-205.739 235.937,-207.08"/>
<text text-anchor="middle" x="259.5" y="-184.5" font-family="Helvetica,sans-Serif" font-size="10.00"> elements</text>
</g>
<!-- Node7 -->
<g id="node6" class="node"><title>Node7</title>
<polygon fill="white" stroke="#bfbfbf" points="206.5,-307 206.5,-337 315.5,-337 315.5,-307 206.5,-307"/>
<text text-anchor="start" x="214.5" y="-325" font-family="Helvetica,sans-Serif" font-size="10.00">std::list&lt; ant::canvas</text>
<text text-anchor="middle" x="261" y="-314" font-family="Helvetica,sans-Serif" font-size="10.00">::DrawableItem &gt;</text>
</g>
<!-- Node7&#45;&gt;Node6 -->
<g id="edge6" class="edge"><title>Node7&#45;&gt;Node6</title>
<path fill="none" stroke="#9a32cd" stroke-dasharray="5,2" d="M256.36,-296.767C252.532,-276.777 247.316,-249.541 244.677,-235.759"/>
<polygon fill="#9a32cd" stroke="#9a32cd" points="252.948,-297.56 258.266,-306.723 259.823,-296.244 252.948,-297.56"/>
<text text-anchor="middle" x="290" y="-268.5" font-family="Helvetica,sans-Serif" font-size="10.00"> DrawableItems</text>
</g>
<!-- Node8 -->
<g id="node7" class="node"><title>Node8</title>
<g id="a_node7"><a xlink:href="structant_1_1canvas_1_1_drawable_item.html" target="_top" xlink:title="ant::canvas::DrawableItem">
<polygon fill="white" stroke="black" points="128,-386.5 128,-405.5 262,-405.5 262,-386.5 128,-386.5"/>
<text text-anchor="middle" x="195" y="-393.5" font-family="Helvetica,sans-Serif" font-size="10.00">ant::canvas::DrawableItem</text>
</a>
</g>
</g>
<!-- Node8&#45;&gt;Node7 -->
<g id="edge7" class="edge"><title>Node8&#45;&gt;Node7</title>
<path fill="none" stroke="#9a32cd" stroke-dasharray="5,2" d="M209.646,-379.022C221.114,-366.512 236.918,-349.271 247.954,-337.232"/>
<polygon fill="#9a32cd" stroke="#9a32cd" points="207.007,-376.721 202.83,-386.458 212.168,-381.451 207.007,-376.721"/>
<text text-anchor="middle" x="251.5" y="-359.5" font-family="Helvetica,sans-Serif" font-size="10.00"> elements</text>
</g>
<!-- Node9 -->
<g id="node8" class="node"><title>Node9</title>
<g id="a_node8"><a xlink:title="STL class. ">
<polygon fill="white" stroke="#bfbfbf" points="17,-454.5 17,-473.5 77,-473.5 77,-454.5 17,-454.5"/>
<text text-anchor="middle" x="47" y="-461.5" font-family="Helvetica,sans-Serif" font-size="10.00">std::string</text>
</a>
</g>
</g>
<!-- Node9&#45;&gt;Node3 -->
<g id="edge10" class="edge"><title>Node9&#45;&gt;Node3</title>
<path fill="none" stroke="#9a32cd" stroke-dasharray="5,2" d="M40.0345,-444.531C35.7213,-431.454 31,-413.396 31,-397 31,-397 31,-397 31,-141 31,-107.221 69.2812,-87.5404 97.9922,-77.5306"/>
<polygon fill="#9a32cd" stroke="#9a32cd" points="36.8182,-445.934 43.4491,-454.197 43.4186,-443.603 36.8182,-445.934"/>
<text text-anchor="middle" x="72.5" y="-279.5" font-family="Helvetica,sans-Serif" font-size="10.00"> title</text>
<text text-anchor="middle" x="72.5" y="-268.5" font-family="Helvetica,sans-Serif" font-size="10.00">name</text>
<text text-anchor="middle" x="72.5" y="-257.5" font-family="Helvetica,sans-Serif" font-size="10.00">current_drawoption</text>
</g>
<!-- Node9&#45;&gt;Node8 -->
<g id="edge8" class="edge"><title>Node9&#45;&gt;Node8</title>
<path fill="none" stroke="#9a32cd" stroke-dasharray="5,2" d="M75.6889,-450.206C105.141,-437.072 150.161,-416.996 175.647,-405.63"/>
<polygon fill="#9a32cd" stroke="#9a32cd" points="74.0559,-447.102 66.3484,-454.372 76.907,-453.495 74.0559,-447.102"/>
<text text-anchor="middle" x="151" y="-427.5" font-family="Helvetica,sans-Serif" font-size="10.00"> Option</text>
</g>
<!-- Node10 -->
<g id="node9" class="node"><title>Node10</title>
<g id="a_node9"><a xlink:title="STL class. ">
<polygon fill="white" stroke="#bfbfbf" points="-0.5,-513 -0.5,-543 94.5,-543 94.5,-513 -0.5,-513"/>
<text text-anchor="start" x="7.5" y="-531" font-family="Helvetica,sans-Serif" font-size="10.00">std::basic_string&lt;</text>
<text text-anchor="middle" x="47" y="-520" font-family="Helvetica,sans-Serif" font-size="10.00"> char &gt;</text>
</a>
</g>
</g>
<!-- Node10&#45;&gt;Node9 -->
<g id="edge9" class="edge"><title>Node10&#45;&gt;Node9</title>
<path fill="none" stroke="midnightblue" d="M47,-502.871C47,-492.663 47,-481.408 47,-473.842"/>
<polygon fill="midnightblue" stroke="midnightblue" points="43.5001,-502.931 47,-512.931 50.5001,-502.931 43.5001,-502.931"/>
</g>
</g>
</svg>
