<?xml version="1.0" encoding="UTF-8" standalone="no"?>
<!DOCTYPE svg PUBLIC "-//W3C//DTD SVG 1.1//EN"
 "http://www.w3.org/Graphics/SVG/1.1/DTD/svg11.dtd">
<!-- Generated by graphviz version 2.36.0 (20140111.2315)
 -->
<!-- Title: ant::expconfig::detector::PID Pages: 1 -->
<svg width="474pt" height="283pt"
 viewBox="0.00 0.00 474.00 283.00" xmlns="http://www.w3.org/2000/svg" xmlns:xlink="http://www.w3.org/1999/xlink">
<g id="graph0" class="graph" transform="scale(1 1) rotate(0) translate(4 279)">
<title>ant::expconfig::detector::PID</title>
<polygon fill="white" stroke="none" points="-4,4 -4,-279 470,-279 470,4 -4,4"/>
<!-- Node0 -->
<g id="node1" class="node"><title>Node0</title>
<polygon fill="#bfbfbf" stroke="black" points="166.5,-127.5 166.5,-146.5 309.5,-146.5 309.5,-127.5 166.5,-127.5"/>
<text text-anchor="middle" x="238" y="-134.5" font-family="Helvetica,sans-Serif" font-size="10.00">ant::expconfig::detector::PID</text>
</g>
<!-- Node3 -->
<g id="node4" class="node"><title>Node3</title>
<g id="a_node4"><a xlink:href="structant_1_1expconfig_1_1detector_1_1_p_i_d__2004.html" target="_top" xlink:title="ant::expconfig::detector\l::PID_2004">
<polygon fill="white" stroke="black" points="346.5,-245 346.5,-275 465.5,-275 465.5,-245 346.5,-245"/>
<text text-anchor="start" x="354.5" y="-263" font-family="Helvetica,sans-Serif" font-size="10.00">ant::expconfig::detector</text>
<text text-anchor="middle" x="406" y="-252" font-family="Helvetica,sans-Serif" font-size="10.00">::PID_2004</text>
</a>
</g>
</g>
<!-- Node0&#45;&gt;Node3 -->
<g id="edge3" class="edge"><title>Node0&#45;&gt;Node3</title>
<path fill="none" stroke="midnightblue" d="M254.177,-154.109C273.716,-175.327 309.518,-211.557 346,-235 351.709,-238.669 358.047,-242.008 364.39,-244.968"/>
<polygon fill="midnightblue" stroke="midnightblue" points="256.602,-151.574 247.292,-146.518 251.417,-156.276 256.602,-151.574"/>
</g>
<!-- Node4 -->
<g id="node5" class="node"><title>Node4</title>
<g id="a_node5"><a xlink:href="structant_1_1expconfig_1_1detector_1_1_p_i_d__2007.html" target="_top" xlink:title="ant::expconfig::detector\l::PID_2007">
<polygon fill="white" stroke="black" points="346.5,-196 346.5,-226 465.5,-226 465.5,-196 346.5,-196"/>
<text text-anchor="start" x="354.5" y="-214" font-family="Helvetica,sans-Serif" font-size="10.00">ant::expconfig::detector</text>
<text text-anchor="middle" x="406" y="-203" font-family="Helvetica,sans-Serif" font-size="10.00">::PID_2007</text>
</a>
</g>
</g>
<!-- Node0&#45;&gt;Node4 -->
<g id="edge4" class="edge"><title>Node0&#45;&gt;Node4</title>
<path fill="none" stroke="midnightblue" d="M268.654,-150.856C290.074,-160.797 319.735,-174.424 346,-186 353.431,-189.275 361.422,-192.715 369.049,-195.96"/>
<polygon fill="midnightblue" stroke="midnightblue" points="269.977,-147.612 259.434,-146.569 267.026,-153.959 269.977,-147.612"/>
</g>
<!-- Node5 -->
<g id="node6" class="node"><title>Node5</title>
<g id="a_node6"><a xlink:href="structant_1_1expconfig_1_1detector_1_1_p_i_d__2009__05.html" target="_top" xlink:title="ant::expconfig::detector\l::PID_2009_05">
<polygon fill="white" stroke="black" points="346.5,-147 346.5,-177 465.5,-177 465.5,-147 346.5,-147"/>
<text text-anchor="start" x="354.5" y="-165" font-family="Helvetica,sans-Serif" font-size="10.00">ant::expconfig::detector</text>
<text text-anchor="middle" x="406" y="-154" font-family="Helvetica,sans-Serif" font-size="10.00">::PID_2009_05</text>
</a>
</g>
</g>
<!-- Node0&#45;&gt;Node5 -->
<g id="edge5" class="edge"><title>Node0&#45;&gt;Node5</title>
<path fill="none" stroke="midnightblue" d="M312.18,-148.021C323.599,-149.741 335.271,-151.499 346.312,-153.161"/>
<polygon fill="midnightblue" stroke="midnightblue" points="312.641,-144.551 302.231,-146.523 311.598,-151.473 312.641,-144.551"/>
</g>
<!-- Node6 -->
<g id="node7" class="node"><title>Node6</title>
<g id="a_node7"><a xlink:href="structant_1_1expconfig_1_1detector_1_1_p_i_d__2009__06.html" target="_top" xlink:title="ant::expconfig::detector\l::PID_2009_06">
<polygon fill="white" stroke="black" points="346.5,-98 346.5,-128 465.5,-128 465.5,-98 346.5,-98"/>
<text text-anchor="start" x="354.5" y="-116" font-family="Helvetica,sans-Serif" font-size="10.00">ant::expconfig::detector</text>
<text text-anchor="middle" x="406" y="-105" font-family="Helvetica,sans-Serif" font-size="10.00">::PID_2009_06</text>
</a>
</g>
</g>
<!-- Node0&#45;&gt;Node6 -->
<g id="edge6" class="edge"><title>Node0&#45;&gt;Node6</title>
<path fill="none" stroke="midnightblue" d="M315.094,-125.998C325.605,-124.479 336.264,-122.938 346.392,-121.474"/>
<polygon fill="midnightblue" stroke="midnightblue" points="314.481,-122.551 305.085,-127.446 315.483,-129.479 314.481,-122.551"/>
</g>
<!-- Node7 -->
<g id="node8" class="node"><title>Node7</title>
<g id="a_node8"><a xlink:href="structant_1_1expconfig_1_1detector_1_1_p_i_d__2009__07.html" target="_top" xlink:title="ant::expconfig::detector\l::PID_2009_07">
<polygon fill="white" stroke="black" points="346.5,-49 346.5,-79 465.5,-79 465.5,-49 346.5,-49"/>
<text text-anchor="start" x="354.5" y="-67" font-family="Helvetica,sans-Serif" font-size="10.00">ant::expconfig::detector</text>
<text text-anchor="middle" x="406" y="-56" font-family="Helvetica,sans-Serif" font-size="10.00">::PID_2009_07</text>
</a>
</g>
</g>
<!-- Node0&#45;&gt;Node7 -->
<g id="edge7" class="edge"><title>Node0&#45;&gt;Node7</title>
<path fill="none" stroke="midnightblue" d="M268.603,-123.028C289.999,-113.031 319.652,-99.3858 346,-88 352.801,-85.0611 360.084,-82.0166 367.13,-79.1231"/>
<polygon fill="midnightblue" stroke="midnightblue" points="266.965,-119.93 259.395,-127.343 269.936,-126.269 266.965,-119.93"/>
</g>
<!-- Node8 -->
<g id="node9" class="node"><title>Node8</title>
<g id="a_node9"><a xlink:href="structant_1_1expconfig_1_1detector_1_1_p_i_d__2014.html" target="_top" xlink:title="ant::expconfig::detector\l::PID_2014">
<polygon fill="white" stroke="black" points="346.5,-0 346.5,-30 465.5,-30 465.5,-0 346.5,-0"/>
<text text-anchor="start" x="354.5" y="-18" font-family="Helvetica,sans-Serif" font-size="10.00">ant::expconfig::detector</text>
<text text-anchor="middle" x="406" y="-7" font-family="Helvetica,sans-Serif" font-size="10.00">::PID_2014</text>
</a>
</g>
</g>
<!-- Node0&#45;&gt;Node8 -->
<g id="edge8" class="edge"><title>Node0&#45;&gt;Node8</title>
<path fill="none" stroke="midnightblue" d="M254.122,-119.806C273.606,-98.4995 309.35,-62.179 346,-39 351.14,-35.7491 356.795,-32.7873 362.506,-30.1404"/>
<polygon fill="midnightblue" stroke="midnightblue" points="251.348,-117.657 247.259,-127.431 256.55,-122.34 251.348,-117.657"/>
</g>
<!-- Node1 -->
<g id="node2" class="node"><title>Node1</title>
<g id="a_node2"><a xlink:href="structant_1_1_detector__t.html" target="_top" xlink:title="The Detector_t struct is the minimal base class for all detectors. ">
<polygon fill="white" stroke="black" points="24,-146.5 24,-165.5 106,-165.5 106,-146.5 24,-146.5"/>
<text text-anchor="middle" x="65" y="-153.5" font-family="Helvetica,sans-Serif" font-size="10.00">ant::Detector_t</text>
</a>
</g>
</g>
<!-- Node1&#45;&gt;Node0 -->
<g id="edge1" class="edge"><title>Node1&#45;&gt;Node0</title>
<path fill="none" stroke="midnightblue" d="M116.113,-150.432C131.831,-148.685 149.486,-146.724 166.347,-144.85"/>
<polygon fill="midnightblue" stroke="midnightblue" points="115.644,-146.962 106.092,-151.545 116.417,-153.92 115.644,-146.962"/>
</g>
<!-- Node2 -->
<g id="node3" class="node"><title>Node2</title>
<g id="a_node3"><a xlink:href="classant_1_1_unpacker_acqu_config.html" target="_top" xlink:title="ant::UnpackerAcquConfig">
<polygon fill="white" stroke="black" points="0.5,-108.5 0.5,-127.5 129.5,-127.5 129.5,-108.5 0.5,-108.5"/>
<text text-anchor="middle" x="65" y="-115.5" font-family="Helvetica,sans-Serif" font-size="10.00">ant::UnpackerAcquConfig</text>
</a>
</g>
</g>
<!-- Node2&#45;&gt;Node0 -->
<g id="edge2" class="edge"><title>Node2&#45;&gt;Node0</title>
<path fill="none" stroke="midnightblue" d="M139.891,-126.21C148.68,-127.187 157.635,-128.182 166.376,-129.153"/>
<polygon fill="midnightblue" stroke="midnightblue" points="139.999,-122.701 129.674,-125.075 139.226,-129.658 139.999,-122.701"/>
</g>
</g>
</svg>
