<?xml version="1.0" encoding="UTF-8" standalone="no"?>
<!DOCTYPE svg PUBLIC "-//W3C//DTD SVG 1.1//EN"
 "http://www.w3.org/Graphics/SVG/1.1/DTD/svg11.dtd">
<!-- Generated by graphviz version 2.36.0 (20140111.2315)
 -->
<!-- Title: Hist_t&lt; Tree_t &gt;::Fill_t Pages: 1 -->
<svg width="126pt" height="176pt"
 viewBox="0.00 0.00 126.00 176.00" xmlns="http://www.w3.org/2000/svg" xmlns:xlink="http://www.w3.org/1999/xlink">
<g id="graph0" class="graph" transform="scale(1 1) rotate(0) translate(4 172)">
<title>Hist_t&lt; Tree_t &gt;::Fill_t</title>
<polygon fill="white" stroke="none" points="-4,4 -4,-172 122,-172 122,4 -4,4"/>
<!-- Node1 -->
<g id="node1" class="node"><title>Node1</title>
<polygon fill="#bfbfbf" stroke="black" points="1,-0.5 1,-19.5 117,-19.5 117,-0.5 1,-0.5"/>
<text text-anchor="middle" x="59" y="-7.5" font-family="Helvetica,sans-Serif" font-size="10.00">Hist_t&lt; Tree_t &gt;::Fill_t</text>
</g>
<!-- Node2 -->
<g id="node2" class="node"><title>Node2</title>
<g id="a_node2"><a xlink:href="structant_1_1analysis_1_1physics_1_1_p_i_d_efficiency_check_1_1_tree__t.html" target="_top" xlink:title="ant::analysis::physics\l::PIDEfficiencyCheck::\lTree_t">
<polygon fill="white" stroke="black" points="0,-68.5 0,-109.5 118,-109.5 118,-68.5 0,-68.5"/>
<text text-anchor="start" x="8" y="-97.5" font-family="Helvetica,sans-Serif" font-size="10.00">ant::analysis::physics</text>
<text text-anchor="start" x="8" y="-86.5" font-family="Helvetica,sans-Serif" font-size="10.00">::PIDEfficiencyCheck::</text>
<text text-anchor="middle" x="59" y="-75.5" font-family="Helvetica,sans-Serif" font-size="10.00">Tree_t</text>
</a>
</g>
</g>
<!-- Node2&#45;&gt;Node1 -->
<g id="edge1" class="edge"><title>Node2&#45;&gt;Node1</title>
<path fill="none" stroke="#9a32cd" stroke-dasharray="5,2" d="M59,-58.0623C59,-44.2877 59,-28.9727 59,-19.6646"/>
<polygon fill="#9a32cd" stroke="#9a32cd" points="55.5001,-58.1706 59,-68.1706 62.5001,-58.1706 55.5001,-58.1706"/>
<text text-anchor="middle" x="70.5" y="-41.5" font-family="Helvetica,sans-Serif" font-size="10.00"> Tree</text>
</g>
<!-- Node3 -->
<g id="node3" class="node"><title>Node3</title>
<g id="a_node3"><a xlink:href="classant_1_1_wrap_t_tree.html" target="_top" xlink:title="The WrapTTree struct simplifies TTree handling in physics classes. ">
<polygon fill="white" stroke="black" points="16.5,-148.5 16.5,-167.5 101.5,-167.5 101.5,-148.5 16.5,-148.5"/>
<text text-anchor="middle" x="59" y="-155.5" font-family="Helvetica,sans-Serif" font-size="10.00">ant::WrapTTree</text>
</a>
</g>
</g>
<!-- Node3&#45;&gt;Node2 -->
<g id="edge2" class="edge"><title>Node3&#45;&gt;Node2</title>
<path fill="none" stroke="midnightblue" d="M59,-138.174C59,-129.308 59,-118.734 59,-109.754"/>
<polygon fill="midnightblue" stroke="midnightblue" points="55.5001,-138.241 59,-148.241 62.5001,-138.241 55.5001,-138.241"/>
</g>
</g>
</svg>
