<?xml version="1.0" encoding="UTF-8" standalone="no"?>
<!DOCTYPE svg PUBLIC "-//W3C//DTD SVG 1.1//EN"
 "http://www.w3.org/Graphics/SVG/1.1/DTD/svg11.dtd">
<!-- Generated by graphviz version 2.36.0 (20140111.2315)
 -->
<!-- Title: ant::analysis::physics::EtapOmegaG::params_t Pages: 1 -->
<svg width="1088pt" height="231pt"
 viewBox="0.00 0.00 1088.00 231.00" xmlns="http://www.w3.org/2000/svg" xmlns:xlink="http://www.w3.org/1999/xlink">
<g id="graph0" class="graph" transform="scale(1 1) rotate(0) translate(4 227)">
<title>ant::analysis::physics::EtapOmegaG::params_t</title>
<polygon fill="white" stroke="none" points="-4,4 -4,-227 1084,-227 1084,4 -4,4"/>
<!-- Node1 -->
<g id="node1" class="node"><title>Node1</title>
<polygon fill="#bfbfbf" stroke="black" points="952,-93 952,-123 1080,-123 1080,-93 952,-93"/>
<text text-anchor="start" x="960" y="-111" font-family="Helvetica,sans-Serif" font-size="10.00">ant::analysis::physics</text>
<text text-anchor="middle" x="1016" y="-100" font-family="Helvetica,sans-Serif" font-size="10.00">::EtapOmegaG::params_t</text>
</g>
<!-- Node2 -->
<g id="node2" class="node"><title>Node2</title>
<g id="a_node2"><a xlink:href="structant_1_1analysis_1_1utils_1_1_proton_photon_combs_1_1_combinations__t.html" target="_top" xlink:title="The Combinations_t struct manages the available proton/photon combinations as a whole. ">
<polygon fill="white" stroke="black" points="596.5,-175.5 596.5,-216.5 715.5,-216.5 715.5,-175.5 596.5,-175.5"/>
<text text-anchor="start" x="604.5" y="-204.5" font-family="Helvetica,sans-Serif" font-size="10.00">ant::analysis::utils</text>
<text text-anchor="start" x="604.5" y="-193.5" font-family="Helvetica,sans-Serif" font-size="10.00">::ProtonPhotonCombs::</text>
<text text-anchor="middle" x="656" y="-182.5" font-family="Helvetica,sans-Serif" font-size="10.00">Combinations_t</text>
</a>
</g>
</g>
<!-- Node2&#45;&gt;Node1 -->
<g id="edge1" class="edge"><title>Node2&#45;&gt;Node1</title>
<path fill="none" stroke="#9a32cd" stroke-dasharray="5,2" d="M725.612,-179.135C791.618,-162.91 890.476,-138.609 953.854,-123.03"/>
<polygon fill="#9a32cd" stroke="#9a32cd" points="724.591,-175.781 715.716,-181.567 726.262,-182.579 724.591,-175.781"/>
<text text-anchor="middle" x="797" y="-179" font-family="Helvetica,sans-Serif" font-size="10.00"> Particles</text>
</g>
<!-- Node3 -->
<g id="node3" class="node"><title>Node3</title>
<g id="a_node3"><a xlink:title="STL class. ">
<polygon fill="white" stroke="#bfbfbf" points="332.5,-203.5 332.5,-222.5 431.5,-222.5 431.5,-203.5 332.5,-203.5"/>
<text text-anchor="middle" x="382" y="-210.5" font-family="Helvetica,sans-Serif" font-size="10.00">std::list&lt; comb_t &gt;</text>
</a>
</g>
</g>
<!-- Node3&#45;&gt;Node2 -->
<g id="edge2" class="edge"><title>Node3&#45;&gt;Node2</title>
<path fill="none" stroke="midnightblue" d="M441.692,-209.332C487.438,-206.473 550.656,-202.521 596.383,-199.664"/>
<polygon fill="midnightblue" stroke="midnightblue" points="441.39,-205.844 431.628,-209.961 441.827,-212.83 441.39,-205.844"/>
</g>
<!-- Node4 -->
<g id="node4" class="node"><title>Node4</title>
<polygon fill="white" stroke="#bfbfbf" points="33.5,-177.5 33.5,-196.5 62.5,-196.5 62.5,-177.5 33.5,-177.5"/>
<text text-anchor="middle" x="48" y="-184.5" font-family="Helvetica,sans-Serif" font-size="10.00">T</text>
</g>
<!-- Node4&#45;&gt;Node3 -->
<g id="edge3" class="edge"><title>Node4&#45;&gt;Node3</title>
<path fill="none" stroke="#9a32cd" stroke-dasharray="5,2" d="M72.8605,-188.869C126.982,-193.107 259.953,-203.52 332.262,-209.183"/>
<polygon fill="#9a32cd" stroke="#9a32cd" points="73.0857,-185.376 62.8429,-188.084 72.5391,-192.354 73.0857,-185.376"/>
<text text-anchor="middle" x="137" y="-198" font-family="Helvetica,sans-Serif" font-size="10.00"> elements</text>
</g>
<!-- Node11 -->
<g id="node11" class="node"><title>Node11</title>
<g id="a_node11"><a xlink:href="classant_1_1_tree.html" target="_top" xlink:title="ant::Tree\&lt; T \&gt;">
<polygon fill="white" stroke="black" points="206,-152.5 206,-171.5 286,-171.5 286,-152.5 206,-152.5"/>
<text text-anchor="middle" x="246" y="-159.5" font-family="Helvetica,sans-Serif" font-size="10.00">ant::Tree&lt; T &gt;</text>
</a>
</g>
</g>
<!-- Node4&#45;&gt;Node11 -->
<g id="edge13" class="edge"><title>Node4&#45;&gt;Node11</title>
<path fill="none" stroke="#9a32cd" stroke-dasharray="5,2" d="M72.9072,-183.951C106.032,-179.725 166.286,-172.04 205.981,-166.977"/>
<polygon fill="#9a32cd" stroke="#9a32cd" points="72.2591,-180.505 62.7823,-185.242 73.1448,-187.449 72.2591,-180.505"/>
<text text-anchor="middle" x="137" y="-181" font-family="Helvetica,sans-Serif" font-size="10.00"> data</text>
</g>
<!-- Node5 -->
<g id="node5" class="node"><title>Node5</title>
<g id="a_node5"><a xlink:href="structant_1_1_t_tagger_hit.html" target="_top" xlink:title="ant::TTaggerHit">
<polygon fill="white" stroke="black" points="754.5,-37.5 754.5,-56.5 839.5,-56.5 839.5,-37.5 754.5,-37.5"/>
<text text-anchor="middle" x="797" y="-44.5" font-family="Helvetica,sans-Serif" font-size="10.00">ant::TTaggerHit</text>
</a>
</g>
</g>
<!-- Node5&#45;&gt;Node1 -->
<g id="edge4" class="edge"><title>Node5&#45;&gt;Node1</title>
<path fill="none" stroke="#9a32cd" stroke-dasharray="5,2" d="M841.709,-59.2868C876.257,-68.9986 924.636,-82.598 961.499,-92.9605"/>
<polygon fill="#9a32cd" stroke="#9a32cd" points="842.48,-55.8681 831.906,-56.5312 840.586,-62.6069 842.48,-55.8681"/>
<text text-anchor="middle" x="906" y="-88" font-family="Helvetica,sans-Serif" font-size="10.00"> TaggerHit</text>
</g>
<!-- Node6 -->
<g id="node6" class="node"><title>Node6</title>
<polygon fill="white" stroke="#bfbfbf" points="450,-0 450,-30 578,-30 578,-0 450,-0"/>
<text text-anchor="start" x="458" y="-18" font-family="Helvetica,sans-Serif" font-size="10.00">std::vector&lt; ant::TTagger</text>
<text text-anchor="middle" x="514" y="-7" font-family="Helvetica,sans-Serif" font-size="10.00">Hit::Electron_t &gt;</text>
</g>
<!-- Node6&#45;&gt;Node5 -->
<g id="edge5" class="edge"><title>Node6&#45;&gt;Node5</title>
<path fill="none" stroke="#9a32cd" stroke-dasharray="5,2" d="M588.141,-18.7412C626.357,-21.2212 673.829,-25.1253 716,-31 728.485,-32.7393 741.959,-35.2031 754.224,-37.6774"/>
<polygon fill="#9a32cd" stroke="#9a32cd" points="588.328,-15.2462 578.128,-18.1101 587.888,-22.2323 588.328,-15.2462"/>
<text text-anchor="middle" x="656" y="-34" font-family="Helvetica,sans-Serif" font-size="10.00"> Electrons</text>
</g>
<!-- Node7 -->
<g id="node7" class="node"><title>Node7</title>
<g id="a_node7"><a xlink:href="structant_1_1_t_tagger_hit_1_1_electron__t.html" target="_top" xlink:title="ant::TTaggerHit::Electron_t">
<polygon fill="white" stroke="black" points="178.5,-5.5 178.5,-24.5 313.5,-24.5 313.5,-5.5 178.5,-5.5"/>
<text text-anchor="middle" x="246" y="-12.5" font-family="Helvetica,sans-Serif" font-size="10.00">ant::TTaggerHit::Electron_t</text>
</a>
</g>
</g>
<!-- Node7&#45;&gt;Node6 -->
<g id="edge6" class="edge"><title>Node7&#45;&gt;Node6</title>
<path fill="none" stroke="#9a32cd" stroke-dasharray="5,2" d="M324.011,-15C363.953,-15 412.138,-15 449.856,-15"/>
<polygon fill="#9a32cd" stroke="#9a32cd" points="323.78,-11.5001 313.78,-15 323.78,-18.5001 323.78,-11.5001"/>
<text text-anchor="middle" x="382" y="-18" font-family="Helvetica,sans-Serif" font-size="10.00"> elements</text>
</g>
<!-- Node8 -->
<g id="node8" class="node"><title>Node8</title>
<g id="a_node8"><a xlink:href="classant_1_1_tree.html" target="_top" xlink:title="ant::Tree\&lt; TParticlePtr \&gt;">
<polygon fill="white" stroke="black" points="734.5,-98.5 734.5,-117.5 859.5,-117.5 859.5,-98.5 734.5,-98.5"/>
<text text-anchor="middle" x="797" y="-105.5" font-family="Helvetica,sans-Serif" font-size="10.00">ant::Tree&lt; TParticlePtr &gt;</text>
</a>
</g>
</g>
<!-- Node8&#45;&gt;Node1 -->
<g id="edge7" class="edge"><title>Node8&#45;&gt;Node1</title>
<path fill="none" stroke="#9a32cd" stroke-dasharray="5,2" d="M869.943,-108C896.386,-108 926.11,-108 951.733,-108"/>
<polygon fill="#9a32cd" stroke="#9a32cd" points="869.603,-104.5 859.603,-108 869.603,-111.5 869.603,-104.5"/>
<text text-anchor="middle" x="906" y="-111" font-family="Helvetica,sans-Serif" font-size="10.00"> ParticleTree</text>
</g>
<!-- Node9 -->
<g id="node9" class="node"><title>Node9</title>
<polygon fill="white" stroke="#bfbfbf" points="0,-123.5 0,-142.5 96,-142.5 96,-123.5 0,-123.5"/>
<text text-anchor="middle" x="48" y="-130.5" font-family="Helvetica,sans-Serif" font-size="10.00">std::list&lt; node_t &gt;</text>
</g>
<!-- Node9&#45;&gt;Node8 -->
<g id="edge8" class="edge"><title>Node9&#45;&gt;Node8</title>
<path fill="none" stroke="#9a32cd" stroke-dasharray="5,2" d="M106.339,-130.327C163.503,-127.719 253.81,-123.753 332,-121 476.162,-115.924 645.575,-111.591 734.446,-109.443"/>
<polygon fill="#9a32cd" stroke="#9a32cd" points="105.891,-126.844 96.0614,-130.797 106.211,-133.836 105.891,-126.844"/>
<text text-anchor="middle" x="382" y="-124" font-family="Helvetica,sans-Serif" font-size="10.00"> daughters</text>
</g>
<!-- Node9&#45;&gt;Node11 -->
<g id="edge11" class="edge"><title>Node9&#45;&gt;Node11</title>
<path fill="none" stroke="#9a32cd" stroke-dasharray="5,2" d="M106.56,-141.517C138.532,-146.247 177.469,-152.008 205.896,-156.214"/>
<polygon fill="#9a32cd" stroke="#9a32cd" points="106.851,-138.022 96.4461,-140.02 105.826,-144.946 106.851,-138.022"/>
<text text-anchor="middle" x="137" y="-153" font-family="Helvetica,sans-Serif" font-size="10.00"> daughters</text>
</g>
<!-- Node10 -->
<g id="node10" class="node"><title>Node10</title>
<polygon fill="white" stroke="#bfbfbf" points="457.5,-136.5 457.5,-155.5 570.5,-155.5 570.5,-136.5 457.5,-136.5"/>
<text text-anchor="middle" x="514" y="-143.5" font-family="Helvetica,sans-Serif" font-size="10.00">std::weak_ptr&lt; Tree &gt;</text>
</g>
<!-- Node10&#45;&gt;Node8 -->
<g id="edge9" class="edge"><title>Node10&#45;&gt;Node8</title>
<path fill="none" stroke="#9a32cd" stroke-dasharray="5,2" d="M580.523,-138.477C619.852,-133.806 670.85,-127.474 716,-121 723.382,-119.941 731.137,-118.764 738.793,-117.562"/>
<polygon fill="#9a32cd" stroke="#9a32cd" points="580.049,-135.009 570.529,-139.658 580.871,-141.96 580.049,-135.009"/>
<text text-anchor="middle" x="656" y="-151" font-family="Helvetica,sans-Serif" font-size="10.00"> parent</text>
<text text-anchor="middle" x="656" y="-140" font-family="Helvetica,sans-Serif" font-size="10.00">self</text>
</g>
<!-- Node10&#45;&gt;Node11 -->
<g id="edge12" class="edge"><title>Node10&#45;&gt;Node11</title>
<path fill="none" stroke="#9a32cd" stroke-dasharray="5,2" d="M446.924,-138.061C412.526,-135.286 369.856,-133.969 332,-139 312.602,-141.578 291.352,-147.328 274.952,-152.434"/>
<polygon fill="#9a32cd" stroke="#9a32cd" points="447.054,-141.585 457.319,-138.963 447.659,-134.611 447.054,-141.585"/>
<text text-anchor="middle" x="382" y="-153" font-family="Helvetica,sans-Serif" font-size="10.00"> parent</text>
<text text-anchor="middle" x="382" y="-142" font-family="Helvetica,sans-Serif" font-size="10.00">self</text>
</g>
<!-- Node11&#45;&gt;Node10 -->
<g id="edge10" class="edge"><title>Node11&#45;&gt;Node10</title>
<path fill="none" stroke="#9a32cd" stroke-dasharray="5,2" d="M296.246,-166.298C333.62,-168.714 386.208,-170.299 432,-165 448.07,-163.14 465.583,-159.271 480.2,-155.507"/>
<polygon fill="#9a32cd" stroke="#9a32cd" points="296.343,-162.797 286.126,-165.6 295.861,-169.78 296.343,-162.797"/>
<text text-anchor="middle" x="382" y="-171" font-family="Helvetica,sans-Serif" font-size="10.00"> ptr</text>
</g>
<!-- Node12 -->
<g id="node12" class="node"><title>Node12</title>
<g id="a_node12"><a xlink:href="structant_1_1std__ext_1_1cc__shared__ptr.html" target="_top" xlink:title="ant::std_ext::cc_shared\l_ptr\&lt; T \&gt;">
<polygon fill="white" stroke="black" points="454.5,-49 454.5,-79 573.5,-79 573.5,-49 454.5,-49"/>
<text text-anchor="start" x="462.5" y="-67" font-family="Helvetica,sans-Serif" font-size="10.00">ant::std_ext::cc_shared</text>
<text text-anchor="middle" x="514" y="-56" font-family="Helvetica,sans-Serif" font-size="10.00">_ptr&lt; T &gt;</text>
</a>
</g>
</g>
<!-- Node12&#45;&gt;Node8 -->
<g id="edge14" class="edge"><title>Node12&#45;&gt;Node8</title>
<path fill="none" stroke="#9a32cd" stroke-dasharray="5,2" d="M583.73,-66.9414C622.802,-69.498 672.47,-74.2409 716,-83 734.402,-86.7029 754.572,-93.022 770.056,-98.3804"/>
<polygon fill="#9a32cd" stroke="#9a32cd" points="583.719,-63.4341 573.521,-66.3071 583.285,-70.4206 583.719,-63.4341"/>
<text text-anchor="middle" x="656" y="-86" font-family="Helvetica,sans-Serif" font-size="10.00"> data</text>
</g>
</g>
</svg>
