<?xml version="1.0" encoding="UTF-8" standalone="no"?>
<!DOCTYPE svg PUBLIC "-//W3C//DTD SVG 1.1//EN"
 "http://www.w3.org/Graphics/SVG/1.1/DTD/svg11.dtd">
<!-- Generated by graphviz version 2.36.0 (20140111.2315)
 -->
<!-- Title: ant::analysis::physics::EtapOmegaG::Ref_t Pages: 1 -->
<svg width="1360pt" height="419pt"
 viewBox="0.00 0.00 1360.00 419.00" xmlns="http://www.w3.org/2000/svg" xmlns:xlink="http://www.w3.org/1999/xlink">
<g id="graph0" class="graph" transform="scale(1 1) rotate(0) translate(4 415)">
<title>ant::analysis::physics::EtapOmegaG::Ref_t</title>
<polygon fill="white" stroke="none" points="-4,4 -4,-415 1356,-415 1356,4 -4,4"/>
<!-- Node1 -->
<g id="node1" class="node"><title>Node1</title>
<polygon fill="#bfbfbf" stroke="black" points="1240,-239 1240,-269 1352,-269 1352,-239 1240,-239"/>
<text text-anchor="start" x="1248" y="-257" font-family="Helvetica,sans-Serif" font-size="10.00">ant::analysis::physics</text>
<text text-anchor="middle" x="1296" y="-246" font-family="Helvetica,sans-Serif" font-size="10.00">::EtapOmegaG::Ref_t</text>
</g>
<!-- Node2 -->
<g id="node2" class="node"><title>Node2</title>
<g id="a_node2"><a xlink:href="classant_1_1analysis_1_1utils_1_1_m_c_weighting.html" target="_top" xlink:title="ant::analysis::utils\l::MCWeighting">
<polygon fill="white" stroke="black" points="981,-239 981,-269 1077,-269 1077,-239 981,-239"/>
<text text-anchor="start" x="989" y="-257" font-family="Helvetica,sans-Serif" font-size="10.00">ant::analysis::utils</text>
<text text-anchor="middle" x="1029" y="-246" font-family="Helvetica,sans-Serif" font-size="10.00">::MCWeighting</text>
</a>
</g>
</g>
<!-- Node2&#45;&gt;Node1 -->
<g id="edge1" class="edge"><title>Node2&#45;&gt;Node1</title>
<path fill="none" stroke="#9a32cd" stroke-dasharray="5,2" d="M1087.29,-254C1132.44,-254 1195.01,-254 1239.66,-254"/>
<polygon fill="#9a32cd" stroke="#9a32cd" points="1087.07,-250.5 1077.07,-254 1087.07,-257.5 1087.07,-250.5"/>
<text text-anchor="middle" x="1171" y="-257" font-family="Helvetica,sans-Serif" font-size="10.00"> mcWeightingEtaPrime</text>
</g>
<!-- Node3 -->
<g id="node3" class="node"><title>Node3</title>
<g id="a_node3"><a xlink:href="structant_1_1analysis_1_1utils_1_1_m_c_weighting_1_1tree__t.html" target="_top" xlink:title="ant::analysis::utils\l::MCWeighting::tree_t">
<polygon fill="white" stroke="black" points="733.5,-332 733.5,-362 846.5,-362 846.5,-332 733.5,-332"/>
<text text-anchor="start" x="741.5" y="-350" font-family="Helvetica,sans-Serif" font-size="10.00">ant::analysis::utils</text>
<text text-anchor="middle" x="790" y="-339" font-family="Helvetica,sans-Serif" font-size="10.00">::MCWeighting::tree_t</text>
</a>
</g>
</g>
<!-- Node3&#45;&gt;Node2 -->
<g id="edge2" class="edge"><title>Node3&#45;&gt;Node2</title>
<path fill="none" stroke="#9a32cd" stroke-dasharray="5,2" d="M856.3,-332.554C882.23,-325.852 912.011,-316.926 938,-306 962.121,-295.86 987.791,-280.524 1005.52,-269.132"/>
<polygon fill="#9a32cd" stroke="#9a32cd" points="855.404,-329.17 846.566,-335.013 857.119,-335.957 855.404,-329.17"/>
<text text-anchor="middle" x="917" y="-324" font-family="Helvetica,sans-Serif" font-size="10.00"> t</text>
</g>
<!-- Node4 -->
<g id="node4" class="node"><title>Node4</title>
<g id="a_node4"><a xlink:href="classant_1_1_wrap_t_tree.html" target="_top" xlink:title="The WrapTTree struct simplifies TTree handling in physics classes. ">
<polygon fill="white" stroke="black" points="507.5,-357.5 507.5,-376.5 592.5,-376.5 592.5,-357.5 507.5,-357.5"/>
<text text-anchor="middle" x="550" y="-364.5" font-family="Helvetica,sans-Serif" font-size="10.00">ant::WrapTTree</text>
</a>
</g>
</g>
<!-- Node4&#45;&gt;Node3 -->
<g id="edge3" class="edge"><title>Node4&#45;&gt;Node3</title>
<path fill="none" stroke="midnightblue" d="M602.717,-362.654C641.304,-359.411 693.949,-354.987 733.431,-351.67"/>
<polygon fill="midnightblue" stroke="midnightblue" points="602.401,-359.168 592.729,-363.493 602.987,-366.144 602.401,-359.168"/>
</g>
<!-- Node21 -->
<g id="node21" class="node"><title>Node21</title>
<g id="a_node21"><a xlink:href="structant_1_1analysis_1_1physics_1_1_etap_omega_g_1_1_proton_photon_tree__t.html" target="_top" xlink:title="ant::analysis::physics\l::EtapOmegaG::ProtonPhotonTree_t">
<polygon fill="white" stroke="black" points="702.5,-381 702.5,-411 877.5,-411 877.5,-381 702.5,-381"/>
<text text-anchor="start" x="710.5" y="-399" font-family="Helvetica,sans-Serif" font-size="10.00">ant::analysis::physics</text>
<text text-anchor="middle" x="790" y="-388" font-family="Helvetica,sans-Serif" font-size="10.00">::EtapOmegaG::ProtonPhotonTree_t</text>
</a>
</g>
</g>
<!-- Node4&#45;&gt;Node21 -->
<g id="edge23" class="edge"><title>Node4&#45;&gt;Node21</title>
<path fill="none" stroke="midnightblue" d="M602.677,-373.297C631.801,-376.846 668.944,-381.371 702.391,-385.447"/>
<polygon fill="midnightblue" stroke="midnightblue" points="603.079,-369.82 592.729,-372.085 602.232,-376.769 603.079,-369.82"/>
</g>
<!-- Node5 -->
<g id="node5" class="node"><title>Node5</title>
<g id="a_node5"><a xlink:href="structant_1_1analysis_1_1utils_1_1_m_c_weighting_1_1item__t.html" target="_top" xlink:title="ant::analysis::utils\l::MCWeighting::item_t">
<polygon fill="white" stroke="black" points="732.5,-224 732.5,-254 847.5,-254 847.5,-224 732.5,-224"/>
<text text-anchor="start" x="740.5" y="-242" font-family="Helvetica,sans-Serif" font-size="10.00">ant::analysis::utils</text>
<text text-anchor="middle" x="790" y="-231" font-family="Helvetica,sans-Serif" font-size="10.00">::MCWeighting::item_t</text>
</a>
</g>
</g>
<!-- Node5&#45;&gt;Node2 -->
<g id="edge4" class="edge"><title>Node5&#45;&gt;Node2</title>
<path fill="none" stroke="#9a32cd" stroke-dasharray="5,2" d="M857.908,-228.729C883.093,-226.362 911.937,-225.447 938,-229 952.943,-231.037 968.907,-234.893 983.177,-238.978"/>
<polygon fill="#9a32cd" stroke="#9a32cd" points="857.311,-225.272 847.724,-229.782 858.031,-232.235 857.311,-225.272"/>
<text text-anchor="middle" x="917" y="-276" font-family="Helvetica,sans-Serif" font-size="10.00"> Item</text>
<text text-anchor="middle" x="917" y="-265" font-family="Helvetica,sans-Serif" font-size="10.00">EtaPrime</text>
<text text-anchor="middle" x="917" y="-254" font-family="Helvetica,sans-Serif" font-size="10.00">Pi0</text>
<text text-anchor="middle" x="917" y="-243" font-family="Helvetica,sans-Serif" font-size="10.00">Omega</text>
<text text-anchor="middle" x="917" y="-232" font-family="Helvetica,sans-Serif" font-size="10.00">Eta</text>
</g>
<!-- Node6 -->
<g id="node6" class="node"><title>Node6</title>
<polygon fill="white" stroke="#bfbfbf" points="480,-302.5 480,-321.5 620,-321.5 620,-302.5 480,-302.5"/>
<text text-anchor="middle" x="550" y="-309.5" font-family="Helvetica,sans-Serif" font-size="10.00">std::vector&lt; coefficients_t &gt;</text>
</g>
<!-- Node6&#45;&gt;Node5 -->
<g id="edge5" class="edge"><title>Node6&#45;&gt;Node5</title>
<path fill="none" stroke="#9a32cd" stroke-dasharray="5,2" d="M594.211,-299.632C602.767,-297.138 611.675,-294.512 620,-292 661.361,-279.522 708.227,-264.776 742.097,-254.01"/>
<polygon fill="#9a32cd" stroke="#9a32cd" points="593.013,-296.335 584.384,-302.482 594.963,-303.058 593.013,-296.335"/>
<text text-anchor="middle" x="661" y="-290" font-family="Helvetica,sans-Serif" font-size="10.00"> Database</text>
</g>
<!-- Node7 -->
<g id="node7" class="node"><title>Node7</title>
<polygon fill="white" stroke="#bfbfbf" points="246,-297 246,-327 392,-327 392,-297 246,-297"/>
<text text-anchor="start" x="254" y="-315" font-family="Helvetica,sans-Serif" font-size="10.00">ant::analysis::utils</text>
<text text-anchor="middle" x="319" y="-304" font-family="Helvetica,sans-Serif" font-size="10.00">::MCWeighting::coefficients_t</text>
</g>
<!-- Node7&#45;&gt;Node6 -->
<g id="edge6" class="edge"><title>Node7&#45;&gt;Node6</title>
<path fill="none" stroke="#9a32cd" stroke-dasharray="5,2" d="M402.156,-312C427.642,-312 455.456,-312 479.956,-312"/>
<polygon fill="#9a32cd" stroke="#9a32cd" points="402.143,-308.5 392.143,-312 402.143,-315.5 402.143,-308.5"/>
<text text-anchor="middle" x="436" y="-315" font-family="Helvetica,sans-Serif" font-size="10.00"> elements</text>
</g>
<!-- Node8 -->
<g id="node8" class="node"><title>Node8</title>
<g id="a_node8"><a xlink:href="classant_1_1interval.html" target="_top" xlink:title="ant::interval\&lt; double \&gt;">
<polygon fill="white" stroke="black" points="0,-284.5 0,-303.5 114,-303.5 114,-284.5 0,-284.5"/>
<text text-anchor="middle" x="57" y="-291.5" font-family="Helvetica,sans-Serif" font-size="10.00">ant::interval&lt; double &gt;</text>
</a>
</g>
</g>
<!-- Node8&#45;&gt;Node7 -->
<g id="edge7" class="edge"><title>Node8&#45;&gt;Node7</title>
<path fill="none" stroke="#9a32cd" stroke-dasharray="5,2" d="M124.751,-294.206C156.135,-294.752 194.039,-296.057 228,-299 233.819,-299.504 239.837,-300.134 245.873,-300.843"/>
<polygon fill="#9a32cd" stroke="#9a32cd" points="124.425,-290.7 114.373,-294.048 124.319,-297.7 124.425,-290.7"/>
<text text-anchor="middle" x="180" y="-302" font-family="Helvetica,sans-Serif" font-size="10.00"> BeamE</text>
</g>
<!-- Node9 -->
<g id="node9" class="node"><title>Node9</title>
<polygon fill="white" stroke="#bfbfbf" points="2,-322.5 2,-341.5 112,-341.5 112,-322.5 2,-322.5"/>
<text text-anchor="middle" x="57" y="-329.5" font-family="Helvetica,sans-Serif" font-size="10.00">std::vector&lt; double &gt;</text>
</g>
<!-- Node9&#45;&gt;Node7 -->
<g id="edge8" class="edge"><title>Node9&#45;&gt;Node7</title>
<path fill="none" stroke="#9a32cd" stroke-dasharray="5,2" d="M122.454,-327.042C159.825,-324.167 206.984,-320.54 245.627,-317.567"/>
<polygon fill="#9a32cd" stroke="#9a32cd" points="121.89,-323.575 112.188,-327.832 122.427,-330.554 121.89,-323.575"/>
<text text-anchor="middle" x="180" y="-330" font-family="Helvetica,sans-Serif" font-size="10.00"> LegendreCoefficients</text>
</g>
<!-- Node10 -->
<g id="node10" class="node"><title>Node10</title>
<g id="a_node10"><a xlink:href="classant_1_1_particle_type_database_1_1_type.html" target="_top" xlink:title="ant::ParticleTypeDatabase\l::Type">
<polygon fill="white" stroke="black" points="483.5,-224 483.5,-254 616.5,-254 616.5,-224 483.5,-224"/>
<text text-anchor="start" x="491.5" y="-242" font-family="Helvetica,sans-Serif" font-size="10.00">ant::ParticleTypeDatabase</text>
<text text-anchor="middle" x="550" y="-231" font-family="Helvetica,sans-Serif" font-size="10.00">::Type</text>
</a>
</g>
</g>
<!-- Node10&#45;&gt;Node5 -->
<g id="edge9" class="edge"><title>Node10&#45;&gt;Node5</title>
<path fill="none" stroke="#9a32cd" stroke-dasharray="5,2" d="M627.086,-239C661.28,-239 700.931,-239 732.437,-239"/>
<polygon fill="#9a32cd" stroke="#9a32cd" points="626.665,-235.5 616.665,-239 626.665,-242.5 626.665,-235.5"/>
<text text-anchor="middle" x="661" y="-242" font-family="Helvetica,sans-Serif" font-size="10.00"> Type</text>
</g>
<!-- Node10&#45;&gt;Node10 -->
<g id="edge12" class="edge"><title>Node10&#45;&gt;Node10</title>
<path fill="none" stroke="#9a32cd" stroke-dasharray="5,2" d="M530.746,-264.598C533.377,-268.97 539.795,-272 550,-272 567.188,-272 573.633,-263.406 569.336,-254.275"/>
<polygon fill="#9a32cd" stroke="#9a32cd" points="534.243,-264.247 530.664,-254.275 527.244,-264.303 534.243,-264.247"/>
<text text-anchor="middle" x="550" y="-275" font-family="Helvetica,sans-Serif" font-size="10.00"> sametype</text>
</g>
<!-- Node11 -->
<g id="node11" class="node"><title>Node11</title>
<g id="a_node11"><a xlink:title="STL class. ">
<polygon fill="white" stroke="#bfbfbf" points="289,-223.5 289,-242.5 349,-242.5 349,-223.5 289,-223.5"/>
<text text-anchor="middle" x="319" y="-230.5" font-family="Helvetica,sans-Serif" font-size="10.00">std::string</text>
</a>
</g>
</g>
<!-- Node11&#45;&gt;Node2 -->
<g id="edge13" class="edge"><title>Node11&#45;&gt;Node2</title>
<path fill="none" stroke="#9a32cd" stroke-dasharray="5,2" d="M359.051,-227.055C391.376,-222.449 438.551,-216.452 480,-214 656.58,-203.552 701.601,-200.844 878,-214 904.89,-216.006 911.81,-216.582 938,-223 955.175,-227.208 973.715,-233.315 989.479,-238.997"/>
<polygon fill="#9a32cd" stroke="#9a32cd" points="358.499,-223.598 349.104,-228.495 359.502,-230.526 358.499,-223.598"/>
<text text-anchor="middle" x="661" y="-209" font-family="Helvetica,sans-Serif" font-size="10.00"> treeName</text>
</g>
<!-- Node11&#45;&gt;Node10 -->
<g id="edge10" class="edge"><title>Node11&#45;&gt;Node10</title>
<path fill="none" stroke="#9a32cd" stroke-dasharray="5,2" d="M359.019,-234.022C393.045,-234.914 443.11,-236.226 483.304,-237.279"/>
<polygon fill="#9a32cd" stroke="#9a32cd" points="359.091,-230.523 349.003,-233.76 358.908,-237.521 359.091,-230.523"/>
<text text-anchor="middle" x="436" y="-251" font-family="Helvetica,sans-Serif" font-size="10.00"> print_name</text>
<text text-anchor="middle" x="436" y="-240" font-family="Helvetica,sans-Serif" font-size="10.00">name</text>
</g>
<!-- Node12 -->
<g id="node12" class="node"><title>Node12</title>
<g id="a_node12"><a xlink:title="STL class. ">
<polygon fill="white" stroke="#bfbfbf" points="9.5,-218 9.5,-248 104.5,-248 104.5,-218 9.5,-218"/>
<text text-anchor="start" x="17.5" y="-236" font-family="Helvetica,sans-Serif" font-size="10.00">std::basic_string&lt;</text>
<text text-anchor="middle" x="57" y="-225" font-family="Helvetica,sans-Serif" font-size="10.00"> char &gt;</text>
</a>
</g>
</g>
<!-- Node12&#45;&gt;Node11 -->
<g id="edge11" class="edge"><title>Node12&#45;&gt;Node11</title>
<path fill="none" stroke="midnightblue" d="M114.843,-233C168.551,-233 246.96,-233 288.929,-233"/>
<polygon fill="midnightblue" stroke="midnightblue" points="114.783,-229.5 104.783,-233 114.783,-236.5 114.783,-229.5"/>
</g>
<!-- Node13 -->
<g id="node13" class="node"><title>Node13</title>
<g id="a_node13"><a xlink:href="classant_1_1analysis_1_1_histogram_factory.html" target="_top" xlink:title="ant::analysis::Histogram\lFactory">
<polygon fill="white" stroke="black" points="728.5,-283 728.5,-313 851.5,-313 851.5,-283 728.5,-283"/>
<text text-anchor="start" x="736.5" y="-301" font-family="Helvetica,sans-Serif" font-size="10.00">ant::analysis::Histogram</text>
<text text-anchor="middle" x="790" y="-290" font-family="Helvetica,sans-Serif" font-size="10.00">Factory</text>
</a>
</g>
</g>
<!-- Node13&#45;&gt;Node2 -->
<g id="edge14" class="edge"><title>Node13&#45;&gt;Node2</title>
<path fill="none" stroke="#9a32cd" stroke-dasharray="5,2" d="M861.777,-294.523C886.117,-292.466 913.42,-289.197 938,-284 955.081,-280.389 973.447,-274.625 989.105,-269.11"/>
<polygon fill="#9a32cd" stroke="#9a32cd" points="861.237,-291.054 851.544,-295.332 861.789,-298.033 861.237,-291.054"/>
<text text-anchor="middle" x="917" y="-294" font-family="Helvetica,sans-Serif" font-size="10.00"> HistFac</text>
</g>
<!-- Node14 -->
<g id="node14" class="node"><title>Node14</title>
<g id="a_node14"><a xlink:href="classant_1_1analysis_1_1utils_1_1_kin_fitter.html" target="_top" xlink:title="ant::analysis::utils\l::KinFitter">
<polygon fill="white" stroke="black" points="981,-98 981,-128 1077,-128 1077,-98 981,-98"/>
<text text-anchor="start" x="989" y="-116" font-family="Helvetica,sans-Serif" font-size="10.00">ant::analysis::utils</text>
<text text-anchor="middle" x="1029" y="-105" font-family="Helvetica,sans-Serif" font-size="10.00">::KinFitter</text>
</a>
</g>
</g>
<!-- Node14&#45;&gt;Node1 -->
<g id="edge15" class="edge"><title>Node14&#45;&gt;Node1</title>
<path fill="none" stroke="#9a32cd" stroke-dasharray="5,2" d="M1067.52,-132.961C1121.08,-161.464 1218.32,-213.2 1266.44,-238.806"/>
<polygon fill="#9a32cd" stroke="#9a32cd" points="1068.83,-129.697 1058.36,-128.089 1065.54,-135.877 1068.83,-129.697"/>
<text text-anchor="middle" x="1171" y="-216" font-family="Helvetica,sans-Serif" font-size="10.00"> kinfitter</text>
</g>
<!-- Node15 -->
<g id="node15" class="node"><title>Node15</title>
<g id="a_node15"><a xlink:href="classant_1_1analysis_1_1utils_1_1_fitter.html" target="_top" xlink:title="ant::analysis::utils\l::Fitter">
<polygon fill="white" stroke="black" points="742,-98 742,-128 838,-128 838,-98 742,-98"/>
<text text-anchor="start" x="750" y="-116" font-family="Helvetica,sans-Serif" font-size="10.00">ant::analysis::utils</text>
<text text-anchor="middle" x="790" y="-105" font-family="Helvetica,sans-Serif" font-size="10.00">::Fitter</text>
</a>
</g>
</g>
<!-- Node15&#45;&gt;Node14 -->
<g id="edge16" class="edge"><title>Node15&#45;&gt;Node14</title>
<path fill="none" stroke="midnightblue" d="M848.142,-113C888.814,-113 942.802,-113 980.982,-113"/>
<polygon fill="midnightblue" stroke="midnightblue" points="848.107,-109.5 838.107,-113 848.107,-116.5 848.107,-109.5"/>
</g>
<!-- Node16 -->
<g id="node16" class="node"><title>Node16</title>
<g id="a_node16"><a xlink:href="structant_1_1analysis_1_1utils_1_1_kin_fitter_1_1_target__t.html" target="_top" xlink:title="ant::analysis::utils\l::KinFitter::Target_t">
<polygon fill="white" stroke="black" points="739.5,-49 739.5,-79 840.5,-79 840.5,-49 739.5,-49"/>
<text text-anchor="start" x="747.5" y="-67" font-family="Helvetica,sans-Serif" font-size="10.00">ant::analysis::utils</text>
<text text-anchor="middle" x="790" y="-56" font-family="Helvetica,sans-Serif" font-size="10.00">::KinFitter::Target_t</text>
</a>
</g>
</g>
<!-- Node16&#45;&gt;Node14 -->
<g id="edge17" class="edge"><title>Node16&#45;&gt;Node14</title>
<path fill="none" stroke="#9a32cd" stroke-dasharray="5,2" d="M850.649,-76.3326C890.947,-84.6642 943.415,-95.5119 980.804,-103.242"/>
<polygon fill="#9a32cd" stroke="#9a32cd" points="851.185,-72.8693 840.683,-74.272 849.767,-79.7243 851.185,-72.8693"/>
<text text-anchor="middle" x="917" y="-98" font-family="Helvetica,sans-Serif" font-size="10.00"> Target</text>
</g>
<!-- Node17 -->
<g id="node17" class="node"><title>Node17</title>
<g id="a_node17"><a xlink:href="structant_1_1analysis_1_1utils_1_1_kin_fitter_1_1_beam_e__t.html" target="_top" xlink:title="ant::analysis::utils\l::KinFitter::BeamE_t">
<polygon fill="white" stroke="black" points="737,-0 737,-30 843,-30 843,-0 737,-0"/>
<text text-anchor="start" x="745" y="-18" font-family="Helvetica,sans-Serif" font-size="10.00">ant::analysis::utils</text>
<text text-anchor="middle" x="790" y="-7" font-family="Helvetica,sans-Serif" font-size="10.00">::KinFitter::BeamE_t</text>
</a>
</g>
</g>
<!-- Node17&#45;&gt;Node14 -->
<g id="edge18" class="edge"><title>Node17&#45;&gt;Node14</title>
<path fill="none" stroke="#9a32cd" stroke-dasharray="5,2" d="M852.682,-30.4517C861.269,-33.0552 869.914,-35.922 878,-39 922.643,-55.9942 971.849,-81.7033 1001.32,-97.9103"/>
<polygon fill="#9a32cd" stroke="#9a32cd" points="853.624,-27.0809 843.044,-27.6269 851.656,-33.7983 853.624,-27.0809"/>
<text text-anchor="middle" x="917" y="-68" font-family="Helvetica,sans-Serif" font-size="10.00"> BeamE</text>
</g>
<!-- Node18 -->
<g id="node18" class="node"><title>Node18</title>
<polygon fill="white" stroke="#bfbfbf" points="522,-5.5 522,-24.5 578,-24.5 578,-5.5 522,-5.5"/>
<text text-anchor="middle" x="550" y="-12.5" font-family="Helvetica,sans-Serif" font-size="10.00">V_S_P_t</text>
</g>
<!-- Node18&#45;&gt;Node17 -->
<g id="edge19" class="edge"><title>Node18&#45;&gt;Node17</title>
<path fill="none" stroke="midnightblue" d="M588.425,-15C628.419,-15 692.11,-15 736.972,-15"/>
<polygon fill="midnightblue" stroke="midnightblue" points="588.302,-11.5001 578.302,-15 588.302,-18.5001 588.302,-11.5001"/>
</g>
<!-- Node19 -->
<g id="node19" class="node"><title>Node19</title>
<polygon fill="white" stroke="#bfbfbf" points="727.5,-147.5 727.5,-166.5 852.5,-166.5 852.5,-147.5 727.5,-147.5"/>
<text text-anchor="middle" x="790" y="-154.5" font-family="Helvetica,sans-Serif" font-size="10.00">std::vector&lt; FitParticle &gt;</text>
</g>
<!-- Node19&#45;&gt;Node14 -->
<g id="edge20" class="edge"><title>Node19&#45;&gt;Node14</title>
<path fill="none" stroke="#9a32cd" stroke-dasharray="5,2" d="M852.34,-145.612C892.369,-138.181 943.84,-128.625 980.702,-121.781"/>
<polygon fill="#9a32cd" stroke="#9a32cd" points="851.619,-142.186 842.425,-147.453 852.896,-149.068 851.619,-142.186"/>
<text text-anchor="middle" x="917" y="-140" font-family="Helvetica,sans-Serif" font-size="10.00"> Photons</text>
</g>
<!-- Node20 -->
<g id="node20" class="node"><title>Node20</title>
<g id="a_node20"><a xlink:href="structant_1_1analysis_1_1physics_1_1_etap_omega_g_1_1_ref__t_1_1_tree__t.html" target="_top" xlink:title="ant::analysis::physics\l::EtapOmegaG::Ref_t::Tree_t">
<polygon fill="white" stroke="black" points="956,-340 956,-370 1102,-370 1102,-340 956,-340"/>
<text text-anchor="start" x="964" y="-358" font-family="Helvetica,sans-Serif" font-size="10.00">ant::analysis::physics</text>
<text text-anchor="middle" x="1029" y="-347" font-family="Helvetica,sans-Serif" font-size="10.00">::EtapOmegaG::Ref_t::Tree_t</text>
</a>
</g>
</g>
<!-- Node20&#45;&gt;Node1 -->
<g id="edge21" class="edge"><title>Node20&#45;&gt;Node1</title>
<path fill="none" stroke="#9a32cd" stroke-dasharray="5,2" d="M1078.85,-336.381C1129.68,-317.008 1208.3,-287.045 1255.4,-269.094"/>
<polygon fill="#9a32cd" stroke="#9a32cd" points="1077.48,-333.156 1069.39,-339.988 1079.98,-339.697 1077.48,-333.156"/>
<text text-anchor="middle" x="1171" y="-323" font-family="Helvetica,sans-Serif" font-size="10.00"> t</text>
</g>
<!-- Node21&#45;&gt;Node20 -->
<g id="edge22" class="edge"><title>Node21&#45;&gt;Node20</title>
<path fill="none" stroke="midnightblue" d="M887.585,-379.291C910.339,-375.355 934.209,-371.225 955.681,-367.511"/>
<polygon fill="midnightblue" stroke="midnightblue" points="886.825,-375.871 877.568,-381.024 888.019,-382.768 886.825,-375.871"/>
</g>
</g>
</svg>
