<?xml version="1.0" encoding="UTF-8" standalone="no"?>
<!DOCTYPE svg PUBLIC "-//W3C//DTD SVG 1.1//EN"
 "http://www.w3.org/Graphics/SVG/1.1/DTD/svg11.dtd">
<!-- Generated by graphviz version 2.36.0 (20140111.2315)
 -->
<!-- Title: SigOmegaPi0Hist_t::Fill_t Pages: 1 -->
<svg width="118pt" height="152pt"
 viewBox="0.00 0.00 118.00 152.00" xmlns="http://www.w3.org/2000/svg" xmlns:xlink="http://www.w3.org/1999/xlink">
<g id="graph0" class="graph" transform="scale(1 1) rotate(0) translate(4 148)">
<title>SigOmegaPi0Hist_t::Fill_t</title>
<polygon fill="white" stroke="none" points="-4,4 -4,-148 114,-148 114,4 -4,4"/>
<!-- Node0 -->
<g id="node1" class="node"><title>Node0</title>
<polygon fill="#bfbfbf" stroke="black" points="0.5,-1 0.5,-31 109.5,-31 109.5,-1 0.5,-1"/>
<text text-anchor="start" x="8.5" y="-19" font-family="Helvetica,sans-Serif" font-size="10.00">SigOmegaPi0Hist_t::</text>
<text text-anchor="middle" x="55" y="-8" font-family="Helvetica,sans-Serif" font-size="10.00">Fill_t</text>
</g>
<!-- Node1 -->
<g id="node2" class="node"><title>Node1</title>
<g id="a_node2"><a xlink:href="struct_sig_hist__t_1_1_fill__t.html" target="_top" xlink:title="SigHist_t::Fill_t">
<polygon fill="white" stroke="black" points="13,-68.5 13,-87.5 97,-87.5 97,-68.5 13,-68.5"/>
<text text-anchor="middle" x="55" y="-75.5" font-family="Helvetica,sans-Serif" font-size="10.00">SigHist_t::Fill_t</text>
</a>
</g>
</g>
<!-- Node1&#45;&gt;Node0 -->
<g id="edge1" class="edge"><title>Node1&#45;&gt;Node0</title>
<path fill="none" stroke="midnightblue" d="M55,-58.3707C55,-49.5849 55,-39.2721 55,-31.1408"/>
<polygon fill="midnightblue" stroke="midnightblue" points="51.5001,-58.4034 55,-68.4035 58.5001,-58.4035 51.5001,-58.4034"/>
</g>
<!-- Node2 -->
<g id="node3" class="node"><title>Node2</title>
<g id="a_node3"><a xlink:href="struct_common_hist__t_1_1_fill__t.html" target="_top" xlink:title="CommonHist_t::Fill_t">
<polygon fill="white" stroke="black" points="0,-124.5 0,-143.5 110,-143.5 110,-124.5 0,-124.5"/>
<text text-anchor="middle" x="55" y="-131.5" font-family="Helvetica,sans-Serif" font-size="10.00">CommonHist_t::Fill_t</text>
</a>
</g>
</g>
<!-- Node2&#45;&gt;Node1 -->
<g id="edge2" class="edge"><title>Node2&#45;&gt;Node1</title>
<path fill="none" stroke="midnightblue" d="M55,-113.805C55,-104.91 55,-94.7798 55,-87.7511"/>
<polygon fill="midnightblue" stroke="midnightblue" points="51.5001,-114.083 55,-124.083 58.5001,-114.083 51.5001,-114.083"/>
</g>
</g>
</svg>
