<?xml version="1.0" encoding="UTF-8" standalone="no"?>
<!DOCTYPE svg PUBLIC "-//W3C//DTD SVG 1.1//EN"
 "http://www.w3.org/Graphics/SVG/1.1/DTD/svg11.dtd">
<!-- Generated by graphviz version 2.36.0 (20140111.2315)
 -->
<!-- Title: pair_t&lt; T &gt; Pages: 1 -->
<svg width="131pt" height="166pt"
 viewBox="0.00 0.00 131.00 166.00" xmlns="http://www.w3.org/2000/svg" xmlns:xlink="http://www.w3.org/1999/xlink">
<g id="graph0" class="graph" transform="scale(1 1) rotate(0) translate(4 162)">
<title>pair_t&lt; T &gt;</title>
<polygon fill="white" stroke="none" points="-4,4 -4,-162 127,-162 127,4 -4,4"/>
<!-- Node1 -->
<g id="node1" class="node"><title>Node1</title>
<polygon fill="#bfbfbf" stroke="black" points="49.5,-0.5 49.5,-19.5 114.5,-19.5 114.5,-0.5 49.5,-0.5"/>
<text text-anchor="middle" x="82" y="-7.5" font-family="Helvetica,sans-Serif" font-size="10.00">pair_t&lt; T &gt;</text>
</g>
<!-- Node2 -->
<g id="node2" class="node"><title>Node2</title>
<g id="a_node2"><a xlink:title="STL class. ">
<polygon fill="white" stroke="#bfbfbf" points="17,-68.5 17,-87.5 77,-87.5 77,-68.5 17,-68.5"/>
<text text-anchor="middle" x="47" y="-75.5" font-family="Helvetica,sans-Serif" font-size="10.00">std::string</text>
</a>
</g>
</g>
<!-- Node2&#45;&gt;Node1 -->
<g id="edge1" class="edge"><title>Node2&#45;&gt;Node1</title>
<path fill="none" stroke="#9a32cd" stroke-dasharray="5,2" d="M51.1433,-58.1092C53.0175,-51.5102 55.5932,-44.2061 59,-38 62.6743,-31.3066 68.1854,-24.7628 72.8918,-19.7939"/>
<polygon fill="#9a32cd" stroke="#9a32cd" points="47.643,-57.6821 48.6283,-68.231 54.4365,-59.3701 47.643,-57.6821"/>
<text text-anchor="middle" x="74" y="-41.5" font-family="Helvetica,sans-Serif" font-size="10.00"> Name</text>
</g>
<!-- Node3 -->
<g id="node3" class="node"><title>Node3</title>
<g id="a_node3"><a xlink:title="STL class. ">
<polygon fill="white" stroke="#bfbfbf" points="-0.5,-127 -0.5,-157 94.5,-157 94.5,-127 -0.5,-127"/>
<text text-anchor="start" x="7.5" y="-145" font-family="Helvetica,sans-Serif" font-size="10.00">std::basic_string&lt;</text>
<text text-anchor="middle" x="47" y="-134" font-family="Helvetica,sans-Serif" font-size="10.00"> char &gt;</text>
</a>
</g>
</g>
<!-- Node3&#45;&gt;Node2 -->
<g id="edge2" class="edge"><title>Node3&#45;&gt;Node2</title>
<path fill="none" stroke="midnightblue" d="M47,-116.871C47,-106.663 47,-95.4077 47,-87.8419"/>
<polygon fill="midnightblue" stroke="midnightblue" points="43.5001,-116.931 47,-126.931 50.5001,-116.931 43.5001,-116.931"/>
</g>
<!-- Node4 -->
<g id="node4" class="node"><title>Node4</title>
<polygon fill="white" stroke="#bfbfbf" points="94.5,-68.5 94.5,-87.5 123.5,-87.5 123.5,-68.5 94.5,-68.5"/>
<text text-anchor="middle" x="109" y="-75.5" font-family="Helvetica,sans-Serif" font-size="10.00">T</text>
</g>
<!-- Node4&#45;&gt;Node1 -->
<g id="edge3" class="edge"><title>Node4&#45;&gt;Node1</title>
<path fill="none" stroke="#9a32cd" stroke-dasharray="5,2" d="M101.557,-58.8066C96.3691,-46.1244 89.6752,-29.7615 85.6168,-19.8411"/>
<polygon fill="#9a32cd" stroke="#9a32cd" points="98.4444,-60.4414 105.47,-68.3717 104.923,-57.7909 98.4444,-60.4414"/>
<text text-anchor="middle" x="108.5" y="-41.5" font-family="Helvetica,sans-Serif" font-size="10.00"> Item</text>
</g>
</g>
</svg>
