<?xml version="1.0" encoding="UTF-8" standalone="no"?>
<!DOCTYPE svg PUBLIC "-//W3C//DTD SVG 1.1//EN"
 "http://www.w3.org/Graphics/SVG/1.1/DTD/svg11.dtd">
<!-- Generated by graphviz version 2.36.0 (20140111.2315)
 -->
<!-- Title: ant::analysis::physics::EtapDalitz::RefTree_t Pages: 1 -->
<svg width="460pt" height="185pt"
 viewBox="0.00 0.00 460.00 185.00" xmlns="http://www.w3.org/2000/svg" xmlns:xlink="http://www.w3.org/1999/xlink">
<g id="graph0" class="graph" transform="scale(1 1) rotate(0) translate(4 181)">
<title>ant::analysis::physics::EtapDalitz::RefTree_t</title>
<polygon fill="white" stroke="none" points="-4,4 -4,-181 456,-181 456,4 -4,4"/>
<!-- Node0 -->
<g id="node1" class="node"><title>Node0</title>
<polygon fill="#bfbfbf" stroke="black" points="334,-73 334,-103 452,-103 452,-73 334,-73"/>
<text text-anchor="start" x="342" y="-91" font-family="Helvetica,sans-Serif" font-size="10.00">ant::analysis::physics</text>
<text text-anchor="middle" x="393" y="-80" font-family="Helvetica,sans-Serif" font-size="10.00">::EtapDalitz::RefTree_t</text>
</g>
<!-- Node1 -->
<g id="node2" class="node"><title>Node1</title>
<g id="a_node2"><a xlink:href="structant_1_1analysis_1_1physics_1_1_etap_dalitz_1_1common__tree.html" target="_top" xlink:title="ant::analysis::physics\l::EtapDalitz::common_tree">
<polygon fill="white" stroke="black" points="156,-147 156,-177 290,-177 290,-147 156,-147"/>
<text text-anchor="start" x="164" y="-165" font-family="Helvetica,sans-Serif" font-size="10.00">ant::analysis::physics</text>
<text text-anchor="middle" x="223" y="-154" font-family="Helvetica,sans-Serif" font-size="10.00">::EtapDalitz::common_tree</text>
</a>
</g>
</g>
<!-- Node1&#45;&gt;Node0 -->
<g id="edge1" class="edge"><title>Node1&#45;&gt;Node0</title>
<path fill="none" stroke="midnightblue" d="M281.584,-143.524C287.176,-141.438 292.726,-139.249 298,-137 321.53,-126.964 347.221,-113.38 365.788,-103.061"/>
<polygon fill="midnightblue" stroke="midnightblue" points="280.387,-140.235 272.176,-146.931 282.77,-146.817 280.387,-140.235"/>
</g>
<!-- Node2 -->
<g id="node3" class="node"><title>Node2</title>
<g id="a_node3"><a xlink:href="classant_1_1_wrap_t_tree.html" target="_top" xlink:title="The WrapTTree struct simplifies TTree handling in physics classes. ">
<polygon fill="white" stroke="black" points="13.5,-78.5 13.5,-97.5 98.5,-97.5 98.5,-78.5 13.5,-78.5"/>
<text text-anchor="middle" x="56" y="-85.5" font-family="Helvetica,sans-Serif" font-size="10.00">ant::WrapTTree</text>
</a>
</g>
</g>
<!-- Node2&#45;&gt;Node1 -->
<g id="edge2" class="edge"><title>Node2&#45;&gt;Node1</title>
<path fill="none" stroke="midnightblue" d="M81.4068,-102.597C99.4176,-113.007 124.736,-126.892 148,-137 156.084,-140.512 164.834,-143.853 173.39,-146.882"/>
<polygon fill="midnightblue" stroke="midnightblue" points="83.1034,-99.5351 72.704,-97.5093 79.5703,-105.578 83.1034,-99.5351"/>
</g>
<!-- Node3 -->
<g id="node4" class="node"><title>Node3</title>
<g id="a_node4"><a xlink:href="structant_1_1analysis_1_1physics_1_1_etap_dalitz_1_1proton__tree.html" target="_top" xlink:title="ant::analysis::physics\l::EtapDalitz::proton_tree">
<polygon fill="white" stroke="black" points="161.5,-98 161.5,-128 284.5,-128 284.5,-98 161.5,-98"/>
<text text-anchor="start" x="169.5" y="-116" font-family="Helvetica,sans-Serif" font-size="10.00">ant::analysis::physics</text>
<text text-anchor="middle" x="223" y="-105" font-family="Helvetica,sans-Serif" font-size="10.00">::EtapDalitz::proton_tree</text>
</a>
</g>
</g>
<!-- Node2&#45;&gt;Node3 -->
<g id="edge4" class="edge"><title>Node2&#45;&gt;Node3</title>
<path fill="none" stroke="midnightblue" d="M108.745,-95.8402C125.436,-98.369 144.086,-101.195 161.358,-103.812"/>
<polygon fill="midnightblue" stroke="midnightblue" points="109.048,-92.3462 98.6365,-94.3086 107.999,-99.2672 109.048,-92.3462"/>
</g>
<!-- Node4 -->
<g id="node5" class="node"><title>Node4</title>
<g id="a_node5"><a xlink:href="structant_1_1analysis_1_1physics_1_1_etap_dalitz_1_1photon__tree.html" target="_top" xlink:title="ant::analysis::physics\l::EtapDalitz::photon_tree\&lt; 2 \&gt;">
<polygon fill="white" stroke="black" points="148.5,-0 148.5,-30 297.5,-30 297.5,-0 148.5,-0"/>
<text text-anchor="start" x="156.5" y="-18" font-family="Helvetica,sans-Serif" font-size="10.00">ant::analysis::physics</text>
<text text-anchor="middle" x="223" y="-7" font-family="Helvetica,sans-Serif" font-size="10.00">::EtapDalitz::photon_tree&lt; 2 &gt;</text>
</a>
</g>
</g>
<!-- Node2&#45;&gt;Node4 -->
<g id="edge6" class="edge"><title>Node2&#45;&gt;Node4</title>
<path fill="none" stroke="midnightblue" d="M81.37,-73.3172C99.3629,-62.8661 124.675,-48.9657 148,-39 155.452,-35.8161 163.476,-32.8063 171.394,-30.0639"/>
<polygon fill="midnightblue" stroke="midnightblue" points="79.5233,-70.3428 72.6774,-78.4289 83.0716,-76.3769 79.5233,-70.3428"/>
</g>
<!-- Node6 -->
<g id="node7" class="node"><title>Node6</title>
<g id="a_node7"><a xlink:href="structant_1_1analysis_1_1physics_1_1_etap_dalitz_1_1fit__tree.html" target="_top" xlink:title="ant::analysis::physics\l::EtapDalitz::fit_tree\&lt; 2 \&gt;">
<polygon fill="white" stroke="black" points="159,-49 159,-79 287,-79 287,-49 159,-49"/>
<text text-anchor="start" x="167" y="-67" font-family="Helvetica,sans-Serif" font-size="10.00">ant::analysis::physics</text>
<text text-anchor="middle" x="223" y="-56" font-family="Helvetica,sans-Serif" font-size="10.00">::EtapDalitz::fit_tree&lt; 2 &gt;</text>
</a>
</g>
</g>
<!-- Node2&#45;&gt;Node6 -->
<g id="edge9" class="edge"><title>Node2&#45;&gt;Node6</title>
<path fill="none" stroke="midnightblue" d="M108.781,-80.4682C124.652,-78.1597 142.292,-75.5939 158.833,-73.1879"/>
<polygon fill="midnightblue" stroke="midnightblue" points="108.029,-77.0408 98.6365,-81.9438 109.036,-83.9679 108.029,-77.0408"/>
</g>
<!-- Node3&#45;&gt;Node0 -->
<g id="edge3" class="edge"><title>Node3&#45;&gt;Node0</title>
<path fill="none" stroke="midnightblue" d="M294.577,-102.497C307.699,-100.545 321.27,-98.5253 333.963,-96.6364"/>
<polygon fill="midnightblue" stroke="midnightblue" points="294.028,-99.0406 284.652,-103.974 295.058,-105.964 294.028,-99.0406"/>
</g>
<!-- Node4&#45;&gt;Node0 -->
<g id="edge5" class="edge"><title>Node4&#45;&gt;Node0</title>
<path fill="none" stroke="midnightblue" d="M283.624,-33.3731C288.525,-35.1748 293.37,-37.0585 298,-39 321.591,-48.8927 347.276,-62.4885 365.826,-72.8495"/>
<polygon fill="midnightblue" stroke="midnightblue" points="284.767,-30.0651 274.173,-30.0156 282.424,-36.6613 284.767,-30.0651"/>
</g>
<!-- Node5 -->
<g id="node6" class="node"><title>Node5</title>
<g id="a_node6"><a xlink:href="structant_1_1analysis_1_1physics_1_1_etap_dalitz_tools.html" target="_top" xlink:title="ant::analysis::physics\l::EtapDalitzTools">
<polygon fill="white" stroke="black" points="0,-0 0,-30 112,-30 112,-0 0,-0"/>
<text text-anchor="start" x="8" y="-18" font-family="Helvetica,sans-Serif" font-size="10.00">ant::analysis::physics</text>
<text text-anchor="middle" x="56" y="-7" font-family="Helvetica,sans-Serif" font-size="10.00">::EtapDalitzTools</text>
</a>
</g>
</g>
<!-- Node5&#45;&gt;Node4 -->
<g id="edge7" class="edge"><title>Node5&#45;&gt;Node4</title>
<path fill="none" stroke="midnightblue" d="M122.561,-15C131.011,-15 139.71,-15 148.28,-15"/>
<polygon fill="midnightblue" stroke="midnightblue" points="122.402,-11.5001 112.402,-15 122.402,-18.5001 122.402,-11.5001"/>
</g>
<!-- Node6&#45;&gt;Node0 -->
<g id="edge8" class="edge"><title>Node6&#45;&gt;Node0</title>
<path fill="none" stroke="midnightblue" d="M297.237,-74.4624C309.497,-76.2138 322.068,-78.0097 333.882,-79.6974"/>
<polygon fill="midnightblue" stroke="midnightblue" points="297.429,-70.9545 287.035,-73.005 296.439,-77.8841 297.429,-70.9545"/>
</g>
</g>
</svg>
