<?xml version="1.0" encoding="UTF-8" standalone="no"?>
<!DOCTYPE svg PUBLIC "-//W3C//DTD SVG 1.1//EN"
 "http://www.w3.org/Graphics/SVG/1.1/DTD/svg11.dtd">
<!-- Generated by graphviz version 2.36.0 (20140111.2315)
 -->
<!-- Title: ant::WrapTTree::ROOTArray&lt; T &gt; Pages: 1 -->
<svg width="255pt" height="166pt"
 viewBox="0.00 0.00 255.00 166.00" xmlns="http://www.w3.org/2000/svg" xmlns:xlink="http://www.w3.org/1999/xlink">
<g id="graph0" class="graph" transform="scale(1 1) rotate(0) translate(4 162)">
<title>ant::WrapTTree::ROOTArray&lt; T &gt;</title>
<polygon fill="white" stroke="none" points="-4,4 -4,-162 251,-162 251,4 -4,4"/>
<!-- Node3 -->
<g id="node1" class="node"><title>Node3</title>
<polygon fill="#bfbfbf" stroke="black" points="58.5,-0.5 58.5,-19.5 225.5,-19.5 225.5,-0.5 58.5,-0.5"/>
<text text-anchor="middle" x="142" y="-7.5" font-family="Helvetica,sans-Serif" font-size="10.00">ant::WrapTTree::ROOTArray&lt; T &gt;</text>
</g>
<!-- Node4 -->
<g id="node2" class="node"><title>Node4</title>
<g id="a_node2"><a xlink:title="STL class. ">
<polygon fill="white" stroke="#bfbfbf" points="-0.5,-64.5 -0.5,-83.5 86.5,-83.5 86.5,-64.5 -0.5,-64.5"/>
<text text-anchor="middle" x="43" y="-71.5" font-family="Helvetica,sans-Serif" font-size="10.00">std::vector&lt; T &gt;</text>
</a>
</g>
</g>
<!-- Node4&#45;&gt;Node3 -->
<g id="edge1" class="edge"><title>Node4&#45;&gt;Node3</title>
<path fill="none" stroke="midnightblue" d="M65.2828,-59.0451C84.6474,-46.9178 112.076,-29.7401 128.351,-19.5476"/>
<polygon fill="midnightblue" stroke="midnightblue" points="63.383,-56.1051 56.7655,-64.3792 67.0984,-62.0378 63.383,-56.1051"/>
</g>
<!-- Node5 -->
<g id="node3" class="node"><title>Node5</title>
<polygon fill="white" stroke="#bfbfbf" points="28.5,-138.5 28.5,-157.5 57.5,-157.5 57.5,-138.5 28.5,-138.5"/>
<text text-anchor="middle" x="43" y="-145.5" font-family="Helvetica,sans-Serif" font-size="10.00">T</text>
</g>
<!-- Node5&#45;&gt;Node4 -->
<g id="edge2" class="edge"><title>Node5&#45;&gt;Node4</title>
<path fill="none" stroke="#9a32cd" stroke-dasharray="5,2" d="M43,-128.156C43,-113.712 43,-94.4594 43,-83.531"/>
<polygon fill="#9a32cd" stroke="#9a32cd" points="39.5001,-128.458 43,-138.458 46.5001,-128.458 39.5001,-128.458"/>
<text text-anchor="middle" x="64.5" y="-111.5" font-family="Helvetica,sans-Serif" font-size="10.00"> elements</text>
</g>
<!-- Node6 -->
<g id="node4" class="node"><title>Node6</title>
<polygon fill="white" stroke="#bfbfbf" points="104.5,-59 104.5,-89 247.5,-89 247.5,-59 104.5,-59"/>
<text text-anchor="start" x="112.5" y="-77" font-family="Helvetica,sans-Serif" font-size="10.00">ant::WrapTTree::ROOTArray</text>
<text text-anchor="middle" x="176" y="-66" font-family="Helvetica,sans-Serif" font-size="10.00">_traits</text>
</g>
<!-- Node6&#45;&gt;Node3 -->
<g id="edge3" class="edge"><title>Node6&#45;&gt;Node3</title>
<path fill="none" stroke="midnightblue" d="M163.472,-50.1542C157.693,-39.6168 151.172,-27.7263 146.849,-19.8419"/>
<polygon fill="midnightblue" stroke="midnightblue" points="160.408,-51.846 168.285,-58.9312 166.545,-48.4802 160.408,-51.846"/>
</g>
</g>
</svg>
