<?xml version="1.0" encoding="UTF-8" standalone="no"?>
<!DOCTYPE svg PUBLIC "-//W3C//DTD SVG 1.1//EN"
 "http://www.w3.org/Graphics/SVG/1.1/DTD/svg11.dtd">
<!-- Generated by graphviz version 2.36.0 (20140111.2315)
 -->
<!-- Title: ant::analysis::physics::EtapDalitz::RefTree_t Pages: 1 -->
<svg width="1254pt" height="192pt"
 viewBox="0.00 0.00 1254.00 192.00" xmlns="http://www.w3.org/2000/svg" xmlns:xlink="http://www.w3.org/1999/xlink">
<g id="graph0" class="graph" transform="scale(1 1) rotate(0) translate(4 188)">
<title>ant::analysis::physics::EtapDalitz::RefTree_t</title>
<polygon fill="white" stroke="none" points="-4,4 -4,-188 1250,-188 1250,4 -4,4"/>
<!-- Node7 -->
<g id="node1" class="node"><title>Node7</title>
<polygon fill="#bfbfbf" stroke="black" points="1128,-73 1128,-103 1246,-103 1246,-73 1128,-73"/>
<text text-anchor="start" x="1136" y="-91" font-family="Helvetica,sans-Serif" font-size="10.00">ant::analysis::physics</text>
<text text-anchor="middle" x="1187" y="-80" font-family="Helvetica,sans-Serif" font-size="10.00">::EtapDalitz::RefTree_t</text>
</g>
<!-- Node8 -->
<g id="node2" class="node"><title>Node8</title>
<g id="a_node2"><a xlink:href="structant_1_1analysis_1_1physics_1_1_etap_dalitz_1_1common__tree.html" target="_top" xlink:title="ant::analysis::physics\l::EtapDalitz::common_tree">
<polygon fill="white" stroke="black" points="948,-104 948,-134 1082,-134 1082,-104 948,-104"/>
<text text-anchor="start" x="956" y="-122" font-family="Helvetica,sans-Serif" font-size="10.00">ant::analysis::physics</text>
<text text-anchor="middle" x="1015" y="-111" font-family="Helvetica,sans-Serif" font-size="10.00">::EtapDalitz::common_tree</text>
</a>
</g>
</g>
<!-- Node8&#45;&gt;Node7 -->
<g id="edge1" class="edge"><title>Node8&#45;&gt;Node7</title>
<path fill="none" stroke="midnightblue" d="M1092.22,-105.101C1104.23,-102.911 1116.47,-100.678 1127.98,-98.5797"/>
<polygon fill="midnightblue" stroke="midnightblue" points="1091.42,-101.689 1082.21,-106.926 1092.68,-108.575 1091.42,-101.689"/>
</g>
<!-- Node9 -->
<g id="node3" class="node"><title>Node9</title>
<g id="a_node3"><a xlink:href="classant_1_1_wrap_t_tree.html" target="_top" xlink:title="The WrapTTree struct simplifies TTree handling in physics classes. ">
<polygon fill="white" stroke="black" points="803.5,-92.5 803.5,-111.5 888.5,-111.5 888.5,-92.5 803.5,-92.5"/>
<text text-anchor="middle" x="846" y="-99.5" font-family="Helvetica,sans-Serif" font-size="10.00">ant::WrapTTree</text>
</a>
</g>
</g>
<!-- Node9&#45;&gt;Node8 -->
<g id="edge2" class="edge"><title>Node9&#45;&gt;Node8</title>
<path fill="none" stroke="midnightblue" d="M899.095,-107.303C914.528,-108.874 931.636,-110.616 947.833,-112.264"/>
<polygon fill="midnightblue" stroke="midnightblue" points="899.013,-103.777 888.71,-106.246 898.304,-110.741 899.013,-103.777"/>
</g>
<!-- Node10 -->
<g id="node4" class="node"><title>Node10</title>
<g id="a_node4"><a xlink:href="structant_1_1analysis_1_1physics_1_1_etap_dalitz_1_1proton__tree.html" target="_top" xlink:title="ant::analysis::physics\l::EtapDalitz::proton_tree">
<polygon fill="white" stroke="black" points="953.5,-55 953.5,-85 1076.5,-85 1076.5,-55 953.5,-55"/>
<text text-anchor="start" x="961.5" y="-73" font-family="Helvetica,sans-Serif" font-size="10.00">ant::analysis::physics</text>
<text text-anchor="middle" x="1015" y="-62" font-family="Helvetica,sans-Serif" font-size="10.00">::EtapDalitz::proton_tree</text>
</a>
</g>
</g>
<!-- Node9&#45;&gt;Node10 -->
<g id="edge4" class="edge"><title>Node9&#45;&gt;Node10</title>
<path fill="none" stroke="midnightblue" d="M898.619,-92.1089C915.917,-88.7944 935.363,-85.0683 953.29,-81.633"/>
<polygon fill="midnightblue" stroke="midnightblue" points="897.873,-88.6881 888.71,-94.0076 899.19,-95.563 897.873,-88.6881"/>
</g>
<!-- Node11 -->
<g id="node5" class="node"><title>Node11</title>
<g id="a_node5"><a xlink:href="structant_1_1analysis_1_1physics_1_1_etap_dalitz_1_1photon__tree.html" target="_top" xlink:title="ant::analysis::physics\l::EtapDalitz::photon_tree\&lt; 2 \&gt;">
<polygon fill="white" stroke="black" points="940.5,-6 940.5,-36 1089.5,-36 1089.5,-6 940.5,-6"/>
<text text-anchor="start" x="948.5" y="-24" font-family="Helvetica,sans-Serif" font-size="10.00">ant::analysis::physics</text>
<text text-anchor="middle" x="1015" y="-13" font-family="Helvetica,sans-Serif" font-size="10.00">::EtapDalitz::photon_tree&lt; 2 &gt;</text>
</a>
</g>
</g>
<!-- Node9&#45;&gt;Node11 -->
<g id="edge6" class="edge"><title>Node9&#45;&gt;Node11</title>
<path fill="none" stroke="midnightblue" d="M868.783,-86.6015C887.127,-74.1447 914.398,-56.7953 940,-45 946.992,-41.7786 954.539,-38.8019 962.047,-36.1207"/>
<polygon fill="midnightblue" stroke="midnightblue" points="866.55,-83.8899 860.301,-92.4459 870.522,-89.6541 866.55,-83.8899"/>
</g>
<!-- Node17 -->
<g id="node11" class="node"><title>Node17</title>
<g id="a_node11"><a xlink:href="structant_1_1analysis_1_1physics_1_1_etap_dalitz_1_1fit__tree.html" target="_top" xlink:title="ant::analysis::physics\l::EtapDalitz::fit_tree\&lt; 2 \&gt;">
<polygon fill="white" stroke="black" points="951,-153 951,-183 1079,-183 1079,-153 951,-153"/>
<text text-anchor="start" x="959" y="-171" font-family="Helvetica,sans-Serif" font-size="10.00">ant::analysis::physics</text>
<text text-anchor="middle" x="1015" y="-160" font-family="Helvetica,sans-Serif" font-size="10.00">::EtapDalitz::fit_tree&lt; 2 &gt;</text>
</a>
</g>
</g>
<!-- Node9&#45;&gt;Node17 -->
<g id="edge13" class="edge"><title>Node9&#45;&gt;Node17</title>
<path fill="none" stroke="midnightblue" d="M876.897,-115.995C894.992,-124.261 918.628,-134.698 940,-143 948.722,-146.388 958.118,-149.766 967.191,-152.893"/>
<polygon fill="midnightblue" stroke="midnightblue" points="878.011,-112.655 867.463,-111.654 875.084,-119.014 878.011,-112.655"/>
</g>
<!-- Node10&#45;&gt;Node7 -->
<g id="edge3" class="edge"><title>Node10&#45;&gt;Node7</title>
<path fill="none" stroke="midnightblue" d="M1087.14,-77.5322C1100.69,-78.9668 1114.72,-80.4525 1127.81,-81.8383"/>
<polygon fill="midnightblue" stroke="midnightblue" points="1087.21,-74.0201 1076.89,-76.4476 1086.47,-80.9811 1087.21,-74.0201"/>
</g>
<!-- Node11&#45;&gt;Node7 -->
<g id="edge5" class="edge"><title>Node11&#45;&gt;Node7</title>
<path fill="none" stroke="midnightblue" d="M1074.38,-39.2812C1079.69,-41.1397 1084.96,-43.0597 1090,-45 1111.99,-53.4612 1136.19,-64.3138 1154.8,-72.9991"/>
<polygon fill="midnightblue" stroke="midnightblue" points="1075.42,-35.9388 1064.82,-36.0111 1073.15,-42.5614 1075.42,-35.9388"/>
</g>
<!-- Node12 -->
<g id="node6" class="node"><title>Node12</title>
<g id="a_node6"><a xlink:href="structant_1_1analysis_1_1physics_1_1_etap_dalitz_tools.html" target="_top" xlink:title="ant::analysis::physics\l::EtapDalitzTools">
<polygon fill="white" stroke="black" points="790,-6 790,-36 902,-36 902,-6 790,-6"/>
<text text-anchor="start" x="798" y="-24" font-family="Helvetica,sans-Serif" font-size="10.00">ant::analysis::physics</text>
<text text-anchor="middle" x="846" y="-13" font-family="Helvetica,sans-Serif" font-size="10.00">::EtapDalitzTools</text>
</a>
</g>
</g>
<!-- Node12&#45;&gt;Node11 -->
<g id="edge7" class="edge"><title>Node12&#45;&gt;Node11</title>
<path fill="none" stroke="midnightblue" d="M912.381,-21C921.585,-21 931.098,-21 940.443,-21"/>
<polygon fill="midnightblue" stroke="midnightblue" points="912.145,-17.5001 902.145,-21 912.145,-24.5001 912.145,-17.5001"/>
</g>
<!-- Node13 -->
<g id="node7" class="node"><title>Node13</title>
<g id="a_node7"><a xlink:href="structant_1_1analysis_1_1utils_1_1_cluster_tools.html" target="_top" xlink:title="ant::analysis::utils\l::ClusterTools">
<polygon fill="white" stroke="black" points="604,-6 604,-36 700,-36 700,-6 604,-6"/>
<text text-anchor="start" x="612" y="-24" font-family="Helvetica,sans-Serif" font-size="10.00">ant::analysis::utils</text>
<text text-anchor="middle" x="652" y="-13" font-family="Helvetica,sans-Serif" font-size="10.00">::ClusterTools</text>
</a>
</g>
</g>
<!-- Node13&#45;&gt;Node12 -->
<g id="edge8" class="edge"><title>Node13&#45;&gt;Node12</title>
<path fill="none" stroke="#9a32cd" stroke-dasharray="5,2" d="M710.589,-21C735.729,-21 765.077,-21 789.924,-21"/>
<polygon fill="#9a32cd" stroke="#9a32cd" points="710.461,-17.5001 700.461,-21 710.461,-24.5001 710.461,-17.5001"/>
<text text-anchor="middle" x="745" y="-24" font-family="Helvetica,sans-Serif" font-size="10.00"> clustertools</text>
</g>
<!-- Node14 -->
<g id="node8" class="node"><title>Node14</title>
<polygon fill="white" stroke="#bfbfbf" points="348.5,-0.5 348.5,-41.5 487.5,-41.5 487.5,-0.5 348.5,-0.5"/>
<text text-anchor="start" x="356.5" y="-29.5" font-family="Helvetica,sans-Serif" font-size="10.00">std::map&lt; Detector</text>
<text text-anchor="start" x="356.5" y="-18.5" font-family="Helvetica,sans-Serif" font-size="10.00">_t::Type_t, ant::analysis</text>
<text text-anchor="middle" x="418" y="-7.5" font-family="Helvetica,sans-Serif" font-size="10.00">::utils::ClusterTools::det_t &gt;</text>
</g>
<!-- Node14&#45;&gt;Node13 -->
<g id="edge9" class="edge"><title>Node14&#45;&gt;Node13</title>
<path fill="none" stroke="#9a32cd" stroke-dasharray="5,2" d="M497.927,-21C533.129,-21 573.421,-21 603.829,-21"/>
<polygon fill="#9a32cd" stroke="#9a32cd" points="497.666,-17.5001 487.666,-21 497.666,-24.5001 497.666,-17.5001"/>
<text text-anchor="middle" x="546" y="-24" font-family="Helvetica,sans-Serif" font-size="10.00"> cluster_detectors</text>
</g>
<!-- Node15 -->
<g id="node9" class="node"><title>Node15</title>
<g id="a_node9"><a xlink:href="structant_1_1analysis_1_1utils_1_1_cluster_tools_1_1det__t.html" target="_top" xlink:title="ant::analysis::utils\l::ClusterTools::det_t">
<polygon fill="white" stroke="black" points="162,-6 162,-36 268,-36 268,-6 162,-6"/>
<text text-anchor="start" x="170" y="-24" font-family="Helvetica,sans-Serif" font-size="10.00">ant::analysis::utils</text>
<text text-anchor="middle" x="215" y="-13" font-family="Helvetica,sans-Serif" font-size="10.00">::ClusterTools::det_t</text>
</a>
</g>
</g>
<!-- Node15&#45;&gt;Node14 -->
<g id="edge10" class="edge"><title>Node15&#45;&gt;Node14</title>
<path fill="none" stroke="#9a32cd" stroke-dasharray="5,2" d="M278.304,-21C300.444,-21 325.49,-21 348.147,-21"/>
<polygon fill="#9a32cd" stroke="#9a32cd" points="278.024,-17.5001 268.024,-21 278.024,-24.5001 278.024,-17.5001"/>
<text text-anchor="middle" x="308" y="-24" font-family="Helvetica,sans-Serif" font-size="10.00"> elements</text>
</g>
<!-- Node16 -->
<g id="node10" class="node"><title>Node16</title>
<polygon fill="white" stroke="#bfbfbf" points="0,-11.5 0,-30.5 110,-30.5 110,-11.5 0,-11.5"/>
<text text-anchor="middle" x="55" y="-18.5" font-family="Helvetica,sans-Serif" font-size="10.00">std::vector&lt; double &gt;</text>
</g>
<!-- Node16&#45;&gt;Node15 -->
<g id="edge11" class="edge"><title>Node16&#45;&gt;Node15</title>
<path fill="none" stroke="#9a32cd" stroke-dasharray="5,2" d="M120.72,-21C134.437,-21 148.748,-21 161.925,-21"/>
<polygon fill="#9a32cd" stroke="#9a32cd" points="120.375,-17.5001 110.375,-21 120.375,-24.5001 120.375,-17.5001"/>
<text text-anchor="middle" x="136" y="-24" font-family="Helvetica,sans-Serif" font-size="10.00"> R0</text>
</g>
<!-- Node17&#45;&gt;Node7 -->
<g id="edge12" class="edge"><title>Node17&#45;&gt;Node7</title>
<path fill="none" stroke="midnightblue" d="M1074.58,-149.396C1079.85,-147.368 1085.05,-145.227 1090,-143 1115.75,-131.408 1143.58,-114.994 1162.61,-103.118"/>
<polygon fill="midnightblue" stroke="midnightblue" points="1073.24,-146.16 1065.08,-152.919 1075.68,-152.723 1073.24,-146.16"/>
</g>
</g>
</svg>
