<?xml version="1.0" encoding="UTF-8" standalone="no"?>
<!DOCTYPE svg PUBLIC "-//W3C//DTD SVG 1.1//EN"
 "http://www.w3.org/Graphics/SVG/1.1/DTD/svg11.dtd">
<!-- Generated by graphviz version 2.36.0 (20140111.2315)
 -->
<!-- Title: PlutoAction Pages: 1 -->
<svg width="150pt" height="238pt"
 viewBox="0.00 0.00 150.00 238.00" xmlns="http://www.w3.org/2000/svg" xmlns:xlink="http://www.w3.org/1999/xlink">
<g id="graph0" class="graph" transform="scale(1 1) rotate(0) translate(4 234)">
<title>PlutoAction</title>
<polygon fill="white" stroke="none" points="-4,4 -4,-234 146,-234 146,4 -4,4"/>
<!-- Node2 -->
<g id="node1" class="node"><title>Node2</title>
<polygon fill="#bfbfbf" stroke="black" points="23.5,-0.5 23.5,-19.5 90.5,-19.5 90.5,-0.5 23.5,-0.5"/>
<text text-anchor="middle" x="57" y="-7.5" font-family="Helvetica,sans-Serif" font-size="10.00">PlutoAction</text>
</g>
<!-- Node3 -->
<g id="node2" class="node"><title>Node3</title>
<g id="a_node2"><a xlink:href="struct_mc_action.html" target="_top" xlink:title="McAction">
<polygon fill="white" stroke="black" points="84,-65.5 84,-84.5 142,-84.5 142,-65.5 84,-65.5"/>
<text text-anchor="middle" x="113" y="-72.5" font-family="Helvetica,sans-Serif" font-size="10.00">McAction</text>
</a>
</g>
</g>
<!-- Node3&#45;&gt;Node2 -->
<g id="edge1" class="edge"><title>Node3&#45;&gt;Node2</title>
<path fill="none" stroke="midnightblue" d="M98.4174,-57.5946C87.6384,-45.4682 73.385,-29.4331 64.7204,-19.6855"/>
<polygon fill="midnightblue" stroke="midnightblue" points="95.9538,-60.0913 105.213,-65.2401 101.186,-55.4407 95.9538,-60.0913"/>
</g>
<!-- Node4 -->
<g id="node3" class="node"><title>Node4</title>
<g id="a_node3"><a xlink:title="STL class. ">
<polygon fill="white" stroke="#bfbfbf" points="17,-140.5 17,-159.5 77,-159.5 77,-140.5 17,-140.5"/>
<text text-anchor="middle" x="47" y="-147.5" font-family="Helvetica,sans-Serif" font-size="10.00">std::string</text>
</a>
</g>
</g>
<!-- Node4&#45;&gt;Node2 -->
<g id="edge4" class="edge"><title>Node4&#45;&gt;Node2</title>
<path fill="none" stroke="#9a32cd" stroke-dasharray="5,2" d="M42.873,-130.394C39.4038,-111.91 35.65,-82.8156 40,-58 42.4271,-44.1542 48.5901,-29.0108 52.7888,-19.7566"/>
<polygon fill="#9a32cd" stroke="#9a32cd" points="39.4868,-131.305 44.9213,-140.4 46.3445,-129.901 39.4868,-131.305"/>
<text text-anchor="middle" x="57.5" y="-83.5" font-family="Helvetica,sans-Serif" font-size="10.00"> target</text>
<text text-anchor="middle" x="57.5" y="-72.5" font-family="Helvetica,sans-Serif" font-size="10.00">reaction</text>
<text text-anchor="middle" x="57.5" y="-61.5" font-family="Helvetica,sans-Serif" font-size="10.00">beam</text>
</g>
<!-- Node4&#45;&gt;Node3 -->
<g id="edge2" class="edge"><title>Node4&#45;&gt;Node3</title>
<path fill="none" stroke="#9a32cd" stroke-dasharray="5,2" d="M61.5881,-132.865C75.0307,-117.996 94.4679,-96.4976 105.18,-84.6495"/>
<polygon fill="#9a32cd" stroke="#9a32cd" points="58.9405,-130.574 54.8302,-140.339 64.133,-135.269 58.9405,-130.574"/>
<text text-anchor="middle" x="96" y="-113.5" font-family="Helvetica,sans-Serif" font-size="10.00"> outfile</text>
</g>
<!-- Node5 -->
<g id="node4" class="node"><title>Node5</title>
<g id="a_node4"><a xlink:title="STL class. ">
<polygon fill="white" stroke="#bfbfbf" points="-0.5,-199 -0.5,-229 94.5,-229 94.5,-199 -0.5,-199"/>
<text text-anchor="start" x="7.5" y="-217" font-family="Helvetica,sans-Serif" font-size="10.00">std::basic_string&lt;</text>
<text text-anchor="middle" x="47" y="-206" font-family="Helvetica,sans-Serif" font-size="10.00"> char &gt;</text>
</a>
</g>
</g>
<!-- Node5&#45;&gt;Node4 -->
<g id="edge3" class="edge"><title>Node5&#45;&gt;Node4</title>
<path fill="none" stroke="midnightblue" d="M47,-188.871C47,-178.663 47,-167.408 47,-159.842"/>
<polygon fill="midnightblue" stroke="midnightblue" points="43.5001,-188.931 47,-198.931 50.5001,-188.931 43.5001,-188.931"/>
</g>
</g>
</svg>
