<?xml version="1.0" encoding="UTF-8" standalone="no"?>
<!DOCTYPE svg PUBLIC "-//W3C//DTD SVG 1.1//EN"
 "http://www.w3.org/Graphics/SVG/1.1/DTD/svg11.dtd">
<!-- Generated by graphviz version 2.36.0 (20140111.2315)
 -->
<!-- Title: Hist_t&lt; Tree_t &gt;::HistMgr&lt; Hist &gt; Pages: 1 -->
<svg width="136pt" height="108pt"
 viewBox="0.00 0.00 136.00 108.00" xmlns="http://www.w3.org/2000/svg" xmlns:xlink="http://www.w3.org/1999/xlink">
<g id="graph0" class="graph" transform="scale(1 1) rotate(0) translate(4 104)">
<title>Hist_t&lt; Tree_t &gt;::HistMgr&lt; Hist &gt;</title>
<polygon fill="white" stroke="none" points="-4,4 -4,-104 132,-104 132,4 -4,4"/>
<!-- Node0 -->
<g id="node1" class="node"><title>Node0</title>
<polygon fill="#bfbfbf" stroke="black" points="-0.5,-1 -0.5,-31 128.5,-31 128.5,-1 -0.5,-1"/>
<text text-anchor="start" x="7.5" y="-19" font-family="Helvetica,sans-Serif" font-size="10.00">Hist_t&lt; Tree_t &gt;::HistMgr</text>
<text text-anchor="middle" x="64" y="-8" font-family="Helvetica,sans-Serif" font-size="10.00">&lt; Hist &gt;</text>
</g>
<!-- Node1 -->
<g id="node2" class="node"><title>Node1</title>
<g id="a_node2"><a xlink:title="STL class. ">
<polygon fill="white" stroke="#bfbfbf" points="15.5,-69 15.5,-99 112.5,-99 112.5,-69 15.5,-69"/>
<text text-anchor="start" x="23.5" y="-87" font-family="Helvetica,sans-Serif" font-size="10.00">std::list&lt; HistFiller</text>
<text text-anchor="middle" x="64" y="-76" font-family="Helvetica,sans-Serif" font-size="10.00">_t&lt; Hist &gt; &gt;</text>
</a>
</g>
</g>
<!-- Node1&#45;&gt;Node0 -->
<g id="edge1" class="edge"><title>Node1&#45;&gt;Node0</title>
<path fill="none" stroke="midnightblue" d="M57.4547,-58.5322C57.0055,-49.3606 57.2957,-39.2449 58.3252,-31.2931"/>
<polygon fill="midnightblue" stroke="midnightblue" points="53.9829,-59.0133 58.3216,-68.679 60.9575,-58.4173 53.9829,-59.0133"/>
</g>
<!-- Node1&#45;&gt;Node0 -->
<g id="edge2" class="edge"><title>Node1&#45;&gt;Node0</title>
<path fill="none" stroke="midnightblue" d="M70.5453,-58.5322C70.9945,-49.3606 70.7043,-39.2449 69.6748,-31.2931"/>
<polygon fill="midnightblue" stroke="midnightblue" points="67.0425,-58.4173 69.6784,-68.679 74.0171,-59.0133 67.0425,-58.4173"/>
</g>
</g>
</svg>
