<?xml version="1.0" encoding="UTF-8" standalone="no"?>
<!DOCTYPE svg PUBLIC "-//W3C//DTD SVG 1.1//EN"
 "http://www.w3.org/Graphics/SVG/1.1/DTD/svg11.dtd">
<!-- Generated by graphviz version 2.36.0 (20140111.2315)
 -->
<!-- Title: ant::calibration::gui::AvgBuffer_SavitzkyGolay&lt; AvgBufferItem &gt;::buffer_t Pages: 1 -->
<svg width="144pt" height="176pt"
 viewBox="0.00 0.00 144.00 176.00" xmlns="http://www.w3.org/2000/svg" xmlns:xlink="http://www.w3.org/1999/xlink">
<g id="graph0" class="graph" transform="scale(1 1) rotate(0) translate(4 172)">
<title>ant::calibration::gui::AvgBuffer_SavitzkyGolay&lt; AvgBufferItem &gt;::buffer_t</title>
<polygon fill="white" stroke="none" points="-4,4 -4,-172 140,-172 140,4 -4,4"/>
<!-- Node2 -->
<g id="node1" class="node"><title>Node2</title>
<polygon fill="#bfbfbf" stroke="black" points="-0.5,-0.5 -0.5,-41.5 136.5,-41.5 136.5,-0.5 -0.5,-0.5"/>
<text text-anchor="start" x="7.5" y="-29.5" font-family="Helvetica,sans-Serif" font-size="10.00">ant::calibration::gui</text>
<text text-anchor="start" x="7.5" y="-18.5" font-family="Helvetica,sans-Serif" font-size="10.00">::AvgBuffer_SavitzkyGolay</text>
<text text-anchor="middle" x="68" y="-7.5" font-family="Helvetica,sans-Serif" font-size="10.00">&lt; AvgBufferItem &gt;::buffer_t</text>
</g>
<!-- Node3 -->
<g id="node2" class="node"><title>Node3</title>
<g id="a_node2"><a xlink:title="STL class. ">
<polygon fill="white" stroke="#bfbfbf" points="8.5,-80.5 8.5,-99.5 127.5,-99.5 127.5,-80.5 8.5,-80.5"/>
<text text-anchor="middle" x="68" y="-87.5" font-family="Helvetica,sans-Serif" font-size="10.00">std::list&lt; buffer_entry &gt;</text>
</a>
</g>
</g>
<!-- Node3&#45;&gt;Node2 -->
<g id="edge1" class="edge"><title>Node3&#45;&gt;Node2</title>
<path fill="none" stroke="midnightblue" d="M68,-70.1738C68,-61.3082 68,-50.7339 68,-41.754"/>
<polygon fill="midnightblue" stroke="midnightblue" points="64.5001,-70.2409 68,-80.2409 71.5001,-70.241 64.5001,-70.2409"/>
</g>
<!-- Node4 -->
<g id="node3" class="node"><title>Node4</title>
<polygon fill="white" stroke="#bfbfbf" points="53.5,-148.5 53.5,-167.5 82.5,-167.5 82.5,-148.5 53.5,-148.5"/>
<text text-anchor="middle" x="68" y="-155.5" font-family="Helvetica,sans-Serif" font-size="10.00">T</text>
</g>
<!-- Node4&#45;&gt;Node3 -->
<g id="edge2" class="edge"><title>Node4&#45;&gt;Node3</title>
<path fill="none" stroke="#9a32cd" stroke-dasharray="5,2" d="M68,-138.041C68,-125.472 68,-109.563 68,-99.8411"/>
<polygon fill="#9a32cd" stroke="#9a32cd" points="64.5001,-138.372 68,-148.372 71.5001,-138.372 64.5001,-138.372"/>
<text text-anchor="middle" x="89.5" y="-121.5" font-family="Helvetica,sans-Serif" font-size="10.00"> elements</text>
</g>
</g>
</svg>
