<?xml version="1.0" encoding="UTF-8" standalone="no"?>
<!DOCTYPE svg PUBLIC "-//W3C//DTD SVG 1.1//EN"
 "http://www.w3.org/Graphics/SVG/1.1/DTD/svg11.dtd">
<!-- Generated by graphviz version 2.36.0 (20140111.2315)
 -->
<!-- Title: ant::analysis::utils::UncertaintyModels::Interpolated Pages: 1 -->
<svg width="932pt" height="162pt"
 viewBox="0.00 0.00 932.00 162.00" xmlns="http://www.w3.org/2000/svg" xmlns:xlink="http://www.w3.org/1999/xlink">
<g id="graph0" class="graph" transform="scale(1 1) rotate(0) translate(4 158)">
<title>ant::analysis::utils::UncertaintyModels::Interpolated</title>
<polygon fill="white" stroke="none" points="-4,4 -4,-158 928,-158 928,4 -4,4"/>
<!-- Node2 -->
<g id="node1" class="node"><title>Node2</title>
<polygon fill="#bfbfbf" stroke="black" points="814,-64.5 814,-105.5 924,-105.5 924,-64.5 814,-64.5"/>
<text text-anchor="start" x="822" y="-93.5" font-family="Helvetica,sans-Serif" font-size="10.00">ant::analysis::utils</text>
<text text-anchor="start" x="822" y="-82.5" font-family="Helvetica,sans-Serif" font-size="10.00">::UncertaintyModels::</text>
<text text-anchor="middle" x="869" y="-71.5" font-family="Helvetica,sans-Serif" font-size="10.00">Interpolated</text>
</g>
<!-- Node3 -->
<g id="node2" class="node"><title>Node3</title>
<g id="a_node2"><a xlink:href="classant_1_1analysis_1_1utils_1_1_uncertainty_model.html" target="_top" xlink:title="Virtual base class for different Uncertainty Models for fitter. Implement at least the GetSigmas() me...">
<polygon fill="white" stroke="black" points="606.5,-124 606.5,-154 705.5,-154 705.5,-124 606.5,-124"/>
<text text-anchor="start" x="614.5" y="-142" font-family="Helvetica,sans-Serif" font-size="10.00">ant::analysis::utils</text>
<text text-anchor="middle" x="656" y="-131" font-family="Helvetica,sans-Serif" font-size="10.00">::UncertaintyModel</text>
</a>
</g>
</g>
<!-- Node3&#45;&gt;Node2 -->
<g id="edge1" class="edge"><title>Node3&#45;&gt;Node2</title>
<path fill="none" stroke="midnightblue" d="M715.711,-129.164C740.664,-124.472 769.954,-118.283 796,-111 801.76,-109.389 807.719,-107.542 813.63,-105.59"/>
<polygon fill="midnightblue" stroke="midnightblue" points="714.862,-125.761 705.663,-131.017 716.132,-132.645 714.862,-125.761"/>
</g>
<!-- Node4 -->
<g id="node3" class="node"><title>Node4</title>
<g id="a_node3"><a xlink:href="structant_1_1analysis_1_1utils_1_1_uncertainty_models_1_1_interpolated_1_1_ek_theta_phi_r.html" target="_top" xlink:title="ant::analysis::utils\l::UncertaintyModels::\lInterpolated::EkThetaPhiR">
<polygon fill="white" stroke="black" points="590,-64.5 590,-105.5 722,-105.5 722,-64.5 590,-64.5"/>
<text text-anchor="start" x="598" y="-93.5" font-family="Helvetica,sans-Serif" font-size="10.00">ant::analysis::utils</text>
<text text-anchor="start" x="598" y="-82.5" font-family="Helvetica,sans-Serif" font-size="10.00">::UncertaintyModels::</text>
<text text-anchor="middle" x="656" y="-71.5" font-family="Helvetica,sans-Serif" font-size="10.00">Interpolated::EkThetaPhiR</text>
</a>
</g>
</g>
<!-- Node4&#45;&gt;Node2 -->
<g id="edge2" class="edge"><title>Node4&#45;&gt;Node2</title>
<path fill="none" stroke="#9a32cd" stroke-dasharray="5,2" d="M732.202,-85C759.159,-85 788.999,-85 813.826,-85"/>
<polygon fill="#9a32cd" stroke="#9a32cd" points="732.029,-81.5001 722.029,-85 732.029,-88.5001 732.029,-81.5001"/>
<text text-anchor="middle" x="768" y="-99" font-family="Helvetica,sans-Serif" font-size="10.00"> cb_photon</text>
<text text-anchor="middle" x="768" y="-88" font-family="Helvetica,sans-Serif" font-size="10.00">cb_proton</text>
</g>
<!-- Node5 -->
<g id="node4" class="node"><title>Node5</title>
<g id="a_node4"><a xlink:href="structant_1_1_clipped_interpolator_wrapper.html" target="_top" xlink:title="ant::ClippedInterpolator\lWrapper">
<polygon fill="white" stroke="black" points="376,-36 376,-66 494,-66 494,-36 376,-36"/>
<text text-anchor="start" x="384" y="-54" font-family="Helvetica,sans-Serif" font-size="10.00">ant::ClippedInterpolator</text>
<text text-anchor="middle" x="435" y="-43" font-family="Helvetica,sans-Serif" font-size="10.00">Wrapper</text>
</a>
</g>
</g>
<!-- Node5&#45;&gt;Node4 -->
<g id="edge3" class="edge"><title>Node5&#45;&gt;Node4</title>
<path fill="none" stroke="#9a32cd" stroke-dasharray="5,2" d="M504.372,-66.6351C506.944,-67.1145 509.493,-67.5717 512,-68 537.26,-72.3151 565.217,-75.9001 589.662,-78.6479"/>
<polygon fill="#9a32cd" stroke="#9a32cd" points="504.871,-63.1664 494.386,-64.6891 503.532,-70.0372 504.871,-63.1664"/>
<text text-anchor="middle" x="542" y="-124" font-family="Helvetica,sans-Serif" font-size="10.00"> CB_R</text>
<text text-anchor="middle" x="542" y="-113" font-family="Helvetica,sans-Serif" font-size="10.00">Ek</text>
<text text-anchor="middle" x="542" y="-102" font-family="Helvetica,sans-Serif" font-size="10.00">ShowerDepth</text>
<text text-anchor="middle" x="542" y="-91" font-family="Helvetica,sans-Serif" font-size="10.00">Theta</text>
<text text-anchor="middle" x="542" y="-80" font-family="Helvetica,sans-Serif" font-size="10.00">Phi</text>
</g>
<!-- Node10 -->
<g id="node9" class="node"><title>Node10</title>
<g id="a_node9"><a xlink:href="structant_1_1analysis_1_1utils_1_1_uncertainty_models_1_1_interpolated_1_1_ek_rxy_phi_l.html" target="_top" xlink:title="ant::analysis::utils\l::UncertaintyModels::\lInterpolated::EkRxyPhiL">
<polygon fill="white" stroke="black" points="594.5,-0.5 594.5,-41.5 717.5,-41.5 717.5,-0.5 594.5,-0.5"/>
<text text-anchor="start" x="602.5" y="-29.5" font-family="Helvetica,sans-Serif" font-size="10.00">ant::analysis::utils</text>
<text text-anchor="start" x="602.5" y="-18.5" font-family="Helvetica,sans-Serif" font-size="10.00">::UncertaintyModels::</text>
<text text-anchor="middle" x="656" y="-7.5" font-family="Helvetica,sans-Serif" font-size="10.00">Interpolated::EkRxyPhiL</text>
</a>
</g>
</g>
<!-- Node5&#45;&gt;Node10 -->
<g id="edge9" class="edge"><title>Node5&#45;&gt;Node10</title>
<path fill="none" stroke="#9a32cd" stroke-dasharray="5,2" d="M468.243,-30.7319C481.309,-23.6464 496.865,-16.5728 512,-13 538.62,-6.71586 568.766,-7.3092 594.492,-10.0299"/>
<polygon fill="#9a32cd" stroke="#9a32cd" points="466.191,-27.8719 459.212,-35.8435 469.639,-33.9639 466.191,-27.8719"/>
<text text-anchor="middle" x="542" y="-60" font-family="Helvetica,sans-Serif" font-size="10.00"> TAPS_Rxy</text>
<text text-anchor="middle" x="542" y="-49" font-family="Helvetica,sans-Serif" font-size="10.00">Ek</text>
<text text-anchor="middle" x="542" y="-38" font-family="Helvetica,sans-Serif" font-size="10.00">ShowerDepth</text>
<text text-anchor="middle" x="542" y="-27" font-family="Helvetica,sans-Serif" font-size="10.00">Phi</text>
<text text-anchor="middle" x="542" y="-16" font-family="Helvetica,sans-Serif" font-size="10.00">TAPS_L</text>
</g>
<!-- Node6 -->
<g id="node5" class="node"><title>Node6</title>
<polygon fill="white" stroke="#bfbfbf" points="185,-60 185,-90 299,-90 299,-60 185,-60"/>
<text text-anchor="start" x="193" y="-78" font-family="Helvetica,sans-Serif" font-size="10.00">std::unique_ptr&lt; const</text>
<text text-anchor="middle" x="242" y="-67" font-family="Helvetica,sans-Serif" font-size="10.00"> ant::Interpolator2D &gt;</text>
</g>
<!-- Node6&#45;&gt;Node5 -->
<g id="edge4" class="edge"><title>Node6&#45;&gt;Node5</title>
<path fill="none" stroke="#9a32cd" stroke-dasharray="5,2" d="M309.158,-66.6869C330.905,-63.9543 354.901,-60.9392 375.995,-58.2886"/>
<polygon fill="#9a32cd" stroke="#9a32cd" points="308.501,-63.2419 299.016,-67.9614 309.374,-70.1872 308.501,-63.2419"/>
<text text-anchor="middle" x="341" y="-68" font-family="Helvetica,sans-Serif" font-size="10.00"> interp</text>
</g>
<!-- Node7 -->
<g id="node6" class="node"><title>Node7</title>
<g id="a_node6"><a xlink:href="classant_1_1_interpolator2_d.html" target="_top" xlink:title="ant::Interpolator2D">
<polygon fill="white" stroke="black" points="8,-65.5 8,-84.5 106,-84.5 106,-65.5 8,-65.5"/>
<text text-anchor="middle" x="57" y="-72.5" font-family="Helvetica,sans-Serif" font-size="10.00">ant::Interpolator2D</text>
</a>
</g>
</g>
<!-- Node7&#45;&gt;Node6 -->
<g id="edge5" class="edge"><title>Node7&#45;&gt;Node6</title>
<path fill="none" stroke="#9a32cd" stroke-dasharray="5,2" d="M116.254,-75C138.185,-75 163.064,-75 184.804,-75"/>
<polygon fill="#9a32cd" stroke="#9a32cd" points="116.081,-71.5001 106.081,-75 116.081,-78.5001 116.081,-71.5001"/>
<text text-anchor="middle" x="146" y="-78" font-family="Helvetica,sans-Serif" font-size="10.00"> ptr</text>
</g>
<!-- Node8 -->
<g id="node7" class="node"><title>Node8</title>
<g id="a_node7"><a xlink:href="structant_1_1_clipped_interpolator_wrapper_1_1bounds_check__t.html" target="_top" xlink:title="ant::ClippedInterpolator\lWrapper::boundsCheck_t">
<polygon fill="white" stroke="black" points="178,-11 178,-41 306,-41 306,-11 178,-11"/>
<text text-anchor="start" x="186" y="-29" font-family="Helvetica,sans-Serif" font-size="10.00">ant::ClippedInterpolator</text>
<text text-anchor="middle" x="242" y="-18" font-family="Helvetica,sans-Serif" font-size="10.00">Wrapper::boundsCheck_t</text>
</a>
</g>
</g>
<!-- Node8&#45;&gt;Node5 -->
<g id="edge6" class="edge"><title>Node8&#45;&gt;Node5</title>
<path fill="none" stroke="#9a32cd" stroke-dasharray="5,2" d="M316.163,-30.297C330.09,-31.5187 344.521,-33.0621 358,-35 363.739,-35.8251 369.694,-36.8245 375.631,-37.9163"/>
<polygon fill="#9a32cd" stroke="#9a32cd" points="316.387,-26.8036 306.131,-29.4632 315.807,-33.7796 316.387,-26.8036"/>
<text text-anchor="middle" x="341" y="-49" font-family="Helvetica,sans-Serif" font-size="10.00"> yrange</text>
<text text-anchor="middle" x="341" y="-38" font-family="Helvetica,sans-Serif" font-size="10.00">xrange</text>
</g>
<!-- Node9 -->
<g id="node8" class="node"><title>Node9</title>
<g id="a_node8"><a xlink:href="classant_1_1interval.html" target="_top" xlink:title="ant::interval\&lt; double \&gt;">
<polygon fill="white" stroke="black" points="0,-16.5 0,-35.5 114,-35.5 114,-16.5 0,-16.5"/>
<text text-anchor="middle" x="57" y="-23.5" font-family="Helvetica,sans-Serif" font-size="10.00">ant::interval&lt; double &gt;</text>
</a>
</g>
</g>
<!-- Node9&#45;&gt;Node8 -->
<g id="edge7" class="edge"><title>Node9&#45;&gt;Node8</title>
<path fill="none" stroke="#9a32cd" stroke-dasharray="5,2" d="M124.465,-26C141.853,-26 160.548,-26 177.763,-26"/>
<polygon fill="#9a32cd" stroke="#9a32cd" points="124.399,-22.5001 114.399,-26 124.399,-29.5001 124.399,-22.5001"/>
<text text-anchor="middle" x="146" y="-29" font-family="Helvetica,sans-Serif" font-size="10.00"> range</text>
</g>
<!-- Node10&#45;&gt;Node2 -->
<g id="edge8" class="edge"><title>Node10&#45;&gt;Node2</title>
<path fill="none" stroke="#9a32cd" stroke-dasharray="5,2" d="M727.469,-39.0962C749.521,-45.0713 773.87,-51.9915 796,-59 801.828,-60.8457 807.886,-62.8676 813.904,-64.9428"/>
<polygon fill="#9a32cd" stroke="#9a32cd" points="728.081,-35.6364 717.515,-36.4204 726.264,-42.3964 728.081,-35.6364"/>
<text text-anchor="middle" x="768" y="-73" font-family="Helvetica,sans-Serif" font-size="10.00"> taps_proton</text>
<text text-anchor="middle" x="768" y="-62" font-family="Helvetica,sans-Serif" font-size="10.00">taps_photon</text>
</g>
</g>
</svg>
