<?xml version="1.0" encoding="UTF-8" standalone="no"?>
<!DOCTYPE svg PUBLIC "-//W3C//DTD SVG 1.1//EN"
 "http://www.w3.org/Graphics/SVG/1.1/DTD/svg11.dtd">
<!-- Generated by graphviz version 2.36.0 (20140111.2315)
 -->
<!-- Title: ant::analysis::utils::ProtonPhotonCombs::comb_t Pages: 1 -->
<svg width="554pt" height="119pt"
 viewBox="0.00 0.00 554.00 119.00" xmlns="http://www.w3.org/2000/svg" xmlns:xlink="http://www.w3.org/1999/xlink">
<g id="graph0" class="graph" transform="scale(1 1) rotate(0) translate(4 115)">
<title>ant::analysis::utils::ProtonPhotonCombs::comb_t</title>
<polygon fill="white" stroke="none" points="-4,4 -4,-115 550,-115 550,4 -4,4"/>
<!-- Node1 -->
<g id="node1" class="node"><title>Node1</title>
<polygon fill="#bfbfbf" stroke="black" points="426.5,-31.5 426.5,-72.5 545.5,-72.5 545.5,-31.5 426.5,-31.5"/>
<text text-anchor="start" x="434.5" y="-60.5" font-family="Helvetica,sans-Serif" font-size="10.00">ant::analysis::utils</text>
<text text-anchor="start" x="434.5" y="-49.5" font-family="Helvetica,sans-Serif" font-size="10.00">::ProtonPhotonCombs::</text>
<text text-anchor="middle" x="486" y="-38.5" font-family="Helvetica,sans-Serif" font-size="10.00">comb_t</text>
</g>
<!-- Node2 -->
<g id="node2" class="node"><title>Node2</title>
<g id="a_node2"><a xlink:href="structant_1_1std__ext_1_1cc__shared__ptr.html" target="_top" xlink:title="ant::std_ext::cc_shared\l_ptr\&lt; TParticle \&gt;">
<polygon fill="white" stroke="black" points="207.5,-81 207.5,-111 326.5,-111 326.5,-81 207.5,-81"/>
<text text-anchor="start" x="215.5" y="-99" font-family="Helvetica,sans-Serif" font-size="10.00">ant::std_ext::cc_shared</text>
<text text-anchor="middle" x="267" y="-88" font-family="Helvetica,sans-Serif" font-size="10.00">_ptr&lt; TParticle &gt;</text>
</a>
</g>
</g>
<!-- Node2&#45;&gt;Node1 -->
<g id="edge1" class="edge"><title>Node2&#45;&gt;Node1</title>
<path fill="none" stroke="#9a32cd" stroke-dasharray="5,2" d="M336.706,-82.0688C365.486,-76.2332 398.603,-69.5184 426.23,-63.9166"/>
<polygon fill="#9a32cd" stroke="#9a32cd" points="335.828,-78.6755 326.723,-84.093 337.219,-85.5359 335.828,-78.6755"/>
<text text-anchor="middle" x="380" y="-80" font-family="Helvetica,sans-Serif" font-size="10.00"> Proton</text>
</g>
<!-- Node3 -->
<g id="node3" class="node"><title>Node3</title>
<polygon fill="white" stroke="#bfbfbf" points="200.5,-42.5 200.5,-61.5 333.5,-61.5 333.5,-42.5 200.5,-42.5"/>
<text text-anchor="middle" x="267" y="-49.5" font-family="Helvetica,sans-Serif" font-size="10.00">std::vector&lt; TParticlePtr &gt;</text>
</g>
<!-- Node3&#45;&gt;Node1 -->
<g id="edge2" class="edge"><title>Node3&#45;&gt;Node1</title>
<path fill="none" stroke="#9a32cd" stroke-dasharray="5,2" d="M343.878,-52C370.865,-52 400.82,-52 426.165,-52"/>
<polygon fill="#9a32cd" stroke="#9a32cd" points="343.696,-48.5001 333.696,-52 343.696,-55.5001 343.696,-48.5001"/>
<text text-anchor="middle" x="380" y="-55" font-family="Helvetica,sans-Serif" font-size="10.00"> Photons</text>
</g>
<!-- Node4 -->
<g id="node4" class="node"><title>Node4</title>
<g id="a_node4"><a xlink:href="structant_1_1std__ext_1_1cc__shared__ptr.html" target="_top" xlink:title="ant::std_ext::cc_shared\l_ptr\&lt; T \&gt;">
<polygon fill="white" stroke="black" points="0.5,-39 0.5,-69 119.5,-69 119.5,-39 0.5,-39"/>
<text text-anchor="start" x="8.5" y="-57" font-family="Helvetica,sans-Serif" font-size="10.00">ant::std_ext::cc_shared</text>
<text text-anchor="middle" x="60" y="-46" font-family="Helvetica,sans-Serif" font-size="10.00">_ptr&lt; T &gt;</text>
</a>
</g>
</g>
<!-- Node4&#45;&gt;Node3 -->
<g id="edge3" class="edge"><title>Node4&#45;&gt;Node3</title>
<path fill="none" stroke="#9a32cd" stroke-dasharray="5,2" d="M129.997,-53.3269C152.73,-53.1051 177.933,-52.8592 200.404,-52.64"/>
<polygon fill="#9a32cd" stroke="#9a32cd" points="129.71,-49.8294 119.745,-53.4269 129.778,-56.8291 129.71,-49.8294"/>
<text text-anchor="middle" x="160" y="-57" font-family="Helvetica,sans-Serif" font-size="10.00"> elements</text>
</g>
<!-- Node5 -->
<g id="node5" class="node"><title>Node5</title>
<g id="a_node5"><a xlink:href="structant_1_1_lorentz_vec.html" target="_top" xlink:title="A Lorentz vector (x,y,z,E), diag(&#45;1,&#45;1,&#45;1, 1) ">
<polygon fill="white" stroke="black" points="224,-3.5 224,-22.5 310,-22.5 310,-3.5 224,-3.5"/>
<text text-anchor="middle" x="267" y="-10.5" font-family="Helvetica,sans-Serif" font-size="10.00">ant::LorentzVec</text>
</a>
</g>
</g>
<!-- Node5&#45;&gt;Node1 -->
<g id="edge4" class="edge"><title>Node5&#45;&gt;Node1</title>
<path fill="none" stroke="#9a32cd" stroke-dasharray="5,2" d="M320.159,-21.6534C346.516,-26.0994 378.984,-31.6873 408,-37 413.895,-38.0792 420.037,-39.2306 426.169,-40.3974"/>
<polygon fill="#9a32cd" stroke="#9a32cd" points="320.45,-18.1532 310.008,-19.9465 319.289,-25.0563 320.45,-18.1532"/>
<text text-anchor="middle" x="380" y="-40" font-family="Helvetica,sans-Serif" font-size="10.00"> PhotonSum</text>
</g>
<!-- Node6 -->
<g id="node6" class="node"><title>Node6</title>
<g id="a_node6"><a xlink:href="structant_1_1vec3.html" target="_top" xlink:title="ant::vec3">
<polygon fill="white" stroke="black" points="31.5,-0.5 31.5,-19.5 88.5,-19.5 88.5,-0.5 31.5,-0.5"/>
<text text-anchor="middle" x="60" y="-7.5" font-family="Helvetica,sans-Serif" font-size="10.00">ant::vec3</text>
</a>
</g>
</g>
<!-- Node6&#45;&gt;Node5 -->
<g id="edge5" class="edge"><title>Node6&#45;&gt;Node5</title>
<path fill="none" stroke="#9a32cd" stroke-dasharray="5,2" d="M99.0505,-10.5568C134.479,-11.0753 187.194,-11.8467 223.877,-12.3836"/>
<polygon fill="#9a32cd" stroke="#9a32cd" points="98.6974,-7.05139 88.6472,-10.4046 98.5949,-14.0506 98.6974,-7.05139"/>
<text text-anchor="middle" x="160" y="-15" font-family="Helvetica,sans-Serif" font-size="10.00"> p</text>
</g>
</g>
</svg>
