<?xml version="1.0" encoding="UTF-8" standalone="no"?>
<!DOCTYPE svg PUBLIC "-//W3C//DTD SVG 1.1//EN"
 "http://www.w3.org/Graphics/SVG/1.1/DTD/svg11.dtd">
<!-- Generated by graphviz version 2.36.0 (20140111.2315)
 -->
<!-- Title: ant::calibration::DataBase::OnDiskLayout Pages: 1 -->
<svg width="248pt" height="268pt"
 viewBox="0.00 0.00 248.00 268.00" xmlns="http://www.w3.org/2000/svg" xmlns:xlink="http://www.w3.org/1999/xlink">
<g id="graph0" class="graph" transform="scale(1 1) rotate(0) translate(4 264)">
<title>ant::calibration::DataBase::OnDiskLayout</title>
<polygon fill="white" stroke="none" points="-4,4 -4,-264 244,-264 244,4 -4,4"/>
<!-- Node1 -->
<g id="node1" class="node"><title>Node1</title>
<polygon fill="#bfbfbf" stroke="black" points="37,-1 37,-31 167,-31 167,-1 37,-1"/>
<text text-anchor="start" x="45" y="-19" font-family="Helvetica,sans-Serif" font-size="10.00">ant::calibration::DataBase</text>
<text text-anchor="middle" x="102" y="-8" font-family="Helvetica,sans-Serif" font-size="10.00">::OnDiskLayout</text>
</g>
<!-- Node2 -->
<g id="node2" class="node"><title>Node2</title>
<polygon fill="white" stroke="#bfbfbf" points="0,-81 0,-111 110,-111 110,-81 0,-81"/>
<text text-anchor="start" x="8" y="-99" font-family="Helvetica,sans-Serif" font-size="10.00">std::map&lt; std::string,</text>
<text text-anchor="middle" x="55" y="-88" font-family="Helvetica,sans-Serif" font-size="10.00"> DataRanges_t &gt;</text>
</g>
<!-- Node2&#45;&gt;Node1 -->
<g id="edge1" class="edge"><title>Node2&#45;&gt;Node1</title>
<path fill="none" stroke="#9a32cd" stroke-dasharray="5,2" d="M55.5962,-70.3999C56.6002,-63.4579 58.5081,-56.132 62,-50 66.1877,-42.6462 72.6931,-36.2436 79.2495,-31.0851"/>
<polygon fill="#9a32cd" stroke="#9a32cd" points="52.0738,-70.4929 54.6648,-80.766 59.0457,-71.1193 52.0738,-70.4929"/>
<text text-anchor="middle" x="97" y="-53.5" font-family="Helvetica,sans-Serif" font-size="10.00"> cached_ranges</text>
</g>
<!-- Node3 -->
<g id="node3" class="node"><title>Node3</title>
<g id="a_node3"><a xlink:title="STL class. ">
<polygon fill="white" stroke="#bfbfbf" points="3.5,-160.5 3.5,-179.5 76.5,-179.5 76.5,-160.5 3.5,-160.5"/>
<text text-anchor="middle" x="40" y="-167.5" font-family="Helvetica,sans-Serif" font-size="10.00">std::list&lt; T &gt;</text>
</a>
</g>
</g>
<!-- Node3&#45;&gt;Node2 -->
<g id="edge2" class="edge"><title>Node3&#45;&gt;Node2</title>
<path fill="none" stroke="#9a32cd" stroke-dasharray="5,2" d="M39.0691,-149.836C39.1353,-143.464 39.6192,-136.371 41,-130 42.3973,-123.553 45.0377,-116.787 47.6523,-111.072"/>
<polygon fill="#9a32cd" stroke="#9a32cd" points="35.5782,-150.294 39.2975,-160.215 42.5765,-150.14 35.5782,-150.294"/>
<text text-anchor="middle" x="62.5" y="-133.5" font-family="Helvetica,sans-Serif" font-size="10.00"> elements</text>
</g>
<!-- Node4 -->
<g id="node4" class="node"><title>Node4</title>
<polygon fill="white" stroke="#bfbfbf" points="25.5,-234.5 25.5,-253.5 54.5,-253.5 54.5,-234.5 25.5,-234.5"/>
<text text-anchor="middle" x="40" y="-241.5" font-family="Helvetica,sans-Serif" font-size="10.00">T</text>
</g>
<!-- Node4&#45;&gt;Node3 -->
<g id="edge3" class="edge"><title>Node4&#45;&gt;Node3</title>
<path fill="none" stroke="#9a32cd" stroke-dasharray="5,2" d="M40,-224.156C40,-209.712 40,-190.459 40,-179.531"/>
<polygon fill="#9a32cd" stroke="#9a32cd" points="36.5001,-224.458 40,-234.458 43.5001,-224.458 36.5001,-224.458"/>
<text text-anchor="middle" x="61.5" y="-201.5" font-family="Helvetica,sans-Serif" font-size="10.00"> elements</text>
</g>
<!-- Node5 -->
<g id="node5" class="node"><title>Node5</title>
<g id="a_node5"><a xlink:title="STL class. ">
<polygon fill="white" stroke="#bfbfbf" points="105,-160.5 105,-179.5 165,-179.5 165,-160.5 105,-160.5"/>
<text text-anchor="middle" x="135" y="-167.5" font-family="Helvetica,sans-Serif" font-size="10.00">std::string</text>
</a>
</g>
</g>
<!-- Node5&#45;&gt;Node1 -->
<g id="edge6" class="edge"><title>Node5&#45;&gt;Node1</title>
<path fill="none" stroke="#9a32cd" stroke-dasharray="5,2" d="M138.424,-150.266C141.982,-126.118 145.351,-83.2818 132,-50 129.175,-42.9577 124.116,-36.4711 118.948,-31.1468"/>
<polygon fill="#9a32cd" stroke="#9a32cd" points="134.956,-149.785 136.786,-160.22 141.864,-150.922 134.956,-149.785"/>
<text text-anchor="middle" x="191" y="-93.5" font-family="Helvetica,sans-Serif" font-size="10.00"> CalibrationDataFolder</text>
</g>
<!-- Node5&#45;&gt;Node2 -->
<g id="edge4" class="edge"><title>Node5&#45;&gt;Node2</title>
<path fill="none" stroke="#9a32cd" stroke-dasharray="5,2" d="M118.035,-153.732C104.078,-141.17 84.4449,-123.5 70.8129,-111.232"/>
<polygon fill="#9a32cd" stroke="#9a32cd" points="115.734,-156.37 125.509,-160.458 120.417,-151.167 115.734,-156.37"/>
<text text-anchor="middle" x="117.5" y="-133.5" font-family="Helvetica,sans-Serif" font-size="10.00"> keys</text>
</g>
<!-- Node6 -->
<g id="node6" class="node"><title>Node6</title>
<g id="a_node6"><a xlink:title="STL class. ">
<polygon fill="white" stroke="#bfbfbf" points="87.5,-229 87.5,-259 182.5,-259 182.5,-229 87.5,-229"/>
<text text-anchor="start" x="95.5" y="-247" font-family="Helvetica,sans-Serif" font-size="10.00">std::basic_string&lt;</text>
<text text-anchor="middle" x="135" y="-236" font-family="Helvetica,sans-Serif" font-size="10.00"> char &gt;</text>
</a>
</g>
</g>
<!-- Node6&#45;&gt;Node5 -->
<g id="edge5" class="edge"><title>Node6&#45;&gt;Node5</title>
<path fill="none" stroke="midnightblue" d="M135,-218.688C135,-205.253 135,-189.38 135,-179.759"/>
<polygon fill="midnightblue" stroke="midnightblue" points="131.5,-218.775 135,-228.775 138.5,-218.775 131.5,-218.775"/>
</g>
</g>
</svg>
