<?xml version="1.0" encoding="UTF-8" standalone="no"?>
<!DOCTYPE svg PUBLIC "-//W3C//DTD SVG 1.1//EN"
 "http://www.w3.org/Graphics/SVG/1.1/DTD/svg11.dtd">
<!-- Generated by graphviz version 2.36.0 (20140111.2315)
 -->
<!-- Title: ant::TSlowControl Pages: 1 -->
<svg width="830pt" height="175pt"
 viewBox="0.00 0.00 830.00 175.00" xmlns="http://www.w3.org/2000/svg" xmlns:xlink="http://www.w3.org/1999/xlink">
<g id="graph0" class="graph" transform="scale(1 1) rotate(0) translate(4 171)">
<title>ant::TSlowControl</title>
<polygon fill="white" stroke="none" points="-4,4 -4,-171 826,-171 826,4 -4,4"/>
<!-- Node1 -->
<g id="node1" class="node"><title>Node1</title>
<polygon fill="#bfbfbf" stroke="black" points="726.5,-68.5 726.5,-87.5 821.5,-87.5 821.5,-68.5 726.5,-68.5"/>
<text text-anchor="middle" x="774" y="-75.5" font-family="Helvetica,sans-Serif" font-size="10.00">ant::TSlowControl</text>
</g>
<!-- Node2 -->
<g id="node2" class="node"><title>Node2</title>
<polygon fill="white" stroke="#bfbfbf" points="480,-137 480,-167 620,-167 620,-137 480,-137"/>
<text text-anchor="start" x="488" y="-155" font-family="Helvetica,sans-Serif" font-size="10.00">std::vector&lt; ant::TKeyValue</text>
<text text-anchor="middle" x="550" y="-144" font-family="Helvetica,sans-Serif" font-size="10.00">&lt; double &gt; &gt;</text>
</g>
<!-- Node2&#45;&gt;Node1 -->
<g id="edge1" class="edge"><title>Node2&#45;&gt;Node1</title>
<path fill="none" stroke="#9a32cd" stroke-dasharray="5,2" d="M622.991,-134.405C649.96,-127.142 680.675,-118.062 708,-108 723.978,-102.116 741.47,-93.9381 754.28,-87.6065"/>
<polygon fill="#9a32cd" stroke="#9a32cd" points="622.004,-131.046 613.238,-136.997 623.802,-137.811 622.004,-131.046"/>
<text text-anchor="middle" x="673" y="-133" font-family="Helvetica,sans-Serif" font-size="10.00"> Payload_Float</text>
</g>
<!-- Node3 -->
<g id="node3" class="node"><title>Node3</title>
<g id="a_node3"><a xlink:href="structant_1_1_t_key_value.html" target="_top" xlink:title="ant::TKeyValue\&lt; double \&gt;">
<polygon fill="white" stroke="black" points="258.5,-142.5 258.5,-161.5 389.5,-161.5 389.5,-142.5 258.5,-142.5"/>
<text text-anchor="middle" x="324" y="-149.5" font-family="Helvetica,sans-Serif" font-size="10.00">ant::TKeyValue&lt; double &gt;</text>
</a>
</g>
</g>
<!-- Node3&#45;&gt;Node2 -->
<g id="edge2" class="edge"><title>Node3&#45;&gt;Node2</title>
<path fill="none" stroke="#9a32cd" stroke-dasharray="5,2" d="M399.879,-152C425.643,-152 454.361,-152 479.664,-152"/>
<polygon fill="#9a32cd" stroke="#9a32cd" points="399.79,-148.5 389.79,-152 399.79,-155.5 399.79,-148.5"/>
<text text-anchor="middle" x="435" y="-155" font-family="Helvetica,sans-Serif" font-size="10.00"> elements</text>
</g>
<!-- Node4 -->
<g id="node4" class="node"><title>Node4</title>
<polygon fill="white" stroke="#bfbfbf" points="480,-88 480,-118 620,-118 620,-88 480,-88"/>
<text text-anchor="start" x="488" y="-106" font-family="Helvetica,sans-Serif" font-size="10.00">std::vector&lt; ant::TKeyValue</text>
<text text-anchor="middle" x="550" y="-95" font-family="Helvetica,sans-Serif" font-size="10.00">&lt; std::int64_t &gt; &gt;</text>
</g>
<!-- Node4&#45;&gt;Node1 -->
<g id="edge3" class="edge"><title>Node4&#45;&gt;Node1</title>
<path fill="none" stroke="#9a32cd" stroke-dasharray="5,2" d="M630.335,-94.0658C662.559,-90.4371 698.667,-86.3708 726.495,-83.237"/>
<polygon fill="#9a32cd" stroke="#9a32cd" points="629.571,-90.6297 620.025,-95.2269 630.354,-97.5858 629.571,-90.6297"/>
<text text-anchor="middle" x="673" y="-96" font-family="Helvetica,sans-Serif" font-size="10.00"> Payload_Int</text>
</g>
<!-- Node5 -->
<g id="node5" class="node"><title>Node5</title>
<g id="a_node5"><a xlink:href="structant_1_1_t_key_value.html" target="_top" xlink:title="ant::TKeyValue\&lt; std\l::int64_t \&gt;">
<polygon fill="white" stroke="black" points="270.5,-89 270.5,-119 377.5,-119 377.5,-89 270.5,-89"/>
<text text-anchor="start" x="278.5" y="-107" font-family="Helvetica,sans-Serif" font-size="10.00">ant::TKeyValue&lt; std</text>
<text text-anchor="middle" x="324" y="-96" font-family="Helvetica,sans-Serif" font-size="10.00">::int64_t &gt;</text>
</a>
</g>
</g>
<!-- Node5&#45;&gt;Node4 -->
<g id="edge4" class="edge"><title>Node5&#45;&gt;Node4</title>
<path fill="none" stroke="#9a32cd" stroke-dasharray="5,2" d="M387.811,-103.72C416.457,-103.592 450.461,-103.44 479.836,-103.309"/>
<polygon fill="#9a32cd" stroke="#9a32cd" points="387.502,-100.221 377.518,-103.766 387.534,-107.221 387.502,-100.221"/>
<text text-anchor="middle" x="435" y="-107" font-family="Helvetica,sans-Serif" font-size="10.00"> elements</text>
</g>
<!-- Node6 -->
<g id="node6" class="node"><title>Node6</title>
<g id="a_node6"><a xlink:title="STL class. ">
<polygon fill="white" stroke="#bfbfbf" points="134,-36.5 134,-55.5 194,-55.5 194,-36.5 134,-36.5"/>
<text text-anchor="middle" x="164" y="-43.5" font-family="Helvetica,sans-Serif" font-size="10.00">std::string</text>
</a>
</g>
</g>
<!-- Node6&#45;&gt;Node1 -->
<g id="edge5" class="edge"><title>Node6&#45;&gt;Node1</title>
<path fill="none" stroke="#9a32cd" stroke-dasharray="5,2" d="M204.424,-48.075C312.005,-53.7371 610.299,-69.4368 726.148,-75.5341"/>
<polygon fill="#9a32cd" stroke="#9a32cd" points="204.495,-44.5739 194.325,-47.5434 204.127,-51.5643 204.495,-44.5739"/>
<text text-anchor="middle" x="435" y="-76" font-family="Helvetica,sans-Serif" font-size="10.00"> Description</text>
<text text-anchor="middle" x="435" y="-65" font-family="Helvetica,sans-Serif" font-size="10.00">Name</text>
</g>
<!-- Node9 -->
<g id="node9" class="node"><title>Node9</title>
<g id="a_node9"><a xlink:href="structant_1_1_t_key_value.html" target="_top" xlink:title="ant::TKeyValue\&lt; std\l::string \&gt;">
<polygon fill="white" stroke="black" points="270.5,-0 270.5,-30 377.5,-30 377.5,-0 270.5,-0"/>
<text text-anchor="start" x="278.5" y="-18" font-family="Helvetica,sans-Serif" font-size="10.00">ant::TKeyValue&lt; std</text>
<text text-anchor="middle" x="324" y="-7" font-family="Helvetica,sans-Serif" font-size="10.00">::string &gt;</text>
</a>
</g>
</g>
<!-- Node6&#45;&gt;Node9 -->
<g id="edge9" class="edge"><title>Node6&#45;&gt;Node9</title>
<path fill="none" stroke="#9a32cd" stroke-dasharray="5,2" d="M203.998,-35.7877C206.701,-35.1588 209.387,-34.5562 212,-34 230.931,-29.9698 251.821,-26.2152 270.322,-23.1258"/>
<polygon fill="#9a32cd" stroke="#9a32cd" points="203.146,-32.3929 194.248,-38.1449 204.791,-39.1969 203.146,-32.3929"/>
<text text-anchor="middle" x="226" y="-37" font-family="Helvetica,sans-Serif" font-size="10.00"> Value</text>
</g>
<!-- Node7 -->
<g id="node7" class="node"><title>Node7</title>
<g id="a_node7"><a xlink:title="STL class. ">
<polygon fill="white" stroke="#bfbfbf" points="0.5,-31 0.5,-61 95.5,-61 95.5,-31 0.5,-31"/>
<text text-anchor="start" x="8.5" y="-49" font-family="Helvetica,sans-Serif" font-size="10.00">std::basic_string&lt;</text>
<text text-anchor="middle" x="48" y="-38" font-family="Helvetica,sans-Serif" font-size="10.00"> char &gt;</text>
</a>
</g>
</g>
<!-- Node7&#45;&gt;Node6 -->
<g id="edge6" class="edge"><title>Node7&#45;&gt;Node6</title>
<path fill="none" stroke="midnightblue" d="M105.782,-46C115.509,-46 125.243,-46 133.854,-46"/>
<polygon fill="midnightblue" stroke="midnightblue" points="105.697,-42.5001 95.6971,-46 105.697,-49.5001 105.697,-42.5001"/>
</g>
<!-- Node8 -->
<g id="node8" class="node"><title>Node8</title>
<polygon fill="white" stroke="#bfbfbf" points="480,-0 480,-30 620,-30 620,-0 480,-0"/>
<text text-anchor="start" x="488" y="-18" font-family="Helvetica,sans-Serif" font-size="10.00">std::vector&lt; ant::TKeyValue</text>
<text text-anchor="middle" x="550" y="-7" font-family="Helvetica,sans-Serif" font-size="10.00">&lt; std::string &gt; &gt;</text>
</g>
<!-- Node8&#45;&gt;Node1 -->
<g id="edge7" class="edge"><title>Node8&#45;&gt;Node1</title>
<path fill="none" stroke="#9a32cd" stroke-dasharray="5,2" d="M630.274,-17.2631C655.706,-19.9055 683.593,-24.8759 708,-34 729.189,-41.9212 750.229,-58.0703 762.404,-68.4461"/>
<polygon fill="#9a32cd" stroke="#9a32cd" points="630.571,-13.7758 620.289,-16.3296 629.92,-20.7454 630.571,-13.7758"/>
<text text-anchor="middle" x="673" y="-37" font-family="Helvetica,sans-Serif" font-size="10.00"> Payload_String</text>
</g>
<!-- Node9&#45;&gt;Node8 -->
<g id="edge8" class="edge"><title>Node9&#45;&gt;Node8</title>
<path fill="none" stroke="#9a32cd" stroke-dasharray="5,2" d="M387.811,-15C416.457,-15 450.461,-15 479.836,-15"/>
<polygon fill="#9a32cd" stroke="#9a32cd" points="387.518,-11.5001 377.518,-15 387.518,-18.5001 387.518,-11.5001"/>
<text text-anchor="middle" x="435" y="-18" font-family="Helvetica,sans-Serif" font-size="10.00"> elements</text>
</g>
</g>
</svg>
