<?xml version="1.0" encoding="UTF-8" standalone="no"?>
<!DOCTYPE svg PUBLIC "-//W3C//DTD SVG 1.1//EN"
 "http://www.w3.org/Graphics/SVG/1.1/DTD/svg11.dtd">
<!-- Generated by graphviz version 2.36.0 (20140111.2315)
 -->
<!-- Title: ant::calibration::gui::Manager::input_file_t Pages: 1 -->
<svg width="193pt" height="210pt"
 viewBox="0.00 0.00 193.00 210.00" xmlns="http://www.w3.org/2000/svg" xmlns:xlink="http://www.w3.org/1999/xlink">
<g id="graph0" class="graph" transform="scale(1 1) rotate(0) translate(4 206)">
<title>ant::calibration::gui::Manager::input_file_t</title>
<polygon fill="white" stroke="none" points="-4,4 -4,-206 189,-206 189,4 -4,4"/>
<!-- Node1 -->
<g id="node1" class="node"><title>Node1</title>
<polygon fill="#bfbfbf" stroke="black" points="40.5,-1 40.5,-31 153.5,-31 153.5,-1 40.5,-1"/>
<text text-anchor="start" x="48.5" y="-19" font-family="Helvetica,sans-Serif" font-size="10.00">ant::calibration::gui</text>
<text text-anchor="middle" x="97" y="-8" font-family="Helvetica,sans-Serif" font-size="10.00">::Manager::input_file_t</text>
</g>
<!-- Node2 -->
<g id="node2" class="node"><title>Node2</title>
<g id="a_node2"><a xlink:title="STL class. ">
<polygon fill="white" stroke="#bfbfbf" points="17,-86.5 17,-105.5 77,-105.5 77,-86.5 17,-86.5"/>
<text text-anchor="middle" x="47" y="-93.5" font-family="Helvetica,sans-Serif" font-size="10.00">std::string</text>
</a>
</g>
</g>
<!-- Node2&#45;&gt;Node1 -->
<g id="edge1" class="edge"><title>Node2&#45;&gt;Node1</title>
<path fill="none" stroke="#9a32cd" stroke-dasharray="5,2" d="M55.4361,-77.4671C59.7525,-68.9696 65.2923,-58.7379 71,-50 75.2281,-43.5272 80.4125,-36.7569 85.0363,-31.0453"/>
<polygon fill="#9a32cd" stroke="#9a32cd" points="52.2883,-75.9366 50.9942,-86.4522 58.5634,-79.0388 52.2883,-75.9366"/>
<text text-anchor="middle" x="91" y="-53.5" font-family="Helvetica,sans-Serif" font-size="10.00"> filename</text>
</g>
<!-- Node3 -->
<g id="node3" class="node"><title>Node3</title>
<g id="a_node3"><a xlink:title="STL class. ">
<polygon fill="white" stroke="#bfbfbf" points="-0.5,-171 -0.5,-201 94.5,-201 94.5,-171 -0.5,-171"/>
<text text-anchor="start" x="7.5" y="-189" font-family="Helvetica,sans-Serif" font-size="10.00">std::basic_string&lt;</text>
<text text-anchor="middle" x="47" y="-178" font-family="Helvetica,sans-Serif" font-size="10.00"> char &gt;</text>
</a>
</g>
</g>
<!-- Node3&#45;&gt;Node2 -->
<g id="edge2" class="edge"><title>Node3&#45;&gt;Node2</title>
<path fill="none" stroke="midnightblue" d="M47,-160.834C47,-142.43 47,-118.172 47,-105.515"/>
<polygon fill="midnightblue" stroke="midnightblue" points="43.5001,-160.861 47,-170.861 50.5001,-160.861 43.5001,-160.861"/>
</g>
<!-- Node4 -->
<g id="node4" class="node"><title>Node4</title>
<g id="a_node4"><a xlink:href="classant_1_1interval.html" target="_top" xlink:title="ant::interval\&lt; ant\l::TID \&gt;">
<polygon fill="white" stroke="black" points="95,-81 95,-111 185,-111 185,-81 95,-81"/>
<text text-anchor="start" x="103" y="-99" font-family="Helvetica,sans-Serif" font-size="10.00">ant::interval&lt; ant</text>
<text text-anchor="middle" x="140" y="-88" font-family="Helvetica,sans-Serif" font-size="10.00">::TID &gt;</text>
</a>
</g>
</g>
<!-- Node4&#45;&gt;Node1 -->
<g id="edge3" class="edge"><title>Node4&#45;&gt;Node1</title>
<path fill="none" stroke="#9a32cd" stroke-dasharray="5,2" d="M127.167,-71.7221C119.908,-58.5546 111.066,-42.5154 104.837,-31.2157"/>
<polygon fill="#9a32cd" stroke="#9a32cd" points="124.22,-73.6259 132.113,-80.6936 130.35,-70.2464 124.22,-73.6259"/>
<text text-anchor="middle" x="135" y="-53.5" font-family="Helvetica,sans-Serif" font-size="10.00"> range</text>
</g>
<!-- Node5 -->
<g id="node5" class="node"><title>Node5</title>
<g id="a_node5"><a xlink:href="structant_1_1_t_i_d.html" target="_top" xlink:title="ant::TID">
<polygon fill="white" stroke="black" points="113.5,-176.5 113.5,-195.5 166.5,-195.5 166.5,-176.5 113.5,-176.5"/>
<text text-anchor="middle" x="140" y="-183.5" font-family="Helvetica,sans-Serif" font-size="10.00">ant::TID</text>
</a>
</g>
</g>
<!-- Node5&#45;&gt;Node4 -->
<g id="edge4" class="edge"><title>Node5&#45;&gt;Node4</title>
<path fill="none" stroke="#9a32cd" stroke-dasharray="5,2" d="M140,-166.163C140,-149.693 140,-126.138 140,-111.209"/>
<polygon fill="#9a32cd" stroke="#9a32cd" points="136.5,-166.24 140,-176.241 143.5,-166.241 136.5,-166.24"/>
<text text-anchor="middle" x="154" y="-144" font-family="Helvetica,sans-Serif" font-size="10.00"> _start</text>
<text text-anchor="middle" x="154" y="-133" font-family="Helvetica,sans-Serif" font-size="10.00">_stop</text>
</g>
</g>
</svg>
