<?xml version="1.0" encoding="UTF-8" standalone="no"?>
<!DOCTYPE svg PUBLIC "-//W3C//DTD SVG 1.1//EN"
 "http://www.w3.org/Graphics/SVG/1.1/DTD/svg11.dtd">
<!-- Generated by graphviz version 2.36.0 (20140111.2315)
 -->
<!-- Title: UpdateableItem Pages: 1 -->
<svg width="338pt" height="96pt"
 viewBox="0.00 0.00 338.00 96.00" xmlns="http://www.w3.org/2000/svg" xmlns:xlink="http://www.w3.org/1999/xlink">
<g id="graph0" class="graph" transform="scale(1 1) rotate(0) translate(4 92)">
<title>UpdateableItem</title>
<polygon fill="white" stroke="none" points="-4,4 -4,-92 334,-92 334,4 -4,4"/>
<!-- Node2 -->
<g id="node1" class="node"><title>Node2</title>
<polygon fill="#bfbfbf" stroke="black" points="137,-0.5 137,-19.5 223,-19.5 223,-0.5 137,-0.5"/>
<text text-anchor="middle" x="180" y="-7.5" font-family="Helvetica,sans-Serif" font-size="10.00">UpdateableItem</text>
</g>
<!-- Node3 -->
<g id="node2" class="node"><title>Node3</title>
<g id="a_node2"><a xlink:href="structant_1_1_updateable__traits.html" target="_top" xlink:title="The Updateable_traits class used by the UpdateableManager. ">
<polygon fill="white" stroke="black" points="-0.5,-68.5 -0.5,-87.5 112.5,-87.5 112.5,-68.5 -0.5,-68.5"/>
<text text-anchor="middle" x="56" y="-75.5" font-family="Helvetica,sans-Serif" font-size="10.00">ant::Updateable_traits</text>
</a>
</g>
</g>
<!-- Node3&#45;&gt;Node2 -->
<g id="edge1" class="edge"><title>Node3&#45;&gt;Node2</title>
<path fill="none" stroke="midnightblue" d="M81.3357,-63.5149C106.019,-50.3767 142.804,-30.7981 163.785,-19.6305"/>
<polygon fill="midnightblue" stroke="midnightblue" points="79.3938,-60.5835 72.2108,-68.3717 82.6828,-66.7627 79.3938,-60.5835"/>
</g>
<!-- Node4 -->
<g id="node3" class="node"><title>Node4</title>
<polygon fill="white" stroke="#bfbfbf" points="131,-68.5 131,-87.5 229,-87.5 229,-68.5 131,-68.5"/>
<text text-anchor="middle" x="180" y="-75.5" font-family="Helvetica,sans-Serif" font-size="10.00">std::vector&lt; TID &gt;</text>
</g>
<!-- Node4&#45;&gt;Node2 -->
<g id="edge2" class="edge"><title>Node4&#45;&gt;Node2</title>
<path fill="none" stroke="#9a32cd" stroke-dasharray="5,2" d="M180,-58.0413C180,-45.4724 180,-29.5631 180,-19.8411"/>
<polygon fill="#9a32cd" stroke="#9a32cd" points="176.5,-58.3716 180,-68.3717 183.5,-58.3717 176.5,-58.3716"/>
<text text-anchor="middle" x="211.5" y="-41.5" font-family="Helvetica,sans-Serif" font-size="10.00"> UpdatePoints</text>
</g>
<!-- Node5 -->
<g id="node4" class="node"><title>Node5</title>
<polygon fill="white" stroke="#bfbfbf" points="247.5,-68.5 247.5,-87.5 330.5,-87.5 330.5,-68.5 247.5,-68.5"/>
<text text-anchor="middle" x="289" y="-75.5" font-family="Helvetica,sans-Serif" font-size="10.00">std::list&lt; TID &gt;</text>
</g>
<!-- Node5&#45;&gt;Node2 -->
<g id="edge3" class="edge"><title>Node5&#45;&gt;Node2</title>
<path fill="none" stroke="#9a32cd" stroke-dasharray="5,2" d="M274.089,-60.6091C266.528,-52.9973 256.87,-44.2672 247,-38 234.825,-30.2693 220.068,-24.0357 207.506,-19.514"/>
<polygon fill="#9a32cd" stroke="#9a32cd" points="271.948,-63.4363 281.381,-68.2605 277.015,-58.6068 271.948,-63.4363"/>
<text text-anchor="middle" x="295.5" y="-41.5" font-family="Helvetica,sans-Serif" font-size="10.00"> ChangePoints</text>
</g>
</g>
</svg>
