<?xml version="1.0" encoding="UTF-8" standalone="no"?>
<!DOCTYPE svg PUBLIC "-//W3C//DTD SVG 1.1//EN"
 "http://www.w3.org/Graphics/SVG/1.1/DTD/svg11.dtd">
<!-- Generated by graphviz version 2.36.0 (20140111.2315)
 -->
<!-- Title: ant::analysis::Plotter::Exception Pages: 1 -->
<svg width="114pt" height="152pt"
 viewBox="0.00 0.00 114.00 152.00" xmlns="http://www.w3.org/2000/svg" xmlns:xlink="http://www.w3.org/1999/xlink">
<g id="graph0" class="graph" transform="scale(1 1) rotate(0) translate(4 148)">
<title>ant::analysis::Plotter::Exception</title>
<polygon fill="white" stroke="none" points="-4,4 -4,-148 110,-148 110,4 -4,4"/>
<!-- Node0 -->
<g id="node1" class="node"><title>Node0</title>
<polygon fill="#bfbfbf" stroke="black" points="-0.5,-1 -0.5,-31 106.5,-31 106.5,-1 -0.5,-1"/>
<text text-anchor="start" x="7.5" y="-19" font-family="Helvetica,sans-Serif" font-size="10.00">ant::analysis::Plotter</text>
<text text-anchor="middle" x="53" y="-8" font-family="Helvetica,sans-Serif" font-size="10.00">::Exception</text>
</g>
<!-- Node1 -->
<g id="node2" class="node"><title>Node1</title>
<g id="a_node2"><a xlink:title="STL class. ">
<polygon fill="white" stroke="#bfbfbf" points="6.5,-68.5 6.5,-87.5 99.5,-87.5 99.5,-68.5 6.5,-68.5"/>
<text text-anchor="middle" x="53" y="-75.5" font-family="Helvetica,sans-Serif" font-size="10.00">std::runtime_error</text>
</a>
</g>
</g>
<!-- Node1&#45;&gt;Node0 -->
<g id="edge1" class="edge"><title>Node1&#45;&gt;Node0</title>
<path fill="none" stroke="midnightblue" d="M53,-58.3707C53,-49.5849 53,-39.2721 53,-31.1408"/>
<polygon fill="midnightblue" stroke="midnightblue" points="49.5001,-58.4034 53,-68.4035 56.5001,-58.4035 49.5001,-58.4034"/>
</g>
<!-- Node2 -->
<g id="node3" class="node"><title>Node2</title>
<g id="a_node3"><a xlink:title="STL class. ">
<polygon fill="white" stroke="#bfbfbf" points="14,-124.5 14,-143.5 92,-143.5 92,-124.5 14,-124.5"/>
<text text-anchor="middle" x="53" y="-131.5" font-family="Helvetica,sans-Serif" font-size="10.00">std::exception</text>
</a>
</g>
</g>
<!-- Node2&#45;&gt;Node1 -->
<g id="edge2" class="edge"><title>Node2&#45;&gt;Node1</title>
<path fill="none" stroke="midnightblue" d="M53,-113.805C53,-104.91 53,-94.7798 53,-87.7511"/>
<polygon fill="midnightblue" stroke="midnightblue" points="49.5001,-114.083 53,-124.083 56.5001,-114.083 49.5001,-114.083"/>
</g>
</g>
</svg>
