<?xml version="1.0" encoding="UTF-8" standalone="no"?>
<!DOCTYPE svg PUBLIC "-//W3C//DTD SVG 1.1//EN"
 "http://www.w3.org/Graphics/SVG/1.1/DTD/svg11.dtd">
<!-- Generated by graphviz version 2.36.0 (20140111.2315)
 -->
<!-- Title: ant::analysis::utils::TreeFitter::node_t Pages: 1 -->
<svg width="108pt" height="176pt"
 viewBox="0.00 0.00 108.00 176.00" xmlns="http://www.w3.org/2000/svg" xmlns:xlink="http://www.w3.org/1999/xlink">
<g id="graph0" class="graph" transform="scale(1 1) rotate(0) translate(4 172)">
<title>ant::analysis::utils::TreeFitter::node_t</title>
<polygon fill="white" stroke="none" points="-4,4 -4,-172 104,-172 104,4 -4,4"/>
<!-- Node1 -->
<g id="node1" class="node"><title>Node1</title>
<polygon fill="#bfbfbf" stroke="black" points="0,-1 0,-31 100,-31 100,-1 0,-1"/>
<text text-anchor="start" x="8" y="-19" font-family="Helvetica,sans-Serif" font-size="10.00">ant::analysis::utils</text>
<text text-anchor="middle" x="50" y="-8" font-family="Helvetica,sans-Serif" font-size="10.00">::TreeFitter::node_t</text>
</g>
<!-- Node2 -->
<g id="node2" class="node"><title>Node2</title>
<g id="a_node2"><a xlink:href="structant_1_1_lorentz_vec.html" target="_top" xlink:title="A Lorentz vector (x,y,z,E), diag(&#45;1,&#45;1,&#45;1, 1) ">
<polygon fill="white" stroke="black" points="7,-80.5 7,-99.5 93,-99.5 93,-80.5 7,-80.5"/>
<text text-anchor="middle" x="50" y="-87.5" font-family="Helvetica,sans-Serif" font-size="10.00">ant::LorentzVec</text>
</a>
</g>
</g>
<!-- Node2&#45;&gt;Node1 -->
<g id="edge1" class="edge"><title>Node2&#45;&gt;Node1</title>
<path fill="none" stroke="#9a32cd" stroke-dasharray="5,2" d="M50,-70.0846C50,-57.9148 50,-42.3538 50,-31.2316"/>
<polygon fill="#9a32cd" stroke="#9a32cd" points="46.5001,-70.4579 50,-80.4579 53.5001,-70.4579 46.5001,-70.4579"/>
<text text-anchor="middle" x="68" y="-53.5" font-family="Helvetica,sans-Serif" font-size="10.00"> LVSum</text>
</g>
<!-- Node3 -->
<g id="node3" class="node"><title>Node3</title>
<g id="a_node3"><a xlink:href="structant_1_1vec3.html" target="_top" xlink:title="ant::vec3">
<polygon fill="white" stroke="black" points="21.5,-148.5 21.5,-167.5 78.5,-167.5 78.5,-148.5 21.5,-148.5"/>
<text text-anchor="middle" x="50" y="-155.5" font-family="Helvetica,sans-Serif" font-size="10.00">ant::vec3</text>
</a>
</g>
</g>
<!-- Node3&#45;&gt;Node2 -->
<g id="edge2" class="edge"><title>Node3&#45;&gt;Node2</title>
<path fill="none" stroke="#9a32cd" stroke-dasharray="5,2" d="M50,-138.041C50,-125.472 50,-109.563 50,-99.8411"/>
<polygon fill="#9a32cd" stroke="#9a32cd" points="46.5001,-138.372 50,-148.372 53.5001,-138.372 46.5001,-138.372"/>
<text text-anchor="middle" x="54.5" y="-121.5" font-family="Helvetica,sans-Serif" font-size="10.00"> p</text>
</g>
</g>
</svg>
