<?xml version="1.0" encoding="UTF-8" standalone="no"?>
<!DOCTYPE svg PUBLIC "-//W3C//DTD SVG 1.1//EN"
 "http://www.w3.org/Graphics/SVG/1.1/DTD/svg11.dtd">
<!-- Generated by graphviz version 2.36.0 (20140111.2315)
 -->
<!-- Title: ant::analysis::physics::MCTrueOverview::perChannel_t::histnode_t Pages: 1 -->
<svg width="938pt" height="128pt"
 viewBox="0.00 0.00 938.00 128.00" xmlns="http://www.w3.org/2000/svg" xmlns:xlink="http://www.w3.org/1999/xlink">
<g id="graph0" class="graph" transform="scale(1 1) rotate(0) translate(4 124)">
<title>ant::analysis::physics::MCTrueOverview::perChannel_t::histnode_t</title>
<polygon fill="white" stroke="none" points="-4,4 -4,-124 934,-124 934,4 -4,4"/>
<!-- Node1 -->
<g id="node1" class="node"><title>Node1</title>
<polygon fill="#bfbfbf" stroke="black" points="774.5,-48.5 774.5,-89.5 929.5,-89.5 929.5,-48.5 774.5,-48.5"/>
<text text-anchor="start" x="782.5" y="-77.5" font-family="Helvetica,sans-Serif" font-size="10.00">ant::analysis::physics</text>
<text text-anchor="start" x="782.5" y="-66.5" font-family="Helvetica,sans-Serif" font-size="10.00">::MCTrueOverview::perChannel</text>
<text text-anchor="middle" x="852" y="-55.5" font-family="Helvetica,sans-Serif" font-size="10.00">_t::histnode_t</text>
</g>
<!-- Node2 -->
<g id="node2" class="node"><title>Node2</title>
<polygon fill="white" stroke="#bfbfbf" points="518,-43 518,-95 712,-95 712,-43 518,-43"/>
<text text-anchor="start" x="526" y="-83" font-family="Helvetica,sans-Serif" font-size="10.00">std::map&lt; ant::ParticleType</text>
<text text-anchor="start" x="526" y="-72" font-family="Helvetica,sans-Serif" font-size="10.00">Database::Type, ant::analysis</text>
<text text-anchor="start" x="526" y="-61" font-family="Helvetica,sans-Serif" font-size="10.00">::physics::MCTrueOverview::perChannel</text>
<text text-anchor="middle" x="615" y="-50" font-family="Helvetica,sans-Serif" font-size="10.00">_t::histnode_t::perType_t &gt;</text>
</g>
<!-- Node2&#45;&gt;Node1 -->
<g id="edge1" class="edge"><title>Node2&#45;&gt;Node1</title>
<path fill="none" stroke="#9a32cd" stroke-dasharray="5,2" d="M722.492,-69C739.952,-69 757.739,-69 774.292,-69"/>
<polygon fill="#9a32cd" stroke="#9a32cd" points="722.262,-65.5001 712.262,-69 722.262,-72.5001 722.262,-65.5001"/>
<text text-anchor="middle" x="743" y="-72" font-family="Helvetica,sans-Serif" font-size="10.00"> hists</text>
</g>
<!-- Node3 -->
<g id="node3" class="node"><title>Node3</title>
<g id="a_node3"><a xlink:href="structant_1_1analysis_1_1physics_1_1_m_c_true_overview_1_1per_channel__t_1_1histnode__t_1_1per_type__t.html" target="_top" xlink:title="ant::analysis::physics\l::MCTrueOverview::perChannel\l_t::histnode_t::perType_t">
<polygon fill="white" stroke="black" points="282.5,-78.5 282.5,-119.5 437.5,-119.5 437.5,-78.5 282.5,-78.5"/>
<text text-anchor="start" x="290.5" y="-107.5" font-family="Helvetica,sans-Serif" font-size="10.00">ant::analysis::physics</text>
<text text-anchor="start" x="290.5" y="-96.5" font-family="Helvetica,sans-Serif" font-size="10.00">::MCTrueOverview::perChannel</text>
<text text-anchor="middle" x="360" y="-85.5" font-family="Helvetica,sans-Serif" font-size="10.00">_t::histnode_t::perType_t</text>
</a>
</g>
</g>
<!-- Node3&#45;&gt;Node2 -->
<g id="edge2" class="edge"><title>Node3&#45;&gt;Node2</title>
<path fill="none" stroke="#9a32cd" stroke-dasharray="5,2" d="M447.529,-88.7397C470.212,-86.05 494.806,-83.1336 517.954,-80.3888"/>
<polygon fill="#9a32cd" stroke="#9a32cd" points="447.113,-85.2643 437.595,-89.9176 447.938,-92.2156 447.113,-85.2643"/>
<text text-anchor="middle" x="478" y="-90" font-family="Helvetica,sans-Serif" font-size="10.00"> elements</text>
</g>
<!-- Node4 -->
<g id="node4" class="node"><title>Node4</title>
<g id="a_node4"><a xlink:href="classant_1_1_particle_type_database_1_1_type.html" target="_top" xlink:title="ant::ParticleTypeDatabase\l::Type">
<polygon fill="white" stroke="black" points="293.5,-0 293.5,-30 426.5,-30 426.5,-0 293.5,-0"/>
<text text-anchor="start" x="301.5" y="-18" font-family="Helvetica,sans-Serif" font-size="10.00">ant::ParticleTypeDatabase</text>
<text text-anchor="middle" x="360" y="-7" font-family="Helvetica,sans-Serif" font-size="10.00">::Type</text>
</a>
</g>
</g>
<!-- Node4&#45;&gt;Node2 -->
<g id="edge3" class="edge"><title>Node4&#45;&gt;Node2</title>
<path fill="none" stroke="#9a32cd" stroke-dasharray="5,2" d="M436.738,-31.1654C462.126,-36.5842 490.785,-42.7012 517.541,-48.4119"/>
<polygon fill="#9a32cd" stroke="#9a32cd" points="437.323,-27.7114 426.812,-29.0469 435.861,-34.5572 437.323,-27.7114"/>
<text text-anchor="middle" x="478" y="-47" font-family="Helvetica,sans-Serif" font-size="10.00"> keys</text>
</g>
<!-- Node4&#45;&gt;Node4 -->
<g id="edge6" class="edge"><title>Node4&#45;&gt;Node4</title>
<path fill="none" stroke="#9a32cd" stroke-dasharray="5,2" d="M339.346,-40.5975C342.168,-44.9704 349.053,-48 360,-48 378.438,-48 385.352,-39.4062 380.742,-30.2754"/>
<polygon fill="#9a32cd" stroke="#9a32cd" points="342.843,-40.2452 339.258,-30.2754 335.843,-40.3048 342.843,-40.2452"/>
<text text-anchor="middle" x="360" y="-51" font-family="Helvetica,sans-Serif" font-size="10.00"> sametype</text>
</g>
<!-- Node5 -->
<g id="node5" class="node"><title>Node5</title>
<g id="a_node5"><a xlink:title="STL class. ">
<polygon fill="white" stroke="#bfbfbf" points="134,-5.5 134,-24.5 194,-24.5 194,-5.5 134,-5.5"/>
<text text-anchor="middle" x="164" y="-12.5" font-family="Helvetica,sans-Serif" font-size="10.00">std::string</text>
</a>
</g>
</g>
<!-- Node5&#45;&gt;Node4 -->
<g id="edge4" class="edge"><title>Node5&#45;&gt;Node4</title>
<path fill="none" stroke="#9a32cd" stroke-dasharray="5,2" d="M204.076,-15C229.59,-15 263.541,-15 293.157,-15"/>
<polygon fill="#9a32cd" stroke="#9a32cd" points="204.044,-11.5001 194.044,-15 204.044,-18.5001 204.044,-11.5001"/>
<text text-anchor="middle" x="238" y="-29" font-family="Helvetica,sans-Serif" font-size="10.00"> print_name</text>
<text text-anchor="middle" x="238" y="-18" font-family="Helvetica,sans-Serif" font-size="10.00">name</text>
</g>
<!-- Node6 -->
<g id="node6" class="node"><title>Node6</title>
<g id="a_node6"><a xlink:title="STL class. ">
<polygon fill="white" stroke="#bfbfbf" points="0.5,-0 0.5,-30 95.5,-30 95.5,-0 0.5,-0"/>
<text text-anchor="start" x="8.5" y="-18" font-family="Helvetica,sans-Serif" font-size="10.00">std::basic_string&lt;</text>
<text text-anchor="middle" x="48" y="-7" font-family="Helvetica,sans-Serif" font-size="10.00"> char &gt;</text>
</a>
</g>
</g>
<!-- Node6&#45;&gt;Node5 -->
<g id="edge5" class="edge"><title>Node6&#45;&gt;Node5</title>
<path fill="none" stroke="midnightblue" d="M105.782,-15C115.509,-15 125.243,-15 133.854,-15"/>
<polygon fill="midnightblue" stroke="midnightblue" points="105.697,-11.5001 95.6971,-15 105.697,-18.5001 105.697,-11.5001"/>
</g>
</g>
</svg>
