<?xml version="1.0" encoding="UTF-8" standalone="no"?>
<!DOCTYPE svg PUBLIC "-//W3C//DTD SVG 1.1//EN"
 "http://www.w3.org/Graphics/SVG/1.1/DTD/svg11.dtd">
<!-- Generated by graphviz version 2.36.0 (20140111.2315)
 -->
<!-- Title: ant::analysis::utils::UncertaintyModels::Constant Pages: 1 -->
<svg width="221pt" height="162pt"
 viewBox="0.00 0.00 221.00 162.00" xmlns="http://www.w3.org/2000/svg" xmlns:xlink="http://www.w3.org/1999/xlink">
<g id="graph0" class="graph" transform="scale(1 1) rotate(0) translate(4 158)">
<title>ant::analysis::utils::UncertaintyModels::Constant</title>
<polygon fill="white" stroke="none" points="-4,4 -4,-158 217,-158 217,4 -4,4"/>
<!-- Node4 -->
<g id="node1" class="node"><title>Node4</title>
<polygon fill="#bfbfbf" stroke="black" points="52,-0.5 52,-41.5 162,-41.5 162,-0.5 52,-0.5"/>
<text text-anchor="start" x="60" y="-29.5" font-family="Helvetica,sans-Serif" font-size="10.00">ant::analysis::utils</text>
<text text-anchor="start" x="60" y="-18.5" font-family="Helvetica,sans-Serif" font-size="10.00">::UncertaintyModels::</text>
<text text-anchor="middle" x="107" y="-7.5" font-family="Helvetica,sans-Serif" font-size="10.00">Constant</text>
</g>
<!-- Node5 -->
<g id="node2" class="node"><title>Node5</title>
<g id="a_node2"><a xlink:href="classant_1_1analysis_1_1utils_1_1_uncertainty_model.html" target="_top" xlink:title="Virtual base class for different Uncertainty Models for fitter. Implement at least the GetSigmas() me...">
<polygon fill="white" stroke="black" points="-0.5,-123 -0.5,-153 98.5,-153 98.5,-123 -0.5,-123"/>
<text text-anchor="start" x="7.5" y="-141" font-family="Helvetica,sans-Serif" font-size="10.00">ant::analysis::utils</text>
<text text-anchor="middle" x="49" y="-130" font-family="Helvetica,sans-Serif" font-size="10.00">::UncertaintyModel</text>
</a>
</g>
</g>
<!-- Node5&#45;&gt;Node4 -->
<g id="edge1" class="edge"><title>Node5&#45;&gt;Node4</title>
<path fill="none" stroke="midnightblue" d="M60.6365,-113.928C71.3303,-92.7245 87.0098,-61.6358 97.1118,-41.6059"/>
<polygon fill="midnightblue" stroke="midnightblue" points="57.4901,-112.394 56.1119,-122.899 63.7402,-115.546 57.4901,-112.394"/>
</g>
<!-- Node6 -->
<g id="node3" class="node"><title>Node6</title>
<g id="a_node3"><a xlink:href="structant_1_1analysis_1_1utils_1_1_uncertainties__t.html" target="_top" xlink:title="Uncertainties for E, theta, and phi and some CB/TAPS specific values. ">
<polygon fill="white" stroke="black" points="117,-123 117,-153 213,-153 213,-123 117,-123"/>
<text text-anchor="start" x="125" y="-141" font-family="Helvetica,sans-Serif" font-size="10.00">ant::analysis::utils</text>
<text text-anchor="middle" x="165" y="-130" font-family="Helvetica,sans-Serif" font-size="10.00">::Uncertainties_t</text>
</a>
</g>
</g>
<!-- Node6&#45;&gt;Node4 -->
<g id="edge2" class="edge"><title>Node6&#45;&gt;Node4</title>
<path fill="none" stroke="#9a32cd" stroke-dasharray="5,2" d="M153.363,-113.928C142.67,-92.7245 126.99,-61.6358 116.888,-41.6059"/>
<polygon fill="#9a32cd" stroke="#9a32cd" points="150.26,-115.546 157.888,-122.899 156.51,-112.394 150.26,-115.546"/>
<text text-anchor="middle" x="175" y="-96" font-family="Helvetica,sans-Serif" font-size="10.00"> proton_cb</text>
<text text-anchor="middle" x="175" y="-85" font-family="Helvetica,sans-Serif" font-size="10.00">photon_taps</text>
<text text-anchor="middle" x="175" y="-74" font-family="Helvetica,sans-Serif" font-size="10.00">proton_taps</text>
<text text-anchor="middle" x="175" y="-63" font-family="Helvetica,sans-Serif" font-size="10.00">photon_cb</text>
</g>
</g>
</svg>
