<?xml version="1.0" encoding="UTF-8" standalone="no"?>
<!DOCTYPE svg PUBLIC "-//W3C//DTD SVG 1.1//EN"
 "http://www.w3.org/Graphics/SVG/1.1/DTD/svg11.dtd">
<!-- Generated by graphviz version 2.36.0 (20140111.2315)
 -->
<!-- Title: ant::analysis::input::GoatReader::treeTriggerInput_t Pages: 1 -->
<svg width="542pt" height="110pt"
 viewBox="0.00 0.00 542.00 110.00" xmlns="http://www.w3.org/2000/svg" xmlns:xlink="http://www.w3.org/1999/xlink">
<g id="graph0" class="graph" transform="scale(1 1) rotate(0) translate(4 106)">
<title>ant::analysis::input::GoatReader::treeTriggerInput_t</title>
<polygon fill="white" stroke="none" points="-4,4 -4,-106 538,-106 538,4 -4,4"/>
<!-- Node1 -->
<g id="node1" class="node"><title>Node1</title>
<polygon fill="#bfbfbf" stroke="black" points="376,-35 376,-65 534,-65 534,-35 376,-35"/>
<text text-anchor="start" x="384" y="-53" font-family="Helvetica,sans-Serif" font-size="10.00">ant::analysis::input</text>
<text text-anchor="middle" x="455" y="-42" font-family="Helvetica,sans-Serif" font-size="10.00">::GoatReader::treeTriggerInput_t</text>
</g>
<!-- Node2 -->
<g id="node2" class="node"><title>Node2</title>
<g id="a_node2"><a xlink:href="structant_1_1analysis_1_1input_1_1_goat_reader_1_1tree_trigger_input__t_1_1tree__t.html" target="_top" xlink:title="ant::analysis::input\l::GoatReader::treeTriggerInput\l_t::tree_t">
<polygon fill="white" stroke="black" points="124.5,-60.5 124.5,-101.5 273.5,-101.5 273.5,-60.5 124.5,-60.5"/>
<text text-anchor="start" x="132.5" y="-89.5" font-family="Helvetica,sans-Serif" font-size="10.00">ant::analysis::input</text>
<text text-anchor="start" x="132.5" y="-78.5" font-family="Helvetica,sans-Serif" font-size="10.00">::GoatReader::treeTriggerInput</text>
<text text-anchor="middle" x="199" y="-67.5" font-family="Helvetica,sans-Serif" font-size="10.00">_t::tree_t</text>
</a>
</g>
</g>
<!-- Node2&#45;&gt;Node1 -->
<g id="edge1" class="edge"><title>Node2&#45;&gt;Node1</title>
<path fill="none" stroke="#9a32cd" stroke-dasharray="5,2" d="M284.082,-70.738C313.575,-67.1385 346.567,-63.1119 375.577,-59.5713"/>
<polygon fill="#9a32cd" stroke="#9a32cd" points="283.311,-67.3061 273.809,-71.9919 284.159,-74.2545 283.311,-67.3061"/>
<text text-anchor="middle" x="325" y="-72" font-family="Helvetica,sans-Serif" font-size="10.00"> t</text>
</g>
<!-- Node3 -->
<g id="node3" class="node"><title>Node3</title>
<g id="a_node3"><a xlink:href="classant_1_1_wrap_t_tree.html" target="_top" xlink:title="The WrapTTree struct simplifies TTree handling in physics classes. ">
<polygon fill="white" stroke="black" points="0.5,-45.5 0.5,-64.5 85.5,-64.5 85.5,-45.5 0.5,-45.5"/>
<text text-anchor="middle" x="43" y="-52.5" font-family="Helvetica,sans-Serif" font-size="10.00">ant::WrapTTree</text>
</a>
</g>
</g>
<!-- Node3&#45;&gt;Node2 -->
<g id="edge2" class="edge"><title>Node3&#45;&gt;Node2</title>
<path fill="none" stroke="midnightblue" d="M95.7583,-63.7384C104.92,-65.2852 114.617,-66.9224 124.247,-68.5482"/>
<polygon fill="midnightblue" stroke="midnightblue" points="96.1178,-60.2496 85.6746,-62.036 94.9524,-67.152 96.1178,-60.2496"/>
</g>
<!-- Node4 -->
<g id="node4" class="node"><title>Node4</title>
<g id="a_node4"><a xlink:href="structant_1_1analysis_1_1input_1_1_goat_reader_1_1tree_trigger_input__t_1_1tree_event_parameters__t.html" target="_top" xlink:title="ant::analysis::input\l::GoatReader::treeTriggerInput\l_t::treeEventParameters_t">
<polygon fill="white" stroke="black" points="124.5,-0.5 124.5,-41.5 273.5,-41.5 273.5,-0.5 124.5,-0.5"/>
<text text-anchor="start" x="132.5" y="-29.5" font-family="Helvetica,sans-Serif" font-size="10.00">ant::analysis::input</text>
<text text-anchor="start" x="132.5" y="-18.5" font-family="Helvetica,sans-Serif" font-size="10.00">::GoatReader::treeTriggerInput</text>
<text text-anchor="middle" x="199" y="-7.5" font-family="Helvetica,sans-Serif" font-size="10.00">_t::treeEventParameters_t</text>
</a>
</g>
</g>
<!-- Node3&#45;&gt;Node4 -->
<g id="edge4" class="edge"><title>Node3&#45;&gt;Node4</title>
<path fill="none" stroke="midnightblue" d="M95.463,-43.638C104.711,-41.5962 114.514,-39.432 124.247,-37.2831"/>
<polygon fill="midnightblue" stroke="midnightblue" points="94.6849,-40.2255 85.6746,-45.7991 96.194,-47.0609 94.6849,-40.2255"/>
</g>
<!-- Node4&#45;&gt;Node1 -->
<g id="edge3" class="edge"><title>Node4&#45;&gt;Node1</title>
<path fill="none" stroke="#9a32cd" stroke-dasharray="5,2" d="M284.082,-30.5999C313.575,-33.9672 346.567,-37.734 375.577,-41.0462"/>
<polygon fill="#9a32cd" stroke="#9a32cd" points="284.141,-27.084 273.809,-29.427 283.347,-34.0388 284.141,-27.084"/>
<text text-anchor="middle" x="325" y="-42" font-family="Helvetica,sans-Serif" font-size="10.00"> tEventParams</text>
</g>
</g>
</svg>
