<?xml version="1.0" encoding="UTF-8" standalone="no"?>
<!DOCTYPE svg PUBLIC "-//W3C//DTD SVG 1.1//EN"
 "http://www.w3.org/Graphics/SVG/1.1/DTD/svg11.dtd">
<!-- Generated by graphviz version 2.36.0 (20140111.2315)
 -->
<!-- Title: EtapOmegaG_plot_Sig Pages: 1 -->
<svg width="1218pt" height="232pt"
 viewBox="0.00 0.00 1218.00 232.00" xmlns="http://www.w3.org/2000/svg" xmlns:xlink="http://www.w3.org/1999/xlink">
<g id="graph0" class="graph" transform="scale(1 1) rotate(0) translate(4 228)">
<title>EtapOmegaG_plot_Sig</title>
<polygon fill="white" stroke="none" points="-4,4 -4,-228 1214,-228 1214,4 -4,4"/>
<!-- Node3 -->
<g id="node1" class="node"><title>Node3</title>
<polygon fill="#bfbfbf" stroke="black" points="1094,-78.5 1094,-97.5 1210,-97.5 1210,-78.5 1094,-78.5"/>
<text text-anchor="middle" x="1152" y="-85.5" font-family="Helvetica,sans-Serif" font-size="10.00">EtapOmegaG_plot_Sig</text>
</g>
<!-- Node4 -->
<g id="node2" class="node"><title>Node4</title>
<g id="a_node2"><a xlink:href="struct_etap_omega_g__plot.html" target="_top" xlink:title="EtapOmegaG_plot">
<polygon fill="white" stroke="black" points="601.5,-159.5 601.5,-178.5 698.5,-178.5 698.5,-159.5 601.5,-159.5"/>
<text text-anchor="middle" x="650" y="-166.5" font-family="Helvetica,sans-Serif" font-size="10.00">EtapOmegaG_plot</text>
</a>
</g>
</g>
<!-- Node4&#45;&gt;Node3 -->
<g id="edge1" class="edge"><title>Node4&#45;&gt;Node3</title>
<path fill="none" stroke="midnightblue" d="M708.74,-171.854C792.483,-174.029 951.26,-170.694 1076,-124 1096.15,-116.456 1118.25,-105.498 1133.21,-97.6561"/>
<polygon fill="midnightblue" stroke="midnightblue" points="708.761,-168.353 698.661,-171.556 708.554,-175.35 708.761,-168.353"/>
</g>
<!-- Node5 -->
<g id="node3" class="node"><title>Node5</title>
<g id="a_node3"><a xlink:href="classant_1_1analysis_1_1_plotter.html" target="_top" xlink:title="ant::analysis::Plotter">
<polygon fill="white" stroke="black" points="232.5,-199.5 232.5,-218.5 339.5,-218.5 339.5,-199.5 232.5,-199.5"/>
<text text-anchor="middle" x="286" y="-206.5" font-family="Helvetica,sans-Serif" font-size="10.00">ant::analysis::Plotter</text>
</a>
</g>
</g>
<!-- Node5&#45;&gt;Node4 -->
<g id="edge2" class="edge"><title>Node5&#45;&gt;Node4</title>
<path fill="none" stroke="midnightblue" d="M350.009,-204.599C407.064,-200.274 493.357,-192.888 568,-183 578.752,-181.576 590.259,-179.763 601.125,-177.918"/>
<polygon fill="midnightblue" stroke="midnightblue" points="349.416,-201.133 339.705,-205.371 349.939,-208.114 349.416,-201.133"/>
</g>
<!-- Node6 -->
<g id="node4" class="node"><title>Node6</title>
<g id="a_node4"><a xlink:href="classant_1_1analysis_1_1_histogram_factory.html" target="_top" xlink:title="ant::analysis::Histogram\lFactory">
<polygon fill="white" stroke="black" points="0.5,-194 0.5,-224 123.5,-224 123.5,-194 0.5,-194"/>
<text text-anchor="start" x="8.5" y="-212" font-family="Helvetica,sans-Serif" font-size="10.00">ant::analysis::Histogram</text>
<text text-anchor="middle" x="62" y="-201" font-family="Helvetica,sans-Serif" font-size="10.00">Factory</text>
</a>
</g>
</g>
<!-- Node6&#45;&gt;Node5 -->
<g id="edge3" class="edge"><title>Node6&#45;&gt;Node5</title>
<path fill="none" stroke="#9a32cd" stroke-dasharray="5,2" d="M133.842,-209C165.801,-209 202.894,-209 232.336,-209"/>
<polygon fill="#9a32cd" stroke="#9a32cd" points="133.663,-205.5 123.662,-209 133.662,-212.5 133.663,-205.5"/>
<text text-anchor="middle" x="161" y="-212" font-family="Helvetica,sans-Serif" font-size="10.00"> HistFac</text>
</g>
<!-- Node7 -->
<g id="node5" class="node"><title>Node7</title>
<g id="a_node5"><a xlink:href="structant_1_1analysis_1_1utils_1_1_m_c_weighting_1_1tree__t.html" target="_top" xlink:title="ant::analysis::utils\l::MCWeighting::tree_t">
<polygon fill="white" stroke="black" points="229.5,-150 229.5,-180 342.5,-180 342.5,-150 229.5,-150"/>
<text text-anchor="start" x="237.5" y="-168" font-family="Helvetica,sans-Serif" font-size="10.00">ant::analysis::utils</text>
<text text-anchor="middle" x="286" y="-157" font-family="Helvetica,sans-Serif" font-size="10.00">::MCWeighting::tree_t</text>
</a>
</g>
</g>
<!-- Node7&#45;&gt;Node4 -->
<g id="edge4" class="edge"><title>Node7&#45;&gt;Node4</title>
<path fill="none" stroke="#9a32cd" stroke-dasharray="5,2" d="M353.046,-165.73C424.792,-166.523 537.65,-167.77 601.263,-168.473"/>
<polygon fill="#9a32cd" stroke="#9a32cd" points="352.807,-162.227 342.769,-165.616 352.73,-169.227 352.807,-162.227"/>
<text text-anchor="middle" x="480" y="-171" font-family="Helvetica,sans-Serif" font-size="10.00"> treeMCWeighting</text>
</g>
<!-- Node8 -->
<g id="node6" class="node"><title>Node8</title>
<g id="a_node6"><a xlink:href="classant_1_1_wrap_t_tree.html" target="_top" xlink:title="The WrapTTree struct simplifies TTree handling in physics classes. ">
<polygon fill="white" stroke="black" points="19.5,-78.5 19.5,-97.5 104.5,-97.5 104.5,-78.5 19.5,-78.5"/>
<text text-anchor="middle" x="62" y="-85.5" font-family="Helvetica,sans-Serif" font-size="10.00">ant::WrapTTree</text>
</a>
</g>
</g>
<!-- Node8&#45;&gt;Node7 -->
<g id="edge5" class="edge"><title>Node8&#45;&gt;Node7</title>
<path fill="none" stroke="midnightblue" d="M95.5889,-101.479C122.752,-112.489 162.584,-128.116 198,-140 208.28,-143.45 219.339,-146.856 230.01,-149.991"/>
<polygon fill="midnightblue" stroke="midnightblue" points="96.7679,-98.1797 86.1865,-97.6468 94.1261,-104.662 96.7679,-98.1797"/>
</g>
<!-- Node9 -->
<g id="node7" class="node"><title>Node9</title>
<g id="a_node7"><a xlink:href="structant_1_1analysis_1_1physics_1_1_etap_omega_g_1_1_tree_common.html" target="_top" xlink:title="ant::analysis::physics\l::EtapOmegaG::TreeCommon">
<polygon fill="white" stroke="black" points="212.5,-101 212.5,-131 359.5,-131 359.5,-101 212.5,-101"/>
<text text-anchor="start" x="220.5" y="-119" font-family="Helvetica,sans-Serif" font-size="10.00">ant::analysis::physics</text>
<text text-anchor="middle" x="286" y="-108" font-family="Helvetica,sans-Serif" font-size="10.00">::EtapOmegaG::TreeCommon</text>
</a>
</g>
</g>
<!-- Node8&#45;&gt;Node9 -->
<g id="edge7" class="edge"><title>Node8&#45;&gt;Node9</title>
<path fill="none" stroke="midnightblue" d="M114.695,-94.5201C143.757,-98.1856 180.497,-102.819 212.407,-106.844"/>
<polygon fill="midnightblue" stroke="midnightblue" points="115.116,-91.0455 104.757,-93.2666 114.24,-97.9905 115.116,-91.0455"/>
</g>
<!-- Node12 -->
<g id="node10" class="node"><title>Node12</title>
<g id="a_node10"><a xlink:href="structant_1_1analysis_1_1physics_1_1_etap_omega_g_1_1_proton_photon_tree__t.html" target="_top" xlink:title="ant::analysis::physics\l::EtapOmegaG::ProtonPhotonTree_t">
<polygon fill="white" stroke="black" points="198.5,-52 198.5,-82 373.5,-82 373.5,-52 198.5,-52"/>
<text text-anchor="start" x="206.5" y="-70" font-family="Helvetica,sans-Serif" font-size="10.00">ant::analysis::physics</text>
<text text-anchor="middle" x="286" y="-59" font-family="Helvetica,sans-Serif" font-size="10.00">::EtapOmegaG::ProtonPhotonTree_t</text>
</a>
</g>
</g>
<!-- Node8&#45;&gt;Node12 -->
<g id="edge11" class="edge"><title>Node8&#45;&gt;Node12</title>
<path fill="none" stroke="midnightblue" d="M115.032,-83.078C139.853,-80.7301 170.217,-77.8578 198.379,-75.1939"/>
<polygon fill="midnightblue" stroke="midnightblue" points="114.382,-79.6238 104.757,-84.0501 115.042,-86.5927 114.382,-79.6238"/>
</g>
<!-- Node14 -->
<g id="node12" class="node"><title>Node14</title>
<g id="a_node12"><a xlink:href="structant_1_1analysis_1_1physics_1_1_etap_omega_g_1_1_sig__t_1_1_shared_tree__t.html" target="_top" xlink:title="ant::analysis::physics\l::EtapOmegaG::Sig_t::SharedTree_t">
<polygon fill="white" stroke="black" points="392.5,-0 392.5,-30 567.5,-30 567.5,-0 392.5,-0"/>
<text text-anchor="start" x="400.5" y="-18" font-family="Helvetica,sans-Serif" font-size="10.00">ant::analysis::physics</text>
<text text-anchor="middle" x="480" y="-7" font-family="Helvetica,sans-Serif" font-size="10.00">::EtapOmegaG::Sig_t::SharedTree_t</text>
</a>
</g>
</g>
<!-- Node8&#45;&gt;Node14 -->
<g id="edge15" class="edge"><title>Node8&#45;&gt;Node14</title>
<path fill="none" stroke="midnightblue" d="M95.2798,-74.623C122.26,-64.0243 161.998,-49.7526 198,-42 262.321,-28.1495 336.458,-21.4005 392.427,-18.1138"/>
<polygon fill="midnightblue" stroke="midnightblue" points="93.9409,-71.3888 85.9476,-78.3427 96.5328,-77.8913 93.9409,-71.3888"/>
</g>
<!-- Node9&#45;&gt;Node4 -->
<g id="edge6" class="edge"><title>Node9&#45;&gt;Node4</title>
<path fill="none" stroke="#9a32cd" stroke-dasharray="5,2" d="M370.006,-124.25C426.113,-130.338 501.76,-139.541 568,-151 581.627,-153.357 596.424,-156.478 609.598,-159.458"/>
<polygon fill="#9a32cd" stroke="#9a32cd" points="370.08,-120.738 359.764,-123.15 369.332,-127.698 370.08,-120.738"/>
<text text-anchor="middle" x="480" y="-154" font-family="Helvetica,sans-Serif" font-size="10.00"> treeCommon</text>
</g>
<!-- Node10 -->
<g id="node8" class="node"><title>Node10</title>
<g id="a_node8"><a xlink:href="structant_1_1analysis_1_1physics_1_1_etap_omega_g_1_1_sig__t_1_1_pi0__t_1_1_tree__t.html" target="_top" xlink:title="ant::analysis::physics\l::EtapOmegaG::Sig_t::Pi0\l_t::Tree_t">
<polygon fill="white" stroke="black" points="831.5,-101.5 831.5,-142.5 962.5,-142.5 962.5,-101.5 831.5,-101.5"/>
<text text-anchor="start" x="839.5" y="-130.5" font-family="Helvetica,sans-Serif" font-size="10.00">ant::analysis::physics</text>
<text text-anchor="start" x="839.5" y="-119.5" font-family="Helvetica,sans-Serif" font-size="10.00">::EtapOmegaG::Sig_t::Pi0</text>
<text text-anchor="middle" x="897" y="-108.5" font-family="Helvetica,sans-Serif" font-size="10.00">_t::Tree_t</text>
</a>
</g>
</g>
<!-- Node10&#45;&gt;Node3 -->
<g id="edge8" class="edge"><title>Node10&#45;&gt;Node3</title>
<path fill="none" stroke="#9a32cd" stroke-dasharray="5,2" d="M972.981,-111.924C1011.6,-106.733 1057.95,-100.505 1093.67,-95.7042"/>
<polygon fill="#9a32cd" stroke="#9a32cd" points="972.27,-108.488 962.825,-113.288 973.202,-115.425 972.27,-108.488"/>
<text text-anchor="middle" x="1036" y="-112" font-family="Helvetica,sans-Serif" font-size="10.00"> treeSigPi0</text>
</g>
<!-- Node11 -->
<g id="node9" class="node"><title>Node11</title>
<g id="a_node9"><a xlink:href="structant_1_1analysis_1_1physics_1_1_etap_omega_g_1_1_sig__t_1_1_fit__t_1_1_base_tree__t.html" target="_top" xlink:title="ant::analysis::physics\l::EtapOmegaG::Sig_t::Fit\l_t::BaseTree_t">
<polygon fill="white" stroke="black" points="586,-46.5 586,-87.5 714,-87.5 714,-46.5 586,-46.5"/>
<text text-anchor="start" x="594" y="-75.5" font-family="Helvetica,sans-Serif" font-size="10.00">ant::analysis::physics</text>
<text text-anchor="start" x="594" y="-64.5" font-family="Helvetica,sans-Serif" font-size="10.00">::EtapOmegaG::Sig_t::Fit</text>
<text text-anchor="middle" x="650" y="-53.5" font-family="Helvetica,sans-Serif" font-size="10.00">_t::BaseTree_t</text>
</a>
</g>
</g>
<!-- Node11&#45;&gt;Node10 -->
<g id="edge9" class="edge"><title>Node11&#45;&gt;Node10</title>
<path fill="none" stroke="midnightblue" d="M724.006,-83.3891C758.13,-91.0496 798.414,-100.093 831.414,-107.501"/>
<polygon fill="midnightblue" stroke="midnightblue" points="724.617,-79.9393 714.094,-81.1639 723.084,-86.7693 724.617,-79.9393"/>
</g>
<!-- Node13 -->
<g id="node11" class="node"><title>Node13</title>
<g id="a_node11"><a xlink:href="structant_1_1analysis_1_1physics_1_1_etap_omega_g_1_1_sig__t_1_1_omega_pi0__t_1_1_tree__t.html" target="_top" xlink:title="ant::analysis::physics\l::EtapOmegaG::Sig_t::OmegaPi0\l_t::Tree_t">
<polygon fill="white" stroke="black" points="816,-41.5 816,-82.5 978,-82.5 978,-41.5 816,-41.5"/>
<text text-anchor="start" x="824" y="-70.5" font-family="Helvetica,sans-Serif" font-size="10.00">ant::analysis::physics</text>
<text text-anchor="start" x="824" y="-59.5" font-family="Helvetica,sans-Serif" font-size="10.00">::EtapOmegaG::Sig_t::OmegaPi0</text>
<text text-anchor="middle" x="897" y="-48.5" font-family="Helvetica,sans-Serif" font-size="10.00">_t::Tree_t</text>
</a>
</g>
</g>
<!-- Node11&#45;&gt;Node13 -->
<g id="edge13" class="edge"><title>Node11&#45;&gt;Node13</title>
<path fill="none" stroke="midnightblue" d="M724.129,-65.5076C753.058,-64.9172 786.399,-64.2368 815.971,-63.6332"/>
<polygon fill="midnightblue" stroke="midnightblue" points="724.02,-62.009 714.094,-65.7124 724.163,-69.0075 724.02,-62.009"/>
</g>
<!-- Node12&#45;&gt;Node11 -->
<g id="edge10" class="edge"><title>Node12&#45;&gt;Node11</title>
<path fill="none" stroke="midnightblue" d="M383.835,-67C447.948,-67 530.185,-67 585.955,-67"/>
<polygon fill="midnightblue" stroke="midnightblue" points="383.708,-63.5001 373.708,-67 383.708,-70.5001 383.708,-63.5001"/>
</g>
<!-- Node13&#45;&gt;Node3 -->
<g id="edge12" class="edge"><title>Node13&#45;&gt;Node3</title>
<path fill="none" stroke="#9a32cd" stroke-dasharray="5,2" d="M988.527,-67.7091C1016.61,-69.8587 1047.63,-72.6198 1076,-76 1082.02,-76.7175 1088.3,-77.5647 1094.55,-78.4717"/>
<polygon fill="#9a32cd" stroke="#9a32cd" points="988.559,-64.2018 978.325,-66.9448 988.036,-71.1822 988.559,-64.2018"/>
<text text-anchor="middle" x="1036" y="-79" font-family="Helvetica,sans-Serif" font-size="10.00"> treeSigOmegaPi0</text>
</g>
<!-- Node14&#45;&gt;Node3 -->
<g id="edge14" class="edge"><title>Node14&#45;&gt;Node3</title>
<path fill="none" stroke="#9a32cd" stroke-dasharray="5,2" d="M577.662,-10.4034C678.416,-7.45013 840.498,-7.88354 978,-32 1033.66,-41.762 1096.06,-65.2512 1128.57,-78.4983"/>
<polygon fill="#9a32cd" stroke="#9a32cd" points="577.388,-6.91008 567.502,-10.7188 577.605,-13.9067 577.388,-6.91008"/>
<text text-anchor="middle" x="765" y="-16" font-family="Helvetica,sans-Serif" font-size="10.00"> treeSigShared</text>
</g>
</g>
</svg>
