<?xml version="1.0" encoding="UTF-8" standalone="no"?>
<!DOCTYPE svg PUBLIC "-//W3C//DTD SVG 1.1//EN"
 "http://www.w3.org/Graphics/SVG/1.1/DTD/svg11.dtd">
<!-- Generated by graphviz version 2.36.0 (20140111.2315)
 -->
<!-- Title: ant::expconfig::detector::TAPSVeto_2014 Pages: 1 -->
<svg width="237pt" height="164pt"
 viewBox="0.00 0.00 237.00 164.00" xmlns="http://www.w3.org/2000/svg" xmlns:xlink="http://www.w3.org/1999/xlink">
<g id="graph0" class="graph" transform="scale(1 1) rotate(0) translate(4 160)">
<title>ant::expconfig::detector::TAPSVeto_2014</title>
<polygon fill="white" stroke="none" points="-4,4 -4,-160 233,-160 233,4 -4,4"/>
<!-- Node4 -->
<g id="node1" class="node"><title>Node4</title>
<polygon fill="#bfbfbf" stroke="black" points="43.5,-1 43.5,-31 162.5,-31 162.5,-1 43.5,-1"/>
<text text-anchor="start" x="51.5" y="-19" font-family="Helvetica,sans-Serif" font-size="10.00">ant::expconfig::detector</text>
<text text-anchor="middle" x="103" y="-8" font-family="Helvetica,sans-Serif" font-size="10.00">::TAPSVeto_2014</text>
</g>
<!-- Node5 -->
<g id="node2" class="node"><title>Node5</title>
<g id="a_node2"><a xlink:href="structant_1_1expconfig_1_1detector_1_1_t_a_p_s_veto.html" target="_top" xlink:title="ant::expconfig::detector\l::TAPSVeto">
<polygon fill="white" stroke="black" points="43.5,-69 43.5,-99 162.5,-99 162.5,-69 43.5,-69"/>
<text text-anchor="start" x="51.5" y="-87" font-family="Helvetica,sans-Serif" font-size="10.00">ant::expconfig::detector</text>
<text text-anchor="middle" x="103" y="-76" font-family="Helvetica,sans-Serif" font-size="10.00">::TAPSVeto</text>
</a>
</g>
</g>
<!-- Node5&#45;&gt;Node4 -->
<g id="edge1" class="edge"><title>Node5&#45;&gt;Node4</title>
<path fill="none" stroke="midnightblue" d="M103,-58.5322C103,-49.3606 103,-39.2449 103,-31.2931"/>
<polygon fill="midnightblue" stroke="midnightblue" points="99.5001,-58.6789 103,-68.679 106.5,-58.679 99.5001,-58.6789"/>
</g>
<!-- Node6 -->
<g id="node3" class="node"><title>Node6</title>
<g id="a_node3"><a xlink:href="structant_1_1_detector__t.html" target="_top" xlink:title="The Detector_t struct is the minimal base class for all detectors. ">
<polygon fill="white" stroke="black" points="0,-136.5 0,-155.5 82,-155.5 82,-136.5 0,-136.5"/>
<text text-anchor="middle" x="41" y="-143.5" font-family="Helvetica,sans-Serif" font-size="10.00">ant::Detector_t</text>
</a>
</g>
</g>
<!-- Node6&#45;&gt;Node5 -->
<g id="edge2" class="edge"><title>Node6&#45;&gt;Node5</title>
<path fill="none" stroke="midnightblue" d="M57.2878,-129.238C66.933,-119.904 79.0519,-108.176 88.3878,-99.1408"/>
<polygon fill="midnightblue" stroke="midnightblue" points="54.6352,-126.934 49.8831,-136.403 59.5031,-131.964 54.6352,-126.934"/>
</g>
<!-- Node7 -->
<g id="node4" class="node"><title>Node7</title>
<g id="a_node4"><a xlink:href="classant_1_1_unpacker_acqu_config.html" target="_top" xlink:title="ant::UnpackerAcquConfig">
<polygon fill="white" stroke="black" points="100.5,-136.5 100.5,-155.5 229.5,-155.5 229.5,-136.5 100.5,-136.5"/>
<text text-anchor="middle" x="165" y="-143.5" font-family="Helvetica,sans-Serif" font-size="10.00">ant::UnpackerAcquConfig</text>
</a>
</g>
</g>
<!-- Node7&#45;&gt;Node5 -->
<g id="edge3" class="edge"><title>Node7&#45;&gt;Node5</title>
<path fill="none" stroke="midnightblue" d="M148.712,-129.238C139.067,-119.904 126.948,-108.176 117.612,-99.1408"/>
<polygon fill="midnightblue" stroke="midnightblue" points="146.497,-131.964 156.117,-136.403 151.365,-126.934 146.497,-131.964"/>
</g>
</g>
</svg>
