<?xml version="1.0" encoding="UTF-8" standalone="no"?>
<!DOCTYPE svg PUBLIC "-//W3C//DTD SVG 1.1//EN"
 "http://www.w3.org/Graphics/SVG/1.1/DTD/svg11.dtd">
<!-- Generated by graphviz version 2.36.0 (20140111.2315)
 -->
<!-- Title: ant::analysis::physics::TAPS_Energy::tree_data_t Pages: 1 -->
<svg width="256pt" height="152pt"
 viewBox="0.00 0.00 256.00 152.00" xmlns="http://www.w3.org/2000/svg" xmlns:xlink="http://www.w3.org/1999/xlink">
<g id="graph0" class="graph" transform="scale(1 1) rotate(0) translate(4 148)">
<title>ant::analysis::physics::TAPS_Energy::tree_data_t</title>
<polygon fill="white" stroke="none" points="-4,4 -4,-148 252,-148 252,4 -4,4"/>
<!-- Node1 -->
<g id="node1" class="node"><title>Node1</title>
<polygon fill="#bfbfbf" stroke="black" points="56,-1 56,-31 196,-31 196,-1 56,-1"/>
<text text-anchor="start" x="64" y="-19" font-family="Helvetica,sans-Serif" font-size="10.00">ant::analysis::physics</text>
<text text-anchor="middle" x="126" y="-8" font-family="Helvetica,sans-Serif" font-size="10.00">::TAPS_Energy::tree_data_t</text>
</g>
<!-- Node2 -->
<g id="node2" class="node"><title>Node2</title>
<polygon fill="white" stroke="#bfbfbf" points="0,-124.5 0,-143.5 120,-143.5 120,-124.5 0,-124.5"/>
<text text-anchor="middle" x="60" y="-131.5" font-family="Helvetica,sans-Serif" font-size="10.00">std::vector&lt; unsigned &gt;</text>
</g>
<!-- Node2&#45;&gt;Node1 -->
<g id="edge1" class="edge"><title>Node2&#45;&gt;Node1</title>
<path fill="none" stroke="#9a32cd" stroke-dasharray="5,2" d="M69.9256,-115.555C83.0404,-92.5047 105.889,-52.347 117.974,-31.1061"/>
<polygon fill="#9a32cd" stroke="#9a32cd" points="66.8639,-113.859 64.9607,-124.281 72.9481,-117.32 66.8639,-113.859"/>
<text text-anchor="middle" x="127" y="-75.5" font-family="Helvetica,sans-Serif" font-size="10.00"> Channel</text>
</g>
<!-- Node3 -->
<g id="node3" class="node"><title>Node3</title>
<polygon fill="white" stroke="#bfbfbf" points="138,-124.5 138,-143.5 248,-143.5 248,-124.5 138,-124.5"/>
<text text-anchor="middle" x="193" y="-131.5" font-family="Helvetica,sans-Serif" font-size="10.00">std::vector&lt; double &gt;</text>
</g>
<!-- Node3&#45;&gt;Node1 -->
<g id="edge2" class="edge"><title>Node3&#45;&gt;Node1</title>
<path fill="none" stroke="#9a32cd" stroke-dasharray="5,2" d="M185.093,-115.122C177.243,-97.9645 164.463,-71.5507 151,-50 146.963,-43.5384 141.983,-36.77 137.533,-31.0568"/>
<polygon fill="#9a32cd" stroke="#9a32cd" points="182.01,-116.801 189.306,-124.483 188.394,-113.928 182.01,-116.801"/>
<text text-anchor="middle" x="194" y="-97.5" font-family="Helvetica,sans-Serif" font-size="10.00"> Ek</text>
<text text-anchor="middle" x="194" y="-86.5" font-family="Helvetica,sans-Serif" font-size="10.00">VetoE</text>
<text text-anchor="middle" x="194" y="-75.5" font-family="Helvetica,sans-Serif" font-size="10.00">Theta</text>
<text text-anchor="middle" x="194" y="-64.5" font-family="Helvetica,sans-Serif" font-size="10.00">Time</text>
<text text-anchor="middle" x="194" y="-53.5" font-family="Helvetica,sans-Serif" font-size="10.00">Phi</text>
</g>
</g>
</svg>
