<?xml version="1.0" encoding="UTF-8" standalone="no"?>
<!DOCTYPE svg PUBLIC "-//W3C//DTD SVG 1.1//EN"
 "http://www.w3.org/Graphics/SVG/1.1/DTD/svg11.dtd">
<!-- Generated by graphviz version 2.36.0 (20140111.2315)
 -->
<!-- Title: ant::analysis::utils::UncertaintyModels::Optimized Pages: 1 -->
<svg width="444pt" height="131pt"
 viewBox="0.00 0.00 444.00 131.00" xmlns="http://www.w3.org/2000/svg" xmlns:xlink="http://www.w3.org/1999/xlink">
<g id="graph0" class="graph" transform="scale(1 1) rotate(0) translate(4 127)">
<title>ant::analysis::utils::UncertaintyModels::Optimized</title>
<polygon fill="white" stroke="none" points="-4,4 -4,-127 440,-127 440,4 -4,4"/>
<!-- Node3 -->
<g id="node1" class="node"><title>Node3</title>
<polygon fill="#bfbfbf" stroke="black" points="326,-38.5 326,-79.5 436,-79.5 436,-38.5 326,-38.5"/>
<text text-anchor="start" x="334" y="-67.5" font-family="Helvetica,sans-Serif" font-size="10.00">ant::analysis::utils</text>
<text text-anchor="start" x="334" y="-56.5" font-family="Helvetica,sans-Serif" font-size="10.00">::UncertaintyModels::</text>
<text text-anchor="middle" x="381" y="-45.5" font-family="Helvetica,sans-Serif" font-size="10.00">Optimized</text>
</g>
<!-- Node4 -->
<g id="node2" class="node"><title>Node4</title>
<g id="a_node2"><a xlink:href="classant_1_1analysis_1_1utils_1_1_uncertainty_model.html" target="_top" xlink:title="Virtual base class for different Uncertainty Models for fitter. Implement at least the GetSigmas() me...">
<polygon fill="white" stroke="black" points="134.5,-93 134.5,-123 233.5,-123 233.5,-93 134.5,-93"/>
<text text-anchor="start" x="142.5" y="-111" font-family="Helvetica,sans-Serif" font-size="10.00">ant::analysis::utils</text>
<text text-anchor="middle" x="184" y="-100" font-family="Helvetica,sans-Serif" font-size="10.00">::UncertaintyModel</text>
</a>
</g>
</g>
<!-- Node4&#45;&gt;Node3 -->
<g id="edge1" class="edge"><title>Node4&#45;&gt;Node3</title>
<path fill="none" stroke="midnightblue" d="M243.467,-99.0594C264.031,-95.3911 287.194,-90.6621 308,-85 313.899,-83.3947 320.003,-81.5269 326.047,-79.5426"/>
<polygon fill="midnightblue" stroke="midnightblue" points="242.855,-95.6132 233.602,-100.774 244.054,-102.51 242.855,-95.6132"/>
</g>
<!-- Node5 -->
<g id="node3" class="node"><title>Node5</title>
<g id="a_node3"><a xlink:href="structant_1_1analysis_1_1utils_1_1_uncertainties__t.html" target="_top" xlink:title="Uncertainties for E, theta, and phi and some CB/TAPS specific values. ">
<polygon fill="white" stroke="black" points="136,-44 136,-74 232,-74 232,-44 136,-44"/>
<text text-anchor="start" x="144" y="-62" font-family="Helvetica,sans-Serif" font-size="10.00">ant::analysis::utils</text>
<text text-anchor="middle" x="184" y="-51" font-family="Helvetica,sans-Serif" font-size="10.00">::Uncertainties_t</text>
</a>
</g>
</g>
<!-- Node5&#45;&gt;Node3 -->
<g id="edge2" class="edge"><title>Node5&#45;&gt;Node3</title>
<path fill="none" stroke="#9a32cd" stroke-dasharray="5,2" d="M242.448,-59C268.859,-59 300.016,-59 325.993,-59"/>
<polygon fill="#9a32cd" stroke="#9a32cd" points="242.204,-55.5001 232.204,-59 242.204,-62.5001 242.204,-55.5001"/>
<text text-anchor="middle" x="280" y="-73" font-family="Helvetica,sans-Serif" font-size="10.00"> taps_proton</text>
<text text-anchor="middle" x="280" y="-62" font-family="Helvetica,sans-Serif" font-size="10.00">cb_proton</text>
</g>
<!-- Node6 -->
<g id="node4" class="node"><title>Node6</title>
<g id="a_node4"><a xlink:title="STL class. ">
<polygon fill="white" stroke="#bfbfbf" points="154,-5.5 154,-24.5 214,-24.5 214,-5.5 154,-5.5"/>
<text text-anchor="middle" x="184" y="-12.5" font-family="Helvetica,sans-Serif" font-size="10.00">std::string</text>
</a>
</g>
</g>
<!-- Node6&#45;&gt;Node3 -->
<g id="edge3" class="edge"><title>Node6&#45;&gt;Node3</title>
<path fill="none" stroke="#9a32cd" stroke-dasharray="5,2" d="M224.031,-23.807C253.241,-30.3979 293.552,-39.4938 325.875,-46.7871"/>
<polygon fill="#9a32cd" stroke="#9a32cd" points="224.719,-20.3742 214.193,-21.5872 223.178,-27.2026 224.719,-20.3742"/>
<text text-anchor="middle" x="280" y="-46" font-family="Helvetica,sans-Serif" font-size="10.00"> separator</text>
</g>
<!-- Node7 -->
<g id="node5" class="node"><title>Node7</title>
<g id="a_node5"><a xlink:title="STL class. ">
<polygon fill="white" stroke="#bfbfbf" points="0.5,-0 0.5,-30 95.5,-30 95.5,-0 0.5,-0"/>
<text text-anchor="start" x="8.5" y="-18" font-family="Helvetica,sans-Serif" font-size="10.00">std::basic_string&lt;</text>
<text text-anchor="middle" x="48" y="-7" font-family="Helvetica,sans-Serif" font-size="10.00"> char &gt;</text>
</a>
</g>
</g>
<!-- Node7&#45;&gt;Node6 -->
<g id="edge4" class="edge"><title>Node7&#45;&gt;Node6</title>
<path fill="none" stroke="midnightblue" d="M106.01,-15C122.533,-15 139.885,-15 153.924,-15"/>
<polygon fill="midnightblue" stroke="midnightblue" points="105.867,-11.5001 95.8667,-15 105.867,-18.5001 105.867,-11.5001"/>
</g>
</g>
</svg>
