<?xml version="1.0" encoding="UTF-8" standalone="no"?>
<!DOCTYPE svg PUBLIC "-//W3C//DTD SVG 1.1//EN"
 "http://www.w3.org/Graphics/SVG/1.1/DTD/svg11.dtd">
<!-- Generated by graphviz version 2.36.0 (20140111.2315)
 -->
<!-- Title: ant::analysis::slowcontrol::processor::Beam Pages: 1 -->
<svg width="740pt" height="65pt"
 viewBox="0.00 0.00 740.00 65.00" xmlns="http://www.w3.org/2000/svg" xmlns:xlink="http://www.w3.org/1999/xlink">
<g id="graph0" class="graph" transform="scale(1 1) rotate(0) translate(4 61)">
<title>ant::analysis::slowcontrol::processor::Beam</title>
<polygon fill="white" stroke="none" points="-4,4 -4,-61 736,-61 736,4 -4,4"/>
<!-- Node2 -->
<g id="node1" class="node"><title>Node2</title>
<polygon fill="#bfbfbf" stroke="black" points="604,-23 604,-53 732,-53 732,-23 604,-23"/>
<text text-anchor="start" x="612" y="-41" font-family="Helvetica,sans-Serif" font-size="10.00">ant::analysis::slowcontrol</text>
<text text-anchor="middle" x="668" y="-30" font-family="Helvetica,sans-Serif" font-size="10.00">::processor::Beam</text>
</g>
<!-- Node3 -->
<g id="node2" class="node"><title>Node3</title>
<g id="a_node2"><a xlink:href="structant_1_1analysis_1_1slowcontrol_1_1_processor.html" target="_top" xlink:title="ant::analysis::slowcontrol\l::Processor">
<polygon fill="white" stroke="black" points="0,-27 0,-57 128,-57 128,-27 0,-27"/>
<text text-anchor="start" x="8" y="-45" font-family="Helvetica,sans-Serif" font-size="10.00">ant::analysis::slowcontrol</text>
<text text-anchor="middle" x="64" y="-34" font-family="Helvetica,sans-Serif" font-size="10.00">::Processor</text>
</a>
</g>
</g>
<!-- Node3&#45;&gt;Node2 -->
<g id="edge1" class="edge"><title>Node3&#45;&gt;Node2</title>
<path fill="none" stroke="midnightblue" d="M138.317,-43.8824C140.91,-43.926 143.477,-43.9655 146,-44 313.096,-46.2848 354.888,-44.7778 522,-45 550.444,-45.0378 557.582,-46.2257 586,-45 591.782,-44.7506 597.789,-44.4016 603.802,-43.9912"/>
<polygon fill="midnightblue" stroke="midnightblue" points="138.293,-40.3815 128.23,-43.6957 138.163,-47.3803 138.293,-40.3815"/>
</g>
<!-- Node5 -->
<g id="node4" class="node"><title>Node5</title>
<g id="a_node4"><a xlink:href="structant_1_1analysis_1_1slowcontrol_1_1processor_1_1_acqu_scaler_vector.html" target="_top" xlink:title="ant::analysis::slowcontrol\l::processor::AcquScalerVector">
<polygon fill="white" stroke="black" points="166,-0 166,-30 316,-30 316,-0 166,-0"/>
<text text-anchor="start" x="174" y="-18" font-family="Helvetica,sans-Serif" font-size="10.00">ant::analysis::slowcontrol</text>
<text text-anchor="middle" x="241" y="-7" font-family="Helvetica,sans-Serif" font-size="10.00">::processor::AcquScalerVector</text>
</a>
</g>
</g>
<!-- Node3&#45;&gt;Node5 -->
<g id="edge4" class="edge"><title>Node3&#45;&gt;Node5</title>
<path fill="none" stroke="midnightblue" d="M138.351,-30.683C147.459,-29.2778 156.776,-27.8402 165.895,-26.4333"/>
<polygon fill="midnightblue" stroke="midnightblue" points="137.528,-27.2684 128.179,-32.2524 138.596,-34.1866 137.528,-27.2684"/>
</g>
<!-- Node4 -->
<g id="node3" class="node"><title>Node4</title>
<g id="a_node3"><a xlink:href="structant_1_1analysis_1_1slowcontrol_1_1processor_1_1_acqu_scaler_scalar.html" target="_top" xlink:title="ant::analysis::slowcontrol\l::processor::AcquScalerScalar">
<polygon fill="white" stroke="black" points="354.5,-0 354.5,-30 503.5,-30 503.5,-0 354.5,-0"/>
<text text-anchor="start" x="362.5" y="-18" font-family="Helvetica,sans-Serif" font-size="10.00">ant::analysis::slowcontrol</text>
<text text-anchor="middle" x="429" y="-7" font-family="Helvetica,sans-Serif" font-size="10.00">::processor::AcquScalerScalar</text>
</a>
</g>
</g>
<!-- Node4&#45;&gt;Node2 -->
<g id="edge2" class="edge"><title>Node4&#45;&gt;Node2</title>
<path fill="none" stroke="#9a32cd" stroke-dasharray="5,2" d="M513.824,-17.2633C537.237,-18.4479 562.656,-20.2521 586,-23 591.823,-23.6855 597.859,-24.5362 603.89,-25.4815"/>
<polygon fill="#9a32cd" stroke="#9a32cd" points="513.73,-13.755 503.575,-16.7771 513.398,-20.7472 513.73,-13.755"/>
<text text-anchor="middle" x="554" y="-37" font-family="Helvetica,sans-Serif" font-size="10.00"> PairSpecGate</text>
<text text-anchor="middle" x="554" y="-26" font-family="Helvetica,sans-Serif" font-size="10.00">IonChamber</text>
</g>
<!-- Node5&#45;&gt;Node4 -->
<g id="edge3" class="edge"><title>Node5&#45;&gt;Node4</title>
<path fill="none" stroke="midnightblue" d="M326.141,-15C335.504,-15 344.988,-15 354.208,-15"/>
<polygon fill="midnightblue" stroke="midnightblue" points="326.047,-11.5001 316.047,-15 326.047,-18.5001 326.047,-11.5001"/>
</g>
</g>
</svg>
