<?xml version="1.0" encoding="UTF-8" standalone="no"?>
<!DOCTYPE svg PUBLIC "-//W3C//DTD SVG 1.1//EN"
 "http://www.w3.org/Graphics/SVG/1.1/DTD/svg11.dtd">
<!-- Generated by graphviz version 2.36.0 (20140111.2315)
 -->
<!-- Title: ant::analysis::physics::Pi0Eta::ReactionChannelList_t Pages: 1 -->
<svg width="164pt" height="348pt"
 viewBox="0.00 0.00 164.00 348.00" xmlns="http://www.w3.org/2000/svg" xmlns:xlink="http://www.w3.org/1999/xlink">
<g id="graph0" class="graph" transform="scale(1 1) rotate(0) translate(4 344)">
<title>ant::analysis::physics::Pi0Eta::ReactionChannelList_t</title>
<polygon fill="white" stroke="none" points="-4,4 -4,-344 160,-344 160,4 -4,4"/>
<!-- Node1 -->
<g id="node1" class="node"><title>Node1</title>
<polygon fill="#bfbfbf" stroke="black" points="-0.5,-1 -0.5,-31 156.5,-31 156.5,-1 -0.5,-1"/>
<text text-anchor="start" x="7.5" y="-19" font-family="Helvetica,sans-Serif" font-size="10.00">ant::analysis::physics</text>
<text text-anchor="middle" x="78" y="-8" font-family="Helvetica,sans-Serif" font-size="10.00">::Pi0Eta::ReactionChannelList_t</text>
</g>
<!-- Node2 -->
<g id="node2" class="node"><title>Node2</title>
<polygon fill="white" stroke="#bfbfbf" points="3,-80.5 3,-121.5 153,-121.5 153,-80.5 3,-80.5"/>
<text text-anchor="start" x="11" y="-109.5" font-family="Helvetica,sans-Serif" font-size="10.00">std::map&lt; unsigned,</text>
<text text-anchor="start" x="11" y="-98.5" font-family="Helvetica,sans-Serif" font-size="10.00"> ant::analysis::physics</text>
<text text-anchor="middle" x="78" y="-87.5" font-family="Helvetica,sans-Serif" font-size="10.00">::Pi0Eta::ReactionChannel_t &gt;</text>
</g>
<!-- Node2&#45;&gt;Node1 -->
<g id="edge1" class="edge"><title>Node2&#45;&gt;Node1</title>
<path fill="none" stroke="#9a32cd" stroke-dasharray="5,2" d="M78,-70.1369C78,-56.8157 78,-41.7541 78,-31.0769"/>
<polygon fill="#9a32cd" stroke="#9a32cd" points="74.5001,-70.3301 78,-80.3302 81.5001,-70.3302 74.5001,-70.3301"/>
<text text-anchor="middle" x="99.5" y="-53.5" font-family="Helvetica,sans-Serif" font-size="10.00"> channels</text>
</g>
<!-- Node3 -->
<g id="node3" class="node"><title>Node3</title>
<g id="a_node3"><a xlink:href="structant_1_1analysis_1_1physics_1_1_pi0_eta_1_1_reaction_channel__t.html" target="_top" xlink:title="ant::analysis::physics\l::Pi0Eta::ReactionChannel_t">
<polygon fill="white" stroke="black" points="7.5,-171 7.5,-201 148.5,-201 148.5,-171 7.5,-171"/>
<text text-anchor="start" x="15.5" y="-189" font-family="Helvetica,sans-Serif" font-size="10.00">ant::analysis::physics</text>
<text text-anchor="middle" x="78" y="-178" font-family="Helvetica,sans-Serif" font-size="10.00">::Pi0Eta::ReactionChannel_t</text>
</a>
</g>
</g>
<!-- Node3&#45;&gt;Node2 -->
<g id="edge2" class="edge"><title>Node3&#45;&gt;Node2</title>
<path fill="none" stroke="#9a32cd" stroke-dasharray="5,2" d="M78,-160.805C78,-148.394 78,-133.468 78,-121.759"/>
<polygon fill="#9a32cd" stroke="#9a32cd" points="74.5001,-160.92 78,-170.92 81.5001,-160.92 74.5001,-160.92"/>
<text text-anchor="middle" x="99.5" y="-143.5" font-family="Helvetica,sans-Serif" font-size="10.00"> elements</text>
</g>
<!-- Node4 -->
<g id="node4" class="node"><title>Node4</title>
<g id="a_node4"><a xlink:title="STL class. ">
<polygon fill="white" stroke="#bfbfbf" points="48,-250.5 48,-269.5 108,-269.5 108,-250.5 48,-250.5"/>
<text text-anchor="middle" x="78" y="-257.5" font-family="Helvetica,sans-Serif" font-size="10.00">std::string</text>
</a>
</g>
</g>
<!-- Node4&#45;&gt;Node3 -->
<g id="edge3" class="edge"><title>Node4&#45;&gt;Node3</title>
<path fill="none" stroke="#9a32cd" stroke-dasharray="5,2" d="M78,-240.085C78,-227.915 78,-212.354 78,-201.232"/>
<polygon fill="#9a32cd" stroke="#9a32cd" points="74.5001,-240.458 78,-250.458 81.5001,-240.458 74.5001,-240.458"/>
<text text-anchor="middle" x="92" y="-223.5" font-family="Helvetica,sans-Serif" font-size="10.00"> name</text>
</g>
<!-- Node5 -->
<g id="node5" class="node"><title>Node5</title>
<g id="a_node5"><a xlink:title="STL class. ">
<polygon fill="white" stroke="#bfbfbf" points="30.5,-309 30.5,-339 125.5,-339 125.5,-309 30.5,-309"/>
<text text-anchor="start" x="38.5" y="-327" font-family="Helvetica,sans-Serif" font-size="10.00">std::basic_string&lt;</text>
<text text-anchor="middle" x="78" y="-316" font-family="Helvetica,sans-Serif" font-size="10.00"> char &gt;</text>
</a>
</g>
</g>
<!-- Node5&#45;&gt;Node4 -->
<g id="edge4" class="edge"><title>Node5&#45;&gt;Node4</title>
<path fill="none" stroke="midnightblue" d="M78,-298.871C78,-288.663 78,-277.408 78,-269.842"/>
<polygon fill="midnightblue" stroke="midnightblue" points="74.5001,-298.931 78,-308.931 81.5001,-298.931 74.5001,-298.931"/>
</g>
</g>
</svg>
