<?xml version="1.0" encoding="UTF-8" standalone="no"?>
<!DOCTYPE svg PUBLIC "-//W3C//DTD SVG 1.1//EN"
 "http://www.w3.org/Graphics/SVG/1.1/DTD/svg11.dtd">
<!-- Generated by graphviz version 2.36.0 (20140111.2315)
 -->
<!-- Title: ant::analysis::physics::triplePi0::SeenTree Pages: 1 -->
<svg width="118pt" height="164pt"
 viewBox="0.00 0.00 118.00 164.00" xmlns="http://www.w3.org/2000/svg" xmlns:xlink="http://www.w3.org/1999/xlink">
<g id="graph0" class="graph" transform="scale(1 1) rotate(0) translate(4 160)">
<title>ant::analysis::physics::triplePi0::SeenTree</title>
<polygon fill="white" stroke="none" points="-4,4 -4,-160 114,-160 114,4 -4,4"/>
<!-- Node3 -->
<g id="node1" class="node"><title>Node3</title>
<polygon fill="#bfbfbf" stroke="black" points="-1,-1 -1,-31 111,-31 111,-1 -1,-1"/>
<text text-anchor="start" x="7" y="-19" font-family="Helvetica,sans-Serif" font-size="10.00">ant::analysis::physics</text>
<text text-anchor="middle" x="55" y="-8" font-family="Helvetica,sans-Serif" font-size="10.00">::triplePi0::SeenTree</text>
</g>
<!-- Node4 -->
<g id="node2" class="node"><title>Node4</title>
<g id="a_node2"><a xlink:href="structant_1_1analysis_1_1physics_1_1triple_pi0_1_1eff_tree__t.html" target="_top" xlink:title="ant::analysis::physics\l::triplePi0::effTree_t">
<polygon fill="white" stroke="black" points="-1,-69 -1,-99 111,-99 111,-69 -1,-69"/>
<text text-anchor="start" x="7" y="-87" font-family="Helvetica,sans-Serif" font-size="10.00">ant::analysis::physics</text>
<text text-anchor="middle" x="55" y="-76" font-family="Helvetica,sans-Serif" font-size="10.00">::triplePi0::effTree_t</text>
</a>
</g>
</g>
<!-- Node4&#45;&gt;Node3 -->
<g id="edge1" class="edge"><title>Node4&#45;&gt;Node3</title>
<path fill="none" stroke="midnightblue" d="M55,-58.5322C55,-49.3606 55,-39.2449 55,-31.2931"/>
<polygon fill="midnightblue" stroke="midnightblue" points="51.5001,-58.6789 55,-68.679 58.5001,-58.679 51.5001,-58.6789"/>
</g>
<!-- Node5 -->
<g id="node3" class="node"><title>Node5</title>
<g id="a_node3"><a xlink:href="classant_1_1_wrap_t_tree.html" target="_top" xlink:title="The WrapTTree struct simplifies TTree handling in physics classes. ">
<polygon fill="white" stroke="black" points="12.5,-136.5 12.5,-155.5 97.5,-155.5 97.5,-136.5 12.5,-136.5"/>
<text text-anchor="middle" x="55" y="-143.5" font-family="Helvetica,sans-Serif" font-size="10.00">ant::WrapTTree</text>
</a>
</g>
</g>
<!-- Node5&#45;&gt;Node4 -->
<g id="edge2" class="edge"><title>Node5&#45;&gt;Node4</title>
<path fill="none" stroke="midnightblue" d="M55,-126.371C55,-117.585 55,-107.272 55,-99.1408"/>
<polygon fill="midnightblue" stroke="midnightblue" points="51.5001,-126.403 55,-136.403 58.5001,-126.403 51.5001,-126.403"/>
</g>
</g>
</svg>
