<?xml version="1.0" encoding="UTF-8" standalone="no"?>
<!DOCTYPE svg PUBLIC "-//W3C//DTD SVG 1.1//EN"
 "http://www.w3.org/Graphics/SVG/1.1/DTD/svg11.dtd">
<!-- Generated by graphviz version 2.36.0 (20140111.2315)
 -->
<!-- Title: ant::analysis::input::GoatReader::treeTaggerInput_t Pages: 1 -->
<svg width="164pt" height="188pt"
 viewBox="0.00 0.00 164.00 188.00" xmlns="http://www.w3.org/2000/svg" xmlns:xlink="http://www.w3.org/1999/xlink">
<g id="graph0" class="graph" transform="scale(1 1) rotate(0) translate(4 184)">
<title>ant::analysis::input::GoatReader::treeTaggerInput_t</title>
<polygon fill="white" stroke="none" points="-4,4 -4,-184 160,-184 160,4 -4,4"/>
<!-- Node1 -->
<g id="node1" class="node"><title>Node1</title>
<polygon fill="#bfbfbf" stroke="black" points="-1,-1 -1,-31 157,-31 157,-1 -1,-1"/>
<text text-anchor="start" x="7" y="-19" font-family="Helvetica,sans-Serif" font-size="10.00">ant::analysis::input</text>
<text text-anchor="middle" x="78" y="-8" font-family="Helvetica,sans-Serif" font-size="10.00">::GoatReader::treeTaggerInput_t</text>
</g>
<!-- Node2 -->
<g id="node2" class="node"><title>Node2</title>
<g id="a_node2"><a xlink:href="structant_1_1analysis_1_1input_1_1_goat_reader_1_1tree_tagger_input__t_1_1tree__t.html" target="_top" xlink:title="ant::analysis::input\l::GoatReader::treeTaggerInput\l_t::tree_t">
<polygon fill="white" stroke="black" points="3.5,-80.5 3.5,-121.5 152.5,-121.5 152.5,-80.5 3.5,-80.5"/>
<text text-anchor="start" x="11.5" y="-109.5" font-family="Helvetica,sans-Serif" font-size="10.00">ant::analysis::input</text>
<text text-anchor="start" x="11.5" y="-98.5" font-family="Helvetica,sans-Serif" font-size="10.00">::GoatReader::treeTaggerInput</text>
<text text-anchor="middle" x="78" y="-87.5" font-family="Helvetica,sans-Serif" font-size="10.00">_t::tree_t</text>
</a>
</g>
</g>
<!-- Node2&#45;&gt;Node1 -->
<g id="edge1" class="edge"><title>Node2&#45;&gt;Node1</title>
<path fill="none" stroke="#9a32cd" stroke-dasharray="5,2" d="M78,-70.1369C78,-56.8157 78,-41.7541 78,-31.0769"/>
<polygon fill="#9a32cd" stroke="#9a32cd" points="74.5001,-70.3301 78,-80.3302 81.5001,-70.3302 74.5001,-70.3301"/>
<text text-anchor="middle" x="81.5" y="-53.5" font-family="Helvetica,sans-Serif" font-size="10.00"> t</text>
</g>
<!-- Node3 -->
<g id="node3" class="node"><title>Node3</title>
<g id="a_node3"><a xlink:href="classant_1_1_wrap_t_tree.html" target="_top" xlink:title="The WrapTTree struct simplifies TTree handling in physics classes. ">
<polygon fill="white" stroke="black" points="35.5,-160.5 35.5,-179.5 120.5,-179.5 120.5,-160.5 35.5,-160.5"/>
<text text-anchor="middle" x="78" y="-167.5" font-family="Helvetica,sans-Serif" font-size="10.00">ant::WrapTTree</text>
</a>
</g>
</g>
<!-- Node3&#45;&gt;Node2 -->
<g id="edge2" class="edge"><title>Node3&#45;&gt;Node2</title>
<path fill="none" stroke="midnightblue" d="M78,-150.174C78,-141.308 78,-130.734 78,-121.754"/>
<polygon fill="midnightblue" stroke="midnightblue" points="74.5001,-150.241 78,-160.241 81.5001,-150.241 74.5001,-150.241"/>
</g>
</g>
</svg>
