<?xml version="1.0" encoding="UTF-8" standalone="no"?>
<!DOCTYPE svg PUBLIC "-//W3C//DTD SVG 1.1//EN"
 "http://www.w3.org/Graphics/SVG/1.1/DTD/svg11.dtd">
<!-- Generated by graphviz version 2.36.0 (20140111.2315)
 -->
<!-- Title: ant::ClusterDetector_t Pages: 1 -->
<svg width="572pt" height="136pt"
 viewBox="0.00 0.00 572.00 136.00" xmlns="http://www.w3.org/2000/svg" xmlns:xlink="http://www.w3.org/1999/xlink">
<g id="graph0" class="graph" transform="scale(1 1) rotate(0) translate(4 132)">
<title>ant::ClusterDetector_t</title>
<polygon fill="white" stroke="none" points="-4,4 -4,-132 568,-132 568,4 -4,4"/>
<!-- Node0 -->
<g id="node1" class="node"><title>Node0</title>
<polygon fill="#bfbfbf" stroke="black" points="118.5,-76.5 118.5,-95.5 231.5,-95.5 231.5,-76.5 118.5,-76.5"/>
<text text-anchor="middle" x="175" y="-83.5" font-family="Helvetica,sans-Serif" font-size="10.00">ant::ClusterDetector_t</text>
</g>
<!-- Node2 -->
<g id="node3" class="node"><title>Node2</title>
<g id="a_node3"><a xlink:href="structant_1_1expconfig_1_1detector_1_1_c_b.html" target="_top" xlink:title="ant::expconfig::detector::CB">
<polygon fill="white" stroke="black" points="268,-98.5 268,-117.5 408,-117.5 408,-98.5 268,-98.5"/>
<text text-anchor="middle" x="338" y="-105.5" font-family="Helvetica,sans-Serif" font-size="10.00">ant::expconfig::detector::CB</text>
</a>
</g>
</g>
<!-- Node0&#45;&gt;Node2 -->
<g id="edge2" class="edge"><title>Node0&#45;&gt;Node2</title>
<path fill="none" stroke="midnightblue" d="M241.822,-94.9944C250.422,-96.1694 259.253,-97.3761 267.904,-98.5583"/>
<polygon fill="midnightblue" stroke="midnightblue" points="242.24,-91.519 231.858,-93.6328 241.292,-98.4545 242.24,-91.519"/>
</g>
<!-- Node3 -->
<g id="node4" class="node"><title>Node3</title>
<g id="a_node4"><a xlink:href="structant_1_1expconfig_1_1detector_1_1_t_a_p_s.html" target="_top" xlink:title="ant::expconfig::detector\l::TAPS">
<polygon fill="white" stroke="black" points="278.5,-49 278.5,-79 397.5,-79 397.5,-49 278.5,-49"/>
<text text-anchor="start" x="286.5" y="-67" font-family="Helvetica,sans-Serif" font-size="10.00">ant::expconfig::detector</text>
<text text-anchor="middle" x="338" y="-56" font-family="Helvetica,sans-Serif" font-size="10.00">::TAPS</text>
</a>
</g>
</g>
<!-- Node0&#45;&gt;Node3 -->
<g id="edge3" class="edge"><title>Node0&#45;&gt;Node3</title>
<path fill="none" stroke="midnightblue" d="M241.849,-77.0021C253.898,-75.3555 266.402,-73.647 278.228,-72.0309"/>
<polygon fill="midnightblue" stroke="midnightblue" points="241.292,-73.5455 231.858,-78.3672 242.24,-80.481 241.292,-73.5455"/>
</g>
<!-- Node1 -->
<g id="node2" class="node"><title>Node1</title>
<g id="a_node2"><a xlink:href="structant_1_1_detector__t.html" target="_top" xlink:title="The Detector_t struct is the minimal base class for all detectors. ">
<polygon fill="white" stroke="black" points="0,-76.5 0,-95.5 82,-95.5 82,-76.5 0,-76.5"/>
<text text-anchor="middle" x="41" y="-83.5" font-family="Helvetica,sans-Serif" font-size="10.00">ant::Detector_t</text>
</a>
</g>
</g>
<!-- Node1&#45;&gt;Node0 -->
<g id="edge1" class="edge"><title>Node1&#45;&gt;Node0</title>
<path fill="none" stroke="midnightblue" d="M92.4453,-86C100.926,-86 109.77,-86 118.373,-86"/>
<polygon fill="midnightblue" stroke="midnightblue" points="92.3216,-82.5001 82.3216,-86 92.3216,-89.5001 92.3216,-82.5001"/>
</g>
<!-- Node4 -->
<g id="node5" class="node"><title>Node4</title>
<g id="a_node5"><a xlink:href="structant_1_1expconfig_1_1detector_1_1_t_a_p_s__2007.html" target="_top" xlink:title="ant::expconfig::detector\l::TAPS_2007">
<polygon fill="white" stroke="black" points="444.5,-98 444.5,-128 563.5,-128 563.5,-98 444.5,-98"/>
<text text-anchor="start" x="452.5" y="-116" font-family="Helvetica,sans-Serif" font-size="10.00">ant::expconfig::detector</text>
<text text-anchor="middle" x="504" y="-105" font-family="Helvetica,sans-Serif" font-size="10.00">::TAPS_2007</text>
</a>
</g>
</g>
<!-- Node3&#45;&gt;Node4 -->
<g id="edge4" class="edge"><title>Node3&#45;&gt;Node4</title>
<path fill="none" stroke="midnightblue" d="M399.134,-81.967C416.706,-87.217 435.723,-92.8989 452.623,-97.9484"/>
<polygon fill="midnightblue" stroke="midnightblue" points="400.127,-78.6108 389.544,-79.1014 398.123,-85.3178 400.127,-78.6108"/>
</g>
<!-- Node5 -->
<g id="node6" class="node"><title>Node5</title>
<g id="a_node6"><a xlink:href="structant_1_1expconfig_1_1detector_1_1_t_a_p_s__2009__03.html" target="_top" xlink:title="ant::expconfig::detector\l::TAPS_2009_03">
<polygon fill="white" stroke="black" points="444.5,-49 444.5,-79 563.5,-79 563.5,-49 444.5,-49"/>
<text text-anchor="start" x="452.5" y="-67" font-family="Helvetica,sans-Serif" font-size="10.00">ant::expconfig::detector</text>
<text text-anchor="middle" x="504" y="-56" font-family="Helvetica,sans-Serif" font-size="10.00">::TAPS_2009_03</text>
</a>
</g>
</g>
<!-- Node3&#45;&gt;Node5 -->
<g id="edge5" class="edge"><title>Node3&#45;&gt;Node5</title>
<path fill="none" stroke="midnightblue" d="M407.838,-64C419.995,-64 432.548,-64 444.39,-64"/>
<polygon fill="midnightblue" stroke="midnightblue" points="407.745,-60.5001 397.745,-64 407.745,-67.5001 407.745,-60.5001"/>
</g>
<!-- Node6 -->
<g id="node7" class="node"><title>Node6</title>
<g id="a_node7"><a xlink:href="structant_1_1expconfig_1_1detector_1_1_t_a_p_s__2013__11.html" target="_top" xlink:title="ant::expconfig::detector\l::TAPS_2013_11">
<polygon fill="white" stroke="black" points="444.5,-0 444.5,-30 563.5,-30 563.5,-0 444.5,-0"/>
<text text-anchor="start" x="452.5" y="-18" font-family="Helvetica,sans-Serif" font-size="10.00">ant::expconfig::detector</text>
<text text-anchor="middle" x="504" y="-7" font-family="Helvetica,sans-Serif" font-size="10.00">::TAPS_2013_11</text>
</a>
</g>
</g>
<!-- Node3&#45;&gt;Node6 -->
<g id="edge6" class="edge"><title>Node3&#45;&gt;Node6</title>
<path fill="none" stroke="midnightblue" d="M399.134,-46.033C416.706,-40.783 435.723,-35.1011 452.623,-30.0516"/>
<polygon fill="midnightblue" stroke="midnightblue" points="398.123,-42.6822 389.544,-48.8986 400.127,-49.3892 398.123,-42.6822"/>
</g>
</g>
</svg>
