<?xml version="1.0" encoding="UTF-8" standalone="no"?>
<!DOCTYPE svg PUBLIC "-//W3C//DTD SVG 1.1//EN"
 "http://www.w3.org/Graphics/SVG/1.1/DTD/svg11.dtd">
<!-- Generated by graphviz version 2.36.0 (20140111.2315)
 -->
<!-- Title: ant::ForLoopCounter&lt; T &gt;::iterator Pages: 1 -->
<svg width="320pt" height="118pt"
 viewBox="0.00 0.00 320.00 118.00" xmlns="http://www.w3.org/2000/svg" xmlns:xlink="http://www.w3.org/1999/xlink">
<g id="graph0" class="graph" transform="scale(1 1) rotate(0) translate(4 114)">
<title>ant::ForLoopCounter&lt; T &gt;::iterator</title>
<polygon fill="white" stroke="none" points="-4,4 -4,-114 316,-114 316,4 -4,4"/>
<!-- Node2 -->
<g id="node1" class="node"><title>Node2</title>
<polygon fill="#bfbfbf" stroke="black" points="147,-1 147,-31 253,-31 253,-1 147,-1"/>
<text text-anchor="start" x="155" y="-19" font-family="Helvetica,sans-Serif" font-size="10.00">ant::ForLoopCounter</text>
<text text-anchor="middle" x="200" y="-8" font-family="Helvetica,sans-Serif" font-size="10.00">&lt; T &gt;::iterator</text>
</g>
<!-- Node3 -->
<g id="node2" class="node"><title>Node3</title>
<polygon fill="white" stroke="#bfbfbf" points="-0.5,-90.5 -0.5,-109.5 116.5,-109.5 116.5,-90.5 -0.5,-90.5"/>
<text text-anchor="middle" x="58" y="-97.5" font-family="Helvetica,sans-Serif" font-size="10.00">std::iterator_traits&lt; T &gt;</text>
</g>
<!-- Node3&#45;&gt;Node2 -->
<g id="edge1" class="edge"><title>Node3&#45;&gt;Node2</title>
<path fill="none" stroke="midnightblue" d="M81.7575,-85.2809C107.782,-70.2529 149.308,-46.2726 175.589,-31.0967"/>
<polygon fill="midnightblue" stroke="midnightblue" points="79.8377,-82.3478 72.9281,-90.3795 83.3382,-88.4097 79.8377,-82.3478"/>
</g>
<!-- Node4 -->
<g id="node3" class="node"><title>Node4</title>
<g id="a_node3"><a xlink:href="structant_1_1_for_loop_counter.html" target="_top" xlink:title="ant::ForLoopCounter\&lt; T \&gt;">
<polygon fill="white" stroke="black" points="135,-90.5 135,-109.5 265,-109.5 265,-90.5 135,-90.5"/>
<text text-anchor="middle" x="200" y="-97.5" font-family="Helvetica,sans-Serif" font-size="10.00">ant::ForLoopCounter&lt; T &gt;</text>
</a>
</g>
</g>
<!-- Node4&#45;&gt;Node2 -->
<g id="edge2" class="edge"><title>Node4&#45;&gt;Node2</title>
<path fill="none" stroke="#9a32cd" stroke-dasharray="5,2" d="M200,-80.1139C200,-65.2014 200,-44.7195 200,-31.1839"/>
<polygon fill="#9a32cd" stroke="#9a32cd" points="196.5,-80.2245 200,-90.2246 203.5,-80.2246 196.5,-80.2245"/>
<text text-anchor="middle" x="218" y="-58.5" font-family="Helvetica,sans-Serif" font-size="10.00"> counter</text>
</g>
<!-- Node5 -->
<g id="node4" class="node"><title>Node5</title>
<polygon fill="white" stroke="#bfbfbf" points="283.5,-90.5 283.5,-109.5 312.5,-109.5 312.5,-90.5 283.5,-90.5"/>
<text text-anchor="middle" x="298" y="-97.5" font-family="Helvetica,sans-Serif" font-size="10.00">T</text>
</g>
<!-- Node5&#45;&gt;Node2 -->
<g id="edge3" class="edge"><title>Node5&#45;&gt;Node2</title>
<path fill="none" stroke="#9a32cd" stroke-dasharray="5,2" d="M279.833,-83.5588C268.424,-73.8845 253.385,-61.1751 240,-50 232.536,-43.7688 224.251,-36.9219 217.166,-31.0878"/>
<polygon fill="#9a32cd" stroke="#9a32cd" points="277.874,-86.4867 287.763,-90.2894 282.404,-81.1499 277.874,-86.4867"/>
<text text-anchor="middle" x="274" y="-64" font-family="Helvetica,sans-Serif" font-size="10.00"> i</text>
<text text-anchor="middle" x="274" y="-53" font-family="Helvetica,sans-Serif" font-size="10.00">last</text>
</g>
</g>
</svg>
