<?xml version="1.0" encoding="UTF-8" standalone="no"?>
<!DOCTYPE svg PUBLIC "-//W3C//DTD SVG 1.1//EN"
 "http://www.w3.org/Graphics/SVG/1.1/DTD/svg11.dtd">
<!-- Generated by graphviz version 2.36.0 (20140111.2315)
 -->
<!-- Title: ant::ReconstructHook::EventData Pages: 1 -->
<svg width="251pt" height="176pt"
 viewBox="0.00 0.00 251.00 176.00" xmlns="http://www.w3.org/2000/svg" xmlns:xlink="http://www.w3.org/1999/xlink">
<g id="graph0" class="graph" transform="scale(1 1) rotate(0) translate(4 172)">
<title>ant::ReconstructHook::EventData</title>
<polygon fill="white" stroke="none" points="-4,4 -4,-172 247,-172 247,4 -4,4"/>
<!-- Node0 -->
<g id="node1" class="node"><title>Node0</title>
<polygon fill="#bfbfbf" stroke="black" points="60.5,-69 60.5,-99 173.5,-99 173.5,-69 60.5,-69"/>
<text text-anchor="start" x="68.5" y="-87" font-family="Helvetica,sans-Serif" font-size="10.00">ant::ReconstructHook</text>
<text text-anchor="middle" x="117" y="-76" font-family="Helvetica,sans-Serif" font-size="10.00">::EventData</text>
</g>
<!-- Node2 -->
<g id="node3" class="node"><title>Node2</title>
<g id="a_node3"><a xlink:href="classant_1_1calibration_1_1_p_i_d___energy.html" target="_top" xlink:title="ant::calibration::PID\l_Energy">
<polygon fill="white" stroke="black" points="0,-1 0,-31 104,-31 104,-1 0,-1"/>
<text text-anchor="start" x="8" y="-19" font-family="Helvetica,sans-Serif" font-size="10.00">ant::calibration::PID</text>
<text text-anchor="middle" x="52" y="-8" font-family="Helvetica,sans-Serif" font-size="10.00">_Energy</text>
</a>
</g>
</g>
<!-- Node0&#45;&gt;Node2 -->
<g id="edge2" class="edge"><title>Node0&#45;&gt;Node2</title>
<path fill="none" stroke="midnightblue" d="M95.8115,-61.4855C86.0612,-51.5852 74.759,-40.1092 66.0765,-31.2931"/>
<polygon fill="midnightblue" stroke="midnightblue" points="93.3853,-64.01 102.896,-68.679 98.3728,-59.0982 93.3853,-64.01"/>
</g>
<!-- Node3 -->
<g id="node4" class="node"><title>Node3</title>
<g id="a_node4"><a xlink:href="classant_1_1calibration_1_1_tagg_eff.html" target="_top" xlink:title="ant::calibration::TaggEff">
<polygon fill="white" stroke="black" points="122.5,-6.5 122.5,-25.5 243.5,-25.5 243.5,-6.5 122.5,-6.5"/>
<text text-anchor="middle" x="183" y="-13.5" font-family="Helvetica,sans-Serif" font-size="10.00">ant::calibration::TaggEff</text>
</a>
</g>
</g>
<!-- Node0&#45;&gt;Node3 -->
<g id="edge3" class="edge"><title>Node0&#45;&gt;Node3</title>
<path fill="none" stroke="midnightblue" d="M138.491,-61.5094C150.608,-49.3918 165.093,-34.9072 174.172,-25.8283"/>
<polygon fill="midnightblue" stroke="midnightblue" points="135.917,-59.133 131.321,-68.679 140.867,-64.0828 135.917,-59.133"/>
</g>
<!-- Node1 -->
<g id="node2" class="node"><title>Node1</title>
<g id="a_node2"><a xlink:href="structant_1_1_reconstruct_hook_1_1_base.html" target="_top" xlink:title="The Base struct just defines some useful types. ">
<polygon fill="white" stroke="black" points="60.5,-137 60.5,-167 173.5,-167 173.5,-137 60.5,-137"/>
<text text-anchor="start" x="68.5" y="-155" font-family="Helvetica,sans-Serif" font-size="10.00">ant::ReconstructHook</text>
<text text-anchor="middle" x="117" y="-144" font-family="Helvetica,sans-Serif" font-size="10.00">::Base</text>
</a>
</g>
</g>
<!-- Node1&#45;&gt;Node0 -->
<g id="edge1" class="edge"><title>Node1&#45;&gt;Node0</title>
<path fill="none" stroke="midnightblue" d="M117,-126.532C117,-117.361 117,-107.245 117,-99.2931"/>
<polygon fill="midnightblue" stroke="midnightblue" points="113.5,-126.679 117,-136.679 120.5,-126.679 113.5,-126.679"/>
</g>
</g>
</svg>
