<?xml version="1.0" encoding="UTF-8" standalone="no"?>
<!DOCTYPE svg PUBLIC "-//W3C//DTD SVG 1.1//EN"
 "http://www.w3.org/Graphics/SVG/1.1/DTD/svg11.dtd">
<!-- Generated by graphviz version 2.36.0 (20140111.2315)
 -->
<!-- Title: ant::ReconstructHook::Clusters Pages: 1 -->
<svg width="734pt" height="185pt"
 viewBox="0.00 0.00 734.00 185.00" xmlns="http://www.w3.org/2000/svg" xmlns:xlink="http://www.w3.org/1999/xlink">
<g id="graph0" class="graph" transform="scale(1 1) rotate(0) translate(4 181)">
<title>ant::ReconstructHook::Clusters</title>
<polygon fill="white" stroke="none" points="-4,4 -4,-181 730,-181 730,4 -4,4"/>
<!-- Node0 -->
<g id="node1" class="node"><title>Node0</title>
<polygon fill="#bfbfbf" stroke="black" points="150.5,-24 150.5,-54 263.5,-54 263.5,-24 150.5,-24"/>
<text text-anchor="start" x="158.5" y="-42" font-family="Helvetica,sans-Serif" font-size="10.00">ant::ReconstructHook</text>
<text text-anchor="middle" x="207" y="-31" font-family="Helvetica,sans-Serif" font-size="10.00">::Clusters</text>
</g>
<!-- Node2 -->
<g id="node3" class="node"><title>Node2</title>
<g id="a_node3"><a xlink:href="classant_1_1calibration_1_1_cluster_correction.html" target="_top" xlink:title="ant::calibration::Cluster\lCorrection">
<polygon fill="white" stroke="black" points="300,-49 300,-79 418,-79 418,-49 300,-49"/>
<text text-anchor="start" x="308" y="-67" font-family="Helvetica,sans-Serif" font-size="10.00">ant::calibration::Cluster</text>
<text text-anchor="middle" x="359" y="-56" font-family="Helvetica,sans-Serif" font-size="10.00">Correction</text>
</a>
</g>
</g>
<!-- Node0&#45;&gt;Node2 -->
<g id="edge2" class="edge"><title>Node0&#45;&gt;Node2</title>
<path fill="none" stroke="midnightblue" d="M273.895,-49.9825C282.536,-51.4227 291.341,-52.8902 299.842,-54.307"/>
<polygon fill="midnightblue" stroke="midnightblue" points="274.294,-46.5008 263.854,-48.3091 273.143,-53.4055 274.294,-46.5008"/>
</g>
<!-- Node9 -->
<g id="node10" class="node"><title>Node9</title>
<g id="a_node10"><a xlink:href="classant_1_1calibration_1_1_t_a_p_s___shower_correction.html" target="_top" xlink:title="ant::calibration::TAPS\l_ShowerCorrection">
<polygon fill="white" stroke="black" points="302.5,-0 302.5,-30 415.5,-30 415.5,-0 302.5,-0"/>
<text text-anchor="start" x="310.5" y="-18" font-family="Helvetica,sans-Serif" font-size="10.00">ant::calibration::TAPS</text>
<text text-anchor="middle" x="359" y="-7" font-family="Helvetica,sans-Serif" font-size="10.00">_ShowerCorrection</text>
</a>
</g>
</g>
<!-- Node0&#45;&gt;Node9 -->
<g id="edge9" class="edge"><title>Node0&#45;&gt;Node9</title>
<path fill="none" stroke="midnightblue" d="M274.011,-28.4382C283.468,-26.9251 293.118,-25.3811 302.349,-23.9042"/>
<polygon fill="midnightblue" stroke="midnightblue" points="273.176,-25.0273 263.854,-30.0633 274.282,-31.9393 273.176,-25.0273"/>
</g>
<!-- Node1 -->
<g id="node2" class="node"><title>Node1</title>
<g id="a_node2"><a xlink:href="structant_1_1_reconstruct_hook_1_1_base.html" target="_top" xlink:title="The Base struct just defines some useful types. ">
<polygon fill="white" stroke="black" points="0.5,-24 0.5,-54 113.5,-54 113.5,-24 0.5,-24"/>
<text text-anchor="start" x="8.5" y="-42" font-family="Helvetica,sans-Serif" font-size="10.00">ant::ReconstructHook</text>
<text text-anchor="middle" x="57" y="-31" font-family="Helvetica,sans-Serif" font-size="10.00">::Base</text>
</a>
</g>
</g>
<!-- Node1&#45;&gt;Node0 -->
<g id="edge1" class="edge"><title>Node1&#45;&gt;Node0</title>
<path fill="none" stroke="midnightblue" d="M123.768,-39C132.576,-39 141.542,-39 150.158,-39"/>
<polygon fill="midnightblue" stroke="midnightblue" points="123.531,-35.5001 113.531,-39 123.531,-42.5001 123.531,-35.5001"/>
</g>
<!-- Node3 -->
<g id="node4" class="node"><title>Node3</title>
<g id="a_node4"><a xlink:href="classant_1_1calibration_1_1_cluster_correction_manual.html" target="_top" xlink:title="ant::calibration::Cluster\lCorrectionManual">
<polygon fill="white" stroke="black" points="454,-98 454,-128 572,-128 572,-98 454,-98"/>
<text text-anchor="start" x="462" y="-116" font-family="Helvetica,sans-Serif" font-size="10.00">ant::calibration::Cluster</text>
<text text-anchor="middle" x="513" y="-105" font-family="Helvetica,sans-Serif" font-size="10.00">CorrectionManual</text>
</a>
</g>
</g>
<!-- Node2&#45;&gt;Node3 -->
<g id="edge3" class="edge"><title>Node2&#45;&gt;Node3</title>
<path fill="none" stroke="midnightblue" d="M416.64,-82.2591C432.672,-87.4273 449.936,-92.9924 465.309,-97.9484"/>
<polygon fill="midnightblue" stroke="midnightblue" points="417.437,-78.8385 406.845,-79.1014 415.289,-85.5009 417.437,-78.8385"/>
</g>
<!-- Node7 -->
<g id="node8" class="node"><title>Node7</title>
<g id="a_node8"><a xlink:href="classant_1_1calibration_1_1_cluster_e_corr.html" target="_top" xlink:title="Cluster energy correction based on energy and cluster size. ">
<polygon fill="white" stroke="black" points="454,-49 454,-79 572,-79 572,-49 454,-49"/>
<text text-anchor="start" x="462" y="-67" font-family="Helvetica,sans-Serif" font-size="10.00">ant::calibration::Cluster</text>
<text text-anchor="middle" x="513" y="-56" font-family="Helvetica,sans-Serif" font-size="10.00">ECorr</text>
</a>
</g>
</g>
<!-- Node2&#45;&gt;Node7 -->
<g id="edge7" class="edge"><title>Node2&#45;&gt;Node7</title>
<path fill="none" stroke="midnightblue" d="M428.542,-64C436.986,-64 445.554,-64 453.824,-64"/>
<polygon fill="midnightblue" stroke="midnightblue" points="428.332,-60.5001 418.332,-64 428.332,-67.5001 428.332,-60.5001"/>
</g>
<!-- Node8 -->
<g id="node9" class="node"><title>Node8</title>
<g id="a_node9"><a xlink:href="classant_1_1calibration_1_1_cluster_smearing.html" target="_top" xlink:title="Cluster energy smearing based on energy and cos(theta) ">
<polygon fill="white" stroke="black" points="454,-0 454,-30 572,-30 572,-0 454,-0"/>
<text text-anchor="start" x="462" y="-18" font-family="Helvetica,sans-Serif" font-size="10.00">ant::calibration::Cluster</text>
<text text-anchor="middle" x="513" y="-7" font-family="Helvetica,sans-Serif" font-size="10.00">Smearing</text>
</a>
</g>
</g>
<!-- Node2&#45;&gt;Node8 -->
<g id="edge8" class="edge"><title>Node2&#45;&gt;Node8</title>
<path fill="none" stroke="midnightblue" d="M416.64,-45.7409C432.672,-40.5727 449.936,-35.0076 465.309,-30.0516"/>
<polygon fill="midnightblue" stroke="midnightblue" points="415.289,-42.4991 406.845,-48.8986 417.437,-49.1615 415.289,-42.4991"/>
</g>
<!-- Node4 -->
<g id="node5" class="node"><title>Node4</title>
<g id="a_node5"><a xlink:href="classant_1_1calibration_1_1_cluster_corr_factor.html" target="_top" xlink:title="Manually set additional cluster energy correction factor. ">
<polygon fill="white" stroke="black" points="608,-147 608,-177 726,-177 726,-147 608,-147"/>
<text text-anchor="start" x="616" y="-165" font-family="Helvetica,sans-Serif" font-size="10.00">ant::calibration::Cluster</text>
<text text-anchor="middle" x="667" y="-154" font-family="Helvetica,sans-Serif" font-size="10.00">CorrFactor</text>
</a>
</g>
</g>
<!-- Node3&#45;&gt;Node4 -->
<g id="edge4" class="edge"><title>Node3&#45;&gt;Node4</title>
<path fill="none" stroke="midnightblue" d="M570.64,-131.259C586.672,-136.427 603.936,-141.992 619.309,-146.948"/>
<polygon fill="midnightblue" stroke="midnightblue" points="571.437,-127.839 560.845,-128.101 569.289,-134.501 571.437,-127.839"/>
</g>
<!-- Node5 -->
<g id="node6" class="node"><title>Node5</title>
<g id="a_node6"><a xlink:href="classant_1_1calibration_1_1_cluster_corr_offset.html" target="_top" xlink:title="Manually set cluster energy offset. ">
<polygon fill="white" stroke="black" points="608,-98 608,-128 726,-128 726,-98 608,-98"/>
<text text-anchor="start" x="616" y="-116" font-family="Helvetica,sans-Serif" font-size="10.00">ant::calibration::Cluster</text>
<text text-anchor="middle" x="667" y="-105" font-family="Helvetica,sans-Serif" font-size="10.00">CorrOffset</text>
</a>
</g>
</g>
<!-- Node3&#45;&gt;Node5 -->
<g id="edge5" class="edge"><title>Node3&#45;&gt;Node5</title>
<path fill="none" stroke="midnightblue" d="M582.542,-113C590.986,-113 599.554,-113 607.824,-113"/>
<polygon fill="midnightblue" stroke="midnightblue" points="582.332,-109.5 572.332,-113 582.332,-116.5 582.332,-109.5"/>
</g>
<!-- Node6 -->
<g id="node7" class="node"><title>Node6</title>
<g id="a_node7"><a xlink:href="classant_1_1calibration_1_1_cluster_corr_smearing.html" target="_top" xlink:title="Manually add an additional cluster energy smearing. ">
<polygon fill="white" stroke="black" points="608,-49 608,-79 726,-79 726,-49 608,-49"/>
<text text-anchor="start" x="616" y="-67" font-family="Helvetica,sans-Serif" font-size="10.00">ant::calibration::Cluster</text>
<text text-anchor="middle" x="667" y="-56" font-family="Helvetica,sans-Serif" font-size="10.00">CorrSmearing</text>
</a>
</g>
</g>
<!-- Node3&#45;&gt;Node6 -->
<g id="edge6" class="edge"><title>Node3&#45;&gt;Node6</title>
<path fill="none" stroke="midnightblue" d="M570.64,-94.7409C586.672,-89.5727 603.936,-84.0076 619.309,-79.0516"/>
<polygon fill="midnightblue" stroke="midnightblue" points="569.289,-91.4991 560.845,-97.8986 571.437,-98.1615 569.289,-91.4991"/>
</g>
</g>
</svg>
