<?xml version="1.0" encoding="UTF-8" standalone="no"?>
<!DOCTYPE svg PUBLIC "-//W3C//DTD SVG 1.1//EN"
 "http://www.w3.org/Graphics/SVG/1.1/DTD/svg11.dtd">
<!-- Generated by graphviz version 2.36.0 (20140111.2315)
 -->
<!-- Title: q2Hist_var_t&lt; Tree_t &gt;::q2_params_t Pages: 1 -->
<svg width="118pt" height="108pt"
 viewBox="0.00 0.00 118.00 108.00" xmlns="http://www.w3.org/2000/svg" xmlns:xlink="http://www.w3.org/1999/xlink">
<g id="graph0" class="graph" transform="scale(1 1) rotate(0) translate(4 104)">
<title>q2Hist_var_t&lt; Tree_t &gt;::q2_params_t</title>
<polygon fill="white" stroke="none" points="-4,4 -4,-104 114,-104 114,4 -4,4"/>
<!-- Node1 -->
<g id="node1" class="node"><title>Node1</title>
<polygon fill="#bfbfbf" stroke="black" points="4.5,-1 4.5,-31 105.5,-31 105.5,-1 4.5,-1"/>
<text text-anchor="start" x="12.5" y="-19" font-family="Helvetica,sans-Serif" font-size="10.00">q2Hist_var_t&lt; Tree</text>
<text text-anchor="middle" x="55" y="-8" font-family="Helvetica,sans-Serif" font-size="10.00">_t &gt;::q2_params_t</text>
</g>
<!-- Node2 -->
<g id="node2" class="node"><title>Node2</title>
<polygon fill="white" stroke="#bfbfbf" points="0,-80.5 0,-99.5 110,-99.5 110,-80.5 0,-80.5"/>
<text text-anchor="middle" x="55" y="-87.5" font-family="Helvetica,sans-Serif" font-size="10.00">std::vector&lt; double &gt;</text>
</g>
<!-- Node2&#45;&gt;Node1 -->
<g id="edge1" class="edge"><title>Node2&#45;&gt;Node1</title>
<path fill="none" stroke="#9a32cd" stroke-dasharray="5,2" d="M55,-70.0846C55,-57.9148 55,-42.3538 55,-31.2316"/>
<polygon fill="#9a32cd" stroke="#9a32cd" points="51.5001,-70.4579 55,-80.4579 58.5001,-70.4579 51.5001,-70.4579"/>
<text text-anchor="middle" x="80" y="-53.5" font-family="Helvetica,sans-Serif" font-size="10.00"> bin_widths</text>
</g>
</g>
</svg>
