<?xml version="1.0" encoding="UTF-8" standalone="no"?>
<!DOCTYPE svg PUBLIC "-//W3C//DTD SVG 1.1//EN"
 "http://www.w3.org/Graphics/SVG/1.1/DTD/svg11.dtd">
<!-- Generated by graphviz version 2.36.0 (20140111.2315)
 -->
<!-- Title: ant::calibration::gui::Manager::state_t Pages: 1 -->
<svg width="193pt" height="370pt"
 viewBox="0.00 0.00 193.00 370.00" xmlns="http://www.w3.org/2000/svg" xmlns:xlink="http://www.w3.org/1999/xlink">
<g id="graph0" class="graph" transform="scale(1 1) rotate(0) translate(4 366)">
<title>ant::calibration::gui::Manager::state_t</title>
<polygon fill="white" stroke="none" points="-4,4 -4,-366 189,-366 189,4 -4,4"/>
<!-- Node1 -->
<g id="node1" class="node"><title>Node1</title>
<polygon fill="#bfbfbf" stroke="black" points="47.5,-1 47.5,-31 146.5,-31 146.5,-1 47.5,-1"/>
<text text-anchor="start" x="55.5" y="-19" font-family="Helvetica,sans-Serif" font-size="10.00">ant::calibration::gui</text>
<text text-anchor="middle" x="97" y="-8" font-family="Helvetica,sans-Serif" font-size="10.00">::Manager::state_t</text>
</g>
<!-- Node2 -->
<g id="node2" class="node"><title>Node2</title>
<polygon fill="white" stroke="#bfbfbf" points="26.5,-81 26.5,-111 167.5,-111 167.5,-81 26.5,-81"/>
<text text-anchor="start" x="34.5" y="-99" font-family="Helvetica,sans-Serif" font-size="10.00">std::list&lt; ant::calibration</text>
<text text-anchor="middle" x="97" y="-88" font-family="Helvetica,sans-Serif" font-size="10.00">::gui::Manager::input_file_t &gt;</text>
</g>
<!-- Node2&#45;&gt;Node1 -->
<g id="edge1" class="edge"><title>Node2&#45;&gt;Node1</title>
<path fill="none" stroke="#9a32cd" stroke-dasharray="5,2" d="M97,-70.5644C97,-57.6243 97,-42.1862 97,-31.2157"/>
<polygon fill="#9a32cd" stroke="#9a32cd" points="93.5001,-70.6936 97,-80.6936 100.5,-70.6936 93.5001,-70.6936"/>
<text text-anchor="middle" x="110.5" y="-53.5" font-family="Helvetica,sans-Serif" font-size="10.00"> it_file</text>
</g>
<!-- Node3 -->
<g id="node3" class="node"><title>Node3</title>
<g id="a_node3"><a xlink:href="structant_1_1calibration_1_1gui_1_1_manager_1_1input__file__t.html" target="_top" xlink:title="ant::calibration::gui\l::Manager::input_file_t">
<polygon fill="white" stroke="black" points="40.5,-161 40.5,-191 153.5,-191 153.5,-161 40.5,-161"/>
<text text-anchor="start" x="48.5" y="-179" font-family="Helvetica,sans-Serif" font-size="10.00">ant::calibration::gui</text>
<text text-anchor="middle" x="97" y="-168" font-family="Helvetica,sans-Serif" font-size="10.00">::Manager::input_file_t</text>
</a>
</g>
</g>
<!-- Node3&#45;&gt;Node2 -->
<g id="edge2" class="edge"><title>Node3&#45;&gt;Node2</title>
<path fill="none" stroke="#9a32cd" stroke-dasharray="5,2" d="M97,-150.564C97,-137.624 97,-122.186 97,-111.216"/>
<polygon fill="#9a32cd" stroke="#9a32cd" points="93.5001,-150.694 97,-160.694 100.5,-150.694 93.5001,-150.694"/>
<text text-anchor="middle" x="118.5" y="-133.5" font-family="Helvetica,sans-Serif" font-size="10.00"> elements</text>
</g>
<!-- Node4 -->
<g id="node4" class="node"><title>Node4</title>
<g id="a_node4"><a xlink:title="STL class. ">
<polygon fill="white" stroke="#bfbfbf" points="17,-246.5 17,-265.5 77,-265.5 77,-246.5 17,-246.5"/>
<text text-anchor="middle" x="47" y="-253.5" font-family="Helvetica,sans-Serif" font-size="10.00">std::string</text>
</a>
</g>
</g>
<!-- Node4&#45;&gt;Node3 -->
<g id="edge3" class="edge"><title>Node4&#45;&gt;Node3</title>
<path fill="none" stroke="#9a32cd" stroke-dasharray="5,2" d="M55.4361,-237.467C59.7525,-228.97 65.2923,-218.738 71,-210 75.2281,-203.527 80.4125,-196.757 85.0363,-191.045"/>
<polygon fill="#9a32cd" stroke="#9a32cd" points="52.2883,-235.937 50.9942,-246.452 58.5634,-239.039 52.2883,-235.937"/>
<text text-anchor="middle" x="91" y="-213.5" font-family="Helvetica,sans-Serif" font-size="10.00"> filename</text>
</g>
<!-- Node5 -->
<g id="node5" class="node"><title>Node5</title>
<g id="a_node5"><a xlink:title="STL class. ">
<polygon fill="white" stroke="#bfbfbf" points="-0.5,-331 -0.5,-361 94.5,-361 94.5,-331 -0.5,-331"/>
<text text-anchor="start" x="7.5" y="-349" font-family="Helvetica,sans-Serif" font-size="10.00">std::basic_string&lt;</text>
<text text-anchor="middle" x="47" y="-338" font-family="Helvetica,sans-Serif" font-size="10.00"> char &gt;</text>
</a>
</g>
</g>
<!-- Node5&#45;&gt;Node4 -->
<g id="edge4" class="edge"><title>Node5&#45;&gt;Node4</title>
<path fill="none" stroke="midnightblue" d="M47,-320.834C47,-302.43 47,-278.172 47,-265.515"/>
<polygon fill="midnightblue" stroke="midnightblue" points="43.5001,-320.861 47,-330.861 50.5001,-320.861 43.5001,-320.861"/>
</g>
<!-- Node6 -->
<g id="node6" class="node"><title>Node6</title>
<g id="a_node6"><a xlink:href="classant_1_1interval.html" target="_top" xlink:title="ant::interval\&lt; ant\l::TID \&gt;">
<polygon fill="white" stroke="black" points="95,-241 95,-271 185,-271 185,-241 95,-241"/>
<text text-anchor="start" x="103" y="-259" font-family="Helvetica,sans-Serif" font-size="10.00">ant::interval&lt; ant</text>
<text text-anchor="middle" x="140" y="-248" font-family="Helvetica,sans-Serif" font-size="10.00">::TID &gt;</text>
</a>
</g>
</g>
<!-- Node6&#45;&gt;Node3 -->
<g id="edge5" class="edge"><title>Node6&#45;&gt;Node3</title>
<path fill="none" stroke="#9a32cd" stroke-dasharray="5,2" d="M127.167,-231.722C119.908,-218.555 111.066,-202.515 104.837,-191.216"/>
<polygon fill="#9a32cd" stroke="#9a32cd" points="124.22,-233.626 132.113,-240.694 130.35,-230.246 124.22,-233.626"/>
<text text-anchor="middle" x="135" y="-213.5" font-family="Helvetica,sans-Serif" font-size="10.00"> range</text>
</g>
<!-- Node7 -->
<g id="node7" class="node"><title>Node7</title>
<g id="a_node7"><a xlink:href="structant_1_1_t_i_d.html" target="_top" xlink:title="ant::TID">
<polygon fill="white" stroke="black" points="113.5,-336.5 113.5,-355.5 166.5,-355.5 166.5,-336.5 113.5,-336.5"/>
<text text-anchor="middle" x="140" y="-343.5" font-family="Helvetica,sans-Serif" font-size="10.00">ant::TID</text>
</a>
</g>
</g>
<!-- Node7&#45;&gt;Node6 -->
<g id="edge6" class="edge"><title>Node7&#45;&gt;Node6</title>
<path fill="none" stroke="#9a32cd" stroke-dasharray="5,2" d="M140,-326.163C140,-309.693 140,-286.138 140,-271.209"/>
<polygon fill="#9a32cd" stroke="#9a32cd" points="136.5,-326.24 140,-336.241 143.5,-326.241 136.5,-326.24"/>
<text text-anchor="middle" x="154" y="-304" font-family="Helvetica,sans-Serif" font-size="10.00"> _start</text>
<text text-anchor="middle" x="154" y="-293" font-family="Helvetica,sans-Serif" font-size="10.00">_stop</text>
</g>
</g>
</svg>
