<?xml version="1.0" encoding="UTF-8" standalone="no"?>
<!DOCTYPE svg PUBLIC "-//W3C//DTD SVG 1.1//EN"
 "http://www.w3.org/Graphics/SVG/1.1/DTD/svg11.dtd">
<!-- Generated by graphviz version 2.36.0 (20140111.2315)
 -->
<!-- Title: ant::calibration::CB_Energy::GUI_Gains Pages: 1 -->
<svg width="1556pt" height="345pt"
 viewBox="0.00 0.00 1556.00 345.00" xmlns="http://www.w3.org/2000/svg" xmlns:xlink="http://www.w3.org/1999/xlink">
<g id="graph0" class="graph" transform="scale(1 1) rotate(0) translate(4 341)">
<title>ant::calibration::CB_Energy::GUI_Gains</title>
<polygon fill="white" stroke="none" points="-4,4 -4,-341 1552,-341 1552,4 -4,4"/>
<!-- Node3 -->
<g id="node1" class="node"><title>Node3</title>
<polygon fill="#bfbfbf" stroke="black" points="1440.5,-186 1440.5,-216 1547.5,-216 1547.5,-186 1440.5,-186"/>
<text text-anchor="start" x="1448.5" y="-204" font-family="Helvetica,sans-Serif" font-size="10.00">ant::calibration::CB</text>
<text text-anchor="middle" x="1494" y="-193" font-family="Helvetica,sans-Serif" font-size="10.00">_Energy::GUI_Gains</text>
</g>
<!-- Node4 -->
<g id="node2" class="node"><title>Node4</title>
<g id="a_node2"><a xlink:href="structant_1_1calibration_1_1_g_u_i___calib_type.html" target="_top" xlink:title="The GUI_CalibType struct is an abstract base class for handling the data storage for a provided Calib...">
<polygon fill="white" stroke="black" points="594,-258 594,-288 698,-288 698,-258 594,-258"/>
<text text-anchor="start" x="602" y="-276" font-family="Helvetica,sans-Serif" font-size="10.00">ant::calibration::GUI</text>
<text text-anchor="middle" x="646" y="-265" font-family="Helvetica,sans-Serif" font-size="10.00">_CalibType</text>
</a>
</g>
</g>
<!-- Node4&#45;&gt;Node3 -->
<g id="edge1" class="edge"><title>Node4&#45;&gt;Node3</title>
<path fill="none" stroke="midnightblue" d="M695.812,-291.346C736.254,-304.897 795.553,-321 849,-321 849,-321 849,-321 1290,-321 1371.47,-321 1448.95,-248.488 1479.41,-216.198"/>
<polygon fill="midnightblue" stroke="midnightblue" points="696.801,-287.985 686.206,-288.056 694.533,-294.607 696.801,-287.985"/>
</g>
<!-- Node5 -->
<g id="node3" class="node"><title>Node5</title>
<g id="a_node3"><a xlink:href="classant_1_1calibration_1_1gui_1_1_calib_module__traits.html" target="_top" xlink:title="ant::calibration::gui\l::CalibModule_traits">
<polygon fill="white" stroke="black" points="366,-307 366,-337 470,-337 470,-307 366,-307"/>
<text text-anchor="start" x="374" y="-325" font-family="Helvetica,sans-Serif" font-size="10.00">ant::calibration::gui</text>
<text text-anchor="middle" x="418" y="-314" font-family="Helvetica,sans-Serif" font-size="10.00">::CalibModule_traits</text>
</a>
</g>
</g>
<!-- Node5&#45;&gt;Node4 -->
<g id="edge2" class="edge"><title>Node5&#45;&gt;Node4</title>
<path fill="none" stroke="midnightblue" d="M479.801,-308.818C515.439,-301.091 559.955,-291.439 593.794,-284.102"/>
<polygon fill="midnightblue" stroke="midnightblue" points="479.032,-305.403 470.001,-310.942 480.515,-312.244 479.032,-305.403"/>
</g>
<!-- Node6 -->
<g id="node4" class="node"><title>Node6</title>
<g id="a_node4"><a xlink:href="structant_1_1calibration_1_1_calib_type.html" target="_top" xlink:title="The CalibType struct stores the data for the Updateable interface and for the GUI. ">
<polygon fill="white" stroke="black" points="352.5,-172.5 352.5,-191.5 483.5,-191.5 483.5,-172.5 352.5,-172.5"/>
<text text-anchor="middle" x="418" y="-179.5" font-family="Helvetica,sans-Serif" font-size="10.00">ant::calibration::CalibType</text>
</a>
</g>
</g>
<!-- Node6&#45;&gt;Node4 -->
<g id="edge3" class="edge"><title>Node6&#45;&gt;Node4</title>
<path fill="none" stroke="#9a32cd" stroke-dasharray="5,2" d="M493.525,-178.842C518.033,-181.231 544.074,-187.838 564,-203 579.837,-215.051 568.053,-229.804 582,-244 587.485,-249.583 594.246,-254.2 601.282,-257.983"/>
<polygon fill="#9a32cd" stroke="#9a32cd" points="493.739,-175.348 483.503,-178.083 493.21,-182.328 493.739,-175.348"/>
<text text-anchor="middle" x="533" y="-206" font-family="Helvetica,sans-Serif" font-size="10.00"> calibType</text>
</g>
<!-- Node7 -->
<g id="node5" class="node"><title>Node7</title>
<g id="a_node5"><a xlink:title="STL class. ">
<polygon fill="white" stroke="#bfbfbf" points="159,-100.5 159,-119.5 219,-119.5 219,-100.5 159,-100.5"/>
<text text-anchor="middle" x="189" y="-107.5" font-family="Helvetica,sans-Serif" font-size="10.00">std::string</text>
</a>
</g>
</g>
<!-- Node7&#45;&gt;Node6 -->
<g id="edge4" class="edge"><title>Node7&#45;&gt;Node6</title>
<path fill="none" stroke="#9a32cd" stroke-dasharray="5,2" d="M228.858,-122.325C273.591,-136.514 346.115,-159.517 386.817,-172.426"/>
<polygon fill="#9a32cd" stroke="#9a32cd" points="229.802,-118.953 219.212,-119.265 227.685,-125.625 229.802,-118.953"/>
<text text-anchor="middle" x="298" y="-169" font-family="Helvetica,sans-Serif" font-size="10.00"> Name</text>
<text text-anchor="middle" x="298" y="-158" font-family="Helvetica,sans-Serif" font-size="10.00">HistogramName</text>
</g>
<!-- Node21 -->
<g id="node19" class="node"><title>Node21</title>
<g id="a_node19"><a xlink:href="classant_1_1calibration_1_1gui_1_1_fit_function.html" target="_top" xlink:title="ant::calibration::gui\l::FitFunction">
<polygon fill="white" stroke="black" points="1012.5,-39 1012.5,-69 1111.5,-69 1111.5,-39 1012.5,-39"/>
<text text-anchor="start" x="1020.5" y="-57" font-family="Helvetica,sans-Serif" font-size="10.00">ant::calibration::gui</text>
<text text-anchor="middle" x="1062" y="-46" font-family="Helvetica,sans-Serif" font-size="10.00">::FitFunction</text>
</a>
</g>
</g>
<!-- Node7&#45;&gt;Node21 -->
<g id="edge27" class="edge"><title>Node7&#45;&gt;Node21</title>
<path fill="none" stroke="#9a32cd" stroke-dasharray="5,2" d="M229.284,-110C274.543,-110 351.145,-110 417,-110 417,-110 417,-110 851,-110 882.884,-110 964.19,-85.5948 1015.77,-69.007"/>
<polygon fill="#9a32cd" stroke="#9a32cd" points="229.025,-106.5 219.025,-110 229.025,-113.5 229.025,-106.5"/>
<text text-anchor="middle" x="646" y="-113" font-family="Helvetica,sans-Serif" font-size="10.00"> AdditionalFitArgs</text>
</g>
<!-- Node24 -->
<g id="node22" class="node"><title>Node24</title>
<g id="a_node22"><a xlink:href="classant_1_1calibration_1_1gui_1_1_indicator_knob.html" target="_top" xlink:title="ant::calibration::gui\l::IndicatorKnob">
<polygon fill="white" stroke="black" points="368.5,-39 368.5,-69 467.5,-69 467.5,-39 368.5,-39"/>
<text text-anchor="start" x="376.5" y="-57" font-family="Helvetica,sans-Serif" font-size="10.00">ant::calibration::gui</text>
<text text-anchor="middle" x="418" y="-46" font-family="Helvetica,sans-Serif" font-size="10.00">::IndicatorKnob</text>
</a>
</g>
</g>
<!-- Node7&#45;&gt;Node24 -->
<g id="edge25" class="edge"><title>Node7&#45;&gt;Node24</title>
<path fill="none" stroke="#9a32cd" stroke-dasharray="5,2" d="M224.251,-97.0342C236.099,-92.837 249.532,-88.3943 262,-85 297.217,-75.4126 337.678,-67.4198 368.428,-61.9525"/>
<polygon fill="#9a32cd" stroke="#9a32cd" points="222.945,-93.7847 214.728,-100.474 225.323,-100.368 222.945,-93.7847"/>
<text text-anchor="middle" x="298" y="-88" font-family="Helvetica,sans-Serif" font-size="10.00"> name</text>
</g>
<!-- Node8 -->
<g id="node6" class="node"><title>Node8</title>
<g id="a_node6"><a xlink:title="STL class. ">
<polygon fill="white" stroke="#bfbfbf" points="0.5,-95 0.5,-125 95.5,-125 95.5,-95 0.5,-95"/>
<text text-anchor="start" x="8.5" y="-113" font-family="Helvetica,sans-Serif" font-size="10.00">std::basic_string&lt;</text>
<text text-anchor="middle" x="48" y="-102" font-family="Helvetica,sans-Serif" font-size="10.00"> char &gt;</text>
</a>
</g>
</g>
<!-- Node8&#45;&gt;Node7 -->
<g id="edge5" class="edge"><title>Node8&#45;&gt;Node7</title>
<path fill="none" stroke="midnightblue" d="M105.877,-110C124.003,-110 143.315,-110 158.654,-110"/>
<polygon fill="midnightblue" stroke="midnightblue" points="105.672,-106.5 95.6717,-110 105.672,-113.5 105.672,-106.5"/>
</g>
<!-- Node9 -->
<g id="node7" class="node"><title>Node9</title>
<polygon fill="white" stroke="#bfbfbf" points="134,-218.5 134,-237.5 244,-237.5 244,-218.5 134,-218.5"/>
<text text-anchor="middle" x="189" y="-225.5" font-family="Helvetica,sans-Serif" font-size="10.00">std::vector&lt; double &gt;</text>
</g>
<!-- Node9&#45;&gt;Node4 -->
<g id="edge9" class="edge"><title>Node9&#45;&gt;Node4</title>
<path fill="none" stroke="#9a32cd" stroke-dasharray="5,2" d="M254.188,-226.87C313.924,-226.601 405.312,-228.19 484,-238 521.184,-242.636 562.471,-251.692 593.925,-259.431"/>
<polygon fill="#9a32cd" stroke="#9a32cd" points="254.124,-223.37 244.147,-226.934 254.169,-230.37 254.124,-223.37"/>
<text text-anchor="middle" x="418" y="-241" font-family="Helvetica,sans-Serif" font-size="10.00"> previousValues</text>
</g>
<!-- Node9&#45;&gt;Node6 -->
<g id="edge6" class="edge"><title>Node9&#45;&gt;Node6</title>
<path fill="none" stroke="#9a32cd" stroke-dasharray="5,2" d="M223.287,-214.888C235.328,-210.561 249.13,-206.074 262,-203 291.318,-195.998 324.353,-191.12 352.369,-187.841"/>
<polygon fill="#9a32cd" stroke="#9a32cd" points="221.812,-211.702 213.645,-218.451 224.238,-218.268 221.812,-211.702"/>
<text text-anchor="middle" x="298" y="-206" font-family="Helvetica,sans-Serif" font-size="10.00"> Values</text>
</g>
<!-- Node10 -->
<g id="node8" class="node"><title>Node10</title>
<polygon fill="white" stroke="#bfbfbf" points="357,-258 357,-288 479,-288 479,-258 357,-258"/>
<text text-anchor="start" x="365" y="-276" font-family="Helvetica,sans-Serif" font-size="10.00">std::map&lt; unsigned,</text>
<text text-anchor="middle" x="418" y="-265" font-family="Helvetica,sans-Serif" font-size="10.00"> std::vector&lt; double &gt; &gt;</text>
</g>
<!-- Node9&#45;&gt;Node10 -->
<g id="edge8" class="edge"><title>Node9&#45;&gt;Node10</title>
<path fill="none" stroke="#9a32cd" stroke-dasharray="5,2" d="M248.184,-239.534C281.471,-246.133 323.161,-254.398 356.783,-261.063"/>
<polygon fill="#9a32cd" stroke="#9a32cd" points="248.631,-236.055 238.141,-237.543 247.269,-242.921 248.631,-236.055"/>
<text text-anchor="middle" x="298" y="-258" font-family="Helvetica,sans-Serif" font-size="10.00"> elements</text>
</g>
<!-- Node10&#45;&gt;Node4 -->
<g id="edge7" class="edge"><title>Node10&#45;&gt;Node4</title>
<path fill="none" stroke="#9a32cd" stroke-dasharray="5,2" d="M489.529,-273C523.26,-273 562.9,-273 593.711,-273"/>
<polygon fill="#9a32cd" stroke="#9a32cd" points="489.267,-269.5 479.267,-273 489.267,-276.5 489.267,-269.5"/>
<text text-anchor="middle" x="533" y="-276" font-family="Helvetica,sans-Serif" font-size="10.00"> fitParameters</text>
</g>
<!-- Node11 -->
<g id="node9" class="node"><title>Node11</title>
<g id="a_node9"><a xlink:href="classant_1_1interval.html" target="_top" xlink:title="ant::interval\&lt; double \&gt;">
<polygon fill="white" stroke="black" points="1232,-211.5 1232,-230.5 1346,-230.5 1346,-211.5 1232,-211.5"/>
<text text-anchor="middle" x="1289" y="-218.5" font-family="Helvetica,sans-Serif" font-size="10.00">ant::interval&lt; double &gt;</text>
</a>
</g>
</g>
<!-- Node11&#45;&gt;Node3 -->
<g id="edge10" class="edge"><title>Node11&#45;&gt;Node3</title>
<path fill="none" stroke="#9a32cd" stroke-dasharray="5,2" d="M1356.25,-214.473C1383.51,-211.787 1414.65,-208.72 1440.31,-206.191"/>
<polygon fill="#9a32cd" stroke="#9a32cd" points="1355.62,-211.018 1346.01,-215.482 1356.3,-217.985 1355.62,-211.018"/>
<text text-anchor="middle" x="1393" y="-217" font-family="Helvetica,sans-Serif" font-size="10.00"> FitRange</text>
</g>
<!-- Node12 -->
<g id="node10" class="node"><title>Node12</title>
<g id="a_node10"><a xlink:href="classant_1_1calibration_1_1gui_1_1_cal_canvas.html" target="_top" xlink:title="ant::calibration::gui\l::CalCanvas">
<polygon fill="white" stroke="black" points="1239.5,-162 1239.5,-192 1338.5,-192 1338.5,-162 1239.5,-162"/>
<text text-anchor="start" x="1247.5" y="-180" font-family="Helvetica,sans-Serif" font-size="10.00">ant::calibration::gui</text>
<text text-anchor="middle" x="1289" y="-169" font-family="Helvetica,sans-Serif" font-size="10.00">::CalCanvas</text>
</a>
</g>
</g>
<!-- Node12&#45;&gt;Node3 -->
<g id="edge11" class="edge"><title>Node12&#45;&gt;Node3</title>
<path fill="none" stroke="#9a32cd" stroke-dasharray="5,2" d="M1348.59,-183.927C1377.48,-187.343 1412.07,-191.432 1440.15,-194.751"/>
<polygon fill="#9a32cd" stroke="#9a32cd" points="1348.97,-180.447 1338.62,-182.749 1348.14,-187.399 1348.97,-180.447"/>
<text text-anchor="middle" x="1393" y="-196" font-family="Helvetica,sans-Serif" font-size="10.00"> canvas</text>
</g>
<!-- Node13 -->
<g id="node11" class="node"><title>Node13</title>
<polygon fill="white" stroke="#bfbfbf" points="1034,-273.5 1034,-292.5 1090,-292.5 1090,-273.5 1034,-273.5"/>
<text text-anchor="middle" x="1062" y="-280.5" font-family="Helvetica,sans-Serif" font-size="10.00">TCanvas</text>
</g>
<!-- Node13&#45;&gt;Node12 -->
<g id="edge12" class="edge"><title>Node13&#45;&gt;Node12</title>
<path fill="none" stroke="midnightblue" d="M1100.57,-287.291C1134.21,-288.981 1182.88,-285.815 1214,-259 1234.13,-241.658 1214.32,-221.825 1232,-202 1235.4,-198.186 1239.5,-194.924 1243.91,-192.14"/>
<polygon fill="midnightblue" stroke="midnightblue" points="1100.43,-283.774 1090.22,-286.595 1099.97,-290.758 1100.43,-283.774"/>
</g>
<!-- Node14 -->
<g id="node12" class="node"><title>Node14</title>
<g id="a_node12"><a xlink:href="classant_1_1calibration_1_1gui_1_1update__notify__traits.html" target="_top" xlink:title="ant::calibration::gui\l::update_notify_traits">
<polygon fill="white" stroke="black" points="592,-205 592,-235 700,-235 700,-205 592,-205"/>
<text text-anchor="start" x="600" y="-223" font-family="Helvetica,sans-Serif" font-size="10.00">ant::calibration::gui</text>
<text text-anchor="middle" x="646" y="-212" font-family="Helvetica,sans-Serif" font-size="10.00">::update_notify_traits</text>
</a>
</g>
</g>
<!-- Node14&#45;&gt;Node12 -->
<g id="edge13" class="edge"><title>Node14&#45;&gt;Node12</title>
<path fill="none" stroke="midnightblue" d="M710.282,-225.504C803.417,-232.507 982.734,-241.807 1134,-225 1170.22,-220.975 1179.22,-217.883 1214,-207 1227.36,-202.819 1241.7,-197.267 1254.16,-192.078"/>
<polygon fill="midnightblue" stroke="midnightblue" points="710.416,-222.004 700.177,-224.728 709.879,-228.984 710.416,-222.004"/>
</g>
<!-- Node16 -->
<g id="node14" class="node"><title>Node16</title>
<g id="a_node14"><a xlink:href="classant_1_1calibration_1_1gui_1_1_indicator.html" target="_top" xlink:title="ant::calibration::gui\l::Indicator">
<polygon fill="white" stroke="black" points="800.5,-186 800.5,-216 899.5,-216 899.5,-186 800.5,-186"/>
<text text-anchor="start" x="808.5" y="-204" font-family="Helvetica,sans-Serif" font-size="10.00">ant::calibration::gui</text>
<text text-anchor="middle" x="850" y="-193" font-family="Helvetica,sans-Serif" font-size="10.00">::Indicator</text>
</a>
</g>
</g>
<!-- Node14&#45;&gt;Node16 -->
<g id="edge16" class="edge"><title>Node14&#45;&gt;Node16</title>
<path fill="none" stroke="midnightblue" d="M710.155,-214.06C739.293,-211.319 773.343,-208.116 800.431,-205.568"/>
<polygon fill="midnightblue" stroke="midnightblue" points="709.701,-210.587 700.073,-215.008 710.357,-217.556 709.701,-210.587"/>
</g>
<!-- Node15 -->
<g id="node13" class="node"><title>Node15</title>
<polygon fill="white" stroke="#bfbfbf" points="1001,-186 1001,-216 1123,-216 1123,-186 1001,-186"/>
<text text-anchor="start" x="1009" y="-204" font-family="Helvetica,sans-Serif" font-size="10.00">std::list&lt; ant::calibration</text>
<text text-anchor="middle" x="1062" y="-193" font-family="Helvetica,sans-Serif" font-size="10.00">::gui::Indicator *&gt;</text>
</g>
<!-- Node15&#45;&gt;Node12 -->
<g id="edge14" class="edge"><title>Node15&#45;&gt;Node12</title>
<path fill="none" stroke="#9a32cd" stroke-dasharray="5,2" d="M1133,-193.533C1167.44,-189.859 1208.12,-185.521 1239.15,-182.21"/>
<polygon fill="#9a32cd" stroke="#9a32cd" points="1132.57,-190.059 1123,-194.6 1133.32,-197.019 1132.57,-190.059"/>
<text text-anchor="middle" x="1183" y="-195" font-family="Helvetica,sans-Serif" font-size="10.00"> indicators</text>
</g>
<!-- Node16&#45;&gt;Node15 -->
<g id="edge15" class="edge"><title>Node16&#45;&gt;Node15</title>
<path fill="none" stroke="#9a32cd" stroke-dasharray="5,2" d="M909.901,-201C938.319,-201 972.358,-201 1000.93,-201"/>
<polygon fill="#9a32cd" stroke="#9a32cd" points="909.706,-197.5 899.706,-201 909.706,-204.5 909.706,-197.5"/>
<text text-anchor="middle" x="950" y="-204" font-family="Helvetica,sans-Serif" font-size="10.00"> elements</text>
</g>
<!-- Node17 -->
<g id="node15" class="node"><title>Node17</title>
<polygon fill="white" stroke="#bfbfbf" points="1003,-137 1003,-167 1121,-167 1121,-137 1003,-137"/>
<text text-anchor="start" x="1011" y="-155" font-family="Helvetica,sans-Serif" font-size="10.00">std::stack&lt; FitFunction</text>
<text text-anchor="middle" x="1062" y="-144" font-family="Helvetica,sans-Serif" font-size="10.00">::SavedState_t &gt;</text>
</g>
<!-- Node17&#45;&gt;Node12 -->
<g id="edge17" class="edge"><title>Node17&#45;&gt;Node12</title>
<path fill="none" stroke="#9a32cd" stroke-dasharray="5,2" d="M1131.33,-159.592C1166.11,-163.457 1207.6,-168.066 1239.14,-171.571"/>
<polygon fill="#9a32cd" stroke="#9a32cd" points="1131.56,-156.096 1121.24,-158.471 1130.79,-163.054 1131.56,-156.096"/>
<text text-anchor="middle" x="1183" y="-172" font-family="Helvetica,sans-Serif" font-size="10.00"> UndoStack</text>
</g>
<!-- Node18 -->
<g id="node16" class="node"><title>Node18</title>
<g id="a_node16"><a xlink:title="STL class. ">
<polygon fill="white" stroke="#bfbfbf" points="806.5,-142.5 806.5,-161.5 893.5,-161.5 893.5,-142.5 806.5,-142.5"/>
<text text-anchor="middle" x="850" y="-149.5" font-family="Helvetica,sans-Serif" font-size="10.00">std::vector&lt; T &gt;</text>
</a>
</g>
</g>
<!-- Node18&#45;&gt;Node17 -->
<g id="edge18" class="edge"><title>Node18&#45;&gt;Node17</title>
<path fill="none" stroke="#9a32cd" stroke-dasharray="5,2" d="M904.056,-152C934.158,-152 971.874,-152 1002.79,-152"/>
<polygon fill="#9a32cd" stroke="#9a32cd" points="903.75,-148.5 893.75,-152 903.75,-155.5 903.75,-148.5"/>
<text text-anchor="middle" x="950" y="-155" font-family="Helvetica,sans-Serif" font-size="10.00"> elements</text>
</g>
<!-- Node19 -->
<g id="node17" class="node"><title>Node19</title>
<polygon fill="white" stroke="#bfbfbf" points="631.5,-142.5 631.5,-161.5 660.5,-161.5 660.5,-142.5 631.5,-142.5"/>
<text text-anchor="middle" x="646" y="-149.5" font-family="Helvetica,sans-Serif" font-size="10.00">T</text>
</g>
<!-- Node19&#45;&gt;Node18 -->
<g id="edge19" class="edge"><title>Node19&#45;&gt;Node18</title>
<path fill="none" stroke="#9a32cd" stroke-dasharray="5,2" d="M670.72,-152C704.005,-152 765.114,-152 806.396,-152"/>
<polygon fill="#9a32cd" stroke="#9a32cd" points="670.567,-148.5 660.567,-152 670.567,-155.5 670.567,-148.5"/>
<text text-anchor="middle" x="750" y="-155" font-family="Helvetica,sans-Serif" font-size="10.00"> elements</text>
</g>
<!-- Node20 -->
<g id="node18" class="node"><title>Node20</title>
<g id="a_node18"><a xlink:href="structant_1_1calibration_1_1gui_1_1_cal_canvas_1_1axis__settings__t.html" target="_top" xlink:title="ant::calibration::gui\l::CalCanvas::axis_settings_t">
<polygon fill="white" stroke="black" points="990.5,-88 990.5,-118 1133.5,-118 1133.5,-88 990.5,-88"/>
<text text-anchor="start" x="998.5" y="-106" font-family="Helvetica,sans-Serif" font-size="10.00">ant::calibration::gui</text>
<text text-anchor="middle" x="1062" y="-95" font-family="Helvetica,sans-Serif" font-size="10.00">::CalCanvas::axis_settings_t</text>
</a>
</g>
</g>
<!-- Node20&#45;&gt;Node12 -->
<g id="edge20" class="edge"><title>Node20&#45;&gt;Node12</title>
<path fill="none" stroke="#9a32cd" stroke-dasharray="5,2" d="M1127.22,-120.85C1154.19,-128.677 1185.78,-138.285 1214,-148 1226.26,-152.222 1239.5,-157.254 1251.34,-161.931"/>
<polygon fill="#9a32cd" stroke="#9a32cd" points="1128.09,-117.458 1117.51,-118.05 1126.15,-124.184 1128.09,-117.458"/>
<text text-anchor="middle" x="1183" y="-151" font-family="Helvetica,sans-Serif" font-size="10.00"> axis_settings</text>
</g>
<!-- Node21&#45;&gt;Node12 -->
<g id="edge21" class="edge"><title>Node21&#45;&gt;Node12</title>
<path fill="none" stroke="#9a32cd" stroke-dasharray="5,2" d="M1119.38,-72.4982C1124.35,-74.2967 1129.28,-76.1441 1134,-78 1170.29,-92.2595 1181.05,-93.1551 1214,-114 1236.1,-127.982 1258.57,-148.128 1272.85,-161.848"/>
<polygon fill="#9a32cd" stroke="#9a32cd" points="1120.42,-69.155 1109.83,-69.1106 1118.08,-75.7523 1120.42,-69.155"/>
<text text-anchor="middle" x="1183" y="-117" font-family="Helvetica,sans-Serif" font-size="10.00"> func</text>
</g>
<!-- Node22 -->
<g id="node20" class="node"><title>Node22</title>
<polygon fill="white" stroke="#bfbfbf" points="790,-39 790,-69 910,-69 910,-39 790,-39"/>
<text text-anchor="start" x="798" y="-57" font-family="Helvetica,sans-Serif" font-size="10.00">std::list&lt; std::unique</text>
<text text-anchor="middle" x="850" y="-46" font-family="Helvetica,sans-Serif" font-size="10.00">_ptr&lt; IndicatorKnob &gt; &gt;</text>
</g>
<!-- Node22&#45;&gt;Node21 -->
<g id="edge22" class="edge"><title>Node22&#45;&gt;Node21</title>
<path fill="none" stroke="#9a32cd" stroke-dasharray="5,2" d="M920.094,-54C950.252,-54 984.903,-54 1012.3,-54"/>
<polygon fill="#9a32cd" stroke="#9a32cd" points="920.056,-50.5001 910.056,-54 920.056,-57.5001 920.056,-50.5001"/>
<text text-anchor="middle" x="950" y="-57" font-family="Helvetica,sans-Serif" font-size="10.00"> knobs</text>
</g>
<!-- Node23 -->
<g id="node21" class="node"><title>Node23</title>
<polygon fill="white" stroke="#bfbfbf" points="582,-39 582,-69 710,-69 710,-39 582,-39"/>
<text text-anchor="start" x="590" y="-57" font-family="Helvetica,sans-Serif" font-size="10.00">std::unique_ptr&lt; Indicator</text>
<text text-anchor="middle" x="646" y="-46" font-family="Helvetica,sans-Serif" font-size="10.00">Knob &gt;</text>
</g>
<!-- Node23&#45;&gt;Node22 -->
<g id="edge23" class="edge"><title>Node23&#45;&gt;Node22</title>
<path fill="none" stroke="#9a32cd" stroke-dasharray="5,2" d="M720.102,-54C743.017,-54 768.01,-54 789.837,-54"/>
<polygon fill="#9a32cd" stroke="#9a32cd" points="720.083,-50.5001 710.083,-54 720.083,-57.5001 720.083,-50.5001"/>
<text text-anchor="middle" x="750" y="-57" font-family="Helvetica,sans-Serif" font-size="10.00"> elements</text>
</g>
<!-- Node24&#45;&gt;Node23 -->
<g id="edge24" class="edge"><title>Node24&#45;&gt;Node23</title>
<path fill="none" stroke="#9a32cd" stroke-dasharray="5,2" d="M477.832,-54C509.725,-54 549.159,-54 581.716,-54"/>
<polygon fill="#9a32cd" stroke="#9a32cd" points="477.76,-50.5001 467.76,-54 477.76,-57.5001 477.76,-50.5001"/>
<text text-anchor="middle" x="533" y="-57" font-family="Helvetica,sans-Serif" font-size="10.00"> ptr</text>
</g>
<!-- Node25 -->
<g id="node23" class="node"><title>Node25</title>
<g id="a_node23"><a xlink:href="structant_1_1calibration_1_1gui_1_1_indicator_properties.html" target="_top" xlink:title="ant::calibration::gui\l::IndicatorProperties">
<polygon fill="white" stroke="black" points="137,-35 137,-65 241,-65 241,-35 137,-35"/>
<text text-anchor="start" x="145" y="-53" font-family="Helvetica,sans-Serif" font-size="10.00">ant::calibration::gui</text>
<text text-anchor="middle" x="189" y="-42" font-family="Helvetica,sans-Serif" font-size="10.00">::IndicatorProperties</text>
</a>
</g>
</g>
<!-- Node25&#45;&gt;Node24 -->
<g id="edge26" class="edge"><title>Node25&#45;&gt;Node24</title>
<path fill="none" stroke="#9a32cd" stroke-dasharray="5,2" d="M251.596,-50.0329C277.101,-50.1492 306.979,-50.418 334,-51 345.1,-51.2391 357.032,-51.6058 368.291,-52.0016"/>
<polygon fill="#9a32cd" stroke="#9a32cd" points="251.336,-46.5319 241.322,-49.9931 251.309,-53.5319 251.336,-46.5319"/>
<text text-anchor="middle" x="298" y="-54" font-family="Helvetica,sans-Serif" font-size="10.00"> gui</text>
</g>
<!-- Node26 -->
<g id="node24" class="node"><title>Node26</title>
<g id="a_node24"><a xlink:href="classant_1_1_t_h2_c_b.html" target="_top" xlink:title="The TH2CB class. ">
<polygon fill="white" stroke="black" points="1254.5,-65.5 1254.5,-84.5 1323.5,-84.5 1323.5,-65.5 1254.5,-65.5"/>
<text text-anchor="middle" x="1289" y="-72.5" font-family="Helvetica,sans-Serif" font-size="10.00">ant::TH2CB</text>
</a>
</g>
</g>
<!-- Node26&#45;&gt;Node3 -->
<g id="edge28" class="edge"><title>Node26&#45;&gt;Node3</title>
<path fill="none" stroke="#9a32cd" stroke-dasharray="5,2" d="M1314.22,-90.0357C1353.27,-114.273 1429.69,-161.707 1468.76,-185.951"/>
<polygon fill="#9a32cd" stroke="#9a32cd" points="1315.93,-86.9777 1305.59,-84.6778 1312.24,-92.9252 1315.93,-86.9777"/>
<text text-anchor="middle" x="1393" y="-171" font-family="Helvetica,sans-Serif" font-size="10.00"> h_peaks_cb</text>
<text text-anchor="middle" x="1393" y="-160" font-family="Helvetica,sans-Serif" font-size="10.00">h_relative_cb</text>
</g>
<!-- Node27 -->
<g id="node25" class="node"><title>Node27</title>
<g id="a_node25"><a xlink:href="classant_1_1_t_h2_crystals.html" target="_top" xlink:title="Base class for A2 Calorimeter display classes. ">
<polygon fill="white" stroke="black" points="1016,-0.5 1016,-19.5 1108,-19.5 1108,-0.5 1016,-0.5"/>
<text text-anchor="middle" x="1062" y="-7.5" font-family="Helvetica,sans-Serif" font-size="10.00">ant::TH2Crystals</text>
</a>
</g>
</g>
<!-- Node27&#45;&gt;Node26 -->
<g id="edge29" class="edge"><title>Node27&#45;&gt;Node26</title>
<path fill="none" stroke="midnightblue" d="M1118.23,-18.2211C1147.16,-23.3056 1182.95,-30.8267 1214,-41 1233.88,-47.5144 1255.51,-57.8603 1270.22,-65.4302"/>
<polygon fill="midnightblue" stroke="midnightblue" points="1118.74,-14.7587 1108.3,-16.5239 1117.57,-21.6586 1118.74,-14.7587"/>
</g>
<!-- Node28 -->
<g id="node26" class="node"><title>Node28</title>
<polygon fill="white" stroke="#bfbfbf" points="822.5,-0.5 822.5,-19.5 877.5,-19.5 877.5,-0.5 822.5,-0.5"/>
<text text-anchor="middle" x="850" y="-7.5" font-family="Helvetica,sans-Serif" font-size="10.00">TH2Poly</text>
</g>
<!-- Node28&#45;&gt;Node27 -->
<g id="edge30" class="edge"><title>Node28&#45;&gt;Node27</title>
<path fill="none" stroke="midnightblue" d="M888.039,-10C923.707,-10 977.718,-10 1015.88,-10"/>
<polygon fill="midnightblue" stroke="midnightblue" points="887.597,-6.5001 877.597,-10 887.597,-13.5001 887.597,-6.5001"/>
</g>
</g>
</svg>
