<?xml version="1.0" encoding="UTF-8" standalone="no"?>
<!DOCTYPE svg PUBLIC "-//W3C//DTD SVG 1.1//EN"
 "http://www.w3.org/Graphics/SVG/1.1/DTD/svg11.dtd">
<!-- Generated by graphviz version 2.36.0 (20140111.2315)
 -->
<!-- Title: ant::expconfig::detector::TAPSVeto::BaF2_Element_t Pages: 1 -->
<svg width="212pt" height="258pt"
 viewBox="0.00 0.00 212.00 258.00" xmlns="http://www.w3.org/2000/svg" xmlns:xlink="http://www.w3.org/1999/xlink">
<g id="graph0" class="graph" transform="scale(1 1) rotate(0) translate(4 254)">
<title>ant::expconfig::detector::TAPSVeto::BaF2_Element_t</title>
<polygon fill="white" stroke="none" points="-4,4 -4,-254 208,-254 208,4 -4,4"/>
<!-- Node2 -->
<g id="node1" class="node"><title>Node2</title>
<polygon fill="#bfbfbf" stroke="black" points="0,-1 0,-31 148,-31 148,-1 0,-1"/>
<text text-anchor="start" x="8" y="-19" font-family="Helvetica,sans-Serif" font-size="10.00">ant::expconfig::detector</text>
<text text-anchor="middle" x="74" y="-8" font-family="Helvetica,sans-Serif" font-size="10.00">::TAPSVeto::BaF2_Element_t</text>
</g>
<!-- Node3 -->
<g id="node2" class="node"><title>Node3</title>
<g id="a_node2"><a xlink:href="structant_1_1_detector__t_1_1_element__t.html" target="_top" xlink:title="TAPSVeto_Element_t">
<polygon fill="white" stroke="black" points="17.5,-70.5 17.5,-89.5 130.5,-89.5 130.5,-70.5 17.5,-70.5"/>
<text text-anchor="middle" x="74" y="-77.5" font-family="Helvetica,sans-Serif" font-size="10.00">TAPSVeto_Element_t</text>
</a>
</g>
</g>
<!-- Node3&#45;&gt;Node2 -->
<g id="edge1" class="edge"><title>Node3&#45;&gt;Node2</title>
<path fill="none" stroke="midnightblue" d="M74,-60.1826C74,-50.8859 74,-39.8507 74,-31.263"/>
<polygon fill="midnightblue" stroke="midnightblue" points="70.5001,-60.3791 74,-70.3792 77.5001,-60.3792 70.5001,-60.3791"/>
</g>
<!-- Node4 -->
<g id="node3" class="node"><title>Node4</title>
<g id="a_node3"><a xlink:href="structant_1_1vec3.html" target="_top" xlink:title="ant::vec3">
<polygon fill="white" stroke="black" points="2.5,-144.5 2.5,-163.5 59.5,-163.5 59.5,-144.5 2.5,-144.5"/>
<text text-anchor="middle" x="31" y="-151.5" font-family="Helvetica,sans-Serif" font-size="10.00">ant::vec3</text>
</a>
</g>
</g>
<!-- Node4&#45;&gt;Node3 -->
<g id="edge2" class="edge"><title>Node4&#45;&gt;Node3</title>
<path fill="none" stroke="#9a32cd" stroke-dasharray="5,2" d="M40.3588,-135.381C44.9213,-126.997 50.5825,-116.885 56,-108 59.7541,-101.843 64.2541,-95.0931 67.8156,-89.8824"/>
<polygon fill="#9a32cd" stroke="#9a32cd" points="37.2413,-133.789 35.588,-144.254 43.4065,-137.104 37.2413,-133.789"/>
<text text-anchor="middle" x="75.5" y="-111.5" font-family="Helvetica,sans-Serif" font-size="10.00"> Position</text>
</g>
<!-- Node5 -->
<g id="node4" class="node"><title>Node5</title>
<g id="a_node4"><a xlink:href="classant_1_1bitflag.html" target="_top" xlink:title="ant::bitflag\&lt; ElementFlag\l_t, 16 \&gt;">
<polygon fill="white" stroke="black" points="78,-139 78,-169 204,-169 204,-139 78,-139"/>
<text text-anchor="start" x="86" y="-157" font-family="Helvetica,sans-Serif" font-size="10.00">ant::bitflag&lt; ElementFlag</text>
<text text-anchor="middle" x="141" y="-146" font-family="Helvetica,sans-Serif" font-size="10.00">_t, 16 &gt;</text>
</a>
</g>
</g>
<!-- Node5&#45;&gt;Node3 -->
<g id="edge3" class="edge"><title>Node5&#45;&gt;Node3</title>
<path fill="none" stroke="#9a32cd" stroke-dasharray="5,2" d="M120.941,-131.444C107.949,-117.483 91.7246,-100.047 82.1506,-89.7589"/>
<polygon fill="#9a32cd" stroke="#9a32cd" points="118.388,-133.839 127.763,-138.775 123.513,-129.07 118.388,-133.839"/>
<text text-anchor="middle" x="123" y="-111.5" font-family="Helvetica,sans-Serif" font-size="10.00"> Flags</text>
</g>
<!-- Node6 -->
<g id="node5" class="node"><title>Node6</title>
<polygon fill="white" stroke="#bfbfbf" points="90.5,-219 90.5,-249 191.5,-249 191.5,-219 90.5,-219"/>
<text text-anchor="start" x="98.5" y="-237" font-family="Helvetica,sans-Serif" font-size="10.00">std::bitset&lt; number</text>
<text text-anchor="middle" x="141" y="-226" font-family="Helvetica,sans-Serif" font-size="10.00">_of_bits &gt;</text>
</g>
<!-- Node6&#45;&gt;Node5 -->
<g id="edge4" class="edge"><title>Node6&#45;&gt;Node5</title>
<path fill="none" stroke="#9a32cd" stroke-dasharray="5,2" d="M141,-208.564C141,-195.624 141,-180.186 141,-169.216"/>
<polygon fill="#9a32cd" stroke="#9a32cd" points="137.5,-208.694 141,-218.694 144.5,-208.694 137.5,-208.694"/>
<text text-anchor="middle" x="150.5" y="-191.5" font-family="Helvetica,sans-Serif" font-size="10.00"> bits</text>
</g>
</g>
</svg>
