<?xml version="1.0" encoding="UTF-8" standalone="no"?>
<!DOCTYPE svg PUBLIC "-//W3C//DTD SVG 1.1//EN"
 "http://www.w3.org/Graphics/SVG/1.1/DTD/svg11.dtd">
<!-- Generated by graphviz version 2.36.0 (20140111.2315)
 -->
<!-- Title: ant::calibration::converter::MultiHitReference&lt; T &gt; Pages: 1 -->
<svg width="556pt" height="126pt"
 viewBox="0.00 0.00 556.00 126.00" xmlns="http://www.w3.org/2000/svg" xmlns:xlink="http://www.w3.org/1999/xlink">
<g id="graph0" class="graph" transform="scale(1 1) rotate(0) translate(4 122)">
<title>ant::calibration::converter::MultiHitReference&lt; T &gt;</title>
<polygon fill="white" stroke="none" points="-4,4 -4,-122 552,-122 552,4 -4,4"/>
<!-- Node5 -->
<g id="node1" class="node"><title>Node5</title>
<polygon fill="#bfbfbf" stroke="black" points="420.5,-39 420.5,-69 547.5,-69 547.5,-39 420.5,-39"/>
<text text-anchor="start" x="428.5" y="-57" font-family="Helvetica,sans-Serif" font-size="10.00">ant::calibration::converter</text>
<text text-anchor="middle" x="484" y="-46" font-family="Helvetica,sans-Serif" font-size="10.00">::MultiHitReference&lt; T &gt;</text>
</g>
<!-- Node6 -->
<g id="node2" class="node"><title>Node6</title>
<g id="a_node2"><a xlink:href="structant_1_1calibration_1_1converter_1_1_multi_hit.html" target="_top" xlink:title="ant::calibration::converter\l::MultiHit\&lt; T \&gt;">
<polygon fill="white" stroke="black" points="170.5,-88 170.5,-118 297.5,-118 297.5,-88 170.5,-88"/>
<text text-anchor="start" x="178.5" y="-106" font-family="Helvetica,sans-Serif" font-size="10.00">ant::calibration::converter</text>
<text text-anchor="middle" x="234" y="-95" font-family="Helvetica,sans-Serif" font-size="10.00">::MultiHit&lt; T &gt;</text>
</a>
</g>
</g>
<!-- Node6&#45;&gt;Node5 -->
<g id="edge1" class="edge"><title>Node6&#45;&gt;Node5</title>
<path fill="none" stroke="midnightblue" d="M307.484,-88.6786C343.295,-81.603 386.078,-73.1499 420.439,-66.3608"/>
<polygon fill="midnightblue" stroke="midnightblue" points="306.713,-85.2632 297.581,-90.6352 308.07,-92.1304 306.713,-85.2632"/>
</g>
<!-- Node7 -->
<g id="node3" class="node"><title>Node7</title>
<g id="a_node3"><a xlink:href="structant_1_1_calibration_1_1_converter.html" target="_top" xlink:title="The Converter struct handles the transition from raw bytes to somewhat meaningful values (not necessa...">
<polygon fill="white" stroke="black" points="0.5,-93.5 0.5,-112.5 131.5,-112.5 131.5,-93.5 0.5,-93.5"/>
<text text-anchor="middle" x="66" y="-100.5" font-family="Helvetica,sans-Serif" font-size="10.00">ant::Calibration::Converter</text>
</a>
</g>
</g>
<!-- Node7&#45;&gt;Node6 -->
<g id="edge2" class="edge"><title>Node7&#45;&gt;Node6</title>
<path fill="none" stroke="midnightblue" d="M141.916,-103C151.446,-103 161.119,-103 170.427,-103"/>
<polygon fill="midnightblue" stroke="midnightblue" points="141.655,-99.5001 131.655,-103 141.655,-106.5 141.655,-99.5001"/>
</g>
<!-- Node8 -->
<g id="node4" class="node"><title>Node8</title>
<g id="a_node4"><a xlink:href="structant_1_1_reconstruct_hook_1_1_detector_read_hits.html" target="_top" xlink:title="The DetectorReadHits struct instances are applied before hit matching. ">
<polygon fill="white" stroke="black" points="177.5,-39 177.5,-69 290.5,-69 290.5,-39 177.5,-39"/>
<text text-anchor="start" x="185.5" y="-57" font-family="Helvetica,sans-Serif" font-size="10.00">ant::ReconstructHook</text>
<text text-anchor="middle" x="234" y="-46" font-family="Helvetica,sans-Serif" font-size="10.00">::DetectorReadHits</text>
</a>
</g>
</g>
<!-- Node8&#45;&gt;Node5 -->
<g id="edge3" class="edge"><title>Node8&#45;&gt;Node5</title>
<path fill="none" stroke="midnightblue" d="M300.827,-54C337.779,-54 383.643,-54 420.107,-54"/>
<polygon fill="midnightblue" stroke="midnightblue" points="300.656,-50.5001 290.656,-54 300.656,-57.5001 300.656,-50.5001"/>
</g>
<!-- Node9 -->
<g id="node5" class="node"><title>Node9</title>
<g id="a_node5"><a xlink:href="structant_1_1_reconstruct_hook_1_1_base.html" target="_top" xlink:title="The Base struct just defines some useful types. ">
<polygon fill="white" stroke="black" points="9.5,-39 9.5,-69 122.5,-69 122.5,-39 9.5,-39"/>
<text text-anchor="start" x="17.5" y="-57" font-family="Helvetica,sans-Serif" font-size="10.00">ant::ReconstructHook</text>
<text text-anchor="middle" x="66" y="-46" font-family="Helvetica,sans-Serif" font-size="10.00">::Base</text>
</a>
</g>
</g>
<!-- Node9&#45;&gt;Node8 -->
<g id="edge4" class="edge"><title>Node9&#45;&gt;Node8</title>
<path fill="none" stroke="midnightblue" d="M132.815,-54C147.582,-54 163.107,-54 177.41,-54"/>
<polygon fill="midnightblue" stroke="midnightblue" points="132.737,-50.5001 122.737,-54 132.737,-57.5001 132.737,-50.5001"/>
</g>
<!-- Node10 -->
<g id="node6" class="node"><title>Node10</title>
<g id="a_node6"><a xlink:href="structant_1_1_logical_channel__t.html" target="_top" xlink:title="The LogicalChannel_t struct uniquely identifies detector element within setup. ">
<polygon fill="white" stroke="black" points="178.5,-0.5 178.5,-19.5 289.5,-19.5 289.5,-0.5 178.5,-0.5"/>
<text text-anchor="middle" x="234" y="-7.5" font-family="Helvetica,sans-Serif" font-size="10.00">ant::LogicalChannel_t</text>
</a>
</g>
</g>
<!-- Node10&#45;&gt;Node5 -->
<g id="edge5" class="edge"><title>Node10&#45;&gt;Node5</title>
<path fill="none" stroke="#9a32cd" stroke-dasharray="5,2" d="M299.785,-21.0767C330.738,-26.4134 368.301,-32.9539 402,-39 407.912,-40.0607 414.065,-41.1772 420.22,-42.3025"/>
<polygon fill="#9a32cd" stroke="#9a32cd" points="300.005,-17.5632 289.556,-19.3155 298.817,-24.4617 300.005,-17.5632"/>
<text text-anchor="middle" x="359" y="-42" font-family="Helvetica,sans-Serif" font-size="10.00"> ReferenceChannel</text>
</g>
</g>
</svg>
