<?xml version="1.0" encoding="UTF-8" standalone="no"?>
<!DOCTYPE svg PUBLIC "-//W3C//DTD SVG 1.1//EN"
 "http://www.w3.org/Graphics/SVG/1.1/DTD/svg11.dtd">
<!-- Generated by graphviz version 2.36.0 (20140111.2315)
 -->
<!-- Title: ant::Updateable_traits Pages: 1 -->
<svg width="652pt" height="496pt"
 viewBox="0.00 0.00 652.00 496.00" xmlns="http://www.w3.org/2000/svg" xmlns:xlink="http://www.w3.org/1999/xlink">
<g id="graph0" class="graph" transform="scale(1 1) rotate(0) translate(4 492)">
<title>ant::Updateable_traits</title>
<polygon fill="white" stroke="none" points="-4,4 -4,-492 648,-492 648,4 -4,4"/>
<!-- Node0 -->
<g id="node1" class="node"><title>Node0</title>
<polygon fill="#bfbfbf" stroke="black" points="0.5,-177.5 0.5,-196.5 113.5,-196.5 113.5,-177.5 0.5,-177.5"/>
<text text-anchor="middle" x="57" y="-184.5" font-family="Helvetica,sans-Serif" font-size="10.00">ant::Updateable_traits</text>
</g>
<!-- Node1 -->
<g id="node2" class="node"><title>Node1</title>
<g id="a_node2"><a xlink:href="classant_1_1calibration_1_1_cluster_correction.html" target="_top" xlink:title="ant::calibration::Cluster\lCorrection">
<polygon fill="white" stroke="black" points="152,-333 152,-363 270,-363 270,-333 152,-333"/>
<text text-anchor="start" x="160" y="-351" font-family="Helvetica,sans-Serif" font-size="10.00">ant::calibration::Cluster</text>
<text text-anchor="middle" x="211" y="-340" font-family="Helvetica,sans-Serif" font-size="10.00">Correction</text>
</a>
</g>
</g>
<!-- Node0&#45;&gt;Node1 -->
<g id="edge1" class="edge"><title>Node0&#45;&gt;Node1</title>
<path fill="none" stroke="midnightblue" d="M74.2097,-204.169C104.068,-235.796 167.294,-302.766 195.679,-332.831"/>
<polygon fill="midnightblue" stroke="midnightblue" points="76.463,-201.458 67.0531,-196.589 71.373,-206.263 76.463,-201.458"/>
</g>
<!-- Node8 -->
<g id="node9" class="node"><title>Node8</title>
<g id="a_node9"><a xlink:href="classant_1_1_calibration_1_1_module.html" target="_top" xlink:title="The Module class is typically used for calibrations. ">
<polygon fill="white" stroke="black" points="151,-196.5 151,-215.5 271,-215.5 271,-196.5 151,-196.5"/>
<text text-anchor="middle" x="211" y="-203.5" font-family="Helvetica,sans-Serif" font-size="10.00">ant::Calibration::Module</text>
</a>
</g>
</g>
<!-- Node0&#45;&gt;Node8 -->
<g id="edge8" class="edge"><title>Node0&#45;&gt;Node8</title>
<path fill="none" stroke="midnightblue" d="M123.814,-195.227C132.837,-196.355 142.056,-197.507 150.949,-198.619"/>
<polygon fill="midnightblue" stroke="midnightblue" points="124.093,-191.734 113.736,-193.967 123.225,-198.68 124.093,-191.734"/>
</g>
<!-- Node22 -->
<g id="node23" class="node"><title>Node22</title>
<g id="a_node23"><a xlink:href="classant_1_1calibration_1_1_tagg_eff.html" target="_top" xlink:title="ant::calibration::TaggEff">
<polygon fill="white" stroke="black" points="150.5,-158.5 150.5,-177.5 271.5,-177.5 271.5,-158.5 150.5,-158.5"/>
<text text-anchor="middle" x="211" y="-165.5" font-family="Helvetica,sans-Serif" font-size="10.00">ant::calibration::TaggEff</text>
</a>
</g>
</g>
<!-- Node0&#45;&gt;Node22 -->
<g id="edge22" class="edge"><title>Node0&#45;&gt;Node22</title>
<path fill="none" stroke="midnightblue" d="M123.671,-178.791C132.567,-177.679 141.655,-176.543 150.435,-175.446"/>
<polygon fill="midnightblue" stroke="midnightblue" points="123.225,-175.32 113.736,-180.033 124.093,-182.266 123.225,-175.32"/>
</g>
<!-- Node23 -->
<g id="node24" class="node"><title>Node23</title>
<g id="a_node24"><a xlink:href="struct_updateable_item.html" target="_top" xlink:title="UpdateableItem">
<polygon fill="white" stroke="black" points="168,-120.5 168,-139.5 254,-139.5 254,-120.5 168,-120.5"/>
<text text-anchor="middle" x="211" y="-127.5" font-family="Helvetica,sans-Serif" font-size="10.00">UpdateableItem</text>
</a>
</g>
</g>
<!-- Node0&#45;&gt;Node23 -->
<g id="edge23" class="edge"><title>Node0&#45;&gt;Node23</title>
<path fill="none" stroke="midnightblue" d="M89.0132,-173.419C106.731,-165.855 129.449,-156.483 150,-149 159.035,-145.71 168.948,-142.437 178.068,-139.558"/>
<polygon fill="midnightblue" stroke="midnightblue" points="87.533,-170.245 79.7294,-177.412 90.2987,-176.676 87.533,-170.245"/>
</g>
<!-- Node2 -->
<g id="node3" class="node"><title>Node2</title>
<g id="a_node3"><a xlink:href="classant_1_1calibration_1_1_cluster_correction_manual.html" target="_top" xlink:title="ant::calibration::Cluster\lCorrectionManual">
<polygon fill="white" stroke="black" points="317,-407 317,-437 435,-437 435,-407 317,-407"/>
<text text-anchor="start" x="325" y="-425" font-family="Helvetica,sans-Serif" font-size="10.00">ant::calibration::Cluster</text>
<text text-anchor="middle" x="376" y="-414" font-family="Helvetica,sans-Serif" font-size="10.00">CorrectionManual</text>
</a>
</g>
</g>
<!-- Node1&#45;&gt;Node2 -->
<g id="edge2" class="edge"><title>Node1&#45;&gt;Node2</title>
<path fill="none" stroke="midnightblue" d="M249.959,-368.004C267.45,-376.956 288.593,-387.405 308,-396 316.442,-399.739 325.602,-403.489 334.359,-406.931"/>
<polygon fill="midnightblue" stroke="midnightblue" points="251.143,-364.677 240.651,-363.206 247.936,-370.899 251.143,-364.677"/>
</g>
<!-- Node6 -->
<g id="node7" class="node"><title>Node6</title>
<g id="a_node7"><a xlink:href="classant_1_1calibration_1_1_cluster_e_corr.html" target="_top" xlink:title="Cluster energy correction based on energy and cluster size. ">
<polygon fill="white" stroke="black" points="317,-357 317,-387 435,-387 435,-357 317,-357"/>
<text text-anchor="start" x="325" y="-375" font-family="Helvetica,sans-Serif" font-size="10.00">ant::calibration::Cluster</text>
<text text-anchor="middle" x="376" y="-364" font-family="Helvetica,sans-Serif" font-size="10.00">ECorr</text>
</a>
</g>
</g>
<!-- Node1&#45;&gt;Node6 -->
<g id="edge6" class="edge"><title>Node1&#45;&gt;Node6</title>
<path fill="none" stroke="midnightblue" d="M280.419,-358.074C292.501,-359.853 304.977,-361.69 316.748,-363.423"/>
<polygon fill="midnightblue" stroke="midnightblue" points="280.79,-354.591 270.386,-356.597 279.77,-361.516 280.79,-354.591"/>
</g>
<!-- Node7 -->
<g id="node8" class="node"><title>Node7</title>
<g id="a_node8"><a xlink:href="classant_1_1calibration_1_1_cluster_smearing.html" target="_top" xlink:title="Cluster energy smearing based on energy and cos(theta) ">
<polygon fill="white" stroke="black" points="317,-308 317,-338 435,-338 435,-308 317,-308"/>
<text text-anchor="start" x="325" y="-326" font-family="Helvetica,sans-Serif" font-size="10.00">ant::calibration::Cluster</text>
<text text-anchor="middle" x="376" y="-315" font-family="Helvetica,sans-Serif" font-size="10.00">Smearing</text>
</a>
</g>
</g>
<!-- Node1&#45;&gt;Node7 -->
<g id="edge7" class="edge"><title>Node1&#45;&gt;Node7</title>
<path fill="none" stroke="midnightblue" d="M280.419,-337.506C292.501,-335.653 304.977,-333.74 316.748,-331.934"/>
<polygon fill="midnightblue" stroke="midnightblue" points="279.74,-334.069 270.386,-339.045 280.801,-340.988 279.74,-334.069"/>
</g>
<!-- Node3 -->
<g id="node4" class="node"><title>Node3</title>
<g id="a_node4"><a xlink:href="classant_1_1calibration_1_1_cluster_corr_factor.html" target="_top" xlink:title="Manually set additional cluster energy correction factor. ">
<polygon fill="white" stroke="black" points="503,-458 503,-488 621,-488 621,-458 503,-458"/>
<text text-anchor="start" x="511" y="-476" font-family="Helvetica,sans-Serif" font-size="10.00">ant::calibration::Cluster</text>
<text text-anchor="middle" x="562" y="-465" font-family="Helvetica,sans-Serif" font-size="10.00">CorrFactor</text>
</a>
</g>
</g>
<!-- Node2&#45;&gt;Node3 -->
<g id="edge3" class="edge"><title>Node2&#45;&gt;Node3</title>
<path fill="none" stroke="midnightblue" d="M440.912,-439.715C462.415,-445.675 486.182,-452.262 506.859,-457.994"/>
<polygon fill="midnightblue" stroke="midnightblue" points="441.782,-436.324 431.211,-437.026 439.913,-443.07 441.782,-436.324"/>
</g>
<!-- Node4 -->
<g id="node5" class="node"><title>Node4</title>
<g id="a_node5"><a xlink:href="classant_1_1calibration_1_1_cluster_corr_offset.html" target="_top" xlink:title="Manually set cluster energy offset. ">
<polygon fill="white" stroke="black" points="503,-409 503,-439 621,-439 621,-409 503,-409"/>
<text text-anchor="start" x="511" y="-427" font-family="Helvetica,sans-Serif" font-size="10.00">ant::calibration::Cluster</text>
<text text-anchor="middle" x="562" y="-416" font-family="Helvetica,sans-Serif" font-size="10.00">CorrOffset</text>
</a>
</g>
</g>
<!-- Node2&#45;&gt;Node4 -->
<g id="edge4" class="edge"><title>Node2&#45;&gt;Node4</title>
<path fill="none" stroke="midnightblue" d="M445.263,-422.742C464.189,-422.948 484.554,-423.169 502.844,-423.368"/>
<polygon fill="midnightblue" stroke="midnightblue" points="445.256,-419.242 435.219,-422.633 445.18,-426.241 445.256,-419.242"/>
</g>
<!-- Node5 -->
<g id="node6" class="node"><title>Node5</title>
<g id="a_node6"><a xlink:href="classant_1_1calibration_1_1_cluster_corr_smearing.html" target="_top" xlink:title="Manually add an additional cluster energy smearing. ">
<polygon fill="white" stroke="black" points="503,-360 503,-390 621,-390 621,-360 503,-360"/>
<text text-anchor="start" x="511" y="-378" font-family="Helvetica,sans-Serif" font-size="10.00">ant::calibration::Cluster</text>
<text text-anchor="middle" x="562" y="-367" font-family="Helvetica,sans-Serif" font-size="10.00">CorrSmearing</text>
</a>
</g>
</g>
<!-- Node2&#45;&gt;Node5 -->
<g id="edge5" class="edge"><title>Node2&#45;&gt;Node5</title>
<path fill="none" stroke="midnightblue" d="M445.002,-404.63C464.002,-399.777 484.469,-394.549 502.844,-389.855"/>
<polygon fill="midnightblue" stroke="midnightblue" points="444.041,-401.263 435.219,-407.129 445.774,-408.045 444.041,-401.263"/>
</g>
<!-- Node9 -->
<g id="node10" class="node"><title>Node9</title>
<g id="a_node10"><a xlink:href="classant_1_1calibration_1_1_c_b___time_walk.html" target="_top" xlink:title="ant::calibration::CB\l_TimeWalk">
<polygon fill="white" stroke="black" points="325.5,-257 325.5,-287 426.5,-287 426.5,-257 325.5,-257"/>
<text text-anchor="start" x="333.5" y="-275" font-family="Helvetica,sans-Serif" font-size="10.00">ant::calibration::CB</text>
<text text-anchor="middle" x="376" y="-264" font-family="Helvetica,sans-Serif" font-size="10.00">_TimeWalk</text>
</a>
</g>
</g>
<!-- Node8&#45;&gt;Node9 -->
<g id="edge9" class="edge"><title>Node8&#45;&gt;Node9</title>
<path fill="none" stroke="midnightblue" d="M242.852,-219.608C261.601,-227.77 286.075,-238.233 308,-247 316.3,-250.319 325.231,-253.748 333.782,-256.964"/>
<polygon fill="midnightblue" stroke="midnightblue" points="244.178,-216.368 233.613,-215.571 241.375,-222.782 244.178,-216.368"/>
</g>
<!-- Node10 -->
<g id="node11" class="node"><title>Node10</title>
<g id="a_node11"><a xlink:href="classant_1_1calibration_1_1_energy.html" target="_top" xlink:title="ant::calibration::Energy">
<polygon fill="white" stroke="black" points="317.5,-218.5 317.5,-237.5 434.5,-237.5 434.5,-218.5 317.5,-218.5"/>
<text text-anchor="middle" x="376" y="-225.5" font-family="Helvetica,sans-Serif" font-size="10.00">ant::calibration::Energy</text>
</a>
</g>
</g>
<!-- Node8&#45;&gt;Node10 -->
<g id="edge10" class="edge"><title>Node8&#45;&gt;Node10</title>
<path fill="none" stroke="midnightblue" d="M281.297,-215.353C293.318,-216.975 305.702,-218.647 317.37,-220.222"/>
<polygon fill="midnightblue" stroke="midnightblue" points="281.686,-211.874 271.308,-214.005 280.75,-218.811 281.686,-211.874"/>
</g>
<!-- Node16 -->
<g id="node17" class="node"><title>Node16</title>
<g id="a_node17"><a xlink:href="classant_1_1calibration_1_1_p_i_d___phi_angle.html" target="_top" xlink:title="ant::calibration::PID\l_PhiAngle">
<polygon fill="white" stroke="black" points="324,-169 324,-199 428,-199 428,-169 324,-169"/>
<text text-anchor="start" x="332" y="-187" font-family="Helvetica,sans-Serif" font-size="10.00">ant::calibration::PID</text>
<text text-anchor="middle" x="376" y="-176" font-family="Helvetica,sans-Serif" font-size="10.00">_PhiAngle</text>
</a>
</g>
</g>
<!-- Node8&#45;&gt;Node16 -->
<g id="edge16" class="edge"><title>Node8&#45;&gt;Node16</title>
<path fill="none" stroke="midnightblue" d="M281.526,-196.616C295.715,-194.701 310.398,-192.719 323.806,-190.91"/>
<polygon fill="midnightblue" stroke="midnightblue" points="280.75,-193.189 271.308,-197.995 281.686,-200.126 280.75,-193.189"/>
</g>
<!-- Node17 -->
<g id="node18" class="node"><title>Node17</title>
<g id="a_node18"><a xlink:href="classant_1_1calibration_1_1_t_a_p_s___to_f.html" target="_top" xlink:title="ant::calibration::TAPS_ToF">
<polygon fill="white" stroke="black" points="308.5,-130.5 308.5,-149.5 443.5,-149.5 443.5,-130.5 308.5,-130.5"/>
<text text-anchor="middle" x="376" y="-137.5" font-family="Helvetica,sans-Serif" font-size="10.00">ant::calibration::TAPS_ToF</text>
</a>
</g>
</g>
<!-- Node8&#45;&gt;Node17 -->
<g id="edge17" class="edge"><title>Node8&#45;&gt;Node17</title>
<path fill="none" stroke="midnightblue" d="M258.744,-193.01C263.315,-191.205 267.808,-189.203 272,-187 289.943,-177.571 289.916,-168.156 308,-159 315.443,-155.232 323.741,-152.114 331.892,-149.571"/>
<polygon fill="midnightblue" stroke="midnightblue" points="257.52,-189.731 249.322,-196.442 259.916,-196.308 257.52,-189.731"/>
</g>
<!-- Node18 -->
<g id="node19" class="node"><title>Node18</title>
<g id="a_node19"><a xlink:href="classant_1_1calibration_1_1_time.html" target="_top" xlink:title="ant::calibration::Time">
<polygon fill="white" stroke="black" points="322,-57.5 322,-76.5 430,-76.5 430,-57.5 322,-57.5"/>
<text text-anchor="middle" x="376" y="-64.5" font-family="Helvetica,sans-Serif" font-size="10.00">ant::calibration::Time</text>
</a>
</g>
</g>
<!-- Node8&#45;&gt;Node18 -->
<g id="edge18" class="edge"><title>Node8&#45;&gt;Node18</title>
<path fill="none" stroke="midnightblue" d="M265.138,-191.815C267.555,-190.363 269.86,-188.763 272,-187 297.79,-165.755 286.58,-146.644 308,-121 323.228,-102.769 345.386,-86.3535 359.991,-76.531"/>
<polygon fill="midnightblue" stroke="midnightblue" points="263.33,-188.808 255.995,-196.453 266.497,-195.05 263.33,-188.808"/>
</g>
<!-- Node11 -->
<g id="node12" class="node"><title>Node11</title>
<g id="a_node12"><a xlink:href="classant_1_1calibration_1_1_c_b___energy.html" target="_top" xlink:title="ant::calibration::CB\l_Energy">
<polygon fill="white" stroke="black" points="511.5,-311 511.5,-341 612.5,-341 612.5,-311 511.5,-311"/>
<text text-anchor="start" x="519.5" y="-329" font-family="Helvetica,sans-Serif" font-size="10.00">ant::calibration::CB</text>
<text text-anchor="middle" x="562" y="-318" font-family="Helvetica,sans-Serif" font-size="10.00">_Energy</text>
</a>
</g>
</g>
<!-- Node10&#45;&gt;Node11 -->
<g id="edge11" class="edge"><title>Node10&#45;&gt;Node11</title>
<path fill="none" stroke="midnightblue" d="M433.47,-241.641C437.18,-243.499 440.733,-245.607 444,-248 466.974,-264.825 457.105,-284.069 480,-301 489.23,-307.825 500.355,-312.812 511.363,-316.448"/>
<polygon fill="midnightblue" stroke="midnightblue" points="434.568,-238.301 424.002,-237.519 431.774,-244.719 434.568,-238.301"/>
</g>
<!-- Node12 -->
<g id="node13" class="node"><title>Node12</title>
<g id="a_node13"><a xlink:href="classant_1_1calibration_1_1_p_i_d___energy.html" target="_top" xlink:title="ant::calibration::PID\l_Energy">
<polygon fill="white" stroke="black" points="510,-262 510,-292 614,-292 614,-262 510,-262"/>
<text text-anchor="start" x="518" y="-280" font-family="Helvetica,sans-Serif" font-size="10.00">ant::calibration::PID</text>
<text text-anchor="middle" x="562" y="-269" font-family="Helvetica,sans-Serif" font-size="10.00">_Energy</text>
</a>
</g>
</g>
<!-- Node10&#45;&gt;Node12 -->
<g id="edge12" class="edge"><title>Node10&#45;&gt;Node12</title>
<path fill="none" stroke="midnightblue" d="M422.69,-240.167C449.15,-247.214 482.525,-256.102 509.86,-263.381"/>
<polygon fill="midnightblue" stroke="midnightblue" points="423.478,-236.755 412.914,-237.564 421.676,-243.52 423.478,-236.755"/>
</g>
<!-- Node13 -->
<g id="node14" class="node"><title>Node13</title>
<g id="a_node14"><a xlink:href="classant_1_1calibration_1_1_t_a_p_s___energy.html" target="_top" xlink:title="ant::calibration::TAPS\l_Energy">
<polygon fill="white" stroke="black" points="505.5,-213 505.5,-243 618.5,-243 618.5,-213 505.5,-213"/>
<text text-anchor="start" x="513.5" y="-231" font-family="Helvetica,sans-Serif" font-size="10.00">ant::calibration::TAPS</text>
<text text-anchor="middle" x="562" y="-220" font-family="Helvetica,sans-Serif" font-size="10.00">_Energy</text>
</a>
</g>
</g>
<!-- Node10&#45;&gt;Node13 -->
<g id="edge13" class="edge"><title>Node10&#45;&gt;Node13</title>
<path fill="none" stroke="midnightblue" d="M444.948,-228C464.841,-228 486.348,-228 505.379,-228"/>
<polygon fill="midnightblue" stroke="midnightblue" points="444.714,-224.5 434.714,-228 444.714,-231.5 444.714,-224.5"/>
</g>
<!-- Node14 -->
<g id="node15" class="node"><title>Node14</title>
<g id="a_node15"><a xlink:href="classant_1_1calibration_1_1_t_a_p_s___short_energy.html" target="_top" xlink:title="ant::calibration::TAPS\l_ShortEnergy">
<polygon fill="white" stroke="black" points="505.5,-164 505.5,-194 618.5,-194 618.5,-164 505.5,-164"/>
<text text-anchor="start" x="513.5" y="-182" font-family="Helvetica,sans-Serif" font-size="10.00">ant::calibration::TAPS</text>
<text text-anchor="middle" x="562" y="-171" font-family="Helvetica,sans-Serif" font-size="10.00">_ShortEnergy</text>
</a>
</g>
</g>
<!-- Node10&#45;&gt;Node14 -->
<g id="edge14" class="edge"><title>Node10&#45;&gt;Node14</title>
<path fill="none" stroke="midnightblue" d="M422.855,-215.789C447.818,-209.141 478.898,-200.864 505.253,-193.846"/>
<polygon fill="midnightblue" stroke="midnightblue" points="421.676,-212.48 412.914,-218.436 423.478,-219.245 421.676,-212.48"/>
</g>
<!-- Node15 -->
<g id="node16" class="node"><title>Node15</title>
<g id="a_node16"><a xlink:href="classant_1_1calibration_1_1_t_a_p_s_veto___energy.html" target="_top" xlink:title="ant::calibration::TAPSVeto\l_Energy">
<polygon fill="white" stroke="black" points="495.5,-115 495.5,-145 628.5,-145 628.5,-115 495.5,-115"/>
<text text-anchor="start" x="503.5" y="-133" font-family="Helvetica,sans-Serif" font-size="10.00">ant::calibration::TAPSVeto</text>
<text text-anchor="middle" x="562" y="-122" font-family="Helvetica,sans-Serif" font-size="10.00">_Energy</text>
</a>
</g>
</g>
<!-- Node10&#45;&gt;Node15 -->
<g id="edge15" class="edge"><title>Node10&#45;&gt;Node15</title>
<path fill="none" stroke="midnightblue" d="M433.676,-214.3C437.314,-212.456 440.797,-210.367 444,-208 467.197,-190.857 456.785,-171.12 480,-154 484.722,-150.518 489.945,-147.538 495.399,-144.989"/>
<polygon fill="midnightblue" stroke="midnightblue" points="432.123,-211.159 424.383,-218.393 434.946,-217.565 432.123,-211.159"/>
</g>
<!-- Node19 -->
<g id="node20" class="node"><title>Node19</title>
<g id="a_node20"><a xlink:href="classant_1_1calibration_1_1_new_tagger___time.html" target="_top" xlink:title="ant::calibration::NewTagger_Time">
<polygon fill="white" stroke="black" points="480,-76.5 480,-95.5 644,-95.5 644,-76.5 480,-76.5"/>
<text text-anchor="middle" x="562" y="-83.5" font-family="Helvetica,sans-Serif" font-size="10.00">ant::calibration::NewTagger_Time</text>
</a>
</g>
</g>
<!-- Node18&#45;&gt;Node19 -->
<g id="edge19" class="edge"><title>Node18&#45;&gt;Node19</title>
<path fill="none" stroke="midnightblue" d="M440.245,-73.5307C452.99,-74.8468 466.554,-76.2474 479.814,-77.6166"/>
<polygon fill="midnightblue" stroke="midnightblue" points="440.527,-70.0413 430.22,-72.4956 439.808,-77.0043 440.527,-70.0413"/>
</g>
<!-- Node20 -->
<g id="node21" class="node"><title>Node20</title>
<g id="a_node21"><a xlink:href="classant_1_1calibration_1_1_t_a_p_s___time.html" target="_top" xlink:title="ant::calibration::TAPS_Time">
<polygon fill="white" stroke="black" points="492,-38.5 492,-57.5 632,-57.5 632,-38.5 492,-38.5"/>
<text text-anchor="middle" x="562" y="-45.5" font-family="Helvetica,sans-Serif" font-size="10.00">ant::calibration::TAPS_Time</text>
</a>
</g>
</g>
<!-- Node18&#45;&gt;Node20 -->
<g id="edge20" class="edge"><title>Node18&#45;&gt;Node20</title>
<path fill="none" stroke="midnightblue" d="M440.349,-60.4586C456.937,-58.7456 474.906,-56.8901 491.784,-55.1473"/>
<polygon fill="midnightblue" stroke="midnightblue" points="439.808,-56.9957 430.22,-61.5044 440.527,-63.9587 439.808,-56.9957"/>
</g>
<!-- Node21 -->
<g id="node22" class="node"><title>Node21</title>
<g id="a_node22"><a xlink:href="classant_1_1calibration_1_1_t_a_p_s_veto___time.html" target="_top" xlink:title="ant::calibration::TAPSVeto_Time">
<polygon fill="white" stroke="black" points="482,-0.5 482,-19.5 642,-19.5 642,-0.5 482,-0.5"/>
<text text-anchor="middle" x="562" y="-7.5" font-family="Helvetica,sans-Serif" font-size="10.00">ant::calibration::TAPSVeto_Time</text>
</a>
</g>
</g>
<!-- Node18&#45;&gt;Node21 -->
<g id="edge21" class="edge"><title>Node18&#45;&gt;Node21</title>
<path fill="none" stroke="midnightblue" d="M409.759,-53.7402C429.828,-45.9119 456.156,-36.1652 480,-29 491.481,-25.5497 504.032,-22.3395 515.753,-19.5764"/>
<polygon fill="midnightblue" stroke="midnightblue" points="408.469,-50.4867 400.448,-57.4093 411.035,-56.9993 408.469,-50.4867"/>
</g>
</g>
</svg>
