<?xml version="1.0" encoding="UTF-8" standalone="no"?>
<!DOCTYPE svg PUBLIC "-//W3C//DTD SVG 1.1//EN"
 "http://www.w3.org/Graphics/SVG/1.1/DTD/svg11.dtd">
<!-- Generated by graphviz version 2.36.0 (20140111.2315)
 -->
<!-- Title: CB_Thresholds Pages: 1 -->
<svg width="120pt" height="152pt"
 viewBox="0.00 0.00 120.00 152.00" xmlns="http://www.w3.org/2000/svg" xmlns:xlink="http://www.w3.org/1999/xlink">
<g id="graph0" class="graph" transform="scale(1 1) rotate(0) translate(4 148)">
<title>CB_Thresholds</title>
<polygon fill="white" stroke="none" points="-4,4 -4,-148 116,-148 116,4 -4,4"/>
<!-- Node0 -->
<g id="node1" class="node"><title>Node0</title>
<polygon fill="#bfbfbf" stroke="black" points="14,-0.5 14,-19.5 98,-19.5 98,-0.5 14,-0.5"/>
<text text-anchor="middle" x="56" y="-7.5" font-family="Helvetica,sans-Serif" font-size="10.00">CB_Thresholds</text>
</g>
<!-- Node1 -->
<g id="node2" class="node"><title>Node1</title>
<g id="a_node2"><a xlink:href="classant_1_1analysis_1_1physics_1_1_thresholds.html" target="_top" xlink:title="ant::analysis::physics\l::Thresholds">
<polygon fill="white" stroke="black" points="0,-57 0,-87 112,-87 112,-57 0,-57"/>
<text text-anchor="start" x="8" y="-75" font-family="Helvetica,sans-Serif" font-size="10.00">ant::analysis::physics</text>
<text text-anchor="middle" x="56" y="-64" font-family="Helvetica,sans-Serif" font-size="10.00">::Thresholds</text>
</a>
</g>
</g>
<!-- Node1&#45;&gt;Node0 -->
<g id="edge1" class="edge"><title>Node1&#45;&gt;Node0</title>
<path fill="none" stroke="midnightblue" d="M56,-46.5858C56,-37.0743 56,-26.7864 56,-19.7305"/>
<polygon fill="midnightblue" stroke="midnightblue" points="52.5001,-46.7808 56,-56.7808 59.5001,-46.7809 52.5001,-46.7808"/>
</g>
<!-- Node2 -->
<g id="node3" class="node"><title>Node2</title>
<g id="a_node3"><a xlink:href="classant_1_1analysis_1_1_physics.html" target="_top" xlink:title="ant::analysis::Physics">
<polygon fill="white" stroke="black" points="-0.5,-124.5 -0.5,-143.5 112.5,-143.5 112.5,-124.5 -0.5,-124.5"/>
<text text-anchor="middle" x="56" y="-131.5" font-family="Helvetica,sans-Serif" font-size="10.00">ant::analysis::Physics</text>
</a>
</g>
</g>
<!-- Node2&#45;&gt;Node1 -->
<g id="edge2" class="edge"><title>Node2&#45;&gt;Node1</title>
<path fill="none" stroke="midnightblue" d="M56,-114.371C56,-105.585 56,-95.2721 56,-87.1408"/>
<polygon fill="midnightblue" stroke="midnightblue" points="52.5001,-114.403 56,-124.403 59.5001,-114.403 52.5001,-114.403"/>
</g>
</g>
</svg>
