<?xml version="1.0" encoding="UTF-8" standalone="no"?>
<!DOCTYPE svg PUBLIC "-//W3C//DTD SVG 1.1//EN"
 "http://www.w3.org/Graphics/SVG/1.1/DTD/svg11.dtd">
<!-- Generated by graphviz version 2.36.0 (20140111.2315)
 -->
<!-- Title: ant::analysis::utils::UncertaintyModels::Optimized Pages: 1 -->
<svg width="118pt" height="196pt"
 viewBox="0.00 0.00 118.00 196.00" xmlns="http://www.w3.org/2000/svg" xmlns:xlink="http://www.w3.org/1999/xlink">
<g id="graph0" class="graph" transform="scale(1 1) rotate(0) translate(4 192)">
<title>ant::analysis::utils::UncertaintyModels::Optimized</title>
<polygon fill="white" stroke="none" points="-4,4 -4,-192 114,-192 114,4 -4,4"/>
<!-- Node0 -->
<g id="node1" class="node"><title>Node0</title>
<polygon fill="#bfbfbf" stroke="black" points="0,-78.5 0,-119.5 110,-119.5 110,-78.5 0,-78.5"/>
<text text-anchor="start" x="8" y="-107.5" font-family="Helvetica,sans-Serif" font-size="10.00">ant::analysis::utils</text>
<text text-anchor="start" x="8" y="-96.5" font-family="Helvetica,sans-Serif" font-size="10.00">::UncertaintyModels::</text>
<text text-anchor="middle" x="55" y="-85.5" font-family="Helvetica,sans-Serif" font-size="10.00">Optimized</text>
</g>
<!-- Node2 -->
<g id="node3" class="node"><title>Node2</title>
<g id="a_node3"><a xlink:href="structant_1_1analysis_1_1utils_1_1_uncertainty_models_1_1_optimized___oli1.html" target="_top" xlink:title="Values for the optimized model, obtainded from KinFitPi0 on data. ">
<polygon fill="white" stroke="black" points="0,-0.5 0,-41.5 110,-41.5 110,-0.5 0,-0.5"/>
<text text-anchor="start" x="8" y="-29.5" font-family="Helvetica,sans-Serif" font-size="10.00">ant::analysis::utils</text>
<text text-anchor="start" x="8" y="-18.5" font-family="Helvetica,sans-Serif" font-size="10.00">::UncertaintyModels::</text>
<text text-anchor="middle" x="55" y="-7.5" font-family="Helvetica,sans-Serif" font-size="10.00">Optimized_Oli1</text>
</a>
</g>
</g>
<!-- Node0&#45;&gt;Node2 -->
<g id="edge2" class="edge"><title>Node0&#45;&gt;Node2</title>
<path fill="none" stroke="midnightblue" d="M55,-68.2965C55,-59.3009 55,-49.6532 55,-41.5056"/>
<polygon fill="midnightblue" stroke="midnightblue" points="51.5001,-68.4281 55,-78.4281 58.5001,-68.4281 51.5001,-68.4281"/>
</g>
<!-- Node1 -->
<g id="node2" class="node"><title>Node1</title>
<g id="a_node2"><a xlink:href="classant_1_1analysis_1_1utils_1_1_uncertainty_model.html" target="_top" xlink:title="Virtual base class for different Uncertainty Models for fitter. Implement at least the GetSigmas() me...">
<polygon fill="white" stroke="black" points="5.5,-157 5.5,-187 104.5,-187 104.5,-157 5.5,-157"/>
<text text-anchor="start" x="13.5" y="-175" font-family="Helvetica,sans-Serif" font-size="10.00">ant::analysis::utils</text>
<text text-anchor="middle" x="55" y="-164" font-family="Helvetica,sans-Serif" font-size="10.00">::UncertaintyModel</text>
</a>
</g>
</g>
<!-- Node1&#45;&gt;Node0 -->
<g id="edge1" class="edge"><title>Node1&#45;&gt;Node0</title>
<path fill="none" stroke="midnightblue" d="M55,-146.853C55,-137.987 55,-128.065 55,-119.642"/>
<polygon fill="midnightblue" stroke="midnightblue" points="51.5001,-146.973 55,-156.973 58.5001,-146.973 51.5001,-146.973"/>
</g>
</g>
</svg>
