<?xml version="1.0" encoding="UTF-8" standalone="no"?>
<!DOCTYPE svg PUBLIC "-//W3C//DTD SVG 1.1//EN"
 "http://www.w3.org/Graphics/SVG/1.1/DTD/svg11.dtd">
<!-- Generated by graphviz version 2.36.0 (20140111.2315)
 -->
<!-- Title: ant::expconfig::detector::Cherenkov Pages: 1 -->
<svg width="862pt" height="139pt"
 viewBox="0.00 0.00 862.00 139.00" xmlns="http://www.w3.org/2000/svg" xmlns:xlink="http://www.w3.org/1999/xlink">
<g id="graph0" class="graph" transform="scale(1 1) rotate(0) translate(4 135)">
<title>ant::expconfig::detector::Cherenkov</title>
<polygon fill="white" stroke="none" points="-4,4 -4,-135 858,-135 858,4 -4,4"/>
<!-- Node3 -->
<g id="node1" class="node"><title>Node3</title>
<polygon fill="#bfbfbf" stroke="black" points="734.5,-68 734.5,-98 853.5,-98 853.5,-68 734.5,-68"/>
<text text-anchor="start" x="742.5" y="-86" font-family="Helvetica,sans-Serif" font-size="10.00">ant::expconfig::detector</text>
<text text-anchor="middle" x="794" y="-75" font-family="Helvetica,sans-Serif" font-size="10.00">::Cherenkov</text>
</g>
<!-- Node4 -->
<g id="node2" class="node"><title>Node4</title>
<g id="a_node2"><a xlink:href="structant_1_1_detector__t.html" target="_top" xlink:title="The Detector_t struct is the minimal base class for all detectors. ">
<polygon fill="white" stroke="black" points="554,-111.5 554,-130.5 636,-130.5 636,-111.5 554,-111.5"/>
<text text-anchor="middle" x="595" y="-118.5" font-family="Helvetica,sans-Serif" font-size="10.00">ant::Detector_t</text>
</a>
</g>
</g>
<!-- Node4&#45;&gt;Node3 -->
<g id="edge1" class="edge"><title>Node4&#45;&gt;Node3</title>
<path fill="none" stroke="midnightblue" d="M646.302,-111.297C673.166,-106.115 706.378,-99.7089 734.403,-94.303"/>
<polygon fill="midnightblue" stroke="midnightblue" points="645.497,-107.888 636.341,-113.218 646.823,-114.761 645.497,-107.888"/>
</g>
<!-- Node5 -->
<g id="node3" class="node"><title>Node5</title>
<g id="a_node3"><a xlink:href="classant_1_1_unpacker_acqu_config.html" target="_top" xlink:title="ant::UnpackerAcquConfig">
<polygon fill="white" stroke="black" points="530.5,-73.5 530.5,-92.5 659.5,-92.5 659.5,-73.5 530.5,-73.5"/>
<text text-anchor="middle" x="595" y="-80.5" font-family="Helvetica,sans-Serif" font-size="10.00">ant::UnpackerAcquConfig</text>
</a>
</g>
</g>
<!-- Node5&#45;&gt;Node3 -->
<g id="edge2" class="edge"><title>Node5&#45;&gt;Node3</title>
<path fill="none" stroke="midnightblue" d="M669.958,-83C691.181,-83 714.028,-83 734.206,-83"/>
<polygon fill="midnightblue" stroke="midnightblue" points="669.688,-79.5001 659.688,-83 669.688,-86.5001 669.688,-79.5001"/>
</g>
<!-- Node6 -->
<g id="node4" class="node"><title>Node6</title>
<g id="a_node4"><a xlink:href="structant_1_1expconfig_1_1detector_1_1_cherenkov_1_1_element__t.html" target="_top" xlink:title="ant::expconfig::detector\l::Cherenkov::Element_t">
<polygon fill="white" stroke="black" points="535,-24 535,-54 655,-54 655,-24 535,-24"/>
<text text-anchor="start" x="543" y="-42" font-family="Helvetica,sans-Serif" font-size="10.00">ant::expconfig::detector</text>
<text text-anchor="middle" x="595" y="-31" font-family="Helvetica,sans-Serif" font-size="10.00">::Cherenkov::Element_t</text>
</a>
</g>
</g>
<!-- Node6&#45;&gt;Node3 -->
<g id="edge3" class="edge"><title>Node6&#45;&gt;Node3</title>
<path fill="none" stroke="#9a32cd" stroke-dasharray="5,2" d="M664.978,-54.4062C687.592,-59.457 712.493,-65.0187 734.275,-69.8837"/>
<polygon fill="#9a32cd" stroke="#9a32cd" points="665.629,-50.9655 655.106,-52.2015 664.103,-57.7972 665.629,-50.9655"/>
<text text-anchor="middle" x="697" y="-68" font-family="Helvetica,sans-Serif" font-size="10.00"> element</text>
</g>
<!-- Node7 -->
<g id="node5" class="node"><title>Node7</title>
<g id="a_node5"><a xlink:href="structant_1_1_detector__t_1_1_element__t.html" target="_top" xlink:title="ant::Detector_t::Element_t">
<polygon fill="white" stroke="black" points="360,-29.5 360,-48.5 492,-48.5 492,-29.5 360,-29.5"/>
<text text-anchor="middle" x="426" y="-36.5" font-family="Helvetica,sans-Serif" font-size="10.00">ant::Detector_t::Element_t</text>
</a>
</g>
</g>
<!-- Node7&#45;&gt;Node6 -->
<g id="edge4" class="edge"><title>Node7&#45;&gt;Node6</title>
<path fill="none" stroke="midnightblue" d="M502.061,-39C513.053,-39 524.241,-39 534.854,-39"/>
<polygon fill="midnightblue" stroke="midnightblue" points="502.045,-35.5001 492.045,-39 502.045,-42.5001 502.045,-35.5001"/>
</g>
<!-- Node8 -->
<g id="node6" class="node"><title>Node8</title>
<g id="a_node6"><a xlink:href="structant_1_1vec3.html" target="_top" xlink:title="ant::vec3">
<polygon fill="white" stroke="black" points="192.5,-49.5 192.5,-68.5 249.5,-68.5 249.5,-49.5 192.5,-49.5"/>
<text text-anchor="middle" x="221" y="-56.5" font-family="Helvetica,sans-Serif" font-size="10.00">ant::vec3</text>
</a>
</g>
</g>
<!-- Node8&#45;&gt;Node7 -->
<g id="edge5" class="edge"><title>Node8&#45;&gt;Node7</title>
<path fill="none" stroke="#9a32cd" stroke-dasharray="5,2" d="M259.996,-55.2566C288.073,-52.4904 326.985,-48.6566 359.971,-45.4068"/>
<polygon fill="#9a32cd" stroke="#9a32cd" points="259.409,-51.7973 249.801,-56.261 260.096,-58.7636 259.409,-51.7973"/>
<text text-anchor="middle" x="322" y="-54" font-family="Helvetica,sans-Serif" font-size="10.00"> Position</text>
</g>
<!-- Node9 -->
<g id="node7" class="node"><title>Node9</title>
<g id="a_node7"><a xlink:href="classant_1_1bitflag.html" target="_top" xlink:title="ant::bitflag\&lt; ElementFlag\l_t, 16 \&gt;">
<polygon fill="white" stroke="black" points="158,-0 158,-30 284,-30 284,-0 158,-0"/>
<text text-anchor="start" x="166" y="-18" font-family="Helvetica,sans-Serif" font-size="10.00">ant::bitflag&lt; ElementFlag</text>
<text text-anchor="middle" x="221" y="-7" font-family="Helvetica,sans-Serif" font-size="10.00">_t, 16 &gt;</text>
</a>
</g>
</g>
<!-- Node9&#45;&gt;Node7 -->
<g id="edge6" class="edge"><title>Node9&#45;&gt;Node7</title>
<path fill="none" stroke="#9a32cd" stroke-dasharray="5,2" d="M294.04,-23.5171C315.493,-26.0533 338.867,-28.8168 359.853,-31.2979"/>
<polygon fill="#9a32cd" stroke="#9a32cd" points="294.352,-20.0296 284.01,-22.3312 293.53,-26.9812 294.352,-20.0296"/>
<text text-anchor="middle" x="322" y="-33" font-family="Helvetica,sans-Serif" font-size="10.00"> Flags</text>
</g>
<!-- Node10 -->
<g id="node8" class="node"><title>Node10</title>
<polygon fill="white" stroke="#bfbfbf" points="0.5,-0 0.5,-30 101.5,-30 101.5,-0 0.5,-0"/>
<text text-anchor="start" x="8.5" y="-18" font-family="Helvetica,sans-Serif" font-size="10.00">std::bitset&lt; number</text>
<text text-anchor="middle" x="51" y="-7" font-family="Helvetica,sans-Serif" font-size="10.00">_of_bits &gt;</text>
</g>
<!-- Node10&#45;&gt;Node9 -->
<g id="edge7" class="edge"><title>Node10&#45;&gt;Node9</title>
<path fill="none" stroke="#9a32cd" stroke-dasharray="5,2" d="M112.023,-15C126.861,-15 142.787,-15 157.729,-15"/>
<polygon fill="#9a32cd" stroke="#9a32cd" points="111.951,-11.5001 101.951,-15 111.951,-18.5001 111.951,-11.5001"/>
<text text-anchor="middle" x="130" y="-18" font-family="Helvetica,sans-Serif" font-size="10.00"> bits</text>
</g>
</g>
</svg>
