<?xml version="1.0" encoding="UTF-8" standalone="no"?>
<!DOCTYPE svg PUBLIC "-//W3C//DTD SVG 1.1//EN"
 "http://www.w3.org/Graphics/SVG/1.1/DTD/svg11.dtd">
<!-- Generated by graphviz version 2.36.0 (20140111.2315)
 -->
<!-- Title: ant::ClippedInterpolatorWrapper Pages: 1 -->
<svg width="502pt" height="87pt"
 viewBox="0.00 0.00 502.00 87.00" xmlns="http://www.w3.org/2000/svg" xmlns:xlink="http://www.w3.org/1999/xlink">
<g id="graph0" class="graph" transform="scale(1 1) rotate(0) translate(4 83)">
<title>ant::ClippedInterpolatorWrapper</title>
<polygon fill="white" stroke="none" points="-4,4 -4,-83 498,-83 498,4 -4,4"/>
<!-- Node1 -->
<g id="node1" class="node"><title>Node1</title>
<polygon fill="#bfbfbf" stroke="black" points="376,-25 376,-55 494,-55 494,-25 376,-25"/>
<text text-anchor="start" x="384" y="-43" font-family="Helvetica,sans-Serif" font-size="10.00">ant::ClippedInterpolator</text>
<text text-anchor="middle" x="435" y="-32" font-family="Helvetica,sans-Serif" font-size="10.00">Wrapper</text>
</g>
<!-- Node2 -->
<g id="node2" class="node"><title>Node2</title>
<polygon fill="white" stroke="#bfbfbf" points="185,-49 185,-79 299,-79 299,-49 185,-49"/>
<text text-anchor="start" x="193" y="-67" font-family="Helvetica,sans-Serif" font-size="10.00">std::unique_ptr&lt; const</text>
<text text-anchor="middle" x="242" y="-56" font-family="Helvetica,sans-Serif" font-size="10.00"> ant::Interpolator2D &gt;</text>
</g>
<!-- Node2&#45;&gt;Node1 -->
<g id="edge1" class="edge"><title>Node2&#45;&gt;Node1</title>
<path fill="none" stroke="#9a32cd" stroke-dasharray="5,2" d="M309.158,-55.6869C330.905,-52.9543 354.901,-49.9392 375.995,-47.2886"/>
<polygon fill="#9a32cd" stroke="#9a32cd" points="308.501,-52.2419 299.016,-56.9614 309.374,-59.1872 308.501,-52.2419"/>
<text text-anchor="middle" x="341" y="-56" font-family="Helvetica,sans-Serif" font-size="10.00"> interp</text>
</g>
<!-- Node3 -->
<g id="node3" class="node"><title>Node3</title>
<g id="a_node3"><a xlink:href="classant_1_1_interpolator2_d.html" target="_top" xlink:title="ant::Interpolator2D">
<polygon fill="white" stroke="black" points="8,-54.5 8,-73.5 106,-73.5 106,-54.5 8,-54.5"/>
<text text-anchor="middle" x="57" y="-61.5" font-family="Helvetica,sans-Serif" font-size="10.00">ant::Interpolator2D</text>
</a>
</g>
</g>
<!-- Node3&#45;&gt;Node2 -->
<g id="edge2" class="edge"><title>Node3&#45;&gt;Node2</title>
<path fill="none" stroke="#9a32cd" stroke-dasharray="5,2" d="M116.254,-64C138.185,-64 163.064,-64 184.804,-64"/>
<polygon fill="#9a32cd" stroke="#9a32cd" points="116.081,-60.5001 106.081,-64 116.081,-67.5001 116.081,-60.5001"/>
<text text-anchor="middle" x="146" y="-67" font-family="Helvetica,sans-Serif" font-size="10.00"> ptr</text>
</g>
<!-- Node4 -->
<g id="node4" class="node"><title>Node4</title>
<g id="a_node4"><a xlink:href="structant_1_1_clipped_interpolator_wrapper_1_1bounds_check__t.html" target="_top" xlink:title="ant::ClippedInterpolator\lWrapper::boundsCheck_t">
<polygon fill="white" stroke="black" points="178,-0 178,-30 306,-30 306,-0 178,-0"/>
<text text-anchor="start" x="186" y="-18" font-family="Helvetica,sans-Serif" font-size="10.00">ant::ClippedInterpolator</text>
<text text-anchor="middle" x="242" y="-7" font-family="Helvetica,sans-Serif" font-size="10.00">Wrapper::boundsCheck_t</text>
</a>
</g>
</g>
<!-- Node4&#45;&gt;Node1 -->
<g id="edge3" class="edge"><title>Node4&#45;&gt;Node1</title>
<path fill="none" stroke="#9a32cd" stroke-dasharray="5,2" d="M316.183,-18.4305C330.108,-19.5523 344.534,-21.037 358,-23 363.753,-23.8387 369.718,-24.8752 375.66,-26.0195"/>
<polygon fill="#9a32cd" stroke="#9a32cd" points="316.386,-14.936 306.152,-17.676 315.861,-21.9163 316.386,-14.936"/>
<text text-anchor="middle" x="341" y="-37" font-family="Helvetica,sans-Serif" font-size="10.00"> yrange</text>
<text text-anchor="middle" x="341" y="-26" font-family="Helvetica,sans-Serif" font-size="10.00">xrange</text>
</g>
<!-- Node5 -->
<g id="node5" class="node"><title>Node5</title>
<g id="a_node5"><a xlink:href="classant_1_1interval.html" target="_top" xlink:title="ant::interval\&lt; double \&gt;">
<polygon fill="white" stroke="black" points="0,-5.5 0,-24.5 114,-24.5 114,-5.5 0,-5.5"/>
<text text-anchor="middle" x="57" y="-12.5" font-family="Helvetica,sans-Serif" font-size="10.00">ant::interval&lt; double &gt;</text>
</a>
</g>
</g>
<!-- Node5&#45;&gt;Node4 -->
<g id="edge4" class="edge"><title>Node5&#45;&gt;Node4</title>
<path fill="none" stroke="#9a32cd" stroke-dasharray="5,2" d="M124.465,-15C141.853,-15 160.548,-15 177.763,-15"/>
<polygon fill="#9a32cd" stroke="#9a32cd" points="124.399,-11.5001 114.399,-15 124.399,-18.5001 124.399,-11.5001"/>
<text text-anchor="middle" x="146" y="-18" font-family="Helvetica,sans-Serif" font-size="10.00"> range</text>
</g>
</g>
</svg>
