<?xml version="1.0" encoding="UTF-8" standalone="no"?>
<!DOCTYPE svg PUBLIC "-//W3C//DTD SVG 1.1//EN"
 "http://www.w3.org/Graphics/SVG/1.1/DTD/svg11.dtd">
<!-- Generated by graphviz version 2.36.0 (20140111.2315)
 -->
<!-- Title: ant::analysis::slowcontrol::processor::Beampolmon Pages: 1 -->
<svg width="754pt" height="68pt"
 viewBox="0.00 0.00 754.00 68.00" xmlns="http://www.w3.org/2000/svg" xmlns:xlink="http://www.w3.org/1999/xlink">
<g id="graph0" class="graph" transform="scale(1 1) rotate(0) translate(4 64)">
<title>ant::analysis::slowcontrol::processor::Beampolmon</title>
<polygon fill="white" stroke="none" points="-4,4 -4,-64 750,-64 750,4 -4,4"/>
<!-- Node2 -->
<g id="node1" class="node"><title>Node2</title>
<polygon fill="#bfbfbf" stroke="black" points="618,-23 618,-53 746,-53 746,-23 618,-23"/>
<text text-anchor="start" x="626" y="-41" font-family="Helvetica,sans-Serif" font-size="10.00">ant::analysis::slowcontrol</text>
<text text-anchor="middle" x="682" y="-30" font-family="Helvetica,sans-Serif" font-size="10.00">::processor::Beampolmon</text>
</g>
<!-- Node3 -->
<g id="node2" class="node"><title>Node3</title>
<g id="a_node2"><a xlink:href="structant_1_1analysis_1_1slowcontrol_1_1_processor.html" target="_top" xlink:title="ant::analysis::slowcontrol\l::Processor">
<polygon fill="white" stroke="black" points="0,-30 0,-60 128,-60 128,-30 0,-30"/>
<text text-anchor="start" x="8" y="-48" font-family="Helvetica,sans-Serif" font-size="10.00">ant::analysis::slowcontrol</text>
<text text-anchor="middle" x="64" y="-37" font-family="Helvetica,sans-Serif" font-size="10.00">::Processor</text>
</a>
</g>
</g>
<!-- Node3&#45;&gt;Node2 -->
<g id="edge1" class="edge"><title>Node3&#45;&gt;Node2</title>
<path fill="none" stroke="midnightblue" d="M138.317,-46.8824C140.91,-46.926 143.477,-46.9655 146,-47 313.096,-49.2848 354.888,-47.7778 522,-48 556.667,-48.0461 565.399,-50.1278 600,-48 605.798,-47.6434 611.817,-47.1446 617.837,-46.5581"/>
<polygon fill="midnightblue" stroke="midnightblue" points="138.293,-43.3815 128.23,-46.6957 138.163,-50.3803 138.293,-43.3815"/>
</g>
<!-- Node5 -->
<g id="node4" class="node"><title>Node5</title>
<g id="a_node4"><a xlink:href="structant_1_1analysis_1_1slowcontrol_1_1processor_1_1_acqu_scaler_vector.html" target="_top" xlink:title="ant::analysis::slowcontrol\l::processor::AcquScalerVector">
<polygon fill="white" stroke="black" points="166,-3 166,-33 316,-33 316,-3 166,-3"/>
<text text-anchor="start" x="174" y="-21" font-family="Helvetica,sans-Serif" font-size="10.00">ant::analysis::slowcontrol</text>
<text text-anchor="middle" x="241" y="-10" font-family="Helvetica,sans-Serif" font-size="10.00">::processor::AcquScalerVector</text>
</a>
</g>
</g>
<!-- Node3&#45;&gt;Node5 -->
<g id="edge4" class="edge"><title>Node3&#45;&gt;Node5</title>
<path fill="none" stroke="midnightblue" d="M138.351,-33.683C147.459,-32.2778 156.776,-30.8402 165.895,-29.4333"/>
<polygon fill="midnightblue" stroke="midnightblue" points="137.528,-30.2684 128.179,-35.2524 138.596,-37.1866 137.528,-30.2684"/>
</g>
<!-- Node4 -->
<g id="node3" class="node"><title>Node4</title>
<g id="a_node3"><a xlink:href="structant_1_1analysis_1_1slowcontrol_1_1processor_1_1_acqu_scaler_scalar.html" target="_top" xlink:title="ant::analysis::slowcontrol\l::processor::AcquScalerScalar">
<polygon fill="white" stroke="black" points="354.5,-0 354.5,-30 503.5,-30 503.5,-0 354.5,-0"/>
<text text-anchor="start" x="362.5" y="-18" font-family="Helvetica,sans-Serif" font-size="10.00">ant::analysis::slowcontrol</text>
<text text-anchor="middle" x="429" y="-7" font-family="Helvetica,sans-Serif" font-size="10.00">::processor::AcquScalerScalar</text>
</a>
</g>
</g>
<!-- Node4&#45;&gt;Node2 -->
<g id="edge2" class="edge"><title>Node4&#45;&gt;Node2</title>
<path fill="none" stroke="#9a32cd" stroke-dasharray="5,2" d="M513.548,-10.4191C541.181,-10.1215 572.013,-11.1035 600,-15 612.017,-16.6731 624.757,-19.679 636.487,-22.9776"/>
<polygon fill="#9a32cd" stroke="#9a32cd" points="513.465,-6.91988 503.523,-10.5836 513.579,-13.9189 513.465,-6.91988"/>
<text text-anchor="middle" x="561" y="-40" font-family="Helvetica,sans-Serif" font-size="10.00"> FaradayCup</text>
<text text-anchor="middle" x="561" y="-29" font-family="Helvetica,sans-Serif" font-size="10.00">PbGlass</text>
<text text-anchor="middle" x="561" y="-18" font-family="Helvetica,sans-Serif" font-size="10.00">Reference_1MHz</text>
</g>
<!-- Node5&#45;&gt;Node4 -->
<g id="edge3" class="edge"><title>Node5&#45;&gt;Node4</title>
<path fill="none" stroke="midnightblue" d="M326.141,-16.6429C335.504,-16.4919 344.988,-16.3389 354.208,-16.1902"/>
<polygon fill="midnightblue" stroke="midnightblue" points="325.989,-13.1448 316.047,-16.8057 326.102,-20.1439 325.989,-13.1448"/>
</g>
</g>
</svg>
