<?xml version="1.0" encoding="UTF-8" standalone="no"?>
<!DOCTYPE svg PUBLIC "-//W3C//DTD SVG 1.1//EN"
 "http://www.w3.org/Graphics/SVG/1.1/DTD/svg11.dtd">
<!-- Generated by graphviz version 2.36.0 (20140111.2315)
 -->
<!-- Title: ant::SavitzkyGolay::gsl_unique_ptr&lt; T, Deleter &gt; Pages: 1 -->
<svg width="112pt" height="118pt"
 viewBox="0.00 0.00 112.00 118.00" xmlns="http://www.w3.org/2000/svg" xmlns:xlink="http://www.w3.org/1999/xlink">
<g id="graph0" class="graph" transform="scale(1 1) rotate(0) translate(4 114)">
<title>ant::SavitzkyGolay::gsl_unique_ptr&lt; T, Deleter &gt;</title>
<polygon fill="white" stroke="none" points="-4,4 -4,-114 108,-114 108,4 -4,4"/>
<!-- Node0 -->
<g id="node1" class="node"><title>Node0</title>
<polygon fill="#bfbfbf" stroke="black" points="0,-0.5 0,-41.5 104,-41.5 104,-0.5 0,-0.5"/>
<text text-anchor="start" x="8" y="-29.5" font-family="Helvetica,sans-Serif" font-size="10.00">ant::SavitzkyGolay</text>
<text text-anchor="start" x="8" y="-18.5" font-family="Helvetica,sans-Serif" font-size="10.00">::gsl_unique_ptr&lt; T,</text>
<text text-anchor="middle" x="52" y="-7.5" font-family="Helvetica,sans-Serif" font-size="10.00"> Deleter &gt;</text>
</g>
<!-- Node1 -->
<g id="node2" class="node"><title>Node1</title>
<g id="a_node2"><a xlink:title="STL class. ">
<polygon fill="white" stroke="#bfbfbf" points="2.5,-79 2.5,-109 101.5,-109 101.5,-79 2.5,-79"/>
<text text-anchor="start" x="10.5" y="-97" font-family="Helvetica,sans-Serif" font-size="10.00">std::unique_ptr&lt; T,</text>
<text text-anchor="middle" x="52" y="-86" font-family="Helvetica,sans-Serif" font-size="10.00"> Deleter &gt;</text>
</a>
</g>
</g>
<!-- Node1&#45;&gt;Node0 -->
<g id="edge1" class="edge"><title>Node1&#45;&gt;Node0</title>
<path fill="none" stroke="midnightblue" d="M52,-68.8534C52,-59.9872 52,-50.065 52,-41.642"/>
<polygon fill="midnightblue" stroke="midnightblue" points="48.5001,-68.9727 52,-78.9727 55.5001,-68.9727 48.5001,-68.9727"/>
</g>
</g>
</svg>
