<?xml version="1.0" encoding="UTF-8" standalone="no"?>
<!DOCTYPE svg PUBLIC "-//W3C//DTD SVG 1.1//EN"
 "http://www.w3.org/Graphics/SVG/1.1/DTD/svg11.dtd">
<!-- Generated by graphviz version 2.36.0 (20140111.2315)
 -->
<!-- Title: ant::OptionsList::option_t Pages: 1 -->
<svg width="134pt" height="166pt"
 viewBox="0.00 0.00 134.00 166.00" xmlns="http://www.w3.org/2000/svg" xmlns:xlink="http://www.w3.org/1999/xlink">
<g id="graph0" class="graph" transform="scale(1 1) rotate(0) translate(4 162)">
<title>ant::OptionsList::option_t</title>
<polygon fill="white" stroke="none" points="-4,4 -4,-162 130,-162 130,4 -4,4"/>
<!-- Node1 -->
<g id="node1" class="node"><title>Node1</title>
<polygon fill="#bfbfbf" stroke="black" points="0,-0.5 0,-19.5 126,-19.5 126,-0.5 0,-0.5"/>
<text text-anchor="middle" x="63" y="-7.5" font-family="Helvetica,sans-Serif" font-size="10.00">ant::OptionsList::option_t</text>
</g>
<!-- Node2 -->
<g id="node2" class="node"><title>Node2</title>
<g id="a_node2"><a xlink:title="STL class. ">
<polygon fill="white" stroke="#bfbfbf" points="33,-68.5 33,-87.5 93,-87.5 93,-68.5 33,-68.5"/>
<text text-anchor="middle" x="63" y="-75.5" font-family="Helvetica,sans-Serif" font-size="10.00">std::string</text>
</a>
</g>
</g>
<!-- Node2&#45;&gt;Node1 -->
<g id="edge1" class="edge"><title>Node2&#45;&gt;Node1</title>
<path fill="none" stroke="#9a32cd" stroke-dasharray="5,2" d="M63,-58.0413C63,-45.4724 63,-29.5631 63,-19.8411"/>
<polygon fill="#9a32cd" stroke="#9a32cd" points="59.5001,-58.3716 63,-68.3717 66.5001,-58.3717 59.5001,-58.3716"/>
<text text-anchor="middle" x="77" y="-41.5" font-family="Helvetica,sans-Serif" font-size="10.00"> Value</text>
</g>
<!-- Node3 -->
<g id="node3" class="node"><title>Node3</title>
<g id="a_node3"><a xlink:title="STL class. ">
<polygon fill="white" stroke="#bfbfbf" points="15.5,-127 15.5,-157 110.5,-157 110.5,-127 15.5,-127"/>
<text text-anchor="start" x="23.5" y="-145" font-family="Helvetica,sans-Serif" font-size="10.00">std::basic_string&lt;</text>
<text text-anchor="middle" x="63" y="-134" font-family="Helvetica,sans-Serif" font-size="10.00"> char &gt;</text>
</a>
</g>
</g>
<!-- Node3&#45;&gt;Node2 -->
<g id="edge2" class="edge"><title>Node3&#45;&gt;Node2</title>
<path fill="none" stroke="midnightblue" d="M63,-116.871C63,-106.663 63,-95.4077 63,-87.8419"/>
<polygon fill="midnightblue" stroke="midnightblue" points="59.5001,-116.931 63,-126.931 66.5001,-116.931 59.5001,-116.931"/>
</g>
</g>
</svg>
