<?xml version="1.0" encoding="UTF-8" standalone="no"?>
<!DOCTYPE svg PUBLIC "-//W3C//DTD SVG 1.1//EN"
 "http://www.w3.org/Graphics/SVG/1.1/DTD/svg11.dtd">
<!-- Generated by graphviz version 2.36.0 (20140111.2315)
 -->
<!-- Title: ant::analysis::physics::triplePi0::settings_t Pages: 1 -->
<svg width="542pt" height="187pt"
 viewBox="0.00 0.00 542.00 187.00" xmlns="http://www.w3.org/2000/svg" xmlns:xlink="http://www.w3.org/1999/xlink">
<g id="graph0" class="graph" transform="scale(1 1) rotate(0) translate(4 183)">
<title>ant::analysis::physics::triplePi0::settings_t</title>
<polygon fill="white" stroke="none" points="-4,4 -4,-183 538,-183 538,4 -4,4"/>
<!-- Node1 -->
<g id="node1" class="node"><title>Node1</title>
<polygon fill="#bfbfbf" stroke="black" points="422,-58 422,-88 534,-88 534,-58 422,-58"/>
<text text-anchor="start" x="430" y="-76" font-family="Helvetica,sans-Serif" font-size="10.00">ant::analysis::physics</text>
<text text-anchor="middle" x="478" y="-65" font-family="Helvetica,sans-Serif" font-size="10.00">::triplePi0::settings_t</text>
</g>
<!-- Node2 -->
<g id="node2" class="node"><title>Node2</title>
<polygon fill="white" stroke="#bfbfbf" points="198,-77 198,-107 302,-107 302,-77 198,-77"/>
<text text-anchor="start" x="206" y="-95" font-family="Helvetica,sans-Serif" font-size="10.00">std::vector&lt; interval</text>
<text text-anchor="middle" x="250" y="-84" font-family="Helvetica,sans-Serif" font-size="10.00">&lt; double &gt; &gt;</text>
</g>
<!-- Node2&#45;&gt;Node1 -->
<g id="edge1" class="edge"><title>Node2&#45;&gt;Node1</title>
<path fill="none" stroke="#9a32cd" stroke-dasharray="5,2" d="M312.329,-86.844C346.502,-83.9711 388.709,-80.4227 421.837,-77.6376"/>
<polygon fill="#9a32cd" stroke="#9a32cd" points="311.672,-83.3868 302.001,-87.7123 312.259,-90.3622 311.672,-83.3868"/>
<text text-anchor="middle" x="364" y="-89" font-family="Helvetica,sans-Serif" font-size="10.00"> Ranges_Random</text>
</g>
<!-- Node3 -->
<g id="node3" class="node"><title>Node3</title>
<g id="a_node3"><a xlink:href="classant_1_1interval.html" target="_top" xlink:title="ant::interval\&lt; double \&gt;">
<polygon fill="white" stroke="black" points="0,-108.5 0,-127.5 114,-127.5 114,-108.5 0,-108.5"/>
<text text-anchor="middle" x="57" y="-115.5" font-family="Helvetica,sans-Serif" font-size="10.00">ant::interval&lt; double &gt;</text>
</a>
</g>
</g>
<!-- Node3&#45;&gt;Node1 -->
<g id="edge3" class="edge"><title>Node3&#45;&gt;Node1</title>
<path fill="none" stroke="#9a32cd" stroke-dasharray="5,2" d="M124.314,-122.843C194.901,-126.139 309.249,-126.111 404,-101 416.727,-97.6269 430.29,-92.7901 442.228,-88.083"/>
<polygon fill="#9a32cd" stroke="#9a32cd" points="124.388,-119.343 114.225,-122.336 124.037,-126.334 124.388,-119.343"/>
<text text-anchor="middle" x="250" y="-171" font-family="Helvetica,sans-Serif" font-size="10.00"> Range_Prompt</text>
<text text-anchor="middle" x="250" y="-160" font-family="Helvetica,sans-Serif" font-size="10.00">Cut_EMB_prob</text>
<text text-anchor="middle" x="250" y="-149" font-family="Helvetica,sans-Serif" font-size="10.00">Cut_MMAngle</text>
<text text-anchor="middle" x="250" y="-138" font-family="Helvetica,sans-Serif" font-size="10.00">Cut_MM</text>
<text text-anchor="middle" x="250" y="-127" font-family="Helvetica,sans-Serif" font-size="10.00">Cut_ProtonCopl</text>
</g>
<!-- Node3&#45;&gt;Node2 -->
<g id="edge2" class="edge"><title>Node3&#45;&gt;Node2</title>
<path fill="none" stroke="#9a32cd" stroke-dasharray="5,2" d="M124.175,-108.992C148.322,-105.705 175.24,-102.041 197.879,-98.9589"/>
<polygon fill="#9a32cd" stroke="#9a32cd" points="123.452,-105.558 114.016,-110.375 124.396,-112.494 123.452,-105.558"/>
<text text-anchor="middle" x="154" y="-111" font-family="Helvetica,sans-Serif" font-size="10.00"> elements</text>
</g>
<!-- Node4 -->
<g id="node4" class="node"><title>Node4</title>
<g id="a_node4"><a xlink:title="STL class. ">
<polygon fill="white" stroke="#bfbfbf" points="220,-38.5 220,-57.5 280,-57.5 280,-38.5 220,-38.5"/>
<text text-anchor="middle" x="250" y="-45.5" font-family="Helvetica,sans-Serif" font-size="10.00">std::string</text>
</a>
</g>
</g>
<!-- Node4&#45;&gt;Node1 -->
<g id="edge4" class="edge"><title>Node4&#45;&gt;Node1</title>
<path fill="none" stroke="#9a32cd" stroke-dasharray="5,2" d="M290.278,-52.3449C326.587,-56.3614 380.916,-62.3712 421.623,-66.8742"/>
<polygon fill="#9a32cd" stroke="#9a32cd" points="290.407,-48.8379 280.083,-51.2171 289.637,-55.7955 290.407,-48.8379"/>
<text text-anchor="middle" x="364" y="-68" font-family="Helvetica,sans-Serif" font-size="10.00"> Tree_Name</text>
</g>
<!-- Node5 -->
<g id="node5" class="node"><title>Node5</title>
<g id="a_node5"><a xlink:title="STL class. ">
<polygon fill="white" stroke="#bfbfbf" points="9.5,-33 9.5,-63 104.5,-63 104.5,-33 9.5,-33"/>
<text text-anchor="start" x="17.5" y="-51" font-family="Helvetica,sans-Serif" font-size="10.00">std::basic_string&lt;</text>
<text text-anchor="middle" x="57" y="-40" font-family="Helvetica,sans-Serif" font-size="10.00"> char &gt;</text>
</a>
</g>
</g>
<!-- Node5&#45;&gt;Node4 -->
<g id="edge5" class="edge"><title>Node5&#45;&gt;Node4</title>
<path fill="none" stroke="midnightblue" d="M115.158,-48C149.69,-48 192.242,-48 219.967,-48"/>
<polygon fill="midnightblue" stroke="midnightblue" points="114.724,-44.5001 104.724,-48 114.724,-51.5001 114.724,-44.5001"/>
</g>
<!-- Node6 -->
<g id="node6" class="node"><title>Node6</title>
<g id="a_node6"><a xlink:href="classant_1_1interval.html" target="_top" xlink:title="ant::interval\&lt; size_t \&gt;">
<polygon fill="white" stroke="black" points="194,-0.5 194,-19.5 306,-19.5 306,-0.5 194,-0.5"/>
<text text-anchor="middle" x="250" y="-7.5" font-family="Helvetica,sans-Serif" font-size="10.00">ant::interval&lt; size_t &gt;</text>
</a>
</g>
</g>
<!-- Node6&#45;&gt;Node1 -->
<g id="edge6" class="edge"><title>Node6&#45;&gt;Node1</title>
<path fill="none" stroke="#9a32cd" stroke-dasharray="5,2" d="M316.668,-13.4337C344.205,-16.2925 376.216,-21.5066 404,-31 422.679,-37.3822 441.958,-48.7131 456.01,-57.9984"/>
<polygon fill="#9a32cd" stroke="#9a32cd" points="316.638,-9.91504 306.351,-12.4493 315.973,-16.8834 316.638,-9.91504"/>
<text text-anchor="middle" x="364" y="-45" font-family="Helvetica,sans-Serif" font-size="10.00"> Cut_NCands</text>
<text text-anchor="middle" x="364" y="-34" font-family="Helvetica,sans-Serif" font-size="10.00">Cut_NNeutr</text>
</g>
</g>
</svg>
