<?xml version="1.0" encoding="UTF-8" standalone="no"?>
<!DOCTYPE svg PUBLIC "-//W3C//DTD SVG 1.1//EN"
 "http://www.w3.org/Graphics/SVG/1.1/DTD/svg11.dtd">
<!-- Generated by graphviz version 2.36.0 (20140111.2315)
 -->
<!-- Title: ant::analysis::physics::EtapOmegaG::Sig_t Pages: 1 -->
<svg width="2228pt" height="715pt"
 viewBox="0.00 0.00 2228.00 715.00" xmlns="http://www.w3.org/2000/svg" xmlns:xlink="http://www.w3.org/1999/xlink">
<g id="graph0" class="graph" transform="scale(1 1) rotate(0) translate(4 711)">
<title>ant::analysis::physics::EtapOmegaG::Sig_t</title>
<polygon fill="white" stroke="none" points="-4,4 -4,-711 2224,-711 2224,4 -4,4"/>
<!-- Node1 -->
<g id="node1" class="node"><title>Node1</title>
<polygon fill="#bfbfbf" stroke="black" points="2108,-297 2108,-327 2220,-327 2220,-297 2108,-297"/>
<text text-anchor="start" x="2116" y="-315" font-family="Helvetica,sans-Serif" font-size="10.00">ant::analysis::physics</text>
<text text-anchor="middle" x="2164" y="-304" font-family="Helvetica,sans-Serif" font-size="10.00">::EtapOmegaG::Sig_t</text>
</g>
<!-- Node2 -->
<g id="node2" class="node"><title>Node2</title>
<g id="a_node2"><a xlink:href="structant_1_1analysis_1_1physics_1_1_etap_omega_g_1_1_sig__t_1_1_pi0__t.html" target="_top" xlink:title="ant::analysis::physics\l::EtapOmegaG::Sig_t::Pi0_t">
<polygon fill="white" stroke="black" points="1815.5,-274 1815.5,-304 1954.5,-304 1954.5,-274 1815.5,-274"/>
<text text-anchor="start" x="1823.5" y="-292" font-family="Helvetica,sans-Serif" font-size="10.00">ant::analysis::physics</text>
<text text-anchor="middle" x="1885" y="-281" font-family="Helvetica,sans-Serif" font-size="10.00">::EtapOmegaG::Sig_t::Pi0_t</text>
</a>
</g>
</g>
<!-- Node2&#45;&gt;Node1 -->
<g id="edge1" class="edge"><title>Node2&#45;&gt;Node1</title>
<path fill="none" stroke="#9a32cd" stroke-dasharray="5,2" d="M1965.13,-289.817C2003.01,-290.89 2048.97,-293.186 2090,-298 2095.77,-298.677 2101.76,-299.548 2107.73,-300.525"/>
<polygon fill="#9a32cd" stroke="#9a32cd" points="1964.75,-286.306 1954.66,-289.545 1964.57,-293.304 1964.75,-286.306"/>
<text text-anchor="middle" x="2039" y="-301" font-family="Helvetica,sans-Serif" font-size="10.00"> Pi0</text>
</g>
<!-- Node3 -->
<g id="node3" class="node"><title>Node3</title>
<g id="a_node3"><a xlink:href="structant_1_1analysis_1_1physics_1_1_etap_omega_g_1_1_sig__t_1_1_fit__t.html" target="_top" xlink:title="ant::analysis::physics\l::EtapOmegaG::Sig_t::Fit_t">
<polygon fill="white" stroke="black" points="1541,-370 1541,-400 1677,-400 1677,-370 1541,-370"/>
<text text-anchor="start" x="1549" y="-388" font-family="Helvetica,sans-Serif" font-size="10.00">ant::analysis::physics</text>
<text text-anchor="middle" x="1609" y="-377" font-family="Helvetica,sans-Serif" font-size="10.00">::EtapOmegaG::Sig_t::Fit_t</text>
</a>
</g>
</g>
<!-- Node3&#45;&gt;Node2 -->
<g id="edge2" class="edge"><title>Node3&#45;&gt;Node2</title>
<path fill="none" stroke="midnightblue" d="M1687.49,-372.665C1725.64,-365.393 1766.68,-355.392 1782,-344 1794.78,-334.494 1787.43,-322.787 1800,-313 1804.67,-309.366 1809.86,-306.283 1815.32,-303.666"/>
<polygon fill="midnightblue" stroke="midnightblue" points="1686.55,-369.281 1677.36,-374.548 1687.83,-376.163 1686.55,-369.281"/>
</g>
<!-- Node42 -->
<g id="node42" class="node"><title>Node42</title>
<g id="a_node42"><a xlink:href="structant_1_1analysis_1_1physics_1_1_etap_omega_g_1_1_sig__t_1_1_omega_pi0__t.html" target="_top" xlink:title="ant::analysis::physics\l::EtapOmegaG::Sig_t::OmegaPi0_t">
<polygon fill="white" stroke="black" points="1800,-323 1800,-353 1970,-353 1970,-323 1800,-323"/>
<text text-anchor="start" x="1808" y="-341" font-family="Helvetica,sans-Serif" font-size="10.00">ant::analysis::physics</text>
<text text-anchor="middle" x="1885" y="-330" font-family="Helvetica,sans-Serif" font-size="10.00">::EtapOmegaG::Sig_t::OmegaPi0_t</text>
</a>
</g>
</g>
<!-- Node3&#45;&gt;Node42 -->
<g id="edge51" class="edge"><title>Node3&#45;&gt;Node42</title>
<path fill="none" stroke="midnightblue" d="M1687.38,-381.833C1717.16,-379.681 1751.36,-376.068 1782,-370 1802.39,-365.962 1824.46,-359.332 1842.84,-353.152"/>
<polygon fill="midnightblue" stroke="midnightblue" points="1686.78,-378.365 1677.04,-382.535 1687.26,-385.349 1686.78,-378.365"/>
</g>
<!-- Node4 -->
<g id="node4" class="node"><title>Node4</title>
<g id="a_node4"><a xlink:href="classant_1_1_tree.html" target="_top" xlink:title="ant::Tree\&lt; node_t \&gt;">
<polygon fill="white" stroke="black" points="1194.5,-326.5 1194.5,-345.5 1297.5,-345.5 1297.5,-326.5 1194.5,-326.5"/>
<text text-anchor="middle" x="1246" y="-333.5" font-family="Helvetica,sans-Serif" font-size="10.00">ant::Tree&lt; node_t &gt;</text>
</a>
</g>
</g>
<!-- Node4&#45;&gt;Node3 -->
<g id="edge3" class="edge"><title>Node4&#45;&gt;Node3</title>
<path fill="none" stroke="#9a32cd" stroke-dasharray="5,2" d="M1308.05,-330.183C1374.48,-324.908 1475.79,-320.253 1510,-337 1521.66,-342.708 1517.32,-352.619 1528,-360 1533.63,-363.889 1539.88,-367.192 1546.35,-369.994"/>
<polygon fill="#9a32cd" stroke="#9a32cd" points="1307.39,-326.726 1297.71,-331.032 1307.96,-333.703 1307.39,-326.726"/>
<text text-anchor="middle" x="1422" y="-406" font-family="Helvetica,sans-Serif" font-size="10.00"> fitted_g_EtaPrime</text>
<text text-anchor="middle" x="1422" y="-395" font-family="Helvetica,sans-Serif" font-size="10.00">fitted_EtaPrime</text>
<text text-anchor="middle" x="1422" y="-384" font-family="Helvetica,sans-Serif" font-size="10.00">fitted_Omega</text>
<text text-anchor="middle" x="1422" y="-373" font-family="Helvetica,sans-Serif" font-size="10.00">fitted_Pi0</text>
<text text-anchor="middle" x="1422" y="-362" font-family="Helvetica,sans-Serif" font-size="10.00">fitted_g_Omega</text>
<text text-anchor="middle" x="1422" y="-351" font-family="Helvetica,sans-Serif" font-size="10.00">fitted_g2_Pi0</text>
<text text-anchor="middle" x="1422" y="-340" font-family="Helvetica,sans-Serif" font-size="10.00">fitted_g1_Pi0</text>
</g>
<!-- Node5 -->
<g id="node5" class="node"><title>Node5</title>
<polygon fill="white" stroke="#bfbfbf" points="397,-330.5 397,-349.5 493,-349.5 493,-330.5 397,-330.5"/>
<text text-anchor="middle" x="445" y="-337.5" font-family="Helvetica,sans-Serif" font-size="10.00">std::list&lt; node_t &gt;</text>
</g>
<!-- Node5&#45;&gt;Node4 -->
<g id="edge4" class="edge"><title>Node5&#45;&gt;Node4</title>
<path fill="none" stroke="#9a32cd" stroke-dasharray="5,2" d="M503.312,-335.135C561.773,-330.433 655.128,-323.646 736,-321 903.882,-315.506 1102.94,-326.43 1194.43,-332.428"/>
<polygon fill="#9a32cd" stroke="#9a32cd" points="502.854,-331.66 493.17,-335.958 503.42,-338.637 502.854,-331.66"/>
<text text-anchor="middle" x="784" y="-324" font-family="Helvetica,sans-Serif" font-size="10.00"> daughters</text>
</g>
<!-- Node7 -->
<g id="node7" class="node"><title>Node7</title>
<g id="a_node7"><a xlink:href="classant_1_1_tree.html" target="_top" xlink:title="ant::Tree\&lt; T \&gt;">
<polygon fill="white" stroke="black" points="615,-373.5 615,-392.5 695,-392.5 695,-373.5 615,-373.5"/>
<text text-anchor="middle" x="655" y="-380.5" font-family="Helvetica,sans-Serif" font-size="10.00">ant::Tree&lt; T &gt;</text>
</a>
</g>
</g>
<!-- Node5&#45;&gt;Node7 -->
<g id="edge7" class="edge"><title>Node5&#45;&gt;Node7</title>
<path fill="none" stroke="#9a32cd" stroke-dasharray="5,2" d="M501.961,-351.569C537.684,-358.954 583.098,-368.342 614.953,-374.928"/>
<polygon fill="#9a32cd" stroke="#9a32cd" points="502.663,-348.14 492.162,-349.543 501.246,-354.995 502.663,-348.14"/>
<text text-anchor="middle" x="551" y="-369" font-family="Helvetica,sans-Serif" font-size="10.00"> daughters</text>
</g>
<!-- Node6 -->
<g id="node6" class="node"><title>Node6</title>
<polygon fill="white" stroke="#bfbfbf" points="881.5,-338.5 881.5,-357.5 994.5,-357.5 994.5,-338.5 881.5,-338.5"/>
<text text-anchor="middle" x="938" y="-345.5" font-family="Helvetica,sans-Serif" font-size="10.00">std::weak_ptr&lt; Tree &gt;</text>
</g>
<!-- Node6&#45;&gt;Node4 -->
<g id="edge5" class="edge"><title>Node6&#45;&gt;Node4</title>
<path fill="none" stroke="#9a32cd" stroke-dasharray="5,2" d="M1005.07,-345.409C1061.8,-343.184 1142.39,-340.024 1194.19,-337.993"/>
<polygon fill="#9a32cd" stroke="#9a32cd" points="1004.62,-341.924 994.769,-345.813 1004.9,-348.918 1004.62,-341.924"/>
<text text-anchor="middle" x="1101" y="-358" font-family="Helvetica,sans-Serif" font-size="10.00"> parent</text>
<text text-anchor="middle" x="1101" y="-347" font-family="Helvetica,sans-Serif" font-size="10.00">self</text>
</g>
<!-- Node6&#45;&gt;Node7 -->
<g id="edge8" class="edge"><title>Node6&#45;&gt;Node7</title>
<path fill="none" stroke="#9a32cd" stroke-dasharray="5,2" d="M871.106,-337.997C831.44,-334.03 780.222,-332.561 736,-343 711.215,-348.851 685.354,-363.621 669.967,-373.482"/>
<polygon fill="#9a32cd" stroke="#9a32cd" points="870.873,-341.492 881.19,-339.084 871.623,-334.532 870.873,-341.492"/>
<text text-anchor="middle" x="784" y="-357" font-family="Helvetica,sans-Serif" font-size="10.00"> parent</text>
<text text-anchor="middle" x="784" y="-346" font-family="Helvetica,sans-Serif" font-size="10.00">self</text>
</g>
<!-- Node7&#45;&gt;Node6 -->
<g id="edge6" class="edge"><title>Node7&#45;&gt;Node6</title>
<path fill="none" stroke="#9a32cd" stroke-dasharray="5,2" d="M705.357,-380.635C740.731,-378.56 789.448,-374.927 832,-369 852.99,-366.077 876.108,-361.592 895.296,-357.517"/>
<polygon fill="#9a32cd" stroke="#9a32cd" points="705.076,-377.145 695.29,-381.205 705.472,-384.134 705.076,-377.145"/>
<text text-anchor="middle" x="784" y="-382" font-family="Helvetica,sans-Serif" font-size="10.00"> ptr</text>
</g>
<!-- Node8 -->
<g id="node8" class="node"><title>Node8</title>
<polygon fill="white" stroke="#bfbfbf" points="430.5,-387.5 430.5,-406.5 459.5,-406.5 459.5,-387.5 430.5,-387.5"/>
<text text-anchor="middle" x="445" y="-394.5" font-family="Helvetica,sans-Serif" font-size="10.00">T</text>
</g>
<!-- Node8&#45;&gt;Node7 -->
<g id="edge9" class="edge"><title>Node8&#45;&gt;Node7</title>
<path fill="none" stroke="#9a32cd" stroke-dasharray="5,2" d="M470,-395.385C505.502,-392.995 572.395,-388.493 614.999,-385.625"/>
<polygon fill="#9a32cd" stroke="#9a32cd" points="469.39,-391.918 459.647,-396.081 469.86,-398.902 469.39,-391.918"/>
<text text-anchor="middle" x="551" y="-395" font-family="Helvetica,sans-Serif" font-size="10.00"> data</text>
</g>
<!-- Node24 -->
<g id="node24" class="node"><title>Node24</title>
<g id="a_node24"><a xlink:title="STL class. ">
<polygon fill="white" stroke="#bfbfbf" points="611.5,-423.5 611.5,-442.5 698.5,-442.5 698.5,-423.5 611.5,-423.5"/>
<text text-anchor="middle" x="655" y="-430.5" font-family="Helvetica,sans-Serif" font-size="10.00">std::vector&lt; T &gt;</text>
</a>
</g>
</g>
<!-- Node8&#45;&gt;Node24 -->
<g id="edge26" class="edge"><title>Node8&#45;&gt;Node24</title>
<path fill="none" stroke="#9a32cd" stroke-dasharray="5,2" d="M469.699,-401.102C504.099,-407.056 568.418,-418.188 611.233,-425.598"/>
<polygon fill="#9a32cd" stroke="#9a32cd" points="470.098,-397.619 459.647,-399.362 468.904,-404.516 470.098,-397.619"/>
<text text-anchor="middle" x="551" y="-422" font-family="Helvetica,sans-Serif" font-size="10.00"> elements</text>
</g>
<!-- Node9 -->
<g id="node9" class="node"><title>Node9</title>
<g id="a_node9"><a xlink:href="classant_1_1analysis_1_1utils_1_1_tree_fitter.html" target="_top" xlink:title="ant::analysis::utils\l::TreeFitter">
<polygon fill="white" stroke="black" points="1198,-447 1198,-477 1294,-477 1294,-447 1198,-447"/>
<text text-anchor="start" x="1206" y="-465" font-family="Helvetica,sans-Serif" font-size="10.00">ant::analysis::utils</text>
<text text-anchor="middle" x="1246" y="-454" font-family="Helvetica,sans-Serif" font-size="10.00">::TreeFitter</text>
</a>
</g>
</g>
<!-- Node9&#45;&gt;Node1 -->
<g id="edge46" class="edge"><title>Node9&#45;&gt;Node1</title>
<path fill="none" stroke="#9a32cd" stroke-dasharray="5,2" d="M1304.47,-460.994C1357.87,-459.573 1439.53,-456.162 1510,-448 1770.15,-417.87 1839.45,-420.211 2090,-344 2104.56,-339.57 2120.09,-333.039 2133.06,-327.031"/>
<polygon fill="#9a32cd" stroke="#9a32cd" points="1304.09,-457.502 1294.18,-461.252 1304.27,-464.5 1304.09,-457.502"/>
<text text-anchor="middle" x="1745" y="-440" font-family="Helvetica,sans-Serif" font-size="10.00"> treefitter_Pi0Eta</text>
<text text-anchor="middle" x="1745" y="-429" font-family="Helvetica,sans-Serif" font-size="10.00">treefitter_Pi0Pi0</text>
</g>
<!-- Node9&#45;&gt;Node3 -->
<g id="edge10" class="edge"><title>Node9&#45;&gt;Node3</title>
<path fill="none" stroke="#9a32cd" stroke-dasharray="5,2" d="M1303.91,-444.327C1313.87,-441.612 1324.19,-439.038 1334,-437 1411.24,-420.95 1432.83,-430.354 1510,-414 1527.36,-410.322 1546.11,-405.092 1562.52,-400.084"/>
<polygon fill="#9a32cd" stroke="#9a32cd" points="1302.77,-441.009 1294.09,-447.076 1304.66,-447.75 1302.77,-441.009"/>
<text text-anchor="middle" x="1422" y="-440" font-family="Helvetica,sans-Serif" font-size="10.00"> treefitter</text>
</g>
<!-- Node10 -->
<g id="node10" class="node"><title>Node10</title>
<g id="a_node10"><a xlink:href="classant_1_1analysis_1_1utils_1_1_kin_fitter.html" target="_top" xlink:title="ant::analysis::utils\l::KinFitter">
<polygon fill="white" stroke="black" points="890,-589 890,-619 986,-619 986,-589 890,-589"/>
<text text-anchor="start" x="898" y="-607" font-family="Helvetica,sans-Serif" font-size="10.00">ant::analysis::utils</text>
<text text-anchor="middle" x="938" y="-596" font-family="Helvetica,sans-Serif" font-size="10.00">::KinFitter</text>
</a>
</g>
</g>
<!-- Node10&#45;&gt;Node1 -->
<g id="edge47" class="edge"><title>Node10&#45;&gt;Node1</title>
<path fill="none" stroke="#9a32cd" stroke-dasharray="5,2" d="M996.451,-604C1057.95,-604 1158.37,-604 1245,-604 1245,-604 1245,-604 1886,-604 2040.08,-604 2134.23,-387.369 2157.39,-327.288"/>
<polygon fill="#9a32cd" stroke="#9a32cd" points="996.179,-600.5 986.179,-604 996.179,-607.5 996.179,-600.5"/>
<text text-anchor="middle" x="1609" y="-607" font-family="Helvetica,sans-Serif" font-size="10.00"> kinfitter</text>
</g>
<!-- Node10&#45;&gt;Node9 -->
<g id="edge11" class="edge"><title>Node10&#45;&gt;Node9</title>
<path fill="none" stroke="midnightblue" d="M996.452,-600.076C1042.67,-594.833 1107.94,-582.589 1158,-554 1191.98,-534.595 1220.77,-497.697 1235.16,-477.013"/>
<polygon fill="midnightblue" stroke="midnightblue" points="995.882,-596.617 986.306,-601.149 996.619,-603.578 995.882,-596.617"/>
</g>
<!-- Node11 -->
<g id="node11" class="node"><title>Node11</title>
<g id="a_node11"><a xlink:href="classant_1_1analysis_1_1utils_1_1_fitter.html" target="_top" xlink:title="ant::analysis::utils\l::Fitter">
<polygon fill="white" stroke="black" points="607,-638 607,-668 703,-668 703,-638 607,-638"/>
<text text-anchor="start" x="615" y="-656" font-family="Helvetica,sans-Serif" font-size="10.00">ant::analysis::utils</text>
<text text-anchor="middle" x="655" y="-645" font-family="Helvetica,sans-Serif" font-size="10.00">::Fitter</text>
</a>
</g>
</g>
<!-- Node11&#45;&gt;Node10 -->
<g id="edge12" class="edge"><title>Node11&#45;&gt;Node10</title>
<path fill="none" stroke="midnightblue" d="M713.108,-643.042C765.155,-633.966 841.127,-620.718 889.813,-612.228"/>
<polygon fill="midnightblue" stroke="midnightblue" points="712.283,-639.633 703.033,-644.799 713.486,-646.529 712.283,-639.633"/>
</g>
<!-- Node12 -->
<g id="node12" class="node"><title>Node12</title>
<g id="a_node12"><a xlink:href="structant_1_1analysis_1_1utils_1_1_kin_fitter_1_1_target__t.html" target="_top" xlink:title="ant::analysis::utils\l::KinFitter::Target_t">
<polygon fill="white" stroke="black" points="604.5,-540 604.5,-570 705.5,-570 705.5,-540 604.5,-540"/>
<text text-anchor="start" x="612.5" y="-558" font-family="Helvetica,sans-Serif" font-size="10.00">ant::analysis::utils</text>
<text text-anchor="middle" x="655" y="-547" font-family="Helvetica,sans-Serif" font-size="10.00">::KinFitter::Target_t</text>
</a>
</g>
</g>
<!-- Node12&#45;&gt;Node10 -->
<g id="edge13" class="edge"><title>Node12&#45;&gt;Node10</title>
<path fill="none" stroke="#9a32cd" stroke-dasharray="5,2" d="M715.666,-565.404C767.605,-574.461 841.88,-587.413 889.776,-595.765"/>
<polygon fill="#9a32cd" stroke="#9a32cd" points="716.043,-561.917 705.59,-563.647 714.84,-568.813 716.043,-561.917"/>
<text text-anchor="middle" x="784" y="-588" font-family="Helvetica,sans-Serif" font-size="10.00"> Target</text>
</g>
<!-- Node13 -->
<g id="node13" class="node"><title>Node13</title>
<g id="a_node13"><a xlink:href="structant_1_1analysis_1_1utils_1_1_kin_fitter_1_1_beam_e__t.html" target="_top" xlink:title="ant::analysis::utils\l::KinFitter::BeamE_t">
<polygon fill="white" stroke="black" points="602,-589 602,-619 708,-619 708,-589 602,-589"/>
<text text-anchor="start" x="610" y="-607" font-family="Helvetica,sans-Serif" font-size="10.00">ant::analysis::utils</text>
<text text-anchor="middle" x="655" y="-596" font-family="Helvetica,sans-Serif" font-size="10.00">::KinFitter::BeamE_t</text>
</a>
</g>
</g>
<!-- Node13&#45;&gt;Node10 -->
<g id="edge14" class="edge"><title>Node13&#45;&gt;Node10</title>
<path fill="none" stroke="#9a32cd" stroke-dasharray="5,2" d="M718.262,-604C770.049,-604 842.655,-604 889.759,-604"/>
<polygon fill="#9a32cd" stroke="#9a32cd" points="718.195,-600.5 708.195,-604 718.195,-607.5 718.195,-600.5"/>
<text text-anchor="middle" x="784" y="-607" font-family="Helvetica,sans-Serif" font-size="10.00"> BeamE</text>
</g>
<!-- Node14 -->
<g id="node14" class="node"><title>Node14</title>
<polygon fill="white" stroke="#bfbfbf" points="417,-594.5 417,-613.5 473,-613.5 473,-594.5 417,-594.5"/>
<text text-anchor="middle" x="445" y="-601.5" font-family="Helvetica,sans-Serif" font-size="10.00">V_S_P_t</text>
</g>
<!-- Node14&#45;&gt;Node13 -->
<g id="edge15" class="edge"><title>Node14&#45;&gt;Node13</title>
<path fill="none" stroke="midnightblue" d="M483.321,-604C516.299,-604 564.741,-604 601.601,-604"/>
<polygon fill="midnightblue" stroke="midnightblue" points="483.192,-600.5 473.192,-604 483.192,-607.5 483.192,-600.5"/>
</g>
<!-- Node15 -->
<g id="node15" class="node"><title>Node15</title>
<polygon fill="white" stroke="#bfbfbf" points="592.5,-687.5 592.5,-706.5 717.5,-706.5 717.5,-687.5 592.5,-687.5"/>
<text text-anchor="middle" x="655" y="-694.5" font-family="Helvetica,sans-Serif" font-size="10.00">std::vector&lt; FitParticle &gt;</text>
</g>
<!-- Node15&#45;&gt;Node10 -->
<g id="edge16" class="edge"><title>Node15&#45;&gt;Node10</title>
<path fill="none" stroke="#9a32cd" stroke-dasharray="5,2" d="M699.947,-684.711C735.72,-674.482 787.408,-659.186 832,-644 854.528,-636.328 879.431,-626.884 899.329,-619.099"/>
<polygon fill="#9a32cd" stroke="#9a32cd" points="698.959,-681.353 690.299,-687.458 700.875,-688.086 698.959,-681.353"/>
<text text-anchor="middle" x="784" y="-677" font-family="Helvetica,sans-Serif" font-size="10.00"> Photons</text>
</g>
<!-- Node16 -->
<g id="node16" class="node"><title>Node16</title>
<polygon fill="white" stroke="#bfbfbf" points="885,-414.5 885,-433.5 991,-433.5 991,-414.5 885,-414.5"/>
<text text-anchor="middle" x="938" y="-421.5" font-family="Helvetica,sans-Serif" font-size="10.00">std::vector&lt; tree_t &gt;</text>
</g>
<!-- Node16&#45;&gt;Node9 -->
<g id="edge17" class="edge"><title>Node16&#45;&gt;Node9</title>
<path fill="none" stroke="#9a32cd" stroke-dasharray="5,2" d="M1001.56,-429.463C1045.44,-433.564 1105.41,-439.713 1158,-447 1170.9,-448.788 1184.83,-451.042 1197.68,-453.256"/>
<polygon fill="#9a32cd" stroke="#9a32cd" points="1001.61,-425.952 991.332,-428.516 1000.97,-432.923 1001.61,-425.952"/>
<text text-anchor="middle" x="1101" y="-450" font-family="Helvetica,sans-Serif" font-size="10.00"> tree_leaves</text>
</g>
<!-- Node17 -->
<g id="node17" class="node"><title>Node17</title>
<polygon fill="white" stroke="#bfbfbf" points="865,-491 865,-521 1011,-521 1011,-491 865,-491"/>
<text text-anchor="start" x="873" y="-509" font-family="Helvetica,sans-Serif" font-size="10.00">std::list&lt; ant::analysis</text>
<text text-anchor="middle" x="938" y="-498" font-family="Helvetica,sans-Serif" font-size="10.00">::utils::TreeFitter::iteration_t &gt;</text>
</g>
<!-- Node17&#45;&gt;Node9 -->
<g id="edge18" class="edge"><title>Node17&#45;&gt;Node9</title>
<path fill="none" stroke="#9a32cd" stroke-dasharray="5,2" d="M1021.08,-495.902C1062.24,-490.644 1112.82,-483.884 1158,-477 1170.88,-475.038 1184.8,-472.725 1197.64,-470.511"/>
<polygon fill="#9a32cd" stroke="#9a32cd" points="1020.58,-492.438 1011.1,-497.172 1021.47,-499.382 1020.58,-492.438"/>
<text text-anchor="middle" x="1101" y="-496" font-family="Helvetica,sans-Serif" font-size="10.00"> iterations</text>
</g>
<!-- Node18 -->
<g id="node18" class="node"><title>Node18</title>
<g id="a_node18"><a xlink:href="structant_1_1analysis_1_1utils_1_1_tree_fitter_1_1iteration__t.html" target="_top" xlink:title="ant::analysis::utils\l::TreeFitter::iteration_t">
<polygon fill="white" stroke="black" points="598.5,-491 598.5,-521 711.5,-521 711.5,-491 598.5,-491"/>
<text text-anchor="start" x="606.5" y="-509" font-family="Helvetica,sans-Serif" font-size="10.00">ant::analysis::utils</text>
<text text-anchor="middle" x="655" y="-498" font-family="Helvetica,sans-Serif" font-size="10.00">::TreeFitter::iteration_t</text>
</a>
</g>
</g>
<!-- Node18&#45;&gt;Node17 -->
<g id="edge19" class="edge"><title>Node18&#45;&gt;Node17</title>
<path fill="none" stroke="#9a32cd" stroke-dasharray="5,2" d="M721.572,-506C764.495,-506 820.604,-506 864.8,-506"/>
<polygon fill="#9a32cd" stroke="#9a32cd" points="721.517,-502.5 711.517,-506 721.517,-509.5 721.517,-502.5"/>
<text text-anchor="middle" x="784" y="-509" font-family="Helvetica,sans-Serif" font-size="10.00"> elements</text>
</g>
<!-- Node19 -->
<g id="node19" class="node"><title>Node19</title>
<polygon fill="white" stroke="#bfbfbf" points="380.5,-485.5 380.5,-526.5 509.5,-526.5 509.5,-485.5 380.5,-485.5"/>
<text text-anchor="start" x="388.5" y="-514.5" font-family="Helvetica,sans-Serif" font-size="10.00">std::vector&lt; ant::analysis</text>
<text text-anchor="start" x="388.5" y="-503.5" font-family="Helvetica,sans-Serif" font-size="10.00">::utils::TreeFitter::iteration</text>
<text text-anchor="middle" x="445" y="-492.5" font-family="Helvetica,sans-Serif" font-size="10.00">_t::photon_t &gt;</text>
</g>
<!-- Node19&#45;&gt;Node18 -->
<g id="edge20" class="edge"><title>Node19&#45;&gt;Node18</title>
<path fill="none" stroke="#9a32cd" stroke-dasharray="5,2" d="M519.67,-506C545.52,-506 574.111,-506 598.247,-506"/>
<polygon fill="#9a32cd" stroke="#9a32cd" points="519.537,-502.5 509.537,-506 519.537,-509.5 519.537,-502.5"/>
<text text-anchor="middle" x="551" y="-509" font-family="Helvetica,sans-Serif" font-size="10.00"> Photons</text>
</g>
<!-- Node20 -->
<g id="node20" class="node"><title>Node20</title>
<g id="a_node20"><a xlink:href="structant_1_1analysis_1_1utils_1_1_tree_fitter_1_1iteration__t_1_1photon__t.html" target="_top" xlink:title="ant::analysis::utils\l::TreeFitter::iteration\l_t::photon_t">
<polygon fill="white" stroke="black" points="194.5,-485.5 194.5,-526.5 299.5,-526.5 299.5,-485.5 194.5,-485.5"/>
<text text-anchor="start" x="202.5" y="-514.5" font-family="Helvetica,sans-Serif" font-size="10.00">ant::analysis::utils</text>
<text text-anchor="start" x="202.5" y="-503.5" font-family="Helvetica,sans-Serif" font-size="10.00">::TreeFitter::iteration</text>
<text text-anchor="middle" x="247" y="-492.5" font-family="Helvetica,sans-Serif" font-size="10.00">_t::photon_t</text>
</a>
</g>
</g>
<!-- Node20&#45;&gt;Node19 -->
<g id="edge21" class="edge"><title>Node20&#45;&gt;Node19</title>
<path fill="none" stroke="#9a32cd" stroke-dasharray="5,2" d="M309.853,-506C332.333,-506 357.764,-506 380.393,-506"/>
<polygon fill="#9a32cd" stroke="#9a32cd" points="309.753,-502.5 299.753,-506 309.753,-509.5 309.753,-502.5"/>
<text text-anchor="middle" x="340" y="-509" font-family="Helvetica,sans-Serif" font-size="10.00"> elements</text>
</g>
<!-- Node21 -->
<g id="node21" class="node"><title>Node21</title>
<g id="a_node21"><a xlink:href="structant_1_1std__ext_1_1cc__shared__ptr.html" target="_top" xlink:title="ant::std_ext::cc_shared\l_ptr\&lt; TParticle \&gt;">
<polygon fill="white" stroke="black" points="0.5,-491 0.5,-521 119.5,-521 119.5,-491 0.5,-491"/>
<text text-anchor="start" x="8.5" y="-509" font-family="Helvetica,sans-Serif" font-size="10.00">ant::std_ext::cc_shared</text>
<text text-anchor="middle" x="60" y="-498" font-family="Helvetica,sans-Serif" font-size="10.00">_ptr&lt; TParticle &gt;</text>
</a>
</g>
</g>
<!-- Node21&#45;&gt;Node20 -->
<g id="edge22" class="edge"><title>Node21&#45;&gt;Node20</title>
<path fill="none" stroke="#9a32cd" stroke-dasharray="5,2" d="M129.57,-506C151.026,-506 174.326,-506 194.406,-506"/>
<polygon fill="#9a32cd" stroke="#9a32cd" points="129.535,-502.5 119.535,-506 129.535,-509.5 129.535,-502.5"/>
<text text-anchor="middle" x="157" y="-509" font-family="Helvetica,sans-Serif" font-size="10.00"> Particle</text>
</g>
<!-- Node22 -->
<g id="node22" class="node"><title>Node22</title>
<polygon fill="white" stroke="#bfbfbf" points="875,-540 875,-570 1001,-570 1001,-540 875,-540"/>
<text text-anchor="start" x="883" y="-558" font-family="Helvetica,sans-Serif" font-size="10.00">std::vector&lt; std::function</text>
<text text-anchor="middle" x="938" y="-547" font-family="Helvetica,sans-Serif" font-size="10.00">&lt; void()&gt; &gt;</text>
</g>
<!-- Node22&#45;&gt;Node9 -->
<g id="edge23" class="edge"><title>Node22&#45;&gt;Node9</title>
<path fill="none" stroke="#9a32cd" stroke-dasharray="5,2" d="M1011.06,-544.67C1054.46,-537.195 1110.37,-525.328 1158,-508 1180.16,-499.94 1203.71,-487.202 1220.71,-477.173"/>
<polygon fill="#9a32cd" stroke="#9a32cd" points="1010.44,-541.226 1001.16,-546.337 1011.6,-548.128 1010.44,-541.226"/>
<text text-anchor="middle" x="1101" y="-542" font-family="Helvetica,sans-Serif" font-size="10.00"> sum_daughters</text>
</g>
<!-- Node23 -->
<g id="node23" class="node"><title>Node23</title>
<polygon fill="white" stroke="#bfbfbf" points="868,-452.5 868,-471.5 1008,-471.5 1008,-452.5 868,-452.5"/>
<text text-anchor="middle" x="938" y="-459.5" font-family="Helvetica,sans-Serif" font-size="10.00">std::vector&lt; permutation_t &gt;</text>
</g>
<!-- Node23&#45;&gt;Node9 -->
<g id="edge24" class="edge"><title>Node23&#45;&gt;Node9</title>
<path fill="none" stroke="#9a32cd" stroke-dasharray="5,2" d="M1018.09,-462C1074.95,-462 1149.73,-462 1197.59,-462"/>
<polygon fill="#9a32cd" stroke="#9a32cd" points="1018.05,-458.5 1008.05,-462 1018.05,-465.5 1018.05,-458.5"/>
<text text-anchor="middle" x="1101" y="-465" font-family="Helvetica,sans-Serif" font-size="10.00"> permutations</text>
</g>
<!-- Node24&#45;&gt;Node23 -->
<g id="edge25" class="edge"><title>Node24&#45;&gt;Node23</title>
<path fill="none" stroke="#9a32cd" stroke-dasharray="5,2" d="M708.812,-438.45C753.806,-443.094 818.791,-449.801 867.912,-454.87"/>
<polygon fill="#9a32cd" stroke="#9a32cd" points="708.984,-434.95 698.678,-437.404 708.266,-441.913 708.984,-434.95"/>
<text text-anchor="middle" x="784" y="-454" font-family="Helvetica,sans-Serif" font-size="10.00"> elements</text>
</g>
<!-- Node25 -->
<g id="node25" class="node"><title>Node25</title>
<polygon fill="white" stroke="#bfbfbf" points="859,-376.5 859,-395.5 1017,-395.5 1017,-376.5 859,-376.5"/>
<text text-anchor="middle" x="938" y="-383.5" font-family="Helvetica,sans-Serif" font-size="10.00">std::vector&lt; node_constraint_t &gt;</text>
</g>
<!-- Node25&#45;&gt;Node9 -->
<g id="edge27" class="edge"><title>Node25&#45;&gt;Node9</title>
<path fill="none" stroke="#9a32cd" stroke-dasharray="5,2" d="M1027.22,-393.005C1067.72,-397.81 1115.98,-405.804 1158,-419 1179.7,-425.815 1202.71,-437.4 1219.61,-446.829"/>
<polygon fill="#9a32cd" stroke="#9a32cd" points="1027.43,-389.506 1017.09,-391.851 1026.63,-396.461 1027.43,-389.506"/>
<text text-anchor="middle" x="1101" y="-422" font-family="Helvetica,sans-Serif" font-size="10.00"> node_constraints</text>
</g>
<!-- Node26 -->
<g id="node26" class="node"><title>Node26</title>
<g id="a_node26"><a xlink:href="structant_1_1analysis_1_1physics_1_1_etap_omega_g_1_1_sig__t_1_1_pi0__t_1_1_tree__t.html" target="_top" xlink:title="ant::analysis::physics\l::EtapOmegaG::Sig_t::Pi0\l_t::Tree_t">
<polygon fill="white" stroke="black" points="1543.5,-250.5 1543.5,-291.5 1674.5,-291.5 1674.5,-250.5 1543.5,-250.5"/>
<text text-anchor="start" x="1551.5" y="-279.5" font-family="Helvetica,sans-Serif" font-size="10.00">ant::analysis::physics</text>
<text text-anchor="start" x="1551.5" y="-268.5" font-family="Helvetica,sans-Serif" font-size="10.00">::EtapOmegaG::Sig_t::Pi0</text>
<text text-anchor="middle" x="1609" y="-257.5" font-family="Helvetica,sans-Serif" font-size="10.00">_t::Tree_t</text>
</a>
</g>
</g>
<!-- Node26&#45;&gt;Node2 -->
<g id="edge28" class="edge"><title>Node26&#45;&gt;Node2</title>
<path fill="none" stroke="#9a32cd" stroke-dasharray="5,2" d="M1684.71,-275.908C1725.37,-278.579 1775.33,-281.861 1815.06,-284.471"/>
<polygon fill="#9a32cd" stroke="#9a32cd" points="1684.8,-272.406 1674.59,-275.243 1684.34,-279.391 1684.8,-272.406"/>
<text text-anchor="middle" x="1745" y="-286" font-family="Helvetica,sans-Serif" font-size="10.00"> t</text>
</g>
<!-- Node27 -->
<g id="node27" class="node"><title>Node27</title>
<g id="a_node27"><a xlink:href="structant_1_1analysis_1_1physics_1_1_etap_omega_g_1_1_sig__t_1_1_fit__t_1_1_base_tree__t.html" target="_top" xlink:title="ant::analysis::physics\l::EtapOmegaG::Sig_t::Fit\l_t::BaseTree_t">
<polygon fill="white" stroke="black" points="1182,-250.5 1182,-291.5 1310,-291.5 1310,-250.5 1182,-250.5"/>
<text text-anchor="start" x="1190" y="-279.5" font-family="Helvetica,sans-Serif" font-size="10.00">ant::analysis::physics</text>
<text text-anchor="start" x="1190" y="-268.5" font-family="Helvetica,sans-Serif" font-size="10.00">::EtapOmegaG::Sig_t::Fit</text>
<text text-anchor="middle" x="1246" y="-257.5" font-family="Helvetica,sans-Serif" font-size="10.00">_t::BaseTree_t</text>
</a>
</g>
</g>
<!-- Node27&#45;&gt;Node26 -->
<g id="edge29" class="edge"><title>Node27&#45;&gt;Node26</title>
<path fill="none" stroke="midnightblue" d="M1320.53,-271C1385.94,-271 1480.66,-271 1543.26,-271"/>
<polygon fill="midnightblue" stroke="midnightblue" points="1320.29,-267.5 1310.29,-271 1320.29,-274.5 1320.29,-267.5"/>
</g>
<!-- Node43 -->
<g id="node43" class="node"><title>Node43</title>
<g id="a_node43"><a xlink:href="structant_1_1analysis_1_1physics_1_1_etap_omega_g_1_1_sig__t_1_1_omega_pi0__t_1_1_tree__t.html" target="_top" xlink:title="ant::analysis::physics\l::EtapOmegaG::Sig_t::OmegaPi0\l_t::Tree_t">
<polygon fill="white" stroke="black" points="1528,-310.5 1528,-351.5 1690,-351.5 1690,-310.5 1528,-310.5"/>
<text text-anchor="start" x="1536" y="-339.5" font-family="Helvetica,sans-Serif" font-size="10.00">ant::analysis::physics</text>
<text text-anchor="start" x="1536" y="-328.5" font-family="Helvetica,sans-Serif" font-size="10.00">::EtapOmegaG::Sig_t::OmegaPi0</text>
<text text-anchor="middle" x="1609" y="-317.5" font-family="Helvetica,sans-Serif" font-size="10.00">_t::Tree_t</text>
</a>
</g>
</g>
<!-- Node27&#45;&gt;Node43 -->
<g id="edge53" class="edge"><title>Node27&#45;&gt;Node43</title>
<path fill="none" stroke="midnightblue" d="M1320.48,-283.213C1380.67,-293.217 1465.71,-307.351 1527.69,-317.652"/>
<polygon fill="midnightblue" stroke="midnightblue" points="1320.73,-279.707 1310.29,-281.52 1319.59,-286.612 1320.73,-279.707"/>
</g>
<!-- Node28 -->
<g id="node28" class="node"><title>Node28</title>
<g id="a_node28"><a xlink:href="structant_1_1analysis_1_1physics_1_1_etap_omega_g_1_1_proton_photon_tree__t.html" target="_top" xlink:title="ant::analysis::physics\l::EtapOmegaG::ProtonPhotonTree_t">
<polygon fill="white" stroke="black" points="850.5,-251 850.5,-281 1025.5,-281 1025.5,-251 850.5,-251"/>
<text text-anchor="start" x="858.5" y="-269" font-family="Helvetica,sans-Serif" font-size="10.00">ant::analysis::physics</text>
<text text-anchor="middle" x="938" y="-258" font-family="Helvetica,sans-Serif" font-size="10.00">::EtapOmegaG::ProtonPhotonTree_t</text>
</a>
</g>
</g>
<!-- Node28&#45;&gt;Node27 -->
<g id="edge30" class="edge"><title>Node28&#45;&gt;Node27</title>
<path fill="none" stroke="midnightblue" d="M1035.9,-267.583C1083.57,-268.362 1139.67,-269.279 1181.75,-269.967"/>
<polygon fill="midnightblue" stroke="midnightblue" points="1035.92,-264.083 1025.87,-267.419 1035.81,-271.082 1035.92,-264.083"/>
</g>
<!-- Node29 -->
<g id="node29" class="node"><title>Node29</title>
<g id="a_node29"><a xlink:href="classant_1_1_wrap_t_tree.html" target="_top" xlink:title="The WrapTTree struct simplifies TTree handling in physics classes. ">
<polygon fill="white" stroke="black" points="612.5,-212.5 612.5,-231.5 697.5,-231.5 697.5,-212.5 612.5,-212.5"/>
<text text-anchor="middle" x="655" y="-219.5" font-family="Helvetica,sans-Serif" font-size="10.00">ant::WrapTTree</text>
</a>
</g>
</g>
<!-- Node29&#45;&gt;Node28 -->
<g id="edge31" class="edge"><title>Node29&#45;&gt;Node28</title>
<path fill="none" stroke="midnightblue" d="M707.884,-231.275C717.237,-232.891 726.903,-234.525 736,-236 773.44,-242.069 814.879,-248.331 850.357,-253.554"/>
<polygon fill="midnightblue" stroke="midnightblue" points="708.353,-227.804 697.901,-229.537 707.153,-234.7 708.353,-227.804"/>
</g>
<!-- Node31 -->
<g id="node31" class="node"><title>Node31</title>
<g id="a_node31"><a xlink:href="structant_1_1analysis_1_1utils_1_1_m_c_weighting_1_1tree__t.html" target="_top" xlink:title="ant::analysis::utils\l::MCWeighting::tree_t">
<polygon fill="white" stroke="black" points="1044.5,-169 1044.5,-199 1157.5,-199 1157.5,-169 1044.5,-169"/>
<text text-anchor="start" x="1052.5" y="-187" font-family="Helvetica,sans-Serif" font-size="10.00">ant::analysis::utils</text>
<text text-anchor="middle" x="1101" y="-176" font-family="Helvetica,sans-Serif" font-size="10.00">::MCWeighting::tree_t</text>
</a>
</g>
</g>
<!-- Node29&#45;&gt;Node31 -->
<g id="edge34" class="edge"><title>Node29&#45;&gt;Node31</title>
<path fill="none" stroke="midnightblue" d="M707.796,-212.1C717.158,-210.549 726.85,-209.099 736,-208 844.782,-194.934 972.77,-188.567 1044.33,-185.812"/>
<polygon fill="midnightblue" stroke="midnightblue" points="707.075,-208.673 697.809,-213.81 708.256,-215.572 707.075,-208.673"/>
</g>
<!-- Node41 -->
<g id="node41" class="node"><title>Node41</title>
<g id="a_node41"><a xlink:href="structant_1_1analysis_1_1physics_1_1_etap_omega_g_1_1_sig__t_1_1_shared_tree__t.html" target="_top" xlink:title="ant::analysis::physics\l::EtapOmegaG::Sig_t::SharedTree_t">
<polygon fill="white" stroke="black" points="1334.5,-207 1334.5,-237 1509.5,-237 1509.5,-207 1334.5,-207"/>
<text text-anchor="start" x="1342.5" y="-225" font-family="Helvetica,sans-Serif" font-size="10.00">ant::analysis::physics</text>
<text text-anchor="middle" x="1422" y="-214" font-family="Helvetica,sans-Serif" font-size="10.00">::EtapOmegaG::Sig_t::SharedTree_t</text>
</a>
</g>
</g>
<!-- Node29&#45;&gt;Node41 -->
<g id="edge49" class="edge"><title>Node29&#45;&gt;Node41</title>
<path fill="none" stroke="midnightblue" d="M707.692,-222C836.744,-222 1174.18,-222 1334.29,-222"/>
<polygon fill="midnightblue" stroke="midnightblue" points="707.673,-218.5 697.673,-222 707.673,-225.5 707.673,-218.5"/>
</g>
<!-- Node30 -->
<g id="node30" class="node"><title>Node30</title>
<g id="a_node30"><a xlink:href="classant_1_1analysis_1_1utils_1_1_m_c_weighting.html" target="_top" xlink:title="ant::analysis::utils\l::MCWeighting">
<polygon fill="white" stroke="black" points="1837,-131 1837,-161 1933,-161 1933,-131 1837,-131"/>
<text text-anchor="start" x="1845" y="-149" font-family="Helvetica,sans-Serif" font-size="10.00">ant::analysis::utils</text>
<text text-anchor="middle" x="1885" y="-138" font-family="Helvetica,sans-Serif" font-size="10.00">::MCWeighting</text>
</a>
</g>
</g>
<!-- Node30&#45;&gt;Node1 -->
<g id="edge32" class="edge"><title>Node30&#45;&gt;Node1</title>
<path fill="none" stroke="#9a32cd" stroke-dasharray="5,2" d="M1943.27,-148.945C1987.04,-153.718 2046.97,-165.95 2090,-197 2125.67,-222.739 2148.04,-271.784 2157.61,-296.681"/>
<polygon fill="#9a32cd" stroke="#9a32cd" points="1943.37,-145.438 1933.08,-147.935 1942.68,-152.403 1943.37,-145.438"/>
<text text-anchor="middle" x="2039" y="-200" font-family="Helvetica,sans-Serif" font-size="10.00"> mcWeightingEtaPrime</text>
</g>
<!-- Node31&#45;&gt;Node30 -->
<g id="edge33" class="edge"><title>Node31&#45;&gt;Node30</title>
<path fill="none" stroke="#9a32cd" stroke-dasharray="5,2" d="M1167.9,-183.885C1289.5,-183.18 1557.28,-179.338 1782,-160 1799.99,-158.452 1819.66,-155.947 1836.88,-153.48"/>
<polygon fill="#9a32cd" stroke="#9a32cd" points="1167.63,-180.386 1157.65,-183.938 1167.66,-187.386 1167.63,-180.386"/>
<text text-anchor="middle" x="1422" y="-185" font-family="Helvetica,sans-Serif" font-size="10.00"> t</text>
</g>
<!-- Node32 -->
<g id="node32" class="node"><title>Node32</title>
<g id="a_node32"><a xlink:href="structant_1_1analysis_1_1utils_1_1_m_c_weighting_1_1item__t.html" target="_top" xlink:title="ant::analysis::utils\l::MCWeighting::item_t">
<polygon fill="white" stroke="black" points="1551.5,-22 1551.5,-52 1666.5,-52 1666.5,-22 1551.5,-22"/>
<text text-anchor="start" x="1559.5" y="-40" font-family="Helvetica,sans-Serif" font-size="10.00">ant::analysis::utils</text>
<text text-anchor="middle" x="1609" y="-29" font-family="Helvetica,sans-Serif" font-size="10.00">::MCWeighting::item_t</text>
</a>
</g>
</g>
<!-- Node32&#45;&gt;Node30 -->
<g id="edge35" class="edge"><title>Node32&#45;&gt;Node30</title>
<path fill="none" stroke="#9a32cd" stroke-dasharray="5,2" d="M1677.3,-32.9148C1710.14,-33.3627 1749.46,-37.6338 1782,-52 1821.65,-69.5084 1855.97,-108.868 1872.85,-130.694"/>
<polygon fill="#9a32cd" stroke="#9a32cd" points="1676.9,-29.4141 1666.89,-32.8958 1676.88,-36.4141 1676.9,-29.4141"/>
<text text-anchor="middle" x="1745" y="-99" font-family="Helvetica,sans-Serif" font-size="10.00"> Item</text>
<text text-anchor="middle" x="1745" y="-88" font-family="Helvetica,sans-Serif" font-size="10.00">EtaPrime</text>
<text text-anchor="middle" x="1745" y="-77" font-family="Helvetica,sans-Serif" font-size="10.00">Pi0</text>
<text text-anchor="middle" x="1745" y="-66" font-family="Helvetica,sans-Serif" font-size="10.00">Omega</text>
<text text-anchor="middle" x="1745" y="-55" font-family="Helvetica,sans-Serif" font-size="10.00">Eta</text>
</g>
<!-- Node33 -->
<g id="node33" class="node"><title>Node33</title>
<polygon fill="white" stroke="#bfbfbf" points="1176,-19.5 1176,-38.5 1316,-38.5 1316,-19.5 1176,-19.5"/>
<text text-anchor="middle" x="1246" y="-26.5" font-family="Helvetica,sans-Serif" font-size="10.00">std::vector&lt; coefficients_t &gt;</text>
</g>
<!-- Node33&#45;&gt;Node32 -->
<g id="edge36" class="edge"><title>Node33&#45;&gt;Node32</title>
<path fill="none" stroke="#9a32cd" stroke-dasharray="5,2" d="M1326.42,-30.76C1394.43,-32.2672 1490.71,-34.4007 1551.22,-35.7417"/>
<polygon fill="#9a32cd" stroke="#9a32cd" points="1326.25,-27.2555 1316.18,-30.533 1326.1,-34.2538 1326.25,-27.2555"/>
<text text-anchor="middle" x="1422" y="-38" font-family="Helvetica,sans-Serif" font-size="10.00"> Database</text>
</g>
<!-- Node34 -->
<g id="node34" class="node"><title>Node34</title>
<polygon fill="white" stroke="#bfbfbf" points="865,-14 865,-44 1011,-44 1011,-14 865,-14"/>
<text text-anchor="start" x="873" y="-32" font-family="Helvetica,sans-Serif" font-size="10.00">ant::analysis::utils</text>
<text text-anchor="middle" x="938" y="-21" font-family="Helvetica,sans-Serif" font-size="10.00">::MCWeighting::coefficients_t</text>
</g>
<!-- Node34&#45;&gt;Node33 -->
<g id="edge37" class="edge"><title>Node34&#45;&gt;Node33</title>
<path fill="none" stroke="#9a32cd" stroke-dasharray="5,2" d="M1021.26,-29C1069.63,-29 1130.11,-29 1175.98,-29"/>
<polygon fill="#9a32cd" stroke="#9a32cd" points="1021.13,-25.5001 1011.13,-29 1021.13,-32.5001 1021.13,-25.5001"/>
<text text-anchor="middle" x="1101" y="-32" font-family="Helvetica,sans-Serif" font-size="10.00"> elements</text>
</g>
<!-- Node35 -->
<g id="node35" class="node"><title>Node35</title>
<g id="a_node35"><a xlink:href="classant_1_1interval.html" target="_top" xlink:title="ant::interval\&lt; double \&gt;">
<polygon fill="white" stroke="black" points="598,-38.5 598,-57.5 712,-57.5 712,-38.5 598,-38.5"/>
<text text-anchor="middle" x="655" y="-45.5" font-family="Helvetica,sans-Serif" font-size="10.00">ant::interval&lt; double &gt;</text>
</a>
</g>
</g>
<!-- Node35&#45;&gt;Node34 -->
<g id="edge38" class="edge"><title>Node35&#45;&gt;Node34</title>
<path fill="none" stroke="#9a32cd" stroke-dasharray="5,2" d="M722.235,-43.5215C765.097,-40.6234 820.898,-36.8503 864.878,-33.8766"/>
<polygon fill="#9a32cd" stroke="#9a32cd" points="721.93,-40.034 712.189,-44.2007 722.403,-47.018 721.93,-40.034"/>
<text text-anchor="middle" x="784" y="-46" font-family="Helvetica,sans-Serif" font-size="10.00"> BeamE</text>
</g>
<!-- Node36 -->
<g id="node36" class="node"><title>Node36</title>
<polygon fill="white" stroke="#bfbfbf" points="600,-0.5 600,-19.5 710,-19.5 710,-0.5 600,-0.5"/>
<text text-anchor="middle" x="655" y="-7.5" font-family="Helvetica,sans-Serif" font-size="10.00">std::vector&lt; double &gt;</text>
</g>
<!-- Node36&#45;&gt;Node34 -->
<g id="edge39" class="edge"><title>Node36&#45;&gt;Node34</title>
<path fill="none" stroke="#9a32cd" stroke-dasharray="5,2" d="M720.272,-14.3458C763.392,-17.2614 820.25,-21.1059 864.909,-24.1255"/>
<polygon fill="#9a32cd" stroke="#9a32cd" points="720.393,-10.8461 710.18,-13.6634 719.921,-17.8301 720.393,-10.8461"/>
<text text-anchor="middle" x="784" y="-25" font-family="Helvetica,sans-Serif" font-size="10.00"> LegendreCoefficients</text>
</g>
<!-- Node37 -->
<g id="node37" class="node"><title>Node37</title>
<g id="a_node37"><a xlink:href="classant_1_1_particle_type_database_1_1_type.html" target="_top" xlink:title="ant::ParticleTypeDatabase\l::Type">
<polygon fill="white" stroke="black" points="1179.5,-58 1179.5,-88 1312.5,-88 1312.5,-58 1179.5,-58"/>
<text text-anchor="start" x="1187.5" y="-76" font-family="Helvetica,sans-Serif" font-size="10.00">ant::ParticleTypeDatabase</text>
<text text-anchor="middle" x="1246" y="-65" font-family="Helvetica,sans-Serif" font-size="10.00">::Type</text>
</a>
</g>
</g>
<!-- Node37&#45;&gt;Node32 -->
<g id="edge40" class="edge"><title>Node37&#45;&gt;Node32</title>
<path fill="none" stroke="#9a32cd" stroke-dasharray="5,2" d="M1322.97,-66.6918C1375.53,-62.1743 1447.06,-55.7232 1510,-49 1523.38,-47.5707 1537.77,-45.8896 1551.29,-44.2456"/>
<polygon fill="#9a32cd" stroke="#9a32cd" points="1322.38,-63.2291 1312.72,-67.569 1322.98,-70.2036 1322.38,-63.2291"/>
<text text-anchor="middle" x="1422" y="-69" font-family="Helvetica,sans-Serif" font-size="10.00"> Type</text>
</g>
<!-- Node37&#45;&gt;Node37 -->
<g id="edge43" class="edge"><title>Node37&#45;&gt;Node37</title>
<path fill="none" stroke="#9a32cd" stroke-dasharray="5,2" d="M1220.79,-98.5975C1224.24,-102.97 1232.64,-106 1246,-106 1268.5,-106 1276.94,-97.4062 1271.31,-88.2754"/>
<polygon fill="#9a32cd" stroke="#9a32cd" points="1224.29,-98.2385 1220.69,-88.2754 1217.29,-98.3112 1224.29,-98.2385"/>
<text text-anchor="middle" x="1246" y="-109" font-family="Helvetica,sans-Serif" font-size="10.00"> sametype</text>
</g>
<!-- Node38 -->
<g id="node38" class="node"><title>Node38</title>
<g id="a_node38"><a xlink:title="STL class. ">
<polygon fill="white" stroke="#bfbfbf" points="908,-109.5 908,-128.5 968,-128.5 968,-109.5 908,-109.5"/>
<text text-anchor="middle" x="938" y="-116.5" font-family="Helvetica,sans-Serif" font-size="10.00">std::string</text>
</a>
</g>
</g>
<!-- Node38&#45;&gt;Node30 -->
<g id="edge44" class="edge"><title>Node38&#45;&gt;Node30</title>
<path fill="none" stroke="#9a32cd" stroke-dasharray="5,2" d="M978.5,-123.466C998.161,-125.509 1022.31,-127.749 1044,-129 1345.44,-146.38 1708.61,-146.768 1836.59,-146.28"/>
<polygon fill="#9a32cd" stroke="#9a32cd" points="978.688,-119.966 968.374,-122.39 977.948,-126.927 978.688,-119.966"/>
<text text-anchor="middle" x="1422" y="-148" font-family="Helvetica,sans-Serif" font-size="10.00"> treeName</text>
</g>
<!-- Node38&#45;&gt;Node37 -->
<g id="edge41" class="edge"><title>Node38&#45;&gt;Node37</title>
<path fill="none" stroke="#9a32cd" stroke-dasharray="5,2" d="M977.975,-113.141C1028.7,-105.516 1118.08,-92.08 1179.35,-82.8691"/>
<polygon fill="#9a32cd" stroke="#9a32cd" points="977.432,-109.683 968.064,-114.631 978.473,-116.605 977.432,-109.683"/>
<text text-anchor="middle" x="1101" y="-117" font-family="Helvetica,sans-Serif" font-size="10.00"> print_name</text>
<text text-anchor="middle" x="1101" y="-106" font-family="Helvetica,sans-Serif" font-size="10.00">name</text>
</g>
<!-- Node39 -->
<g id="node39" class="node"><title>Node39</title>
<g id="a_node39"><a xlink:title="STL class. ">
<polygon fill="white" stroke="#bfbfbf" points="607.5,-104 607.5,-134 702.5,-134 702.5,-104 607.5,-104"/>
<text text-anchor="start" x="615.5" y="-122" font-family="Helvetica,sans-Serif" font-size="10.00">std::basic_string&lt;</text>
<text text-anchor="middle" x="655" y="-111" font-family="Helvetica,sans-Serif" font-size="10.00"> char &gt;</text>
</a>
</g>
</g>
<!-- Node39&#45;&gt;Node38 -->
<g id="edge42" class="edge"><title>Node39&#45;&gt;Node38</title>
<path fill="none" stroke="midnightblue" d="M713.001,-119C772.039,-119 861.946,-119 907.835,-119"/>
<polygon fill="midnightblue" stroke="midnightblue" points="712.717,-115.5 702.717,-119 712.717,-122.5 712.717,-115.5"/>
</g>
<!-- Node40 -->
<g id="node40" class="node"><title>Node40</title>
<g id="a_node40"><a xlink:href="classant_1_1analysis_1_1_histogram_factory.html" target="_top" xlink:title="ant::analysis::Histogram\lFactory">
<polygon fill="white" stroke="black" points="1547.5,-87 1547.5,-117 1670.5,-117 1670.5,-87 1547.5,-87"/>
<text text-anchor="start" x="1555.5" y="-105" font-family="Helvetica,sans-Serif" font-size="10.00">ant::analysis::Histogram</text>
<text text-anchor="middle" x="1609" y="-94" font-family="Helvetica,sans-Serif" font-size="10.00">Factory</text>
</a>
</g>
</g>
<!-- Node40&#45;&gt;Node30 -->
<g id="edge45" class="edge"><title>Node40&#45;&gt;Node30</title>
<path fill="none" stroke="#9a32cd" stroke-dasharray="5,2" d="M1681.09,-107.754C1712.2,-110.812 1749.04,-115.166 1782,-121 1800.04,-124.194 1819.64,-128.733 1836.79,-133.069"/>
<polygon fill="#9a32cd" stroke="#9a32cd" points="1681.06,-104.235 1670.77,-106.766 1680.39,-111.203 1681.06,-104.235"/>
<text text-anchor="middle" x="1745" y="-124" font-family="Helvetica,sans-Serif" font-size="10.00"> HistFac</text>
</g>
<!-- Node41&#45;&gt;Node1 -->
<g id="edge48" class="edge"><title>Node41&#45;&gt;Node1</title>
<path fill="none" stroke="#9a32cd" stroke-dasharray="5,2" d="M1519.59,-225.965C1629.17,-231.263 1813.06,-242.577 1970,-264 2023.81,-271.345 2037.52,-273.057 2090,-287 2100.62,-289.82 2111.92,-293.399 2122.39,-296.961"/>
<polygon fill="#9a32cd" stroke="#9a32cd" points="1519.7,-222.466 1509.55,-225.486 1519.37,-229.458 1519.7,-222.466"/>
<text text-anchor="middle" x="1745" y="-247" font-family="Helvetica,sans-Serif" font-size="10.00"> t</text>
</g>
<!-- Node42&#45;&gt;Node1 -->
<g id="edge50" class="edge"><title>Node42&#45;&gt;Node1</title>
<path fill="none" stroke="#9a32cd" stroke-dasharray="5,2" d="M1980.3,-329.149C2022.66,-325.172 2071.19,-320.617 2107.58,-317.201"/>
<polygon fill="#9a32cd" stroke="#9a32cd" points="1979.87,-325.674 1970.24,-330.093 1980.52,-332.643 1979.87,-325.674"/>
<text text-anchor="middle" x="2039" y="-332" font-family="Helvetica,sans-Serif" font-size="10.00"> OmegaPi0</text>
</g>
<!-- Node43&#45;&gt;Node42 -->
<g id="edge52" class="edge"><title>Node43&#45;&gt;Node42</title>
<path fill="none" stroke="#9a32cd" stroke-dasharray="5,2" d="M1700.6,-333.315C1732.59,-334.132 1768.4,-335.047 1799.83,-335.85"/>
<polygon fill="#9a32cd" stroke="#9a32cd" points="1700.44,-329.81 1690.36,-333.053 1700.26,-336.807 1700.44,-329.81"/>
<text text-anchor="middle" x="1745" y="-339" font-family="Helvetica,sans-Serif" font-size="10.00"> t</text>
</g>
</g>
</svg>
