<?xml version="1.0" encoding="UTF-8" standalone="no"?>
<!DOCTYPE svg PUBLIC "-//W3C//DTD SVG 1.1//EN"
 "http://www.w3.org/Graphics/SVG/1.1/DTD/svg11.dtd">
<!-- Generated by graphviz version 2.36.0 (20140111.2315)
 -->
<!-- Title: ant::calibration::TAPS_ShortEnergy::GUI_Pedestals Pages: 1 -->
<svg width="156pt" height="244pt"
 viewBox="0.00 0.00 156.00 244.00" xmlns="http://www.w3.org/2000/svg" xmlns:xlink="http://www.w3.org/1999/xlink">
<g id="graph0" class="graph" transform="scale(1 1) rotate(0) translate(4 240)">
<title>ant::calibration::TAPS_ShortEnergy::GUI_Pedestals</title>
<polygon fill="white" stroke="none" points="-4,4 -4,-240 152,-240 152,4 -4,4"/>
<!-- Node0 -->
<g id="node1" class="node"><title>Node0</title>
<polygon fill="#bfbfbf" stroke="black" points="-0.5,-1 -0.5,-31 148.5,-31 148.5,-1 -0.5,-1"/>
<text text-anchor="start" x="7.5" y="-19" font-family="Helvetica,sans-Serif" font-size="10.00">ant::calibration::TAPS</text>
<text text-anchor="middle" x="74" y="-8" font-family="Helvetica,sans-Serif" font-size="10.00">_ShortEnergy::GUI_Pedestals</text>
</g>
<!-- Node1 -->
<g id="node2" class="node"><title>Node1</title>
<g id="a_node2"><a xlink:href="structant_1_1calibration_1_1energy_1_1_g_u_i___pedestals.html" target="_top" xlink:title="ant::calibration::energy\l::GUI_Pedestals">
<polygon fill="white" stroke="black" points="16,-69 16,-99 132,-99 132,-69 16,-69"/>
<text text-anchor="start" x="24" y="-87" font-family="Helvetica,sans-Serif" font-size="10.00">ant::calibration::energy</text>
<text text-anchor="middle" x="74" y="-76" font-family="Helvetica,sans-Serif" font-size="10.00">::GUI_Pedestals</text>
</a>
</g>
</g>
<!-- Node1&#45;&gt;Node0 -->
<g id="edge1" class="edge"><title>Node1&#45;&gt;Node0</title>
<path fill="none" stroke="midnightblue" d="M74,-58.5322C74,-49.3606 74,-39.2449 74,-31.2931"/>
<polygon fill="midnightblue" stroke="midnightblue" points="70.5001,-58.6789 74,-68.679 77.5001,-58.679 70.5001,-58.6789"/>
</g>
<!-- Node2 -->
<g id="node3" class="node"><title>Node2</title>
<g id="a_node3"><a xlink:href="structant_1_1calibration_1_1_g_u_i___calib_type.html" target="_top" xlink:title="The GUI_CalibType struct is an abstract base class for handling the data storage for a provided Calib...">
<polygon fill="white" stroke="black" points="22,-137 22,-167 126,-167 126,-137 22,-137"/>
<text text-anchor="start" x="30" y="-155" font-family="Helvetica,sans-Serif" font-size="10.00">ant::calibration::GUI</text>
<text text-anchor="middle" x="74" y="-144" font-family="Helvetica,sans-Serif" font-size="10.00">_CalibType</text>
</a>
</g>
</g>
<!-- Node2&#45;&gt;Node1 -->
<g id="edge2" class="edge"><title>Node2&#45;&gt;Node1</title>
<path fill="none" stroke="midnightblue" d="M74,-126.532C74,-117.361 74,-107.245 74,-99.2931"/>
<polygon fill="midnightblue" stroke="midnightblue" points="70.5001,-126.679 74,-136.679 77.5001,-126.679 70.5001,-126.679"/>
</g>
<!-- Node3 -->
<g id="node4" class="node"><title>Node3</title>
<g id="a_node4"><a xlink:href="classant_1_1calibration_1_1gui_1_1_calib_module__traits.html" target="_top" xlink:title="ant::calibration::gui\l::CalibModule_traits">
<polygon fill="white" stroke="black" points="22,-205 22,-235 126,-235 126,-205 22,-205"/>
<text text-anchor="start" x="30" y="-223" font-family="Helvetica,sans-Serif" font-size="10.00">ant::calibration::gui</text>
<text text-anchor="middle" x="74" y="-212" font-family="Helvetica,sans-Serif" font-size="10.00">::CalibModule_traits</text>
</a>
</g>
</g>
<!-- Node3&#45;&gt;Node2 -->
<g id="edge3" class="edge"><title>Node3&#45;&gt;Node2</title>
<path fill="none" stroke="midnightblue" d="M74,-194.532C74,-185.361 74,-175.245 74,-167.293"/>
<polygon fill="midnightblue" stroke="midnightblue" points="70.5001,-194.679 74,-204.679 77.5001,-194.679 70.5001,-194.679"/>
</g>
</g>
</svg>
