<?xml version="1.0" encoding="UTF-8" standalone="no"?>
<!DOCTYPE svg PUBLIC "-//W3C//DTD SVG 1.1//EN"
 "http://www.w3.org/Graphics/SVG/1.1/DTD/svg11.dtd">
<!-- Generated by graphviz version 2.36.0 (20140111.2315)
 -->
<!-- Title: ant::reconstruct::clustering::crystal_t Pages: 1 -->
<svg width="932pt" height="124pt"
 viewBox="0.00 0.00 932.00 124.00" xmlns="http://www.w3.org/2000/svg" xmlns:xlink="http://www.w3.org/1999/xlink">
<g id="graph0" class="graph" transform="scale(1 1) rotate(0) translate(4 120)">
<title>ant::reconstruct::clustering::crystal_t</title>
<polygon fill="white" stroke="none" points="-4,4 -4,-120 928,-120 928,4 -4,4"/>
<!-- Node1 -->
<g id="node1" class="node"><title>Node1</title>
<polygon fill="#bfbfbf" stroke="black" points="790.5,-64 790.5,-94 923.5,-94 923.5,-64 790.5,-64"/>
<text text-anchor="start" x="798.5" y="-82" font-family="Helvetica,sans-Serif" font-size="10.00">ant::reconstruct::clustering</text>
<text text-anchor="middle" x="857" y="-71" font-family="Helvetica,sans-Serif" font-size="10.00">::crystal_t</text>
</g>
<!-- Node2 -->
<g id="node2" class="node"><title>Node2</title>
<g id="a_node2"><a xlink:href="structant_1_1_t_cluster_hit.html" target="_top" xlink:title="ant::TClusterHit">
<polygon fill="white" stroke="black" points="618,-90.5 618,-109.5 704,-109.5 704,-90.5 618,-90.5"/>
<text text-anchor="middle" x="661" y="-97.5" font-family="Helvetica,sans-Serif" font-size="10.00">ant::TClusterHit</text>
</a>
</g>
</g>
<!-- Node2&#45;&gt;Node1 -->
<g id="edge1" class="edge"><title>Node2&#45;&gt;Node1</title>
<path fill="none" stroke="#9a32cd" stroke-dasharray="5,2" d="M714.177,-94.3519C737.605,-91.816 765.503,-88.796 790.333,-86.1083"/>
<polygon fill="#9a32cd" stroke="#9a32cd" points="713.66,-90.8874 704.095,-95.4433 714.414,-97.8467 713.66,-90.8874"/>
<text text-anchor="middle" x="752" y="-95" font-family="Helvetica,sans-Serif" font-size="10.00"> Hit</text>
</g>
<!-- Node3 -->
<g id="node3" class="node"><title>Node3</title>
<polygon fill="white" stroke="#bfbfbf" points="387.5,-85 387.5,-115 516.5,-115 516.5,-85 387.5,-85"/>
<text text-anchor="start" x="395.5" y="-103" font-family="Helvetica,sans-Serif" font-size="10.00">std::vector&lt; ant::TCluster</text>
<text text-anchor="middle" x="452" y="-92" font-family="Helvetica,sans-Serif" font-size="10.00">Hit::Datum &gt;</text>
</g>
<!-- Node3&#45;&gt;Node2 -->
<g id="edge2" class="edge"><title>Node3&#45;&gt;Node2</title>
<path fill="none" stroke="#9a32cd" stroke-dasharray="5,2" d="M526.724,-100C557.311,-100 591.691,-100 617.87,-100"/>
<polygon fill="#9a32cd" stroke="#9a32cd" points="526.514,-96.5001 516.514,-100 526.514,-103.5 526.514,-96.5001"/>
<text text-anchor="middle" x="563" y="-103" font-family="Helvetica,sans-Serif" font-size="10.00"> Data</text>
</g>
<!-- Node4 -->
<g id="node4" class="node"><title>Node4</title>
<g id="a_node4"><a xlink:href="structant_1_1_t_cluster_hit_1_1_datum.html" target="_top" xlink:title="ant::TClusterHit::Datum">
<polygon fill="white" stroke="black" points="182,-90.5 182,-109.5 304,-109.5 304,-90.5 182,-90.5"/>
<text text-anchor="middle" x="243" y="-97.5" font-family="Helvetica,sans-Serif" font-size="10.00">ant::TClusterHit::Datum</text>
</a>
</g>
</g>
<!-- Node4&#45;&gt;Node3 -->
<g id="edge3" class="edge"><title>Node4&#45;&gt;Node3</title>
<path fill="none" stroke="#9a32cd" stroke-dasharray="5,2" d="M314.467,-100C338.125,-100 364.356,-100 387.452,-100"/>
<polygon fill="#9a32cd" stroke="#9a32cd" points="314.151,-96.5001 304.151,-100 314.151,-103.5 314.151,-96.5001"/>
<text text-anchor="middle" x="346" y="-103" font-family="Helvetica,sans-Serif" font-size="10.00"> elements</text>
</g>
<!-- Node5 -->
<g id="node5" class="node"><title>Node5</title>
<g id="a_node5"><a xlink:href="structant_1_1_t_detector_read_hit_1_1_value__t.html" target="_top" xlink:title="ant::TDetectorReadHit\l::Value_t">
<polygon fill="white" stroke="black" points="0,-85 0,-115 116,-115 116,-85 0,-85"/>
<text text-anchor="start" x="8" y="-103" font-family="Helvetica,sans-Serif" font-size="10.00">ant::TDetectorReadHit</text>
<text text-anchor="middle" x="58" y="-92" font-family="Helvetica,sans-Serif" font-size="10.00">::Value_t</text>
</a>
</g>
</g>
<!-- Node5&#45;&gt;Node4 -->
<g id="edge4" class="edge"><title>Node5&#45;&gt;Node4</title>
<path fill="none" stroke="#9a32cd" stroke-dasharray="5,2" d="M126.369,-100C144.532,-100 164.061,-100 181.804,-100"/>
<polygon fill="#9a32cd" stroke="#9a32cd" points="126.15,-96.5001 116.15,-100 126.15,-103.5 126.15,-96.5001"/>
<text text-anchor="middle" x="148" y="-103" font-family="Helvetica,sans-Serif" font-size="10.00"> Value</text>
</g>
<!-- Node6 -->
<g id="node6" class="node"><title>Node6</title>
<g id="a_node6"><a xlink:href="structant_1_1_cluster_detector__t_1_1_element__t.html" target="_top" xlink:title="ant::ClusterDetector\l_t::Element_t">
<polygon fill="white" stroke="black" points="608.5,-41 608.5,-71 713.5,-71 713.5,-41 608.5,-41"/>
<text text-anchor="start" x="616.5" y="-59" font-family="Helvetica,sans-Serif" font-size="10.00">ant::ClusterDetector</text>
<text text-anchor="middle" x="661" y="-48" font-family="Helvetica,sans-Serif" font-size="10.00">_t::Element_t</text>
</a>
</g>
</g>
<!-- Node6&#45;&gt;Node1 -->
<g id="edge5" class="edge"><title>Node6&#45;&gt;Node1</title>
<path fill="none" stroke="#9a32cd" stroke-dasharray="5,2" d="M723.879,-63.3362C745.011,-65.8415 768.713,-68.6515 790.145,-71.1925"/>
<polygon fill="#9a32cd" stroke="#9a32cd" points="724.076,-59.8351 713.734,-62.1334 723.252,-66.7864 724.076,-59.8351"/>
<text text-anchor="middle" x="752" y="-72" font-family="Helvetica,sans-Serif" font-size="10.00"> Element</text>
</g>
<!-- Node7 -->
<g id="node7" class="node"><title>Node7</title>
<g id="a_node7"><a xlink:href="structant_1_1_detector__t_1_1_element__t.html" target="_top" xlink:title="ant::Detector_t::Element_t">
<polygon fill="white" stroke="black" points="386,-46.5 386,-65.5 518,-65.5 518,-46.5 386,-46.5"/>
<text text-anchor="middle" x="452" y="-53.5" font-family="Helvetica,sans-Serif" font-size="10.00">ant::Detector_t::Element_t</text>
</a>
</g>
</g>
<!-- Node7&#45;&gt;Node6 -->
<g id="edge6" class="edge"><title>Node7&#45;&gt;Node6</title>
<path fill="none" stroke="midnightblue" d="M528.243,-56C554.802,-56 584.049,-56 608.227,-56"/>
<polygon fill="midnightblue" stroke="midnightblue" points="528.212,-52.5001 518.212,-56 528.212,-59.5001 528.212,-52.5001"/>
</g>
<!-- Node8 -->
<g id="node8" class="node"><title>Node8</title>
<g id="a_node8"><a xlink:href="structant_1_1vec3.html" target="_top" xlink:title="ant::vec3">
<polygon fill="white" stroke="black" points="214.5,-49.5 214.5,-68.5 271.5,-68.5 271.5,-49.5 214.5,-49.5"/>
<text text-anchor="middle" x="243" y="-56.5" font-family="Helvetica,sans-Serif" font-size="10.00">ant::vec3</text>
</a>
</g>
</g>
<!-- Node8&#45;&gt;Node7 -->
<g id="edge7" class="edge"><title>Node8&#45;&gt;Node7</title>
<path fill="none" stroke="#9a32cd" stroke-dasharray="5,2" d="M282.033,-58.4488C311.006,-58.0289 351.591,-57.4407 385.724,-56.946"/>
<polygon fill="#9a32cd" stroke="#9a32cd" points="281.865,-54.9508 271.917,-58.5954 281.967,-61.95 281.865,-54.9508"/>
<text text-anchor="middle" x="346" y="-61" font-family="Helvetica,sans-Serif" font-size="10.00"> Position</text>
</g>
<!-- Node9 -->
<g id="node9" class="node"><title>Node9</title>
<g id="a_node9"><a xlink:href="classant_1_1bitflag.html" target="_top" xlink:title="ant::bitflag\&lt; ElementFlag\l_t, 16 \&gt;">
<polygon fill="white" stroke="black" points="180,-0 180,-30 306,-30 306,-0 180,-0"/>
<text text-anchor="start" x="188" y="-18" font-family="Helvetica,sans-Serif" font-size="10.00">ant::bitflag&lt; ElementFlag</text>
<text text-anchor="middle" x="243" y="-7" font-family="Helvetica,sans-Serif" font-size="10.00">_t, 16 &gt;</text>
</a>
</g>
</g>
<!-- Node9&#45;&gt;Node7 -->
<g id="edge8" class="edge"><title>Node9&#45;&gt;Node7</title>
<path fill="none" stroke="#9a32cd" stroke-dasharray="5,2" d="M316.085,-29.2777C344.759,-34.9572 376.988,-41.3406 402.753,-46.4439"/>
<polygon fill="#9a32cd" stroke="#9a32cd" points="316.596,-25.8111 306.107,-27.3014 315.236,-32.6777 316.596,-25.8111"/>
<text text-anchor="middle" x="346" y="-43" font-family="Helvetica,sans-Serif" font-size="10.00"> Flags</text>
</g>
<!-- Node10 -->
<g id="node10" class="node"><title>Node10</title>
<polygon fill="white" stroke="#bfbfbf" points="7.5,-0 7.5,-30 108.5,-30 108.5,-0 7.5,-0"/>
<text text-anchor="start" x="15.5" y="-18" font-family="Helvetica,sans-Serif" font-size="10.00">std::bitset&lt; number</text>
<text text-anchor="middle" x="58" y="-7" font-family="Helvetica,sans-Serif" font-size="10.00">_of_bits &gt;</text>
</g>
<!-- Node10&#45;&gt;Node9 -->
<g id="edge9" class="edge"><title>Node10&#45;&gt;Node9</title>
<path fill="none" stroke="#9a32cd" stroke-dasharray="5,2" d="M118.578,-15C138.242,-15 160.155,-15 179.997,-15"/>
<polygon fill="#9a32cd" stroke="#9a32cd" points="118.522,-11.5001 108.522,-15 118.522,-18.5001 118.522,-11.5001"/>
<text text-anchor="middle" x="148" y="-18" font-family="Helvetica,sans-Serif" font-size="10.00"> bits</text>
</g>
<!-- Node11 -->
<g id="node11" class="node"><title>Node11</title>
<polygon fill="white" stroke="#bfbfbf" points="392,-8.5 392,-27.5 512,-27.5 512,-8.5 392,-8.5"/>
<text text-anchor="middle" x="452" y="-15.5" font-family="Helvetica,sans-Serif" font-size="10.00">std::vector&lt; unsigned &gt;</text>
</g>
<!-- Node11&#45;&gt;Node6 -->
<g id="edge10" class="edge"><title>Node11&#45;&gt;Node6</title>
<path fill="none" stroke="#9a32cd" stroke-dasharray="5,2" d="M522.239,-29.0049C543.967,-32.6242 568.016,-36.8013 590,-41 595.982,-42.1425 602.238,-43.3971 608.445,-44.6792"/>
<polygon fill="#9a32cd" stroke="#9a32cd" points="522.545,-25.508 512.108,-27.3294 521.403,-32.4142 522.545,-25.508"/>
<text text-anchor="middle" x="563" y="-44" font-family="Helvetica,sans-Serif" font-size="10.00"> Neighbours</text>
</g>
</g>
</svg>
