<?xml version="1.0" encoding="UTF-8" standalone="no"?>
<!DOCTYPE svg PUBLIC "-//W3C//DTD SVG 1.1//EN"
 "http://www.w3.org/Graphics/SVG/1.1/DTD/svg11.dtd">
<!-- Generated by graphviz version 2.36.0 (20140111.2315)
 -->
<!-- Title: ant::calibration::energy::GUI_HEP Pages: 1 -->
<svg width="1528pt" height="493pt"
 viewBox="0.00 0.00 1528.00 493.00" xmlns="http://www.w3.org/2000/svg" xmlns:xlink="http://www.w3.org/1999/xlink">
<g id="graph0" class="graph" transform="scale(1 1) rotate(0) translate(4 489)">
<title>ant::calibration::energy::GUI_HEP</title>
<polygon fill="white" stroke="none" points="-4,4 -4,-489 1524,-489 1524,4 -4,4"/>
<!-- Node3 -->
<g id="node1" class="node"><title>Node3</title>
<polygon fill="#bfbfbf" stroke="black" points="1404,-179 1404,-209 1520,-209 1520,-179 1404,-179"/>
<text text-anchor="start" x="1412" y="-197" font-family="Helvetica,sans-Serif" font-size="10.00">ant::calibration::energy</text>
<text text-anchor="middle" x="1462" y="-186" font-family="Helvetica,sans-Serif" font-size="10.00">::GUI_HEP</text>
</g>
<!-- Node4 -->
<g id="node2" class="node"><title>Node4</title>
<g id="a_node2"><a xlink:href="structant_1_1calibration_1_1_g_u_i___calib_type.html" target="_top" xlink:title="The GUI_CalibType struct is an abstract base class for handling the data storage for a provided Calib...">
<polygon fill="white" stroke="black" points="594,-91 594,-121 698,-121 698,-91 594,-91"/>
<text text-anchor="start" x="602" y="-109" font-family="Helvetica,sans-Serif" font-size="10.00">ant::calibration::GUI</text>
<text text-anchor="middle" x="646" y="-98" font-family="Helvetica,sans-Serif" font-size="10.00">_CalibType</text>
</a>
</g>
</g>
<!-- Node4&#45;&gt;Node3 -->
<g id="edge1" class="edge"><title>Node4&#45;&gt;Node3</title>
<path fill="none" stroke="midnightblue" d="M708.438,-115.724C748.378,-121.22 801.645,-127 849,-127 849,-127 849,-127 1283,-127 1341.61,-127 1404.52,-159.21 1437.59,-178.964"/>
<polygon fill="midnightblue" stroke="midnightblue" points="708.713,-112.229 698.323,-114.3 707.737,-119.16 708.713,-112.229"/>
</g>
<!-- Node5 -->
<g id="node3" class="node"><title>Node5</title>
<g id="a_node3"><a xlink:href="classant_1_1calibration_1_1gui_1_1_calib_module__traits.html" target="_top" xlink:title="ant::calibration::gui\l::CalibModule_traits">
<polygon fill="white" stroke="black" points="366,-135 366,-165 470,-165 470,-135 366,-135"/>
<text text-anchor="start" x="374" y="-153" font-family="Helvetica,sans-Serif" font-size="10.00">ant::calibration::gui</text>
<text text-anchor="middle" x="418" y="-142" font-family="Helvetica,sans-Serif" font-size="10.00">::CalibModule_traits</text>
</a>
</g>
</g>
<!-- Node5&#45;&gt;Node4 -->
<g id="edge2" class="edge"><title>Node5&#45;&gt;Node4</title>
<path fill="none" stroke="midnightblue" d="M480.258,-138.074C515.819,-131.15 560.1,-122.529 593.794,-115.969"/>
<polygon fill="midnightblue" stroke="midnightblue" points="479.147,-134.724 470.001,-140.071 480.485,-141.595 479.147,-134.724"/>
</g>
<!-- Node6 -->
<g id="node4" class="node"><title>Node6</title>
<g id="a_node4"><a xlink:href="structant_1_1calibration_1_1_calib_type.html" target="_top" xlink:title="The CalibType struct stores the data for the Updateable interface and for the GUI. ">
<polygon fill="white" stroke="black" points="352.5,-96.5 352.5,-115.5 483.5,-115.5 483.5,-96.5 352.5,-96.5"/>
<text text-anchor="middle" x="418" y="-103.5" font-family="Helvetica,sans-Serif" font-size="10.00">ant::calibration::CalibType</text>
</a>
</g>
</g>
<!-- Node6&#45;&gt;Node4 -->
<g id="edge3" class="edge"><title>Node6&#45;&gt;Node4</title>
<path fill="none" stroke="#9a32cd" stroke-dasharray="5,2" d="M493.78,-106C526.608,-106 564.314,-106 593.863,-106"/>
<polygon fill="#9a32cd" stroke="#9a32cd" points="493.763,-102.5 483.763,-106 493.762,-109.5 493.763,-102.5"/>
<text text-anchor="middle" x="533" y="-109" font-family="Helvetica,sans-Serif" font-size="10.00"> calibType</text>
</g>
<!-- Node7 -->
<g id="node5" class="node"><title>Node7</title>
<g id="a_node5"><a xlink:title="STL class. ">
<polygon fill="white" stroke="#bfbfbf" points="159,-207.5 159,-226.5 219,-226.5 219,-207.5 159,-207.5"/>
<text text-anchor="middle" x="189" y="-214.5" font-family="Helvetica,sans-Serif" font-size="10.00">std::string</text>
</a>
</g>
</g>
<!-- Node7&#45;&gt;Node3 -->
<g id="edge10" class="edge"><title>Node7&#45;&gt;Node3</title>
<path fill="none" stroke="#9a32cd" stroke-dasharray="5,2" d="M229.252,-210.592C274.411,-203.787 350.852,-194 417,-194 417,-194 417,-194 1283,-194 1323.33,-194 1368.8,-194 1403.68,-194"/>
<polygon fill="#9a32cd" stroke="#9a32cd" points="228.642,-207.145 219.289,-212.122 229.704,-214.064 228.642,-207.145"/>
<text text-anchor="middle" x="850" y="-197" font-family="Helvetica,sans-Serif" font-size="10.00"> full_hist_name</text>
</g>
<!-- Node7&#45;&gt;Node6 -->
<g id="edge4" class="edge"><title>Node7&#45;&gt;Node6</title>
<path fill="none" stroke="#9a32cd" stroke-dasharray="5,2" d="M206.789,-200.461C220.658,-187.518 241.354,-169.793 262,-158 297.491,-137.728 342.098,-123.809 374.335,-115.51"/>
<polygon fill="#9a32cd" stroke="#9a32cd" points="204.284,-198.014 199.463,-207.449 209.115,-203.079 204.284,-198.014"/>
<text text-anchor="middle" x="298" y="-172" font-family="Helvetica,sans-Serif" font-size="10.00"> Name</text>
<text text-anchor="middle" x="298" y="-161" font-family="Helvetica,sans-Serif" font-size="10.00">HistogramName</text>
</g>
<!-- Node20 -->
<g id="node18" class="node"><title>Node20</title>
<g id="a_node18"><a xlink:href="classant_1_1calibration_1_1gui_1_1_fit_function.html" target="_top" xlink:title="ant::calibration::gui\l::FitFunction">
<polygon fill="white" stroke="black" points="1012.5,-231 1012.5,-261 1111.5,-261 1111.5,-231 1012.5,-231"/>
<text text-anchor="start" x="1020.5" y="-249" font-family="Helvetica,sans-Serif" font-size="10.00">ant::calibration::gui</text>
<text text-anchor="middle" x="1062" y="-238" font-family="Helvetica,sans-Serif" font-size="10.00">::FitFunction</text>
</a>
</g>
</g>
<!-- Node7&#45;&gt;Node20 -->
<g id="edge27" class="edge"><title>Node7&#45;&gt;Node20</title>
<path fill="none" stroke="#9a32cd" stroke-dasharray="5,2" d="M229.252,-223.408C274.411,-230.213 350.852,-240 417,-240 417,-240 417,-240 851,-240 906.257,-240 969.659,-242.101 1012.21,-243.817"/>
<polygon fill="#9a32cd" stroke="#9a32cd" points="229.704,-219.936 219.289,-221.878 228.642,-226.855 229.704,-219.936"/>
<text text-anchor="middle" x="646" y="-243" font-family="Helvetica,sans-Serif" font-size="10.00"> AdditionalFitArgs</text>
</g>
<!-- Node23 -->
<g id="node21" class="node"><title>Node23</title>
<g id="a_node21"><a xlink:href="classant_1_1calibration_1_1gui_1_1_indicator_knob.html" target="_top" xlink:title="ant::calibration::gui\l::IndicatorKnob">
<polygon fill="white" stroke="black" points="368.5,-270 368.5,-300 467.5,-300 467.5,-270 368.5,-270"/>
<text text-anchor="start" x="376.5" y="-288" font-family="Helvetica,sans-Serif" font-size="10.00">ant::calibration::gui</text>
<text text-anchor="middle" x="418" y="-277" font-family="Helvetica,sans-Serif" font-size="10.00">::IndicatorKnob</text>
</a>
</g>
</g>
<!-- Node7&#45;&gt;Node23 -->
<g id="edge25" class="edge"><title>Node7&#45;&gt;Node23</title>
<path fill="none" stroke="#9a32cd" stroke-dasharray="5,2" d="M216.381,-231.213C229.751,-237.96 246.418,-245.688 262,-251 296.811,-262.868 337.467,-271.604 368.405,-277.247"/>
<polygon fill="#9a32cd" stroke="#9a32cd" points="217.783,-227.998 207.292,-226.523 214.573,-234.219 217.783,-227.998"/>
<text text-anchor="middle" x="298" y="-273" font-family="Helvetica,sans-Serif" font-size="10.00"> name</text>
</g>
<!-- Node8 -->
<g id="node6" class="node"><title>Node8</title>
<g id="a_node6"><a xlink:title="STL class. ">
<polygon fill="white" stroke="#bfbfbf" points="0.5,-202 0.5,-232 95.5,-232 95.5,-202 0.5,-202"/>
<text text-anchor="start" x="8.5" y="-220" font-family="Helvetica,sans-Serif" font-size="10.00">std::basic_string&lt;</text>
<text text-anchor="middle" x="48" y="-209" font-family="Helvetica,sans-Serif" font-size="10.00"> char &gt;</text>
</a>
</g>
</g>
<!-- Node8&#45;&gt;Node7 -->
<g id="edge5" class="edge"><title>Node8&#45;&gt;Node7</title>
<path fill="none" stroke="midnightblue" d="M105.877,-217C124.003,-217 143.315,-217 158.654,-217"/>
<polygon fill="midnightblue" stroke="midnightblue" points="105.672,-213.5 95.6717,-217 105.672,-220.5 105.672,-213.5"/>
</g>
<!-- Node9 -->
<g id="node7" class="node"><title>Node9</title>
<polygon fill="white" stroke="#bfbfbf" points="134,-57.5 134,-76.5 244,-76.5 244,-57.5 134,-57.5"/>
<text text-anchor="middle" x="189" y="-64.5" font-family="Helvetica,sans-Serif" font-size="10.00">std::vector&lt; double &gt;</text>
</g>
<!-- Node9&#45;&gt;Node4 -->
<g id="edge9" class="edge"><title>Node9&#45;&gt;Node4</title>
<path fill="none" stroke="#9a32cd" stroke-dasharray="5,2" d="M254.121,-66.1355C313.811,-65.9998 405.169,-67.4998 484,-76 521.032,-79.9931 562.323,-87.7552 593.817,-94.3833"/>
<polygon fill="#9a32cd" stroke="#9a32cd" points="254.075,-62.6356 244.088,-66.1745 254.102,-69.6355 254.075,-62.6356"/>
<text text-anchor="middle" x="418" y="-79" font-family="Helvetica,sans-Serif" font-size="10.00"> previousValues</text>
</g>
<!-- Node9&#45;&gt;Node6 -->
<g id="edge6" class="edge"><title>Node9&#45;&gt;Node6</title>
<path fill="none" stroke="#9a32cd" stroke-dasharray="5,2" d="M247.811,-78.4099C252.608,-79.3051 257.385,-80.1793 262,-81 292.594,-86.4402 326.677,-91.9928 355.075,-96.4789"/>
<polygon fill="#9a32cd" stroke="#9a32cd" points="248.46,-74.9706 237.984,-76.5529 247.16,-81.8489 248.46,-74.9706"/>
<text text-anchor="middle" x="298" y="-96" font-family="Helvetica,sans-Serif" font-size="10.00"> Values</text>
</g>
<!-- Node10 -->
<g id="node8" class="node"><title>Node10</title>
<polygon fill="white" stroke="#bfbfbf" points="357,-0 357,-30 479,-30 479,-0 357,-0"/>
<text text-anchor="start" x="365" y="-18" font-family="Helvetica,sans-Serif" font-size="10.00">std::map&lt; unsigned,</text>
<text text-anchor="middle" x="418" y="-7" font-family="Helvetica,sans-Serif" font-size="10.00"> std::vector&lt; double &gt; &gt;</text>
</g>
<!-- Node9&#45;&gt;Node10 -->
<g id="edge8" class="edge"><title>Node9&#45;&gt;Node10</title>
<path fill="none" stroke="#9a32cd" stroke-dasharray="5,2" d="M223.92,-53.9565C235.832,-49.7149 249.39,-45.2645 262,-42 292.938,-33.9903 327.973,-27.6622 356.898,-23.1518"/>
<polygon fill="#9a32cd" stroke="#9a32cd" points="222.555,-50.7285 214.357,-57.4397 224.951,-57.3057 222.555,-50.7285"/>
<text text-anchor="middle" x="298" y="-45" font-family="Helvetica,sans-Serif" font-size="10.00"> elements</text>
</g>
<!-- Node10&#45;&gt;Node4 -->
<g id="edge7" class="edge"><title>Node10&#45;&gt;Node4</title>
<path fill="none" stroke="#9a32cd" stroke-dasharray="5,2" d="M489.118,-21.0897C513.594,-25.0044 540.743,-31.4353 564,-42 590.108,-53.86 615.222,-75.895 630.386,-90.7534"/>
<polygon fill="#9a32cd" stroke="#9a32cd" points="489.576,-17.6195 479.17,-19.6108 488.547,-24.5434 489.576,-17.6195"/>
<text text-anchor="middle" x="533" y="-45" font-family="Helvetica,sans-Serif" font-size="10.00"> fitParameters</text>
</g>
<!-- Node11 -->
<g id="node9" class="node"><title>Node11</title>
<g id="a_node9"><a xlink:href="classant_1_1calibration_1_1gui_1_1_cal_canvas.html" target="_top" xlink:title="ant::calibration::gui\l::CalCanvas">
<polygon fill="white" stroke="black" points="1232.5,-324 1232.5,-354 1331.5,-354 1331.5,-324 1232.5,-324"/>
<text text-anchor="start" x="1240.5" y="-342" font-family="Helvetica,sans-Serif" font-size="10.00">ant::calibration::gui</text>
<text text-anchor="middle" x="1282" y="-331" font-family="Helvetica,sans-Serif" font-size="10.00">::CalCanvas</text>
</a>
</g>
</g>
<!-- Node11&#45;&gt;Node3 -->
<g id="edge11" class="edge"><title>Node11&#45;&gt;Node3</title>
<path fill="none" stroke="#9a32cd" stroke-dasharray="5,2" d="M1309.48,-317.427C1345.99,-287.689 1410.85,-234.855 1442.54,-209.039"/>
<polygon fill="#9a32cd" stroke="#9a32cd" points="1307.26,-314.727 1301.71,-323.757 1311.68,-320.154 1307.26,-314.727"/>
<text text-anchor="middle" x="1368" y="-286" font-family="Helvetica,sans-Serif" font-size="10.00"> canvas</text>
</g>
<!-- Node12 -->
<g id="node10" class="node"><title>Node12</title>
<polygon fill="white" stroke="#bfbfbf" points="1034,-329.5 1034,-348.5 1090,-348.5 1090,-329.5 1034,-329.5"/>
<text text-anchor="middle" x="1062" y="-336.5" font-family="Helvetica,sans-Serif" font-size="10.00">TCanvas</text>
</g>
<!-- Node12&#45;&gt;Node11 -->
<g id="edge12" class="edge"><title>Node12&#45;&gt;Node11</title>
<path fill="none" stroke="midnightblue" d="M1100.36,-339C1136.79,-339 1192.39,-339 1232.27,-339"/>
<polygon fill="midnightblue" stroke="midnightblue" points="1100.17,-335.5 1090.17,-339 1100.17,-342.5 1100.17,-335.5"/>
</g>
<!-- Node13 -->
<g id="node11" class="node"><title>Node13</title>
<g id="a_node11"><a xlink:href="classant_1_1calibration_1_1gui_1_1update__notify__traits.html" target="_top" xlink:title="ant::calibration::gui\l::update_notify_traits">
<polygon fill="white" stroke="black" points="592,-345 592,-375 700,-375 700,-345 592,-345"/>
<text text-anchor="start" x="600" y="-363" font-family="Helvetica,sans-Serif" font-size="10.00">ant::calibration::gui</text>
<text text-anchor="middle" x="646" y="-352" font-family="Helvetica,sans-Serif" font-size="10.00">::update_notify_traits</text>
</a>
</g>
</g>
<!-- Node13&#45;&gt;Node11 -->
<g id="edge13" class="edge"><title>Node13&#45;&gt;Node11</title>
<path fill="none" stroke="midnightblue" d="M710.434,-360.947C803.399,-362.061 982.101,-363.162 1134,-358 1169.6,-356.79 1178.7,-357.767 1214,-353 1220.01,-352.189 1226.28,-351.146 1232.47,-349.995"/>
<polygon fill="midnightblue" stroke="midnightblue" points="710.389,-357.446 700.346,-360.822 710.302,-364.446 710.389,-357.446"/>
</g>
<!-- Node15 -->
<g id="node13" class="node"><title>Node15</title>
<g id="a_node13"><a xlink:href="classant_1_1calibration_1_1gui_1_1_indicator.html" target="_top" xlink:title="ant::calibration::gui\l::Indicator">
<polygon fill="white" stroke="black" points="800.5,-318 800.5,-348 899.5,-348 899.5,-318 800.5,-318"/>
<text text-anchor="start" x="808.5" y="-336" font-family="Helvetica,sans-Serif" font-size="10.00">ant::calibration::gui</text>
<text text-anchor="middle" x="850" y="-325" font-family="Helvetica,sans-Serif" font-size="10.00">::Indicator</text>
</a>
</g>
</g>
<!-- Node13&#45;&gt;Node15 -->
<g id="edge16" class="edge"><title>Node13&#45;&gt;Node15</title>
<path fill="none" stroke="midnightblue" d="M710.155,-351.558C739.293,-347.664 773.343,-343.113 800.431,-339.492"/>
<polygon fill="midnightblue" stroke="midnightblue" points="709.521,-348.112 700.073,-352.906 710.449,-355.05 709.521,-348.112"/>
</g>
<!-- Node14 -->
<g id="node12" class="node"><title>Node14</title>
<polygon fill="white" stroke="#bfbfbf" points="1001,-280 1001,-310 1123,-310 1123,-280 1001,-280"/>
<text text-anchor="start" x="1009" y="-298" font-family="Helvetica,sans-Serif" font-size="10.00">std::list&lt; ant::calibration</text>
<text text-anchor="middle" x="1062" y="-287" font-family="Helvetica,sans-Serif" font-size="10.00">::gui::Indicator *&gt;</text>
</g>
<!-- Node14&#45;&gt;Node11 -->
<g id="edge14" class="edge"><title>Node14&#45;&gt;Node11</title>
<path fill="none" stroke="#9a32cd" stroke-dasharray="5,2" d="M1133.28,-308.036C1158.74,-312.88 1187.7,-318.531 1214,-324 1219.95,-325.237 1226.19,-326.577 1232.37,-327.929"/>
<polygon fill="#9a32cd" stroke="#9a32cd" points="1133.81,-304.575 1123.34,-306.151 1132.51,-311.453 1133.81,-304.575"/>
<text text-anchor="middle" x="1183" y="-327" font-family="Helvetica,sans-Serif" font-size="10.00"> indicators</text>
</g>
<!-- Node15&#45;&gt;Node14 -->
<g id="edge15" class="edge"><title>Node15&#45;&gt;Node14</title>
<path fill="none" stroke="#9a32cd" stroke-dasharray="5,2" d="M909.901,-322.342C938.319,-317.199 972.358,-311.04 1000.93,-305.87"/>
<polygon fill="#9a32cd" stroke="#9a32cd" points="908.923,-318.962 899.706,-324.187 910.169,-325.85 908.923,-318.962"/>
<text text-anchor="middle" x="950" y="-321" font-family="Helvetica,sans-Serif" font-size="10.00"> elements</text>
</g>
<!-- Node16 -->
<g id="node14" class="node"><title>Node16</title>
<polygon fill="white" stroke="#bfbfbf" points="1003,-455 1003,-485 1121,-485 1121,-455 1003,-455"/>
<text text-anchor="start" x="1011" y="-473" font-family="Helvetica,sans-Serif" font-size="10.00">std::stack&lt; FitFunction</text>
<text text-anchor="middle" x="1062" y="-462" font-family="Helvetica,sans-Serif" font-size="10.00">::SavedState_t &gt;</text>
</g>
<!-- Node16&#45;&gt;Node11 -->
<g id="edge17" class="edge"><title>Node16&#45;&gt;Node11</title>
<path fill="none" stroke="#9a32cd" stroke-dasharray="5,2" d="M1131.09,-459.1C1158.55,-452.405 1189.46,-441.765 1214,-425 1241.19,-406.424 1262.37,-373.37 1273.15,-354.101"/>
<polygon fill="#9a32cd" stroke="#9a32cd" points="1130.11,-455.734 1121.15,-461.392 1131.68,-462.555 1130.11,-455.734"/>
<text text-anchor="middle" x="1183" y="-455" font-family="Helvetica,sans-Serif" font-size="10.00"> UndoStack</text>
</g>
<!-- Node17 -->
<g id="node15" class="node"><title>Node17</title>
<g id="a_node15"><a xlink:title="STL class. ">
<polygon fill="white" stroke="#bfbfbf" points="806.5,-460.5 806.5,-479.5 893.5,-479.5 893.5,-460.5 806.5,-460.5"/>
<text text-anchor="middle" x="850" y="-467.5" font-family="Helvetica,sans-Serif" font-size="10.00">std::vector&lt; T &gt;</text>
</a>
</g>
</g>
<!-- Node17&#45;&gt;Node16 -->
<g id="edge18" class="edge"><title>Node17&#45;&gt;Node16</title>
<path fill="none" stroke="#9a32cd" stroke-dasharray="5,2" d="M904.056,-470C934.158,-470 971.874,-470 1002.79,-470"/>
<polygon fill="#9a32cd" stroke="#9a32cd" points="903.75,-466.5 893.75,-470 903.75,-473.5 903.75,-466.5"/>
<text text-anchor="middle" x="950" y="-473" font-family="Helvetica,sans-Serif" font-size="10.00"> elements</text>
</g>
<!-- Node18 -->
<g id="node16" class="node"><title>Node18</title>
<polygon fill="white" stroke="#bfbfbf" points="631.5,-460.5 631.5,-479.5 660.5,-479.5 660.5,-460.5 631.5,-460.5"/>
<text text-anchor="middle" x="646" y="-467.5" font-family="Helvetica,sans-Serif" font-size="10.00">T</text>
</g>
<!-- Node18&#45;&gt;Node17 -->
<g id="edge19" class="edge"><title>Node18&#45;&gt;Node17</title>
<path fill="none" stroke="#9a32cd" stroke-dasharray="5,2" d="M670.72,-470C704.005,-470 765.114,-470 806.396,-470"/>
<polygon fill="#9a32cd" stroke="#9a32cd" points="670.567,-466.5 660.567,-470 670.567,-473.5 670.567,-466.5"/>
<text text-anchor="middle" x="750" y="-473" font-family="Helvetica,sans-Serif" font-size="10.00"> elements</text>
</g>
<!-- Node19 -->
<g id="node17" class="node"><title>Node19</title>
<g id="a_node17"><a xlink:href="structant_1_1calibration_1_1gui_1_1_cal_canvas_1_1axis__settings__t.html" target="_top" xlink:title="ant::calibration::gui\l::CalCanvas::axis_settings_t">
<polygon fill="white" stroke="black" points="990.5,-406 990.5,-436 1133.5,-436 1133.5,-406 990.5,-406"/>
<text text-anchor="start" x="998.5" y="-424" font-family="Helvetica,sans-Serif" font-size="10.00">ant::calibration::gui</text>
<text text-anchor="middle" x="1062" y="-413" font-family="Helvetica,sans-Serif" font-size="10.00">::CalCanvas::axis_settings_t</text>
</a>
</g>
</g>
<!-- Node19&#45;&gt;Node11 -->
<g id="edge20" class="edge"><title>Node19&#45;&gt;Node11</title>
<path fill="none" stroke="#9a32cd" stroke-dasharray="5,2" d="M1143.77,-412.066C1167.13,-407.611 1192.19,-400.951 1214,-391 1233.83,-381.954 1253.12,-365.988 1265.87,-354.126"/>
<polygon fill="#9a32cd" stroke="#9a32cd" points="1143.1,-408.63 1133.88,-413.843 1144.34,-415.52 1143.1,-408.63"/>
<text text-anchor="middle" x="1183" y="-413" font-family="Helvetica,sans-Serif" font-size="10.00"> axis_settings</text>
</g>
<!-- Node20&#45;&gt;Node11 -->
<g id="edge21" class="edge"><title>Node20&#45;&gt;Node11</title>
<path fill="none" stroke="#9a32cd" stroke-dasharray="5,2" d="M1121.55,-262.268C1150.07,-271.065 1184.48,-283 1214,-297 1230,-304.589 1246.89,-315.194 1259.71,-323.849"/>
<polygon fill="#9a32cd" stroke="#9a32cd" points="1122.32,-258.843 1111.73,-259.289 1120.29,-265.541 1122.32,-258.843"/>
<text text-anchor="middle" x="1183" y="-300" font-family="Helvetica,sans-Serif" font-size="10.00"> func</text>
</g>
<!-- Node21 -->
<g id="node19" class="node"><title>Node21</title>
<polygon fill="white" stroke="#bfbfbf" points="790,-269 790,-299 910,-299 910,-269 790,-269"/>
<text text-anchor="start" x="798" y="-287" font-family="Helvetica,sans-Serif" font-size="10.00">std::list&lt; std::unique</text>
<text text-anchor="middle" x="850" y="-276" font-family="Helvetica,sans-Serif" font-size="10.00">_ptr&lt; IndicatorKnob &gt; &gt;</text>
</g>
<!-- Node21&#45;&gt;Node20 -->
<g id="edge22" class="edge"><title>Node21&#45;&gt;Node20</title>
<path fill="none" stroke="#9a32cd" stroke-dasharray="5,2" d="M920.094,-271.497C950.252,-266.04 984.903,-259.77 1012.3,-254.813"/>
<polygon fill="#9a32cd" stroke="#9a32cd" points="919.273,-268.089 910.056,-273.314 920.519,-274.977 919.273,-268.089"/>
<text text-anchor="middle" x="950" y="-272" font-family="Helvetica,sans-Serif" font-size="10.00"> knobs</text>
</g>
<!-- Node22 -->
<g id="node20" class="node"><title>Node22</title>
<polygon fill="white" stroke="#bfbfbf" points="582,-270 582,-300 710,-300 710,-270 582,-270"/>
<text text-anchor="start" x="590" y="-288" font-family="Helvetica,sans-Serif" font-size="10.00">std::unique_ptr&lt; Indicator</text>
<text text-anchor="middle" x="646" y="-277" font-family="Helvetica,sans-Serif" font-size="10.00">Knob &gt;</text>
</g>
<!-- Node22&#45;&gt;Node21 -->
<g id="edge23" class="edge"><title>Node22&#45;&gt;Node21</title>
<path fill="none" stroke="#9a32cd" stroke-dasharray="5,2" d="M720.102,-284.638C743.017,-284.525 768.01,-284.401 789.837,-284.293"/>
<polygon fill="#9a32cd" stroke="#9a32cd" points="720.066,-281.138 710.083,-284.688 720.1,-288.138 720.066,-281.138"/>
<text text-anchor="middle" x="750" y="-287" font-family="Helvetica,sans-Serif" font-size="10.00"> elements</text>
</g>
<!-- Node23&#45;&gt;Node22 -->
<g id="edge24" class="edge"><title>Node23&#45;&gt;Node22</title>
<path fill="none" stroke="#9a32cd" stroke-dasharray="5,2" d="M477.832,-285C509.725,-285 549.159,-285 581.716,-285"/>
<polygon fill="#9a32cd" stroke="#9a32cd" points="477.76,-281.5 467.76,-285 477.76,-288.5 477.76,-281.5"/>
<text text-anchor="middle" x="533" y="-288" font-family="Helvetica,sans-Serif" font-size="10.00"> ptr</text>
</g>
<!-- Node24 -->
<g id="node22" class="node"><title>Node24</title>
<g id="a_node22"><a xlink:href="structant_1_1calibration_1_1gui_1_1_indicator_properties.html" target="_top" xlink:title="ant::calibration::gui\l::IndicatorProperties">
<polygon fill="white" stroke="black" points="137,-292 137,-322 241,-322 241,-292 137,-292"/>
<text text-anchor="start" x="145" y="-310" font-family="Helvetica,sans-Serif" font-size="10.00">ant::calibration::gui</text>
<text text-anchor="middle" x="189" y="-299" font-family="Helvetica,sans-Serif" font-size="10.00">::IndicatorProperties</text>
</a>
</g>
</g>
<!-- Node24&#45;&gt;Node23 -->
<g id="edge26" class="edge"><title>Node24&#45;&gt;Node23</title>
<path fill="none" stroke="#9a32cd" stroke-dasharray="5,2" d="M251.319,-301.057C288.039,-297.498 334.074,-293.037 368.294,-289.72"/>
<polygon fill="#9a32cd" stroke="#9a32cd" points="250.842,-297.587 241.226,-302.035 251.517,-304.554 250.842,-297.587"/>
<text text-anchor="middle" x="298" y="-302" font-family="Helvetica,sans-Serif" font-size="10.00"> gui</text>
</g>
</g>
</svg>
