<?xml version="1.0" encoding="UTF-8" standalone="no"?>
<!DOCTYPE svg PUBLIC "-//W3C//DTD SVG 1.1//EN"
 "http://www.w3.org/Graphics/SVG/1.1/DTD/svg11.dtd">
<!-- Generated by graphviz version 2.36.0 (20140111.2315)
 -->
<!-- Title: FitTAPS_Energy Pages: 1 -->
<svg width="114pt" height="232pt"
 viewBox="0.00 0.00 114.00 232.00" xmlns="http://www.w3.org/2000/svg" xmlns:xlink="http://www.w3.org/1999/xlink">
<g id="graph0" class="graph" transform="scale(1 1) rotate(0) translate(4 228)">
<title>FitTAPS_Energy</title>
<polygon fill="white" stroke="none" points="-4,4 -4,-228 110,-228 110,4 -4,4"/>
<!-- Node0 -->
<g id="node1" class="node"><title>Node0</title>
<polygon fill="#bfbfbf" stroke="black" points="8,-0.5 8,-19.5 98,-19.5 98,-0.5 8,-0.5"/>
<text text-anchor="middle" x="53" y="-7.5" font-family="Helvetica,sans-Serif" font-size="10.00">FitTAPS_Energy</text>
</g>
<!-- Node1 -->
<g id="node2" class="node"><title>Node1</title>
<g id="a_node2"><a xlink:href="classant_1_1calibration_1_1gui_1_1_fit_gaus_pol3.html" target="_top" xlink:title="ant::calibration::gui\l::FitGausPol3">
<polygon fill="white" stroke="black" points="3.5,-57 3.5,-87 102.5,-87 102.5,-57 3.5,-57"/>
<text text-anchor="start" x="11.5" y="-75" font-family="Helvetica,sans-Serif" font-size="10.00">ant::calibration::gui</text>
<text text-anchor="middle" x="53" y="-64" font-family="Helvetica,sans-Serif" font-size="10.00">::FitGausPol3</text>
</a>
</g>
</g>
<!-- Node1&#45;&gt;Node0 -->
<g id="edge1" class="edge"><title>Node1&#45;&gt;Node0</title>
<path fill="none" stroke="midnightblue" d="M53,-46.5858C53,-37.0743 53,-26.7864 53,-19.7305"/>
<polygon fill="midnightblue" stroke="midnightblue" points="49.5001,-46.7808 53,-56.7808 56.5001,-46.7809 49.5001,-46.7808"/>
</g>
<!-- Node2 -->
<g id="node3" class="node"><title>Node2</title>
<g id="a_node3"><a xlink:href="classant_1_1calibration_1_1gui_1_1_peaking_fit_function.html" target="_top" xlink:title="Fit functions describing peak shapes, like Gaus or Lorentz with optional background function...">
<polygon fill="white" stroke="black" points="-0.5,-125 -0.5,-155 106.5,-155 106.5,-125 -0.5,-125"/>
<text text-anchor="start" x="7.5" y="-143" font-family="Helvetica,sans-Serif" font-size="10.00">ant::calibration::gui</text>
<text text-anchor="middle" x="53" y="-132" font-family="Helvetica,sans-Serif" font-size="10.00">::PeakingFitFunction</text>
</a>
</g>
</g>
<!-- Node2&#45;&gt;Node1 -->
<g id="edge2" class="edge"><title>Node2&#45;&gt;Node1</title>
<path fill="none" stroke="midnightblue" d="M53,-114.532C53,-105.361 53,-95.2449 53,-87.2931"/>
<polygon fill="midnightblue" stroke="midnightblue" points="49.5001,-114.679 53,-124.679 56.5001,-114.679 49.5001,-114.679"/>
</g>
<!-- Node3 -->
<g id="node4" class="node"><title>Node3</title>
<g id="a_node4"><a xlink:href="classant_1_1calibration_1_1gui_1_1_fit_function.html" target="_top" xlink:title="ant::calibration::gui\l::FitFunction">
<polygon fill="white" stroke="black" points="3.5,-193 3.5,-223 102.5,-223 102.5,-193 3.5,-193"/>
<text text-anchor="start" x="11.5" y="-211" font-family="Helvetica,sans-Serif" font-size="10.00">ant::calibration::gui</text>
<text text-anchor="middle" x="53" y="-200" font-family="Helvetica,sans-Serif" font-size="10.00">::FitFunction</text>
</a>
</g>
</g>
<!-- Node3&#45;&gt;Node2 -->
<g id="edge3" class="edge"><title>Node3&#45;&gt;Node2</title>
<path fill="none" stroke="midnightblue" d="M53,-182.532C53,-173.361 53,-163.245 53,-155.293"/>
<polygon fill="midnightblue" stroke="midnightblue" points="49.5001,-182.679 53,-192.679 56.5001,-182.679 49.5001,-182.679"/>
</g>
</g>
</svg>
