<?xml version="1.0" encoding="UTF-8" standalone="no"?>
<!DOCTYPE svg PUBLIC "-//W3C//DTD SVG 1.1//EN"
 "http://www.w3.org/Graphics/SVG/1.1/DTD/svg11.dtd">
<!-- Generated by graphviz version 2.36.0 (20140111.2315)
 -->
<!-- Title: McAction Pages: 1 -->
<svg width="155pt" height="84pt"
 viewBox="0.00 0.00 155.00 84.00" xmlns="http://www.w3.org/2000/svg" xmlns:xlink="http://www.w3.org/1999/xlink">
<g id="graph0" class="graph" transform="scale(1 1) rotate(0) translate(4 80)">
<title>McAction</title>
<polygon fill="white" stroke="none" points="-4,4 -4,-80 151,-80 151,4 -4,4"/>
<!-- Node0 -->
<g id="node1" class="node"><title>Node0</title>
<polygon fill="#bfbfbf" stroke="black" points="43,-56.5 43,-75.5 101,-75.5 101,-56.5 43,-56.5"/>
<text text-anchor="middle" x="72" y="-63.5" font-family="Helvetica,sans-Serif" font-size="10.00">McAction</text>
</g>
<!-- Node1 -->
<g id="node2" class="node"><title>Node1</title>
<g id="a_node2"><a xlink:href="struct_gun_action.html" target="_top" xlink:title="GunAction">
<polygon fill="white" stroke="black" points="0,-0.5 0,-19.5 62,-19.5 62,-0.5 0,-0.5"/>
<text text-anchor="middle" x="31" y="-7.5" font-family="Helvetica,sans-Serif" font-size="10.00">GunAction</text>
</a>
</g>
</g>
<!-- Node0&#45;&gt;Node1 -->
<g id="edge1" class="edge"><title>Node0&#45;&gt;Node1</title>
<path fill="none" stroke="midnightblue" d="M58.9828,-47.8554C51.8833,-38.5048 43.396,-27.3265 37.6443,-19.7511"/>
<polygon fill="midnightblue" stroke="midnightblue" points="56.395,-50.235 65.2297,-56.083 61.9701,-46.002 56.395,-50.235"/>
</g>
<!-- Node2 -->
<g id="node3" class="node"><title>Node2</title>
<g id="a_node3"><a xlink:href="struct_pluto_action.html" target="_top" xlink:title="PlutoAction">
<polygon fill="white" stroke="black" points="80.5,-0.5 80.5,-19.5 147.5,-19.5 147.5,-0.5 80.5,-0.5"/>
<text text-anchor="middle" x="114" y="-7.5" font-family="Helvetica,sans-Serif" font-size="10.00">PlutoAction</text>
</a>
</g>
</g>
<!-- Node0&#45;&gt;Node2 -->
<g id="edge2" class="edge"><title>Node0&#45;&gt;Node2</title>
<path fill="none" stroke="midnightblue" d="M85.1102,-48.144C92.4278,-38.7357 101.241,-27.4046 107.194,-19.7511"/>
<polygon fill="midnightblue" stroke="midnightblue" points="82.3122,-46.0406 78.9354,-56.083 87.8376,-50.3383 82.3122,-46.0406"/>
</g>
</g>
</svg>
