<?xml version="1.0" encoding="UTF-8" standalone="no"?>
<!DOCTYPE svg PUBLIC "-//W3C//DTD SVG 1.1//EN"
 "http://www.w3.org/Graphics/SVG/1.1/DTD/svg11.dtd">
<!-- Generated by graphviz version 2.36.0 (20140111.2315)
 -->
<!-- Title: FileInfo_t Pages: 1 -->
<svg width="295pt" height="278pt"
 viewBox="0.00 0.00 295.00 278.00" xmlns="http://www.w3.org/2000/svg" xmlns:xlink="http://www.w3.org/1999/xlink">
<g id="graph0" class="graph" transform="scale(1 1) rotate(0) translate(4 274)">
<title>FileInfo_t</title>
<polygon fill="white" stroke="none" points="-4,4 -4,-274 291,-274 291,4 -4,4"/>
<!-- Node1 -->
<g id="node1" class="node"><title>Node1</title>
<polygon fill="#bfbfbf" stroke="black" points="153.5,-0.5 153.5,-19.5 210.5,-19.5 210.5,-0.5 153.5,-0.5"/>
<text text-anchor="middle" x="182" y="-7.5" font-family="Helvetica,sans-Serif" font-size="10.00">FileInfo_t</text>
</g>
<!-- Node2 -->
<g id="node2" class="node"><title>Node2</title>
<g id="a_node2"><a xlink:href="structant_1_1_t_ant_header.html" target="_top" xlink:title="The TAntHeader class holds information about the histogram file. ">
<polygon fill="white" stroke="black" points="65.5,-68.5 65.5,-87.5 154.5,-87.5 154.5,-68.5 65.5,-68.5"/>
<text text-anchor="middle" x="110" y="-75.5" font-family="Helvetica,sans-Serif" font-size="10.00">ant::TAntHeader</text>
</a>
</g>
</g>
<!-- Node2&#45;&gt;Node1 -->
<g id="edge1" class="edge"><title>Node2&#45;&gt;Node1</title>
<path fill="none" stroke="#9a32cd" stroke-dasharray="5,2" d="M127.005,-61.4122C141.149,-48.4468 160.775,-30.4559 172.355,-19.8411"/>
<polygon fill="#9a32cd" stroke="#9a32cd" points="124.419,-59.0343 119.413,-68.3717 129.149,-64.1944 124.419,-59.0343"/>
<text text-anchor="middle" x="178" y="-41.5" font-family="Helvetica,sans-Serif" font-size="10.00"> AntHeader</text>
</g>
<!-- Node3 -->
<g id="node3" class="node"><title>Node3</title>
<polygon fill="white" stroke="#bfbfbf" points="0,-180.5 0,-199.5 54,-199.5 54,-180.5 0,-180.5"/>
<text text-anchor="middle" x="27" y="-187.5" font-family="Helvetica,sans-Serif" font-size="10.00">TNamed</text>
</g>
<!-- Node3&#45;&gt;Node2 -->
<g id="edge2" class="edge"><title>Node3&#45;&gt;Node2</title>
<path fill="none" stroke="midnightblue" d="M39.6217,-172.272C57.5635,-148.494 89.7865,-105.789 103.517,-87.5914"/>
<polygon fill="midnightblue" stroke="midnightblue" points="36.7422,-170.278 33.5129,-180.368 42.33,-174.494 36.7422,-170.278"/>
</g>
<!-- Node4 -->
<g id="node4" class="node"><title>Node4</title>
<g id="a_node4"><a xlink:href="structant_1_1_t_i_d.html" target="_top" xlink:title="ant::TID">
<polygon fill="white" stroke="black" points="72.5,-180.5 72.5,-199.5 125.5,-199.5 125.5,-180.5 72.5,-180.5"/>
<text text-anchor="middle" x="99" y="-187.5" font-family="Helvetica,sans-Serif" font-size="10.00">ant::TID</text>
</a>
</g>
</g>
<!-- Node4&#45;&gt;Node2 -->
<g id="edge3" class="edge"><title>Node4&#45;&gt;Node2</title>
<path fill="none" stroke="#9a32cd" stroke-dasharray="5,2" d="M97.398,-169.949C96.4061,-153.009 95.986,-127.643 100,-106 101.167,-99.709 103.667,-92.959 105.875,-87.7817"/>
<polygon fill="#9a32cd" stroke="#9a32cd" points="93.9252,-170.456 98.1285,-180.181 100.907,-169.957 93.9252,-170.456"/>
<text text-anchor="middle" x="116.5" y="-137" font-family="Helvetica,sans-Serif" font-size="10.00"> LastID</text>
<text text-anchor="middle" x="116.5" y="-126" font-family="Helvetica,sans-Serif" font-size="10.00">FirstID</text>
</g>
<!-- Node5 -->
<g id="node5" class="node"><title>Node5</title>
<g id="a_node5"><a xlink:title="STL class. ">
<polygon fill="white" stroke="#bfbfbf" points="183,-180.5 183,-199.5 243,-199.5 243,-180.5 183,-180.5"/>
<text text-anchor="middle" x="213" y="-187.5" font-family="Helvetica,sans-Serif" font-size="10.00">std::string</text>
</a>
</g>
</g>
<!-- Node5&#45;&gt;Node2 -->
<g id="edge4" class="edge"><title>Node5&#45;&gt;Node2</title>
<path fill="none" stroke="#9a32cd" stroke-dasharray="5,2" d="M173.577,-177.28C165.619,-173.445 157.897,-168.451 152,-162 134.267,-142.602 145.975,-128.856 133,-106 129.23,-99.3599 123.716,-92.8176 119.032,-87.8364"/>
<polygon fill="#9a32cd" stroke="#9a32cd" points="172.36,-180.566 182.932,-181.268 175.105,-174.127 172.36,-180.566"/>
<text text-anchor="middle" x="189.5" y="-153.5" font-family="Helvetica,sans-Serif" font-size="10.00"> GitInfoDatabase</text>
<text text-anchor="middle" x="189.5" y="-142.5" font-family="Helvetica,sans-Serif" font-size="10.00">GitInfo</text>
<text text-anchor="middle" x="189.5" y="-131.5" font-family="Helvetica,sans-Serif" font-size="10.00">CmdLine</text>
<text text-anchor="middle" x="189.5" y="-120.5" font-family="Helvetica,sans-Serif" font-size="10.00">WorkingDir</text>
<text text-anchor="middle" x="189.5" y="-109.5" font-family="Helvetica,sans-Serif" font-size="10.00">SetupName</text>
</g>
<!-- Node7 -->
<g id="node7" class="node"><title>Node7</title>
<polygon fill="white" stroke="#bfbfbf" points="195,-68.5 195,-87.5 287,-87.5 287,-68.5 195,-68.5"/>
<text text-anchor="middle" x="241" y="-75.5" font-family="Helvetica,sans-Serif" font-size="10.00">std::set&lt; string &gt;</text>
</g>
<!-- Node5&#45;&gt;Node7 -->
<g id="edge7" class="edge"><title>Node5&#45;&gt;Node7</title>
<path fill="none" stroke="#9a32cd" stroke-dasharray="5,2" d="M226.258,-171.629C228.109,-168.549 229.789,-165.276 231,-162 240.558,-136.133 241.437,-102.942 241.255,-87.5478"/>
<polygon fill="#9a32cd" stroke="#9a32cd" points="223.229,-169.859 220.49,-180.094 229.014,-173.801 223.229,-169.859"/>
<text text-anchor="middle" x="252.5" y="-131.5" font-family="Helvetica,sans-Serif" font-size="10.00"> keys</text>
</g>
<!-- Node6 -->
<g id="node6" class="node"><title>Node6</title>
<g id="a_node6"><a xlink:title="STL class. ">
<polygon fill="white" stroke="#bfbfbf" points="165.5,-239 165.5,-269 260.5,-269 260.5,-239 165.5,-239"/>
<text text-anchor="start" x="173.5" y="-257" font-family="Helvetica,sans-Serif" font-size="10.00">std::basic_string&lt;</text>
<text text-anchor="middle" x="213" y="-246" font-family="Helvetica,sans-Serif" font-size="10.00"> char &gt;</text>
</a>
</g>
</g>
<!-- Node6&#45;&gt;Node5 -->
<g id="edge5" class="edge"><title>Node6&#45;&gt;Node5</title>
<path fill="none" stroke="midnightblue" d="M213,-228.871C213,-218.663 213,-207.408 213,-199.842"/>
<polygon fill="midnightblue" stroke="midnightblue" points="209.5,-228.931 213,-238.931 216.5,-228.931 209.5,-228.931"/>
</g>
<!-- Node7&#45;&gt;Node1 -->
<g id="edge6" class="edge"><title>Node7&#45;&gt;Node1</title>
<path fill="none" stroke="#9a32cd" stroke-dasharray="5,2" d="M226.411,-60.68C214.876,-47.7768 199.215,-30.2575 189.903,-19.8411"/>
<polygon fill="#9a32cd" stroke="#9a32cd" points="224.013,-63.2489 233.287,-68.3717 229.231,-58.5836 224.013,-63.2489"/>
<text text-anchor="middle" x="243.5" y="-41.5" font-family="Helvetica,sans-Serif" font-size="10.00"> TreeNames</text>
</g>
</g>
</svg>
