<?xml version="1.0" encoding="UTF-8" standalone="no"?>
<!DOCTYPE svg PUBLIC "-//W3C//DTD SVG 1.1//EN"
 "http://www.w3.org/Graphics/SVG/1.1/DTD/svg11.dtd">
<!-- Generated by graphviz version 2.36.0 (20140111.2315)
 -->
<!-- Title: ant::analysis::physics::debugTaggEff Pages: 1 -->
<svg width="292pt" height="200pt"
 viewBox="0.00 0.00 292.00 200.00" xmlns="http://www.w3.org/2000/svg" xmlns:xlink="http://www.w3.org/1999/xlink">
<g id="graph0" class="graph" transform="scale(1 1) rotate(0) translate(4 196)">
<title>ant::analysis::physics::debugTaggEff</title>
<polygon fill="white" stroke="none" points="-4,4 -4,-196 288,-196 288,4 -4,4"/>
<!-- Node2 -->
<g id="node1" class="node"><title>Node2</title>
<polygon fill="#bfbfbf" stroke="black" points="94,-1 94,-31 206,-31 206,-1 94,-1"/>
<text text-anchor="start" x="102" y="-19" font-family="Helvetica,sans-Serif" font-size="10.00">ant::analysis::physics</text>
<text text-anchor="middle" x="150" y="-8" font-family="Helvetica,sans-Serif" font-size="10.00">::debugTaggEff</text>
</g>
<!-- Node3 -->
<g id="node2" class="node"><title>Node3</title>
<g id="a_node2"><a xlink:href="classant_1_1analysis_1_1_physics.html" target="_top" xlink:title="ant::analysis::Physics">
<polygon fill="white" stroke="black" points="4.5,-86.5 4.5,-105.5 117.5,-105.5 117.5,-86.5 4.5,-86.5"/>
<text text-anchor="middle" x="61" y="-93.5" font-family="Helvetica,sans-Serif" font-size="10.00">ant::analysis::Physics</text>
</a>
</g>
</g>
<!-- Node3&#45;&gt;Node2 -->
<g id="edge1" class="edge"><title>Node3&#45;&gt;Node2</title>
<path fill="none" stroke="midnightblue" d="M78.4878,-79.6736C94.5368,-65.6082 118.126,-44.9342 133.767,-31.227"/>
<polygon fill="midnightblue" stroke="midnightblue" points="76.0783,-77.1314 70.8646,-86.3546 80.692,-82.3957 76.0783,-77.1314"/>
</g>
<!-- Node4 -->
<g id="node3" class="node"><title>Node4</title>
<g id="a_node3"><a xlink:href="classant_1_1analysis_1_1_histogram_factory.html" target="_top" xlink:title="ant::analysis::Histogram\lFactory">
<polygon fill="white" stroke="black" points="-0.5,-161 -0.5,-191 122.5,-191 122.5,-161 -0.5,-161"/>
<text text-anchor="start" x="7.5" y="-179" font-family="Helvetica,sans-Serif" font-size="10.00">ant::analysis::Histogram</text>
<text text-anchor="middle" x="61" y="-168" font-family="Helvetica,sans-Serif" font-size="10.00">Factory</text>
</a>
</g>
</g>
<!-- Node4&#45;&gt;Node3 -->
<g id="edge2" class="edge"><title>Node4&#45;&gt;Node3</title>
<path fill="none" stroke="#9a32cd" stroke-dasharray="5,2" d="M61,-150.394C61,-135.208 61,-116.635 61,-105.876"/>
<polygon fill="#9a32cd" stroke="#9a32cd" points="57.5001,-150.694 61,-160.694 64.5001,-150.694 57.5001,-150.694"/>
<text text-anchor="middle" x="80" y="-133.5" font-family="Helvetica,sans-Serif" font-size="10.00"> HistFac</text>
</g>
<!-- Node5 -->
<g id="node4" class="node"><title>Node5</title>
<g id="a_node4"><a xlink:href="structant_1_1analysis_1_1physics_1_1debug_tagg_eff_1_1tagg_eff_tree__t.html" target="_top" xlink:title="ant::analysis::physics\l::debugTaggEff::taggEffTree_t">
<polygon fill="white" stroke="black" points="135.5,-81 135.5,-111 284.5,-111 284.5,-81 135.5,-81"/>
<text text-anchor="start" x="143.5" y="-99" font-family="Helvetica,sans-Serif" font-size="10.00">ant::analysis::physics</text>
<text text-anchor="middle" x="210" y="-88" font-family="Helvetica,sans-Serif" font-size="10.00">::debugTaggEff::taggEffTree_t</text>
</a>
</g>
</g>
<!-- Node5&#45;&gt;Node2 -->
<g id="edge3" class="edge"><title>Node5&#45;&gt;Node2</title>
<path fill="none" stroke="#9a32cd" stroke-dasharray="5,2" d="M192.681,-72.4858C182.446,-59.1793 169.796,-42.7348 160.935,-31.2157"/>
<polygon fill="#9a32cd" stroke="#9a32cd" points="190.124,-74.9013 198.995,-80.6936 195.672,-70.6333 190.124,-74.9013"/>
<text text-anchor="middle" x="212" y="-53.5" font-family="Helvetica,sans-Serif" font-size="10.00"> TaggEffTree</text>
</g>
<!-- Node6 -->
<g id="node5" class="node"><title>Node6</title>
<g id="a_node5"><a xlink:href="classant_1_1_wrap_t_tree.html" target="_top" xlink:title="The WrapTTree struct simplifies TTree handling in physics classes. ">
<polygon fill="white" stroke="black" points="167.5,-166.5 167.5,-185.5 252.5,-185.5 252.5,-166.5 167.5,-166.5"/>
<text text-anchor="middle" x="210" y="-173.5" font-family="Helvetica,sans-Serif" font-size="10.00">ant::WrapTTree</text>
</a>
</g>
</g>
<!-- Node6&#45;&gt;Node5 -->
<g id="edge4" class="edge"><title>Node6&#45;&gt;Node5</title>
<path fill="none" stroke="midnightblue" d="M210,-156.062C210,-142.242 210,-123.802 210,-111.227"/>
<polygon fill="midnightblue" stroke="midnightblue" points="206.5,-156.355 210,-166.355 213.5,-156.355 206.5,-156.355"/>
</g>
</g>
</svg>
