<?xml version="1.0" encoding="UTF-8" standalone="no"?>
<!DOCTYPE svg PUBLIC "-//W3C//DTD SVG 1.1//EN"
 "http://www.w3.org/Graphics/SVG/1.1/DTD/svg11.dtd">
<!-- Generated by graphviz version 2.36.0 (20140111.2315)
 -->
<!-- Title: EtapDalitz_plot&lt; Hist_t &gt; Pages: 1 -->
<svg width="136pt" height="166pt"
 viewBox="0.00 0.00 136.00 166.00" xmlns="http://www.w3.org/2000/svg" xmlns:xlink="http://www.w3.org/1999/xlink">
<g id="graph0" class="graph" transform="scale(1 1) rotate(0) translate(4 162)">
<title>EtapDalitz_plot&lt; Hist_t &gt;</title>
<polygon fill="white" stroke="none" points="-4,4 -4,-162 132,-162 132,4 -4,4"/>
<!-- Node2 -->
<g id="node1" class="node"><title>Node2</title>
<polygon fill="#bfbfbf" stroke="black" points="0,-0.5 0,-19.5 128,-19.5 128,-0.5 0,-0.5"/>
<text text-anchor="middle" x="64" y="-7.5" font-family="Helvetica,sans-Serif" font-size="10.00">EtapDalitz_plot&lt; Hist_t &gt;</text>
</g>
<!-- Node3 -->
<g id="node2" class="node"><title>Node3</title>
<g id="a_node2"><a xlink:href="classant_1_1analysis_1_1_plotter.html" target="_top" xlink:title="ant::analysis::Plotter">
<polygon fill="white" stroke="black" points="10.5,-58.5 10.5,-77.5 117.5,-77.5 117.5,-58.5 10.5,-58.5"/>
<text text-anchor="middle" x="64" y="-65.5" font-family="Helvetica,sans-Serif" font-size="10.00">ant::analysis::Plotter</text>
</a>
</g>
</g>
<!-- Node3&#45;&gt;Node2 -->
<g id="edge1" class="edge"><title>Node3&#45;&gt;Node2</title>
<path fill="none" stroke="midnightblue" d="M64,-47.953C64,-38.2875 64,-27.0312 64,-19.5052"/>
<polygon fill="midnightblue" stroke="midnightblue" points="60.5001,-48.25 64,-58.25 67.5001,-48.25 60.5001,-48.25"/>
</g>
<!-- Node4 -->
<g id="node3" class="node"><title>Node4</title>
<g id="a_node3"><a xlink:href="classant_1_1analysis_1_1_histogram_factory.html" target="_top" xlink:title="ant::analysis::Histogram\lFactory">
<polygon fill="white" stroke="black" points="2.5,-127 2.5,-157 125.5,-157 125.5,-127 2.5,-127"/>
<text text-anchor="start" x="10.5" y="-145" font-family="Helvetica,sans-Serif" font-size="10.00">ant::analysis::Histogram</text>
<text text-anchor="middle" x="64" y="-134" font-family="Helvetica,sans-Serif" font-size="10.00">Factory</text>
</a>
</g>
</g>
<!-- Node4&#45;&gt;Node3 -->
<g id="edge2" class="edge"><title>Node4&#45;&gt;Node3</title>
<path fill="none" stroke="#9a32cd" stroke-dasharray="5,2" d="M64,-116.688C64,-103.253 64,-87.3805 64,-77.7589"/>
<polygon fill="#9a32cd" stroke="#9a32cd" points="60.5001,-116.775 64,-126.775 67.5001,-116.775 60.5001,-116.775"/>
<text text-anchor="middle" x="83" y="-99.5" font-family="Helvetica,sans-Serif" font-size="10.00"> HistFac</text>
</g>
</g>
</svg>
