<?xml version="1.0" encoding="UTF-8" standalone="no"?>
<!DOCTYPE svg PUBLIC "-//W3C//DTD SVG 1.1//EN"
 "http://www.w3.org/Graphics/SVG/1.1/DTD/svg11.dtd">
<!-- Generated by graphviz version 2.36.0 (20140111.2315)
 -->
<!-- Title: src/base/std_ext/system.h Pages: 1 -->
<svg width="140pt" height="84pt"
 viewBox="0.00 0.00 140.00 84.00" xmlns="http://www.w3.org/2000/svg" xmlns:xlink="http://www.w3.org/1999/xlink">
<g id="graph0" class="graph" transform="scale(1 1) rotate(0) translate(4 80)">
<title>src/base/std_ext/system.h</title>
<polygon fill="white" stroke="none" points="-4,4 -4,-80 136,-80 136,4 -4,4"/>
<!-- Node0 -->
<g id="node1" class="node"><title>Node0</title>
<polygon fill="#bfbfbf" stroke="black" points="-0.5,-56.5 -0.5,-75.5 132.5,-75.5 132.5,-56.5 -0.5,-56.5"/>
<text text-anchor="middle" x="66" y="-63.5" font-family="Helvetica,sans-Serif" font-size="10.00">src/base/std_ext/system.h</text>
</g>
<!-- Node1 -->
<g id="node2" class="node"><title>Node1</title>
<polygon fill="white" stroke="#bfbfbf" points="25.5,-0.5 25.5,-19.5 54.5,-19.5 54.5,-0.5 25.5,-0.5"/>
<text text-anchor="middle" x="40" y="-7.5" font-family="Helvetica,sans-Serif" font-size="10.00">list</text>
</g>
<!-- Node0&#45;&gt;Node1 -->
<g id="edge1" class="edge"><title>Node0&#45;&gt;Node1</title>
<path fill="none" stroke="midnightblue" d="M61.7066,-56.083C58.1477,-48.6913 52.9775,-37.9533 48.5757,-28.8111"/>
<polygon fill="midnightblue" stroke="midnightblue" points="51.7052,-27.2427 44.2135,-19.7511 45.3982,-30.2795 51.7052,-27.2427"/>
</g>
<!-- Node2 -->
<g id="node3" class="node"><title>Node2</title>
<polygon fill="white" stroke="#bfbfbf" points="72.5,-0.5 72.5,-19.5 113.5,-19.5 113.5,-0.5 72.5,-0.5"/>
<text text-anchor="middle" x="93" y="-7.5" font-family="Helvetica,sans-Serif" font-size="10.00">string</text>
</g>
<!-- Node0&#45;&gt;Node2 -->
<g id="edge2" class="edge"><title>Node0&#45;&gt;Node2</title>
<path fill="none" stroke="midnightblue" d="M70.4585,-56.083C74.1543,-48.6913 79.5234,-37.9533 84.0945,-28.8111"/>
<polygon fill="midnightblue" stroke="midnightblue" points="87.2828,-30.2606 88.6245,-19.7511 81.0218,-27.1301 87.2828,-30.2606"/>
</g>
</g>
</svg>
