<?xml version="1.0" encoding="UTF-8" standalone="no"?>
<!DOCTYPE svg PUBLIC "-//W3C//DTD SVG 1.1//EN"
 "http://www.w3.org/Graphics/SVG/1.1/DTD/svg11.dtd">
<!-- Generated by graphviz version 2.36.0 (20140111.2315)
 -->
<!-- Title: progs/detail/taggEffClasses.h Pages: 1 -->
<svg width="436pt" height="84pt"
 viewBox="0.00 0.00 436.00 84.00" xmlns="http://www.w3.org/2000/svg" xmlns:xlink="http://www.w3.org/1999/xlink">
<g id="graph0" class="graph" transform="scale(1 1) rotate(0) translate(4 80)">
<title>progs/detail/taggEffClasses.h</title>
<polygon fill="white" stroke="none" points="-4,4 -4,-80 432,-80 432,4 -4,4"/>
<!-- Node82 -->
<g id="node1" class="node"><title>Node82</title>
<polygon fill="#bfbfbf" stroke="black" points="155,-56.5 155,-75.5 301,-75.5 301,-56.5 155,-56.5"/>
<text text-anchor="middle" x="228" y="-63.5" font-family="Helvetica,sans-Serif" font-size="10.00">progs/detail/taggEffClasses.h</text>
</g>
<!-- Node83 -->
<g id="node2" class="node"><title>Node83</title>
<g id="a_node2"><a xlink:href="_ant-make_tagg_eff_8cc.html" target="_top" xlink:title="progs/Ant&#45;makeTaggEff.cc">
<polygon fill="white" stroke="black" points="0,-0.5 0,-19.5 134,-19.5 134,-0.5 0,-0.5"/>
<text text-anchor="middle" x="67" y="-7.5" font-family="Helvetica,sans-Serif" font-size="10.00">progs/Ant&#45;makeTaggEff.cc</text>
</a>
</g>
</g>
<!-- Node82&#45;&gt;Node83 -->
<g id="edge1" class="edge"><title>Node82&#45;&gt;Node83</title>
<path fill="none" stroke="midnightblue" d="M192.735,-53.172C162.419,-43.0039 119.43,-28.5852 92.3916,-19.5164"/>
<polygon fill="midnightblue" stroke="midnightblue" points="191.895,-56.5819 202.489,-56.4435 194.121,-49.9452 191.895,-56.5819"/>
</g>
<!-- Node84 -->
<g id="node3" class="node"><title>Node84</title>
<g id="a_node3"><a xlink:href="tagg_eff_classes_8cc.html" target="_top" xlink:title="progs/detail/taggEffClasses.cc">
<polygon fill="white" stroke="black" points="152.5,-0.5 152.5,-19.5 303.5,-19.5 303.5,-0.5 152.5,-0.5"/>
<text text-anchor="middle" x="228" y="-7.5" font-family="Helvetica,sans-Serif" font-size="10.00">progs/detail/taggEffClasses.cc</text>
</a>
</g>
</g>
<!-- Node82&#45;&gt;Node84 -->
<g id="edge2" class="edge"><title>Node82&#45;&gt;Node84</title>
<path fill="none" stroke="midnightblue" d="M228,-45.8045C228,-36.9102 228,-26.7798 228,-19.7511"/>
<polygon fill="midnightblue" stroke="midnightblue" points="224.5,-46.083 228,-56.083 231.5,-46.083 224.5,-46.083"/>
</g>
<!-- Node85 -->
<g id="node4" class="node"><title>Node85</title>
<g id="a_node4"><a xlink:href="tagg_eff_plot_8cc.html" target="_top" xlink:title="progs/taggEffPlot.cc">
<polygon fill="white" stroke="black" points="322,-0.5 322,-19.5 428,-19.5 428,-0.5 322,-0.5"/>
<text text-anchor="middle" x="375" y="-7.5" font-family="Helvetica,sans-Serif" font-size="10.00">progs/taggEffPlot.cc</text>
</a>
</g>
</g>
<!-- Node82&#45;&gt;Node85 -->
<g id="edge3" class="edge"><title>Node82&#45;&gt;Node85</title>
<path fill="none" stroke="midnightblue" d="M260.923,-52.9058C288.56,-42.7536 327.344,-28.5063 351.816,-19.5164"/>
<polygon fill="midnightblue" stroke="midnightblue" points="259.472,-49.71 251.293,-56.4435 261.886,-56.2806 259.472,-49.71"/>
</g>
</g>
</svg>
