<?xml version="1.0" encoding="UTF-8" standalone="no"?>
<!DOCTYPE svg PUBLIC "-//W3C//DTD SVG 1.1//EN"
 "http://www.w3.org/Graphics/SVG/1.1/DTD/svg11.dtd">
<!-- Generated by graphviz version 2.36.0 (20140111.2315)
 -->
<!-- Title: src/base/tmpfile_t.h Pages: 1 -->
<svg width="2747pt" height="96pt"
 viewBox="0.00 0.00 2747.00 96.00" xmlns="http://www.w3.org/2000/svg" xmlns:xlink="http://www.w3.org/1999/xlink">
<g id="graph0" class="graph" transform="scale(1 1) rotate(0) translate(4 92)">
<title>src/base/tmpfile_t.h</title>
<polygon fill="white" stroke="none" points="-4,4 -4,-92 2743,-92 2743,4 -4,4"/>
<!-- Node4 -->
<g id="node1" class="node"><title>Node4</title>
<polygon fill="#bfbfbf" stroke="black" points="1280.5,-68.5 1280.5,-87.5 1383.5,-87.5 1383.5,-68.5 1280.5,-68.5"/>
<text text-anchor="middle" x="1332" y="-75.5" font-family="Helvetica,sans-Serif" font-size="10.00">src/base/tmpfile_t.h</text>
</g>
<!-- Node5 -->
<g id="node2" class="node"><title>Node5</title>
<g id="a_node2"><a xlink:href="tmpfile__t_8cc.html" target="_top" xlink:title="src/base/tmpfile_t.cc">
<polygon fill="white" stroke="black" points="0,-6.5 0,-25.5 108,-25.5 108,-6.5 0,-6.5"/>
<text text-anchor="middle" x="54" y="-13.5" font-family="Helvetica,sans-Serif" font-size="10.00">src/base/tmpfile_t.cc</text>
</a>
</g>
</g>
<!-- Node4&#45;&gt;Node5 -->
<g id="edge1" class="edge"><title>Node4&#45;&gt;Node5</title>
<path fill="none" stroke="midnightblue" d="M1270.18,-76.3176C1055.56,-73.6971 343.359,-62.8334 117,-32 106.305,-30.5432 94.7722,-28.0696 84.5335,-25.5467"/>
<polygon fill="midnightblue" stroke="midnightblue" points="1270.28,-79.819 1280.33,-76.4398 1270.37,-72.8195 1270.28,-79.819"/>
</g>
<!-- Node6 -->
<g id="node3" class="node"><title>Node6</title>
<g id="a_node3"><a xlink:href="_test_ant_reader_8cc.html" target="_top" xlink:title="test/analysis/TestAntReader.cc">
<polygon fill="white" stroke="black" points="126.5,-6.5 126.5,-25.5 281.5,-25.5 281.5,-6.5 126.5,-6.5"/>
<text text-anchor="middle" x="204" y="-13.5" font-family="Helvetica,sans-Serif" font-size="10.00">test/analysis/TestAntReader.cc</text>
</a>
</g>
</g>
<!-- Node4&#45;&gt;Node6 -->
<g id="edge2" class="edge"><title>Node4&#45;&gt;Node6</title>
<path fill="none" stroke="midnightblue" d="M1270.15,-77.0723C1108.64,-76.667 661.039,-71.734 291,-32 276.675,-30.4618 261.14,-28.0308 247.215,-25.5701"/>
<polygon fill="midnightblue" stroke="midnightblue" points="1270.37,-80.5726 1280.38,-77.0927 1270.38,-73.5726 1270.37,-80.5726"/>
</g>
<!-- Node7 -->
<g id="node4" class="node"><title>Node7</title>
<g id="a_node4"><a xlink:href="_test_histogram_factory_8cc.html" target="_top" xlink:title="test/analysis/TestHistogram\lFactory.cc">
<polygon fill="white" stroke="black" points="300,-1 300,-31 440,-31 440,-1 300,-1"/>
<text text-anchor="start" x="308" y="-19" font-family="Helvetica,sans-Serif" font-size="10.00">test/analysis/TestHistogram</text>
<text text-anchor="middle" x="370" y="-8" font-family="Helvetica,sans-Serif" font-size="10.00">Factory.cc</text>
</a>
</g>
</g>
<!-- Node4&#45;&gt;Node7 -->
<g id="edge3" class="edge"><title>Node4&#45;&gt;Node7</title>
<path fill="none" stroke="midnightblue" d="M1270.03,-76.7483C1125.61,-75.5283 755.6,-68.7454 449,-32 446.089,-31.6511 443.124,-31.2586 440.134,-30.8318"/>
<polygon fill="midnightblue" stroke="midnightblue" points="1270.01,-80.2481 1280.04,-76.8268 1270.06,-73.2483 1270.01,-80.2481"/>
</g>
<!-- Node8 -->
<g id="node5" class="node"><title>Node8</title>
<g id="a_node5"><a xlink:href="_test_physics_manager_8cc.html" target="_top" xlink:title="test/analysis/TestPhysics\lManager.cc">
<polygon fill="white" stroke="black" points="458,-1 458,-31 588,-31 588,-1 458,-1"/>
<text text-anchor="start" x="466" y="-19" font-family="Helvetica,sans-Serif" font-size="10.00">test/analysis/TestPhysics</text>
<text text-anchor="middle" x="523" y="-8" font-family="Helvetica,sans-Serif" font-size="10.00">Manager.cc</text>
</a>
</g>
</g>
<!-- Node4&#45;&gt;Node8 -->
<g id="edge4" class="edge"><title>Node4&#45;&gt;Node8</title>
<path fill="none" stroke="midnightblue" d="M1269.78,-76.1006C1142.79,-73.625 844.811,-64.5419 597,-32 594.141,-31.6245 591.226,-31.2028 588.287,-30.7456"/>
<polygon fill="midnightblue" stroke="midnightblue" points="1270.02,-79.6055 1280.08,-76.2941 1270.15,-72.6068 1270.02,-79.6055"/>
</g>
<!-- Node9 -->
<g id="node6" class="node"><title>Node9</title>
<g id="a_node6"><a xlink:href="_test_physics_registry_8cc.html" target="_top" xlink:title="test/analysis/TestPhysics\lRegistry.cc">
<polygon fill="white" stroke="black" points="606,-1 606,-31 736,-31 736,-1 606,-1"/>
<text text-anchor="start" x="614" y="-19" font-family="Helvetica,sans-Serif" font-size="10.00">test/analysis/TestPhysics</text>
<text text-anchor="middle" x="671" y="-8" font-family="Helvetica,sans-Serif" font-size="10.00">Registry.cc</text>
</a>
</g>
</g>
<!-- Node4&#45;&gt;Node9 -->
<g id="edge5" class="edge"><title>Node4&#45;&gt;Node9</title>
<path fill="none" stroke="midnightblue" d="M1270.34,-74.7795C1163.11,-70.3594 935.501,-58.5063 745,-32 742.144,-31.6026 739.232,-31.1627 736.295,-30.6905"/>
<polygon fill="midnightblue" stroke="midnightblue" points="1270.21,-78.2767 1280.34,-75.1843 1270.49,-71.2824 1270.21,-78.2767"/>
</g>
<!-- Node10 -->
<g id="node7" class="node"><title>Node10</title>
<g id="a_node7"><a xlink:href="_test_slow_control_manager_8cc.html" target="_top" xlink:title="test/analysis/TestSlowControl\lManager.cc">
<polygon fill="white" stroke="black" points="754,-1 754,-31 902,-31 902,-1 754,-1"/>
<text text-anchor="start" x="762" y="-19" font-family="Helvetica,sans-Serif" font-size="10.00">test/analysis/TestSlowControl</text>
<text text-anchor="middle" x="828" y="-8" font-family="Helvetica,sans-Serif" font-size="10.00">Manager.cc</text>
</a>
</g>
</g>
<!-- Node4&#45;&gt;Node10 -->
<g id="edge6" class="edge"><title>Node4&#45;&gt;Node10</title>
<path fill="none" stroke="midnightblue" d="M1270.15,-71.7998C1187.92,-64.5635 1038.17,-50.2629 911,-32 908.101,-31.5837 905.149,-31.1409 902.168,-30.6782"/>
<polygon fill="midnightblue" stroke="midnightblue" points="1270.06,-75.3049 1280.33,-72.6893 1270.67,-68.3315 1270.06,-75.3049"/>
</g>
<!-- Node11 -->
<g id="node8" class="node"><title>Node11</title>
<g id="a_node8"><a xlink:href="_test_hadd_8cc.html" target="_top" xlink:title="test/analysis_codes\l/TestHadd.cc">
<polygon fill="white" stroke="black" points="920,-1 920,-31 1024,-31 1024,-1 920,-1"/>
<text text-anchor="start" x="928" y="-19" font-family="Helvetica,sans-Serif" font-size="10.00">test/analysis_codes</text>
<text text-anchor="middle" x="972" y="-8" font-family="Helvetica,sans-Serif" font-size="10.00">/TestHadd.cc</text>
</a>
</g>
</g>
<!-- Node4&#45;&gt;Node11 -->
<g id="edge7" class="edge"><title>Node4&#45;&gt;Node11</title>
<path fill="none" stroke="midnightblue" d="M1270.26,-69.3905C1209.6,-61.519 1114.54,-48.1261 1033,-32 1030.11,-31.4287 1027.15,-30.8111 1024.17,-30.1632"/>
<polygon fill="midnightblue" stroke="midnightblue" points="1270.07,-72.8946 1280.43,-70.7006 1270.96,-65.9519 1270.07,-72.8946"/>
</g>
<!-- Node12 -->
<g id="node9" class="node"><title>Node12</title>
<g id="a_node9"><a xlink:href="_test_std_ext_8cc.html" target="_top" xlink:title="test/base/TestStdExt.cc">
<polygon fill="white" stroke="black" points="1042.5,-6.5 1042.5,-25.5 1165.5,-25.5 1165.5,-6.5 1042.5,-6.5"/>
<text text-anchor="middle" x="1104" y="-13.5" font-family="Helvetica,sans-Serif" font-size="10.00">test/base/TestStdExt.cc</text>
</a>
</g>
</g>
<!-- Node4&#45;&gt;Node12 -->
<g id="edge8" class="edge"><title>Node4&#45;&gt;Node12</title>
<path fill="none" stroke="midnightblue" d="M1289.45,-65.8022C1245.17,-54.1491 1176.79,-36.1549 1136.61,-25.5806"/>
<polygon fill="midnightblue" stroke="midnightblue" points="1288.77,-69.2432 1299.33,-68.4035 1290.55,-62.4737 1288.77,-69.2432"/>
</g>
<!-- Node13 -->
<g id="node10" class="node"><title>Node13</title>
<g id="a_node10"><a xlink:href="_test_wrap_t_file_8cc.html" target="_top" xlink:title="test/base/TestWrapTFile.cc">
<polygon fill="white" stroke="black" points="1184,-6.5 1184,-25.5 1322,-25.5 1322,-6.5 1184,-6.5"/>
<text text-anchor="middle" x="1253" y="-13.5" font-family="Helvetica,sans-Serif" font-size="10.00">test/base/TestWrapTFile.cc</text>
</a>
</g>
</g>
<!-- Node4&#45;&gt;Node13 -->
<g id="edge9" class="edge"><title>Node4&#45;&gt;Node13</title>
<path fill="none" stroke="midnightblue" d="M1312.47,-62.1702C1297.32,-50.6608 1276.84,-35.1086 1264.3,-25.5806"/>
<polygon fill="midnightblue" stroke="midnightblue" points="1310.6,-65.1424 1320.68,-68.4035 1314.83,-59.5679 1310.6,-65.1424"/>
</g>
<!-- Node14 -->
<g id="node11" class="node"><title>Node14</title>
<g id="a_node11"><a xlink:href="_test_wrap_t_tree_8cc.html" target="_top" xlink:title="test/base/TestWrapTTree.cc">
<polygon fill="white" stroke="black" points="1340,-6.5 1340,-25.5 1482,-25.5 1482,-6.5 1340,-6.5"/>
<text text-anchor="middle" x="1411" y="-13.5" font-family="Helvetica,sans-Serif" font-size="10.00">test/base/TestWrapTTree.cc</text>
</a>
</g>
</g>
<!-- Node4&#45;&gt;Node14 -->
<g id="edge10" class="edge"><title>Node4&#45;&gt;Node14</title>
<path fill="none" stroke="midnightblue" d="M1351.53,-62.1702C1366.68,-50.6608 1387.16,-35.1086 1399.7,-25.5806"/>
<polygon fill="midnightblue" stroke="midnightblue" points="1349.17,-59.5679 1343.32,-68.4035 1353.4,-65.1424 1349.17,-59.5679"/>
</g>
<!-- Node15 -->
<g id="node12" class="node"><title>Node15</title>
<g id="a_node12"><a xlink:href="_test_calibration_modules_8cc.html" target="_top" xlink:title="test/calibration/TestCalibration\lModules.cc">
<polygon fill="white" stroke="black" points="1500.5,-1 1500.5,-31 1649.5,-31 1649.5,-1 1500.5,-1"/>
<text text-anchor="start" x="1508.5" y="-19" font-family="Helvetica,sans-Serif" font-size="10.00">test/calibration/TestCalibration</text>
<text text-anchor="middle" x="1575" y="-8" font-family="Helvetica,sans-Serif" font-size="10.00">Modules.cc</text>
</a>
</g>
</g>
<!-- Node4&#45;&gt;Node15 -->
<g id="edge11" class="edge"><title>Node4&#45;&gt;Node15</title>
<path fill="none" stroke="midnightblue" d="M1376.5,-66.0113C1416.31,-56.1829 1474.87,-41.7242 1518.07,-31.0565"/>
<polygon fill="midnightblue" stroke="midnightblue" points="1375.43,-62.672 1366.56,-68.4672 1377.11,-69.4679 1375.43,-62.672"/>
</g>
<!-- Node16 -->
<g id="node13" class="node"><title>Node16</title>
<g id="a_node13"><a xlink:href="_test_data_manager_8cc.html" target="_top" xlink:title="test/calibration/TestData\lManager.cc">
<polygon fill="white" stroke="black" points="1667,-1 1667,-31 1791,-31 1791,-1 1667,-1"/>
<text text-anchor="start" x="1675" y="-19" font-family="Helvetica,sans-Serif" font-size="10.00">test/calibration/TestData</text>
<text text-anchor="middle" x="1729" y="-8" font-family="Helvetica,sans-Serif" font-size="10.00">Manager.cc</text>
</a>
</g>
</g>
<!-- Node4&#45;&gt;Node16 -->
<g id="edge12" class="edge"><title>Node4&#45;&gt;Node16</title>
<path fill="none" stroke="midnightblue" d="M1393.74,-69.8035C1459.45,-61.8346 1566.37,-47.9818 1658,-32 1660.85,-31.5021 1663.77,-30.9726 1666.71,-30.4211"/>
<polygon fill="midnightblue" stroke="midnightblue" points="1393.07,-66.3594 1383.56,-71.0313 1393.9,-73.3091 1393.07,-66.3594"/>
</g>
<!-- Node17 -->
<g id="node14" class="node"><title>Node17</title>
<g id="a_node14"><a xlink:href="_test_g_u_i_manager_8cc.html" target="_top" xlink:title="test/calibration/TestGUIManager.cc">
<polygon fill="white" stroke="black" points="1809,-6.5 1809,-25.5 1981,-25.5 1981,-6.5 1809,-6.5"/>
<text text-anchor="middle" x="1895" y="-13.5" font-family="Helvetica,sans-Serif" font-size="10.00">test/calibration/TestGUIManager.cc</text>
</a>
</g>
</g>
<!-- Node4&#45;&gt;Node17 -->
<g id="edge13" class="edge"><title>Node4&#45;&gt;Node17</title>
<path fill="none" stroke="midnightblue" d="M1393.57,-72.2308C1483.02,-65.0375 1654.07,-50.2886 1799,-32 1813.56,-30.1626 1829.31,-27.8416 1843.76,-25.578"/>
<polygon fill="midnightblue" stroke="midnightblue" points="1393.28,-68.7422 1383.59,-73.0286 1393.84,-75.7199 1393.28,-68.7422"/>
</g>
<!-- Node18 -->
<g id="node15" class="node"><title>Node18</title>
<g id="a_node15"><a xlink:href="expconfig__helpers_8cc.html" target="_top" xlink:title="test/expconfig_helpers.cc">
<polygon fill="white" stroke="black" points="1999,-6.5 1999,-25.5 2127,-25.5 2127,-6.5 1999,-6.5"/>
<text text-anchor="middle" x="2063" y="-13.5" font-family="Helvetica,sans-Serif" font-size="10.00">test/expconfig_helpers.cc</text>
</a>
</g>
</g>
<!-- Node4&#45;&gt;Node18 -->
<g id="edge14" class="edge"><title>Node4&#45;&gt;Node18</title>
<path fill="none" stroke="midnightblue" d="M1394.05,-75.5336C1511.08,-72.1536 1772.22,-61.6849 1990,-32 2001.92,-30.3749 2014.82,-27.9509 2026.4,-25.523"/>
<polygon fill="midnightblue" stroke="midnightblue" points="1393.75,-72.0406 1383.85,-75.8206 1393.95,-79.0378 1393.75,-72.0406"/>
</g>
<!-- Node19 -->
<g id="node16" class="node"><title>Node19</title>
<g id="a_node16"><a xlink:href="_test_t_calibration_data_8cc.html" target="_top" xlink:title="test/tree/TestTCalibration\lData.cc">
<polygon fill="white" stroke="black" points="2145,-1 2145,-31 2273,-31 2273,-1 2145,-1"/>
<text text-anchor="start" x="2153" y="-19" font-family="Helvetica,sans-Serif" font-size="10.00">test/tree/TestTCalibration</text>
<text text-anchor="middle" x="2209" y="-8" font-family="Helvetica,sans-Serif" font-size="10.00">Data.cc</text>
</a>
</g>
</g>
<!-- Node4&#45;&gt;Node19 -->
<g id="edge15" class="edge"><title>Node4&#45;&gt;Node19</title>
<path fill="none" stroke="midnightblue" d="M1393.66,-76.6258C1528.73,-75.133 1860.7,-67.7915 2136,-32 2138.95,-31.6163 2141.96,-31.1805 2145,-30.7051"/>
<polygon fill="midnightblue" stroke="midnightblue" points="1393.47,-73.1274 1383.51,-76.7309 1393.54,-80.1271 1393.47,-73.1274"/>
</g>
<!-- Node20 -->
<g id="node17" class="node"><title>Node20</title>
<g id="a_node17"><a xlink:href="_test_t_event_8cc.html" target="_top" xlink:title="test/tree/TestTEvent.cc">
<polygon fill="white" stroke="black" points="2291,-6.5 2291,-25.5 2411,-25.5 2411,-6.5 2291,-6.5"/>
<text text-anchor="middle" x="2351" y="-13.5" font-family="Helvetica,sans-Serif" font-size="10.00">test/tree/TestTEvent.cc</text>
</a>
</g>
</g>
<!-- Node4&#45;&gt;Node20 -->
<g id="edge16" class="edge"><title>Node4&#45;&gt;Node20</title>
<path fill="none" stroke="midnightblue" d="M1393.83,-77.6256C1545.74,-78.3921 1949.14,-75.7536 2282,-32 2293.55,-30.4822 2306.03,-28.0253 2317.15,-25.5352"/>
<polygon fill="midnightblue" stroke="midnightblue" points="1393.78,-74.1254 1383.76,-77.5678 1393.74,-81.1252 1393.78,-74.1254"/>
</g>
<!-- Node21 -->
<g id="node18" class="node"><title>Node21</title>
<g id="a_node18"><a xlink:href="_test_raw_file_reader_8cc.html" target="_top" xlink:title="test/unpacker/TestRawFile\lReader.cc">
<polygon fill="white" stroke="black" points="2429,-1 2429,-31 2563,-31 2563,-1 2429,-1"/>
<text text-anchor="start" x="2437" y="-19" font-family="Helvetica,sans-Serif" font-size="10.00">test/unpacker/TestRawFile</text>
<text text-anchor="middle" x="2496" y="-8" font-family="Helvetica,sans-Serif" font-size="10.00">Reader.cc</text>
</a>
</g>
</g>
<!-- Node4&#45;&gt;Node21 -->
<g id="edge17" class="edge"><title>Node4&#45;&gt;Node21</title>
<path fill="none" stroke="midnightblue" d="M1393.75,-77.6979C1560.02,-78.8755 2030.85,-77.5771 2419,-32 2422.25,-31.6188 2425.56,-31.1773 2428.9,-30.69"/>
<polygon fill="midnightblue" stroke="midnightblue" points="1393.73,-74.1978 1383.71,-77.6211 1393.68,-81.1976 1393.73,-74.1978"/>
</g>
<!-- Node22 -->
<g id="node19" class="node"><title>Node22</title>
<g id="a_node19"><a xlink:href="_test_tree_writer_8cc.html" target="_top" xlink:title="test/unpacker/TestTreeWriter.cc">
<polygon fill="white" stroke="black" points="2581,-6.5 2581,-25.5 2739,-25.5 2739,-6.5 2581,-6.5"/>
<text text-anchor="middle" x="2660" y="-13.5" font-family="Helvetica,sans-Serif" font-size="10.00">test/unpacker/TestTreeWriter.cc</text>
</a>
</g>
</g>
<!-- Node4&#45;&gt;Node22 -->
<g id="edge18" class="edge"><title>Node4&#45;&gt;Node22</title>
<path fill="none" stroke="midnightblue" d="M1393.69,-77.6461C1574.98,-78.9253 2121.63,-78.3493 2572,-32 2586.65,-30.4927 2602.54,-28.0385 2616.74,-25.5477"/>
<polygon fill="midnightblue" stroke="midnightblue" points="1393.58,-74.1452 1383.55,-77.5698 1393.52,-81.145 1393.58,-74.1452"/>
</g>
</g>
</svg>
