<?xml version="1.0" encoding="UTF-8" standalone="no"?>
<!DOCTYPE svg PUBLIC "-//W3C//DTD SVG 1.1//EN"
 "http://www.w3.org/Graphics/SVG/1.1/DTD/svg11.dtd">
<!-- Generated by graphviz version 2.36.0 (20140111.2315)
 -->
<!-- Title: src/base/tmpfile_t.cc Pages: 1 -->
<svg width="591pt" height="140pt"
 viewBox="0.00 0.00 591.00 140.00" xmlns="http://www.w3.org/2000/svg" xmlns:xlink="http://www.w3.org/1999/xlink">
<g id="graph0" class="graph" transform="scale(1 1) rotate(0) translate(4 136)">
<title>src/base/tmpfile_t.cc</title>
<polygon fill="white" stroke="none" points="-4,4 -4,-136 587,-136 587,4 -4,4"/>
<!-- Node0 -->
<g id="node1" class="node"><title>Node0</title>
<polygon fill="#bfbfbf" stroke="black" points="261,-112.5 261,-131.5 369,-131.5 369,-112.5 261,-112.5"/>
<text text-anchor="middle" x="315" y="-119.5" font-family="Helvetica,sans-Serif" font-size="10.00">src/base/tmpfile_t.cc</text>
</g>
<!-- Node1 -->
<g id="node2" class="node"><title>Node1</title>
<g id="a_node2"><a xlink:href="tmpfile__t_8h.html" target="_top" xlink:title="tmpfile_t.h">
<polygon fill="white" stroke="black" points="52,-56.5 52,-75.5 114,-75.5 114,-56.5 52,-56.5"/>
<text text-anchor="middle" x="83" y="-63.5" font-family="Helvetica,sans-Serif" font-size="10.00">tmpfile_t.h</text>
</a>
</g>
</g>
<!-- Node0&#45;&gt;Node1 -->
<g id="edge1" class="edge"><title>Node0&#45;&gt;Node1</title>
<path fill="none" stroke="midnightblue" d="M278.239,-112.444C236.247,-102.67 167.719,-86.7192 124.024,-76.5487"/>
<polygon fill="midnightblue" stroke="midnightblue" points="124.554,-73.0785 114.021,-74.2203 122.967,-79.8963 124.554,-73.0785"/>
</g>
<!-- Node5 -->
<g id="node6" class="node"><title>Node5</title>
<polygon fill="white" stroke="#bfbfbf" points="132,-56.5 132,-75.5 178,-75.5 178,-56.5 132,-56.5"/>
<text text-anchor="middle" x="155" y="-63.5" font-family="Helvetica,sans-Serif" font-size="10.00">cstring</text>
</g>
<!-- Node0&#45;&gt;Node5 -->
<g id="edge5" class="edge"><title>Node0&#45;&gt;Node5</title>
<path fill="none" stroke="midnightblue" d="M289.648,-112.444C262.097,-103.145 217.984,-88.2572 187.81,-78.0735"/>
<polygon fill="midnightblue" stroke="midnightblue" points="188.75,-74.6967 178.156,-74.8151 186.512,-81.3292 188.75,-74.6967"/>
</g>
<!-- Node6 -->
<g id="node7" class="node"><title>Node6</title>
<polygon fill="white" stroke="#bfbfbf" points="196.5,-56.5 196.5,-75.5 239.5,-75.5 239.5,-56.5 196.5,-56.5"/>
<text text-anchor="middle" x="218" y="-63.5" font-family="Helvetica,sans-Serif" font-size="10.00">cstdio</text>
</g>
<!-- Node0&#45;&gt;Node6 -->
<g id="edge6" class="edge"><title>Node0&#45;&gt;Node6</title>
<path fill="none" stroke="midnightblue" d="M299.415,-112.324C284.001,-103.743 260.188,-90.486 242.29,-80.5224"/>
<polygon fill="midnightblue" stroke="midnightblue" points="243.986,-77.4606 233.546,-75.6545 240.581,-83.5767 243.986,-77.4606"/>
</g>
<!-- Node7 -->
<g id="node8" class="node"><title>Node7</title>
<polygon fill="white" stroke="#bfbfbf" points="257.5,-56.5 257.5,-75.5 302.5,-75.5 302.5,-56.5 257.5,-56.5"/>
<text text-anchor="middle" x="280" y="-63.5" font-family="Helvetica,sans-Serif" font-size="10.00">cstdlib</text>
</g>
<!-- Node0&#45;&gt;Node7 -->
<g id="edge7" class="edge"><title>Node0&#45;&gt;Node7</title>
<path fill="none" stroke="midnightblue" d="M309.22,-112.083C304.328,-104.534 297.173,-93.4948 291.167,-84.2298"/>
<polygon fill="midnightblue" stroke="midnightblue" points="294.048,-82.239 285.672,-75.7511 288.174,-86.0463 294.048,-82.239"/>
</g>
<!-- Node8 -->
<g id="node9" class="node"><title>Node8</title>
<polygon fill="white" stroke="#bfbfbf" points="320.5,-56.5 320.5,-75.5 379.5,-75.5 379.5,-56.5 320.5,-56.5"/>
<text text-anchor="middle" x="350" y="-63.5" font-family="Helvetica,sans-Serif" font-size="10.00">stdexcept</text>
</g>
<!-- Node0&#45;&gt;Node8 -->
<g id="edge8" class="edge"><title>Node0&#45;&gt;Node8</title>
<path fill="none" stroke="midnightblue" d="M320.78,-112.083C325.672,-104.534 332.827,-93.4948 338.833,-84.2298"/>
<polygon fill="midnightblue" stroke="midnightblue" points="341.826,-86.0463 344.328,-75.7511 335.952,-82.239 341.826,-86.0463"/>
</g>
<!-- Node9 -->
<g id="node10" class="node"><title>Node9</title>
<polygon fill="white" stroke="#bfbfbf" points="397.5,-56.5 397.5,-75.5 444.5,-75.5 444.5,-56.5 397.5,-56.5"/>
<text text-anchor="middle" x="421" y="-63.5" font-family="Helvetica,sans-Serif" font-size="10.00">iterator</text>
</g>
<!-- Node0&#45;&gt;Node9 -->
<g id="edge9" class="edge"><title>Node0&#45;&gt;Node9</title>
<path fill="none" stroke="midnightblue" d="M332.031,-112.324C349.03,-103.664 375.376,-90.2424 394.993,-80.249"/>
<polygon fill="midnightblue" stroke="midnightblue" points="396.69,-83.3125 404.012,-75.6545 393.512,-77.0752 396.69,-83.3125"/>
</g>
<!-- Node10 -->
<g id="node11" class="node"><title>Node10</title>
<polygon fill="white" stroke="#bfbfbf" points="463,-56.5 463,-75.5 513,-75.5 513,-56.5 463,-56.5"/>
<text text-anchor="middle" x="488" y="-63.5" font-family="Helvetica,sans-Serif" font-size="10.00">fstream</text>
</g>
<!-- Node0&#45;&gt;Node10 -->
<g id="edge10" class="edge"><title>Node0&#45;&gt;Node10</title>
<path fill="none" stroke="midnightblue" d="M342.412,-112.444C372.46,-103.064 420.729,-87.9978 453.372,-77.8089"/>
<polygon fill="midnightblue" stroke="midnightblue" points="454.46,-81.1358 462.963,-74.8151 452.374,-74.4538 454.46,-81.1358"/>
</g>
<!-- Node11 -->
<g id="node12" class="node"><title>Node11</title>
<polygon fill="white" stroke="#bfbfbf" points="531,-56.5 531,-75.5 583,-75.5 583,-56.5 531,-56.5"/>
<text text-anchor="middle" x="557" y="-63.5" font-family="Helvetica,sans-Serif" font-size="10.00">sstream</text>
</g>
<!-- Node0&#45;&gt;Node11 -->
<g id="edge11" class="edge"><title>Node0&#45;&gt;Node11</title>
<path fill="none" stroke="midnightblue" d="M356.342,-112.491C396.074,-104.206 458.05,-91.006 520.611,-76.2664"/>
<polygon fill="midnightblue" stroke="midnightblue" points="521.729,-79.5985 530.653,-73.8881 520.116,-72.787 521.729,-79.5985"/>
</g>
<!-- Node2 -->
<g id="node3" class="node"><title>Node2</title>
<polygon fill="white" stroke="#bfbfbf" points="0,-0.5 0,-19.5 44,-19.5 44,-0.5 0,-0.5"/>
<text text-anchor="middle" x="22" y="-7.5" font-family="Helvetica,sans-Serif" font-size="10.00">vector</text>
</g>
<!-- Node1&#45;&gt;Node2 -->
<g id="edge2" class="edge"><title>Node1&#45;&gt;Node2</title>
<path fill="none" stroke="midnightblue" d="M73.1993,-56.324C64.1819,-48.3414 50.594,-36.3128 39.682,-26.6529"/>
<polygon fill="midnightblue" stroke="midnightblue" points="41.7866,-23.8416 31.979,-19.8339 37.1467,-29.083 41.7866,-23.8416"/>
</g>
<!-- Node3 -->
<g id="node4" class="node"><title>Node3</title>
<polygon fill="white" stroke="#bfbfbf" points="62.5,-0.5 62.5,-19.5 103.5,-19.5 103.5,-0.5 62.5,-0.5"/>
<text text-anchor="middle" x="83" y="-7.5" font-family="Helvetica,sans-Serif" font-size="10.00">string</text>
</g>
<!-- Node1&#45;&gt;Node3 -->
<g id="edge3" class="edge"><title>Node1&#45;&gt;Node3</title>
<path fill="none" stroke="midnightblue" d="M83,-56.083C83,-49.0059 83,-38.8611 83,-29.9865"/>
<polygon fill="midnightblue" stroke="midnightblue" points="86.5001,-29.751 83,-19.7511 79.5001,-29.7511 86.5001,-29.751"/>
</g>
<!-- Node4 -->
<g id="node5" class="node"><title>Node4</title>
<polygon fill="white" stroke="#bfbfbf" points="122,-0.5 122,-19.5 168,-19.5 168,-0.5 122,-0.5"/>
<text text-anchor="middle" x="145" y="-7.5" font-family="Helvetica,sans-Serif" font-size="10.00">cstdint</text>
</g>
<!-- Node1&#45;&gt;Node4 -->
<g id="edge4" class="edge"><title>Node1&#45;&gt;Node4</title>
<path fill="none" stroke="midnightblue" d="M92.9614,-56.324C102.127,-48.3414 115.937,-36.3128 127.028,-26.6529"/>
<polygon fill="midnightblue" stroke="midnightblue" points="129.615,-29.041 134.857,-19.8339 125.018,-23.7624 129.615,-29.041"/>
</g>
</g>
</svg>
