<?xml version="1.0" encoding="UTF-8" standalone="no"?>
<!DOCTYPE svg PUBLIC "-//W3C//DTD SVG 1.1//EN"
 "http://www.w3.org/Graphics/SVG/1.1/DTD/svg11.dtd">
<!-- Generated by graphviz version 2.36.0 (20140111.2315)
 -->
<!-- Title: src/analysis/input/treeEvents_t.h Pages: 1 -->
<svg width="518pt" height="176pt"
 viewBox="0.00 0.00 518.00 176.00" xmlns="http://www.w3.org/2000/svg" xmlns:xlink="http://www.w3.org/1999/xlink">
<g id="graph0" class="graph" transform="scale(1 1) rotate(0) translate(4 172)">
<title>src/analysis/input/treeEvents_t.h</title>
<polygon fill="white" stroke="none" points="-4,4 -4,-172 514,-172 514,4 -4,4"/>
<!-- Node10 -->
<g id="node1" class="node"><title>Node10</title>
<polygon fill="#bfbfbf" stroke="black" points="104.5,-137 104.5,-167 197.5,-167 197.5,-137 104.5,-137"/>
<text text-anchor="start" x="112.5" y="-155" font-family="Helvetica,sans-Serif" font-size="10.00">src/analysis/input</text>
<text text-anchor="middle" x="151" y="-144" font-family="Helvetica,sans-Serif" font-size="10.00">/treeEvents_t.h</text>
</g>
<!-- Node11 -->
<g id="node2" class="node"><title>Node11</title>
<g id="a_node2"><a xlink:href="_ant_reader_8cc.html" target="_top" xlink:title="src/analysis/input\l/ant/AntReader.cc">
<polygon fill="white" stroke="black" points="44,-69 44,-99 140,-99 140,-69 44,-69"/>
<text text-anchor="start" x="52" y="-87" font-family="Helvetica,sans-Serif" font-size="10.00">src/analysis/input</text>
<text text-anchor="middle" x="92" y="-76" font-family="Helvetica,sans-Serif" font-size="10.00">/ant/AntReader.cc</text>
</a>
</g>
</g>
<!-- Node10&#45;&gt;Node11 -->
<g id="edge1" class="edge"><title>Node10&#45;&gt;Node11</title>
<path fill="none" stroke="midnightblue" d="M131.507,-129.194C122.716,-119.36 112.581,-108.023 104.777,-99.2931"/>
<polygon fill="midnightblue" stroke="midnightblue" points="128.924,-131.556 138.198,-136.679 134.143,-126.891 128.924,-131.556"/>
</g>
<!-- Node12 -->
<g id="node3" class="node"><title>Node12</title>
<g id="a_node3"><a xlink:href="_physics_manager_8h.html" target="_top" xlink:title="src/analysis/physics\l/PhysicsManager.h">
<polygon fill="white" stroke="black" points="158,-69 158,-99 264,-99 264,-69 158,-69"/>
<text text-anchor="start" x="166" y="-87" font-family="Helvetica,sans-Serif" font-size="10.00">src/analysis/physics</text>
<text text-anchor="middle" x="211" y="-76" font-family="Helvetica,sans-Serif" font-size="10.00">/PhysicsManager.h</text>
</a>
</g>
</g>
<!-- Node10&#45;&gt;Node12 -->
<g id="edge2" class="edge"><title>Node10&#45;&gt;Node12</title>
<path fill="none" stroke="midnightblue" d="M170.824,-129.194C179.763,-119.36 190.07,-108.023 198.006,-99.2931"/>
<polygon fill="midnightblue" stroke="midnightblue" points="168.156,-126.925 164.019,-136.679 173.336,-131.634 168.156,-126.925"/>
</g>
<!-- Node13 -->
<g id="node4" class="node"><title>Node13</title>
<g id="a_node4"><a xlink:href="_ant_8cc.html" target="_top" xlink:title="Main Ant executable. ">
<polygon fill="white" stroke="black" points="0,-6.5 0,-25.5 72,-25.5 72,-6.5 0,-6.5"/>
<text text-anchor="middle" x="36" y="-13.5" font-family="Helvetica,sans-Serif" font-size="10.00">progs/Ant.cc</text>
</a>
</g>
</g>
<!-- Node12&#45;&gt;Node13 -->
<g id="edge3" class="edge"><title>Node12&#45;&gt;Node13</title>
<path fill="none" stroke="midnightblue" d="M163.707,-65.1639C129.664,-52.3248 85.245,-35.5724 58.7681,-25.5868"/>
<polygon fill="midnightblue" stroke="midnightblue" points="162.866,-68.5873 173.458,-68.8413 165.337,-62.0376 162.866,-68.5873"/>
</g>
<!-- Node14 -->
<g id="node5" class="node"><title>Node14</title>
<g id="a_node5"><a xlink:href="_physics_manager_8cc.html" target="_top" xlink:title="src/analysis/physics\l/PhysicsManager.cc">
<polygon fill="white" stroke="black" points="90,-1 90,-31 196,-31 196,-1 90,-1"/>
<text text-anchor="start" x="98" y="-19" font-family="Helvetica,sans-Serif" font-size="10.00">src/analysis/physics</text>
<text text-anchor="middle" x="143" y="-8" font-family="Helvetica,sans-Serif" font-size="10.00">/PhysicsManager.cc</text>
</a>
</g>
</g>
<!-- Node12&#45;&gt;Node14 -->
<g id="edge4" class="edge"><title>Node12&#45;&gt;Node14</title>
<path fill="none" stroke="midnightblue" d="M188.834,-61.4855C178.633,-51.5852 166.809,-40.1092 157.726,-31.2931"/>
<polygon fill="midnightblue" stroke="midnightblue" points="186.632,-64.2257 196.245,-68.679 191.507,-59.2027 186.632,-64.2257"/>
</g>
<!-- Node15 -->
<g id="node6" class="node"><title>Node15</title>
<g id="a_node6"><a xlink:href="_test_physics_manager_8cc.html" target="_top" xlink:title="test/analysis/TestPhysics\lManager.cc">
<polygon fill="white" stroke="black" points="214,-1 214,-31 344,-31 344,-1 214,-1"/>
<text text-anchor="start" x="222" y="-19" font-family="Helvetica,sans-Serif" font-size="10.00">test/analysis/TestPhysics</text>
<text text-anchor="middle" x="279" y="-8" font-family="Helvetica,sans-Serif" font-size="10.00">Manager.cc</text>
</a>
</g>
</g>
<!-- Node12&#45;&gt;Node15 -->
<g id="edge5" class="edge"><title>Node12&#45;&gt;Node15</title>
<path fill="none" stroke="midnightblue" d="M233.166,-61.4855C243.367,-51.5852 255.191,-40.1092 264.274,-31.2931"/>
<polygon fill="midnightblue" stroke="midnightblue" points="230.493,-59.2027 225.755,-68.679 235.368,-64.2257 230.493,-59.2027"/>
</g>
<!-- Node16 -->
<g id="node7" class="node"><title>Node16</title>
<g id="a_node7"><a xlink:href="_test_slow_control_manager_8cc.html" target="_top" xlink:title="test/analysis/TestSlowControl\lManager.cc">
<polygon fill="white" stroke="black" points="362,-1 362,-31 510,-31 510,-1 362,-1"/>
<text text-anchor="start" x="370" y="-19" font-family="Helvetica,sans-Serif" font-size="10.00">test/analysis/TestSlowControl</text>
<text text-anchor="middle" x="436" y="-8" font-family="Helvetica,sans-Serif" font-size="10.00">Manager.cc</text>
</a>
</g>
</g>
<!-- Node12&#45;&gt;Node16 -->
<g id="edge6" class="edge"><title>Node12&#45;&gt;Node16</title>
<path fill="none" stroke="midnightblue" d="M268.646,-66.0905C305.654,-55.2347 353.149,-41.303 388.082,-31.0561"/>
<polygon fill="midnightblue" stroke="midnightblue" points="267.603,-62.749 258.992,-68.9223 269.573,-69.466 267.603,-62.749"/>
</g>
</g>
</svg>
