<?xml version="1.0" encoding="UTF-8" standalone="no"?>
<!DOCTYPE svg PUBLIC "-//W3C//DTD SVG 1.1//EN"
 "http://www.w3.org/Graphics/SVG/1.1/DTD/svg11.dtd">
<!-- Generated by graphviz version 2.36.0 (20140111.2315)
 -->
<!-- Title: src/analysis/input/treeEvents_t.h Pages: 1 -->
<svg width="476pt" height="152pt"
 viewBox="0.00 0.00 476.00 152.00" xmlns="http://www.w3.org/2000/svg" xmlns:xlink="http://www.w3.org/1999/xlink">
<g id="graph0" class="graph" transform="scale(1 1) rotate(0) translate(4 148)">
<title>src/analysis/input/treeEvents_t.h</title>
<polygon fill="white" stroke="none" points="-4,4 -4,-148 472,-148 472,4 -4,4"/>
<!-- Node0 -->
<g id="node1" class="node"><title>Node0</title>
<polygon fill="#bfbfbf" stroke="black" points="147.5,-113 147.5,-143 240.5,-143 240.5,-113 147.5,-113"/>
<text text-anchor="start" x="155.5" y="-131" font-family="Helvetica,sans-Serif" font-size="10.00">src/analysis/input</text>
<text text-anchor="middle" x="194" y="-120" font-family="Helvetica,sans-Serif" font-size="10.00">/treeEvents_t.h</text>
</g>
<!-- Node1 -->
<g id="node2" class="node"><title>Node1</title>
<g id="a_node2"><a xlink:href="_t_event_8h.html" target="_top" xlink:title="tree/TEvent.h">
<polygon fill="white" stroke="black" points="85,-56.5 85,-75.5 161,-75.5 161,-56.5 85,-56.5"/>
<text text-anchor="middle" x="123" y="-63.5" font-family="Helvetica,sans-Serif" font-size="10.00">tree/TEvent.h</text>
</a>
</g>
</g>
<!-- Node0&#45;&gt;Node1 -->
<g id="edge1" class="edge"><title>Node0&#45;&gt;Node1</title>
<path fill="none" stroke="midnightblue" d="M177.174,-112.781C166.325,-103.613 152.223,-91.6957 141.127,-82.3186"/>
<polygon fill="midnightblue" stroke="midnightblue" points="143.228,-79.5119 133.331,-75.7305 138.71,-84.8585 143.228,-79.5119"/>
</g>
<!-- Node5 -->
<g id="node6" class="node"><title>Node5</title>
<g id="a_node6"><a xlink:href="_wrap_t_tree_8h.html" target="_top" xlink:title="base/WrapTTree.h">
<polygon fill="white" stroke="black" points="230,-56.5 230,-75.5 328,-75.5 328,-56.5 230,-56.5"/>
<text text-anchor="middle" x="279" y="-63.5" font-family="Helvetica,sans-Serif" font-size="10.00">base/WrapTTree.h</text>
</a>
</g>
</g>
<!-- Node0&#45;&gt;Node5 -->
<g id="edge5" class="edge"><title>Node0&#45;&gt;Node5</title>
<path fill="none" stroke="midnightblue" d="M214.144,-112.781C227.595,-103.286 245.222,-90.8434 258.704,-81.3267"/>
<polygon fill="midnightblue" stroke="midnightblue" points="260.728,-84.182 266.879,-75.5557 256.691,-78.4632 260.728,-84.182"/>
</g>
<!-- Node2 -->
<g id="node3" class="node"><title>Node2</title>
<polygon fill="white" stroke="#bfbfbf" points="0,-0.5 0,-19.5 56,-19.5 56,-0.5 0,-0.5"/>
<text text-anchor="middle" x="28" y="-7.5" font-family="Helvetica,sans-Serif" font-size="10.00">Rtypes.h</text>
</g>
<!-- Node1&#45;&gt;Node2 -->
<g id="edge2" class="edge"><title>Node1&#45;&gt;Node2</title>
<path fill="none" stroke="midnightblue" d="M107.737,-56.324C92.7786,-47.8215 69.7452,-34.7288 52.2733,-24.7975"/>
<polygon fill="midnightblue" stroke="midnightblue" points="53.6488,-21.5534 43.2255,-19.6545 50.1896,-27.639 53.6488,-21.5534"/>
</g>
<!-- Node3 -->
<g id="node4" class="node"><title>Node3</title>
<polygon fill="white" stroke="#bfbfbf" points="152,-0.5 152,-19.5 204,-19.5 204,-0.5 152,-0.5"/>
<text text-anchor="middle" x="178" y="-7.5" font-family="Helvetica,sans-Serif" font-size="10.00">memory</text>
</g>
<!-- Node1&#45;&gt;Node3 -->
<g id="edge3" class="edge"><title>Node1&#45;&gt;Node3</title>
<path fill="none" stroke="midnightblue" d="M132.082,-56.083C140.171,-48.1409 152.195,-36.3354 161.91,-26.7973"/>
<polygon fill="midnightblue" stroke="midnightblue" points="164.403,-29.2545 169.087,-19.7511 159.499,-24.2595 164.403,-29.2545"/>
</g>
<!-- Node4 -->
<g id="node5" class="node"><title>Node4</title>
<polygon fill="white" stroke="#bfbfbf" points="74.5,-0.5 74.5,-19.5 133.5,-19.5 133.5,-0.5 74.5,-0.5"/>
<text text-anchor="middle" x="104" y="-7.5" font-family="Helvetica,sans-Serif" font-size="10.00">stdexcept</text>
</g>
<!-- Node1&#45;&gt;Node4 -->
<g id="edge4" class="edge"><title>Node1&#45;&gt;Node4</title>
<path fill="none" stroke="midnightblue" d="M119.863,-56.083C117.317,-48.8486 113.644,-38.4087 110.473,-29.3968"/>
<polygon fill="midnightblue" stroke="midnightblue" points="113.7,-28.0225 107.079,-19.7511 107.097,-30.3459 113.7,-28.0225"/>
</g>
<!-- Node5&#45;&gt;Node3 -->
<g id="edge10" class="edge"><title>Node5&#45;&gt;Node3</title>
<path fill="none" stroke="midnightblue" d="M262.773,-56.324C246.649,-47.7034 221.7,-34.3643 203.036,-24.3855"/>
<polygon fill="midnightblue" stroke="midnightblue" points="204.656,-21.283 194.187,-19.6545 201.356,-27.456 204.656,-21.283"/>
</g>
<!-- Node6 -->
<g id="node7" class="node"><title>Node6</title>
<polygon fill="white" stroke="#bfbfbf" points="222,-0.5 222,-19.5 272,-19.5 272,-0.5 222,-0.5"/>
<text text-anchor="middle" x="247" y="-7.5" font-family="Helvetica,sans-Serif" font-size="10.00">TTree.h</text>
</g>
<!-- Node5&#45;&gt;Node6 -->
<g id="edge6" class="edge"><title>Node5&#45;&gt;Node6</title>
<path fill="none" stroke="midnightblue" d="M273.716,-56.083C269.289,-48.6127 262.837,-37.7244 257.382,-28.5199"/>
<polygon fill="midnightblue" stroke="midnightblue" points="260.295,-26.5697 252.186,-19.7511 254.273,-30.1383 260.295,-26.5697"/>
</g>
<!-- Node7 -->
<g id="node8" class="node"><title>Node7</title>
<polygon fill="white" stroke="#bfbfbf" points="290,-0.5 290,-19.5 334,-19.5 334,-0.5 290,-0.5"/>
<text text-anchor="middle" x="312" y="-7.5" font-family="Helvetica,sans-Serif" font-size="10.00">vector</text>
</g>
<!-- Node5&#45;&gt;Node7 -->
<g id="edge7" class="edge"><title>Node5&#45;&gt;Node7</title>
<path fill="none" stroke="midnightblue" d="M284.449,-56.083C289.014,-48.6127 295.668,-37.7244 301.293,-28.5199"/>
<polygon fill="midnightblue" stroke="midnightblue" points="304.424,-30.109 306.652,-19.7511 298.451,-26.4588 304.424,-30.109"/>
</g>
<!-- Node8 -->
<g id="node9" class="node"><title>Node8</title>
<polygon fill="white" stroke="#bfbfbf" points="352.5,-0.5 352.5,-19.5 393.5,-19.5 393.5,-0.5 352.5,-0.5"/>
<text text-anchor="middle" x="373" y="-7.5" font-family="Helvetica,sans-Serif" font-size="10.00">string</text>
</g>
<!-- Node5&#45;&gt;Node8 -->
<g id="edge8" class="edge"><title>Node5&#45;&gt;Node8</title>
<path fill="none" stroke="midnightblue" d="M294.103,-56.324C308.903,-47.8215 331.694,-34.7288 348.982,-24.7975"/>
<polygon fill="midnightblue" stroke="midnightblue" points="351.007,-27.6707 357.935,-19.6545 347.52,-21.6009 351.007,-27.6707"/>
</g>
<!-- Node9 -->
<g id="node10" class="node"><title>Node9</title>
<polygon fill="white" stroke="#bfbfbf" points="412,-0.5 412,-19.5 468,-19.5 468,-0.5 412,-0.5"/>
<text text-anchor="middle" x="440" y="-7.5" font-family="Helvetica,sans-Serif" font-size="10.00">algorithm</text>
</g>
<!-- Node5&#45;&gt;Node9 -->
<g id="edge9" class="edge"><title>Node5&#45;&gt;Node9</title>
<path fill="none" stroke="midnightblue" d="M304.511,-56.4435C331.596,-47.3591 374.59,-32.9388 404.869,-22.7831"/>
<polygon fill="midnightblue" stroke="midnightblue" points="406.24,-26.0148 414.608,-19.5164 404.014,-19.3781 406.24,-26.0148"/>
</g>
</g>
</svg>
