<?xml version="1.0" encoding="UTF-8" standalone="no"?>
<!DOCTYPE svg PUBLIC "-//W3C//DTD SVG 1.1//EN"
 "http://www.w3.org/Graphics/SVG/1.1/DTD/svg11.dtd">
<!-- Generated by graphviz version 2.36.0 (20140111.2315)
 -->
<!-- Title: src/base/std_ext/vector.h Pages: 1 -->
<svg width="892pt" height="252pt"
 viewBox="0.00 0.00 892.00 252.00" xmlns="http://www.w3.org/2000/svg" xmlns:xlink="http://www.w3.org/1999/xlink">
<g id="graph0" class="graph" transform="scale(1 1) rotate(0) translate(4 248)">
<title>src/base/std_ext/vector.h</title>
<polygon fill="white" stroke="none" points="-4,4 -4,-248 888,-248 888,4 -4,4"/>
<!-- Node4 -->
<g id="node1" class="node"><title>Node4</title>
<polygon fill="#bfbfbf" stroke="black" points="403,-224.5 403,-243.5 531,-243.5 531,-224.5 403,-224.5"/>
<text text-anchor="middle" x="467" y="-231.5" font-family="Helvetica,sans-Serif" font-size="10.00">src/base/std_ext/vector.h</text>
</g>
<!-- Node5 -->
<g id="node2" class="node"><title>Node5</title>
<g id="a_node2"><a xlink:href="_p_c_a_8cc.html" target="_top" xlink:title="Tool to perform a Principal Component Analysis, based on ROOTs TPrincipal class, to create principal ...">
<polygon fill="white" stroke="black" points="0,-79.5 0,-98.5 78,-98.5 78,-79.5 0,-79.5"/>
<text text-anchor="middle" x="39" y="-86.5" font-family="Helvetica,sans-Serif" font-size="10.00">progs/PCA.cc</text>
</a>
</g>
</g>
<!-- Node4&#45;&gt;Node5 -->
<g id="edge1" class="edge"><title>Node4&#45;&gt;Node5</title>
<path fill="none" stroke="midnightblue" d="M392.809,-231.952C298.005,-229.292 140.472,-220.023 93,-188 60.6305,-166.164 45.8018,-118.203 40.9242,-98.6031"/>
<polygon fill="midnightblue" stroke="midnightblue" points="392.825,-235.454 402.914,-232.218 393.009,-228.456 392.825,-235.454"/>
</g>
<!-- Node6 -->
<g id="node3" class="node"><title>Node6</title>
<g id="a_node3"><a xlink:href="_meson_dalitz_decays__plot_8cc.html" target="_top" xlink:title="src/analysis/physics\l/common/MesonDalitzDecays\l_plot.cc">
<polygon fill="white" stroke="black" points="102.5,-146.5 102.5,-187.5 251.5,-187.5 251.5,-146.5 102.5,-146.5"/>
<text text-anchor="start" x="110.5" y="-175.5" font-family="Helvetica,sans-Serif" font-size="10.00">src/analysis/physics</text>
<text text-anchor="start" x="110.5" y="-164.5" font-family="Helvetica,sans-Serif" font-size="10.00">/common/MesonDalitzDecays</text>
<text text-anchor="middle" x="177" y="-153.5" font-family="Helvetica,sans-Serif" font-size="10.00">_plot.cc</text>
</a>
</g>
</g>
<!-- Node4&#45;&gt;Node6 -->
<g id="edge2" class="edge"><title>Node4&#45;&gt;Node6</title>
<path fill="none" stroke="midnightblue" d="M416.768,-222.301C375.021,-213.344 314.083,-200.116 261,-188 257.931,-187.299 254.8,-186.579 251.638,-185.847"/>
<polygon fill="midnightblue" stroke="midnightblue" points="416.177,-225.754 426.688,-224.427 417.643,-218.909 416.177,-225.754"/>
</g>
<!-- Node7 -->
<g id="node4" class="node"><title>Node7</title>
<g id="a_node4"><a xlink:href="etaprime__dalitz_8h.html" target="_top" xlink:title="src/analysis/physics\l/etaprime/etaprime_dalitz.h">
<polygon fill="white" stroke="black" points="270,-152 270,-182 404,-182 404,-152 270,-152"/>
<text text-anchor="start" x="278" y="-170" font-family="Helvetica,sans-Serif" font-size="10.00">src/analysis/physics</text>
<text text-anchor="middle" x="337" y="-159" font-family="Helvetica,sans-Serif" font-size="10.00">/etaprime/etaprime_dalitz.h</text>
</a>
</g>
</g>
<!-- Node4&#45;&gt;Node7 -->
<g id="edge3" class="edge"><title>Node4&#45;&gt;Node7</title>
<path fill="none" stroke="midnightblue" d="M440.684,-219.842C418.8,-208.9 387.721,-193.36 365.303,-182.152"/>
<polygon fill="midnightblue" stroke="midnightblue" points="439.227,-223.027 449.737,-224.369 442.358,-216.766 439.227,-223.027"/>
</g>
<!-- Node9 -->
<g id="node6" class="node"><title>Node9</title>
<g id="a_node6"><a xlink:href="etaprime__dalitz_8cc.html" target="_top" xlink:title="src/analysis/physics\l/etaprime/etaprime_dalitz.cc">
<polygon fill="white" stroke="black" points="397,-74 397,-104 537,-104 537,-74 397,-74"/>
<text text-anchor="start" x="405" y="-92" font-family="Helvetica,sans-Serif" font-size="10.00">src/analysis/physics</text>
<text text-anchor="middle" x="467" y="-81" font-family="Helvetica,sans-Serif" font-size="10.00">/etaprime/etaprime_dalitz.cc</text>
</a>
</g>
</g>
<!-- Node4&#45;&gt;Node9 -->
<g id="edge9" class="edge"><title>Node4&#45;&gt;Node9</title>
<path fill="none" stroke="midnightblue" d="M467,-214.12C467,-185.145 467,-130.345 467,-104.362"/>
<polygon fill="midnightblue" stroke="midnightblue" points="463.5,-214.483 467,-224.483 470.5,-214.483 463.5,-214.483"/>
</g>
<!-- Node11 -->
<g id="node8" class="node"><title>Node11</title>
<g id="a_node8"><a xlink:href="_etap_dalitz_m_c_8cc.html" target="_top" xlink:title="src/analysis/physics\l/scratch/wagner/EtapDalitzMC.cc">
<polygon fill="white" stroke="black" points="350,-1 350,-31 514,-31 514,-1 350,-1"/>
<text text-anchor="start" x="358" y="-19" font-family="Helvetica,sans-Serif" font-size="10.00">src/analysis/physics</text>
<text text-anchor="middle" x="432" y="-8" font-family="Helvetica,sans-Serif" font-size="10.00">/scratch/wagner/EtapDalitzMC.cc</text>
</a>
</g>
</g>
<!-- Node4&#45;&gt;Node11 -->
<g id="edge11" class="edge"><title>Node4&#45;&gt;Node11</title>
<path fill="none" stroke="midnightblue" d="M484.757,-217.563C517.126,-187.515 579.441,-119.596 546,-68 534.502,-50.2603 515.226,-38.6356 495.765,-31.0411"/>
<polygon fill="midnightblue" stroke="midnightblue" points="482.318,-215.05 477.249,-224.353 487.014,-220.241 482.318,-215.05"/>
</g>
<!-- Node12 -->
<g id="node9" class="node"><title>Node12</title>
<g id="a_node9"><a xlink:href="_omega___ep_em__plot_8cc.html" target="_top" xlink:title="src/analysis/physics\l/omega/Omega_EpEm_plot.cc">
<polygon fill="white" stroke="black" points="593,-152 593,-182 743,-182 743,-152 593,-152"/>
<text text-anchor="start" x="601" y="-170" font-family="Helvetica,sans-Serif" font-size="10.00">src/analysis/physics</text>
<text text-anchor="middle" x="668" y="-159" font-family="Helvetica,sans-Serif" font-size="10.00">/omega/Omega_EpEm_plot.cc</text>
</a>
</g>
</g>
<!-- Node4&#45;&gt;Node12 -->
<g id="edge10" class="edge"><title>Node4&#45;&gt;Node12</title>
<path fill="none" stroke="midnightblue" d="M503.258,-221.275C537.34,-210.253 588.393,-193.744 624.621,-182.028"/>
<polygon fill="midnightblue" stroke="midnightblue" points="502.129,-217.961 493.691,-224.369 504.283,-224.622 502.129,-217.961"/>
</g>
<!-- Node13 -->
<g id="node10" class="node"><title>Node13</title>
<g id="a_node10"><a xlink:href="_test_std_ext_8cc.html" target="_top" xlink:title="test/base/TestStdExt.cc">
<polygon fill="white" stroke="black" points="761.5,-157.5 761.5,-176.5 884.5,-176.5 884.5,-157.5 761.5,-157.5"/>
<text text-anchor="middle" x="823" y="-164.5" font-family="Helvetica,sans-Serif" font-size="10.00">test/base/TestStdExt.cc</text>
</a>
</g>
</g>
<!-- Node4&#45;&gt;Node13 -->
<g id="edge12" class="edge"><title>Node4&#45;&gt;Node13</title>
<path fill="none" stroke="midnightblue" d="M541.215,-223.596C598.768,-215.737 680.362,-203.355 751,-188 765.706,-184.803 781.867,-180.397 795.146,-176.534"/>
<polygon fill="midnightblue" stroke="midnightblue" points="540.556,-220.154 531.115,-224.963 541.494,-227.09 540.556,-220.154"/>
</g>
<!-- Node7&#45;&gt;Node5 -->
<g id="edge4" class="edge"><title>Node7&#45;&gt;Node5</title>
<path fill="none" stroke="midnightblue" d="M274.461,-149.483C269.575,-148.276 264.711,-147.101 260,-146 183.526,-128.123 162.029,-133.207 87,-110 76.9954,-106.905 66.202,-102.509 57.3888,-98.6257"/>
<polygon fill="midnightblue" stroke="midnightblue" points="273.93,-152.958 284.481,-151.993 275.631,-146.168 273.93,-152.958"/>
</g>
<!-- Node8 -->
<g id="node5" class="node"><title>Node8</title>
<g id="a_node5"><a xlink:href="_etap_dalitz__plot_8cc.html" target="_top" xlink:title="src/analysis/physics\l/etaprime/EtapDalitz\l_plot.cc">
<polygon fill="white" stroke="black" points="96,-68.5 96,-109.5 202,-109.5 202,-68.5 96,-68.5"/>
<text text-anchor="start" x="104" y="-97.5" font-family="Helvetica,sans-Serif" font-size="10.00">src/analysis/physics</text>
<text text-anchor="start" x="104" y="-86.5" font-family="Helvetica,sans-Serif" font-size="10.00">/etaprime/EtapDalitz</text>
<text text-anchor="middle" x="149" y="-75.5" font-family="Helvetica,sans-Serif" font-size="10.00">_plot.cc</text>
</a>
</g>
</g>
<!-- Node7&#45;&gt;Node8 -->
<g id="edge5" class="edge"><title>Node7&#45;&gt;Node8</title>
<path fill="none" stroke="midnightblue" d="M292.739,-148.107C264.154,-136.552 226.949,-121.511 197.553,-109.628"/>
<polygon fill="midnightblue" stroke="midnightblue" points="291.496,-151.38 302.079,-151.883 294.12,-144.89 291.496,-151.38"/>
</g>
<!-- Node7&#45;&gt;Node9 -->
<g id="edge6" class="edge"><title>Node7&#45;&gt;Node9</title>
<path fill="none" stroke="midnightblue" d="M369.806,-146.821C392.579,-133.508 422.407,-116.07 442.982,-104.041"/>
<polygon fill="midnightblue" stroke="midnightblue" points="368.014,-143.815 361.147,-151.883 371.547,-149.858 368.014,-143.815"/>
</g>
<!-- Node10 -->
<g id="node7" class="node"><title>Node10</title>
<g id="a_node7"><a xlink:href="_etap_dalitz_m_c_8h.html" target="_top" xlink:title="src/analysis/physics\l/scratch/wagner/EtapDalitzMC.h">
<polygon fill="white" stroke="black" points="219.5,-74 219.5,-104 378.5,-104 378.5,-74 219.5,-74"/>
<text text-anchor="start" x="227.5" y="-92" font-family="Helvetica,sans-Serif" font-size="10.00">src/analysis/physics</text>
<text text-anchor="middle" x="299" y="-81" font-family="Helvetica,sans-Serif" font-size="10.00">/scratch/wagner/EtapDalitzMC.h</text>
</a>
</g>
</g>
<!-- Node7&#45;&gt;Node10 -->
<g id="edge7" class="edge"><title>Node7&#45;&gt;Node10</title>
<path fill="none" stroke="midnightblue" d="M325.352,-142.705C319.071,-130.141 311.521,-115.042 306.115,-104.231"/>
<polygon fill="midnightblue" stroke="midnightblue" points="322.25,-144.326 329.852,-151.705 328.511,-141.195 322.25,-144.326"/>
</g>
<!-- Node10&#45;&gt;Node11 -->
<g id="edge8" class="edge"><title>Node10&#45;&gt;Node11</title>
<path fill="none" stroke="midnightblue" d="M334.114,-69.2549C356.427,-57.3433 384.858,-42.1661 405.323,-31.2412"/>
<polygon fill="midnightblue" stroke="midnightblue" points="332.45,-66.1757 325.277,-73.9727 335.747,-72.3509 332.45,-66.1757"/>
</g>
</g>
</svg>
