<?xml version="1.0" encoding="UTF-8" standalone="no"?>
<!DOCTYPE svg PUBLIC "-//W3C//DTD SVG 1.1//EN"
 "http://www.w3.org/Graphics/SVG/1.1/DTD/svg11.dtd">
<!-- Generated by graphviz version 2.36.0 (20140111.2315)
 -->
<!-- Title: src/base/math_functions/voigtian.h Pages: 1 -->
<svg width="298pt" height="108pt"
 viewBox="0.00 0.00 298.00 108.00" xmlns="http://www.w3.org/2000/svg" xmlns:xlink="http://www.w3.org/1999/xlink">
<g id="graph0" class="graph" transform="scale(1 1) rotate(0) translate(4 104)">
<title>src/base/math_functions/voigtian.h</title>
<polygon fill="white" stroke="none" points="-4,4 -4,-104 294,-104 294,4 -4,4"/>
<!-- Node1 -->
<g id="node1" class="node"><title>Node1</title>
<polygon fill="#bfbfbf" stroke="black" points="77,-69 77,-99 201,-99 201,-69 77,-69"/>
<text text-anchor="start" x="85" y="-87" font-family="Helvetica,sans-Serif" font-size="10.00">src/base/math_functions</text>
<text text-anchor="middle" x="139" y="-76" font-family="Helvetica,sans-Serif" font-size="10.00">/voigtian.h</text>
</g>
<!-- Node2 -->
<g id="node2" class="node"><title>Node2</title>
<g id="a_node2"><a xlink:href="voigtian_8cc.html" target="_top" xlink:title="src/base/math_functions\l/voigtian.cc">
<polygon fill="white" stroke="black" points="0,-1 0,-31 124,-31 124,-1 0,-1"/>
<text text-anchor="start" x="8" y="-19" font-family="Helvetica,sans-Serif" font-size="10.00">src/base/math_functions</text>
<text text-anchor="middle" x="62" y="-8" font-family="Helvetica,sans-Serif" font-size="10.00">/voigtian.cc</text>
</a>
</g>
</g>
<!-- Node1&#45;&gt;Node2 -->
<g id="edge1" class="edge"><title>Node1&#45;&gt;Node2</title>
<path fill="none" stroke="midnightblue" d="M114.522,-62.0184C102.734,-51.9145 88.9146,-40.0696 78.4107,-31.0663"/>
<polygon fill="midnightblue" stroke="midnightblue" points="112.422,-64.8284 122.292,-68.679 116.977,-59.5136 112.422,-64.8284"/>
</g>
<!-- Node3 -->
<g id="node3" class="node"><title>Node3</title>
<g id="a_node3"><a xlink:href="root-addons_2analysis__codes_2_extract_resolutions_8cc.html" target="_top" xlink:title="src/root&#45;addons/analysis\l_codes/ExtractResolutions.cc">
<polygon fill="white" stroke="black" points="142,-1 142,-31 290,-31 290,-1 142,-1"/>
<text text-anchor="start" x="150" y="-19" font-family="Helvetica,sans-Serif" font-size="10.00">src/root&#45;addons/analysis</text>
<text text-anchor="middle" x="216" y="-8" font-family="Helvetica,sans-Serif" font-size="10.00">_codes/ExtractResolutions.cc</text>
</a>
</g>
</g>
<!-- Node1&#45;&gt;Node3 -->
<g id="edge2" class="edge"><title>Node1&#45;&gt;Node3</title>
<path fill="none" stroke="midnightblue" d="M163.478,-62.0184C175.266,-51.9145 189.085,-40.0696 199.589,-31.0663"/>
<polygon fill="midnightblue" stroke="midnightblue" points="161.023,-59.5136 155.708,-68.679 165.578,-64.8284 161.023,-59.5136"/>
</g>
</g>
</svg>
